<svg viewBox="0 0 330 200" xmlns="http://www.w3.org/2000/svg"><g><g><g><g><g><line x1="61.91500186920166" y1="177.86299896240234" x2="56.91500186920166" y2="177.86299896240234" style="visibility: inherit;" fill="rgb(0, 0, 0)" stroke="rgb(204, 204, 204)" stroke-width="1px"></line><line x1="61.91500186920166" y1="160.0766990661621" x2="56.91500186920166" y2="160.0766990661621" style="visibility: inherit;" fill="rgb(0, 0, 0)" stroke="rgb(204, 204, 204)" stroke-width="1px"></line><line x1="61.91500186920166" y1="142.29039916992187" x2="56.91500186920166" y2="142.29039916992187" style="visibility: inherit;" fill="rgb(0, 0, 0)" stroke="rgb(204, 204, 204)" stroke-width="1px"></line><line x1="61.91500186920166" y1="124.50409927368163" x2="56.91500186920166" y2="124.50409927368163" style="visibility: inherit;" fill="rgb(0, 0, 0)" stroke="rgb(204, 204, 204)" stroke-width="1px"></line><line x1="61.91500186920166" y1="106.71779937744138" x2="56.91500186920166" y2="106.71779937744138" style="visibility: inherit;" fill="rgb(0, 0, 0)" stroke="rgb(204, 204, 204)" stroke-width="1px"></line><line x1="61.91500186920166" y1="88.93149948120119" x2="56.91500186920166" y2="88.93149948120119" style="visibility: inherit;" fill="rgb(0, 0, 0)" stroke="rgb(204, 204, 204)" stroke-width="1px"></line><line x1="61.91500186920166" y1="71.14519958496093" x2="56.91500186920166" y2="71.14519958496093" style="visibility: inherit;" fill="rgb(0, 0, 0)" stroke="rgb(204, 204, 204)" stroke-width="1px"></line><line x1="61.91500186920166" y1="53.35889968872069" x2="56.91500186920166" y2="53.35889968872069" style="visibility: inherit;" fill="rgb(0, 0, 0)" stroke="rgb(204, 204, 204)" stroke-width="1px"></line><line x1="61.91500186920166" y1="35.5725997924805" x2="56.91500186920166" y2="35.5725997924805" style="visibility: inherit;" fill="rgb(0, 0, 0)" stroke="rgb(204, 204, 204)" stroke-width="1px"></line><line x1="61.91500186920166" y1="17.78629989624025" x2="56.91500186920166" y2="17.78629989624025" style="visibility: inherit;" fill="rgb(0, 0, 0)" stroke="rgb(204, 204, 204)" stroke-width="1px"></line><line x1="61.91500186920166" y1="0" x2="56.91500186920166" y2="0" style="visibility: inherit;" fill="rgb(0, 0, 0)" stroke="rgb(204, 204, 204)" stroke-width="1px"></line></g><g transform="translate(51.91500186920166, 0)"><text style="text-anchor: end; visibility: hidden; font-family: Roboto, sans-serif; font-size: 12px; font-weight: 200;" x="0" y="177.86299896240234" dx="0em" dy="0.3em" fill="rgb(50, 49, 63)" stroke="none" stroke-width="1px">0.08</text><text style="text-anchor: end; visibility: inherit; font-family: Roboto, sans-serif; font-size: 12px; font-weight: 200;" x="0" y="160.0766990661621" dx="0em" dy="0.3em" fill="rgb(50, 49, 63)" stroke="none" stroke-width="1px">0.085</text><text style="text-anchor: end; visibility: hidden; font-family: Roboto, sans-serif; font-size: 12px; font-weight: 200;" x="0" y="142.29039916992187" dx="0em" dy="0.3em" fill="rgb(50, 49, 63)" stroke="none" stroke-width="1px">0.09</text><text style="text-anchor: end; visibility: inherit; font-family: Roboto, sans-serif; font-size: 12px; font-weight: 200;" x="0" y="124.50409927368163" dx="0em" dy="0.3em" fill="rgb(50, 49, 63)" stroke="none" stroke-width="1px">0.095</text><text style="text-anchor: end; visibility: hidden; font-family: Roboto, sans-serif; font-size: 12px; font-weight: 200;" x="0" y="106.71779937744138" dx="0em" dy="0.3em" fill="rgb(50, 49, 63)" stroke="none" stroke-width="1px">0.1</text><text style="text-anchor: end; visibility: inherit; font-family: Roboto, sans-serif; font-size: 12px; font-weight: 200;" x="0" y="88.93149948120119" dx="0em" dy="0.3em" fill="rgb(50, 49, 63)" stroke="none" stroke-width="1px">0.105</text><text style="text-anchor: end; visibility: hidden; font-family: Roboto, sans-serif; font-size: 12px; font-weight: 200;" x="0" y="71.14519958496093" dx="0em" dy="0.3em" fill="rgb(50, 49, 63)" stroke="none" stroke-width="1px">0.11</text><text style="text-anchor: end; visibility: inherit; font-family: Roboto, sans-serif; font-size: 12px; font-weight: 200;" x="0" y="53.35889968872069" dx="0em" dy="0.3em" fill="rgb(50, 49, 63)" stroke="none" stroke-width="1px">0.115</text><text style="text-anchor: end; visibility: hidden; font-family: Roboto, sans-serif; font-size: 12px; font-weight: 200;" x="0" y="35.5725997924805" dx="0em" dy="0.3em" fill="rgb(50, 49, 63)" stroke="none" stroke-width="1px">0.12</text><text style="text-anchor: end; visibility: inherit; font-family: Roboto, sans-serif; font-size: 12px; font-weight: 200;" x="0" y="17.78629989624025" dx="0em" dy="0.3em" fill="rgb(50, 49, 63)" stroke="none" stroke-width="1px">0.125</text><text style="text-anchor: end; visibility: hidden; font-family: Roboto, sans-serif; font-size: 12px; font-weight: 200;" x="0" y="0" dx="0em" dy="0.3em" fill="rgb(50, 49, 63)" stroke="none" stroke-width="1px">0.13</text></g><line x1="61.91500186920166" y1="0" x2="61.91500186920166" y2="177.86299896240234" fill="rgb(0, 0, 0)" stroke="rgb(204, 204, 204)" stroke-width="1px"></line></g></g><g transform="translate(61, 0)" clip-path="url(#clip_0)"><clipPath id="clip_0"><rect width="268" height="177"></rect></clipPath><g><g><g><line x1="0" y1="0" x2="0" y2="177.86299896240234" fill="rgb(0, 0, 0)" stroke="rgb(60, 60, 60)" stroke-width="1px" opacity="0.25"></line><line x1="38.29785687582833" y1="0" x2="38.29785687582833" y2="177.86299896240234" fill="rgb(0, 0, 0)" stroke="rgb(60, 60, 60)" stroke-width="1px" opacity="0.25"></line><line x1="76.59571375165666" y1="0" x2="76.59571375165666" y2="177.86299896240234" fill="rgb(0, 0, 0)" stroke="rgb(60, 60, 60)" stroke-width="1px" opacity="0.25"></line><line x1="114.89357062748499" y1="0" x2="114.89357062748499" y2="177.86299896240234" fill="rgb(0, 0, 0)" stroke="rgb(60, 60, 60)" stroke-width="1px" opacity="0.25"></line><line x1="153.19142750331332" y1="0" x2="153.19142750331332" y2="177.86299896240234" fill="rgb(0, 0, 0)" stroke="rgb(60, 60, 60)" stroke-width="1px" opacity="0.25"></line><line x1="191.48928437914168" y1="0" x2="191.48928437914168" y2="177.86299896240234" fill="rgb(0, 0, 0)" stroke="rgb(60, 60, 60)" stroke-width="1px" opacity="0.25"></line><line x1="229.78714125496998" y1="0" x2="229.78714125496998" y2="177.86299896240234" fill="rgb(0, 0, 0)" stroke="rgb(60, 60, 60)" stroke-width="1px" opacity="0.25"></line><line x1="268.08499813079834" y1="0" x2="268.08499813079834" y2="177.86299896240234" fill="rgb(0, 0, 0)" stroke="rgb(60, 60, 60)" stroke-width="1px" opacity="0.25"></line></g><g><line x1="0" y1="177.86299896240234" x2="268.08499813079834" y2="177.86299896240234" fill="rgb(0, 0, 0)" stroke="rgb(60, 60, 60)" stroke-width="1px" opacity="0.25"></line><line x1="0" y1="160.0766990661621" x2="268.08499813079834" y2="160.0766990661621" fill="rgb(0, 0, 0)" stroke="rgb(60, 60, 60)" stroke-width="1px" opacity="0.25"></line><line x1="0" y1="142.29039916992187" x2="268.08499813079834" y2="142.29039916992187" fill="rgb(0, 0, 0)" stroke="rgb(60, 60, 60)" stroke-width="1px" opacity="0.25"></line><line x1="0" y1="124.50409927368163" x2="268.08499813079834" y2="124.50409927368163" fill="rgb(0, 0, 0)" stroke="rgb(60, 60, 60)" stroke-width="1px" opacity="0.25"></line><line x1="0" y1="106.71779937744138" x2="268.08499813079834" y2="106.71779937744138" fill="rgb(0, 0, 0)" stroke="rgb(60, 60, 60)" stroke-width="1px" opacity="0.25"></line><line x1="0" y1="88.93149948120119" x2="268.08499813079834" y2="88.93149948120119" fill="rgb(0, 0, 0)" stroke="rgb(60, 60, 60)" stroke-width="1px" opacity="0.25"></line><line x1="0" y1="71.14519958496093" x2="268.08499813079834" y2="71.14519958496093" fill="rgb(0, 0, 0)" stroke="rgb(60, 60, 60)" stroke-width="1px" opacity="0.25"></line><line x1="0" y1="53.35889968872069" x2="268.08499813079834" y2="53.35889968872069" fill="rgb(0, 0, 0)" stroke="rgb(60, 60, 60)" stroke-width="1px" opacity="0.25"></line><line x1="0" y1="35.5725997924805" x2="268.08499813079834" y2="35.5725997924805" fill="rgb(0, 0, 0)" stroke="rgb(60, 60, 60)" stroke-width="1px" opacity="0.25"></line><line x1="0" y1="17.78629989624025" x2="268.08499813079834" y2="17.78629989624025" fill="rgb(0, 0, 0)" stroke="rgb(60, 60, 60)" stroke-width="1px" opacity="0.25"></line><line x1="0" y1="0" x2="268.08499813079834" y2="0" fill="rgb(0, 0, 0)" stroke="rgb(60, 60, 60)" stroke-width="1px" opacity="0.25"></line></g></g></g><g><g><line x1="0" y1="462.443797302246" x2="268.08499813079834" y2="462.443797302246" fill="rgb(0, 0, 0)" stroke="rgb(153, 153, 153)" stroke-width="1.5px"></line></g></g><g><g><line x1="38.29785687582833" y1="0" x2="38.29785687582833" y2="177.86299896240234" fill="rgb(0, 0, 0)" stroke="rgb(153, 153, 153)" stroke-width="1.5px"></line></g></g><g><g><g><g><g><path style="fill: none;" stroke="rgb(255, 112, 67)" stroke-width="2px" d="M38.68083544458662,112.51618358960715L38.75743115833828,127.92696405639165L39.29360115459987,128.76901280679414L39.67657972335815,28.923594458425026L39.82977115086147,-22.003804907328774L40.05955829211644,48.65368323532834L40.21274971961975,60.471699441465944L40.2893454333714,94.99299391692001L40.44253686087472,57.049008004333785L40.59572828837804,27.579239332575987L40.825515429633,10.01183653126113L40.978706857136316,-0.48772639245713606L41.514876853397915,28.58722343689531L41.82125970840454,57.339811064674414L41.8978554221562,75.23047405203235L41.974451135907856,83.05190488580254L42.20423827716282,67.04440692659264L42.89359970092774,47.31693993177117L42.97019541467939,32.22852796581163L43.046791128431046,41.6902044852239L43.27657826968601,42.187955731628776L43.50636541094099,56.283490462386446L43.81274826594761,81.10501416717923L44.119131120954236,59.67929460945451L44.1957268347059,36.95527550539568L44.27232254845755,80.5519293864661L44.42551397596087,65.78323178257385L44.578705403464184,58.929622772396854L44.655301117215835,103.5540686758856L44.80849254471915,143.4981813452372L44.88508825847081,75.83344844576511L45.038279685974125,112.05621971202501L45.191471113477434,124.74134251426199L45.72764110973903,126.36897232335369L45.957428250994,130.17357472682917L46.03402396474566,123.41802876316152L46.18721539224897,152.16692534971662L46.4935982472556,112.94346827741622L46.87657681601388,89.00120607839042L46.95317252976554,86.72064488337351L47.87232109478542,80.40630260919947L47.94891680853707,59.13621690714695L48.2552996635437,122.53215561747335L48.48508680479867,123.84394724706904L48.638278232301985,118.40092532224459L48.791469659805294,110.54488103767576L49.48083108357021,120.35045340043673L49.94040536608014,123.9401707581845L50.32338393483843,112.2403725549445L50.39997964859009,145.52033571567304L50.62976678984506,154.1175259274956L50.782958217348366,129.25725231989568L50.93614964485168,117.69451045398559L51.39572392736163,99.71168031781038L51.47231964111328,105.62717059616396L52.16168106487819,93.8058307035225L52.314872492381504,132.68318741503074L52.46806391988481,104.39089763064L52.69785106113979,115.15993911566697L53.3872124849047,143.45899521276L53.61699962615967,154.09605189713233L53.693595339911326,110.89614393287374L53.846786767414635,127.956800842845L54.07657390866961,112.15126823457949L54.6127439049312,127.16881526715505L54.76593533243452,131.1531060756742L54.842531046186174,122.43100664424506L55.1489139011928,125.94118522336777L55.22550961494446,97.16629699725962L55.302105328696115,91.02872100144278L55.37870104244777,83.97169860406355L55.60848818370274,96.21080897494416L55.6850838974544,85.27617989226418L55.99146675246102,112.9221715048819L56.06806246621268,78.39009462732871L56.14465817996434,136.01138255642147L56.52763674872262,113.42985630251953L56.68082817622594,91.96619730562816L56.757423889977595,104.8169205295002L57.06380674498422,71.0191472699443L57.446785313742495,71.32574274457494L57.52338102749416,121.99428075948867L57.67657245499747,156.71147031858027L57.829763882500785,158.61853684747112L57.90635959625244,175.69079323124888L57.982955310004094,177.97988157083518L58.21274245125907,165.37909313659753L58.365933878762384,135.8814941596964L58.59572102001736,125.40650517510545L58.74891244752067,81.79122370399419L58.97869958877563,83.90077320346396L59.05529530252729,81.77914532829735L59.361678157533916,74.4757820213123L59.43827387128558,84.18442011694428L59.51486958503723,68.06573452885043L59.59146529878889,91.72978854578938L59.82125244004386,130.5395123699285L59.897848153795515,129.02490398556083L60.2808267225538,129.59220155504826L60.893592432567054,105.64427278968635L61.04678386007036,110.73587515064426L61.12337957382202,126.55259952675692L61.27657100132533,130.10388659831563L61.42976242882865,125.3919353200611L61.506358142580304,122.64006672968102L61.73614528383528,97.51000679865928L61.81274099758693,62.25330923849969L61.889336711338586,88.86703505491293L62.0425281388419,123.90380017111269L62.50210242135184,115.59543353436611L62.5786981351035,111.16436108579349L62.65529384885515,99.0260821313466L63.03827241761344,89.78428283338862L63.19146384511675,96.25104007499957L63.2680595588684,102.40279665850572L63.421250986371724,79.37700305087759L64.1872081238883,60.29771073713656L64.3403995513916,101.555117848408L64.57018669264657,121.31799148119565L64.79997383390155,82.8256144618922L64.95316526140486,103.238753291714L65.18295240265982,137.97649087144077L65.33614383016314,109.14600970719391L65.48933525766645,102.13819862727091L65.64252668516977,98.18123631550932L65.87231382642473,117.25079285583556L65.94890954017639,100.57552308203384L66.1021009676797,90.98370157568498L66.63827096394131,96.53366729885757L66.71486667769295,121.23256615077176L66.79146239144461,109.18471858756482L66.86805810519627,164.44293929268142L67.63401524271283,153.13612932736032L67.86380238396781,130.05539288428878L67.94039809771947,116.20695101844582L68.24678095272608,134.923607019173L68.62975952148437,109.38875205631304L68.78295094898769,70.64333880338026L68.93614237649099,84.5760820211972L69.16592951774598,91.59066760377273L69.39571665900094,140.61412637997606L69.85529094151087,145.86636976684488L69.93188665526253,129.76976704881923L70.08507808276586,104.73707919446188L70.16167379651752,88.69936578848127L70.62124807902744,67.18655268801149L70.69784379277911,73.08479626828601L70.92763093403407,121.44164088283121L71.2340137890407,103.65422044290882L71.31060950279236,119.79979607924805L71.38720521654402,111.03332694189253L71.46380093029568,95.55096561088602L71.84677949905397,101.09306678221193L72.07656664030893,77.68160218814093L72.15316235406058,86.26683871697121L72.22975806781223,146.6483371280664L72.61273663657052,121.48139868315161L72.9957152053288,70.23125058055143L73.14890663283212,82.10157877439597L73.22550234658377,122.90171208025846L73.30209806033542,83.40816695537274L73.37869377408708,88.31191891822931L73.5318852015904,50.36308454087475L74.14465091160366,73.08265944088213L74.45103376661028,89.59310386310412L74.52762948036195,27.326405946379424L75.2935866178785,42.38942384397408L75.6765651866368,70.97155777281091L75.82975661414011,98.04915924389515L75.90635232789175,129.3886913244968L75.98294804164341,130.1575233815103L76.05954375539507,170.52366486734056L76.3659266104017,145.38692348738013L76.74890517915999,128.32313697717L76.82550089291165,138.6609754406758L77.05528803416661,115.5694037938857L77.4382666029249,117.0251648071486L77.51486231667656,101.24986463129108L77.82124517168317,132.34012782964254L77.89784088543483,157.73504441917785L77.97443659918649,130.18111642813605L78.1276280266898,102.13282734832724L78.35741516794477,136.466769104462L78.6637980229514,147.84355575727704L78.74039373670306,116.29003887589732L79.04677659170969,142.56762540289054L79.12337230546134,104.53087287178695L79.50635087421963,123.99832440887586L79.65954230172294,150.31569168237382L80.04252087048123,132.69483420222616L80.11911658423288,151.54471309366735L80.19571229798453,98.87118776590067L80.4254994392395,143.16960987109002L80.50209515299116,118.4106223980417L80.5786908667428,118.57060902004278L80.80847800799779,124.34896281762778L80.88507372174944,129.3655906318156L80.9616694355011,104.7356293615636L81.03826514925275,93.5437027539209L81.42124371801104,75.7524691157242L81.57443514551434,87.94803784094763L81.651030859266,75.72607037679403L81.72762657301767,75.94094981421688L81.80422228676933,66.02040286804498L82.03400942802429,91.88236968177607L82.18720085552759,88.06721339132793L82.41698799678258,112.44279738584062L82.49358371053424,60.89027753113302L82.87656227929251,33.86411057135494L82.95315799304417,75.17138581012483L83.18294513429915,88.85427217952675L83.33613656180245,82.41411025889451L83.71911513056074,56.191680548257494L83.87230655806404,77.70543775484025L84.10209369931903,85.50321545967611L84.25528512682233,97.30311658233153L84.33188084057399,149.2638329867361L84.40847655432565,112.5127592800578L84.48507226807732,93.3032853667821L84.63826369558062,52.298924483518405L84.71485940933228,66.21254965726698L84.86805083683558,84.95014581445811L85.0212422643389,91.87576743883794L85.09783797809057,107.13928750621423L85.17443369184222,116.29739954663994L85.40422083309718,140.52114679383524L85.63400797435216,125.59181508713561L86.01698654311043,78.86867440520497L86.32336939811707,109.96042005506183L86.39996511186872,73.99374081983126L86.55315653937203,57.82887468034167L86.78294368062701,68.11416460288315L87.08932653563363,122.10392751525836L87.16592224938529,117.17984788424246L87.3191136768886,126.23263589200035L87.39570939064026,54.85343822730642L87.47230510439192,87.13895553775268L87.54890081814357,126.32704665870678L87.85528367315021,106.1944396256372L87.93187938690185,70.11159897574146L88.08507081440517,86.98537708728624L88.16166652815683,107.5649742893953L88.46804938316346,91.53810281201672L89.08081509317671,110.10400238311406L89.38719794818333,129.77523738575937L89.463793661935,139.49862905486566L89.69358080318996,127.45300345506742L89.77017651694162,119.26011064774656L89.84677223069328,142.75372454635337L89.99996365819658,164.2349977463714L90.07655937194825,181.34147866401753L90.22975079945155,137.73975798176193L90.38294222695487,60.2664251832434L90.45953794070653,100.03387567693242L90.61272936820984,107.44396372516437L90.76592079571316,135.02879685736343L90.99570793696812,153.55767490030723L91.22549507822309,161.40039068759702L91.53187793322971,152.39984726158684L91.60847364698137,162.8117697197036L92.14464364324297,131.2936359717236L92.29783507074629,152.97379873240928L92.37443078449795,135.9341758397655L92.75740935325622,128.57428074409802L93.06379220826285,153.54265661877557L93.21698363576616,135.8189492606004L93.5233664907728,162.15279281244383L93.90634505953108,135.04905040398003L94.28932362828935,138.2926342447561L94.36591934204101,120.12276697996685L94.44251505579268,116.11897337679933L94.67230219704764,139.1600124810184L94.82549362455096,168.94094770906003L94.97868505205426,109.48412827750421L95.05528076580593,132.2136859892921L95.20847219330923,125.83559745380968L95.43825933456421,98.36664907290893L95.51485504831587,92.82782171683782L95.59145076206752,114.56779939998093L95.74464218957084,93.64801303228457L95.89783361707414,85.17367509219372L95.9744293308258,129.7612631116655L96.12762075832913,123.4269533832413L96.28081218583243,99.7663964599087L96.58719504083905,58.75574491692159L96.74038646834238,67.48346380168952L97.046769323349,109.4319151885656L97.12336503710065,127.20508887266973L97.35315217835563,94.47551750095295L97.50634360585894,73.84997295972839L97.7361307471139,107.31180095397544L97.88932217461722,109.28774082726628L98.04251360212054,93.44251372344787L98.2723007433755,46.314270106163804L98.50208788463048,17.051494089320965L98.57868359838213,60.376809699651105L98.96166216714042,56.792205796755304L99.3446407358987,63.6370692442173L99.65102359090533,91.44474045530967L99.72761930465698,113.3779038289346L99.80421501840864,107.99004778916512L99.95740644591194,44.338601517906355L100.03400215966361,72.90362745768168L100.11059787341527,130.72997910011946L100.49357644217355,160.7175434934068L100.72336358342852,142.45159114170457L100.79995929718018,168.9887825511105L100.87655501093182,168.18643415309637L100.95315072468348,87.74688835445534L101.10634215218681,102.4700550130274L101.33612929344177,133.57207973586983L101.56591643469673,115.69331359283161L102.25527785846165,107.5021035723876L102.48506499971663,99.3853653256951L103.02123499597822,122.39085660139914L103.09783070972988,103.99781153994888L103.17442642348153,84.30239321913395L103.48080927848817,80.05292085978162L103.63400070599147,84.60440337849374L103.78719213349478,87.56721044775333L103.86378784724646,99.89894582812991L104.17017070225307,59.70682063612823L104.62974498476301,89.82221605889237L104.78293641226632,96.49484046947971L105.0127235535213,87.11102814586437L105.08931926727296,14.311697517528094L105.31910640852792,56.90245171806091L105.54889354978289,105.44239801889456L105.7020849772862,114.42048391486394L105.85527640478952,88.94981171323404L106.2382549735478,79.573482243958L106.31485068729945,59.66182378353617L106.54463782855441,17.376341890895947L106.85102068356106,68.91229050398549L107.00421211106436,93.97264060108608L107.310594966071,100.41996051795594L107.38719067982265,114.3675429715272L107.61697782107761,158.19606019555584L107.77016924858094,139.95911557697514L107.8467649623326,129.102131543932L108.07655210358756,108.36007033621885L108.15314781733922,129.0858929539423L108.38293495859419,85.61235631014684L108.45953067234585,110.05838013283207L108.5361263860975,131.9596044114386L108.99570066860744,114.67567288678825L109.37867923736572,124.96314040202995L109.53187066486905,111.6279151667463L109.60846637862069,104.70124868639792L110.68080637114389,141.42228741760215L110.75740208489555,94.80339093822225L110.91059351239885,76.68453131329939L111.44676350866045,96.53703365304149L111.52335922241211,86.21729281156075L111.59995493616375,69.74599620735387L111.90633779117039,87.95194784668205L111.98293350492204,64.96241023420319L112.28931635992868,67.39182760090944L112.5956992149353,39.526303713703065L112.67229492868695,82.30681920478786L112.82548635619028,72.96321028837943L112.97867778369358,75.87217011517862L113.05527349744524,79.26572332862037L113.1318692111969,115.76075886282611L113.20846492494854,102.51670437448861L113.82123063496181,91.25778162331457L114.12761348996844,107.16853154143824L114.28080491747174,71.54035446905539L114.51059205872673,65.55779775324143L114.89357062748499,85.30137940625461L115.35314490999494,100.76954930930918L115.4297406237466,63.710299619634796L115.50633633749827,93.55054620406345L115.65952776500157,107.06002817367347L115.88931490625653,99.7090630422799L116.65527204377311,63.7087809305795L116.80846347127643,80.45744569863885L116.96165489877973,78.55312637534473L117.19144204003472,55.02058866679076L117.42122918128968,32.79914340395498L117.57442060879298,89.58621491117532L117.65101632254463,73.11085140048911L118.03399489130292,100.52104256816575L118.11059060505458,96.12678428398753L118.34037774630956,110.90853554052192L118.41697346006121,102.43160323346896L118.49356917381287,120.47236111778146L118.72335631506783,137.31995103101772L118.79995202881949,100.15283803427776L119.10633488382612,75.11795520872533L119.25952631132942,97.8712073619154L119.71910059383937,31.973125130258325L119.87229202134267,16.716222221795327L120.10207916259766,65.73928264321628L120.40846201760428,87.52781673624165L120.71484487261091,126.86907791838807L120.86803630011423,138.12730968756625L121.17441915512086,136.71823335504337L121.2510148688725,112.68184806478031L121.63399343763079,76.01401741176291L121.78718486513411,76.06191929737844L122.70633343015399,83.68550459149017L123.01271628516061,118.00066545252918L123.08931199891227,118.76531637825593L123.16590771266392,91.7644786214356L123.3956948539189,96.42719510030634L123.5488862814222,41.393018416334506L123.77867342267717,97.45601563313305L124.0850562776838,79.03599764261756L124.2382477051871,115.80225776333246L124.31484341893876,96.34298255033212L124.6212262739454,68.61563950187077L124.69782198769705,74.1813749080268L124.92760912895203,74.38048321664667L125.23399198395865,85.25131373038609L125.3105876977103,111.65818768783488L125.46377912521363,114.2747951222837L125.61697055271694,158.34789267673253L125.84675769397191,146.51033186400628L126.22973626273019,81.04629741407574L126.3829276902335,49.824584151202366L126.5361191177368,85.39471952088515L126.76590625899179,78.14522264876942L127.14888482775008,103.30419259360474L127.22548054150172,59.012565483695425L127.37867196900504,56.76137961434222L127.53186339650836,86.29135602394675L127.60845911026,70.20120893918666L127.68505482401167,86.4873052225915L127.91484196526663,50.02184695934075L128.29782053402494,80.27131209521747L128.45101196152822,123.82855831680315L128.52760767527988,131.0514794720625L128.8339905302865,170.03141057765987L129.2169690990448,179.03789388655895L129.52335195405144,173.19139697863255L129.82973480905804,194.6568831439302L129.90633052280972,171.75137833010976L130.289309091568,148.90018018198518L130.4425005190713,162.16545096039354L130.59569194657462,160.9285034116917L130.74888337407793,135.81178469122386L130.9786705153329,123.97525203215868L131.05526622908457,107.85006863902716L131.3616490840912,114.72640457762093L131.82122336660112,59.68468970985729L131.97441479410443,87.44483293163128L132.12760622160775,57.504211880090075L132.28079764911107,98.08662954457822L132.35739336286272,139.7997570424398L132.740371931621,84.91691711580391L133.12335050037927,111.02660033464528L133.35313764163428,127.695817334548L133.50632906913756,90.97444075966561L133.65952049664088,53.69045921911639L133.73611621039254,-39.43730240797615L133.88930763789585,-7.67668624626458L134.04249906539917,72.01751648999767L134.27228620665414,100.80371617038529L134.42547763415746,100.84059863342466L134.5020733479091,99.339043748904L134.57866906166078,126.27042288593668L134.65526477541243,150.5774483825653L135.19143477167404,150.01053286824842L135.34462619917736,137.6962561355937L135.5744133404323,111.85309106873724L135.65100905418396,70.05067119153821L135.72760476793562,76.24289274949349L136.18717905044556,117.26105598096531L136.57015761920385,145.7734717455202L136.7999447604588,90.27226839674522L136.87654047421046,92.15628961367227L137.48930618422372,101.53447988020666L137.56590189797538,106.90970475756895L137.64249761172704,132.98541927344527L137.71909332547867,164.96447634237092L137.87228475298198,101.64398466522496L138.25526332174027,139.82195625364426L138.4084547492436,128.71810777206002L138.48505046299525,144.0826977701308L139.0978161730085,97.06541949395182L139.17441188676017,112.0922625771728L139.48079474176677,102.20083258555326L139.63398616927012,105.47694785447072L139.78717759677343,134.36093473596148L139.86377331052506,74.9980902053412L140.01696473802838,90.97374980676842L140.32334759303504,119.81678405300845L140.39994330678667,68.30814042904984L140.55313473428998,93.4929514061865L140.70632616179333,82.21617639626817L140.78292187554496,69.2189543424412L140.93611330304827,33.52214532509876L141.01270901679993,-26.384077316242248L141.54887901306154,-31.84591223664789L141.77866615431648,25.86411089635101L141.85526186806814,67.71885808914469L141.93185758181983,72.91213390552123L142.23824043682643,114.76189367760497L142.3148361505781,139.81361112943404L142.4680275780814,127.64415539782631L142.85100614683967,149.6431069588174L143.46377185685293,157.09598783421396L143.69355899810793,118.99634166204036L143.84675042561122,104.81725275127685L143.99994185311454,114.57023267621464L144.0765375668662,103.813962855649L144.38292042187283,77.43994997051416L144.53611184937614,121.02657422657931L144.76589899063111,146.64767002560018L144.84249470438274,119.66048375637693L144.99568613188606,117.05906460770657L145.53185612814767,133.07178834147464L145.685047555651,129.09965090132644L145.76164326940264,107.75526341390001L146.06802612440924,87.22479878427404L146.14462183816093,88.20701740316065L146.3744089794159,120.15173811916746L146.45100469316753,99.77471864129642L146.52760040691922,135.47834764381324L146.68079183442254,109.49397246471788L146.75738754817417,111.94963111904542L146.9105789756775,89.64146883426157L147.0637704031808,122.11386895802953L147.14036611693246,141.51317583881138L147.4467489719391,116.92470577376892L147.67653611319406,122.3248418301976L147.9829189682007,127.2786602154486L148.05951468195232,112.5371823050597L148.28930182320732,107.51593505293363L148.4424932507106,135.5357299584027L148.59568467821393,131.14457914339613L148.67228039196561,118.17400497885296L148.74887610571724,124.18892113032192L149.43823752948214,112.49371852268514L149.59142895698548,88.6807343032301L149.82121609824043,112.725705991955L149.97440752574374,129.04034272218613L150.1275989532471,150.5562275446147L150.6637689495087,155.70086684294512L150.74036466326032,152.947210214499L150.9701518045153,121.6313230069977L151.04674751826693,105.73536401431768L151.1233432320186,118.44020480379466L151.5063218007769,102.07528977737793L151.73610894203185,122.98302127065918L151.8893003695352,111.18105542623933L152.11908751079014,128.15612784961812L152.1956832245418,115.04808673739586L152.27227893829345,93.44356735240171L152.57866179330009,103.56395715216624L152.65525750705174,115.4034069492274L152.80844893455503,118.49075578201114L152.96164036205838,147.42841340470972L153.03823607581003,181.6815310773265L153.34461893081664,149.67034093807177L153.4212146445683,126.28262271588282L153.72759749957493,95.95545100940404L153.80419321332658,103.73093547463661L153.9573846408299,117.61203368382293L154.11057606833322,123.33454608467116L154.4935546370915,107.09419108450712L154.57015035084316,118.72918091946497L154.72334177834648,113.41354035519284L154.95312891960143,123.5755828313201L155.48929891586303,146.23032892854872L155.64249034336635,162.2987979252953L155.94887319837298,164.6288680725225L156.02546891212464,131.780693062729L156.33185176713127,126.37344501240813L156.4084474808829,133.60910671830754L156.86802176339287,141.75265407476726L157.09780890464782,169.9859027009563L157.17440461839948,146.39298968446073L157.25100033215114,66.43268086482828L157.40419175965445,87.12054621790179L157.4807874734061,96.44722257579681L157.55738318715777,110.70897912324517L157.63397890090943,100.07203513594412L157.94036175591606,75.04256696203247L158.01695746966772,92.74032641614775L158.170148897171,118.73586040871585L158.2467446109227,115.64762895190007L158.39993603842598,118.35596861791963L158.62972317968098,124.84902543088884L158.7063188934326,148.58779405732747L159.01270174843927,156.60481726315916L159.0892974621909,143.8596586720049L159.70206317220416,112.68004495727237L160.08504174096245,120.72302775803284L160.54461602347237,77.4064174587693L160.62121173722403,34.28563546809247L160.6978074509757,57.9974285407416L161.08078601973398,-8.137410215727165L161.84674315725056,-39.706522508570814L162.15312601225716,7.987441055104263L162.4595088672638,18.693361348214594L162.6127002947671,36.37682052920958L162.7658917222704,50.32619719052299L162.9956788635254,17.9028223482288L163.3786574322837,46.56164054966145L163.76163600104195,89.14094216452341L164.29780599730356,123.72764671659726L164.75738027981347,94.46070487919742L164.9105717073168,138.7744713492668L165.06376313482014,169.16249623553233L165.21695456232345,118.58663539322498L165.29355027607508,142.30791204364883L165.52333741733005,161.0570487857591L166.21269884109498,130.9886622656391L167.05525169236319,136.71842734816258L167.13184740611484,149.72776233851272L167.36163454736985,165.02905203193095L167.43823026112148,134.62441621388916L167.74461311612808,147.52550392042406L167.82120882987977,118.35262249232119L167.97440025738308,82.13567197022729L168.35737882614137,98.25829333785714L168.58716596739634,96.46422352752255L168.97014453615463,162.6363464334885L169.04674024990626,165.67177498074918L169.12333596365792,108.84103291600063L169.27652739116124,65.52604864630459L169.3531231049129,108.28157381735718L169.73610167367116,141.0429882097224L169.81269738742284,120.09048511274226L170.0424845286778,137.59177625857126L170.11908024242945,109.23654302288024L170.50205881118774,49.10298932696239L170.96163309369769,43.42517532170809L171.03822880744934,91.88796828676188L171.42120737620763,113.75451977930796L171.72759023121424,130.32944557004643L172.11056879997253,157.41212900809668L172.72333450998576,100.27573414499125L173.94886593001232,112.40904359284245L174.02546164376395,61.29287512366828L174.40844021252224,79.47549024770547L175.40418449129376,128.38901723358552L175.48078020504542,161.81609850285827L175.8637587738037,148.36679062864226L176.01695020130703,155.6044644306662L176.17014162881034,154.55808111420276L176.246737342562,166.94665057254326L176.32333305631366,159.2408531152562L176.62971591132026,149.23235198957215L176.7829073388236,175.40732850005696L176.93609876632692,155.74726153364756L177.0892901938302,151.54829182332742L177.3190773350852,147.16939255729292L177.39567304883684,157.9269910301786L177.54886447634016,131.58758473477005L177.70205590384347,110.01102145437333L177.77865161759513,77.03871187001275L177.8552473313468,121.79178278548562L177.93184304509845,127.16019953788194L178.08503447260173,64.06806229133635L178.16163018635342,45.41467594752858L178.23822590010505,28.46751388943529L178.46801304136002,91.22471532316393L179.0807787513733,133.34091542637583L179.38716160637992,157.76578386850431L179.46375732013158,110.21442816440081L179.69354446138655,94.51728741057035L180.1531187438965,104.51423215951566L180.22971445764813,131.06316128557006L180.38290588515144,108.38530592175472L180.76588445390973,162.08258193307014L180.91907588141305,142.89264032103893L180.9956715951647,121.83740297500795L181.30205445017134,127.877408710526L181.378650163923,129.7373608671453L181.7616287326813,131.38618278745727L181.9148201601846,116.50682765408351L181.99141587393623,109.59739347730962L182.14460730143955,73.37528506537227L182.83396872520447,91.3766452140737L182.91056443895613,111.70904394686987L183.06375586645942,63.19092716155596L183.21694729396273,48.40273674283173L183.4467344352177,44.735966693618444L183.5233301489694,79.76151391979865L184.2126915727343,132.0109510878078L184.67226585524423,115.55577452451368L185.2084358515058,72.82315437482661L185.51481870651244,113.01462574400735L185.5914144202641,93.17873538822577L185.89779727527073,81.04501858020265L186.58715869903563,117.45522159804912L186.8935415540423,83.56000710239817L186.97013726779392,110.98028633316662L187.0467329815456,133.24724914522295L187.42971155030386,134.34854416937452L187.8892858328138,120.39395639965166L188.11907297406879,129.65855734939316L188.19566868782042,60.00622909837179L188.2722644015721,63.303460120423594L188.50205154282708,97.79776200435249L188.6552429703304,128.15884689469627L188.80843439783368,101.71354685194683L188.88503011158537,115.64288575999404L188.961625825337,97.94662510563278L189.26800868034363,111.96409822564038L189.42120010784691,117.54821142629076L189.65098724910192,85.63092668186245L189.72758296285357,91.47014977893198L189.8041786766052,110.31382789535171L190.11056153161186,103.25820912202944L190.57013581412178,118.47555014881773L191.1063058103834,43.18297035303942L191.18290152413505,98.08729099206968L191.2594972378867,105.03729582013747L191.642475806645,85.76982225365421L191.71907152039665,88.32538469237532L191.87226294789997,91.43926215260801L192.4850286579132,109.87814903717221L192.63822008541652,128.49241407972204L192.79141151291984,106.71611713352303L192.8680072266715,66.8164830844293L193.09779436792647,47.34292849690515L193.63396436418807,35.16620946644145L193.86375150544305,88.12604823124931L194.01694293294636,126.62066972350587L194.17013436044965,138.4830321271278L194.55311292920794,131.32496762063832L194.9360914979662,129.87031329161485L195.0126872117179,111.94550554174239L195.08928292546955,84.86239927746368L195.39566578047618,128.4372365092617L195.4722614942278,75.95288460733222L195.93183577673776,68.44385930728477L196.08502720424107,64.40690148026117L196.2382186317444,65.74558442687123L196.46800577299936,94.61318284252786L196.544601486751,107.86430752750086L196.62119720050268,115.2527656655293L196.69779291425434,135.51360960078554L196.92758005550928,126.59034078774727L197.0807714830126,120.58425183731481L197.4637500517709,114.75669821558692L197.69353719302586,115.37089309706688L197.84672862052918,112.30367798514818L198.15311147553578,105.55733207325743L198.22970718928747,137.8750160583771L198.61268575804576,151.5938236800929L198.91906861305236,128.9011769630097L199.14885575430733,139.47848309196755L199.225451468059,102.80197585339899L199.3786428955623,110.25324828290809L199.68502575056894,115.55416973564382L199.76162146432057,95.24917912036837L199.91481289182389,110.26778410729986L199.99140860557557,41.6576903596058L200.4509828880855,57.62448636700325L200.52757860183715,91.94088901493996L200.68077002934047,64.13774389335451L200.83396145684378,62.60114622775683L201.06374859809875,52.98873549185553L201.1403443118504,57.76043453514971L201.29353573935373,68.35195074107999L201.52332288060867,105.23453035028322L201.82970573561533,98.85627276568907L201.98289716311865,115.66407586610742L202.05949287687028,102.34642510582466L202.21268430437362,89.02218667772803L202.28928001812525,120.19351104242055L202.82545001438686,120.66179296167192L202.97864144189018,106.26780651744825L203.20842858314515,94.25572928448547L203.36162001064847,28.53969888652051L203.43821572440012,51.50941001959827L203.51481143815175,38.168968075052206L203.97438572066173,58.003142620453524L204.74034285817825,94.63503211042631L204.89353428568157,120.30198998328814L205.27651285443986,80.6431172194363L205.42970428194317,65.74891792811316L205.73608713694983,76.69850204064645L205.81268285070146,62.22857205899173L205.88927856445312,70.67548981377807L206.04246999195644,62.370597273241714L206.19566141945975,78.01873009171133L206.2722571332114,94.2055845376428L206.57863998821804,21.88509838635021L207.03821427072796,49.20175192507505L207.1914056982313,73.07588775662863L207.34459712573462,67.59124277562395L207.65097998074123,66.86314692357095L208.34034140450615,63.71494459144443L208.4169371182578,26.336933227267686L208.49353283200944,8.503930230825455L208.79991568701607,30.831813618480687L209.18289425577436,30.428728048808853L209.25948996952602,60.39550622917367L209.33608568327767,46.670706435077534L209.6424685382843,52.688822808773374L209.71906425203596,41.038147605716674L209.94885139329094,57.21524214464427L210.10204282079422,74.9296091784494L210.33182996204923,78.88480060620506L210.71480853080752,44.28960366250989L210.8679999583108,27.32528534072389L211.02119138581412,32.542973341146705L211.09778709956578,53.518293726167954L211.48076566832404,56.17132711456287L211.63395709582738,27.742640548602687L212.01693566458565,-28.537962339214594L212.24672280584062,-0.17758638734096707L212.39991423334394,0.9970882322105655L212.55310566084725,17.108455414481675L212.93608422960554,24.537307333799028L213.16587137086051,5.540720359175052L213.31906279836383,18.925803254500167L213.47225422586712,45.9189651538156L213.5488499396188,57.24478440102085L213.77863708087375,63.47090329030017L213.8552327946254,49.58467794224361L213.9318285083771,36.040278632952216L214.16161564963204,40.42925728839294L214.2382113633837,78.37852777883404L214.31480707713536,91.01631632372505L214.92757278714862,72.07883079648302L215.00416850090028,44.50094921384156L215.0807642146519,11.831136917771516L215.23395564215522,29.417403834577453L215.3105513559069,33.9399541649327L215.6169342109135,47.7749786951319L215.77012563841683,53.873762547805L216.45948706218172,-4.046125093558879L216.84246563094,12.164161269877985L216.9190613446917,34.01444998041952L216.99565705844333,-25.64199136775394L217.14884848594667,6.516921255381477L217.53182705470493,28.29550201657809L217.6084227684566,18.011777343834186L217.68501848220828,54.041336034041436L217.7616141959599,37.34795721086824L217.91480562346322,-10.514288858181388L218.0679970509665,7.369883548230263L218.37437990597317,-10.520546547002196L218.6807627609798,28.946515692958936L218.75735847473143,4.142763386464311L218.91054990223478,32.691771191293995L219.14033704348972,52.73317454500785L219.29352847099304,56.90132691242016L219.82969846725462,46.147678269084786L220.2126770360129,40.76038462473805L220.44246417726788,28.83955997769213L220.82544274602617,23.073227401379334L221.05522988728117,46.55892772140737L221.1318256010328,47.34034100635998L221.20842131478446,26.23778165666879L221.5148041697911,32.22092926754976L221.8211870247977,31.730930429237798L221.974378452301,35.94590205841798L222.58714416231427,59.563586640172254L222.66373987606593,74.33245902914443L222.7403355898176,91.64176858747068L223.04671844482422,67.5832715586245L223.35310129983085,48.205910101856524L223.6594841548375,66.46636841250334L223.73607986858912,34.991451818588246L224.04246272359578,24.826288241014254L224.1190584373474,40.52523544565076L224.19565415109906,40.040082934307755L224.27224986485072,23.362546590038566L224.57863271985735,69.36566286158039L224.8084198611123,77.33502648269351L225.0382070023673,91.23042372597747L225.1913984298706,47.01831961949131L225.3445898573739,82.24238283312602L225.65097271238056,0.5309886975031388L226.03395128113885,23.60714714443315L226.11054699489048,38.45021704995302L226.18714270864214,34.96149883394487L226.34033413614546,-36.03537575621649L226.4169298498971,-4.511605779419864L226.57012127740043,26.46067299060154L226.72331270490375,49.58655420698026L226.79990841865538,73.3788590597003L226.87650413240706,89.37196487201382L227.4892698424203,111.46778824270982L227.64246126992361,98.7637251857489L227.8722484111786,102.38904508254195L227.94884412493025,23.89544193270236L228.0254398386819,69.7093381658272L228.10203555243356,34.29869968295557L228.25522697993688,63.1462970990059L228.40841840744017,56.63307612870798L228.63820554869517,109.27956949591459L228.7148012624468,97.84088529191195L229.02118411745346,123.99346511593275L229.0977798312051,120.81708422661038L229.17437554495675,149.46933056844242L229.40416268621175,36.45684360139891L230.01692839622498,55.5132479885391L231.39565124375477,58.41488649071445L231.47224695750646,52.090193349037065L231.85522552626475,45.270759474373016L231.93182124001638,75.90429024989415L232.08501266751972,65.24880963558618L232.23820409502304,64.6075028849311L232.31479980877467,70.35669229060188L232.54458695002964,55.0848211439009L232.85096980503627,88.8241355733977L232.92756551878793,90.40685257964874L233.08075694629125,68.48118058718737L233.23394837379456,43.60372090279564L233.31054408754622,48.72384429562662L233.69352265630448,86.479731929862L233.77011837005614,35.46987236075592L233.99990551131114,31.145762628687322L234.07650122506277,0.26072597405494025L234.38288408006943,65.36417293640112L234.45947979382106,8.622609658959377L234.53607550757272,-2.7065144886495554L234.99564979008267,-8.210886388833234L235.14884121758595,5.456757758732246L235.22543693133764,-24.688987843042234L235.30203264508927,-4.806942641943618L236.29777692386082,3.712324589288435L236.37437263761248,-18.212554269146704L237.44671263013566,-27.852929740826298L237.9062869126456,41.81616863550015L238.05947834014893,106.44169299711446L238.21266976765224,89.8860856624558L238.36586119515556,93.12624496146076L238.44245690890722,115.45972738015986L238.59564833641053,108.79221613392619L238.97862690516882,95.26091125071511L239.05522261892045,127.99880153386694L239.1318183326721,116.64413628980344L239.20841404642377,83.93690851422734L239.43820118767874,95.54340482977325L239.5147969014304,103.26938863387302L239.74458404268535,105.42024032157373L239.82117975643703,79.70752651393127L239.8977754701887,92.76833471044903L239.97437118394035,90.39185989162948L240.28075403894695,121.49420416126418L240.35734975269864,115.40264138597794L240.74032832145693,78.23246795125065L240.89351974896022,88.4219650040285L241.2764983177185,69.32144553901618L241.35309403147016,61.22410807485202L241.50628545897348,64.36025663834693L241.6594768864768,66.98063436707194L241.73607260022845,59.74923827295736L241.88926402773174,70.80977523655764L242.04245545523506,74.75629476231461L242.42543402399335,51.98235435300094L242.65522116524832,97.21934626168425L242.80841259275164,124.80671795182452L242.8850083065033,132.0766078411346L243.19139116150993,118.40453450462552L243.57436973026822,142.24705778082998L244.1105397265298,41.59168703931497L244.18713544028145,77.3571601767751L244.57011400903974,65.1633892983616L244.72330543654306,86.17397578580817L245.10628400530132,119.39209076081994L245.182879719053,125.9413505720343L245.25947543280463,105.1762027506475L245.33607114655632,136.79825339944657L246.02543257032121,136.48649353429295L246.4084111390795,137.52510431097681L246.63819828033448,121.32489733115165L246.71479399408614,104.46891922896047L247.40415541785103,100.88514316974229L247.55734684535435,113.04502625992498L247.78713398660932,135.1966348132913L247.94032541411264,117.52761308677321L248.39989969662258,96.65619385318078L248.9360696928842,95.24298421175665L249.08926112038748,121.06281061933655L249.16585683413913,154.15972561980058L249.31904826164248,149.9650893677535L249.54883540289742,136.3460549360216L249.85521825790406,118.38739740448274L250.085005399159,101.80610080987897L250.1616011129107,129.25341420110496L250.314792540414,125.42181751607664L250.4679839679173,113.53388055232416L250.54457968166898,88.92225660253148L251.0041539641789,156.06862521816004L251.08074967793058,166.1499795633871L251.23394110543387,106.01395675931526L251.3871325329372,98.39598274099616L251.61691967419216,110.52946436294498L252.15308967045377,131.13525040526878L252.45947252546037,114.54460577930341L252.53606823921203,119.53687944018306L252.765855380467,147.34256687709453" fill="none"></path></g></g></g></g><g opacity="0.2"><g><g><g><path style="fill: none;" stroke="rgb(255, 112, 67)" stroke-width="2px" d="M38.68083544458662,112.51618358960715L38.75743115833828,137.17343233646235L39.29360115459987,129.57737960718052L39.67657972335815,-88.49461751925699L39.82977115086147,-88.49461751925699L40.05955829211644,146.39842603235454L40.21274971961975,77.371651704502L40.2893454333714,145.3253726665591L40.44253686087472,1.0889990230927808L40.59572828837804,-16.17993262026428L40.978706857136316,-16.17993262026428L41.514876853397915,72.10471342511116L41.82125970840454,100.41236319396691L41.8978554221562,102.04543873031727L41.974451135907856,94.77853485745388L42.20423827716282,43.039933824440794L42.89359970092774,17.73074824127181L42.97019541467939,9.598208584570527L43.046791128431046,55.88185442963069L43.27657826968601,42.93455530337471L43.50636541094099,77.42632873894851L43.81274826594761,118.336809666682L44.119131120954236,27.54096908094172L44.1957268347059,2.869408361909534L44.27232254845755,145.94672428825763L44.42551397596087,43.63022316578483L44.578705403464184,48.64921977903552L44.655301117215835,170.49069642569722L44.80849254471915,203.41432827276068L44.88508825847081,-25.66362846508153L45.038279685974125,166.3903694042958L45.191471113477434,143.76902520326868L45.72764110973903,128.81041692040728L45.957428250994,135.8804781685328L46.03402396474566,113.28470999185899L46.18721539224897,195.29026978475687L46.4935982472556,54.108283033076276L46.87657681601388,53.08781291320517L46.95317252976554,83.29980309846948L47.87232109478542,70.93478921059929L47.94891680853707,27.231088379657848L48.2552996635437,217.62606363720099L48.48508680479867,125.81163469089435L48.638278232301985,110.23639243642239L48.791469659805294,98.76081461204737L49.48083108357021,135.05881194366086L49.94040536608014,129.32474679460458L50.32338393483843,94.6906752504785L50.39997964859009,195.4402804560934L50.62976678984506,167.0133112451251L50.782958217348366,91.96684190867674L50.93614964485168,100.35039765517101L51.39572392736163,72.73743511359473L51.47231964111328,114.50040601368502L52.16168106487819,76.07382086457139L52.314872492381504,190.99922248227105L52.46806391988481,61.95246295406352L52.69785106113979,131.31350134320516L53.3872124849047,185.90757935839608L53.61699962615967,170.05163692368998L53.693595339911326,46.09628198648781L53.846786767414635,153.5477862078014L54.07657390866961,88.4429693221816L54.6127439049312,149.69513581601834L54.76593533243452,137.12954228845294L54.842531046186174,109.34785749710133L55.1489139011928,131.20645309205176L55.22550961494446,54.003964658097374L55.302105328696115,81.82235700771773L55.37870104244777,73.38616500799478L55.60848818370274,114.56947453126506L55.6850838974544,68.87423626824418L55.99146675246102,154.39115892380843L56.06806246621268,26.591979310998994L56.14465817996434,222.44331445006057L56.52763674872262,79.55756692166662L56.68082817622594,59.7707088102911L56.757423889977595,124.09300536530824L57.06380674498422,20.322487380610454L57.446785313742495,71.78563595652096L57.52338102749416,197.99708778185934L57.67657245499747,208.78725465721774L57.829763882500785,161.47913664080735L57.90635959625244,201.2991778069156L57.982955310004094,181.41351408021453L58.21274245125907,146.47791048524115L58.365933878762384,91.6350956943447L58.59572102001736,109.69402169821907L58.74891244752067,16.368301497327337L58.97869958877563,87.0650974526686L59.05529530252729,78.59670351554743L59.361678157533916,63.52073706083476L59.43827387128558,98.74737726039231L59.51486958503723,43.88770614670963L59.59146529878889,127.22586957119776L59.82125244004386,188.7540981061372L59.897848153795515,126.75299140900935L60.2808267225538,130.4431479092793L60.893592432567054,69.72237964164353L61.04678386007036,118.37327869208113L61.12337957382202,150.27768609092593L61.27657100132533,135.4308172056537L61.42976242882865,118.32400840267925L61.506358142580304,118.51226384411095L61.73614528383528,59.81491690212667L61.81274099758693,9.368262898260324L61.889336711338586,128.78762377953282L62.0425281388419,176.45894784541244L62.50210242135184,103.13288357924623L62.5786981351035,104.51775241293464L62.65529384885515,80.8186636996763L63.03827241761344,75.92158388645177L63.19146384511675,105.95117593741608L63.2680595588684,111.63043153376495L63.421250986371724,44.838312639435316L64.1872081238883,31.6787722665251L64.3403995513916,163.44122851531526L64.57018669264657,150.96230193037715L64.79997383390155,25.087048932936995L64.95316526140486,133.8584615364468L65.18295240265982,190.08309724103103L65.33614383016314,65.90028796082353L65.48933525766645,91.62648200738633L65.64252668516977,92.24579284786702L65.87231382642473,145.85512766632493L65.94890954017639,75.56261842133128L66.1021009676797,76.59596931616167L66.63827096394131,104.85861588361647L66.71486667769295,158.28091442864294L66.79146239144461,91.11294724275442L66.86805810519627,247.33027035035636L67.63401524271283,136.17591437937878L67.86380238396781,95.43428821968152L67.94039809771947,95.43428821968152L68.24678095272608,162.99859102026377L68.62975952148437,71.08646961202314L68.78295094898769,12.525218923981098L68.93614237649099,105.47519684792266L69.16592951774598,102.11254597763602L69.39571665900094,214.14931454428117L69.85529094151087,153.744734847148L69.93188665526253,105.62486297178086L70.08507808276586,67.1880474129259L70.16167379651752,64.64279567951027L70.62124807902744,34.91733303730686L70.69784379277911,81.9321616386978L70.92763093403407,193.97690780464902L71.2340137890407,76.97308978302519L71.31060950279236,144.01815953375691L71.38720521654402,97.88362323585918L71.46380093029568,72.32742361437633L71.84677949905397,109.40621853920081L72.07656664030893,42.564405297034426L72.15316235406058,99.14469351021668L72.22975806781223,237.22058474470916L72.61273663657052,83.73099101577938L72.9957152053288,-6.643971573348865L73.14890663283212,99.90707106516285L73.22550234658377,184.10191203905217L73.30209806033542,24.167849268044137L73.37869377408708,95.66754686251417L73.5318852015904,-6.560167025156972L74.14465091160366,107.16202179089325L74.45103376661028,114.35877049643724L74.52762948036195,-66.07364092870765L75.2935866178785,64.98395069036607L75.6765651866368,113.8447586660661L75.82975661414011,138.6655614505216L75.90635232789175,176.39798944539936L75.98294804164341,131.31077146703066L76.05954375539507,231.07287709608588L76.3659266104017,107.68181141743955L76.74890517915999,102.7274572118549L76.82550089291165,154.1677331359344L77.05528803416661,80.93204632370063L77.4382666029249,119.20880632704299L77.51486231667656,77.5869143675047L77.82124517168317,178.97552262716974L77.89784088543483,195.8274193034808L77.97443659918649,88.85022444157332L78.1276280266898,60.060393728614116L78.35741516794477,187.96768173866414L78.6637980229514,164.90873573649966L78.74039373670306,68.95976355382774L79.04677659170969,181.9840051933804L79.12337230546134,47.47574407513159L79.50635087421963,153.1995017145093L79.65954230172294,189.7917425926207L80.04252087048123,106.26354798200484L80.11911658423288,179.81953143082907L80.19571229798453,19.860899774250555L80.4254994392395,209.61724302887407L80.50209515299116,81.27214118846925L80.5786908667428,118.81058895304452L80.80847800799779,133.0164935140053L80.88507372174944,136.8905323530973L80.9616694355011,67.79068745618562L81.03826514925275,76.75581284245683L81.42124371801104,49.0656186584292L81.57443514551434,106.24139092878269L81.651030859266,57.393119180563616L81.72762657301767,76.26326897035116L81.80422228676933,51.139582448787195L82.03400942802429,130.6753199023726L82.18720085552759,82.34447895565583L82.41698799678258,149.00617337760966L82.49358371053424,-16.43850225092845L82.87656227929251,-6.6751398683120735L82.95315799304417,137.13229866827962L83.18294513429915,109.37860173362967L83.33613656180245,72.75386737794608L83.71911513056074,16.85803598230197L83.87230655806404,109.97607356471437L84.10209369931903,97.19988201692988L84.25528512682233,115.00296826631458L84.33188084057399,227.204907593343L84.40847655432565,57.38614872004038L84.48507226807732,64.4890744968686L84.63826369558062,-9.207616841377133L84.71485940933228,87.08298741788983L84.86805083683558,113.05654005024482L85.0212422643389,102.26419987540768L85.09783797809057,130.0345676072786L85.17443369184222,130.0345676072786L85.40422083309718,176.85676766462822L85.63400797435216,103.19781752708624L86.01698654311043,8.783963382308881L86.32336939811707,156.59803852984712L86.39996511186872,20.04372196698543L86.55315653937203,33.58157547110724L86.78294368062701,83.54209948669538L87.08932653563363,203.08857188382123L87.16592224938529,109.79372843771873L87.3191136768886,139.8118179036371L87.39570939064026,-52.21535826973448L87.47230510439192,135.5672315034221L87.54890081814357,185.10918334013783L87.85528367315021,75.99552907603285L87.93187938690185,15.987338000897777L88.08507081440517,112.2960442546034L88.16166652815683,138.43437009255896L88.46804938316346,67.49779559594887L89.08081509317671,137.95285173976L89.38719794818333,159.2820898897273L89.463793661935,154.08371655852508L89.69358080318996,109.38456505537008L89.77017651694162,106.97077143676526L89.84677223069328,177.99414539426354L90.07655937194825,207.00120004048674L90.22975079945155,72.33717695837842L90.38294222695487,-55.943574014534335L90.45953794070653,159.68505141746593L90.61272936820984,118.5590957975123L90.76592079571316,176.40604655566196L90.99570793696812,181.35099196472285L91.22549507822309,173.16446436853172L91.53187793322971,138.8990321225717L91.60847364698137,178.4296534068787L92.14464364324297,84.01643534975366L92.29783507074629,185.4940428734378L92.37443078449795,110.3747415007999L92.75740935325622,117.53443810059682L93.06379220826285,190.99522043079193L93.21698363576616,109.23338822333764L93.5233664907728,201.65355814020901L93.90634505953108,94.3934367912843L94.28932362828935,143.1580100059202L94.36591934204101,92.86796608278311L94.44251505579268,110.11328297204815L94.67230219704764,173.7215711373469L94.82549362455096,213.6123505511225L94.97868505205426,20.29889913017061L95.05528076580593,166.30802255697378L95.20847219330923,116.26846465058608L95.43825933456421,57.16322650155777L95.51485504831587,84.51958068273117L95.59145076206752,147.17776592469565L95.74464218957084,62.26833348073998L95.89783361707414,72.46216818205741L95.9744293308258,196.6426451408731L96.12762075832913,113.92548879060516L96.28081218583243,64.27556107490975L96.58719504083905,-2.760232397559123L96.74038646834238,80.57504212884143L97.046769323349,172.3545922688797L97.12336503710065,153.86484939882595L97.35315217835563,45.381160443377865L97.50634360585894,42.911656147891534L97.7361307471139,157.50454294534595L97.88932217461722,112.25165063720257L98.04251360212054,69.67467306772025L98.2723007433755,-24.378095319762252L98.50208788463048,-26.842669935943178L98.57868359838213,125.36478311514631L98.96166216714042,51.415299942411565L99.3446407358987,73.9043644154103L99.65102359090533,133.15624727194833L99.72761930465698,146.2776488893721L99.80421501840864,99.90826372951094L99.95740644591194,-51.138567888981726L100.03400215966361,115.75116636734467L100.11059787341527,217.4695065637761L100.49357644217355,205.69889008333777L100.72336358342852,115.05266261415133L100.79995929718018,208.7945696652193L100.87655501093182,166.9829115560751L100.95315072468348,-32.91243034350626L101.10634215218681,124.55480500088558L101.33612929344177,180.22511682013348L101.56591643469673,88.87516437827432L102.25527785846165,95.21528854172149L102.48506499971663,87.21025795565626L103.02123499597822,156.89909351495518L103.09783070972988,76.40824394777357L103.17442642348153,54.75926573791159L103.48080927848817,73.67871232075319L103.63400070599147,91.43162715656192L103.78719213349478,92.01142105164283L103.86378784724646,118.39654889869482L104.17017070225307,-0.5813671518742763L104.62974498476301,134.99530919303854L104.78293641226632,106.50377708536072L105.0127235535213,73.03530966044124L105.08931926727296,-94.88729842497631L105.31910640852792,120.78858301886018L105.54889354978289,178.25231747014502L105.7020849772862,127.887612758818L105.85527640478952,50.74380341078924L106.2382549735478,65.50898804004393L106.31485068729945,29.79433609290342L106.54463782855441,-46.05188094806434L106.85102068356106,146.2162134236198L107.00421211106436,131.56316574673698L107.310594966071,110.09094039326075L107.38719067982265,135.28891665188414L107.61697782107761,223.9388360315988L107.77016924858094,112.60369864910419L107.8467649623326,112.81665549436727L108.07655210358756,77.24697852464917L108.15314781733922,160.17462688052748L108.38293495859419,20.40205134445361L108.45953067234585,146.7274158668599L108.5361263860975,164.81144082934836L108.99570066860744,88.74977559981264L109.37867923736572,140.3943416748925L109.53187066486905,91.62507731382081L109.60846637862069,94.31124896587536L110.68080637114389,196.50384551440854L110.75740208489555,24.87504621915238L110.91059351239885,49.50624187591504L111.44676350866045,126.31578716265469L111.52335922241211,70.73768154933961L111.59995493616375,45.0390513010436L111.90633779117039,115.26087530567426L111.98293350492204,30.4781038154849L112.28931635992868,71.03595365096882L112.5956992149353,-2.2719821171065475L112.67229492868695,146.477592441415L112.82548635619028,58.94779691376672L112.97867778369358,80.2356098553773L113.05527349744524,84.35605314878305L113.1318692111969,170.5033121641347L113.20846492494854,82.65062264198238L113.82123063496181,74.36939749655355L114.12761348996844,131.0346564186236L114.28080491747174,18.098088860481056L114.51059205872673,56.583962679520454L114.89357062748499,114.91675188577435L115.35314490999494,123.97180416389094L115.4297406237466,8.121425085123262L115.50633633749827,138.3109160807064L115.65952776500157,127.32425112808843L115.88931490625653,88.68261534518953L116.65527204377311,9.70835776302894L116.80846347127643,105.58044285072785L116.96165489877973,75.69664739040351L117.19144204003472,19.72178210395984L117.42122918128968,-0.5330244902986875L117.57442060879298,174.76682217200593L117.65101632254463,48.39780613445984L118.03399489130292,141.6363293196807L118.11059060505458,89.53539685772031L118.34037774630956,133.08116242532353L118.41697346006121,89.71620477288954L118.49356917381287,147.53349794425023L118.72335631506783,162.59133590087205L118.79995202881949,44.40216853916783L119.10633488382612,37.56563097039677L119.25952631132942,132.0010855917005L119.71910059383937,-66.87399821722718L119.87229202134267,-6.169132140899166L120.10207916259766,139.27387327534777L120.40846201760428,120.21061787577966L120.71484487261091,185.88096969160776L120.86803630011423,155.0146573413335L121.17441915512086,134.60461885625907L121.2510148688725,76.62727012938578L121.63399343763079,21.0122714322367L121.78718486513411,76.13377212580164L122.70633343015399,95.12088253265776L123.01271628516061,169.47340674408767L123.08931199891227,119.9122927668461L123.16590771266392,51.263221986205025L123.3956948539189,103.42126981861244L123.5488862814222,-41.15824660962315L123.77867342267717,181.55051145833087L124.0850562776838,51.405970656844346L124.2382477051871,170.9516479444048L124.31484341893876,67.15406973083165L124.6212262739454,27.02462492917877L124.69782198769705,82.52997801726085L124.92760912895203,74.67914567957652L125.23399198395865,101.55755950099521L125.3105876977103,151.26849862400806L125.46377912521363,118.19970627395693L125.61697055271694,224.45753900840575L125.84675769397191,128.7539906449169L126.22973626273019,-17.149754260820174L126.3829276902335,2.9920142568923596L126.5361191177368,138.74992257540927L126.76590625899179,67.27097734059586L127.14888482775008,141.04264751085768L127.22548054150172,-7.4248751811685745L127.37867196900504,53.38460081031232L127.53186339650836,130.5863206383535L127.60845911026,46.06598831204653L127.68505482401167,110.91644964769873L127.91484196526663,-4.6763404355354234L128.29782053402494,125.64550979903262L128.45101196152822,189.16442764918176L128.52760767527988,141.88586120495162L128.8339905302865,228.5013072360559L129.2169690990448,192.5476188499076L129.52335195405144,164.421651616743L129.82973480905804,226.85511239187665L129.90633052280972,137.39312110937905L130.289309091568,114.62338295979836L130.4425005190713,182.06335712800612L130.59569194657462,159.07308208863898L130.74888337407793,98.13670661052217L130.9786705153329,106.22045304356081L131.05526622908457,83.66229354932986L131.3616490840912,125.04090848551161L131.82122336660112,-22.87788259178822L131.97441479410443,129.08504776429228L132.12760622160775,12.59328030277831L132.28079764911107,158.96025604131043L132.35739336286272,202.36944828923217L132.740371931621,2.5926572258501595L133.12335050037927,150.19112516290735L133.35313764163428,152.69964283440206L133.50632906913756,35.892375897342134L133.65952049664088,-2.235513091707419L133.73611621039254,-179.1289448486148L133.88930763789585,39.96423799630267L134.04249906539917,191.5588205943911L134.27228620665414,143.98301569096677L134.42547763415746,100.8959223279837L134.5020733479091,97.08671142212299L134.57866906166078,166.66749159148569L134.65526477541243,187.03798662750816L135.19143477167404,149.16015959677313L135.34462619917736,119.22484103661165L135.5744133404323,73.08834346845262L135.65100905418396,7.347041375739734L135.72760476793562,85.53122508642647L136.18717905044556,178.78830082817305L136.57015761920385,188.5420953923526L136.7999447604588,7.0204633735827136L136.87654047421046,94.98232143906282L137.48930618422372,115.60176528000827L137.56590189797538,114.9725420736124L137.64249761172704,172.09899104725966L137.71909332547867,212.93306194575936L137.87228475298198,6.663247149506076L138.25526332174027,197.0889136362732L138.4084547492436,112.0623350496837L138.48505046299525,167.129582767237L139.0978161730085,26.539502079683388L139.17441188676017,134.63252720200418L139.48079474176677,87.36368759812396L139.63398616927012,110.39112075784689L139.78717759677343,177.68691505819763L139.86377331052506,-14.046176590589114L140.01696473802838,114.93723920890918L140.32334759303504,163.08133542236848L140.39994330678667,-8.954825006888116L140.55313473428998,131.27016787189152L140.70632616179333,65.30101388139062L140.78292187554496,49.7231212617007L140.93611330304827,-20.023068200914878L141.08930473055156,-130.7820426886772L141.16590044430325,61.83028111751557L141.47228329930985,-147.2184416097687L141.54887901306154,23.254745443152586L141.77866615431648,112.42914559584935L141.85526186806814,130.5009788783352L141.93185758181983,80.70204763008607L142.23824043682643,177.53653333573058L142.3148361505781,177.39118730717766L142.4680275780814,109.38997180041471L142.85100614683967,182.64153430030407L143.46377185685293,168.2753091473089L143.69355899810793,61.84687240378L143.84675042561122,83.54861938513156L143.99994185311454,129.19970256362123L144.0765375668662,87.67955812480042L144.38292042187283,37.87893064281181L144.53611184937614,186.40651061067703L144.76589899063111,185.07931372413142L144.84249470438274,79.17970435254207L144.99568613188606,113.15693588470114L145.53185612814767,157.09087394212676L145.685047555651,123.1414447411041L145.76164326940264,75.73868218276036L146.06802612440924,56.429101839835056L146.14462183816093,89.68034533149054L146.3744089794159,168.06881919317763L146.45100469316753,69.20918942448995L146.52760040691922,189.03379114758852L146.68079183442254,70.51740969607496L146.75738754817417,115.63311910053673L146.9105789756775,56.179225407085795L147.0637704031808,170.82246914368145L147.14036611693246,170.61213615998415L147.4467489719391,80.04200067620533L147.67653611319406,130.42504591484064L147.9829189682007,134.70938779332502L148.05951468195232,90.42496543947638L148.28930182320732,99.98406417474459L148.4424932507106,177.56542231660634L148.59568467821393,124.55785292088623L148.67228039196561,98.71814373203821L148.74887610571724,133.21129535752536L149.43823752948214,94.95091461122999L149.59142895698548,52.961257974047584L149.82121609824043,148.79316352504222L149.97440752574374,153.51229781753293L150.1275989532471,182.83005477825756L150.6637689495087,163.41782579044067L150.74036466326032,148.81672527182988L150.9701518045153,74.65749219574579L151.04674751826693,81.89142552529776L151.1233432320186,137.49746598801013L151.5063218007769,77.52791723775292L151.73610894203185,154.34461851058106L151.8893003695352,93.47810665960967L152.11908751079014,153.6187364846862L152.1956832245418,95.38602506906247L152.27227893829345,61.03678827491055L152.57866179330009,118.74454185181295L152.65525750705174,133.16258164481926L152.80844893455503,123.12177903118683L152.96164036205838,190.83489983875754L153.03823607581003,233.06120758625158L153.34461893081664,101.65355572918972L153.4212146445683,91.2010453825994L153.72759749957493,50.46469344968588L153.80419321332658,115.39416217248547L153.9573846408299,138.4336809976023L154.11057606833322,131.9183146859436L154.4935546370915,82.73365858426106L154.57015035084316,136.18166567190175L154.72334177834648,105.44007950878469L154.95312891960143,138.81864654551097L155.48929891586303,180.21244807439163L155.64249034336635,186.4015014204151L155.94887319837298,168.12397329336338L156.02546891212464,82.50843054803883L156.33185176713127,118.26257293692694L156.4084474808829,144.4625992771566L156.86802176339287,153.96797510945677L157.09780890464782,212.33577564023992L157.17440461839948,111.00362015971743L157.25100033215114,-53.507782364620454L157.40419175965445,118.15234424751199L157.4807874734061,110.4372371126394L157.55738318715777,132.10161394441772L157.63397890090943,84.11661915499255L157.94036175591606,37.498364701164945L158.01695746966772,119.28696559732063L158.170148897171,157.72916139756805L158.2467446109227,111.01528176667645L158.39993603842598,122.41847811694899L158.62972317968098,134.5886106503426L158.7063188934326,184.19594699698538L159.01270174843927,168.6303520719068L159.0892974621909,124.74192078527355L159.70206317220416,65.91062438517358L160.08504174096245,132.78750195917357L160.54461602347237,12.431502009874036L160.62121173722403,-30.395537517922804L160.6978074509757,93.56511814971529L161.08078601973398,-107.33966835043046L161.84674315725056,-10.677297362040266L162.15312601225716,79.52838640061688L162.4595088672638,34.75224178788014L162.6127002947671,62.90200930070202L162.7658917222704,71.25026218249306L162.9956788635254,-30.732239915212432L163.3786574322837,89.54986785181038L163.76163600104195,153.00989458681644L164.29780599730356,175.60770354470807L164.75738027981347,50.560292123097696L164.9105717073168,205.24512105437086L165.06376313482014,214.7445335649306L165.21695456232345,42.72284412976407L165.29355027607508,177.88982701928464L165.52333741733005,189.1807538989244L166.21269884109498,85.88608248545913L167.05525169236319,145.31307497194777L167.13184740611484,169.24176482403797L167.36163454736985,187.9809865720583L167.43823026112148,89.01746248682659L167.74461311612808,166.87713548022631L167.82120882987977,74.5933003501668L167.97440025738308,27.81024618708645L168.35737882614137,122.44222538930191L168.58716596739634,93.77311881202078L168.97014453615463,261.8945307924375L169.04674024990626,170.2249178016402L169.12333596365792,23.59491981887774L169.27652739116124,0.5535722417605188L169.3531231049129,172.41486157393612L169.73610167367116,190.1851097982703L169.81269738742284,88.66173046727201L170.0424845286778,163.84371297731465L170.11908024242945,66.70369316934372L170.50205881118774,-41.09734121691443L170.96163309369769,34.908454313826695L171.03822880744934,164.58215773434264L171.42120737620763,146.55434701812712L171.72759023121424,155.19183425615412L172.11056879997253,198.03615416517206L172.72333450998576,14.571141850333076L173.94886593001232,130.60900776461924L174.02546164376395,-15.38137758009296L174.40844021252224,106.74941293376125L175.40418449129376,201.75930771240562L175.48078020504542,211.9567204067673L175.8637587738037,128.19282881731826L176.01695020130703,166.46097513370225L176.17014162881034,152.9885061395075L176.246737342562,185.5295047600541L176.32333305631366,147.6821569293256L176.62971591132026,134.21960030104603L176.7829073388236,214.66979326578414L176.93609876632692,126.25716108403341L177.0892901938302,145.24983725784725L177.3190773350852,140.6010436582412L177.39567304883684,174.0633887395072L177.54886447634016,92.07847529165721L177.70205590384347,77.64617653377829L177.77865161759513,27.580247493471887L177.8552473313468,188.92138915869484L177.93184304509845,135.2128246664765L178.08503447260173,-30.570143578482003L178.16163018635342,17.43459643181697L178.23822590010505,3.0467708022954114L178.46801304136002,185.36051747375697L179.38716160637992,194.40308653169697L179.46375732013158,38.88739460824556L179.69354446138655,70.97157627982457L180.1531187438965,119.50964928293362L180.22971445764813,170.88655497465172L180.38290588515144,74.36852287603162L180.76588445390973,242.6284959500433L180.91907588141305,114.10772790299208L180.9956715951647,90.25454695596156L181.30205445017134,136.93741731380302L181.378650163923,132.52728910207426L181.7616287326813,133.85941566792528L181.9148201601846,94.18779495402279L181.99141587393623,99.23324221214872L182.14460730143955,19.0421224474662L182.83396872520447,118.37868543712577L182.91056443895613,142.20764204606414L183.06375586645942,-9.586248016414887L183.21694729396273,26.220451114745373L183.4467344352177,39.23581161979857L183.5233301489694,132.29983475906894L184.2126915727343,210.38510683982142L184.67226585524423,90.8730096795725L185.2084358515058,8.724224150296065L185.51481870651244,173.3018327977786L185.5914144202641,63.42489985455333L185.89779727527073,62.84444336816793L186.58715869903563,172.07052612481877L186.8935415540423,32.717185358921796L186.97013726779392,152.11070517931918L187.0467329815456,166.64769336330752L187.42971155030386,136.00048670560201L187.8892858328138,99.46207474506738L188.11907297406879,143.55545877400547L188.19566868782042,-44.47226327816023L188.2722644015721,68.2493066535014L188.50205154282708,149.53921483024575L188.6552429703304,173.70047423021194L188.80843439783368,62.04559678782263L188.88503011158537,136.53689412206492L188.961625825337,71.40223412409088L189.26800868034363,132.99030790565186L189.42120010784691,125.92438122726637L189.65098724910192,37.754999565220004L189.72758296285357,100.22898442453626L189.8041786766052,138.57934506998137L190.11056153161186,92.67478096204601L190.57013581412178,141.30156168900018L191.1063058103834,-69.75589934062808L191.18290152413505,180.44377195061517L191.2594972378867,115.46230306223922L191.642475806645,56.86861190392935L191.71907152039665,92.15872835045704L191.87226294789997,96.11007834295694L192.4850286579132,137.5364793640185L192.63822008541652,156.41381164354672L192.79141151291984,74.05167171422451L192.8680072266715,6.967032010788642L193.09779436792647,18.132596615618894L193.63396436418807,16.901130920746L193.86375150544305,167.56580637846102L194.01694293294636,184.3626019618907L194.17013436044965,156.27657573256076L194.55311292920794,120.58787086090408L194.9360914979662,127.68833179807959L195.0126872117179,85.0582939169337L195.08928292546955,44.2377398810456L195.39566578047618,193.79949235695878L195.4722614942278,-2.7736432455620004L195.93183577673776,57.180321357213614L196.08502720424107,58.35146473972574L196.2382186317444,67.75360884678636L196.46800577299936,137.91458046601267L196.544601486751,127.74099455496045L196.62119720050268,126.33545287257195L196.69779291425434,165.9048755036699L196.92758005550928,113.20543756818981L197.0807714830126,111.57511841166612L197.4637500517709,106.01536778299507L197.69353719302586,116.29218541928682L197.84672862052918,107.70285531727015L198.15311147553578,95.4378132054214L198.22970718928747,186.35154203605654L198.61268575804576,172.17203511266663L198.91906861305236,94.86220688738487L199.14885575430733,155.34444228540426L199.225451468059,47.787214995546236L199.3786428955623,121.43015692717174L199.68502575056894,123.50555191474743L199.76162146432057,64.79169319745526L199.91481289182389,132.79569158769706L199.99140860557557,-61.25745026193525L200.4509828880855,81.57468037809937L200.52757860183715,143.415492986845L200.68077002934047,22.433026210976294L200.83396145684378,60.29624972936037L201.06374859809875,38.570119388003576L201.1403443118504,64.91798310009105L201.29353573935373,84.23922504997537L201.52332288060867,160.55839976408808L201.82970573561533,89.28888638879786L201.98289716311865,140.87578051673492L202.05949287687028,82.36994896540043L202.21268430437362,69.03582903558319L202.28928001812525,166.95049758945945L202.82545001438686,121.3642158405489L202.97864144189018,84.67682685111274L203.20842858314515,76.23761343504131L203.36162001064847,-70.03434671042695L203.43821572440012,85.96397671921497L203.51481143815175,18.158305158233105L203.97438572066173,87.75440443855561L204.74034285817825,149.58286634538555L204.89353428568157,158.80242679258092L205.27651285443986,21.154808073658586L205.42970428194317,43.40761899112837L205.73608713694983,93.1228782094465L205.81268285070146,40.52367708650965L205.88927856445312,83.34586644595763L206.04246999195644,49.91325846243714L206.19566141945975,101.4909293194157L206.2722571332114,118.48586620654007L206.57863998821804,-86.59563084058871L207.03821427072796,90.17673223316226L207.1914056982313,108.887091503959L207.34459712573462,59.364275304116944L207.65097998074123,65.77100314549145L208.34034140450615,58.992641093254605L208.4169371182578,-29.73008381899743L208.49353283200944,-18.24557426383788L208.79991568701607,64.32363869996354L209.18289425577436,29.82409969430111L209.25948996952602,105.34567349972096L209.33608568327767,26.083506743933384L209.6424685382843,61.71599736931714L209.71906425203596,23.562134801131577L209.94885139329094,81.48088395303577L210.10204282079422,101.50115972915702L210.33182996204923,84.81758774783859L210.71480853080752,-7.603191753032918L210.8679999583108,1.8788078580448357L211.02119138581412,40.36950534178092L211.09778709956578,84.98127430369979L211.48076566832404,60.15087719715527L211.63395709582738,-14.900389300337595L212.01693566458565,-112.95886667094035L212.24672280584062,42.36297754046947L212.39991423334394,2.759100161538042L212.55310566084725,41.27550618788834L212.93608422960554,35.68058521277496L213.16587137086051,-22.954160102761108L213.31906279836383,39.00342759748784L213.47225422586712,86.40870800278864L213.5488499396188,74.23351327182874L213.77863708087375,72.81008162421901L213.8552327946254,28.755339920158775L213.9318285083771,15.723679669015125L214.16161564963204,47.01272527155399L214.2382113633837,135.30243351449573L214.31480707713536,109.97299914106154L214.92757278714862,43.672602505620006L215.00416850090028,3.1341268398793702L215.0807642146519,-37.17358152633349L215.23395564215522,55.79680420978636L215.3105513559069,40.723779660465624L215.6169342109135,68.52751549043066L215.77012563841683,63.021938326814706L216.45948706218172,-90.9259565556047L216.84246563094,36.47959081503333L216.9190613446917,66.78988304623178L216.99565705844333,-115.12665339001413L217.14884848594667,54.75529019008465L217.53182705470493,60.96337315837306L217.6084227684566,2.5861903347183373L217.68501848220828,108.08567406935228L217.7616141959599,12.307888976108385L217.91480562346322,-82.30765796175572L218.0679970509665,34.19614215784779L218.37437990597317,-37.35619168985093L218.6807627609798,88.14710905290073L218.75735847473143,-33.06286507327766L218.91054990223478,75.51528289853852L219.14033704348972,82.79527957557863L219.29352847099304,63.153555463538595L219.82969846725462,30.01720530408167L220.2126770360129,32.67944415821805L220.44246417726788,10.958323007123196L220.82544274602617,14.423728536910145L221.05522988728117,81.78747820144937L221.1318256010328,48.51246093378879L221.20842131478446,-5.416057367868036L221.5148041697911,41.19565068387121L221.8211870247977,30.99593217176991L221.974378452301,42.268359502188304L222.58714416231427,94.99011351280362L222.66373987606593,96.48576761260276L222.7403355898176,117.60573292495994L223.04671844482422,31.495526015355352L223.35310129983085,19.13986791670456L223.6594841548375,93.85705587847357L223.73607986858912,-12.22092307228448L224.04246272359578,9.578542874653264L224.1190584373474,64.07365625260556L224.19565415109906,39.31235416729325L224.27224986485072,-1.6537579263652176L224.57863271985735,138.37033726889305L224.8084198611123,89.28907191436312L225.0382070023673,112.07351959090349L225.1913984298706,-19.299836540237976L225.3445898573739,135.07847765357812L225.65097271238056,-122.03610250593127L226.03395128113885,58.22138481482827L226.11054699489048,60.71482190823278L226.18714270864214,29.72842150993276L226.34033413614546,-142.53068764145863L226.4169298498971,42.774049185775056L226.57012127740043,72.9190911456337L226.72331270490375,84.27537603154835L226.79990841865538,109.06731633878027L226.87650413240706,113.36162359048419L227.4892698424203,144.61152329875378L227.64246126992361,79.70763060030751L227.8722484111786,107.82702492773157L227.94884412493025,-93.84496279205703L228.0254398386819,138.4301825155146L228.10203555243356,-18.817258041351835L228.25522697993688,106.41769322308139L228.40841840744017,46.86324467326105L228.63820554869517,188.24930954672456L228.7148012624468,80.68285898590804L229.02118411745346,163.22233485196395L229.0977798312051,116.05251289262671L229.17437554495675,192.4477000811905L229.40416268621175,-133.0618868491663L230.01692839622498,84.09785456924939L231.39565124375477,62.767344243977476L231.47224695750646,42.603153636521L231.85522552626475,35.041608662377L231.93182124001638,121.85458641317584L232.08501266751972,49.26558871412428L232.23820409502304,63.645542758948494L232.31479980877467,78.98047639910803L232.54458695002964,32.177014423849386L232.85096980503627,139.4331072176428L232.92756551878793,92.78092808902531L233.08075694629125,35.59267259849523L233.23394837379456,6.2875313762080784L233.31054408754622,56.404029384873155L233.69352265630448,143.11356338121502L233.77011837005614,-41.04491699290318L233.99990551131114,24.65959803058442L234.07650122506277,-46.06682900789363L234.38288408006943,163.0193433799204L234.45947979382106,-76.4897352572032L234.99564979008267,-16.467444239108573L235.14884121758595,25.95822398008042L235.22543693133764,-69.9076062457041L235.30203264508927,25.016125159704387L236.29777692386082,16.491225436136318L236.37437263761248,-51.09987255679951L236.5275640651158,10.928691923986404L236.91054263387406,-27.227078907156084L237.29352120263235,5.80542994306117L237.44671263013566,-59.77356378370385L237.9062869126456,146.31981619998984L238.05947834014893,203.37997953953592L238.21266976765224,65.05267466046777L238.36586119515556,97.9864839099682L238.44245690890722,148.95995100820844L238.59564833641053,98.79094926457557L238.97862690516882,74.9639539258985L239.05522261892045,177.10563695859466L239.1318183326721,99.61213842370827L239.20841404642377,34.876066850863225L239.43820118767874,112.9531493030922L239.5147969014304,114.85836434002269L239.74458404268535,108.64651785312478L239.82117975643703,41.13845580246763L239.8977754701887,112.35954700522572L239.97437118394035,86.82714766340015L240.28075403894695,168.1477205657163L240.35734975269864,106.26529722304869L240.74032832145693,22.477207799159686L240.89351974896022,103.70621058319531L241.2764983177185,40.67066634149771L241.35309403147016,49.07810187860579L241.50628545897348,69.06447948358934L241.6594768864768,70.91120096015945L241.73607260022845,48.902144131785434L241.88926402773174,87.40058068195796L242.04245545523506,80.67607405095006L242.42543402399335,17.8214437390304L242.65522116524832,165.0748341247092L242.80841259275164,166.18777548703494L242.8850083065033,142.98144267509971L243.19139116150993,97.89642449986192L243.57436973026822,178.0108426951367L244.1105397265298,-109.39136907295759L244.18713544028145,131.00536988296514L244.57011400903974,46.87273298074135L244.72330543654306,117.68985551697799L245.10628400530132,169.2192632233375L245.182879719053,135.7652402888559L245.25947543280463,74.02848101856736L245.33607114655632,184.23132937264515L246.02543257032121,136.01885373656248L246.4084111390795,139.08302047600247L246.63819828033448,97.02458686141401L246.71479399408614,79.18495207567364L247.40415541785103,95.50947908091504L247.55734684535435,131.284850895199L247.78713398660932,168.4240476433408L247.94032541411264,91.02408049699622L248.39989969662258,65.34906500279223L248.9360696928842,93.12316974962047L249.08926112038748,159.79255023070638L249.16585683413913,203.8050981204967L249.31904826164248,143.6731349896829L249.54883540289742,115.91750328842383L249.85521825790406,91.44941110717443L250.085005399159,76.93415591797336L250.1616011129107,170.42438428794387L250.314792540414,119.67442248853419L250.4679839679173,95.70197510669547L250.54457968166898,52.00482067784239L251.0041539641789,256.7881781416028L251.08074967793058,181.27201108122765L251.23394110543387,15.80992255320754L251.3871325329372,86.96902171351755L251.61691967419216,128.72968679586822L252.15308967045377,162.0439294687546L252.45947252546037,89.65863884035545L252.53606823921203,127.02528993150256L252.765855380467,189.0510980324618" fill="none"></path></g></g></g></g></g></g><g transform="translate(61, 177)" clip-path="url(#clip_1)"><clipPath id="clip_1"><rect width="268" height="22"></rect></clipPath><g><g><line x1="0" y1="0" x2="0" y2="5" style="visibility: inherit;" fill="rgb(0, 0, 0)" stroke="rgb(204, 204, 204)" stroke-width="1px"></line><line x1="38.29785687582833" y1="0" x2="38.29785687582833" y2="5" style="visibility: inherit;" fill="rgb(0, 0, 0)" stroke="rgb(204, 204, 204)" stroke-width="1px"></line><line x1="76.59571375165666" y1="0" x2="76.59571375165666" y2="5" style="visibility: inherit;" fill="rgb(0, 0, 0)" stroke="rgb(204, 204, 204)" stroke-width="1px"></line><line x1="114.89357062748499" y1="0" x2="114.89357062748499" y2="5" style="visibility: inherit;" fill="rgb(0, 0, 0)" stroke="rgb(204, 204, 204)" stroke-width="1px"></line><line x1="153.19142750331332" y1="0" x2="153.19142750331332" y2="5" style="visibility: inherit;" fill="rgb(0, 0, 0)" stroke="rgb(204, 204, 204)" stroke-width="1px"></line><line x1="191.48928437914168" y1="0" x2="191.48928437914168" y2="5" style="visibility: inherit;" fill="rgb(0, 0, 0)" stroke="rgb(204, 204, 204)" stroke-width="1px"></line><line x1="229.78714125496998" y1="0" x2="229.78714125496998" y2="5" style="visibility: inherit;" fill="rgb(0, 0, 0)" stroke="rgb(204, 204, 204)" stroke-width="1px"></line><line x1="268.08499813079834" y1="0" x2="268.08499813079834" y2="5" style="visibility: inherit;" fill="rgb(0, 0, 0)" stroke="rgb(204, 204, 204)" stroke-width="1px"></line></g><g transform="translate(0, 8)"><text style="text-anchor: middle; visibility: hidden; font-family: Roboto, sans-serif; font-size: 12px; font-weight: 200;" x="0" y="0" dx="0em" dy="0.95em" fill="rgb(50, 49, 63)" stroke="none" stroke-width="1px">-500</text><text style="text-anchor: middle; visibility: hidden; font-family: Roboto, sans-serif; font-size: 12px; font-weight: 200;" x="38.29785687582833" y="0" dx="0em" dy="0.95em" fill="rgb(50, 49, 63)" stroke="none" stroke-width="1px">0</text><text style="text-anchor: middle; visibility: hidden; font-family: Roboto, sans-serif; font-size: 12px; font-weight: 200;" x="76.59571375165666" y="0" dx="0em" dy="0.95em" fill="rgb(50, 49, 63)" stroke="none" stroke-width="1px">500</text><text style="text-anchor: middle; visibility: hidden; font-family: Roboto, sans-serif; font-size: 12px; font-weight: 200;" x="114.89357062748499" y="0" dx="0em" dy="0.95em" fill="rgb(50, 49, 63)" stroke="none" stroke-width="1px">1k</text><text style="text-anchor: middle; visibility: hidden; font-family: Roboto, sans-serif; font-size: 12px; font-weight: 200;" x="153.19142750331332" y="0" dx="0em" dy="0.95em" fill="rgb(50, 49, 63)" stroke="none" stroke-width="1px">1.5k</text><text style="text-anchor: middle; visibility: hidden; font-family: Roboto, sans-serif; font-size: 12px; font-weight: 200;" x="191.48928437914168" y="0" dx="0em" dy="0.95em" fill="rgb(50, 49, 63)" stroke="none" stroke-width="1px">2k</text><text style="text-anchor: middle; visibility: hidden; font-family: Roboto, sans-serif; font-size: 12px; font-weight: 200;" x="229.78714125496998" y="0" dx="0em" dy="0.95em" fill="rgb(50, 49, 63)" stroke="none" stroke-width="1px">2.5k</text><text style="text-anchor: middle; visibility: hidden; font-family: Roboto, sans-serif; font-size: 12px; font-weight: 200;" x="268.08499813079834" y="0" dx="0em" dy="0.95em" fill="rgb(50, 49, 63)" stroke="none" stroke-width="1px">3k</text></g><line x1="0" y1="0" x2="268.08499813079834" y2="0" fill="rgb(0, 0, 0)" stroke="rgb(204, 204, 204)" stroke-width="1px"></line></g></g></g></g></svg>