<svg viewBox="0 0 330 200" xmlns="http://www.w3.org/2000/svg"><g><g><g><g><g><line x1="51.53200149536133" y1="177.86299896240234" x2="46.53200149536133" y2="177.86299896240234" style="visibility: inherit;" fill="rgb(0, 0, 0)" stroke="rgb(204, 204, 204)" stroke-width="1px"></line><line x1="51.53200149536133" y1="158.1004435221354" x2="46.53200149536133" y2="158.1004435221354" style="visibility: inherit;" fill="rgb(0, 0, 0)" stroke="rgb(204, 204, 204)" stroke-width="1px"></line><line x1="51.53200149536133" y1="138.3378880818685" x2="46.53200149536133" y2="138.3378880818685" style="visibility: inherit;" fill="rgb(0, 0, 0)" stroke="rgb(204, 204, 204)" stroke-width="1px"></line><line x1="51.53200149536133" y1="118.57533264160153" x2="46.53200149536133" y2="118.57533264160153" style="visibility: inherit;" fill="rgb(0, 0, 0)" stroke="rgb(204, 204, 204)" stroke-width="1px"></line><line x1="51.53200149536133" y1="98.81277720133464" x2="46.53200149536133" y2="98.81277720133464" style="visibility: inherit;" fill="rgb(0, 0, 0)" stroke="rgb(204, 204, 204)" stroke-width="1px"></line><line x1="51.53200149536133" y1="79.0502217610677" x2="46.53200149536133" y2="79.0502217610677" style="visibility: inherit;" fill="rgb(0, 0, 0)" stroke="rgb(204, 204, 204)" stroke-width="1px"></line><line x1="51.53200149536133" y1="59.287666320800746" x2="46.53200149536133" y2="59.287666320800746" style="visibility: inherit;" fill="rgb(0, 0, 0)" stroke="rgb(204, 204, 204)" stroke-width="1px"></line><line x1="51.53200149536133" y1="39.52511088053385" x2="46.53200149536133" y2="39.52511088053385" style="visibility: inherit;" fill="rgb(0, 0, 0)" stroke="rgb(204, 204, 204)" stroke-width="1px"></line><line x1="51.53200149536133" y1="19.762555440266897" x2="46.53200149536133" y2="19.762555440266897" style="visibility: inherit;" fill="rgb(0, 0, 0)" stroke="rgb(204, 204, 204)" stroke-width="1px"></line><line x1="51.53200149536133" y1="0" x2="46.53200149536133" y2="0" style="visibility: inherit;" fill="rgb(0, 0, 0)" stroke="rgb(204, 204, 204)" stroke-width="1px"></line></g><g transform="translate(41.53200149536133, 0)"><text style="text-anchor: end; visibility: hidden; font-family: Roboto, sans-serif; font-size: 12px; font-weight: 200;" x="0" y="177.86299896240234" dx="0em" dy="0.3em" fill="rgb(50, 49, 63)" stroke="none" stroke-width="1px">0.5</text><text style="text-anchor: end; visibility: inherit; font-family: Roboto, sans-serif; font-size: 12px; font-weight: 200;" x="0" y="158.1004435221354" dx="0em" dy="0.3em" fill="rgb(50, 49, 63)" stroke="none" stroke-width="1px">0.55</text><text style="text-anchor: end; visibility: hidden; font-family: Roboto, sans-serif; font-size: 12px; font-weight: 200;" x="0" y="138.3378880818685" dx="0em" dy="0.3em" fill="rgb(50, 49, 63)" stroke="none" stroke-width="1px">0.6</text><text style="text-anchor: end; visibility: inherit; font-family: Roboto, sans-serif; font-size: 12px; font-weight: 200;" x="0" y="118.57533264160153" dx="0em" dy="0.3em" fill="rgb(50, 49, 63)" stroke="none" stroke-width="1px">0.65</text><text style="text-anchor: end; visibility: hidden; font-family: Roboto, sans-serif; font-size: 12px; font-weight: 200;" x="0" y="98.81277720133464" dx="0em" dy="0.3em" fill="rgb(50, 49, 63)" stroke="none" stroke-width="1px">0.7</text><text style="text-anchor: end; visibility: inherit; font-family: Roboto, sans-serif; font-size: 12px; font-weight: 200;" x="0" y="79.0502217610677" dx="0em" dy="0.3em" fill="rgb(50, 49, 63)" stroke="none" stroke-width="1px">0.75</text><text style="text-anchor: end; visibility: hidden; font-family: Roboto, sans-serif; font-size: 12px; font-weight: 200;" x="0" y="59.287666320800746" dx="0em" dy="0.3em" fill="rgb(50, 49, 63)" stroke="none" stroke-width="1px">0.8</text><text style="text-anchor: end; visibility: inherit; font-family: Roboto, sans-serif; font-size: 12px; font-weight: 200;" x="0" y="39.52511088053385" dx="0em" dy="0.3em" fill="rgb(50, 49, 63)" stroke="none" stroke-width="1px">0.85</text><text style="text-anchor: end; visibility: hidden; font-family: Roboto, sans-serif; font-size: 12px; font-weight: 200;" x="0" y="19.762555440266897" dx="0em" dy="0.3em" fill="rgb(50, 49, 63)" stroke="none" stroke-width="1px">0.9</text><text style="text-anchor: end; visibility: hidden; font-family: Roboto, sans-serif; font-size: 12px; font-weight: 200;" x="0" y="0" dx="0em" dy="0.3em" fill="rgb(50, 49, 63)" stroke="none" stroke-width="1px">0.95</text></g><line x1="51.53200149536133" y1="0" x2="51.53200149536133" y2="177.86299896240234" fill="rgb(0, 0, 0)" stroke="rgb(204, 204, 204)" stroke-width="1px"></line></g></g><g transform="translate(51, 0)" clip-path="url(#clip_0)"><clipPath id="clip_0"><rect width="278" height="177"></rect></clipPath><g><g><g><line x1="0" y1="0" x2="0" y2="177.86299896240234" fill="rgb(0, 0, 0)" stroke="rgb(60, 60, 60)" stroke-width="1px" opacity="0.25"></line><line x1="39.78114264351981" y1="0" x2="39.78114264351981" y2="177.86299896240234" fill="rgb(0, 0, 0)" stroke="rgb(60, 60, 60)" stroke-width="1px" opacity="0.25"></line><line x1="79.56228528703961" y1="0" x2="79.56228528703961" y2="177.86299896240234" fill="rgb(0, 0, 0)" stroke="rgb(60, 60, 60)" stroke-width="1px" opacity="0.25"></line><line x1="119.34342793055943" y1="0" x2="119.34342793055943" y2="177.86299896240234" fill="rgb(0, 0, 0)" stroke="rgb(60, 60, 60)" stroke-width="1px" opacity="0.25"></line><line x1="159.12457057407923" y1="0" x2="159.12457057407923" y2="177.86299896240234" fill="rgb(0, 0, 0)" stroke="rgb(60, 60, 60)" stroke-width="1px" opacity="0.25"></line><line x1="198.90571321759904" y1="0" x2="198.90571321759904" y2="177.86299896240234" fill="rgb(0, 0, 0)" stroke="rgb(60, 60, 60)" stroke-width="1px" opacity="0.25"></line><line x1="238.68685586111886" y1="0" x2="238.68685586111886" y2="177.86299896240234" fill="rgb(0, 0, 0)" stroke="rgb(60, 60, 60)" stroke-width="1px" opacity="0.25"></line><line x1="278.4679985046387" y1="0" x2="278.4679985046387" y2="177.86299896240234" fill="rgb(0, 0, 0)" stroke="rgb(60, 60, 60)" stroke-width="1px" opacity="0.25"></line></g><g><line x1="0" y1="177.86299896240234" x2="278.4679985046387" y2="177.86299896240234" fill="rgb(0, 0, 0)" stroke="rgb(60, 60, 60)" stroke-width="1px" opacity="0.25"></line><line x1="0" y1="158.1004435221354" x2="278.4679985046387" y2="158.1004435221354" fill="rgb(0, 0, 0)" stroke="rgb(60, 60, 60)" stroke-width="1px" opacity="0.25"></line><line x1="0" y1="138.3378880818685" x2="278.4679985046387" y2="138.3378880818685" fill="rgb(0, 0, 0)" stroke="rgb(60, 60, 60)" stroke-width="1px" opacity="0.25"></line><line x1="0" y1="118.57533264160153" x2="278.4679985046387" y2="118.57533264160153" fill="rgb(0, 0, 0)" stroke="rgb(60, 60, 60)" stroke-width="1px" opacity="0.25"></line><line x1="0" y1="98.81277720133464" x2="278.4679985046387" y2="98.81277720133464" fill="rgb(0, 0, 0)" stroke="rgb(60, 60, 60)" stroke-width="1px" opacity="0.25"></line><line x1="0" y1="79.0502217610677" x2="278.4679985046387" y2="79.0502217610677" fill="rgb(0, 0, 0)" stroke="rgb(60, 60, 60)" stroke-width="1px" opacity="0.25"></line><line x1="0" y1="59.287666320800746" x2="278.4679985046387" y2="59.287666320800746" fill="rgb(0, 0, 0)" stroke="rgb(60, 60, 60)" stroke-width="1px" opacity="0.25"></line><line x1="0" y1="39.52511088053385" x2="278.4679985046387" y2="39.52511088053385" fill="rgb(0, 0, 0)" stroke="rgb(60, 60, 60)" stroke-width="1px" opacity="0.25"></line><line x1="0" y1="19.762555440266897" x2="278.4679985046387" y2="19.762555440266897" fill="rgb(0, 0, 0)" stroke="rgb(60, 60, 60)" stroke-width="1px" opacity="0.25"></line><line x1="0" y1="0" x2="278.4679985046387" y2="0" fill="rgb(0, 0, 0)" stroke="rgb(60, 60, 60)" stroke-width="1px" opacity="0.25"></line></g></g></g><g><g><line x1="0" y1="375.4885533650716" x2="278.4679985046387" y2="375.4885533650716" fill="rgb(0, 0, 0)" stroke="rgb(153, 153, 153)" stroke-width="1.5px"></line></g></g><g><g><line x1="39.78114264351981" y1="0" x2="39.78114264351981" y2="177.86299896240234" fill="rgb(0, 0, 0)" stroke="rgb(153, 153, 153)" stroke-width="1.5px"></line></g></g><g><g><g><g><g><path style="fill: none;" stroke="rgb(255, 112, 67)" stroke-width="2px" d="M40.17895406995501,171.31200290766355L40.25851635524205,166.45198403473682L40.81545235225133,95.70111708310905L41.213263778686525,133.26403282352456L41.3723883492606,152.42346590416673L41.61107520512172,160.74287894288898L41.7701997756958,115.97112873995067L41.84976206098284,68.09049478212002L42.00888663155692,124.60125703864801L42.168011202131005,155.46649948798134L42.406698057992116,173.86576663890804L42.565822628566195,184.86251245195422L43.12275862557547,178.3429174022015L43.44100776672363,138.65817967461118L43.52057005201067,160.2821501075159L43.600132337297715,125.51990591115609L43.83881919315883,123.3510758096499L44.55487976074219,86.6887118369986L44.63444204602923,-12.280522279127437L44.71400433131626,12.61665409352556L44.952691187177386,-10.327857541556307L45.191378043038505,13.15065937378815L45.50962718418666,92.3202843900608L45.82787632533482,113.86489119075638L45.90743861062187,121.83799849829386L45.9870008959089,134.6031129103551L46.14612546648298,157.56840287078032L46.30525003705706,164.68920891172098L46.3848123223441,138.47126450700534L46.54393689291818,116.33826627553512L46.623499178205215,109.41784007150592L46.7826237487793,100.98739097594432L46.94174831935337,94.36542995355208L47.498684316362656,135.89705141102783L47.737371172223774,125.09076773489305L47.81693345751081,180.5436210093491L47.97605802808489,100.55944952540165L48.29430716923305,89.09591771583506L48.69211859566825,130.8383316983404L48.771680880955294,117.5834723622777L49.72642830439976,115.9378982786199L49.8059905896868,114.8232609105803L50.12423973083496,110.36525251482864L50.36292658669608,106.47616086149091L50.52205115727016,89.71780221846933L50.681175727844234,138.72296485498728L51.3972362954276,100.56411610099532L51.87461000714983,87.0478391831146L52.27242143358503,106.00736262354087L52.35198371887207,89.93139004728795L52.59067057473319,74.45270368301023L52.74979514530727,39.616461186364L52.908919715881346,86.0646469378216L53.38629342760359,96.4332227691187L53.46585571289063,127.26739832146423L54.18191628047398,98.88662283199315L54.341040851048064,99.42308196922019L54.500165421622135,98.83621907266364L54.738852277483254,101.24190411304535L55.454912845066616,99.27365194646679L55.693599700927734,99.7472164595433L55.773161986214774,86.46296474419584L55.93228655678885,94.55041351524048L56.17097341264997,143.07589768031542L56.72790940965925,148.12708763446403L56.88703398023333,129.90431325079533L56.966596265520366,110.31472073035063L57.28484540666852,112.95054951217L57.36440769195556,107.47438570853589L57.44396997724261,96.74789426948176L57.52353226252965,107.56705962682564L57.76221911839077,128.81389824715694L57.84178140367781,99.68244272023753L58.160030544825965,124.27122157787252L58.239592830113,116.87810309582584L58.319155115400044,128.0396572289741L58.71696654183524,112.69492749860764L58.87609111240932,108.18426354451026L58.95565339769636,112.35769498423312L59.27390253884452,124.60927411432043L59.671713965279714,154.11958357710753L59.751276250566754,154.91200068591053L59.91040082114083,117.02847249599851L60.06952539171491,114.97163776409434L60.14908767700195,171.35735315083247L60.22864996228899,119.82775126458121L60.46733681815011,107.1256840614071L60.626461388724195,132.94271408106874L60.86514824458531,155.35903139205212L61.024272815159385,139.22218938934583L61.26295967102051,112.17175324723065L61.34252195630754,128.42358552105395L61.6607710974557,121.01248403828815L61.74033338274275,112.03869780368834L61.81989566802979,128.1141010536426L61.899457953316826,108.88310272793981L62.138144809177945,122.53228374166301L62.217707094464984,155.50115696865467L62.61551852090018,100.42024139955194L63.2520168031965,143.8440154759576L63.411141373770576,173.1573951583031L63.49070365905762,191.13482169317365L63.649828229631694,105.11118704785763L63.80895280020578,122.87313582936078L63.88851508549281,119.15711773032491L64.12720194135393,84.58374077326673L64.20676422664097,80.71684451912802L64.28632651192801,88.19667834953182L64.44545108250209,96.32350888911132L64.92282479422433,38.5159490162997L65.00238707951137,26.471789271785L65.0819493647984,111.3351188763308L65.47976079123362,159.9661223821812L65.63888536180768,182.0070341627842L65.71844764709472,189.45363427966103L65.8775722176688,153.35039727506552L66.67319507053921,133.19949778153293L66.83231964111327,111.05705809812828L67.0710064969744,59.61479747111862L67.30969335283552,114.85523190709425L67.4688179234096,143.7235935758396L67.70750477927072,175.27026801553203L67.8666293498448,95.5532906889319L68.02575392041888,141.3812815950441L68.18487849099296,87.48985060281167L68.42356534685408,103.99921105278801L68.50312763214112,110.0025096757762L68.6622522027152,83.66975160284542L69.21918819972447,109.78196871094258L69.29875048501151,99.86911413806553L69.37831277029855,102.79178977037955L69.45787505558559,151.41773304940082L70.25349790845598,149.79594210187005L70.49218476431712,162.8749013132784L70.57174704960416,170.72227684012338L70.8899961907523,190.30184720895903L71.44693218776158,179.20698517998989L71.60605675833565,124.50510414708897L71.84474361419677,109.5153688552011L72.08343047005789,152.38983935375853L72.56080418178013,164.6007970737155L72.64036646706717,149.20237230995818L72.79949103764126,129.88721786306863L72.8790533229283,136.86551434235412L73.35642703465052,135.01488016348614L73.43598931993758,142.25336212195657L73.6746761757987,116.2402565071754L73.99292531694685,163.4078411389746L74.07248760223389,132.98208001805784L74.15204988752093,138.13969995766516L74.23161217280797,135.48715872992022L74.62942359924317,113.90300329328544L74.86811045510429,121.9474829420427L74.94767274039131,77.92711520622798L75.02723502567835,140.1364167535685L75.42504645211356,135.4518195613928L75.82285787854876,72.21016165542969L75.98198244912284,61.29368092805446L76.06154473440988,101.65876239924809L76.14110701969692,92.56433662602102L76.22066930498394,53.89635747134219L76.37979387555804,85.31122432248024L77.01629215785435,123.26313351910876L77.33454129900251,110.45633705067809L77.41410358428956,135.65947028682797L78.20972643715994,168.66851666407717L78.60753786359516,141.86206799325356L78.76666243416922,105.50641513485478L78.84622471945626,147.32249683775643L78.9257870047433,112.50330460801264L79.00534929003034,132.9340974917776L79.32359843117851,127.09994105126029L79.72140985761371,73.53167820421218L79.80097214290075,101.41998020769107L80.03965899876185,92.10903569118605L80.43747042519706,37.38548941605129L80.5170327104841,38.190334138001845L80.83528185163225,65.2974011344417L80.9148441369193,73.94957568534686L80.99440642220634,54.62880454039345L81.15353099278042,66.76084698014994L81.39221784864152,49.72625802209186L81.7104669897897,67.88872516302754L81.79002927507673,61.98448254073403L82.10827841622489,110.30228576599328L82.18784070151193,79.39061454371763L82.58565212794713,55.557864772464555L82.7447766985212,90.11911358680025L83.1425881249564,24.7353619472905L83.22215041024344,78.66031726781372L83.30171269553048,99.35930934300671L83.5403995513916,113.36864101327518L83.61996183667864,115.46978211121221L83.69952412196568,86.92958121233843L83.9382109778268,108.04712571808037L84.01777326311384,122.41125699872367L84.09733554840088,107.4185861717832L84.17689783368792,122.93770756045323L84.57470926012311,104.82200433106763L84.7338338306972,108.17950729542571L84.81339611598423,122.46757947219064L84.89295840127129,144.87530094543806L84.97252068655833,132.8248339607283L85.21120754241943,112.35947327652005L85.37033211299351,109.7990071233227L85.60901896885464,150.8966012744756L85.68858125414167,104.85305401174955L86.08639268057688,86.78797329127242L86.16595496586392,115.51316219777765L86.40464182172502,98.67743252105335L86.5637663922991,73.37347155423834L86.9615778187343,91.2655797197186L87.12070238930838,81.51902953206958L87.35938924516951,36.317195064385935L87.51851381574357,7.470779659169885L87.59807610103061,25.804231444378537L87.67763838631765,32.56039166393428L87.7572006716047,41.96686433682773L87.91632524217879,26.550611383666784L87.99588752746583,93.6186184418865L88.15501209803989,102.52640457046324L88.31413666861397,81.71525564333503L88.39369895390102,149.51411267475603L88.47326123918806,190.1934268936087L88.71194809504918,194.79860320353558L88.9506349509103,149.9622710739039L89.3484463773455,112.32178561476005L89.66669551849365,94.1563811245928L89.7462578037807,51.66518082028281L89.90538237435477,48.1410883483505L90.14406923021589,19.50503830203644L90.46231837136405,38.115542176110466L90.54188065665109,49.85230675418838L90.70100522722517,75.63252769193832L90.7805675125122,80.36617696348917L90.86012979779925,83.51668306553938L90.93969208308629,119.19462467754686L91.25794122423446,145.12915107734392L91.33750350952148,153.667840888307L91.49662808009556,110.45130506721543L91.5761903653826,102.40645327674734L91.89443950653077,50.34308888360961L92.53093778882707,83.93256057355012L92.84918692997523,81.81146232032782L92.92874921526229,62.44003648559363L93.16743607112339,16.001248447011278L93.24699835641043,20.11071886154637L93.32656064169747,49.392819944387824L93.48568521227155,89.97822908768761L93.5652474975586,103.26667581876845L93.72437206813268,111.0866304918653L93.88349663870675,74.51097976516932L93.96305892399378,86.76623192493362L94.12218349456788,45.713650020656424L94.28130806514196,89.70779779338898L94.51999492100306,98.46487851792436L94.7586817768642,97.79341919540903L95.07693091801234,94.69862065732232L95.15649320329938,80.05426885437807L95.71342920030865,81.8536829174218L95.87255377088275,94.39972065789739L95.95211605616979,78.30401851801507L96.34992748260497,105.22147704207934L96.66817662375314,94.89106720311108L96.82730119432722,113.232102879704L97.14555033547538,127.48031898344544L97.54336176191059,113.06519337493948L97.94117318834577,129.2022204459477L98.02073547363281,111.30344991987597L98.10029775891987,100.54149576620676L98.33898461478097,136.06139656610284L98.49810918535505,164.3255677683359L98.65723375592913,136.09926841986194L98.73679604121618,146.41895890132452L98.89592061179025,116.07741341474289L99.13460746765136,94.70024632431625L99.2141697529384,88.91603948646579L99.29373203822546,82.43099705248848L99.45285660879952,84.00970344960024L99.6119811793736,125.82749548232843L99.69154346466064,159.37750510180143L99.85066803523473,169.7999698941195L100.00979260580881,158.9871228228151L100.32804174695696,106.9144427005096L100.48716631753105,111.28317717612315L100.80541545867919,134.32276553600906L100.88497774396623,124.55826811209737L101.12366459982736,134.66573724805107L101.28278917040144,122.19964727787189L101.52147602626255,155.26547358229107L101.68060059683664,152.15080879100543L101.83972516741072,118.76006906538238L102.07841202327182,118.3477796342492L102.31709887913296,128.9094104689569L102.39666116442,140.39029317296433L102.7944725908552,133.94329699404597L103.19228401729038,90.9209358779469L103.51053315843855,74.85194855972685L103.59009544372559,73.4505675461143L103.66965772901263,52.52599221558587L103.82878229958669,4.726365237371096L103.90834458487375,31.99366437412053L103.98790687016078,12.760180831413052L104.38571829659598,46.78338848752894L104.6244051524571,60.635244389549165L104.70396743774414,98.50034724409315L104.78352972303118,96.49961983640115L104.86309200831822,58.95561332473462L105.02221657889231,90.26476586488663L105.26090343475342,98.06648427929765L105.49959029061453,83.99181596487882L106.2156508581979,70.71665957979029L106.45433771405901,47.31948562187853L107.01127371106828,81.05393655681259L107.09083599635532,85.46960386868129L107.17039828164236,63.718436901636174L107.48864742279054,58.46288252998389L107.6477719933646,84.30674107181456L107.80689656393868,94.49536342359822L107.88645884922573,105.82601046454137L108.20470799037388,107.84141533160575L108.68208170209613,136.2172833885249L108.84120627267019,131.1635704350912L109.07989312853132,137.75756336986916L109.15945541381836,78.73626823895599L109.39814226967948,88.92310719121528L109.6368291255406,79.09690832320166L109.79595369611468,131.35924846437803L109.95507826668876,43.43414121444549L110.35288969312396,57.272016689895615L110.432451978411,43.424294641084074L110.67113883427211,65.6334884299928L110.98938797542027,111.9297082146125L111.14851254599435,115.30381008696617L111.46676168714251,141.19162249220525L111.54632397242955,165.8751894072559L111.78501082829067,108.99110811215907L111.94413539886476,129.61193699003962L112.02369768415178,171.86977346758928L112.2623845400129,157.79233692955103L112.34194682529994,153.16940259652617L112.58063368116107,102.27308559586328L112.6601959664481,68.84238759979951L112.73975825173514,73.6340004032105L113.21713196345739,73.50765210659576L113.61494338989257,100.60505530632913L113.77406796046667,108.03139661503765L113.85363024575369,109.6271816921013L114.96750223977226,157.4726336824588L115.0470645250593,75.83063680164426L115.20618909563336,36.84275762811198L115.76312509264264,61.34188931274852L115.84268737792968,29.081146669150268L115.92224966321672,45.12375166276753L116.24049880436489,37.71716782209342L116.32006108965193,43.74616041319956L116.63831023080009,31.791659063266444L116.95655937194823,3.5370156693362746L117.03612165723527,26.617598106509938L117.19524622780936,35.33816700967735L117.35437079838344,18.105174070800533L117.43393308367048,24.374672920104498L117.51349536895752,17.79517015461029L117.59305765424455,49.23816041216254L118.22955593654086,51.766434293214004L118.54780507768903,73.5492831537444L118.70692964826311,33.68611507794501L118.94561650412423,14.328972123051585L119.34342793055943,51.27327848074203L119.82080164228167,93.08700787669218L119.9003639275687,94.6172068820236L119.97992621285576,130.5693473642594L120.13905078342982,117.55577326878199L120.37773763929094,89.41176521432108L121.17336049216135,92.91110267428094L121.33248506273543,101.45890944038227L121.4916096333095,85.70881260046036L121.73029648917063,111.15698264117692L121.96898334503175,100.64043669835112L122.12810791560581,69.06261034988201L122.20767020089285,100.38920108811956L122.60548162732806,144.73803100559155L122.68504391261509,89.63537721099252L122.92373076847622,50.895830961691274L123.00329305376326,20.284021941536505L123.0828553390503,24.91385161713689L123.3215421949114,49.327917533805596L123.40110448019844,61.57446183812053L123.71935362134661,71.71303216892555L123.87847819192068,80.15946144847986L124.35585190364293,98.74170324184418L124.514976474217,2.4279502211456614L124.75366333007813,-4.1822722378704205L125.07191247122628,29.86259981377725L125.39016161237444,73.64194045369473L125.54928618294852,54.80447517710843L125.86753532409668,53.696803690994095L125.94709760938372,87.96030150485188L126.34490903581893,62.242260182403584L126.504033606393,86.34929629307703L127.45878102983748,67.06728695898897L127.77703017098563,86.38762857722118L127.85659245627267,111.3295040541666L127.9361547415597,83.49477902585295L128.17484159742082,98.19406700665841L128.3339661679949,63.09488774144492L128.57265302385602,98.83171262175605L128.89090216500418,77.69066051920305L129.05002673557826,99.05019429098478L129.1295890208653,119.20315264113134L129.44783816201345,103.78457017075098L129.5274004473005,104.41154152919664L129.76608730316164,70.62013945936073L130.08433644430977,45.44482240293536L130.1638987295968,94.53935581143723L130.32302330017092,31.699371141950405L130.48214787074497,21.88570360189411L130.72083472660609,18.822749994362113L131.11864615304128,5.623773866083706L131.27777072361536,-0.4925907339670056L131.43689529418944,18.22708429158284L131.6755821500506,7.072693753603688L132.07339357648578,12.937409733583712L132.15295586177282,55.37596438048005L132.3120804323469,41.24118016657658L132.47120500292095,54.1595987078226L132.550767288208,65.32839119427742L132.63032957349506,91.05313539203644L132.86901642935618,88.22538711921821L133.26682785579138,8.522435178869022L133.42595242636546,-1.6402706886659153L133.5055147116525,25.97066155524689L133.82376385280065,62.21625567723299L134.22157527923582,124.50002700996583L134.539824420384,64.6499745369913L134.85807356153214,110.28802448377246L134.9376358468192,83.70373151938958L135.3354472732544,49.47685915007943L135.49457184382848,56.59144712738402L135.65369641440256,101.95865239936857L135.81282098497664,73.06555625016128L136.05150784083776,64.59436685956672L136.1310701261248,65.23200361771846L136.44931926727295,77.9472038519355L136.9266929789952,55.475647968415664L137.08581754956927,97.31976921259299L137.24494212014335,89.70336762068578L137.40406669071743,127.04937534316404L137.48362897600447,138.72162972164057L137.88144040243967,116.02696394387003L138.27925182887486,83.17497753007032L138.51793868473598,52.6699719038922L138.67706325531006,56.40749049242695L138.83618782588414,82.13601630850341L138.91575011117118,98.37771200191615L139.07487468174526,132.4062802029069L139.23399925231934,87.72698822652102L139.47268610818045,69.53770338895781L139.63181067875453,62.10577474250206L139.71137296404157,48.331043210137295L139.7909352493286,49.72272161684817L139.87049753461568,77.77613604421363L140.42743353162496,84.28264451708434L140.586558102199,99.95068446586205L140.82524495806013,104.04325802963045L140.90480724334716,113.52402748210977L140.98436952863423,54.27189773143309L141.46174324035644,93.71509965335994L141.85955466679164,122.25269834155159L142.09824152265276,37.74894687295341L142.1778038079398,91.2169238005935L142.81430209023614,76.79345477901497L142.89386437552315,62.258738308698L142.97342666081022,45.84019239922543L143.05298894609723,63.979522446932535L143.2121135166713,61.5261717225969L143.6099249431065,41.80050941773731L143.76904951368059,105.5556766137751L143.84861179896762,98.39251434430919L144.48511008126397,71.5384116910194L144.56467236655098,38.247474831607384L144.88292150769914,33.050416242747886L145.04204607827324,65.30077485006369L145.20117064884732,69.19681173137727L145.28073293413433,55.35621820538635L145.4398575047084,33.7312066042518L145.7581066458566,16.998561311031622L145.8376689311436,-17.149021169566392L146.1559180722918,-7.703044333211538L146.2354803575788,19.792802531939763L146.3946049281529,31.70536258261504L146.47416721343996,17.633325508131495L146.55372949872697,56.390040439295255L146.63329178401403,14.584063120568803L146.95154092516216,57.817336598273734L147.03110321044923,12.673695116425078L147.26979006631032,81.27605575676095L147.3493523515974,135.31867587044295L147.42891463688443,152.45159351341957L147.7471637780326,118.6042427129346L147.8267260633196,81.92507520139033L147.9858506338937,57.51778089391026L148.38366206032887,108.08680665802186L149.02016034262522,110.03484304532289L149.25884719848634,86.40745100380015L149.41797176906041,102.91861694736394L149.5770963396345,103.85153326751903L149.65665862492153,98.55472509782227L149.9749077660697,116.65718348030695L150.13403233664377,128.05054086937855L150.3727191925049,138.14805469007968L150.45228147779193,143.08727487893267L150.61140604836598,128.71040736733005L151.16834204537525,139.88916333243574L151.32746661594936,159.53670140447832L151.4070289012364,109.6298106748155L151.72527804238456,117.92541888384596L151.8048403276716,122.79367828573167L152.04352718353272,127.44237991982894L152.12308946881976,139.4807959644397L152.2026517541068,167.8780114612407L152.36177632468087,113.66625456107872L152.4413386099679,112.40784645692281L152.600463180542,61.07810373512286L152.75958775111607,40.34369247875647L152.8391500364031,42.0181322823688L153.15739917755127,120.37211011980516L153.3960860334124,94.06577347878444L153.71433517456055,124.04296531825052L153.79389745984759,102.93382554761021L154.0325843157087,67.75811375147681L154.19170888628278,90.82920029125131L154.35083345685686,85.94263294542824L154.4303957421439,104.76191241438451L154.50995802743094,106.72148997807695L155.2260185950143,102.75500027628676L155.3851431655884,76.96322663019373L155.6238300214495,60.87117626683841L155.78295459202357,67.96763948388579L155.94207916259768,57.22262211743076L156.49901515960696,94.68080330485931L156.57857744489397,77.63827188269339L156.8172643007551,35.6816948290249L156.89682658604212,43.27691126928407L156.97638887132916,58.393529643747506L157.3742002977644,73.90777535038784L157.61288715362548,90.82022765233967L157.7720117241996,89.58337917329055L158.01069858006068,103.50477728183408L158.09026086534772,107.26642970779157L158.16982315063476,94.10438318926002L158.48807229178294,106.06223084537667L158.56763457706995,85.61652465944752L158.72675914764403,82.84304369360997L158.88588371821814,103.8492509717402L158.96544600350515,101.42520194708896L159.2836951446533,119.60217141041915L159.36325742994035,123.32910975065286L159.6815065710885,125.39309560671366L159.76106885637557,101.4137874327447L159.92019342694965,98.89942406990963L160.0793179975237,111.08097663437665L160.47712942395893,98.713992582795L160.55669170924597,108.53559405537112L160.71581627982005,98.30918917137744L160.95450313568114,113.41940886276832L161.5114391326904,102.50120267589706L161.6705637032645,95.78114561290514L161.98881284441268,95.18037548912923L162.0683751296997,108.96101831315553L162.38662427084788,118.20403164372239L162.4661865561349,104.17902457900384L162.94356026785715,110.4458751310946L163.18224712371824,146.11850769052117L163.2618094090053,120.45799481405484L163.34137169429232,98.21188061318276L163.50049626486643,113.15788089050554L163.58005855015347,124.13661116660985L163.6596208354405,135.31609120576786L163.73918312072752,124.05109905443095L164.0574322618757,65.40150546330578L164.13699454716274,92.13260176901866L164.2961191177368,98.03167370435021L164.37568140302386,92.45003456633238L164.53480597359794,73.02198029081605L164.77349282945906,50.121756618475736L164.8530551147461,52.59511030811131L165.17130425589426,77.58147756987212L165.2508665411813,52.773849509593845L165.8873648234776,52.38924408987104L166.2851762499128,31.658487779525288L166.76254996163505,29.85011409775111L166.84211224692206,26.505960982741012L166.92167453220912,50.82568582066222L167.31948595864432,46.63263671650948L167.63773509979248,52.60952918795966L168.11510881151474,39.365426190109865L168.43335795266287,59.231449371434486L168.75160709381103,51.41923794120949L168.9107316643851,48.97215525338701L169.0698562349592,40.291397274593486L169.3085430908203,16.215272850403792L169.7063545172555,38.28319684828404L170.1041659436907,65.57530653344321L170.66110194069998,45.12565825982279L171.13847565242222,52.771858501175494L171.2976002229963,104.68505596560507L171.4567247935704,114.92709149893133L171.61584936414448,88.8526356428552L171.6954116494315,74.64439882445878L171.9340985052926,94.61206547834728L172.65015907287597,64.85926557878194L173.5253442110334,67.30731945756595L173.60490649632047,93.84124697701193L173.84359335218159,132.0958141896334L173.9231556374686,86.98109283733541L174.24140477861675,97.69571579686081L174.32096706390382,78.6885599908639L174.48009163447787,78.968461645587L174.8779030609131,92.13945720328203L175.11658991677422,96.50261782890398L175.5144013432094,140.5072934432703L175.59396362849645,151.0449183819743L175.6735259137835,127.94868443738176L175.83265048435757,123.28643448988214L175.91221276964458,113.23937209526277L176.31002419607978,138.98702054718663L176.38958648136685,143.60665553147277L176.62827333722794,126.60558117357049L176.707835622515,116.32281057527526L177.1056470489502,54.66693017611966L177.5830207606724,85.04705218767971L177.66258304595948,73.22968062582775L178.06039447239468,120.5011743122751L178.37864361354283,82.41339759187358L178.77645503997803,113.83737474369848L179.41295332227432,94.61826814147727L180.68594988686698,72.49006449221311L180.76551217215402,72.70300652722995L181.16332359858922,80.82826881841575L182.19763330732073,131.4709316700612L182.27719559260777,131.3096119542205L182.67500701904297,97.71337228627881L182.83413158961704,108.50264033388463L182.99325616019112,92.95162379535775L183.0728184454782,87.65539273937962L183.1523807307652,80.05715589842114L183.47062987191336,55.686967021734866L183.62975444248747,62.36187871786123L183.78887901306155,58.91249097930978L183.9480035836356,60.604878605878795L184.18669043949674,65.03214399600148L184.26625272478375,55.45779100440959L184.42537729535783,23.319395858570598L184.5845018659319,12.401278916258951L184.66406415121895,28.48404711269008L184.74362643650602,37.15183370692171L184.82318872179303,42.47731077260436L184.9823132923671,39.433001201284036L185.06187557765415,33.05562765288547L185.1414378629412,24.77690093385932L185.3801247188023,52.01188971804021L186.01662300109865,60.405057296377926L186.33487214224678,58.405573973766835L186.41443442753385,36.93434533583565L186.65312128339494,36.56769285837081L187.1304949951172,36.73988003598381L187.21005728040421,45.59710600181325L187.3691818509783,34.8894113598561L187.7669932774135,16.978304902219477L187.92611784798757,24.54881685143971L188.00568013327464,25.613562149385206L188.32392927442277,36.198464330093145L188.40349155970983,54.689595523619076L188.80130298614503,56.97281113910025L188.9604275567191,65.47056911680514L189.03998984200612,75.49984556091098L189.1991144125802,57.25558656957806L189.91517498016358,59.9595193109629L189.99473726545062,74.78569220724495L190.15386183602467,65.37176836135268L190.31298640659875,64.88394134764718L190.5516732624599,56.87929959577125L190.63123554774694,59.74546998652287L191.3472961153303,67.6638416809781L191.82466982705253,78.89051028027336L192.3816058240618,59.78945084931033L192.69985496520994,75.4803344236108L192.779417250497,47.60502223900057L193.09766639164516,55.77544809927213L193.8137269592285,65.43883382825945L194.13197610037668,75.27704902158723L194.21153838566372,69.80722093735456L194.29110067095075,80.49753122225704L194.68891209738595,80.03299013294783L195.1662858091082,69.608742813178L195.4049726649693,82.17783736916901L195.48453495025635,65.03953609859732L195.5640972355434,31.22459158599991L195.8027840914045,33.85912131577691L195.96190866197858,50.30039216902067L196.12103323255266,56.02354557093053L196.20059551783973,60.33679345319266L196.28015780312674,63.21628706828595L196.5984069442749,77.97017254570565L196.75753151484898,77.88903440804954L196.9962183707101,69.81904121828187L197.07578065599714,75.38604018795296L197.15534294128418,80.31517710170621L197.47359208243236,85.0897402198706L197.95096579415457,92.41204842886961L198.50790179116385,68.43505709731477L198.5874640764509,100.20404199647727L198.66702636173792,83.38980664004609L199.06483778817312,70.64725330568754L199.1444000734602,80.91525946352044L199.30352464403427,79.15557509981751L199.94002292633056,93.96923732522457L200.09914749690464,109.62996826510634L200.25827206747874,111.5533852311113L200.33783435276575,55.80891431199133L200.5765212086269,63.51167491703453L201.13345720563618,80.59241310818658L201.3721440614973,80.075831100947L201.53126863207137,101.07743798777642L201.69039320264545,110.1897487643353L202.08820462908065,109.55164554368925L202.48601605551582,79.96944850233574L202.5655783408029,89.24363098067388L202.64514062608993,79.54104734254634L202.96338976723808,91.98604982986892L203.0429520525251,55.03718970064455L203.52032576424736,84.76908280782557L203.67945033482144,83.9759862782624L203.8385749053955,79.27175689471294L204.07726176125664,78.94080758100573L204.15682404654365,81.78890937693266L204.23638633183072,96.62413178869046L204.31594861711775,115.39527242503172L204.55463547297884,94.86210247761885L204.71376004355292,93.25256901060712L205.11157146998812,91.20021332631767L205.35025832584927,96.0015023278595L205.50938289642335,101.90374861838355L205.82763203757148,100.7942025258992L205.90719432285854,78.58176424181686L206.30500574929374,69.7713434490786L206.6232548904419,90.23434319739467L206.86194174630302,111.64165939669469L206.94150403159003,79.72172454343999L207.1006286021641,96.89984864030946L207.4188777433123,99.96550126452979L207.49844002859933,73.33129133553872L207.65756459917338,94.71742824869219L207.73712688446045,61.310918903982156L208.21450059618266,53.626007911131296L208.29406288146973,62.27077931930046L208.4531874520438,58.33550443065842L208.61231202261789,84.43148753372336L208.850998878479,94.8512583843361L208.93056116376604,84.80479304412695L209.08968573434012,95.99427055415708L209.32837259020124,112.2104186686757L209.6466217313494,106.39712199452762L209.80574630192348,124.24177107366475L209.88530858721052,104.15796969411991L210.04443315778462,108.4966615633043L210.12399544307164,96.09092206427316L210.6809314400809,74.56805041003486L210.840056010655,106.21797811542358L211.0787428665161,92.79494345740726L211.2378674370902,77.5285012142481L211.31742972237726,100.13634214101549L211.39699200766427,112.51261822158227L211.87436571938653,118.23482805478584L212.6699885722569,126.28498179390527L212.82911314283098,116.18915948190416L213.22692456926617,95.01108044706146L213.38604913984025,92.73274402121251L213.70429828098844,76.88236556934365L213.78386056627545,78.17334031640824L213.86342285156252,73.50301486087014L214.02254742213657,67.6282335212649L214.18167199271065,75.8730217657312L214.26123427799772,76.46935672327274L214.57948341914584,20.987077028998378L215.05685713086808,66.65757825631111L215.2159817014422,72.6131142254463L215.37510627201627,81.96576801596636L215.69335541316443,91.80150059526194L216.40941598074775,112.46400904939554L216.48897826603482,92.01369332150675L216.56854055132183,71.25663395723286L216.88678969247,82.99498858933134L217.2846011189052,95.16337892992962L217.36416340419225,99.0362870526874L217.44372568947927,106.66047965663864L217.76197483062745,115.16279406618253L217.84153711591446,91.11137152500898L218.0802239717756,90.54257360140831L218.2393485423497,106.4322068302006L218.4780353982108,112.87690953983738L218.875846824646,103.72721038957083L219.03497139522008,97.69346528027972L219.19409596579416,89.3899545540443L219.2736582510812,105.23373479577587L219.67146967751637,119.43668569505913L219.83059424809048,118.1880462364131L220.22840567452565,104.53550884616351L220.4670925303868,124.6154722419555L220.62621710096087,105.20494857043612L220.78534167153492,123.44825179677761L221.18315309797015,109.48104569529943L221.42183995383127,94.88531640151194L221.58096452440535,95.19817777099993L221.74008909497942,105.94472345654638L221.81965138026646,107.93975459607833L222.05833823612755,139.32220916145806L222.13790052141462,152.85439576160934L222.21746280670166,105.4737690352733L222.45614966256278,124.02210581520804L222.53571194784982,121.83772735566724L222.61527423313683,103.2131430543229L223.25177251543317,106.84873697020481L223.3313348007202,109.42842554289184L223.41089708600725,105.43484095351236L223.57002165658133,77.48702093601437L223.64958394186837,85.52290146234637L223.96783308301653,86.45879176291965L224.1269576535906,119.32295837271751L224.84301822117396,108.45706356964624L225.24082964760916,110.74811340100577L225.3203919328962,121.31793216641258L225.39995421818324,105.32171609886231L225.55907878875735,129.42199730301877L225.95689021519252,135.70200342863492L226.03645250047956,126.39659653303755L226.11601478576662,135.89544296095545L226.19557707105363,92.02865238694466L226.3547016416277,92.42452329815588L226.5138262122018,119.75424401448241L226.83207535334998,68.41517773791219L227.1503244944981,56.58677920459359L227.22988677978515,39.39860055681042L227.38901135035925,51.27816018135781L227.62769820622034,59.938961433361996L227.78682277679442,61.23757243937264L228.3437587738037,32.60545952826331L228.7415702002389,55.776595764561826L228.98025705610002,46.54104730110631L229.37806848253524,74.20273979197283L229.61675533839636,84.25954916304127L229.69631762368337,100.14590690887046L229.77587990897044,116.65940078108513L230.0941290501186,112.47599761948156L230.41237819126673,135.33396056648556L230.5715027618408,44.72942100370817L231.20800104413715,103.39268814663824L231.28756332942416,45.62836986899316L231.36712561471123,111.03122443578835L231.68537475585936,71.58357500759402L232.00362389700754,50.76507266794198L232.3218730381557,40.21185234687765L232.4014353234427,30.853518763274774L232.7196844645909,33.3451023597798L232.7992467498779,32.76013070631485L232.87880903516498,36.9250967635371L232.958371320452,46.101799959991034L233.27662046160017,76.48188345688877L233.51530731746126,75.32154843065138L233.7539941733224,75.58858201444313L233.91311874389646,71.03572248432538L234.07224331447054,105.37049280603699L234.39049245561873,78.46726426667722L234.78830388205392,75.27901188258244L234.86786616734096,80.33919254349992L234.947428452628,71.40231258405944L235.10655302320208,40.32343410758898L235.1861153084891,52.555005661916006L235.3452398790632,59.63427405603724L235.50436444963728,46.295981021969936L235.58392673492432,33.00921825596307L235.66348902021136,20.644970645395443L236.29998730250767,28.99113364222831L236.45911187308172,24.99066176703695L236.69779872894287,39.99796796996211L236.7773610142299,22.64154124002499L236.85692329951695,42.89309397911516L236.936485584804,27.23104119593367L237.09561015537807,34.70532302773904L237.25473472595215,29.104340746849832L237.49342158181327,100.39306643170359L237.5729838671003,127.19062591985313L237.89123300824846,171.61851870660857L237.9707952935355,85.856840288271L238.05035757882254,80.52781665440729L238.2890444346837,34.079664961088284L238.92554271697998,31.496068547221153L240.3576638521467,46.65513232582867L240.43722613743373,46.315496581554505L240.83503756386895,51.62353243626909L240.91459984915596,74.78807442562395L241.07372441973007,52.22130804039904L241.23284899030415,47.26199525076487L241.31241127559116,53.76460361948938L241.55109813145228,51.36787371908682L241.86934727260044,81.54391039231379L241.9489095578875,79.66215059733386L242.10803412846155,73.26789095774765L242.26715869903563,67.05358298853511L242.3467209843227,63.33422383384627L242.74453241075787,83.6581162921059L242.8240946960449,69.5957994904952L243.06278155190606,84.62374886790408L243.14234383719307,55.725887314257726L243.46059297834125,76.71631397049019L243.54015526362826,58.54208671694062L243.61971754891533,52.42608417604885L244.09709126063754,61.98074494304659L244.25621583121162,62.39366237311064L244.3357781164987,84.1292547254596L244.4153404017857,98.56577181112382L245.44965011051724,114.2006539540435L245.52921239580425,105.00665527575613L245.68833696637836,118.38857099525745L246.08614839281353,135.7895060728723L246.48395981924872,131.4573790117694L246.6430843898228,131.74515856437247L247.12045810154507,135.9976642272908L247.27958267211915,145.42058223317105L247.43870724269323,130.50862976782324L247.5978318132673,149.85246965360204L247.67739409855434,133.60039605886064L247.83651866912842,145.6733852174304L248.23433009556362,162.4968095326989L248.31389238085066,109.34521541684393L248.3934546661377,80.25363829930541L248.4730169514247,41.884657737980426L248.71170380728586,31.041106251782644L248.7912660925729,0.9067032274894422L249.029952948434,-0.5696572875087466L249.1890775190081,-7.329326932610656L249.26863980429513,11.48916130586784L249.58688894544326,5.111331842783563L249.66645123073033,14.302266916433046L250.06426265716553,8.91191087278752L250.2233872277396,38.825431019153356L250.6211986541748,37.291271445115804L250.70076093946184,20.04983140025646L250.85988551003595,50.77245416967613L251.01901008061,55.650406278784935L251.09857236589704,60.83194336007697L251.25769693647112,66.75660419289206L251.4168215070452,60.06596985914049L251.8146329334804,50.15222024221907L252.05331978934151,40.77859605853134L252.2124443599156,43.347447251054206L252.29200664520263,29.781808153487276L252.6102557863508,93.24210466689946L253.008067212786,61.11908856648716L253.56500320979526,85.73191560113543L253.6445654950823,98.9308406244323L254.0423769215175,17.234303537406376L254.20150149209158,-13.962497024601282L254.59931291852678,4.656401418301008L254.67887520381382,81.9904306214293L254.75843748910086,126.65213317215833L254.8379997743879,153.59172314840026L255.55406034197125,172.24854965508996L255.95187176840645,155.38931894686297L256.19055862426757,158.22988710628704L256.27012090955463,168.11695379646997L256.98618147713796,171.23232440404692L257.14530604771204,86.57326182598668L257.3839929035732,55.634916479832L257.54311747414727,49.76484519181688L258.0204911858695,79.61791632434014L258.57742718287875,94.7094594357592L258.73655175345283,115.54205234349875L258.8161140387399,136.73573893160776L258.975238609314,130.16693235947773L259.21392546517507,114.33134645867979L259.5321746063233,122.4743030881082L259.77086146218437,132.06917059687024L259.8504237474714,110.51025393749606L260.00954831804546,134.63432234107256L260.16867288861954,159.54315465523874L260.2482351739066,145.65645719810155L260.72560888562884,161.15200889726364L260.8051711709159,149.01887784044914L260.96429574148993,130.47969177274103L261.123420312064,143.3569640409252L261.36210716792516,132.00430704098113L261.91904316493446,155.03750258194125L262.23729230608257,158.52796896184717L262.31685459136963,168.7706258510944L262.5555414472307,163.39997083357298" fill="none"></path></g></g></g></g><g opacity="0.2"><g><g><g><path style="fill: none;" stroke="rgb(255, 112, 67)" stroke-width="2px" d="M40.17895406995501,171.31200290766355L40.25851635524205,163.5359727109808L40.81545235225133,27.780284809546455L41.213263778686525,177.4380217342532L41.3723883492606,177.4380217342532L41.61107520512172,172.25162216413568L41.7701997756958,51.94680960174566L41.84976206098284,-1.7199291824830134L42.565822628566195,201.29778736642524L43.12275862557547,168.5848124365857L43.44100776672363,79.20881961571042L43.52057005201067,192.6926875913617L43.600132337297715,73.4010566444934L43.83881919315883,120.09874843360375L44.55487976074219,31.70447444826275L44.63444204602923,-160.71929648662388L44.71400433131626,49.96014295196678L44.952691187177386,-44.743366662631175L45.191378043038505,48.36766217620483L45.50962718418666,211.07315884832923L45.82787632533482,146.1815461753928L45.90743861062187,133.7976027901659L45.9870008959089,153.75073009106504L46.14612546648298,192.01627904953543L46.30525003705706,175.37040704101733L46.3848123223441,99.14437205036421L46.54393689291818,83.13878116090139L46.623499178205215,99.03720306035089L46.7826237487793,88.34171900997899L46.94174831935337,84.43248921049295L47.498684316362656,198.19448062241645L47.737371172223774,108.8813426851102L47.81693345751081,263.7228994911223L47.97605802808489,-19.416806463033353L48.29430716923305,71.90062010790098L48.69211859566825,193.45195243960188L48.771680880955294,97.70118340247973L49.72642830439976,113.46953715643274L49.8059905896868,113.15130485986204L50.12423973083496,103.67823992441903L50.36292658669608,100.64252338316872L50.52205115727016,64.58026425829182L50.681175727844234,212.23070880212344L51.3972362954276,43.32584297357728L51.87461000714983,66.77342380705218L52.27242143358503,134.44664778354186L52.35198371887207,65.81743118323355L52.59067057473319,51.23467413678128L52.74979514530727,-12.637902558351938L52.908919715881346,155.73692556480515L53.38629342760359,111.98608651603716L53.46585571289063,173.51866164993407L54.18191628047398,56.31545959781335L54.341040851048064,100.22777067506043L54.500165421622135,97.95592472782907L54.738852277483254,104.8504316736174L55.454912845066616,96.32127369659914L55.693599700927734,100.45756322915804L55.773161986214774,66.53658717117528L55.93228655678885,106.68158667180734L56.17097341264997,215.8641239279271L56.72790940965925,155.70387256568696L56.88703398023333,102.57015167529244L56.966596265520366,80.93033194968362L57.28484540666852,116.9042926848991L57.36440769195556,99.2601400030847L57.44396997724261,80.65815711090059L57.52353226252965,123.79580766284137L57.76221911839077,160.684156177654L57.84178140367781,55.98525942985846L58.160030544825965,161.1543898643249L58.239592830113,105.78842537275582L58.319155115400044,144.78198842869642L58.71696654183524,89.6778329030579L58.87609111240932,101.41826761336415L58.95565339769636,118.61784214381744L59.27390253884452,142.98664280945135L59.671713965279714,198.38504777128824L59.751276250566754,156.10062634911506L59.91040082114083,60.20318021113052L60.06952539171491,111.886385666238L60.14908767700195,255.9359262309396L60.22864996228899,42.53334843520435L60.46733681815011,88.07258325664587L60.626461388724195,171.66825911056125L60.86514824458531,188.98350735852728L61.024272815159385,115.01692638528645L61.26295967102051,71.59609903405787L61.34252195630754,152.8013339317889L61.6607710974557,109.89583181413946L61.74033338274275,98.57801845178862L61.81989566802979,152.2272059285739L61.899457953316826,80.03660523938561L62.138144809177945,143.00605526224777L62.217707094464984,204.9544668091421L62.61551852090018,17.798868045897798L63.2520168031965,208.97967659056607L63.649828229631694,-23.924264920116315L63.80895280020578,149.51605900161545L63.88851508549281,113.58309058177109L64.12720194135393,32.72367533767948L64.20676422664097,74.91650013791998L64.28632651192801,99.41642909513757L64.44545108250209,108.51375469848062L64.92282479422433,-48.19539079291769L65.00238707951137,8.405549655012983L65.0819493647984,238.6301132831495L65.71844764709472,200.62353445497624L65.8775722176688,99.1955417681723L66.67319507053921,102.97314854123395L66.83231964111327,77.84339857302135L67.0710064969744,-17.54859346939581L68.02575392041888,210.1232679542124L68.18487849099296,6.652704114463014L68.42356534685408,128.7632517277525L68.50312763214112,119.00745761025853L68.6622522027152,44.170614493449335L69.21918819972447,148.95029437308827L69.29875048501151,84.99983227874993L69.37831277029855,107.17580321885059L69.45787505558559,224.35664796793267L70.25349790845598,147.36325568057387L70.49218476431712,182.49334013039092L70.8899961907523,219.6712027622125L71.2878076171875,172.01028579708873L71.44693218776158,173.5396289836584L71.60605675833565,42.45228259773769L71.84474361419677,87.03076591736924L72.08343047005789,216.7015451015947L72.56080418178013,182.91723365365092L72.64036646706717,126.10473516432222L72.79949103764126,100.91448619273433L72.8790533229283,147.33295906128237L73.35642703465052,132.23892889518416L73.43598931993758,153.1110850596621L73.6746761757987,77.22059808500369L73.99292531694685,234.15921808667343L74.07248760223389,87.34343833668268L74.15204988752093,145.8761298670761L74.23161217280797,131.50834688830278L74.62942359924317,81.52677013833332L74.86811045510429,134.01420241517854L74.94767274039131,11.896563602505914L75.02723502567835,233.4503690745793L75.42504645211356,128.4249237731292L75.82285787854876,-22.652325203514945L75.98198244912284,44.91895983699152L76.06154473440988,162.20638460603854L76.14110701969692,78.92269796618044L76.22066930498394,-4.105611260676025L76.37979387555804,132.43352459918728L77.01629215785435,180.19099731405157L77.33454129900251,91.24614234803205L77.41410358428956,173.46417014105282L78.20972643715994,218.18208622995098L78.60753786359516,101.65239498701824L78.76666243416922,50.97293584725654L78.84622471945626,210.046619392109L78.9257870047433,60.274516263397025L79.00534929003034,163.58028681742508L79.32359843117851,118.34870639048432L79.72140985761371,-6.820716066359949L79.80097214290075,143.25243321290932L80.03965899876185,78.14261891642853L80.43747042519706,-44.69982999665085L80.5170327104841,39.39760122092775L80.83528185163225,105.95800162910139L80.9148441369193,86.92783751170462L80.99440642220634,25.647647822963314L81.15353099278042,84.95891063978463L81.39221784864152,24.174374585004735L81.7104669897897,95.13242587443104L81.79002927507673,53.12811860729378L82.10827841622489,182.77899060388214L82.18784070151193,33.0231077103041L82.58565212794713,19.80874011558503L82.7447766985212,141.96098680830377L83.1425881249564,-73.34026551197414L83.22215041024344,159.5477502485986L83.30171269553048,130.40779745579616L83.5403995513916,134.3826385186779L83.61996183667864,118.62149375811774L83.69952412196568,44.119279864027696L83.9382109778268,139.7234424766933L84.01777326311384,143.95745391968862L84.09733554840088,84.92957993137254L84.17689783368792,146.21638964345826L84.57470926012311,77.64844948698918L84.7338338306972,113.21576174196282L84.81339611598423,143.89968773733804L84.89295840127129,178.48688315530913L84.97252068655833,114.74913348366378L85.21120754241943,81.66143225020762L85.37033211299351,105.95830789352657L85.60901896885464,212.54299250120494L85.68858125414167,35.787733117660515L86.08639268057688,59.690352210556725L86.16595496586392,158.60094555753554L86.40464182172502,73.4238380059669L86.5637663922991,35.417530104015874L86.9615778187343,118.10374196793904L87.12070238930838,66.89920425059607L87.35938924516951,-31.485556637139496L87.51851381574357,-35.79884344865427L87.59807610103061,53.304409122191515L87.67763838631765,42.69463199326795L87.7572006716047,56.07657334616789L87.91632524217879,3.426231953925396L87.99588752746583,194.22062902921607L88.15501209803989,115.88808376332842L88.31413666861397,50.49853225264267L88.39369895390102,251.21239822188758L88.71194809504918,201.70636766842594L88.9506349509103,82.70777287945626L89.3484463773455,55.86105742604437L89.66669551849365,66.90827438934198L89.7462578037807,-12.071619636182135L89.90538237435477,42.8549496404521L90.14406923021589,-23.449036767434674L90.46231837136405,66.03129798722146L90.54188065665109,67.4574536213052L90.70100522722517,114.3028590985632L90.7805675125122,87.46665087081539L90.86012979779925,88.24244221861468L90.93969208308629,172.71153709555801L91.25794122423446,184.03094067703964L91.33750350952148,166.47587560475162L91.49662808009556,45.6265013355781L91.5761903653826,90.33917559104519L91.89443950653077,-27.751957706096956L92.53093778882707,134.31676810846085L92.84918692997523,78.62981494049441L92.92874921526229,33.382897733492406L93.16743607112339,-53.65693361086235L93.24699835641043,26.27492448334911L93.32656064169747,93.31597156865003L93.48568521227155,150.8563428026373L93.5652474975586,123.19934591538974L93.72437206813268,122.81656250151052L93.88349663870675,19.64750367512533L93.96305892399378,105.14911016458002L94.12218349456788,-15.865222835759324L94.28130806514196,155.69901945248785L94.51999492100306,111.6004996047274L94.7586817768642,96.78623021163607L95.07693091801234,90.05642285019225L95.15649320329938,58.0877411499617L95.71342920030865,84.55280401198736L95.87255377088275,113.21877726861081L95.95211605616979,54.16046530819159L96.34992748260497,145.59766482817577L96.66817662375314,79.39545244465867L96.82730119432722,140.74365639459333L97.14555033547538,148.85264313905768L97.54336176191059,91.44250496218046L97.94117318834577,153.40776105246005L98.02073547363281,84.45529413076838L98.10029775891987,84.39856453570306L98.33898461478097,189.34124776594703L98.49810918535505,206.72182457168552L98.65723375592913,93.75981939715105L98.73679604121618,161.89849462351836L98.89592061179025,70.56509518487049L99.13460746765136,62.634495688676296L99.2141697529384,80.23972922969006L99.29373203822546,72.70343340152247L99.45285660879952,86.37776304526778L99.6119811793736,188.55418353142068L99.85066803523473,185.4336670825966L100.00979260580881,142.7678522158585L100.32804174695696,28.80542251705141L100.48716631753105,117.8362788895435L100.80541545867919,168.8821480758379L100.88497774396623,109.91152197622978L101.12366459982736,149.82694095198167L101.28278917040144,103.50051232260313L101.52147602626255,204.86421303891984L101.68060059683664,147.47881160407692L101.83972516741072,68.67395947694786L102.07841202327182,117.72934548754954L102.31709887913296,144.75185672101847L102.39666116442,157.61161722897546L102.7944725908552,124.27280272566833L103.19228401729038,26.38739420379835L103.51053315843855,50.74846758239678L103.59009544372559,71.34849602569557L103.66965772901263,21.13912921979317L103.82878229958669,-66.9730752299511L103.90834458487375,72.89461307924466L103.98790687016078,-16.09004448264811L104.38571829659598,97.8181999717029L104.6244051524571,81.41302824257946L104.70396743774414,155.29800152590906L104.78352972303118,93.4985287248631L104.86309200831822,2.639603557234893L105.02221657889231,137.22849467511455L105.26090343475342,109.76906190091418L105.49959029061453,62.879813493250666L106.2156508581979,50.80392500215748L106.45433771405901,12.223724685010886L107.01127371106828,131.6556129592136L107.09083599635532,92.0931048364843L107.17039828164236,31.091686451068483L107.48864742279054,50.57955097250546L107.6477719933646,123.0725288845606L107.80689656393868,109.77829695127366L107.88645884922573,122.82198102595612L108.20470799037388,110.86452263220235L108.68208170209613,178.78108547390366L108.84120627267019,123.58300100494066L109.07989312853132,147.64855277203606L109.15945541381836,-9.79567445741368L109.39814226967948,104.20336561960418L109.6368291255406,64.35761002118123L109.79595369611468,209.75275867614255L109.95507826668876,-88.45351966045324L110.35288969312396,78.0288299030708L110.432451978411,22.652711567866675L110.67113883427211,98.94727911335576L110.98938797542027,181.3740378915421L111.14851254599435,120.36496289549662L111.46676168714251,180.02334110006387L111.54632397242955,202.9005397798319L111.78501082829067,23.664986169513796L111.94413539886476,160.54318030686045L112.02369768415178,235.25652818391364L112.2623845400129,136.67618212249363L112.34194682529994,146.23500109698884L112.58063368116107,25.928610094869L112.6601959664481,18.696340605703874L112.73975825173514,80.82141960832692L113.21713196345739,73.31812966167368L113.61494338989257,141.25116010592924L113.77406796046667,119.17090857810034L113.85363024575369,112.0208593076968L114.96750223977226,229.24081166799502L115.20618909563336,-21.639061132186427L115.76312509264264,98.09058683970335L115.84268737792968,-19.309967296247123L115.92224966321672,69.18765915319334L116.24049880436489,26.60729206108224L116.32006108965193,52.78964929985885L116.63831023080009,13.85990703836673L116.95655937194823,-38.84494942155898L117.03612165723527,61.238471762270514L117.19524622780936,48.41902036442843L117.35437079838344,-7.74431533751462L117.43393308367048,33.778921194060466L117.51349536895752,7.925916006369023L117.59305765424455,96.402645798491L118.22955593654086,55.55884511479111L118.54780507768903,106.22355644454L118.70692964826311,-26.10863703575403L118.94561650412423,-14.706742309288556L119.34342793055943,106.6897380172777L119.82080164228167,155.8076019706174L119.9003639275687,96.91250539002066L119.97992621285576,184.49755808761316L120.13905078342982,98.03541212556591L120.37773763929094,47.19575313262974L121.17336049216135,98.1601088642207L121.33248506273543,114.28061958953427L121.4916096333095,62.08366734057744L121.73029648917063,149.3292377022517L121.96898334503175,84.86561778411244L122.12810791560581,21.695870827178297L122.20767020089285,147.37908719547582L122.60548162732806,211.26127588179952L122.68504391261509,6.981396519093914L122.92373076847622,-7.213488412260631L123.00329305376326,-25.633691588695612L123.0828553390503,31.858596130537364L123.3215421949114,85.94901640880865L123.40110448019844,79.94427829459283L123.71935362134661,86.92088766513308L123.87847819192068,92.82910536781128L124.35585190364293,126.61506593189067L124.514976474217,-142.04267930990198L124.75366333007813,-14.097605926394564L125.07191247122628,80.92990789124875L125.39016161237444,139.31095141357096L125.54928618294852,26.548277262229007L125.86753532409668,52.03529646182261L125.94709760938372,139.3555482256385L126.34490903581893,23.665198198731233L126.504033606393,122.50985045908722L127.45878102983748,38.14427295785693L127.77703017098563,115.36814100456952L127.85659245627267,148.74231726958473L127.9361547415597,41.74269148338255L128.17484159742082,120.24299897786659L128.3339661679949,10.446118843624681L128.57265302385602,152.43694994222278L128.89090216500418,45.97908236537355L129.05002673557826,131.08949494865738L129.1295890208653,149.43259016635116L129.44783816201345,80.65669646518046L129.5274004473005,105.35199856686508L129.76608730316164,19.933036354606863L130.08433644430977,7.681846818297318L130.1638987295968,168.18115592418994L130.32302330017092,-62.560605862279786L130.48214787074497,7.1652022918096785L130.72083472660609,14.228319583064136L131.11864615304128,-14.174690326333815L131.27777072361536,-9.667137634043112L131.43689529418944,46.30659682990759L131.6755821500506,-9.658892053364992L132.07339357648578,21.73448370355373L132.15295586177282,119.03379635082456L132.3120804323469,20.03900384572139L132.47120500292095,73.53722651969171L132.550767288208,82.08157992395961L132.63032957349506,129.64025168867497L132.86901642935618,83.98376470999088L133.26682785579138,-111.03199273165474L133.42595242636546,-16.884329489968295L133.5055147116525,67.38705992111619L133.82376385280065,116.58464686021216L134.22157527923582,217.92568400906504L134.85807356153214,178.74509940394424L134.9376358468192,43.8272920728153L135.3354472732544,-1.863449403885807L135.49457184382848,67.26332909334087L135.65369641440256,170.00946030734545L135.81282098497664,29.725912026350358L136.05150784083776,51.88758277367499L136.1310701261248,66.188458754946L136.44931926727295,97.02000420326111L136.9266929789952,21.768314143135875L137.08581754956927,160.08595107885898L137.24494212014335,78.2787652328249L137.40406669071743,183.06838692688143L137.48362897600447,156.2300112893554L137.88144040243967,81.98496527721423L138.27925182887486,33.896997909370825L138.51793868473598,6.912463464625021L138.67706325531006,62.013768375229105L138.83618782588414,120.72880503261815L138.91575011117118,122.74025554203519L139.07487468174526,183.44913250439308L139.23399925231934,20.708050261942216L139.47268610818045,42.25377613261296L139.63181067875453,50.957881772818524L139.71137296404157,27.6689459115902L139.7909352493286,51.81023922691443L139.87049753461568,119.85625768526188L140.42743353162496,94.04240722639042L140.586558102199,123.45274438902864L140.82524495806013,110.182118375283L140.90480724334716,127.74518166082878L140.98436952863423,-34.60629689458196L141.46174324035644,152.87990253625017L141.85955466679164,165.05909637383897L142.09824152265276,-89.00668032994392L142.1778038079398,171.41888919205363L142.81430209023614,55.158251246647204L142.89386437552315,40.456663603222594L142.97342666081022,21.212373535016603L143.05298894609723,91.18851751849311L143.2121135166713,57.84614563609343L143.6099249431065,12.212015960447973L143.76904951368059,201.1884274078317L143.84861179896762,87.6477709401103L144.48511008126397,31.257257711084684L144.56467236655098,-11.688930457510677L144.88292150769914,25.254828359458763L145.04204607827324,113.67631276103748L145.20117064884732,75.04086705334763L145.28073293413433,34.59532791639988L145.4398575047084,1.2936892025499998L145.7581066458566,-8.100406628798737L145.9967935017177,-30.70453523531009L146.1559180722918,14.599229360766893L146.2354803575788,61.036572829666795L146.3946049281529,49.57420265862795L146.47416721343996,-3.4747301035937848L146.55372949872697,114.52511283604083L146.63329178401403,-48.124902857520894L146.95154092516216,122.66724681483115L147.03110321044923,-55.041767106347876L147.42891463688443,178.15096997788442L147.7471637780326,67.8332165122071L147.8267260633196,26.906323934073946L147.9858506338937,20.906839432690184L148.38366206032887,183.94034530418926L149.02016034262522,112.95689762627444L149.25884719848634,50.966362941515996L149.41797176906041,127.68536586270965L149.5770963396345,105.25090774775163L149.65665862492153,90.6095128432771L149.9749077660697,143.81087105403398L150.13403233664377,145.14057695298592L150.3727191925049,153.29432542113136L150.45228147779193,150.4961051622122L150.61140604836598,107.14510609992612L151.16834204537525,156.6572972800944L151.32746661594936,189.0080085125422L151.4070289012364,34.769474580321294L151.72527804238456,130.36883119739164L151.8048403276716,130.0960673885602L152.04352718353272,134.4154323709748L152.12308946881976,157.5384200313559L152.2026517541068,210.47383470644218L152.36177632468087,32.34861921083573L152.4413386099679,110.52023430068887L152.600463180542,-15.916510347577072L152.75958775111607,9.24207559420694L152.8391500364031,44.52979198778726L153.15739917755127,237.9030768759597L153.3960860334124,54.606268517253426L153.71433517456055,169.0087530774496L153.79389745984759,71.27011589164975L154.0325843157087,14.994546057276835L154.19170888628278,125.43583010091304L154.35083345685686,78.61278192669367L154.4303957421439,132.9908316178189L154.50995802743094,109.66085632361562L155.2260185950143,96.80526572360151L155.3851431655884,38.27556616105417L155.6238300214495,36.73310072180537L155.78295459202357,78.61233430945686L155.94207916259768,41.10509606774818L156.49901515960696,150.86807508600214L156.57857744489397,52.07447474944455L156.8172643007551,-27.25317075147784L156.89682658604212,54.66973592967283L156.97638887132916,81.06845720544271L157.3742002977644,97.1791439103484L157.61288715362548,116.18890610526735L157.7720117241996,87.72810645471691L158.01069858006068,124.38687444464932L158.09026086534772,112.90890834672791L158.16982315063476,74.3613134114627L158.48807229178294,123.99900232955164L158.56763457706995,54.947965380553775L158.72675914764403,78.68282224485361L158.88588371821814,135.35856188893558L158.96544600350515,97.7891284101121L159.2836951446533,146.86762560541442L159.36325742994035,128.91951726100342L159.6815065710885,128.4890743908048L159.76106885637557,65.4448251717913L159.92019342694965,95.12787902565712L160.0793179975237,129.35330548107717L160.47712942395893,80.16351650542248L160.55669170924597,123.26799626423536L160.71581627982005,82.96958184538683L160.95450313568114,136.08473839985467L161.5114391326904,86.12389339559013L161.6705637032645,85.70106001841728L161.98881284441268,94.27922030346538L162.0683751296997,129.63198254919493L162.38662427084788,132.06855163957275L162.4661865561349,83.14151398192614L162.94356026785715,119.84615095923073L163.18224712371824,199.62745652966106L163.2618094090053,81.96722549935535L163.34137169429232,64.84270931187467L163.50049626486643,135.57688130648967L163.58005855015347,140.6047065807664L163.6596208354405,152.08531126450484L163.73918312072752,107.15361082742554L164.0574322618757,-22.572884923381974L164.13699454716274,132.22924622758788L164.2961191177368,106.88028160734757L164.37568140302386,84.07757585930568L164.53480597359794,43.87989887754156L164.77349282945906,15.771421109965246L164.8530551147461,56.305140842564754L165.17130425589426,115.0610284625133L165.2508665411813,15.56240741917644L165.8873648234776,51.812335960286866L166.2851762499128,0.5623533140066292L166.76254996163505,27.137553575089726L166.84211224692206,21.489731310225864L166.92167453220912,87.30527307754406L167.31948595864432,40.34306306028034L167.63773509979248,61.57486789513494L168.11510881151474,19.499271693335057L168.43335795266287,89.03048414342143L168.75160709381103,39.70092079587204L168.9107316643851,45.30153122165332L169.0698562349592,27.270260306403223L169.3085430908203,-19.898913785880747L169.7063545172555,71.38508284510436L170.1041659436907,106.51347106118192L170.66110194069998,14.451185849392141L171.13847565242222,64.24115886320456L171.2976002229963,182.55485216224952L171.4567247935704,130.29014479892066L171.61584936414448,49.740951858741006L171.6954116494315,53.332043596864104L171.9340985052926,124.56356545918L172.65015907287597,20.230065729433875L173.5253442110334,70.97940027574198L173.60490649632047,133.64213825618086L173.84359335218159,189.47766500856568L173.9231556374686,19.309010808888445L174.24140477861675,113.76765023614887L174.32096706390382,50.17782628186856L174.48009163447787,79.38831412767163L174.8779030609131,111.8959505398246L175.11658991677422,103.04735876733683L175.5144013432094,206.51430686481976L175.59396362849645,166.85135579003023L175.6735259137835,93.30433352049295L175.83265048435757,116.2930595686327L175.91221276964458,98.16877850333366L176.31002419607978,177.60849322507238L176.38958648136685,150.53610800790193L176.62827333722794,101.10396963671701L176.707835622515,100.89865467783237L177.1056470489502,-37.81689042261375L177.5830207606724,130.61723520501982L177.66258304595948,55.503623283049805L178.06039447239468,191.40841484194607L178.37864361354283,25.281732511271283L178.77645503997803,160.97334047143582L179.41295332227432,65.78960823814546L180.68594988686698,39.29775901831695L180.76551217215402,73.02241957975518L181.16332359858922,93.0161622551944L182.19763330732073,207.43492594752934L182.27719559260777,131.06763238045946L182.67500701904297,47.31901278436634L182.83413158961704,124.68654240529334L182.99325616019112,69.62509898756737L183.0728184454782,79.71104615541236L183.1523807307652,68.65980063698346L183.47062987191336,19.13168370670548L183.62975444248747,72.3742462620509L183.78887901306155,53.738409371482696L183.9480035836356,63.14346004573234L184.18669043949674,71.67304208118547L184.26625272478375,41.09626151702164L184.42537729535783,-24.888196860187847L184.5845018659319,-3.9758964972085784L184.66406415121895,52.608199407336826L184.74362643650602,50.153513598269136L184.82318872179303,50.465526371128355L184.9823132923671,34.866536844303475L185.06187557765415,23.489567330287763L185.1414378629412,12.358810855320058L185.3801247188023,92.8643728943116L186.01662300109865,72.9948086638845L186.33487214224678,55.40634898985019L186.41443442753385,4.727502378938866L186.65312128339494,36.01771414217363L187.1304949951172,36.9981608024033L187.21005728040421,58.882944950557416L187.3691818509783,18.82786939692049L187.7669932774135,-9.888354784235474L187.92611784798757,35.90458477527012L188.00568013327464,27.210680096303484L188.32392927442277,52.075817601154974L188.40349155970983,82.42629231390794L188.80130298614503,60.397634562322L188.9604275567191,78.21720608336241L189.03998984200612,90.54376022706977L189.1991144125802,29.889198082578623L189.91517498016358,64.0154184230402L189.99473726545062,97.02495155166798L190.15386183602467,51.25088259251424L190.31298640659875,64.15220082708886L190.5516732624599,44.87233696795736L190.63123554774694,64.04472557265035L191.3472961153303,79.541399222661L191.82466982705253,95.73051317921636L192.3816058240618,31.137861702865834L192.69985496520994,99.01665978506146L192.779417250497,5.792053962085135L193.09766639164516,68.0310868896795L193.8137269592285,79.93391242174039L194.13197610037668,90.03437181157882L194.21153838566372,61.6024788110056L194.29110067095075,96.53299664961075L194.68891209738595,79.33617849898411L195.1662858091082,53.97237183352322L195.4049726649693,101.03147920315554L195.48453495025635,39.33208419273978L195.5640972355434,-19.497825182896122L195.8027840914045,37.8109159104424L195.96190866197858,74.96229844888633L196.12103323255266,64.6082756737954L196.20059551783973,66.80666527658589L196.28015780312674,67.53552749092584L196.5984069442749,100.10100076183515L196.75753151484898,77.76732720156541L196.9962183707101,57.71405143363031L197.07578065599714,83.73653864245958L197.15534294128418,87.70888247233597L197.47359208243236,92.25158489711733L197.95096579415457,103.39551074236805L198.50790179116385,32.46957009998246L198.5874640764509,147.857519345221L198.66702636173792,58.16845360539929L199.06483778817312,51.53342330414972L199.1444000734602,96.31726870026978L199.30352464403427,76.51604855426315L199.94002292633056,116.18973066333515L200.09914749690464,133.121064674929L200.25827206747874,114.43851068011888L200.33783435276575,-27.80779206668862L200.5765212086269,75.06581582459935L201.13345720563618,106.21352039491467L201.3721440614973,79.30095809008768L201.53126863207137,132.5798483180206L201.69039320264545,123.85821492917361L202.08820462908065,108.59449071272017L202.48601605551582,35.596152940305416L202.5655783408029,103.15490469818116L202.64514062608993,64.98717188535495L202.96338976723808,110.65355356085274L203.0429520525251,-0.38610049319201745L203.52032576424736,129.36692246859698L203.67945033482144,82.78634148391757L203.8385749053955,72.21541281938879L204.07726176125664,78.44438361044496L204.15682404654365,86.06106207082301L204.23638633183072,118.87696540632714L204.31594861711775,143.55198337954366L204.55463547297884,64.06234755649953L204.71376004355292,90.83826881008947L205.11157146998812,88.12167979988347L205.35025832584927,103.20343583017227L205.50938289642335,110.75711805416964L205.82763203757148,99.12988338717271L205.90719432285854,45.26310681569337L206.30500574929374,56.55571225997117L206.6232548904419,120.92884281986879L206.86194174630302,143.75263369564468L206.94150403159003,31.841822263557923L207.1006286021641,122.66703478561371L207.4188777433123,104.56398020086029L207.49844002859933,33.37997644205218L207.65756459917338,126.79663361842238L207.73712688446045,11.201154886917102L208.21450059618266,42.098641421855056L208.29406288146973,75.23793643155416L208.4531874520438,52.43259209769529L208.61231202261789,123.57546218832067L208.850998878479,110.48091466025532L208.93056116376604,69.73509503381318L209.08968573434012,112.77848681920233L209.32837259020124,136.5346408404536L209.6466217313494,97.67717698330547L209.80574630192348,151.00874469237047L209.88530858721052,74.03226762480273L210.04443315778462,115.00469936708092L210.12399544307164,77.48231281572649L210.6809314400809,42.28374292867738L210.840056010655,153.69286967350672L211.0787428665161,72.6603914703828L211.2378674370902,54.628837849509466L211.31742972237726,134.0481035311665L211.39699200766427,131.07703234243246L211.87436571938653,126.81814280459125L212.6699885722569,138.36021240258438L212.82911314283098,101.0454260139025L213.22692456926617,63.24396189479738L213.38604913984025,89.31523938243905L213.70429828098844,53.106797891540424L213.78386056627545,80.10980243700517L213.86342285156252,66.49752667756304L214.02254742213657,58.816061511857086L214.18167199271065,88.24020413243063L214.26123427799772,77.36385915958513L214.57948341914584,-62.236342512413145L215.05685713086808,135.16333009728018L215.2159817014422,81.54641817914914L215.37510627201627,95.99474870174647L215.69335541316443,106.55509946420534L216.40941598074775,143.4577717305959L216.48897826603482,61.33821972967355L216.56854055132183,40.121044910822086L216.88678969247,100.602520537479L217.2846011189052,113.41596444082703L217.36416340419225,104.8456492368241L217.44372568947927,118.09676856256554L217.76197483062745,127.91626568049831L217.84153711591446,55.034237713248615L218.0802239717756,89.68937671600725L218.2393485423497,130.26665667338904L218.4780353982108,122.54396360429261L218.875846824646,90.00266166417107L219.03497139522008,88.6428476163431L219.19409596579416,76.93468846469112L219.2736582510812,128.9994051583732L219.67146967751637,140.7411120439841L219.83059424809048,116.31508704844417L220.22840567452565,84.05670276078914L220.4670925303868,154.73541733564343L220.62621710096087,76.08916306315706L220.78534167153492,150.8132066362899L221.18315309797015,88.53023654308224L221.42183995383127,72.99172246083072L221.58096452440535,95.6674698252318L221.74008909497942,122.06454198486608L221.81965138026646,110.9323013053763L222.05833823612755,186.39589100952767L222.13790052141462,173.15267566183624L222.21746280670166,34.40282894576921L222.45614966256278,151.8446109851102L222.53571194784982,118.56115966635599L222.61527423313683,75.27626660230634L223.25177251543317,112.30212784402768L223.3313348007202,113.29795840192247L223.41089708600725,99.4444640694431L223.57002165658133,35.565290909767384L223.64958394186837,97.57672225184433L223.96783308301653,87.86262721377958L224.1269576535906,168.61920828741435L224.84301822117396,92.15822136503931L225.24082964760916,114.1846881480451L225.3203919328962,137.17266031452286L225.39995421818324,81.32739199753694L225.55907878875735,165.57241910925345L225.95689021519252,145.12201261705923L226.03645250047956,112.43848618964148L226.11601478576662,150.14371260283224L226.19557707105363,26.228466525928518L226.3547016416277,93.01832966497264L226.5138262122018,160.7488250889722L226.83207535334998,-8.59342167694319L227.1503244944981,38.84418140461578L227.22988677978515,13.616332585135744L227.38901135035925,69.0974996181788L227.62769820622034,72.93016331136822L227.78682277679442,63.185488948388695L228.3437587738037,-10.342709838400607L228.7415702002389,90.53330011900955L228.98025705610002,32.68772460592299L229.37806848253524,115.69527852827255L229.61675533839636,99.34476321964394L229.69631762368337,123.9754435276142L229.77587990897044,141.42964158940717L230.0941290501186,106.20089287707621L230.41237819126673,169.62090498699158L230.5715027618408,-91.1773883404579L231.36712561471123,209.13550628598114L231.68537475585936,12.4121008653025L232.00362389700754,19.537319158464L232.3218730381557,24.38202186528116L232.4014353234427,16.8160183878705L232.7196844645909,37.08247775453734L232.7992467498779,31.88267322611742L232.87880903516498,43.17254584937048L232.958371320452,59.8668547546719L233.27662046160017,122.05200870223536L233.51530731746126,73.5810458912953L233.7539941733224,75.98913239013079L233.91311874389646,64.2064331891488L234.07224331447054,156.87264828860438L234.39049245561873,38.11242145763752L234.78830388205392,70.49663330644033L234.86786616734096,87.92946353487604L234.947428452628,57.996992644898754L235.10655302320208,-6.294883607116701L235.1861153084891,70.90236299340661L235.3452398790632,70.25317664721902L235.50436444963728,26.288541470868935L235.58392673492432,13.079074106952845L235.66348902021136,2.0985992295439373L236.29998730250767,41.51037813747763L236.45911187308172,18.98995395424994L236.69779872894287,62.50892727434982L236.7773610142299,-3.3930988548806194L236.85692329951695,73.2704230877504L236.936485584804,3.7379620211613522L237.09561015537807,45.91674577544713L237.25473472595215,20.70286732551599L237.49342158181327,207.32615495898426L237.5729838671003,167.38696515207752L237.89123300824846,238.26035788674167L237.9707952935355,-42.78567733923535L238.05035757882254,72.53428120361178L238.2890444346837,-35.59256257889018L238.92554271697998,27.620673926420437L240.3576638521467,69.39372799373994L240.43722613743373,45.80604296514319L240.83503756386895,59.585586218341014L240.91459984915596,109.53488740965622L241.07372441973007,18.371158462561638L241.23284899030415,39.823026066313695L241.31241127559116,63.51851617257609L241.55109813145228,47.772778868483016L241.86934727260044,126.80796540215428L241.9489095578875,76.83951090486394L242.10803412846155,63.67650149836844L242.26715869903563,57.73212103471631L242.3467209843227,57.75518510181305L242.74453241075787,114.14395497949528L242.8240946960449,48.50232428807915L243.06278155190606,107.1656729340175L243.14234383719307,12.379094983788166L243.46059297834125,108.20195395483884L243.54015526362826,31.280745836616298L243.61971754891533,43.25208036471121L244.09709126063754,76.31273609354321L244.25621583121162,63.01303851820678L244.3357781164987,116.73264325398304L244.4153404017857,120.22054743962023L245.44965011051724,137.652977168423L245.52921239580425,91.21565725832502L245.68833696637836,138.4614445745095L246.08614839281353,161.89090868929452L246.48395981924872,124.95918842011513L246.6430843898228,132.1768278932771L247.12045810154507,142.37642272166826L247.27958267211915,159.55495924199144L247.43870724269323,108.14070106980155L247.5978318132673,178.86822948227018L247.67739409855434,109.22228566674856L247.83651866912842,163.78286895528495L248.23433009556362,187.73194600560177L248.31389238085066,29.617824243061463L248.3934546661377,36.6162726229977L248.4730169514247,-15.668813104007027L248.71170380728586,14.775779022485937L248.7912660925729,-44.29490130895044L249.1890775190081,-3.71123691624359L249.26863980429513,39.71689366358562L249.58688894544326,-4.455412351842824L249.66645123073033,28.08866952690731L250.06426265716553,0.8263768073193073L250.2233872277396,83.69571123870202L250.6211986541748,34.99003208405943L250.70076093946184,-5.812328667032515L250.85988551003595,96.85638832380573L251.01901008061,62.96733444244817L251.09857236589704,68.60424898201502L251.25769693647112,75.64359544211462L251.4168215070452,50.03001835851318L251.8146329334804,35.281595816836955L252.05331978934151,26.71815978299975L252.2124443599156,47.20072403983855L252.29200664520263,9.433349507136862L252.6102557863508,188.43254943701777L253.008067212786,12.934564415868694L253.56500320979526,122.65115615310786L253.6445654950823,118.72922815937758L254.0423769215175,-105.31050209313257L254.20150149209158,-60.75769786761282L254.59931291852678,32.58474908265451L254.67887520381382,197.9914744261217L255.55406034197125,200.2337894151245L255.95187176840645,130.10047288452247L256.19055862426757,162.4907393454232L256.27012090955463,182.9475538317444L256.98618147713796,175.90538031541232L257.14530604771204,-40.41533204110361L257.3839929035732,9.22739846059993L257.54311747414727,40.95973825979428L258.0204911858695,124.39752302312506L258.57742718287875,117.34677410288774L258.73655175345283,146.7909417051081L258.8161140387399,168.52626881377122L258.975238609314,120.31372250128274L259.21392546517507,90.57796760748289L259.5321746063233,134.68873803225082L259.77086146218437,146.46147186001326L259.8504237474714,78.17187894843481L260.00954831804546,170.82042494643733L260.16867288861954,196.90640312648793L260.2482351739066,124.8264110123958L260.72560888562884,184.3953364460067L260.8051711709159,130.8191812552274L260.96429574148993,102.67091267117878L261.123420312064,162.6728724432014L261.36210716792516,114.97532154106494L261.91904316493446,189.58729589338145L262.23729230608257,163.76366853170597L262.31685459136963,184.13461118496525L262.5555414472307,155.3439883072909" fill="none"></path></g></g></g></g></g></g><g transform="translate(51, 177)" clip-path="url(#clip_1)"><clipPath id="clip_1"><rect width="278" height="22"></rect></clipPath><g><g><line x1="0" y1="0" x2="0" y2="5" style="visibility: inherit;" fill="rgb(0, 0, 0)" stroke="rgb(204, 204, 204)" stroke-width="1px"></line><line x1="39.78114264351981" y1="0" x2="39.78114264351981" y2="5" style="visibility: inherit;" fill="rgb(0, 0, 0)" stroke="rgb(204, 204, 204)" stroke-width="1px"></line><line x1="79.56228528703961" y1="0" x2="79.56228528703961" y2="5" style="visibility: inherit;" fill="rgb(0, 0, 0)" stroke="rgb(204, 204, 204)" stroke-width="1px"></line><line x1="119.34342793055943" y1="0" x2="119.34342793055943" y2="5" style="visibility: inherit;" fill="rgb(0, 0, 0)" stroke="rgb(204, 204, 204)" stroke-width="1px"></line><line x1="159.12457057407923" y1="0" x2="159.12457057407923" y2="5" style="visibility: inherit;" fill="rgb(0, 0, 0)" stroke="rgb(204, 204, 204)" stroke-width="1px"></line><line x1="198.90571321759904" y1="0" x2="198.90571321759904" y2="5" style="visibility: inherit;" fill="rgb(0, 0, 0)" stroke="rgb(204, 204, 204)" stroke-width="1px"></line><line x1="238.68685586111886" y1="0" x2="238.68685586111886" y2="5" style="visibility: inherit;" fill="rgb(0, 0, 0)" stroke="rgb(204, 204, 204)" stroke-width="1px"></line><line x1="278.4679985046387" y1="0" x2="278.4679985046387" y2="5" style="visibility: inherit;" fill="rgb(0, 0, 0)" stroke="rgb(204, 204, 204)" stroke-width="1px"></line></g><g transform="translate(0, 8)"><text style="text-anchor: middle; visibility: hidden; font-family: Roboto, sans-serif; font-size: 12px; font-weight: 200;" x="0" y="0" dx="0em" dy="0.95em" fill="rgb(50, 49, 63)" stroke="none" stroke-width="1px">-500</text><text style="text-anchor: middle; visibility: hidden; font-family: Roboto, sans-serif; font-size: 12px; font-weight: 200;" x="39.78114264351981" y="0" dx="0em" dy="0.95em" fill="rgb(50, 49, 63)" stroke="none" stroke-width="1px">0</text><text style="text-anchor: middle; visibility: hidden; font-family: Roboto, sans-serif; font-size: 12px; font-weight: 200;" x="79.56228528703961" y="0" dx="0em" dy="0.95em" fill="rgb(50, 49, 63)" stroke="none" stroke-width="1px">500</text><text style="text-anchor: middle; visibility: hidden; font-family: Roboto, sans-serif; font-size: 12px; font-weight: 200;" x="119.34342793055943" y="0" dx="0em" dy="0.95em" fill="rgb(50, 49, 63)" stroke="none" stroke-width="1px">1k</text><text style="text-anchor: middle; visibility: hidden; font-family: Roboto, sans-serif; font-size: 12px; font-weight: 200;" x="159.12457057407923" y="0" dx="0em" dy="0.95em" fill="rgb(50, 49, 63)" stroke="none" stroke-width="1px">1.5k</text><text style="text-anchor: middle; visibility: hidden; font-family: Roboto, sans-serif; font-size: 12px; font-weight: 200;" x="198.90571321759904" y="0" dx="0em" dy="0.95em" fill="rgb(50, 49, 63)" stroke="none" stroke-width="1px">2k</text><text style="text-anchor: middle; visibility: hidden; font-family: Roboto, sans-serif; font-size: 12px; font-weight: 200;" x="238.68685586111886" y="0" dx="0em" dy="0.95em" fill="rgb(50, 49, 63)" stroke="none" stroke-width="1px">2.5k</text><text style="text-anchor: middle; visibility: hidden; font-family: Roboto, sans-serif; font-size: 12px; font-weight: 200;" x="278.4679985046387" y="0" dx="0em" dy="0.95em" fill="rgb(50, 49, 63)" stroke="none" stroke-width="1px">3k</text></g><line x1="0" y1="0" x2="278.4679985046387" y2="0" fill="rgb(0, 0, 0)" stroke="rgb(204, 204, 204)" stroke-width="1px"></line></g></g></g></g></svg>