<svg viewBox="0 0 330 200" xmlns="http://www.w3.org/2000/svg"><g><g><g><g><g><line x1="41.149001121520996" y1="177.86299896240234" x2="36.149001121520996" y2="177.86299896240234" style="visibility: inherit;" fill="rgb(0, 0, 0)" stroke="rgb(204, 204, 204)" stroke-width="1px"></line><line x1="41.149001121520996" y1="155.63012409210205" x2="36.149001121520996" y2="155.63012409210205" style="visibility: inherit;" fill="rgb(0, 0, 0)" stroke="rgb(204, 204, 204)" stroke-width="1px"></line><line x1="41.149001121520996" y1="133.39724922180173" x2="36.149001121520996" y2="133.39724922180173" style="visibility: inherit;" fill="rgb(0, 0, 0)" stroke="rgb(204, 204, 204)" stroke-width="1px"></line><line x1="41.149001121520996" y1="111.16437435150145" x2="36.149001121520996" y2="111.16437435150145" style="visibility: inherit;" fill="rgb(0, 0, 0)" stroke="rgb(204, 204, 204)" stroke-width="1px"></line><line x1="41.149001121520996" y1="88.93149948120116" x2="36.149001121520996" y2="88.93149948120116" style="visibility: inherit;" fill="rgb(0, 0, 0)" stroke="rgb(204, 204, 204)" stroke-width="1px"></line><line x1="41.149001121520996" y1="66.69862461090084" x2="36.149001121520996" y2="66.69862461090084" style="visibility: inherit;" fill="rgb(0, 0, 0)" stroke="rgb(204, 204, 204)" stroke-width="1px"></line><line x1="41.149001121520996" y1="44.465749740600586" x2="36.149001121520996" y2="44.465749740600586" style="visibility: inherit;" fill="rgb(0, 0, 0)" stroke="rgb(204, 204, 204)" stroke-width="1px"></line><line x1="41.149001121520996" y1="22.23287487030027" x2="36.149001121520996" y2="22.23287487030027" style="visibility: inherit;" fill="rgb(0, 0, 0)" stroke="rgb(204, 204, 204)" stroke-width="1px"></line><line x1="41.149001121520996" y1="0" x2="36.149001121520996" y2="0" style="visibility: inherit;" fill="rgb(0, 0, 0)" stroke="rgb(204, 204, 204)" stroke-width="1px"></line></g><g transform="translate(31.149001121520996, 0)"><text style="text-anchor: end; visibility: hidden; font-family: Roboto, sans-serif; font-size: 12px; font-weight: 200;" x="0" y="177.86299896240234" dx="0em" dy="0.3em" fill="rgb(50, 49, 63)" stroke="none" stroke-width="1px">1.2</text><text style="text-anchor: end; visibility: inherit; font-family: Roboto, sans-serif; font-size: 12px; font-weight: 200;" x="0" y="155.63012409210205" dx="0em" dy="0.3em" fill="rgb(50, 49, 63)" stroke="none" stroke-width="1px">1.4</text><text style="text-anchor: end; visibility: hidden; font-family: Roboto, sans-serif; font-size: 12px; font-weight: 200;" x="0" y="133.39724922180173" dx="0em" dy="0.3em" fill="rgb(50, 49, 63)" stroke="none" stroke-width="1px">1.6</text><text style="text-anchor: end; visibility: inherit; font-family: Roboto, sans-serif; font-size: 12px; font-weight: 200;" x="0" y="111.16437435150145" dx="0em" dy="0.3em" fill="rgb(50, 49, 63)" stroke="none" stroke-width="1px">1.8</text><text style="text-anchor: end; visibility: hidden; font-family: Roboto, sans-serif; font-size: 12px; font-weight: 200;" x="0" y="88.93149948120116" dx="0em" dy="0.3em" fill="rgb(50, 49, 63)" stroke="none" stroke-width="1px">2</text><text style="text-anchor: end; visibility: inherit; font-family: Roboto, sans-serif; font-size: 12px; font-weight: 200;" x="0" y="66.69862461090084" dx="0em" dy="0.3em" fill="rgb(50, 49, 63)" stroke="none" stroke-width="1px">2.2</text><text style="text-anchor: end; visibility: hidden; font-family: Roboto, sans-serif; font-size: 12px; font-weight: 200;" x="0" y="44.465749740600586" dx="0em" dy="0.3em" fill="rgb(50, 49, 63)" stroke="none" stroke-width="1px">2.4</text><text style="text-anchor: end; visibility: inherit; font-family: Roboto, sans-serif; font-size: 12px; font-weight: 200;" x="0" y="22.23287487030027" dx="0em" dy="0.3em" fill="rgb(50, 49, 63)" stroke="none" stroke-width="1px">2.6</text><text style="text-anchor: end; visibility: hidden; font-family: Roboto, sans-serif; font-size: 12px; font-weight: 200;" x="0" y="0" dx="0em" dy="0.3em" fill="rgb(50, 49, 63)" stroke="none" stroke-width="1px">2.8</text></g><line x1="41.149001121520996" y1="0" x2="41.149001121520996" y2="177.86299896240234" fill="rgb(0, 0, 0)" stroke="rgb(204, 204, 204)" stroke-width="1px"></line></g></g><g transform="translate(41, 0)" clip-path="url(#clip_0)"><clipPath id="clip_0"><rect width="288" height="177"></rect></clipPath><g><g><g><line x1="0" y1="0" x2="0" y2="177.86299896240234" fill="rgb(0, 0, 0)" stroke="rgb(60, 60, 60)" stroke-width="1px" opacity="0.25"></line><line x1="41.264428411211284" y1="0" x2="41.264428411211284" y2="177.86299896240234" fill="rgb(0, 0, 0)" stroke="rgb(60, 60, 60)" stroke-width="1px" opacity="0.25"></line><line x1="82.52885682242257" y1="0" x2="82.52885682242257" y2="177.86299896240234" fill="rgb(0, 0, 0)" stroke="rgb(60, 60, 60)" stroke-width="1px" opacity="0.25"></line><line x1="123.79328523363385" y1="0" x2="123.79328523363385" y2="177.86299896240234" fill="rgb(0, 0, 0)" stroke="rgb(60, 60, 60)" stroke-width="1px" opacity="0.25"></line><line x1="165.05771364484514" y1="0" x2="165.05771364484514" y2="177.86299896240234" fill="rgb(0, 0, 0)" stroke="rgb(60, 60, 60)" stroke-width="1px" opacity="0.25"></line><line x1="206.32214205605644" y1="0" x2="206.32214205605644" y2="177.86299896240234" fill="rgb(0, 0, 0)" stroke="rgb(60, 60, 60)" stroke-width="1px" opacity="0.25"></line><line x1="247.5865704672677" y1="0" x2="247.5865704672677" y2="177.86299896240234" fill="rgb(0, 0, 0)" stroke="rgb(60, 60, 60)" stroke-width="1px" opacity="0.25"></line><line x1="288.850998878479" y1="0" x2="288.850998878479" y2="177.86299896240234" fill="rgb(0, 0, 0)" stroke="rgb(60, 60, 60)" stroke-width="1px" opacity="0.25"></line></g><g><line x1="0" y1="177.86299896240234" x2="288.850998878479" y2="177.86299896240234" fill="rgb(0, 0, 0)" stroke="rgb(60, 60, 60)" stroke-width="1px" opacity="0.25"></line><line x1="0" y1="155.63012409210205" x2="288.850998878479" y2="155.63012409210205" fill="rgb(0, 0, 0)" stroke="rgb(60, 60, 60)" stroke-width="1px" opacity="0.25"></line><line x1="0" y1="133.39724922180173" x2="288.850998878479" y2="133.39724922180173" fill="rgb(0, 0, 0)" stroke="rgb(60, 60, 60)" stroke-width="1px" opacity="0.25"></line><line x1="0" y1="111.16437435150145" x2="288.850998878479" y2="111.16437435150145" fill="rgb(0, 0, 0)" stroke="rgb(60, 60, 60)" stroke-width="1px" opacity="0.25"></line><line x1="0" y1="88.93149948120116" x2="288.850998878479" y2="88.93149948120116" fill="rgb(0, 0, 0)" stroke="rgb(60, 60, 60)" stroke-width="1px" opacity="0.25"></line><line x1="0" y1="66.69862461090084" x2="288.850998878479" y2="66.69862461090084" fill="rgb(0, 0, 0)" stroke="rgb(60, 60, 60)" stroke-width="1px" opacity="0.25"></line><line x1="0" y1="44.465749740600586" x2="288.850998878479" y2="44.465749740600586" fill="rgb(0, 0, 0)" stroke="rgb(60, 60, 60)" stroke-width="1px" opacity="0.25"></line><line x1="0" y1="22.23287487030027" x2="288.850998878479" y2="22.23287487030027" fill="rgb(0, 0, 0)" stroke="rgb(60, 60, 60)" stroke-width="1px" opacity="0.25"></line><line x1="0" y1="0" x2="288.850998878479" y2="0" fill="rgb(0, 0, 0)" stroke="rgb(60, 60, 60)" stroke-width="1px" opacity="0.25"></line></g></g></g><g><g><line x1="0" y1="311.2602481842041" x2="288.850998878479" y2="311.2602481842041" fill="rgb(0, 0, 0)" stroke="rgb(153, 153, 153)" stroke-width="1.5px"></line></g></g><g><g><line x1="41.264428411211284" y1="0" x2="41.264428411211284" y2="177.86299896240234" fill="rgb(0, 0, 0)" stroke="rgb(153, 153, 153)" stroke-width="1.5px"></line></g></g><g><g><g><g><g><path style="fill: none;" stroke="rgb(255, 112, 67)" stroke-width="2px" d="M41.759601552145824,192.10125586898744L42.33730354990278,117.7187847617694L42.74994783401489,188.83432021023032L43.16259211812701,213.92306088781825L43.32764983177185,163.68998086669973L43.41017868859427,97.25346611633853L43.57523640223912,169.9134634354327L43.74029411588397,211.98600819374332L45.14328468186515,200.08146570534797L45.225813538687575,162.38602653197273L45.47340010915484,161.8974816949856L46.21615982055664,128.53213463706152L46.29868867737906,30.663378814272924L46.38121753420148,51.68337771868691L46.62880410466875,21.490410106187163L46.87639067513602,40.8026784971155L47.20650610242571,116.29007730812191L47.5366215297154,146.26480147471017L47.619150386537825,156.438864766434L47.701679243360246,154.5082431034234L47.86673695700509,183.60468616090762L48.03179467064994,192.13452838329763L48.11432352747236,149.57099083843133L48.27938124111721,116.23016961748237L48.36191009793963,126.48858401679067L48.52696781158448,105.99331687520586L48.69202552522932,94.09960684839452L49.26972752298627,139.25383217121342L49.51731409345354,125.74539986211371L49.59984295027596,189.16960775708185L49.76490066392081,90.83835536823648L50.0950160912105,93.04073561284507L50.507660375322615,146.47167291427766L50.59018923214504,129.67455298427555L51.58053551401411,128.58749132860237L51.66306437083653,133.52241504420033L51.99317979812622,110.24936524214056L52.24076636859349,105.62487111894872L52.40582408223834,87.9209218062873L52.570881795883174,146.6589227213007L53.313641507284984,108.8193812837764L53.80881464821952,88.82502937140144L54.221458932331636,111.37365482747961L54.30398778915405,82.29905203802147L54.55157435962132,61.49837672257808L54.71663207326616,28.562686013241656L54.88168978691101,83.88065846028763L55.37686292784555,100.28696524253924L55.45939178466797,133.78454328357745L56.20215149606977,105.43766327161858L56.367209209714616,94.89603414222151L56.53226692335946,101.4740522858591L56.77985349382673,100.75483159705705L57.52261320522854,91.9755604728367L57.7701997756958,90.3637207536631L57.85272863251822,87.47615168376426L58.017786346163064,91.34454224525278L58.265372916630334,149.39349408940652L58.843074914387294,151.13965750942677L59.00813262803214,129.4518760326655L59.090661484854564,112.79125506206962L59.42077691214425,114.35167279509592L59.50330576896667,122.41298506204026L59.5858346257891,110.7102424897541L59.66836348261152,124.22163358049194L59.91595005307879,144.10749697457481L59.99847890990121,115.17405145554423L60.3285943371909,132.9688948594246L60.41112319401332,133.5298021261564L60.49365205083575,129.13709309930263L60.90629633494786,115.76355540846923L61.07135404859271,117.3866137668911L61.153882905415124,116.97964030776974L61.483998332704815,140.47336219453746L61.896642616816926,175.02143802225544L61.979171473639354,161.76852781330007L62.144229187284196,108.11483800090456L62.309286900929045,104.0743794002026L62.391815757751466,162.08689647577367L62.47434461457389,103.37515155127869L62.72193118504115,94.38286132262752L62.886988898686,130.80736142675676L63.13457546915327,158.46949404825412L63.29963318279811,152.61668541904913L63.54721975326538,122.10286737173307L63.6297486100878,140.87804141168195L63.95986403737749,134.07289217083533L64.04239289419992,120.89476693853264L64.12492175102234,144.1449492138355L64.20745060784476,115.49223994865974L64.45503717831203,119.95191431934722L64.53756603513445,158.3235400440266L64.95021031924657,96.33927130650976L65.61044117382595,151.57613933120305L65.77549888747079,181.8945742946306L65.85802774429321,197.56606822859874L66.02308545793805,99.92626595071025L66.18814317158291,121.06493568031567L66.27067202840533,117.83304423243841L66.51825859887259,86.35120000474787L66.60078745569501,93.50131684985914L66.68331631251743,93.2475690228728L66.84837402616229,91.95485757193198L67.34354716709682,30.98145370146132L67.42607602391924,17.74554933173584L67.50860488074166,116.549560976941L67.92124916485378,173.72219773961146L68.08630687849862,196.68347691300642L68.16883573532104,202.5057642467803L68.3338934489659,168.2989715479651L69.15918201719012,152.0286048859712L69.32423973083496,114.60363788694441L69.57182630130222,51.23450335360277L69.8194128717695,125.3795451302186L69.98447058541434,150.6311603238874L70.2320571558816,176.22361426737228L70.39711486952646,94.06663750506453L70.56217258317129,148.65561525487144L70.72723029681615,89.77253968210451L70.97481686728341,105.08829005630119L71.05734572410583,115.83607021729267L71.22240343775069,87.69385712135335L71.80010543550765,115.27742233753885L71.88263429233007,96.16264097305945L71.96516314915249,102.27977228948383L72.04769200597491,142.18413220335563L72.87298057419913,142.59678454370885L73.12056714466641,164.13151039603554L73.20309600148883,177.0523459074316L73.53321142877851,193.5970945781033L74.11091342653546,199.95299748216513L74.2759711401803,133.33789984612838L74.52355771064758,115.46092873442859L74.77114428111484,150.0911722424265L75.26631742204938,162.06924180453723L75.3488462788718,148.44110635653806L75.51390399251666,134.36993475979565L75.59643284933908,147.2407479852446L76.0916059902736,150.9184711555419L76.17413484709604,157.25354715335376L76.4217214175633,114.68644266237133L76.751836844853,171.81508774443944L76.83436570167542,133.30846597483043L76.91689455849784,140.54474487268732L76.99942341532027,142.02921177795363L77.41206769943238,116.23394762182298L77.65965426989963,131.93574916099027L77.74218312672205,80.74257469423421L77.82471198354447,133.9962246438129L78.2373562676566,135.46404109411563L78.65000055176871,79.03239067499271L78.81505826541355,63.14974634793215L78.89758712223598,96.76956320095314L78.9801159790584,97.6347777701193L79.06264483588082,53.848599279852856L79.22770254952567,100.02691003344512L79.88793340410506,138.32787802679508L80.21804883139474,118.4878967876009L80.30057768821717,163.3046285087055L81.12586625644138,195.8309819204557L81.5385105405535,157.57016269931913L81.70356825419834,108.04218023891909L81.78609711102077,146.54815559874172L81.86862596784319,106.74116659369494L81.95115482466561,118.76412116358782L82.2812702519553,120.13539701467008L82.69391453606742,64.16757843355295L82.77644339288985,93.67946208534032L83.02402996335711,88.72521165840315L83.43667424746923,27.690877340253753L83.51920310429165,32.53860124744341L83.84931853158133,54.424221603480696L83.93184738840377,56.744563266748855L84.01437624522619,43.51851988313878L84.17943395887103,65.2518560094597L84.42702052933828,36.236265262177376L84.75713595662798,52.26358975830331L84.8396648134504,54.7596404789382L85.1697802407401,101.34483873789662L85.25230909756252,76.76252803358372L85.66495338167464,44.0078855027853L85.83001109531948,75.66498324039257L86.2426553794316,8.358802359468031L86.32518423625402,63.20836669085777L86.40771309307644,100.17735695094515L86.6552996635437,103.94866761393477L86.73782852036612,113.42455016993694L86.82035737718854,80.97692708916578L87.06794394765582,103.49389651106725L87.15047280447824,117.8328738715164L87.23300166130066,108.77092942096984L87.31553051812308,128.54280693441547L87.72817480223519,114.04334430124437L87.89323251588003,114.67334454261291L87.97576137270245,133.41736320838297L88.05829022952489,159.03523668251094L88.1408190863473,148.3605779364955L88.38840565681457,117.28737060373301L88.55346337045941,115.82430621123977L88.80104994092669,157.50823999997075L88.88357879774911,119.73964583935805L89.29622308186123,108.48592097688127L89.37875193868365,128.35319630413227L89.62633850915091,105.01524413584028L89.79139622279575,78.30872106921785L90.20404050690787,104.81845662814354L90.36909822055271,86.6012433370477L90.61668479101999,34.24781669639019L90.78174250466483,-1.7464451118743856L90.86427136148725,4.563244459032209L90.94680021830968,22.71429211797986L91.02932907513211,39.501972721848354L91.19438678877695,33.35475940722879L91.27691564559936,104.49420321858022L91.4419733592442,109.11953670112167L91.60703107288904,84.94265341762946L91.68955992971148,155.8145086576425L91.7720887865339,198.33762180165033L92.01967535700116,196.30271369132728L92.26726192746844,149.91594101440006L92.67990621158054,121.28858761802093L93.01002163887024,93.82821786000447L93.09255049569266,55.945653430306415L93.2576082093375,57.290092345095914L93.50519477980478,22.035091428841596L93.83531020709447,27.015677864034892L93.91783906391689,42.03286068731418L94.08289677756174,67.50378833973491L94.16542563438416,92.68774893581599L94.24795449120658,86.89365057551886L94.330483348029,115.94410083838854L94.6605987753187,153.22940710235267L94.74312763214111,173.17945838083781L94.90818534578595,120.20879082770082L94.99071420260837,106.72843430113646L95.32082962989807,67.1848802674233L95.98106048447745,93.10919503447356L96.31117591176714,79.83429841735338L96.39370476858957,52.76437239679115L96.64129133905683,3.0716909043033396L96.72382019587926,10.234528805752772L96.80634905270168,35.219858683165086L96.97140676634652,73.71706621674247L97.05393562316895,83.3131210361834L97.2189933368138,102.87304497122652L97.38405105045864,84.1681501104172L97.46657990728106,86.45935653081358L97.63163762092591,39.390095345179944L97.79669533457076,80.51504207602082L98.044281905038,84.77605438965875L98.29186847550528,81.81247580114417L98.62198390279497,81.20952178860058L98.70451275961739,62.53925968754652L99.28221475737435,74.00275013292463L99.4472724710192,81.85248949197734L99.52980132784162,68.47224410930183L99.94244561195373,99.86181260571844L100.27256103924343,81.86731900571944L100.43761875288827,107.48812514501132L100.76773418017797,115.66966972360018L101.18037846429009,106.85824941918386L101.59302274840218,123.82156839024678L101.6755516052246,108.29355620855213L101.75808046204703,97.90678585958412L102.0056670325143,131.11359989212536L102.17072474615914,154.39451897991813L102.33578245980398,138.9112314954926L102.41831131662641,143.88159146591403L102.58336903027126,112.6112612778966L102.83095560073852,96.15080994373649L102.91348445756094,91.23026623800797L102.99601331438338,77.45411350094435L103.16107102802822,86.56206413109442L103.32612874167306,135.03987401761253L103.40865759849548,160.2092698004395L103.57371531214034,172.8120369280343L103.73877302578518,167.96690826015555L104.06888845307486,121.07979254940147L104.23394616671972,123.09319056899913L104.5640615940094,136.87337461114188L104.64659045083182,120.88673665376305L104.8941770212991,141.95490492076578L105.05923473494393,133.513910414601L105.30682130541119,160.82071016042107L105.47187901905605,157.4072668269005L105.63693673270089,124.16156101988624L105.88452330316815,138.2869200346747L106.13210987363543,158.03033809180874L106.21463873045785,158.87432005082442L106.62728301456997,153.33628631015446L107.03992729868207,103.00388518749304L107.37004272597177,77.36406922610925L107.45257158279419,69.67017192334613L107.53510043961661,48.245259735230015L107.70015815326146,13.422092421264653L107.78268701008389,35.72884824472763L107.86521586690631,-1.4008118058057855L108.2778601510184,28.247241499536155L108.52544672148568,48.77432481132879L108.6079755783081,83.76419480299054L108.69050443513052,81.22502575906053L108.77303329195294,62.49210929067994L108.9380910055978,92.54912046644188L109.18567757606506,91.59779638271281L109.43326414653232,80.82763326858284L110.17602385793414,68.33807482142043L110.4236104284014,45.35454527327801L111.00131242615836,75.87580411250791L111.08384128298079,84.87159274636L111.1663701398032,66.50270564345061L111.4964855670929,62.59620459909234L111.66154328073775,90.30240454949823L111.82660099438257,100.34077796486805L111.90912985120502,109.98713750648473L112.23924527849469,123.43419596826315L112.73441841942923,146.98051621164223L112.89947613307407,139.55091616827949L113.14706270354135,151.09443400406L113.22959156036377,106.23276349553075L113.47717813083104,104.23972679061255L113.72476470129831,80.66484105266913L113.88982241494315,136.31830066585158L114.054880128588,45.517183022629624L114.46752441270012,61.90308018643935L114.55005326952254,51.38201871465436L114.7976398399898,87.32987929038909L115.1277552672795,124.48089846324255L115.29281298092432,121.45654658761049L115.62292840821402,148.64512587596667L115.70545726503644,171.73227565043362L115.9530438355037,95.76640490280067L116.11810154914856,124.20825943385809L116.20063040597098,175.02980970943895L116.44821697643825,164.68582513440893L116.53074583326067,153.1256542432684L116.77833240372794,107.75204705477248L116.86086126055037,63.45821615686491L116.94339011737279,62.60927782537908L117.43856325830733,67.32869314747026L117.85120754241943,94.711640087627L118.01626525606429,106.90841984969983L118.09879411288671,111.04097664636444L119.25419810840062,154.36984507615315L119.33672696522304,76.58599103078717L119.50178467886788,37.134838797394615L120.07948667662484,59.33658383812239L120.16201553344726,26.176532808760815L120.24454439026968,47.82525262064828L120.57465981755938,34.029427150799485L120.6571886743818,47.03831891401353L120.9873041016715,34.776000267184436L121.31741952896118,10.972764256358653L121.3999483857836,23.734947906169637L121.56500609942846,36.05656163291778L121.7300638130733,15.809072438619234L121.81259266989572,22.268188834067015L121.89512152671814,4.856921778003555L121.97765038354055,42.76935609818401L122.63788123811993,48.76539005866366L122.96799666540963,69.57370825373948L123.13305437905447,35.97352327470652L123.38064094952175,15.544474427889895L123.79328523363385,50.53451217856254L124.28845837456839,93.34605506376859L124.37098723139081,106.23286174991999L124.45351608821325,137.19316528951597L124.61857380185809,118.95138553100936L124.86616037232535,89.54164196008313L125.69144894054958,103.45375807654135L125.85650665419442,108.47710931342489L126.02156436783926,91.36840236302915L126.26915093830654,128.66947358581405L126.5167375087738,125.54390258601285L126.68179522241864,72.66361715056343L126.76432407924106,112.74282968264718L127.17696836335318,153.69711113748986L127.2594972201756,91.71903540887031L127.50708379064288,44.90321170709361L127.5896126474653,13.76141908203362L127.67214150428772,12.817580833656002L127.91972807475499,35.743595705043404L128.0022569315774,60.93839293780831L128.3323723588671,79.86795946249393L128.49743007251195,84.68704165611118L128.99260321344647,137.0921051040868L129.1576609270913,37.978253250045015L129.4052474975586,7.668136510762495L129.7353629248483,34.26408958998319L130.06547835213797,68.76628276977247L130.23053606578281,43.81138439209438L130.56065149307253,42.57308318631241L130.64318034989495,86.72908090197156L131.05582463400705,67.46216277302781L131.2208823476519,93.9365020144302L132.21122862952097,70.58154738320098L132.54134405681066,82.2938622261217L132.62387291363308,109.47204149278863L132.7064017704555,85.43922957547338L132.95398834092276,101.25033960193521L133.1190460545676,77.38451287410027L133.36663262503487,101.57274026729559L133.69674805232458,83.08243318573226L133.86180576596942,96.0350761681098L133.9443346227918,124.28429005639916L134.27445005008153,115.27947560411756L134.35697890690395,114.26788164923856L134.6045654773712,76.33465514962482L134.9346809046609,46.19925111693514L135.01720976148331,93.01396090157462L135.18226747512819,21.594496018766222L135.34732518877303,-2.165213454579344L135.5949117592403,-2.6684212401231227L136.0075560433524,1.5235073375147368L136.17261375699724,3.4902297102754507L136.33767147064208,15.126886847340469L136.58525804110937,4.41255159117418L136.99790232522147,3.647166023524184L137.0804311820439,66.41517454011641L137.24548889568874,58.918770827027174L137.41054660933358,66.59573107608125L137.493075466156,86.3174383322001L137.57560432297845,109.58312049590675L137.82319089344568,119.20349497900855L138.23583517755782,28.130659006005423L138.40089289120266,-2.4906411123296137L138.48342174802508,21.375968766879257L138.81353717531476,46.8855010066487L139.22618145942687,112.08183303237915L139.55629688671658,44.06831864848556L139.88641231400626,89.18321633167906L139.96894117082869,64.6617040235356L140.3815854549408,32.201696704129L140.54664316858566,36.74416063596841L140.7117008822305,88.8136827602323L140.87675859587534,63.790623199345596L141.12434516634258,59.3568757895356L141.20687402316503,65.62697993826119L141.5369894504547,77.80800705330279L142.03216259138924,69.33432923629833L142.19722030503408,108.6107535014215L142.36227801867895,109.54256861007427L142.5273357323238,139.8940844450663L142.6098645891462,141.48141563181682L143.02250887325832,131.03462534580416L143.43515315737042,89.90419837311713L143.6827397278377,49.002590226093936L143.84779744148256,66.10173590792657L144.0128551551274,106.49468848161273L144.09538401194982,160.51997139388507L144.26044172559466,182.46798487646373L144.4254994392395,105.12122850206988L144.6730860097068,72.80645991955282L144.8381437233516,62.277324432325955L144.92067258017403,45.97655345158715L145.00320143699645,39.31000495772496L145.0857302938189,63.84550331782532L145.66343229157584,70.44756220984796L145.8284900052207,91.66252139279796L146.07607657568795,103.74166445623726L146.15860543251037,131.0666527562083L146.24113428933282,60.55416656318047L146.73630743026735,91.48676656658984L147.14895171437945,114.38860013005399L147.3965382848467,35.32450649531764L147.47906714166913,93.81423592384519L148.13929799624853,74.98896937655913L148.22182685307092,57.34833684773044L148.30435570989337,30.752528569850313L148.38688456671576,42.71191292278115L148.5519422803606,57.181846883026296L148.96458656447274,24.24759238193197L149.12964427811758,98.67734082064825L149.21217313494,87.00984030101128L149.8724039895194,70.35409130458375L149.95493284634182,28.749269487840987L150.2850482736315,25.58487761179368L150.45010598727637,60.14906603068373L150.61516370092122,56.34973458896211L150.6976925577436,57.38823395490183L150.86275027138845,29.848192318753977L151.19286569867816,2.1661191679931675L151.27539455550055,-20.880427176992225L151.6055099827903,-13.799503321432404L151.6880388396127,20.91996741550597L151.85309655325753,47.849705564298986L151.93562541007995,52.94830589982824L152.01815426690237,117.67473014505418L152.1006831237248,55.91976021641758L152.43079855101448,120.09774279573642L152.51332740783693,59.99809726464219L152.76091397830416,119.17803379487063L152.8434428351266,169.06324638530958L152.92597169194903,192.26710032727755L153.2560871192387,134.35126345965477L153.33861597606113,81.12373308329074L153.503673689706,54.365710449539826L153.91631797381808,102.22198926073997L154.57654882839748,99.6718099035353L154.82413539886477,81.7824289959636L154.98919311250958,104.54688305728554L155.15425082615442,102.08846197298615L155.23677968297687,99.70022068582801L155.56689511026656,127.91824739092057L155.7319528239114,128.90251029319836L155.97953939437866,132.98856581103672L156.06206825120108,145.36326721165992L156.22712596484592,129.2307673742842L156.80482796260287,136.66516335142606L156.96988567624774,160.35229763178384L157.05241453307016,113.59279384256975L157.38252996035985,127.99066283324495L157.46505881718227,132.21489351477257L157.71264538764956,127.42257148886507L157.79517424447195,146.2403327706355L157.8777031012944,168.6336159216971L158.04276081493924,115.59076924078471L158.12528967176164,113.96299918111592L158.2903473854065,60.78277724138446L158.45540509905135,27.863455536667725L158.53793395587374,24.3870874252946L158.86804938316345,118.6131877051858L159.11563595363071,87.22737872319684L159.44575138092043,120.46714170552274L159.52828023774282,100.92600689820368L159.7758668082101,62.83135825580699L159.94092452185495,81.00794743325923L160.1059822354998,76.49619639381415L160.18851109232222,101.85775379926463L160.27103994914464,102.6481725815616L161.01379966054643,102.62395906293717L161.1788573741913,80.2509817774353L161.42644394465853,54.81504054192229L161.59150165830337,59.016825032755385L161.75655937194827,40.48583277178218L162.33426136970522,81.22672690653295L162.4167902265276,63.04725773747358L162.6643767969949,25.482870765832057L162.7469056538173,39.97214119475633L162.82943451063974,52.34592638354394L163.24207879475185,73.77992732507431L163.4896653652191,87.33166505563656L163.65472307886398,88.83959343474429L163.90230964933122,99.43769019576679L163.98483850615366,106.9434460938785L164.06736736297606,97.63614332286085L164.39748279026577,108.1093385800083L164.4800116470882,81.66551768122312L164.64506936073303,78.83221587643513L164.8101270743779,93.88816174533106L164.8926559312003,82.21140440239931L165.22277135848998,112.73733087008374L165.3053002153124,122.47336830071457L165.63541564260208,133.54106570755343L165.71794449942453,104.0615634312814L165.88300221306937,97.70899703699352L166.04805992671422,108.80711853843691L166.46070421082632,100.0999902180585L166.54323306764877,108.48866217803894L166.7082907812936,98.19109808799027L166.95587735176085,111.45320053691452L167.53357934951782,92.91575745964575L167.69863706316266,80.53036078254394L168.02875249045238,78.73967243898866L168.11128134727477,104.29995627029145L168.44139677456448,116.16288125897145L168.52392563138687,98.9848284115583L169.01909877232143,102.95178771876405L169.2666853427887,135.51013482817066L169.3492141996111,113.23614595134919L169.43174305643353,111.26984967284953L169.5968007700784,122.24959767754105L169.6793296269008,131.93170546648065L169.76185848372324,140.15159392164858L169.84438734054564,130.5855733896911L170.17450276783535,77.2737182579452L170.25703162465777,99.6379627474278L170.4220893383026,97.29616037909265L170.50461819512503,91.54119884849744L170.66967590876988,68.11803805663854L170.91726247923717,39.82101529144133L170.99979133605956,35.55963560068612L171.32990676334927,61.30624877512261L171.4124356201717,36.79639892818584L172.0726664747511,44.51823994407021L172.4853107588632,19.820982455899596L172.98048389979772,30.565061243472712L173.0630127566201,40.587593297305574L173.14554161344256,62.24803126103174L173.55818589755467,77.95953489703257L173.88830132484435,101.63142922582834L174.3834744657789,82.57126847043898L174.7135898930686,91.20575172516354L175.04370532035827,78.72795935490544L175.2087630340031,69.90265867138515L175.37382074764795,56.24357232250468L175.62140731811522,35.79894878825278L176.03405160222735,49.34650925995293L176.44669588633946,66.83715323305111L177.02439788409643,33.94214559716646L177.51957102503096,50.22972137063397L177.6846287386758,96.33399271409169L177.84968645232067,99.09372393221498L178.0147441659655,84.26663393023097L178.0972730227879,61.11572985099104L178.3448595932552,77.85001437725215L179.08761930465698,53.278326054626525L179.9954367297036,54.05973191210355L180.07796558652606,80.24380756261105L180.32555215699333,118.91178007964959L180.40808101381575,76.55252527514654L180.73819644110543,84.80887655076434L180.82072529792785,73.2113367548102L180.9857830115727,83.30947146955792L181.39842729568483,93.21639635544078L181.6460138661521,99.6468721015444L182.05865815026422,130.2248303962608L182.14118700708661,140.82407897087197L182.22371586390906,131.83346017620627L182.3887735775539,139.23586848420447L182.4713024343763,115.95613651557781L182.8839467184884,134.9600386109017L182.96647557531085,145.09441334344137L183.2140621457781,121.42498545226955L183.29659100260054,117.915294260869L183.70923528671264,65.487302594989L184.20440842764717,101.32925970339502L184.28693728446962,75.29073028853422L184.69958156858172,121.18078710011916L185.0296969958714,73.25085572002787L185.44234127998354,101.56920095569656L186.10257213456288,95.96559017892855L187.42303384372167,68.75931761634348L187.5055627005441,83.31477900840865L187.9182069846562,87.60968534015637L188.99108212334767,131.05476783221638L189.07361098017012,121.54562576002854L189.48625526428222,87.06676857176016L189.65131297792706,97.06377133028651L189.8163706915719,80.60367925258412L189.89889954839435,71.26518168093016L189.98142840521675,64.48141964356273L190.31154383250643,39.917170967423786L190.4766015461513,40.2362052833013L190.64165925979614,41.664784552188884L190.80671697344098,45.048048210063406L191.05430354390828,51.250826215631164L191.13683240073067,37.7754498817867L191.3018901143755,10.013880898962956L191.46694782802035,3.487017024902929L191.5494766848428,30.62671216382528L191.63200554166522,27.507841574146504L191.71453439848764,31.95434321084247L191.87959211213249,47.22860033747766L191.9621209689549,45.332608080024976L192.04464982577733,40.807178084965635L192.2922363962446,53.621544256270475L192.952467250824,50.58261991306493L193.28258267811367,41.2195805453154L193.3651115349361,31.143630598839664L193.61269810540335,35.20793176216666L194.1078712463379,31.779791231217217L194.1904001031603,33.92092639598302L194.35545781680514,28.980270648985147L194.76810210091728,-6.79226233153923L194.93315981456212,7.633905247011192L195.01568867138454,15.249358649013907L195.34580409867422,24.942412142723455L195.42833295549667,44.93489936936461L195.84097723960878,47.17112148662945L196.00603495325362,60.7603726540159L196.088563810076,74.20142846793004L196.25362152372085,63.76582894069209L196.9963812351227,61.73103844181255L197.0789100919451,72.84863727306241L197.24396780558993,76.5914282279494L197.40902551923477,80.23623059944266L197.65661208970207,72.62034400966158L197.7391409465245,65.14516366003913L198.4819006579263,59.024006204140775L198.97707379886083,76.23325304346437L199.55477579661778,66.24951894611006L199.88489122390746,72.72722195917235L199.96742008072988,48.15106282121636L200.29753550801956,61.181035800749584L201.04029521942138,61.35474081368171L201.3704106467111,81.4556407456615L201.45293950353349,66.96758893261449L201.53546836035594,72.67249584022301L201.94811264446804,72.52962801908399L202.44328578540257,63.86865066369124L202.69087235586986,76.4843101620336L202.77340121269225,77.07988467470803L202.8559300695147,37.35046606212985L203.10351663998196,30.959829877665197L203.2685743536268,41.318143307700836L203.43363206727165,54.79058403621841L203.51616092409407,55.86397029081629L203.5986897809165,63.72371676261872L203.92880520820617,76.26900323534517L204.093862921851,74.8966674747761L204.34144949231828,74.97721018113288L204.42397834914073,79.9929351081344L204.50650720596312,79.714263366169L204.83662263325283,86.40004605630352L205.33179577418736,91.23626161963944L205.90949777194433,86.64059012250202L205.99202662876675,106.0432353590608L206.07455548558917,85.42900317790195L206.48719976970128,76.21307329596993L206.56972862652373,86.32742328334963L206.73478634016854,83.04413479251888L207.3950171947479,94.33255009209968L207.56007490839275,106.60473604798449L207.72513262203762,115.67101858939377L207.80766147886004,66.01859515925459L208.0552480493273,79.50442467219493L208.63295004708428,101.18453567873533L208.88053661755154,86.67700885846072L209.04559433119638,98.90988502024874L209.21065204484123,105.0918198747775L209.62329632895336,106.45661613613962L210.03594061306543,74.53524611605452L210.11846946988786,90.79602636676633L210.2009983267103,87.02678498650032L210.531113754,88.64748452814749L210.61364261082238,63.80209238171856L211.10881575175694,98.04901809334594L211.27387346540178,97.32223605294062L211.43893117904662,90.72138552734005L211.6865177495139,82.9289559769315L211.7690466063363,82.02227518078188L211.85157546315875,96.45587810456628L211.93410431998117,111.87553661145239L212.18169089044844,90.80595565704405L212.34674860409328,90.79213720189085L212.75939288820538,90.59529914719329L213.00697945867267,95.39323153963814L213.1720371723175,102.95712638257976L213.50215259960717,103.8291600750364L213.58468145642962,69.86322011504156L213.99732574054173,55.424566391171304L214.3274411678314,85.95348019405752L214.5750277382987,107.54600669242232L214.6575565951211,81.6261935058139L214.82261430876594,98.59253757717315L215.15272973605565,99.59357799422818L215.23525859287807,75.18516522149578L215.4003163065229,95.51726297725601L215.48284516334533,78.43582737719544L215.97801830427986,68.04241509817157L216.0605471611023,66.56779125066573L216.22560487474715,67.92349787843418L216.39066258839196,98.59570316849249L216.63824915885925,113.41060146078374L216.7207780156817,100.44551937157422L216.88583572932654,110.42750037215463L217.13342229979378,117.27276753936479L217.4635377270835,112.00340216282709L217.62859544072833,127.44103359703388L217.71112429755073,108.3200403266685L217.8761820111956,116.69278543472433L217.95871086801802,94.33824460971886L218.53641286577496,70.09847075698403L218.7014705794198,109.61459346327167L218.9490571498871,98.18583104194039L219.11411486353194,99.98160786953714L219.19664372035436,118.22328437896027L219.27917257717678,136.61394538923764L219.77434571811133,137.2518497680605L220.59963428633552,136.52348508575938L220.76469199998036,117.9423310307469L221.1773362840925,106.2345493557412L221.34239399773733,107.55308163642339L221.67250942502704,85.81281019930314L221.75503828184944,90.73412676405054L221.8375671386719,83.62276967242674L222.00262485231673,79.79046689274568L222.16768256596157,84.69934181625744L222.250211422784,80.10661993424296L222.58032685007367,39.407139176719824L223.0754999910082,82.74177410745506L223.24055770465307,82.85480005637699L223.4056154182979,94.18953549722563L223.7357308455876,105.35433031063629L224.47849055698939,129.18044501675718L224.56101941381183,116.73394469340545L224.64354827063423,99.39513559696368L224.9736636979239,105.43209739048659L225.38630798203604,119.67402815917434L225.46883683885846,115.4256722855379L225.5513656956809,127.82397118765854L225.8814811229706,135.90250485894637L225.964009979793,113.48186198832119L226.21159655026028,107.95224481637628L226.37665426390512,119.7008148414504L226.6242408343724,126.12834549900492L227.03688511848452,126.80963094927384L227.20194283212933,123.67271712719624L227.36700054577418,114.38867125907474L227.44952940259662,125.75385485028738L227.8621736867087,140.74715250075124L228.02723140035357,146.72507540565167L228.43987568446568,148.846140077947L228.68746225493294,163.1846765503535L228.85251996857778,141.5029444079609L229.01757768222262,156.90407631874223L229.43022196633476,139.30418885910478L229.67780853680202,127.88819371865172L229.84286625044686,124.37616974897419L230.0079239640917,128.5099929765762L230.09045282091415,127.21271076651824L230.3380393913814,160.9701798481711L230.4205682482038,178.86308782444746L230.50309710502626,129.16841980330065L230.7506836754935,148.73359478277226L230.83321253231594,135.9126293146817L230.91574138913833,111.92611884466211L231.57597224371773,121.5904008839157L231.65850110054018,131.41377232161835L231.74102995736257,136.98325266257027L231.9060876710074,101.15515090506837L231.98861652782986,108.90251507868476L232.31873195511955,105.38197790805854L232.4837896687644,141.05870070234664L233.22654938016618,144.9756368969065L233.63919366427828,143.69978625237752L233.72172252110073,149.07356065362077L233.80425137792312,149.211093345461L233.96930909156802,166.76636829064418L234.3819533756801,166.7972225487183L234.46448223250252,159.57808066124483L234.54701108932497,159.42904676680584L234.62953994614736,115.48120787923735L234.7945976597922,129.33826362036987L234.95965537343704,153.94081478068298L235.28977080072676,102.9515444752168L235.61988622801644,77.44656689435052L235.70241508483886,65.39972363946849L235.86747279848373,70.16857005586088L236.11505936895097,73.60085138533191L236.2801170825958,73.69104123191373L236.85781908035278,44.43145853865216L237.2704633644649,71.74677901607838L237.51804993493215,64.85020704501663L237.93069421904428,97.44055858858972L238.17828078951155,101.9779592116858L238.26080964633397,121.26853225942841L238.3433385031564,145.6675534171558L238.67345393044607,141.98193813930428L239.00356935773576,168.97762282852904L239.1686270713806,64.51922172894346L239.82885792596,127.35767776693733L239.91138678278242,57.67743841511296L239.99391563960484,122.31880195103001L240.32403106689452,83.46435675143651L240.65414649418423,64.38807580191101L240.98426192147392,46.47077266051163L241.0667907782963,45.03862962066241L241.39690620558602,49.930795341639L241.47943506240844,44.240237338774364L241.56196391923086,48.40693299628201L241.64449277605328,64.18952071711453L241.974608203343,85.55195117755687L242.22219477381023,82.24042109363145L242.46978134427752,79.15532951594501L242.63483905792236,87.31010296354937L242.7998967715672,115.35299548535686L243.13001219885692,108.75268290993725L243.54265648296902,99.33739705701075L243.62518533979144,103.61953627100299L243.70771419661386,93.3505036909048L243.8727719102587,78.65539580821509L243.9553007670811,83.85917123785276L244.120358480726,82.5585017191734L244.28541619437084,61.625464992859634L244.36794505119323,37.893282815822246L244.45047390801565,19.06250200892786L245.11070476259502,21.476291661715656L245.27576247623986,20.686830295482125L245.52334904670715,35.604258956331016L245.60587790352957,38.65702805668813L245.688406760352,48.36311540575697L245.77093561717442,41.54753654041706L245.93599333081926,40.88175078493894L246.1010510444641,36.77401553621303L246.3486376149314,101.00736821095647L246.43116647175378,134.3608960229681L246.7612818990435,176.3284579509202L246.84381075586592,81.05757140908447L246.92633961268834,67.33519329838099L247.17392618315563,47.218292099809446L247.83415703773497,39.05797015020097L249.31967646053857,55.936255284098706L249.40220531736102,57.82858403807932L249.81484960147313,65.69014174937162L249.89737845829555,82.83168637630827L250.06243617194042,60.26246858069125L250.22749388558526,55.611535019663215L250.31002274240765,61.20787539044571L250.55760931287494,63.47635830541199L250.8877247401646,87.84841184465022L250.97025359698705,84.66794813480834L251.1353113106319,84.27362213016718L251.30036902427673,84.87744673653664L251.38289788109915,79.12477646363777L251.79554216521126,90.59538246685638L251.87807102203368,88.58696342688005L252.12565759250097,106.97538356577618L252.20818644932336,83.76325749414946L252.53830187661308,89.25153969770408L252.6208307334355,84.78689002686816L252.70335959025792,82.90721714196414L253.19853273119244,95.62122139980009L253.36359044483729,92.6374238027988L253.44611930165973,125.50507007568575L253.52864815848213,136.58801157947784L254.60152329717366,152.1864643029425L254.68405215399605,149.0003767252864L254.84910986764092,161.62896701116873L255.261754151753,183.77086399124892L255.83945614950997,184.12728879886296L256.3346292904445,165.43778343254922L256.49968700408937,154.89385930772207L256.6647447177342,141.12583587749015L256.82980243137905,161.23240551948908L256.9123312882015,135.62378045862354L257.0773890018463,151.40304179762077L257.4900332859584,173.9452848811111L257.57256214278084,105.51199300412617L257.65509099960326,75.52315527077998L257.7376198564257,42.74082531601686L257.98520642689294,27.326005620245642L258.0677352837154,-9.959679242258229L258.4803795678275,-17.181984777345054L258.5629084246499,5.566297481708465L258.8930238519396,-10.28124135534415L258.97555270876205,1.0915087632519567L259.38819699287416,6.529759927677629L259.553254706519,36.263180233403354L259.9658989906311,40.58758897324348L260.0484278474535,24.986999930113498L260.21348556109837,58.811336916004755L260.3785432747432,63.74781477172277L260.46107213156563,71.85741043484933L260.62612984521047,75.15162847600548L260.7911875588553,67.35891310729893L261.2038318429674,63.56112725210683L261.4514184134347,39.72510595544487L261.6164761270795,34.68136730423389L261.699004983902,16.279231729269394L262.0291204111917,90.57308979028556L262.4417646953038,49.08694139632697L263.01946669306074,118.09963740034165L263.10199554988316,117.46134171345163L263.51463983399526,30.787768234248194L263.6796975476401,-12.285312960783884L264.0923418317522,-4.988475520849552L264.1748706885747,77.35416428672454L264.25739954539705,131.81109249200492L264.3399284022195,152.10003709397688L265.0826881136213,172.63496157034524L265.4953323977334,153.87809416003793L265.7429189682007,166.22651492295205L265.8254478250231,183.8113106890401L266.5682075364249,185.07069148875175L266.73326525006973,84.54259196131878L266.980851820537,42.27241886215687L267.14590953418184,40.770302087569924L267.6410826751164,81.09089375854853L268.21878467287337,99.9876335300865L268.3838423865182,116.36701658504738L268.46637124334063,131.57548149229137L268.6314289569855,125.24621724194824L268.87901552745274,111.40398654489172L269.2091309547424,125.75974780595438L269.4567175252097,141.80322781315988L269.5392463820321,109.86318224140032L269.70430409567695,138.19066758637695L269.8693618093218,169.0289720828717L269.95189066614427,161.9676556431796L270.4470638070788,161.22906692835832L270.5295926639012,144.72359262596737L270.69465037754605,140.88821849717374L270.8597080911909,156.7612374144054L271.10729466165816,141.80463238523146L271.6849966594151,161.42813657316677L272.0151120867048,170.2386802101617L272.0976409435272,180.33186247283342L272.3452275139945,167.395270580727" fill="none"></path></g></g></g></g><g opacity="0.2"><g><g><g><path style="fill: none;" stroke="rgb(255, 112, 67)" stroke-width="2px" d="M41.759601552145824,188.60828985389026L42.33730354990278,46.311612498840056L42.74994783401489,272.4661898976203L43.16259211812701,198.4506993791323L43.32764983177185,91.85587270721987L43.41017868859427,0.3883898197702622L43.57523640223912,277.07284600321736L44.730640397753035,222.12525233638536L45.060755825042726,100.4447389953234L45.14328468186515,223.92267039398837L45.225813538687575,105.8694535161394L45.47340010915484,161.16487117530687L46.21615982055664,78.49258550817898L46.29868867737906,-116.12484560000917L46.38121753420148,83.21145476414789L46.62880410466875,-23.79738545846207L46.87639067513602,69.77044560509033L47.20650610242571,229.51968515762394L47.5366215297154,191.2265326454085L47.619150386537825,171.69988739113228L47.701679243360246,151.61231884212702L47.86673695700509,227.24927629731076L48.03179467064994,204.9292786215657L48.11432352747236,85.72572372816556L48.27938124111721,66.21895621302404L48.36191009793963,141.87620221395127L48.52696781158448,75.25042024070079L48.69202552522932,76.25904322804762L49.26972752298627,206.9851669211372L49.51731409345354,105.48275197901296L49.59984295027596,284.3059179640735L49.76490066392081,-56.658521693686L50.0950160912105,96.34430595931326L50.507660375322615,226.6180785688275L50.59018923214504,104.47887314540628L51.58053551401411,126.95689884727221L51.66306437083653,140.9248006116602L51.99317979812622,75.3397905558504L52.24076636859349,98.68812993616393L52.40582408223834,61.36499784189571L52.570881795883174,234.76592408466252L53.313641507284984,52.060069131029856L53.80881464821952,58.833501503961294L54.221458932331636,145.19659301083755L54.30398778915405,38.68714785442169L54.55157435962132,30.297363749665216L54.71663207326616,-20.840850050523425L54.88168978691101,166.85761713061515L55.37686292784555,124.89642541587364L55.45939178466797,184.03091034508213L56.20215149606977,62.91734325370701L56.367209209714616,79.08359044813186L56.53226692335946,111.34107950131329L56.77985349382673,99.67600056385413L57.52261320522854,78.80665378650723L57.7701997756958,87.94596117490276L57.85272863251822,83.1447980789162L58.017786346163064,97.1471280874855L58.265372916630334,236.46692185563614L58.843074914387294,153.75890263945712L59.00813262803214,96.92020381752377L59.090661484854564,87.80032360617587L59.42077691214425,116.69229939463526L59.50330576896667,134.5049534624568L59.5858346257891,93.15612863132492L59.66836348261152,144.48872021659872L59.91595005307879,173.93629206569904L59.99847890990121,71.77388317699841L60.3285943371909,159.66115996524513L60.41112319401332,134.37116302625418L60.49365205083575,122.54802955902198L60.90629633494786,95.7032488722192L61.07135404859271,119.82120130452392L61.153882905415124,116.36918011908767L61.483998332704815,175.7139450246891L61.896642616816926,226.8435517638324L61.979171473639354,141.8891624998671L62.144229187284196,27.634303282311272L62.309286900929045,98.01369149914967L62.391815757751466,249.10567208913028L62.47434461457389,15.307534164536245L62.72193118504115,80.89442597965079L62.886988898686,185.44411158295054L63.13457546915327,199.96269298050015L63.29963318279811,143.8374724752416L63.54721975326538,76.33214030075895L63.6297486100878,169.04080247160528L63.95986403737749,123.86516830956543L64.04239289419992,101.1275790900786L64.12492175102234,179.02022262678975L64.20745060784476,72.51317605089615L64.45503717831203,126.64142587537845L64.53756603513445,215.8809786310457L64.95021031924657,3.3628682002344963L65.61044117382595,234.43144136824293L66.02308545793805,-46.53343746612245L66.18814317158291,152.77294027472385L66.27067202840533,112.98520706062254L66.51825859887259,39.128433663212014L66.60078745569501,104.22649211752605L66.68331631251743,92.86694728239331L66.84837402616229,90.01579039552075L67.34354716709682,-60.4786521042447L68.16883573532104,211.23919524744116L68.3338934489659,116.98878249974234L69.15918201719012,127.62305489298035L69.32423973083496,58.46618738840423L69.57182630130222,-43.81919844640974L70.56217258317129,230.53908187958177L70.72723029681615,1.4479263229540977L70.97481686728341,128.06191561759624L71.05734572410583,131.95774045877988L71.22240343775069,45.480537477444365L71.80010543550765,156.6527701618171L71.88263429233007,67.49046892634031L71.96516314915249,111.45546926412044L72.04769200597491,202.04067207416335L72.87298057419913,143.21576305423866L73.12056714466641,196.43359917452563L74.11091342653546,210.9124648492841L74.2759711401803,33.41525339207326L74.52355771064758,88.64547206687892L74.77114428111484,202.03653750442334L75.26631742204938,180.0363461477034L75.3488462788718,127.99890318453924L75.51390399251666,113.26317736468218L75.59643284933908,166.54696782341807L76.0916059902736,156.43505591098778L76.17413484709604,166.75616115007165L76.4217214175633,50.83578592589763L76.751836844853,257.5080553675416L76.83436570167542,75.54853332041692L76.91689455849784,151.3991632194726L76.99942341532027,144.25591213585312L77.41206769943238,77.54105138762701L77.65965426989963,155.48845146974122L77.74218312672205,3.952812994100194L77.82471198354447,213.87669956818092L78.2373562676566,137.6657657695697L78.65000055176871,-5.61508495369166L78.81505826541355,39.32577985734131L78.89758712223598,147.1992884804846L78.9801159790584,98.93259962386855L79.06264483588082,-11.830668455546896L79.22770254952567,169.2943761638336L79.88793340410506,195.77933001682004L80.21804883139474,88.72792492880966L80.30057768821717,230.52972609036237L81.12586625644138,244.62051203808107L81.5385105405535,100.1789338676142L81.70356825419834,33.750206548319035L81.78609711102077,204.30711863847569L81.86862596784319,47.03068308612476L81.95115482466561,136.79855301842713L82.2812702519553,122.1923107912935L82.69391453606742,-19.784149438122807L82.77644339288985,137.9472875630214L83.02402996335711,81.29383601799735L83.43667424746923,-63.86062413697027L83.51920310429165,39.810187108227844L83.84931853158133,87.25265213753663L83.93184738840377,60.22507576165115L84.01437624522619,23.679454807723666L84.17943395887103,97.85186019894104L84.42702052933828,-7.287120858746032L84.75713595662798,76.30457650249217L84.8396648134504,58.50371655989054L85.1697802407401,171.22263612633424L85.25230909756252,39.88906197711433L85.66495338167464,-5.124078293412406L85.83001109531948,123.15062984680344L86.2426553794316,-92.60046896191875L86.32518423625402,145.4827131879424L86.40771309307644,155.63084234107612L86.6552996635437,109.60563360841923L86.73782852036612,127.63837400394016L86.82035737718854,32.305492468009085L87.06794394765582,137.26935064391944L87.15047280447824,139.34133991219005L87.23300166130066,95.17801274515L87.31553051812308,158.20062320458396L87.72817480223519,92.29415035148781L87.89323251588003,115.61834490466572L87.97576137270245,161.5333912070381L88.05829022952489,197.4620468937028L88.1408190863473,132.34858981747243L88.38840565681457,70.67755960458929L88.55346337045941,113.62970962249994L88.80104994092669,220.03414068306716L88.88357879774911,63.08675459843901L89.29622308186123,91.60533368316612L89.37875193868365,158.15410929500877L89.62633850915091,70.00831588340223L89.79139622279575,38.248936469284196L90.20404050690787,144.583059966532L90.36909822055271,59.27542340040393L90.61668479101999,-44.28232326459606L90.78174250466483,-55.73783782427108L90.86427136148725,14.02777881539212L90.94680021830968,49.94086360640129L91.02932907513211,64.68349362765115L91.19438678877695,24.133939435299432L91.27691564559936,211.2033689356074L91.4419733592442,116.05753692493386L91.60703107288904,48.67732849239108L91.68955992971148,262.122291517662L92.01967535700116,193.2503515258427L92.26726192746844,80.3357819990092L92.67990621158054,78.34755752345221L93.01002163887024,52.63766322297986L93.09255049569266,-0.8781932142406217L93.2576082093375,59.30675071728022L93.50519477980478,-30.847409945539805L93.83531020709447,34.48655751682484L93.91783906391689,64.55863492223305L94.08289677756174,105.7101798183661L94.16542563438416,130.4636898299376L94.24795449120658,78.20250303507326L94.330483348029,159.51977623269306L94.6605987753187,209.15736649829887L94.74312763214111,203.1045352985655L94.90818534578595,40.75278949799529L94.99071420260837,86.50789951128989L95.32082962989807,7.869549216853537L95.98106048447745,131.9956671850489L96.31117591176714,59.92195349167307L96.39370476858957,12.159483365947816L96.64129133905683,-71.46733133442831L96.72382019587926,20.97878565792687L96.80634905270168,72.6978534992836L96.97140676634652,131.4628775171085L97.05393562316895,97.70720326534479L97.2189933368138,132.21293087379115L97.38405105045864,56.11080781920325L97.46657990728106,89.89616616140813L97.63163762092591,-31.213796433270584L97.79669533457076,142.20246217228214L98.044281905038,91.16757286011568L98.29186847550528,77.3671079183723L98.62198390279497,80.30509076978522L98.70451275961739,34.53386653596542L99.28221475737435,91.19798580099177L99.4472724710192,93.6270985305564L99.52980132784162,48.4018760352885L99.94244561195373,146.94616535034334L100.27256103924343,54.875578605720854L100.43761875288827,145.91933435394913L100.76773418017797,127.94198659148356L101.18037846429009,93.6411189625594L101.59302274840218,149.26654684684115L101.6755516052246,85.0015379360102L101.75808046204703,82.32663033613197L102.0056670325143,180.92382094093728L102.17072474615914,189.31589761160728L102.33578245980398,115.68630026885421L102.41831131662641,151.33713142154625L102.58336903027126,65.70576599587046L102.83095560073852,71.46013294249632L102.91348445756094,83.8494506794152L102.99601331438338,56.78988439534894L103.16107102802822,100.22399007631952L103.32612874167306,207.75658884738965L103.57371531214034,191.7161876194266L103.73877302578518,160.6992152583374L104.06888845307486,50.74911898327034L104.23394616671972,126.11328759839557L104.5640615940094,157.54365067435606L104.64659045083182,96.9067797176948L104.8941770212991,173.55715732126987L105.05923473494393,120.85241865535386L105.30682130541119,201.7809097791511L105.47187901905605,152.28710182661962L105.63693673270089,74.29300230936495L105.88452330316815,159.47495855685736L106.13210987363543,187.64546517750978L106.21463873045785,160.14029298934793L106.62728301456997,145.02923569914947L107.03992729868207,27.505283503500983L107.37004272597177,38.904345284033504L107.45257158279419,58.129325969201524L107.53510043961661,16.107891453055778L107.70015815326146,-38.81265854968346L107.78268701008389,69.1889819799221L107.86521586690631,-57.09530188160579L108.2778601510184,72.71932145754907L108.52544672148568,79.56494977901774L108.6079755783081,136.24899979048314L108.69050443513052,77.41627219316545L108.77303329195294,34.39273458810906L108.9380910055978,137.63463723008476L109.18567757606506,90.17081025711923L109.43326414653232,64.6723885973879L110.17602385793414,49.603737150676785L110.4236104284014,10.879250951064458L111.00131242615836,121.65769237135271L111.08384128298079,98.36527569713815L111.1663701398032,38.94937498908664L111.4964855670929,56.73645303255487L111.66154328073775,131.8617044751071L111.82660099438257,115.39833808792287L111.90912985120502,124.45667681890973L112.23924527849469,143.60478366093082L112.73441841942923,182.29999657671078L112.89947613307407,128.4065161032354L113.14706270354135,168.40971075773075L113.22959156036377,38.94025773273686L113.47717813083104,101.25017173323533L113.72476470129831,45.302512445754L113.88982241494315,219.7984900856253L114.054880128588,-90.68449344220335L114.46752441270012,86.48192593215389L114.55005326952254,35.60042650697685L114.7976398399898,141.2516701539912L115.1277552672795,180.2074272225227L115.29281298092432,116.92001877416237L115.62292840821402,189.4279948085009L115.9530438355037,-18.18240121864873L116.11810154914856,166.87104123044412L116.20063040597098,251.26213512281032L116.44821697643825,149.16984827186388L116.53074583326067,135.7853979065576L116.77833240372794,39.6916362720285L116.86086126055037,-2.9825301899964356L116.94339011737279,61.33587032815033L117.43856325830733,74.40781613060697L117.85120754241943,135.78606049786208L118.01626525606429,125.2035894928091L118.09879411288671,117.23981184136142L119.25419810840062,219.36314772083625L119.50178467886788,-22.04188955269414L120.07948667662484,92.63920139921402L120.16201553344726,-23.563543735281467L120.24454439026968,80.29833233847943L120.57465981755938,13.335688946026247L120.6571886743818,66.55165655883455L120.9873041016715,16.382522296940785L121.31741952896118,-24.732089759879994L121.3999483857836,42.87822338088606L121.56500609942846,54.538982223039945L121.7300638130733,-14.562161352828564L121.81259266989572,31.956863427238638L121.89512152671814,-21.259978806091606L121.97765038354055,99.63800757845468L122.63788123811993,57.75944099938304L122.96799666540963,100.78618554635318L123.13305437905447,-14.426754193842992L123.38064094952175,-15.099098842335064L123.79328523363385,103.01956880457146L124.28845837456839,157.56336939157768L124.37098723139081,125.5630717791471L124.45351608821325,183.63362059890994L124.61857380185809,91.58871589324951L124.86616037232535,45.427026603693754L125.69144894054958,124.32193225122865L125.85650665419442,116.0121361687502L126.02156436783926,65.70534193743559L126.26915093830654,184.62108041999136L126.5167375087738,120.85554608631105L126.68179522241864,-6.656811002610805L126.76432407924106,172.86164848077283L127.17696836335318,215.12853331975384L127.5896126474653,-32.95126985555639L127.67214150428772,11.401823461089615L127.91972807475499,70.13261801212455L128.0022569315774,98.73058878695565L128.3323723588671,108.26230924952233L128.49743007251195,91.91566494653705L128.99260321344647,215.6997002760503L129.4052474975586,-37.79703859816122L129.7353629248483,74.15801920881425L130.06547835213797,120.51957253945636L130.23053606578281,6.37903682557724L130.56065149307253,40.71563137763949L130.64318034989495,152.9630774754603L131.05582463400705,38.561785579612184L131.2208823476519,133.64801087653382L132.21122862952097,35.54911543635715L132.54134405681066,99.8623344905028L132.62387291363308,150.23931039278898L132.7064017704555,49.3900116995005L132.95398834092276,124.96700464162791L133.1190460545676,41.58577278234791L133.36663262503487,137.85508135708858L133.69674805232458,55.346972563387205L133.86180576596942,115.46404064167609L133.9443346227918,166.65811088883322L134.27445005008153,101.77225392569517L134.35697890690395,112.75049071692001L134.6045654773712,19.43481540020432L134.9346809046609,0.9961450679006505L135.01720976148331,163.23602557853383L135.18226747512819,-85.53470130544633L135.5949117592403,-3.4232329184388104L136.0075560433524,7.8114002039714965L136.17261375699724,6.440313269416473L136.33767147064208,32.581872552937945L136.58525804110937,-11.658951293075273L136.99790232522147,2.49908767204918L137.0804311820439,160.56718731500473L137.24548889568874,47.67416525739325L137.41054660933358,78.11117144966236L137.493075466156,115.89999921637832L137.57560432297845,144.48164374146677L137.82319089344568,133.63405670366126L138.23583517755782,-108.47859495349917L138.40089289120266,-48.4225912898321L138.48342174802508,57.175883585692624L138.81353717531476,85.14979936630287L139.22618145942687,209.87633107097486L139.55629688671658,-57.951952927354796L139.88641231400626,156.8555628564693L139.96894117082869,27.879435561320385L140.3815854549408,-16.488314274980933L140.54664316858566,43.557856533727524L140.7117008822305,166.9179659466281L140.87675859587534,26.256033858015577L141.12434516634258,52.70625467482066L141.20687402316503,75.03213616134961L141.5369894504547,96.07954772586515L142.03216259138924,56.62381251079157L142.19722030503408,167.52538989910624L142.36227801867895,110.94029127305339L142.5273357323238,185.42135819755435L142.6098645891462,143.8624124119426L143.02250887325832,115.36443991678516L143.43515315737042,28.208557914086647L143.6827397278377,-12.349821994440884L143.84779744148256,91.75045443067552L144.0128551551274,167.084117342142L144.09538401194982,241.55789576229358L144.4254994392395,-10.898906059520908L144.6730860097068,24.3343070457772L144.8381437233516,46.483621201485654L144.92067258017403,21.525396980478924L145.00320143699645,29.310182216931686L145.0857302938189,100.64875085797587L145.66343229157584,80.35065054788195L145.8284900052207,123.484960167223L146.07607657568795,121.8603790513962L146.15860543251037,172.0541352061648L146.24113428933282,-45.21456272636124L146.73630743026735,137.88566657170384L147.14895171437945,148.74135047525021L147.3965382848467,-83.2716339567869L147.47906714166913,181.54883006663658L148.13929799624853,46.75106955562999L148.22182685307092,30.887388054487452L148.30435570989337,-9.141183846969891L148.38688456671576,60.650989452177306L148.5519422803606,78.88674782339397L148.96458656447274,-25.153789369709596L149.12964427811758,210.32196347872264L149.21217313494,69.50858952155589L149.8724039895194,45.37046780994249L149.95493284634182,-33.65796323727322L150.2850482736315,20.838289797722815L150.45010598727637,111.99534865901887L150.61516370092122,50.65073742637967L150.6976925577436,58.94598300381151L150.86275027138845,-11.461870135467773L151.4404522691454,-52.081924042617175L151.6055099827903,15.542780581282367L151.6880388396127,72.99917352091346L151.85309655325753,88.24431278748851L151.93562541007995,60.596206403122075L152.01815426690237,214.7643665128931L152.92597169194903,227.07288124022944L153.2560871192387,47.47750815822062L153.33861597606113,1.2824375187446806L153.503673689706,14.228676498913481L153.91631797381808,174.00640747754017L154.57654882839748,95.84654086772821L154.82413539886477,54.94835763460603L154.98919311250958,138.69356414926847L155.15425082615442,98.40083034653708L155.23677968297687,96.11785875509077L155.56689511026656,170.24528744855934L155.7319528239114,130.37890464661507L155.97953939437866,139.11764908779423L156.06206825120108,163.92531931259475L156.22712596484592,105.0320176182206L156.80482796260287,147.8167573171388L156.96988567624774,195.88299905232054L157.05241453307016,43.45353815874862L157.38252996035985,149.58746631925783L157.46505881718227,138.55123953706402L157.71264538764956,120.23408845000381L157.79517424447195,174.46697469329115L157.8777031012944,202.22354064828954L158.04276081493924,36.02649921941609L158.12528967176164,111.52134409161283L158.2903473854065,-18.987555668212774L158.45540509905135,-21.5155270204073L158.53793395587374,19.17253525823501L158.86804938316345,259.95233812502255L159.11563595363071,40.148665250213504L159.44575138092043,170.3267861790116L159.52828023774282,71.61430468722504L159.7758668082101,5.68938529221189L159.94092452185495,108.27283119943763L160.1059822354998,69.72856983464656L160.18851109232222,139.90008990744036L160.27103994914464,103.83380075500702L161.01379966054643,102.58763878500054L161.1788573741913,46.69151584918243L161.42644394465853,16.66112868865273L161.59150165830337,65.31950176900499L161.75655937194827,12.689344380322362L162.33426136970522,142.33806810865906L162.4167902265276,35.778053983884526L162.6643767969949,-30.86370969163026L162.7469056538173,61.70604683814279L162.82943451063974,70.90660416672539L163.24207879475185,105.93092873736998L163.4896653652191,107.65927165147991L163.65472307886398,91.10148600340585L163.90230964933122,115.33483533730055L163.98483850615366,118.20207994104612L164.06736736297606,83.67518916633433L164.39748279026577,123.81913146572947L164.4800116470882,41.99978633304543L164.64506936073303,74.5822631692531L164.8101270743779,116.47208054867497L164.8926559312003,64.69626838800171L165.22277135848998,158.52622057161034L165.3053002153124,137.07742444666087L165.63541564260208,150.1426118178117L165.71794449942453,59.84231001687338L165.88300221306937,88.1801474455617L166.04805992671422,125.45430079060202L166.46070421082632,87.03929773749086L166.54323306764877,121.07167011800959L166.7082907812936,82.74475195291733L166.95587735176085,131.3463542103009L167.53357934951782,65.10959284374256L167.69863706316266,61.952265766891266L168.02875249045238,76.05363992365572L168.11128134727477,142.64038201724566L168.44139677456448,133.95726874199147L168.52392563138687,73.21774914043861L169.01909877232143,108.90222667957266L169.2666853427887,184.34765549228052L169.3492141996111,79.82516263611704L169.43174305643353,108.32040525510001L169.5968007700784,138.71921968457832L169.6793296269008,146.4548671498901L169.76185848372324,152.48142660440044L169.84438734054564,116.23654259175487L170.17450276783535,-2.6940644396736784L170.25703162465777,133.18432948165173L170.4220893383026,93.78345682658994L170.50461819512503,82.90875655260469L170.66967590876988,32.983296868850154L170.91726247923717,-2.62451885635441L170.99979133605956,29.167566064553263L171.32990676334927,99.92616853677737L171.4124356201717,0.03162415778067797L172.0726664747511,56.1010014678968L172.4853107588632,-17.224903776356353L172.98048389979772,46.681179424832386L173.0630127566201,55.621391378054774L173.14554161344256,94.73868820662096L173.55818589755467,101.52679035103381L173.88830132484435,137.13927071902197L174.3834744657789,53.98102733735502L174.7135898930686,104.15747660725037L175.04370532035827,60.01127079951832L175.2087630340031,56.664707646104695L175.37382074764795,35.754942799183915L175.62140731811522,5.13201348687492L176.03405160222735,69.6678499675031L176.44669588633946,93.07311919269841L177.02439788409643,-15.400365856660567L177.51957102503096,74.66108503083522L177.6846287386758,165.49039972927835L177.84968645232067,103.23332075939993L178.0147441659655,62.02599892725491L178.0972730227879,26.38937373213114L178.3448595932552,102.9514411666438L179.08761930465698,16.420793570688126L179.9954367297036,55.231840698319026L180.07796558652606,119.51992103837233L180.32555215699333,176.91373885520738L180.40808101381575,13.013643068391938L180.73819644110543,97.19340346419108L180.82072529792785,55.815027060878926L180.9857830115727,98.45667354167949L181.39842729568483,108.07678368426514L181.6460138661521,109.29258572069989L182.05865815026422,176.0917678383354L182.14118700708661,156.72295183278868L182.22371586390906,118.34753198420776L182.3887735775539,150.33948094620177L182.4713024343763,81.0365385626378L182.8839467184884,163.4658917538875L182.96647557531085,160.2959754422509L183.2140621457781,85.92084361551177L183.29659100260054,112.65075747376818L183.70923528671264,-13.154684903830951L184.20440842764717,155.09219536600403L184.28693728446962,36.232936166242986L184.69958156858172,190.0158723174966L185.0296969958714,1.3559586498908887L185.44234127998354,144.04671880919955L186.10257213456288,87.56017401377652L187.42303384372167,27.94990877246594L187.5055627005441,105.14797109650635L187.9182069846562,94.052044837778L188.99108212334767,196.2223915703064L189.07361098017012,107.28191265174678L189.48625526428222,35.34848278935758L189.65131297792706,112.05927546807607L189.8163706915719,55.913541136030496L189.89889954839435,57.25743532344925L189.98142840521675,54.30577658751165L190.31154383250643,3.0707979532153136L190.4766015461513,40.71475675711756L190.64165925979614,43.807653455520246L190.80671697344098,50.12294369687513L191.05430354390828,60.5549932239828L191.13683240073067,17.56238538102L191.3018901143755,-31.628472575272593L191.46694782802035,-6.303278786187132L191.5494766848428,71.33625487220887L191.63200554166522,22.82953568962828L191.71453439848764,38.62409566588642L191.87959211213249,70.13998602743048L191.9621209689549,42.488619693845955L192.04464982577733,34.01903309237671L192.2922363962446,72.8430935132278L192.952467250824,46.02423339825666L193.28258267811367,27.175021493691L193.3651115349361,16.02970567912596L193.61269810540335,41.304383507157105L194.1078712463379,26.637580434793087L194.1904001031603,37.13262914313166L194.35545781680514,21.56928702848834L194.76810210091728,-60.45106180232574L194.93315981456212,29.273156614836786L195.01568867138454,26.672538752017978L195.34580409867422,39.48199238328787L195.42833295549667,74.92363020932633L195.84097723960878,50.525454662526705L196.00603495325362,81.14424940509569L196.088563810076,94.36301218880124L196.25362152372085,48.1124296498351L196.9963812351227,58.67885269349333L197.0789100919451,89.5250355199372L197.24396780558993,82.20561466027992L197.40902551923477,85.70343415668252L197.65661208970207,61.196514124989996L197.7391409465245,53.93239313560546L198.4819006579263,49.84227002029318L198.97707379886083,102.04712330244979L199.55477579661778,51.273917800078586L199.88489122390746,82.4437764787658L199.96742008072988,11.286824114282334L200.29753550801956,80.72599527004944L201.04029521942138,61.61529833307984L201.3704106467111,111.6069906436312L201.45293950353349,45.23551121304397L201.53546836035594,81.2298562016358L201.94811264446804,72.31532628737544L202.44328578540257,50.877184630602166L202.69087235586986,95.40779940954712L202.77340121269225,77.97324644371973L202.8559300695147,-22.24366185673743L203.10351663998196,21.373875600968155L203.2685743536268,56.85561345275435L203.43363206727165,74.99924512899473L203.51616092409407,57.474049672713114L203.5986897809165,75.51333647032241L203.92880520820617,95.0869329444348L204.093862921851,72.8381638339224L204.34144949231828,75.0980242406681L204.42397834914073,87.51652249863672L204.50650720596312,79.29625575322096L204.83662263325283,96.42872009150528L205.33179577418736,98.49058496464329L205.90949777194433,79.74708287679594L205.99202662876675,135.14720321389893L206.07455548558917,54.50765490616366L206.48719976970128,62.38917847307196L206.56972862652373,101.49894826441914L206.73478634016854,78.11920205627278L207.3950171947479,111.26517304147092L207.56007490839275,125.0130149818117L207.72513262203762,129.2704424015077L207.80766147886004,-8.460039985954193L208.0552480493273,99.73316894160553L208.63295004708428,133.70470218854598L208.88053661755154,64.9157186280488L209.04559433119638,117.25919926293079L209.21065204484123,114.36472215657068L209.62329632895336,108.50381052818284L210.03594061306543,26.65319108592687L210.11846946988786,115.18719674283409L210.2009983267103,81.37292291610127L210.531113754,91.07853384061832L210.61364261082238,26.534004162075213L211.10881575175694,149.419406660787L211.27387346540178,96.23206299233266L211.43893117904662,80.8201097389392L211.6865177495139,71.24031165131872L211.7690466063363,80.6622539865575L211.85157546315875,118.10628249024296L211.93410431998117,135.00502437178147L212.18169089044844,59.20158422543157L212.34674860409328,90.77140951916112L212.75939288820538,90.30004206514695L213.00697945867267,102.59013012830542L213.1720371723175,114.30296864699221L213.50215259960717,105.13721061372144L213.58468145642962,18.914310175049174L213.99732574054173,33.76658580536603L214.3274411678314,131.7468508983868L214.5750277382987,139.93479643996955L214.6575565951211,42.746473725901275L214.82261430876594,124.04205368421208L215.15272973605565,101.09513861981077L215.23525859287807,38.5725460623971L215.4003163065229,126.01540961089631L215.48284516334533,52.81367397710458L215.97801830427986,52.452296679635744L216.0605471611023,64.35585547940694L216.22560487474715,69.95705782008689L216.39066258839196,144.60401110357998L216.63824915885925,135.63294889922054L216.7207780156817,80.99789623775995L216.88583572932654,125.40047187302525L217.13342229979378,127.54066829018007L217.4635377270835,104.09935409802051L217.62859544072833,150.59748074834408L217.71112429755073,79.63855042112048L217.8761820111956,129.25190309680806L217.95871086801802,60.806433372210655L218.53641286577496,33.73880997788181L218.7014705794198,168.8887775227031L218.9490571498871,81.04268740994347L219.11411486353194,102.67527311093238L219.19664372035436,145.58579914309496L219.27917257717678,164.19993690465367L219.77434571811133,138.20870633629488L220.59963428633552,135.43093806230763L220.76469199998036,90.07059994822816L221.1773362840925,88.67287684323263L221.34239399773733,109.53088005744667L221.67250942502704,53.20240304362276L221.75503828184944,98.11610161117164L221.8375671386719,72.9557340349911L222.00262485231673,74.04201272322415L222.16768256596157,92.0626542015251L222.250211422784,73.21753711122118L222.58032685007367,-21.642081959564887L223.0754999910082,147.74372650355792L223.24055770465307,83.02433897975992L223.4056154182979,111.19163865849862L223.7357308455876,122.10152253075228L224.47849055698939,164.9196170759385L224.56101941381183,98.0641942083779L224.64354827063423,73.386921952301L224.9736636979239,114.48754008077094L225.38630798203604,141.036924312206L225.46883683885846,109.0531384750833L225.5513656956809,146.42141954083945L225.8814811229706,148.02030536587813L225.964009979793,79.85089768238343L226.21159655026028,99.65781905845893L226.37665426390512,137.32366987906153L226.6242408343724,135.76964148533682L227.03688511848452,127.83155912467726L227.20194283212933,118.96734639407987L227.36700054577418,100.46260245689245L227.44952940259662,142.80163023710634L227.8621736867087,163.2370989764471L228.02723140035357,155.69195976300227L228.43987568446568,152.02773708639006L228.68746225493294,184.6924812589632L228.85251996857778,108.98034619437203L229.01757768222262,180.00577418491423L229.43022196633476,112.90435766964868L229.67780853680202,110.76420100797213L229.84286625044686,119.1081337944579L230.0079239640917,134.7107278179792L230.09045282091415,125.26678745143136L230.3380393913814,211.60638347065037L230.4205682482038,205.702449788862L230.50309710502626,54.62641777158044L230.7506836754935,178.08135725197963L230.83321253231594,116.68118111254591L230.91574138913833,75.9463531396327L231.57597224371773,136.08682394279617L231.65850110054018,146.14882947817227L231.74102995736257,145.3374731739982L231.9060876710074,47.41299826881548L231.98861652782986,120.52356133910939L232.31873195511955,100.10117215211926L232.4837896687644,194.5737848937788L233.22654938016618,150.8510411887463L233.63919366427828,141.7860102855841L233.72172252110073,157.1342222554856L233.80425137792312,149.41739238322134L233.96930909156802,193.09928070841897L234.3819533756801,166.84350393582952L234.46448223250252,148.74936783003454L234.54701108932497,159.20549592514737L234.62953994614736,49.559449547884675L234.7945976597922,150.12384723206856L234.95965537343704,190.84464152115265L235.28977080072676,26.467639017017497L235.61988622801644,39.18910052305112L235.70241508483886,47.32945875714538L235.86747279848373,77.32183968044954L236.11505936895097,78.7492733795384L236.2801170825958,73.82632600178657L236.85781908035278,0.5420844987597577L237.2704633644649,112.71975973221777L237.51804993493215,54.50534908842403L237.93069421904428,146.32608590394943L238.17828078951155,108.78406014632992L238.26080964633397,150.20439183104236L238.3433385031564,182.26608515374699L238.67345393044607,136.45351522252702L239.00356935773576,209.4711498623662L239.99391563960484,219.28084725490555L240.32403106689452,25.18268895204617L240.65414649418423,35.77365437762271L240.98426192147392,19.59481794841256L241.0667907782963,42.89041506088868L241.39690620558602,57.269043923103915L241.47943506240844,35.70440033447742L241.56196391923086,54.65697648254352L241.64449277605328,87.86340229836331L241.974608203343,117.59559686822035L242.22219477381023,77.27312596774344L242.46978134427752,74.5276921494153L242.63483905792236,99.54226313495587L242.7998967715672,157.4173342680681L243.13001219885692,98.85221404680783L243.54265648296902,85.2144682776211L243.62518533979144,110.04274509199126L243.70771419661386,77.94695482075757L243.8727719102587,56.6127339841805L243.9553007670811,91.66483438230932L244.120358480726,80.60749744115445L244.28541619437084,30.225909903389017L244.36794505119323,2.2950095502662666L244.45047390801565,-9.183669201413789L245.11070476259502,25.096976140897347L245.27576247623986,19.502638246131916L245.52334904670715,57.980401947604356L245.60587790352957,43.23618170722373L245.688406760352,62.922246429360236L245.77093561717442,31.324168242407247L245.93599333081926,39.88307215172174L246.1010510444641,30.61241266312411L246.3486376149314,197.35739722307164L246.84381075586592,-61.84875840366908L246.92633961268834,46.75162613232576L247.17392618315563,17.042940301952036L247.83415703773497,26.817487225788206L249.31967646053857,81.25368298494526L249.40220531736102,60.66707716905032L249.81484960147313,77.4824783163101L249.89737845829555,108.5440033167132L250.06243617194042,26.40864188726571L250.22749388558526,48.635134678121155L250.31002274240765,69.60238594661949L250.55760931287494,66.87908267786132L250.8877247401646,124.40649215350766L250.97025359698705,79.89725257004555L251.1353113106319,83.68213312320539L251.30036902427673,85.78318364609093L251.38289788109915,70.49577105428942L251.79554216521126,107.8012914716843L251.87807102203368,85.57433486691569L252.12565759250097,134.55801377412035L252.20818644932336,48.94506838670939L252.53830187661308,97.48396300303602L252.6208307334355,78.08991552061433L252.70335959025792,80.08770781460815L253.19853273119244,114.69222778655399L253.36359044483729,88.16172740729688L253.44611930165973,174.80653948501617L253.52864815848213,153.21242383516596L254.60152329717366,175.58414338813952L254.68405215399605,144.2212453588022L254.84910986764092,180.5718524399922L255.261754151753,216.98370946136924L255.67439843586513,169.13661317423453L255.83945614950997,193.4424765004926L256.3346292904445,137.40352538307866L256.49968700408937,139.07797312048137L256.6647447177342,120.4738007321422L256.82980243137905,191.39225998248753L256.9123312882015,97.21084286732525L257.0773890018463,175.0719338061166L257.4900332859584,207.75864950634661L257.57256214278084,2.8620551886487906L257.65509099960326,30.539898670760728L257.7376198564257,-6.432669616127935L257.98520642689294,4.203776076588818L258.0677352837154,-65.88820653601397L258.4803795678275,-20.178788819077038L258.5629084246499,39.68872087028874L258.8930238519396,-34.052549610923094L258.97555270876205,18.150633941146204L259.38819699287416,14.687136674316188L259.553254706519,80.86331069199194L259.9658989906311,47.07420208300366L260.0484278474535,1.5861163654185277L260.21348556109837,109.54784239484161L260.3785432747432,71.15253155529989L260.46107213156563,84.02180392953913L260.62612984521047,80.09295553773971L260.7911875588553,55.66984005423908L261.2038318429674,57.86444846931861L261.4514184134347,3.9710740104519378L261.6164761270795,27.115759327417415L261.699004983902,-11.323971633177319L263.01946669306074,221.61868140636363L263.10199554988316,116.50389818311658L263.51463983399526,-99.22259198455686L263.6796975476401,-76.89493475333188L264.0923418317522,5.956780639051866L264.1748706885747,200.8681239980857L265.0826881136213,203.43734828489778L265.4953323977334,125.74279304457696L265.7429189682007,184.74914606732318L266.980851820537,-21.13284078658607L267.14590953418184,38.51712692568956L267.6410826751164,141.5717812650164L268.21878467287337,128.33274318739348L268.3838423865182,140.9360911674887L268.46637124334063,154.38817885315734L268.6314289569855,115.75232086643359L268.87901552745274,90.64064049930698L269.2091309547424,147.29338969754826L269.4567175252097,165.86844782396815L269.5392463820321,61.95311388376101L269.70430409567695,180.6818956038419L269.8693618093218,215.2864288276138L269.95189066614427,151.37568098364147L270.4470638070788,160.12118385612644L270.5295926639012,119.96538117238094L270.69465037754605,135.1351573039833L270.8597080911909,180.57076579025284L271.10729466165816,119.36972484147054L271.6849966594151,190.86339285506972L272.0976409435272,195.47163586684098L272.3452275139945,147.99038274256736" fill="none"></path></g></g></g></g></g></g><g transform="translate(41, 177)" clip-path="url(#clip_1)"><clipPath id="clip_1"><rect width="288" height="22"></rect></clipPath><g><g><line x1="0" y1="0" x2="0" y2="5" style="visibility: inherit;" fill="rgb(0, 0, 0)" stroke="rgb(204, 204, 204)" stroke-width="1px"></line><line x1="41.264428411211284" y1="0" x2="41.264428411211284" y2="5" style="visibility: inherit;" fill="rgb(0, 0, 0)" stroke="rgb(204, 204, 204)" stroke-width="1px"></line><line x1="82.52885682242257" y1="0" x2="82.52885682242257" y2="5" style="visibility: inherit;" fill="rgb(0, 0, 0)" stroke="rgb(204, 204, 204)" stroke-width="1px"></line><line x1="123.79328523363385" y1="0" x2="123.79328523363385" y2="5" style="visibility: inherit;" fill="rgb(0, 0, 0)" stroke="rgb(204, 204, 204)" stroke-width="1px"></line><line x1="165.05771364484514" y1="0" x2="165.05771364484514" y2="5" style="visibility: inherit;" fill="rgb(0, 0, 0)" stroke="rgb(204, 204, 204)" stroke-width="1px"></line><line x1="206.32214205605644" y1="0" x2="206.32214205605644" y2="5" style="visibility: inherit;" fill="rgb(0, 0, 0)" stroke="rgb(204, 204, 204)" stroke-width="1px"></line><line x1="247.5865704672677" y1="0" x2="247.5865704672677" y2="5" style="visibility: inherit;" fill="rgb(0, 0, 0)" stroke="rgb(204, 204, 204)" stroke-width="1px"></line><line x1="288.850998878479" y1="0" x2="288.850998878479" y2="5" style="visibility: inherit;" fill="rgb(0, 0, 0)" stroke="rgb(204, 204, 204)" stroke-width="1px"></line></g><g transform="translate(0, 8)"><text style="text-anchor: middle; visibility: hidden; font-family: Roboto, sans-serif; font-size: 12px; font-weight: 200;" x="0" y="0" dx="0em" dy="0.95em" fill="rgb(50, 49, 63)" stroke="none" stroke-width="1px">-500</text><text style="text-anchor: middle; visibility: inherit; font-family: Roboto, sans-serif; font-size: 12px; font-weight: 200;" x="41.264428411211284" y="0" dx="0em" dy="0.95em" fill="rgb(50, 49, 63)" stroke="none" stroke-width="1px">0</text><text style="text-anchor: middle; visibility: inherit; font-family: Roboto, sans-serif; font-size: 12px; font-weight: 200;" x="82.52885682242257" y="0" dx="0em" dy="0.95em" fill="rgb(50, 49, 63)" stroke="none" stroke-width="1px">500</text><text style="text-anchor: middle; visibility: inherit; font-family: Roboto, sans-serif; font-size: 12px; font-weight: 200;" x="123.79328523363385" y="0" dx="0em" dy="0.95em" fill="rgb(50, 49, 63)" stroke="none" stroke-width="1px">1k</text><text style="text-anchor: middle; visibility: inherit; font-family: Roboto, sans-serif; font-size: 12px; font-weight: 200;" x="165.05771364484514" y="0" dx="0em" dy="0.95em" fill="rgb(50, 49, 63)" stroke="none" stroke-width="1px">1.5k</text><text style="text-anchor: middle; visibility: inherit; font-family: Roboto, sans-serif; font-size: 12px; font-weight: 200;" x="206.32214205605644" y="0" dx="0em" dy="0.95em" fill="rgb(50, 49, 63)" stroke="none" stroke-width="1px">2k</text><text style="text-anchor: middle; visibility: inherit; font-family: Roboto, sans-serif; font-size: 12px; font-weight: 200;" x="247.5865704672677" y="0" dx="0em" dy="0.95em" fill="rgb(50, 49, 63)" stroke="none" stroke-width="1px">2.5k</text><text style="text-anchor: middle; visibility: hidden; font-family: Roboto, sans-serif; font-size: 12px; font-weight: 200;" x="288.850998878479" y="0" dx="0em" dy="0.95em" fill="rgb(50, 49, 63)" stroke="none" stroke-width="1px">3k</text></g><line x1="0" y1="0" x2="288.850998878479" y2="0" fill="rgb(0, 0, 0)" stroke="rgb(204, 204, 204)" stroke-width="1px"></line></g></g></g></g></svg>