<svg viewBox="0 0 330 200" xmlns="http://www.w3.org/2000/svg"><g><g><g><g><g><line x1="61.91500186920166" y1="177.86299896240234" x2="56.91500186920166" y2="177.86299896240234" style="visibility: inherit;" fill="rgb(0, 0, 0)" stroke="rgb(204, 204, 204)" stroke-width="1px"></line><line x1="61.91500186920166" y1="160.07669906616212" x2="56.91500186920166" y2="160.07669906616212" style="visibility: inherit;" fill="rgb(0, 0, 0)" stroke="rgb(204, 204, 204)" stroke-width="1px"></line><line x1="61.91500186920166" y1="142.29039916992187" x2="56.91500186920166" y2="142.29039916992187" style="visibility: inherit;" fill="rgb(0, 0, 0)" stroke="rgb(204, 204, 204)" stroke-width="1px"></line><line x1="61.91500186920166" y1="124.50409927368163" x2="56.91500186920166" y2="124.50409927368163" style="visibility: inherit;" fill="rgb(0, 0, 0)" stroke="rgb(204, 204, 204)" stroke-width="1px"></line><line x1="61.91500186920166" y1="106.71779937744141" x2="56.91500186920166" y2="106.71779937744141" style="visibility: inherit;" fill="rgb(0, 0, 0)" stroke="rgb(204, 204, 204)" stroke-width="1px"></line><line x1="61.91500186920166" y1="88.93149948120119" x2="56.91500186920166" y2="88.93149948120119" style="visibility: inherit;" fill="rgb(0, 0, 0)" stroke="rgb(204, 204, 204)" stroke-width="1px"></line><line x1="61.91500186920166" y1="71.14519958496093" x2="56.91500186920166" y2="71.14519958496093" style="visibility: inherit;" fill="rgb(0, 0, 0)" stroke="rgb(204, 204, 204)" stroke-width="1px"></line><line x1="61.91500186920166" y1="53.35889968872071" x2="56.91500186920166" y2="53.35889968872071" style="visibility: inherit;" fill="rgb(0, 0, 0)" stroke="rgb(204, 204, 204)" stroke-width="1px"></line><line x1="61.91500186920166" y1="35.57259979248046" x2="56.91500186920166" y2="35.57259979248046" style="visibility: inherit;" fill="rgb(0, 0, 0)" stroke="rgb(204, 204, 204)" stroke-width="1px"></line><line x1="61.91500186920166" y1="17.78629989624025" x2="56.91500186920166" y2="17.78629989624025" style="visibility: inherit;" fill="rgb(0, 0, 0)" stroke="rgb(204, 204, 204)" stroke-width="1px"></line><line x1="61.91500186920166" y1="0" x2="56.91500186920166" y2="0" style="visibility: inherit;" fill="rgb(0, 0, 0)" stroke="rgb(204, 204, 204)" stroke-width="1px"></line></g><g transform="translate(51.91500186920166, 0)"><text style="text-anchor: end; visibility: hidden; font-family: Roboto, sans-serif; font-size: 12px; font-weight: 200;" x="0" y="177.86299896240234" dx="0em" dy="0.3em" fill="rgb(50, 49, 63)" stroke="none" stroke-width="1px">8e-3</text><text style="text-anchor: end; visibility: inherit; font-family: Roboto, sans-serif; font-size: 12px; font-weight: 200;" x="0" y="160.07669906616212" dx="0em" dy="0.3em" fill="rgb(50, 49, 63)" stroke="none" stroke-width="1px">0.01</text><text style="text-anchor: end; visibility: hidden; font-family: Roboto, sans-serif; font-size: 12px; font-weight: 200;" x="0" y="142.29039916992187" dx="0em" dy="0.3em" fill="rgb(50, 49, 63)" stroke="none" stroke-width="1px">0.012</text><text style="text-anchor: end; visibility: inherit; font-family: Roboto, sans-serif; font-size: 12px; font-weight: 200;" x="0" y="124.50409927368163" dx="0em" dy="0.3em" fill="rgb(50, 49, 63)" stroke="none" stroke-width="1px">0.014</text><text style="text-anchor: end; visibility: hidden; font-family: Roboto, sans-serif; font-size: 12px; font-weight: 200;" x="0" y="106.71779937744141" dx="0em" dy="0.3em" fill="rgb(50, 49, 63)" stroke="none" stroke-width="1px">0.016</text><text style="text-anchor: end; visibility: inherit; font-family: Roboto, sans-serif; font-size: 12px; font-weight: 200;" x="0" y="88.93149948120119" dx="0em" dy="0.3em" fill="rgb(50, 49, 63)" stroke="none" stroke-width="1px">0.018</text><text style="text-anchor: end; visibility: hidden; font-family: Roboto, sans-serif; font-size: 12px; font-weight: 200;" x="0" y="71.14519958496093" dx="0em" dy="0.3em" fill="rgb(50, 49, 63)" stroke="none" stroke-width="1px">0.02</text><text style="text-anchor: end; visibility: inherit; font-family: Roboto, sans-serif; font-size: 12px; font-weight: 200;" x="0" y="53.35889968872071" dx="0em" dy="0.3em" fill="rgb(50, 49, 63)" stroke="none" stroke-width="1px">0.022</text><text style="text-anchor: end; visibility: hidden; font-family: Roboto, sans-serif; font-size: 12px; font-weight: 200;" x="0" y="35.57259979248046" dx="0em" dy="0.3em" fill="rgb(50, 49, 63)" stroke="none" stroke-width="1px">0.024</text><text style="text-anchor: end; visibility: inherit; font-family: Roboto, sans-serif; font-size: 12px; font-weight: 200;" x="0" y="17.78629989624025" dx="0em" dy="0.3em" fill="rgb(50, 49, 63)" stroke="none" stroke-width="1px">0.026</text><text style="text-anchor: end; visibility: hidden; font-family: Roboto, sans-serif; font-size: 12px; font-weight: 200;" x="0" y="0" dx="0em" dy="0.3em" fill="rgb(50, 49, 63)" stroke="none" stroke-width="1px">0.028</text></g><line x1="61.91500186920166" y1="0" x2="61.91500186920166" y2="177.86299896240234" fill="rgb(0, 0, 0)" stroke="rgb(204, 204, 204)" stroke-width="1px"></line></g></g><g transform="translate(61, 0)" clip-path="url(#clip_0)"><clipPath id="clip_0"><rect width="268" height="177"></rect></clipPath><g><g><g><line x1="0" y1="0" x2="0" y2="177.86299896240234" fill="rgb(0, 0, 0)" stroke="rgb(60, 60, 60)" stroke-width="1px" opacity="0.25"></line><line x1="38.29785687582833" y1="0" x2="38.29785687582833" y2="177.86299896240234" fill="rgb(0, 0, 0)" stroke="rgb(60, 60, 60)" stroke-width="1px" opacity="0.25"></line><line x1="76.59571375165666" y1="0" x2="76.59571375165666" y2="177.86299896240234" fill="rgb(0, 0, 0)" stroke="rgb(60, 60, 60)" stroke-width="1px" opacity="0.25"></line><line x1="114.89357062748499" y1="0" x2="114.89357062748499" y2="177.86299896240234" fill="rgb(0, 0, 0)" stroke="rgb(60, 60, 60)" stroke-width="1px" opacity="0.25"></line><line x1="153.19142750331332" y1="0" x2="153.19142750331332" y2="177.86299896240234" fill="rgb(0, 0, 0)" stroke="rgb(60, 60, 60)" stroke-width="1px" opacity="0.25"></line><line x1="191.48928437914168" y1="0" x2="191.48928437914168" y2="177.86299896240234" fill="rgb(0, 0, 0)" stroke="rgb(60, 60, 60)" stroke-width="1px" opacity="0.25"></line><line x1="229.78714125496998" y1="0" x2="229.78714125496998" y2="177.86299896240234" fill="rgb(0, 0, 0)" stroke="rgb(60, 60, 60)" stroke-width="1px" opacity="0.25"></line><line x1="268.08499813079834" y1="0" x2="268.08499813079834" y2="177.86299896240234" fill="rgb(0, 0, 0)" stroke="rgb(60, 60, 60)" stroke-width="1px" opacity="0.25"></line></g><g><line x1="0" y1="177.86299896240234" x2="268.08499813079834" y2="177.86299896240234" fill="rgb(0, 0, 0)" stroke="rgb(60, 60, 60)" stroke-width="1px" opacity="0.25"></line><line x1="0" y1="160.07669906616212" x2="268.08499813079834" y2="160.07669906616212" fill="rgb(0, 0, 0)" stroke="rgb(60, 60, 60)" stroke-width="1px" opacity="0.25"></line><line x1="0" y1="142.29039916992187" x2="268.08499813079834" y2="142.29039916992187" fill="rgb(0, 0, 0)" stroke="rgb(60, 60, 60)" stroke-width="1px" opacity="0.25"></line><line x1="0" y1="124.50409927368163" x2="268.08499813079834" y2="124.50409927368163" fill="rgb(0, 0, 0)" stroke="rgb(60, 60, 60)" stroke-width="1px" opacity="0.25"></line><line x1="0" y1="106.71779937744141" x2="268.08499813079834" y2="106.71779937744141" fill="rgb(0, 0, 0)" stroke="rgb(60, 60, 60)" stroke-width="1px" opacity="0.25"></line><line x1="0" y1="88.93149948120119" x2="268.08499813079834" y2="88.93149948120119" fill="rgb(0, 0, 0)" stroke="rgb(60, 60, 60)" stroke-width="1px" opacity="0.25"></line><line x1="0" y1="71.14519958496093" x2="268.08499813079834" y2="71.14519958496093" fill="rgb(0, 0, 0)" stroke="rgb(60, 60, 60)" stroke-width="1px" opacity="0.25"></line><line x1="0" y1="53.35889968872071" x2="268.08499813079834" y2="53.35889968872071" fill="rgb(0, 0, 0)" stroke="rgb(60, 60, 60)" stroke-width="1px" opacity="0.25"></line><line x1="0" y1="35.57259979248046" x2="268.08499813079834" y2="35.57259979248046" fill="rgb(0, 0, 0)" stroke="rgb(60, 60, 60)" stroke-width="1px" opacity="0.25"></line><line x1="0" y1="17.78629989624025" x2="268.08499813079834" y2="17.78629989624025" fill="rgb(0, 0, 0)" stroke="rgb(60, 60, 60)" stroke-width="1px" opacity="0.25"></line><line x1="0" y1="0" x2="268.08499813079834" y2="0" fill="rgb(0, 0, 0)" stroke="rgb(60, 60, 60)" stroke-width="1px" opacity="0.25"></line></g></g></g><g><g><line x1="0" y1="249.00819854736326" x2="268.08499813079834" y2="249.00819854736326" fill="rgb(0, 0, 0)" stroke="rgb(153, 153, 153)" stroke-width="1.5px"></line></g></g><g><g><line x1="38.29785687582833" y1="0" x2="38.29785687582833" y2="177.86299896240234" fill="rgb(0, 0, 0)" stroke="rgb(153, 153, 153)" stroke-width="1.5px"></line></g></g><g><g><g><g><g><path style="fill: none;" stroke="rgb(255, 112, 67)" stroke-width="2px" d="M44.119131120954236,-37.39229038422558L44.1957268347059,7.374586987479977L44.27232254845755,61.29672580679933L44.42551397596087,65.6135333335315L44.578705403464184,77.55821069565462L44.655301117215835,96.68061554437197L44.80849254471915,81.23229407396103L44.88508825847081,69.95517439274536L45.038279685974125,89.50834418115757L45.191471113477434,102.23558313747685L45.72764110973903,113.85498784876016L45.957428250994,117.85709496208683L46.03402396474566,124.34851216015997L46.18721539224897,135.96692428386885L46.4935982472556,83.03699080054068L46.87657681601388,78.18543257439438L46.95317252976554,102.74084533301512L47.87232109478542,110.88464231648118L47.94891680853707,102.17093249213542L48.2552996635437,126.25896611305286L48.48508680479867,125.47217964932936L48.638278232301985,127.58763945600658L48.791469659805294,111.1558548984489L49.48083108357021,35.750244157446275L49.94040536608014,74.66140663546416L50.32338393483843,91.71925458628185L50.39997964859009,118.41069057907166L50.62976678984506,130.78919808824446L50.782958217348366,130.38914133035556L50.93614964485168,128.6583397866918L51.39572392736163,126.1988655488848L51.47231964111328,123.31877235494352L52.16168106487819,117.05723029073603L52.314872492381504,131.31530456556035L52.46806391988481,129.66361586678352L52.69785106113979,136.99721758452154L53.3872124849047,131.8995000034737L53.61699962615967,126.75285541587539L53.693595339911326,114.18051354015111L53.846786767414635,123.82876203423125L54.07657390866961,128.76477059623542L54.6127439049312,130.58510859284522L54.76593533243452,132.49596282524757L54.842531046186174,100.52447235845341L55.1489139011928,105.79791920284119L55.22550961494446,35.515155839194755L55.302105328696115,47.21352816247685L55.37870104244777,51.45778482106819L55.60848818370274,61.028323465034276L55.6850838974544,49.9705248596357L55.99146675246102,79.53089621703144L56.06806246621268,77.0794196845291L56.14465817996434,102.5207430559319L56.52763674872262,120.08173399265752L56.68082817622594,106.76524368340151L56.757423889977595,125.65925288822429L57.06380674498422,113.04673633354516L57.446785313742495,98.79044669286786L57.52338102749416,113.56291155581377L57.67657245499747,137.11720254186352L57.829763882500785,149.61467075479476L57.90635959625244,161.1481935827235L57.982955310004094,162.83493587557538L58.21274245125907,141.3615510915929L58.365933878762384,141.3020676823896L58.59572102001736,143.05179285298976L58.74891244752067,129.07867211795292L58.97869958877563,124.62559608716546L59.05529530252729,125.01104613630541L59.361678157533916,127.94605973923902L59.43827387128558,134.50063438767975L59.51486958503723,123.1438297279857L59.59146529878889,134.16200045077764L59.82125244004386,146.09416702489875L59.897848153795515,137.0642576732895L60.2808267225538,135.8284326673081L60.893592432567054,131.84703514554596L61.04678386007036,145.70920913249688L61.12337957382202,151.69848903747234L61.27657100132533,151.4525159576339L61.42976242882865,151.66761139911296L61.506358142580304,149.06099812854393L61.73614528383528,137.754085534634L61.81274099758693,110.89208964371964L61.889336711338586,131.0433577463434L62.0425281388419,147.80542374709378L62.50210242135184,127.97531308487105L62.5786981351035,135.91523696988045L62.65529384885515,132.93323391487644L63.03827241761344,131.41013868862674L63.19146384511675,133.59072871493217L63.2680595588684,143.76271569392134L63.421250986371724,137.23364110373512L64.1872081238883,120.93790081905475L64.3403995513916,142.94165188106484L64.57018669264657,148.5004181904572L64.79997383390155,124.73584601845248L64.95316526140486,145.95590860051348L65.18295240265982,158.0870685993603L65.33614383016314,154.91709396868757L65.48933525766645,142.11173527759692L65.64252668516977,134.55623453688295L65.87231382642473,119.45516930140475L65.94890954017639,121.20271289304532L66.1021009676797,130.36081660307383L66.63827096394131,134.41272392869445L66.71486667769295,152.29365554094662L66.79146239144461,154.12208270308412L66.86805810519627,163.97478614572333L67.63401524271283,169.87007202269467L67.86380238396781,159.36295825890787L67.94039809771947,153.0586900006358L68.24678095272608,161.08977089246793L68.62975952148437,152.1189899440001L68.78295094898769,133.4141790055395L68.93614237649099,149.33712148846092L69.16592951774598,141.93582483579362L69.39571665900094,155.4125824896025L69.85529094151087,159.8745508735451L69.93188665526253,163.1651191781292L70.08507808276586,149.16313813797385L70.16167379651752,139.05513419125356L70.62124807902744,135.24028648996497L70.69784379277911,138.57685092935526L70.92763093403407,150.70838275438L71.2340137890407,154.52579898239136L71.31060950279236,156.9381920228765L71.38720521654402,164.51474980969994L71.46380093029568,158.53488159805752L71.84677949905397,159.81050011246333L72.07656664030893,151.82159232679388L72.15316235406058,147.06110555818185L72.22975806781223,163.42551384235568L72.61273663657052,158.96301700927432L72.9957152053288,139.93629381330925L73.14890663283212,146.276504252844L73.22550234658377,162.1850985952052L73.30209806033542,149.9545282436458L73.37869377408708,140.54216923504782L73.5318852015904,127.04835754098828L74.14465091160366,114.1987531466632L74.45103376661028,127.24606781678227L74.52762948036195,118.2806957035986L75.2935866178785,126.71137930352072L75.6765651866368,136.2916902023572L75.82975661414011,154.87637734997824L75.90635232789175,161.89871905149124L75.98294804164341,166.33068644009808L76.05954375539507,175.03219103138463L76.3659266104017,158.52706448997367L76.74890517915999,158.221779319621L76.82550089291165,151.00171960294318L77.05528803416661,153.52500911814636L77.4382666029249,144.588983701722L77.51486231667656,144.60451885589052L77.82124517168317,152.97714359166417L77.89784088543483,163.6234052968564L77.97443659918649,147.40999071120984L78.1276280266898,136.68283709656407L78.35741516794477,149.36477221492171L78.6637980229514,164.97733886682727L78.74039373670306,152.47785344514884L79.04677659170969,164.50721596580976L79.12337230546134,157.6658386612771L79.50635087421963,168.4252659031812L79.65954230172294,174.87494898771376L80.04252087048123,156.42178447125278L80.11911658423288,167.45712702572777L80.19571229798453,162.31473457636727L80.4254994392395,171.46054077967943L80.50209515299116,162.23695536072796L80.5786908667428,165.23597297240522L80.80847800799779,163.19278797067412L80.88507372174944,168.85787623067907L80.9616694355011,152.38468293389693L81.03826514925275,157.23583681029325L81.42124371801104,142.90689396730198L81.57443514551434,143.88987629991044L81.651030859266,147.74537946191523L81.72762657301767,143.11631139423744L81.80422228676933,139.09655161319031L82.03400942802429,154.93836395873902L82.18720085552759,150.30167239155602L82.41698799678258,134.87129633088048L82.49358371053424,123.44856711531511L82.87656227929251,100.3190765379623L82.95315799304417,121.53657421516691L83.18294513429915,131.30692629094162L83.33613656180245,129.8030404323043L83.71911513056074,131.5480229021247L83.87230655806404,150.2870152012039L84.10209369931903,145.80616148066923L84.25528512682233,151.72681733402152L84.33188084057399,164.97946471985313L84.40847655432565,151.35349234524458L84.48507226807732,137.3232289633103L84.63826369558062,127.87340964714582L84.71485940933228,136.209992574626L84.86805083683558,143.3252342283501L85.0212422643389,133.6546210218548L85.09783797809057,149.51440362295287L85.17443369184222,159.03027318361168L85.40422083309718,170.62821402640074L85.63400797435216,167.41057660797784L86.01698654311043,147.0364935340107L86.32336939811707,139.55003864360344L86.39996511186872,130.26635840259195L86.55315653937203,117.58802313941656L86.78294368062701,122.2693574906694L87.08932653563363,146.8571814501371L87.16592224938529,141.03422098770773L87.3191136768886,153.72049036859096L87.39570939064026,133.58245441229786L87.47230510439192,146.2527419823543L87.54890081814357,159.1548929191774L87.85528367315021,128.39673316640287L87.93187938690185,115.16358686716278L88.08507081440517,116.4997388176088L88.16166652815683,109.34967836860524L88.46804938316346,-40.86041580445058L89.08081509317671,31.363236024024857L89.38719794818333,91.07178761836225L89.463793661935,119.53405822938502L89.69358080318996,124.13864617132278L89.77017651694162,119.22405950596875L89.84677223069328,140.0603873195114L89.99996365819658,157.97096817701475L90.07655937194825,168.73920539526063L90.22975079945155,170.11876648516144L90.38294222695487,139.37496835980681L90.45953794070653,154.9158068790161L90.61272936820984,145.24169037272657L90.76592079571316,159.96428251726977L90.99570793696812,169.5490887944612L91.22549507822309,172.02422550950808L91.53187793322971,165.7385659247821L91.60847364698137,161.66239473866375L92.14464364324297,146.06621921608445L92.29783507074629,154.5113384283563L92.37443078449795,149.83624386893368L92.75740935325622,157.16170129658394L93.06379220826285,158.46853829425066L93.21698363576616,152.90640392461958L93.5233664907728,165.54879141183443L93.90634505953108,159.25224035422858L94.28932362828935,163.05163761868204L94.36591934204101,162.39527096098504L94.44251505579268,155.20047135995125L94.67230219704764,165.12862548977844L94.82549362455096,175.8390308099989L94.97868505205426,161.76813789008156L95.05528076580593,171.3371263600823L95.20847219330923,158.6432614549972L95.43825933456421,151.42695550837976L95.51485504831587,149.40716400525275L95.59145076206752,159.86202783205343L95.74464218957084,138.84240942845238L95.89783361707414,145.70031735316445L95.9744293308258,159.97500526408447L96.12762075832913,167.03585501587904L96.28081218583243,152.99398199712127L96.58719504083905,138.57406998440658L96.74038646834238,145.76906390861237L97.046769323349,162.29152382136309L97.12336503710065,167.87437091847573L97.35315217835563,152.72561660512247L97.50634360585894,148.45592064770972L97.7361307471139,163.72388512630468L97.88932217461722,157.87853448224223L98.04251360212054,154.30280884196398L98.2723007433755,126.23160691032183L98.50208788463048,120.77274768734407L98.57868359838213,133.17959676683495L98.96166216714042,124.99263070378463L99.3446407358987,127.20291666035206L99.65102359090533,133.30583815366515L99.72761930465698,139.64633836614078L99.80421501840864,131.963607778553L99.95740644591194,101.57806777977473L100.03400215966361,113.85511768218346L100.11059787341527,124.20914077635666L100.49357644217355,135.52078111421545L100.72336358342852,131.74825972649137L100.79995929718018,141.4889499998236L100.87655501093182,146.37832162231373L100.95315072468348,112.43633329450518L101.10634215218681,127.28630772894033L101.33612929344177,146.8137217118793L101.56591643469673,140.8722244775065L102.25527785846165,136.9002764207955L102.48506499971663,123.80923786438467L103.02123499597822,140.59546434260724L103.09783070972988,146.2964962004292L103.17442642348153,134.52328049325396L103.48080927848817,125.08698265870072L103.63400070599147,127.38975021532967L103.78719213349478,134.22097244404142L103.86378784724646,134.39779803338357L104.17017070225307,123.08082261053815L104.62974498476301,131.55764213645412L104.78293641226632,132.3177613618582L105.0127235535213,114.52452453370717L105.08931926727296,81.15007285246853L105.31910640852792,109.20552817969269L105.54889354978289,113.05980056880786L105.7020849772862,122.0312641552708L105.85527640478952,104.561563679724L106.2382549735478,119.81955037930948L106.31485068729945,119.022472790317L106.54463782855441,115.11100607975015L106.85102068356106,135.5934377871774L107.00421211106436,141.1447606774925L107.310594966071,144.37854441879122L107.38719067982265,156.32823364006566L107.61697782107761,166.4697608910766L107.77016924858094,159.6279134764316L107.8467649623326,153.9554718005257L108.07655210358756,150.87930702166108L108.15314781733922,162.65841682830887L108.38293495859419,152.4948347267747L108.45953067234585,158.22273764778268L108.5361263860975,165.86468468642008L108.99570066860744,160.4588738491112L109.37867923736572,165.7565106183844L109.53187066486905,160.67315225443667L109.60846637862069,154.61685116003173L110.68080637114389,167.7868928676026L110.75740208489555,143.7001891238909L110.91059351239885,144.89513464084692L111.44676350866045,148.86176112615246L111.52335922241211,143.32825335885545L111.59995493616375,148.49865662038576L111.90633779117039,157.61801610572525L111.98293350492204,152.82905427351028L112.28931635992868,134.8905970946014L112.5956992149353,124.72203946112273L112.67229492868695,149.80545983485632L112.82548635619028,148.05476743149202L112.97867778369358,149.3860662500714L113.05527349744524,146.8429205269368L113.1318692111969,155.69860972754418L113.20846492494854,163.4179784113813L113.82123063496181,160.04800457153218L114.12761348996844,157.24504046180294L114.28080491747174,133.8567576090476L114.51059205872673,135.33570630089628L114.89357062748499,151.69977719167366L115.35314490999494,155.31840921028825L115.4297406237466,136.3132200243051L115.50633633749827,156.57113584302957L115.65952776500157,158.81252718861566L115.88931490625653,154.66724640044163L116.65527204377311,144.9143203376306L116.80846347127643,148.97193570241777L116.96165489877973,147.63126175865403L117.19144204003472,119.74376911702014L117.42122918128968,88.24190132574076L117.57442060879298,119.8265904879783L117.65101632254463,112.64695304501913L118.03399489130292,133.50303663751185L118.11059060505458,144.36462138987045L118.34037774630956,139.74858062498407L118.41697346006121,127.9760730142947L118.49356917381287,144.39810067074575L118.72335631506783,147.67722879859727L118.79995202881949,126.42063198119524L119.10633488382612,113.77115128764602L119.25952631132942,103.71950549098827L119.71910059383937,-46.53575008733964L119.87229202134267,-100.78473712228569L120.10207916259766,5.3938478105964895L120.40846201760428,67.96781524364786L120.71484487261091,117.11033635440177L120.86803630011423,126.59224735491036L121.17441915512086,130.03662737838607L121.2510148688725,134.0319692300157L121.63399343763079,129.04275224862624L121.78718486513411,135.3837454112734L122.70633343015399,132.95172384604544L123.01271628516061,147.39445705588554L123.08931199891227,154.29711048132435L123.16590771266392,148.98674150229897L123.3956948539189,144.58586767436228L123.5488862814222,125.9637636926933L123.77867342267717,145.9632654452493L124.0850562776838,139.0795880716012L124.2382477051871,157.93231517512575L124.31484341893876,150.80908437902457L124.6212262739454,136.71653996873562L124.69782198769705,139.9715360846399L124.92760912895203,138.65276722017614L125.23399198395865,129.60747350320534L125.3105876977103,147.7566972673853L125.46377912521363,148.46002656344703L125.61697055271694,165.47055071273L125.84675769397191,165.6382458270156L126.22973626273019,138.89064667287042L126.3829276902335,128.46851437202517L126.5361191177368,133.77300726721506L126.76590625899179,133.55316745046858L127.14888482775008,144.28759199327368L127.22548054150172,104.77028437779255L127.37867196900504,26.346018659548122L127.53186339650836,21.083756419828493L127.60845911026,-10.258989345354554L127.68505482401167,5.772227434313859L127.91484196526663,-31.080069163855022L128.45101196152822,-9.644191005716877L128.52760767527988,44.255495129317076L128.8339905302865,99.47329084485439L129.2169690990448,125.68622185864915L129.52335195405144,147.12458657084684L129.82973480905804,155.7399114447324L129.90633052280972,159.14544071251143L130.289309091568,155.8212055042012L130.4425005190713,157.2724671452587L130.59569194657462,150.05068179728744L130.74888337407793,138.0257637213762L130.9786705153329,116.65375454583567L131.05526622908457,101.43907812295481L131.3616490840912,105.48395565353087L131.82122336660112,75.01999890003744L131.97441479410443,83.60173789753004L132.12760622160775,63.4506202064238L132.28079764911107,78.62197727482628L132.35739336286272,89.77874504883012L132.740371931621,76.13873994713082L133.12335050037927,52.584016689596226L133.35313764163428,76.7457664445086L133.50632906913756,39.6048098762906L133.65952049664088,18.331105107228847L133.73611621039254,-106.38319287457388L133.88930763789585,-22.443505163332386L134.04249906539917,49.146486161879416L134.27228620665414,95.69916672769163L134.42547763415746,117.2891203178184L134.5020733479091,129.08505183242863L134.57866906166078,144.07843997289305L134.65526477541243,153.55682276205778L135.19143477167404,162.15176358061527L135.34462619917736,157.05330550867998L135.5744133404323,146.91120913147748L135.65100905418396,84.82597380827214L135.72760476793562,107.88376063076592L136.18717905044556,139.7484515259999L136.57015761920385,160.49707833731608L136.7999447604588,139.2237180199579L136.87654047421046,151.13118635057512L137.48930618422372,153.6744080495235L137.56590189797538,153.12707299940428L137.64249761172704,169.18726989724007L137.71909332547867,173.7132967136713L137.87228475298198,159.71497757568335L138.25526332174027,171.69885667800267L138.4084547492436,172.40662437969914L138.48505046299525,170.08457569412775L139.0978161730085,152.076624363916L139.17441188676017,156.03471912547798L139.48079474176677,153.94023529876063L139.63398616927012,162.92463240292736L139.78717759677343,172.53838579442035L139.86377331052506,154.85378460958893L140.01696473802838,147.0336596958105L140.32334759303504,163.50455389204032L140.39994330678667,138.58145244270227L140.55313473428998,139.42550757431482L140.70632616179333,139.26925658600973L140.78292187554496,133.89592215858966L140.93611330304827,87.85688812877814L141.01270901679993,28.325985888393586L141.08930473055156,-78.52723150066369L142.23824043682643,-2.645737839045407L142.3148361505781,54.359650307021596L142.4680275780814,77.78143933382702L142.85100614683967,113.12284251273833L143.46377185685293,141.90786808762442L143.69355899810793,150.24263708829108L143.84675042561122,143.79640546449608L143.99994185311454,154.49353651630034L144.0765375668662,145.67751918750582L144.38292042187283,133.08498314109713L144.53611184937614,142.45109261140402L144.76589899063111,151.13482564433252L144.84249470438274,150.4219199474275L144.99568613188606,156.51069906276953L145.53185612814767,167.89586704345965L145.685047555651,161.98968033253237L145.76164326940264,121.49322806387418L146.06802612440924,122.16629273786266L146.14462183816093,132.2364176728513L146.3744089794159,152.5957042515683L146.45100469316753,150.79282037435615L146.52760040691922,157.06958391691194L146.68079183442254,142.5767095403542L146.75738754817417,138.558170551423L146.9105789756775,148.67120885135992L147.0637704031808,163.42131189801088L147.14036611693246,168.52420621341489L147.4467489719391,169.21661568649685L147.67653611319406,173.62810314633376L147.9829189682007,166.08932073283324L148.05951468195232,160.876459384585L148.28930182320732,158.64936649330755L148.4424932507106,166.3837206804871L148.59568467821393,167.50523788960504L148.67228039196561,158.03290464707314L148.74887610571724,157.13668712101585L149.43823752948214,141.99378777616113L149.59142895698548,135.0985683959791L149.82121609824043,148.30999863420055L149.97440752574374,145.34079455949146L150.1275989532471,155.9795428043741L150.6637689495087,157.11350821722098L150.74036466326032,154.06388934952017L150.9701518045153,135.9860772508921L151.04674751826693,116.27947747868399L151.1233432320186,130.84147370154173L151.5063218007769,131.94896900657602L151.73610894203185,134.42731319859445L151.8893003695352,134.93838566846568L152.11908751079014,143.13543144077687L152.1956832245418,143.16655771598468L152.27227893829345,142.1778892949802L152.57866179330009,146.6707556604252L152.65525750705174,151.4961333821491L152.80844893455503,140.9091244251605L152.96164036205838,154.32532399451284L153.03823607581003,158.18952735070454L153.34461893081664,137.44923256755945L153.4212146445683,140.48621992577637L153.72759749957493,128.8469456751228L153.80419321332658,134.43604781447152L153.9573846408299,134.9723862135633L154.11057606833322,146.72737779868865L154.4935546370915,135.2710304289233L154.57015035084316,132.7898578083543L154.72334177834648,134.00756142650658L154.95312891960143,145.9713954614601L155.48929891586303,151.87910085807266L155.64249034336635,159.96125867675283L155.94887319837298,165.28430946362778L156.02546891212464,146.8340980311092L156.33185176713127,145.70681628677468L156.4084474808829,141.61688616700687L156.86802176339287,152.0905648244414L157.09780890464782,157.24108823578933L157.17440461839948,150.28247629957264L157.25100033215114,119.5774382203248L157.40419175965445,126.20273544641083L157.4807874734061,129.57570442315065L157.55738318715777,137.4916088009804L157.63397890090943,133.01305680448104L157.94036175591606,68.89739055931555L158.01695746966772,101.7353017084711L158.170148897171,126.5290454953175L158.2467446109227,129.00578337624344L158.39993603842598,137.90088894204072L158.62972317968098,147.011038709459L158.7063188934326,158.10317477155175L159.01270174843927,161.69105291084497L159.0892974621909,159.56658065019894L159.70206317220416,155.9704423994002L160.08504174096245,149.61458094367248L160.54461602347237,130.12111913782837L160.62121173722403,100.07602695142876L160.6978074509757,97.78907986244417L161.08078601973398,58.839317950208866L161.38716887474058,16.665212344224713L161.84674315725056,9.888577598870073L162.15312601225716,27.801545431155297L162.4595088672638,37.92734504708861L162.6127002947671,54.442056833496935L162.7658917222704,58.5009249112173L162.9956788635254,73.14908892673057L163.3786574322837,114.29069738558819L163.76163600104195,139.9722859197253L164.29780599730356,152.3970967655673L164.75738027981347,148.70837031816006L164.9105717073168,160.90474276837233L165.06376313482014,172.5602235262999L165.21695456232345,153.93316026947284L165.29355027607508,166.29631327242677L165.52333741733005,176.7168303332781L166.21269884109498,162.88571652939322L167.05525169236319,168.28792240278432L167.13184740611484,172.43050261918623L167.36163454736985,177.86143474531147L167.43823026112148,169.92491097354133L167.74461311612808,175.64820428146788L167.82120882987977,150.72536787905315L167.97440025738308,143.4352666374224L168.35737882614137,152.23319304300898L168.58716596739634,141.49915121214295L168.97014453615463,165.3418388495116L169.04674024990626,170.30903866949453L169.12333596365792,142.4594357256526L169.27652739116124,124.27244652372617L169.3531231049129,137.15154792176148L169.73610167367116,154.87001929416095L169.81269738742284,157.8784380650522L170.0424845286778,159.5574545226034L170.11908024242945,149.86124188501165L170.50205881118774,130.8464182544079L170.96163309369769,128.39782579762016L171.03822880744934,134.68062747381936L171.42120737620763,152.9179564835123L171.72759023121424,162.29253697055694L172.11056879997253,164.92211415588025L172.72333450998576,147.5842668526683L173.94886593001232,140.37134589559935L174.02546164376395,125.00270189638056L174.40844021252224,128.00633169060245L175.40418449129376,141.00163797023262L175.48078020504542,150.71051360494258L175.8637587738037,151.1647281014858L176.01695020130703,154.4797866198036L176.17014162881034,146.7477624900131L176.246737342562,149.57870839356752L176.32333305631366,151.20066712907504L176.62971591132026,147.69978734959358L176.7829073388236,154.16471973217713L176.93609876632692,150.22349829778867L177.0892901938302,145.9276265154369L177.3190773350852,144.65386447813165L177.39567304883684,144.80216112985732L177.54886447634016,126.70943163533988L177.70205590384347,123.09066917357332L177.77865161759513,115.05560454412488L177.8552473313468,131.8742577591854L177.93184304509845,133.8997290516217L178.08503447260173,104.63899888471907L178.16163018635342,98.48695642511115L178.23822590010505,92.9734789696511L178.46801304136002,114.33043994288411L179.0807787513733,133.85231984234994L179.38716160637992,143.92634929072128L179.46375732013158,122.01293227009383L179.69354446138655,116.48793538265714L180.1531187438965,127.71409313348872L180.22971445764813,139.5742623070001L180.38290588515144,125.21389787328197L180.76588445390973,147.1961125248331L180.91907588141305,136.07758358967916L180.9956715951647,124.53949456423832L181.30205445017134,131.58913135814538L181.378650163923,135.03956691623546L181.7616287326813,134.24139429595238L181.9148201601846,131.1470241898301L181.99141587393623,126.83944376128308L182.14460730143955,116.50277601901344L182.83396872520447,122.26659456534927L182.91056443895613,127.05401734630549L183.06375586645942,105.01470438318681L183.21694729396273,100.04908479595683L183.4467344352177,95.32262542150487L183.5233301489694,114.75506535082856L184.2126915727343,134.42475129735868L184.67226585524423,129.77027626618099L185.2084358515058,121.55222738718L185.51481870651244,132.81893281560224L185.5914144202641,114.57295239268208L185.89779727527073,106.52481730598683L186.58715869903563,122.47534620060163L186.8935415540423,116.8843255060308L186.97013726779392,131.67860242752982L187.0467329815456,139.2281108380576L187.42971155030386,132.67748702495356L187.8892858328138,136.9008950710144L188.11907297406879,128.985146176409L188.19566868782042,104.35431676572819L188.2722644015721,112.987283573212L188.50205154282708,120.29632069241995L188.6552429703304,125.77472707617925L188.80843439783368,121.54908541508388L188.88503011158537,124.51593812186799L188.961625825337,122.55348889939638L189.26800868034363,128.0381728422123L189.42120010784691,126.88838242207959L189.65098724910192,115.08877682144258L189.72758296285357,112.96221475777521L189.8041786766052,124.09255428093208L190.11056153161186,128.58761572227087L190.57013581412178,124.55810848780496L191.1063058103834,89.00508431714691L191.18290152413505,115.11892522119203L191.2594972378867,114.7260032909559L191.642475806645,111.7002471103896L191.71907152039665,119.6828987597171L191.87226294789997,124.93468362671712L192.4850286579132,132.6069761297132L192.63822008541652,139.5326413909656L192.79141151291984,124.94894800500111L192.8680072266715,94.09687923285456L193.09779436792647,94.57856592807616L193.63396436418807,100.3776607296956L193.86375150544305,107.24180626774128L194.01694293294636,124.94459805809173L194.17013436044965,135.98290060569576L194.55311292920794,133.05143147699096L194.9360914979662,123.1020302909674L195.0126872117179,109.64079436922428L195.08928292546955,105.8868382421493L195.39566578047618,120.74910851105435L195.4722614942278,84.7391790442369L195.93183577673776,95.5263097277917L196.08502720424107,103.96417186860718L196.2382186317444,113.70341551175194L196.46800577299936,115.73557417934282L196.544601486751,123.71569264030438L196.62119720050268,127.8047795849922L196.69779291425434,134.13140259628804L196.92758005550928,136.13724353685538L197.0807714830126,133.18338190734735L197.4637500517709,126.63162488957366L197.69353719302586,131.1312996133269L197.84672862052918,129.56062397918436L198.15311147553578,125.22373684214452L198.22970718928747,134.1990027900566L198.61268575804576,145.17131113791555L198.91906861305236,126.82254158049936L199.14885575430733,125.28628478016896L199.225451468059,117.07645372197233L199.3786428955623,122.03874635848014L199.68502575056894,133.26461838832836L199.76162146432057,128.47633707376497L199.91481289182389,128.20290612401942L199.99140860557557,94.7192478305889L200.4509828880855,72.28116719298339L200.52757860183715,98.49004885188782L200.68077002934047,110.16898575801451L200.83396145684378,100.86830948106136L201.06374859809875,93.97277924191168L201.1403443118504,98.67157995770887L201.29353573935373,98.25458555640594L201.52332288060867,120.02717132287069L201.82970573561533,123.26681611968539L201.98289716311865,127.6233298443788L202.05949287687028,126.1846010669341L202.21268430437362,124.57805893622081L202.28928001812525,130.6306144600808L202.82545001438686,129.7252989756843L202.97864144189018,126.61076841901652L203.20842858314515,119.91946541215512L203.36162001064847,94.50435603701223L203.43821572440012,109.0014557194387L203.51481143815175,97.67901900729498L203.97438572066173,106.08945656379237L204.74034285817825,112.35764679073552L204.89353428568157,120.42374461486854L205.27651285443986,98.39527290497536L205.42970428194317,96.8141943100576L205.73608713694983,108.5262622883449L205.81268285070146,110.01136743647609L205.88927856445312,107.466487117922L206.04246999195644,100.46045891170102L206.19566141945975,105.00522381967141L206.2722571332114,117.17403867004452L206.57863998821804,80.7945325307232L207.03821427072796,92.94965596285587L207.1914056982313,99.13380065015845L207.34459712573462,104.71532935294141L207.65097998074123,105.53961799554781L208.34034140450615,107.60220356431759L208.4169371182578,95.44617734505383L208.49353283200944,79.89987427555113L208.79991568701607,95.76697439108092L209.18289425577436,91.24976723495239L209.25948996952602,102.38663382181127L209.33608568327767,98.48778685113486L209.6424685382843,98.30828116258367L209.71906425203596,81.06288556577623L209.94885139329094,89.51734568981244L210.10204282079422,106.504079323225L210.33182996204923,104.843643180121L210.71480853080752,81.58469796635188L210.8679999583108,87.48499905643723L211.02119138581412,73.86676829672032L211.09778709956578,86.01914837603294L211.48076566832404,89.23683919126832L211.63395709582738,86.48211817036083L212.01693566458565,52.38190446268114L212.24672280584062,63.99512454182395L212.39991423334394,59.507469144591035L212.55310566084725,70.4548877376994L212.93608422960554,70.75055388439255L213.16587137086051,68.20001879043187L213.31906279836383,73.37717576853797L213.47225422586712,85.45465805210894L213.5488499396188,92.55709344674236L213.77863708087375,92.46970954154591L213.8552327946254,100.49332963346504L213.9318285083771,98.26896322180212L214.16161564963204,100.31358553135543L214.2382113633837,109.0757646642693L214.31480707713536,107.81981949862026L214.92757278714862,99.42114140976459L215.00416850090028,99.15360571347486L215.0807642146519,80.20555301567036L215.23395564215522,80.10794943714491L215.3105513559069,81.73150120882529L215.6169342109135,92.87807852584203L215.77012563841683,90.58581232577762L216.45948706218172,73.97484802803557L216.84246563094,71.98199922223142L216.9190613446917,82.52904445483347L216.99565705844333,50.337353834130596L217.14884848594667,65.51549108719603L217.53182705470493,81.41047558344812L217.6084227684566,74.62541736743677L217.68501848220828,92.90382235819004L217.7616141959599,80.61435118826122L217.91480562346322,66.15292267626161L218.0679970509665,82.8763442047721L218.37437990597317,59.93060403584632L218.6807627609798,83.24326347714172L218.75735847473143,72.35404420153841L218.91054990223478,86.93812574940264L219.14033704348972,99.9458265111215L219.29352847099304,103.23290939300969L219.82969846725462,100.60163376045934L220.2126770360129,101.59198002721939L220.44246417726788,96.45985507874259L220.82544274602617,96.16624647199326L221.05522988728117,105.21704952592323L221.1318256010328,89.0792236397409L221.20842131478446,83.6221710228511L221.5148041697911,58.45721480541207L221.8211870247977,46.8774092631819L221.974378452301,61.62304353519361L222.58714416231427,34.15604750974017L222.66373987606593,44.18770495441684L222.7403355898176,90.28286525608169L223.04671844482422,95.18748379098189L223.35310129983085,100.18552037566725L223.6594841548375,114.9836125678795L223.73607986858912,102.71115868919074L224.04246272359578,107.23263628496208L224.1190584373474,118.30990319656722L224.19565415109906,124.71169758008652L224.27224986485072,111.81766587721646L224.57863271985735,124.96153632823491L224.8084198611123,125.09962189874892L225.0382070023673,124.21619646398047L225.1913984298706,101.97901729333188L225.3445898573739,119.7561253936191L225.65097271238056,87.3763974294259L226.03395128113885,87.97102297833605L226.11054699489048,64.96897010701852L226.18714270864214,75.84114110708668L226.34033413614546,50.64699307075768L226.4169298498971,57.4050219129576L226.57012127740043,72.62274683197681L226.72331270490375,74.08268151774264L226.79990841865538,102.44770692275185L226.87650413240706,111.67491014852051L227.4892698424203,126.1918090994736L227.64246126992361,120.8412739841593L227.8722484111786,131.43582740184547L227.94884412493025,101.88236024657907L228.0254398386819,118.11671787322818L228.10203555243356,98.60102420607137L228.25522697993688,117.2255315558504L228.40841840744017,111.57489263593416L228.63820554869517,139.62331542964236L228.7148012624468,136.1573051204262L229.02118411745346,150.91403796737814L229.0977798312051,146.7449250967553L229.17437554495675,152.38664487334609L229.40416268621175,113.54527954198036L230.01692839622498,118.44198286277654L231.39565124375477,112.94446219500969L231.47224695750646,106.01198766261341L231.85522552626475,104.1603680899317L231.93182124001638,116.76224683987328L232.08501266751972,115.21700080223238L232.23820409502304,107.53729574576437L232.31479980877467,110.35524278886798L232.54458695002964,98.88685825773308L232.85096980503627,110.29840974054183L232.92756551878793,116.97643948079957L233.08075694629125,103.79844164770213L233.23394837379456,90.04289649580627L233.31054408754622,92.9265564465364L233.69352265630448,112.47454488036229L233.77011837005614,101.88241595004301L233.99990551131114,97.87297684626773L234.07650122506277,82.10590131835338L234.38288408006943,100.60672082386446L234.45947979382106,82.64710088224088L234.53607550757272,60.96155105962176L234.99564979008267,55.072368716621796L235.14884121758595,55.38647400869073L235.22543693133764,46.59981329487614L235.30203264508927,48.47605726272968L236.29777692386082,47.08579869020636L236.37437263761248,30.3264669465801L236.5275640651158,25.445865010384168L236.91054263387406,20.458448362659617L237.29352120263235,9.629140086952289L237.44671263013566,3.9664532947504636L237.9062869126456,64.52944574610807L238.05947834014893,114.41270458217653L238.21266976765224,125.72247266364887L238.36586119515556,134.17457505662892L238.44245690890722,151.5913205015873L238.59564833641053,146.28859742587832L238.97862690516882,143.95794284463554L239.05522261892045,148.49075603577103L239.1318183326721,149.48551669451703L239.20841404642377,127.42586185525174L239.43820118767874,130.56780866459758L239.5147969014304,145.09763729813523L239.74458404268535,150.7987794596106L239.82117975643703,136.45563704190218L239.8977754701887,150.91798381057401L239.97437118394035,141.08437319493618L240.28075403894695,150.0532857713522L240.35734975269864,154.95273397440278L240.74032832145693,132.85417408816573L240.89351974896022,146.57331773925495L241.2764983177185,133.82120653392835L241.35309403147016,116.10426351952945L241.50628545897348,115.65006563768195L241.6594768864768,114.61129650745254L241.73607260022845,109.88605152965224L241.88926402773174,115.94495707296718L242.04245545523506,108.7361488970644L242.42543402399335,92.11916583149433L242.65522116524832,111.93362791558582L242.80841259275164,122.30219813414936L242.8850083065033,135.5353750799223L243.19139116150993,140.70534148966135L243.57436973026822,134.57664923213312L244.1105397265298,-27.017571757219976L244.18713544028145,38.43953410349078L244.57011400903974,16.573701819321922L244.72330543654306,43.81412963574033L245.10628400530132,97.26300905946489L245.182879719053,127.47131982973514L245.25947543280463,137.25903917393464L245.33607114655632,158.38486715729204L246.02543257032121,163.70429847555437L246.4084111390795,159.01010366542863L246.63819828033448,107.98286369727089L246.71479399408614,85.50430047029604L247.40415541785103,116.91781136591808L247.55734684535435,139.38476964032856L247.78713398660932,158.6509933548249L247.94032541411264,151.8064258621829L248.39989969662258,136.62604205343936L248.9360696928842,120.97153225922355L249.08926112038748,126.99480819121882L249.16585683413913,130.59679741258734L249.31904826164248,130.4770071278756L249.54883540289742,124.7966222342801L249.85521825790406,117.74389065168873L250.085005399159,106.70453022919511L250.1616011129107,114.94888308106263L250.314792540414,112.64877676341105L250.4679839679173,114.20996571232068L250.54457968166898,90.12687693777694L251.0041539641789,103.97182579651236L251.08074967793058,107.32551761703878L251.23394110543387,87.4534385106596L251.3871325329372,92.63749679328487L251.61691967419216,84.15244479011149L252.15308967045377,95.52636688156592L252.45947252546037,88.16530621156913L252.53606823921203,89.98267997560419L252.765855380467,89.41447255106068" fill="none"></path></g></g></g></g><g opacity="0.2"><g><g><g><path style="fill: none;" stroke="rgb(255, 112, 67)" stroke-width="2px" d="M43.50636541094099,-53.660063868875724L43.81274826594761,77.00810958872312L44.119131120954236,-43.10147265443656L44.1957268347059,74.52458486123378L44.27232254845755,142.1797040824877L44.42551397596087,72.08873357810249L44.578705403464184,95.47520840094593L44.655301117215835,125.36420520301051L44.80849254471915,58.05982040639707L44.88508825847081,53.0394986105374L45.038279685974125,118.83809497334953L45.191471113477434,121.32644005257903L45.72764110973903,131.28409408341102L45.957428250994,123.86025546007916L46.03402396474566,134.08563778988162L46.18721539224897,153.39454228967634L46.4935982472556,3.6420910668961635L46.87657681601388,70.90809526219702L46.95317252976554,139.57396438888517L47.87232109478542,123.10033777535091L47.94891680853707,89.1003677661L48.2552996635437,162.39101652704124L48.48508680479867,124.29199995408483L48.638278232301985,130.76082916547267L48.791469659805294,86.50817806467431L49.48083108357021,-77.35817194700341L49.94040536608014,133.02815035030693L50.32338393483843,117.30602651193388L50.39997964859009,158.447844567717L50.62976678984506,149.3569593518536L50.782958217348366,129.78905619352506L50.93614964485168,126.06213747120373L51.39572392736163,122.5096541921807L51.47231964111328,118.99863256403614L52.16168106487819,107.66491719443069L52.314872492381504,152.70241597778872L52.46806391988481,127.18608281861877L52.69785106113979,147.99762016112717L53.3872124849047,124.25292363190253L53.61699962615967,119.03288853447827L53.693595339911326,95.32200072656524L53.846786767414635,138.30113477535124L54.07657390866961,136.1687834392416L54.6127439049312,133.3156155877599L54.76593533243452,135.36224417385117L54.842531046186174,52.56723665826217L55.1489139011928,113.70808946942284L55.22550961494446,-69.90898920627482L55.302105328696115,64.76108664739998L55.37870104244777,57.82416980895521L55.60848818370274,75.3841314309834L55.6850838974544,33.38382695153785L55.99146675246102,123.87145325312504L56.06806246621268,73.40220488577559L56.14465817996434,140.6827281130361L56.52763674872262,146.42322039774592L56.68082817622594,86.79050821951749L56.757423889977595,154.00026669545846L57.06380674498422,94.12796150152646L57.446785313742495,77.40601223185196L57.52338102749416,135.7216088502326L57.67657245499747,172.44863902093815L57.829763882500785,168.36087307419157L57.90635959625244,178.44847782461665L57.982955310004094,165.3650493148532L58.21274245125907,109.15147391561918L58.365933878762384,141.21284256858462L58.59572102001736,145.67638060889004L58.74891244752067,108.11899101539767L58.97869958877563,117.94598204098422L59.05529530252729,125.58922121001531L59.361678157533916,132.3485801436394L59.43827387128558,144.33249636034085L59.51486958503723,106.10862273844462L59.59146529878889,150.68925653496552L59.82125244004386,163.99241688608046L59.897848153795515,123.5193936458756L60.2808267225538,133.9746951583361L60.893592432567054,125.8749388629027L61.04678386007036,166.5024701129233L61.12337957382202,160.68240889493555L61.27657100132533,151.0835563378762L61.42976242882865,151.9902545613316L61.506358142580304,145.1510782226904L61.73614528383528,120.79371664376909L61.81274099758693,70.59909580734812L61.889336711338586,161.27025990027906L62.0425281388419,172.9485227482193L62.50210242135184,98.23014709153698L62.5786981351035,147.82512279739453L62.65529384885515,128.4602293323704L63.03827241761344,129.12549584925225L63.19146384511675,136.86161375439022L63.2680595588684,159.02069616240513L63.421250986371724,127.44002921845586L64.1872081238883,96.49429039203413L64.3403995513916,175.94727847408004L64.57018669264657,156.83856765454567L64.79997383390155,89.08898776044539L64.95316526140486,177.78600247360495L65.18295240265982,176.2838085976305L65.33614383016314,150.16213202267852L65.48933525766645,122.9036972409609L65.64252668516977,123.222983425812L65.87231382642473,96.80357144818744L65.94890954017639,123.82402828050617L66.1021009676797,144.09797216811663L66.63827096394131,140.49058491712532L66.71486667769295,179.11505295932486L66.79146239144461,156.8647234462904L66.86805810519627,178.75384130968214L67.63401524271283,178.71300083815166L67.86380238396781,143.60228761322767L67.94039809771947,143.60228761322767L68.24678095272608,173.13639223021613L68.62975952148437,138.6628185212984L68.78295094898769,105.35696259784858L68.93614237649099,173.2215352128431L69.16592951774598,130.8338798567927L69.39571665900094,175.62771897031584L69.85529094151087,166.567503449459L69.93188665526253,168.10097163500538L70.08507808276586,128.1601665777408L70.16167379651752,123.89312827117317L70.62124807902744,129.5180149380321L70.69784379277911,143.58169758844065L70.92763093403407,168.90568049191717L71.2340137890407,160.2519233244084L71.31060950279236,160.55678158360425L71.38720521654402,175.8795864899351L71.46380093029568,149.5650792805939L71.84677949905397,161.72392788407203L72.07656664030893,139.8382306482897L72.15316235406058,139.92037540526385L72.22975806781223,187.97212626861636L72.61273663657052,152.26927175965233L72.9957152053288,111.39620901936163L73.14890663283212,155.78681991214611L73.22550234658377,186.04799010874703L73.30209806033542,131.60867271630673L73.37869377408708,126.42363072215085L73.5318852015904,106.80763999989894L74.14465091160366,94.92434655517557L74.45103376661028,146.81703982196086L74.52762948036195,104.83263753382305L75.2935866178785,139.35740470340394L75.6765651866368,150.66215655061188L75.82975661414011,182.75340807140978L75.90635232789175,172.4322316037607L75.98294804164341,172.97863752300836L76.05954375539507,188.08444791831437L76.3659266104017,133.76937467785726L76.74890517915999,157.763851564092L76.82550089291165,140.17163002792645L77.05528803416661,157.30994339095113L77.4382666029249,131.1849455770854L77.51486231667656,144.62782158714336L77.82124517168317,165.53608069532467L77.89784088543483,179.59279785464474L77.97443659918649,123.08986883273997L78.1276280266898,120.5921066745954L78.35741516794477,168.3876748924582L78.6637980229514,188.3961888446856L78.74039373670306,133.72862531263112L79.04677659170969,182.5512597468012L79.12337230546134,147.40377270447803L79.50635087421963,184.56440676603745L79.65954230172294,184.5494736145125L80.04252087048123,128.74203769656128L80.11911658423288,184.01014085744026L80.19571229798453,154.60114590232652L80.4254994392395,185.1792500846476L80.50209515299116,148.4015772323008L80.5786908667428,169.73449938992107L80.80847800799779,160.12801046807746L80.88507372174944,177.35550862068652L80.9616694355011,127.67489298872364L81.03826514925275,164.5125676248877L81.42124371801104,121.4134797028151L81.57443514551434,145.3643497988231L81.651030859266,153.5286342049225L81.72762657301767,136.1727092927207L81.80422228676933,133.0669119416196L82.03400942802429,178.70108247706213L82.18720085552759,143.34663504078154L82.41698799678258,111.72573223986711L82.49358371053424,106.31447329196705L82.87656227929251,65.62484067193311L82.95315799304417,153.36282073097388L83.18294513429915,145.9624544046036L83.33613656180245,127.54721164434842L83.71911513056074,134.16549660685527L83.87230655806404,178.39550364982267L84.10209369931903,139.08488089986722L84.25528512682233,160.60780111404998L84.33188084057399,184.85843579860054L84.40847655432565,130.91453378333173L84.48507226807732,116.27783389040894L84.63826369558062,113.69868067289909L84.71485940933228,148.71486696584628L84.86805083683558,153.99809670893626L85.0212422643389,119.14870121211182L85.09783797809057,173.30407752459993L85.17443369184222,173.30407752459993L85.40422083309718,188.02512529058427L85.63400797435216,162.58412048034353L86.01698654311043,116.47536892306002L86.32336939811707,128.32035630799257L86.39996511186872,116.34083804107463L86.55315653937203,98.57052024465348L86.78294368062701,129.2913590175487L87.08932653563363,183.7389173893386L87.16592224938529,132.2997802940637L87.3191136768886,172.7498944399158L87.39570939064026,103.37540047785824L87.47230510439192,165.25817333743896L87.54890081814357,178.50811932441204L87.85528367315021,82.25949353724106L87.93187938690185,95.31386741830262L88.08507081440517,118.50396674327784L88.16166652815683,98.62458769509986L88.46804938316346,-266.1755570640342L89.08081509317671,139.69871376673802L89.38719794818333,180.63461500986827L89.463793661935,162.22746414591919L89.69358080318996,131.0455280842294L89.77017651694162,111.85217950793772L89.84677223069328,171.31487903982534L89.99996365819658,184.8368394632698L90.07655937194825,184.89156122262938L90.22975079945155,172.18810812001269L90.38294222695487,93.25927117177487L90.45953794070653,178.22706465783L90.61272936820984,130.73051561329225L90.76592079571316,182.04817073408458L90.99570793696812,183.92629821024838L91.22549507822309,175.7369305820784L91.53187793322971,156.31007654769314L91.60847364698137,155.5481379594862L92.14464364324297,122.67195593221552L92.29783507074629,167.17901724676412L92.37443078449795,142.82360202979976L92.75740935325622,168.14988743805935L93.06379220826285,160.4287937907507L93.21698363576616,144.56320237017297L93.5233664907728,184.51237264265671L93.90634505953108,149.8074137678198L94.28932362828935,168.75073351536219L94.36591934204101,161.4107209744396L94.44251505579268,144.4082719584006L94.67230219704764,180.0208566845192L94.82549362455096,191.9046387903296L94.97868505205426,140.66179851020553L95.05528076580593,185.6906090650834L95.20847219330923,139.60246409736956L95.43825933456421,140.60249658845368L95.51485504831587,146.3774767505622L95.59145076206752,175.54432357225446L95.74464218957084,107.31298182305083L95.89783361707414,155.98717924023256L95.9744293308258,181.38703713046448L96.12762075832913,177.62712964357087L96.28081218583243,131.9311724689846L96.58719504083905,116.94420196533451L96.74038646834238,156.56155479492102L97.046769323349,187.07521369048916L97.12336503710065,176.2486415641447L97.35315217835563,130.00248513509257L97.50634360585894,142.0513767115906L97.7361307471139,186.6258318441971L97.88932217461722,149.11050851614854L98.04251360212054,148.9392203815466L98.2723007433755,84.12480401285863L98.50208788463048,112.58445885287743L98.57868359838213,151.78987038607121L98.96166216714042,112.71218160920918L99.3446407358987,130.51834559520324L99.65102359090533,142.46022039363484L99.72761930465698,149.1570886848542L99.80421501840864,120.43951189717136L99.95740644591194,55.99975778160728L100.03400215966361,132.2706925357966L100.11059787341527,139.74017541761648L100.49357644217355,152.48824162100365L100.72336358342852,126.08947764490524L100.79995929718018,156.09998540982198L100.87655501093182,153.7123790560489L100.95315072468348,61.523350802792315L101.10634215218681,149.56126938059307L101.33612929344177,176.10484268628775L101.56591643469673,131.95997862594731L102.25527785846165,130.942354335729L102.48506499971663,104.17268002976842L103.02123499597822,165.77480405994112L103.09783070972988,154.8480439871621L103.17442642348153,116.8634569324911L103.48080927848817,110.93253590687085L103.63400070599147,130.8439015502731L103.78719213349478,144.46780578710903L103.86378784724646,134.6630364173968L104.17017070225307,106.10535947627001L104.62974498476301,144.27287142532808L104.78293641226632,133.45794019996436L105.0127235535213,87.83466929148064L105.08931926727296,31.088395330610602L105.31910640852792,151.2887111705289L105.54889354978289,118.84120915248063L105.7020849772862,135.4884595349652L105.85527640478952,78.35701296640381L106.2382549735478,142.70653042868767L106.31485068729945,117.82685640682823L106.54463782855441,109.24380601389986L106.85102068356106,166.31708534831833L107.00421211106436,149.4717450129652L107.310594966071,149.22922003073924L107.38719067982265,174.25276747197736L107.61697782107761,181.68205176759298L107.77016924858094,149.36514235446404L107.8467649623326,145.44680928666688L108.07655210358756,146.26505985336416L108.15314781733922,180.32708153828054L108.38293495859419,137.24946157447343L108.45953067234585,166.81459202929463L108.5361263860975,177.32760524437617L108.99570066860744,152.35015759314794L109.37867923736572,173.7029657722942L109.53187066486905,153.04811470851507L109.60846637862069,145.53239951842437L110.68080637114389,187.54195542895886L110.75740208489555,107.5701335083234L110.91059351239885,146.6875529162809L111.44676350866045,154.81170085411082L111.52335922241211,135.02799170790988L111.59995493616375,156.25426151268118L111.90633779117039,171.29705533373456L111.98293350492204,145.6456115251878L112.28931635992868,107.98291132623804L112.5956992149353,109.46920301090474L112.67229492868695,187.4305903954567L112.82548635619028,145.42872882644562L112.97867778369358,151.38301447794043L113.05527349744524,143.02820194223494L113.1318692111969,168.9821435284553L113.20846492494854,174.99703143713705L113.82123063496181,154.9930438117584L114.12761348996844,153.0405942972091L114.28080491747174,98.7743333299146L114.51059205872673,137.55412933866924L114.89357062748499,176.24588352783977L115.35314490999494,160.74635723821012L115.4297406237466,107.8054362453304L115.50633633749827,186.95800957111618L115.65952776500157,162.17461420699482L115.88931490625653,148.4493252181806L116.65527204377311,130.28493124341404L116.80846347127643,155.0583587495985L116.96165489877973,145.62025084300845L117.19144204003472,77.91253015456932L117.42122918128968,40.98909963882166L117.57442060879298,167.2036242313346L117.65101632254463,101.87749688058035L118.03399489130292,164.78716202625097L118.11059060505458,160.65699851840836L118.34037774630956,132.82451947765455L118.41697346006121,110.3173115982606L118.49356917381287,169.03114215542234L118.72335631506783,152.59592099037457L118.79995202881949,94.5357367550922L119.10633488382612,94.79693024732215L119.25952631132942,88.64203679600168L119.71910059383937,-271.91863345483154L119.87229202134267,-182.15821767470473L120.10207916259766,164.6617252099197L120.40846201760428,161.82876639322495L120.71484487261091,190.82411802053258L120.86803630011423,140.8151138556732L121.17441915512086,135.20319741359964L121.2510148688725,140.0249820074602L121.63399343763079,121.55892677654195L121.78718486513411,144.8952351552442L122.70633343015399,129.30369149820353L123.01271628516061,169.05855687064562L123.08931199891227,164.65109061948263L123.16590771266392,141.0211880337609L123.3956948539189,137.98455693245722L123.5488862814222,98.03060772018982L123.77867342267717,175.9625180740833L124.0850562776838,128.7540720111291L124.2382477051871,186.21140583041253L124.31484341893876,140.1242381848728L124.6212262739454,115.57772335330222L124.69782198769705,144.85403025849624L124.92760912895203,136.67461392348054L125.23399198395865,116.03953292774912L125.3105876977103,174.98053291365525L125.46377912521363,149.51502050753967L125.61697055271694,190.98633693665434L125.84675769397191,165.88978849844403L126.22973626273019,98.76924794165264L126.3829276902335,112.83531592075734L126.5361191177368,141.72974660999986L126.76590625899179,133.2234077253488L127.14888482775008,160.38922880748135L127.22548054150172,45.494322954570826L127.37867196900504,-91.29037991781853L127.53186339650836,13.190363060249005L127.60845911026,-57.27310799312913L127.68505482401167,29.819052603816537L127.91484196526663,-86.35851406110827L128.29782053402494,-184.96396055356755L128.45101196152822,114.83996106531785L128.52760767527988,125.10502433186795L128.8339905302865,182.29998441816034L129.2169690990448,165.0056183793413L129.52335195405144,179.28213363914332L129.82973480905804,168.66289875556072L129.90633052280972,164.25373461418L130.289309091568,150.83485269173588L130.4425005190713,159.44935960684492L130.59569194657462,139.21800377533054L130.74888337407793,119.98838660750936L130.9786705153329,84.59574078252489L131.05526622908457,78.61706348863352L131.3616490840912,111.5512719493949L131.82122336660112,29.3240637697973L131.97441479410443,96.47434639376898L132.12760622160775,33.22394366976442L132.28079764911107,101.37901287742993L132.35739336286272,106.51389670983592L132.740371931621,55.678732294581884L133.12335050037927,17.25193180329429L133.35313764163428,112.98839107687714L133.50632906913756,-16.106624976036375L133.73611621039254,-293.454639847278L133.88930763789585,103.46602640352985L134.04249906539917,156.53147314969718L134.27228620665414,165.52818757640995L134.42547763415746,149.6740507030086L134.5020733479091,146.77894910434398L134.57866906166078,166.56852218358966L134.65526477541243,167.77439694580488L135.19143477167404,175.04417480845152L135.34462619917736,149.4056184007771L135.5744133404323,131.69806456567375L135.65100905418396,-8.30187917653585L135.72760476793562,142.4704408645066L136.18717905044556,187.54548786885093L136.57015761920385,191.62001855429028L136.7999447604588,107.31367754392055L136.87654047421046,168.99238884650097L137.48930618422372,157.48924059794612L137.56590189797538,152.30607042422542L137.64249761172704,193.27756524399373L137.71909332547867,180.50233693831814L137.87228475298198,138.71749886870143L138.25526332174027,189.67467533148164L138.4084547492436,173.46827593224384L138.48505046299525,166.60150266577065L139.0978161730085,125.06469736859843L139.17441188676017,161.97186126782088L139.48079474176677,150.7985095586846L139.63398616927012,176.40122805917744L139.78717759677343,186.9590158816599L139.86377331052506,128.3268828323418L140.01696473802838,135.3034723251429L140.32334759303504,188.210895186385L140.39994330678667,101.19680026869518L140.55313473428998,140.69159027173365L140.70632616179333,139.03488010355213L140.78292187554496,125.83592051745954L140.93611330304827,18.79833708406084L141.01270901679993,-60.97036747218321L141.54887901306154,-82.36915120546978L141.77866615431648,4.942144900653339L141.85526186806814,-37.384866786253596L141.93185758181983,-174.8115378087807L142.23824043682643,137.98109489289126L142.3148361505781,139.86773252612213L142.4680275780814,112.91412287403512L142.85100614683967,166.13494728110533L143.46377185685293,185.08540644995358L143.69355899810793,162.74479058929106L143.84675042561122,134.12705802880356L143.99994185311454,170.53923309400676L144.0765375668662,132.45349319431406L144.38292042187283,114.19617907148408L144.53611184937614,156.50025681686438L144.76589899063111,164.1604251937252L144.84249470438274,149.35256140207005L144.99568613188606,165.64386773578258L145.53185612814767,184.9736190144948L145.685047555651,153.1304002661414L145.76164326940264,60.74854966088696L146.06802612440924,123.17588974884538L146.14462183816093,147.34160507533426L146.3744089794159,183.13463411964375L146.45100469316753,148.08849455853797L146.52760040691922,166.4847292307456L146.68079183442254,120.83739797551759L146.75738754817417,132.53036206802622L146.9105789756775,163.84076630126532L147.0637704031808,185.54646646798727L147.14036611693246,176.17854768652097L147.4467489719391,170.25522989611974L147.67653611319406,180.2453343360891L147.9829189682007,154.78114711258252L148.05951468195232,153.05716736221265L148.28930182320732,155.30872715639137L148.4424932507106,177.98525196125638L148.59568467821393,169.18751370328198L148.67228039196561,143.82440478327533L148.74887610571724,155.7923608319299L149.43823752948214,119.279438758879L149.59142895698548,124.75573932570606L149.82121609824043,168.12714399153273L149.97440752574374,140.88698844742774L150.1275989532471,171.9376651716981L150.6637689495087,158.8144563364913L150.74036466326032,149.48946104796897L150.9701518045153,108.86935910294996L151.04674751826693,86.71957782037184L151.1233432320186,152.68446803582836L151.5063218007769,133.61021196412744L151.73610894203185,138.14482948662206L151.8893003695352,135.7049943732725L152.11908751079014,155.43100009924368L152.1956832245418,143.21324712879638L152.27227893829345,140.69488666347348L152.57866179330009,153.41005520859272L152.65525750705174,158.73419996473496L152.80844893455503,125.02861098967765L152.96164036205838,174.44962334854134L153.03823607581003,163.98583238499208L153.34461893081664,106.33879039284183L153.4212146445683,145.0417009631017L153.72759749957493,111.38803429914249L153.80419321332658,142.81970102349456L153.9573846408299,135.776893812201L154.11057606833322,164.35986517637667L154.4935546370915,118.08650937427524L154.57015035084316,129.0680988775008L154.72334177834648,135.834116853735L154.95312891960143,163.9171465138904L155.48929891586303,160.7406589529915L155.64249034336635,172.08449540477307L155.94887319837298,173.2688856439402L156.02546891212464,119.15878088233137L156.33185176713127,144.01589367027293L156.4084474808829,135.48199098735512L156.86802176339287,167.80108281059321L157.09780890464782,164.96687335281126L157.17440461839948,139.8445583952476L157.25100033215114,73.51988110145301L157.40419175965445,136.1406812855399L157.4807874734061,134.63515788826038L157.55738318715777,149.365465367725L157.63397890090943,126.295228809732L157.94036175591606,-27.276108808432685L158.01695746966772,150.9921684322044L158.170148897171,163.71966117558716L158.2467446109227,132.72089019763231L158.39993603842598,151.24354729073661L158.62972317968098,160.6762633605864L158.7063188934326,174.7413788646909L159.01270174843927,167.07287011978482L159.0892974621909,156.37987225922987L159.70206317220416,150.57623502320214L160.08504174096245,140.08078876008088L160.54461602347237,100.8809264290622L160.62121173722403,55.00838867182937L160.6978074509757,94.35865922896726L161.08078601973398,0.41467508185592517L161.38716887474058,-46.59594606475149L161.84674315725056,-0.2763745191618786L162.15312601225716,54.670997179583075L162.4595088672638,53.116044470988605L162.6127002947671,79.21412451310944L162.7658917222704,64.58922702779789L162.9956788635254,95.12133495000045L163.3786574322837,176.00311007387464L163.76163600104195,178.4946687209309L164.29780599730356,171.03431303433035L164.75738027981347,143.1752806470491L164.9105717073168,179.19930144369076L165.06376313482014,190.0434446631912L165.21695456232345,125.99256538423228L165.29355027607508,184.84104277685768L165.52333741733005,192.3476059245551L166.21269884109498,142.13904582356594L167.05525169236319,176.39123121287093L167.13184740611484,178.6443729437891L167.36163454736985,186.0078329344993L167.43823026112148,158.0201253158861L167.74461311612808,184.23314424335769L167.82120882987977,113.34111327543107L167.97440025738308,132.50011477497625L168.35737882614137,165.4300826513889L168.58716596739634,125.39808846584387L168.97014453615463,201.10587030556454L169.04674024990626,177.75983839946892L169.12333596365792,100.68503130988974L169.27652739116124,96.99196272083655L169.3531231049129,156.47020001881447L169.73610167367116,181.4477263527601L169.81269738742284,162.39106622138908L170.0424845286778,162.07597920893016L170.11908024242945,135.31692292862405L170.50205881118774,102.32418280850227L170.96163309369769,124.72493711243858L171.03822880744934,144.1048299881181L171.42120737620763,180.27394999805176L171.72759023121424,176.3544077011239L172.11056879997253,168.86647993386526L172.72333450998576,121.57749589785028L173.94886593001232,129.55196445999593L174.02546164376395,101.94973589755237L174.40844021252224,132.51177638193528L175.40418449129376,160.49459738967786L175.48078020504542,165.27382705700754L175.8637587738037,151.84604984630064L176.01695020130703,159.45237439728035L176.17014162881034,135.1497262953273L176.246737342562,153.82512724889915L176.32333305631366,153.63360523233632L176.62971591132026,142.44846768037144L176.7829073388236,163.8621183060525L176.93609876632692,144.31166614620597L177.0892901938302,139.4838188419093L177.3190773350852,142.7432214221738L177.39567304883684,145.02460610744586L177.54886447634016,99.57033739356363L177.70205590384347,117.6625254809234L177.77865161759513,103.00300759995226L177.8552473313468,157.10223758177614L177.93184304509845,136.93793599027617L178.08503447260173,60.74790363436508L178.16163018635342,89.25889273569923L178.23822590010505,84.703262786461L178.46801304136002,146.36588140273363L179.0807787513733,163.13513969154872L179.38716160637992,159.03739346327828L179.46375732013158,89.14280673915259L179.69354446138655,108.2004400515021L180.1531187438965,144.55332975973607L180.22971445764813,157.3645160672672L180.38290588515144,103.67335122270477L180.76588445390973,180.16943450215976L180.91907588141305,119.3997901869483L180.9956715951647,107.23236102607702L181.30205445017134,142.16358654900597L181.378650163923,140.21522025337057L181.7616287326813,133.04413536552775L181.9148201601846,126.50546903064667L181.99141587393623,120.37807311846252L182.14460730143955,100.99777440560901L182.83396872520447,130.91232238485298L182.91056443895613,134.23515151773978L183.06375586645942,71.95573493850874L183.21694729396273,92.60065541511183L183.4467344352177,88.23293635982695L183.5233301489694,143.9037252448141L184.2126915727343,163.92928021715386L184.67226585524423,122.78856371941446L185.2084358515058,109.22515406867846L185.51481870651244,149.71899095823562L185.5914144202641,87.20398175830185L185.89779727527073,94.45261467594393L186.58715869903563,146.4011395425238L186.8935415540423,108.49779446417459L186.97013726779392,153.87001780977835L187.0467329815456,150.55237345384919L187.42971155030386,122.85155130529753L187.8892858328138,143.2360071401056L188.11907297406879,117.11152283450085L188.19566868782042,67.408072649707L188.2722644015721,125.93673378443769L188.50205154282708,131.2598763712319L188.6552429703304,133.99233665181814L188.80843439783368,115.21062292344085L188.88503011158537,128.96621718204418L188.961625825337,119.609815065689L189.26800868034363,136.26519875643618L189.42120010784691,125.16369679188054L189.65098724910192,97.38936842048703L189.72758296285357,109.77237166227413L189.8041786766052,140.7880635656674L190.11056153161186,135.33020788427908L190.57013581412178,118.51384763610605L191.1063058103834,35.67554806115995L191.18290152413505,154.2896865772597L191.2594972378867,114.13662039560174L191.642475806645,107.1616128395401L191.71907152039665,131.65687623370837L191.87226294789997,132.81236092721716L192.4850286579132,144.11541488420733L192.63822008541652,149.9211392828442L192.79141151291984,103.07340792605432L192.8680072266715,47.818776074634734L193.09779436792647,95.30109597090858L193.63396436418807,109.07630293212479L193.86375150544305,117.53802457480974L194.01694293294636,151.49878574361745L194.17013436044965,152.5403544271018L194.55311292920794,128.65422778393375L194.9360914979662,108.17792851193205L195.0126872117179,89.44894048660957L195.08928292546955,100.2559040515368L195.39566578047618,143.04251391441193L195.4722614942278,30.724284844010747L195.93183577673776,111.70700575312397L196.08502720424107,116.62096507983038L196.2382186317444,128.31228097646908L196.46800577299936,118.78381218072919L196.544601486751,135.68587033174668L196.62119720050268,133.93841000202394L196.69779291425434,143.62133711323176L196.92758005550928,139.14600494770642L197.0807714830126,128.7525894630853L197.4637500517709,116.80398936291313L197.69353719302586,137.8808116989567L197.84672862052918,127.20461052797057L198.15311147553578,118.71840613658472L198.22970718928747,147.6619017119247L198.61268575804576,161.629773659704L198.91906861305236,99.29938724437507L199.14885575430733,122.98189957967332L199.225451468059,104.7617071346774L199.3786428955623,129.4821853132418L199.68502575056894,150.1034264331007L199.76162146432057,121.29391510191988L199.91481289182389,127.7927596994011L199.99140860557557,44.49376039044312L200.4509828880855,38.62404623657513L200.52757860183715,137.80337134024444L200.68077002934047,127.68739111720458L200.83396145684378,86.91729506563165L201.06374859809875,83.62948388318715L201.1403443118504,105.71978103140468L201.29353573935373,97.6290939544515L201.52332288060867,152.68604997256782L201.82970573561533,128.12628331490745L201.98289716311865,134.15810043141892L202.05949287687028,124.026507900767L202.21268430437362,122.16824574015094L202.28928001812525,139.70944774587076L202.82545001438686,128.3673257490896L202.97864144189018,121.93897258401479L203.20842858314515,109.88251090186297L203.36162001064847,56.381691974297915L203.43821572440012,130.7471052430784L203.51481143815175,80.6953639390794L203.97438572066173,118.70511289853839L204.74034285817825,121.7599321311503L204.89353428568157,132.5228913510681L205.27651285443986,65.35256534013557L205.42970428194317,94.44257641768091L205.73608713694983,126.09436425577586L205.81268285070146,112.23902515867289L205.88927856445312,103.64916664009088L206.04246999195644,89.95141660236955L206.19566141945975,111.82237118162698L206.2722571332114,135.42726094560425L206.57863998821804,26.225273321741177L207.03821427072796,111.18234111105488L207.1914056982313,108.41001768111228L207.34459712573462,113.08762240711582L207.65097998074123,106.77605095945738L208.34034140450615,110.6960819174723L208.4169371182578,77.21213801615819L208.49353283200944,56.58041967129707L208.79991568701607,119.5676245643756L209.18289425577436,84.47395650075963L209.25948996952602,119.09193370209964L209.33608568327767,92.63951639512017L209.6424685382843,98.03902262975684L209.71906425203596,55.194792170565016L209.94885139329094,102.19903587586673L210.10204282079422,131.9841797733438L210.33182996204923,102.35298896546497L210.71480853080752,46.69628014569826L210.8679999583108,96.33545069156527L211.02119138581412,53.43942215714494L211.09778709956578,104.2477184950019L211.48076566832404,94.0633754141213L211.63395709582738,82.35003663899961L212.01693566458565,1.2315839011616203L212.24672280584062,81.41495466053813L212.39991423334394,52.775986048741736L212.55310566084725,86.87601562736192L212.93608422960554,71.19405310443229L213.16587137086051,64.37421614949089L213.31906279836383,81.14291123569716L213.47225422586712,103.57088147746539L213.5488499396188,103.21074653869248L213.77863708087375,92.33863368375127L213.8552327946254,112.52875977134374L213.9318285083771,94.93241360430774L214.16161564963204,103.38051899568542L214.2382113633837,122.2190333636401L214.31480707713536,105.9359017501467L214.92757278714862,86.82312427648101L215.00416850090028,98.7523021690403L215.0807642146519,51.783473968963584L215.23395564215522,79.96154406935675L215.3105513559069,84.16682886634591L215.6169342109135,109.59794450136714L215.77012563841683,87.14741302568102L216.45948706218172,49.05840158142242L216.84246563094,68.99272601352523L216.9190613446917,98.34961230373652L216.99565705844333,2.049817903076295L217.14884848594667,88.28269696679415L217.53182705470493,105.25295232782626L217.6084227684566,64.44783004341973L217.68501848220828,120.32142984431994L217.7616141959599,62.18014443336801L217.91480562346322,44.46077990826213L218.0679970509665,107.96147649753779L218.37437990597317,25.511993782457715L218.6807627609798,118.21225263908482L218.75735847473143,56.02021528813341L218.91054990223478,108.814248071199L219.14033704348972,119.45737765369978L219.29352847099304,108.16353371584201L219.82969846725462,96.65472031163377L220.2126770360129,103.07749942735954L220.44246417726788,88.76166765602734L220.82544274602617,95.72583356186927L221.05522988728117,118.79325410681817L221.1318256010328,64.87248481046736L221.20842131478446,75.4365920975164L221.5148041697911,20.70978047925353L221.8211870247977,29.507700949836696L221.974378452301,83.74149494321118L222.58714416231427,-7.044446528439993L222.66373987606593,59.235191121431846L222.7403355898176,159.42560570857896L223.04671844482422,102.54441159333213L223.35310129983085,107.68257525269534L223.6594841548375,137.18075085619782L223.73607986858912,84.30247787115762L224.04246272359578,114.01485267861909L224.1190584373474,134.9258035639749L224.19565415109906,134.3143891553655L224.27224986485072,92.4766183229113L224.57863271985735,144.67734200476266L224.8084198611123,125.30675025451993L225.0382070023673,122.89105831182775L225.1913984298706,68.623248537359L225.3445898573739,146.42178754404998L225.65097271238056,38.80680548313608L226.03395128113885,88.86296130170125L226.11054699489048,30.465890800042267L226.18714270864214,92.14939760718893L226.34033413614546,12.855771016264178L226.4169298498971,67.54206517625748L226.57012127740043,95.4493342105056L226.72331270490375,76.2725835463914L226.79990841865538,144.99524503026566L226.87650413240706,125.51571498717345L227.4892698424203,147.96715752590325L227.64246126992361,112.81547131118786L227.8722484111786,147.32765752837474L227.94884412493025,57.55215951367946L228.0254398386819,142.46825431320178L228.10203555243356,69.32748370533618L228.25522697993688,145.16229258051888L228.40841840744017,103.09893425605979L228.63820554869517,181.69594962020466L228.7148012624468,130.95828965660198L229.02118411745346,173.0491372378061L229.0977798312051,140.4912557908211L229.17437554495675,160.8492245382322L229.40416268621175,55.283231544931816L230.01692839622498,125.7870378439708L231.39565124375477,104.69818119335942L231.47224695750646,95.61327586401903L231.85522552626475,101.38293873090903L231.93182124001638,135.6650649647857L232.08501266751972,112.89913174577103L232.23820409502304,96.01773816106233L232.31479980877467,114.58216335352341L232.54458695002964,81.6842814610307L232.85096980503627,127.415736964755L232.92756551878793,126.99348409118615L233.08075694629125,84.031444898056L233.23394837379456,69.40957876796249L233.31054408754622,97.25204637263148L233.69352265630448,141.79652753110113L233.77011837005614,85.99422255456405L233.99990551131114,91.85881819060485L234.07650122506277,58.45528802648192L234.38288408006943,128.35795008213105L234.45947979382106,55.707670969805484L234.53607550757272,28.433226325693134L234.99564979008267,46.23859520212181L235.14884121758595,55.85763194679418L235.22543693133764,33.41982222415427L235.30203264508927,51.29042321450998L236.29777692386082,45.000410831421384L236.37437263761248,5.187469331140754L236.5275640651158,18.124962106090287L236.91054263387406,12.977323391072865L237.29352120263235,-6.6148223266086905L237.44671263013566,-4.527576893552196L237.9062869126456,155.37393442314448L238.05947834014893,189.23759283627916L238.21266976765224,142.68712478585743L238.36586119515556,146.85272864609894L238.44245690890722,177.71643866902483L238.59564833641053,138.33451281231493L238.97862690516882,140.46196097277135L239.05522261892045,155.2899758224743L239.1318183326721,150.97765768263608L239.20841404642377,94.33637959635378L239.43820118767874,135.2807288786163L239.5147969014304,166.89238024844175L239.74458404268535,159.3504927018237L239.82117975643703,114.94092341533951L239.8977754701887,172.61150396358178L239.97437118394035,126.33395727147943L240.28075403894695,163.50665463597625L240.35734975269864,162.30190627897863L240.74032832145693,99.7063342588102L240.89351974896022,167.15203321588876L241.2764983177185,114.6930397259385L241.35309403147016,89.52884899793106L241.50628545897348,114.9687688149107L241.6594768864768,113.05314281210842L241.73607260022845,102.79818406295179L241.88926402773174,125.03331538793952L242.04245545523506,97.9229366332102L242.42543402399335,67.19369123313926L242.65522116524832,141.65532104172303L242.80841259275164,137.85505346199466L242.8850083065033,155.38514049858168L243.19139116150993,148.4602911042699L243.57436973026822,125.38361084584076L244.1105397265298,-269.4089032412496L244.18713544028145,136.6251928945569L244.57011400903974,-16.225046606931347L244.72330543654306,84.67477136036793L245.10628400530132,177.4363281950517L245.182879719053,172.78378598514047L245.25947543280463,151.94061819023398L245.33607114655632,190.0736091323281L246.02543257032121,171.6834454529479L246.4084111390795,151.96881145024003L246.63819828033448,31.44200374503429L246.71479399408614,51.78645562983379L247.40415541785103,164.0380777093511L247.55734684535435,173.08520705194428L247.78713398660932,187.55032892656936L247.94032541411264,141.53957462321992L248.39989969662258,113.85546634032403L248.9360696928842,97.48976756789988L249.08926112038748,136.02972208921176L249.16585683413913,135.9997812446401L249.31904826164248,130.297321700808L249.54883540289742,116.27604489388682L249.85521825790406,107.16479327780165L250.085005399159,90.14548959545466L250.1616011129107,127.31541235886391L250.314792540414,109.19861728693364L250.4679839679173,116.5517491356851L250.54457968166898,54.00224377596134L251.0041539641789,124.73924908461557L251.08074967793058,112.35605534782843L251.23394110543387,57.645319851090754L251.3871325329372,100.4135842172228L251.61691967419216,71.42486678535137L252.15308967045377,112.5872500187476L252.45947252546037,77.123715206574L252.53606823921203,92.70874062165676L252.765855380467,88.56216141424541" fill="none"></path></g></g></g></g></g></g><g transform="translate(61, 177)" clip-path="url(#clip_1)"><clipPath id="clip_1"><rect width="268" height="22"></rect></clipPath><g><g><line x1="0" y1="0" x2="0" y2="5" style="visibility: inherit;" fill="rgb(0, 0, 0)" stroke="rgb(204, 204, 204)" stroke-width="1px"></line><line x1="38.29785687582833" y1="0" x2="38.29785687582833" y2="5" style="visibility: inherit;" fill="rgb(0, 0, 0)" stroke="rgb(204, 204, 204)" stroke-width="1px"></line><line x1="76.59571375165666" y1="0" x2="76.59571375165666" y2="5" style="visibility: inherit;" fill="rgb(0, 0, 0)" stroke="rgb(204, 204, 204)" stroke-width="1px"></line><line x1="114.89357062748499" y1="0" x2="114.89357062748499" y2="5" style="visibility: inherit;" fill="rgb(0, 0, 0)" stroke="rgb(204, 204, 204)" stroke-width="1px"></line><line x1="153.19142750331332" y1="0" x2="153.19142750331332" y2="5" style="visibility: inherit;" fill="rgb(0, 0, 0)" stroke="rgb(204, 204, 204)" stroke-width="1px"></line><line x1="191.48928437914168" y1="0" x2="191.48928437914168" y2="5" style="visibility: inherit;" fill="rgb(0, 0, 0)" stroke="rgb(204, 204, 204)" stroke-width="1px"></line><line x1="229.78714125496998" y1="0" x2="229.78714125496998" y2="5" style="visibility: inherit;" fill="rgb(0, 0, 0)" stroke="rgb(204, 204, 204)" stroke-width="1px"></line><line x1="268.08499813079834" y1="0" x2="268.08499813079834" y2="5" style="visibility: inherit;" fill="rgb(0, 0, 0)" stroke="rgb(204, 204, 204)" stroke-width="1px"></line></g><g transform="translate(0, 8)"><text style="text-anchor: middle; visibility: hidden; font-family: Roboto, sans-serif; font-size: 12px; font-weight: 200;" x="0" y="0" dx="0em" dy="0.95em" fill="rgb(50, 49, 63)" stroke="none" stroke-width="1px">-500</text><text style="text-anchor: middle; visibility: inherit; font-family: Roboto, sans-serif; font-size: 12px; font-weight: 200;" x="38.29785687582833" y="0" dx="0em" dy="0.95em" fill="rgb(50, 49, 63)" stroke="none" stroke-width="1px">0</text><text style="text-anchor: middle; visibility: inherit; font-family: Roboto, sans-serif; font-size: 12px; font-weight: 200;" x="76.59571375165666" y="0" dx="0em" dy="0.95em" fill="rgb(50, 49, 63)" stroke="none" stroke-width="1px">500</text><text style="text-anchor: middle; visibility: inherit; font-family: Roboto, sans-serif; font-size: 12px; font-weight: 200;" x="114.89357062748499" y="0" dx="0em" dy="0.95em" fill="rgb(50, 49, 63)" stroke="none" stroke-width="1px">1k</text><text style="text-anchor: middle; visibility: inherit; font-family: Roboto, sans-serif; font-size: 12px; font-weight: 200;" x="153.19142750331332" y="0" dx="0em" dy="0.95em" fill="rgb(50, 49, 63)" stroke="none" stroke-width="1px">1.5k</text><text style="text-anchor: middle; visibility: inherit; font-family: Roboto, sans-serif; font-size: 12px; font-weight: 200;" x="191.48928437914168" y="0" dx="0em" dy="0.95em" fill="rgb(50, 49, 63)" stroke="none" stroke-width="1px">2k</text><text style="text-anchor: middle; visibility: inherit; font-family: Roboto, sans-serif; font-size: 12px; font-weight: 200;" x="229.78714125496998" y="0" dx="0em" dy="0.95em" fill="rgb(50, 49, 63)" stroke="none" stroke-width="1px">2.5k</text><text style="text-anchor: middle; visibility: hidden; font-family: Roboto, sans-serif; font-size: 12px; font-weight: 200;" x="268.08499813079834" y="0" dx="0em" dy="0.95em" fill="rgb(50, 49, 63)" stroke="none" stroke-width="1px">3k</text></g><line x1="0" y1="0" x2="268.08499813079834" y2="0" fill="rgb(0, 0, 0)" stroke="rgb(204, 204, 204)" stroke-width="1px"></line></g></g></g></g></svg>