<svg viewBox="0 0 330 200" xmlns="http://www.w3.org/2000/svg"><g><g><g><g><g><line x1="51.53200149536133" y1="177.86299896240234" x2="46.53200149536133" y2="177.86299896240234" style="visibility: inherit;" fill="rgb(0, 0, 0)" stroke="rgb(204, 204, 204)" stroke-width="1px"></line><line x1="51.53200149536133" y1="158.1004435221354" x2="46.53200149536133" y2="158.1004435221354" style="visibility: inherit;" fill="rgb(0, 0, 0)" stroke="rgb(204, 204, 204)" stroke-width="1px"></line><line x1="51.53200149536133" y1="138.3378880818685" x2="46.53200149536133" y2="138.3378880818685" style="visibility: inherit;" fill="rgb(0, 0, 0)" stroke="rgb(204, 204, 204)" stroke-width="1px"></line><line x1="51.53200149536133" y1="118.57533264160156" x2="46.53200149536133" y2="118.57533264160156" style="visibility: inherit;" fill="rgb(0, 0, 0)" stroke="rgb(204, 204, 204)" stroke-width="1px"></line><line x1="51.53200149536133" y1="98.81277720133464" x2="46.53200149536133" y2="98.81277720133464" style="visibility: inherit;" fill="rgb(0, 0, 0)" stroke="rgb(204, 204, 204)" stroke-width="1px"></line><line x1="51.53200149536133" y1="79.0502217610677" x2="46.53200149536133" y2="79.0502217610677" style="visibility: inherit;" fill="rgb(0, 0, 0)" stroke="rgb(204, 204, 204)" stroke-width="1px"></line><line x1="51.53200149536133" y1="59.28766632080079" x2="46.53200149536133" y2="59.28766632080079" style="visibility: inherit;" fill="rgb(0, 0, 0)" stroke="rgb(204, 204, 204)" stroke-width="1px"></line><line x1="51.53200149536133" y1="39.52511088053385" x2="46.53200149536133" y2="39.52511088053385" style="visibility: inherit;" fill="rgb(0, 0, 0)" stroke="rgb(204, 204, 204)" stroke-width="1px"></line><line x1="51.53200149536133" y1="19.762555440266915" x2="46.53200149536133" y2="19.762555440266915" style="visibility: inherit;" fill="rgb(0, 0, 0)" stroke="rgb(204, 204, 204)" stroke-width="1px"></line><line x1="51.53200149536133" y1="0" x2="46.53200149536133" y2="0" style="visibility: inherit;" fill="rgb(0, 0, 0)" stroke="rgb(204, 204, 204)" stroke-width="1px"></line></g><g transform="translate(41.53200149536133, 0)"><text style="text-anchor: end; visibility: hidden; font-family: Roboto, sans-serif; font-size: 12px; font-weight: 200;" x="0" y="177.86299896240234" dx="0em" dy="0.3em" fill="rgb(50, 49, 63)" stroke="none" stroke-width="1px">0.05</text><text style="text-anchor: end; visibility: inherit; font-family: Roboto, sans-serif; font-size: 12px; font-weight: 200;" x="0" y="158.1004435221354" dx="0em" dy="0.3em" fill="rgb(50, 49, 63)" stroke="none" stroke-width="1px">0.1</text><text style="text-anchor: end; visibility: hidden; font-family: Roboto, sans-serif; font-size: 12px; font-weight: 200;" x="0" y="138.3378880818685" dx="0em" dy="0.3em" fill="rgb(50, 49, 63)" stroke="none" stroke-width="1px">0.15</text><text style="text-anchor: end; visibility: inherit; font-family: Roboto, sans-serif; font-size: 12px; font-weight: 200;" x="0" y="118.57533264160156" dx="0em" dy="0.3em" fill="rgb(50, 49, 63)" stroke="none" stroke-width="1px">0.2</text><text style="text-anchor: end; visibility: hidden; font-family: Roboto, sans-serif; font-size: 12px; font-weight: 200;" x="0" y="98.81277720133464" dx="0em" dy="0.3em" fill="rgb(50, 49, 63)" stroke="none" stroke-width="1px">0.25</text><text style="text-anchor: end; visibility: inherit; font-family: Roboto, sans-serif; font-size: 12px; font-weight: 200;" x="0" y="79.0502217610677" dx="0em" dy="0.3em" fill="rgb(50, 49, 63)" stroke="none" stroke-width="1px">0.3</text><text style="text-anchor: end; visibility: hidden; font-family: Roboto, sans-serif; font-size: 12px; font-weight: 200;" x="0" y="59.28766632080079" dx="0em" dy="0.3em" fill="rgb(50, 49, 63)" stroke="none" stroke-width="1px">0.35</text><text style="text-anchor: end; visibility: inherit; font-family: Roboto, sans-serif; font-size: 12px; font-weight: 200;" x="0" y="39.52511088053385" dx="0em" dy="0.3em" fill="rgb(50, 49, 63)" stroke="none" stroke-width="1px">0.4</text><text style="text-anchor: end; visibility: hidden; font-family: Roboto, sans-serif; font-size: 12px; font-weight: 200;" x="0" y="19.762555440266915" dx="0em" dy="0.3em" fill="rgb(50, 49, 63)" stroke="none" stroke-width="1px">0.45</text><text style="text-anchor: end; visibility: hidden; font-family: Roboto, sans-serif; font-size: 12px; font-weight: 200;" x="0" y="0" dx="0em" dy="0.3em" fill="rgb(50, 49, 63)" stroke="none" stroke-width="1px">0.5</text></g><line x1="51.53200149536133" y1="0" x2="51.53200149536133" y2="177.86299896240234" fill="rgb(0, 0, 0)" stroke="rgb(204, 204, 204)" stroke-width="1px"></line></g></g><g transform="translate(51, 0)" clip-path="url(#clip_0)"><clipPath id="clip_0"><rect width="278" height="177"></rect></clipPath><g><g><g><line x1="0" y1="0" x2="0" y2="177.86299896240234" fill="rgb(0, 0, 0)" stroke="rgb(60, 60, 60)" stroke-width="1px" opacity="0.25"></line><line x1="39.78114264351981" y1="0" x2="39.78114264351981" y2="177.86299896240234" fill="rgb(0, 0, 0)" stroke="rgb(60, 60, 60)" stroke-width="1px" opacity="0.25"></line><line x1="79.56228528703961" y1="0" x2="79.56228528703961" y2="177.86299896240234" fill="rgb(0, 0, 0)" stroke="rgb(60, 60, 60)" stroke-width="1px" opacity="0.25"></line><line x1="119.34342793055943" y1="0" x2="119.34342793055943" y2="177.86299896240234" fill="rgb(0, 0, 0)" stroke="rgb(60, 60, 60)" stroke-width="1px" opacity="0.25"></line><line x1="159.12457057407923" y1="0" x2="159.12457057407923" y2="177.86299896240234" fill="rgb(0, 0, 0)" stroke="rgb(60, 60, 60)" stroke-width="1px" opacity="0.25"></line><line x1="198.90571321759904" y1="0" x2="198.90571321759904" y2="177.86299896240234" fill="rgb(0, 0, 0)" stroke="rgb(60, 60, 60)" stroke-width="1px" opacity="0.25"></line><line x1="238.68685586111886" y1="0" x2="238.68685586111886" y2="177.86299896240234" fill="rgb(0, 0, 0)" stroke="rgb(60, 60, 60)" stroke-width="1px" opacity="0.25"></line><line x1="278.4679985046387" y1="0" x2="278.4679985046387" y2="177.86299896240234" fill="rgb(0, 0, 0)" stroke="rgb(60, 60, 60)" stroke-width="1px" opacity="0.25"></line></g><g><line x1="0" y1="177.86299896240234" x2="278.4679985046387" y2="177.86299896240234" fill="rgb(0, 0, 0)" stroke="rgb(60, 60, 60)" stroke-width="1px" opacity="0.25"></line><line x1="0" y1="158.1004435221354" x2="278.4679985046387" y2="158.1004435221354" fill="rgb(0, 0, 0)" stroke="rgb(60, 60, 60)" stroke-width="1px" opacity="0.25"></line><line x1="0" y1="138.3378880818685" x2="278.4679985046387" y2="138.3378880818685" fill="rgb(0, 0, 0)" stroke="rgb(60, 60, 60)" stroke-width="1px" opacity="0.25"></line><line x1="0" y1="118.57533264160156" x2="278.4679985046387" y2="118.57533264160156" fill="rgb(0, 0, 0)" stroke="rgb(60, 60, 60)" stroke-width="1px" opacity="0.25"></line><line x1="0" y1="98.81277720133464" x2="278.4679985046387" y2="98.81277720133464" fill="rgb(0, 0, 0)" stroke="rgb(60, 60, 60)" stroke-width="1px" opacity="0.25"></line><line x1="0" y1="79.0502217610677" x2="278.4679985046387" y2="79.0502217610677" fill="rgb(0, 0, 0)" stroke="rgb(60, 60, 60)" stroke-width="1px" opacity="0.25"></line><line x1="0" y1="59.28766632080079" x2="278.4679985046387" y2="59.28766632080079" fill="rgb(0, 0, 0)" stroke="rgb(60, 60, 60)" stroke-width="1px" opacity="0.25"></line><line x1="0" y1="39.52511088053385" x2="278.4679985046387" y2="39.52511088053385" fill="rgb(0, 0, 0)" stroke="rgb(60, 60, 60)" stroke-width="1px" opacity="0.25"></line><line x1="0" y1="19.762555440266915" x2="278.4679985046387" y2="19.762555440266915" fill="rgb(0, 0, 0)" stroke="rgb(60, 60, 60)" stroke-width="1px" opacity="0.25"></line><line x1="0" y1="0" x2="278.4679985046387" y2="0" fill="rgb(0, 0, 0)" stroke="rgb(60, 60, 60)" stroke-width="1px" opacity="0.25"></line></g></g></g><g><g><line x1="0" y1="197.62555440266928" x2="278.4679985046387" y2="197.62555440266928" fill="rgb(0, 0, 0)" stroke="rgb(153, 153, 153)" stroke-width="1.5px"></line></g></g><g><g><line x1="39.78114264351981" y1="0" x2="39.78114264351981" y2="177.86299896240234" fill="rgb(0, 0, 0)" stroke="rgb(153, 153, 153)" stroke-width="1.5px"></line></g></g><g><g><g><g><g><path style="fill: none;" stroke="rgb(255, 112, 67)" stroke-width="2px" d="M40.17895406995501,33.62662060717564L40.25851635524205,21.77479840888412L40.81545235225133,80.67988130719652L41.213263778686525,55.330011421255016L41.3723883492606,87.80840250383429L41.61107520512172,103.75468921932436L41.7701997756958,90.5229050258032L41.84976206098284,113.7670159873227L42.00888663155692,24.379464650870723L42.168011202131005,9.183346959907718L42.406698057992116,37.26222325744129L42.565822628566195,7.7789071423204295L43.12275862557547,49.54947007203825L43.44100776672363,87.06706017725365L43.52057005201067,102.34196169682717L43.600132337297715,-3.850914684636436L43.83881919315883,50.45075335249137L44.55487976074219,84.2033276178679L44.63444204602923,112.80815977149605L44.71400433131626,107.15216098633444L44.952691187177386,83.0289484400225L45.191378043038505,89.55791453254128L45.50962718418666,30.913015499064244L45.82787632533482,23.705192677999513L45.90743861062187,28.84565452540344L45.9870008959089,58.80961643504899L46.14612546648298,-76.42214080084104L46.30525003705706,-7.196404869531183L46.3848123223441,40.00040841464472L46.54393689291818,85.90940246771342L46.623499178205215,-90.63188355820579L46.7826237487793,5.848728532160857L46.94174831935337,30.175804287719032L47.498684316362656,64.79946248656509L47.737371172223774,69.59174691449148L47.81693345751081,35.17212485055191L47.97605802808489,64.77118244769736L48.29430716923305,78.62807777452377L48.69211859566825,65.86245385181475L48.771680880955294,11.066345831365231L49.72642830439976,-33.40687644523735L49.8059905896868,-73.82669387642787L50.12423973083496,14.713696207610731L50.36292658669608,80.6951935188514L50.52205115727016,64.23932999654265L50.681175727844234,61.241401112513536L51.3972362954276,73.02356748854776L51.87461000714983,102.85786013229767L52.27242143358503,-194.68186954513274L52.35198371887207,-59.85303705061299L52.59067057473319,21.740858524611255L52.74979514530727,20.621393335148454L52.908919715881346,16.006653982397797L53.38629342760359,35.91212064825929L53.46585571289063,-12.742620372116646L54.18191628047398,63.41110975740618L54.341040851048064,-190.36006527805588L54.500165421622135,-49.42729835841795L54.738852277483254,5.06100234243092L55.454912845066616,30.95769246242587L55.693599700927734,66.78635843479901L55.773161986214774,15.153312157878348L55.93228655678885,67.76080629447578L56.17097341264997,112.24228231356653L56.72790940965925,138.46432788376896L56.88703398023333,145.50927579985625L56.966596265520366,148.40666940190746L57.28484540666852,154.3246502339943L57.36440769195556,32.20904806129251L57.44396997724261,74.69700267908587L57.52353226252965,77.0487865088204L57.76221911839077,112.59019875952166L57.84178140367781,92.04153377734141L58.160030544825965,-6.607417063343783L58.319155115400044,-10.421342629222591L58.71696654183524,37.10089803521492L58.87609111240932,71.26563385723482L58.95565339769636,98.13100834189572L59.27390253884452,38.716369778241784L59.671713965279714,75.83764197757071L59.751276250566754,77.18060781198986L59.91040082114083,16.634093554690356L60.06952539171491,69.4581359706413L60.14908767700195,21.87605501065497L60.22864996228899,65.10666176795276L60.46733681815011,86.98383468270843L60.626461388724195,67.30118965438967L60.86514824458531,89.51605602113091L61.024272815159385,113.65739871672433L61.26295967102051,137.6810118732399L61.34252195630754,146.45893724240764L61.6607710974557,35.72043428738374L61.74033338274275,78.05965048729603L61.81989566802979,58.52400456230936L61.899457953316826,98.21769502581466L62.138144809177945,15.702778657971178L62.217707094464984,9.666372470506689L62.61551852090018,50.74589950032552L63.2520168031965,86.12586327901207L63.411141373770576,89.84383032676112L63.49070365905762,92.15423930595904L63.649828229631694,128.9270220156049L63.80895280020578,124.80356021140321L63.88851508549281,145.8961666634918L64.12720194135393,-52.076095102621046L64.20676422664097,-41.704295052546875L64.28632651192801,11.55203891788383L64.44545108250209,41.57528971657832L64.92282479422433,100.05746086379304L65.00238707951137,107.05994427462173L65.0819493647984,-85.41052338788879L65.63888536180768,-29.80038486383164L65.71844764709472,37.04679068733243L65.8775722176688,35.325034361783196L66.67319507053921,25.358002272223924L66.83231964111327,26.435896420211304L67.0710064969744,50.36889720209234L67.30969335283552,61.49852677877915L67.4688179234096,83.65275765509901L67.70750477927072,87.09796905022948L67.8666293498448,118.24554856993706L68.02575392041888,-52.53434074408518L68.18487849099296,-48.671911703494985L68.42356534685408,23.819225546820494L68.50312763214112,72.21587262781605L68.6622522027152,47.38915747950454L69.21918819972447,51.272113273418L69.29875048501151,39.839522574941014L69.37831277029855,31.744799017317362L69.45787505558559,76.1102602933111L70.25349790845598,116.11297027293998L70.49218476431712,65.94191051975689L70.57174704960416,84.39464631024872L70.8899961907523,-0.25431420669750043L71.2878076171875,62.556700471108634L71.44693218776158,93.35520443643045L71.60605675833565,109.21027091470891L71.84474361419677,120.36314241345195L72.08343047005789,135.2271451344472L72.56080418178013,102.69015958504905L72.64036646706717,115.8863428626537L72.79949103764126,97.11200562228422L72.8790533229283,110.98422088685633L73.35642703465052,127.47975683506301L73.43598931993758,103.7499206561272L73.6746761757987,116.00276090490317L73.99292531694685,125.00556955267179L74.07248760223389,117.988314755828L74.15204988752093,108.41588196567666L74.23161217280797,119.22055825438636L74.62942359924317,136.50390148758342L74.86811045510429,93.07148407939458L74.94767274039131,28.071350665369444L75.02723502567835,49.991901158766325L75.42504645211356,76.36414007973923L75.82285787854876,109.19072833095059L75.98198244912284,90.8502228250069L76.06154473440988,54.86755841447793L76.14110701969692,54.849868891304546L76.22066930498394,80.06332516504978L76.37979387555804,78.31202149949588L77.01629215785435,33.56985324396486L77.33454129900251,82.08233705941646L77.41410358428956,101.39498922874256L78.20972643715994,78.90622710593759L78.60753786359516,104.28320491593298L78.76666243416922,125.83390158042332L78.84622471945626,126.71703029563628L78.9257870047433,147.27121892365716L79.00534929003034,144.8432981036257L79.32359843117851,127.14635146069072L79.72140985761371,116.60311695625212L79.80097214290075,127.36195345396158L80.03965899876185,103.29838703534598L80.43747042519706,121.48625361872406L80.5170327104841,106.60251775128998L80.83528185163225,117.20549851363663L80.9148441369193,117.6603155289889L80.99440642220634,104.73699255625418L81.15353099278042,109.77999392044866L81.39221784864152,67.26733264622737L81.7104669897897,72.49112815121333L81.79002927507673,27.475690466483524L82.10827841622489,77.84761686993598L82.18784070151193,105.08794568110665L82.58565212794713,125.85434329862055L82.7447766985212,123.87582260945159L83.1425881249564,134.05445394084276L83.22215041024344,88.89563481984013L83.30171269553048,114.39021871842849L83.5403995513916,80.74153668738217L83.61996183667864,101.00075962658005L83.69952412196568,131.3910304872514L83.9382109778268,123.14326851811194L84.01777326311384,126.0053954779291L84.09733554840088,132.4219293851155L84.17689783368792,124.33661906530153L84.57470926012311,136.9751434732466L84.7338338306972,145.94680801450474L84.81339611598423,146.08335696094372L84.89295840127129,148.88652584651555L84.97252068655833,114.65023955034985L85.21120754241943,134.83641333606263L85.37033211299351,135.90734868828295L85.60901896885464,106.39448793162286L85.68858125414167,132.94073230057037L86.08639268057688,130.00614299778394L86.16595496586392,144.78365895266117L86.40464182172502,154.57204447038043L86.5637663922991,100.48840427189378L86.9615778187343,124.20305183866786L87.12070238930838,64.66188823410177L87.35938924516951,103.28061999627414L87.51851381574357,130.22161956765396L87.59807610103061,149.5280623647598L87.67763838631765,155.31787747247392L87.7572006716047,146.19306935899468L87.91632524217879,124.77452497997734L87.99588752746583,134.36610558202335L88.15501209803989,130.54644232587705L88.31413666861397,120.17336984644389L88.39369895390102,124.13699547181793L88.47326123918806,95.37547626938579L88.71194809504918,119.66858292554406L88.9506349509103,131.54404751772438L89.3484463773455,134.69730284286257L89.66669551849365,117.41739986217628L89.7462578037807,118.54441006788281L89.90538237435477,112.03715582799555L90.14406923021589,121.66209551956095L90.46231837136405,101.12298483409145L90.54188065665109,108.60000589007615L90.70100522722517,110.73329967132833L90.7805675125122,125.59540114480225L90.86012979779925,127.08758023702501L90.93969208308629,142.1528403436229L91.25794122423446,143.4939835393948L91.33750350952148,144.0822983522241L91.49662808009556,135.55363304479494L91.5761903653826,152.05813215549594L91.89443950653077,133.32593949268917L92.53093778882707,147.733390618776L92.84918692997523,139.58511900287172L92.92874921526229,122.33467360986937L93.16743607112339,111.44503231547111L93.24699835641043,58.95780186172687L93.32656064169747,84.04644030864921L93.48568521227155,87.67572472932758L93.5652474975586,116.31530973478954L93.72437206813268,138.83586794533343L93.88349663870675,132.59009179937834L93.96305892399378,99.71068331166157L94.12218349456788,92.12139051758156L94.28130806514196,80.69743682028954L94.51999492100306,88.00748564648357L94.7586817768642,120.72393075930802L95.07693091801234,126.59263515107645L95.15649320329938,122.01120364763393L95.71342920030865,129.5908132881978L95.87255377088275,136.9269352610841L95.95211605616979,134.66602141294013L96.34992748260497,149.04826173951537L96.66817662375314,110.00049347194486L96.82730119432722,117.2711164897608L97.14555033547538,73.93944259216201L97.54336176191059,113.51887128088164L97.94117318834577,133.92015027729502L98.02073547363281,104.12428301998726L98.10029775891987,98.8207878883814L98.33898461478097,112.19077522742312L98.49810918535505,69.83006458381095L98.65723375592913,93.92203405481982L98.73679604121618,105.78996690573578L98.89592061179025,126.16732454141736L99.13460746765136,78.62607281401142L99.2141697529384,107.50362429692066L99.29373203822546,53.02814280015452L99.45285660879952,83.8448600662732L99.6119811793736,91.9107943503708L99.69154346466064,76.4378616551768L99.85066803523473,110.28708087957703L100.00979260580881,127.38706489699136L100.32804174695696,110.20844144651173L100.48716631753105,124.03995037629348L100.80541545867919,109.27091085862801L100.88497774396623,108.58043589746872L101.12366459982736,103.80141404170725L101.28278917040144,125.89784745733945L101.52147602626255,134.5728302569935L101.68060059683664,129.1092494617474L101.83972516741072,137.12376414794224L102.07841202327182,134.0671395904123L102.31709887913296,142.09883604768433L102.39666116442,105.16306852769044L102.7944725908552,120.45151826876824L103.19228401729038,124.13819075942628L103.51053315843855,102.61550701289524L103.59009544372559,98.5036677744939L103.66965772901263,102.34769870014624L103.82878229958669,105.47283038458674L103.90834458487375,96.73724881125477L103.98790687016078,113.4769217213241L104.38571829659598,43.37611725637816L104.6244051524571,60.82083816354115L104.70396743774414,93.42295559699367L104.78352972303118,13.554373156583674L104.86309200831822,68.21597461490623L105.02221657889231,86.5189079591844L105.26090343475342,99.87739534332792L105.49959029061453,121.50542553559055L106.2156508581979,100.59172676799028L106.45433771405901,58.727066305793706L107.01127371106828,94.5910746044808L107.09083599635532,109.82935085422974L107.17039828164236,115.18091144072271L107.48864742279054,88.47860324090233L107.6477719933646,78.23964144486322L107.80689656393868,50.647756248643994L107.88645884922573,93.87300023543246L108.20470799037388,123.0372043665558L108.68208170209613,126.99679317003917L108.84120627267019,132.4954140693866L109.07989312853132,83.43657696647324L109.15945541381836,111.37859900432389L109.39814226967948,134.74530186196554L109.6368291255406,115.07261699612016L109.79595369611468,100.73254766602042L109.95507826668876,112.5211251748825L110.35288969312396,107.09965611111141L110.432451978411,118.05313980838744L110.67113883427211,141.73292110686006L110.98938797542027,129.67745574417768L111.14851254599435,128.3695238341351L111.46676168714251,66.07764248382588L111.54632397242955,10.572969571988457L111.78501082829067,34.06295030875349L111.94413539886476,-11.445798275338976L112.02369768415178,38.8758834515051L112.2623845400129,90.53721002481646L112.34194682529994,91.11531792298057L112.58063368116107,103.79066391558487L112.6601959664481,97.98628154829375L112.73975825173514,93.76624278023621L113.21713196345739,110.01269082041983L113.61494338989257,51.73441067973658L113.77406796046667,82.48149775565876L113.85363024575369,102.03466487971775L114.96750223977226,66.82396783950232L115.0470645250593,97.0474192259878L115.20618909563336,116.15663127591242L115.76312509264264,103.73839352216153L115.84268737792968,129.7503118889394L115.92224966321672,131.32129833806437L116.24049880436489,132.0048470449562L116.32006108965193,142.5762998237351L116.63831023080009,134.12590476983837L116.95655937194823,149.87580371142022L117.03612165723527,93.8432450243999L117.19524622780936,120.89816618697489L117.35437079838344,122.82141659810301L117.43393308367048,133.88149556713705L117.51349536895752,138.24829671511992L117.59305765424455,151.5119543459728L118.22955593654086,140.21754966683523L118.54780507768903,123.28047147154193L118.70692964826311,98.51019362519524L118.94561650412423,87.32580091135884L119.34342793055943,88.61081534316081L119.82080164228167,69.9528423503674L119.9003639275687,108.67699951794982L119.97992621285576,134.5214674705375L120.13905078342982,115.80840888145771L120.37773763929094,84.23524891597731L121.17336049216135,84.79721638280624L121.33248506273543,74.69314997951957L121.4916096333095,116.75374949383523L121.73029648917063,133.72872056822706L121.96898334503175,52.264905601516666L122.12810791560581,79.31890633430662L122.20767020089285,107.17285199030964L122.60548162732806,124.60172971839559L122.68504391261509,124.33330866790645L122.92373076847622,141.57475548649435L123.00329305376326,144.51160778190894L123.0828553390503,133.0693016244369L123.3215421949114,125.328435155876L123.40110448019844,119.40200076139776L123.71935362134661,115.62168599513224L123.87847819192068,119.29270173023939L124.35585190364293,92.64303255307891L124.514976474217,100.15024767024303L124.75366333007813,97.32411416490116L125.07191247122628,102.50508579149601L125.39016161237444,125.4962209653881L125.54928618294852,136.33887817235575L125.86753532409668,132.96839420399044L125.94709760938372,131.99709495972235L126.34490903581893,105.5453938988811L126.504033606393,134.60545999266517L127.45878102983748,131.1617869987363L127.77703017098563,91.07802832838301L127.85659245627267,100.36617063868388L127.9361547415597,125.55247953710708L128.17484159742082,119.9554489531558L128.3339661679949,125.08384609526466L128.57265302385602,148.54828109003245L128.89090216500418,139.32730522885473L129.05002673557826,77.82541901472207L129.1295890208653,113.72482417965054L129.44783816201345,97.26359792608388L129.5274004473005,121.73056088273034L129.76608730316164,126.94300272227348L130.08433644430977,114.79472155291728L130.1638987295968,127.31262239801477L130.32302330017092,107.42011316173327L130.48214787074497,82.81722828862836L130.72083472660609,93.38152042367906L131.11864615304128,93.36780400903166L131.27777072361536,103.466250717913L131.43689529418944,127.58027685589987L131.6755821500506,148.4974092327595L132.07339357648578,106.31297990933928L132.15295586177282,94.44255285594066L132.3120804323469,127.1979025446037L132.47120500292095,149.45757928217137L132.550767288208,159.36285600040839L132.63032957349506,148.30758195037814L132.86901642935618,119.0218897111484L133.26682785579138,135.60115345624357L133.42595242636546,154.32087990024354L133.5055147116525,156.02460451253364L133.82376385280065,141.73406799370073L134.22157527923582,92.32643848908407L134.539824420384,125.85722710648032L134.85807356153214,109.77497841644428L134.9376358468192,120.24310741739762L135.3354472732544,119.25417673379741L135.49457184382848,143.66891711731557L135.65369641440256,148.52338321308943L135.81282098497664,159.05860040497362L136.05150784083776,151.4816513549582L136.1310701261248,147.81075502568936L136.44931926727295,137.42588250971176L136.9266929789952,130.1275897842672L137.08581754956927,144.04594874981103L137.24494212014335,150.67597597850727L137.40406669071743,154.31219532751638L137.48362897600447,147.31772646469233L137.88144040243967,114.27841385816647L138.27925182887486,130.72137085836786L138.51793868473598,148.00795092779865L138.67706325531006,90.30466052906665L138.83618782588414,88.88407287791284L138.91575011117118,117.08164665223946L139.07487468174526,139.4007293951032L139.23399925231934,155.45943120801013L139.47268610818045,145.35558969277935L139.63181067875453,156.82652910460442L139.71137296404157,161.69689601723104L139.7909352493286,159.71531384744964L139.87049753461568,121.20543873311401L140.42743353162496,124.91390172990602L140.586558102199,138.4822988272496L140.82524495806013,151.30237311930887L140.90480724334716,153.81903186433263L140.98436952863423,149.99355922197037L141.46174324035644,136.55933247791202L141.85955466679164,127.82602065690946L142.09824152265276,106.775047802369L142.1778038079398,126.51814515398151L142.81430209023614,136.86251041608966L142.89386437552315,146.8325574814702L142.97342666081022,134.72426938015266L143.05298894609723,141.12138147580046L143.2121135166713,153.62785782688266L143.6099249431065,156.76013818976122L143.76904951368059,157.7140577703816L143.84861179896762,129.41275599953124L144.48511008126397,118.28397191475572L144.56467236655098,141.11914365206553L144.88292150769914,138.99934621071708L145.04204607827324,148.24083990142347L145.20117064884732,151.30825716590516L145.28073293413433,143.60827619501111L145.4398575047084,146.92547650557077L145.7581066458566,85.79559860720722L145.8376689311436,75.54833887938611L145.9967935017177,98.47280267349502L146.1559180722918,84.0476812653987L146.2354803575788,81.16302597892674L146.3946049281529,83.36112478262655L146.47416721343996,89.7945010184925L146.55372949872697,82.58455199404291L146.63329178401403,101.18278106900631L146.95154092516216,127.91145978820393L147.03110321044923,141.82153572515213L147.26979006631032,133.62747416422084L147.3493523515974,135.45071337123744L147.42891463688443,150.26627141056133L147.7471637780326,159.08745650985117L147.8267260633196,157.9050603054272L147.9858506338937,148.942474817493L148.38366206032887,132.7590900460857L149.02016034262522,147.1084067398465L149.25884719848634,153.43517711892918L149.41797176906041,156.41289491258001L149.5770963396345,163.98571458711334L149.65665862492153,143.44059808756768L149.9749077660697,131.20183128926212L150.13403233664377,149.81753799938429L150.3727191925049,148.91103701822138L150.45228147779193,137.9991856907273L150.61140604836598,109.9889508949131L151.16834204537525,49.5804432502266L151.32746661594936,92.6620441681398L151.4070289012364,112.74682788713513L151.72527804238456,130.1134779171298L151.8048403276716,107.89999925006549L152.04352718353272,127.56468309087619L152.12308946881976,109.59765155560852L152.2026517541068,96.7362904771396L152.36177632468087,123.63971871332726L152.4413386099679,136.2893729161727L152.600463180542,150.46840213992357L152.75958775111607,63.7904501041491L152.8391500364031,69.02246446954999L153.15739917755127,100.95445395272232L153.3960860334124,117.80939891920961L153.71433517456055,99.78402970595022L153.79389745984759,131.70782318720248L154.0325843157087,151.37553744949778L154.19170888628278,159.80853244997857L154.35083345685686,158.87967493013394L154.4303957421439,83.0801209714991L154.50995802743094,90.54056450527602L155.2260185950143,119.12931977167761L155.3851431655884,143.99357965691397L155.6238300214495,158.23955063978394L155.78295459202357,163.2674423303547L155.94207916259768,69.06665025629215L156.49901515960696,93.26282627208568L156.57857744489397,86.9836437333937L156.8172643007551,122.1224884710473L156.89682658604212,137.83441085276917L156.97638887132916,139.07355424799928L157.3742002977644,153.44861718203674L157.61288715362548,152.2811120387931L157.7720117241996,153.94886105142652L158.01069858006068,155.29910423271633L158.09026086534772,142.4080505061952L158.16982315063476,157.48245898016538L158.48807229178294,168.14461253354764L158.56763457706995,170.66696646922102L158.72675914764403,154.0709227304152L158.88588371821814,156.84470982007375L158.96544600350515,103.11836918577275L159.2836951446533,83.03435504436735L159.36325742994035,119.34048250254395L159.6815065710885,138.4785544043915L159.76106885637557,156.14382910126892L159.92019342694965,158.56543457013177L160.0793179975237,160.7275142559456L160.47712942395893,166.09897356791762L160.55669170924597,163.48783284397481L160.71581627982005,167.73748089503087L160.95450313568114,162.037894902515L161.5114391326904,158.30124208274424L161.6705637032645,163.84148479805475L161.98881284441268,171.73907591061067L162.0683751296997,175.32952475907666L162.38662427084788,176.8432066846758L162.4661865561349,163.7479985927566L162.94356026785715,137.24305484037149L163.18224712371824,118.6028856270392L163.2618094090053,144.11943257117642L163.34137169429232,157.3788821279821L163.50049626486643,129.20115281194822L163.58005855015347,132.69217355698422L163.6596208354405,147.3520391068832L163.73918312072752,158.86415401503623L164.0574322618757,157.22418242448273L164.13699454716274,162.293668966174L164.2961191177368,131.97979372382395L164.37568140302386,154.22211325180675L164.53480597359794,158.78542970646885L164.77349282945906,144.57411020179407L164.8530551147461,149.09794535260258L165.17130425589426,82.38331453161265L165.2508665411813,125.38810535737771L165.8873648234776,144.01680695821935L166.2851762499128,159.61924024236356L166.76254996163505,162.92692445240155L166.84211224692206,171.40691459148937L166.92167453220912,144.39975979209112L167.31948595864432,124.91395667882833L167.63773509979248,133.3282160307204L168.11510881151474,148.40363569032178L168.43335795266287,70.19318919545547L168.75160709381103,106.3334122756921L168.9107316643851,113.50619816193434L169.0698562349592,101.07345178579533L169.3085430908203,127.34619063064547L169.7063545172555,127.65721171334759L170.1041659436907,85.19720049628903L170.66110194069998,111.87019442954727L171.13847565242222,136.6940876020766L171.2976002229963,129.56206332616722L171.4567247935704,144.85406550125325L171.61584936414448,151.8754033391761L171.6954116494315,146.43238016663702L171.9340985052926,33.87123888683815L172.65015907287597,84.75579688266842L173.5253442110334,114.46199952703897L173.60490649632047,123.87438423895237L173.84359335218159,138.3431151444838L173.9231556374686,150.81157127411464L174.24140477861675,156.41147579513017L174.32096706390382,131.07343944074395L174.48009163447787,132.96010187711192L174.8779030609131,153.03375833818103L175.11658991677422,149.7517400431402L175.5144013432094,142.80017699133853L175.59396362849645,136.51815376568675L175.6735259137835,149.6647674384543L175.83265048435757,157.43063743931376L175.91221276964458,128.93844658562912L176.31002419607978,99.70064284924806L176.38958648136685,115.27915774547016L176.62827333722794,139.53945536283967L176.707835622515,146.30084445156587L177.1056470489502,157.08037345291055L177.5830207606724,158.07093385081862L177.66258304595948,23.23348980008656L178.06039447239468,72.42263578876113L178.37864361354283,114.04875064674039L178.77645503997803,118.7695970650781L179.41295332227432,145.3968653350369L180.68594988686698,157.7041025061419L180.76551217215402,167.47297250570296L181.16332359858922,156.915769647378L182.19763330732073,117.93257179085487L182.27719559260777,125.39456275365077L182.67500701904297,102.56811420257975L182.83413158961704,91.78244502822527L182.99325616019112,127.25002694473775L183.0728184454782,143.36880607401318L183.1523807307652,160.0083996473575L183.47062987191336,156.17387597808067L183.62975444248747,164.60317066215572L183.78887901306155,171.39190890287745L183.9480035836356,177.56926089165756L184.18669043949674,176.63145360465583L184.26625272478375,162.6270409409681L184.42537729535783,166.970818344292L184.5845018659319,149.5650899290461L184.66406415121895,160.48481688259588L184.74362643650602,143.30618283934663L184.82318872179303,156.800350462345L184.9823132923671,156.42910496607615L185.06187557765415,163.01054487923548L185.1414378629412,164.51414536089823L185.3801247188023,169.57055994687218L186.01662300109865,153.3014901957491L186.33487214224678,160.16840674023305L186.41443442753385,166.43326047185892L186.65312128339494,170.1411254987964L187.1304949951172,171.80401008356498L187.21005728040421,173.79749659312475L187.3691818509783,173.79833150462545L187.7669932774135,167.1542207855283L187.92611784798757,147.39641098815122L188.00568013327464,137.37365754837882L188.32392927442277,129.98236213538118L188.40349155970983,126.51630868796819L188.80130298614503,137.8617882990306L188.9604275567191,149.15631046922783L189.03998984200612,162.06137020756725L189.1991144125802,162.7636248594333L189.91517498016358,150.2923243433309L189.99473726545062,153.88663120194352L190.15386183602467,156.8815682413953L190.31298640659875,148.6809346941872L190.5516732624599,130.59846630852257L190.63123554774694,152.48265160821995L191.3472961153303,145.62327227120093L191.82466982705253,159.758017154018L192.3816058240618,160.12121712365172L192.69985496520994,155.02909623098643L192.779417250497,165.71102000210257L193.09766639164516,166.2286668203083L193.8137269592285,141.81212722400983L194.13197610037668,143.24207996996267L194.21153838566372,157.3224003453798L194.29110067095075,116.06439995723758L194.68891209738595,130.21082052227882L195.1662858091082,151.4082872348129L195.4049726649693,142.3801861139847L195.48453495025635,153.62379094986602L195.5640972355434,165.01417174269457L195.8027840914045,151.7637070211629L195.96190866197858,163.61679277419688L196.12103323255266,165.90597194386183L196.20059551783973,168.80759757452972L196.28015780312674,158.7629960442918L196.5984069442749,162.71353616709928L196.75753151484898,168.7555313271135L196.9962183707101,172.09752983194244L197.07578065599714,171.97486908431952L197.15534294128418,158.76838315752727L197.47359208243236,163.2407044107278L197.95096579415457,130.1866031901192L198.50790179116385,151.08777747183407L198.5874640764509,164.61747701237567L198.66702636173792,165.6090724826964L199.06483778817312,124.9822811114074L199.1444000734602,146.84515519671842L199.30352464403427,152.02232891377247L199.94002292633056,165.91346100587424L200.09914749690464,173.46137993515393L200.25827206747874,152.8536782563879L200.33783435276575,162.951004952127L200.5765212086269,150.63212546408576L201.13345720563618,163.87536871893047L201.3721440614973,132.2485767283367L201.53126863207137,149.87218169277364L201.69039320264545,143.71160650612956L202.08820462908065,154.92271173859743L202.48601605551582,149.8285563576213L202.5655783408029,147.0227664757329L202.64514062608993,154.48610223547237L202.96338976723808,136.4184138709506L203.0429520525251,154.14848287781444L203.52032576424736,158.4762809249229L203.67945033482144,112.4476490954747L203.8385749053955,110.22606926648123L204.07726176125664,125.01923673337963L204.15682404654365,142.30920455337215L204.23638633183072,136.10944675456167L204.31594861711775,132.78123831044348L204.55463547297884,151.3665695160598L204.71376004355292,162.3993057487375L205.11157146998812,167.53907660790296L205.35025832584927,130.38134853482674L205.50938289642335,149.0669425746406L205.82763203757148,163.78023068380966L205.90719432285854,170.7554680995764L206.30500574929374,163.50566635727307L206.6232548904419,163.05353726307317L206.86194174630302,156.13613802135154L206.94150403159003,154.96072047613748L207.1006286021641,136.82492963612165L207.4188777433123,154.93503105649242L207.49844002859933,161.7009356886275L207.65756459917338,165.95327192356348L207.73712688446045,173.3062296035339L208.21450059618266,123.07182354996043L208.29406288146973,120.1363425427061L208.4531874520438,147.91990803174912L208.61231202261789,152.36471033465642L208.850998878479,103.13557960339257L208.93056116376604,136.78868529291205L209.08968573434012,130.1878471073838L209.32837259020124,144.380749830261L209.6466217313494,161.94821488339014L209.80574630192348,135.96440486752445L209.88530858721052,100.01758005625027L210.04443315778462,106.83044168439011L210.12399544307164,135.9162655780806L210.6809314400809,158.50942897614388L210.840056010655,168.1619374424961L211.0787428665161,172.60358383520818L211.2378674370902,174.65936461153566L211.31742972237726,176.51282476718882L211.39699200766427,138.31206833181415L211.87436571938653,152.8150140038433L212.6699885722569,146.01521930564815L212.82911314283098,139.71798098074032L213.22692456926617,138.1547990996854L213.38604913984025,128.73347611975606L213.70429828098844,150.23590441937122L213.78386056627545,159.8724630657326L213.86342285156252,151.09175100043097L214.02254742213657,165.39130234455536L214.18167199271065,166.3383276376939L214.26123427799772,163.36042954011288L214.57948341914584,168.4542455158752L215.05685713086808,165.6241322602784L215.2159817014422,174.11245648822072L215.37510627201627,165.17141293040422L215.69335541316443,163.21800590310508L216.40941598074775,172.33653913577393L216.48897826603482,152.12387705648533L216.56854055132183,147.27958473071433L216.88678969247,158.15118441102706L217.2846011189052,155.48387855325845L217.36416340419225,137.8610596057492L217.44372568947927,153.4199580958975L217.76197483062745,135.23401725996996L217.84153711591446,153.54917968639197L218.0802239717756,142.38970744467795L218.2393485423497,159.96001680399374L218.4780353982108,167.54148974157604L218.875846824646,174.88940919207667L219.03497139522008,175.30865061698393L219.19409596579416,152.6379606084366L219.2736582510812,157.88933892794057L219.67146967751637,153.5453865901896L219.83059424809048,117.44573033168861L220.22840567452565,144.55864346759282L220.4670925303868,157.5687120216113L220.62621710096087,169.9997090743731L220.78534167153492,166.46244293574065L221.18315309797015,173.60331347296787L221.42183995383127,159.51988132980605L221.58096452440535,148.48724021088339L221.74008909497942,148.35361045387975L221.81965138026646,149.80447790968717L222.05833823612755,160.27856730194696L222.13790052141462,126.65046788980663L222.21746280670166,137.4722598068L222.45614966256278,150.05159594943603L222.53571194784982,138.71820902942875L222.61527423313683,152.59070223295515L223.25177251543317,165.50571854025702L223.3313348007202,167.91120568087916L223.41089708600725,166.9762981625548L223.57002165658133,172.77512173303285L223.64958394186837,175.18399461667067L223.96783308301653,170.9373056592554L224.1269576535906,172.2291637934484L224.84301822117396,178.19696962213908L225.3203919328962,181.32533074129196L225.39995421818324,149.98783195288223L225.55907878875735,163.0356914752764L225.95689021519252,138.13658667983245L226.03645250047956,125.32686776827133L226.11601478576662,144.5222195799211L226.19557707105363,151.01344651300562L226.3547016416277,159.95923456996317L226.5138262122018,164.58966321788492L226.83207535334998,126.97928755577003L227.1503244944981,110.42470300168459L227.22988677978515,134.7925701748569L227.38901135035925,134.42300031905344L227.62769820622034,143.37779812454883L227.78682277679442,113.12953504632559L228.3437587738037,133.03825742484742L228.7415702002389,138.80920475196146L228.98025705610002,148.7950546283695L229.37806848253524,156.12900162973327L229.61675533839636,145.07375446055738L229.69631762368337,146.36961896993557L229.77587990897044,150.43570730418685L230.0941290501186,150.28565664588638L230.41237819126673,138.289867648004L230.5715027618408,151.61597909204679L231.20800104413715,144.9115825695332L231.28756332942416,154.31181942729125L231.36712561471123,127.6663833292147L231.68537475585936,104.4748683084676L232.00362389700754,128.26368972528707L232.3218730381557,146.15224211046936L232.4014353234427,155.1205848663866L232.7196844645909,150.24974462472878L232.7992467498779,161.7826315752721L232.87880903516498,158.44776029262317L232.958371320452,167.41803376629966L233.27662046160017,130.16675277762948L233.51530731746126,138.41283802578195L233.7539941733224,140.9761911760943L233.91311874389646,146.49126101242578L234.07224331447054,134.4493569453583L234.39049245561873,148.01547092168275L234.78830388205392,131.5228864494778L234.86786616734096,123.3813568909215L234.947428452628,95.02290123433814L235.10655302320208,127.23676388825216L235.1861153084891,142.52782078301556L235.3452398790632,141.52591355711837L235.50436444963728,120.09471028028409L235.58392673492432,137.03472413114275L235.66348902021136,135.081223793122L236.29998730250767,128.67906249256143L236.45911187308172,139.252250482019L236.69779872894287,157.70498814983537L236.7773610142299,163.61070849105164L236.85692329951695,144.13298124501443L236.936485584804,161.2913255877467L237.09561015537807,124.18938159148028L237.25473472595215,111.4657794171077L237.49342158181327,78.22929742444843L237.5729838671003,89.46120888407424L237.89123300824846,78.48171721394979L237.9707952935355,80.07559833686905L238.05035757882254,118.20324029550359L238.2890444346837,126.70756160778254L238.92554271697998,148.8168518362014L240.3576638521467,149.26737182579228L240.43722613743373,163.3106459214234L240.83503756386895,155.0883954474313L240.91459984915596,137.5096249909859L241.07372441973007,150.25259195657335L241.23284899030415,153.93490172879916L241.31241127559116,166.88381953448894L241.55109813145228,154.2256923296942L241.86934727260044,140.15263549710676L241.9489095578875,149.6848245663809L242.10803412846155,153.97743698759683L242.26715869903563,162.28993080587796L242.3467209843227,141.1314411144411L242.74453241075787,139.8592517656123L242.8240946960449,134.53873057718076L243.06278155190606,151.86872346394887L243.14234383719307,161.51674829513385L243.46059297834125,162.50190463176307L243.54015526362826,163.50991148398657L243.61971754891533,127.63057722474936L244.09709126063754,134.23276101725557L244.25621583121162,127.18069183668437L244.3357781164987,107.794310985898L244.4153404017857,107.27179572887046L245.44965011051724,99.94908595751345L245.52921239580425,109.32509451580215L245.68833696637836,108.33118753236201L246.08614839281353,134.57547179025926L246.48395981924872,154.205959978712L246.6430843898228,157.66708172635867L247.12045810154507,153.2273995825767L247.27958267211915,128.40580439542236L247.43870724269323,147.14995744686803L247.5978318132673,150.5535462438132L247.67739409855434,138.98726149137377L247.83651866912842,144.23010050377982L248.23433009556362,148.5920082142013L248.31389238085066,130.27932001707305L248.3934546661377,-10.73718236603955L248.4730169514247,15.531126500220907L248.71170380728586,55.913234322001436L248.7912660925729,96.1941285152787L249.029952948434,130.28413642336398L249.10951523372105,152.00655648804667L249.1890775190081,153.083869426011L249.26863980429513,136.31142088870476L249.58688894544326,145.80310729373184L249.66645123073033,105.33684477659145L250.06426265716553,132.9213432922439L250.2233872277396,130.31306228906507L250.6211986541748,144.31243881779358L250.70076093946184,154.4731747033003L250.85988551003595,159.95068645774498L251.01901008061,153.50329847725874L251.09857236589704,167.32101576354015L251.25769693647112,177.00351782287328L251.4168215070452,181.6031108453131L251.8146329334804,176.00138227036285L252.05331978934151,30.67966458151412L252.2124443599156,76.25207852788847L252.29200664520263,-20.412328831606647L252.6102557863508,62.71371231387957L253.008067212786,99.50840557717072L253.56500320979526,128.58569008234778L253.6445654950823,107.84390602516834L254.0423769215175,122.87166625572286L254.20150149209158,8.911454024761833L254.59931291852678,82.06848211748512L254.67887520381382,63.159210108445194L254.75843748910086,66.74570559403926L254.8379997743879,114.09351999796358L255.55406034197125,49.372059477829744L255.95187176840645,69.56772386816031L256.19055862426757,101.46491120624283L256.27012090955463,36.02549438465515L256.98618147713796,87.10681181420408L257.14530604771204,112.77066226276348L257.3839929035732,125.57053326928948L257.54311747414727,132.71143755251745L258.0204911858695,143.9145288256197L258.57742718287875,152.4841828812398L258.73655175345283,128.05303058924116L258.8161140387399,138.79083136131086L258.975238609314,129.42274751535192L259.21392546517507,148.25918002172705L259.5321746063233,133.53515984924385L259.77086146218437,125.38192694497255L259.8504237474714,140.9504321001095L260.00954831804546,102.77749086698638L260.16867288861954,97.78259021925615L260.2482351739066,132.02619654469459L260.72560888562884,126.0884657496033L260.8051711709159,144.39363141420625L260.96429574148993,150.11732133770633L261.123420312064,156.62521448649866L261.36210716792516,152.55369392142515L261.91904316493446,165.00354419176742L262.23729230608257,160.5098447570332L262.31685459136963,156.43605006758406L262.5555414472307,122.30045875241402" fill="none"></path></g></g></g></g><g opacity="0.2"><g><g><g><path style="fill: none;" stroke="rgb(255, 112, 67)" stroke-width="2px" d="M40.17895406995501,33.62662060717564L40.25851635524205,14.66370508990925L40.81545235225133,137.22876088957642L41.213263778686525,25.518564435387816L41.3723883492606,130.21218990124984L41.61107520512172,125.81414441006471L41.7701997756958,71.6012419205208L41.84976206098284,147.6571529126833L42.00888663155692,-107.44981093242433L42.168011202131005,-13.381116794832153L42.406698057992116,79.12586436232839L42.565822628566195,-36.28562012604557L43.12275862557547,112.06892633128972L43.44100776672363,143.26994447038942L43.52057005201067,125.23635890284896L43.600132337297715,-163.06533381291652L43.83881919315883,131.88027676212945L44.55487976074219,134.82361924098313L44.63444204602923,155.71105034366724L44.71400433131626,98.66867978928438L44.952691187177386,46.84545259486186L45.191378043038505,99.35114883290906L45.50962718418666,-57.05317520992138L45.82787632533482,12.893543829935268L45.90743861062187,36.556310760306594L45.9870008959089,103.75543151690711L46.14612546648298,-279.2694306336731L46.30525003705706,96.64209274962256L46.3848123223441,110.79558486597305L46.54393689291818,154.7728681741133L46.623499178205215,-355.4437540540736L46.7826237487793,150.5696274712985L46.94174831935337,66.66641501689203L47.498684316362656,116.73494730481251L47.737371172223774,76.78017335042416L47.81693345751081,-16.457307357810976L47.97605802808489,109.16976838546968L48.29430716923305,99.41342063613017L48.69211859566825,46.714018038852984L48.771680880955294,-71.12781601618732L49.8059905896868,-134.4564199745855L50.12423973083496,147.52428126975624L50.36292658669608,179.66743945713534L50.52205115727016,39.55553471735584L50.681175727844234,56.7445077869373L51.3972362954276,90.69681705149681L51.87461000714983,147.60929909624792L52.27242143358503,-640.9914640512579L52.35198371887207,142.39021168844224L52.59067057473319,144.13170188645836L52.74979514530727,18.94219555096243L52.908919715881346,9.084544953291996L53.38629342760359,65.77032064699931L53.46585571289063,-85.724731902604L54.18191628047398,177.64170495161864L54.341040851048064,-571.0168278311054L54.500165421622135,161.97185202099112L54.738852277483254,86.7934533936932L55.454912845066616,69.80272764241515L55.693599700927734,120.52935739335605L55.773161986214774,-62.296257257500315L55.93228655678885,146.6720474993705L56.17097341264997,178.96449634220193L56.72790940965925,177.79739623907233L56.88703398023333,156.07669767398724L56.966596265520366,152.75275980498427L57.28484540666852,163.20162148212452L57.36440769195556,-150.96435519775997L57.44396997724261,138.42893460577594L57.52353226252965,80.5764622534222L57.76221911839077,165.9023171355735L57.84178140367781,61.21853630407107L58.160030544825965,-154.5808433243716L58.239592830113,-163.1926220197844L58.319155115400044,77.80889199582361L58.71696654183524,108.38425903187121L58.87609111240932,122.51273759026463L58.95565339769636,138.42907006888709L59.27390253884452,-50.405588067239165L59.671713965279714,131.51955027656413L59.751276250566754,79.19505656361859L59.91040082114083,-74.18567783125884L60.06952539171491,148.69419959456764L60.14908767700195,-49.49706642932442L60.22864996228899,129.95257190389944L60.46733681815011,119.799594054842L60.626461388724195,37.77722211191152L60.86514824458531,122.83835557124273L61.024272815159385,149.86941276011444L61.26295967102051,173.7164316080132L61.34252195630754,159.6258252961593L61.6607710974557,-130.3873201451521L61.74033338274275,141.5684747871645L61.81989566802979,29.220535674829378L61.899457953316826,157.75823072107264L62.138144809177945,-108.06959589379399L62.217707094464984,0.6117631893099965L62.61551852090018,112.36519004505377L63.2520168031965,139.1958089470419L63.411141373770576,95.42078089838469L63.49070365905762,95.6198527747559L63.649828229631694,184.0861960800737L63.80895280020578,118.61836750510065L63.88851508549281,177.53507634162474L64.12720194135393,-349.0344877517903L64.20676422664097,-26.14659497743556L64.28632651192801,91.43653987352991L64.44545108250209,86.61016591462005L64.92282479422433,187.7807175846151L65.00238707951137,117.5636693908647L65.0819493647984,-374.1162248816545L65.47976079123362,120.26996320462406L65.63888536180768,-69.79346903325371L65.71844764709472,137.31755401407858L65.8775722176688,32.74239987345936L66.67319507053921,10.407454137884997L66.83231964111327,28.05273764219237L67.0710064969744,86.26839837491389L67.30969335283552,78.19297114380939L67.4688179234096,116.8841039695788L67.70750477927072,92.26578614292521L67.8666293498448,164.9669178494984L68.02575392041888,-308.7041747151185L68.18487849099296,-42.87826814260974L68.42356534685408,132.55593142229372L68.50312763214112,144.81084324930939L68.6622522027152,10.149084757037286L69.21918819972447,57.09654696428818L69.29875048501151,22.690636527225564L69.37831277029855,19.602713680881912L69.45787505558559,142.6584522073017L70.25349790845598,176.1170352423833L70.49218476431712,-9.31467911001772L70.57174704960416,112.0737499959864L70.8899961907523,-127.22775498211675L71.2878076171875,156.77322248781783L71.44693218776158,139.55296038441324L71.60605675833565,132.9928706321266L71.84474361419677,137.09244966156652L72.08343047005789,157.52314921594007L72.56080418178013,53.884681260951766L72.64036646706717,135.68061777906073L72.79949103764126,68.95049976172989L72.8790533229283,131.79254378371448L73.35642703465052,152.22306075737302L73.43598931993758,68.15516638772351L73.6746761757987,134.38202127806713L73.99292531694685,138.5097825243247L74.07248760223389,107.4624325605623L74.15204988752093,94.05723278044965L74.23161217280797,135.42757268745086L74.62942359924317,162.42891633737904L74.86811045510429,27.922857967111355L74.94767274039131,-69.42884945566826L75.02723502567835,82.8727268988617L75.42504645211356,115.92249846119859L75.82285787854876,158.4306107077676L75.98198244912284,63.339464566091316L76.06154473440988,0.8935617986844525L76.14110701969692,54.82333460654445L76.22066930498394,117.88350957566762L76.37979387555804,75.68506600116507L77.01629215785435,-33.543399139331655L77.33454129900251,154.85106278259386L77.41410358428956,130.36396748273168L78.20972643715994,45.17308392173011L78.60753786359516,142.34867163092608L78.76666243416922,158.15994657715882L78.84622471945626,128.04172336845568L78.9257870047433,178.1025018656885L79.00534929003034,141.2014168735785L79.32359843117851,100.60093149628833L79.72140985761371,100.7882651995942L79.80097214290075,143.50020820052578L80.03965899876185,67.20303740742263L80.43747042519706,148.7680534937912L80.5170327104841,84.2769139501388L80.83528185163225,133.10996965715654L80.9148441369193,118.34254105201732L80.99440642220634,85.35200809715207L81.15353099278042,117.3444959667404L81.39221784864152,3.4983407348954576L81.7104669897897,80.32682140869231L81.79002927507673,-40.047466060611114L82.10827841622489,153.40550647511463L82.18784070151193,145.94843889786262L82.58565212794713,157.00393972489147L82.7447766985212,120.90804157569816L83.1425881249564,149.32240093792947L83.22215041024344,21.15740613833622L83.30171269553048,152.63209456631103L83.5403995513916,30.268513640812664L83.61996183667864,131.38959403537683L83.69952412196568,176.97643677825852L83.9382109778268,110.7716255644027L84.01777326311384,130.29858591765483L84.09733554840088,142.0467302458951L84.17689783368792,112.20865358558056L84.57470926012311,155.93293008516412L84.7338338306972,159.40430482639195L84.81339611598423,146.28818038060217L84.89295840127129,153.0912791748733L84.97252068655833,63.29581010610127L85.21120754241943,165.11567401463176L85.37033211299351,137.51375171661343L85.60901896885464,62.125196796632736L85.68858125414167,172.76009885399162L86.08639268057688,125.60425904360424L86.16595496586392,166.949932884977L86.40464182172502,169.25462274695937L86.5637663922991,19.362943974163812L86.9615778187343,159.77502318882898L87.12070238930838,-24.649857172747318L87.35938924516951,161.2087176395327L87.51851381574357,170.6331189247237L87.59807610103061,178.4877265604185L87.67763838631765,164.00260013404514L87.7572006716047,132.50585718877574L87.91632524217879,92.64670841145139L87.99588752746583,148.75347648509242L88.15501209803989,124.81694744165756L88.31413666861397,104.61376112729415L88.39369895390102,130.082433909879L88.47326123918806,52.23319746573754L88.71194809504918,156.10824290978144L88.9506349509103,149.35724440599492L89.3484463773455,139.4271858305698L89.66669551849365,91.49754539114686L89.7462578037807,120.23492537644263L89.90538237435477,102.27627446816466L90.14406923021589,136.09950505690904L90.46231837136405,70.31431880588723L90.54188065665109,119.81553747405314L90.70100522722517,113.93324034320659L90.7805675125122,147.88855335501316L90.86012979779925,129.32584887535918L90.93969208308629,164.75073050351966L91.25794122423446,145.50569833305266L91.33750350952148,144.964770571468L91.49662808009556,122.76063508365118L91.5761903653826,176.81488082154752L91.89443950653077,105.227650498479L92.53093778882707,169.3445673079062L92.84918692997523,127.36271157901531L92.92874921526229,96.45900552036589L93.16743607112339,95.11057037387368L93.24699835641043,-19.773043818889462L93.32656064169747,121.67939797903273L93.48568521227155,93.11965136034512L93.5652474975586,159.2746872429825L93.72437206813268,172.61670526114926L93.88349663870675,123.22142758044569L93.96305892399378,50.3915705800864L94.12218349456788,80.73745132646157L94.28130806514196,63.56150627435151L94.51999492100306,98.97255888577472L94.7586817768642,169.79859842854466L95.07693091801234,135.39569173872906L95.15649320329938,115.13905639247012L95.71342920030865,140.96022774904364L95.87255377088275,147.9311182204136L95.95211605616979,131.27465064072416L96.34992748260497,170.62162222937823L96.66817662375314,51.42884107058913L96.82730119432722,128.1770510164847L97.14555033547538,8.941931745763817L97.54336176191059,172.8880143139611L97.94117318834577,164.52206877191506L98.02073547363281,59.43048213402562L98.10029775891987,90.86554519097263L98.33898461478097,132.24575623598562L98.49810918535505,6.288998618392725L98.65723375592913,130.05998826133313L98.73679604121618,123.59186618210968L98.89592061179025,156.73336099493972L99.13460746765136,7.314195222902533L99.2141697529384,150.81995152128457L99.29373203822546,-28.685079444994674L99.45285660879952,130.0699359654512L99.6119811793736,104.0096957765172L99.69154346466064,53.22846261238585L99.85066803523473,161.06090971617732L100.00979260580881,153.03704092311287L100.32804174695696,84.44050627079226L100.48716631753105,144.78721377096613L100.80541545867919,87.11735158212984L100.88497774396623,107.54472345572974L101.12366459982736,96.63288125806501L101.28278917040144,159.04249758078777L101.52147602626255,147.58530445647466L101.68060059683664,120.91387826887814L101.83972516741072,149.1455361772345L102.07841202327182,129.48220275411737L102.31709887913296,154.14638073359242L102.39666116442,49.75941724769958L102.7944725908552,143.38419288038494L103.19228401729038,129.66819949541332L103.51053315843855,70.33148139309863L103.59009544372559,92.33590891689194L103.66965772901263,108.11374508862475L103.82878229958669,110.16052791124746L103.90834458487375,83.63387645125688L103.98790687016078,138.5864310864281L104.38571829659598,-61.77508944104068L104.6244051524571,86.98791952428564L104.70396743774414,142.32613174717244L104.78352972303118,-106.24850050403133L104.86309200831822,150.20837680239006L105.02221657889231,113.97330797560168L105.26090343475342,119.9151264195431L105.49959029061453,153.94747082398453L106.2156508581979,69.2211786165899L106.45433771405901,-4.069924387501201L107.01127371106828,148.38708705251142L107.09083599635532,132.6867652288532L107.17039828164236,123.20825232046217L107.48864742279054,48.425140941171776L107.6477719933646,62.88119875080458L107.80689656393868,9.259928454315137L107.88645884922573,158.71086621561517L108.20470799037388,166.7835105632408L108.68208170209613,132.93617637526418L108.84120627267019,140.74334541840776L109.07989312853132,9.848321312103195L109.15945541381836,153.29163206109988L109.39814226967948,169.79535614842803L109.6368291255406,85.56358969735204L109.79595369611468,79.22244367087085L109.95507826668876,130.20399143817562L110.35288969312396,98.96745251545478L110.432451978411,134.48336535430144L110.67113883427211,177.25259305456896L110.98938797542027,111.59425770015407L111.14851254599435,126.40762596907128L111.46676168714251,-27.360179541637976L111.54632397242955,-72.68403979576756L111.78501082829067,69.29792141390104L111.94413539886476,-79.70892115147761L112.02369768415178,114.35840604177126L112.2623845400129,168.02919988478342L112.34194682529994,91.98247977022675L112.58063368116107,122.80368290449132L112.6601959664481,89.27970799735702L112.73975825173514,87.43618462814993L113.21713196345739,134.38236288069524L113.61494338989257,-35.68300953128829L113.77406796046667,128.6021283695421L113.85363024575369,131.3644155658062L114.96750223977226,14.007922279179184L115.0470645250593,142.38259630571596L115.20618909563336,144.82044935079935L115.76312509264264,85.11103689153515L115.84268737792968,168.7681894391062L115.92224966321672,133.6777780117518L116.24049880436489,133.03017010529402L116.32006108965193,158.43347899190348L116.63831023080009,121.45031218899322L116.95655937194823,173.500652123793L117.03612165723527,9.794406993869423L117.19524622780936,161.4805479308374L117.35437079838344,125.70629221479521L117.43393308367048,150.4716140206881L117.51349536895752,144.79849843709417L117.59305765424455,171.40744079225215L118.22955593654086,123.27594264812886L118.54780507768903,97.874854178602L118.70692964826311,61.35477685567517L118.94561650412423,70.54921184060427L119.34342793055943,90.53833699086378L119.82080164228167,41.965882861177306L119.9003639275687,166.76323526932342L119.97992621285576,173.28816939941893L120.13905078342982,87.73882099783805L120.37773763929094,36.87550896775671L121.17336049216135,85.64016758304963L121.33248506273543,59.53705037458954L121.4916096333095,179.84464876530865L121.73029648917063,159.19117717981484L121.96898334503175,-69.93081684854889L122.12810791560581,119.89990743349152L122.20767020089285,148.95377047431415L122.60548162732806,150.74504631052454L122.68504391261509,123.93067709217273L122.92373076847622,167.43692571437614L123.00329305376326,148.91688622503088L123.0828553390503,115.90584238822885L123.3215421949114,113.71713545303463L123.40110448019844,110.51234916968042L123.71935362134661,109.95121384573395L123.87847819192068,124.79922533290012L124.35585190364293,52.66852878733819L124.514976474217,111.41107034598917L124.75366333007813,93.08491390688839L125.07191247122628,110.27654323138827L125.39016161237444,159.98292372622623L125.54928618294852,152.60286398280718L125.86753532409668,127.91266825144248L125.94709760938372,130.5401460933202L126.34490903581893,65.86784230761926L126.504033606393,178.1955591333413L127.45878102983748,125.99627750784292L127.77703017098563,30.952390322853105L127.85659245627267,114.2983841041352L127.9361547415597,163.33194288474184L128.17484159742082,111.55990307722882L128.3339661679949,132.776441808428L128.57265302385602,183.74493358218405L128.89090216500418,125.49584143708822L129.05002673557826,-14.4274103064769L129.1295890208653,167.57393192704322L129.44783816201345,72.57175854573384L129.5274004473005,158.43100531770006L129.76608730316164,134.7616654815882L130.08433644430977,96.57229979888294L130.1638987295968,146.089473665661L130.32302330017092,77.58134930731103L130.48214787074497,45.91290097897095L130.72083472660609,109.2279586262551L131.11864615304128,93.3472293870606L131.27777072361536,118.61392078123497L131.43689529418944,163.75131606288014L131.6755821500506,179.87310779804903L132.07339357648578,43.03633592420889L132.15295586177282,76.6369122758427L132.3120804323469,176.3309270775983L132.47120500292095,182.84709438852283L132.550767288208,174.22077107776394L132.63032957349506,131.72467087533278L132.86901642935618,75.09335135230383L133.26682785579138,160.47004907388632L133.42595242636546,182.40046956624343L133.5055147116525,158.58019143096877L133.82376385280065,120.29826321545139L134.22157527923582,18.214994232159057L134.539824420384,176.1534100325747L134.85807356153214,85.65160538139025L134.9376358468192,135.94530091882766L135.3354472732544,117.77078070839707L135.49457184382848,180.29102769259282L135.65369641440256,155.8050823567502L135.81282098497664,174.86142619279994L136.05150784083776,140.11622777993503L136.1310701261248,142.30441053178615L136.44931926727295,121.84857373574535L136.9266929789952,119.18015069610041L137.08581754956927,164.92348719812676L137.24494212014335,160.62101682155154L137.40406669071743,159.76652435103006L137.48362897600447,136.8260231704562L137.88144040243967,64.71944494837771L138.27925182887486,155.38580635866992L138.51793868473598,173.93782103194476L138.67706325531006,3.7497249309687115L138.83618782588414,86.75319140118215L138.91575011117118,159.3780073137293L139.07487468174526,172.87935350939884L139.23399925231934,179.54748392737048L139.47268610818045,130.19982741993317L139.63181067875453,174.03293822234198L139.71137296404157,169.00244638617096L139.7909352493286,156.7429405927775L139.87049753461568,63.4406260616106L140.42743353162496,130.476596225094L140.586558102199,158.83489447326497L140.82524495806013,170.53248455739777L140.90480724334716,157.5940199818683L140.98436952863423,144.25535025842692L141.46174324035644,116.40799236182448L141.85955466679164,114.7260529254057L142.09824152265276,75.19858852055827L142.1778038079398,156.13279118140022L142.81430209023614,152.37905830925192L142.89386437552315,161.78762807954095L142.97342666081022,116.56183722817634L143.05298894609723,150.71704961927216L143.2121135166713,172.3875723535059L143.6099249431065,161.45855873407905L143.76904951368059,159.14493714131217L143.84861179896762,86.96080334325566L144.48511008126397,101.59079578759247L144.56467236655098,175.37190125803022L144.88292150769914,135.8196500486944L145.04204607827324,162.10308043748304L145.20117064884732,155.90938306262765L145.28073293413433,132.05830473867005L145.4398575047084,151.90127697141028L145.7581066458566,-5.899218240338073L145.8376689311436,60.17744928765448L145.9967935017177,132.85949836465838L146.1559180722918,62.40999915325422L146.2354803575788,76.83604304921876L146.3946049281529,86.65827298817628L146.47416721343996,99.44456537229144L146.55372949872697,71.76962845736853L146.63329178401403,129.0801246814514L146.95154092516216,168.00447786700033L147.03110321044923,162.6866496305744L147.26979006631032,121.33638182282388L147.3493523515974,138.18557218176238L147.42891463688443,172.4896084695471L147.7471637780326,172.31923415878592L147.8267260633196,156.13146599879124L147.9858506338937,135.4985965855917L148.38366206032887,108.48401288897473L149.02016034262522,168.6323817804877L149.25884719848634,162.92533268755315L149.41797176906041,160.87947160305626L149.5770963396345,175.34494409891332L149.65665862492153,112.62292333824917L149.9749077660697,112.84368109180376L150.13403233664377,177.7410980645675L150.3727191925049,147.55128554647703L150.45228147779193,121.6314086994862L150.61140604836598,67.9735987011918L151.16834204537525,-41.03231821680306L151.32746661594936,157.28444554500962L151.4070289012364,142.87400346562814L151.72527804238456,156.1634529621218L151.8048403276716,74.579781249469L152.04352718353272,157.06170885209227L152.12308946881976,82.64710425270702L152.2026517541068,77.4442488594362L152.36177632468087,163.9948610676087L152.4413386099679,155.26385422044086L152.600463180542,171.7369459755499L152.75958775111607,-66.22647794951259L152.8391500364031,76.87048601765127L153.15739917755127,148.85243817748082L153.3960860334124,143.09181636894058L153.71433517456055,72.74597588606109L153.79389745984759,179.59351340908086L154.0325843157087,180.87710884294077L154.19170888628278,172.45802495069975L154.35083345685686,157.48638865036696L154.4303957421439,-30.619209966453102L154.50995802743094,101.73122980594142L155.2260185950143,162.01245267128002L155.3851431655884,181.28996948476848L155.6238300214495,179.6085071140889L155.78295459202357,170.80927986621077L155.94207916259768,-72.23453785480156L156.49901515960696,129.55709029577596L156.57857744489397,77.56486992535581L156.8172643007551,174.83075557752764L156.89682658604212,161.402294425352L156.97638887132916,140.9322693408444L157.3742002977644,175.01121158309294L157.61288715362548,150.52985432392765L157.7720117241996,156.4504845703766L158.01069858006068,157.32446900465106L158.09026086534772,123.07146991641352L158.16982315063476,180.0940716911206L158.48807229178294,184.13784286362102L158.56763457706995,174.4504973727311L158.72675914764403,129.17685712220646L158.88588371821814,161.00539045456154L158.96544600350515,22.52885823432129L159.2836951446533,52.9083338322592L159.36325742994035,173.79967368980886L159.6815065710885,167.18566225716282L159.76106885637557,182.64174114658508L159.92019342694965,162.19784277342606L160.0793179975237,163.97063378466632L160.47712942395893,174.15616253587567L160.55669170924597,159.5711217580606L160.71581627982005,174.11195297161498L160.95450313568114,153.48851591374114L161.5114391326904,152.6962628530881L161.6705637032645,172.15184887102055L161.98881284441268,183.58546257944454L162.38662427084788,179.11372957307455L162.4661865561349,144.10518645487778L162.94356026785715,97.48563921179388L163.18224712371824,90.64263180704073L163.2618094090053,182.3942529873822L163.34137169429232,177.26805646319065L163.50049626486643,86.93455883789738L163.58005855015347,137.92870467453818L163.6596208354405,169.3418374317317L163.73918312072752,176.13232637726583L164.0574322618757,154.7642250386525L164.13699454716274,169.8978987787109L164.2961191177368,86.50898086029883L164.37568140302386,187.585592543781L164.53480597359794,165.630404388462L164.77349282945906,123.25713094478184L164.8530551147461,155.8836980788154L165.17130425589426,-17.688631699872218L165.2508665411813,189.8952915960253L165.8873648234776,171.95985935948178L166.2851762499128,183.0228901685799L166.76254996163505,167.88845076745852L166.84211224692206,184.1268998001211L166.92167453220912,103.88902759299376L167.31948595864432,95.68525200893419L167.63773509979248,145.94960505855852L168.11510881151474,171.01676517972388L168.43335795266287,-47.12248054684399L168.75160709381103,160.54374689604705L168.9107316643851,124.26537699129766L169.0698562349592,82.42433222158675L169.3085430908203,166.75529889792074L169.7063545172555,128.1237433374008L170.1041659436907,21.507183670701124L170.66110194069998,151.87968532943464L171.13847565242222,173.9299273608706L171.2976002229963,118.86402691230312L171.4567247935704,167.7920687638823L171.61584936414448,162.4074100960604L171.6954116494315,138.26784540782833L171.9340985052926,-134.97047303286004L172.65015907287597,161.08263387641387L173.5253442110334,159.02130349359481L173.60490649632047,137.9929613068225L173.84359335218159,160.0462115027809L173.9231556374686,169.51425546856095L174.24140477861675,164.81133257665343L174.32096706390382,93.0663849091646L174.48009163447787,135.79009553166392L174.8779030609131,183.14424302978466L175.11658991677422,144.8287126005789L175.5144013432094,132.37283241363608L175.59396362849645,127.0951189272091L175.6735259137835,169.3846879476056L175.83265048435757,169.07944244060295L175.91221276964458,86.20016030510214L176.31002419607978,55.843937244676454L176.38958648136685,138.6469300898034L176.62827333722794,175.9299017888939L176.707835622515,156.44292808465516L177.1056470489502,173.24966695492756L177.5830207606724,159.5567744476807L177.66258304595948,-179.02267627601148L178.06039447239468,146.20635477177302L178.37864361354283,176.48792293370926L178.77645503997803,125.85086669258469L179.41295332227432,185.33776773997508L180.68594988686698,176.1649582627994L180.76551217215402,182.12627750504453L181.16332359858922,141.0799653598906L182.19763330732073,59.457775006070115L182.27719559260777,136.58754919784465L182.67500701904297,68.32844137597324L182.83413158961704,75.60394126669355L182.99325616019112,180.45139981950646L183.0728184454782,167.54697476792634L183.1523807307652,184.96779000737396L183.47062987191336,150.4220904741654L183.62975444248747,177.2471126882683L183.78887901306155,181.57501626396007L183.9480035836356,186.83528887482774L184.18669043949674,175.22474267415325L184.26625272478375,141.6204219454365L184.42537729535783,173.4864844492779L184.5845018659319,123.45649730617727L184.66406415121895,176.86440731292046L184.74362643650602,117.53823177447278L184.82318872179303,177.04160189684254L184.9823132923671,155.87223672167283L185.06187557765415,172.88270474897445L185.1414378629412,166.76954608339238L185.3801247188023,177.1551818258331L186.01662300109865,128.89788556906447L186.33487214224678,170.468781556959L186.41443442753385,175.8305410692977L186.65312128339494,175.7029230392027L187.1304949951172,174.29833696071776L187.21005728040421,176.7877263574644L187.3691818509783,173.79958387187648L187.7669932774135,157.18805470688267L187.92611784798757,117.75969629208551L188.00568013327464,122.33952738872024L188.32392927442277,118.89541901588471L188.40349155970983,121.31722851684874L188.80130298614503,154.8800077156242L188.9604275567191,166.0980937245237L189.03998984200612,181.41895981507633L189.1991144125802,163.81700683723238L189.91517498016358,131.58537356917728L189.99473726545062,159.27809148986248L190.15386183602467,161.373973800573L190.31298640659875,136.379984373375L190.5516732624599,103.47476373002564L190.63123554774694,185.308929557766L191.3472961153303,135.3342032656724L191.82466982705253,180.96013447824362L192.3816058240618,160.66601707810227L192.69985496520994,147.3909148919885L192.779417250497,181.73390565877676L193.09766639164516,167.00513704761684L193.8137269592285,105.18731782956213L194.13197610037668,145.38700908889192L194.21153838566372,178.4428809085055L194.29110067095075,54.177399375024216L194.68891209738595,151.43045136984065L195.1662858091082,183.204487303614L195.4049726649693,128.83803443274246L195.48453495025635,170.489198203688L195.5640972355434,182.09974293193739L195.8027840914045,131.8880099388654L195.96190866197858,181.39642140374784L196.12103323255266,169.33974069835926L196.20059551783973,173.16003602053152L196.28015780312674,143.69609374893494L196.5984069442749,168.63934635131045L196.75753151484898,177.81852406713483L196.9962183707101,177.11052758918584L197.07578065599714,171.79087796288513L197.15534294128418,138.95865426733886L197.47359208243236,169.94918629052867L197.95096579415457,80.6054513592062L198.50790179116385,182.4395388944064L198.5874640764509,184.9120263231881L198.66702636173792,167.09646568817752L199.06483778817312,64.04209405447394L199.1444000734602,179.63946632468492L199.30352464403427,159.78808948935352L199.94002292633056,186.75015914402687L200.09914749690464,184.7832583290735L200.25827206747874,121.94212573823884L200.33783435276575,178.09699499573563L200.5765212086269,132.15380623202387L201.13345720563618,183.74023360119756L201.3721440614973,84.80838874244606L201.53126863207137,176.30758913942904L201.69039320264545,134.47074372616348L202.08820462908065,171.7393695872992L202.48601605551582,142.18732328615715L202.5655783408029,142.8140816529003L202.64514062608993,165.68110587508158L202.96338976723808,109.31688132416791L203.0429520525251,180.7435863881102L203.52032576424736,164.96797799558558L203.67945033482144,43.40470135130241L203.8385749053955,106.89369952299103L204.07726176125664,147.20898793372726L204.15682404654365,168.24415628336092L204.23638633183072,126.80981005634598L204.31594861711775,127.78892564426616L204.55463547297884,179.24456632448425L204.71376004355292,178.94841009775405L205.11157146998812,175.24873289665115L205.35025832584927,74.6447564252124L205.50938289642335,177.0953336343613L205.82763203757148,185.85016284756327L205.90719432285854,181.21832422322655L206.30500574929374,152.63096374381803L206.6232548904419,162.37534362177334L206.86194174630302,145.76003915876905L206.94150403159003,153.1975941583164L207.1006286021641,109.62124337609794L207.4188777433123,182.10018318704857L207.49844002859933,171.84979263683013L207.65756459917338,172.33177627596737L207.73712688446045,184.33566612348955L208.21450059618266,47.72021446960024L208.29406288146973,115.73312103182464L208.4531874520438,189.5952562653136L208.61231202261789,159.03191378901738L208.850998878479,29.29188350649686L208.93056116376604,187.2683438271912L209.08968573434012,120.28658982909138L209.32837259020124,165.6701039145768L209.6466217313494,188.29941246308388L209.80574630192348,96.98868984372591L209.88530858721052,46.09734283933903L210.04443315778462,117.04973412659987L210.12399544307164,179.54500141861635L211.0787428665161,179.2660534242763L211.2378674370902,177.74303577602686L211.31742972237726,179.29301500066856L211.39699200766427,81.01093367875212L211.87436571938653,174.56943251188704L212.6699885722569,135.81552725835536L212.82911314283098,130.27212349337864L213.22692456926617,135.81002627810298L213.38604913984025,114.60149164986206L213.70429828098844,182.48954686879395L213.78386056627545,174.3273010352747L213.86342285156252,137.9206829024785L214.02254742213657,186.84062936074193L214.18167199271065,167.75886557740174L214.26123427799772,158.89358239374133L214.57948341914584,176.09496947951868L215.05685713086808,161.37896237688324L215.2159817014422,186.84494283013416L215.37510627201627,151.75984759367944L215.69335541316443,160.2878953621564L216.40941598074775,186.01433898477723L216.48897826603482,121.80488393755239L216.56854055132183,140.01314624205784L216.88678969247,174.45858393149612L217.2846011189052,151.48291976660553L217.36416340419225,111.42683118448531L217.44372568947927,176.75830583111994L217.76197483062745,107.95510600607865L217.84153711591446,181.021923326025L218.0802239717756,125.65049908210692L218.2393485423497,186.31548084296745L218.875846824646,185.91128836782758L219.03497139522008,175.9375127543448L219.19409596579416,118.63192559561563L219.2736582510812,165.7664064071965L219.67146967751637,147.02945808356313L219.83059424809048,63.2962459439371L220.22840567452565,185.2280131714491L220.4670925303868,177.08381485263905L220.62621710096087,188.64620465351578L220.78534167153492,161.15654372779204L221.18315309797015,184.3146192788087L221.42183995383127,138.3947331150633L221.58096452440535,131.93827853249937L221.74008909497942,148.15316581837428L221.81965138026646,151.98077909339835L222.05833823612755,175.98970139033668L222.13790052141462,76.20831877159617L222.21746280670166,153.70494768229L222.45614966256278,168.9206001633901L222.53571194784982,121.71812864941785L222.61527423313683,173.39944203824473L223.25177251543317,184.8782430012098L223.3313348007202,171.5194363918124L223.41089708600725,165.57393688506826L223.57002165658133,181.47335708874985L223.64958394186837,178.79730394212743L223.96783308301653,164.56727222313248L224.1269576535906,174.1669509947379L224.84301822117396,187.14867836517516L225.3203919328962,182.93982477779878L225.39995421818324,102.98158377026766L225.55907878875735,182.60748075886758L225.95689021519252,100.7879294866666L226.03645250047956,106.11228940092965L226.11601478576662,173.31524729739576L226.19557707105363,160.75028691263242L226.3547016416277,173.37791665539953L226.5138262122018,171.5353061897675L226.83207535334998,70.56372406259773L227.1503244944981,85.59282617055639L227.22988677978515,171.34437093461543L227.38901135035925,133.8686455353483L227.62769820622034,156.8099948327919L227.78682277679442,67.75714042899078L228.3437587738037,162.90134099263014L228.7415702002389,147.46562574263257L228.98025705610002,163.77382944298157L229.37806848253524,167.1299221317789L229.61675533839636,128.4908837067936L229.69631762368337,148.31341573400286L229.77587990897044,156.5348398055638L230.0941290501186,150.06058065843567L230.41237819126673,120.2961841511804L230.5715027618408,171.60514625811098L231.20800104413715,134.8549877857628L231.28756332942416,168.41217471392838L231.36712561471123,87.69822918209987L231.68537475585936,69.68759577734697L232.00362389700754,163.9469218505163L232.3218730381557,172.98507068824279L232.4014353234427,168.57309900026243L232.7196844645909,142.9434842622421L232.7992467498779,179.08196200108705L232.87880903516498,153.44545336864977L232.958371320452,180.8734439768144L233.27662046160017,74.28983129462418L233.51530731746126,150.78196589801072L233.7539941733224,144.8212209015628L233.91311874389646,154.76386576692298L234.07224331447054,116.3865008447571L234.39049245561873,168.36464188616938L234.78830388205392,106.7840097411704L234.86786616734096,111.16906255308702L234.947428452628,52.485217749463125L235.10655302320208,175.5575578691232L235.1861153084891,165.4644061251607L235.3452398790632,140.02305271827254L235.50436444963728,87.94790536503265L235.58392673492432,162.44474490743073L235.66348902021136,132.1509732860909L236.29998730250767,119.07582054172053L236.45911187308172,155.1120324662054L236.69779872894287,185.38409465155988L236.7773610142299,172.46928900287608L236.85692329951695,114.9163903759586L236.936485584804,187.0288421018451L237.09561015537807,68.53646559708068L237.25473472595215,92.38037615554882L237.49342158181327,28.374574435459486L237.5729838671003,106.30907607351295L237.89123300824846,62.012479708763145L237.9707952935355,82.46642002124796L238.05035757882254,175.3947032334554L238.2890444346837,139.4640435762009L238.92554271697998,181.98078717882973L240.3576638521467,149.9431518101786L240.43722613743373,184.3755570648701L240.83503756386895,142.7550197364432L240.91459984915596,111.1414693063178L241.07372441973007,169.3670424049545L241.23284899030415,159.45836638713786L241.31241127559116,186.30719624302364L241.55109813145228,135.2385015225021L241.86934727260044,119.04305024822557L241.9489095578875,163.98310817029218L242.10803412846155,160.41635561942067L242.26715869903563,174.75867153329963L242.3467209843227,109.39370657728583L242.74453241075787,137.95096774236904L242.8240946960449,126.55794879453347L243.06278155190606,177.86371279410105L243.14234383719307,175.98878554191137L243.46059297834125,163.97963913670688L243.54015526362826,165.0219217623218L243.61971754891533,73.81157583589356L244.09709126063754,144.13603670601483L244.25621583121162,116.60258806582759L244.3357781164987,78.71473970971844L244.4153404017857,106.48802284332912L245.44965011051724,88.96502130047793L245.52921239580425,123.38910735323526L245.68833696637836,106.8403270572018L246.08614839281353,173.94189817710506L246.48395981924872,183.6516922613911L246.6430843898228,162.85876434782872L247.12045810154507,146.56787636690373L247.27958267211915,91.17341161469085L247.43870724269323,175.26618702403653L247.5978318132673,155.65892943923095L247.67739409855434,121.63783436271464L247.83651866912842,152.0943590223889L248.23433009556362,155.13486977983348L248.31389238085066,102.81028772138067L248.3934546661377,-222.26193594070838L248.4730169514247,54.93358979961158L248.71170380728586,116.48639605467223L248.7912660925729,156.6154698051946L249.029952948434,181.41914828549184L249.10951523372105,184.5901865850707L249.1890775190081,154.69983883295754L249.26863980429513,111.15274808274533L249.58688894544326,160.04063690127245L249.66645123073033,44.6374510008809L250.06426265716553,174.29809106572256L250.2233872277396,126.40064078429684L250.6211986541748,165.31150361088635L250.70076093946184,169.71427853156038L250.85988551003595,168.166954089412L251.01901008061,143.83221650652936L251.09857236589704,188.04759169296224L251.4168215070452,188.50250037897288L251.8146329334804,167.59878940793746L252.05331978934151,-187.302911951759L252.2124443599156,144.61069944745L252.29200664520263,-165.40893987084925L252.6102557863508,187.4027740321089L253.008067212786,154.70044547210742L253.56500320979526,172.20161684011336L253.6445654950823,76.73122993939917L254.0423769215175,145.41330660155458L254.20150149209158,-162.02886432167963L254.59931291852678,191.80402425657007L254.67887520381382,34.79530209488531L254.75843748910086,72.12544882243037L254.8379997743879,185.11524160385002L255.55406034197125,-47.710131302370996L255.95187176840645,99.86122045365619L256.19055862426757,149.31069221336656L256.27012090955463,-62.133630847726295L256.98618147713796,163.72878795852748L257.14530604771204,151.26643793560257L257.3839929035732,144.77033977907845L257.54311747414727,143.42279397735942L258.0204911858695,160.7191657352731L258.57742718287875,165.33866396466996L258.73655175345283,91.40630215124322L258.8161140387399,154.89753251941542L258.975238609314,115.37062174641355L259.21392546517507,176.5138287812897L259.5321746063233,111.44912959051908L259.77086146218437,113.15207758856558L259.8504237474714,164.30318983281495L260.00954831804546,45.51807901730171L260.16867288861954,90.29023924766078L260.2482351739066,183.39160603285222L260.72560888562884,117.18186955696638L260.8051711709159,171.85137991111068L260.96429574148993,158.70285622295646L261.123420312064,166.38705420968714L261.36210716792516,146.44641307381485L261.91904316493446,183.67831959728088L262.23729230608257,153.7692956049318L262.31685459136963,150.32535803341034L262.5555414472307,71.09707177965902" fill="none"></path></g></g></g></g></g></g><g transform="translate(51, 177)" clip-path="url(#clip_1)"><clipPath id="clip_1"><rect width="278" height="22"></rect></clipPath><g><g><line x1="0" y1="0" x2="0" y2="5" style="visibility: inherit;" fill="rgb(0, 0, 0)" stroke="rgb(204, 204, 204)" stroke-width="1px"></line><line x1="39.78114264351981" y1="0" x2="39.78114264351981" y2="5" style="visibility: inherit;" fill="rgb(0, 0, 0)" stroke="rgb(204, 204, 204)" stroke-width="1px"></line><line x1="79.56228528703961" y1="0" x2="79.56228528703961" y2="5" style="visibility: inherit;" fill="rgb(0, 0, 0)" stroke="rgb(204, 204, 204)" stroke-width="1px"></line><line x1="119.34342793055943" y1="0" x2="119.34342793055943" y2="5" style="visibility: inherit;" fill="rgb(0, 0, 0)" stroke="rgb(204, 204, 204)" stroke-width="1px"></line><line x1="159.12457057407923" y1="0" x2="159.12457057407923" y2="5" style="visibility: inherit;" fill="rgb(0, 0, 0)" stroke="rgb(204, 204, 204)" stroke-width="1px"></line><line x1="198.90571321759904" y1="0" x2="198.90571321759904" y2="5" style="visibility: inherit;" fill="rgb(0, 0, 0)" stroke="rgb(204, 204, 204)" stroke-width="1px"></line><line x1="238.68685586111886" y1="0" x2="238.68685586111886" y2="5" style="visibility: inherit;" fill="rgb(0, 0, 0)" stroke="rgb(204, 204, 204)" stroke-width="1px"></line><line x1="278.4679985046387" y1="0" x2="278.4679985046387" y2="5" style="visibility: inherit;" fill="rgb(0, 0, 0)" stroke="rgb(204, 204, 204)" stroke-width="1px"></line></g><g transform="translate(0, 8)"><text style="text-anchor: middle; visibility: hidden; font-family: Roboto, sans-serif; font-size: 12px; font-weight: 200;" x="0" y="0" dx="0em" dy="0.95em" fill="rgb(50, 49, 63)" stroke="none" stroke-width="1px">-500</text><text style="text-anchor: middle; visibility: inherit; font-family: Roboto, sans-serif; font-size: 12px; font-weight: 200;" x="39.78114264351981" y="0" dx="0em" dy="0.95em" fill="rgb(50, 49, 63)" stroke="none" stroke-width="1px">0</text><text style="text-anchor: middle; visibility: inherit; font-family: Roboto, sans-serif; font-size: 12px; font-weight: 200;" x="79.56228528703961" y="0" dx="0em" dy="0.95em" fill="rgb(50, 49, 63)" stroke="none" stroke-width="1px">500</text><text style="text-anchor: middle; visibility: inherit; font-family: Roboto, sans-serif; font-size: 12px; font-weight: 200;" x="119.34342793055943" y="0" dx="0em" dy="0.95em" fill="rgb(50, 49, 63)" stroke="none" stroke-width="1px">1k</text><text style="text-anchor: middle; visibility: inherit; font-family: Roboto, sans-serif; font-size: 12px; font-weight: 200;" x="159.12457057407923" y="0" dx="0em" dy="0.95em" fill="rgb(50, 49, 63)" stroke="none" stroke-width="1px">1.5k</text><text style="text-anchor: middle; visibility: inherit; font-family: Roboto, sans-serif; font-size: 12px; font-weight: 200;" x="198.90571321759904" y="0" dx="0em" dy="0.95em" fill="rgb(50, 49, 63)" stroke="none" stroke-width="1px">2k</text><text style="text-anchor: middle; visibility: inherit; font-family: Roboto, sans-serif; font-size: 12px; font-weight: 200;" x="238.68685586111886" y="0" dx="0em" dy="0.95em" fill="rgb(50, 49, 63)" stroke="none" stroke-width="1px">2.5k</text><text style="text-anchor: middle; visibility: hidden; font-family: Roboto, sans-serif; font-size: 12px; font-weight: 200;" x="278.4679985046387" y="0" dx="0em" dy="0.95em" fill="rgb(50, 49, 63)" stroke="none" stroke-width="1px">3k</text></g><line x1="0" y1="0" x2="278.4679985046387" y2="0" fill="rgb(0, 0, 0)" stroke="rgb(204, 204, 204)" stroke-width="1px"></line></g></g></g></g></svg>