<svg viewBox="0 0 330 200" xmlns="http://www.w3.org/2000/svg"><g><g><g><g><g><line x1="51.53200149536133" y1="177.86299896240234" x2="46.53200149536133" y2="177.86299896240234" style="visibility: inherit;" fill="rgb(0, 0, 0)" stroke="rgb(204, 204, 204)" stroke-width="1px"></line><line x1="51.53200149536133" y1="155.63012409210202" x2="46.53200149536133" y2="155.63012409210202" style="visibility: inherit;" fill="rgb(0, 0, 0)" stroke="rgb(204, 204, 204)" stroke-width="1px"></line><line x1="51.53200149536133" y1="133.39724922180176" x2="46.53200149536133" y2="133.39724922180176" style="visibility: inherit;" fill="rgb(0, 0, 0)" stroke="rgb(204, 204, 204)" stroke-width="1px"></line><line x1="51.53200149536133" y1="111.16437435150148" x2="46.53200149536133" y2="111.16437435150148" style="visibility: inherit;" fill="rgb(0, 0, 0)" stroke="rgb(204, 204, 204)" stroke-width="1px"></line><line x1="51.53200149536133" y1="88.93149948120117" x2="46.53200149536133" y2="88.93149948120117" style="visibility: inherit;" fill="rgb(0, 0, 0)" stroke="rgb(204, 204, 204)" stroke-width="1px"></line><line x1="51.53200149536133" y1="66.69862461090086" x2="46.53200149536133" y2="66.69862461090086" style="visibility: inherit;" fill="rgb(0, 0, 0)" stroke="rgb(204, 204, 204)" stroke-width="1px"></line><line x1="51.53200149536133" y1="44.46574974060063" x2="46.53200149536133" y2="44.46574974060063" style="visibility: inherit;" fill="rgb(0, 0, 0)" stroke="rgb(204, 204, 204)" stroke-width="1px"></line><line x1="51.53200149536133" y1="22.232874870300314" x2="46.53200149536133" y2="22.232874870300314" style="visibility: inherit;" fill="rgb(0, 0, 0)" stroke="rgb(204, 204, 204)" stroke-width="1px"></line><line x1="51.53200149536133" y1="0" x2="46.53200149536133" y2="0" style="visibility: inherit;" fill="rgb(0, 0, 0)" stroke="rgb(204, 204, 204)" stroke-width="1px"></line></g><g transform="translate(41.53200149536133, 0)"><text style="text-anchor: end; visibility: hidden; font-family: Roboto, sans-serif; font-size: 12px; font-weight: 200;" x="0" y="177.86299896240234" dx="0em" dy="0.3em" fill="rgb(50, 49, 63)" stroke="none" stroke-width="1px">0.09</text><text style="text-anchor: end; visibility: inherit; font-family: Roboto, sans-serif; font-size: 12px; font-weight: 200;" x="0" y="155.63012409210202" dx="0em" dy="0.3em" fill="rgb(50, 49, 63)" stroke="none" stroke-width="1px">0.1</text><text style="text-anchor: end; visibility: hidden; font-family: Roboto, sans-serif; font-size: 12px; font-weight: 200;" x="0" y="133.39724922180176" dx="0em" dy="0.3em" fill="rgb(50, 49, 63)" stroke="none" stroke-width="1px">0.11</text><text style="text-anchor: end; visibility: inherit; font-family: Roboto, sans-serif; font-size: 12px; font-weight: 200;" x="0" y="111.16437435150148" dx="0em" dy="0.3em" fill="rgb(50, 49, 63)" stroke="none" stroke-width="1px">0.12</text><text style="text-anchor: end; visibility: hidden; font-family: Roboto, sans-serif; font-size: 12px; font-weight: 200;" x="0" y="88.93149948120117" dx="0em" dy="0.3em" fill="rgb(50, 49, 63)" stroke="none" stroke-width="1px">0.13</text><text style="text-anchor: end; visibility: inherit; font-family: Roboto, sans-serif; font-size: 12px; font-weight: 200;" x="0" y="66.69862461090086" dx="0em" dy="0.3em" fill="rgb(50, 49, 63)" stroke="none" stroke-width="1px">0.14</text><text style="text-anchor: end; visibility: hidden; font-family: Roboto, sans-serif; font-size: 12px; font-weight: 200;" x="0" y="44.46574974060063" dx="0em" dy="0.3em" fill="rgb(50, 49, 63)" stroke="none" stroke-width="1px">0.15</text><text style="text-anchor: end; visibility: inherit; font-family: Roboto, sans-serif; font-size: 12px; font-weight: 200;" x="0" y="22.232874870300314" dx="0em" dy="0.3em" fill="rgb(50, 49, 63)" stroke="none" stroke-width="1px">0.16</text><text style="text-anchor: end; visibility: hidden; font-family: Roboto, sans-serif; font-size: 12px; font-weight: 200;" x="0" y="0" dx="0em" dy="0.3em" fill="rgb(50, 49, 63)" stroke="none" stroke-width="1px">0.17</text></g><line x1="51.53200149536133" y1="0" x2="51.53200149536133" y2="177.86299896240234" fill="rgb(0, 0, 0)" stroke="rgb(204, 204, 204)" stroke-width="1px"></line></g></g><g transform="translate(51, 0)" clip-path="url(#clip_0)"><clipPath id="clip_0"><rect width="278" height="177"></rect></clipPath><g><g><g><line x1="0" y1="0" x2="0" y2="177.86299896240234" fill="rgb(0, 0, 0)" stroke="rgb(60, 60, 60)" stroke-width="1px" opacity="0.25"></line><line x1="39.78114264351981" y1="0" x2="39.78114264351981" y2="177.86299896240234" fill="rgb(0, 0, 0)" stroke="rgb(60, 60, 60)" stroke-width="1px" opacity="0.25"></line><line x1="79.56228528703961" y1="0" x2="79.56228528703961" y2="177.86299896240234" fill="rgb(0, 0, 0)" stroke="rgb(60, 60, 60)" stroke-width="1px" opacity="0.25"></line><line x1="119.34342793055943" y1="0" x2="119.34342793055943" y2="177.86299896240234" fill="rgb(0, 0, 0)" stroke="rgb(60, 60, 60)" stroke-width="1px" opacity="0.25"></line><line x1="159.12457057407923" y1="0" x2="159.12457057407923" y2="177.86299896240234" fill="rgb(0, 0, 0)" stroke="rgb(60, 60, 60)" stroke-width="1px" opacity="0.25"></line><line x1="198.90571321759904" y1="0" x2="198.90571321759904" y2="177.86299896240234" fill="rgb(0, 0, 0)" stroke="rgb(60, 60, 60)" stroke-width="1px" opacity="0.25"></line><line x1="238.68685586111886" y1="0" x2="238.68685586111886" y2="177.86299896240234" fill="rgb(0, 0, 0)" stroke="rgb(60, 60, 60)" stroke-width="1px" opacity="0.25"></line><line x1="278.4679985046387" y1="0" x2="278.4679985046387" y2="177.86299896240234" fill="rgb(0, 0, 0)" stroke="rgb(60, 60, 60)" stroke-width="1px" opacity="0.25"></line></g><g><line x1="0" y1="177.86299896240234" x2="278.4679985046387" y2="177.86299896240234" fill="rgb(0, 0, 0)" stroke="rgb(60, 60, 60)" stroke-width="1px" opacity="0.25"></line><line x1="0" y1="155.63012409210202" x2="278.4679985046387" y2="155.63012409210202" fill="rgb(0, 0, 0)" stroke="rgb(60, 60, 60)" stroke-width="1px" opacity="0.25"></line><line x1="0" y1="133.39724922180176" x2="278.4679985046387" y2="133.39724922180176" fill="rgb(0, 0, 0)" stroke="rgb(60, 60, 60)" stroke-width="1px" opacity="0.25"></line><line x1="0" y1="111.16437435150148" x2="278.4679985046387" y2="111.16437435150148" fill="rgb(0, 0, 0)" stroke="rgb(60, 60, 60)" stroke-width="1px" opacity="0.25"></line><line x1="0" y1="88.93149948120117" x2="278.4679985046387" y2="88.93149948120117" fill="rgb(0, 0, 0)" stroke="rgb(60, 60, 60)" stroke-width="1px" opacity="0.25"></line><line x1="0" y1="66.69862461090086" x2="278.4679985046387" y2="66.69862461090086" fill="rgb(0, 0, 0)" stroke="rgb(60, 60, 60)" stroke-width="1px" opacity="0.25"></line><line x1="0" y1="44.46574974060063" x2="278.4679985046387" y2="44.46574974060063" fill="rgb(0, 0, 0)" stroke="rgb(60, 60, 60)" stroke-width="1px" opacity="0.25"></line><line x1="0" y1="22.232874870300314" x2="278.4679985046387" y2="22.232874870300314" fill="rgb(0, 0, 0)" stroke="rgb(60, 60, 60)" stroke-width="1px" opacity="0.25"></line><line x1="0" y1="0" x2="278.4679985046387" y2="0" fill="rgb(0, 0, 0)" stroke="rgb(60, 60, 60)" stroke-width="1px" opacity="0.25"></line></g></g></g><g><g><line x1="0" y1="377.958872795105" x2="278.4679985046387" y2="377.958872795105" fill="rgb(0, 0, 0)" stroke="rgb(153, 153, 153)" stroke-width="1.5px"></line></g></g><g><g><line x1="39.78114264351981" y1="0" x2="39.78114264351981" y2="177.86299896240234" fill="rgb(0, 0, 0)" stroke="rgb(153, 153, 153)" stroke-width="1.5px"></line></g></g><g><g><g><g><g><path style="fill: none;" stroke="rgb(255, 112, 67)" stroke-width="2px" d="M40.25851635524205,203.35536321242802L40.81545235225133,162.70883486120545L41.213263778686525,148.69635210199618L41.3723883492606,141.54911072238562L41.61107520512172,121.106363870035L41.7701997756958,65.74072861183295L41.84976206098284,50.723182173348945L42.00888663155692,68.33321606775982L42.168011202131005,79.22002982490291L42.406698057992116,95.48184099011334L42.565822628566195,108.58710344527798L43.12275862557547,115.3681780191213L43.44100776672363,101.546318492206L43.52057005201067,131.48956803143219L43.600132337297715,133.06927991243376L43.83881919315883,131.56875536400636L44.55487976074219,36.586243055265605L44.63444204602923,-20.39709024506107L44.71400433131626,-14.694816543708624L44.952691187177386,10.231512068847945L45.191378043038505,26.10671437062145L45.50962718418666,39.625012327900734L45.82787632533482,45.40194709926369L45.90743861062187,62.283548466518596L45.9870008959089,74.33835648909704L46.14612546648298,81.5712281421186L46.30525003705706,73.74960560707402L46.3848123223441,35.00881185704854L46.54393689291818,34.631727402178555L46.623499178205215,61.63046259708204L46.7826237487793,67.89729132941916L46.94174831935337,82.41780528923564L47.498684316362656,64.68458279329545L47.737371172223774,91.954533470645L47.81693345751081,109.59802143226155L47.97605802808489,125.46895562190694L48.29430716923305,124.64447034575826L48.69211859566825,121.94985015387263L48.771680880955294,134.10676106221123L49.72642830439976,131.64636429663668L49.8059905896868,143.178257878736L50.12423973083496,150.45366936897105L50.36292658669608,119.90402526492389L50.52205115727016,92.8451151895375L50.681175727844234,103.33057900150492L51.3972362954276,93.5441985506507L51.87461000714983,104.21909065403311L52.27242143358503,116.3011082128558L52.35198371887207,113.52127050407346L52.59067057473319,123.439976128143L52.74979514530727,115.35286428245782L52.908919715881346,112.12324352428227L53.38629342760359,109.00534957469138L53.46585571289063,118.7078702394291L54.18191628047398,133.32478526189726L54.341040851048064,142.09493427537464L54.500165421622135,139.8380502006283L54.738852277483254,151.11609045762222L55.454912845066616,159.51428066260283L55.693599700927734,165.3731780285495L55.773161986214774,170.10017066298607L55.93228655678885,154.02933662185225L56.17097341264997,168.11989596661184L56.72790940965925,174.02856240753002L56.88703398023333,146.9259990376796L56.966596265520366,133.5499136285623L57.28484540666852,142.97997188927172L57.36440769195556,154.94334496565884L57.44396997724261,180.39145603819335L57.52353226252965,169.75472541354756L57.76221911839077,164.69458319486975L57.84178140367781,157.14100335695477L58.160030544825965,152.6088554542058L58.239592830113,149.88956671255644L58.319155115400044,148.2579934675668L58.71696654183524,147.279049520573L58.87609111240932,146.69168315237675L58.95565339769636,146.33926333145897L59.27390253884452,146.1278114389083L59.671713965279714,146.00094030337792L59.751276250566754,145.9248176220597L59.91040082114083,145.87914401326873L60.06952539171491,145.85173984799417L60.14908767700195,145.83529734882944L60.22864996228899,145.8254318493306L60.46733681815011,150.33648360920904L60.626461388724195,156.85162985012713L60.86514824458531,148.35005116592842L61.024272815159385,137.09227905043613L61.26295967102051,131.76454591083822L61.34252195630754,140.0860752205071L61.6607710974557,169.77580487995473L61.74033338274275,157.26476680981304L61.81989566802979,177.3605448039107L61.899457953316826,153.4674904006565L62.138144809177945,191.77827391539006L62.217707094464984,182.7378765004896L62.61551852090018,145.13157839247103L63.2520168031965,145.9853333179013L63.411141373770576,160.80044781970625L63.49070365905762,141.66068517286288L63.649828229631694,146.12056336730788L63.80895280020578,139.352397521427L63.88851508549281,123.08654630745393L64.12720194135393,138.9058693195143L64.20676422664097,147.00386796558195L64.28632651192801,138.62826058881805L64.44545108250209,127.06588961909634L64.92282479422433,127.80743644238903L65.00238707951137,127.76705616130403L65.0819493647984,150.18153552651052L65.47976079123362,147.74841314640102L65.63888536180768,166.32979976106978L65.71844764709472,173.2506697454857L65.8775722176688,132.56129156234093L66.67319507053921,100.53641207864725L66.83231964111327,117.51440799097851L67.0710064969744,139.0296748413294L67.30969335283552,141.40807257188936L67.4688179234096,143.65936154118475L67.70750477927072,133.63643051145232L67.8666293498448,132.86374923438945L68.02575392041888,110.0497298515306L68.18487849099296,129.05198296622004L68.42356534685408,130.22497912675232L68.50312763214112,157.7300385129956L68.6622522027152,158.96559229937913L69.21918819972447,160.85705055754295L69.29875048501151,154.16379355284874L69.37831277029855,144.272701886337L69.45787505558559,158.6077684109525L70.25349790845598,148.18336701190097L70.49218476431712,163.8546741735219L70.57174704960416,174.03128560318217L70.8899961907523,135.40380523190294L71.2878076171875,148.111983259095L71.44693218776158,125.27129306835238L71.60605675833565,122.86402093998268L71.84474361419677,146.03676662859007L72.08343047005789,159.33507062597246L72.56080418178013,159.00396540174947L72.64036646706717,166.136391359745L72.79949103764126,134.62733593469034L72.8790533229283,115.72190267965756L73.35642703465052,124.78718375536413L73.43598931993758,163.4250192724323L73.6746761757987,146.91998564824553L73.99292531694685,144.76091520809047L74.07248760223389,123.20128405686737L74.15204988752093,144.5029431294788L74.23161217280797,160.4358257752871L74.62942359924317,151.5840910294308L74.86811045510429,157.69568696106327L74.94767274039131,161.33711487708078L75.02723502567835,159.74787143405547L75.42504645211356,166.39288931856618L75.82285787854876,189.45290216692968L75.98198244912284,182.98580037559196L76.06154473440988,168.02473337562947L76.14110701969692,120.4863128967702L76.22066930498394,134.09447325292828L76.37979387555804,122.32231515834583L77.01629215785435,142.93272921396826L77.33454129900251,151.6156855929863L77.41410358428956,113.56137466815869L78.20972643715994,99.06259650461529L78.60753786359516,112.2218125609179L78.76666243416922,122.27472623029273L78.84622471945626,137.93028845989537L78.9257870047433,147.4548056241199L79.00534929003034,142.78734626894897L79.32359843117851,146.21573248744357L79.72140985761371,138.71020675666276L79.80097214290075,134.20689131819427L80.03965899876185,73.11088941232438L80.43747042519706,119.02209705190813L80.5170327104841,111.80863908854874L80.83528185163225,95.51068012118243L80.9148441369193,83.1505815367306L80.99440642220634,88.4172355526066L81.15353099278042,124.43497172987713L81.39221784864152,137.01592515325873L81.7104669897897,105.13840632717702L81.79002927507673,134.46458651914048L82.10827841622489,91.95510019220613L82.18784070151193,110.78826925147105L82.58565212794713,131.93466177470768L82.7447766985212,140.94773941029607L83.1425881249564,153.69525564157158L83.22215041024344,167.08799468000407L83.30171269553048,184.91907653073028L83.5403995513916,162.81570580212866L83.61996183667864,163.08432124978359L83.69952412196568,161.32405524631216L83.9382109778268,138.95974114957085L84.01777326311384,158.3524885643046L84.09733554840088,138.94000960891853L84.17689783368792,130.42061578418406L84.57470926012311,119.46228707034992L84.7338338306972,139.62686428152531L84.81339611598423,132.3064906708469L84.89295840127129,143.7071302469585L84.97252068655833,146.12131131584982L85.21120754241943,133.5237920520842L85.37033211299351,132.3117059005777L85.60901896885464,156.37604996942736L85.68858125414167,145.9039134826102L86.08639268057688,166.6663298385832L86.16595496586392,157.06817578465254L86.40464182172502,147.9959027714094L86.5637663922991,149.06724930973073L86.9615778187343,124.92838046479815L87.12070238930838,139.60457606322495L87.35938924516951,147.2473993015098L87.51851381574357,143.23950268037618L87.59807610103061,134.7317223389084L87.67763838631765,146.10363921773651L87.7572006716047,149.60154837979823L87.91632524217879,146.42384741242503L87.99588752746583,136.5302651108093L88.15501209803989,133.7870637152205L88.31413666861397,92.2507345152222L88.39369895390102,129.79458645592896L88.47326123918806,147.5099679285383L88.71194809504918,145.41513794815666L88.9506349509103,149.22618219284107L89.3484463773455,141.68031158032483L89.66669551849365,143.13286788731543L89.7462578037807,125.67570824392538L89.90538237435477,138.5181594848068L90.14406923021589,129.7441429957132L90.46231837136405,147.71117149871932L90.54188065665109,172.88523055908934L90.70100522722517,139.19711817579991L90.7805675125122,95.67465970499926L90.86012979779925,119.1546463072457L90.93969208308629,147.65948539725173L91.25794122423446,120.61219424387035L91.33750350952148,155.6720837788449L91.49662808009556,152.05765970254112L91.5761903653826,143.7577961316174L91.89443950653077,136.06043202743672L92.53093778882707,123.54104956914624L92.84918692997523,124.75827867308811L92.92874921526229,155.22994121348611L93.16743607112339,167.88737291477887L93.24699835641043,134.9743059096467L93.32656064169747,126.70318318798608L93.48568521227155,140.68490270044535L93.5652474975586,111.78008222339815L93.72437206813268,128.1556861908386L93.88349663870675,138.5937931319561L93.96305892399378,123.12278788883326L94.12218349456788,121.91485367512676L94.28130806514196,77.46520264604382L94.51999492100306,101.03387984458962L94.7586817768642,123.43545293488062L95.07693091801234,143.32466910522126L95.15649320329938,155.36907683631898L95.71342920030865,149.49414458938418L95.87255377088275,135.33530377685494L95.95211605616979,135.33424091324673L96.34992748260497,125.82516619095489L96.66817662375314,123.52133259657043L96.82730119432722,160.86485707398714L97.14555033547538,152.34452262336742L97.54336176191059,108.49975213946848L97.94117318834577,122.8270569510642L98.02073547363281,130.3303629630045L98.10029775891987,140.8822689940753L98.33898461478097,144.11565249414016L98.49810918535505,150.7833245590194L98.65723375592913,150.71144286316027L98.73679604121618,157.0651955802345L98.89592061179025,126.09422636371234L99.13460746765136,129.67050030429212L99.2141697529384,139.10038266359408L99.29373203822546,147.01666177774663L99.45285660879952,155.8452750575481L99.6119811793736,130.45676631658475L99.69154346466064,115.32372561081083L99.85066803523473,161.65431156740817L100.00979260580881,138.62609916124484L100.32804174695696,153.8189827435967L100.48716631753105,136.14642474082586L100.80541545867919,133.40726564311143L100.88497774396623,137.31424453489095L101.12366459982736,130.31036846517054L101.28278917040144,141.08744322133458L101.52147602626255,122.08557334156909L101.68060059683664,150.41970739649548L101.83972516741072,158.688652381665L102.07841202327182,152.32742062877233L102.31709887913296,130.70657493704311L102.39666116442,122.30900206890013L102.7944725908552,126.52653420200015L103.19228401729038,124.1240347162801L103.51053315843855,133.58689288562226L103.59009544372559,148.3429700274361L103.66965772901263,126.00173818617968L103.82878229958669,151.8010556154019L103.90834458487375,161.66458843520863L103.98790687016078,169.13180684151197L104.38571829659598,154.1932299771278L104.6244051524571,165.7727201154263L104.70396743774414,158.97051159910765L104.78352972303118,149.41079544692371L104.86309200831822,142.8448978730005L105.02221657889231,149.6432610019068L105.26090343475342,160.91660250062014L105.49959029061453,144.77452783754256L106.2156508581979,141.78519885591516L106.45433771405901,134.43733709426886L107.01127371106828,118.26042864101719L107.09083599635532,130.80015052966493L107.17039828164236,157.5060946906211L107.48864742279054,154.78150770838994L107.6477719933646,150.8163953975078L107.80689656393868,154.0132127379139L107.88645884922573,153.7369133822085L108.20470799037388,156.1304324378561L108.68208170209613,146.97947448253848L108.84120627267019,157.44509220842338L109.07989312853132,173.08218020404885L109.15945541381836,165.2457324048605L109.39814226967948,174.40575088101704L109.6368291255406,159.00664038761946L109.79595369611468,168.70885723860118L109.95507826668876,164.50833484686618L110.35288969312396,167.32508835488326L110.432451978411,174.5083536695677L110.67113883427211,132.56041531141065L110.98938797542027,124.72745928023568L111.14851254599435,122.86969878840127L111.46676168714251,140.69732197249493L111.54632397242955,154.96530939554347L111.78501082829067,150.62331560695222L111.94413539886476,164.5942190055276L112.02369768415178,162.88908672216084L112.2623845400129,172.56210614000074L112.34194682529994,143.69898171787588L112.58063368116107,136.16534769922185L112.6601959664481,157.73047256979967L112.73975825173514,151.31713724729886L113.21713196345739,137.20857178220575L113.61494338989257,155.22771051300575L113.77406796046667,146.04497106545705L113.85363024575369,121.31674071784816L114.96750223977226,138.23558405261747L115.0470645250593,148.89995437828478L115.20618909563336,151.8524391990328L115.76312509264264,156.35023489884907L115.84268737792968,155.4576011892727L115.92224966321672,102.3716859492962L116.24049880436489,127.25178737609026L116.32006108965193,129.99586754050924L116.63831023080009,139.86210531883714L116.95655937194823,148.07763409310903L117.03612165723527,143.85553180023055L117.19524622780936,160.74858610345382L117.35437079838344,137.53667539614636L117.43393308367048,131.19048787112746L117.51349536895752,129.13100926118685L117.59305765424455,134.6346045123205L118.22955593654086,148.59796839276618L118.54780507768903,145.99547724163435L118.70692964826311,140.62203514300705L118.94561650412423,124.109098314197L119.34342793055943,148.9020114389644L119.82080164228167,109.90651540452811L119.9003639275687,134.32857799899514L119.97992621285576,120.77012225953585L120.13905078342982,142.27681292448048L120.37773763929094,158.71491706785764L121.17336049216135,168.16140717814247L121.33248506273543,172.77845131313134L121.4916096333095,164.9037708104496L121.73029648917063,154.20061319764494L121.96898334503175,138.70654499253752L122.12810791560581,147.01919021081616L122.20767020089285,140.15990322811126L122.60548162732806,142.03929813960056L122.68504391261509,148.45084895510607L122.92373076847622,139.8745569104397L123.00329305376326,138.14199489637218L123.0828553390503,113.5309575562659L123.3215421949114,146.06232877347992L123.40110448019844,147.73280364241393L123.71935362134661,123.42025107677806L123.87847819192068,149.43212709949808L124.35585190364293,168.55718848153697L124.514976474217,149.90394691090526L124.75366333007813,160.9458362710354L125.07191247122628,153.82156423129416L125.39016161237444,157.46165413958218L125.54928618294852,166.75052887251402L125.86753532409668,172.84086708125366L125.94709760938372,140.95544155243795L126.34490903581893,132.77683375019396L126.504033606393,110.39464502614193L127.45878102983748,76.11706866967269L127.77703017098563,63.5437593166365L127.85659245627267,64.33053417616723L127.9361547415597,37.29767868841956L128.17484159742082,-1.880902815763304L128.3339661679949,2.6296215920856367L128.57265302385602,4.600552651593804L128.89090216500418,31.855814082457616L129.05002673557826,44.965109439758145L129.1295890208653,75.44674337655582L129.44783816201345,84.74361763444433L129.5274004473005,92.56458725122384L129.76608730316164,89.85741559187792L130.08433644430977,99.12065388973666L130.1638987295968,98.50962003895448L130.32302330017092,106.52525017010957L130.48214787074497,122.4616830470159L130.72083472660609,95.44108836861562L131.11864615304128,108.60198716996419L131.27777072361536,106.59661622638808L131.43689529418944,112.96320777386647L131.6755821500506,120.60994552960929L132.07339357648578,130.21434768291383L132.15295586177282,120.9212050513186L132.3120804323469,128.74644063488876L132.47120500292095,142.08299176358042L132.550767288208,123.704750776701L132.63032957349506,140.87378281497035L132.86901642935618,165.19719775641855L133.26682785579138,129.77355432794795L133.42595242636546,139.02000310610484L133.5055147116525,85.42234204674463L133.82376385280065,64.17368229068653L134.22157527923582,90.90380327665206L134.539824420384,127.96808451100318L134.85807356153214,147.85190314415217L134.9376358468192,147.97309454063847L135.3354472732544,134.5389452697194L135.49457184382848,111.56912433962148L135.65369641440256,125.45850235793412L135.81282098497664,117.3093886119942L136.05150784083776,142.6108003907335L136.1310701261248,140.39441163441856L136.44931926727295,152.31670926242927L136.9266929789952,144.52657338629052L137.08581754956927,146.95602722143565L137.24494212014335,105.00789974207999L137.40406669071743,114.39881831335934L137.48362897600447,122.4111181077675L137.88144040243967,132.9946111776516L138.27925182887486,141.0169417020278L138.51793868473598,139.98864353609588L138.67706325531006,155.11374738147924L138.83618782588414,166.3952652363131L138.91575011117118,174.420097889135L139.07487468174526,141.84725610845916L139.23399925231934,133.20238951526142L139.47268610818045,133.23941228898528L139.63181067875453,103.39721791446466L139.71137296404157,120.72968627505132L139.7909352493286,122.14456172078013L139.87049753461568,95.49627914753552L140.42743353162496,106.67099548524256L140.586558102199,128.86618297032055L140.82524495806013,131.73517146921276L140.90480724334716,132.75511890996282L140.98436952863423,126.53398865451207L141.46174324035644,115.91232220480715L141.85955466679164,78.1605618698174L142.09824152265276,61.926569934548084L142.1778038079398,87.54537961523336L142.81430209023614,63.77752295976933L142.89386437552315,63.772553645375424L142.97342666081022,65.94875534625008L143.05298894609723,42.70519024707328L143.2121135166713,25.27105129429715L143.6099249431065,37.29459670171608L143.76904951368059,21.05063294217815L143.84861179896762,18.717909281437297L144.48511008126397,47.804207019185384L144.56467236655098,58.723206450693574L144.88292150769914,90.38319217533315L145.04204607827324,107.65112561026788L145.20117064884732,109.97122092480802L145.28073293413433,131.78080388034726L145.4398575047084,147.30217302984553L145.7581066458566,154.54283297753472L145.8376689311436,131.2908841944885L145.9967935017177,126.28045032501376L146.1559180722918,141.3799280828655L146.2354803575788,128.84922285085756L146.3946049281529,129.10792539262567L146.47416721343996,137.21599843852317L146.55372949872697,134.09938005269717L146.63329178401403,127.72306592614784L146.95154092516216,135.27563325248542L147.03110321044923,135.3240411266305L147.26979006631032,138.28165990600672L147.3493523515974,135.4042703875909L147.42891463688443,152.93603306380356L147.7471637780326,124.57071456223237L147.8267260633196,137.37629528820997L147.9858506338937,121.67365590556192L148.38366206032887,156.4459449021501L149.02016034262522,156.46483857441365L149.25884719848634,136.94196935671133L149.41797176906041,138.05311333110222L149.5770963396345,147.86844964152561L149.65665862492153,131.43218074785952L149.9749077660697,148.8238334077677L150.13403233664377,147.776965813771L150.3727191925049,152.19038985271547L150.45228147779193,151.57426109955577L150.61140604836598,112.12056235440528L151.16834204537525,94.40938553363735L151.32746661594936,134.59398394355594L151.4070289012364,138.1934473012805L151.72527804238456,110.59334044413923L151.8048403276716,132.96095277890169L152.04352718353272,146.6013017154585L152.12308946881976,159.9000136012725L152.2026517541068,158.27681515209204L152.36177632468087,146.0501543398218L152.4413386099679,140.07885078092636L152.600463180542,151.57687864273754L152.75958775111607,135.7921537130447L152.8391500364031,137.04629327213863L153.15739917755127,125.6398555190734L153.3960860334124,125.83053922143907L153.71433517456055,135.54926340874505L153.79389745984759,148.16196090067055L154.0325843157087,142.04723460593385L154.19170888628278,144.9916563800759L154.35083345685686,121.45163508243618L154.4303957421439,138.2642819729243L154.50995802743094,129.44641082681332L155.2260185950143,113.27287774759456L155.3851431655884,111.71941280302933L155.6238300214495,105.0149576580083L155.78295459202357,138.09547610765145L155.94207916259768,147.20923159026484L156.49901515960696,138.4542204266944L156.57857744489397,144.92788052776365L156.8172643007551,156.9160320562308L156.89682658604212,141.46407003280066L156.97638887132916,144.44005159128312L157.3742002977644,126.6632087157409L157.61288715362548,117.0377092600301L157.7720117241996,87.96017993516958L158.01069858006068,96.93744576400917L158.09026086534772,107.30908260307815L158.16982315063476,94.96834351731948L158.48807229178294,107.68013231470177L158.56763457706995,102.52999365473772L158.72675914764403,86.09135929033029L158.88588371821814,63.507419512434915L158.96544600350515,52.37389718430323L159.2836951446533,89.64839469354986L159.36325742994035,111.94776169647515L159.6815065710885,120.03961174822633L159.76106885637557,105.88847573554725L159.92019342694965,108.62201794095655L160.0793179975237,121.61522783411607L160.47712942395893,122.05886838165179L160.55669170924597,139.19076441518297L160.71581627982005,124.9362994517773L160.95450313568114,123.19360138302102L161.5114391326904,100.86765688189745L161.6705637032645,61.37977468345148L161.98881284441268,78.98010651132994L162.0683751296997,56.02227635356168L162.38662427084788,22.904112996663837L162.4661865561349,31.72112590102763L162.94356026785715,11.531093489309768L163.18224712371824,11.756193861969829L163.2618094090053,-35.02121741110752L165.2508665411813,-73.77707170624119L165.8873648234776,3.5267709708984003L166.2851762499128,42.900682701765554L166.76254996163505,61.12877351599768L166.84211224692206,87.57152345308094L166.92167453220912,97.11005591919094L167.31948595864432,104.36371493083742L167.63773509979248,96.03571501823536L168.11510881151474,81.8629398794881L168.43335795266287,106.64611269277242L168.75160709381103,138.08749116516782L168.9107316643851,124.66248811385152L169.0698562349592,100.63207201024304L169.3085430908203,103.40619819211422L169.7063545172555,129.14932141735935L170.1041659436907,134.51394816564792L170.66110194069998,132.28972879971417L171.13847565242222,132.01055273220646L171.2976002229963,126.72366789582091L171.4567247935704,118.10093503090714L171.61584936414448,110.15112388301544L171.6954116494315,63.59019892653197L171.9340985052926,66.49415499751932L172.65015907287597,87.41157644457337L173.5253442110334,68.41546097386383L173.60490649632047,89.43737708134995L173.84359335218159,100.94207775256037L173.9231556374686,90.91359653704542L174.24140477861675,84.79482654614947L174.32096706390382,99.59911471592345L174.48009163447787,91.56746760337644L174.8779030609131,98.7797857391251L175.11658991677422,112.63341082713977L175.5144013432094,102.73288568612818L175.59396362849645,102.55402727510513L175.6735259137835,107.79284342059479L175.83265048435757,90.75806783851604L175.91221276964458,117.706262227504L176.31002419607978,127.6819843192202L176.38958648136685,96.84026157504472L176.62827333722794,83.53118942739333L176.707835622515,80.21773043406564L177.1056470489502,95.95648365422L177.5830207606724,110.79825787286211L177.66258304595948,136.58488991897352L178.06039447239468,140.02556274336348L178.37864361354283,140.88978830452263L178.77645503997803,129.96809506293755L179.41295332227432,146.82339626318247L180.68594988686698,168.03228458692732L180.76551217215402,169.29338994584515L181.16332359858922,162.9533093612385L182.19763330732073,139.07218128181933L182.27719559260777,143.29877758423564L182.67500701904297,157.18166446238067L182.83413158961704,147.99447689837916L182.99325616019112,154.32968118721573L183.0728184454782,140.8567834159421L183.1523807307652,137.88437346470923L183.47062987191336,137.30920911909834L183.62975444248747,123.28071220166574L183.78887901306155,113.04534424525085L183.9480035836356,121.91243935392617L184.18669043949674,94.10007002280571L184.26625272478375,64.65853441861451L184.42537729535783,82.38094489882224L184.5845018659319,84.8939239438134L184.66406415121895,92.19432308752916L184.74362643650602,112.12181034561581L184.82318872179303,104.00495998676999L184.9823132923671,111.12276969612132L185.06187557765415,108.93823924869506L185.1414378629412,101.328994298888L185.3801247188023,118.53415681332663L186.01662300109865,98.43466611650643L186.33487214224678,70.24124448521383L186.41443442753385,69.85835526163748L186.65312128339494,93.12841622818551L187.1304949951172,118.13541254370132L187.21005728040421,135.66112804589957L187.3691818509783,134.49554971479944L187.7669932774135,150.25433463201813L187.92611784798757,155.95163948797787L188.00568013327464,150.9415959719194L188.32392927442277,155.94210453061078L188.40349155970983,118.49333744479979L188.80130298614503,121.00378262441146L188.9604275567191,115.22471919513721L189.03998984200612,132.80786651443674L189.1991144125802,126.92268116753388L189.91517498016358,134.1021927486466L189.99473726545062,116.5613423606268L190.15386183602467,105.68279634199985L190.31298640659875,100.78813468317392L190.5516732624599,63.15116603521637L190.63123554774694,82.06397731934422L191.3472961153303,88.23505025705815L191.82466982705253,86.02284745911318L192.3816058240618,89.4852923058955L192.69985496520994,114.65002436848329L192.779417250497,110.68040023881457L193.09766639164516,109.50588036962016L193.8137269592285,102.17088230059412L194.13197610037668,86.91614757406728L194.21153838566372,93.79785728489558L194.29110067095075,96.96398554996861L194.68891209738595,110.51639737046894L195.1662858091082,100.10622069357379L195.4049726649693,75.7678470891204L195.48453495025635,68.00602513800301L195.5640972355434,63.051826026399304L195.8027840914045,49.78171005983653L195.96190866197858,31.02714128314864L196.12103323255266,27.7313529781474L196.20059551783973,36.039841391440326L196.28015780312674,34.2337313676982L196.5984069442749,45.761364429202075L196.75753151484898,51.9334301727273L196.9962183707101,58.268893086885356L197.07578065599714,41.56254590298051L197.15534294128418,46.91215453576191L197.47359208243236,28.009167347904015L197.95096579415457,55.34885905914025L198.50790179116385,82.95782189524247L198.5874640764509,112.70537408877536L198.66702636173792,107.53691468413093L199.06483778817312,121.67447701026006L199.1444000734602,124.73912457555778L199.30352464403427,128.2069203404772L199.94002292633056,120.70105453232871L200.09914749690464,119.11315544232596L200.25827206747874,109.22223819040673L200.33783435276575,137.47424521632874L200.5765212086269,125.14117983568622L201.13345720563618,123.54704512819845L201.3721440614973,123.85013712171516L201.53126863207137,100.45002324354849L201.69039320264545,120.17229483693535L202.08820462908065,124.69634145070364L202.48601605551582,124.18178971844583L202.5655783408029,85.9929854638339L202.64514062608993,113.74673478280641L202.96338976723808,123.67780395153058L203.0429520525251,126.48227231052317L203.52032576424736,81.81765896014925L203.67945033482144,92.24854466295561L203.8385749053955,73.58590396937986L204.07726176125664,85.58023437838389L204.15682404654365,92.46613030928484L204.23638633183072,101.80103713746352L204.31594861711775,82.49292128815715L204.55463547297884,74.09295590551747L204.71376004355292,106.97313003919952L205.11157146998812,93.40281452687361L205.35025832584927,124.10321831911571L205.50938289642335,137.26775323768123L205.82763203757148,160.3601566146889L205.90719432285854,126.76856173158373L206.30500574929374,138.1161572003053L206.6232548904419,118.33151308713727L206.86194174630302,105.96343859339065L206.94150403159003,125.42218713108336L207.1006286021641,112.57255999765479L207.4188777433123,84.89554174948778L207.49844002859933,77.73052803913484L207.65756459917338,63.90837328183646L207.73712688446045,50.04598726139308L208.21450059618266,19.230055875952406L208.29406288146973,19.32496396763164L208.4531874520438,9.047034936248005L208.61231202261789,17.253274353544917L208.850998878479,22.407427504146398L208.93056116376604,10.064430897978365L209.08968573434012,38.740121931235855L209.32837259020124,33.17334681378307L209.6466217313494,41.076435789897445L209.80574630192348,3.706556716444401L209.88530858721052,-22.374464947542887L212.82911314283098,-17.183853814551L213.22692456926617,35.660787647782534L213.38604913984025,92.69680812122552L213.70429828098844,100.60008176173184L213.78386056627545,100.91787079865173L213.86342285156252,58.64612868786767L214.02254742213657,86.27419404911379L214.18167199271065,108.69440610241942L214.26123427799772,83.18081751856482L214.57948341914584,75.65574011913927L215.05685713086808,101.67508754168696L215.2159817014422,96.96301966076834L215.37510627201627,104.510732966617L215.69335541316443,116.92339573807848L216.40941598074775,101.4302536875119L216.48897826603482,107.80210845775072L216.56854055132183,101.60934539113646L216.88678969247,113.97866129618406L217.2846011189052,144.19830814114718L217.36416340419225,131.3756592543536L217.44372568947927,95.12779041806449L217.76197483062745,106.32640848022913L217.84153711591446,131.97007484610972L218.0802239717756,131.35675532116204L218.2393485423497,116.48426227386425L218.4780353982108,122.14837660513695L218.875846824646,132.92815209139718L219.03497139522008,134.40730119251785L219.19409596579416,127.35423020105188L219.2736582510812,133.04443398030097L219.67146967751637,152.17907164583184L219.83059424809048,144.0135383753702L220.22840567452565,128.80401942688127L220.4670925303868,140.33858740082903L220.62621710096087,120.37619671369109L220.78534167153492,141.37089583196038L221.18315309797015,139.57289933513806L221.42183995383127,133.33609979402505L221.58096452440535,131.44288834175387L221.74008909497942,93.07337196501177L221.81965138026646,94.04955302689761L222.05833823612755,90.10928598862333L222.13790052141462,114.13824446384291L222.21746280670166,120.61342912222725L222.45614966256278,116.51113425989207L222.53571194784982,112.22481524209941L222.61527423313683,97.96979651813469L223.25177251543317,74.0234110905403L223.3313348007202,35.236161609962146L223.41089708600725,18.831849081001735L223.57002165658133,-0.6710678711426709L223.64958394186837,14.769293866350237L223.96783308301653,18.680700796393275L224.1269576535906,19.53566762505555L224.84301822117396,-19.60449994608032L225.3203919328962,-25.745193955592228L225.39995421818324,37.77323600366954L225.55907878875735,68.10239764086145L225.95689021519252,90.85933115945912L226.03645250047956,97.10683363981127L226.11601478576662,107.33998370680513L226.19557707105363,107.9389407113779L226.3547016416277,124.46698719272081L226.5138262122018,114.96436384849072L226.83207535334998,99.29647574277101L227.1503244944981,108.46099465445265L227.22988677978515,95.39254596339124L227.38901135035925,72.08052636560922L227.62769820622034,58.505949967724185L227.78682277679442,49.619009105181725L228.3437587738037,52.78223249452234L228.7415702002389,61.00494507696188L228.98025705610002,52.08752546449746L229.37806848253524,53.02230879680204L229.61675533839636,44.76710994977163L229.69631762368337,50.32149606641635L229.77587990897044,63.75881740361457L230.0941290501186,65.79205339350953L230.41237819126673,35.776963828049695L230.5715027618408,37.32571038618713L231.20800104413715,69.46273710011275L231.28756332942416,49.773247487237555L231.36712561471123,59.673624899127475L231.68537475585936,87.14877108896852L232.00362389700754,53.841858259668975L232.3218730381557,57.203770628315354L232.4014353234427,54.31653648010317L232.7196844645909,55.49523788014818L232.7992467498779,43.7454374037635L232.87880903516498,42.693823923741355L232.958371320452,41.64438967146438L233.27662046160017,54.86230430359081L233.51530731746126,57.925471834518035L233.7539941733224,72.3312054392489L233.91311874389646,41.65230326843375L234.07224331447054,70.4994034607784L234.39049245561873,75.35393533855678L234.78830388205392,56.61132863066483L234.86786616734096,55.47994258062129L234.947428452628,64.88121848040993L235.10655302320208,76.25696354533963L235.1861153084891,71.19880903461747L235.3452398790632,76.10605374762721L235.50436444963728,73.76080167342867L235.58392673492432,72.86727795632409L235.66348902021136,59.31366967700769L236.29998730250767,91.88228874110635L236.45911187308172,83.71158600805498L236.69779872894287,57.677921751864545L236.7773610142299,90.0685060411462L236.85692329951695,115.59987602854498L236.936485584804,135.65649751052248L237.09561015537807,132.37552051329286L237.25473472595215,150.2253715279026L237.49342158181327,112.6958191567539L237.5729838671003,96.3912991590499L237.89123300824846,114.69069084923478L237.9707952935355,127.27312760299397L238.05035757882254,104.18217455841496L238.2890444346837,131.80878017587133L238.92554271697998,146.94711256708018L240.3576638521467,151.64892577825688L240.43722613743373,143.44380530329295L240.83503756386895,153.10349963553014L240.91459984915596,158.08281159626253L241.07372441973007,140.14487750456038L241.23284899030415,113.036970202902L241.31241127559116,137.386323033229L241.55109813145228,148.06016226049388L241.86934727260044,118.35322645032285L241.9489095578875,136.3663228063436L242.10803412846155,134.40904109513042L242.26715869903563,150.3505451204224L242.3467209843227,124.9874107333215L242.74453241075787,124.47708253865115L242.8240946960449,116.6934831174621L243.06278155190606,124.00140390853585L243.14234383719307,132.534077337983L243.46059297834125,114.92248618225283L243.54015526362826,109.705326810832L243.61971754891533,121.31984113462114L244.09709126063754,110.07368948742162L244.25621583121162,121.54048768944439L244.3357781164987,154.3871024010985L244.4153404017857,146.98059600262167L245.44965011051724,137.26849496066617L245.52921239580425,138.11144823501087L245.68833696637836,154.95852401668873L246.08614839281353,155.2823300736833L246.48395981924872,133.04500252689365L246.6430843898228,105.41224755018874L247.12045810154507,121.35400035983864L247.27958267211915,102.37575167933092L247.43870724269323,109.21031512919642L247.5978318132673,94.993968371186L247.67739409855434,118.2362217280657L247.83651866912842,103.51525004839125L248.23433009556362,63.996539769655335L248.31389238085066,33.82820231824583L248.3934546661377,8.526952659768408L248.4730169514247,-8.436989357613598L249.1890775190081,-37.98339088156904L249.26863980429513,18.5928856605004L249.58688894544326,52.21911030323874L249.66645123073033,92.96093707798961L250.06426265716553,122.586642401169L250.2233872277396,107.47135790993325L250.6211986541748,131.1955006044882L250.70076093946184,108.62388737367256L250.85988551003595,142.61761819981658L251.01901008061,117.21994533541744L251.09857236589704,125.29551778943194L251.25769693647112,118.72674540687014L251.4168215070452,108.2130400507056L251.8146329334804,112.89018311066805L252.05331978934151,117.35873162995864L252.2124443599156,112.21357741168002L252.29200664520263,130.14955284070138L252.6102557863508,139.62143062757667L253.008067212786,141.19565634682033L253.56500320979526,111.79282093776882L253.6445654950823,92.31624534829209L254.0423769215175,61.62809575783367L254.20150149209158,80.35808675935334L254.59931291852678,90.94163992882038L254.67887520381382,62.42152624180217L254.75843748910086,97.3216032567499L254.8379997743879,100.90525577016882L255.55406034197125,94.55148543987399L255.95187176840645,84.94594893367157L256.19055862426757,94.03873243800695L256.27012090955463,80.19066625298849L256.98618147713796,63.87812113852117L257.14530604771204,73.92934633218393L257.3839929035732,92.53434167020974L257.54311747414727,77.60266455020944L258.0204911858695,79.38648963077489L258.57742718287875,63.22843012724406L258.73655175345283,81.8917535291226L258.8161140387399,72.39686873502767L258.975238609314,84.97032325135997L259.21392546517507,80.74086407898129L259.5321746063233,86.0136293473167L259.77086146218437,52.557974149505064L259.8504237474714,16.096153720171703L260.00954831804546,72.17924955686256L260.16867288861954,94.09519813670748L260.2482351739066,88.33018412194777L260.72560888562884,111.2365782170093L260.8051711709159,124.76726567730479L260.96429574148993,84.59855498103559L261.123420312064,75.21087082625684L261.36210716792516,99.54165288712227L261.91904316493446,106.86500211860246L262.23729230608257,105.67794546655409L262.31685459136963,106.55859422314508L262.5555414472307,92.74924975019755" fill="none"></path></g></g></g></g><g opacity="0.2"><g><g><g><path style="fill: none;" stroke="rgb(255, 112, 67)" stroke-width="2px" d="M40.25851635524205,213.71265918856312L40.81545235225133,123.68816764403181L41.213263778686525,132.21767237716608L41.3723883492606,132.21767237716608L41.61107520512172,92.82668558436728L41.7701997756958,-13.433015657560151L41.84976206098284,28.82745529759338L42.00888663155692,94.30459548903218L42.168011202131005,95.38567946143803L42.406698057992116,119.72706430752982L42.565822628566195,128.1736788684724L43.12275862557547,125.51764849485909L43.44100776672363,80.84060766353493L43.52057005201067,176.36924517446448L43.600132337297715,135.43773359872648L43.83881919315883,129.31860351306585L44.55487976074219,-105.8634093582598L44.71400433131626,-6.141927202082872L44.952691187177386,47.61963796858159L45.191378043038505,49.91899544298794L45.50962718418666,59.902192368608006L45.82787632533482,54.06728082300835L45.90743861062187,87.60583053020373L45.9870008959089,92.42051711471493L46.14612546648298,92.42051711471493L46.30525003705706,62.01718381254002L46.3848123223441,-23.102343082243312L46.54393689291818,34.0661009282825L46.623499178205215,102.12855643636291L46.7826237487793,77.29753318103566L46.94174831935337,104.19857449550267L47.498684316362656,38.08475031957945L47.737371172223774,132.85945831469508L47.81693345751081,136.06325291973025L47.97605802808489,149.27535666082565L48.29430716923305,123.40774243918904L48.69211859566825,117.90791988105258L48.771680880955294,152.3421273840923L49.72642830439976,127.95576915320825L49.8059905896868,160.47609823801128L50.12423973083496,161.36678659907193L50.36292658669608,74.0795591220844L50.52205115727016,52.256750083489486L50.681175727844234,119.05877471782122L51.3972362954276,78.86462787528491L51.87461000714983,120.23142880850759L52.27242143358503,134.42413455068294L52.35198371887207,109.35151394095601L52.59067057473319,138.31803456412703L52.74979514530727,103.22219651398885L52.908919715881346,107.27881238703307L53.38629342760359,104.32850865031315L53.46585571289063,133.2616512365205L54.18191628047398,155.25015779558575L54.341040851048064,155.25015779558575L54.500165421622135,136.45272408850946L54.738852277483254,168.03315084311083L55.454912845066616,172.11156597007277L55.693599700927734,174.1615240774691L55.773161986214774,177.1906596146407L55.93228655678885,129.92308556015206L56.17097341264997,189.2557349837509L56.72790940965925,182.89156206890726L56.88703398023333,106.27215398290406L56.966596265520366,113.48578551488646L57.28484540666852,157.12505928033582L57.36440769195556,172.88840458023944L57.44396997724261,218.56362264699516L57.52353226252965,153.7996294765789L57.76221911839077,157.10436986685312L57.84178140367781,145.81063360008233L58.160030544825965,145.81063360008233L58.239592830113,145.81063360008233L58.319155115400044,145.81063360008233L58.71696654183524,145.81063360008233L58.87609111240932,145.81063360008233L58.95565339769636,145.81063360008233L59.27390253884452,145.81063360008233L59.671713965279714,145.81063360008233L59.751276250566754,145.81063360008233L59.91040082114083,145.81063360008233L60.06952539171491,145.81063360008233L60.14908767700195,145.81063360008233L60.22864996228899,145.81063360008233L60.46733681815011,157.10306124902675L60.626461388724195,166.62434921150424L60.86514824458531,135.59768313963036L61.024272815159385,120.2056208771977L61.26295967102051,123.7729462014413L61.34252195630754,152.5683691850104L61.6607710974557,214.31039936912615L61.74033338274275,138.49820970460047L61.81989566802979,207.50421179505724L61.899457953316826,117.62790879577511L62.138144809177945,249.2444491874905L62.217707094464984,169.1772803781389L62.61551852090018,88.72213123044322L63.2520168031965,147.26596570604673L63.411141373770576,183.02311957241375L63.49070365905762,112.95104120259782L63.649828229631694,152.81038065897536L63.80895280020578,129.20014875260566L63.88851508549281,98.68776948649429L64.12720194135393,162.63485383760485L64.20676422664097,159.15086593468348L64.28632651192801,126.06484952367214L64.44545108250209,109.72233316451383L64.92282479422433,128.9197566773281L65.00238707951137,127.70648573967651L65.0819493647984,183.80325457432025L65.47976079123362,144.0987295762368L65.63888536180768,194.20187968307292L65.71844764709472,183.6319747221096L65.8775722176688,71.52722428762378L66.67319507053921,52.499092853106696L66.83231964111327,142.98140185947534L67.0710064969744,171.30257511685573L67.30969335283552,144.97566916772928L67.4688179234096,147.0362949951279L67.70750477927072,118.60203396685367L67.8666293498448,131.70472731879516L68.02575392041888,75.82870077724228L68.18487849099296,157.55536263825422L68.42356534685408,131.98447336755083L68.50312763214112,198.98762759236052L68.6622522027152,160.8189229789544L69.21918819972447,163.69423794478865L69.29875048501151,144.1239080458074L69.37831277029855,129.4360643865693L69.45787505558559,180.1103681978758L70.25349790845598,132.54676491332364L70.49218476431712,187.36163491595323L70.57174704960416,189.29620274767262L70.8899961907523,77.46258467498411L71.2878076171875,167.17425029988308L71.44693218776158,91.01025778223845L71.60605675833565,119.25311274742813L71.84474361419677,180.79588516150113L72.08343047005789,179.28252662204602L72.56080418178013,158.50730756541498L72.64036646706717,176.83503029673832L72.79949103764126,87.36375279710832L72.8790533229283,87.36375279710832L73.35642703465052,138.38510536892403L73.43598931993758,221.38177254803455L73.6746761757987,122.16243521196535L73.99292531694685,141.52230954785796L74.07248760223389,90.8618373300327L74.15204988752093,176.45543173839602L74.23161217280797,184.33514974399958L74.62942359924317,138.3064889106463L74.86811045510429,166.86308085851198L74.94767274039131,166.79925675110698L75.02723502567835,157.36400626951752L75.42504645211356,176.36041614533215L75.82285787854876,224.04292143947504L75.98198244912284,173.28514768858543L76.06154473440988,145.5831328756857L76.14110701969692,49.17868217848129L76.22066930498394,154.50671378716538L76.37979387555804,104.6640780164721L77.01629215785435,173.8483502974019L77.33454129900251,164.64012016151332L77.41410358428956,56.479908280917265L78.20972643715994,77.31442925930016L78.60753786359516,131.9606366453718L78.76666243416922,137.354096734355L78.84622471945626,161.41363180429937L78.9257870047433,161.7415813704567L79.00534929003034,135.78615723619254L79.32359843117851,151.35831181518557L79.72140985761371,127.45191816049146L79.80097214290075,127.45191816049146L80.03965899876185,-18.533113446480417L80.43747042519706,187.88890851128374L80.5170327104841,100.98845214350962L80.83528185163225,71.06374167013304L80.9148441369193,64.61043366005289L80.99440642220634,96.31721657642049L81.15353099278042,178.46157599578294L81.39221784864152,155.88735528833115L81.7104669897897,57.32212808805448L81.79002927507673,178.45385680708563L82.10827841622489,28.190870701804634L82.18784070151193,139.03802284036846L82.58565212794713,163.65425055956268L82.7447766985212,154.46735586367868L83.1425881249564,172.8165299884849L83.22215041024344,187.17710323765277L83.30171269553048,211.66569930681962L83.5403995513916,129.6606497092262L83.61996183667864,163.48724442126598L83.69952412196568,158.68365624110498L83.9382109778268,105.41327000445892L84.01777326311384,187.44160968640517L84.09733554840088,109.8212911758394L84.17689783368792,117.64152504708238L84.57470926012311,103.02479399959867L84.7338338306972,169.87373009828832L84.81339611598423,121.32593025482936L84.89295840127129,160.80808961112598L84.97252068655833,149.74258291918676L85.21120754241943,114.62751315643575L85.37033211299351,130.49357667331793L85.60901896885464,192.4725660727019L85.68858125414167,130.19570875238446L86.08639268057688,197.80995437254265L86.16595496586392,142.67094470375656L86.40464182172502,134.38749325154464L86.5637663922991,150.67426911721273L86.9615778187343,88.7200771973993L87.12070238930838,161.61886946086514L87.35938924516951,158.71163415893707L87.51851381574357,137.2276577486757L87.59807610103061,121.97005182670668L87.67763838631765,163.1615145359787L87.7572006716047,154.84841212289086L87.91632524217879,141.65729596136518L87.99588752746583,121.6898916583857L88.15501209803989,129.67226162183738L88.31413666861397,29.94624071522471L88.39369895390102,186.11036436698913L88.47326123918806,174.08304013745226L88.71194809504918,142.2728929775842L88.9506349509103,154.94274855986762L89.3484463773455,130.36150566155047L89.66669551849365,145.31170234780137L89.7462578037807,99.4899687788403L89.90538237435477,157.7818363461289L90.14406923021589,116.5831182620727L90.46231837136405,174.66171425322858L90.54188065665109,210.6463191496444L90.70100522722517,88.66494960086574L90.7805675125122,30.390971998798385L90.86012979779925,154.3746262106153L90.93969208308629,190.41674403226085L91.25794122423446,80.04125751379821L91.33750350952148,208.26191808130676L91.49662808009556,146.6360235880855L91.5761903653826,131.3080007752318L91.89443950653077,124.51438587116559L92.53093778882707,104.7619758817105L92.84918692997523,126.58412232900093L92.92874921526229,200.9374350240832L93.16743607112339,186.87352046671808L93.24699835641043,85.60470540194832L93.32656064169747,114.29649910549517L93.48568521227155,161.6574819691343L93.5652474975586,68.42285150782733L93.72437206813268,152.71909214199925L93.88349663870675,154.25095354363225L93.96305892399378,99.91628002414916L94.12218349456788,120.10295235456698L94.28130806514196,10.790726102419418L94.51999492100306,136.38689564240838L94.7586817768642,157.0378125703171L95.07693091801234,173.15849336073217L95.15649320329938,173.43568843296555L95.71342920030865,140.68174621898197L95.87255377088275,114.09704255806108L95.95211605616979,135.33264661783437L96.34992748260497,111.56155410751711L96.66817662375314,120.06558220499375L96.82730119432722,216.88014379011224L97.14555033547538,139.56402094743783L97.54336176191059,42.73259641362008L97.94117318834577,144.31801416845775L98.02073547363281,141.58532198091496L98.10029775891987,156.71012804068158L98.33898461478097,148.96572774423748L98.49810918535505,160.78483265633838L98.65723375592913,150.6036203193715L98.73679604121618,166.59582465584595L98.89592061179025,79.63777253892904L99.13460746765136,135.0349112151618L99.2141697529384,153.2452062025469L99.29373203822546,158.89108044897557L99.45285660879952,169.08819497725023L99.6119811793736,92.37400320513973L99.69154346466064,92.62416455214992L99.85066803523473,231.15019050230418L100.00979260580881,104.08378055199978L100.32804174695696,176.60830811712447L100.48716631753105,109.63758773666956L100.80541545867919,129.2985269965398L100.88497774396623,143.1747128725603L101.12366459982736,119.80455436058992L101.28278917040144,157.25305535558067L101.52147602626255,93.5827685219208L101.68060059683664,192.92090847888505L101.83972516741072,171.09206985941927L102.07841202327182,142.78557299943333L102.31709887913296,98.27530639944928L102.39666116442,109.71264276668566L102.7944725908552,132.85283240165018L103.19228401729038,120.5202854877L103.51053315843855,147.78118013963552L103.59009544372559,170.4770857401569L103.66965772901263,92.48989042429503L103.82878229958669,190.50003175923524L103.90834458487375,176.4598876649187L103.98790687016078,180.33263445096696L104.38571829659598,131.7853646805516L104.6244051524571,183.14195532287403L104.70396743774414,148.76719882462967L104.78352972303118,135.07122121864785L104.86309200831822,132.99605151211568L105.02221657889231,159.84080569526628L105.26090343475342,177.8266147486902L105.49959029061453,120.56141584292621L106.2156508581979,137.3012053834741L106.45433771405901,123.4155444517994L107.01127371106828,93.99506596113969L107.09083599635532,149.60973336263652L107.17039828164236,197.56501093205532L107.48864742279054,150.69462723504319L107.6477719933646,144.8687269311846L107.80689656393868,158.80843874852306L107.88645884922573,153.32246434865044L108.20470799037388,159.72071102132747L108.68208170209613,133.25303754956212L108.84120627267019,173.1435187972507L109.07989312853132,196.5378121974871L109.15945541381836,153.49106070607792L109.39814226967948,188.1457785952519L109.6368291255406,135.90797464752302L109.79595369611468,183.26218251507373L109.95507826668876,158.2075512592637L110.35288969312396,171.55021861690886L110.432451978411,185.2832516415943L110.67113883427211,69.6385077741751L110.98938797542027,112.97802523347318L111.14851254599435,120.08305805064967L111.46676168714251,167.43875674863548L111.54632397242955,176.36729053011624L111.78501082829067,144.11032492406537L111.94413539886476,185.55057410339077L112.02369768415178,160.33138829711066L112.2623845400129,187.07163526676058L112.34194682529994,100.40429508468864L112.58063368116107,124.86489667124079L112.6601959664481,190.07815987566647L112.73975825173514,141.69713426354764L113.21713196345739,116.0457235845661L113.61494338989257,182.25641860920578L113.77406796046667,132.27086189413401L113.85363024575369,84.2243951964348L114.96750223977226,163.6138490547714L115.0470645250593,164.89650986678572L115.20618909563336,156.28116643015477L115.76312509264264,163.09692844857355L115.84268737792968,154.1186506249082L115.92224966321672,22.742813089331456L116.24049880436489,164.5719395162813L116.32006108965193,134.1119877871377L116.63831023080009,154.66146198632902L116.95655937194823,160.4009272545169L117.03612165723527,137.52237836091285L117.19524622780936,186.08816755828872L117.35437079838344,102.7188093351852L117.43393308367048,121.67120658359909L117.51349536895752,126.04179134627589L117.59305765424455,142.88999738902095L118.22955593654086,169.54301421343476L118.54780507768903,142.09174051493665L118.70692964826311,132.561871995066L118.94561650412423,99.33969307098198L119.34342793055943,186.0913811261155L119.82080164228167,51.41327135287374L119.9003639275687,170.96167189069564L119.97992621285576,100.43243865034685L120.13905078342982,174.53684892189744L120.37773763929094,183.3720732829234L121.33248506273543,179.7040175156147L121.4916096333095,153.09175005642703L121.73029648917063,138.14587677843792L121.96898334503175,115.4654426848764L122.12810791560581,159.4881580382341L122.20767020089285,129.87097275405392L122.60548162732806,144.85839050683455L122.68504391261509,158.06817517836424L122.92373076847622,127.01011884344015L123.00329305376326,135.54315187527084L123.0828553390503,76.61440154610649L123.3215421949114,194.85938559930094L123.40110448019844,150.2385159458149L123.71935362134661,86.9514222283242L123.87847819192068,188.44994113357802L124.35585190364293,197.2447805545953L124.514976474217,121.92408455495769L124.75366333007813,177.50867031123067L125.07191247122628,143.13515617168224L125.39016161237444,162.92178900201424L125.54928618294852,180.68384097191188L125.86753532409668,181.9763743943631L125.94709760938372,93.12730325921439L126.34490903581893,120.50892204682799L126.504033606393,76.82136194006394L127.45878102983748,24.700704134968895L127.77703017098563,44.68379528708217L127.85659245627267,65.51069646546343L127.9361547415597,-3.25160454320191L128.17484159742082,-60.64877507203768L128.3339661679949,9.395408203859196L128.57265302385602,7.556949240856076L128.89090216500418,72.73870622875326L129.05002673557826,64.62905247570906L129.1295890208653,121.16919428175225L129.44783816201345,98.68892902127715L129.5274004473005,104.29604167639314L129.76608730316164,85.79665810285907L130.08433644430977,113.0155113365247L130.1638987295968,97.59306926278117L130.32302330017092,118.54869536684222L130.48214787074497,146.36633236237546L130.72083472660609,54.91019635101528L131.11864615304128,128.34333537198705L131.27777072361536,103.58855981102397L131.43689529418944,122.51309509508405L131.6755821500506,132.0800521632235L132.07339357648578,144.62095091287057L132.15295586177282,106.9814911039258L132.3120804323469,140.48429401024396L132.47120500292095,162.08781845661792L132.550767288208,96.13738929638191L132.63032957349506,166.62733087237444L132.86901642935618,201.68232016859082L133.26682785579138,76.63808918524201L133.42595242636546,152.8896762733402L133.5055147116525,5.025850457704356L133.82376385280065,32.3006926565994L134.22157527923582,130.99898475560028L134.539824420384,183.5645063625299L134.85807356153214,177.67763109387562L134.9376358468192,148.15488163536787L135.3354472732544,114.38772136334083L135.49457184382848,77.11439294447463L135.65369641440256,146.2925693854031L135.81282098497664,105.0857179930843L136.05150784083776,180.56291805884246L136.1310701261248,137.0698284999462L136.44931926727295,170.2001557044453L136.9266929789952,132.8413695720825L137.08581754956927,150.60020797415336L137.24494212014335,42.08570852304651L137.40406669071743,128.48519617027836L137.48362897600447,134.42956779937975L137.88144040243967,148.86985078247778L138.27925182887486,153.05043748859208L138.51793868473598,138.446196287198L138.67706325531006,177.80140314955435L138.83618782588414,183.31754201856387L138.91575011117118,186.45734686836792L139.07487468174526,92.98799343744537L139.23399925231934,120.2350896254649L139.47268610818045,133.2949464495711L139.63181067875453,58.63392635268374L139.71137296404157,146.7283888159314L139.7909352493286,124.26687488937336L139.87049753461568,55.523855287668674L140.42743353162496,123.43306999180317L140.586558102199,162.15896419793754L140.82524495806013,136.03865421755106L140.90480724334716,134.28504007108788L140.98436952863423,117.20229327133598L141.46174324035644,99.97982253024975L141.85955466679164,21.532921367332754L142.09824152265276,37.575582031644124L142.1778038079398,125.97359413626126L142.81430209023614,28.12573797657327L142.89386437552315,63.76509967378458L142.97342666081022,69.21305789756208L143.05298894609723,7.839842598308072L143.2121135166713,-0.8801571348670509L143.6099249431065,55.32991481284446L143.76904951368059,-3.3153126971286215L143.84861179896762,15.218823790325947L144.48511008126397,91.43365362580755L144.56467236655098,75.10170559795587L144.88292150769914,137.87317076229246L145.04204607827324,133.55302576266996L145.20117064884732,113.4513638966182L145.28073293413433,164.49517831365614L145.4398575047084,170.58422675409292L145.7581066458566,165.40382289906847L145.8376689311436,96.4129610199193L145.9967935017177,118.76479952080163L146.1559180722918,164.0291447196431L146.2354803575788,110.05316500284567L146.3946049281529,129.49597920527782L146.47416721343996,149.37810800736943L146.55372949872697,129.42445247395813L146.63329178401403,118.15859473632375L146.95154092516216,146.60448424199177L147.03110321044923,135.3966529378481L147.26979006631032,142.71808807507102L147.3493523515974,131.08818610996724L147.42891463688443,179.2336770781225L147.7471637780326,82.0227368098755L147.8267260633196,156.5846663771764L147.9858506338937,98.1196968315898L148.38366206032887,208.6043783970324L149.02016034262522,156.49317908280895L149.25884719848634,107.65766553015783L149.41797176906041,139.71982929268864L149.5770963396345,162.59145410716076L149.65665862492153,106.77777740736036L149.9749077660697,174.91131239762996L150.13403233664377,146.206664422776L150.3727191925049,158.8105259111322L150.45228147779193,150.65006796981623L150.61140604836598,52.94001423667955L151.16834204537525,67.84262030248546L151.32746661594936,194.87088155843384L151.4070289012364,143.59264233786735L151.72527804238456,69.19318015842738L151.8048403276716,166.51237128104543L152.04352718353272,167.06182512029375L152.12308946881976,179.84808142999344L152.2026517541068,155.84201747832142L152.36177632468087,127.71016312141643L152.4413386099679,131.12189544258317L152.600463180542,168.8239204354544L152.75958775111607,112.11506631850543L152.8391500364031,138.92750261077953L153.15739917755127,108.53019888947546L153.3960860334124,126.11656477498758L153.71433517456055,150.1273496897041L153.79389745984759,167.08100713855873L154.0325843157087,132.87514516382888L154.19170888628278,149.40828904128895L154.35083345685686,86.14160313597655L154.4303957421439,163.48325230865643L154.50995802743094,116.21960410764689L155.2260185950143,89.01257812876639L155.3851431655884,109.38921538618149L155.6238300214495,94.95827494047677L155.78295459202357,187.71625378211627L155.94207916259768,160.87986481418486L156.49901515960696,125.32170368133879L156.57857744489397,154.63837067936754L156.8172643007551,174.8982593489315L156.89682658604212,118.28612699765546L156.97638887132916,148.90402392900685L157.3742002977644,99.99794440242755L157.61288715362548,102.59946007646394L157.7720117241996,44.34388594787881L158.01069858006068,110.40334450726863L158.09026086534772,122.86653786168162L158.16982315063476,76.45723488868147L158.48807229178294,126.74781551077518L158.56763457706995,94.80478566479167L158.72675914764403,61.43340774371912L158.88588371821814,29.63150984559197L158.96544600350515,35.67361369210564L159.2836951446533,145.5601409574199L159.36325742994035,145.3968122008631L159.6815065710885,132.1773868258531L159.76106885637557,84.66177171652863L159.92019342694965,112.72233124907049L160.0793179975237,141.1050426738554L160.47712942395893,122.72432920295546L160.55669170924597,164.88860846547968L160.71581627982005,103.55460200666886L160.95450313568114,120.57955427988662L161.5114391326904,67.37874013021202L161.6705637032645,2.147951385782582L161.98881284441268,105.38060425314757L162.0683751296997,21.58553111690926L162.38662427084788,-26.77313203868302L162.4661865561349,44.946645257573344L162.94356026785715,-18.753955128266927L163.18224712371824,12.09384442095986L163.2618094090053,-105.18733432072345L163.50049626486643,-67.47873310915516L163.58005855015347,19.251619505973757L163.6596208354405,-112.90970345629326L163.73918312072752,0.26910748277079777L164.0574322618757,-48.8368592755905L165.2508665411813,-69.44437647305513L165.8873648234776,119.48253498660779L166.2851762499128,101.96155029806621L166.76254996163505,88.47090973734585L166.84211224692206,127.23564835870593L166.92167453220912,111.41785461835585L167.31948595864432,115.24420344830719L167.63773509979248,83.54371514933224L168.11510881151474,60.60377717136722L168.43335795266287,143.82087191269892L168.75160709381103,185.24955887376098L168.9107316643851,104.52498353687704L169.0698562349592,64.58644785483035L169.3085430908203,107.56738746492107L169.7063545172555,167.764006255227L170.1041659436907,142.56088828808078L170.66110194069998,128.9533997508136L171.13847565242222,131.59178863094485L171.2976002229963,118.79334064124254L171.4567247935704,105.16683573353649L171.61584936414448,98.22640716117792L171.6954116494315,-6.25118850819327L171.9340985052926,70.85008910400025L172.65015907287597,118.78770861515437L173.5253442110334,39.92128776779955L173.60490649632047,120.97025124257914L173.84359335218159,118.19912875937592L173.9231556374686,75.87087471377306L174.24140477861675,75.61667155980548L174.32096706390382,121.80554697058443L174.48009163447787,79.51999693455595L174.8779030609131,109.59826294274808L175.11658991677422,133.41384845916184L175.5144013432094,87.88209797461083L175.59396362849645,102.28573965857055L175.6735259137835,115.65106763882926L175.83265048435757,65.20590446539804L175.91221276964458,158.1285538109859L176.31002419607978,142.6455674567946L176.38958648136685,50.57767745878143L176.62827333722794,63.56758120591612L176.707835622515,75.24754194407411L177.1056470489502,119.56461348445148L177.5830207606724,133.06091920082525L177.66258304595948,175.26483798814058L178.06039447239468,145.18657197994844L178.37864361354283,142.18612664626124L178.77645503997803,113.58555520056004L179.41295332227432,172.10634806354992L180.68594988686698,199.8456170725446L180.76551217215402,171.18504798422182L181.16332359858922,153.44318848432852L182.19763330732073,103.25048916269057L182.27719559260777,149.63867203786012L182.67500701904297,178.00599477959824L182.83413158961704,134.21369555237692L182.99325616019112,163.8324876204705L183.0728184454782,120.64743675903162L183.1523807307652,133.42575853786005L183.47062987191336,136.44646260068203L183.62975444248747,102.23796682551682L183.78887901306155,97.69229231062855L183.9480035836356,135.21308201693915L184.18669043949674,52.38151602612495L184.26625272478375,20.496231012327733L184.42537729535783,108.96456061913386L184.5845018659319,88.66339251130019L184.66406415121895,103.1449218031027L184.74362643650602,142.01304123274585L184.82318872179303,91.82968444850121L184.9823132923671,121.79948426014835L185.06187557765415,105.66144357755564L185.1414378629412,89.91512687417742L185.3801247188023,144.34190058498461L186.01662300109865,68.28543007127611L186.33487214224678,27.951112038274935L186.41443442753385,69.28402142627296L186.65312128339494,128.03350767800754L187.1304949951172,155.645907016975L187.21005728040421,161.949701299197L187.3691818509783,132.74718221814925L187.7669932774135,173.89251200784616L187.92611784798757,164.49759677191753L188.00568013327464,143.4265306978317L188.32392927442277,163.44286736864777L188.40349155970983,62.320186816083286L188.80130298614503,124.769450393829L188.9604275567191,106.55612405122585L189.03998984200612,159.18258749338594L189.1991144125802,118.09490314717965L189.91517498016358,144.87146012031562L189.99473726545062,90.2500667785971L190.15386183602467,89.36497731405939L190.31298640659875,93.44614219493496L190.5516732624599,6.695713063280001L190.63123554774694,110.4331942455359L191.3472961153303,97.49165966362898L191.82466982705253,82.70454326219568L192.3816058240618,94.67895957606902L192.69985496520994,152.39712246236496L192.779417250497,104.72596404431147L193.09766639164516,107.74410056582855L193.8137269592285,91.16838519705499L194.13197610037668,64.03404548427706L194.21153838566372,104.12042185113808L194.29110067095075,101.71317794757815L194.68891209738595,130.84501510121942L195.1662858091082,84.49095567823112L195.4049726649693,39.260286682440345L195.48453495025635,56.36329221132703L195.5640972355434,55.62052735899376L195.8027840914045,29.876536109992365L195.96190866197858,2.895288118116829L196.12103323255266,22.787670520645428L196.20059551783973,48.502574011379714L196.28015780312674,31.524566332085065L196.5984069442749,63.052814021457856L196.75753151484898,61.191528788015056L196.9962183707101,67.7720874581225L197.07578065599714,16.503025127123202L197.15534294128418,54.93656748493398L197.47359208243236,-0.34531343388274L197.95096579415457,96.35839662599454L198.50790179116385,124.37126614939575L198.5874640764509,157.32670237907473L198.66702636173792,99.7842255771643L199.06483778817312,142.88082049945376L199.1444000734602,129.3360959235044L199.30352464403427,133.40861398785637L199.94002292633056,109.44225582010591L200.09914749690464,116.73130680732189L200.25827206747874,94.38586231252788L200.33783435276575,179.85225575521173L200.5765212086269,106.64158176472245L201.13345720563618,121.15584306696678L201.3721440614973,124.30477511199018L201.53126863207137,65.34985242629848L201.69039320264545,149.75570222701566L202.08820462908065,131.48241137135616L202.48601605551582,123.40996212005908L202.5655783408029,28.70977908191596L202.64514062608993,155.3773587612652L202.96338976723808,138.57440770461682L203.0429520525251,130.68897484901203L203.52032576424736,14.820738934588368L203.67945033482144,107.89487321716524L203.8385749053955,45.591942929016135L204.07726176125664,103.57172999188992L204.15682404654365,102.79497420563632L204.23638633183072,115.8033973797315L204.31594861711775,53.53074751419759L204.55463547297884,61.493007831557996L204.71376004355292,156.2933912397226L205.11157146998812,73.04734125838469L205.35025832584927,170.15382400747885L205.50938289642335,157.0145556155295L205.82763203757148,194.9987616802004L205.90719432285854,76.38116940692602L206.30500574929374,155.13755040338768L206.6232548904419,88.65454691738525L206.86194174630302,87.4113268527707L206.94150403159003,154.6103099376224L207.1006286021641,93.2981192975119L207.4188777433123,43.38001437723724L207.49844002859933,66.98300747360538L207.65756459917338,43.17514114588894L207.73712688446045,29.25240823072803L208.21450059618266,-26.993841202208632L208.29406288146973,19.46732610515047L208.4531874520438,-6.369858610827425L208.61231202261789,29.562633479490238L208.850998878479,30.1386572300486L208.93056116376604,-8.450064011273714L209.08968573434012,81.75365848112212L209.32837259020124,24.823184137603867L209.6466217313494,52.93106925406894L209.80574630192348,-52.34826189373514L212.6699885722569,-29.85540739847473L212.82911314283098,57.942744233405016L213.22692456926617,114.92774984128278L213.38604913984025,178.2508388313899L213.70429828098844,112.4549922224914L213.78386056627545,101.39455435403153L213.86342285156252,-4.76148447830845L214.02254742213657,127.71629209098296L214.18167199271065,142.32472418237793L214.26123427799772,44.91043464278297L214.57948341914584,64.3681240200009L215.05685713086808,140.7041086755085L215.2159817014422,89.89491783939047L215.37510627201627,115.83230292538988L215.69335541316443,135.54238989527067L216.40941598074775,78.19054061166203L216.48897826603482,117.35989061310892L216.56854055132183,92.32020079121514L216.88678969247,132.5326351537554L217.2846011189052,189.52777840859187L217.36416340419225,112.14168592416331L217.44372568947927,40.7559871636308L217.76197483062745,123.12433557347606L217.84153711591446,170.4355743949306L218.0802239717756,130.43677603374053L218.2393485423497,94.17552270291753L218.4780353982108,130.64454810204597L218.875846824646,149.09781532078756L219.03497139522008,136.6260248441988L219.19409596579416,116.77462371385292L219.2736582510812,141.57973964917463L219.67146967751637,180.8810281441281L219.83059424809048,131.7652384696777L220.22840567452565,105.98974100414782L220.4670925303868,157.64043936175074L220.62621710096087,90.43261068298409L220.78534167153492,172.8629445093644L221.18315309797015,136.8759045899046L221.42183995383127,123.98090048235548L221.58096452440535,128.60307116334712L221.74008909497942,35.51909739989858L221.81965138026646,95.51382461972639L222.05833823612755,84.19888543121193L222.13790052141462,150.18168217667227L222.21746280670166,130.32620610980376L222.45614966256278,110.35769196638927L222.53571194784982,105.79533671541046L222.61527423313683,76.58726843218763L223.25177251543317,38.10383294914876L223.3313348007202,-22.944712610905146L223.57002165658133,-29.92544329935932L223.64958394186837,37.92983647258969L223.96783308301653,24.547811191457832L224.1269576535906,20.818117868048965L224.84301822117396,-78.31475130278427L225.24082964760916,7.823907277435088L225.3203919328962,-51.41327930396933L225.39995421818324,133.05088094256223L225.55907878875735,113.59614009664926L225.95689021519252,124.9947314373556L226.03645250047956,106.47808736033954L226.11601478576662,122.68970880729586L226.19557707105363,108.83737621823701L226.3547016416277,149.2590569147352L226.5138262122018,100.71042883214562L226.83207535334998,75.79464358419149L227.1503244944981,122.20777302197507L227.22988677978515,75.78987292679916L227.38901135035925,37.11249696893608L227.62769820622034,38.144085370896526L227.78682277679442,36.288597811368014L228.3437587738037,57.52706757853323L228.7415702002389,73.33901395062118L228.98025705610002,38.711396045800846L229.37806848253524,54.4244837952589L229.61675533839636,32.38431167922604L229.69631762368337,58.6530752413835L229.77587990897044,83.91479940941186L230.0941290501186,68.84190737835202L230.41237819126673,-9.245670520140056L230.5715027618408,39.64883022339327L231.20800104413715,117.66827717100117L231.28756332942416,20.239013067924724L231.36712561471123,74.5241910169624L231.68537475585936,128.36149037373008L232.00362389700754,3.8814890157197137L232.3218730381557,62.2466391812849L232.4014353234427,49.98568525778486L232.7196844645909,57.26328998021577L232.7992467498779,26.120736689186593L232.87880903516498,41.11640370370812L232.958371320452,40.070238293048895L233.27662046160017,74.68917625178041L233.51530731746126,62.52022313090881L233.7539941733224,93.93980584634522L233.91311874389646,-4.366049987788831L234.07224331447054,113.77005374929527L234.39049245561873,82.6357331552244L234.78830388205392,28.497418568826923L234.86786616734096,53.78286350555603L234.947428452628,78.98313233009294L235.10655302320208,93.32058114273411L235.1861153084891,63.611577268534255L235.3452398790632,83.46692081714185L235.50436444963728,70.24292356213085L235.58392673492432,71.52699238066721L235.66348902021136,38.983257258033085L236.29998730250767,140.7352173372543L236.45911187308172,71.45553190847797L236.69779872894287,18.627425367578972L236.7773610142299,138.65438247506876L236.85692329951695,153.89693100964325L236.936485584804,165.74142973348873L237.09561015537807,127.45405501744844L237.25473472595215,177.00014804981723L237.49342158181327,56.401490600030876L237.5729838671003,71.93451916249377L237.89123300824846,142.13977838451217L237.9707952935355,146.1467827336327L238.05035757882254,69.5457449915465L238.2890444346837,173.24868860205586L238.92554271697998,169.65461115389348L240.3576638521467,158.7016455950219L240.43722613743373,131.1361245908471L240.83503756386895,167.59304113388598L240.91459984915596,165.55177953736109L241.07372441973007,113.2379763670072L241.23284899030415,72.37510925041438L241.31241127559116,173.91035227871956L241.55109813145228,164.0709211013912L241.86934727260044,73.79282273506637L241.9489095578875,163.3859673403747L242.10803412846155,131.4731185283107L242.26715869903563,174.2628011583604L242.3467209843227,86.94270915267016L242.74453241075787,123.71159024664553L242.8240946960449,105.01808398567849L243.06278155190606,134.96328509514643L243.14234383719307,145.3330874821538L243.46059297834125,88.50509944865753L243.54015526362826,101.8795877537008L243.61971754891533,138.74161262030486L244.09709126063754,93.20446201662224L244.25621583121162,138.74068499247858L244.3357781164987,203.6570244685797L244.4153404017857,135.87083640490636L245.44965011051724,122.70034339773292L245.52921239580425,139.3758781465279L245.68833696637836,180.22913768920563L246.08614839281353,155.76803915917512L246.48395981924872,99.6890112067091L246.6430843898228,63.96311508513141L247.12045810154507,145.26662957431344L247.27958267211915,73.90837865856942L247.43870724269323,119.46216030399472L247.5978318132673,73.66944823417033L247.67739409855434,153.09960176338524L247.83651866912842,81.43379252887958L248.23433009556362,4.718474351551455L248.31389238085066,-11.424303858868331L249.10951523372105,-137.85023648947012L249.1890775190081,12.535130229750186L249.26863980429513,103.4573004736045L249.58688894544326,102.65844726734616L249.66645123073033,154.07367724011596L250.06426265716553,167.02520038593806L250.2233872277396,84.79843117307969L250.6211986541748,166.7817146463206L250.70076093946184,74.76646752744917L250.85988551003595,193.6082144390325L251.01901008061,79.1234360388187L251.09857236589704,137.40887647045372L251.25769693647112,108.87358683302739L251.4168215070452,92.44248201645877L251.8146329334804,119.90589770061166L252.05331978934151,124.06155440889452L252.2124443599156,104.4958460842621L252.29200664520263,157.0535159842335L252.6102557863508,153.8292473078896L253.008067212786,143.55699492568579L253.56500320979526,67.68856782419154L253.6445654950823,63.10138196407697L254.0423769215175,15.59587137214597L254.20150149209158,108.45307326163282L254.59931291852678,106.81696968302094L254.67887520381382,19.641355711274763L254.75843748910086,149.67171877917156L254.8379997743879,106.2807345402972L255.55406034197125,85.02082994443175L255.95187176840645,70.537644174368L256.19055862426757,107.67790769451L256.27012090955463,59.41856697546077L256.98618147713796,39.40930346682014L257.14530604771204,89.00618412267806L257.3839929035732,120.44183467724838L257.54311747414727,55.205148870208994L258.0204911858695,82.0622272516231L258.57742718287875,38.99134087194786L258.73655175345283,109.8867386319404L258.8161140387399,58.15454154388524L258.975238609314,103.83050502585849L259.21392546517507,74.39667532041331L259.5321746063233,93.92277724981983L259.77086146218437,2.3744913527877056L259.8504237474714,-38.59657692382832L260.00954831804546,156.30389331189878L260.16867288861954,126.96912100647484L260.2482351739066,79.68266309980824L260.72560888562884,145.59616935960153L260.8051711709159,145.06329686774808L260.96429574148993,24.345488936631817L261.123420312064,61.12934459408867L261.36210716792516,136.03782597842044L261.91904316493446,117.85002596582277L262.23729230608257,103.89736048848152L262.31685459136963,107.87956735803152L262.5555414472307,72.03523304077625" fill="none"></path></g></g></g></g></g></g><g transform="translate(51, 177)" clip-path="url(#clip_1)"><clipPath id="clip_1"><rect width="278" height="22"></rect></clipPath><g><g><line x1="0" y1="0" x2="0" y2="5" style="visibility: inherit;" fill="rgb(0, 0, 0)" stroke="rgb(204, 204, 204)" stroke-width="1px"></line><line x1="39.78114264351981" y1="0" x2="39.78114264351981" y2="5" style="visibility: inherit;" fill="rgb(0, 0, 0)" stroke="rgb(204, 204, 204)" stroke-width="1px"></line><line x1="79.56228528703961" y1="0" x2="79.56228528703961" y2="5" style="visibility: inherit;" fill="rgb(0, 0, 0)" stroke="rgb(204, 204, 204)" stroke-width="1px"></line><line x1="119.34342793055943" y1="0" x2="119.34342793055943" y2="5" style="visibility: inherit;" fill="rgb(0, 0, 0)" stroke="rgb(204, 204, 204)" stroke-width="1px"></line><line x1="159.12457057407923" y1="0" x2="159.12457057407923" y2="5" style="visibility: inherit;" fill="rgb(0, 0, 0)" stroke="rgb(204, 204, 204)" stroke-width="1px"></line><line x1="198.90571321759904" y1="0" x2="198.90571321759904" y2="5" style="visibility: inherit;" fill="rgb(0, 0, 0)" stroke="rgb(204, 204, 204)" stroke-width="1px"></line><line x1="238.68685586111886" y1="0" x2="238.68685586111886" y2="5" style="visibility: inherit;" fill="rgb(0, 0, 0)" stroke="rgb(204, 204, 204)" stroke-width="1px"></line><line x1="278.4679985046387" y1="0" x2="278.4679985046387" y2="5" style="visibility: inherit;" fill="rgb(0, 0, 0)" stroke="rgb(204, 204, 204)" stroke-width="1px"></line></g><g transform="translate(0, 8)"><text style="text-anchor: middle; visibility: hidden; font-family: Roboto, sans-serif; font-size: 12px; font-weight: 200;" x="0" y="0" dx="0em" dy="0.95em" fill="rgb(50, 49, 63)" stroke="none" stroke-width="1px">-500</text><text style="text-anchor: middle; visibility: hidden; font-family: Roboto, sans-serif; font-size: 12px; font-weight: 200;" x="39.78114264351981" y="0" dx="0em" dy="0.95em" fill="rgb(50, 49, 63)" stroke="none" stroke-width="1px">0</text><text style="text-anchor: middle; visibility: hidden; font-family: Roboto, sans-serif; font-size: 12px; font-weight: 200;" x="79.56228528703961" y="0" dx="0em" dy="0.95em" fill="rgb(50, 49, 63)" stroke="none" stroke-width="1px">500</text><text style="text-anchor: middle; visibility: hidden; font-family: Roboto, sans-serif; font-size: 12px; font-weight: 200;" x="119.34342793055943" y="0" dx="0em" dy="0.95em" fill="rgb(50, 49, 63)" stroke="none" stroke-width="1px">1k</text><text style="text-anchor: middle; visibility: hidden; font-family: Roboto, sans-serif; font-size: 12px; font-weight: 200;" x="159.12457057407923" y="0" dx="0em" dy="0.95em" fill="rgb(50, 49, 63)" stroke="none" stroke-width="1px">1.5k</text><text style="text-anchor: middle; visibility: hidden; font-family: Roboto, sans-serif; font-size: 12px; font-weight: 200;" x="198.90571321759904" y="0" dx="0em" dy="0.95em" fill="rgb(50, 49, 63)" stroke="none" stroke-width="1px">2k</text><text style="text-anchor: middle; visibility: hidden; font-family: Roboto, sans-serif; font-size: 12px; font-weight: 200;" x="238.68685586111886" y="0" dx="0em" dy="0.95em" fill="rgb(50, 49, 63)" stroke="none" stroke-width="1px">2.5k</text><text style="text-anchor: middle; visibility: hidden; font-family: Roboto, sans-serif; font-size: 12px; font-weight: 200;" x="278.4679985046387" y="0" dx="0em" dy="0.95em" fill="rgb(50, 49, 63)" stroke="none" stroke-width="1px">3k</text></g><line x1="0" y1="0" x2="278.4679985046387" y2="0" fill="rgb(0, 0, 0)" stroke="rgb(204, 204, 204)" stroke-width="1px"></line></g></g></g></g></svg>