<svg viewBox="0 0 330 200" xmlns="http://www.w3.org/2000/svg"><g><g><g><g><g><line x1="51.53200149536133" y1="177.86299896240234" x2="46.53200149536133" y2="177.86299896240234" style="visibility: inherit;" fill="rgb(0, 0, 0)" stroke="rgb(204, 204, 204)" stroke-width="1px"></line><line x1="51.53200149536133" y1="164.1812298114483" x2="46.53200149536133" y2="164.1812298114483" style="visibility: inherit;" fill="rgb(0, 0, 0)" stroke="rgb(204, 204, 204)" stroke-width="1px"></line><line x1="51.53200149536133" y1="150.4994606604943" x2="46.53200149536133" y2="150.4994606604943" style="visibility: inherit;" fill="rgb(0, 0, 0)" stroke="rgb(204, 204, 204)" stroke-width="1px"></line><line x1="51.53200149536133" y1="136.81769150954025" x2="46.53200149536133" y2="136.81769150954025" style="visibility: inherit;" fill="rgb(0, 0, 0)" stroke="rgb(204, 204, 204)" stroke-width="1px"></line><line x1="51.53200149536133" y1="123.13592235858623" x2="46.53200149536133" y2="123.13592235858623" style="visibility: inherit;" fill="rgb(0, 0, 0)" stroke="rgb(204, 204, 204)" stroke-width="1px"></line><line x1="51.53200149536133" y1="109.4541532076322" x2="46.53200149536133" y2="109.4541532076322" style="visibility: inherit;" fill="rgb(0, 0, 0)" stroke="rgb(204, 204, 204)" stroke-width="1px"></line><line x1="51.53200149536133" y1="95.77238405667818" x2="46.53200149536133" y2="95.77238405667818" style="visibility: inherit;" fill="rgb(0, 0, 0)" stroke="rgb(204, 204, 204)" stroke-width="1px"></line><line x1="51.53200149536133" y1="82.09061490572414" x2="46.53200149536133" y2="82.09061490572414" style="visibility: inherit;" fill="rgb(0, 0, 0)" stroke="rgb(204, 204, 204)" stroke-width="1px"></line><line x1="51.53200149536133" y1="68.40884575477011" x2="46.53200149536133" y2="68.40884575477011" style="visibility: inherit;" fill="rgb(0, 0, 0)" stroke="rgb(204, 204, 204)" stroke-width="1px"></line><line x1="51.53200149536133" y1="54.72707660381609" x2="46.53200149536133" y2="54.72707660381609" style="visibility: inherit;" fill="rgb(0, 0, 0)" stroke="rgb(204, 204, 204)" stroke-width="1px"></line><line x1="51.53200149536133" y1="41.045307452862055" x2="46.53200149536133" y2="41.045307452862055" style="visibility: inherit;" fill="rgb(0, 0, 0)" stroke="rgb(204, 204, 204)" stroke-width="1px"></line><line x1="51.53200149536133" y1="27.363538301908054" x2="46.53200149536133" y2="27.363538301908054" style="visibility: inherit;" fill="rgb(0, 0, 0)" stroke="rgb(204, 204, 204)" stroke-width="1px"></line><line x1="51.53200149536133" y1="13.681769150954016" x2="46.53200149536133" y2="13.681769150954016" style="visibility: inherit;" fill="rgb(0, 0, 0)" stroke="rgb(204, 204, 204)" stroke-width="1px"></line><line x1="51.53200149536133" y1="0" x2="46.53200149536133" y2="0" style="visibility: inherit;" fill="rgb(0, 0, 0)" stroke="rgb(204, 204, 204)" stroke-width="1px"></line></g><g transform="translate(41.53200149536133, 0)"><text style="text-anchor: end; visibility: hidden; font-family: Roboto, sans-serif; font-size: 12px; font-weight: 200;" x="0" y="177.86299896240234" dx="0em" dy="0.3em" fill="rgb(50, 49, 63)" stroke="none" stroke-width="1px">0.05</text><text style="text-anchor: end; visibility: inherit; font-family: Roboto, sans-serif; font-size: 12px; font-weight: 200;" x="0" y="164.1812298114483" dx="0em" dy="0.3em" fill="rgb(50, 49, 63)" stroke="none" stroke-width="1px">0.1</text><text style="text-anchor: end; visibility: hidden; font-family: Roboto, sans-serif; font-size: 12px; font-weight: 200;" x="0" y="150.4994606604943" dx="0em" dy="0.3em" fill="rgb(50, 49, 63)" stroke="none" stroke-width="1px">0.15</text><text style="text-anchor: end; visibility: inherit; font-family: Roboto, sans-serif; font-size: 12px; font-weight: 200;" x="0" y="136.81769150954025" dx="0em" dy="0.3em" fill="rgb(50, 49, 63)" stroke="none" stroke-width="1px">0.2</text><text style="text-anchor: end; visibility: hidden; font-family: Roboto, sans-serif; font-size: 12px; font-weight: 200;" x="0" y="123.13592235858623" dx="0em" dy="0.3em" fill="rgb(50, 49, 63)" stroke="none" stroke-width="1px">0.25</text><text style="text-anchor: end; visibility: inherit; font-family: Roboto, sans-serif; font-size: 12px; font-weight: 200;" x="0" y="109.4541532076322" dx="0em" dy="0.3em" fill="rgb(50, 49, 63)" stroke="none" stroke-width="1px">0.3</text><text style="text-anchor: end; visibility: hidden; font-family: Roboto, sans-serif; font-size: 12px; font-weight: 200;" x="0" y="95.77238405667818" dx="0em" dy="0.3em" fill="rgb(50, 49, 63)" stroke="none" stroke-width="1px">0.35</text><text style="text-anchor: end; visibility: inherit; font-family: Roboto, sans-serif; font-size: 12px; font-weight: 200;" x="0" y="82.09061490572414" dx="0em" dy="0.3em" fill="rgb(50, 49, 63)" stroke="none" stroke-width="1px">0.4</text><text style="text-anchor: end; visibility: hidden; font-family: Roboto, sans-serif; font-size: 12px; font-weight: 200;" x="0" y="68.40884575477011" dx="0em" dy="0.3em" fill="rgb(50, 49, 63)" stroke="none" stroke-width="1px">0.45</text><text style="text-anchor: end; visibility: inherit; font-family: Roboto, sans-serif; font-size: 12px; font-weight: 200;" x="0" y="54.72707660381609" dx="0em" dy="0.3em" fill="rgb(50, 49, 63)" stroke="none" stroke-width="1px">0.5</text><text style="text-anchor: end; visibility: hidden; font-family: Roboto, sans-serif; font-size: 12px; font-weight: 200;" x="0" y="41.045307452862055" dx="0em" dy="0.3em" fill="rgb(50, 49, 63)" stroke="none" stroke-width="1px">0.55</text><text style="text-anchor: end; visibility: inherit; font-family: Roboto, sans-serif; font-size: 12px; font-weight: 200;" x="0" y="27.363538301908054" dx="0em" dy="0.3em" fill="rgb(50, 49, 63)" stroke="none" stroke-width="1px">0.6</text><text style="text-anchor: end; visibility: hidden; font-family: Roboto, sans-serif; font-size: 12px; font-weight: 200;" x="0" y="13.681769150954016" dx="0em" dy="0.3em" fill="rgb(50, 49, 63)" stroke="none" stroke-width="1px">0.65</text><text style="text-anchor: end; visibility: hidden; font-family: Roboto, sans-serif; font-size: 12px; font-weight: 200;" x="0" y="0" dx="0em" dy="0.3em" fill="rgb(50, 49, 63)" stroke="none" stroke-width="1px">0.7</text></g><line x1="51.53200149536133" y1="0" x2="51.53200149536133" y2="177.86299896240234" fill="rgb(0, 0, 0)" stroke="rgb(204, 204, 204)" stroke-width="1px"></line></g></g><g transform="translate(51, 0)" clip-path="url(#clip_0)"><clipPath id="clip_0"><rect width="278" height="177"></rect></clipPath><g><g><g><line x1="0" y1="0" x2="0" y2="177.86299896240234" fill="rgb(0, 0, 0)" stroke="rgb(60, 60, 60)" stroke-width="1px" opacity="0.25"></line><line x1="39.78114264351981" y1="0" x2="39.78114264351981" y2="177.86299896240234" fill="rgb(0, 0, 0)" stroke="rgb(60, 60, 60)" stroke-width="1px" opacity="0.25"></line><line x1="79.56228528703961" y1="0" x2="79.56228528703961" y2="177.86299896240234" fill="rgb(0, 0, 0)" stroke="rgb(60, 60, 60)" stroke-width="1px" opacity="0.25"></line><line x1="119.34342793055943" y1="0" x2="119.34342793055943" y2="177.86299896240234" fill="rgb(0, 0, 0)" stroke="rgb(60, 60, 60)" stroke-width="1px" opacity="0.25"></line><line x1="159.12457057407923" y1="0" x2="159.12457057407923" y2="177.86299896240234" fill="rgb(0, 0, 0)" stroke="rgb(60, 60, 60)" stroke-width="1px" opacity="0.25"></line><line x1="198.90571321759904" y1="0" x2="198.90571321759904" y2="177.86299896240234" fill="rgb(0, 0, 0)" stroke="rgb(60, 60, 60)" stroke-width="1px" opacity="0.25"></line><line x1="238.68685586111886" y1="0" x2="238.68685586111886" y2="177.86299896240234" fill="rgb(0, 0, 0)" stroke="rgb(60, 60, 60)" stroke-width="1px" opacity="0.25"></line><line x1="278.4679985046387" y1="0" x2="278.4679985046387" y2="177.86299896240234" fill="rgb(0, 0, 0)" stroke="rgb(60, 60, 60)" stroke-width="1px" opacity="0.25"></line></g><g><line x1="0" y1="177.86299896240234" x2="278.4679985046387" y2="177.86299896240234" fill="rgb(0, 0, 0)" stroke="rgb(60, 60, 60)" stroke-width="1px" opacity="0.25"></line><line x1="0" y1="164.1812298114483" x2="278.4679985046387" y2="164.1812298114483" fill="rgb(0, 0, 0)" stroke="rgb(60, 60, 60)" stroke-width="1px" opacity="0.25"></line><line x1="0" y1="150.4994606604943" x2="278.4679985046387" y2="150.4994606604943" fill="rgb(0, 0, 0)" stroke="rgb(60, 60, 60)" stroke-width="1px" opacity="0.25"></line><line x1="0" y1="136.81769150954025" x2="278.4679985046387" y2="136.81769150954025" fill="rgb(0, 0, 0)" stroke="rgb(60, 60, 60)" stroke-width="1px" opacity="0.25"></line><line x1="0" y1="123.13592235858623" x2="278.4679985046387" y2="123.13592235858623" fill="rgb(0, 0, 0)" stroke="rgb(60, 60, 60)" stroke-width="1px" opacity="0.25"></line><line x1="0" y1="109.4541532076322" x2="278.4679985046387" y2="109.4541532076322" fill="rgb(0, 0, 0)" stroke="rgb(60, 60, 60)" stroke-width="1px" opacity="0.25"></line><line x1="0" y1="95.77238405667818" x2="278.4679985046387" y2="95.77238405667818" fill="rgb(0, 0, 0)" stroke="rgb(60, 60, 60)" stroke-width="1px" opacity="0.25"></line><line x1="0" y1="82.09061490572414" x2="278.4679985046387" y2="82.09061490572414" fill="rgb(0, 0, 0)" stroke="rgb(60, 60, 60)" stroke-width="1px" opacity="0.25"></line><line x1="0" y1="68.40884575477011" x2="278.4679985046387" y2="68.40884575477011" fill="rgb(0, 0, 0)" stroke="rgb(60, 60, 60)" stroke-width="1px" opacity="0.25"></line><line x1="0" y1="54.72707660381609" x2="278.4679985046387" y2="54.72707660381609" fill="rgb(0, 0, 0)" stroke="rgb(60, 60, 60)" stroke-width="1px" opacity="0.25"></line><line x1="0" y1="41.045307452862055" x2="278.4679985046387" y2="41.045307452862055" fill="rgb(0, 0, 0)" stroke="rgb(60, 60, 60)" stroke-width="1px" opacity="0.25"></line><line x1="0" y1="27.363538301908054" x2="278.4679985046387" y2="27.363538301908054" fill="rgb(0, 0, 0)" stroke="rgb(60, 60, 60)" stroke-width="1px" opacity="0.25"></line><line x1="0" y1="13.681769150954016" x2="278.4679985046387" y2="13.681769150954016" fill="rgb(0, 0, 0)" stroke="rgb(60, 60, 60)" stroke-width="1px" opacity="0.25"></line><line x1="0" y1="0" x2="278.4679985046387" y2="0" fill="rgb(0, 0, 0)" stroke="rgb(60, 60, 60)" stroke-width="1px" opacity="0.25"></line></g></g></g><g><g><line x1="0" y1="191.54476811335635" x2="278.4679985046387" y2="191.54476811335635" fill="rgb(0, 0, 0)" stroke="rgb(153, 153, 153)" stroke-width="1.5px"></line></g></g><g><g><line x1="39.78114264351981" y1="0" x2="39.78114264351981" y2="177.86299896240234" fill="rgb(0, 0, 0)" stroke="rgb(153, 153, 153)" stroke-width="1.5px"></line></g></g><g><g><g><g><g><path style="fill: none;" stroke="rgb(255, 112, 67)" stroke-width="2px" d="M40.17895406995501,65.6365343788924L40.25851635524205,82.17165328812547L40.81545235225133,116.59190268643215L41.213263778686525,117.94334106477497L41.3723883492606,108.24006316508124L41.61107520512172,115.64425929785945L41.7701997756958,119.67514127728288L41.84976206098284,90.12147633957031L42.00888663155692,90.17519973922735L42.168011202131005,105.47627102470133L42.406698057992116,129.21350726179702L42.565822628566195,142.4436116342508L43.12275862557547,144.14197430979402L43.44100776672363,128.25346741959535L43.52057005201067,139.88342129971957L43.600132337297715,146.3475365661764L43.83881919315883,148.31687392289143L44.55487976074219,-11.821546402062326L44.63444204602923,36.802932168425585L44.71400433131626,84.27740855194173L44.952691187177386,69.98042173688015L45.191378043038505,93.70920108023478L45.50962718418666,105.88459131398257L45.82787632533482,119.7898716592738L45.90743861062187,129.10979624555728L45.9870008959089,121.50579265132913L46.14612546648298,96.79247690348721L46.30525003705706,125.3520356155971L46.3848123223441,109.45321127084262L46.54393689291818,82.15676310606783L46.623499178205215,107.20462568401054L46.7826237487793,130.32690798858818L46.94174831935337,10.764801518043205L47.498684316362656,63.47361532026762L47.737371172223774,109.70257548225884L47.81693345751081,125.7557216970453L47.97605802808489,131.01158883500037L48.29430716923305,125.43079868435458L48.69211859566825,132.70142470262448L48.771680880955294,99.2607114823551L49.72642830439976,123.46842295249432L49.8059905896868,121.57294452302142L50.12423973083496,133.7974843175853L50.36292658669608,127.17585794012416L50.52205115727016,72.2884235575587L50.681175727844234,95.11710603240388L51.3972362954276,101.37674484090972L51.87461000714983,66.59521968754497L52.27242143358503,105.18941911474542L52.35198371887207,81.61504827999778L52.59067057473319,-38.36432344746906L52.908919715881346,-20.788370453686806L53.38629342760359,55.58745181271771L53.46585571289063,101.127233355522L54.18191628047398,63.1942111090717L54.341040851048064,64.66154116301588L54.500165421622135,107.79218422603358L54.738852277483254,134.1903123915614L55.454912845066616,77.97960452244166L55.693599700927734,111.4766044519282L55.773161986214774,119.66019440238618L55.93228655678885,12.205697824170272L56.17097341264997,70.51407992349013L56.72790940965925,86.04161195734208L56.88703398023333,121.1872866122034L56.966596265520366,113.51444406872378L57.28484540666852,73.48938212674233L57.36440769195556,-84.13783664697009L57.44396997724261,17.136313402515494L57.52353226252965,65.22863260299985L57.76221911839077,-24.86266410103516L58.87609111240932,-12.86838845288712L58.95565339769636,1.308907689116613L59.27390253884452,-2.292020047708771L59.671713965279714,4.4460547028850534L59.751276250566754,30.38361391763362L59.91040082114083,77.28359153339856L60.06952539171491,82.46831642676213L60.14908767700195,44.24384991823588L60.22864996228899,67.71940708695398L60.46733681815011,109.0454120205762L60.626461388724195,131.68371799945996L60.86514824458531,143.6332529605669L61.024272815159385,102.90120346988925L61.26295967102051,117.6967882055617L61.34252195630754,131.92925008417558L61.6607710974557,123.88152984882339L61.74033338274275,114.07305555134909L61.81989566802979,79.32311249806978L61.899457953316826,-22.969539571014717L62.138144809177945,38.79928902475811L62.217707094464984,78.4937607236295L62.61551852090018,114.25050867323574L63.2520168031965,119.21594877360513L63.411141373770576,138.75677667945615L63.49070365905762,120.73564965642458L63.649828229631694,97.81829065889832L63.80895280020578,92.63237796428287L63.88851508549281,101.77413582668024L64.12720194135393,94.77506027288646L64.20676422664097,24.03508583820608L64.28632651192801,37.21725342688112L64.44545108250209,92.58981132840408L64.92282479422433,101.07013496923483L65.00238707951137,128.83946070109562L65.0819493647984,149.12732049004694L65.47976079123362,160.72844922229712L65.63888536180768,40.437721070097766L65.71844764709472,73.51904848293839L65.8775722176688,89.9169438303225L66.67319507053921,24.317740527157053L66.83231964111327,85.2678178646084L67.0710064969744,-3.343088456403308L67.70750477927072,-8.294718785893831L67.8666293498448,23.599600270592344L68.02575392041888,22.92763281045241L68.18487849099296,49.41436303235413L68.42356534685408,94.69481686293061L68.50312763214112,120.12625671962493L68.6622522027152,138.4708258718367L69.21918819972447,156.19294776735495L69.29875048501151,100.88415160795006L69.37831277029855,56.999057579480485L69.45787505558559,-18.16485891595212L70.25349790845598,-26.886569437102427L70.49218476431712,38.99847453369792L70.57174704960416,96.3460061685356L70.8899961907523,125.85872158900324L71.2878076171875,143.26034048871517L71.44693218776158,10.721878374926922L71.60605675833565,16.861012298233344L71.84474361419677,79.93739614127244L72.08343047005789,86.62003323305763L72.56080418178013,64.64164119925158L72.64036646706717,51.898562540400995L72.79949103764126,-26.653286577107536L72.8790533229283,36.01807386544279L73.35642703465052,34.561792468353744L73.43598931993758,46.569212861856464L73.6746761757987,76.86344137158339L73.99292531694685,42.89766198970047L74.07248760223389,72.85177766801147L74.15204988752093,5.3919668907830465L74.23161217280797,28.007911899397158L74.62942359924317,43.15404987771455L74.86811045510429,9.099534539104102L74.94767274039131,35.462697888457726L75.02723502567835,81.90527404367424L75.42504645211356,119.17574509634966L75.82285787854876,93.43688944944526L75.98198244912284,128.35828974309658L76.06154473440988,146.73913273883454L76.14110701969692,156.05837967885645L76.22066930498394,163.41494467599742L76.37979387555804,155.89783569421863L77.01629215785435,159.61811720562483L77.33454129900251,143.3985282767186L77.41410358428956,128.8998198833822L78.20972643715994,37.12646447564191L78.60753786359516,19.536371165234065L78.76666243416922,41.42534284537982L78.84622471945626,92.2365257437179L78.9257870047433,24.024085735729034L79.00534929003034,79.24156558756005L79.32359843117851,116.85739214354872L79.72140985761371,67.5903168310143L79.80097214290075,99.24952039808595L80.03965899876185,124.50313545178926L80.43747042519706,44.887775818585425L80.5170327104841,56.10982799808572L80.83528185163225,36.37183454850275L80.9148441369193,-6.4831116447592905L80.99440642220634,-10.139619323299542L81.15353099278042,56.64354218614326L81.39221784864152,72.31099808800238L81.7104669897897,60.322443686324355L81.79002927507673,90.66412250881376L82.10827841622489,113.5103580363359L82.18784070151193,122.01251784375111L82.58565212794713,122.39154140329147L82.7447766985212,137.12541233119012L83.1425881249564,104.42452534635616L83.22215041024344,127.52510941019713L83.30171269553048,137.3648476578866L83.5403995513916,153.91555753525407L83.61996183667864,151.9845332567378L83.69952412196568,81.67257311267808L83.9382109778268,112.11366008987216L84.01777326311384,137.1493014201376L84.09733554840088,148.49075849677422L84.17689783368792,113.73805128360897L84.57470926012311,117.89375958996588L84.7338338306972,114.80918189922411L84.81339611598423,123.7909052510041L84.89295840127129,138.99110689374754L84.97252068655833,150.07389671802204L85.21120754241943,60.93995634685729L85.37033211299351,71.77364808209022L85.60901896885464,109.23973134606071L85.68858125414167,128.55516980200096L86.08639268057688,118.11021225656627L86.16595496586392,139.074467353042L86.40464182172502,149.73425629925424L86.5637663922991,154.56740257073727L86.9615778187343,95.0729599583199L87.12070238930838,130.20406324031242L87.35938924516951,151.3311848949016L87.51851381574357,85.3858803275635L87.59807610103061,84.95453514754617L87.67763838631765,124.33559085415116L87.7572006716047,81.76096923638981L87.91632524217879,96.04946968600326L87.99588752746583,33.118968577209465L88.15501209803989,68.83953674212418L88.31413666861397,-78.10967706370188L88.39369895390102,22.02052980351487L88.47326123918806,79.81300260928899L88.71194809504918,88.15507400282827L88.9506349509103,111.52631538022453L89.3484463773455,115.01773696895675L89.66669551849365,136.30674522888523L89.7462578037807,135.95793755566189L89.90538237435477,148.48624621147198L90.14406923021589,138.2450472353475L90.46231837136405,151.21361031984964L90.54188065665109,130.4984029996373L90.70100522722517,43.97855217157963L90.7805675125122,-25.607644164519726L90.86012979779925,-25.941992166535115L90.93969208308629,49.840289699034685L91.25794122423446,-48.47860983046788L91.33750350952148,29.527730302065013L91.49662808009556,55.6532463165731L91.5761903653826,108.01437549075662L91.89443950653077,131.6862218106005L92.53093778882707,131.49950192787443L92.84918692997523,-30.956047131889513L92.92874921526229,5.6140953029577325L93.16743607112339,52.891948286925725L93.24699835641043,11.243335812771019L93.32656064169747,74.16950799894961L93.48568521227155,-20.168934067676087L93.5652474975586,26.668235464314545L93.72437206813268,87.69849279561413L93.88349663870675,106.53715164193997L93.96305892399378,47.91357750335939L94.12218349456788,73.0128710153656L94.28130806514196,-45.28205374700922L94.51999492100306,20.75763155082111L94.7586817768642,44.65225421523636L95.07693091801234,-22.147579568915592L95.15649320329938,53.73825373510741L95.71342920030865,102.59770967611077L95.87255377088275,126.28353779149964L95.95211605616979,104.79146654093391L96.34992748260497,120.5489878081932L96.66817662375314,119.7257398099879L96.82730119432722,101.01029364346319L97.14555033547538,126.31687235055198L97.54336176191059,74.34043854966752L97.94117318834577,106.44682302239724L98.02073547363281,130.966538331473L98.10029775891987,142.98766210934724L98.33898461478097,145.58209781769236L98.49810918535505,142.56971717124424L98.65723375592913,135.46301645607394L98.73679604121618,148.9129973851534L98.89592061179025,114.56453242528384L99.13460746765136,139.0465034480875L99.2141697529384,153.9353980126674L99.29373203822546,164.64537730963463L99.45285660879952,171.6083313274646L99.6119811793736,145.36382705252942L99.69154346466064,62.16034537288468L99.85066803523473,19.64341266594543L100.00979260580881,25.58506695057104L100.32804174695696,73.22889834596832L100.48716631753105,42.481834760395685L100.80541545867919,97.80997668218048L100.88497774396623,126.11237448695847L101.12366459982736,131.3741004192601L101.28278917040144,26.86123473164312L101.52147602626255,79.36637228632459L101.68060059683664,114.91630644090336L101.83972516741072,143.43392447874854L102.07841202327182,80.34644911308732L102.31709887913296,83.40609090209867L102.39666116442,95.34595544709397L102.7944725908552,-5.670929413254484L103.51053315843855,-9.266213446450278L103.59009544372559,6.852581057241479L103.66965772901263,57.99532926042073L103.82878229958669,94.71622186428665L103.90834458487375,58.80302837228017L103.98790687016078,68.38454391572267L104.38571829659598,112.36726020316281L104.6244051524571,132.16847878306424L104.70396743774414,143.82727160964112L104.78352972303118,155.75556280917934L104.86309200831822,160.2901030828547L105.02221657889231,158.41742709600624L105.26090343475342,163.0703667066669L105.49959029061453,137.12656415307356L106.2156508581979,129.2407604916008L106.45433771405901,133.96641421806248L107.01127371106828,71.05841261144688L107.09083599635532,102.64533414306908L107.17039828164236,70.56265952377294L107.48864742279054,103.21649096858013L107.6477719933646,117.58102028425861L107.80689656393868,129.88094837195382L107.88645884922573,127.56772206643514L108.20470799037388,96.03117570843644L108.68208170209613,129.3281795080831L108.84120627267019,107.34150606547665L109.07989312853132,129.08220609533768L109.15945541381836,146.56975218744367L109.39814226967948,144.07237507620133L109.6368291255406,138.25929123811153L109.79595369611468,146.89070072766376L109.95507826668876,154.40135975857493L110.35288969312396,158.12919123016664L110.432451978411,155.60242621974388L110.67113883427211,157.70522644290608L110.98938797542027,136.54706108057937L111.14851254599435,107.0483962269789L111.46676168714251,112.5997667609841L111.54632397242955,124.11698660580842L111.78501082829067,120.34988431026778L111.94413539886476,145.36463577458363L112.02369768415178,144.32870732768137L112.2623845400129,160.33976672692646L112.34194682529994,138.5937471832066L112.58063368116107,88.09949879004053L112.6601959664481,34.84821652009513L112.73975825173514,84.91144449063424L113.21713196345739,95.05591283231249L113.61494338989257,99.84716055853984L113.77406796046667,76.32596785713498L113.85363024575369,112.2057408796543L114.96750223977226,122.42956217543366L115.0470645250593,127.41534650484753L115.20618909563336,139.70566424455774L115.76312509264264,118.00735701645029L115.84268737792968,86.74193415203776L115.92224966321672,117.28729736556811L116.24049880436489,134.98363214316703L116.32006108965193,145.23947630164605L116.63831023080009,121.57951212710248L116.95655937194823,110.77188447255877L117.03612165723527,141.13917608820435L117.19524622780936,159.7053221891602L117.35437079838344,167.28385722608272L117.43393308367048,169.79493221368037L117.51349536895752,174.11576720679992L117.59305765424455,177.19305425191007L118.22955593654086,135.72383942207384L118.54780507768903,133.46923680209676L118.70692964826311,136.6739568162334L118.94561650412423,154.22989303712887L119.34342793055943,151.99863777390016L119.82080164228167,108.48512361771873L119.9003639275687,101.4217142973158L119.97992621285576,117.58507597000484L120.13905078342982,134.03069203289598L120.37773763929094,129.24891818558817L121.17336049216135,135.41892363755878L121.33248506273543,63.19451674800231L121.4916096333095,107.66123516360979L121.73029648917063,135.79630978590984L121.96898334503175,148.93743928692098L122.12810791560581,118.73630764316935L122.20767020089285,138.73714127500207L122.60548162732806,146.81034984605643L122.68504391261509,134.44171865226048L122.92373076847622,146.04154729073124L123.00329305376326,82.23949193995409L123.0828553390503,104.67203411043313L123.3215421949114,125.58004143766037L123.40110448019844,87.10832131017399L123.71935362134661,123.34853419308503L123.87847819192068,102.98792153490344L124.35585190364293,133.55876296379887L124.514976474217,109.03182734283386L124.75366333007813,135.17463888484554L125.07191247122628,136.9586856226045L125.39016161237444,153.7845171457879L125.54928618294852,163.4058331023253L125.86753532409668,168.7587049273416L125.94709760938372,168.2853435056116L126.34490903581893,173.85050205602784L126.504033606393,174.68625955166425L127.45878102983748,177.5342801345261L127.77703017098563,151.9445541854314L127.85659245627267,158.74092247889928L127.9361547415597,163.07490410753527L128.17484159742082,168.92517091497933L128.3339661679949,165.37332930807383L128.57265302385602,166.97230268385584L128.89090216500418,172.0824832084524L129.05002673557826,175.36269944247496L129.1295890208653,150.5660679149979L129.44783816201345,159.089381860383L129.5274004473005,167.47974070084675L129.76608730316164,154.05045786695646L130.08433644430977,135.40270724915027L130.1638987295968,147.80205614523686L130.32302330017092,155.296409795837L130.48214787074497,131.812062758083L130.72083472660609,110.92175255795568L131.11864615304128,121.29229339648965L131.27777072361536,122.37897667437444L131.43689529418944,145.38086086458122L131.6755821500506,161.0136971091959L132.07339357648578,162.85492347617486L132.15295586177282,136.128183928529L132.3120804323469,146.93121526205275L132.47120500292095,150.59714008064518L132.550767288208,165.54648093091856L132.63032957349506,169.6564795494233L132.86901642935618,168.3354163051692L133.26682785579138,165.69582364990742L133.42595242636546,120.29316155826311L133.5055147116525,113.74331296160742L133.82376385280065,139.68120696021316L134.22157527923582,156.76404850543116L134.539824420384,154.17794497731316L134.85807356153214,164.6879514399077L134.9376358468192,161.23245797646447L135.3354472732544,151.16124040734488L135.49457184382848,142.36353106302386L135.65369641440256,151.92739349187244L135.81282098497664,164.19478535749604L136.05150784083776,156.61812663560272L136.1310701261248,162.33458528252262L136.44931926727295,69.36505545722234L136.9266929789952,56.667889836403994L137.08581754956927,17.954044356200946L137.24494212014335,75.88424054506548L137.40406669071743,94.88579024815428L137.48362897600447,121.92742471436914L137.88144040243967,126.82920766756445L138.27925182887486,141.27031813481844L138.51793868473598,126.2275197323267L138.67706325531006,64.19475814681468L138.83618782588414,72.9610743292262L138.91575011117118,90.56065134265023L139.07487468174526,102.05288247706392L139.23399925231934,61.7300646917692L139.47268610818045,65.05618437972726L139.63181067875453,96.95806681084598L139.71137296404157,119.90695559073546L139.7909352493286,114.21550681105322L139.87049753461568,72.58271034700977L140.42743353162496,85.55751825513451L140.586558102199,53.150630578896944L140.82524495806013,91.07945456148465L140.90480724334716,103.46578993445509L140.98436952863423,93.9707898601363L141.46174324035644,130.51542890645376L141.85955466679164,149.73366303703168L142.09824152265276,160.91830516500582L142.1778038079398,168.36423732899016L142.81430209023614,171.8714102870008L142.89386437552315,172.26803808404418L142.97342666081022,156.23176926269844L143.05298894609723,134.32336660476136L143.2121135166713,139.29034679965613L143.6099249431065,118.9097755171196L143.76904951368059,116.34786434246887L143.84861179896762,78.55904175835045L144.48511008126397,109.81182735803871L144.56467236655098,134.99997262743858L144.88292150769914,125.85219538349901L145.04204607827324,143.75741147785726L145.20117064884732,158.40209891949652L145.28073293413433,137.35701782234477L145.4398575047084,138.0357909405646L145.7581066458566,116.28665398694366L145.8376689311436,123.36179777025389L145.9967935017177,122.94961334942144L146.1559180722918,147.08452263736103L146.2354803575788,158.5981445925035L146.3946049281529,163.72807683326906L146.47416721343996,163.83114067055368L146.55372949872697,152.90771096665063L146.63329178401403,163.0090929259583L146.95154092516216,135.21299553960898L147.03110321044923,146.49853154948025L147.26979006631032,159.10503666924888L147.3493523515974,157.29576983436067L147.42891463688443,161.50792935445995L147.7471637780326,119.92743936073553L147.8267260633196,110.68982535909554L147.9858506338937,125.70155359875407L148.38366206032887,117.60887615564044L149.02016034262522,136.41389222550265L149.25884719848634,125.78062413161435L149.41797176906041,72.6133664891098L149.5770963396345,116.43945160090233L149.65665862492153,137.97947733166924L149.9749077660697,144.6732996396958L150.13403233664377,135.29331469086043L150.3727191925049,138.86067858709316L150.45228147779193,125.8880685784092L150.61140604836598,138.5917996121253L151.16834204537525,138.42166112667243L151.32746661594936,94.67855344888208L151.4070289012364,127.14910414256414L151.72527804238456,148.7316916030875L151.8048403276716,156.64946047334544L152.04352718353272,157.32367741895206L152.12308946881976,164.73530553507817L152.2026517541068,166.85687683517403L152.36177632468087,172.61932137225628L152.4413386099679,172.97325038362706L152.600463180542,167.49937887933797L152.75958775111607,156.58992262481422L152.8391500364031,157.18578109193848L153.15739917755127,132.08090316950614L153.3960860334124,142.03976944293206L153.71433517456055,156.41822952144855L153.79389745984759,152.80224273158805L154.0325843157087,161.41707317223157L154.19170888628278,165.79479338221918L154.35083345685686,160.27590966340335L154.4303957421439,150.29096633726667L154.50995802743094,161.3216105042626L155.2260185950143,151.750738523716L155.3851431655884,157.45260162313565L155.6238300214495,159.6078773277921L155.78295459202357,124.4793520587533L155.94207916259768,133.29060281053563L156.49901515960696,151.438620717389L156.57857744489397,152.94643767662825L156.8172643007551,142.6065856258343L156.89682658604212,154.45695818261592L156.97638887132916,159.56632804699007L157.3742002977644,167.69424620705382L157.61288715362548,170.18005126366003L157.7720117241996,169.86486840221545L158.01069858006068,150.31171415269128L158.09026086534772,138.52447545324986L158.16982315063476,138.60366081552868L158.48807229178294,154.66004176392383L158.56763457706995,163.17679195440422L158.72675914764403,169.51864619481626L158.88588371821814,174.35939751069972L158.96544600350515,176.70636517955364L159.2836951446533,168.67420705677512L159.36325742994035,176.06136450595153L159.6815065710885,82.16571408016269L159.76106885637557,58.083917662865716L159.92019342694965,79.75122147916308L160.0793179975237,111.97789618101815L160.47712942395893,141.68032035084352L160.55669170924597,155.17281652230096L160.71581627982005,166.20337433537568L160.95450313568114,167.31268516157573L161.5114391326904,170.66130323818976L161.6705637032645,172.77786606729293L161.98881284441268,174.7101732540635L162.0683751296997,159.87898595656276L162.38662427084788,164.19945450784954L162.4661865561349,130.5488891452059L162.94356026785715,141.14353357856416L163.18224712371824,139.02994056628697L163.2618094090053,148.10631351805233L163.34137169429232,161.61286631960346L163.50049626486643,168.7918865947223L163.58005855015347,169.42701265281715L163.6596208354405,117.45704371433425L163.73918312072752,144.97890839649173L164.0574322618757,138.54151824614937L164.13699454716274,153.13265647249696L164.2961191177368,165.3727515257516L164.37568140302386,152.94579840708678L164.53480597359794,155.69846475082994L164.77349282945906,143.7230658149737L164.8530551147461,150.08680007453933L165.17130425589426,140.1394661156358L165.2508665411813,143.49242141478044L165.8873648234776,155.8766043799949L166.2851762499128,154.44882948002174L166.76254996163505,128.18830954227735L166.84211224692206,145.60073927953604L166.92167453220912,159.14197985777372L167.31948595864432,168.4184416334263L167.63773509979248,166.93720798248592L168.11510881151474,169.56949021643626L168.43335795266287,157.20734809051643L168.75160709381103,164.53716379846287L168.9107316643851,169.85758949405871L169.0698562349592,171.742512308305L169.3085430908203,167.42003538052293L169.7063545172555,152.70092610843352L170.1041659436907,138.3185959794619L170.66110194069998,152.80288046997018L171.13847565242222,93.77813096132202L171.2976002229963,120.4458503940972L171.4567247935704,144.81885692877324L171.61584936414448,154.33689943406208L171.6954116494315,161.38012387908108L171.9340985052926,166.8565159426203L172.65015907287597,160.62153350518685L173.5253442110334,166.92369732643328L173.60490649632047,157.542512525382L173.84359335218159,166.27231872019559L173.9231556374686,173.22147271783084L174.24140477861675,172.58624767679387L174.32096706390382,160.97250930176986L174.48009163447787,149.687216037242L174.8779030609131,160.0863447003976L175.11658991677422,156.8042772071673L175.5144013432094,160.6313234651362L175.59396362849645,151.0749940096583L175.6735259137835,150.96813861629983L175.83265048435757,161.78742068705313L175.91221276964458,168.66396811761712L176.31002419607978,172.48453332024854L176.38958648136685,176.12113808812515L176.62827333722794,178.6339851828646L176.707835622515,170.16536116387695L177.1056470489502,167.69737998663965L177.5830207606724,157.84907839834156L177.66258304595948,167.3040623706228L178.06039447239468,161.8143701155244L178.37864361354283,163.26328790685682L178.77645503997803,161.73382808925135L179.41295332227432,132.18250343053825L180.68594988686698,135.60917457675924L180.76551217215402,143.58639652629464L181.16332359858922,154.06490521117954L182.19763330732073,159.83133516583288L182.27719559260777,158.29765389491547L182.67500701904297,123.71632265975201L182.83413158961704,133.80690774281675L182.99325616019112,127.8758065618889L183.0728184454782,147.01579549928826L183.1523807307652,157.64506605861206L183.47062987191336,161.02571773028578L183.62975444248747,141.2651056127358L183.78887901306155,124.7926078435459L183.9480035836356,129.44891653911523L184.18669043949674,150.3153815248184L184.26625272478375,161.53924782684922L184.42537729535783,158.39967480215006L184.5845018659319,162.83255701275527L184.66406415121895,103.96457482927072L184.74362643650602,61.728801625190734L184.82318872179303,108.13628542827362L184.9823132923671,132.11303332329223L185.06187557765415,145.57347911304396L185.1414378629412,130.37033627417617L185.3801247188023,115.88385693464372L186.01662300109865,133.64482746499547L186.33487214224678,140.60877091009857L186.41443442753385,149.18993835618124L186.65312128339494,127.83937075605071L187.1304949951172,151.61351039697712L187.21005728040421,155.82075848805218L187.3691818509783,158.9537567832773L187.7669932774135,167.57467651160042L187.92611784798757,132.13421503470923L188.00568013327464,150.26599142029883L188.32392927442277,153.16198066005896L188.40349155970983,158.73048793117437L188.80130298614503,167.48499750240035L188.9604275567191,170.47342896093107L189.03998984200612,163.64966243751323L189.1991144125802,171.20860741699673L189.91517498016358,136.70562053900582L189.99473726545062,148.7744412195416L190.15386183602467,163.04128647738634L190.31298640659875,158.3333874703865L190.5516732624599,169.61666505755846L190.63123554774694,127.2337862108963L191.3472961153303,136.7015938751271L191.82466982705253,151.97016914566768L192.3816058240618,162.64805145147733L192.69985496520994,136.3642331143764L192.779417250497,143.99590205052513L193.09766639164516,157.20387359967637L193.8137269592285,158.00357369911674L194.13197610037668,163.90413925574595L194.21153838566372,166.18230372469282L194.29110067095075,164.08228657584823L194.68891209738595,170.93943118477526L195.1662858091082,162.11200701700042L195.4049726649693,168.67619252501257L195.48453495025635,169.16355522616306L195.5640972355434,159.63255971237393L195.8027840914045,163.95771956332814L195.96190866197858,170.91725791324774L196.12103323255266,168.45050472668143L196.20059551783973,164.8053678371962L196.28015780312674,159.78695273296586L196.5984069442749,162.63593293107218L196.75753151484898,142.85714498308104L196.9962183707101,138.6922608581007L197.07578065599714,151.61958949245553L197.15534294128418,142.79105965416846L197.47359208243236,153.2416542796102L197.95096579415457,163.35064672313425L198.50790179116385,167.60054609243107L198.5874640764509,167.21311366984187L198.66702636173792,172.82375131292653L199.06483778817312,172.37458984329118L199.1444000734602,150.82648983515756L199.30352464403427,139.6944371825719L199.94002292633056,147.80226837352672L200.09914749690464,146.22157082594356L200.25827206747874,154.396098369676L200.33783435276575,141.3304147600574L200.5765212086269,135.92953305209903L201.13345720563618,138.73945509715452L201.3721440614973,97.72042259991146L201.53126863207137,123.33938200291601L201.69039320264545,141.2772000674232L202.08820462908065,149.6640651963897L202.48601605551582,140.31969242141702L202.5655783408029,131.48718774060288L202.64514062608993,135.94963732043482L202.96338976723808,145.4722868664581L203.0429520525251,138.91812458572502L203.52032576424736,142.28931612063144L203.67945033482144,128.32628391220587L203.8385749053955,141.24863353140725L204.07726176125664,146.1439147322868L204.15682404654365,142.0205610729827L204.23638633183072,71.83245273542929L204.31594861711775,111.21948923884253L204.55463547297884,135.40230208875442L204.71376004355292,150.74291436090255L205.11157146998812,156.94802569092727L205.35025832584927,163.76362669893263L205.50938289642335,168.13138329722435L205.82763203757148,174.36572745794322L205.90719432285854,162.90984479174037L206.30500574929374,165.08477866220338L206.6232548904419,170.87246477701484L206.86194174630302,166.28613620805768L206.94150403159003,152.77347462917476L207.1006286021641,147.2525737877966L207.4188777433123,77.65101160729515L207.49844002859933,115.93622520248184L207.65756459917338,122.78143371457699L207.73712688446045,132.44590821961768L208.21450059618266,147.76689194848166L208.29406288146973,149.68542844307558L208.4531874520438,143.11214490827774L208.61231202261789,155.17596724690293L208.850998878479,153.82423207488932L208.93056116376604,152.47858376482398L209.08968573434012,165.49645123677695L209.32837259020124,164.97897333626503L209.6466217313494,172.78818462155536L209.80574630192348,139.30920414233168L209.88530858721052,137.69508323915943L210.04443315778462,154.69604283818686L210.12399544307164,166.25243942850284L210.6809314400809,156.8209000944724L210.840056010655,158.94704511571095L211.0787428665161,168.1818706213991L211.2378674370902,169.66422456143692L211.31742972237726,176.13110993472043L211.39699200766427,166.85356215766032L211.87436571938653,163.27348711526713L212.6699885722569,149.71067220627458L212.82911314283098,150.89918298748728L213.22692456926617,150.29346772375806L213.38604913984025,164.45108398722584L213.70429828098844,172.3149510234963L213.78386056627545,175.84756145550853L213.86342285156252,166.52872187414545L214.02254742213657,167.67504039442795L214.18167199271065,171.0366903773464L214.26123427799772,176.46258337242543L214.57948341914584,176.7013560468243L215.05685713086808,151.2122558730895L215.2159817014422,163.242894597571L215.37510627201627,164.64047601558366L215.69335541316443,169.42594222500122L216.40941598074775,136.98404447248836L216.48897826603482,151.94625295559078L216.56854055132183,164.20098460761093L216.88678969247,140.6876449900551L217.2846011189052,138.41062037942172L217.36416340419225,154.62441755375514L217.44372568947927,159.7950307854095L217.76197483062745,169.253488484048L217.84153711591446,111.84064580995836L218.0802239717756,130.6648529505791L218.2393485423497,109.56109507291316L218.4780353982108,134.61645198412597L218.875846824646,105.04507476569349L219.03497139522008,128.85236646532746L219.19409596579416,11.368370844396704L219.2736582510812,61.289023545457255L219.67146967751637,82.53258254289008L219.83059424809048,99.53407909554701L220.22840567452565,124.9035847554309L220.4670925303868,146.35914612526858L220.62621710096087,101.21296283219515L220.78534167153492,92.96007572427425L221.18315309797015,125.7378067150918L221.42183995383127,134.75448275425398L221.58096452440535,141.5802857502878L221.74008909497942,96.79753974100169L221.81965138026646,132.31491484220854L222.05833823612755,130.99937183397145L222.13790052141462,109.66715656028477L222.21746280670166,98.37054043781855L222.45614966256278,25.572054734656362L222.53571194784982,85.88607854038884L222.61527423313683,104.03537361085054L223.25177251543317,113.66622452486821L223.3313348007202,139.51872355865575L223.41089708600725,149.0096867851871L223.57002165658133,162.35650193102055L223.64958394186837,155.67702294629663L223.96783308301653,154.91609329424043L224.1269576535906,118.00515316783324L224.84301822117396,120.97584093455222L225.24082964760916,138.9579398353407L225.3203919328962,137.74522171403885L225.39995421818324,110.43449620686698L225.55907878875735,134.14612782652705L225.95689021519252,141.71579711930286L226.03645250047956,153.22665900987087L226.11601478576662,153.29897456656886L226.19557707105363,151.41412616038L226.3547016416277,144.4208653205942L226.5138262122018,138.65312644189993L226.83207535334998,152.8897105152748L227.1503244944981,76.12901870061353L227.22988677978515,106.2141157826512L227.38901135035925,71.01284870900555L227.62769820622034,107.54321433847365L227.78682277679442,133.70715977341322L228.3437587738037,127.86793429641043L228.7415702002389,116.89171629658952L228.98025705610002,126.28333953104382L229.37806848253524,133.08628783292485L229.61675533839636,122.98396435108798L229.69631762368337,124.53426911652056L229.77587990897044,78.63528757413467L230.0941290501186,93.19001351859825L230.41237819126673,123.23950411668582L230.5715027618408,147.13616720782048L231.20800104413715,111.83102024302136L231.28756332942416,115.76312885428997L231.36712561471123,139.44218626938164L231.68537475585936,120.33373726560609L232.00362389700754,145.85711326500473L232.3218730381557,143.29650926818832L232.4014353234427,130.9240658832011L232.7196844645909,124.84915460492623L232.7992467498779,142.8235671971413L232.87880903516498,151.71269638250118L232.958371320452,113.54369653734454L233.27662046160017,127.41460209802469L233.51530731746126,98.47030301990911L233.7539941733224,104.9129508632956L233.91311874389646,128.08827444893245L234.07224331447054,130.27353811205302L234.39049245561873,149.03989439755514L234.78830388205392,138.79924052361758L234.86786616734096,134.07299420312322L234.947428452628,140.62721147808793L235.10655302320208,134.67449609580083L235.1861153084891,141.40321362962837L235.3452398790632,154.0579541581844L235.50436444963728,147.43627981965037L235.58392673492432,138.05236298227211L235.66348902021136,148.47962078848883L236.29998730250767,148.97139279479748L236.45911187308172,158.08331587707627L236.69779872894287,139.7480387881035L236.7773610142299,116.53766260880415L236.85692329951695,138.3709375130864L236.936485584804,152.74241231473252L237.09561015537807,145.32575009891718L237.25473472595215,154.47056547632326L237.49342158181327,140.82030589767655L237.5729838671003,135.62323939551328L237.89123300824846,139.16533792905696L237.9707952935355,105.21002385534472L238.05035757882254,116.47873677532661L238.2890444346837,131.1644081085637L238.92554271697998,127.54385287271502L240.3576638521467,146.2415303231027L240.43722613743373,153.76520474269108L240.83503756386895,68.03977037585993L240.91459984915596,107.17168906295082L241.07372441973007,132.84899202470703L241.23284899030415,146.1684118048769L241.31241127559116,128.68988756699804L241.55109813145228,119.17528254290613L241.86934727260044,142.14020063609829L241.9489095578875,152.9982830681843L242.10803412846155,151.6735984928015L242.26715869903563,139.42427135621264L242.3467209843227,152.62234009337803L242.74453241075787,135.78866704593074L242.8240946960449,151.78271062760376L243.06278155190606,151.35673993004266L243.14234383719307,158.9468371314581L243.46059297834125,156.46471239564332L243.54015526362826,142.83489410580262L243.61971754891533,148.82055159468806L244.09709126063754,95.8157210249072L244.25621583121162,97.23170113789796L244.3357781164987,128.53374498843974L244.4153404017857,119.08616377891593L245.44965011051724,145.24133412172813L245.52921239580425,137.62864203670037L245.68833696637836,150.4929730153821L246.08614839281353,153.72116464390734L246.48395981924872,163.50347544802207L246.6430843898228,172.81894568621615L247.12045810154507,177.77642540963117L247.27958267211915,176.6524235369976L247.43870724269323,141.69880663733L247.5978318132673,117.64570844070256L247.67739409855434,111.43134847135735L247.83651866912842,133.90836129430215L248.23433009556362,147.24917892267862L248.31389238085066,156.5756977663266L248.3934546661377,141.58186114671747L248.4730169514247,155.23682844578084L248.71170380728586,166.96628797581033L248.7912660925729,148.55251445685462L249.029952948434,145.5587738516266L249.10951523372105,156.58146694200656L249.1890775190081,156.3906623531747L249.26863980429513,164.07836346461298L249.58688894544326,167.2379931644646L249.66645123073033,166.80602942366747L250.06426265716553,166.68650830073886L250.2233872277396,172.9434135356465L250.6211986541748,176.16407118584382L250.70076093946184,177.00268043793494L250.85988551003595,170.2567191352143L251.01901008061,158.8773693648892L251.09857236589704,166.37599798402326L251.25769693647112,167.8410566259109L251.4168215070452,174.0928746680303L251.8146329334804,167.5204259957025L252.05331978934151,159.7827787579614L252.2124443599156,167.1987935415961L252.29200664520263,169.5912892357262L252.6102557863508,173.3596307775797L253.008067212786,173.68799183224638L253.56500320979526,170.98375070508752L253.6445654950823,159.04649020862607L254.0423769215175,163.79137590267638L254.20150149209158,153.4612484398541L254.59931291852678,149.7100788360503L254.67887520381382,164.008397760192L254.75843748910086,148.36171523845354L254.8379997743879,156.5162145905413L255.55406034197125,163.0506931297716L255.95187176840645,169.83260159628614L256.19055862426757,168.56408034284905L256.27012090955463,169.45386540610824L256.98618147713796,164.1121230359376L257.14530604771204,171.43084894166358L257.3839929035732,145.30651535154232L257.54311747414727,156.9361163073809L258.0204911858695,136.46219150931162L258.57742718287875,119.36974792629469L258.73655175345283,136.29937955098578L258.8161140387399,147.6770767832929L258.975238609314,146.85309706171273L259.21392546517507,94.6348111987353L259.5321746063233,125.98683968082634L259.77086146218437,141.75372006320174L259.8504237474714,152.62537246093515L260.00954831804546,154.13270022252323L260.16867288861954,137.24925471532808L260.2482351739066,146.9802692041897L260.72560888562884,133.62233155364245L260.8051711709159,44.92694835354458L260.96429574148993,98.62750556290705L261.123420312064,103.15930727961431L261.36210716792516,76.85405124345188L261.91904316493446,119.76765495941486L262.23729230608257,145.58482128231046L262.31685459136963,157.32054969177207L262.5555414472307,166.97328557209622" fill="none"></path></g></g></g></g><g opacity="0.2"><g><g><g><path style="fill: none;" stroke="rgb(255, 112, 67)" stroke-width="2px" d="M40.17895406995501,65.6365343788924L40.25851635524205,92.09272463366533L40.81545235225133,149.63534210880655L41.213263778686525,119.53263259770614L41.3723883492606,95.5714635392411L41.61107520512172,125.8869280600995L41.7701997756958,125.43936700197003L41.84976206098284,47.03194914520195L42.00888663155692,90.25443131848833L42.168011202131005,128.1965786355783L42.406698057992116,164.60406663183068L42.565822628566195,162.21677054917805L43.12275862557547,146.68397287430045L43.44100776672363,104.45183432332689L43.52057005201067,157.31468154569157L43.600132337297715,156.03915047095634L43.83881919315883,151.27004660039475L44.55487976074219,-251.98851776192004L44.63444204602923,109.73224257425238L44.71400433131626,155.48478377202807L44.952691187177386,48.535725595022896L45.191378043038505,129.3015892896749L45.50962718418666,124.14743628276311L45.82787632533482,140.64762745590843L45.90743861062187,143.08961688294738L45.9870008959089,110.09981968758878L46.14612546648298,59.72256651632595L46.30525003705706,168.191329838112L46.3848123223441,85.6049893987751L46.54393689291818,41.21210594523765L46.623499178205215,144.77641124478083L46.7826237487793,165.01032684489442L46.94174831935337,-168.57834391445994L47.498684316362656,142.53683224817996L47.737371172223774,179.04601373847422L47.81693345751081,149.83544060527757L47.97605802808489,138.89538946061612L48.29430716923305,117.05961351019232L48.69211859566825,143.60736368953337L48.771680880955294,49.099641763705755L49.72642830439976,159.7799901091636L49.8059905896868,118.72972688109242L50.12423973083496,152.1342940006069L50.36292658669608,117.2434183768003L50.52205115727016,-10.042728002026152L50.681175727844234,129.3601297411122L51.3972362954276,110.7662030530829L51.87461000714983,14.422931959450144L52.27242143358503,163.0807182542463L52.35198371887207,46.25349202835267L52.59067057473319,-218.33338103721468L52.74979514530727,54.84233894840269L52.908919715881346,-50.34843840061318L53.38629342760359,170.15118521212443L53.46585571289063,169.4369056696568L54.18191628047398,6.294677739432068L54.341040851048064,66.86253624393133L54.500165421622135,172.48814882054555L54.738852277483254,173.7875046398477L55.454912845066616,-6.336457281231007L55.693599700927734,161.72210434615553L55.773161986214774,131.93557932807278L55.93228655678885,-148.97604704315077L56.17097341264997,157.97665307246902L56.72790940965925,109.3329100081199L56.88703398023333,173.90579859449517L56.966596265520366,102.00518025350432L57.28484540666852,13.451789213770237L57.36440769195556,-320.5786648075385L57.44396997724261,169.04753847674382L57.52353226252965,137.36711140372637L57.76221911839077,-159.99960915708766L58.160030544825965,-42.74092793861987L58.239592830113,16.744521410864603L58.319155115400044,-9.758902429577297L58.71696654183524,-27.833724508532015L58.87609111240932,6.016120277539516L58.95565339769636,22.574851902122152L59.27390253884452,-7.693411652946887L59.671713965279714,14.55316682877575L59.751276250566754,69.28995273975646L59.91040082114083,147.63355795704598L60.06952539171491,90.24540376680746L60.14908767700195,-13.092849844553434L60.22864996228899,102.9327428400311L60.46733681815011,171.03441942100957L60.626461388724195,165.6411769677856L60.86514824458531,161.55755540222722L61.024272815159385,41.8031292338728L61.26295967102051,139.89016530907034L61.34252195630754,153.2779429020964L61.6607710974557,111.80994949579514L61.74033338274275,99.36034410513757L61.81989566802979,27.19819791815082L61.899457953316826,-176.4085176746415L62.138144809177945,131.4525319184173L62.217707094464984,138.03546827193665L62.61551852090018,167.88563059764508L63.2520168031965,126.66410892415922L63.411141373770576,168.06801853823268L63.49070365905762,93.70395912187723L63.649828229631694,63.442252162608916L63.80895280020578,84.85350892235971L63.88851508549281,115.48677262027628L64.12720194135393,84.27644694219578L64.20676422664097,-82.07487581381444L64.28632651192801,56.99050480989366L64.44545108250209,175.6486481806885L64.92282479422433,113.79062043048094L65.00238707951137,170.49344929888684L65.0819493647984,179.55911017347393L65.63888536180768,-139.99837115820125L65.71844764709472,123.14103960219937L65.8775722176688,114.51378685139863L66.67319507053921,-74.08106442759107L66.83231964111327,176.69293387078542L67.0710064969744,-136.25944793792084L67.30969335283552,-278.77671315131937L67.4688179234096,113.3557811253977L67.70750477927072,13.414618860959585L67.8666293498448,71.44107885532165L68.02575392041888,21.91968162024246L68.18487849099296,89.14445836520672L68.42356534685408,162.61549760879535L68.50312763214112,158.27341650466647L68.6622522027152,165.98767960015425L69.21918819972447,182.77613061063235L69.29875048501151,17.920957368842764L69.37831277029855,-8.82858346322388L70.25349790845598,-39.969135218827866L70.49218476431712,137.8260404898984L70.57174704960416,182.36730362079214L70.8899961907523,170.1277947197047L71.2878076171875,169.36276883828305L71.44693218776158,-188.08581479575545L71.60605675833565,26.069713183193016L71.84474361419677,174.55197190583112L72.08343047005789,96.6439888707354L72.56080418178013,31.67405314854252L72.64036646706717,32.78394455212512L72.79949103764126,-144.48106025337034L72.8790533229283,130.02511452926825L73.35642703465052,32.37737037272018L73.43598931993758,64.58034345211061L73.6746761757987,122.30478413617381L73.99292531694685,-8.051007083123928L74.07248760223389,117.78295118547794L74.15204988752093,-95.79774927505957L74.23161217280797,61.93182941231832L74.62942359924317,65.87325684519067L74.86811045510429,-41.98223846881161L74.94767274039131,75.00744291248813L75.02723502567835,151.56913827649905L75.42504645211356,175.08145167536279L75.82285787854876,54.8286059790887L75.98198244912284,180.74039018357354L76.06154473440988,174.3103972324415L76.14110701969692,170.0372500888893L76.22066930498394,174.44979217170885L76.37979387555804,144.62217222155041L77.01629215785435,165.19853947273413L77.33454129900251,119.06914488335924L77.41410358428956,107.15175729337771L78.20972643715994,-100.53356863596859L78.60753786359516,-6.848768800377713L78.76666243416922,74.2588003655984L78.84622471945626,168.45330009122503L78.9257870047433,-78.29457427625427L79.00534929003034,162.0677853653066L79.32359843117851,173.28113197753171L79.72140985761371,-6.31029613778727L79.80097214290075,146.7383257486934L80.03965899876185,162.38355803234427L80.43747042519706,-74.53526363122032L80.5170327104841,72.94290626733617L80.83528185163225,6.764844374128248L80.9148441369193,-70.76553093465235L80.99440642220634,-15.624380841109957L81.15353099278042,156.81828445030746L81.39221784864152,95.81218194079105L81.7104669897897,42.3396120838073L81.79002927507673,136.17664074254787L82.10827841622489,147.77971132761914L82.18784070151193,134.76575755487394L82.58565212794713,122.96007674260201L82.7447766985212,159.2262187230381L83.1425881249564,55.37319486910521L83.22215041024344,162.17598550595858L83.30171269553048,152.12445502942083L83.5403995513916,178.7416223513052L83.61996183667864,149.08799683896336L83.69952412196568,-23.795367103411436L83.9382109778268,157.77529055566328L84.01777326311384,174.7027634155357L84.09733554840088,165.50294411172922L84.17689783368792,61.6089904638611L84.57470926012311,124.12732204950126L84.7338338306972,110.1823153631115L84.81339611598423,137.26349027867403L84.89295840127129,161.79140935786268L84.97252068655833,166.69808145443378L85.21120754241943,-72.76095420988982L85.37033211299351,88.02418568493961L85.60901896885464,165.43885624201644L85.68858125414167,157.52832748591132L86.08639268057688,102.44277593841426L86.16595496586392,170.52084999775556L86.40464182172502,165.7239397185726L86.5637663922991,161.81712197796188L86.9615778187343,5.831296039693845L87.12070238930838,182.9007181633012L87.51851381574357,-13.532076523443681L87.59807610103061,84.30751737752017L87.67763838631765,183.40717441405872L87.7572006716047,17.899036809747763L87.91632524217879,117.48222036042344L87.99588752746583,-61.276783085981194L88.15501209803989,122.42038898949625L88.31413666861397,-298.533497772441L88.39369895390102,172.21584010433995L88.47326123918806,166.50171181795017L88.71194809504918,100.6681810931372L88.9506349509103,146.58317744631896L89.3484463773455,120.25486935205508L89.66669551849365,168.240257618778L89.7462578037807,135.43472604582684L89.90538237435477,167.2787091951871L90.14406923021589,122.88324877116077L90.46231837136405,170.66645494660287L90.54188065665109,99.42559201931878L90.70100522722517,-85.80122407050689L90.86012979779925,-26.443514169558195L90.93969208308629,163.51371249738938L91.25794122423446,-195.95695912472175L91.33750350952148,146.5372405008643L91.49662808009556,94.84152033833531L91.5761903653826,186.5560692520319L91.89443950653077,167.19399129036626L92.53093778882707,131.21942210378535L92.84918692997523,-274.63937072153544L92.92874921526229,60.46930895522863L93.16743607112339,123.80872776287772L93.24699835641043,-51.22958289846108L93.32656064169747,168.55876627821758L93.48568521227155,-161.6765971676147L93.5652474975586,96.9239897623005L93.72437206813268,179.2438787925635L93.88349663870675,134.79513991142875L93.96305892399378,-40.02178370451143L94.12218349456788,110.6618112833749L94.28130806514196,-222.7244408905715L94.51999492100306,119.81715949756654L94.7586817768642,80.49418821185924L95.07693091801234,-122.3473302451435L95.15649320329938,167.56700369114193L95.71342920030865,175.88689358761584L95.87255377088275,161.81227996458287L95.95211605616979,72.55335966508537L96.34992748260497,144.18526970908212L96.66817662375314,118.49086781267998L96.82730119432722,72.93712439367607L97.14555033547538,164.27674041118522L97.54336176191059,-3.6242121516591435L97.94117318834577,154.6063997314918L98.02073547363281,167.7461112950867L98.10029775891987,161.01934777615858L98.33898461478097,149.47375138021002L98.49810918535505,138.0511462015721L98.65723375592913,124.80296538331847L98.73679604121618,169.0879687787726L98.89592061179025,63.04183498547953L99.13460746765136,175.769459982293L99.2141697529384,176.26873985953725L99.29373203822546,180.71034625508543L99.45285660879952,182.0527623542096L99.6119811793736,105.99707064012664L99.69154346466064,-62.644877146582395L99.85066803523473,-44.13198639446344L100.00979260580881,34.49754837750948L100.32804174695696,144.6946454390643L100.48716631753105,-3.638760617963271L100.80541545867919,180.80218956485768L100.88497774396623,168.5659711941255L101.12366459982736,139.2666893177125L101.28278917040144,-129.90806379978233L101.52147602626255,158.1240786183468L101.68060059683664,168.24120767277154L101.83972516741072,186.21035153551625L102.07841202327182,-14.284763935404479L102.31709887913296,87.99555358561575L102.39666116442,113.25575226458693L102.7944725908552,-157.1962567037772L103.19228401729038,-86.17406929439957L103.51053315843855,33.642744432443145L103.59009544372559,31.030772812779105L103.66965772901263,134.70945156518962L103.82878229958669,149.7975607700855L103.90834458487375,4.933238134270418L103.98790687016078,82.75681723088647L104.38571829659598,178.34133463432303L104.6244051524571,161.8703066529164L104.70396743774414,161.31546084950642L104.78352972303118,173.64799960848669L104.86309200831822,167.09191349336774L105.02221657889231,155.6084131157335L105.26090343475342,170.04977612265785L105.49959029061453,98.2108603226836L106.2156508581979,117.41205499939167L106.45433771405901,141.054894807755L107.01127371106828,-23.3035897984765L107.09083599635532,150.02571644050235L107.17039828164236,22.43864759482872L107.48864742279054,152.19723813579097L107.6477719933646,139.12781425777635L107.80689656393868,148.33084050349657L107.88645884922573,124.09788260815715L108.20470799037388,48.72635617143839L108.68208170209613,179.27368520755314L108.84120627267019,74.36149590156694L109.07989312853132,161.69325614012925L109.15945541381836,172.80107132560263L109.39814226967948,140.32630940933782L109.6368291255406,129.5396654809768L109.79595369611468,159.83781496199205L109.95507826668876,165.66734830494173L110.35288969312396,163.72093843755425L110.432451978411,151.81227870410973L110.67113883427211,160.85942677764936L110.98938797542027,104.80981303708931L111.14851254599435,62.80039894657824L111.46676168714251,120.92682256199188L111.54632397242955,141.3928163730449L111.78501082829067,114.69923086695681L111.94413539886476,182.8867629710574L112.02369768415178,142.774814657328L112.2623845400129,184.3563558257941L112.34194682529994,105.97471786762684L112.58063368116107,12.358126200291439L112.6601959664481,-45.02870688482305L112.73975825173514,160.00628644644294L113.21713196345739,110.27261534482987L113.61494338989257,107.03403214788088L113.77406796046667,41.04417880502771L113.85363024575369,166.02540041343326L114.96750223977226,137.76529411910275L115.0470645250593,134.89402299896835L115.20618909563336,158.14114085412302L115.76312509264264,85.45989617428914L115.84268737792968,39.843799855419014L115.92224966321672,163.10534218586363L116.24049880436489,161.5281343095654L116.32006108965193,160.62324253936458L116.63831023080009,86.0895658652871L116.95655937194823,94.56044299074323L117.03612165723527,186.69011351167268L117.35437079838344,178.65165978146652L117.43393308367048,173.56154469507683L117.51349536895752,180.5970196964792L117.59305765424455,181.80898481957533L118.22955593654086,73.52001717731952L118.54780507768903,130.0873328721311L118.70692964826311,141.48103683743838L118.94561650412423,180.56379736847208L119.34342793055943,148.65175487905708L119.82080164228167,43.21485238344657L119.9003639275687,90.8266003167114L119.97992621285576,141.83011847903836L120.13905078342982,158.6991161272327L120.37773763929094,122.07625741462644L121.17336049216135,144.6739318155147L121.33248506273543,-45.14209358633232L121.4916096333095,174.361312787021L121.73029648917063,177.9989217193599L121.96898334503175,168.64913353843764L122.12810791560581,73.434610177542L122.20767020089285,168.73839172275112L122.60548162732806,158.92016270263798L122.68504391261509,115.88877186156652L122.92373076847622,163.4412902484374L123.00329305376326,-13.463591086211597L123.0828553390503,138.3208473661517L123.3215421949114,156.94205242850123L123.40110448019844,29.400741118944435L123.71935362134661,177.70885351745153L123.87847819192068,72.44700254763112L124.35585190364293,179.415025107142L124.514976474217,72.24142391138633L124.75366333007813,174.38885619786302L125.07191247122628,139.63475572924295L125.39016161237444,179.023264430563L125.54928618294852,177.83780703713137L125.86753532409668,176.78801266486605L125.94709760938372,167.5753013730166L126.34490903581893,182.19823988165214L126.504033606393,175.93989579511887L127.45878102983748,181.8063110088189L127.77703017098563,113.55996526178933L127.85659245627267,168.93547491910107L127.9361547415597,169.57587655048928L128.17484159742082,177.7005711261454L128.3339661679949,160.04556689771556L128.57265302385602,169.37076274752891L128.89090216500418,179.74775399534715L129.05002673557826,180.28302379350882L129.1295890208653,113.37112062378225L129.44783816201345,171.87435277846066L129.5274004473005,180.06527896154236L129.76608730316164,133.90653361612104L130.08433644430977,107.43108132244097L130.1638987295968,166.4010794893667L130.32302330017092,166.5379402717372L130.48214787074497,96.58554220145197L130.72083472660609,79.58628725776478L131.11864615304128,136.8481046542906L131.27777072361536,124.00900159120165L131.43689529418944,179.8836871498914L131.6755821500506,184.46295147611798L132.07339357648578,165.61676302664327L132.15295586177282,96.03807460706024L132.3120804323469,163.1357622623384L132.47120500292095,156.09602730853376L132.550767288208,187.97049220632866L132.63032957349506,175.82147747718042L132.86901642935618,166.353821438788L133.26682785579138,161.73643466701478L133.42595242636546,52.18916842079668L133.5055147116525,103.91854006662385L133.82376385280065,178.5880479581218L134.22157527923582,182.38831082325814L134.539824420384,150.29878968513617L134.85807356153214,180.45296113379945L134.9376358468192,156.04921778129966L135.3354472732544,136.05441405366545L135.49457184382848,129.16696704654234L135.65369641440256,166.2731871351453L135.81282098497664,182.59587315593146L136.05150784083776,145.25313855276272L136.1310701261248,170.90927325290247L136.44931926727295,-70.08923928072798L136.9266929789952,37.62214140517649L137.08581754956927,-40.11672386410369L137.24494212014335,162.7795348283623L137.40406669071743,123.38811480278748L137.48362897600447,162.48987641369146L137.88144040243967,134.18188209735737L138.27925182887486,162.93198383569936L138.51793868473598,103.66332212858916L138.67706325531006,-28.854384231453324L138.83618782588414,86.11054860284345L138.91575011117118,116.96001686278633L139.07487468174526,119.29122917868446L139.23399925231934,1.2458380138271463L139.47268610818045,70.04536391166437L139.63181067875453,144.810890457524L139.71137296404157,154.3302887605697L139.7909352493286,105.67833364152982L139.87049753461568,10.133515650944604L140.42743353162496,105.01973011732163L140.586558102199,4.540299064540625L140.82524495806013,147.97269053536624L140.90480724334716,122.04529299391079L140.98436952863423,79.72828974865813L141.46174324035644,185.33238747592992L141.85955466679164,178.5610142328986L142.09824152265276,177.69526835696703L142.1778038079398,179.5331355749667L142.81430209023614,177.1321697240168L142.89386437552315,172.86297977960922L142.97342666081022,132.17736603067985L143.05298894609723,101.46076261785575L143.2121135166713,146.74081709199828L143.6099249431065,88.33891859331482L143.76904951368059,112.50499758049274L143.84861179896762,21.875807882172843L144.48511008126397,156.6910057575711L144.56467236655098,172.7821905315384L144.88292150769914,112.13052951758966L145.04204607827324,170.61523561939455L145.20117064884732,180.36913008195538L145.28073293413433,105.78939617661719L145.4398575047084,139.0539506178943L145.7581066458566,83.66294855651232L145.8376689311436,133.97451344521923L145.9967935017177,122.33133671817279L146.1559180722918,183.28688656927034L146.2354803575788,175.86857752521726L146.3946049281529,171.42297519441735L146.47416721343996,163.98573642648063L146.55372949872697,136.522566410796L146.63329178401403,178.1611658649198L146.95154092516216,93.51884946008498L147.03110321044923,163.42683556428713L147.26979006631032,178.01479434890183L147.3493523515974,154.58186958202833L147.42891463688443,167.8261686346089L147.7471637780326,57.55670437014891L147.8267260633196,96.83340435663558L147.9858506338937,148.21914595824185L148.38366206032887,105.46985999097005L149.02016034262522,164.62141633029592L149.25884719848634,109.83072199078188L149.41797176906041,-7.137519974647029L149.5770963396345,182.1785792685911L149.65665862492153,170.28951592781968L149.9749077660697,154.7140331017356L150.13403233664377,121.22333726760735L150.3727191925049,144.2117244314423L150.45228147779193,106.42915356538322L150.61140604836598,157.64739616269938L151.16834204537525,138.16645339849316L151.32746661594936,29.063891932196583L151.4070289012364,175.85493018308725L151.72527804238456,181.1055727938726L151.8048403276716,168.5261137787323L152.04352718353272,158.33500283736194L152.12308946881976,175.8527477092674L152.2026517541068,170.0392337853178L152.36177632468087,181.2629881778796L152.4413386099679,173.50414390068326L152.600463180542,159.28857162290433L152.75958775111607,140.22573824302862L152.8391500364031,158.07956879262488L153.15739917755127,94.42358628585771L153.3960860334124,156.97806885307082L153.71433517456055,177.98591963922337L153.79389745984759,147.37826254679723L154.0325843157087,174.33931883319687L154.19170888628278,172.36137369720063L154.35083345685686,151.99758408517957L154.4303957421439,135.3135513480617L154.50995802743094,177.8675767547565L155.2260185950143,137.3944305528961L155.3851431655884,166.00539627226507L155.6238300214495,162.8407908847768L155.78295459202357,71.78656415519511L155.94207916259768,146.5074789382091L156.49901515960696,178.66064757766912L156.57857744489397,155.2081631154871L156.8172643007551,127.09680754964336L156.89682658604212,172.23251701778835L156.97638887132916,167.2303828435513L157.3742002977644,179.88612344714943L157.61288715362548,173.90875884856936L157.7720117241996,169.39209411004853L158.01069858006068,120.98198277840504L158.09026086534772,120.84361740408777L158.16982315063476,138.72243885894687L158.48807229178294,178.74461318651657L158.56763457706995,175.9519172401248L158.72675914764403,179.0314275554343L158.96544600350515,180.22681668283457L159.2836951446533,156.62596987260733L159.36325742994035,187.14210067971615L159.6815065710885,-58.67776155852057L159.76106885637557,21.961223036920273L159.92019342694965,112.25217720360908L160.0793179975237,160.31790823380075L160.47712942395893,186.23395660558154L160.55669170924597,175.41156077948713L160.71581627982005,182.74921105498774L160.95450313568114,168.9766514008758L161.5114391326904,175.68423035311085L161.6705637032645,175.9527103109477L161.98881284441268,177.60863403421936L162.0683751296997,137.63220501031165L162.38662427084788,170.68015733477972L162.4661865561349,80.07304110124045L162.94356026785715,157.03550022860153L163.18224712371824,135.85955104787115L163.2618094090053,161.7208729457004L163.34137169429232,181.87269552193013L163.50049626486643,179.56041700740062L163.58005855015347,170.37970173995942L163.6596208354405,39.502090306609915L163.73918312072752,186.26170541972797L164.0574322618757,128.8854330206358L164.13699454716274,175.01936381201836L164.2961191177368,183.73289410563356L164.37568140302386,134.30536872908954L164.53480597359794,159.8274642664447L164.77349282945906,125.75996741118934L164.8530551147461,159.6324014638878L165.17130425589426,125.2184651772805L165.2508665411813,148.52185436349743L165.8873648234776,174.45287882781653L166.2851762499128,152.30716713006206L166.76254996163505,88.79752963566071L166.84211224692206,171.7193838854241L166.92167453220912,179.45384072513028L167.31948595864432,182.33313429690517L167.63773509979248,164.71535750607526L168.11510881151474,173.5179135673618L168.43335795266287,138.66413490163674L168.75160709381103,175.5318873603825L168.9107316643851,177.83822803745255L169.0698562349592,174.56989652967445L169.3085430908203,160.93631998884982L169.7063545172555,130.62226220029936L170.1041659436907,116.74510078600443L170.66110194069998,174.52930720573264L171.13847565242222,5.241006698349812L171.2976002229963,160.44742954325997L171.4567247935704,181.3783667307873L171.61584936414448,168.6139631919953L171.6954116494315,171.94496054660962L171.9340985052926,175.0711040379291L172.65015907287597,151.26905984903667L173.5253442110334,176.37694305830294L173.60490649632047,143.47073532380506L173.84359335218159,179.367028012416L173.9231556374686,183.6452037142837L174.24140477861675,171.63341011523843L174.32096706390382,143.55190173923384L174.48009163447787,132.75927614045014L174.8779030609131,175.6850376951311L175.11658991677422,151.8811759673218L175.5144013432094,166.37189285208956L175.59396362849645,136.74049982644144L175.6735259137835,150.80785552626213L175.83265048435757,178.01634379318307L176.62827333722794,182.40325582497377L176.707835622515,157.46242513539548L177.1056470489502,163.9954082207837L177.5830207606724,143.07662601589442L177.66258304595948,181.48653832904463L178.06039447239468,153.5798317328769L178.37864361354283,165.43666459385545L178.77645503997803,159.4396383628431L179.41295332227432,87.85551644246864L180.68594988686698,140.74918129609074L180.76551217215402,155.5522294505977L181.16332359858922,169.78266823850691L182.19763330732073,168.48098009781293L182.27719559260777,155.99713198853934L182.67500701904297,71.84432580700684L182.83413158961704,148.94278536741385L182.99325616019112,118.97915479049709L183.0728184454782,175.7257789053873L183.1523807307652,173.58897189759776L183.47062987191336,166.09669523779638L183.62975444248747,111.6241874364108L183.78887901306155,100.08386118976102L183.9480035836356,136.43337958246917L184.18669043949674,181.6150790033732L184.26625272478375,178.37504727989548L184.42537729535783,153.69031526510125L184.5845018659319,169.4818803286631L184.66406415121895,15.662601554043862L184.74362643650602,-1.6248581809291942L184.82318872179303,177.74751113289798L184.9823132923671,168.07815516582014L185.06187557765415,165.7641477976715L185.1414378629412,107.56562201587451L185.3801247188023,94.15413792534503L186.01662300109865,160.28628326052305L186.33487214224678,151.0546860777532L186.41443442753385,162.0616895253053L186.65312128339494,95.8135193558549L187.1304949951172,187.27471985836672L187.21005728040421,162.13163062466478L187.3691818509783,163.65325422611497L187.7669932774135,180.50605610408508L187.92611784798757,78.97352281937245L188.00568013327464,177.4636559986832L188.32392927442277,157.50596451969915L188.40349155970983,167.0832488378475L188.80130298614503,180.61676185923926L188.9604275567191,174.9560761487272L189.03998984200612,153.41401265238648L189.1991144125802,182.547024886222L189.91517498016358,84.95114022201945L189.99473726545062,166.8776722403452L190.15386183602467,184.44155436415352L190.31298640659875,151.27153895988667L190.5516732624599,186.54158143831643L190.63123554774694,63.65946794090302L191.3472961153303,150.90330537147324L191.82466982705253,174.87303205147862L192.3816058240618,178.66487491019177L192.69985496520994,96.938505608725L192.779417250497,155.44340545474827L193.09766639164516,177.0158309234032L193.8137269592285,159.2031238482773L194.13197610037668,172.75498759068975L194.21153838566372,169.5995504281131L194.29110067095075,160.93226085258138L194.68891209738595,181.22514809816582L195.1662858091082,148.8708707653382L195.4049726649693,178.52247078703078L195.48453495025635,169.8945992778888L195.5640972355434,145.3360664416902L195.8027840914045,170.44545933975948L195.96190866197858,181.3565654381271L196.12103323255266,164.75037494683195L196.20059551783973,159.33766250296836L196.28015780312674,152.25933007662033L196.5984069442749,166.9094032282316L196.75753151484898,113.18896306109434L196.9962183707101,132.4449346706302L197.07578065599714,171.01058244398774L197.15534294128418,129.54826489673786L197.47359208243236,168.9175462177728L197.95096579415457,178.5141353884203L198.50790179116385,173.97539514637631L198.5874640764509,166.63196503595805L198.66702636173792,181.23970777755355L199.06483778817312,171.70084763883816L199.1444000734602,118.5043398229571L199.30352464403427,122.9963582036934L199.94002292633056,159.96401515995893L200.09914749690464,143.85052450456882L200.25827206747874,166.65788968527463L200.33783435276575,121.7318893456295L200.5765212086269,127.82821049016148L201.13345720563618,142.95433816473775L201.3721440614973,36.1918738540469L201.53126863207137,161.76782110742283L201.69039320264545,168.18392716418398L202.08820462908065,162.24436288983946L202.48601605551582,126.30313325895804L202.5655783408029,118.23843071938165L202.64514062608993,142.64331169018274L202.96338976723808,159.75626118549295L203.0429520525251,129.08688116462548L203.52032576424736,147.346103422991L203.67945033482144,107.3817355995675L203.8385749053955,160.6321579602093L204.07726176125664,153.48683653360612L204.15682404654365,135.83553058402654L204.23638633183072,-33.44970977090076L204.31594861711775,170.3000439939624L204.55463547297884,171.67652136362224L204.71376004355292,173.75383276912476L205.11157146998812,166.25569268596428L205.35025832584927,173.9870282109407L205.50938289642335,174.6830181946619L205.82763203757148,183.7172436990215L205.90719432285854,145.72602079243606L206.30500574929374,168.34717946789792L206.6232548904419,179.55399394923205L206.86194174630302,159.40664335462196L206.94150403159003,132.50448226085035L207.1006286021641,138.97122252572936L207.4188777433123,-26.751331663457005L207.49844002859933,173.3640455952619L207.65756459917338,133.04924648271972L207.73712688446045,146.94261997717868L208.21450059618266,170.74836754177764L208.29406288146973,152.5632331849665L208.4531874520438,133.25221960608098L208.61231202261789,173.27170075484074L208.850998878479,151.7966293168689L208.93056116376604,150.46011129972598L209.08968573434012,185.02325244470637L209.32837259020124,164.20275648549708L209.6466217313494,184.5020015494909L209.80574630192348,89.09073342349619L209.88530858721052,135.27390188440103L210.04443315778462,180.19748223672795L210.12399544307164,183.5870343139769L210.6809314400809,142.6735910934267L210.840056010655,162.13626264756877L211.0787428665161,182.03410887993132L211.2378674370902,171.88775547149365L211.31742972237726,185.83143799464568L211.39699200766427,152.93724049207012L211.87436571938653,157.9033745516774L212.6699885722569,129.3664498427858L212.82911314283098,152.68194915930636L213.22692456926617,149.38489482816422L213.38604913984025,185.68750838242752L213.78386056627545,181.14647710352682L213.86342285156252,152.55046250210088L214.02254742213657,169.39451817485173L214.18167199271065,176.079165351724L214.26123427799772,184.601422865044L214.57948341914584,177.0595150584226L215.05685713086808,112.97860561248733L215.2159817014422,181.28885268429318L215.37510627201627,166.73684814260264L215.69335541316443,176.60414153912757L216.40941598074775,88.32119784371905L216.48897826603482,174.38956568024446L216.56854055132183,182.58308208564108L216.88678969247,105.41763556372138L217.2846011189052,134.99508346347164L217.36416340419225,178.94511331525524L217.44372568947927,167.550950632891L217.76197483062745,183.44117503200576L217.84153711591446,25.721381798823963L218.0802239717756,158.9011636615102L218.2393485423497,77.90545825641422L218.4780353982108,172.19948735094513L218.875846824646,60.68800893804479L219.03497139522008,164.56330401477845L219.19409596579416,-164.85762258699947L219.2736582510812,136.17000259704812L219.67146967751637,114.39792103903932L219.83059424809048,125.0363239245324L220.22840567452565,162.95784324525675L220.4670925303868,178.54248818002506L220.62621710096087,33.49368789258508L220.78534167153492,80.58074506239285L221.18315309797015,174.9044032013181L221.42183995383127,148.27949681299728L221.58096452440535,151.8189902443386L221.74008909497942,29.62342072707248L221.81965138026646,185.59097749401886L222.05833823612755,129.02605732161578L222.13790052141462,77.66883364975476L222.21746280670166,81.42561625411926L222.45614966256278,-83.62567382008697L222.53571194784982,176.3571142489876L222.61527423313683,131.25931621654308L223.25177251543317,128.1125008958947L223.3313348007202,178.297472109337L223.41089708600725,163.24613162498414L223.57002165658133,182.37672464977072L223.64958394186837,145.65780446921073L223.96783308301653,153.77469881615616L224.1269576535906,62.6387429782225L224.84301822117396,125.43187258463064L225.24082964760916,165.9310881865234L225.3203919328962,135.92614453208608L225.39995421818324,69.46840794610914L225.55907878875735,169.71357525601715L225.95689021519252,153.07030105846658L226.03645250047956,170.49295184572284L226.11601478576662,153.40744790161583L226.19557707105363,148.58685355109665L226.3547016416277,133.9309740609156L226.5138262122018,130.0015181238585L226.83207535334998,174.24458662533706L227.1503244944981,-39.012019021378364L227.22988677978515,151.34176140570776L227.38901135035925,18.210948098537084L227.62769820622034,162.33876278267576L227.78682277679442,172.95307792582253L228.3437587738037,119.10909608090626L228.7415702002389,100.42738929685812L228.98025705610002,140.37077438272527L229.37806848253524,143.29071028574637L229.61675533839636,107.83047912833268L229.69631762368337,126.8597262646694L229.77587990897044,9.786815260555851L230.0941290501186,115.02210243529363L230.41237819126673,168.31374001381718L230.5715027618408,182.98116184452246L231.20800104413715,58.873299795822675L231.28756332942416,121.66129177119294L231.36712561471123,174.96077239201918L231.68537475585936,91.67106375994274L232.00362389700754,184.14217726410266L232.3218730381557,139.4556032729637L232.4014353234427,112.36540080572033L232.7196844645909,115.73678768751388L232.7992467498779,169.78518608546398L232.87880903516498,165.04639016054094L232.958371320452,56.290196769609636L233.27662046160017,148.22096043904494L233.51530731746126,55.053854402735695L233.7539941733224,114.57692262837539L233.91311874389646,162.85125982738774L234.07224331447054,133.55143360673384L234.39049245561873,177.18942882580833L234.78830388205392,123.43825971271129L234.86786616734096,126.9836247223816L234.947428452628,150.458537390535L235.10655302320208,125.74542302237015L235.1861153084891,151.49628993036967L235.3452398790632,173.04006495101848L235.50436444963728,137.5037683118493L235.58392673492432,123.9764877262047L235.66348902021136,164.1205074978139L236.29998730250767,149.7090508042605L236.45911187308172,171.75120050049446L236.69779872894287,112.24512315464436L236.7773610142299,81.72209833985511L236.85692329951695,171.12084986950973L236.936485584804,174.29962451720175L237.09561015537807,134.20075677519418L237.25473472595215,168.1877885424323L237.49342158181327,120.3449165297065L237.5729838671003,127.82763964226837L237.89123300824846,144.47848572937247L237.9707952935355,54.277052744776384L238.05035757882254,133.38180615529944L238.2890444346837,153.1929151084193L238.92554271697998,122.11302001894202L240.3576638521467,174.2880464986842L240.43722613743373,165.05071637207365L240.83503756386895,-60.548381174386755L240.91459984915596,165.8695670935871L241.07372441973007,171.36494646734135L241.23284899030415,166.1475414751317L241.31241127559116,102.47210121017973L241.55109813145228,104.90337500676824L241.86934727260044,176.58757777588656L241.9489095578875,169.28540671631328L242.10803412846155,149.68657162972724L242.26715869903563,121.0502806513294L242.3467209843227,172.41944319912614L242.74453241075787,110.53815747475974L242.8240946960449,175.77377600011332L243.06278155190606,150.717783883701L243.14234383719307,170.3319829335813L243.46059297834125,152.7415252919211L243.54015526362826,122.39016667104161L243.61971754891533,157.7990378280162L244.09709126063754,16.30847517023595L244.25621583121162,99.35567130738406L244.3357781164987,175.48681076425243L244.4153404017857,104.91479196463024L245.44965011051724,184.47408963594646L245.52921239580425,126.2096039091587L245.68833696637836,169.78946948340467L246.08614839281353,158.56345208669526L246.48395981924872,178.17694165419408L247.12045810154507,185.21264499475373L247.27958267211915,174.96642072804713L247.43870724269323,89.26838128782862L247.5978318132673,81.56606114576144L247.67739409855434,102.10980851733949L247.83651866912842,167.62388052871935L248.23433009556362,167.26040536524337L248.31389238085066,170.5654760317986L248.3934546661377,119.09110621730372L248.4730169514247,175.7192793943759L248.71170380728586,184.5604772708546L248.7912660925729,120.93185417842106L249.029952948434,141.06816294378459L249.10951523372105,173.11550657757644L249.1890775190081,156.10445546992688L249.26863980429513,175.60991513177046L249.58688894544326,171.97743771424197L249.66645123073033,166.15808381247174L250.06426265716553,166.507226616346L250.2233872277396,182.32877138800794L250.70076093946184,178.26059431607158L250.85988551003595,160.13777718113334L251.01901008061,141.80834470940158L251.09857236589704,177.6239409127243L251.25769693647112,170.03864458874241L251.4168215070452,183.47060173120943L251.8146329334804,157.66175298721083L252.05331978934151,148.17630790134973L252.2124443599156,178.32281571704814L252.29200664520263,173.18003277692142L252.6102557863508,179.0121430903599L253.008067212786,174.1805334142464L253.56500320979526,166.9273890143492L253.6445654950823,141.1405994639339L254.0423769215175,170.90870444375182L254.20150149209158,137.96605724562073L254.59931291852678,144.0833244303445L254.67887520381382,185.45587614640456L254.75843748910086,124.89169145584584L254.8379997743879,168.74796361867288L255.55406034197125,172.852410938617L255.95187176840645,180.00546429605797L256.19055862426757,166.66129846269345L256.27012090955463,170.78854300099695L256.98618147713796,156.0995094806817L257.14530604771204,182.40893780025255L257.3839929035732,106.12001496636037L257.54311747414727,174.38051774113882L258.0204911858695,105.7513043122077L258.57742718287875,93.73108255176932L258.73655175345283,161.69382698802238L258.8161140387399,164.7436226317536L258.975238609314,145.61712747934249L259.21392546517507,16.307382404269152L259.5321746063233,173.0148824039629L259.77086146218437,165.40404063676485L259.8504237474714,168.9328510575353L260.00954831804546,156.39369186490532L260.16867288861954,111.92408645453534L260.2482351739066,161.5767909374822L260.72560888562884,113.58542507782153L260.8051711709159,-88.11612644660217L260.96429574148993,179.17834137695075L261.123420312064,109.9570098546752L261.36210716792516,37.39616718920829L261.91904316493446,184.13806053335932L262.23729230608257,184.31057076665385L262.31685459136963,174.92414230596447L262.5555414472307,181.45238939258243" fill="none"></path></g></g></g></g></g></g><g transform="translate(51, 177)" clip-path="url(#clip_1)"><clipPath id="clip_1"><rect width="278" height="22"></rect></clipPath><g><g><line x1="0" y1="0" x2="0" y2="5" style="visibility: inherit;" fill="rgb(0, 0, 0)" stroke="rgb(204, 204, 204)" stroke-width="1px"></line><line x1="39.78114264351981" y1="0" x2="39.78114264351981" y2="5" style="visibility: inherit;" fill="rgb(0, 0, 0)" stroke="rgb(204, 204, 204)" stroke-width="1px"></line><line x1="79.56228528703961" y1="0" x2="79.56228528703961" y2="5" style="visibility: inherit;" fill="rgb(0, 0, 0)" stroke="rgb(204, 204, 204)" stroke-width="1px"></line><line x1="119.34342793055943" y1="0" x2="119.34342793055943" y2="5" style="visibility: inherit;" fill="rgb(0, 0, 0)" stroke="rgb(204, 204, 204)" stroke-width="1px"></line><line x1="159.12457057407923" y1="0" x2="159.12457057407923" y2="5" style="visibility: inherit;" fill="rgb(0, 0, 0)" stroke="rgb(204, 204, 204)" stroke-width="1px"></line><line x1="198.90571321759904" y1="0" x2="198.90571321759904" y2="5" style="visibility: inherit;" fill="rgb(0, 0, 0)" stroke="rgb(204, 204, 204)" stroke-width="1px"></line><line x1="238.68685586111886" y1="0" x2="238.68685586111886" y2="5" style="visibility: inherit;" fill="rgb(0, 0, 0)" stroke="rgb(204, 204, 204)" stroke-width="1px"></line><line x1="278.4679985046387" y1="0" x2="278.4679985046387" y2="5" style="visibility: inherit;" fill="rgb(0, 0, 0)" stroke="rgb(204, 204, 204)" stroke-width="1px"></line></g><g transform="translate(0, 8)"><text style="text-anchor: middle; visibility: hidden; font-family: Roboto, sans-serif; font-size: 12px; font-weight: 200;" x="0" y="0" dx="0em" dy="0.95em" fill="rgb(50, 49, 63)" stroke="none" stroke-width="1px">-500</text><text style="text-anchor: middle; visibility: inherit; font-family: Roboto, sans-serif; font-size: 12px; font-weight: 200;" x="39.78114264351981" y="0" dx="0em" dy="0.95em" fill="rgb(50, 49, 63)" stroke="none" stroke-width="1px">0</text><text style="text-anchor: middle; visibility: inherit; font-family: Roboto, sans-serif; font-size: 12px; font-weight: 200;" x="79.56228528703961" y="0" dx="0em" dy="0.95em" fill="rgb(50, 49, 63)" stroke="none" stroke-width="1px">500</text><text style="text-anchor: middle; visibility: inherit; font-family: Roboto, sans-serif; font-size: 12px; font-weight: 200;" x="119.34342793055943" y="0" dx="0em" dy="0.95em" fill="rgb(50, 49, 63)" stroke="none" stroke-width="1px">1k</text><text style="text-anchor: middle; visibility: inherit; font-family: Roboto, sans-serif; font-size: 12px; font-weight: 200;" x="159.12457057407923" y="0" dx="0em" dy="0.95em" fill="rgb(50, 49, 63)" stroke="none" stroke-width="1px">1.5k</text><text style="text-anchor: middle; visibility: inherit; font-family: Roboto, sans-serif; font-size: 12px; font-weight: 200;" x="198.90571321759904" y="0" dx="0em" dy="0.95em" fill="rgb(50, 49, 63)" stroke="none" stroke-width="1px">2k</text><text style="text-anchor: middle; visibility: inherit; font-family: Roboto, sans-serif; font-size: 12px; font-weight: 200;" x="238.68685586111886" y="0" dx="0em" dy="0.95em" fill="rgb(50, 49, 63)" stroke="none" stroke-width="1px">2.5k</text><text style="text-anchor: middle; visibility: hidden; font-family: Roboto, sans-serif; font-size: 12px; font-weight: 200;" x="278.4679985046387" y="0" dx="0em" dy="0.95em" fill="rgb(50, 49, 63)" stroke="none" stroke-width="1px">3k</text></g><line x1="0" y1="0" x2="278.4679985046387" y2="0" fill="rgb(0, 0, 0)" stroke="rgb(204, 204, 204)" stroke-width="1px"></line></g></g></g></g></svg>