<svg viewBox="0 0 330 200" xmlns="http://www.w3.org/2000/svg"><g><g><g><g><g><line x1="51.53200149536133" y1="170.06434986598586" x2="46.53200149536133" y2="170.06434986598586" style="visibility: inherit;" fill="rgb(0, 0, 0)" stroke="rgb(204, 204, 204)" stroke-width="1px"></line><line x1="51.53200149536133" y1="160.50165549166687" x2="46.53200149536133" y2="160.50165549166687" style="visibility: inherit;" fill="rgb(0, 0, 0)" stroke="rgb(204, 204, 204)" stroke-width="1px"></line><line x1="51.53200149536133" y1="152.06676126699097" x2="46.53200149536133" y2="152.06676126699097" style="visibility: inherit;" fill="rgb(0, 0, 0)" stroke="rgb(204, 204, 204)" stroke-width="1px"></line><line x1="51.53200149536133" y1="144.5214912705226" x2="46.53200149536133" y2="144.5214912705226" style="visibility: inherit;" fill="rgb(0, 0, 0)" stroke="rgb(204, 204, 204)" stroke-width="1px"></line><line x1="51.53200149536133" y1="94.88256731535974" x2="46.53200149536133" y2="94.88256731535974" style="visibility: inherit;" fill="rgb(0, 0, 0)" stroke="rgb(204, 204, 204)" stroke-width="1px"></line><line x1="51.53200149536133" y1="65.84565822544035" x2="46.53200149536133" y2="65.84565822544035" style="visibility: inherit;" fill="rgb(0, 0, 0)" stroke="rgb(204, 204, 204)" stroke-width="1px"></line><line x1="51.53200149536133" y1="45.24364336019686" x2="46.53200149536133" y2="45.24364336019686" style="visibility: inherit;" fill="rgb(0, 0, 0)" stroke="rgb(204, 204, 204)" stroke-width="1px"></line><line x1="51.53200149536133" y1="29.263479139052627" x2="46.53200149536133" y2="29.263479139052627" style="visibility: inherit;" fill="rgb(0, 0, 0)" stroke="rgb(204, 204, 204)" stroke-width="1px"></line><line x1="51.53200149536133" y1="16.206734270277472" x2="46.53200149536133" y2="16.206734270277472" style="visibility: inherit;" fill="rgb(0, 0, 0)" stroke="rgb(204, 204, 204)" stroke-width="1px"></line><line x1="51.53200149536133" y1="5.167413779352991" x2="46.53200149536133" y2="5.167413779352991" style="visibility: inherit;" fill="rgb(0, 0, 0)" stroke="rgb(204, 204, 204)" stroke-width="1px"></line></g><g transform="translate(41.53200149536133, 0)"><text style="text-anchor: end; visibility: inherit; font-family: Roboto, sans-serif; font-size: 12px; font-weight: 200;" x="0" y="170.06434986598586" dx="0em" dy="0.3em" fill="rgb(50, 49, 63)" stroke="none" stroke-width="1px">0.07</text><text style="text-anchor: end; visibility: hidden; font-family: Roboto, sans-serif; font-size: 12px; font-weight: 200;" x="0" y="160.50165549166687" dx="0em" dy="0.3em" fill="rgb(50, 49, 63)" stroke="none" stroke-width="1px">0.08</text><text style="text-anchor: end; visibility: hidden; font-family: Roboto, sans-serif; font-size: 12px; font-weight: 200;" x="0" y="152.06676126699097" dx="0em" dy="0.3em" fill="rgb(50, 49, 63)" stroke="none" stroke-width="1px">0.09</text><text style="text-anchor: end; visibility: inherit; font-family: Roboto, sans-serif; font-size: 12px; font-weight: 200;" x="0" y="144.5214912705226" dx="0em" dy="0.3em" fill="rgb(50, 49, 63)" stroke="none" stroke-width="1px">0.1</text><text style="text-anchor: end; visibility: hidden; font-family: Roboto, sans-serif; font-size: 12px; font-weight: 200;" x="0" y="94.88256731535974" dx="0em" dy="0.3em" fill="rgb(50, 49, 63)" stroke="none" stroke-width="1px">0.2</text><text style="text-anchor: end; visibility: hidden; font-family: Roboto, sans-serif; font-size: 12px; font-weight: 200;" x="0" y="65.84565822544035" dx="0em" dy="0.3em" fill="rgb(50, 49, 63)" stroke="none" stroke-width="1px">0.3</text><text style="text-anchor: end; visibility: inherit; font-family: Roboto, sans-serif; font-size: 12px; font-weight: 200;" x="0" y="45.24364336019686" dx="0em" dy="0.3em" fill="rgb(50, 49, 63)" stroke="none" stroke-width="1px">0.4</text><text style="text-anchor: end; visibility: hidden; font-family: Roboto, sans-serif; font-size: 12px; font-weight: 200;" x="0" y="29.263479139052627" dx="0em" dy="0.3em" fill="rgb(50, 49, 63)" stroke="none" stroke-width="1px">0.5</text><text style="text-anchor: end; visibility: hidden; font-family: Roboto, sans-serif; font-size: 12px; font-weight: 200;" x="0" y="16.206734270277472" dx="0em" dy="0.3em" fill="rgb(50, 49, 63)" stroke="none" stroke-width="1px">0.6</text><text style="text-anchor: end; visibility: hidden; font-family: Roboto, sans-serif; font-size: 12px; font-weight: 200;" x="0" y="5.167413779352991" dx="0em" dy="0.3em" fill="rgb(50, 49, 63)" stroke="none" stroke-width="1px">0.7</text></g><line x1="51.53200149536133" y1="0" x2="51.53200149536133" y2="177.86299896240234" fill="rgb(0, 0, 0)" stroke="rgb(204, 204, 204)" stroke-width="1px"></line></g></g><g transform="translate(51, 0)" clip-path="url(#clip_0)"><clipPath id="clip_0"><rect width="278" height="177"></rect></clipPath><g><g><g><line x1="0" y1="0" x2="0" y2="177.86299896240234" fill="rgb(0, 0, 0)" stroke="rgb(60, 60, 60)" stroke-width="1px" opacity="0.25"></line><line x1="39.78114264351981" y1="0" x2="39.78114264351981" y2="177.86299896240234" fill="rgb(0, 0, 0)" stroke="rgb(60, 60, 60)" stroke-width="1px" opacity="0.25"></line><line x1="79.56228528703961" y1="0" x2="79.56228528703961" y2="177.86299896240234" fill="rgb(0, 0, 0)" stroke="rgb(60, 60, 60)" stroke-width="1px" opacity="0.25"></line><line x1="119.34342793055943" y1="0" x2="119.34342793055943" y2="177.86299896240234" fill="rgb(0, 0, 0)" stroke="rgb(60, 60, 60)" stroke-width="1px" opacity="0.25"></line><line x1="159.12457057407923" y1="0" x2="159.12457057407923" y2="177.86299896240234" fill="rgb(0, 0, 0)" stroke="rgb(60, 60, 60)" stroke-width="1px" opacity="0.25"></line><line x1="198.90571321759904" y1="0" x2="198.90571321759904" y2="177.86299896240234" fill="rgb(0, 0, 0)" stroke="rgb(60, 60, 60)" stroke-width="1px" opacity="0.25"></line><line x1="238.68685586111886" y1="0" x2="238.68685586111886" y2="177.86299896240234" fill="rgb(0, 0, 0)" stroke="rgb(60, 60, 60)" stroke-width="1px" opacity="0.25"></line><line x1="278.4679985046387" y1="0" x2="278.4679985046387" y2="177.86299896240234" fill="rgb(0, 0, 0)" stroke="rgb(60, 60, 60)" stroke-width="1px" opacity="0.25"></line></g><g><line x1="0" y1="170.06434986598586" x2="278.4679985046387" y2="170.06434986598586" fill="rgb(0, 0, 0)" stroke="rgb(60, 60, 60)" stroke-width="1px" opacity="0.25"></line><line x1="0" y1="160.50165549166687" x2="278.4679985046387" y2="160.50165549166687" fill="rgb(0, 0, 0)" stroke="rgb(60, 60, 60)" stroke-width="1px" opacity="0.25"></line><line x1="0" y1="152.06676126699097" x2="278.4679985046387" y2="152.06676126699097" fill="rgb(0, 0, 0)" stroke="rgb(60, 60, 60)" stroke-width="1px" opacity="0.25"></line><line x1="0" y1="144.5214912705226" x2="278.4679985046387" y2="144.5214912705226" fill="rgb(0, 0, 0)" stroke="rgb(60, 60, 60)" stroke-width="1px" opacity="0.25"></line><line x1="0" y1="94.88256731535974" x2="278.4679985046387" y2="94.88256731535974" fill="rgb(0, 0, 0)" stroke="rgb(60, 60, 60)" stroke-width="1px" opacity="0.25"></line><line x1="0" y1="65.84565822544035" x2="278.4679985046387" y2="65.84565822544035" fill="rgb(0, 0, 0)" stroke="rgb(60, 60, 60)" stroke-width="1px" opacity="0.25"></line><line x1="0" y1="45.24364336019686" x2="278.4679985046387" y2="45.24364336019686" fill="rgb(0, 0, 0)" stroke="rgb(60, 60, 60)" stroke-width="1px" opacity="0.25"></line><line x1="0" y1="29.263479139052627" x2="278.4679985046387" y2="29.263479139052627" fill="rgb(0, 0, 0)" stroke="rgb(60, 60, 60)" stroke-width="1px" opacity="0.25"></line><line x1="0" y1="16.206734270277472" x2="278.4679985046387" y2="16.206734270277472" fill="rgb(0, 0, 0)" stroke="rgb(60, 60, 60)" stroke-width="1px" opacity="0.25"></line><line x1="0" y1="5.167413779352991" x2="278.4679985046387" y2="5.167413779352991" fill="rgb(0, 0, 0)" stroke="rgb(60, 60, 60)" stroke-width="1px" opacity="0.25"></line></g></g></g><g><g><line x1="39.78114264351981" y1="0" x2="39.78114264351981" y2="177.86299896240234" fill="rgb(0, 0, 0)" stroke="rgb(153, 153, 153)" stroke-width="1.5px"></line></g></g><g><g><g><g><g><path style="fill: none;" stroke="rgb(255, 112, 67)" stroke-width="2px" d="M40.17895406995501,21.218752459728844L40.25851635524205,36.25343187720614L40.81545235225133,72.8385124589951L41.213263778686525,33.24206827551248L41.3723883492606,40.21985592062739L41.61107520512172,68.97438403887159L41.7701997756958,35.43037716268012L41.84976206098284,64.84442284717863L42.00888663155692,77.83076096751502L42.168011202131005,76.57306810285175L42.406698057992116,93.3700959819988L42.565822628566195,52.787559726364584L43.12275862557547,60.68854799921954L43.44100776672363,72.76043382530764L43.52057005201067,27.17714797719919L43.600132337297715,39.04424234526913L43.83881919315883,48.83886499813308L44.55487976074219,66.16477492468994L44.63444204602923,55.41192779769261L44.71400433131626,65.45186719715232L44.952691187177386,77.75500498172518L45.191378043038505,60.41875447640712L45.50962718418666,65.91433323637288L45.82787632533482,83.29856254038901L45.90743861062187,44.2959371547418L45.9870008959089,48.64477758940866L46.14612546648298,67.86011252182682L46.30525003705706,69.8573239306569L46.3848123223441,90.58190802117329L46.54393689291818,74.7747362429814L46.623499178205215,79.55264927303685L46.7826237487793,75.68984774438734L46.94174831935337,57.07625801025056L47.498684316362656,-9.88478738945103L47.737371172223774,21.508035133636135L47.81693345751081,42.51466005598707L47.97605802808489,44.84502056670267L48.29430716923305,65.2583555203619L48.69211859566825,73.66405988234582L48.771680880955294,85.37295260078145L49.72642830439976,91.8687334786004L49.8059905896868,92.38305185570785L50.12423973083496,100.93695980065033L50.36292658669608,72.23078880884238L50.52205115727016,66.79453745559884L50.681175727844234,59.01890983058473L51.3972362954276,64.23685416875821L51.87461000714983,37.14314209696997L52.27242143358503,32.19286120448292L52.35198371887207,33.794299415970066L52.59067057473319,55.07863182791097L52.74979514530727,50.265808972794716L52.908919715881346,62.913332802879864L53.38629342760359,60.64496380309988L53.46585571289063,78.48449301712348L54.18191628047398,43.22396243162958L54.341040851048064,18.468768435597635L54.500165421622135,9.284899943591117L54.738852277483254,26.511906355581523L55.454912845066616,43.051355632154525L55.693599700927734,47.31647299266394L55.773161986214774,34.26438068218514L55.93228655678885,40.73224850316745L56.17097341264997,52.36537534460215L56.72790940965925,63.38556233206187L56.88703398023333,70.49662074522182L56.966596265520366,73.06497757615217L57.28484540666852,88.72321343021926L57.36440769195556,94.68543626912525L57.44396997724261,53.850197796677115L57.52353226252965,63.211798695308744L57.76221911839077,64.80766956328745L57.84178140367781,61.992593773659955L58.160030544825965,42.33847605909649L58.239592830113,22.92679942919899L58.319155115400044,16.887548221957154L58.71696654183524,17.539117840321712L58.87609111240932,14.368218183894765L58.95565339769636,7.590575929922311L59.27390253884452,12.84614666446417L59.671713965279714,17.897579420527823L59.751276250566754,26.542604739454422L59.91040082114083,32.920974639941214L60.06952539171491,26.334064225568934L60.14908767700195,34.738071295450844L60.22864996228899,32.14623379776781L60.46733681815011,52.28292702023588L60.626461388724195,26.299024570913517L60.86514824458531,49.57117508466492L61.024272815159385,39.767560388408086L61.26295967102051,39.586392175125084L61.34252195630754,17.406200585368545L61.6607710974557,21.851171367350844L61.74033338274275,15.362990915277635L61.81989566802979,13.84129311220055L61.899457953316826,39.14918828235503L62.138144809177945,45.04215676387064L62.217707094464984,57.95941003083887L62.61551852090018,10.856795651593341L63.2520168031965,29.435223355705684L63.411141373770576,44.76389823007808L63.49070365905762,39.006721030559405L63.649828229631694,62.514525635945425L63.80895280020578,20.71362081407614L63.88851508549281,40.55190880276198L64.12720194135393,56.81325608627222L64.20676422664097,63.9861901913815L64.28632651192801,58.81671685818568L64.44545108250209,57.73922958352605L64.92282479422433,17.95935834436305L65.00238707951137,35.071734256896725L65.0819493647984,29.298734788734563L65.47976079123362,41.545235239019725L65.63888536180768,42.328124585261435L65.71844764709472,38.59244838533614L65.8775722176688,48.3173355899763L66.67319507053921,51.26304522613249L66.83231964111327,52.84991092165668L67.0710064969744,56.95779531475983L67.30969335283552,71.68252471400463L67.4688179234096,64.2375559044859L67.70750477927072,61.31554242270921L67.8666293498448,63.83552807495367L68.02575392041888,62.4042870343104L68.18487849099296,34.4604899710575L68.42356534685408,37.57264645472305L68.50312763214112,35.64694626557508L68.6622522027152,22.0873612086046L69.21918819972447,43.30613873638467L69.29875048501151,57.46116084584923L69.37831277029855,56.316502941511246L69.45787505558559,77.57948149295551L70.25349790845598,91.72334856365411L70.49218476431712,79.40081516958793L70.57174704960416,73.333017070122L70.8899961907523,76.6500759352958L71.2878076171875,61.241751671275544L71.44693218776158,69.05745578779036L71.60605675833565,70.86543886434069L71.84474361419677,65.74737329467135L72.08343047005789,21.083921830275933L72.56080418178013,15.875097191138586L72.64036646706717,33.58744836870157L72.79949103764126,44.55882929345543L72.8790533229283,24.805380156254444L73.35642703465052,46.51135987443884L73.43598931993758,-7.367096473394579L73.6746761757987,4.426324141918111L73.99292531694685,20.78760434561439L74.07248760223389,34.134092506267564L74.15204988752093,47.54257201554803L74.23161217280797,52.553762074275184L74.62942359924317,61.446456792785035L74.86811045510429,63.03520318216978L74.94767274039131,72.36774362645728L75.02723502567835,31.729724327365492L75.42504645211356,56.90884259585266L75.82285787854876,39.22158614910841L75.98198244912284,50.507681517742974L76.06154473440988,33.09860455599149L76.14110701969692,55.07773353207954L76.22066930498394,70.09826090525127L76.37979387555804,62.63112143982886L77.01629215785435,36.10104927074515L77.33454129900251,25.408999851771753L77.41410358428956,37.22365781806798L78.20972643715994,54.26230705761108L78.60753786359516,44.101172185136654L78.76666243416922,68.98542356232419L78.84622471945626,64.40968234474144L78.9257870047433,83.37546179673177L79.00534929003034,81.40635610363057L79.32359843117851,96.3516050496885L79.72140985761371,75.59362211195227L79.80097214290075,90.97231421847663L80.03965899876185,81.69119907250959L80.43747042519706,70.51628985292191L80.5170327104841,88.83655733589394L80.83528185163225,103.86230450538106L80.9148441369193,116.05665403334649L80.99440642220634,98.3938128665958L81.15353099278042,101.1696099822553L81.39221784864152,80.30499524047029L81.7104669897897,87.83261601414173L81.79002927507673,49.95516944321113L82.10827841622489,47.625754973005236L82.18784070151193,43.4320613344377L82.58565212794713,53.78320270453598L82.7447766985212,44.210780713944786L83.1425881249564,65.20659033494637L83.22215041024344,-1.567098000521533L83.30171269553048,6.86903292383957L83.5403995513916,14.207431731628358L83.61996183667864,29.640083699938444L83.69952412196568,51.977653564455245L83.9382109778268,79.57525735445722L84.01777326311384,-7.372044484975166L84.09733554840088,1.3507062520973205L84.17689783368792,25.53075459198981L84.57470926012311,39.4994451972289L84.7338338306972,19.345135175610004L84.81339611598423,18.03851368198512L84.89295840127129,37.50704159075834L84.97252068655833,47.855964751960265L85.21120754241943,78.23904481059482L85.37033211299351,90.32553473854885L85.60901896885464,38.92913652654628L85.68858125414167,52.15033537686532L86.08639268057688,42.68794729427834L86.16595496586392,14.277985259949297L86.40464182172502,45.35553864592131L86.5637663922991,60.1868684304252L86.9615778187343,16.42664106368698L87.12070238930838,19.65470249930189L87.35938924516951,39.720053089387115L87.51851381574357,50.405304832929964L87.59807610103061,74.17393667923064L87.67763838631765,83.32519850953406L87.7572006716047,65.67481222293296L87.91632524217879,36.4982169836144L87.99588752746583,51.41625624661166L88.15501209803989,64.63940595462586L88.31413666861397,89.12135094350681L88.39369895390102,63.895744738670956L88.47326123918806,34.52950699091403L88.71194809504918,64.50755195318631L88.9506349509103,62.91003349658171L89.3484463773455,63.52330574082003L89.66669551849365,43.74843607170456L89.7462578037807,26.754383749395487L89.90538237435477,25.644046212027483L90.14406923021589,53.558371209884065L90.46231837136405,30.913292394151817L90.54188065665109,1.8597462770381312L90.70100522722517,31.945683274455266L90.7805675125122,44.23623607324677L90.86012979779925,55.94700152632012L90.93969208308629,49.08358559358142L91.25794122423446,67.53801699652224L91.33750350952148,39.02662349546806L91.49662808009556,69.8985814147023L91.5761903653826,74.8991428548041L91.89443950653077,97.84019503025412L92.53093778882707,42.02819791228816L92.84918692997523,69.15904452576548L92.92874921526229,74.28391482652603L93.16743607112339,72.09094455406358L93.24699835641043,81.31731778307584L93.32656064169747,35.90690470014792L93.48568521227155,61.27362371924451L93.5652474975586,62.64377844296144L93.72437206813268,32.48520298913624L93.88349663870675,25.251451122825863L93.96305892399378,49.50237376521387L94.12218349456788,69.81778911409626L94.28130806514196,82.17485425096915L94.51999492100306,98.55575087927744L94.7586817768642,105.39292991870639L95.07693091801234,120.80829112037597L95.15649320329938,28.72075638251869L95.71342920030865,45.84967420445888L95.87255377088275,59.66141310541951L95.95211605616979,52.79115422679766L96.34992748260497,33.64511113348522L96.66817662375314,62.887323572883844L96.82730119432722,60.63936914369562L97.14555033547538,89.89847396258216L97.54336176191059,108.82108247632402L97.94117318834577,127.06701056953307L98.02073547363281,155.09958133411044L98.10029775891987,164.36126175429266L98.33898461478097,162.32283018278835L98.49810918535505,140.8715917297537L98.65723375592913,69.40745636373353L98.73679604121618,61.5678385233701L98.89592061179025,75.0339522983777L99.13460746765136,33.79057959976028L99.2141697529384,17.526559148510877L99.29373203822546,33.61635794691203L99.45285660879952,43.877889522056385L99.6119811793736,59.15334318557195L99.69154346466064,78.5771948240819L99.85066803523473,83.29698536346281L100.00979260580881,77.91846093510985L100.32804174695696,49.82718380023727L100.48716631753105,61.052716414737986L100.80541545867919,73.99153776833207L100.88497774396623,101.676573140782L101.12366459982736,64.7897171536786L101.28278917040144,79.28993171987258L101.52147602626255,50.8297546230669L101.68060059683664,42.59968830649552L101.83972516741072,-27.08766610906471L102.07841202327182,5.401176115807593L102.31709887913296,34.547383062929185L102.39666116442,41.213527121383024L102.7944725908552,32.30530220575014L103.19228401729038,53.46142318490872L103.51053315843855,84.76133784357339L103.59009544372559,65.78808157016383L103.66965772901263,46.63643031907006L103.82878229958669,67.43739619614824L103.90834458487375,70.62757680064317L103.98790687016078,1.5377469040694967L104.38571829659598,29.132955252184217L104.6244051524571,39.51828241519236L104.70396743774414,49.243238059285346L104.78352972303118,50.80687187893399L104.86309200831822,59.30198846674401L105.02221657889231,48.379894633318415L105.26090343475342,81.05355707113084L105.49959029061453,24.20833907303252L106.2156508581979,40.351562069924434L106.45433771405901,57.237514828230864L107.01127371106828,76.5703159475304L107.09083599635532,83.63653196746789L107.17039828164236,89.95096671440152L107.48864742279054,47.09208749575044L107.6477719933646,76.96588638259043L107.80689656393868,72.50629178168437L107.88645884922573,89.97509130224637L108.20470799037388,56.89522424857436L108.68208170209613,38.87295535494531L108.84120627267019,52.18890377930297L109.07989312853132,56.29193848860715L109.15945541381836,60.87724631684947L109.39814226967948,72.7927906579403L109.6368291255406,65.62255850071881L109.79595369611468,62.883638807118004L109.95507826668876,59.962345091230034L110.35288969312396,69.67182944188049L110.432451978411,74.61855043872991L110.67113883427211,77.62688781221189L110.98938797542027,24.109774440613123L111.14851254599435,45.57595734306293L111.46676168714251,72.15545737565886L111.54632397242955,95.21721882543001L111.78501082829067,84.55149022661848L111.94413539886476,100.52895372598675L112.02369768415178,74.74101977517896L112.2623845400129,40.24436238767346L112.34194682529994,63.97196274347586L112.58063368116107,84.74078981193253L112.6601959664481,97.22699688095494L112.73975825173514,119.0112349891105L113.21713196345739,114.97859227455636L113.61494338989257,42.677551371472L113.77406796046667,40.68030973684881L113.85363024575369,16.448917588912874L114.96750223977226,39.55171637053046L115.0470645250593,55.93624758765701L115.20618909563336,48.882798325617664L115.76312509264264,64.5941498342006L115.84268737792968,36.815083453922554L115.92224966321672,65.39595540415485L116.24049880436489,80.55493196447303L116.32006108965193,48.855435139508394L116.63831023080009,72.44854528269018L116.95655937194823,20.650963823686187L117.03612165723527,50.166244097114465L117.19524622780936,53.61868194167479L117.35437079838344,73.00031430982023L117.43393308367048,62.321697105275234L117.51349536895752,65.32764974037043L117.59305765424455,77.55669171364366L118.22955593654086,91.43593316531663L118.54780507768903,84.37351668422619L118.70692964826311,90.59584008957971L118.94561650412423,118.48585086013152L119.34342793055943,135.0303200077295L119.82080164228167,141.2278480326185L119.9003639275687,111.639449253038L119.97992621285576,131.6206980173303L120.13905078342982,71.95274244715698L120.37773763929094,34.96448768673404L121.17336049216135,31.50440665493653L121.33248506273543,34.82318962226522L121.4916096333095,63.988252568358014L121.73029648917063,86.89700000553998L121.96898334503175,89.68048086423245L122.12810791560581,102.1547898358525L122.20767020089285,111.43371294955973L122.60548162732806,136.71523487561035L122.68504391261509,113.45189886252373L122.92373076847622,109.01550132778922L123.00329305376326,91.05098505711992L123.0828553390503,110.24554109369737L123.3215421949114,136.42834279486814L123.40110448019844,100.96263818928183L123.71935362134661,104.77705274195539L123.87847819192068,93.67841828236686L124.35585190364293,91.4157108958905L124.514976474217,91.72079411306092L124.75366333007813,86.9860942853448L125.07191247122628,113.60604973507513L125.39016161237444,137.37929315583824L125.54928618294852,114.83564393655506L125.86753532409668,105.45250529323155L125.94709760938372,95.71847045689341L126.34490903581893,76.86673964468505L126.504033606393,70.33414442185229L127.45878102983748,98.31231056293416L127.77703017098563,88.60014974058404L127.85659245627267,89.49164670109188L127.9361547415597,79.8235328389292L128.17484159742082,76.33114913304703L128.3339661679949,49.04204763919225L128.57265302385602,47.217115864390614L128.89090216500418,66.75977316456563L129.05002673557826,67.60508240591038L129.1295890208653,69.42049133588962L129.44783816201345,98.79323027321777L129.5274004473005,119.32749105454126L129.76608730316164,128.24723868863566L130.08433644430977,122.64335533727652L130.1638987295968,121.510035473318L130.32302330017092,87.36073639072023L130.48214787074497,101.89210743182556L130.72083472660609,72.15196160193479L131.11864615304128,76.90242611092249L131.27777072361536,68.89312925579529L131.43689529418944,90.079820960092L131.6755821500506,106.45437262048672L132.07339357648578,45.39690438078895L132.15295586177282,63.22914617412706L132.3120804323469,92.25633936254867L132.47120500292095,108.82768181771546L132.550767288208,131.84593109438458L132.63032957349506,140.66276021936878L132.86901642935618,142.69372823710063L133.26682785579138,147.50001049542269L133.42595242636546,133.07663391791036L133.5055147116525,143.31169586193678L133.82376385280065,103.97192194473729L134.22157527923582,99.07636235492747L134.539824420384,109.3749863316791L134.85807356153214,65.88829250034422L134.9376358468192,95.44435621371893L135.3354472732544,103.90968889412437L135.49457184382848,60.60551195429092L135.65369641440256,50.65900649211269L135.81282098497664,84.27058884932207L136.05150784083776,111.69680373590354L136.1310701261248,101.14922513587284L136.44931926727295,96.96050366962749L136.9266929789952,116.3227606989002L137.08581754956927,107.97000782261938L137.24494212014335,64.49023593376572L137.40406669071743,89.1339593932118L137.48362897600447,102.0977360699619L137.88144040243967,32.54336058873116L138.27925182887486,60.1870941346245L138.51793868473598,66.50207168871258L138.67706325531006,93.69827526891554L138.83618782588414,112.91579464918054L138.91575011117118,135.09012560912043L139.07487468174526,143.41440804188645L139.23399925231934,104.16088342214829L139.47268610818045,125.16400131217709L139.63181067875453,133.75665483859657L139.71137296404157,117.46806453095864L139.7909352493286,115.10568714396506L139.87049753461568,105.86179293222929L140.42743353162496,94.87427837001366L140.586558102199,120.80756983699122L140.82524495806013,101.56133919358132L140.90480724334716,73.82435805821822L140.98436952863423,97.77661233237039L141.46174324035644,93.62069485370085L141.85955466679164,89.95670139020102L142.09824152265276,114.60386649652379L142.1778038079398,115.13148198104972L142.81430209023614,102.68308836941907L142.89386437552315,84.06188471540709L142.97342666081022,64.23051317549877L143.05298894609723,89.25821137079815L143.2121135166713,108.90791784904584L143.6099249431065,90.070153725117L143.76904951368059,116.54000555670713L143.84861179896762,105.17695119298287L144.48511008126397,95.08378593464118L144.56467236655098,102.04156851697523L144.88292150769914,121.31812365118101L145.04204607827324,82.70403345006939L145.20117064884732,71.69212688234563L145.28073293413433,82.78900637274036L145.4398575047084,71.13865933618148L145.7581066458566,78.8139556036263L145.8376689311436,81.96746706769032L145.9967935017177,80.52644094282411L146.1559180722918,101.91518551187029L146.2354803575788,105.54345397060521L146.3946049281529,100.14453265735011L146.47416721343996,109.1565708340821L146.55372949872697,97.61820074855966L146.63329178401403,118.7674575085364L146.95154092516216,137.0957390219279L147.03110321044923,102.0398224595812L147.26979006631032,128.01747770334887L147.3493523515974,107.98658595514722L147.42891463688443,113.86254446283121L147.7471637780326,137.11281089683382L147.8267260633196,166.2222396834259L147.9858506338937,184.39083581819958L148.38366206032887,175.46867393262295L149.02016034262522,112.90164294645932L149.25884719848634,132.72147241670277L149.41797176906041,159.90828476931625L149.5770963396345,-2.3403255934659186L149.65665862492153,24.25300734333485L149.9749077660697,19.38298250174178L150.13403233664377,53.388779937851844L150.3727191925049,71.65346328718661L150.45228147779193,40.617001150866756L150.61140604836598,74.9902956746775L151.16834204537525,103.9714176341082L151.32746661594936,114.62431876196793L151.4070289012364,134.08752990888874L151.72527804238456,154.51185605138474L151.8048403276716,79.4989621015881L152.04352718353272,76.04287327909289L152.12308946881976,97.65085238533771L152.2026517541068,115.8366288727671L152.36177632468087,107.97803069948147L152.4413386099679,123.46180408706296L152.600463180542,106.60936022406284L152.75958775111607,128.76860422147976L152.8391500364031,109.52853120679413L153.15739917755127,82.87625449998396L153.3960860334124,79.63714087320554L153.71433517456055,89.46011642024888L153.79389745984759,83.82015284057336L154.0325843157087,71.09702393799742L154.19170888628278,72.43731117972055L154.35083345685686,92.89434002839269L154.4303957421439,69.29116742242584L154.50995802743094,82.07933201318667L155.2260185950143,97.12757007571147L155.3851431655884,69.5232775867136L155.6238300214495,76.178189425712L155.78295459202357,40.88800469882952L155.94207916259768,56.91365060857685L156.49901515960696,69.46079004635526L156.57857744489397,55.57324622741384L156.8172643007551,66.42954996372443L156.89682658604212,81.2441497273891L156.97638887132916,101.93698918228795L157.3742002977644,99.53700737378328L157.61288715362548,111.25398036443228L157.7720117241996,120.63218139095423L158.01069858006068,83.06715666760931L158.09026086534772,63.754234577091225L158.16982315063476,80.61089333973806L158.48807229178294,87.88412972812426L158.56763457706995,85.20639331422811L158.72675914764403,71.49157261374229L158.88588371821814,52.56207450445877L158.96544600350515,45.394895729093854L159.2836951446533,65.06728313157667L159.36325742994035,77.39474863994168L159.6815065710885,70.93513883176499L159.76106885637557,90.66124373409461L159.92019342694965,104.74990841340137L160.0793179975237,109.77182976432718L160.47712942395893,127.06722179239125L160.55669170924597,128.4809552012764L160.71581627982005,145.05130769477424L160.95450313568114,142.52439937982663L161.5114391326904,107.73474376574795L161.6705637032645,115.32400017436076L161.98881284441268,129.49696242484399L162.0683751296997,134.9919345544834L162.38662427084788,147.74477762021593L162.4661865561349,117.9751346354444L162.94356026785715,116.88205476339176L163.18224712371824,63.43958816039168L163.2618094090053,84.10925726137901L163.34137169429232,88.85829032678012L163.50049626486643,98.52047808999582L163.58005855015347,102.40742318603796L163.6596208354405,53.82680691282886L163.73918312072752,69.12907554754045L164.0574322618757,66.95890883531938L164.13699454716274,78.48288355042689L164.2961191177368,85.43449922012891L164.37568140302386,44.11979873035063L164.53480597359794,68.90569793298407L164.77349282945906,70.51414656180661L164.8530551147461,90.7936382097841L165.17130425589426,59.98291126554952L165.2508665411813,64.86764311003296L165.8873648234776,92.07861928552518L166.2851762499128,117.13293256119721L166.76254996163505,61.36748545000215L166.84211224692206,83.54474830019846L166.92167453220912,97.80412727596455L167.31948595864432,101.58130118316951L167.63773509979248,92.96329263309583L168.11510881151474,120.07009029153718L168.43335795266287,141.99976355977572L168.75160709381103,154.31476561016345L168.9107316643851,173.78465374363745L169.0698562349592,182.33184529688273L169.3085430908203,170.97736131966468L169.7063545172555,142.74426848969537L170.1041659436907,120.06579499984416L170.66110194069998,135.17251218557314L171.13847565242222,89.98907152081364L171.2976002229963,102.37659884397681L171.4567247935704,124.7057044270538L171.61584936414448,142.30517248421535L171.6954116494315,152.45399911063055L171.9340985052926,159.41988800380642L172.65015907287597,127.79892819051085L173.5253442110334,142.37347026581472L173.60490649632047,143.19922656429168L173.84359335218159,150.8830191904105L173.9231556374686,159.8073204923611L174.24140477861675,152.93921600639203L174.32096706390382,158.95253189237928L174.48009163447787,96.08531070128537L174.8779030609131,121.02535756320061L175.11658991677422,133.35414357727765L175.5144013432094,137.60745220980925L175.59396362849645,143.51108623142045L175.6735259137835,160.45559656897433L175.83265048435757,176.31265632989835L175.91221276964458,177.5488314507872L176.31002419607978,186.05484416769212L176.62827333722794,203.68627522678747L176.707835622515,166.9002147014243L177.1056470489502,189.9647932503239L177.5830207606724,92.13433425220371L177.66258304595948,56.35383675139256L178.06039447239468,85.34536737730335L178.37864361354283,105.8925395194307L178.77645503997803,131.65348728840024L179.41295332227432,143.315497170167L180.68594988686698,162.706070406847L180.76551217215402,172.659225674648L181.16332359858922,160.76391314323337L182.19763330732073,103.82765986117933L182.27719559260777,111.68049463872956L182.67500701904297,114.94415909071259L182.83413158961704,100.80337445876675L182.99325616019112,126.21089564931182L183.0728184454782,125.29731645364154L183.1523807307652,116.90987467139709L183.47062987191336,116.8619039067791L183.62975444248747,114.18344333790441L183.78887901306155,82.79520426953626L183.9480035836356,103.5004525209688L184.18669043949674,115.96257869438935L184.26625272478375,105.14053953939772L184.42537729535783,106.57630353308669L184.5845018659319,82.60786409569315L184.66406415121895,77.41038380108367L184.74362643650602,67.47939267318687L184.82318872179303,56.30379380216371L184.9823132923671,60.479707021102L185.06187557765415,78.82127943000712L185.1414378629412,80.9146077862102L185.3801247188023,97.59979212019971L186.01662300109865,59.14001309605841L186.33487214224678,73.0644089884113L186.41443442753385,90.10235865597959L186.65312128339494,108.98655548281954L187.1304949951172,134.69011324699676L187.21005728040421,105.0358667949062L187.3691818509783,118.75959310858946L187.7669932774135,141.87954046973286L187.92611784798757,126.45575404924357L188.00568013327464,106.31492999233295L188.32392927442277,107.65681208369618L188.40349155970983,114.16972769969813L188.80130298614503,138.5607072484315L188.9604275567191,129.5067545349931L189.03998984200612,159.9224362146705L189.1991144125802,154.74120410727284L189.91517498016358,89.35140785545426L189.99473726545062,112.94396337262869L190.15386183602467,132.53084752689873L190.31298640659875,136.512157753263L190.5516732624599,159.1633245887812L190.63123554774694,132.54165933431645L191.3472961153303,158.34942735014099L191.82466982705253,103.78338784764891L192.3816058240618,120.43402896878357L192.69985496520994,71.55012037233216L192.779417250497,77.79614541008559L193.09766639164516,82.8735918023465L193.8137269592285,89.7495048063094L194.13197610037668,92.79338074997634L194.21153838566372,77.26697638705056L194.29110067095075,76.81760970525464L194.68891209738595,90.73506626910915L195.1662858091082,103.4623101162029L195.4049726649693,102.79469062942361L195.48453495025635,104.53208685904197L195.5640972355434,64.80087137804904L195.8027840914045,79.58090926150079L195.96190866197858,95.03864477795139L196.12103323255266,94.25197176022164L196.20059551783973,108.23267667259108L196.28015780312674,125.41073316483862L196.5984069442749,116.50628808892783L196.75753151484898,77.61119981581933L196.9962183707101,100.44748607874855L197.07578065599714,111.98888269310203L197.15534294128418,128.29814233414078L197.47359208243236,145.83692065176612L197.95096579415457,163.09831028221987L198.50790179116385,117.33527298719143L198.5874640764509,90.27128948943746L198.66702636173792,65.92274608376341L199.06483778817312,83.4547182938966L199.1444000734602,89.24786051226819L199.30352464403427,50.75095715747629L199.94002292633056,82.55573024049102L200.09914749690464,110.74855722160865L200.25827206747874,138.4818971875268L200.33783435276575,130.43978457076125L200.5765212086269,137.48521830624426L201.13345720563618,160.6615917547132L201.3721440614973,152.3617756792339L201.53126863207137,149.84518192913808L201.69039320264545,154.60546603595265L202.08820462908065,128.34170215389491L202.48601605551582,133.91944657266345L202.5655783408029,139.27821151812822L202.64514062608993,123.66232203695779L202.96338976723808,94.23308080464102L203.0429520525251,121.98894324274806L203.52032576424736,139.19077662049506L203.67945033482144,96.31823680730339L203.8385749053955,124.20285790173423L204.07726176125664,89.06215754358774L204.15682404654365,84.87047429998603L204.23638633183072,67.67546363543326L204.31594861711775,77.31032075101359L204.55463547297884,86.17690684805692L204.71376004355292,112.18741405277335L205.11157146998812,126.76514081524643L205.35025832584927,99.2493824048616L205.50938289642335,52.689167398539354L205.82763203757148,13.406561658863476L205.90719432285854,43.71549014570332L206.30500574929374,46.847500523503435L206.6232548904419,42.514251767191254L206.86194174630302,74.12600183324203L206.94150403159003,85.19179607646447L207.1006286021641,102.83036328878406L207.4188777433123,132.57184801916978L207.49844002859933,129.97858541046423L207.65756459917338,101.87173956795962L207.73712688446045,118.77663643920448L208.21450059618266,68.23763788083002L208.29406288146973,27.027788321633615L208.4531874520438,52.20865806010063L208.61231202261789,84.16577610612727L208.850998878479,111.52078332617592L208.93056116376604,132.09693000774635L209.08968573434012,144.40650201579305L209.32837259020124,117.38218074364788L209.6466217313494,114.19128707545326L209.80574630192348,64.47223416774584L209.88530858721052,68.41189435970057L210.04443315778462,74.58337352728141L210.12399544307164,70.64750193865446L210.6809314400809,58.165802676821585L210.840056010655,67.82375730120698L211.0787428665161,78.99685599946045L211.2378674370902,59.5515789173974L211.31742972237726,69.9504375343099L211.39699200766427,55.76177815495915L211.87436571938653,71.70831954714893L212.6699885722569,81.84109257640559L212.82911314283098,95.23856107128988L213.22692456926617,108.63668058420376L213.38604913984025,112.10006881772574L213.70429828098844,98.09160193325701L213.78386056627545,82.89492840343192L213.86342285156252,103.88354571278241L214.02254742213657,133.0115821539182L214.18167199271065,108.36041333505369L214.26123427799772,113.23949394013651L214.57948341914584,108.428334418841L215.05685713086808,99.29702875789495L215.2159817014422,90.74051950069551L215.37510627201627,75.04248750442747L215.69335541316443,39.53624637451922L216.40941598074775,51.02577862392653L216.48897826603482,34.673086512756875L216.56854055132183,39.99785114757585L216.88678969247,64.67303801965399L217.2846011189052,72.41593636094858L217.36416340419225,101.6008995178792L217.44372568947927,124.47894079940829L217.76197483062745,110.31480897235544L217.84153711591446,92.38263704125333L218.0802239717756,115.74296098489093L218.2393485423497,146.26205942280438L218.4780353982108,133.78041417156354L218.875846824646,142.54505923739657L219.03497139522008,116.8892006241289L219.19409596579416,100.80105833858818L219.2736582510812,103.96146970375159L219.67146967751637,133.03123613390363L219.83059424809048,90.44752141596196L220.22840567452565,107.62823847444453L220.4670925303868,57.83962726554608L220.62621710096087,84.62920441983317L220.78534167153492,112.30126299418396L221.18315309797015,113.93254972401287L221.42183995383127,113.01494799500094L221.58096452440535,110.41258004746817L221.74008909497942,133.38849093727706L221.81965138026646,70.72126127266323L222.05833823612755,98.2201577049136L222.13790052141462,95.23147131525458L222.21746280670166,98.69155593648527L222.45614966256278,116.85145095995784L222.53571194784982,126.30938926110777L222.61527423313683,139.27355759294122L223.25177251543317,70.75745643798605L223.3313348007202,70.79957378336465L223.41089708600725,59.9912653048365L223.57002165658133,36.87816729394866L223.64958394186837,62.55711032034879L223.96783308301653,69.09266776349439L224.1269576535906,83.08615184894849L224.84301822117396,58.60305814837769L225.24082964760916,85.2774033506776L225.3203919328962,112.00898356603464L225.39995421818324,56.212476197017615L225.55907878875735,58.98816026828871L225.95689021519252,81.46610052257329L226.03645250047956,103.30959956450207L226.11601478576662,115.13887750071672L226.19557707105363,124.69378517763138L226.3547016416277,136.05421845026265L226.5138262122018,135.02889520104003L226.83207535334998,109.87866580608315L227.1503244944981,117.4624799746268L227.22988677978515,129.04859456738467L227.38901135035925,124.98139298119557L227.62769820622034,127.12411687818194L227.78682277679442,95.31939392359405L228.3437587738037,121.92542925116118L228.7415702002389,108.07235838367106L228.98025705610002,65.10854171245283L229.37806848253524,95.3645887872461L229.61675533839636,100.13241477356664L229.69631762368337,81.47249774898401L229.77587990897044,68.75366680464774L230.0941290501186,87.35908123120579L230.41237819126673,90.33157098202447L230.5715027618408,109.09269246872817L231.20800104413715,124.73562076329333L231.28756332942416,117.72767200925809L231.36712561471123,109.00536317861605L231.68537475585936,118.01795022747959L232.00362389700754,109.02201931846312L232.3218730381557,122.92075391543833L232.4014353234427,62.91423584010893L232.7196844645909,70.36903324002431L232.7992467498779,80.486099832184L232.87880903516498,100.05681748747449L232.958371320452,66.36966867154484L233.27662046160017,84.22007419609353L233.51530731746126,79.26905618931254L233.7539941733224,38.65580768618413L233.91311874389646,55.955730564886935L234.07224331447054,30.04304733715804L234.39049245561873,42.71231508955179L234.78830388205392,38.16365337279252L234.86786616734096,59.59048155225215L234.947428452628,68.58760098209433L235.10655302320208,46.71431176005951L235.1861153084891,64.6874395725429L235.3452398790632,85.89113704641987L235.50436444963728,65.99480106632927L235.58392673492432,88.7182035763958L235.66348902021136,100.38374693452484L236.29998730250767,80.80782866864446L236.45911187308172,53.5381088752642L236.69779872894287,78.51682306195494L236.7773610142299,86.46952336352152L236.85692329951695,85.92302758265613L236.936485584804,56.18852609729961L237.09561015537807,91.15799302623174L237.25473472595215,121.5978247905459L237.49342158181327,85.58952164992772L237.5729838671003,120.07956505698772L237.89123300824846,138.35620830907217L237.9707952935355,136.48337817873826L238.05035757882254,140.0811633623308L238.2890444346837,101.77349538500596L238.92554271697998,109.44474925146804L240.3576638521467,104.20105769821907L240.43722613743373,128.50084780258206L240.83503756386895,159.1908369164379L240.91459984915596,158.8625150299299L241.07372441973007,167.91717690539468L241.23284899030415,189.54649220726648L241.86934727260044,233.21892722125088L241.9489095578875,132.60528081239616L242.10803412846155,140.53210802814255L242.26715869903563,134.05209864253806L242.3467209843227,150.71975669715178L242.74453241075787,101.72876010336948L242.8240946960449,114.79183775245204L243.06278155190606,129.2867520948619L243.14234383719307,119.72092650534627L243.46059297834125,104.61114087314853L243.54015526362826,121.67949776561007L243.61971754891533,113.95896305838806L244.09709126063754,72.50844975991123L244.25621583121162,54.07794928782702L244.3357781164987,84.21563165539605L244.4153404017857,108.94476082112283L245.44965011051724,127.13860511238305L245.52921239580425,128.9599082778061L245.68833696637836,130.0420490511713L246.08614839281353,148.67290537671016L246.48395981924872,164.61715839777247L246.6430843898228,183.71415766915825L247.12045810154507,187.4421316188258L247.27958267211915,155.99167150624191L247.43870724269323,149.84313102729595L247.5978318132673,129.25672432774377L247.67739409855434,67.23266521226748L247.83651866912842,87.09737224364893L248.23433009556362,98.36756889705865L248.31389238085066,103.64849272442089L248.3934546661377,69.26365293524478L248.4730169514247,88.10678658515174L248.71170380728586,98.923302270827L248.7912660925729,47.645973012433046L249.029952948434,56.97108960419787L249.10951523372105,84.2653780280857L249.1890775190081,110.86199510971694L249.26863980429513,77.73111478755385L249.58688894544326,107.29505367557414L249.66645123073033,124.75168295977467L250.06426265716553,124.90496355726108L250.2233872277396,137.49751494518156L250.6211986541748,114.86080386762339L250.70076093946184,106.13831049059375L250.85988551003595,119.58904510279933L251.01901008061,136.29120713170107L251.09857236589704,135.3770253775612L251.25769693647112,113.43709694547677L251.4168215070452,131.6308508043197L251.8146329334804,142.5971276796157L252.05331978934151,140.79404415430722L252.2124443599156,133.19609201218051L252.29200664520263,110.2372893555123L252.6102557863508,111.08416591977044L253.008067212786,106.008126422813L253.56500320979526,89.82321209035095L253.6445654950823,94.75798696525209L254.0423769215175,87.12378787970898L254.20150149209158,65.91174880585558L254.59931291852678,92.68899898611365L254.67887520381382,108.04324339592647L254.75843748910086,37.884219652884056L254.8379997743879,40.30815892091295L255.55406034197125,56.7184038062408L255.95187176840645,69.9963465487294L256.19055862426757,64.8150972716507L256.27012090955463,51.07302852776182L256.98618147713796,68.61171941401079L257.14530604771204,50.23125864365865L257.3839929035732,52.12370048931179L257.54311747414727,77.96677231728816L258.0204911858695,65.79943185632223L258.57742718287875,79.69944231396244L258.73655175345283,99.0568076542888L258.8161140387399,96.19249124448842L258.975238609314,94.57314112115458L259.21392546517507,124.26107687378831L259.5321746063233,92.5320826481221L259.77086146218437,70.7278592391288L259.8504237474714,102.51294079967987L260.00954831804546,130.69259426444904L260.16867288861954,146.3257981499027L260.2482351739066,155.9291177509735L260.72560888562884,160.03509388370063L260.8051711709159,170.87868514143494L260.96429574148993,176.1733049189874L261.123420312064,179.62095665851334L261.36210716792516,113.56147493850257L261.91904316493446,114.47221532867594L262.23729230608257,87.83472317911685L262.31685459136963,110.61687155062043L262.5555414472307,108.07332403974776" fill="none"></path></g></g></g></g><g opacity="0.2"><g><g><g><path style="fill: none;" stroke="rgb(255, 112, 67)" stroke-width="2px" d="M40.17895406995501,21.218752459728844L40.25851635524205,47.06802531968006L40.81545235225133,146.01576758936636L41.213263778686525,4.2298587224109045L41.3723883492606,50.491275672289206L41.61107520512172,151.36439693659747L41.7701997756958,4.749947533931744L41.84976206098284,161.46588114918816L42.00888663155692,102.6835358630946L42.168011202131005,74.74536673464532L42.406698057992116,129.2529424296542L42.565822628566195,17.075385544439456L43.12275862557547,74.42902280353943L43.44100776672363,95.79574909385526L43.52057005201067,-11.064851159001654L43.600132337297715,61.60329694041379L43.83881919315883,66.61235815222578L44.55487976074219,104.01105900987265L44.63444204602923,41.81350908521381L44.71400433131626,83.77356792592275L44.952691187177386,101.39464136827678L45.191378043038505,40.40084625335567L45.50962718418666,75.0395883263877L45.82787632533482,121.34225479053546L45.90743861062187,9.310918389552892L45.9870008959089,55.707230056770655L46.14612546648298,112.20607081659425L46.30525003705706,72.96162413697937L46.3848123223441,140.713172935909L46.54393689291818,56.14588969236832L46.623499178205215,87.3762042121483L46.7826237487793,70.26027182459525L46.94174831935337,35.939556182057146L47.498684316362656,-56.269004782229L47.737371172223774,146.4312257547715L47.81693345751081,93.79527794287877L47.97605802808489,48.48922497341636L48.29430716923305,114.14749156999592L48.69211859566825,88.47332276308819L48.771680880955294,107.56208697234962L49.72642830439976,102.87154310747809L49.8059905896868,93.16152222422127L50.12423973083496,116.05462597717839L50.36292658669608,43.415223443202066L50.52205115727016,59.343408110598304L50.681175727844234,48.740544213512784L51.3972362954276,72.85425449597895L51.87461000714983,9.43162304388477L52.27242143358503,25.355325110181266L52.35198371887207,36.26567364959947L52.59067057473319,107.51375516342279L52.74979514530727,43.603549365860104L52.908919715881346,87.41452226371386L53.38629342760359,57.37169275296348L53.46585571289063,118.02983310532767L54.18191628047398,10.31949087252485L54.341040851048064,-7.564485736455494L54.500165421622135,-2.6009080300851L54.738852277483254,64.04698635292384L55.454912845066616,78.41466524845318L55.693599700927734,54.23190525480042L55.773161986214774,18.288869321621515L55.93228655678885,51.68162997077423L56.17097341264997,74.3723913618323L56.72790940965925,83.94295222591781L56.88703398023333,82.69276170037061L56.966596265520366,77.09894156754382L57.28484540666852,121.42478110046503L57.36440769195556,104.67735197821276L57.44396997724261,17.90561722942972L57.52353226252965,80.04553794016257L57.76221911839077,67.27020496789804L57.84178140367781,57.96718091268724L58.160030544825965,20.317779184751377L58.239592830113,1.109956111650358L58.319155115400044,8.687980940647664L58.71696654183524,18.52772436276087L58.87609111240932,9.860523117170459L58.95565339769636,-1.5065573901498397L59.27390253884452,21.53206562817205L59.671713965279714,26.21297218314115L59.751276250566754,41.85086100792417L59.91040082114083,43.699457069949034L60.06952539171491,17.46682028611791L60.14908767700195,49.543813636852896L60.22864996228899,28.426298662765262L60.46733681815011,100.09022258865481L60.626461388724195,-0.6277540152997162L60.86514824458531,111.01369083108597L61.024272815159385,27.195364622113292L61.26295967102051,39.31549631392989L61.34252195630754,-6.665348386935069L61.6607710974557,29.08306295690394L61.74033338274275,6.615278358639797L61.81989566802979,11.617706971208591L61.899457953316826,111.4903595965545L62.138144809177945,54.904447862772535L62.217707094464984,83.14481861148428L62.61551852090018,-28.10432936520344L63.2520168031965,71.5073117484121L63.411141373770576,76.50301313609253L63.49070365905762,31.155503853245463L63.649828229631694,125.12211143988192L63.80895280020578,-15.721733705573111L63.88851508549281,87.21485719753441L64.12720194135393,91.32225051158261L64.20676422664097,76.30402099800735L64.28632651192801,51.70125845338273L64.44545108250209,56.152798900406964L64.92282479422433,-17.437278176044973L65.00238707951137,72.23866324545745L65.0819493647984,21.42789639739818L65.47976079123362,65.04575165185356L65.63888536180768,43.51874375218684L65.71844764709472,33.33070000421316L65.8775722176688,65.94302950234906L66.67319507053921,55.92206176792321L66.83231964111327,55.29815329239226L67.0710064969744,63.598357333402355L67.30969335283552,101.70186517846811L67.4688179234096,54.34659240710713L67.70750477927072,57.14459268167881L67.8666293498448,67.78999899430217L68.02575392041888,60.309669715270985L68.18487849099296,6.1617032565325225L68.42356534685408,42.51016857393738L68.50312763214112,32.852138467713964L68.6622522027152,5.60786291346324L69.21918819972447,95.4666444379615L69.29875048501151,85.90801965085976L69.37831277029855,54.63310660694396L69.45787505558559,129.92500750539338L70.25349790845598,120.1398830424337L70.49218476431712,64.16246787201581L70.57174704960416,65.09836593071752L70.8899961907523,81.9328392083713L71.2878076171875,42.98477802580272L71.44693218776158,82.65815202244931L71.60605675833565,73.6659897186027L71.84474361419677,58.696923711638206L72.08343047005789,-16.74938280806401L72.56080418178013,8.709947556672248L72.64036646706717,72.70930393473368L72.79949103764126,65.00256870976192L72.8790533229283,2.7015275692398473L73.35642703465052,100.74462726975835L73.43598931993758,-49.18615265778927L73.6746761757987,26.81941478287825L73.99292531694685,55.602034656109495L74.07248760223389,60.42743319157615L74.15204988752093,73.99790447737384L74.23161217280797,60.79646100204182L74.62942359924317,77.27657831869004L74.86811045510429,65.48643021110954L74.94767274039131,89.13868079995194L75.02723502567835,-4.1133896442003905L75.42504645211356,128.49935422003557L75.82285787854876,18.892219471518885L75.98198244912284,71.68883308514447L76.06154473440988,13.015534780319953L76.14110701969692,110.50626688319359L76.22066930498394,100.95293465142272L76.37979387555804,52.714060886428555L77.01629215785435,8.785482372796919L77.33454129900251,11.874287728740313L77.41410358428956,59.66812114105981L78.20972643715994,91.19375863884267L78.60753786359516,31.13864961384108L78.76666243416922,138.89111357560841L78.84622471945626,58.051539703104766L78.9257870047433,126.81948603559734L79.00534929003034,78.55063772674434L79.32359843117851,126.99243813634655L79.72140985761371,52.660572865296295L79.80097214290075,122.85638628541209L80.03965899876185,69.6968567690657L80.43747042519706,56.4687488771141L80.5170327104841,130.01268885534537L80.83528185163225,134.73183798424844L80.9148441369193,139.42846740305527L80.99440642220634,78.0859910921212L81.15353099278042,105.546097787842L81.39221784864152,57.285163540526625L81.7104669897897,100.85407548091452L81.79002927507673,15.577986783535891L82.10827841622489,44.26782042946405L82.18784070151193,37.56886741443967L82.58565212794713,72.8047263799976L82.7447766985212,31.893175688920785L83.1425881249564,116.44271151016939L83.22215041024344,-47.89348950687528L83.30171269553048,21.741451573378477L83.5403995513916,26.852218406787074L83.61996183667864,61.68098289342376L83.69952412196568,109.01271713126448L83.9382109778268,167.0559764587931L84.01777326311384,-58.93772958681355L84.09733554840088,16.822134973407888L84.17689783368792,91.59237654247093L84.57470926012311,67.442063857549L84.7338338306972,-3.0921587134336965L84.81339611598423,16.122221992088452L84.89295840127129,82.78333351995249L84.97252068655833,66.87247425588573L85.21120754241943,190.92789932729357L85.37033211299351,113.43218932391234L85.60901896885464,-1.8872907326218273L85.68858125414167,78.1178179529498L86.08639268057688,30.492120858482604L86.16595496586392,-14.337888968101417L86.40464182172502,166.2106956146443L86.5637663922991,90.50572961255119L86.9615778187343,-20.97450283854726L87.12070238930838,24.78718761880582L87.35938924516951,87.25165487146474L87.51851381574357,70.1879041178324L87.59807610103061,138.09813842952994L87.67763838631765,99.70618731028121L87.7572006716047,45.37798640099671L87.91632524217879,7.368334933942879L87.99588752746583,81.98000778001789L88.15501209803989,90.61194670406766L88.31413666861397,156.80114123047426L88.39369895390102,37.51727061836902L88.47326123918806,5.2738838394553245L88.71194809504918,172.86333389491483L88.9506349509103,60.57864974926138L89.3484463773455,64.45317513678931L89.66669551849365,21.62667894759579L89.7462578037807,7.0421492091033535L89.90538237435477,24.01016603670685L90.14406923021589,143.45405897989966L90.46231837136405,6.478298402970569L90.54188065665109,-27.18825201748477L90.70100522722517,141.4279620004393L90.7805675125122,67.84572282008855L90.86012979779925,78.14064576173251L90.93969208308629,39.88350800785737L91.25794122423446,109.17796813529597L91.33750350952148,10.342212839515636L91.49662808009556,188.22918857738551L91.5761903653826,83.12266152206442L91.89443950653077,157.6834127582557L92.53093778882707,-0.5389882003767403L92.84918692997523,153.24114835896597L92.92874921526229,82.7322602020499L93.16743607112339,68.92248163803802L93.24699835641043,97.85950144513315L93.32656064169747,-2.2777725245778417L93.48568521227155,133.9607775539389L93.5652474975586,64.74945300290274L93.72437206813268,2.710159116501357L93.88349663870675,15.609995947025379L93.96305892399378,115.9400024789191L94.12218349456788,118.32164887514737L94.28130806514196,105.94931187462703L94.51999492100306,133.4303404755833L94.7586817768642,117.0541569720419L95.07693091801234,152.7988867374402L95.15649320329938,-23.91236765416741L95.71342920030865,83.06957670507977L95.87255377088275,87.18304250174182L95.95211605616979,43.582875516796065L96.34992748260497,12.053088049683966L96.66817662375314,164.03987801338326L96.82730119432722,57.39444937449614L97.14555033547538,191.20773007278527L97.54336176191059,152.11052408805537L97.94117318834577,167.98780141866862L98.02073547363281,245.92100217263086L98.10029775891987,180.97940148313162L98.33898461478097,159.3700111080359L98.49810918535505,117.37849444263469L98.65723375592913,21.690935099313652L98.73679604121618,51.214948538846514L98.89592061179025,101.64034655034142L99.13460746765136,-2.362642826763485L99.2141697529384,-1.5233767801357658L99.29373203822546,67.60503207073991L99.45285660879952,62.6972559354583L99.6119811793736,90.73864765644659L99.69154346466064,123.6882260449404L99.85066803523473,91.01670214298237L100.00979260580881,70.53972683963383L100.32804174695696,21.427705091498062L100.48716631753105,82.09111850911545L100.80541545867919,99.23205311420422L100.88497774396623,189.8147944043909L101.12366459982736,30.96014458420147L101.28278917040144,108.68394991668863L101.52147602626255,22.17993014923648L101.68060059683664,31.795176467252944L101.83972516741072,-74.29142133785118L102.07841202327182,146.77261062121187L102.31709887913296,134.8164915683154L102.39666116442,52.54374863847001L102.7944725908552,20.728835623330653L103.19228401729038,105.36066691167588L103.51053315843855,208.45962711961093L103.59009544372559,44.343127126878706L103.66965772901263,25.039644808062995L103.82878229958669,117.87769777318584L103.90834458487375,75.69624967217133L103.98790687016078,-45.4898430241867L104.38571829659598,116.59575610616517L104.6244051524571,58.61714579050141L104.70396743774414,66.86908237696245L104.78352972303118,53.21826201454739L104.86309200831822,74.29707778541153L105.02221657889231,34.59997078811973L105.26090343475342,225.64218469239333L105.49959029061453,-18.747325247092583L106.2156508581979,74.50173766505061L106.45433771405901,93.68447795626089L107.01127371106828,121.34603796646202L107.09083599635532,95.74467676801568L107.17039828164236,100.60774259630372L107.48864742279054,10.130340383675836L107.6477719933646,184.25139076164822L107.80689656393868,66.2979784923352L107.88645884922573,128.29494571785418L108.20470799037388,25.284490971578446L108.68208170209613,18.24935220692467L108.84120627267019,78.40262595497948L109.07989312853132,62.924048747091554L109.15945541381836,68.35759731348362L109.39814226967948,95.48200948451795L109.6368291255406,56.05645326797504L109.79595369611468,58.96218411889351L109.95507826668876,55.792373202232966L110.35288969312396,87.26368510793748L110.432451978411,82.74503187287017L110.67113883427211,82.39049263953919L110.98938797542027,-17.566328846195102L111.14851254599435,98.77976817383565L111.46676168714251,152.4466901770264L111.54632397242955,155.63851405123205L111.78501082829067,71.04493827180696L111.94413539886476,134.17961190572612L112.02369768415178,47.954984364641916L112.2623845400129,7.785961059133295L112.34194682529994,127.68711265037001L112.58063368116107,135.05087555269438L112.6601959664481,121.32329559702265L112.73975825173514,173.58445265566422L113.21713196345739,109.32586923280321L113.61494338989257,-5.274886493050724L113.77406796046667,37.78515578433668L113.85363024575369,-9.195268543002351L114.96750223977226,100.17083089445977L115.0470645250593,90.82199103532126L115.20618909563336,39.455608385786746L115.76312509264264,97.45247307964357L115.84268737792968,8.629180221773936L115.92224966321672,160.69510855360093L116.24049880436489,111.80515962333908L116.32006108965193,18.096921156746063L116.63831023080009,135.48355638992012L116.95655937194823,-20.330850544332854L117.03612165723527,153.89961642601853L117.19524622780936,59.13100809198493L117.35437079838344,117.95561755125868L117.43393308367048,48.80135318813442L117.51349536895752,70.08726758086526L117.59305765424455,101.01408622389594L118.22955593654086,119.1382074216563L118.54780507768903,74.935642486557L118.70692964826311,101.07782656718106L118.94561650412423,208.1928472440251L119.34342793055943,170.4091751334566L119.82080164228167,151.66289419184415L119.9003639275687,82.23722574762009L119.97992621285576,178.82900732433268L120.13905078342982,27.97403687425028L120.37773763929094,1.0783182201698318L121.17336049216135,26.608880621036008L121.33248506273543,40.1088691203787L121.4916096333095,164.42992363986585L121.73029648917063,146.58646258377613L121.96898334503175,94.06970664176048L122.12810791560581,126.22135181832111L122.20767020089285,128.08898966678254L122.60548162732806,208.9019203243267L122.68504391261509,88.54000397680883L122.92373076847622,102.83717905582816L123.00329305376326,70.47792101333961L123.0828553390503,154.51594130197515L123.3215421949114,214.12794249995986L123.40110448019844,67.93962995620963L123.71935362134661,110.90898144190689L123.87847819192068,79.7114130569684L124.35585190364293,88.15030062816997L124.514976474217,92.18086978660855L124.75366333007813,80.42379344000045L125.07191247122628,194.16775104762877L125.39016161237444,201.32703616847223L125.54928618294852,90.47958879073126L125.86753532409668,93.34463182454827L125.94709760938372,83.22271489419214L126.34490903581893,55.52561689104061L126.504033606393,61.53261426084847L127.45878102983748,188.7061268417988L127.77703017098563,76.12845712547727L127.85659245627267,90.85005262913822L127.9361547415597,67.4003418383715L128.17484159742082,71.39252784794046L128.3339661679949,21.194501016155268L128.57265302385602,44.56405836846478L128.89090216500418,112.31134786595861L129.05002673557826,68.89205426143745L129.1295890208653,72.2329229478535L129.44783816201345,201.1665931170569L129.5274004473005,168.69603788402398L129.76608730316164,144.13470449878335L130.08433644430977,114.9827421730675L130.1638987295968,119.84299083395696L130.32302330017092,55.10768912288487L130.48214787074497,131.37246079567407L130.72083472660609,42.650035438017845L131.11864615304128,84.67691486502683L131.27777072361536,58.34332316820718L131.43689529418944,142.10638926180786L131.6755821500506,141.3094962539277L132.07339357648578,0.9343328074565687L132.15295586177282,102.75013207657243L132.3120804323469,191.44680342583638L132.47120500292095,144.28983405034506L132.550767288208,192.0581955223385L132.63032957349506,156.3324285451439L132.86901642935618,145.85243871696056L133.26682785579138,155.374336309691L133.42595242636546,115.75543027363707L133.5055147116525,162.0715047955642L133.82376385280065,68.80744089054714L134.22157527923582,92.3085112015156L134.539824420384,128.27793231246335L134.85807356153214,28.619625024437067L134.9376358468192,199.57215546547116L135.3354472732544,118.8427986452101L135.49457184382848,23.42565916947022L135.65369641440256,37.93031881643765L135.81282098497664,248.044492545831L136.05150784083776,197.90817665253388L136.1310701261248,87.76934414747612L136.44931926727295,91.10379136464076L136.9266929789952,161.2067408644681L137.08581754956927,97.02467867064738L137.24494212014335,27.224930615676865L137.40406669071743,157.69904737359604L137.48362897600447,127.40208632095032L137.88144040243967,-14.62135354309655L138.27925182887486,148.01386532460288L138.51793868473598,77.1598795278641L138.67706325531006,178.24535412733164L138.83618782588414,157.26981791771047L138.91575011117118,191.38808306598705L139.07487468174526,158.05507036549471L139.23399925231934,69.04215582784641L139.47268610818045,176.4301875420398L139.63181067875453,148.95527349723514L139.71137296404157,98.39562803836492L139.7909352493286,111.70210812597497L139.87049753461568,93.90895506132415L140.42743353162496,81.02491688535135L140.586558102199,196.93094205035914L140.82524495806013,79.88434096964075L140.90480724334716,45.667364471311906L140.98436952863423,162.6453941718457L141.46174324035644,87.8067711054297L141.85955466679164,84.78989254938143L142.09824152265276,183.18792942079668L142.1778038079398,115.93026611081915L142.81430209023614,87.31648758799312L142.89386437552315,62.91862609152818L142.97342666081022,42.06157560449869L143.05298894609723,159.97771711505482L143.2121135166713,154.85940816694136L143.6099249431065,68.74098510201328L143.76904951368059,196.1040286538726L143.84861179896762,90.93150611097913L144.48511008126397,82.19515669463146L144.56467236655098,113.93760226752285L144.88292150769914,165.8877037187499L145.04204607827324,47.92716020911758L145.20117064884732,57.81690913198265L145.28073293413433,103.5255057535986L145.4398575047084,56.59306690208646L145.7581066458566,92.13146341479549L145.8376689311436,86.97445506361025L145.9967935017177,78.41785345665647L146.1559180722918,154.79041414550434L146.2354803575788,111.35569219548388L146.3946049281529,92.74020382878446L146.47416721343996,125.24017550368113L146.55372949872697,83.18930291745622L146.63329178401403,170.6381508788496L146.95154092516216,178.29946741160114L147.03110321044923,69.25409931394546L147.26979006631032,204.4181862628505L147.3493523515974,85.65158906329498L147.42891463688443,123.69305269585982L147.7471637780326,198.44828033709175L147.9858506338937,225.0472493377884L148.38366206032887,163.87650580076334L149.02016034262522,67.92750031448098L149.25884719848634,179.31438672650245L149.5770963396345,-63.35586518273359L149.65665862492153,104.63658927322125L149.9749077660697,12.647690079324038L150.13403233664377,227.16300323543385L150.3727191925049,112.63856382591226L150.45228147779193,10.277414962224476L150.61140604836598,259.6030393440567L151.16834204537525,202.74912739123647L151.32746661594936,134.3327153383738L151.4070289012364,179.34412934354663L151.72527804238456,203.44440139393987L151.8048403276716,30.80581443862367L152.04352718353272,71.1526764343019L152.12308946881976,151.46119277899268L152.2026517541068,156.55166852166872L152.36177632468087,97.60306351183124L152.4413386099679,155.65170772935636L152.600463180542,87.02459186338683L152.75958775111607,184.9989021398083L152.8391500364031,87.85674930807536L153.15739917755127,55.47438870985542L153.3960860334124,75.03763087584966L153.71433517456055,107.30184612579608L153.79389745984759,76.1145954698222L154.0325843157087,55.45203712360758L154.19170888628278,74.4959816578292L154.35083345685686,141.95623752880246L154.4303957421439,44.12021750680205L154.50995802743094,106.9361456674978L155.2260185950143,128.06117838984073L155.3851431655884,41.45761984529819L155.6238300214495,87.48675414884886L155.78295459202357,7.966367688860749L155.94207916259768,90.70902897721263L156.49901515960696,93.70964758560486L156.57857744489397,38.77181080820561L156.8172643007551,86.6063359078024L156.89682658604212,111.51589119189559L156.97638887132916,151.94036778480327L157.3742002977644,96.08141781079945L157.61288715362548,133.46257608984274L157.7720117241996,137.5018310799907L158.01069858006068,48.86141691609124L158.09026086534772,42.020792916419474L158.16982315063476,116.96540102241777L158.48807229178294,100.39988794667076L158.56763457706995,81.36864763646936L158.72675914764403,54.85932474818205L158.88588371821814,31.154469521505934L158.96544600350515,35.83241623826352L159.2836951446533,111.103869674172L159.36325742994035,101.0957243035807L159.6815065710885,62.22208451867532L159.76106885637557,136.89988433491445L159.92019342694965,133.0166364458844L160.0793179975237,118.03390233846206L160.47712942395893,164.8231183583736L160.55669170924597,130.65530252700705L160.71581627982005,180.5103891457208L160.95450313568114,138.89373756318324L161.5114391326904,75.10435186112937L161.6705637032645,128.46879900206196L161.98881284441268,157.99262732763466L162.0683751296997,144.1162017083805L162.38662427084788,172.51204530539295L162.4661865561349,88.45386849084606L162.94356026785715,115.27309522715657L163.18224712371824,21.7931420212788L163.2618094090053,134.01943911239627L163.34137169429232,96.63022161615397L163.50049626486643,116.00857396536458L163.58005855015347,108.66453051521441L163.6596208354405,14.20896962467764L163.73918312072752,100.79182027815982L164.0574322618757,63.82219604787808L164.13699454716274,100.22867904118176L164.2961191177368,97.31849811643157L164.37568140302386,7.930296885990214L164.53480597359794,138.2596326769686L164.77349282945906,72.99665320779944L164.8530551147461,139.15680126767128L165.17130425589426,29.787404992600127L165.2508665411813,72.88265351459839L165.8873648234776,176.73127488252246L166.2851762499128,188.0046366519979L166.76254996163505,18.817983954048426L166.84211224692206,139.85586329512296L166.92167453220912,126.53552773500385L167.31948595864432,107.64909126596234L167.63773509979248,81.71527035440683L168.11510881151474,203.98196360236736L169.0698562349592,197.4354924454043L169.3085430908203,156.74090800139822L169.7063545172555,114.24829345417784L170.1041659436907,95.60485464966703L170.66110194069998,166.27308635054544L171.13847565242222,51.91059347485194L171.2976002229963,126.22679033089995L171.4567247935704,181.70231890738782L171.61584936414448,181.05385435373745L171.6954116494315,171.02027090471708L171.9340985052926,171.3317460375114L172.65015907287597,97.08970698182257L173.5253442110334,171.9736858882158L173.60490649632047,144.45599309541188L173.84359335218159,164.217615752183L173.9231556374686,175.7044453971787L174.24140477861675,143.73351910408962L174.32096706390382,169.040310558725L174.48009163447787,51.011144470267936L174.8779030609131,191.24630013706442L175.11658991677422,157.05839518247268L175.5144013432094,144.5021831033507L175.59396362849645,153.39331677292924L175.6735259137835,197.08784691845028L176.62827333722794,215.88256412360352L176.707835622515,133.1270262215209L177.1056470489502,250.39964714939538L177.5830207606724,38.41233512250159L177.66258304595948,23.14999828410003L178.06039447239468,184.2160978852372L178.37864361354283,155.31251161180344L178.77645503997803,206.71114578624872L179.41295332227432,165.39186201009755L180.68594988686698,207.694316598875L180.76551217215402,190.7891411966171L181.16332359858922,145.96432831022057L182.19763330732073,60.83813526851295L182.27719559260777,125.35636042029164L182.67500701904297,120.13670205680057L182.83413158961704,83.75533551472482L182.99325616019112,199.13918798680393L183.0728184454782,123.94843507585966L183.1523807307652,105.92482407251661L183.47062987191336,116.79000795617732L183.62975444248747,110.34470590348488L183.78887901306155,52.23256545639164L183.9480035836356,153.55380462664422L184.18669043949674,139.9987102996335L184.26625272478375,91.46706725983752L184.42537729535783,108.78540839715589L184.5845018659319,57.16087442630908L184.66406415121895,70.25955300628148L184.74362643650602,54.76766443970563L184.82318872179303,42.255525452428635L184.9823132923671,67.238991607884L185.06187557765415,120.07080621207842L185.1414378629412,84.1740036297033L185.3801247188023,133.41623852895432L186.01662300109865,24.446342506921443L186.33487214224678,100.88787212261857L186.41443442753385,127.03158072046102L186.65312128339494,152.13881402143141L187.1304949951172,209.39694470418442L187.21005728040421,75.590336265705L187.3691818509783,146.04662709933106L187.7669932774135,202.58151506588328L187.92611784798757,108.18428898639216L188.00568013327464,83.88879845614046L188.32392927442277,109.71799118864962L188.40349155970983,125.20536490215561L188.80130298614503,205.74834038819688L188.9604275567191,117.76642994316333L189.03998984200612,272.972841871816L189.1991144125802,147.6108907268132L189.91517498016358,43.45835390018773L189.99473726545062,175.97618560892792L190.15386183602467,178.24730236781116L190.31298640659875,142.93264617989138L190.5516732624599,217.6409286207L190.63123554774694,105.16138728435794L191.3472961153303,233.69478777327012L191.82466982705253,61.69507333753562L192.3816058240618,156.14272642155137L192.69985496520994,31.799921555806748L192.779417250497,88.3230456136669L193.09766639164516,91.23603629123289L193.8137269592285,101.48601722252036L194.13197610037668,97.61644372437154L194.21153838566372,58.89948927553143L194.29110067095075,76.14880281407174L194.68891209738595,118.5398867980605L195.1662858091082,128.16477696934044L195.4049726649693,101.80478807401512L195.48453495025635,107.21986422983521L195.5640972355434,29.429794253076302L195.8027840914045,109.75544085369455L195.96190866197858,127.15260337487351L196.12103323255266,93.08793158567221L196.20059551783973,136.2076614984608L196.28015780312674,162.78830030846123L196.5984069442749,104.93408103746823L196.75753151484898,42.683522261102866L196.9962183707101,159.79351468925455L197.07578065599714,133.77628138268963L197.15534294128418,162.9533607901351L197.47359208243236,184.38601445187297L197.95096579415457,200.74430193329454L198.50790179116385,78.98658074653432L198.5874640764509,62.58052233652077L198.66702636173792,40.1911113866318L199.06483778817312,121.98147428106252L199.1444000734602,98.92393657096646L199.30352464403427,16.037244376766605L199.94002292633056,213.1986663671352L200.25827206747874,226.98633165171773L200.33783435276575,119.85201121022438L200.5765212086269,149.55263643579812L201.13345720563618,221.63703050137377L201.3721440614973,141.47714284315808L201.53126863207137,146.22871966210514L201.69039320264545,162.39750265144187L202.08820462908065,101.21507150181569L202.48601605551582,143.1962406353567L202.5655783408029,148.1525723891925L202.64514062608993,105.21131855917567L202.96338976723808,64.93580598148448L203.0429520525251,210.66485520232254L203.52032576424736,176.64479718540903L203.67945033482144,59.34976867306752L203.8385749053955,213.86810341140932L204.07726176125664,56.227164777275874L204.15682404654365,79.00990096202604L204.23638633183072,47.7831594177501L204.31594861711775,94.73855799045349L204.55463547297884,101.95174973898942L204.71376004355292,188.79429947872788L205.11157146998812,156.3742093808042L205.35025832584927,71.24482603428993L205.50938289642335,13.974009648544204L205.82763203757148,-21.72760229045739L205.90719432285854,155.58934429860108L206.30500574929374,51.81835873302492L206.6232548904419,36.469558716154154L206.86194174630302,202.02784301658517L206.94150403159003,105.85562111619814L207.1006286021641,141.708014232112L207.4188777433123,238.52372533706935L207.49844002859933,126.25669299696125L207.65756459917338,73.46165166886763L207.73712688446045,155.2834732995653L208.21450059618266,27.779098331191623L208.29406288146973,-9.108364404403135L208.4531874520438,123.80931765503792L208.61231202261789,217.05424506891725L208.93056116376604,181.63247456754428L209.08968573434012,168.06310778162901L209.32837259020124,89.71912242404497L209.6466217313494,109.65665912318725L209.80574630192348,24.361691034126203L209.88530858721052,74.7601986026377L210.04443315778462,84.9691570042856L210.12399544307164,65.12177185850386L210.6809314400809,42.76533897417575L210.840056010655,85.30257713199832L211.0787428665161,99.91199530819628L211.2378674370902,37.70640716307428L211.31742972237726,89.07994688324526L211.39699200766427,38.667312224208565L211.87436571938653,105.26630540656177L212.6699885722569,100.37141878046074L212.82911314283098,121.66508323809394L213.22692456926617,135.06490569272856L213.38604913984025,117.63101482448097L213.70429828098844,81.17219803495217L213.78386056627545,64.8369288444049L213.86342285156252,155.0900941750985L214.02254742213657,233.11483677141922L214.18167199271065,82.40403274141401L214.26123427799772,121.24435551007933L214.57948341914584,101.76820046670703L215.05685713086808,87.47001476147257L215.2159817014422,79.5624628224251L215.37510627201627,56.51499780608077L215.69335541316443,6.489881978687801L216.40941598074775,72.68942688008299L216.48897826603482,15.542016475307195L216.56854055132183,48.81003959415464L216.88678969247,133.41181567771744L217.2846011189052,85.8695816322045L217.36416340419225,202.22519095624773L217.44372568947927,184.02262618026396L217.76197483062745,93.24412122885442L217.84153711591446,71.83791081991383L218.0802239717756,177.6187407054423L218.2393485423497,260.47269478457713L218.4780353982108,118.38000535751132L218.875846824646,158.10466670497433L219.03497139522008,90.1983950381695L219.19409596579416,81.91262089354196L219.2736582510812,108.98005825302958L219.67146967751637,232.60548047560778L219.83059424809048,53.62156381562256L220.22840567452565,145.014355224546L220.4670925303868,17.699341659237664L220.62621710096087,166.33787586965687L220.78534167153492,200.34146304416464L221.18315309797015,116.45134241933033L221.42183995383127,111.660220863206L221.58096452440535,106.67818434524187L221.74008909497942,193.39806873785207L221.81965138026646,25.71367019164136L222.05833823612755,184.9667116297477L222.13790052141462,90.97004219712709L222.21746280670166,104.21688372679516L222.45614966256278,157.47819652008792L222.53571194784982,143.35189946412527L222.61527423313683,164.57891031593994L223.25177251543317,23.900818890321617L223.3313348007202,70.86279628153434L223.41089708600725,46.332425532986136L223.57002165658133,12.081490963202224L223.64958394186837,137.1140818486854L223.96783308301653,80.17171842164262L224.1269576535906,111.09558539150227L224.84301822117396,32.77129478897699L225.24082964760916,166.20459242170682L225.3203919328962,193.32310712755833L225.39995421818324,13.651172968694608L225.55907878875735,63.36446069801901L225.95689021519252,139.14249560813937L226.03645250047956,158.1415702991688L226.11601478576662,137.61873649908563L226.19557707105363,141.94733735862107L226.3547016416277,157.41114377999642L226.5138262122018,133.51792060280866L226.83207535334998,83.5552441838863L227.1503244944981,130.59637547945465L227.22988677978515,150.94293621730353L227.38901135035925,119.28341427743895L227.62769820622034,130.4634284230937L227.78682277679442,64.49497378470674L228.3437587738037,202.39393370404483L228.7415702002389,91.304625795718L228.98025705610002,28.095214345853577L229.37806848253524,206.66334552928797L229.61675533839636,107.93793346645954L229.69631762368337,60.29592821607484L229.77587990897044,53.113018536248845L230.0941290501186,129.52566669872837L230.41237819126673,95.03528041635072L230.5715027618408,151.80765447244187L231.20800104413715,157.39209773380927L231.28756332942416,108.35474020905446L231.36712561471123,97.6389751325638L231.68537475585936,134.102723743672L232.00362389700754,97.34685025829283L232.3218730381557,150.6753108114155L232.4014353234427,18.816464022568702L232.7196844645909,83.24517508827253L232.7992467498779,98.98128301636505L232.87880903516498,145.71294689245968L232.958371320452,34.39231218044605L233.27662046160017,123.80178238064306L233.51530731746126,72.43058224127293L233.7539941733224,2.825467903576915L233.91311874389646,93.7262887491075L234.07224331447054,3.167341364587619L234.39049245561873,67.26832539649483L234.78830388205392,31.840393617551396L234.86786616734096,112.62707173002359L234.947428452628,84.63944627778817L235.10655302320208,22.885015131683144L235.1861153084891,104.68117562757735L235.3452398790632,137.9886546765695L235.50436444963728,43.77170091798664L235.58392673492432,147.53315813374266L235.66348902021136,122.46860226353205L236.29998730250767,58.85274609886752L236.45911187308172,25.70402743876554L236.69779872894287,148.95720350913336L236.7773610142299,100.34814942367043L236.85692329951695,85.11102471271697L236.936485584804,26.690302184268678L237.09561015537807,298.00156228841087L237.25473472595215,234.91734289180633L237.49342158181327,52.25559960693049L237.5729838671003,308.5230195748422L237.89123300824846,179.38235700551598L237.9707952935355,133.76288250303514L238.05035757882254,145.84126371444862L238.2890444346837,67.16211184105674L238.92554271697998,122.75412871289421L240.3576638521467,96.99193112018675L240.43722613743373,195.19910409764984L240.83503756386895,275.36467551823705L240.91459984915596,158.37283736890163L241.07372441973007,184.09163409197515L241.86934727260044,280.2216291073163L241.9489095578875,78.39163127002855L242.10803412846155,154.35812082243112L242.26715869903563,125.31429505252031L242.3467209843227,186.48150748378205L242.74453241075787,61.93201831666709L242.8240946960449,140.35098321205183L243.06278155190606,158.66609736230893L243.14234383719307,107.41061086160742L243.46059297834125,86.63515630780745L243.54015526362826,158.70571106934688L243.61971754891533,103.74487545518714L244.09709126063754,36.250019991374046L244.25621583121162,33.09927145799837L244.3357781164987,194.2451463032092L244.4153404017857,177.98248222684086L245.44965011051724,167.88119671194852L245.52921239580425,131.78177246464145L245.68833696637836,131.696551964026L246.08614839281353,190.92872555791038L247.12045810154507,193.42532488647203L247.27958267211915,125.38976582213198L247.43870724269323,141.50941679172664L247.5978318132673,106.46380599573128L247.67739409855434,22.440868800613565L247.83651866912842,133.8607088021114L248.23433009556362,119.51120714382526L248.31389238085066,112.38063764708346L248.3934546661377,36.87118395744292L248.4730169514247,131.11276369899988L248.71170380728586,119.00811925641169L248.7912660925729,6.878884211107841L249.029952948434,73.72599612333642L249.10951523372105,169.51679281616552L249.1890775190081,191.26752227412246L249.26863980429513,46.08939187466073L249.58688894544326,211.49929258198995L249.66645123073033,163.03176723215614L250.06426265716553,125.13550136132017L250.2233872277396,161.86036862682707L250.6211986541748,90.43231465212153L250.70076093946184,94.7717133369308L250.85988551003595,146.15508685544637L251.01901008061,172.1606897953313L251.09857236589704,134.0272682792731L251.25769693647112,89.55504082883193L251.4168215070452,172.37313349673573L251.8146329334804,163.0289966145241L252.05331978934151,138.17178385911666L252.2124443599156,123.12540926363319L252.29200664520263,85.55938894338692L252.6102557863508,112.37355987954564L253.008067212786,99.01090043500975L253.56500320979526,70.84582048373169L253.6445654950823,102.86296546010196L254.0423769215175,77.0106456747931L254.20150149209158,42.61078325038082L254.59931291852678,174.31360227225505L254.67887520381382,139.8564131994798L254.75843748910086,-9.457259079357087L254.8379997743879,44.105207156529104L255.55406034197125,91.68312338677647L255.95187176840645,96.11115692623147L256.19055862426757,57.68476220459924L256.27012090955463,34.41403666706232L256.98618147713796,107.1605262045348L257.14530604771204,29.295901594483105L257.3839929035732,55.059567712269924L257.54311747414727,153.52996022432492L258.0204911858695,50.71985701374542L258.57742718287875,107.45742302841583L258.73655175345283,143.92279516700768L258.8161140387399,92.10000060876558L258.975238609314,92.2107695142093L259.21392546517507,229.6808903077985L259.5321746063233,61.75507770324824L259.77086146218437,46.953336226313766L259.8504237474714,232.87104162884262L260.16867288861954,178.9536501648187L260.2482351739066,173.28837308549683L260.72560888562884,166.67233010459105L260.8051711709159,191.02606815123607L261.123420312064,185.12514701069597L261.36210716792516,67.45734934821567L261.91904316493446,115.86041785809196L262.23729230608257,60.44328465394863L262.31685459136963,169.70760648266528L262.5555414472307,104.4197661088741" fill="none"></path></g></g></g></g></g></g><g transform="translate(51, 177)" clip-path="url(#clip_1)"><clipPath id="clip_1"><rect width="278" height="22"></rect></clipPath><g><g><line x1="0" y1="0" x2="0" y2="5" style="visibility: inherit;" fill="rgb(0, 0, 0)" stroke="rgb(204, 204, 204)" stroke-width="1px"></line><line x1="39.78114264351981" y1="0" x2="39.78114264351981" y2="5" style="visibility: inherit;" fill="rgb(0, 0, 0)" stroke="rgb(204, 204, 204)" stroke-width="1px"></line><line x1="79.56228528703961" y1="0" x2="79.56228528703961" y2="5" style="visibility: inherit;" fill="rgb(0, 0, 0)" stroke="rgb(204, 204, 204)" stroke-width="1px"></line><line x1="119.34342793055943" y1="0" x2="119.34342793055943" y2="5" style="visibility: inherit;" fill="rgb(0, 0, 0)" stroke="rgb(204, 204, 204)" stroke-width="1px"></line><line x1="159.12457057407923" y1="0" x2="159.12457057407923" y2="5" style="visibility: inherit;" fill="rgb(0, 0, 0)" stroke="rgb(204, 204, 204)" stroke-width="1px"></line><line x1="198.90571321759904" y1="0" x2="198.90571321759904" y2="5" style="visibility: inherit;" fill="rgb(0, 0, 0)" stroke="rgb(204, 204, 204)" stroke-width="1px"></line><line x1="238.68685586111886" y1="0" x2="238.68685586111886" y2="5" style="visibility: inherit;" fill="rgb(0, 0, 0)" stroke="rgb(204, 204, 204)" stroke-width="1px"></line><line x1="278.4679985046387" y1="0" x2="278.4679985046387" y2="5" style="visibility: inherit;" fill="rgb(0, 0, 0)" stroke="rgb(204, 204, 204)" stroke-width="1px"></line></g><g transform="translate(0, 8)"><text style="text-anchor: middle; visibility: hidden; font-family: Roboto, sans-serif; font-size: 12px; font-weight: 200;" x="0" y="0" dx="0em" dy="0.95em" fill="rgb(50, 49, 63)" stroke="none" stroke-width="1px">-500</text><text style="text-anchor: middle; visibility: inherit; font-family: Roboto, sans-serif; font-size: 12px; font-weight: 200;" x="39.78114264351981" y="0" dx="0em" dy="0.95em" fill="rgb(50, 49, 63)" stroke="none" stroke-width="1px">0</text><text style="text-anchor: middle; visibility: inherit; font-family: Roboto, sans-serif; font-size: 12px; font-weight: 200;" x="79.56228528703961" y="0" dx="0em" dy="0.95em" fill="rgb(50, 49, 63)" stroke="none" stroke-width="1px">500</text><text style="text-anchor: middle; visibility: inherit; font-family: Roboto, sans-serif; font-size: 12px; font-weight: 200;" x="119.34342793055943" y="0" dx="0em" dy="0.95em" fill="rgb(50, 49, 63)" stroke="none" stroke-width="1px">1k</text><text style="text-anchor: middle; visibility: inherit; font-family: Roboto, sans-serif; font-size: 12px; font-weight: 200;" x="159.12457057407923" y="0" dx="0em" dy="0.95em" fill="rgb(50, 49, 63)" stroke="none" stroke-width="1px">1.5k</text><text style="text-anchor: middle; visibility: inherit; font-family: Roboto, sans-serif; font-size: 12px; font-weight: 200;" x="198.90571321759904" y="0" dx="0em" dy="0.95em" fill="rgb(50, 49, 63)" stroke="none" stroke-width="1px">2k</text><text style="text-anchor: middle; visibility: inherit; font-family: Roboto, sans-serif; font-size: 12px; font-weight: 200;" x="238.68685586111886" y="0" dx="0em" dy="0.95em" fill="rgb(50, 49, 63)" stroke="none" stroke-width="1px">2.5k</text><text style="text-anchor: middle; visibility: hidden; font-family: Roboto, sans-serif; font-size: 12px; font-weight: 200;" x="278.4679985046387" y="0" dx="0em" dy="0.95em" fill="rgb(50, 49, 63)" stroke="none" stroke-width="1px">3k</text></g><line x1="0" y1="0" x2="278.4679985046387" y2="0" fill="rgb(0, 0, 0)" stroke="rgb(204, 204, 204)" stroke-width="1px"></line></g></g></g></g></svg>