<svg viewBox="0 0 330 200" xmlns="http://www.w3.org/2000/svg"><g><g><g><g><g><line x1="41.149001121520996" y1="177.86299896240234" x2="36.149001121520996" y2="177.86299896240234" style="visibility: inherit;" fill="rgb(0, 0, 0)" stroke="rgb(204, 204, 204)" stroke-width="1px"></line><line x1="41.149001121520996" y1="161.69363542036575" x2="36.149001121520996" y2="161.69363542036575" style="visibility: inherit;" fill="rgb(0, 0, 0)" stroke="rgb(204, 204, 204)" stroke-width="1px"></line><line x1="41.149001121520996" y1="145.5242718783292" x2="36.149001121520996" y2="145.5242718783292" style="visibility: inherit;" fill="rgb(0, 0, 0)" stroke="rgb(204, 204, 204)" stroke-width="1px"></line><line x1="41.149001121520996" y1="129.3549083362926" x2="36.149001121520996" y2="129.3549083362926" style="visibility: inherit;" fill="rgb(0, 0, 0)" stroke="rgb(204, 204, 204)" stroke-width="1px"></line><line x1="41.149001121520996" y1="113.18554479425606" x2="36.149001121520996" y2="113.18554479425606" style="visibility: inherit;" fill="rgb(0, 0, 0)" stroke="rgb(204, 204, 204)" stroke-width="1px"></line><line x1="41.149001121520996" y1="97.01618125221945" x2="36.149001121520996" y2="97.01618125221945" style="visibility: inherit;" fill="rgb(0, 0, 0)" stroke="rgb(204, 204, 204)" stroke-width="1px"></line><line x1="41.149001121520996" y1="80.84681771018289" x2="36.149001121520996" y2="80.84681771018289" style="visibility: inherit;" fill="rgb(0, 0, 0)" stroke="rgb(204, 204, 204)" stroke-width="1px"></line><line x1="41.149001121520996" y1="64.67745416814631" x2="36.149001121520996" y2="64.67745416814631" style="visibility: inherit;" fill="rgb(0, 0, 0)" stroke="rgb(204, 204, 204)" stroke-width="1px"></line><line x1="41.149001121520996" y1="48.508090626109706" x2="36.149001121520996" y2="48.508090626109706" style="visibility: inherit;" fill="rgb(0, 0, 0)" stroke="rgb(204, 204, 204)" stroke-width="1px"></line><line x1="41.149001121520996" y1="32.33872708407314" x2="36.149001121520996" y2="32.33872708407314" style="visibility: inherit;" fill="rgb(0, 0, 0)" stroke="rgb(204, 204, 204)" stroke-width="1px"></line><line x1="41.149001121520996" y1="16.169363542036564" x2="36.149001121520996" y2="16.169363542036564" style="visibility: inherit;" fill="rgb(0, 0, 0)" stroke="rgb(204, 204, 204)" stroke-width="1px"></line><line x1="41.149001121520996" y1="0" x2="36.149001121520996" y2="0" style="visibility: inherit;" fill="rgb(0, 0, 0)" stroke="rgb(204, 204, 204)" stroke-width="1px"></line></g><g transform="translate(31.149001121520996, 0)"><text style="text-anchor: end; visibility: hidden; font-family: Roboto, sans-serif; font-size: 12px; font-weight: 200;" x="0" y="177.86299896240234" dx="0em" dy="0.3em" fill="rgb(50, 49, 63)" stroke="none" stroke-width="1px">0.8</text><text style="text-anchor: end; visibility: inherit; font-family: Roboto, sans-serif; font-size: 12px; font-weight: 200;" x="0" y="161.69363542036575" dx="0em" dy="0.3em" fill="rgb(50, 49, 63)" stroke="none" stroke-width="1px">0.9</text><text style="text-anchor: end; visibility: hidden; font-family: Roboto, sans-serif; font-size: 12px; font-weight: 200;" x="0" y="145.5242718783292" dx="0em" dy="0.3em" fill="rgb(50, 49, 63)" stroke="none" stroke-width="1px">1</text><text style="text-anchor: end; visibility: inherit; font-family: Roboto, sans-serif; font-size: 12px; font-weight: 200;" x="0" y="129.3549083362926" dx="0em" dy="0.3em" fill="rgb(50, 49, 63)" stroke="none" stroke-width="1px">1.1</text><text style="text-anchor: end; visibility: hidden; font-family: Roboto, sans-serif; font-size: 12px; font-weight: 200;" x="0" y="113.18554479425606" dx="0em" dy="0.3em" fill="rgb(50, 49, 63)" stroke="none" stroke-width="1px">1.2</text><text style="text-anchor: end; visibility: inherit; font-family: Roboto, sans-serif; font-size: 12px; font-weight: 200;" x="0" y="97.01618125221945" dx="0em" dy="0.3em" fill="rgb(50, 49, 63)" stroke="none" stroke-width="1px">1.3</text><text style="text-anchor: end; visibility: hidden; font-family: Roboto, sans-serif; font-size: 12px; font-weight: 200;" x="0" y="80.84681771018289" dx="0em" dy="0.3em" fill="rgb(50, 49, 63)" stroke="none" stroke-width="1px">1.4</text><text style="text-anchor: end; visibility: inherit; font-family: Roboto, sans-serif; font-size: 12px; font-weight: 200;" x="0" y="64.67745416814631" dx="0em" dy="0.3em" fill="rgb(50, 49, 63)" stroke="none" stroke-width="1px">1.5</text><text style="text-anchor: end; visibility: hidden; font-family: Roboto, sans-serif; font-size: 12px; font-weight: 200;" x="0" y="48.508090626109706" dx="0em" dy="0.3em" fill="rgb(50, 49, 63)" stroke="none" stroke-width="1px">1.6</text><text style="text-anchor: end; visibility: inherit; font-family: Roboto, sans-serif; font-size: 12px; font-weight: 200;" x="0" y="32.33872708407314" dx="0em" dy="0.3em" fill="rgb(50, 49, 63)" stroke="none" stroke-width="1px">1.7</text><text style="text-anchor: end; visibility: hidden; font-family: Roboto, sans-serif; font-size: 12px; font-weight: 200;" x="0" y="16.169363542036564" dx="0em" dy="0.3em" fill="rgb(50, 49, 63)" stroke="none" stroke-width="1px">1.8</text><text style="text-anchor: end; visibility: hidden; font-family: Roboto, sans-serif; font-size: 12px; font-weight: 200;" x="0" y="0" dx="0em" dy="0.3em" fill="rgb(50, 49, 63)" stroke="none" stroke-width="1px">1.9</text></g><line x1="41.149001121520996" y1="0" x2="41.149001121520996" y2="177.86299896240234" fill="rgb(0, 0, 0)" stroke="rgb(204, 204, 204)" stroke-width="1px"></line></g></g><g transform="translate(41, 0)" clip-path="url(#clip_0)"><clipPath id="clip_0"><rect width="288" height="177"></rect></clipPath><g><g><g><line x1="0" y1="0" x2="0" y2="177.86299896240234" fill="rgb(0, 0, 0)" stroke="rgb(60, 60, 60)" stroke-width="1px" opacity="0.25"></line><line x1="41.264428411211284" y1="0" x2="41.264428411211284" y2="177.86299896240234" fill="rgb(0, 0, 0)" stroke="rgb(60, 60, 60)" stroke-width="1px" opacity="0.25"></line><line x1="82.52885682242257" y1="0" x2="82.52885682242257" y2="177.86299896240234" fill="rgb(0, 0, 0)" stroke="rgb(60, 60, 60)" stroke-width="1px" opacity="0.25"></line><line x1="123.79328523363385" y1="0" x2="123.79328523363385" y2="177.86299896240234" fill="rgb(0, 0, 0)" stroke="rgb(60, 60, 60)" stroke-width="1px" opacity="0.25"></line><line x1="165.05771364484514" y1="0" x2="165.05771364484514" y2="177.86299896240234" fill="rgb(0, 0, 0)" stroke="rgb(60, 60, 60)" stroke-width="1px" opacity="0.25"></line><line x1="206.32214205605644" y1="0" x2="206.32214205605644" y2="177.86299896240234" fill="rgb(0, 0, 0)" stroke="rgb(60, 60, 60)" stroke-width="1px" opacity="0.25"></line><line x1="247.5865704672677" y1="0" x2="247.5865704672677" y2="177.86299896240234" fill="rgb(0, 0, 0)" stroke="rgb(60, 60, 60)" stroke-width="1px" opacity="0.25"></line><line x1="288.850998878479" y1="0" x2="288.850998878479" y2="177.86299896240234" fill="rgb(0, 0, 0)" stroke="rgb(60, 60, 60)" stroke-width="1px" opacity="0.25"></line></g><g><line x1="0" y1="177.86299896240234" x2="288.850998878479" y2="177.86299896240234" fill="rgb(0, 0, 0)" stroke="rgb(60, 60, 60)" stroke-width="1px" opacity="0.25"></line><line x1="0" y1="161.69363542036575" x2="288.850998878479" y2="161.69363542036575" fill="rgb(0, 0, 0)" stroke="rgb(60, 60, 60)" stroke-width="1px" opacity="0.25"></line><line x1="0" y1="145.5242718783292" x2="288.850998878479" y2="145.5242718783292" fill="rgb(0, 0, 0)" stroke="rgb(60, 60, 60)" stroke-width="1px" opacity="0.25"></line><line x1="0" y1="129.3549083362926" x2="288.850998878479" y2="129.3549083362926" fill="rgb(0, 0, 0)" stroke="rgb(60, 60, 60)" stroke-width="1px" opacity="0.25"></line><line x1="0" y1="113.18554479425606" x2="288.850998878479" y2="113.18554479425606" fill="rgb(0, 0, 0)" stroke="rgb(60, 60, 60)" stroke-width="1px" opacity="0.25"></line><line x1="0" y1="97.01618125221945" x2="288.850998878479" y2="97.01618125221945" fill="rgb(0, 0, 0)" stroke="rgb(60, 60, 60)" stroke-width="1px" opacity="0.25"></line><line x1="0" y1="80.84681771018289" x2="288.850998878479" y2="80.84681771018289" fill="rgb(0, 0, 0)" stroke="rgb(60, 60, 60)" stroke-width="1px" opacity="0.25"></line><line x1="0" y1="64.67745416814631" x2="288.850998878479" y2="64.67745416814631" fill="rgb(0, 0, 0)" stroke="rgb(60, 60, 60)" stroke-width="1px" opacity="0.25"></line><line x1="0" y1="48.508090626109706" x2="288.850998878479" y2="48.508090626109706" fill="rgb(0, 0, 0)" stroke="rgb(60, 60, 60)" stroke-width="1px" opacity="0.25"></line><line x1="0" y1="32.33872708407314" x2="288.850998878479" y2="32.33872708407314" fill="rgb(0, 0, 0)" stroke="rgb(60, 60, 60)" stroke-width="1px" opacity="0.25"></line><line x1="0" y1="16.169363542036564" x2="288.850998878479" y2="16.169363542036564" fill="rgb(0, 0, 0)" stroke="rgb(60, 60, 60)" stroke-width="1px" opacity="0.25"></line><line x1="0" y1="0" x2="288.850998878479" y2="0" fill="rgb(0, 0, 0)" stroke="rgb(60, 60, 60)" stroke-width="1px" opacity="0.25"></line></g></g></g><g><g><line x1="0" y1="307.217907298695" x2="288.850998878479" y2="307.217907298695" fill="rgb(0, 0, 0)" stroke="rgb(153, 153, 153)" stroke-width="1.5px"></line></g></g><g><g><line x1="41.264428411211284" y1="0" x2="41.264428411211284" y2="177.86299896240234" fill="rgb(0, 0, 0)" stroke="rgb(153, 153, 153)" stroke-width="1.5px"></line></g></g><g><g><g><g><g><path style="fill: none;" stroke="rgb(255, 112, 67)" stroke-width="2px" d="M41.6770726953234,190.0379363669938L41.759601552145824,177.83382976564036L42.33730354990278,175.0664520296752L42.74994783401489,193.54619663701874L42.91500554765974,202.97202056928626L43.16259211812701,129.6499160345063L43.32764983177185,152.16211001999343L43.41017868859427,99.25538332650623L43.57523640223912,94.55066321992409L43.74029411588397,115.09670022591432L43.987880686351225,134.36759132394286L44.152938399996074,131.13888015606818L44.730640397753035,108.91664237381379L45.060755825042726,75.23654572694043L45.14328468186515,110.04142778541883L45.225813538687575,137.28583392665493L45.47340010915484,117.77266036365619L46.21615982055664,75.36413427538794L46.29868867737906,49.921775275572365L46.38121753420148,42.80100592209789L46.62880410466875,50.51338179243453L46.87639067513602,80.74265421885808L47.20650610242571,60.36696480950917L47.5366215297154,64.09960379887922L47.619150386537825,101.1322593420281L47.701679243360246,147.9645180770983L47.86673695700509,176.0638221902312L48.03179467064994,146.9550690158753L48.11432352747236,88.92148470625445L48.27938124111721,76.04916773782656L48.36191009793963,76.72199100933275L48.52696781158448,93.9913537494993L48.69202552522932,98.9384148254278L49.26972752298627,124.26024084665531L49.51731409345354,86.16563942760503L49.59984295027596,77.35206766079509L49.76490066392081,145.51622772061185L50.0950160912105,128.68045495971555L50.507660375322615,120.7058834135708L50.59018923214504,109.76264007134684L51.58053551401411,98.61734100457545L51.66306437083653,96.55750263410772L51.99317979812622,86.49416792498324L52.24076636859349,90.77097218317365L52.40582408223834,107.81552767794031L52.570881795883174,102.3298011188428L53.313641507284984,98.38994128589039L53.80881464821952,114.10476214767104L54.221458932331636,142.3949912673786L54.30398778915405,138.73879767941628L54.55157435962132,129.5016790975141L54.71663207326616,138.98753386532L54.88168978691101,122.3661288985258L55.37686292784555,120.32125882242528L55.45939178466797,155.86538430338825L56.20215149606977,119.42594109995416L56.367209209714616,97.56227517790254L56.53226692335946,135.77184258148964L56.77985349382673,146.59723364266367L57.52261320522854,148.53149236277775L57.7701997756958,156.79198857855454L57.85272863251822,172.44956668035286L58.017786346163064,168.07254986862085L58.265372916630334,162.24371555373253L58.843074914387294,177.1314606985906L59.00813262803214,156.51485250633735L59.090661484854564,165.27243487540437L59.42077691214425,173.60892920428205L59.50330576896667,143.1607164445644L59.5858346257891,163.1512929869689L59.66836348261152,151.10879247462233L59.91595005307879,151.6821701183579L59.99847890990121,144.14603831672048L60.3285943371909,139.6243592357381L60.41112319401332,136.91135178714865L60.49365205083575,135.28354731799493L60.90629633494786,134.30686463650275L61.07135404859271,133.7208550276074L61.153882905415124,133.36924926227022L61.483998332704815,133.15828580306788L61.896642616816926,133.0317077275465L61.979171473639354,132.95576088223368L62.144229187284196,132.910192775046L62.309286900929045,132.88285191073336L62.391815757751466,132.8664473921458L62.47434461457389,132.85660468099326L62.72193118504115,113.35788161601376L62.886988898686,126.89668984759169L63.13457546915327,143.27140404430236L63.29963318279811,142.10979216792745L63.54721975326538,134.45448873502863L63.6297486100878,158.93988407728443L63.95986403737749,168.41332896642598L64.04239289419992,145.53317053880403L64.12492175102234,160.81798936312413L64.20745060784476,132.0042395717361L64.45503717831203,143.80267432515777L64.53756603513445,143.51250166705114L64.95021031924657,142.62001995305118L65.61044117382595,142.4282033005795L65.77549888747079,140.32263698687345L65.85802774429321,149.6502375662279L66.02308545793805,144.46568661360504L66.18814317158291,130.8898800730004L66.27067202840533,123.79210575844974L66.51825859887259,117.32632495834936L66.60078745569501,122.89202565052896L66.68331631251743,125.45006057343191L66.84837402616229,135.61531879372092L67.34354716709682,120.49406535439148L67.42607602391924,131.03986019994508L67.50860488074166,139.23340624993847L67.92124916485378,131.38102260866708L68.08630687849862,152.48577648919306L68.16883573532104,154.1488999737891L68.3338934489659,148.40348935502726L69.15918201719012,148.93986334127936L69.32423973083496,155.8966370776699L69.57182630130222,152.8333422724369L69.8194128717695,157.76680757889216L69.98447058541434,159.12978632011433L70.2320571558816,159.60341159418093L70.39711486952646,174.1068559066644L70.56217258317129,163.41174950831393L70.72723029681615,168.7293309111192L70.97481686728341,133.47721315131537L71.05734572410583,119.1193586221079L71.22240343775069,154.7194224431191L71.80010543550765,144.8165853212337L71.88263429233007,148.8454606211506L71.96516314915249,142.70763047197363L72.04769200597491,121.7863093519738L72.87298057419913,105.11638730685978L73.12056714466641,121.92592569757201L73.20309600148883,136.78036702075678L73.53321142877851,120.19013441091009L73.94585571289063,143.01874580607802L74.11091342653546,133.73661397089063L74.2759711401803,155.55295920253417L74.52355771064758,161.6519163177217L74.77114428111484,176.31732633600336L75.26631742204938,185.94545238408298L75.3488462788718,180.25029830475572L75.51390399251666,165.4687173680682L75.59643284933908,156.59976880605572L76.0916059902736,141.32700495736304L76.17413484709604,188.10353166477182L76.4217214175633,182.21388602496467L76.751836844853,176.41987489335747L76.83436570167542,166.91609823001073L76.91689455849784,167.98936851303262L76.99942341532027,157.92460230236645L77.41206769943238,156.18774215130236L77.65965426989963,156.2508379942449L77.74218312672205,144.11340342836434L77.82471198354447,142.08486478369915L78.2373562676566,121.76419438151932L78.65000055176871,157.33036719283544L78.81505826541355,155.5485314430504L78.89758712223598,174.61660422325772L78.9801159790584,137.2335648038987L79.06264483588082,128.39044233302585L79.22770254952567,140.77856895882312L79.88793340410506,129.1519689555342L80.21804883139474,113.75121689746722L80.30057768821717,131.03559763350975L81.12586625644138,130.91584538277243L81.5385105405535,150.5682934049854L81.70356825419834,123.89127816829574L81.78609711102077,137.8333093215924L81.86862596784319,125.6578698928632L81.95115482466561,118.01545664944109L82.2812702519553,104.3104007568305L82.69391453606742,114.46811839963287L82.77644339288985,120.56274898531433L83.02402996335711,121.20508867704085L83.43667424746923,130.88818185082093L83.51920310429165,108.66405891602476L83.84931853158133,108.53407861346139L83.93184738840377,89.31773958426953L84.01437624522619,106.7657919803137L84.17943395887103,108.90896851376661L84.42702052933828,112.85204000706298L84.75713595662798,108.5003732362083L84.8396648134504,147.08648435336718L85.1697802407401,154.81441713781754L85.25230909756252,164.80693075387077L85.66495338167464,158.59668018084926L85.83001109531948,159.16591024571127L86.2426553794316,148.5267288240213L86.32518423625402,136.4118851800101L86.40771309307644,131.9061360450863L86.6552996635437,145.28019904917502L86.73782852036612,145.8217055649256L86.82035737718854,139.79489646854208L87.06794394765582,86.28094982091436L87.15047280447824,152.39600347756877L87.23300166130066,150.55046278231333L87.31553051812308,154.1426117665794L87.72817480223519,145.72503338903988L87.89323251588003,176.3137874627409L87.97576137270245,184.86855681201507L88.05829022952489,164.79573971974818L88.1408190863473,151.8180029354288L88.38840565681457,147.3183071849226L88.55346337045941,126.07770661308219L88.80104994092669,130.33828997239618L88.88357879774911,130.7703154034087L89.29622308186123,155.66314682504972L89.37875193868365,127.28612624216174L89.62633850915091,84.96096546538548L89.79139622279575,67.40078806235087L90.20404050690787,119.24351547721407L90.36909822055271,134.05057006883607L90.61668479101999,133.0682544949889L90.78174250466483,128.7735273584422L90.86427136148725,90.00848488311239L90.94680021830968,94.89585227298704L91.02932907513211,117.53771075896326L91.19438678877695,107.08874735781637L91.27691564559936,91.14875526060293L91.4419733592442,103.6129996922119L91.60703107288904,75.9126454936948L91.68955992971148,99.26002527310703L91.7720887865339,92.80644629448615L92.01967535700116,66.84303642380104L92.26726192746844,80.2925074127496L92.67990621158054,100.80115004733915L93.01002163887024,135.21599453752566L93.09255049569266,141.27872516051136L93.2576082093375,161.26737057937916L93.50519477980478,118.53195402342944L93.83531020709447,118.24984568419502L93.91783906391689,117.75952218453494L94.08289677756174,95.70336625128901L94.16542563438416,102.92746979387437L94.24795449120658,110.9450721801367L94.330483348029,137.37295682336196L94.6605987753187,111.9719206531318L94.74312763214111,144.41152342515983L94.90818534578595,96.47726090083873L94.99071420260837,102.88513385546386L95.32082962989807,79.32281448944521L95.98106048447745,129.30020546597657L96.31117591176714,132.05524191682625L96.39370476858957,128.04123938552584L96.64129133905683,119.83359975509505L96.72382019587926,106.15133804936718L96.80634905270168,146.91744187342113L96.97140676634652,120.3003027029571L97.05393562316895,132.8716923632036L97.2189933368138,109.5191744802109L97.38405105045864,137.892574171398L97.46657990728106,116.43272504967673L97.63163762092591,100.81594857852869L97.79669533457076,138.79782040511023L98.044281905038,104.69022143812049L98.29186847550528,102.02994048977484L98.62198390279497,104.6891597639571L98.70451275961739,107.82715376932225L99.28221475737435,118.38247716628815L99.4472724710192,116.48948498880874L99.52980132784162,133.21632626496128L99.94244561195373,156.45930692635577L100.27256103924343,107.56136234927988L100.43761875288827,126.91375611055568L100.76773418017797,76.94234703350833L101.18037846429009,68.31446755524485L101.59302274840218,9.359481854181526L101.6755516052246,-30.390825774902247L102.0056670325143,-10.809054737285589L102.17072474615914,52.12918617796101L102.33578245980398,81.65127594468014L102.41831131662641,101.49583207807952L102.58336903027126,108.53875429287962L102.83095560073852,57.40174370051928L102.91348445756094,119.17736027779912L102.99601331438338,116.04449639799344L103.16107102802822,140.10642175089455L103.32612874167306,131.26084905988836L103.40865759849548,126.75197663753814L103.57371531214034,128.46253557968726L103.73877302578518,129.77753137667185L104.06888845307486,145.85244374937372L104.23394616671972,132.31422833567956L104.5640615940094,119.21024703021102L104.64659045083182,77.91875356434296L104.8941770212991,84.8683860419778L105.05923473494393,84.22688333816994L105.30682130541119,120.41983592970894L105.47187901905605,149.21052131052966L105.63693673270089,123.43836759718289L105.88452330316815,102.42805950443378L106.13210987363543,90.41735292334054L106.21463873045785,116.08083165428039L106.62728301456997,139.15210977896797L107.03992729868207,123.2589123008144L107.37004272597177,73.80294232102571L107.45257158279419,103.9324709665677L107.53510043961661,106.62501660008465L107.70015815326146,84.36500551595473L107.78268701008389,107.53813262021026L107.86521586690631,126.22411585283298L108.2778601510184,101.70091829787843L108.52544672148568,125.44023313157446L108.6079755783081,132.0767688412019L108.69050443513052,133.35723757284626L108.77303329195294,120.59658981022676L108.9380910055978,137.01325061555255L109.18567757606506,74.55671183185827L109.43326414653232,124.31215603602706L110.17602385793414,127.5135812313243L110.4236104284014,121.34892188092131L111.00131242615836,87.16228318222244L111.08384128298079,98.41388815708726L111.1663701398032,96.23743418828691L111.4964855670929,131.03397712395687L111.66154328073775,88.96535501637281L111.82660099438257,96.03482074720019L111.90912985120502,89.41661039349162L112.23924527849469,129.42495023030344L112.73441841942923,154.93990671159824L112.89947613307407,141.8295945572314L113.14706270354135,137.0236750758734L113.22959156036377,142.9334916144376L113.47717813083104,134.39309933141L113.72476470129831,130.4110923414622L113.88982241494315,140.8474853942483L114.054880128588,141.28468972417392L114.46752441270012,168.50341627233627L114.55005326952254,157.5192018292959L114.7976398399898,134.94234866223323L115.1277552672795,164.367866723316L115.29281298092432,143.9098925651517L115.62292840821402,108.01881580263463L115.70545726503644,87.17499948630025L115.9530438355037,108.7057522614747L116.11810154914856,91.43660963031954L116.20063040597098,120.40055309698981L116.44821697643825,153.17586799005971L116.53074583326067,114.78297373752801L116.77833240372794,126.19351927109714L116.86086126055037,115.23764990079798L116.94339011737279,81.53882185380137L117.43856325830733,91.8291030363861L117.85120754241943,134.65037084709883L118.01626525606429,149.7652290352824L118.09879411288671,174.91795948360837L119.25419810840062,154.3534538223614L119.33672696522304,147.4004159109615L119.50178467886788,162.97654728728958L120.07948667662484,144.79611507593347L120.16201553344726,163.32655128416292L120.24454439026968,109.20440584835283L120.57465981755938,103.94962534551577L120.6571886743818,131.5042315609217L120.9873041016715,110.82491928114457L121.31741952896118,141.16451545517344L121.3999483857836,103.5693342974694L121.56500609942846,122.09575080319945L121.7300638130733,101.07614025070593L121.81259266989572,121.93284664485977L121.89512152671814,127.63753288798603L121.97765038354055,121.46790382226708L122.63788123811993,102.10517035344574L122.96799666540963,113.1985657234633L123.13305437905447,109.76067062879761L123.38064094952175,47.06923513695768L123.79328523363385,37.62214697219722L124.28845837456839,40.04802849238025L124.37098723139081,79.88539475103285L124.45351608821325,57.55114277051816L124.61857380185809,103.03498347154763L124.86616037232535,147.01763113670145L125.69144894054958,165.97386473520453L125.85650665419442,131.46403119701264L126.02156436783926,95.58468804174495L126.26915093830654,77.42414467224742L126.5167375087738,89.93676947397427L126.68179522241864,88.91896563816469L126.76432407924106,69.72272735457301L127.17696836335318,39.05449004522013L127.2594972201756,76.17568045082768L127.50708379064288,84.67237840781534L127.5896126474653,94.1933574983529L127.67214150428772,71.0594238914732L127.91972807475499,43.44005617710297L128.0022569315774,89.71026411451318L128.3323723588671,88.2422414251104L128.49743007251195,98.70587761197368L128.99260321344647,111.02831068925877L129.1576609270913,84.7159407387511L129.4052474975586,104.52505550305261L129.7353629248483,66.63466092847233L130.06547835213797,38.699563364293745L130.23053606578281,67.02030353011143L130.56065149307253,79.56314873339366L130.64318034989495,94.27671571785056L131.05582463400705,116.03819869342749L131.2208823476519,121.23989171240221L132.21122862952097,56.129812830786655L132.54134405681066,62.07991225027036L132.62387291363308,68.47551180429011L132.7064017704555,61.11695013054977L132.95398834092276,69.39863924669596L133.1190460545676,34.34489427056078L133.36663262503487,72.14773274347218L133.69674805232458,75.02885219720655L133.86180576596942,95.94820352796435L133.9443346227918,96.53249978661835L134.27445005008153,50.67617470823266L134.35697890690395,32.2511315740065L134.6045654773712,24.872391627843676L134.9346809046609,43.719679669869805L135.01720976148331,54.922986235230546L135.18226747512819,93.7813018777083L135.34732518877303,74.71823131347388L135.5949117592403,90.71094037132572L136.0075560433524,87.068710514128L136.17261375699724,81.40830624786065L136.33767147064208,62.5151103308593L136.58525804110937,46.91075164782813L136.99790232522147,72.63553319539956L137.0804311820439,76.0525321085514L137.24548889568874,33.13352412165328L137.41054660933358,41.595732116617484L137.493075466156,26.097294464634622L137.57560432297845,36.2092754251825L137.82319089344568,48.865507093037074L138.23583517755782,40.40743154986024L138.40089289120266,50.915638863781126L138.48342174802508,41.53936807017018L138.81353717531476,71.02124921412062L139.22618145942687,84.33248343054295L139.55629688671658,80.96751890557834L139.88641231400626,124.05333828240133L139.96894117082869,48.54241207602931L140.3815854549408,44.9834994674141L140.54664316858566,62.63420960332468L140.7117008822305,99.63087778690304L140.87675859587534,28.467001731970264L141.12434516634258,16.671626134288797L141.20687402316503,31.60518467840692L141.5369894504547,61.472757631137156L142.03216259138924,48.02176679696183L142.19722030503408,68.78588140270924L142.36227801867895,88.48627362401497L142.5273357323238,67.84680185633246L142.6098645891462,71.40917316595512L143.02250887325832,42.61502582717326L143.43515315737042,51.88506576634571L143.6827397278377,52.56024032636595L143.84779744148256,46.5061949245307L144.0128551551274,43.7175283165276L144.09538401194982,25.324822236897585L144.26044172559466,26.94191492212973L144.4254994392395,48.102340502476565L144.6730860097068,33.02986170755717L144.8381437233516,36.896625306191105L144.92067258017403,65.50334108876912L145.00320143699645,75.78086975010966L145.0857302938189,82.44347363448917L145.66343229157584,86.26218353759388L145.8284900052207,58.16629183451219L146.07607657568795,81.3879073201709L146.15860543251037,93.3232992380972L146.24113428933282,61.13013058715769L146.73630743026735,80.3617964896387L147.14895171437945,88.157670777265L147.3965382848467,54.75625137809817L147.47906714166913,67.6463822531224L148.13929799624853,84.70462680352392L148.22182685307092,90.15594766348322L148.30435570989337,70.22973376178324L148.38688456671576,55.164739584889894L148.5519422803606,38.34118673747902L148.96458656447274,43.326195175622516L149.12964427811758,18.575305139231958L149.21217313494,44.29841231073472L149.8724039895194,72.60827898799096L149.95493284634182,81.45264713213312L150.2850482736315,66.6822368398352L150.45010598727637,84.8569078911392L150.61516370092122,99.36376309973153L150.6976925577436,97.5507104597468L150.86275027138845,98.35402529222495L151.19286569867816,96.98903924384992L151.27539455550055,100.60010898241568L151.4404522691454,105.01117646904056L151.6055099827903,84.79134481794054L151.6880388396127,77.34100468736476L151.85309655325753,86.50611430670514L151.93562541007995,82.28849785545002L152.01815426690237,93.15145127297117L152.1006831237248,73.29030600496444L152.43079855101448,57.782668887190795L152.51332740783693,89.82554193166771L152.76091397830416,57.044330667329014L152.8434428351266,64.25099342248853L152.92597169194903,79.21855709493015L153.2560871192387,43.60705324573582L153.33861597606113,0.4555212518870188L153.503673689706,-14.620041998032331L153.91631797381808,9.169449243971105L154.57654882839748,63.81262032150204L154.82413539886477,45.75590584624483L154.98919311250958,9.614863913631082L155.15425082615442,6.546141899798983L155.23677968297687,37.203212819692475L155.56689511026656,78.31732665869104L155.7319528239114,40.75855814079684L155.97953939437866,56.632975740390926L156.06206825120108,82.72552766943147L156.22712596484592,16.43596061096376L156.80482796260287,2.1945782756344294L156.96988567624774,13.766957662385941L157.05241453307016,20.11852308180713L157.38252996035985,4.2987179616909L157.46505881718227,65.99756447221154L157.71264538764956,80.61602410709348L157.79517424447195,72.96727972419639L157.8777031012944,63.538362119392914L158.04276081493924,78.76037671438162L158.12528967176164,50.303704237495296L158.2903473854065,78.06756562364232L158.45540509905135,51.74233259691351L158.53793395587374,73.93433195654542L158.86804938316345,93.27081439062823L159.11563595363071,102.69342129334241L159.44575138092043,101.32719920560717L159.52828023774282,108.3019298413102L159.7758668082101,113.14151444617683L159.94092452185495,112.07580069315902L160.1059822354998,87.30993016642358L160.18851109232222,109.00213235446452L160.27103994914464,102.21384765715894L161.01379966054643,90.612976082593L161.1788573741913,102.63928405165016L161.42644394465853,103.75788726509182L161.59150165830337,118.5049518945229L161.75655937194827,112.55577181926147L162.33426136970522,113.41998746454193L162.4167902265276,105.66271579917111L162.6643767969949,77.42723425196458L162.7469056538173,82.51046871965758L162.82943451063974,69.12580116230001L163.24207879475185,80.85372583529926L163.4896653652191,78.20466216014486L163.65472307886398,54.96418038785862L163.90230964933122,84.14998806784283L163.98483850615366,110.61397075843699L164.06736736297606,90.16583402808931L164.39748279026577,87.97827049565778L164.4800116470882,95.7339367302961L164.64506936073303,100.22828371738811L164.8101270743779,115.07374972049001L164.8926559312003,125.54163375406623L165.22277135848998,113.7715458784816L165.3053002153124,88.66750298299924L165.63541564260208,77.41529625412252L165.71794449942453,72.00292515967976L165.88300221306937,71.0054717467664L166.04805992671422,81.29533224697336L166.46070421082632,49.49458439956701L166.54323306764877,56.254760942567486L166.7082907812936,41.819166583129366L166.95587735176085,51.7600044605262L167.53357934951782,72.46618163108198L167.69863706316266,60.278615794823L168.02875249045238,42.55692977651983L168.11128134727477,39.80566098993248L168.44139677456448,25.978508949479963L168.52392563138687,43.63363017030177L169.01909877232143,47.70200104106936L169.2666853427887,57.455032315441706L169.3492141996111,37.25184501440887L169.43174305643353,51.15085982158829L169.5968007700784,46.975695190660886L169.6793296269008,52.41724330749466L169.76185848372324,63.15595536733434L169.84438734054564,62.547923527853456L170.17450276783535,52.714195689725514L170.25703162465777,47.43011589272009L170.4220893383026,54.668529255390304L170.50461819512503,58.216367475610745L170.66967590876988,42.57051461710273L170.91726247923717,37.28652385442931L170.99979133605956,23.2188222303577L171.32990676334927,42.97847268267632L171.4124356201717,58.07649038465716L172.0726664747511,13.88312217589125L172.4853107588632,-11.67986211268004L172.98048389979772,-3.6275300569058966L173.0630127566201,17.352507826359922L173.14554161344256,35.58069278381879L173.55818589755467,55.52409604488723L173.88830132484435,63.47117430101073L174.3834744657789,25.198307391272092L174.7135898930686,8.006438892339926L175.04370532035827,2.682123194234781L175.2087630340031,-13.408646070329478L175.62140731811522,-2.2033032943781015L176.03405160222735,15.122226944312006L176.44669588633946,29.007946934510503L177.02439788409643,26.943085237735094L177.51957102503096,38.89216965994429L177.6846287386758,41.05171686213961L177.84968645232067,25.989992450170448L178.0147441659655,15.323709875897876L178.0972730227879,7.760871406929868L178.3448595932552,4.833865623652722L179.08761930465698,28.250179485910675L179.9954367297036,20.68247882350036L180.07796558652606,30.451293962581847L180.32555215699333,26.647497169465453L180.40808101381575,18.153056008525287L180.73819644110543,20.12583092897195L180.82072529792785,14.408985724376107L180.9857830115727,18.566440524511325L181.39842729568483,4.738580419866892L181.6460138661521,5.486660685572459L182.05865815026422,3.205189336678834L182.14118700708661,1.403196372422856L182.22371586390906,-14.226241522719121L183.70923528671264,-25.278333500508122L184.20440842764717,50.70168201435219L184.28693728446962,103.11608763094631L184.69958156858172,71.3388250002521L185.0296969958714,61.87857062518662L185.44234127998354,24.894114362050193L186.10257213456288,26.312917096215322L187.42303384372167,19.213079952374557L187.5055627005441,16.65152398758548L187.9182069846562,36.105390413114236L188.99108212334767,70.68861602532779L189.07361098017012,74.82917710844119L189.48625526428222,57.10312776698828L189.65131297792706,76.07144155907649L189.8163706915719,51.875361236960714L189.89889954839435,57.96563454232282L189.98142840521675,81.18198421361991L190.31154383250643,80.7229901611689L190.4766015461513,74.05629294143064L190.64165925979614,90.62438858641465L190.80671697344098,61.36391955654575L191.05430354390828,57.05467622318656L191.13683240073067,67.8153131698067L191.3018901143755,65.6338948747715L191.46694782802035,82.19355561725189L191.5494766848428,96.11500019058332L191.63200554166522,87.78769802220361L191.71453439848764,104.54525228497646L191.87959211213249,117.45561022737306L191.9621209689549,104.88994254264142L192.04464982577733,106.04933741805128L192.2922363962446,85.34855088070839L192.952467250824,99.31461390834309L193.28258267811367,93.6120806688751L193.3651115349361,79.413285226256L193.61269810540335,69.41951052170889L194.1078712463379,45.6122594337081L194.1904001031603,76.89135305556186L194.35545781680514,74.29003437603909L194.76810210091728,50.853086253440736L194.93315981456212,34.43235833618841L195.01568867138454,72.19818341251474L195.34580409867422,80.5278341458354L195.42833295549667,82.70784109777979L195.84097723960878,45.27769860511614L196.00603495325362,61.899697364770184L196.088563810076,1.3945543679464667L196.25362152372085,22.265501718738175L196.9963812351227,77.99735014759011L197.0789100919451,51.515336964137404L197.24396780558993,24.279929048747785L197.40902551923477,40.84150933396273L197.65661208970207,12.557924277021487L197.7391409465245,41.150870560609754L198.4819006579263,7.256517851573199L198.97707379886083,50.70616689772061L199.55477579661778,49.07011390325002L199.88489122390746,98.6566023483731L199.96742008072988,106.50658658833545L200.29753550801956,106.73609907189234L201.04029521942138,105.39381178370421L201.3704106467111,108.1265825273891L201.45293950353349,123.57635555814075L201.53546836035594,125.31123298947004L201.94811264446804,109.72218363427133L202.44328578540257,97.94110429318783L202.69087235586986,97.74198744919569L202.77340121269225,96.29581583360827L202.8559300695147,107.57569849979798L203.10351663998196,94.57684578183543L203.2685743536268,81.84096196854745L203.43363206727165,88.06939618565937L203.51616092409407,68.69728436534339L203.5986897809165,52.96799052087999L203.92880520820617,57.304287077944366L204.093862921851,75.47455317231042L204.34144949231828,50.21971733633498L204.42397834914073,42.67923529207932L204.50650720596312,34.14753988489699L204.83662263325283,20.090257501088956L205.33179577418736,1.3592404019515982L205.90949777194433,50.46576455718644L205.99202662876675,88.4835544939965L206.07455548558917,112.38529996839883L206.48719976970128,105.30237541249129L206.56972862652373,94.4602313808621L206.73478634016854,111.44314845171114L207.3950171947479,62.505436510012764L207.56007490839275,36.153338956921836L207.72513262203762,13.119139364785626L207.80766147886004,47.32050796464774L208.0552480493273,47.02369145450503L208.63295004708428,23.93142668649784L208.88053661755154,44.69093241402739L209.04559433119638,46.39976148631057L209.21065204484123,51.36745309716662L209.62329632895336,69.08729067902895L210.03594061306543,63.93042598648554L210.11846946988786,36.6741437555117L210.2009983267103,69.23351023972165L210.531113754,87.31146395605975L210.61364261082238,52.983460742153405L211.10881575175694,39.47724738149052L211.27387346540178,73.23317558833425L211.43893117904662,32.67613613929925L211.6865177495139,77.0237041776157L211.7690466063363,91.9681476620462L211.85157546315875,104.04211349947076L211.93410431998117,98.80841935270303L212.18169089044844,90.72694290888816L212.34674860409328,61.14167995556581L212.75939288820538,49.399615249411795L213.00697945867267,67.68194494204013L213.1720371723175,118.30912567377442L213.50215259960717,162.00661881471478L213.58468145642962,116.18941591705126L213.99732574054173,90.80431300299965L214.3274411678314,99.15053785633214L214.5750277382987,51.93354897530911L214.6575565951211,69.9681392906535L214.82261430876594,63.44326123086447L215.15272973605565,7.04647698736791L215.23525859287807,30.034395557271733L215.4003163065229,66.78935581657676L215.48284516334533,48.58392039900097L215.97801830427986,89.10316475251017L216.0605471611023,131.430641216386L216.22560487474715,101.67217493701918L216.39066258839196,44.684897987577585L216.63824915885925,23.97841503330235L216.7207780156817,10.600231869051015L216.88583572932654,15.553349734005923L217.13342229979378,42.66022099813467L217.4635377270835,58.86773581063299L217.62859544072833,71.41810842690265L217.71112429755073,82.10233985249369L217.8761820111956,70.91889470893061L217.95871086801802,79.0145348905763L218.53641286577496,92.48335073807525L218.7014705794198,84.62792287206305L218.9490571498871,72.84892740905842L219.11411486353194,84.88688923267628L219.19664372035436,74.74447341877361L219.27917257717678,92.72316045604379L219.77434571811133,64.94012231417204L220.59963428633552,60.840440019559274L220.76469199998036,49.16910995801379L221.1773362840925,61.00990360573633L221.34239399773733,74.27142299305994L221.67250942502704,91.95928834218527L221.75503828184944,103.51256916021012L221.8375671386719,71.55685256275159L222.00262485231673,40.7869124700826L222.16768256596157,72.53345168320715L222.250211422784,71.21499739695437L222.58032685007367,78.00183363608697L223.0754999910082,80.45802601779063L223.24055770465307,98.59983625902754L223.4056154182979,94.4524363951691L223.7357308455876,126.28401709049689L224.47849055698939,120.97376106839515L224.56101941381183,120.81650265236888L224.64354827063423,119.5030644141786L224.9736636979239,84.83041947885643L225.38630798203604,100.60487177516751L225.46883683885846,56.29797755196661L225.5513656956809,38.88547707948568L225.8814811229706,53.873950068578274L225.964009979793,81.52394731349895L226.21159655026028,61.12954277003763L226.37665426390512,11.20585545742167L226.6242408343724,36.15737223029251L227.03688511848452,39.24417572928987L227.20194283212933,69.5965159024328L227.36700054577418,46.07806421491521L227.44952940259662,59.17032637923855L227.8621736867087,25.657295296315425L228.02723140035357,60.57721127379173L228.43987568446568,60.40568453683342L228.68746225493294,111.51599341313037L228.85251996857778,95.06782555039109L229.01757768222262,68.86754783812916L229.43022196633476,81.9800625466906L229.67780853680202,90.37050481340681L229.84286625044686,97.00407957502551L230.0079239640917,91.70106100218537L230.09045282091415,117.8154733246369L230.3380393913814,77.0519970764166L230.4205682482038,78.6866123329243L230.50309710502626,75.15801348176342L230.7506836754935,63.43457363418854L230.83321253231594,64.4507194009834L230.91574138913833,55.585885134973886L231.57597224371773,97.53149685567436L231.65850110054018,101.1739121689723L231.74102995736257,120.98808345183825L231.9060876710074,77.08924343009197L231.98861652782986,63.93745511765683L232.31873195511955,81.82534928520941L232.4837896687644,81.326898138114L233.22654938016618,91.5555329946419L233.63919366427828,56.99308109914385L233.72172252110073,19.938967070300205L233.80425137792312,74.82001769977356L233.96930909156802,102.25411908172386L234.3819533756801,80.31646643060546L234.46448223250252,63.6236731812988L234.54701108932497,66.02441278450671L234.62953994614736,53.90258884169096L234.7945976597922,55.27595344123356L234.95965537343704,57.1988540986305L235.28977080072676,67.76340722193035L235.61988622801644,54.83838260383432L235.70241508483886,29.20876509231972L235.86747279848373,37.37915993792862L236.11505936895097,38.86900633001957L236.2801170825958,63.1084875280693L236.85781908035278,32.87032563879037L237.2704633644649,37.61323000277487L237.51804993493215,47.313854090437L237.93069421904428,19.190586775878476L238.17828078951155,27.561942987405352L238.26080964633397,21.322019119139973L238.3433385031564,25.821205641081242L238.67345393044607,35.43556088620854L239.00356935773576,57.79730302436738L239.1686270713806,48.75723904675462L239.82885792596,42.201959248858074L239.91138678278242,59.0840080520246L239.99391563960484,74.94783351979355L240.32403106689452,74.84970170175306L240.65414649418423,83.25795882928287L240.98426192147392,62.67178043133738L241.0667907782963,80.76787765462181L241.39690620558602,84.77837238283568L241.47943506240844,84.14273615319519L241.56196391923086,68.90084337753498L241.64449277605328,85.79158488730563L241.974608203343,73.31873445533444L242.22219477381023,77.95560116446904L242.46978134427752,97.76642758502769L242.63483905792236,93.14560074303877L242.7998967715672,121.72528675872194L243.13001219885692,118.71403115758397L243.54265648296902,116.23668720829883L243.62518533979144,98.631804308876L243.70771419661386,102.79466609741556L243.8727719102587,116.6270410762754L243.9553007670811,105.29063299060392L244.120358480726,85.18151062642671L244.28541619437084,110.073338909269L244.36794505119323,88.0406714995144L244.45047390801565,71.96343378288893L245.11070476259502,94.09927623690531L245.27576247623986,119.90242158010588L245.52334904670715,90.44781948702582L245.60587790352957,95.127486739499L245.688406760352,103.9400162100198L245.77093561717442,135.98734049705513L245.93599333081926,32.26801814732911L246.1010510444641,6.432465824903506L246.3486376149314,40.72856316356094L246.43116647175378,-31.98876210776128L246.7612818990435,-20.919512799309476L246.84381075586592,15.337707325984123L246.92633961268834,22.30475168975698L247.17392618315563,73.49965077880611L247.83415703773497,82.93720689767186L249.31967646053857,94.97021623302996L249.40220531736102,61.734638973163904L249.81484960147313,127.986721958462L249.89737845829555,103.04755103107905L250.06243617194042,73.21788589435953L250.22749388558526,25.24721959808464L250.31002274240765,12.697930910347864L250.55760931287494,-2.752329111316855L250.8877247401646,-37.321703406726854L250.97025359698705,36.14589869059462L251.1353113106319,44.28460472071053L251.30036902427673,59.42971863627971L251.38289788109915,40.393046541124235L251.79554216521126,76.6644945262885L251.87807102203368,69.17596668287428L252.12565759250097,45.79022942695117L252.20818644932336,72.84815271492091L252.53830187661308,78.80528767734599L252.6208307334355,68.12670251348554L252.70335959025792,85.38396274991581L253.19853273119244,69.82130915097893L253.36359044483729,106.65619784551319L253.44611930165973,58.69722268761412L253.52864815848213,44.556664731710875L254.60152329717366,45.496882180320526L254.68405215399605,36.09743589569024L254.84910986764092,58.61699840533123L255.261754151753,45.29998511503586L255.67439843586513,26.19357872046269L255.83945614950997,5.393032148966269L256.3346292904445,11.066923368527707L256.49968700408937,24.083899513665965L256.6647447177342,38.541347660306265L256.82980243137905,46.65742411140225L256.9123312882015,64.4789942365635L257.0773890018463,64.36498443243417L257.4900332859584,63.405639488440556L257.57256214278084,67.79759952106747L257.65509099960326,66.92360718037764L257.7376198564257,47.45514137270898L257.98520642689294,55.569564527055135L258.0677352837154,70.49371562183278L258.3153218541826,63.27747803951783L258.39785071100505,16.03960635189248L258.4803795678275,-9.082045890916557L258.5629084246499,49.034541894761816L258.8930238519396,19.139769172125536L258.97555270876205,23.365510071108844L259.38819699287416,45.47734240107032L259.553254706519,44.87380651061998L259.9658989906311,79.1810526387949L260.0484278474535,91.63899119468999L260.21348556109837,82.88374271985018L260.3785432747432,64.22400163672461L260.46107213156563,62.58584042709108L260.62612984521047,87.73711762168143L260.7911875588553,63.355730674605994L261.2038318429674,55.20234019826065L261.4514184134347,63.63102993268993L261.6164761270795,75.46504451952866L261.699004983902,95.49528793675529L262.0291204111917,97.99259736976332L262.4417646953038,97.21805294910577L263.01946669306074,106.02707562926845L263.10199554988316,104.36430720226905L263.51463983399526,110.20772644082402L263.6796975476401,117.75140025560906L264.0923418317522,85.37250829154105L264.1748706885747,69.82445967532384L264.25739954539705,130.78509713131695L264.3399284022195,144.58219387604785L265.0826881136213,130.74808674962384L265.4953323977334,121.96714884675089L265.7429189682007,126.41947807162175L265.8254478250231,139.66737100179992L266.5682075364249,117.10827895393714L266.73326525006973,142.65328577798647L266.980851820537,144.19721108556016L267.14590953418184,106.4849808166291L267.6410826751164,127.71625636943251L268.21878467287337,113.68194592245673L268.3838423865182,94.64231192261445L268.46637124334063,92.33156270844917L268.6314289569855,98.1813002837064L268.87901552745274,44.989510776423984L269.2091309547424,73.15218336820057L269.4567175252097,76.89203241462864L269.5392463820321,18.5556863010142L269.70430409567695,7.363256271092021L269.8693618093218,17.6832741628678L269.95189066614427,19.098004483868028L270.4470638070788,6.922373588987695L270.5295926639012,9.97767554457796L270.69465037754605,2.1305509986315756L270.8597080911909,2.04773605529085L271.10729466165816,12.91366586998718L271.6849966594151,37.58499109249536L272.0151120867048,72.76698602516767L272.0976409435272,61.351055233034195L272.3452275139945,66.39111608213258" fill="none"></path></g></g></g></g><g opacity="0.2"><g><g><g><path style="fill: none;" stroke="rgb(255, 112, 67)" stroke-width="2px" d="M41.6770726953234,190.0379363669938L41.759601552145824,170.5113658048283L42.33730354990278,172.40976940314863L42.74994783401489,215.2783762952548L42.91500554765974,215.2783762952548L43.16259211812701,28.219049505273095L43.32764983177185,184.35490761434377L43.41017868859427,22.11686790282559L43.57523640223912,87.61211490754893L43.74029411588397,145.60517066247303L43.987880686351225,163.09914240706416L44.152938399996074,126.31338390785196L44.730640397753035,75.65584516243837L45.060755825042726,24.782383572140542L45.14328468186515,162.2078390408018L45.225813538687575,178.13322827248723L45.47340010915484,88.51115734024775L46.21615982055664,11.762112663165347L46.29868867737906,11.762112663165347L46.38121753420148,32.12050275841052L46.62880410466875,62.081522632917434L46.87639067513602,126.08556815140781L47.20650610242571,29.803832977929307L47.5366215297154,69.69851806626701L47.619150386537825,156.68097944448562L47.701679243360246,218.21270646151277L47.86673695700509,218.21270646151277L48.03179467064994,103.29198394313426L48.11432352747236,1.8711616989563578L48.27938124111721,56.74069939951864L48.36191009793963,77.73122569347652L48.52696781158448,119.89539442372404L48.69202552522932,106.35900584874088L49.26972752298627,162.24297806474607L49.51731409345354,29.023738936212535L49.59984295027596,64.13171023784739L49.76490066392081,247.76246675572588L50.0950160912105,103.42679597465724L50.507660375322615,108.74402613877034L50.59018923214504,93.34777509458183L51.58053551401411,81.899392426766L51.66306437083653,93.46774508088426L51.99317979812622,71.39916586856071L52.24076636859349,97.18617856860692L52.40582408223834,133.38236091566102L52.570881795883174,94.10121128105177L53.313641507284984,92.48015153683048L53.80881464821952,137.67699343945986L54.221458932331636,184.83033494598726L54.30398778915405,133.25450729754664L54.55157435962132,115.64600122477283L54.71663207326616,153.2163160169597L54.88168978691101,97.43402144840712L55.37686292784555,117.25395370827985L55.45939178466797,209.1815725247768L56.20215149606977,64.7667762948374L56.367209209714616,64.7667762948374L56.53226692335946,193.08619368685729L56.77985349382673,162.83532023442257L57.52261320522854,151.4328804429486L57.7701997756958,169.18273290221913L57.85272863251822,195.9359338330497L58.017786346163064,161.50702465102296L58.265372916630334,153.50046408140008L58.843074914387294,199.46307841587756L59.00813262803214,125.58994021795762L59.090661484854564,178.4088084290048L59.42077691214425,186.11367069759854L59.50330576896667,97.48839730498797L59.5858346257891,193.13715780057575L59.66836348261152,133.0450417061025L59.91595005307879,152.5422365839613L59.99847890990121,132.8418406142644L60.3285943371909,132.8418406142644L60.41112319401332,132.8418406142644L60.49365205083575,132.8418406142644L60.90629633494786,132.8418406142644L61.07135404859271,132.8418406142644L61.153882905415124,132.8418406142644L61.483998332704815,132.8418406142644L61.896642616816926,132.8418406142644L61.979171473639354,132.8418406142644L62.144229187284196,132.8418406142644L62.309286900929045,132.8418406142644L62.391815757751466,132.8418406142644L62.47434461457389,132.8418406142644L62.72193118504115,84.10979701854457L62.886988898686,147.20490219495855L63.13457546915327,167.8334753393684L63.29963318279811,140.3673743533651L63.54721975326538,122.97153358568043L63.6297486100878,195.6679770906681L63.95986403737749,182.6234963001383L64.04239289419992,111.21293289737116L64.12492175102234,183.74521759960427L64.20745060784476,88.78361488465403L64.45503717831203,161.5003264552903L64.53756603513445,143.07724267989116L64.95021031924657,141.28129738205132L65.61044117382595,142.14047832187202L65.77549888747079,137.1642875163143L65.85802774429321,163.64163843525958L66.02308545793805,136.6888601846708L66.18814317158291,110.52617026209339L66.27067202840533,113.14544428662373L66.51825859887259,107.6276537581988L66.60078745569501,131.24057668879834L66.68331631251743,129.28711295778635L66.84837402616229,150.86320612415443L67.34354716709682,97.81218519539733L67.42607602391924,146.85855246827555L67.50860488074166,151.5237253249286L67.92124916485378,119.60244714676001L68.08630687849862,184.14290730998206L68.16883573532104,156.6435852006831L68.3338934489659,139.78537342688452L69.15918201719012,149.74442432065752L69.32423973083496,166.3317976822557L69.57182630130222,148.23840006458738L69.8194128717695,165.16700553857498L69.98447058541434,161.17425443194762L70.2320571558816,160.3138495052808L70.39711486952646,195.86202237538959L70.56217258317129,147.36908991078823L70.72723029681615,176.70570301532717L70.97481686728341,80.59903651160955L71.05734572410583,97.58257682829672L71.22240343775069,208.1195181746359L71.80010543550765,129.96232963840555L71.88263429233007,154.888773571026L71.96516314915249,133.5008852482082L72.04769200597491,90.40432767197409L72.87298057419913,80.11150423918878L73.12056714466641,147.14023328364033L73.20309600148883,159.062029005534L73.53321142877851,95.30478549614004L73.94585571289063,177.26166289882985L74.11091342653546,119.81341621810962L74.2759711401803,188.27747704999953L74.52355771064758,170.80035199050292L74.77114428111484,198.31544136342583L75.26631742204938,200.3876414562024L75.3488462788718,171.70756718576476L75.51390399251666,143.29634596303697L75.59643284933908,143.29634596303697L76.0916059902736,118.41785918432403L76.17413484709604,258.268321725885L76.4217214175633,173.37941756525387L76.751836844853,167.72885819594674L76.83436570167542,152.66043323499062L76.91689455849784,169.5992739375654L76.99942341532027,142.82745298636723L77.41206769943238,153.58245192470622L77.65965426989963,156.3454817586587L77.74218312672205,125.90725157954347L77.82471198354447,139.04205681670135L78.2373562676566,91.2831887782496L78.65000055176871,210.67962640980966L78.81505826541355,152.8757778183728L78.89758712223598,203.21871339356866L78.9801159790584,81.15900567486013L79.06264483588082,115.12575862671656L79.22770254952567,159.36075889751902L79.88793340410506,111.71206895060078L80.21804883139474,90.65008881036671L80.30057768821717,156.96216873757362L81.12586625644138,130.73621700666644L81.5385105405535,180.0469654383049L81.70356825419834,83.87575531326117L81.78609711102077,158.74635605153742L81.86862596784319,107.39471074976939L81.95115482466561,106.55183678430795L82.2812702519553,83.75281691791463L82.69391453606742,129.70469486383644L82.77644339288985,129.70469486383644L83.02402996335711,122.1685982146307L83.43667424746923,145.41282161149104L83.51920310429165,75.32787451383047L83.84931853158133,108.33910815961627L83.93184738840377,60.49323104048182L84.01437624522619,132.93787057437987L84.17943395887103,112.123733313946L84.42702052933828,118.76664724700755L84.75713595662798,101.97287307992634L84.8396648134504,204.96565102910552L85.1697802407401,166.40631631449304L85.25230909756252,179.7957011779506L85.66495338167464,149.28130432131707L85.83001109531948,160.01975534300428L86.2426553794316,132.5679566914863L86.32518423625402,118.2396197139933L86.40771309307644,125.14751234270062L86.6552996635437,165.34129355530803L86.73782852036612,146.63396533855143L86.82035737718854,130.75468282396685L87.06794394765582,6.010029849472778L87.15047280447824,251.56858396255038L87.23300166130066,147.78215173943022L87.31553051812308,159.53083524297844L87.72817480223519,133.0986658227306L87.89323251588003,222.19691857329244L87.97576137270245,197.70071083592632L88.05829022952489,134.68651408134792L88.1408190863473,132.3513977589497L88.38840565681457,140.56876355916324L88.55346337045941,94.21680575532163L88.80104994092669,136.72916501136717L88.88357879774911,131.41835354992742L89.29622308186123,193.00239395751123L89.37875193868365,84.72059536782979L89.62633850915091,21.473224300221105L89.79139622279575,41.060521957798876L90.20404050690787,197.00760659950888L90.36909822055271,156.26115195626906L90.61668479101999,131.59478113421824L90.78174250466483,122.33143665362216L90.86427136148725,31.86092117011767L90.94680021830968,102.22690335779903L91.02932907513211,151.50049848792753L91.19438678877695,91.4153022560961L91.27691564559936,67.23876711478277L91.4419733592442,122.30936633962533L91.60703107288904,34.362114195919105L91.68955992971148,134.28109494222537L91.7720887865339,83.12607782655488L92.01967535700116,27.897921617773378L92.26726192746844,100.4667138961724L92.67990621158054,131.5641139992235L93.01002163887024,186.8382612728054L93.09255049569266,150.37282109498994L93.2576082093375,191.2503387076808L93.50519477980478,54.42882918950485L93.83531020709447,117.82668317534343L93.91783906391689,117.02403693504476L94.08289677756174,62.61913235142011L94.16542563438416,113.76362510775239L94.24795449120658,122.97147575953022L94.330483348029,177.01478378819982L94.6605987753187,73.87036639778654L94.74312763214111,193.07092758320184L94.90818534578595,24.575867114357106L94.99071420260837,112.49694328740158L95.32082962989807,43.979335440417174L95.98106048447745,204.26629193077366L96.31117591176714,136.18779659310084L96.39370476858957,122.02023558857515L96.64129133905683,107.5221403094489L96.72382019587926,85.62794549077542L96.80634905270168,208.06659760950203L96.97140676634652,80.37459394726102L97.05393562316895,151.72877685357335L97.2189933368138,74.49039765572195L97.38405105045864,180.4526737081785L97.46657990728106,84.24295136709488L97.63163762092591,77.39078387180663L97.79669533457076,195.77062814498262L98.044281905038,53.528822987635884L98.29186847550528,98.03951906725639L98.62198390279497,108.6779886752305L98.70451275961739,112.53414477737005L99.28221475737435,134.215462261737L99.4472724710192,113.64999672258966L99.52980132784162,158.3065881791901L99.94244561195373,191.32377791844758L100.27256103924343,34.214445483666076L100.43761875288827,155.94234675246943L100.76773418017797,1.9852334179373525L101.18037846429009,55.37264833784964L101.59302274840218,-79.07299669741343L101.75808046204703,-12.095858216640929L102.0056670325143,7.586621284182577L102.17072474615914,146.53654755083096L102.33578245980398,125.93441059475879L102.41831131662641,131.26266627817859L102.58336903027126,119.10313761507975L102.83095560073852,-19.30377218802129L102.91348445756094,211.84078514371888L102.99601331438338,111.34520057828492L103.16107102802822,176.1993097802462L103.32612874167306,117.992490023379L103.40865759849548,119.98866800401282L103.57371531214034,131.02837399291093L103.73877302578518,131.75002507214876L104.06888845307486,169.96481230842645L104.23394616671972,112.00690521513833L104.5640615940094,99.55427507200825L104.64659045083182,15.981513365540918L104.8941770212991,95.29283475842998L105.05923473494393,83.26462928245812L105.30682130541119,174.70926481701744L105.47187901905605,192.39654938176068L105.63693673270089,84.78013702716271L105.88452330316815,70.91259736531009L106.13210987363543,72.4012930517006L106.21463873045785,154.57604975069012L106.62728301456997,173.75902696599934L107.03992729868207,99.41911608358399L107.37004272597177,-0.3810126486572404L107.45257158279419,149.12676393488073L107.53510043961661,110.66383505036009L107.70015815326146,50.97498888975992L107.78268701008389,142.2978232765935L107.86521586690631,154.2530907017671L108.2778601510184,64.91612196544652L108.52544672148568,161.04920538211843L108.6079755783081,142.03157240564312L108.69050443513052,135.27794067031277L108.77303329195294,101.4556181662976L108.9380910055978,161.63824182354125L109.18567757606506,-19.128096343683236L109.43326414653232,198.9453223422803L110.17602385793414,132.31571902427012L110.4236104284014,112.10193285531683L111.00131242615836,35.8823251341741L111.08384128298079,115.2912956193845L111.1663701398032,92.97275323508637L111.4964855670929,183.22879152746182L111.66154328073775,25.862421854996757L111.82660099438257,106.63901934344126L111.90912985120502,79.48929486292879L112.23924527849469,189.43745998552114L112.73441841942923,193.21234143354047L112.89947613307407,122.16412632568111L113.14706270354135,129.81479585383636L113.22959156036377,151.7982164222839L113.47717813083104,121.5825109068686L113.72476470129831,124.43808185654052L113.88982241494315,156.50207497342745L114.054880128588,141.9404962190623L114.46752441270012,209.3315060945797L114.55005326952254,141.04288016473535L114.7976398399898,101.0770689116393L115.1277552672795,208.50614381494017L115.29281298092432,113.22293132790516L115.62292840821402,54.182200658859074L115.70545726503644,55.90927501179876L115.9530438355037,141.00188142423644L116.11810154914856,65.53289568358674L116.20063040597098,163.84646829699523L116.44821697643825,202.3388403296645L116.53074583326067,57.19363235873044L116.77833240372794,143.30933757145084L116.86086126055037,98.80384584534922L116.94339011737279,30.990579783306444L117.43856325830733,107.2645248102632L117.85120754241943,198.882272563168L118.01626525606429,172.43751631755774L118.09879411288671,212.64705515609737L119.25419810840062,123.5066953304909L119.33672696522304,136.97085904386174L119.50178467886788,186.34074435178164L120.07948667662484,117.52546675889937L120.16201553344726,191.1222055965071L120.24454439026968,28.021187694637753L120.57465981755938,96.06745459126019L120.6571886743818,172.8361408840306L120.9873041016715,79.80595086147895L121.31741952896118,186.67390971621677L121.3999483857836,47.176562560913375L121.56500609942846,149.8853755617945L121.7300638130733,69.54672442196568L121.81259266989572,153.21790623609047L121.89512152671814,136.1945622526754L121.97765038354055,112.21346022368859L122.63788123811993,73.06107015021371L122.96799666540963,129.83865877848967L123.13305437905447,104.6038279867991L123.38064094952175,-46.96791810080225L123.79328523363385,23.4515147250566L124.28845837456839,43.686850772654815L124.37098723139081,139.64144413901175L124.45351608821325,24.049764799746207L124.61857380185809,171.26074452309183L124.86616037232535,212.99160263443216L125.69144894054958,194.40821513295907L125.85650665419442,79.69928088972483L126.02156436783926,41.76567330884343L126.26915093830654,50.18332961800115L126.5167375087738,108.70570667656449L126.68179522241864,87.39225988445038L126.76432407924106,40.928369929185536L127.17696836335318,-6.94786591880921L127.2594972201756,131.85746605923902L127.50708379064288,97.41742534329684L127.5896126474653,108.47482613415923L127.67214150428772,36.35852348115374L127.91972807475499,2.0110046055476354L128.0022569315774,159.11557602062848L128.3323723588671,86.04020739100616L128.49743007251195,114.40133189226866L128.99260321344647,129.5119603051864L129.1576609270913,45.24738581298961L129.4052474975586,134.23872764950482L129.7353629248483,9.799069066601893L130.06547835213797,-3.2030829819741484L130.23053606578281,109.50141377883797L130.56065149307253,98.37741653831702L130.64318034989495,116.3470661945359L131.05582463400705,148.68042315679287L131.2208823476519,129.0424312408643L132.21122862952097,-41.535305491636734L132.54134405681066,71.00506137949594L132.62387291363308,78.06891113531971L132.7064017704555,50.07910761993926L132.95398834092276,81.82117292091523L133.1190460545676,-18.23572319364197L133.36663262503487,128.85199045283926L133.69674805232458,79.35053137780812L133.86180576596942,127.32723052410108L133.9443346227918,97.40894417459937L134.27445005008153,-18.10831290934584L134.35697890690395,4.613566872667247L134.6045654773712,13.804281708599513L134.9346809046609,71.99061173290895L135.01720976148331,71.72794608327156L135.18226747512819,152.06877534142495L135.34732518877303,46.12362546712226L135.5949117592403,114.70000395810348L136.0075560433524,81.60536572833139L136.17261375699724,72.91769984845962L136.33767147064208,34.17531645535729L136.58525804110937,23.504213623281338L136.99790232522147,111.22270551675666L137.0804311820439,81.17803047827923L137.24548889568874,-31.244987858693857L137.41054660933358,54.28904410906381L137.493075466156,2.849637986660368L137.57560432297845,51.37724686600433L137.82319089344568,67.84985459481902L138.23583517755782,27.720318235094943L138.40089289120266,66.67794983466246L138.48342174802508,27.474961879753785L138.81353717531476,115.24407093004629L139.22618145942687,104.29933475517646L139.55629688671658,75.92007211813143L139.88641231400626,188.68206734763575L139.96894117082869,-64.72397723352864L140.3815854549408,39.64513055449125L140.54664316858566,89.11027480719052L140.7117008822305,155.12588006227054L140.87675859587534,-78.27881235042882L141.12434516634258,-1.0214372622334016L141.20687402316503,54.00552249458401L141.5369894504547,106.27411706023254L142.03216259138924,27.845280545698838L142.19722030503408,99.93205331133039L142.36227801867895,118.03686195597354L142.5273357323238,36.88759420480875L142.6098645891462,76.75273013038912L143.02250887325832,-0.576195180999521L143.43515315737042,65.79012567510438L143.6827397278377,53.57300216639636L143.84779744148256,37.425126821777816L144.0128551551274,39.53452840452287L144.09538401194982,-2.264236882547453L144.26044172559466,29.367553949978007L144.4254994392395,79.84297887299677L144.6730860097068,10.42114351517804L144.8381437233516,42.69677070414201L144.92067258017403,108.41341476263618L145.00320143699645,91.19716274212044L145.0857302938189,92.43737946105844L145.66343229157584,91.99024839225106L145.8284900052207,16.022454279889622L146.07607657568795,116.22033054865891L146.15860543251037,111.2263871149867L146.24113428933282,12.840377610748446L146.73630743026735,109.20929534336028L147.14895171437945,99.85148220870441L147.3965382848467,4.65412227934789L147.47906714166913,86.98157856565872L148.13929799624853,110.29199362912617L148.22182685307092,98.3329289534221L148.30435570989337,40.34041290923331L148.38688456671576,32.56724831954984L148.5519422803606,13.105857466362716L148.96458656447274,50.8037078328378L149.12964427811758,-18.551029915353865L149.21217313494,82.8830730679889L149.8724039895194,115.07307900387524L149.95493284634182,94.71919934834642L150.2850482736315,44.52662140138833L150.45010598727637,112.11891446809518L150.61516370092122,121.12404591262003L150.6976925577436,94.83113149976964L150.86275027138845,99.55899754094207L151.19286569867816,94.9415601712874L151.27539455550055,106.01671359026427L151.4404522691454,111.62777769897797L151.6055099827903,54.46159734129055L151.6880388396127,66.16549449150111L151.85309655325753,100.25377873571563L151.93562541007995,75.96207317856732L152.01815426690237,109.44588139925293L152.1006831237248,43.49858810295434L152.43079855101448,34.521213210530306L152.51332740783693,137.889851498383L152.76091397830416,7.872513770820975L152.8434428351266,75.06098755522774L152.92597169194903,101.66990260359258L153.2560871192387,-9.810202528055683L153.503673689706,-37.2333868729114L153.91631797381808,44.8536861069763L154.57654882839748,145.77737693779852L154.82413539886477,18.67083413335901L154.98919311250958,-44.59669898528959L155.15425082615442,1.9430588790508359L155.23677968297687,83.18881919953276L155.56689511026656,139.98849741718897L155.7319528239114,-15.57959463604445L155.97953939437866,80.44460213978198L156.06206825120108,121.86435556299229L156.22712596484592,-82.99838997673778L156.80482796260287,-19.16749522735967L156.96988567624774,31.125526742513248L157.05241453307016,29.645871210938896L157.38252996035985,-19.430989718483367L157.46505881718227,158.5458342379924L157.71264538764956,102.5437135594164L157.79517424447195,61.494163149850706L157.8777031012944,49.39498571218775L158.04276081493924,101.5933986068647L158.12528967176164,7.618695522165728L158.2903473854065,119.71335770286284L158.45540509905135,12.254483056820371L158.53793395587374,107.22233099599327L158.86804938316345,122.27553804175247L159.11563595363071,116.82733164741364L159.44575138092043,99.2778660740043L159.52828023774282,118.7640257948647L159.7758668082101,120.40089135347674L159.94092452185495,110.4772300636323L160.1059822354998,50.16112437632049L160.18851109232222,141.5404356365259L160.27103994914464,92.0314206112006L161.01379966054643,73.21166872074403L161.1788573741913,120.67874600523598L161.42644394465853,105.43579208525426L161.59150165830337,140.62554883866952L161.75655937194827,103.63200170636925L162.33426136970522,114.7163109324627L162.4167902265276,94.02680830111488L162.6643767969949,35.074011931154836L162.7469056538173,90.13532042119698L162.82943451063974,49.04879982626366L163.24207879475185,98.44561284479806L163.4896653652191,74.23106664741334L163.65472307886398,20.103457729429206L163.90230964933122,127.92869958781904L163.98483850615366,150.30994479432826L164.06736736297606,59.49362893256775L164.39748279026577,84.69692519701046L164.4800116470882,107.36743608225368L164.64506936073303,106.96980419802605L164.8101270743779,137.3419487251429L164.8926559312003,141.24345980443056L165.22277135848998,96.11641406510468L165.3053002153124,51.01143863977565L165.63541564260208,60.5369861608074L165.71794449942453,63.88436851801568L165.88300221306937,69.50929162739637L166.04805992671422,96.73012299728379L166.46070421082632,1.7934626284574855L166.54323306764877,66.39502575706815L166.7082907812936,20.165775043972218L166.95587735176085,66.67126127662148L167.53357934951782,103.52544738691557L167.69863706316266,41.99726704043463L168.02875249045238,15.974400749065092L168.11128134727477,35.67875781005138L168.44139677456448,5.237780888801167L168.52392563138687,70.1163120015345L169.01909877232143,53.80455734722074L169.2666853427887,72.08457922700025L169.3492141996111,6.947064062859588L169.43174305643353,71.99938203235747L169.5968007700784,40.712948244269754L169.6793296269008,60.57956548274541L169.76185848372324,79.26402345709391L169.84438734054564,61.635875768632104L170.17450276783535,37.963603932533665L170.25703162465777,39.50399619721197L170.4220893383026,65.52614929939557L170.50461819512503,63.53812480594139L170.66967590876988,19.101735329340766L170.91726247923717,29.360537710419187L170.99979133605956,2.117269794250279L171.32990676334927,72.61794836115422L171.4124356201717,80.72351693762836L172.0726664747511,-52.40693013725768L172.4853107588632,-50.02433854553701L172.98048389979772,8.450968026755357L173.0630127566201,48.8225646512586L173.14554161344256,62.92297022000704L173.55818589755467,85.43920093648987L173.88830132484435,75.39179168519594L174.3834744657789,-32.210992973335884L175.37382074764795,-23.130089996652472L175.62140731811522,20.437577225342782L176.03405160222735,41.11052230234715L176.44669588633946,49.83652691980816L177.02439788409643,23.84579269257201L177.51957102503096,56.815796293258074L177.6846287386758,44.29103766543267L177.84968645232067,3.397405832216611L178.0147441659655,-0.6757139855109976L178.0972730227879,-3.5833862965221743L178.3448595932552,0.44335694873699205L179.08761930465698,63.374650279297626L179.9954367297036,9.330927829884859L180.07796558652606,45.104516671204024L180.32555215699333,20.94180197979088L180.40808101381575,5.411394267115109L180.73819644110543,23.084993309641987L180.82072529792785,5.833717917482391L180.9857830115727,24.802622724714045L181.39842729568483,-16.003209737099777L181.6460138661521,6.608781084130877L182.05865815026422,-0.21701768666159327L183.2140621457781,-39.61524600006276L183.29659100260054,48.50839517716749L183.70923528671264,-60.47290707622136L184.20440842764717,164.67170528664263L184.28693728446962,181.73769605583757L184.69958156858172,23.67293105421081L185.0296969958714,47.68818906258836L185.44234127998354,-30.582570032654502L186.10257213456288,28.441121197463037L187.42303384372167,8.563324236613452L187.5055627005441,12.809190040401832L187.9182069846562,65.28619005140735L188.99108212334767,122.56345444364821L189.07361098017012,81.04001873311128L189.48625526428222,30.514053754808945L189.65131297792706,104.52391224720884L189.8163706915719,15.581240753787062L189.89889954839435,67.10104450036586L189.98142840521675,116.00650872056559L190.31154383250643,80.0344990824924L190.4766015461513,64.0562471118233L190.64165925979614,115.47653205389064L190.80671697344098,17.47321601174238L191.05430354390828,50.59081122314786L191.13683240073067,83.95626858973694L191.3018901143755,62.361767432218656L191.46694782802035,107.03304673097244L191.5494766848428,116.99716705058052L191.63200554166522,75.29674476963407L191.71453439848764,129.68158367913583L191.87959211213249,136.82114714096792L191.9621209689549,86.04144101554398L192.04464982577733,107.78842973116612L192.2922363962446,54.29737107469404L192.952467250824,120.26370844979513L193.28258267811367,85.05828080967297L193.3651115349361,58.11509206232734L193.61269810540335,54.42884846488826L194.1078712463379,9.90138280170684L194.1904001031603,123.80999348834254L194.35545781680514,70.38805635675487L194.76810210091728,15.697664069543267L194.93315981456212,9.801266460309883L195.01568867138454,128.84692102700419L195.34580409867422,93.02231024581636L195.42833295549667,85.97785152569634L195.84097723960878,-10.867515133879351L196.00603495325362,86.83269550425128L196.088563810076,-89.36316012728906L196.25362152372085,53.571922744925764L196.9963812351227,161.59512279086795L197.0789100919451,11.792317188958377L197.24396780558993,-16.573182824336687L197.40902551923477,65.68387976178515L197.65661208970207,-29.867453308390395L197.7391409465245,84.04028998599212L198.4819006579263,-43.5850112119816L198.97707379886083,115.88064046694174L199.55477579661778,46.61603441154411L199.88489122390746,173.03633501605773L199.96742008072988,118.28156294827897L200.29753550801956,107.08036779722764L201.04029521942138,103.38038085142199L201.3704106467111,112.22573864291654L201.45293950353349,146.75101510426828L201.53546836035594,127.913549136464L201.94811264446804,86.33860960147335L202.44328578540257,80.26948528156257L202.69087235586986,97.44331218320754L202.77340121269225,94.12655841022718L202.8559300695147,124.49552249908248L203.10351663998196,75.07856670489161L203.2685743536268,62.7371362486154L203.43363206727165,97.4120475113273L203.51616092409407,39.639116634869424L203.5986897809165,29.374049754184927L203.92880520820617,63.80873191354095L204.093862921851,102.72995231385951L204.34144949231828,12.337463582371777L204.42397834914073,31.368512225695813L204.50650720596312,21.349996774123518L204.83662263325283,-0.9956660746231186L205.33179577418736,-26.737285246754443L205.90949777194433,124.12555079003869L205.99202662876675,145.51023939921157L206.07455548558917,148.23791818000228L206.48719976970128,94.67798857863009L206.56972862652373,78.19701533341834L206.73478634016854,136.91752405798468L207.3950171947479,-10.901131402534796L207.72513262203762,-21.432160023418632L207.80766147886004,98.62256086444076L208.0552480493273,46.57846668929099L208.63295004708428,-10.706970465512889L208.88053661755154,75.83019100532164L209.04559433119638,48.96300509473538L209.21065204484123,58.818990513450686L209.62329632895336,95.6670470518225L210.03594061306543,56.19512894767037L210.11846946988786,-4.210279590949152L210.2009983267103,118.07255996603652L210.531113754,114.42839453056695L210.61364261082238,1.4914559212938714L211.10881575175694,19.21792734049613L211.27387346540178,123.86706789859983L211.43893117904662,-28.15942303425321L211.6865177495139,143.54505623509033L211.7690466063363,114.38481288869197L211.85157546315875,122.15306225560761L211.93410431998117,90.95787813255131L212.18169089044844,78.6047282431659L212.34674860409328,16.763785525582275L212.75939288820538,31.78651819018076L213.00697945867267,95.10543948098267L213.1720371723175,194.2498967713757L213.50215259960717,227.5528585261253L213.58468145642962,47.463611570556L213.99732574054173,52.72665863192228L214.3274411678314,111.66987513633086L214.5750277382987,-18.891934346225458L214.6575565951211,97.0200247636701L214.82261430876594,53.65594414118095L215.15272973605565,-77.5486993778769L215.23525859287807,64.51627341212753L215.4003163065229,121.92179620553428L215.48284516334533,21.275767272637236L215.97801830427986,149.882031282774L216.0605471611023,194.9218559121997L216.22560487474715,57.034475517969014L216.39066258839196,-40.79601743658483L216.7207780156817,-9.467042877325946L216.88583572932654,22.983026531438295L217.13342229979378,83.32052789432782L217.4635377270835,83.17900802938046L217.62859544072833,90.24366735130718L217.71112429755073,98.12868699088028L217.8761820111956,54.143726993585986L217.95871086801802,91.15799516304483L218.53641286577496,112.68657450932369L218.7014705794198,72.84478107304477L218.9490571498871,55.1804342145515L219.11411486353194,102.94383196810304L219.19664372035436,59.53084969791962L219.27917257717678,119.691191011949L219.77434571811133,23.265565101364533L220.59963428633552,54.69091657764014L220.76469199998036,31.662114865695578L221.1773362840925,78.77109407732016L221.34239399773733,94.16370207404543L221.67250942502704,118.49108636587334L221.75503828184944,120.84249038724738L221.8375671386719,23.623277666563787L222.00262485231673,-5.367997668920853L222.16768256596157,120.15326050289399L222.250211422784,69.23731596757517L222.58032685007367,88.18208799478585L223.0754999910082,84.14231459034602L223.24055770465307,125.81255162088281L223.4056154182979,88.2313365993814L223.7357308455876,174.0313881334886L224.47849055698939,113.00837703524253L224.56101941381183,120.58061502832953L224.64354827063423,117.53290705689307L224.9736636979239,32.821452075873154L225.38630798203604,124.26655021963415L225.46883683885846,-10.162363782834811L225.5513656956809,12.766726370764259L225.8814811229706,76.3566595522172L225.964009979793,122.99894318088L226.21159655026028,30.5379359548457L226.37665426390512,-63.67967551150223L226.6242408343724,73.58464738959876L227.03688511848452,43.87438097778596L227.20194283212933,115.12502616214725L227.36700054577418,10.800386683638843L227.44952940259662,78.80871962572348L227.8621736867087,-24.612251328069277L228.02723140035357,112.95708524000622L228.43987568446568,60.14839443139597L228.68746225493294,188.18145672757578L228.85251996857778,70.39557375628216L229.01757768222262,29.567131269736226L229.43022196633476,101.64883460953273L229.67780853680202,102.95616821348119L229.84286625044686,106.9544417174536L230.0079239640917,83.74653314292516L230.09045282091415,156.98709180831412L230.3380393913814,15.90678270408616L230.4205682482038,81.13853521768579L230.50309710502626,69.86511520502211L230.7506836754935,45.84941386282629L230.83321253231594,65.97493805117564L230.91574138913833,42.28863373595959L231.57597224371773,160.44991443672504L231.65850110054018,106.6375351389192L231.74102995736257,150.70934037613725L231.9060876710074,11.2409833974725L231.98861652782986,44.20977264900416L232.31873195511955,108.65719053653828L232.4837896687644,80.57922141747093L233.22654938016618,106.89848527943367L233.63919366427828,5.149403255896834L233.72172252110073,-35.64220397296531L233.80425137792312,157.14159364398364L233.96930909156802,143.40527115464928L234.3819533756801,47.4099874539279L234.46448223250252,38.584483307338814L234.54701108932497,69.62552218931853L234.62953994614736,35.71985292746731L234.7945976597922,57.336000340547535L234.95965537343704,60.083205084725876L235.28977080072676,83.61023690688009L235.61988622801644,35.45084567669023L235.70241508483886,-9.23566117495221L235.86747279848373,49.63475220634195L236.11505936895097,41.10377591815598L236.2801170825958,99.46770932514382L236.85781908035278,-12.486917195127997L237.2704633644649,44.72758654875162L237.51804993493215,61.86479022193022L237.93069421904428,-22.994314195959305L238.17828078951155,40.118977304695676L238.26080964633397,11.962133316741843L238.3433385031564,32.56998542399312L238.67345393044607,49.85709375389953L239.00356935773576,91.3399162316056L239.1686270713806,35.197143080335394L239.82885792596,32.36903955201325L239.91138678278242,84.40708125677436L239.99391563960484,98.74357172144698L240.32403106689452,74.70250397469233L240.65414649418423,95.87034452057759L240.98426192147392,31.792512834419206L241.0667907782963,107.91202348954836L241.39690620558602,90.7941144751565L241.47943506240844,83.18928180873445L241.56196391923086,46.038004214044605L241.64449277605328,111.12769715196157L241.974608203343,54.60945880737762L242.22219477381023,84.910901228171L242.46978134427752,127.48266721586565L242.63483905792236,86.21436048005539L242.7998967715672,164.59481578224668L243.13001219885692,114.19714775587703L243.54265648296902,112.52067128437112L243.62518533979144,72.22447995974173L243.70771419661386,109.03895878022492L243.8727719102587,137.37560354456514L243.9553007670811,88.28602086209668L244.120358480726,55.017827080160885L244.28541619437084,147.41108133353242L244.36794505119323,54.99167038488253L244.45047390801565,47.84757720795063L245.11070476259502,127.30303991792988L245.27576247623986,158.60713959490676L245.52334904670715,46.26591634740575L245.60587790352957,102.14698761820875L245.688406760352,117.15881041580097L245.77093561717442,184.05832692760816L246.1010510444641,-32.32086265873495L246.3486376149314,92.17270917154713L246.43116647175378,-141.0647500147448L246.7612818990435,-4.315638836631813L246.84381075586592,69.72353751392455L246.92633961268834,32.755318235416276L247.17392618315563,150.2919994123797L247.83415703773497,97.09354107597045L249.31967646053857,113.01973023606709L249.40220531736102,11.881273083364825L249.81484960147313,227.3648464364091L249.89737845829555,65.63879464000473L250.06243617194042,28.47338818928024L250.22749388558526,-46.70877984632768L250.8877247401646,-89.17576484984176L250.97025359698705,146.3473018365769L251.1353113106319,56.4926637658844L251.30036902427673,82.14738950963346L251.38289788109915,11.838038398391104L251.79554216521126,131.07166650403485L251.87807102203368,57.94317491775291L252.12565759250097,10.711623543066446L252.20818644932336,113.43503764687557L252.53830187661308,87.7409901209837L252.6208307334355,52.10882476769487L252.70335959025792,111.26985310456124L253.19853273119244,46.47732875257364L253.36359044483729,161.90853088731464L253.44611930165973,-13.241240049234486L253.52864815848213,23.345827797856053L254.60152329717366,46.90720835323504L254.68405215399605,21.9982664687448L254.84910986764092,92.39634216979276L255.261754151753,25.324465179592803L255.67439843586513,-2.4660308713970447L255.83945614950997,-25.80778770827835L256.3346292904445,19.57776019786977L256.49968700408937,43.60936373137338L256.6647447177342,60.227519880266705L256.82980243137905,58.83153878804627L256.9123312882015,91.21134942430531L257.0773890018463,64.1939697262402L257.4900332859584,61.96662207245009L257.57256214278084,74.38553957000774L257.65509099960326,65.61261866934298L257.7376198564257,18.252442661206L257.98520642689294,67.74119925857435L258.0677352837154,92.87994226399927L258.3153218541826,52.45312166604543L258.39785071100505,-54.81720117954553L258.4803795678275,-46.764524255130134L258.5629084246499,136.2094235732794L258.8930238519396,-25.70238991182884L258.97555270876205,29.7041214195838L259.38819699287416,78.6450908960125L259.553254706519,43.968502674944496L259.9658989906311,130.6419218310573L260.0484278474535,110.32589902853263L260.21348556109837,69.75087000759049L260.3785432747432,36.23439001203619L260.46107213156563,60.12859861264073L260.62612984521047,125.46403341356697L260.7911875588553,26.783650253992814L261.2038318429674,42.9722544837426L261.4514184134347,76.27406453433385L261.6164761270795,93.21606639978678L261.699004983902,125.54065306259525L262.0291204111917,101.73856151927531L262.4417646953038,96.05623631811943L263.01946669306074,119.24060964951241L263.10199554988316,101.87015456176994L263.51463983399526,118.97285529865655L263.6796975476401,129.06691097778656L264.0923418317522,36.80417034543907L264.1748706885747,46.50238675099799L264.25739954539705,222.22605331530661L264.3399284022195,165.2778389931442L265.0826881136213,109.99692605998776L265.4953323977334,108.79574199244153L265.7429189682007,133.09797190892806L265.8254478250231,159.5392103970672L266.5682075364249,83.269640882143L266.73326525006973,180.9707960140604L266.980851820537,146.5130990469208L267.14590953418184,49.916635413232456L267.6410826751164,159.56316969863755L268.21878467287337,92.63048025199316L268.3838423865182,66.08286092285097L268.46637124334063,88.86543888720122L268.6314289569855,106.95590664659224L268.87901552745274,-34.798173484499635L269.2091309547424,115.39619225586547L269.4567175252097,82.50180598427075L269.5392463820321,-68.94883286940737L269.70430409567695,-9.42538877379133L269.8693618093218,33.163301000531476L269.95189066614427,21.220099965368384L270.4470638070788,-11.341072753332757L270.5295926639012,14.560628477963364L270.69465037754605,-9.64013582028799L270.8597080911909,1.9235136402798605L271.10729466165816,29.21256059203171L271.6849966594151,74.59197892625755L272.0151120867048,125.53997842417613L272.0976409435272,44.227159044833975L272.3452275139945,73.95120735578018" fill="none"></path></g></g></g></g></g></g><g transform="translate(41, 177)" clip-path="url(#clip_1)"><clipPath id="clip_1"><rect width="288" height="22"></rect></clipPath><g><g><line x1="0" y1="0" x2="0" y2="5" style="visibility: inherit;" fill="rgb(0, 0, 0)" stroke="rgb(204, 204, 204)" stroke-width="1px"></line><line x1="41.264428411211284" y1="0" x2="41.264428411211284" y2="5" style="visibility: inherit;" fill="rgb(0, 0, 0)" stroke="rgb(204, 204, 204)" stroke-width="1px"></line><line x1="82.52885682242257" y1="0" x2="82.52885682242257" y2="5" style="visibility: inherit;" fill="rgb(0, 0, 0)" stroke="rgb(204, 204, 204)" stroke-width="1px"></line><line x1="123.79328523363385" y1="0" x2="123.79328523363385" y2="5" style="visibility: inherit;" fill="rgb(0, 0, 0)" stroke="rgb(204, 204, 204)" stroke-width="1px"></line><line x1="165.05771364484514" y1="0" x2="165.05771364484514" y2="5" style="visibility: inherit;" fill="rgb(0, 0, 0)" stroke="rgb(204, 204, 204)" stroke-width="1px"></line><line x1="206.32214205605644" y1="0" x2="206.32214205605644" y2="5" style="visibility: inherit;" fill="rgb(0, 0, 0)" stroke="rgb(204, 204, 204)" stroke-width="1px"></line><line x1="247.5865704672677" y1="0" x2="247.5865704672677" y2="5" style="visibility: inherit;" fill="rgb(0, 0, 0)" stroke="rgb(204, 204, 204)" stroke-width="1px"></line><line x1="288.850998878479" y1="0" x2="288.850998878479" y2="5" style="visibility: inherit;" fill="rgb(0, 0, 0)" stroke="rgb(204, 204, 204)" stroke-width="1px"></line></g><g transform="translate(0, 8)"><text style="text-anchor: middle; visibility: hidden; font-family: Roboto, sans-serif; font-size: 12px; font-weight: 200;" x="0" y="0" dx="0em" dy="0.95em" fill="rgb(50, 49, 63)" stroke="none" stroke-width="1px">-500</text><text style="text-anchor: middle; visibility: hidden; font-family: Roboto, sans-serif; font-size: 12px; font-weight: 200;" x="41.264428411211284" y="0" dx="0em" dy="0.95em" fill="rgb(50, 49, 63)" stroke="none" stroke-width="1px">0</text><text style="text-anchor: middle; visibility: hidden; font-family: Roboto, sans-serif; font-size: 12px; font-weight: 200;" x="82.52885682242257" y="0" dx="0em" dy="0.95em" fill="rgb(50, 49, 63)" stroke="none" stroke-width="1px">500</text><text style="text-anchor: middle; visibility: hidden; font-family: Roboto, sans-serif; font-size: 12px; font-weight: 200;" x="123.79328523363385" y="0" dx="0em" dy="0.95em" fill="rgb(50, 49, 63)" stroke="none" stroke-width="1px">1k</text><text style="text-anchor: middle; visibility: hidden; font-family: Roboto, sans-serif; font-size: 12px; font-weight: 200;" x="165.05771364484514" y="0" dx="0em" dy="0.95em" fill="rgb(50, 49, 63)" stroke="none" stroke-width="1px">1.5k</text><text style="text-anchor: middle; visibility: hidden; font-family: Roboto, sans-serif; font-size: 12px; font-weight: 200;" x="206.32214205605644" y="0" dx="0em" dy="0.95em" fill="rgb(50, 49, 63)" stroke="none" stroke-width="1px">2k</text><text style="text-anchor: middle; visibility: hidden; font-family: Roboto, sans-serif; font-size: 12px; font-weight: 200;" x="247.5865704672677" y="0" dx="0em" dy="0.95em" fill="rgb(50, 49, 63)" stroke="none" stroke-width="1px">2.5k</text><text style="text-anchor: middle; visibility: hidden; font-family: Roboto, sans-serif; font-size: 12px; font-weight: 200;" x="288.850998878479" y="0" dx="0em" dy="0.95em" fill="rgb(50, 49, 63)" stroke="none" stroke-width="1px">3k</text></g><line x1="0" y1="0" x2="288.850998878479" y2="0" fill="rgb(0, 0, 0)" stroke="rgb(204, 204, 204)" stroke-width="1px"></line></g></g></g></g></svg>