<svg viewBox="0 0 330 200" xmlns="http://www.w3.org/2000/svg"><g><g><g><g><g><line x1="61.91500186920166" y1="177.86299896240234" x2="56.91500186920166" y2="177.86299896240234" style="visibility: inherit;" fill="rgb(0, 0, 0)" stroke="rgb(204, 204, 204)" stroke-width="1px"></line><line x1="61.91500186920166" y1="163.04108238220215" x2="56.91500186920166" y2="163.04108238220215" style="visibility: inherit;" fill="rgb(0, 0, 0)" stroke="rgb(204, 204, 204)" stroke-width="1px"></line><line x1="61.91500186920166" y1="148.21916580200195" x2="56.91500186920166" y2="148.21916580200195" style="visibility: inherit;" fill="rgb(0, 0, 0)" stroke="rgb(204, 204, 204)" stroke-width="1px"></line><line x1="61.91500186920166" y1="133.39724922180176" x2="56.91500186920166" y2="133.39724922180176" style="visibility: inherit;" fill="rgb(0, 0, 0)" stroke="rgb(204, 204, 204)" stroke-width="1px"></line><line x1="61.91500186920166" y1="118.57533264160158" x2="56.91500186920166" y2="118.57533264160158" style="visibility: inherit;" fill="rgb(0, 0, 0)" stroke="rgb(204, 204, 204)" stroke-width="1px"></line><line x1="61.91500186920166" y1="103.7534160614014" x2="56.91500186920166" y2="103.7534160614014" style="visibility: inherit;" fill="rgb(0, 0, 0)" stroke="rgb(204, 204, 204)" stroke-width="1px"></line><line x1="61.91500186920166" y1="88.93149948120117" x2="56.91500186920166" y2="88.93149948120117" style="visibility: inherit;" fill="rgb(0, 0, 0)" stroke="rgb(204, 204, 204)" stroke-width="1px"></line><line x1="61.91500186920166" y1="74.10958290100098" x2="56.91500186920166" y2="74.10958290100098" style="visibility: inherit;" fill="rgb(0, 0, 0)" stroke="rgb(204, 204, 204)" stroke-width="1px"></line><line x1="61.91500186920166" y1="59.28766632080079" x2="56.91500186920166" y2="59.28766632080079" style="visibility: inherit;" fill="rgb(0, 0, 0)" stroke="rgb(204, 204, 204)" stroke-width="1px"></line><line x1="61.91500186920166" y1="44.465749740600586" x2="56.91500186920166" y2="44.465749740600586" style="visibility: inherit;" fill="rgb(0, 0, 0)" stroke="rgb(204, 204, 204)" stroke-width="1px"></line><line x1="61.91500186920166" y1="29.643833160400405" x2="56.91500186920166" y2="29.643833160400405" style="visibility: inherit;" fill="rgb(0, 0, 0)" stroke="rgb(204, 204, 204)" stroke-width="1px"></line><line x1="61.91500186920166" y1="14.821916580200202" x2="56.91500186920166" y2="14.821916580200202" style="visibility: inherit;" fill="rgb(0, 0, 0)" stroke="rgb(204, 204, 204)" stroke-width="1px"></line><line x1="61.91500186920166" y1="0" x2="56.91500186920166" y2="0" style="visibility: inherit;" fill="rgb(0, 0, 0)" stroke="rgb(204, 204, 204)" stroke-width="1px"></line></g><g transform="translate(51.91500186920166, 0)"><text style="text-anchor: end; visibility: hidden; font-family: Roboto, sans-serif; font-size: 12px; font-weight: 200;" x="0" y="177.86299896240234" dx="0em" dy="0.3em" fill="rgb(50, 49, 63)" stroke="none" stroke-width="1px">5e-3</text><text style="text-anchor: end; visibility: inherit; font-family: Roboto, sans-serif; font-size: 12px; font-weight: 200;" x="0" y="163.04108238220215" dx="0em" dy="0.3em" fill="rgb(50, 49, 63)" stroke="none" stroke-width="1px">0.01</text><text style="text-anchor: end; visibility: hidden; font-family: Roboto, sans-serif; font-size: 12px; font-weight: 200;" x="0" y="148.21916580200195" dx="0em" dy="0.3em" fill="rgb(50, 49, 63)" stroke="none" stroke-width="1px">0.015</text><text style="text-anchor: end; visibility: inherit; font-family: Roboto, sans-serif; font-size: 12px; font-weight: 200;" x="0" y="133.39724922180176" dx="0em" dy="0.3em" fill="rgb(50, 49, 63)" stroke="none" stroke-width="1px">0.02</text><text style="text-anchor: end; visibility: hidden; font-family: Roboto, sans-serif; font-size: 12px; font-weight: 200;" x="0" y="118.57533264160158" dx="0em" dy="0.3em" fill="rgb(50, 49, 63)" stroke="none" stroke-width="1px">0.025</text><text style="text-anchor: end; visibility: inherit; font-family: Roboto, sans-serif; font-size: 12px; font-weight: 200;" x="0" y="103.7534160614014" dx="0em" dy="0.3em" fill="rgb(50, 49, 63)" stroke="none" stroke-width="1px">0.03</text><text style="text-anchor: end; visibility: hidden; font-family: Roboto, sans-serif; font-size: 12px; font-weight: 200;" x="0" y="88.93149948120117" dx="0em" dy="0.3em" fill="rgb(50, 49, 63)" stroke="none" stroke-width="1px">0.035</text><text style="text-anchor: end; visibility: inherit; font-family: Roboto, sans-serif; font-size: 12px; font-weight: 200;" x="0" y="74.10958290100098" dx="0em" dy="0.3em" fill="rgb(50, 49, 63)" stroke="none" stroke-width="1px">0.04</text><text style="text-anchor: end; visibility: hidden; font-family: Roboto, sans-serif; font-size: 12px; font-weight: 200;" x="0" y="59.28766632080079" dx="0em" dy="0.3em" fill="rgb(50, 49, 63)" stroke="none" stroke-width="1px">0.045</text><text style="text-anchor: end; visibility: inherit; font-family: Roboto, sans-serif; font-size: 12px; font-weight: 200;" x="0" y="44.465749740600586" dx="0em" dy="0.3em" fill="rgb(50, 49, 63)" stroke="none" stroke-width="1px">0.05</text><text style="text-anchor: end; visibility: hidden; font-family: Roboto, sans-serif; font-size: 12px; font-weight: 200;" x="0" y="29.643833160400405" dx="0em" dy="0.3em" fill="rgb(50, 49, 63)" stroke="none" stroke-width="1px">0.055</text><text style="text-anchor: end; visibility: inherit; font-family: Roboto, sans-serif; font-size: 12px; font-weight: 200;" x="0" y="14.821916580200202" dx="0em" dy="0.3em" fill="rgb(50, 49, 63)" stroke="none" stroke-width="1px">0.06</text><text style="text-anchor: end; visibility: hidden; font-family: Roboto, sans-serif; font-size: 12px; font-weight: 200;" x="0" y="0" dx="0em" dy="0.3em" fill="rgb(50, 49, 63)" stroke="none" stroke-width="1px">0.065</text></g><line x1="61.91500186920166" y1="0" x2="61.91500186920166" y2="177.86299896240234" fill="rgb(0, 0, 0)" stroke="rgb(204, 204, 204)" stroke-width="1px"></line></g></g><g transform="translate(61, 0)" clip-path="url(#clip_0)"><clipPath id="clip_0"><rect width="268" height="177"></rect></clipPath><g><g><g><line x1="0" y1="0" x2="0" y2="177.86299896240234" fill="rgb(0, 0, 0)" stroke="rgb(60, 60, 60)" stroke-width="1px" opacity="0.25"></line><line x1="38.29785687582833" y1="0" x2="38.29785687582833" y2="177.86299896240234" fill="rgb(0, 0, 0)" stroke="rgb(60, 60, 60)" stroke-width="1px" opacity="0.25"></line><line x1="76.59571375165666" y1="0" x2="76.59571375165666" y2="177.86299896240234" fill="rgb(0, 0, 0)" stroke="rgb(60, 60, 60)" stroke-width="1px" opacity="0.25"></line><line x1="114.89357062748499" y1="0" x2="114.89357062748499" y2="177.86299896240234" fill="rgb(0, 0, 0)" stroke="rgb(60, 60, 60)" stroke-width="1px" opacity="0.25"></line><line x1="153.19142750331332" y1="0" x2="153.19142750331332" y2="177.86299896240234" fill="rgb(0, 0, 0)" stroke="rgb(60, 60, 60)" stroke-width="1px" opacity="0.25"></line><line x1="191.48928437914168" y1="0" x2="191.48928437914168" y2="177.86299896240234" fill="rgb(0, 0, 0)" stroke="rgb(60, 60, 60)" stroke-width="1px" opacity="0.25"></line><line x1="229.78714125496998" y1="0" x2="229.78714125496998" y2="177.86299896240234" fill="rgb(0, 0, 0)" stroke="rgb(60, 60, 60)" stroke-width="1px" opacity="0.25"></line><line x1="268.08499813079834" y1="0" x2="268.08499813079834" y2="177.86299896240234" fill="rgb(0, 0, 0)" stroke="rgb(60, 60, 60)" stroke-width="1px" opacity="0.25"></line></g><g><line x1="0" y1="177.86299896240234" x2="268.08499813079834" y2="177.86299896240234" fill="rgb(0, 0, 0)" stroke="rgb(60, 60, 60)" stroke-width="1px" opacity="0.25"></line><line x1="0" y1="163.04108238220215" x2="268.08499813079834" y2="163.04108238220215" fill="rgb(0, 0, 0)" stroke="rgb(60, 60, 60)" stroke-width="1px" opacity="0.25"></line><line x1="0" y1="148.21916580200195" x2="268.08499813079834" y2="148.21916580200195" fill="rgb(0, 0, 0)" stroke="rgb(60, 60, 60)" stroke-width="1px" opacity="0.25"></line><line x1="0" y1="133.39724922180176" x2="268.08499813079834" y2="133.39724922180176" fill="rgb(0, 0, 0)" stroke="rgb(60, 60, 60)" stroke-width="1px" opacity="0.25"></line><line x1="0" y1="118.57533264160158" x2="268.08499813079834" y2="118.57533264160158" fill="rgb(0, 0, 0)" stroke="rgb(60, 60, 60)" stroke-width="1px" opacity="0.25"></line><line x1="0" y1="103.7534160614014" x2="268.08499813079834" y2="103.7534160614014" fill="rgb(0, 0, 0)" stroke="rgb(60, 60, 60)" stroke-width="1px" opacity="0.25"></line><line x1="0" y1="88.93149948120117" x2="268.08499813079834" y2="88.93149948120117" fill="rgb(0, 0, 0)" stroke="rgb(60, 60, 60)" stroke-width="1px" opacity="0.25"></line><line x1="0" y1="74.10958290100098" x2="268.08499813079834" y2="74.10958290100098" fill="rgb(0, 0, 0)" stroke="rgb(60, 60, 60)" stroke-width="1px" opacity="0.25"></line><line x1="0" y1="59.28766632080079" x2="268.08499813079834" y2="59.28766632080079" fill="rgb(0, 0, 0)" stroke="rgb(60, 60, 60)" stroke-width="1px" opacity="0.25"></line><line x1="0" y1="44.465749740600586" x2="268.08499813079834" y2="44.465749740600586" fill="rgb(0, 0, 0)" stroke="rgb(60, 60, 60)" stroke-width="1px" opacity="0.25"></line><line x1="0" y1="29.643833160400405" x2="268.08499813079834" y2="29.643833160400405" fill="rgb(0, 0, 0)" stroke="rgb(60, 60, 60)" stroke-width="1px" opacity="0.25"></line><line x1="0" y1="14.821916580200202" x2="268.08499813079834" y2="14.821916580200202" fill="rgb(0, 0, 0)" stroke="rgb(60, 60, 60)" stroke-width="1px" opacity="0.25"></line><line x1="0" y1="0" x2="268.08499813079834" y2="0" fill="rgb(0, 0, 0)" stroke="rgb(60, 60, 60)" stroke-width="1px" opacity="0.25"></line></g></g></g><g><g><line x1="0" y1="192.68491554260254" x2="268.08499813079834" y2="192.68491554260254" fill="rgb(0, 0, 0)" stroke="rgb(153, 153, 153)" stroke-width="1.5px"></line></g></g><g><g><line x1="38.29785687582833" y1="0" x2="38.29785687582833" y2="177.86299896240234" fill="rgb(0, 0, 0)" stroke="rgb(153, 153, 153)" stroke-width="1.5px"></line></g></g><g><g><g><g><g><path style="fill: none;" stroke="rgb(255, 112, 67)" stroke-width="2px" d="M38.68083544458662,88.37924023036966L38.75743115833828,95.76658456700888L39.29360115459987,71.70574024538166L39.67657972335815,77.87365910138676L39.82977115086147,81.01968294535882L40.05955829211644,77.34005850313294L40.21274971961975,51.317643404702096L40.2893454333714,46.862091237145464L40.44253686087472,64.4937381079925L40.59572828837804,63.39585236176034L40.825515429633,69.39997616276113L40.978706857136316,38.79155499050302L41.514876853397915,47.90556061636879L41.82125970840454,12.48170390744053L41.8978554221562,50.57748348452569L41.974451135907856,70.07078057135716L42.20423827716282,92.61478724459201L42.89359970092774,23.534748934228364L42.97019541467939,-17.908783688318724L43.046791128431046,13.455383507772428L43.27657826968601,-15.87000581283207L43.50636541094099,8.62001859086214L43.81274826594761,-0.899385319077869L44.119131120954236,22.811124765825774L44.1957268347059,55.3857481290468L44.27232254845755,66.8457529378195L44.42551397596087,73.72174331191874L44.578705403464184,83.48356341058101L44.655301117215835,81.46393557691825L44.80849254471915,86.3326329975267L44.88508825847081,99.07196657409446L45.038279685974125,95.79487182435403L45.191471113477434,96.21779581579882L45.72764110973903,99.86041769440327L45.957428250994,100.37831688047042L46.03402396474566,102.00429572211594L46.18721539224897,120.1129040373802L46.4935982472556,129.17917331192362L46.87657681601388,126.2583113750316L46.95317252976554,127.68455612686186L47.87232109478542,122.61205218932193L47.94891680853707,121.32650174111764L48.2552996635437,119.65402962912296L48.48508680479867,114.79360458676857L48.638278232301985,112.8531632365824L48.791469659805294,116.27567348039167L49.48083108357021,123.30555836727274L49.94040536608014,136.17764843899414L50.32338393483843,143.3414501398014L50.39997964859009,146.48568925927142L50.62976678984506,144.43744862534928L50.782958217348366,144.38157576821396L50.93614964485168,148.26521675240326L51.39572392736163,146.66376785899246L51.47231964111328,146.16477546084354L52.16168106487819,149.6122830501799L52.314872492381504,151.68078760378094L52.46806391988481,151.35099347192286L52.69785106113979,156.16282849324554L53.3872124849047,156.99598149467062L53.61699962615967,156.33107864202935L53.693595339911326,160.34522250802914L53.846786767414635,150.25909318491924L54.07657390866961,155.97318300746173L54.6127439049312,154.73853243352298L54.76593533243452,153.30682611072166L54.842531046186174,154.77750868183054L55.1489139011928,149.13066289477624L55.22550961494446,152.34674099425038L55.302105328696115,158.76680225402868L55.37870104244777,159.5382477363362L55.60848818370274,155.72172270428086L55.6850838974544,155.9216016305963L55.99146675246102,156.04152898638557L56.06806246621268,156.11348539985914L56.14465817996434,156.15665924794328L56.52763674872262,156.18256355679375L56.68082817622594,156.19810614210405L56.757423889977595,156.20743169329023L57.06380674498422,156.21302702400192L57.446785313742495,156.21638422242896L57.52338102749416,156.21839854148516L57.67657245499747,156.2196071329189L57.829763882500785,156.22033228777912L57.90635959625244,156.2207673806953L57.982955310004094,156.22102843644495L58.21274245125907,156.87759660615154L58.365933878762384,155.21611854391134L58.59572102001736,154.04022162247082L58.74891244752067,146.8747340860177L58.97869958877563,149.3731402392854L59.05529530252729,150.9317254901863L59.361678157533916,155.59837331680276L59.43827387128558,154.4293661095153L59.51486958503723,160.2640429096176L59.59146529878889,153.68048210209514L59.82125244004386,160.40329898685698L59.897848153795515,163.51363500534205L60.2808267225538,158.68837672673664L60.893592432567054,155.3403406029545L61.04678386007036,154.07677402000454L61.12337957382202,153.56349799976533L61.27657100132533,156.82917110267837L61.42976242882865,157.0387110847464L61.506358142580304,156.97099485559792L61.73614528383528,157.77654832556573L61.81274099758693,155.21582883579188L61.889336711338586,152.72081857149004L62.0425281388419,153.03403063019584L62.50210242135184,156.14840610653994L62.5786981351035,155.18202737715845L62.65529384885515,160.9003745431706L63.03827241761344,162.82132069506267L63.19146384511675,162.7897858220888L63.2680595588684,161.0907376491034L63.421250986371724,154.47408416109687L64.1872081238883,146.95626459750278L64.3403995513916,152.35985366338642L64.57018669264657,157.76843440549732L64.79997383390155,156.72114741949514L64.95316526140486,157.30130974203715L65.18295240265982,151.3348534748743L65.33614383016314,151.61822162836194L65.48933525766645,149.29108939415065L65.64252668516977,154.35367720474872L65.87231382642473,155.17927925295183L65.94890954017639,159.48773085982222L66.1021009676797,161.38019292472336L66.63827096394131,163.31439195598037L66.71486667769295,157.8288124857435L66.79146239144461,153.8600988173401L66.86805810519627,157.46183487592947L67.63401524271283,154.03615620768164L67.86380238396781,151.1508589194534L67.94039809771947,141.23985174841377L68.24678095272608,121.68780521133479L68.62975952148437,136.0434032179015L68.78295094898769,132.4756713325905L68.93614237649099,137.87171454116577L69.16592951774598,148.01132107390762L69.39571665900094,152.8776783818423L69.85529094151087,152.80569645807714L69.93188665526253,157.54928222962764L70.08507808276586,153.87641539849267L70.16167379651752,151.6726952998117L70.62124807902744,151.44929030382434L70.69784379277911,157.04046575705445L70.92763093403407,158.19233985582426L71.2340137890407,156.85726452323112L71.31060950279236,153.43995326288209L71.38720521654402,158.99238208453568L71.46380093029568,161.0344499508164L71.84677949905397,156.17606443565646L72.07656664030893,157.8043598595932L72.15316235406058,157.30836461882765L72.22975806781223,156.43748022589747L72.61273663657052,157.18191361415035L72.9957152053288,162.27743571447624L73.14890663283212,161.15745976461614L73.22550234658377,151.35880463111886L73.30209806033542,139.92331964895888L73.37869377408708,143.08796382874138L73.5318852015904,144.78583608830692L74.14465091160366,153.23558387007532L74.45103376661028,157.57094345219613L74.52762948036195,149.05564291795326L75.2935866178785,148.37309154125577L75.6765651866368,151.2322958940255L75.82975661414011,150.87064556477793L75.90635232789175,156.5093281070364L75.98294804164341,160.65553471020735L76.05954375539507,159.6332497043424L76.3659266104017,158.3701891533507L76.74890517915999,158.2424142071517L76.82550089291165,158.16574923943233L77.05528803416661,145.6801804930305L77.4382666029249,153.85408017223133L77.51486231667656,154.78575332066765L77.82124517168317,152.93994943353238L77.89784088543483,149.4121149330508L77.97443659918649,146.61871856803694L78.1276280266898,154.38840017322903L78.35741516794477,157.60528302681692L78.6637980229514,151.0367792390304L78.74039373670306,156.24924552826434L79.04677659170969,146.7198333183936L79.12337230546134,149.40812296891227L79.50635087421963,155.51139410152015L79.65954230172294,157.49836240585597L80.04252087048123,158.48814272699374L80.11911658423288,161.30309427464567L80.19571229798453,162.8894662526931L80.4254994392395,159.86895849336494L80.50209515299116,158.37489644131463L80.5786908667428,161.34491469169652L80.80847800799779,156.42225368161766L80.88507372174944,160.21831567249671L80.9616694355011,158.9242732135912L81.03826514925275,158.82900595540852L81.42124371801104,154.81543672338924L81.57443514551434,158.84454750263117L81.651030859266,158.89762426355315L81.72762657301767,161.68257915437812L81.80422228676933,163.48216437403116L82.03400942802429,159.6037536088752L82.18720085552759,156.35195276111943L82.41698799678258,160.79240687522852L82.49358371053424,160.84959238110568L82.87656227929251,164.90527522187153L82.95315799304417,164.79248679166884L83.18294513429915,153.88508613293178L83.33613656180245,158.43641518314254L83.71911513056074,157.1712161143537L83.87230655806404,162.65972032962367L84.10209369931903,160.0854526216573L84.25528512682233,153.03028134798507L84.33188084057399,148.72578437072295L84.40847655432565,152.81693660582647L84.48507226807732,155.27454666158488L84.63826369558062,158.93983832507513L84.71485940933228,155.4650032413143L84.86805083683558,153.40563404265745L85.0212422643389,140.84378940503342L85.09783797809057,148.76913527212415L85.17443369184222,155.54513252623244L85.40422083309718,159.21622953759828L85.63400797435216,159.08755582229443L86.01698654311043,155.93143557123415L86.32336939811707,157.25114351317146L86.39996511186872,153.3945048700612L86.55315653937203,155.47973591282002L86.78294368062701,152.4649195686905L87.08932653563363,156.068325113345L87.16592224938529,161.56283938082362L87.3191136768886,156.15539849645793L87.39570939064026,142.19606507064117L87.47230510439192,143.08711140908122L87.54890081814357,146.49395987658755L87.85528367315021,147.57167070494197L87.93187938690185,157.5512861024062L88.08507081440517,157.85821670347758L88.16166652815683,158.6860626386933L88.46804938316346,157.22945545146163L89.08081509317671,156.7532623683094L89.38719794818333,159.04575333468134L89.463793661935,162.9288456884048L89.69358080318996,162.6945412200308L89.77017651694162,146.05902298911974L89.84677223069328,148.15644121783114L89.99996365819658,155.46092185505077L90.07655937194825,152.55649622541335L90.22975079945155,156.82165669845605L90.38294222695487,159.53088844164722L90.45953794070653,156.8292877324017L90.61272936820984,158.55206009107897L90.76592079571316,147.0054613115574L90.99570793696812,149.12342823106053L91.22549507822309,152.88650250616666L91.53187793322971,155.86671625889258L91.60847364698137,159.23734997420098L92.14464364324297,161.7344183441545L92.29783507074629,162.48149837764663L92.37443078449795,163.1613099111539L92.75740935325622,160.3648224588317L93.06379220826285,160.46592027654464L93.21698363576616,163.70507252324563L93.5233664907728,163.3355923541903L93.90634505953108,130.59945897873794L94.28932362828935,17.137443178323746L94.36591934204101,-0.48115031637468625L94.44251505579268,13.553905134114238L94.67230219704764,48.092829926532715L94.82549362455096,86.18635377075391L94.97868505205426,113.67328115752647L95.05528076580593,130.5834189578826L95.20847219330923,134.57002968086175L95.43825933456421,146.5016831333336L95.51485504831587,153.70274754401413L95.59145076206752,160.45903980048124L95.74464218957084,162.66281164219646L95.89783361707414,155.9316341361355L95.9744293308258,148.07268458141846L96.12762075832913,156.98741983571534L96.28081218583243,153.63596009460082L96.58719504083905,160.03160209808345L96.74038646834238,158.05624164234627L97.046769323349,155.6785045822713L97.12336503710065,154.31395267305123L97.35315217835563,153.90159540047594L97.50634360585894,157.84622836397506L97.7361307471139,154.59024176738995L97.88932217461722,151.92728508044613L98.04251360212054,156.2497025320427L98.2723007433755,150.72429696105596L98.50208788463048,151.62359923325212L98.57868359838213,155.16750098506944L98.96166216714042,156.5637503468438L99.3446407358987,157.11163504161433L99.65102359090533,158.9007943958914L99.72761930465698,159.52680676233268L99.80421501840864,155.87084426046295L99.95740644591194,151.89534560803128L100.03400215966361,158.53729857219014L100.11059787341527,162.87513015522487L100.49357644217355,137.09512099321734L100.72336358342852,132.10327151762272L100.79995929718018,122.7770997092265L100.87655501093182,122.75586340573255L100.95315072468348,127.43449775774414L101.10634215218681,129.18751768988432L101.33612929344177,133.79290841248155L101.56591643469673,142.76877229499596L102.25527785846165,146.00489964868115L102.48506499971663,144.21452059948288L103.02123499597822,147.7121875270897L103.09783070972988,155.6836248512036L103.17442642348153,162.11215974703953L103.48080927848817,163.58860890092885L103.63400070599147,159.06503881065265L103.78719213349478,159.7275746846896L103.86378784724646,155.4860681010151L104.17017070225307,160.41298653209452L104.62974498476301,159.28944145392492L104.78293641226632,162.23779383145248L105.0127235535213,165.4547693486275L105.08931926727296,166.5130684304556L105.31910640852792,168.91643560346807L105.54889354978289,167.00975037531077L105.7020849772862,168.2252572424733L105.85527640478952,164.40817511438965L106.2382549735478,166.62413475785405L106.31485068729945,169.0743843467818L106.54463782855441,160.66308966467068L106.85102068356106,156.83704346682532L107.00421211106436,155.6117359247825L107.310594966071,160.40028246059694L107.38719067982265,164.56863944682726L107.61697782107761,162.0002073233909L107.77016924858094,166.1156132656006L107.8467649623326,163.79126218411537L108.07655210358756,168.16543481215754L108.15314781733922,162.60470781527025L108.38293495859419,164.7221589287717L108.45953067234585,167.18912869212932L108.5361263860975,165.47258192921166L108.99570066860744,163.48679302969077L109.37867923736572,167.0965992916025L109.53187066486905,163.0063936839726L109.60846637862069,160.6232415783374L110.68080637114389,163.63699129054731L110.75740208489555,166.2670017620061L110.91059351239885,168.8073639379139L111.44676350866045,167.47300222965688L111.52335922241211,166.3140348451765L111.59995493616375,145.86072062219145L111.90633779117039,155.260474726847L111.98293350492204,158.3509684944557L112.28931635992868,158.52015481921012L112.5956992149353,155.36669235234993L112.67229492868695,157.31204995902814L112.82548635619028,164.053584430173L112.97867778369358,160.91407397966643L113.05527349744524,161.48523425861376L113.1318692111969,162.64812680247695L113.20846492494854,161.79715123028873L113.82123063496181,157.1362143264042L114.12761348996844,142.17222744047757L114.28080491747174,125.74857952599093L114.51059205872673,88.9676210424786L114.89357062748499,119.59639230796677L115.35314490999494,128.90066202525517L115.4297406237466,145.50815952983413L115.50633633749827,147.3434340931997L115.65952776500157,155.53707664749436L115.88931490625653,161.66101980590994L116.65527204377311,165.94739092014856L116.80846347127643,165.62449353218668L116.96165489877973,167.01613841798152L117.19144204003472,164.16000919611582L117.42122918128968,161.19353936266967L117.57442060879298,161.72992647573656L117.65101632254463,160.13673404238327L118.03399489130292,161.85121172682824L118.11059060505458,164.43944059519214L118.34037774630956,162.85105573231914L118.41697346006121,157.74731324608166L118.49356917381287,152.46702900641404L118.72335631506783,156.4320414713612L118.79995202881949,160.9486424879765L119.10633488382612,157.22565431001485L119.25952631132942,162.53599568653752L119.71910059383937,167.02554079907858L119.87229202134267,163.9965297158972L120.10207916259766,166.78146238923662L120.40846201760428,164.90510913502996L120.71484487261091,166.71399468536745L120.86803630011423,166.6778206606337L121.17441915512086,157.186213343298L121.2510148688725,149.28274158088652L121.63399343763079,142.53134597529842L121.78718486513411,135.7868342176865L122.70633343015399,118.56279400504589L123.01271628516061,116.33375875114248L123.08931199891227,111.03393116606628L123.16590771266392,80.70587766490634L123.3956948539189,56.582214935576474L123.5488862814222,57.7284924521704L123.77867342267717,68.87574418651563L124.0850562776838,83.92638841865599L124.2382477051871,81.94515460815745L124.31484341893876,75.85427672834285L124.6212262739454,85.30761708616484L124.69782198769705,92.65653166927578L124.92760912895203,98.23621544026297L125.23399198395865,106.80482112380145L125.3105876977103,115.8692715760416L125.46377912521363,121.92955850560601L125.61697055271694,133.63590170487313L125.84675769397191,133.15078233873547L126.22973626273019,134.01055451263312L126.3829276902335,141.0484751964869L126.5361191177368,143.36725713720227L126.76590625899179,146.96755380781556L127.14888482775008,151.7588156211828L127.22548054150172,151.6512989420416L127.37867196900504,155.84606940126778L127.53186339650836,151.10595783895667L127.60845911026,151.99201380500799L127.68505482401167,158.08901568325305L127.91484196526663,164.41603077871468L128.29782053402494,158.2809922772813L128.45101196152822,160.6217071748726L128.52760767527988,144.35823174198472L128.8339905302865,140.34205892099112L129.2169690990448,148.39993510988705L129.52335195405144,156.46177864217782L129.82973480905804,162.12949652119428L129.90633052280972,164.2856167874241L130.289309091568,158.7393666411438L130.4425005190713,145.33330133303951L130.59569194657462,140.7593943991822L130.74888337407793,132.83211086778488L130.9786705153329,144.98916013219826L131.05526622908457,146.64296084062173L131.3616490840912,150.31655501914958L131.82122336660112,150.4647448200571L131.97441479410443,154.8524781990891L132.12760622160775,149.5262349161631L132.28079764911107,152.3906473016497L132.35739336286272,156.49864646264268L132.740371931621,138.89660547487534L133.12335050037927,147.40034466302978L133.35313764163428,151.34570375828292L133.50632906913756,157.80313509352973L133.65952049664088,163.1689251383746L133.73611621039254,162.81319949554344L133.88930763789585,159.9597783846697L134.04249906539917,161.36537572336502L134.27228620665414,163.1117411643122L134.42547763415746,159.80515172858398L134.5020733479091,162.63389687774477L134.57866906166078,158.66142416408286L134.65526477541243,151.77053066883173L135.19143477167404,156.02477595493002L135.34462619917736,161.2220110413883L135.5744133404323,156.12985967390756L135.65100905418396,157.11488387605408L135.72760476793562,153.99977786390917L136.18717905044556,148.36820830749616L136.57015761920385,133.1818497721587L136.7999447604588,130.0907412156102L136.87654047421046,129.41224411491896L137.48930618422372,117.41579226859754L137.56590189797538,107.0317448585559L137.64249761172704,116.09115187986917L137.71909332547867,118.06298961655172L137.87228475298198,117.34301739154424L138.25526332174027,120.23339054096267L138.4084547492436,119.51618783455159L138.48505046299525,116.73027461228651L139.0978161730085,130.91902565146057L139.17441188676017,140.25311094774983L139.48079474176677,150.9503502708777L139.63398616927012,157.4968986562602L139.78717759677343,157.34920206991967L139.86377331052506,162.90938922674752L140.01696473802838,166.20105158318253L140.32334759303504,162.4979330577384L140.39994330678667,159.67700430953178L140.55313473428998,161.40797571563218L140.70632616179333,164.82047246375822L140.78292187554496,158.3542912206479L140.93611330304827,155.62955531650775L141.01270901679993,161.21685739563108L141.08930473055156,154.93129154260257L141.16590044430325,159.64814640472247L141.47228329930985,161.75696574088312L141.54887901306154,162.88481161101382L141.77866615431648,164.8649035924733L141.85526186806814,158.97762441075858L141.93185758181983,165.0907426347991L142.23824043682643,161.82146758461917L142.3148361505781,162.5176424136901L142.4680275780814,161.5469247794145L142.85100614683967,167.99016072525498L143.46377185685293,168.96284048928345L143.69355899810793,164.11431335643368L143.84675042561122,162.02810124301632L143.99994185311454,165.7699679419213L144.0765375668662,158.193228705331L144.38292042187283,160.6574873017504L144.53611184937614,164.20614720777075L144.76589899063111,165.41702528508455L144.84249470438274,163.80955990526192L144.99568613188606,153.1645499380451L145.53185612814767,152.80485766199362L145.685047555651,156.65604760106135L145.76164326940264,159.33648309513205L146.06802612440924,153.67101251531827L146.14462183816093,158.7674692476875L146.3744089794159,163.62350068617596L146.45100469316753,167.40692524104986L146.52760040691922,168.89824911347378L146.68079183442254,166.62449648065416L146.75738754817417,162.60594278633496L146.9105789756775,165.72416150936448L147.0637704031808,161.3373894164194L147.14036611693246,163.4341044695799L147.4467489719391,160.45382736250892L147.67653611319406,160.32420443572363L147.9829189682007,162.29983536615094L148.05951468195232,165.22998247695557L148.28930182320732,163.16385104021214L148.4424932507106,162.78940930290238L148.59568467821393,152.20630641870005L148.67228039196561,158.7739139539065L148.74887610571724,158.5631319231832L149.43823752948214,155.98922490834008L149.59142895698548,158.29805122539133L149.82121609824043,157.95462421583088L149.97440752574374,158.53127055330603L150.1275989532471,162.73020360070467L150.6637689495087,163.30610472643707L150.74036466326032,162.94933837459538L150.9701518045153,163.90988398556848L151.04674751826693,159.95895356257233L151.1233432320186,162.67055343812586L151.5063218007769,161.42982371921957L151.73610894203185,161.09937956083414L151.8893003695352,146.91301330981636L152.11908751079014,152.60107737384638L152.1956832245418,155.53171278178414L152.27227893829345,148.0141470593393L152.57866179330009,149.97817046068175L152.65525750705174,153.30153390693292L152.80844893455503,146.44367779849466L152.96164036205838,143.05618901103702L153.03823607581003,134.26541903740235L153.34461893081664,144.05101579503227L153.4212146445683,152.02829994017796L153.72759749957493,152.48973047523603L153.80419321332658,149.73110453008343L153.9573846408299,154.07714319578662L154.11057606833322,159.13214676703794L154.4935546370915,153.85879940641246L154.57015035084316,152.68704291640665L154.72334177834648,154.69315369704236L154.95312891960143,154.7238005452011L155.48929891586303,119.49347643386741L155.64249034336635,90.54374571101447L155.94887319837298,92.6654661133685L156.02546891212464,80.90052139986777L156.33185176713127,71.00992645927579L156.4084474808829,68.85581190894904L156.86802176339287,50.54594444640638L157.09780890464782,48.39989751222658L157.17440461839948,19.997911184046497L157.25100033215114,19.86273652120026L157.40419175965445,15.506270165821658L157.4807874734061,15.479712216569878L157.55738318715777,5.677149275064111L157.63397890090943,16.529933568127646L157.94036175591606,22.399557587190337L158.01695746966772,14.731039486314117L158.170148897171,15.863605054612727L158.2467446109227,12.210459855531903L158.39993603842598,9.564512166942537L158.62972317968098,13.036875057830976L158.7063188934326,2.673855267722799L159.01270174843927,-9.799940508669824L159.0892974621909,-15.148712703786364L159.70206317220416,4.34457978772444L160.08504174096245,31.42277585555429L160.54461602347237,12.942382103758263L160.62121173722403,-2.7944268831572106L170.0424845286778,-18.900482454599228L170.11908024242945,11.996165846607681L170.50205881118774,64.58277836391197L170.96163309369769,101.48967186164633L171.03822880744934,127.4030646104869L171.42120737620763,142.87812134919588L171.72759023121424,150.3292837698829L172.11056879997253,154.2596081968748L172.72333450998576,161.67454839725627L173.94886593001232,166.4372252051467L174.02546164376395,167.20835225409996L174.40844021252224,166.7919884775442L175.40418449129376,164.03968322530574L175.48078020504542,165.35329345990314L175.8637587738037,166.42143424341728L176.01695020130703,166.22546037436072L176.17014162881034,166.91691991344817L176.246737342562,162.83783637332783L176.32333305631366,163.1315430407133L176.62971591132026,156.80971644890985L176.7829073388236,157.07132147800206L176.93609876632692,154.71745217167233L177.0892901938302,157.05805436241877L177.3190773350852,151.3459343862674L177.39567304883684,145.1595129422455L177.54886447634016,141.15447225814628L177.70205590384347,145.91266178157093L177.77865161759513,150.77334428460676L177.8552473313468,155.20399025936183L177.93184304509845,154.56075163307176L178.08503447260173,152.58789565713116L178.16163018635342,155.95339703265876L178.23822590010505,156.0411812592131L178.46801304136002,154.2110798300171L179.0807787513733,147.518959366082L179.38716160637992,141.49737607818903L179.46375732013158,140.61303010464732L179.69354446138655,148.93766818213228L180.1531187438965,157.35251598760337L180.22971445764813,161.79369647856723L180.38290588515144,163.48495654951643L180.76588445390973,167.9505543650002L180.91907588141305,169.97146239329413L180.9956715951647,170.37195242442957L181.30205445017134,171.88209384361517L181.378650163923,166.7274615545509L181.7616287326813,166.14647415797006L181.9148201601846,163.25968437536108L181.99141587393623,165.03433854228714L182.14460730143955,160.2927484697768L182.83396872520447,163.0599184802862L182.91056443895613,159.6367195055302L183.06375586645942,151.00302772558385L183.21694729396273,153.04485357757125L183.4467344352177,146.53413487130692L183.5233301489694,152.76391057447657L184.2126915727343,152.1799623709874L184.67226585524423,149.03249959519235L185.2084358515058,151.41631348100873L185.51481870651244,159.79846284565667L185.5914144202641,159.71156751081156L185.89779727527073,160.34759101283476L186.58715869903563,157.23146512860262L186.8935415540423,151.09208436149513L186.97013726779392,149.79216124869856L187.0467329815456,147.729326809557L187.42971155030386,151.0714715988517L187.8892858328138,145.12525311625885L188.11907297406879,137.18491636054762L188.19566868782042,130.27027864567407L188.2722644015721,130.92896256467984L188.50205154282708,127.23155404019082L188.6552429703304,118.2753593029504L188.80843439783368,117.99231157526353L188.88503011158537,122.24448478655664L188.961625825337,121.56083023060948L189.26800868034363,126.16283150623244L189.42120010784691,126.86449530258467L189.65098724910192,132.8359878085433L189.72758296285357,131.60467600198422L189.8041786766052,135.8909902058515L190.11056153161186,129.14714033318776L190.57013581412178,138.38286182832312L191.1063058103834,147.57270466053487L191.18290152413505,153.36763631415414L191.2594972378867,154.49954995283704L191.642475806645,156.56327542956126L191.71907152039665,155.36960185072618L191.87226294789997,159.55012965621484L192.4850286579132,158.7744417441078L192.63822008541652,158.92908193958533L192.79141151291984,158.45606056854757L192.8680072266715,160.751218750826L193.09779436792647,160.349474662768L193.63396436418807,163.18118544563586L193.86375150544305,163.05195023252958L194.01694293294636,161.44833322943984L194.17013436044965,165.19249274311744L194.55311292920794,167.59567914732864L194.9360914979662,166.08602943397574L195.0126872117179,151.9452985512405L195.08928292546955,159.94944849894844L195.39566578047618,163.1657440268126L195.4722614942278,164.25833833462687L195.93183577673776,153.19146980877147L196.08502720424107,154.26628245007285L196.2382186317444,153.0991451519432L196.46800577299936,153.12659453301862L196.544601486751,156.72799453686778L196.62119720050268,159.65091171939872L196.69779291425434,154.7755619198429L196.92758005550928,149.4875878908199L197.0807714830126,155.32101945942526L197.4637500517709,154.62177238580347L197.69353719302586,161.35309999468632L197.84672862052918,165.13963093345467L198.15311147553578,167.22408971700878L198.22970718928747,162.3564979266547L198.61268575804576,163.81911574558555L198.91906861305236,160.02601517678258L199.14885575430733,158.56074695103703L199.225451468059,161.14178026476682L199.3786428955623,159.96225565044836L199.68502575056894,151.7157139549066L199.76162146432057,151.21855497833351L199.91481289182389,150.40486957210516L199.99140860557557,141.13103003080212L200.4509828880855,133.78236129711573L200.52757860183715,133.91951924947347L200.68077002934047,134.33653306153965L200.83396145684378,136.6613611045288L201.06374859809875,140.7416521419129L201.1403443118504,135.06601785239758L201.29353573935373,142.29047141450516L201.52332288060867,142.10684399662642L201.82970573561533,140.2478328913791L201.98289716311865,127.65091600304277L202.05949287687028,119.6947406475208L202.21268430437362,115.33646693029675L202.28928001812525,105.63996978771841L202.82545001438686,90.60246688222242L202.97864144189018,74.7345841848765L203.20842858314515,62.01707238607293L203.36162001064847,45.89960997859319L203.43821572440012,46.15293477519093L203.51481143815175,40.82152279458186L203.97438572066173,59.94126417112063L204.74034285817825,79.16542063366357L204.89353428568157,103.42906649363043L205.27651285443986,124.08982925152847L205.42970428194317,142.7996153252015L205.73608713694983,149.872361912065L205.81268285070146,152.16244443544514L205.88927856445312,139.16436400363622L206.04246999195644,145.87562039067834L206.19566141945975,153.77865703788015L206.2722571332114,151.13881765235672L206.57863998821804,145.70069880946215L207.03821427072796,151.08138628673925L207.1914056982313,153.41931912830574L207.34459712573462,154.9143755933234L207.65097998074123,155.94906281584178L208.34034140450615,152.24446365317849L208.4169371182578,146.69543286086687L208.49353283200944,148.40537463815525L208.79991568701607,153.83863092115502L209.18289425577436,161.47974661948896L209.25948996952602,163.06536987677347L209.33608568327767,153.6498491156447L209.6424685382843,157.68331026985638L209.71906425203596,162.53168912191884L209.94885139329094,162.94396859186705L210.10204282079422,161.61458320700493L210.33182996204923,162.6084022946749L210.71480853080752,165.11804209247L210.8679999583108,164.19024958482785L211.02119138581412,162.93787971418027L211.09778709956578,163.72896703568784L211.48076566832404,166.7103569381157L211.63395709582738,165.61423631457666L212.01693566458565,157.91885592140713L212.24672280584062,160.68413275894434L212.39991423334394,153.29920032193215L212.55310566084725,157.72415794718998L212.93608422960554,159.51065753476706L213.16587137086051,160.97169053452723L213.31906279836383,159.9101943262284L213.47225422586712,151.12316514541362L213.5488499396188,152.36548681377164L213.77863708087375,148.6587908000632L213.8552327946254,155.20692990386505L213.9318285083771,154.80323152773835L214.16161564963204,155.8266314657252L214.2382113633837,155.07289855480357L214.31480707713536,153.24080799937482L214.92757278714862,146.35705758855775L215.00416850090028,139.96914232117734L215.0807642146519,136.05573371261585L215.23395564215522,129.6545380269572L215.3105513559069,135.69272125258001L215.6169342109135,135.66739021360578L215.77012563841683,136.666559244178L216.45948706218172,124.25788264720877L216.84246563094,123.33114392799095L216.9190613446917,93.21215844942215L216.99565705844333,120.19964611055656L217.14884848594667,137.4868234704865L217.53182705470493,145.6323725412711L217.6084227684566,145.06839104796364L217.68501848220828,150.3856904799462L217.7616141959599,151.88353255480155L217.91480562346322,150.90618671905142L218.0679970509665,154.98275006248582L218.37437990597317,153.44904321870715L218.6807627609798,153.78534401044863L218.75735847473143,145.3243914144466L218.91054990223478,138.6471781648498L219.14033704348972,133.15775442915037L219.29352847099304,122.74460521101489L219.82969846725462,111.46277763296665L220.2126770360129,103.49031809712591L220.44246417726788,63.78267068928823L220.82544274602617,59.01584697087716L221.05522988728117,65.86176121913027L221.1318256010328,70.72319731978011L221.20842131478446,75.67855646663635L221.5148041697911,90.37972859836766L221.8211870247977,96.98424286353968L221.974378452301,103.1317490691406L222.58714416231427,111.10253842930393L222.66373987606593,106.97361397937415L222.7403355898176,105.59171267857882L223.04671844482422,114.18501559409415L223.35310129983085,111.0002714988313L223.6594841548375,108.30924807565114L223.73607986858912,111.82239499762576L224.04246272359578,114.17271647457271L224.1190584373474,112.01818581168624L224.19565415109906,105.61056291801643L224.27224986485072,106.55443494203024L224.57863271985735,112.45541326714826L224.8084198611123,119.47041261647172L225.0382070023673,119.51489998499844L225.1913984298706,114.79448792602355L225.3445898573739,122.17402057311931L225.65097271238056,123.08824375470992L226.03395128113885,121.45280163038414L226.11054699489048,125.48624821193701L226.18714270864214,128.8470522517952L226.34033413614546,132.8785985163743L226.4169298498971,129.5823516041565L226.57012127740043,128.69362969033483L226.72331270490375,128.5018651794484L226.79990841865538,127.81328731748917L226.87650413240706,131.02665078851194L227.4892698424203,141.87059685303842L227.64246126992361,144.47410072227933L227.8722484111786,140.79576841661262L227.94884412493025,151.85131585031883L228.0254398386819,157.29301139625792L228.10203555243356,161.7399624057271L228.25522697993688,162.825855037417L228.40841840744017,164.24293867076906L228.63820554869517,152.98339077725473L228.7148012624468,136.60935193827103L229.02118411745346,143.17824476503552L229.0977798312051,151.25410823699573L229.17437554495675,150.46325142441188L229.40416268621175,147.23431325885036L230.01692839622498,156.68255049337643L231.39565124375477,161.37513693895505L231.47224695750646,163.00273769103285L231.85522552626475,164.66283837517983L231.93182124001638,168.6729697573726L232.08501266751972,164.17453301519248L232.23820409502304,153.10919891756777L232.31479980877467,157.75086499399285L232.54458695002964,163.19135168859154L232.85096980503627,159.36269655356813L232.92756551878793,164.66489787064828L233.08075694629125,161.46787954396268L233.23394837379456,165.3727048008963L233.31054408754622,158.16777797163124L233.69352265630448,161.66340258001046L233.77011837005614,160.9937839099806L233.99990551131114,164.8700837119095L234.07650122506277,166.56300331256875L234.38288408006943,161.09241136476112L234.45947979382106,160.6216762598102L234.53607550757272,162.54515294116797L234.99564979008267,161.50587399791783L235.14884121758595,162.4497712730287L235.22543693133764,165.67807738195617L235.30203264508927,167.48708650628518L236.29777692386082,166.23422493643895L236.37437263761248,166.5357189593948L236.5275640651158,168.99534969322244L236.91054263387406,167.11065277134878L237.29352120263235,160.4176324017269L237.44671263013566,155.33386987152178L237.9062869126456,158.52050589592517L238.05947834014893,156.09990898511597L238.21266976765224,158.9363784602462L238.36586119515556,156.8052854023281L238.44245690890722,159.82008097217954L238.59564833641053,155.3746319943428L238.97862690516882,138.14518159793684L239.05522261892045,122.9173136618847L239.1318183326721,112.21571567823653L239.20841404642377,105.5806648030162L239.43820118767874,96.21197628009045L239.5147969014304,93.50785230527966L239.74458404268535,78.49615689769459L239.82117975643703,41.945563672973435L239.8977754701887,56.32372260239416L239.97437118394035,97.2467305646856L240.28075403894695,110.60894525510867L240.35734975269864,129.05721817331053L240.74032832145693,145.24505755072116L240.89351974896022,147.0429423972086L241.2764983177185,157.11437242850863L241.35309403147016,152.76257536476874L241.50628545897348,160.16117837874472L241.6594768864768,157.21614495370554L241.73607260022845,154.77831967065404L241.88926402773174,158.075702518656L242.04245545523506,157.02196202211096L242.42543402399335,157.39423374976178L242.65522116524832,161.46440422714858L242.80841259275164,160.20397391206168L242.8850083065033,165.22182347323383L243.19139116150993,167.77189145266436L243.57436973026822,166.47933469515195L244.1105397265298,154.69081756141216L244.18713544028145,151.22170482547773L244.57011400903974,147.88218390863267L244.72330543654306,151.73484754943428L245.10628400530132,158.8156940154022L245.182879719053,154.74537690166196L245.25947543280463,162.0396257226951L245.33607114655632,160.591768854848L246.02543257032121,160.91194452042384L246.4084111390795,155.6593361847461L246.63819828033448,160.08570204044355L246.71479399408614,156.14784468024448L247.40415541785103,149.2123259482744L247.55734684535435,152.75936341265918L247.78713398660932,159.3229003028213L247.94032541411264,159.6837306351366L248.39989969662258,161.02296660928843L248.9360696928842,152.90945270233019L249.08926112038748,155.2570718872975L249.16585683413913,153.0530211238217L249.31904826164248,157.8703273409665L249.54883540289742,151.7123045839208L249.85521825790406,151.43805669726783L250.085005399159,140.9300424783033L250.1616011129107,118.37084002262579L250.314792540414,134.86163960777708L250.4679839679173,144.2233307952463L250.54457968166898,149.02025404152292L251.0041539641789,156.9268045645126L251.08074967793058,161.63979517734325L251.23394110543387,153.67339190591426L251.3871325329372,153.5419945779092L251.61691967419216,154.13176712759744L252.15308967045377,158.23106383725744L252.45947252546037,159.9143244913796L252.53606823921203,160.17323143157586L252.765855380467,159.19724622034943" fill="none"></path></g></g></g></g><g opacity="0.2"><g><g><g><path style="fill: none;" stroke="rgb(255, 112, 67)" stroke-width="2px" d="M38.68083544458662,88.37924023036966L38.75743115833828,100.19899116899242L39.29360115459987,48.60732969661956L39.67657972335815,85.12713167604875L39.82977115086147,85.12713167604875L40.05955829211644,72.24981323473531L40.21274971961975,14.105173455304396L40.2893454333714,40.36585340354708L40.44253686087472,90.49699247140371L40.59572828837804,61.765619980601976L40.825515429633,78.3517049032908L40.978706857136316,-6.954507091532578L41.514876853397915,61.54681024548256L41.82125970840454,-40.584682132950505L41.8978554221562,107.67637269132126L41.974451135907856,99.29697801821919L42.20423827716282,126.4212573863573L42.89359970092774,-80.06776911707341L42.97019541467939,-80.06776911707341L43.046791128431046,60.49876749279394L43.27657826968601,-59.85648151969379L43.50636541094099,45.354249341718734L43.81274826594761,-15.178303239963599L44.119131120954236,58.37660901958503L44.1957268347059,104.24745164739723L44.27232254845755,84.03571127929285L44.42551397596087,84.03571127929285L44.578705403464184,98.12627857188107L44.655301117215835,78.43449568678682L44.80849254471915,93.63567643758432L44.88508825847081,118.18096271444449L45.038279685974125,90.87923035177556L45.191471113477434,96.85218175247729L45.72764110973903,105.32435025139637L45.957428250994,101.1551656373135L46.03402396474566,104.44326394265663L46.18721539224897,147.2758162301068L46.4935982472556,142.77857713957675L46.87657681601388,121.8770184859621L46.95317252976554,129.82392324984093L47.87232109478542,115.00329629318306L47.94891680853707,119.3981760703578L48.2552996635437,117.14532146233826L48.48508680479867,107.50296702534203L48.638278232301985,109.94250121180744L48.791469659805294,121.40943884557191L49.48083108357021,133.85038569693666L49.94040536608014,155.48578354585368L50.32338393483843,154.087152690771L50.39997964859009,151.20204793841293L50.62976678984506,141.3650876744909L50.782958217348366,144.29776648251138L50.93614964485168,154.09067822867033L51.39572392736163,144.26159451888043L51.47231964111328,145.4162868636209L52.16168106487819,154.7835444341813L52.314872492381504,154.7835444341813L52.46806391988481,150.85630227413586L52.69785106113979,163.38058102522862L53.3872124849047,158.24571099680813L53.61699962615967,155.33372436306746L53.693595339911326,166.3664383070286L53.846786767414635,135.12989920025464L54.07657390866961,164.5443177412754L54.6127439049312,152.8865565726149L54.76593533243452,151.1592666265197L54.842531046186174,156.98353253849385L55.1489139011928,140.66039421419478L55.22550961494446,157.1708581434616L55.302105328696115,168.39689414369613L55.37870104244777,160.69541595979746L55.60848818370274,149.99693515619785L55.6850838974544,156.22142002006947L55.99146675246102,156.22142002006947L56.06806246621268,156.22142002006947L56.14465817996434,156.22142002006947L56.52763674872262,156.22142002006947L56.68082817622594,156.22142002006947L56.757423889977595,156.22142002006947L57.06380674498422,156.22142002006947L57.446785313742495,156.22142002006947L57.52338102749416,156.22142002006947L57.67657245499747,156.22142002006947L57.829763882500785,156.22142002006947L57.90635959625244,156.22142002006947L57.982955310004094,156.22142002006947L58.21274245125907,157.86244886071142L58.365933878762384,152.723901450551L58.59572102001736,152.27637624031007L58.74891244752067,136.12650278133802L58.97869958877563,153.12074946918688L59.05529530252729,153.26960336653767L59.361678157533916,162.59834505672745L59.43827387128558,152.6758552985842L59.51486958503723,169.01605810977097L59.59146529878889,143.8051408908115L59.82125244004386,170.4875243139997L59.897848153795515,168.17913903306967L60.2808267225538,151.45048930882854L60.893592432567054,150.31828641728129L61.04678386007036,152.18142414557957L61.12337957382202,152.79358396940654L61.27657100132533,161.72768075704792L61.42976242882865,157.3530210578485L61.506358142580304,156.86942051187518L61.73614528383528,158.98487853051745L61.81274099758693,151.37474960113113L61.889336711338586,148.9783031750373L62.0425281388419,153.50384871825457L62.50210242135184,160.81996932105605L62.5786981351035,153.73245928308623L62.65529384885515,169.47789529218892L63.03827241761344,165.70273992290072L63.19146384511675,162.74248351262793L63.2680595588684,158.54216538962535L63.421250986371724,144.54910392908704L64.1872081238883,135.6795352521117L64.3403995513916,160.46523726221184L64.57018669264657,165.88130551866365L64.79997383390155,155.15021694049184L64.95316526140486,158.1715532258502L65.18295240265982,142.38516907413003L65.33614383016314,152.0432738585934L65.48933525766645,145.80039104283375L65.64252668516977,161.9475589206458L65.87231382642473,156.41768232525652L65.94890954017639,165.95040827012778L66.1021009676797,164.21888602207514L66.63827096394131,166.21569050286584L66.71486667769295,149.60044328038816L66.79146239144461,147.907028314735L66.86805810519627,162.86443896381354L67.63401524271283,148.89763820530982L67.86380238396781,146.8229129871111L67.94039809771947,126.37334099185426L68.24678095272608,92.35973540571639L68.62975952148437,157.57680022775156L68.78295094898769,127.12407350462402L68.93614237649099,145.96577935402865L69.16592951774598,163.22073087302041L69.39571665900094,160.17721434374425L69.85529094151087,152.69772357242945L69.93188665526253,164.66466088695336L70.08507808276586,148.36711515179022L70.16167379651752,148.36711515179022L70.62124807902744,151.11418280984336L70.69784379277911,165.42722893689958L70.92763093403407,159.92015100397896L71.2340137890407,154.85465152434148L71.31060950279236,148.31398637235853L71.38720521654402,167.32102531701602L71.46380093029568,164.0975517502375L71.84677949905397,148.88848616291656L72.07656664030893,160.2468029954983L72.15316235406058,156.5643717576793L72.22975806781223,155.13115363650226L72.61273663657052,158.2985636965296L72.9957152053288,169.92071886496507L73.14890663283212,159.47749583982602L73.22550234658377,136.66082193087294L73.30209806033542,122.77009217571891L73.37869377408708,147.83493009841519L73.5318852015904,147.33264447765524L74.14465091160366,165.91020554272785L74.45103376661028,164.07398282537739L74.52762948036195,136.28269211658892L75.2935866178785,147.34926447620953L75.6765651866368,155.5211024231801L75.82975661414011,150.3281700709066L75.90635232789175,164.9673519204241L75.98294804164341,166.87484461496376L76.05954375539507,158.09982219554496L76.3659266104017,156.47559832686315L76.74890517915999,158.05075178785324L76.82550089291165,158.05075178785324L77.05528803416661,126.95182737342765L77.4382666029249,166.11492969103264L77.51486231667656,156.18326304332217L77.82124517168317,150.17124360282946L77.89784088543483,144.1203631823284L77.97443659918649,142.42862402051617L78.1276280266898,166.0429225810172L78.35741516794477,162.43060730719873L78.6637980229514,141.1840235573506L78.74039373670306,164.0679449621152L79.04677659170969,132.42571500358753L79.12337230546134,153.44055744469028L79.50635087421963,164.666300800432L79.65954230172294,160.47881486235968L80.04252087048123,159.9728132087004L80.11911658423288,165.52552159612358L80.19571229798453,165.2690242197642L80.4254994392395,155.33819685437277L80.50209515299116,156.1338033632391L80.5786908667428,165.7999420672694L80.80847800799779,149.03826216649944L80.88507372174944,165.91240865881528L80.9616694355011,156.98320952523292L81.03826514925275,158.6861050681345L81.42124371801104,148.7950828753603L81.57443514551434,164.88821367149407L81.651030859266,158.97723940493609L81.72762657301767,165.86001149061562L81.80422228676933,166.18154220351067L82.03400942802429,153.7861374611412L82.18720085552759,151.47425148948582L82.41698799678258,167.45308804639217L82.49358371053424,160.93537063992142L82.87656227929251,170.9887994830203L82.95315799304417,164.6233041463648L83.18294513429915,137.52398514482624L83.33613656180245,165.26340875845864L83.71911513056074,155.27341751117046L83.87230655806404,170.89247665252861L84.10209369931903,156.22405105970773L84.25528512682233,142.44752443747674L84.33188084057399,142.26903890482976L84.40847655432565,158.95366495848174L84.48507226807732,158.96096174522245L84.63826369558062,164.4377758203105L84.71485940933228,150.25275061567302L84.86805083683558,150.31658024467222L85.0212422643389,122.0010224485974L85.09783797809057,160.65715407276025L85.17443369184222,165.70912840739484L85.40422083309718,164.72287505464703L85.63400797435216,158.89454524933862L86.01698654311043,151.1972551946438L86.32336939811707,159.23070542607744L86.39996511186872,147.6095469053958L86.55315653937203,158.6075824769582L86.78294368062701,147.94269505249628L87.08932653563363,161.47343343032668L87.16592224938529,169.8046107820416L87.3191136768886,148.04423716990937L87.39570939064026,121.25706493191605L87.47230510439192,144.4236809167413L87.54890081814357,151.60423257784703L87.85528367315021,149.18823694747363L87.93187938690185,172.5207091986026L88.08507081440517,158.31861260508464L88.16166652815683,159.92783154151684L88.46804938316346,155.0445446706141L89.08081509317671,156.03897274358107L89.38719794818333,162.48448978423926L89.463793661935,168.75348421899002L89.69358080318996,162.34308451746978L89.77017651694162,121.10574564275315L89.84677223069328,151.30256856089827L89.99996365819658,166.41764281088018L90.07655937194825,148.19985778095725L90.22975079945155,163.21939740802011L90.38294222695487,163.59473605643396L90.45953794070653,152.7768866685334L90.61272936820984,161.13621862909494L90.76592079571316,129.68556314227502L90.99570793696812,152.30037861031522L91.22549507822309,158.53111391882587L91.53187793322971,160.33703688798144L91.60847364698137,164.29330054716357L92.14464364324297,165.48002089908482L92.29783507074629,163.60211842788485L92.37443078449795,164.18102721141483L92.75740935325622,156.17009128034834L93.06379220826285,160.6175670031141L93.21698363576616,168.56380089329716L93.5233664907728,162.78137210060729L93.90634505953108,81.49525891555942L94.28932362828935,-153.0555805222975L94.36591934204101,-26.909040558422337L94.44251505579268,34.606488309847705L94.67230219704764,99.90121711516043L94.82549362455096,143.32663953708564L94.97868505205426,154.90367223768533L95.05528076580593,155.94862565841677L95.20847219330923,140.5499457653305L95.43825933456421,164.39916331204134L95.51485504831587,164.50434416003492L95.59145076206752,170.59347818518188L95.74464218957084,165.9684694047693L95.89783361707414,145.83486787704405L95.9744293308258,136.28426024934288L96.12762075832913,170.35952271716067L96.28081218583243,148.60877048292903L96.58719504083905,169.62506510330743L96.74038646834238,155.09320095874048L97.046769323349,152.11189899215884L97.12336503710065,152.26712480922114L97.35315217835563,153.28305949161302L97.50634360585894,163.76317780922375L97.7361307471139,149.7062618725123L97.88932217461722,147.9328500500304L98.04251360212054,162.7333287094376L98.2723007433755,142.43618860457576L98.50208788463048,152.9725526415464L98.57868359838213,160.48335361279544L98.96166216714042,158.6581243895053L99.3446407358987,157.9334620837701L99.65102359090533,161.58453342730704L99.72761930465698,160.4658253119946L99.80421501840864,150.38690050765834L99.95740644591194,145.93209762938375L100.03400215966361,168.50022801842843L100.11059787341527,169.381877529777L100.49357644217355,98.42510725020605L100.72336358342852,124.61549730423076L100.79995929718018,108.7878419966322L100.87655501093182,122.72400895049164L100.95315072468348,134.45244928576147L101.10634215218681,131.81704758809462L101.33612929344177,140.7009944963774L101.56591643469673,156.23256811876752L102.25527785846165,150.85909067920892L102.48506499971663,141.52895202568547L103.02123499597822,152.95868791849995L103.09783070972988,167.64078083737448L103.17442642348153,171.75496209079336L103.48080927848817,165.80328263176287L103.63400070599147,152.27968367523832L103.78719213349478,160.72137849574506L103.86378784724646,149.1238082255033L104.17017070225307,167.8033641787137L104.62974498476301,157.60412383667048L104.78293641226632,166.66032239774384L105.0127235535213,170.28023262439L105.08931926727296,168.10051705319776L105.31910640852792,172.52148636298682L105.54889354978289,164.14972253307477L105.7020849772862,170.04851754321712L105.85527640478952,158.68255192226417L106.2382549735478,169.94807422305064L106.31485068729945,172.74975873017345L106.54463782855441,148.04614764150398L106.85102068356106,151.09797417005726L107.00421211106436,153.7737746117183L107.310594966071,167.58310226431863L107.38719067982265,170.82117492617274L107.61697782107761,158.14755913823635L107.77016924858094,172.28872217891512L107.8467649623326,160.30473556188755L108.07655210358756,174.72669375422078L108.15314781733922,154.26361731993933L108.38293495859419,167.89833559902394L108.45953067234585,170.88958333716567L108.5361263860975,162.89776178483515L108.99570066860744,160.50810968040946L109.37867923736572,172.51130868447012L109.53187066486905,156.87108527252772L109.60846637862069,157.0485134198846L110.68080637114389,168.1576158588622L110.75740208489555,170.21201746919422L110.91059351239885,172.6179072017756L111.44676350866045,165.47145966727138L111.52335922241211,164.575583768456L111.59995493616375,115.18074928771387L111.90633779117039,169.3601058838303L111.98293350492204,162.98670914586873L112.28931635992868,158.77393430634174L112.5956992149353,150.63649865205971L112.67229492868695,160.23008636904547L112.82548635619028,174.16588613689032L112.97867778369358,156.2048083039065L113.05527349744524,162.34197467703476L113.1318692111969,164.39246561827179L113.20846492494854,160.52068787200636L113.82123063496181,150.1448089705774L114.12761348996844,119.72624711158763L114.28080491747174,101.113107654261L114.51059205872673,33.79618331721009L114.89357062748499,165.53954920619904L115.35314490999494,142.8570666011878L115.4297406237466,170.4194057867025L115.50633633749827,150.09634593824816L115.65952776500157,167.82754047893627L115.88931490625653,170.84693454353334L116.65527204377311,172.37694759150654L116.80846347127643,165.14014745024377L116.96165489877973,169.10360574667382L117.19144204003472,159.87581536331726L117.42122918128968,156.74383461250042L117.57442060879298,162.53450714533693L117.65101632254463,157.7469453923533L118.03399489130292,164.4229282534957L118.11059060505458,168.321783897738L118.34037774630956,160.46847843800964L118.41697346006121,150.09169951672544L118.49356917381287,144.5466026469126L118.72335631506783,162.37956016878195L118.79995202881949,167.72354401289948L119.10633488382612,151.64117204307234L119.25952631132942,170.50150775132155L119.71910059383937,173.75985846789018L119.87229202134267,159.45301309112511L120.10207916259766,170.95886139924576L120.40846201760428,162.09057925371997L120.71484487261091,169.42732301087372L120.86803630011423,166.62355962353305L121.17441915512086,142.94880236729443L121.2510148688725,137.42753393726932L121.63399343763079,132.40425256691626L121.78718486513411,125.6700665812686L122.70633343015399,92.72673368608497L123.01271628516061,112.99020587028738L123.08931199891227,103.08418978845201L123.16590771266392,35.2137974131664L123.3956948539189,20.39672084158174L123.5488862814222,59.447908727061254L123.77867342267717,85.59662178803354L124.0850562776838,106.50235476686649L124.2382477051871,78.97330389240966L124.31484341893876,66.71795990862097L124.6212262739454,99.48762762289779L124.69782198769705,103.67990354394212L124.92760912895203,106.60574109674374L125.23399198395865,119.65772964910914L125.3105876977103,129.4659472544018L125.46377912521363,131.0199888999526L125.61697055271694,151.19541650377383L125.84675769397191,132.423103289529L126.22973626273019,135.3002127734796L126.3829276902335,151.60535622226757L126.5361191177368,146.84543004827535L126.76590625899179,152.36799881373554L127.14888482775008,158.94570834123368L127.22548054150172,151.49002392332977L127.37867196900504,162.138225090107L127.53186339650836,143.99579049549007L127.60845911026,153.32109775408492L127.68505482401167,167.23451850062065L127.91484196526663,173.90655342190715L128.29782053402494,149.07843452513123L128.45101196152822,164.13277952125955L128.52760767527988,119.9630185926529L128.8339905302865,134.3177996895007L129.2169690990448,160.48674939323095L129.52335195405144,168.554543940614L129.82973480905804,170.6310733397189L129.90633052280972,167.5197971867688L130.289309091568,150.4199914217234L130.4425005190713,125.22420337088309L130.59569194657462,133.89853399839626L130.74888337407793,120.94118557068884L130.9786705153329,163.22473402881838L131.05526622908457,149.12366190325687L131.3616490840912,155.82694628694136L131.82122336660112,150.68702952141837L131.97441479410443,161.4340782676371L132.12760622160775,141.53686999177413L132.28079764911107,156.6872658798796L132.35739336286272,162.66064520413212L132.740371931621,112.4935439932243L133.12335050037927,160.15595344526142L133.35313764163428,157.26374240116266L133.50632906913756,167.48928209639993L133.65952049664088,171.21761020564185L133.73611621039254,162.27961103129675L133.88930763789585,155.67964671835907L134.04249906539917,163.47377173140802L134.27228620665414,165.73128932573294L134.42547763415746,154.84526757499165L134.5020733479091,166.87701460148597L134.57866906166078,152.70271509358994L134.65526477541243,141.434190425955L135.19143477167404,162.40614388407752L135.34462619917736,169.0178636710757L135.5744133404323,148.4916326226865L135.65100905418396,158.5924201792738L135.72760476793562,149.32711884569184L136.18717905044556,139.9208539728767L136.57015761920385,110.40231196915248L136.7999447604588,125.45407838078748L136.87654047421046,128.3944984638821L137.48930618422372,99.42111449911539L137.56590189797538,91.45567374349343L137.64249761172704,129.6802624118391L137.71909332547867,121.02074622157548L137.87228475298198,116.26305905403302L138.25526332174027,124.56895026509034L138.4084547492436,118.44038377493493L138.48505046299525,112.5514047788889L139.0978161730085,152.2021522102217L139.17441188676017,154.25423889218368L139.48079474176677,166.99620925556954L139.63398616927012,167.31672123433395L139.78717759677343,157.12765719040885L139.86377331052506,171.2496699619893L140.01696473802838,171.13854511783504L140.32334759303504,156.94325526957218L140.39994330678667,155.44561118722189L140.55313473428998,164.00443282478273L140.70632616179333,169.9392175859473L140.78292187554496,148.65501935598243L140.93611330304827,151.54245146029754L141.01270901679993,169.59781051431608L141.08930473055156,145.5029427630598L141.16590044430325,166.7234286979023L141.47228329930985,164.92019474512415L141.54887901306154,164.57658041620982L141.77866615431648,167.83504156466253L141.85526186806814,150.14670563818652L141.93185758181983,174.26041997085989L142.23824043682643,156.91755500934926L142.3148361505781,163.56190465729648L142.4680275780814,160.0908483280011L142.85100614683967,177.6550146440157L143.46377185685293,170.4218601353262L143.69355899810793,156.84152265715903L143.84675042561122,158.89878307289027L143.99994185311454,171.38276799027872L144.0765375668662,146.82811985044555L144.38292042187283,164.35387519637945L144.53611184937614,169.52913706680135L144.76589899063111,167.23334240105518L144.84249470438274,161.39836183552796L144.99568613188606,137.19703498721987L145.53185612814767,152.2653192479164L145.685047555651,162.43283250966294L145.76164326940264,163.35713633623806L146.06802612440924,145.17280664559766L146.14462183816093,166.41215434624132L146.3744089794159,170.90754784390867L146.45100469316753,173.0820620733607L146.52760040691922,171.1352349221097L146.68079183442254,163.21386753142474L146.75738754817417,156.57811224485616L146.9105789756775,170.4014895939088L147.0637704031808,154.75723127700172L147.14036611693246,166.57917704932063L147.4467489719391,155.9834117019025L147.67653611319406,160.12977004554568L147.9829189682007,165.26328176179194L148.05951468195232,169.62520314316254L148.28930182320732,160.0646538850969L148.4424932507106,162.2277466969378L148.59568467821393,136.33165209239652L148.67228039196561,168.62532525671614L148.74887610571724,158.24695887709825L149.43823752948214,152.12836438607542L149.59142895698548,161.76129070096817L149.82121609824043,157.43948370149025L149.97440752574374,159.39624005951873L150.1275989532471,169.02860317180267L150.6637689495087,164.16995641503564L150.74036466326032,162.41418884683287L150.9701518045153,165.35070240202808L151.04674751826693,154.03255792807815L151.1233432320186,166.73795325145613L151.5063218007769,159.56872914086009L151.73610894203185,160.60371332325604L151.8893003695352,125.63346393328975L152.11908751079014,161.13317346989137L152.1956832245418,159.92766589369072L152.27227893829345,136.73779847567207L152.57866179330009,152.92420556269542L152.65525750705174,158.28657907630966L152.80844893455503,136.1568936358373L152.96164036205838,137.97495582985053L153.03823607581003,121.07926407695035L153.34461893081664,158.7294109314771L153.4212146445683,163.9942261578965L153.72759749957493,153.1818762778232L153.80419321332658,145.5931656123545L153.9573846408299,160.5962011943414L154.11057606833322,166.7146521239149L154.4935546370915,145.94877836547428L154.57015035084316,150.9294081813979L154.72334177834648,157.7023198679959L154.95312891960143,154.76977081743922L155.48929891586303,66.64799026686683L155.64249034336635,47.119149626735066L155.94887319837298,95.84804671689956L156.02546891212464,63.253104329616754L156.33185176713127,56.174034048387846L156.4084474808829,65.62464008345887L156.86802176339287,23.08114325259244L157.09780890464782,45.180827110956905L157.17440461839948,-22.605068308223583L157.25100033215114,19.65997452693091L157.40419175965445,8.97157063275376L157.4807874734061,15.439875292692205L157.55738318715777,-9.026695137194539L157.63397890090943,32.809110007722964L157.94036175591606,31.20399361578439L158.01695746966772,3.228262334999847L158.170148897171,17.56245340706063L158.2467446109227,6.730742056910699L158.39993603842598,5.595590634058467L158.62972317968098,18.245419394163676L158.7063188934326,-12.870674417439506L159.0892974621909,-23.171870996461152L159.70206317220416,33.58451852499076L160.08504174096245,72.04006995729901L160.54461602347237,-14.778208523935707L169.81269738742284,-30.74807249026047L170.0424845286778,26.68980323104779L170.11908024242945,58.341138298417995L170.50205881118774,143.46269713986845L170.96163309369769,156.85001210824782L171.03822880744934,166.27315373374773L171.42120737620763,166.09070645725933L171.72759023121424,161.5060274009134L172.11056879997253,160.1550948373627L172.72333450998576,172.79695869782853L173.94886593001232,173.5812404169823L174.02546164376395,168.36504282752986L174.40844021252224,166.16744281271056L175.40418449129376,159.91122534694804L175.48078020504542,167.3237088117992L175.8637587738037,168.0236454186885L176.01695020130703,165.93149957077588L176.17014162881034,167.95410922207938L176.246737342562,156.7192110631473L176.32333305631366,163.57210304179145L176.62971591132026,147.32697656120476L176.7829073388236,157.46372902164035L176.93609876632692,151.18664821217774L177.0892901938302,160.56895764853846L177.3190773350852,142.77775442204035L177.39567304883684,135.87988077621264L177.54886447634016,135.14691123199742L177.70205590384347,153.04994606670792L177.77865161759513,158.0643680391605L177.8552473313468,161.84995922149443L177.93184304509845,153.59589369363664L178.08503447260173,149.62861169322028L178.16163018635342,161.0016490959501L178.23822590010505,156.17285759904456L178.46801304136002,151.46592768622315L179.0807787513733,137.4807786701793L179.38716160637992,132.46500114634958L179.46375732013158,139.2865111443348L179.69354446138655,161.4246252983597L180.1531187438965,169.97478769581L180.22971445764813,168.45546721501304L180.38290588515144,166.02184665594018L180.76588445390973,174.64895108822583L180.91907588141305,173.002824435735L180.9956715951647,170.9726874711328L181.30205445017134,174.14730597239358L181.378650163923,158.9955131209545L181.7616287326813,165.2749930630988L181.9148201601846,158.92949970144758L181.99141587393623,167.69631979267626L182.14460730143955,153.18036336101125L182.83396872520447,167.21067349605033L182.91056443895613,154.50192104339624L183.06375586645942,138.05249005566426L183.21694729396273,156.1075923555523L183.4467344352177,136.76805681191044L183.5233301489694,162.10857412923107L184.2126915727343,151.30404006575364L184.67226585524423,144.3113054314998L185.2084358515058,154.99203430973327L185.51481870651244,172.3716868926286L185.5914144202641,159.58122450854393L185.89779727527073,161.30162626586954L186.58715869903563,152.5572763022544L186.8935415540423,141.8830132108339L186.97013726779392,147.8422765795037L187.0467329815456,144.6350751508446L187.42971155030386,156.0846887827938L187.8892858328138,136.20592539236955L188.11907297406879,125.27441122698082L188.19566868782042,119.89832207336367L188.2722644015721,131.91698844318853L188.50205154282708,121.68544125345721L188.6552429703304,104.8410671970898L188.80843439783368,117.56773998373323L188.88503011158537,128.62274460349627L188.961625825337,120.53534839668873L189.26800868034363,133.0658334196669L189.42120010784691,127.91699099711298L189.65098724910192,141.7932265674813L189.72758296285357,129.75770829214557L189.8041786766052,142.32046151165238L190.11056153161186,119.03136552419215L190.57013581412178,152.23644407102614L191.1063058103834,161.35746890885252L191.18290152413505,162.06003379458298L191.2594972378867,156.19742041086144L191.642475806645,159.65886364464754L191.71907152039665,153.57909148247361L191.87226294789997,165.82092136444783L192.4850286579132,157.6109098759473L192.63822008541652,159.1610422328016L192.79141151291984,157.7465285119909L192.8680072266715,164.19395602424368L193.09779436792647,159.74685853068092L193.63396436418807,167.42875161993769L193.86375150544305,162.85809741287014L194.01694293294636,159.04290772480525L194.17013436044965,170.80873201363383L194.55311292920794,171.20045875364542L194.9360914979662,163.8215548639464L195.0126872117179,130.73420222713767L195.08928292546955,171.95567342051035L195.39566578047618,167.99018731860886L195.4722614942278,165.89722979634826L195.93183577673776,136.59116701998843L196.08502720424107,155.8785014120249L196.2382186317444,151.34843920474867L196.46800577299936,153.16776860463176L196.544601486751,162.13009454264147L196.62119720050268,164.03528749319517L196.69779291425434,147.4625372205092L196.92758005550928,141.5556268472854L197.0807714830126,164.0711668123333L197.4637500517709,153.57290177537084L197.69353719302586,171.45009140801056L197.84672862052918,170.81942734160717L198.15311147553578,170.35077789233995L198.22970718928747,155.05511024112363L198.61268575804576,166.01304247398178L198.91906861305236,154.33636432357812L199.14885575430733,156.36284461241868L199.225451468059,165.0133302353615L199.3786428955623,158.19296872897073L199.68502575056894,139.34590141159393L199.76162146432057,150.47281651347384L199.91481289182389,149.18434146276263L199.99140860557557,127.22027071884757L200.4509828880855,122.75935819658618L200.52757860183715,134.12525617801012L200.68077002934047,134.96205377963892L200.83396145684378,140.14860316901252L201.06374859809875,146.86208869798907L201.1403443118504,126.5525664181246L201.29353573935373,153.12715175766652L201.52332288060867,141.83140286980833L201.82970573561533,137.45931623350802L201.98289716311865,108.75554067053831L202.05949287687028,107.76047761423787L202.21268430437362,108.79905635446069L202.28928001812525,91.09522407385089L202.82545001438686,68.0462125239784L202.97864144189018,50.93276013885759L203.20842858314515,42.94080468786763L203.36162001064847,21.723416367373602L203.43821572440012,46.53292197008756L203.51481143815175,32.82440482366826L203.97438572066173,88.62087623592873L204.74034285817825,108.001655327478L204.89353428568157,139.82453528358067L205.27651285443986,155.08097338837553L205.42970428194317,170.86429443571097L205.73608713694983,160.48148179236026L205.81268285070146,155.59756822051537L205.88927856445312,119.66724335592279L206.04246999195644,155.94250497124153L206.19566141945975,165.6332120086829L206.2722571332114,147.17905857407158L206.57863998821804,137.5435205451203L207.03821427072796,159.15241750265483L207.1914056982313,156.92621839065546L207.34459712573462,157.15696029084992L207.65097998074123,157.5010936496194L208.34034140450615,146.6875649091835L208.4169371182578,138.37188667239946L208.49353283200944,150.97028730408783L208.79991568701607,161.98851534565458L209.18289425577436,172.94142016698993L209.25948996952602,165.44380476270024L209.33608568327767,139.52656797395153L209.6424685382843,163.7335020011739L209.71906425203596,169.80425740001255L209.94885139329094,163.56238779678935L210.10204282079422,159.62050512971177L210.33182996204923,164.09913092617987L210.71480853080752,168.88250178916263L210.8679999583108,162.79856082336462L211.02119138581412,161.05932490820888L211.09778709956578,164.91559801794924L211.48076566832404,171.1824417917575L211.63395709582738,163.97005537926813L212.01693566458565,146.37578533165285L212.24672280584062,164.83204801525017L212.39991423334394,142.22180166641382L212.55310566084725,164.36159438507676L212.93608422960554,162.19040691613267L213.16587137086051,163.16324003416747L213.31906279836383,158.31795001378015L213.47225422586712,137.94262137419142L213.5488499396188,154.2289693163087L213.77863708087375,143.09874677950052L213.8552327946254,165.0291385595678L213.9318285083771,154.19768396354837L214.16161564963204,157.36173137270544L214.2382113633837,153.94229918842112L214.31480707713536,150.49267216623176L214.92757278714862,136.03143197233211L215.00416850090028,130.38726942010672L215.0807642146519,130.1856207997736L215.23395564215522,120.05274449846925L215.3105513559069,144.7499960910142L215.6169342109135,135.6293936551444L215.77012563841683,138.1653127900363L216.45948706218172,105.64486775175499L216.84246563094,121.94103584916422L216.9190613446917,48.03368023156896L216.99565705844333,160.6808776022581L217.14884848594667,163.41758951038148L217.53182705470493,157.85069614744802L217.6084227684566,144.22241880800246L217.68501848220828,158.36163962791994L217.7616141959599,154.13029566708462L217.91480562346322,149.4401679654262L218.0679970509665,161.09759507763735L218.37437990597317,151.14848295303912L218.6807627609798,154.2897951980609L218.75735847473143,132.63296252044358L218.91054990223478,128.63135829045464L219.14033704348972,124.92361882560121L219.29352847099304,107.12488138381164L219.82969846725462,94.54003626589429L220.2126770360129,91.53162879336482L220.44246417726788,4.221199577531706L220.82544274602617,51.86561139326063L221.05522988728117,76.13063259150994L221.1318256010328,78.01535147075487L221.20842131478446,83.11159518692068L221.5148041697911,112.43148679596462L221.8211870247977,106.8910142612977L221.974378452301,112.35300837754198L222.58714416231427,123.05872246954894L222.66373987606593,100.78022730447945L222.7403355898176,103.51886072738583L223.04671844482422,127.07496996736711L223.35310129983085,106.22315535593702L223.6594841548375,104.27271294088091L223.73607986858912,117.09211538058771L224.04246272359578,117.69819868999309L224.1190584373474,108.78638981735651L224.19565415109906,95.99912857751167L224.27224986485072,107.97024297805098L224.57863271985735,121.30688075482527L224.8084198611123,129.9929116404569L225.0382070023673,119.58163103778847L225.1913984298706,107.71386983756119L225.3445898573739,133.24331954376294L225.65097271238056,124.45957852709586L226.03395128113885,118.99963844389549L226.11054699489048,131.5364180842663L226.18714270864214,133.88825831158246L226.34033413614546,138.92591791324296L226.4169298498971,124.63798123582978L226.57012127740043,127.36054681960229L226.72331270490375,128.21421841311877L226.79990841865538,126.7804205245503L226.87650413240706,135.8466959950461L227.4892698424203,158.13651594982818L227.64246126992361,148.37935652614067L227.8722484111786,135.27826995811256L227.94884412493025,168.43463700087813L228.0254398386819,165.45555471516653L228.10203555243356,168.41038891993088L228.25522697993688,164.4546939849518L228.40841840744017,166.3685641207972L228.63820554869517,136.09406893698323L228.7148012624468,112.04829367979545L229.02118411745346,153.03158400518225L229.0977798312051,163.36790344493602L229.17437554495675,149.27696620553616L229.40416268621175,142.39090601050808L230.01692839622498,170.8549063451655L231.39565124375477,168.414016607323L231.47224695750646,165.4441388191496L231.85522552626475,167.15298940140025L231.93182124001638,174.6881668306618L232.08501266751972,157.4268779019223L232.23820409502304,136.5111977711307L232.31479980877467,164.7133641086305L232.54458695002964,171.35208173048954L232.85096980503627,153.61971385103305L232.92756551878793,172.61819984626842L233.08075694629125,156.67235205393433L233.23394837379456,171.22994268629668L233.31054408754622,147.36038772773367L233.69352265630448,166.90683949257934L233.77011837005614,159.98935590493585L233.99990551131114,170.68453341480284L234.07650122506277,169.10238271355763L234.38288408006943,152.88652344304967L234.45947979382106,159.91557360238377L234.53607550757272,165.43036796320462L234.99564979008267,159.94695558304267L235.14884121758595,163.865617185695L235.22543693133764,170.52053654534737L235.30203264508927,170.20060019277875L236.29777692386082,164.35493258166952L236.37437263761248,166.98795999382864L236.5275640651158,172.68479579396387L236.91054263387406,164.2836073885383L237.29352120263235,150.37810184729412L237.44671263013566,147.7082260762141L237.9062869126456,163.30045993253026L238.05947834014893,152.46901361890212L238.21266976765224,163.19108267294158L238.36586119515556,153.60864581545098L238.44245690890722,164.34227432695667L238.59564833641053,148.70645852758767L238.97862690516882,112.30100600332793L239.05522261892045,100.07551175780652L239.1318183326721,96.16331870276429L239.20841404642377,95.62808849018569L239.43820118767874,82.1589434957018L239.5147969014304,89.4516663430635L239.74458404268535,55.97861378631695L239.82117975643703,-12.880326164108256L239.8977754701887,77.89096099652528L239.97437118394035,158.63124250812274L240.28075403894695,130.65226729074328L240.35734975269864,156.7296275506133L240.74032832145693,169.52681661683707L240.89351974896022,149.7397696669398L241.2764983177185,172.22151747545868L241.35309403147016,146.23487976915885L241.50628545897348,171.25908289970872L241.6594768864768,152.79859481614676L241.73607260022845,151.12158174607683L241.88926402773174,163.02177679065886L242.04245545523506,155.44135127729345L242.42543402399335,157.952641341238L242.65522116524832,167.56965994322877L242.80841259275164,158.31332843943133L242.8850083065033,172.74859781499205L243.19139116150993,171.5969934218102L243.57436973026822,164.54049955888325L244.1105397265298,137.0080418608025L244.18713544028145,146.0180357215761L244.57011400903974,142.8729025333651L244.72330543654306,157.5138430106366L245.10628400530132,169.43696371435405L245.182879719053,148.63990123105165L245.25947543280463,172.98099895424482L245.33607114655632,158.4199835530774L246.02543257032121,161.39220801878753L246.4084111390795,147.78042368122956L246.63819828033448,166.72525082398965L246.71479399408614,150.2410586399459L247.40415541785103,138.80904785031933L247.55734684535435,158.07991960923633L247.78713398660932,169.16820563806448L247.94032541411264,160.22497613360957L248.39989969662258,163.03182057051612L248.9360696928842,140.73918184189284L249.08926112038748,158.77850066474852L249.16585683413913,149.74694497860798L249.31904826164248,165.09628666668365L249.54883540289742,142.47527044835226L249.85521825790406,151.02668486728834L250.085005399159,125.16802114985654L250.1616011129107,84.53203633910948L250.314792540414,159.597838985504L250.4679839679173,158.26586757645015L250.54457968166898,156.2156389109378L251.0041539641789,168.78663034899714L251.08074967793058,168.70928109658922L251.23394110543387,141.72378699877075L251.3871325329372,153.34489858590163L251.61691967419216,155.01642595212982L252.15308967045377,164.38000890174737L252.45947252546037,162.43921547256286L252.53606823921203,160.56159184187018L252.765855380467,157.73326840350978" fill="none"></path></g></g></g></g></g></g><g transform="translate(61, 177)" clip-path="url(#clip_1)"><clipPath id="clip_1"><rect width="268" height="22"></rect></clipPath><g><g><line x1="0" y1="0" x2="0" y2="5" style="visibility: inherit;" fill="rgb(0, 0, 0)" stroke="rgb(204, 204, 204)" stroke-width="1px"></line><line x1="38.29785687582833" y1="0" x2="38.29785687582833" y2="5" style="visibility: inherit;" fill="rgb(0, 0, 0)" stroke="rgb(204, 204, 204)" stroke-width="1px"></line><line x1="76.59571375165666" y1="0" x2="76.59571375165666" y2="5" style="visibility: inherit;" fill="rgb(0, 0, 0)" stroke="rgb(204, 204, 204)" stroke-width="1px"></line><line x1="114.89357062748499" y1="0" x2="114.89357062748499" y2="5" style="visibility: inherit;" fill="rgb(0, 0, 0)" stroke="rgb(204, 204, 204)" stroke-width="1px"></line><line x1="153.19142750331332" y1="0" x2="153.19142750331332" y2="5" style="visibility: inherit;" fill="rgb(0, 0, 0)" stroke="rgb(204, 204, 204)" stroke-width="1px"></line><line x1="191.48928437914168" y1="0" x2="191.48928437914168" y2="5" style="visibility: inherit;" fill="rgb(0, 0, 0)" stroke="rgb(204, 204, 204)" stroke-width="1px"></line><line x1="229.78714125496998" y1="0" x2="229.78714125496998" y2="5" style="visibility: inherit;" fill="rgb(0, 0, 0)" stroke="rgb(204, 204, 204)" stroke-width="1px"></line><line x1="268.08499813079834" y1="0" x2="268.08499813079834" y2="5" style="visibility: inherit;" fill="rgb(0, 0, 0)" stroke="rgb(204, 204, 204)" stroke-width="1px"></line></g><g transform="translate(0, 8)"><text style="text-anchor: middle; visibility: hidden; font-family: Roboto, sans-serif; font-size: 12px; font-weight: 200;" x="0" y="0" dx="0em" dy="0.95em" fill="rgb(50, 49, 63)" stroke="none" stroke-width="1px">-500</text><text style="text-anchor: middle; visibility: inherit; font-family: Roboto, sans-serif; font-size: 12px; font-weight: 200;" x="38.29785687582833" y="0" dx="0em" dy="0.95em" fill="rgb(50, 49, 63)" stroke="none" stroke-width="1px">0</text><text style="text-anchor: middle; visibility: inherit; font-family: Roboto, sans-serif; font-size: 12px; font-weight: 200;" x="76.59571375165666" y="0" dx="0em" dy="0.95em" fill="rgb(50, 49, 63)" stroke="none" stroke-width="1px">500</text><text style="text-anchor: middle; visibility: inherit; font-family: Roboto, sans-serif; font-size: 12px; font-weight: 200;" x="114.89357062748499" y="0" dx="0em" dy="0.95em" fill="rgb(50, 49, 63)" stroke="none" stroke-width="1px">1k</text><text style="text-anchor: middle; visibility: inherit; font-family: Roboto, sans-serif; font-size: 12px; font-weight: 200;" x="153.19142750331332" y="0" dx="0em" dy="0.95em" fill="rgb(50, 49, 63)" stroke="none" stroke-width="1px">1.5k</text><text style="text-anchor: middle; visibility: inherit; font-family: Roboto, sans-serif; font-size: 12px; font-weight: 200;" x="191.48928437914168" y="0" dx="0em" dy="0.95em" fill="rgb(50, 49, 63)" stroke="none" stroke-width="1px">2k</text><text style="text-anchor: middle; visibility: inherit; font-family: Roboto, sans-serif; font-size: 12px; font-weight: 200;" x="229.78714125496998" y="0" dx="0em" dy="0.95em" fill="rgb(50, 49, 63)" stroke="none" stroke-width="1px">2.5k</text><text style="text-anchor: middle; visibility: hidden; font-family: Roboto, sans-serif; font-size: 12px; font-weight: 200;" x="268.08499813079834" y="0" dx="0em" dy="0.95em" fill="rgb(50, 49, 63)" stroke="none" stroke-width="1px">3k</text></g><line x1="0" y1="0" x2="268.08499813079834" y2="0" fill="rgb(0, 0, 0)" stroke="rgb(204, 204, 204)" stroke-width="1px"></line></g></g></g></g></svg>