<svg viewBox="0 0 330 200" xmlns="http://www.w3.org/2000/svg"><g><g><g><g><g><line x1="41.149001121520996" y1="177.86299896240234" x2="36.149001121520996" y2="177.86299896240234" style="visibility: inherit;" fill="rgb(0, 0, 0)" stroke="rgb(204, 204, 204)" stroke-width="1px"></line><line x1="41.149001121520996" y1="160.07669906616212" x2="36.149001121520996" y2="160.07669906616212" style="visibility: inherit;" fill="rgb(0, 0, 0)" stroke="rgb(204, 204, 204)" stroke-width="1px"></line><line x1="41.149001121520996" y1="142.29039916992187" x2="36.149001121520996" y2="142.29039916992187" style="visibility: inherit;" fill="rgb(0, 0, 0)" stroke="rgb(204, 204, 204)" stroke-width="1px"></line><line x1="41.149001121520996" y1="124.50409927368163" x2="36.149001121520996" y2="124.50409927368163" style="visibility: inherit;" fill="rgb(0, 0, 0)" stroke="rgb(204, 204, 204)" stroke-width="1px"></line><line x1="41.149001121520996" y1="106.71779937744141" x2="36.149001121520996" y2="106.71779937744141" style="visibility: inherit;" fill="rgb(0, 0, 0)" stroke="rgb(204, 204, 204)" stroke-width="1px"></line><line x1="41.149001121520996" y1="88.93149948120116" x2="36.149001121520996" y2="88.93149948120116" style="visibility: inherit;" fill="rgb(0, 0, 0)" stroke="rgb(204, 204, 204)" stroke-width="1px"></line><line x1="41.149001121520996" y1="71.14519958496093" x2="36.149001121520996" y2="71.14519958496093" style="visibility: inherit;" fill="rgb(0, 0, 0)" stroke="rgb(204, 204, 204)" stroke-width="1px"></line><line x1="41.149001121520996" y1="53.35889968872069" x2="36.149001121520996" y2="53.35889968872069" style="visibility: inherit;" fill="rgb(0, 0, 0)" stroke="rgb(204, 204, 204)" stroke-width="1px"></line><line x1="41.149001121520996" y1="35.57259979248048" x2="36.149001121520996" y2="35.57259979248048" style="visibility: inherit;" fill="rgb(0, 0, 0)" stroke="rgb(204, 204, 204)" stroke-width="1px"></line><line x1="41.149001121520996" y1="17.78629989624023" x2="36.149001121520996" y2="17.78629989624023" style="visibility: inherit;" fill="rgb(0, 0, 0)" stroke="rgb(204, 204, 204)" stroke-width="1px"></line><line x1="41.149001121520996" y1="0" x2="36.149001121520996" y2="0" style="visibility: inherit;" fill="rgb(0, 0, 0)" stroke="rgb(204, 204, 204)" stroke-width="1px"></line></g><g transform="translate(31.149001121520996, 0)"><text style="text-anchor: end; visibility: hidden; font-family: Roboto, sans-serif; font-size: 12px; font-weight: 200;" x="0" y="177.86299896240234" dx="0em" dy="0.3em" fill="rgb(50, 49, 63)" stroke="none" stroke-width="1px">1.2</text><text style="text-anchor: end; visibility: inherit; font-family: Roboto, sans-serif; font-size: 12px; font-weight: 200;" x="0" y="160.07669906616212" dx="0em" dy="0.3em" fill="rgb(50, 49, 63)" stroke="none" stroke-width="1px">1.4</text><text style="text-anchor: end; visibility: hidden; font-family: Roboto, sans-serif; font-size: 12px; font-weight: 200;" x="0" y="142.29039916992187" dx="0em" dy="0.3em" fill="rgb(50, 49, 63)" stroke="none" stroke-width="1px">1.6</text><text style="text-anchor: end; visibility: inherit; font-family: Roboto, sans-serif; font-size: 12px; font-weight: 200;" x="0" y="124.50409927368163" dx="0em" dy="0.3em" fill="rgb(50, 49, 63)" stroke="none" stroke-width="1px">1.8</text><text style="text-anchor: end; visibility: hidden; font-family: Roboto, sans-serif; font-size: 12px; font-weight: 200;" x="0" y="106.71779937744141" dx="0em" dy="0.3em" fill="rgb(50, 49, 63)" stroke="none" stroke-width="1px">2</text><text style="text-anchor: end; visibility: inherit; font-family: Roboto, sans-serif; font-size: 12px; font-weight: 200;" x="0" y="88.93149948120116" dx="0em" dy="0.3em" fill="rgb(50, 49, 63)" stroke="none" stroke-width="1px">2.2</text><text style="text-anchor: end; visibility: hidden; font-family: Roboto, sans-serif; font-size: 12px; font-weight: 200;" x="0" y="71.14519958496093" dx="0em" dy="0.3em" fill="rgb(50, 49, 63)" stroke="none" stroke-width="1px">2.4</text><text style="text-anchor: end; visibility: inherit; font-family: Roboto, sans-serif; font-size: 12px; font-weight: 200;" x="0" y="53.35889968872069" dx="0em" dy="0.3em" fill="rgb(50, 49, 63)" stroke="none" stroke-width="1px">2.6</text><text style="text-anchor: end; visibility: hidden; font-family: Roboto, sans-serif; font-size: 12px; font-weight: 200;" x="0" y="35.57259979248048" dx="0em" dy="0.3em" fill="rgb(50, 49, 63)" stroke="none" stroke-width="1px">2.8</text><text style="text-anchor: end; visibility: inherit; font-family: Roboto, sans-serif; font-size: 12px; font-weight: 200;" x="0" y="17.78629989624023" dx="0em" dy="0.3em" fill="rgb(50, 49, 63)" stroke="none" stroke-width="1px">3</text><text style="text-anchor: end; visibility: hidden; font-family: Roboto, sans-serif; font-size: 12px; font-weight: 200;" x="0" y="0" dx="0em" dy="0.3em" fill="rgb(50, 49, 63)" stroke="none" stroke-width="1px">3.2</text></g><line x1="41.149001121520996" y1="0" x2="41.149001121520996" y2="177.86299896240234" fill="rgb(0, 0, 0)" stroke="rgb(204, 204, 204)" stroke-width="1px"></line></g></g><g transform="translate(41, 0)" clip-path="url(#clip_0)"><clipPath id="clip_0"><rect width="288" height="177"></rect></clipPath><g><g><g><line x1="0" y1="0" x2="0" y2="177.86299896240234" fill="rgb(0, 0, 0)" stroke="rgb(60, 60, 60)" stroke-width="1px" opacity="0.25"></line><line x1="41.264428411211284" y1="0" x2="41.264428411211284" y2="177.86299896240234" fill="rgb(0, 0, 0)" stroke="rgb(60, 60, 60)" stroke-width="1px" opacity="0.25"></line><line x1="82.52885682242257" y1="0" x2="82.52885682242257" y2="177.86299896240234" fill="rgb(0, 0, 0)" stroke="rgb(60, 60, 60)" stroke-width="1px" opacity="0.25"></line><line x1="123.79328523363385" y1="0" x2="123.79328523363385" y2="177.86299896240234" fill="rgb(0, 0, 0)" stroke="rgb(60, 60, 60)" stroke-width="1px" opacity="0.25"></line><line x1="165.05771364484514" y1="0" x2="165.05771364484514" y2="177.86299896240234" fill="rgb(0, 0, 0)" stroke="rgb(60, 60, 60)" stroke-width="1px" opacity="0.25"></line><line x1="206.32214205605644" y1="0" x2="206.32214205605644" y2="177.86299896240234" fill="rgb(0, 0, 0)" stroke="rgb(60, 60, 60)" stroke-width="1px" opacity="0.25"></line><line x1="247.5865704672677" y1="0" x2="247.5865704672677" y2="177.86299896240234" fill="rgb(0, 0, 0)" stroke="rgb(60, 60, 60)" stroke-width="1px" opacity="0.25"></line><line x1="288.850998878479" y1="0" x2="288.850998878479" y2="177.86299896240234" fill="rgb(0, 0, 0)" stroke="rgb(60, 60, 60)" stroke-width="1px" opacity="0.25"></line></g><g><line x1="0" y1="177.86299896240234" x2="288.850998878479" y2="177.86299896240234" fill="rgb(0, 0, 0)" stroke="rgb(60, 60, 60)" stroke-width="1px" opacity="0.25"></line><line x1="0" y1="160.07669906616212" x2="288.850998878479" y2="160.07669906616212" fill="rgb(0, 0, 0)" stroke="rgb(60, 60, 60)" stroke-width="1px" opacity="0.25"></line><line x1="0" y1="142.29039916992187" x2="288.850998878479" y2="142.29039916992187" fill="rgb(0, 0, 0)" stroke="rgb(60, 60, 60)" stroke-width="1px" opacity="0.25"></line><line x1="0" y1="124.50409927368163" x2="288.850998878479" y2="124.50409927368163" fill="rgb(0, 0, 0)" stroke="rgb(60, 60, 60)" stroke-width="1px" opacity="0.25"></line><line x1="0" y1="106.71779937744141" x2="288.850998878479" y2="106.71779937744141" fill="rgb(0, 0, 0)" stroke="rgb(60, 60, 60)" stroke-width="1px" opacity="0.25"></line><line x1="0" y1="88.93149948120116" x2="288.850998878479" y2="88.93149948120116" fill="rgb(0, 0, 0)" stroke="rgb(60, 60, 60)" stroke-width="1px" opacity="0.25"></line><line x1="0" y1="71.14519958496093" x2="288.850998878479" y2="71.14519958496093" fill="rgb(0, 0, 0)" stroke="rgb(60, 60, 60)" stroke-width="1px" opacity="0.25"></line><line x1="0" y1="53.35889968872069" x2="288.850998878479" y2="53.35889968872069" fill="rgb(0, 0, 0)" stroke="rgb(60, 60, 60)" stroke-width="1px" opacity="0.25"></line><line x1="0" y1="35.57259979248048" x2="288.850998878479" y2="35.57259979248048" fill="rgb(0, 0, 0)" stroke="rgb(60, 60, 60)" stroke-width="1px" opacity="0.25"></line><line x1="0" y1="17.78629989624023" x2="288.850998878479" y2="17.78629989624023" fill="rgb(0, 0, 0)" stroke="rgb(60, 60, 60)" stroke-width="1px" opacity="0.25"></line><line x1="0" y1="0" x2="288.850998878479" y2="0" fill="rgb(0, 0, 0)" stroke="rgb(60, 60, 60)" stroke-width="1px" opacity="0.25"></line></g></g></g><g><g><line x1="0" y1="284.58079833984374" x2="288.850998878479" y2="284.58079833984374" fill="rgb(0, 0, 0)" stroke="rgb(153, 153, 153)" stroke-width="1.5px"></line></g></g><g><g><line x1="41.264428411211284" y1="0" x2="41.264428411211284" y2="177.86299896240234" fill="rgb(0, 0, 0)" stroke="rgb(153, 153, 153)" stroke-width="1.5px"></line></g></g><g><g><g><g><g><path style="fill: none;" stroke="rgb(255, 112, 67)" stroke-width="2px" d="M42.91500554765974,221.13571733249273L43.16259211812701,144.19379764396987L43.32764983177185,180.93840079521348L43.41017868859427,125.67846875052945L43.57523640223912,115.56987036707825L43.74029411588397,136.56036951817734L43.987880686351225,154.4359691479826L44.152938399996074,152.46055305935894L44.730640397753035,125.83743854568978L45.060755825042726,95.25169341701185L45.14328468186515,124.17464965684154L45.225813538687575,151.55154653160443L45.47340010915484,127.62185642114422L46.21615982055664,104.45928502057697L46.29868867737906,90.56324780142165L46.38121753420148,78.0543400399354L46.62880410466875,86.06879330824059L46.87639067513602,113.84215790230247L47.20650610242571,90.4082973006154L47.5366215297154,90.74462917709921L47.619150386537825,124.87053698898814L47.701679243360246,173.08205196918948L47.86673695700509,202.00890832363373L48.03179467064994,170.06932269945398L48.11432352747236,112.67325853256128L48.27938124111721,97.9897979598588L48.36191009793963,92.88138963095841L48.52696781158448,111.2682501876986L48.69202552522932,114.33597955965621L49.26972752298627,144.59019110817022L49.51731409345354,98.26079362266013L49.59984295027596,85.54778788549123L49.76490066392081,155.81598072782162L50.0950160912105,136.34059821926363L50.507660375322615,128.35021535520244L50.59018923214504,114.19638837150383L51.58053551401411,102.93891739255815L51.66306437083653,98.98226211041859L51.99317979812622,86.94922705221923L52.24076636859349,97.12490638695066L52.40582408223834,120.43619238312546L52.570881795883174,112.31351555565465L53.313641507284984,108.70190736172741L53.80881464821952,122.7355775988761L54.221458932331636,151.0620495274295L54.30398778915405,147.10769888064112L54.55157435962132,135.6056616656813L54.71663207326616,147.34074740340228L54.88168978691101,129.10790764633444L55.37686292784555,127.54958493806706L55.45939178466797,165.15559802943528L56.20215149606977,122.31980090462037L56.367209209714616,96.61832262974178L56.53226692335946,139.0495270713526L56.77985349382673,148.57555166474984L57.52261320522854,149.2595477082227L57.7701997756958,157.48845911852317L57.85272863251822,173.4737791655433L58.017786346163064,172.44072990279398L58.265372916630334,163.08883323409532L58.843074914387294,178.66812209477203L59.00813262803214,160.49807074707599L59.090661484854564,172.09510476949762L59.42077691214425,180.43405944689897L59.50330576896667,144.64095837567595L59.5858346257891,161.78848416109628L59.66836348261152,150.15104129487224L59.91595005307879,152.04935997929707L59.99847890990121,144.94420571406846L60.3285943371909,140.6811131549313L60.41112319401332,138.12325761944902L60.49365205083575,136.58854429815963L60.90629633494786,135.66771630538602L61.07135404859271,135.11521950972184L61.153882905415124,134.78372143232335L61.483998332704815,134.58482258588424L61.896642616816926,134.46548327802077L61.979171473639354,134.3938796933027L62.144229187284196,134.35091754247182L62.309286900929045,134.32514025197332L62.391815757751466,134.30967387767424L62.47434461457389,134.30039405309478L62.72193118504115,112.05123957198188L62.886988898686,126.10087901925151L63.13457546915327,145.6144221797721L63.29963318279811,146.99774716774064L63.54721975326538,139.12954459666608L63.6297486100878,164.5450036203477L63.95986403737749,169.65543835136583L64.04239289419992,146.62930736168664L64.12492175102234,159.52712202339114L64.20745060784476,132.44491397192772L64.45503717831203,138.48672964030158L64.53756603513445,139.24076533268905L64.95021031924657,144.85507197129508L65.61044117382595,144.9092406709928L65.77549888747079,140.3743272251498L65.85802774429321,153.75864356869576L66.02308545793805,146.95017352562934L66.18814317158291,133.07454909178986L66.27067202840533,127.87765705359736L66.51825859887259,118.13754404805769L66.60078745569501,123.27142043563869L66.68331631251743,127.72475842803665L66.84837402616229,140.71893296952297L67.34354716709682,123.59317998956186L67.42607602391924,135.315984261623L67.50860488074166,140.056367290232L67.92124916485378,131.57752871868638L68.08630687849862,151.82351888095056L68.16883573532104,152.74950057014158L68.3338934489659,153.73385082657254L69.15918201719012,160.3499793714838L69.32423973083496,164.63752222004314L69.57182630130222,157.1764267451409L69.8194128717695,162.3483667882939L69.98447058541434,163.41781865046593L70.2320571558816,166.25844902239047L70.39711486952646,182.30186283184236L70.56217258317129,174.46674530445955L70.72723029681615,176.66821387175074L70.97481686728341,137.60413592083165L71.05734572410583,116.8926732462531L71.22240343775069,155.62795814180407L71.80010543550765,144.20009603734542L71.88263429233007,150.36105251848568L71.96516314915249,145.66825787967952L72.04769200597491,119.92898288503606L72.87298057419913,103.67105606991872L73.12056714466641,120.0003760232305L73.20309600148883,135.90132655257568L73.53321142877851,126.17871170047093L73.94585571289063,147.53420485767776L74.11091342653546,141.4065024593539L74.2759711401803,165.1421208025189L74.52355771064758,166.92658021712623L74.77114428111484,180.3468361470236L75.3488462788718,183.02430210483286L75.51390399251666,172.2467522643037L75.59643284933908,165.7802223599862L76.0916059902736,147.55654482013404L76.17413484709604,192.1577316838313L76.751836844853,182.3139520613738L76.83436570167542,175.71941605955865L76.91689455849784,172.82545698619668L76.99942341532027,158.95990775286427L77.41206769943238,159.04864347674868L77.65965426989963,157.94479906568327L77.74218312672205,144.07051085978517L77.82471198354447,142.19790221116094L78.2373562676566,118.69263036279855L78.65000055176871,153.51435681986706L78.81505826541355,152.7234699489204L78.89758712223598,177.26795718487483L78.9801159790584,145.12502277374156L79.06264483588082,132.84052625500544L79.22770254952567,148.14726487426375L79.88793340410506,131.04637248517435L80.21804883139474,112.19602458323436L80.30057768821717,138.31937063248748L81.12586625644138,140.58935335937926L81.5385105405535,159.75846840149126L81.70356825419834,128.84868295377078L81.78609711102077,141.0033829164346L81.86862596784319,125.58892961205515L81.95115482466561,118.05174899140862L82.2812702519553,102.57920864683489L82.69391453606742,114.96891243155088L82.77644339288985,122.40273470238046L83.02402996335711,134.3829411021785L83.43667424746923,136.70768293236L83.51920310429165,113.30350594737459L83.84931853158133,115.98969791604887L83.93184738840377,97.25268074010866L84.01437624522619,115.93807643192174L84.17943395887103,111.60037593725286L84.42702052933828,113.53877690912661L84.75713595662798,114.64056649191774L84.8396648134504,151.7676018185289L85.1697802407401,168.2133736237769L85.25230909756252,175.86923627036077L85.66495338167464,164.92214445621528L85.83001109531948,163.86776853535264L86.2426553794316,150.00629237903695L86.32518423625402,134.19933039942498L86.40771309307644,126.19967153695713L86.6552996635437,144.81014085303454L86.73782852036612,145.54210844353108L86.82035737718854,138.8378550390095L87.06794394765582,84.14152435485802L87.15047280447824,153.30971698284554L87.23300166130066,154.54090604729072L87.31553051812308,159.86680375585325L87.72817480223519,152.84243232651298L87.89323251588003,182.7802333224133L87.97576137270245,193.3553728433912L88.05829022952489,169.11697846001127L88.1408190863473,154.23924522909067L88.38840565681457,151.77059543581248L88.55346337045941,128.99008261216645L88.80104994092669,129.29357165909113L88.88357879774911,131.43747814333292L89.29622308186123,155.0109254968299L89.37875193868365,125.34544491220396L89.62633850915091,81.54821950892209L89.79139622279575,61.5144500425396L90.20404050690787,122.5554938653552L90.36909822055271,135.83643906063813L90.61668479101999,133.84195255791735L90.78174250466483,130.60563287739862L90.86427136148725,89.84186807588195L90.94680021830968,92.90752900653955L91.02932907513211,116.95899612841953L91.19438678877695,105.53373600849422L91.27691564559936,89.99969823439183L91.4419733592442,104.39640584930044L91.60703107288904,82.07925026206708L91.68955992971148,100.80330927880125L91.7720887865339,90.05679445353113L92.01967535700116,61.3916838878217L92.26726192746844,75.59177840471854L92.67990621158054,99.7373537373672L93.01002163887024,137.2029073935592L93.09255049569266,147.12785392414273L93.2576082093375,166.81034608307274L93.50519477980478,121.56700470849319L93.83531020709447,117.94955561771157L93.91783906391689,112.72300303771738L94.08289677756174,94.5002258158615L94.16542563438416,111.08545420186233L94.24795449120658,116.04109381838065L94.330483348029,140.14217136562442L94.6605987753187,116.39927475984747L94.74312763214111,145.27569979192845L94.90818534578595,93.08948907060123L94.99071420260837,101.36678524976273L95.32082962989807,76.85460091773872L95.98106048447745,133.88997551646912L96.31117591176714,136.45066252188184L96.39370476858957,126.69382188497444L96.64129133905683,115.668341851884L96.72382019587926,107.88020997519375L96.80634905270168,153.794614291657L96.97140676634652,121.40215185079687L97.05393562316895,140.2039810529886L97.2189933368138,111.38429800255604L97.38405105045864,140.5998333229212L97.46657990728106,119.79355110322876L97.63163762092591,102.60163059238582L97.79669533457076,152.87922755261187L98.044281905038,111.3357254664897L98.29186847550528,104.37359611409997L98.62198390279497,103.75883341403912L98.70451275961739,104.8790485068925L99.28221475737435,117.1302457878644L99.4472724710192,117.22371291370794L99.52980132784162,135.54183152178595L99.94244561195373,162.96614167984882L100.27256103924343,109.53487996727578L100.43761875288827,124.45885455818733L100.76773418017797,70.8979002748491L101.18037846429009,72.35073341495335L101.59302274840218,18.823326750718973L101.6755516052246,-23.988320477274442L102.0056670325143,-10.48289824654526L102.17072474615914,53.11111818113255L102.33578245980398,82.29848859211415L102.41831131662641,101.08168675048881L102.58336903027126,113.30586010092527L102.83095560073852,55.05114845584951L102.91348445756094,120.63141939990989L102.99601331438338,115.10791077013148L103.16107102802822,139.89899502226632L103.32612874167306,135.03876748497242L103.40865759849548,133.44336943917858L103.57371531214034,126.84231993963232L103.73877302578518,132.37550623927007L104.06888845307486,146.85957050929483L104.23394616671972,135.03218341325908L104.5640615940094,121.34139653946114L104.64659045083182,75.45938266157071L104.8941770212991,84.27408553333979L105.05923473494393,81.37074286346454L105.30682130541119,124.61400947187232L105.47187901905605,152.0698549377905L105.63693673270089,121.87876771789689L105.88452330316815,100.44827526615369L106.13210987363543,90.58791178745878L106.21463873045785,119.73608490203239L106.62728301456997,144.27213602137368L107.03992729868207,127.10827018003684L107.37004272597177,70.9779440256523L107.45257158279419,101.68433271124519L107.53510043961661,108.65944901963688L107.70015815326146,80.5226067940645L107.78268701008389,103.6378456970343L107.86521586690631,122.47713200007722L108.2778601510184,100.9853898969401L108.52544672148568,125.84494134476469L108.6079755783081,135.3526210688418L108.69050443513052,138.29323722770377L108.77303329195294,124.7456371072559L108.9380910055978,141.50586380757554L109.18567757606506,70.44728821295274L109.43326414653232,126.6839028163963L110.17602385793414,130.29542570993212L110.4236104284014,124.90480818499572L111.00131242615836,89.46808893513906L111.08384128298079,98.88192721268977L111.1663701398032,91.44345611344214L111.4964855670929,129.9784103049688L111.66154328073775,84.88017371379857L111.82660099438257,92.06558724069717L111.90912985120502,85.33874695811343L112.23924527849469,128.37372698192445L112.73441841942923,158.03915879713327L112.89947613307407,141.58951861852813L113.14706270354135,133.41503532230266L113.22959156036377,141.04266724733262L113.47717813083104,129.8942267086813L113.72476470129831,128.2066771897635L113.88982241494315,137.9884955699391L114.054880128588,139.59955224471352L114.46752441270012,168.823555409811L114.55005326952254,155.2975661347066L114.7976398399898,138.184054744604L115.1277552672795,172.26452182441878L115.29281298092432,150.2050276589584L115.62292840821402,107.29779708878773L115.70545726503644,81.58651834226805L115.9530438355037,106.27327886265617L116.11810154914856,84.54802788657726L116.20063040597098,116.96011028904542L116.44821697643825,150.9403723666877L116.53074583326067,113.99357746807499L116.77833240372794,127.4964649159411L116.86086126055037,111.69855235492115L116.94339011737279,75.86196089095696L117.43856325830733,89.67693249350492L117.85120754241943,133.46408875160952L118.01626525606429,152.05049723834682L118.09879411288671,183.96099501418885L119.25419810840062,158.27137060953933L119.33672696522304,148.60113246094875L119.50178467886788,164.95763725365444L120.07948667662484,144.39963538793054L120.16201553344726,165.06501502393087L120.24454439026968,116.4788005860611L120.57465981755938,105.58975058414775L120.6571886743818,135.0899058188626L120.9873041016715,110.74376550627436L121.31741952896118,143.18125130112756L121.3999483857836,102.26864362329876L121.56500609942846,119.13583009231097L121.7300638130733,100.10490639949198L121.81259266989572,123.99413596487122L121.89512152671814,130.45926096385065L121.97765038354055,122.89421161312394L122.63788123811993,99.92037802316422L122.96799666540963,114.33518776134606L123.13305437905447,113.38409033513472L123.38064094952175,51.47929064952574L123.79328523363385,33.44517936939738L124.28845837456839,41.23641679753593L124.37098723139081,79.15709035403165L124.45351608821325,56.53853689049435L124.61857380185809,102.14645139213609L124.86616037232535,147.16239497201062L125.69144894054958,165.9884475190701L125.85650665419442,127.32765037605243L126.02156436783926,88.95332347625862L126.26915093830654,71.03196527801283L126.5167375087738,87.6308854837369L126.68179522241864,85.1169149544501L126.76432407924106,65.2897171204609L127.17696836335318,31.0482159138752L127.2594972201756,70.54508745251646L127.50708379064288,81.45426951107227L127.5896126474653,92.81700199526705L127.67214150428772,71.94107709734514L127.91972807475499,35.878955960791124L128.0022569315774,85.96691847220846L128.3323723588671,88.6888584540579L128.49743007251195,95.39971510468128L128.99260321344647,105.35563888242827L129.1576609270913,79.7600315067975L129.4052474975586,99.44916301725794L129.7353629248483,59.13477539008282L130.06547835213797,27.60668360285356L130.23053606578281,57.27762132496791L130.56065149307253,71.23929164670639L130.64318034989495,93.47429874044784L131.05582463400705,119.53067396345544L131.2208823476519,129.64302928365106L132.21122862952097,65.573229790502L132.54134405681066,74.3975562956122L132.62387291363308,81.94280841709514L132.7064017704555,81.81301780755273L132.95398834092276,100.08628917331916L133.1190460545676,60.66793719479779L133.36663262503487,100.59803414760049L133.69674805232458,97.6003514422642L133.86180576596942,118.751894569614L133.9443346227918,115.24846983897388L134.27445005008153,62.18460738901643L134.35697890690395,39.783837604684095L134.6045654773712,31.430813258431783L134.9346809046609,49.65248180390844L135.01720976148331,60.98615030280036L135.18226747512819,101.7205590256384L135.34732518877303,76.79658729921314L135.5949117592403,98.77007785135703L136.0075560433524,92.5547115943005L136.17261375699724,85.80457588054544L136.33767147064208,63.7251497046887L136.58525804110937,44.90484033247651L136.99790232522147,71.0904472754923L137.0804311820439,76.34894912621051L137.24548889568874,27.382629391400137L137.41054660933358,35.126023972447065L137.493075466156,20.911934612541966L137.57560432297845,28.5564251338565L137.82319089344568,37.82729436176496L138.23583517755782,34.92739906502844L138.40089289120266,44.72610886223419L138.48342174802508,44.93945606753686L138.81353717531476,81.25125536479787L139.22618145942687,90.6498451803297L139.55629688671658,80.0506736029024L139.88641231400626,123.58353681994302L139.96894117082869,40.24340023997767L140.3815854549408,39.143602858733914L140.54664316858566,63.8432839146353L140.7117008822305,102.8661853127426L140.87675859587534,26.841064365264565L141.12434516634258,8.359073911259763L141.20687402316503,24.942152053280665L141.5369894504547,55.44808738912246L142.03216259138924,41.88063791382121L142.19722030503408,63.80591974234646L142.36227801867895,92.82720125558205L142.5273357323238,68.27750521333118L142.6098645891462,70.4211847408181L143.02250887325832,39.16650515210283L143.43515315737042,47.05952789051723L143.6827397278377,47.4933026364481L143.84779744148256,37.6389426577393L144.0128551551274,32.12247357920421L144.09538401194982,10.649210994384605L144.26044172559466,17.982078183885854L144.4254994392395,42.47305105424478L144.6730860097068,25.677835670267786L144.8381437233516,35.102823094138664L144.92067258017403,63.45757027438857L145.00320143699645,75.01316817830686L145.0857302938189,87.43266418547309L145.66343229157584,89.33477690193178L145.8284900052207,54.25439786124641L146.07607657568795,79.95019956230023L146.15860543251037,92.79773804714634L146.24113428933282,58.754447215385284L146.73630743026735,82.28452966171726L147.14895171437945,98.72263675138463L147.3965382848467,64.94944703592074L147.47906714166913,75.11100500948295L148.13929799624853,99.11750499570955L148.22182685307092,106.36083906785711L148.30435570989337,83.00668101404456L148.38688456671576,69.91753101785079L148.5519422803606,54.28748781804873L148.96458656447274,57.50038443604791L149.12964427811758,32.9594974539688L149.21217313494,61.96246319488181L149.8724039895194,86.74686251785522L149.95493284634182,93.60853944373667L150.2850482736315,71.0118233521987L150.45010598727637,87.45550390614731L150.61516370092122,103.05955362793527L150.6976925577436,96.90844170881024L150.86275027138845,94.91366905008165L151.19286569867816,92.69804747090421L151.27539455550055,100.72904781447723L151.4404522691454,106.17517393313128L151.6055099827903,81.10794347956644L151.6880388396127,75.69342635698489L151.85309655325753,86.0606217830806L151.93562541007995,79.45347670588511L152.01815426690237,92.6556475821377L152.1006831237248,71.2625750131827L152.43079855101448,52.74270309777639L152.51332740783693,87.84677575147737L152.76091397830416,51.076617662838316L152.8434428351266,60.17080843798789L152.92597169194903,73.09646766455484L153.2560871192387,38.85457457163097L153.33861597606113,-10.744551778064437L153.91631797381808,-4.8670721396271714L154.57654882839748,55.12067540698123L154.82413539886477,38.96377105313544L154.98919311250958,-0.7188172202005007L155.15425082615442,-6.113887084877546L155.23677968297687,31.147906739710994L155.56689511026656,73.29505656892206L155.7319528239114,31.722074242852052L155.97953939437866,48.3324832986434L156.06206825120108,77.32576000003328L156.22712596484592,11.997233459675957L156.80482796260287,-0.7913381107127084L156.96988567624774,5.04659740159797L157.05241453307016,11.135750471459307L157.38252996035985,-1.170154477247859L157.46505881718227,62.5081831372048L157.71264538764956,75.82331178788218L157.79517424447195,64.82788653080696L157.8777031012944,54.53682797375196L158.04276081493924,73.51016412750207L158.12528967176164,43.64545906480172L158.2903473854065,71.9718324939517L158.45540509905135,46.06604210728796L158.53793395587374,70.0249765519246L158.86804938316345,93.47777448145405L159.11563595363071,103.82768742316631L159.44575138092043,100.53277246659968L159.52828023774282,105.83532084089278L159.7758668082101,112.38515449483825L159.94092452185495,110.78669392402988L160.1059822354998,88.58061496356042L160.18851109232222,108.96389685202679L160.27103994914464,102.93294292621846L161.01379966054643,93.06861743152915L161.1788573741913,106.26905288007647L161.42644394465853,108.61344187898605L161.59150165830337,119.47313078093724L161.75655937194827,110.96696242644687L162.33426136970522,113.24929072199464L162.4167902265276,103.72332040744143L162.6643767969949,70.63091579703087L162.7469056538173,79.16889921955433L162.82943451063974,63.64421622972391L163.24207879475185,79.53811985402001L163.4896653652191,78.20387671164987L163.65472307886398,58.99411453266434L163.90230964933122,88.9795748877719L163.98483850615366,116.07882057089483L164.06736736297606,96.46249855800394L164.39748279026577,91.78660928389569L164.4800116470882,100.74305730998896L164.64506936073303,109.13996237734044L164.8101270743779,129.48990136955803L164.8926559312003,143.84082978795664L165.22277135848998,123.75553913681154L165.3053002153124,91.61591945630514L165.63541564260208,77.88842417794464L165.71794449942453,74.53003232948444L165.88300221306937,72.47393988274388L166.04805992671422,81.10727607733813L166.46070421082632,46.688277087164344L166.54323306764877,51.52397699258027L166.7082907812936,37.68480817765042L166.95587735176085,48.89488160185984L167.53357934951782,79.4714689599511L167.69863706316266,75.85717791287018L168.02875249045238,53.29266474250672L168.11128134727477,55.35130950155489L168.44139677456448,46.62722109774799L168.52392563138687,64.89562160769229L169.01909877232143,74.79841560826313L169.2666853427887,85.74826453030616L169.3492141996111,74.41737820987586L169.43174305643353,87.63633825011401L169.5968007700784,86.47819134611552L169.6793296269008,88.66338935701607L169.76185848372324,107.82838601197807L169.84438734054564,102.31944336592552L170.17450276783535,91.81810297939364L170.25703162465777,89.87797644496656L170.4220893383026,97.84866200628404L170.50461819512503,103.57993801577892L170.66967590876988,86.65888637684351L170.91726247923717,79.01631663767989L170.99979133605956,66.48721889927403L171.32990676334927,90.95550842376059L171.4124356201717,107.7430220977775L172.0726664747511,44.422507209154936L172.4853107588632,6.754026259188224L172.98048389979772,14.912737162103088L173.0630127566201,35.648361216481725L173.14554161344256,55.03516824351724L173.55818589755467,75.85463535289573L173.88830132484435,87.23340394028752L174.3834744657789,47.66426210982954L174.7135898930686,25.384065415791728L175.04370532035827,14.896796857851463L175.2087630340031,-1.270027849173768L175.37382074764795,-1.612043538442114L175.62140731811522,15.16696585817982L176.03405160222735,31.4901917826012L176.44669588633946,46.41746494659185L177.02439788409643,43.760564547538216L177.51957102503096,56.64969064927242L177.6846287386758,59.79247083657674L177.84968645232067,45.80853229133551L178.0147441659655,34.164199170031814L178.0972730227879,36.131711885967114L178.3448595932552,31.771081871709963L179.08761930465698,53.16222935872712L179.9954367297036,47.29887535738158L180.07796558652606,54.12086635980824L180.32555215699333,48.17222152475857L180.40808101381575,40.149250656275846L180.73819644110543,44.44262341304964L180.82072529792785,36.13271931599237L180.9857830115727,42.03948106266885L181.39842729568483,24.80905956608555L181.6460138661521,23.52117204040076L182.05865815026422,24.27352328016925L182.14118700708661,23.638606569077282L182.22371586390906,4.9369666877228395L182.3887735775539,-9.072625508818511L183.2140621457781,-19.761059653169806L183.29659100260054,13.965527343115566L183.70923528671264,-20.67242827460065L184.20440842764717,56.102078940903056L184.28693728446962,106.52245707816589L184.69958156858172,69.1599489504279L185.0296969958714,57.721257584481414L185.44234127998354,18.314195531830624L186.10257213456288,16.288236799709427L187.42303384372167,4.513470833385299L187.5055627005441,1.4014465107588432L187.9182069846562,23.86507652583948L188.99108212334767,66.05787954456827L189.07361098017012,69.77860607025431L189.48625526428222,47.930510589946635L189.65131297792706,70.28912052706863L189.8163706915719,42.576826522090464L189.89889954839435,51.921282134359096L189.98142840521675,77.8996039766856L190.31154383250643,78.24536021325339L190.4766015461513,73.12516428982842L190.64165925979614,93.27018667692144L190.80671697344098,59.3840668124689L191.05430354390828,59.779328006668536L191.13683240073067,77.06904479073546L191.3018901143755,72.31450538537344L191.46694782802035,89.5570755756988L191.5494766848428,103.11931718821197L191.63200554166522,90.23920660911683L191.71453439848764,110.0484009515885L191.87959211213249,123.34768597309655L191.9621209689549,109.47111562924279L192.04464982577733,111.95340094703019L192.2922363962446,86.6493226642952L192.952467250824,106.03096275498093L193.28258267811367,104.99171841883454L193.3651115349361,89.54042584699506L193.61269810540335,73.82510705158705L194.1078712463379,42.6262314512857L194.1904001031603,73.69617516791537L194.35545781680514,70.81826989882062L194.76810210091728,41.98035148162734L194.93315981456212,22.763468505641594L195.01568867138454,65.05942358647107L195.34580409867422,73.24074012618036L195.42833295549667,82.24910648797757L195.84097723960878,40.74399349065092L196.00603495325362,60.299254410245254L196.088563810076,-9.28265978212184L196.25362152372085,15.186001897561702L196.9963812351227,75.01025477815253L197.0789100919451,49.09736517629378L197.24396780558993,21.91502001611894L197.40902551923477,40.67088616334911L197.65661208970207,16.362144603848982L197.7391409465245,44.0407599103432L198.4819006579263,5.839674005639364L198.97707379886083,54.36593538360624L199.55477579661778,51.72623321649874L199.88489122390746,101.23915492178438L199.96742008072988,110.51970357443766L200.29753550801956,110.88377138345918L201.04029521942138,110.95479239457265L201.3704106467111,117.13831817359123L201.45293950353349,133.18798706044277L201.53546836035594,134.83730972972157L201.94811264446804,115.11991368660982L202.44328578540257,104.53989716765452L202.69087235586986,109.16785109429526L202.77340121269225,109.64871171569322L202.8559300695147,122.77021590279128L203.10351663998196,111.03838386013803L203.2685743536268,101.10438187953193L203.43363206727165,108.51695179464255L203.51616092409407,85.36800905276576L203.5986897809165,68.43680440494185L203.92880520820617,70.81006851284917L204.093862921851,89.72563594568709L204.34144949231828,60.215059145284606L204.42397834914073,54.74129774428663L204.50650720596312,43.98614054029027L204.83662263325283,32.356870225463666L205.33179577418736,6.270115446895815L205.90949777194433,54.767074016237736L205.99202662876675,91.13164310043835L206.07455548558917,118.11468690721101L206.48719976970128,107.81381599686081L206.56972862652373,95.54035400903744L206.73478634016854,113.16504808670625L207.3950171947479,60.627586917819535L207.56007490839275,31.875789293589794L207.72513262203762,8.177487417439187L207.80766147886004,41.003252215720075L208.0552480493273,42.69825320766852L208.63295004708428,17.212017200504608L208.88053661755154,40.01447950348163L209.04559433119638,45.83064825276304L209.21065204484123,47.6902434351717L209.62329632895336,66.1698364656987L210.03594061306543,60.760769276538255L210.11846946988786,38.585954112093894L210.2009983267103,69.00015810540854L210.531113754,86.91098156678578L210.61364261082238,48.570349801512215L211.10881575175694,42.18788250694374L211.27387346540178,77.52148772842035L211.43893117904662,36.0348225923583L211.6865177495139,82.89475742313046L211.7690466063363,97.79973754024122L211.85157546315875,109.23675744586708L211.93410431998117,107.1540334250557L212.18169089044844,100.24296447194557L212.34674860409328,61.73833692027004L212.75939288820538,51.07722283923831L213.00697945867267,65.46795823630336L213.1720371723175,118.597150571504L213.50215259960717,162.71947413625315L213.58468145642962,118.2793169710679L213.99732574054173,88.36457729592718L214.3274411678314,101.16613582882086L214.5750277382987,51.38217457716067L214.6575565951211,67.79709749912072L214.82261430876594,62.81721969255186L215.15272973605565,6.19865667482288L215.23525859287807,32.69143281752615L215.4003163065229,75.43107877965505L215.48284516334533,58.73594353118115L215.97801830427986,109.11949833578564L216.0605471611023,155.64807544960678L216.22560487474715,124.50819371218583L216.39066258839196,60.230205689127125L216.63824915885925,36.13877476723224L216.7207780156817,24.07872685686301L216.88583572932654,24.072114157715966L217.13342229979378,54.80239224983714L217.4635377270835,71.58925011620599L217.62859544072833,92.88547070779182L217.71112429755073,109.76583272144615L217.8761820111956,99.27126556837257L217.95871086801802,111.16257389338354L218.53641286577496,129.91768375877882L218.7014705794198,126.69515455393646L218.9490571498871,121.11290255867955L219.11411486353194,140.44239152544486L219.19664372035436,128.40922931470905L219.27917257717678,148.68323694381482L219.77434571811133,109.23151174469493L220.59963428633552,98.42426380360718L220.76469199998036,74.6606618132926L221.1773362840925,76.7510982412548L221.34239399773733,79.96783468527748L221.67250942502704,97.3112302580657L221.75503828184944,109.69418561927584L221.8375671386719,82.86614373967831L222.00262485231673,43.7933661461905L222.16768256596157,74.17896489478031L222.250211422784,77.12762284134412L222.58032685007367,86.44972239281583L223.0754999910082,84.34275943989034L223.24055770465307,104.77213053979443L223.4056154182979,98.82294847830731L223.7357308455876,131.72749821416542L224.47849055698939,128.80966905088826L224.56101941381183,128.28307559336542L224.64354827063423,127.62394174926158L224.9736636979239,86.85294613285012L225.38630798203604,98.45276573185316L225.46883683885846,51.5765351616806L225.5513656956809,39.35230115267201L225.8814811229706,53.56383057644591L225.964009979793,79.2940356283489L226.21159655026028,56.908851761581275L226.37665426390512,4.531926422994759L226.6242408343724,30.953075006639605L227.03688511848452,32.322633514359254L227.20194283212933,65.5848812926639L227.36700054577418,40.99335628464219L227.44952940259662,54.38948414839394L227.8621736867087,14.105846392667637L228.02723140035357,53.95577413326592L228.43987568446568,57.12405739355756L228.68746225493294,111.16803276930891L228.85251996857778,97.15522751578791L229.01757768222262,64.44477242340746L229.43022196633476,78.9418370534357L229.67780853680202,88.9938908659553L229.84286625044686,96.72111517965351L230.0079239640917,98.08135664516608L230.09045282091415,126.50194579223941L230.3380393913814,82.7373694018635L230.4205682482038,79.90503634639603L230.50309710502626,75.03598629814688L230.7506836754935,62.67376029594412L230.83321253231594,64.5677810712149L230.91574138913833,57.31711492443537L231.57597224371773,108.11475986766352L231.65850110054018,119.09392719098916L231.74102995736257,143.98381507763463L231.9060876710074,99.58370363132713L231.98861652782986,81.92170017266186L232.31873195511955,100.97559679238056L232.4837896687644,100.17060911166638L233.22654938016618,119.17357653112623L233.63919366427828,79.51066431375972L233.72172252110073,45.10334811422539L233.80425137792312,92.07105576113553L233.96930909156802,115.32144128674216L234.3819533756801,86.57144774925824L234.46448223250252,67.27745604600241L234.54701108932497,67.64288579683699L234.62953994614736,54.033301245205706L234.7945976597922,53.016794073604174L234.95965537343704,56.16321634909089L235.28977080072676,70.47513373930927L235.61988622801644,54.7509292904506L235.70241508483886,29.664613338000077L235.86747279848373,43.18323498367838L236.11505936895097,47.65272983109018L236.2801170825958,76.9876485697007L236.85781908035278,44.57337968020275L237.2704633644649,49.43163580424056L237.51804993493215,66.29402406269205L237.93069421904428,35.78087479982167L238.17828078951155,45.488694101758625L238.26080964633397,37.152700593162784L238.3433385031564,39.357188839993L238.67345393044607,47.843526371916745L239.00356935773576,76.45131977361174L239.1686270713806,65.52175133283102L239.82885792596,52.21252503972798L239.91138678278242,74.42856245367783L239.99391563960484,90.46054392470747L240.32403106689452,84.925377030634L240.65414649418423,99.88573286249468L240.98426192147392,77.02595443035662L241.0667907782963,96.97204523880346L241.39690620558602,100.91295628579472L241.47943506240844,102.35226677727621L241.56196391923086,86.5233610216691L241.64449277605328,105.15782090567939L241.974608203343,88.61470556240896L242.22219477381023,92.38334552757951L242.46978134427752,111.86499975210157L242.63483905792236,112.2571646340538L242.7998967715672,138.19373781586256L243.13001219885692,133.99492335009268L243.54265648296902,134.46491587091035L243.62518533979144,114.79655224172947L243.70771419661386,117.46819894451549L243.8727719102587,130.3799094580463L243.9553007670811,119.11471685937985L244.120358480726,96.31616772055797L244.28541619437084,124.09543340709153L244.36794505119323,100.08509416090722L244.45047390801565,84.18310081469835L245.11070476259502,102.02027504193896L245.27576247623986,131.3986261608223L245.52334904670715,103.60534851698866L245.60587790352957,102.24381976654448L245.688406760352,107.199584546706L245.77093561717442,138.7089489971059L245.93599333081926,25.012347439829444L246.1010510444641,-6.43279263266454L246.3486376149314,38.648788352765564L246.43116647175378,-36.766663038779996L246.7612818990435,-28.306660143756694L246.84381075586592,8.593994201963223L246.92633961268834,20.04719828436151L247.17392618315563,72.32880334750791L247.83415703773497,79.15419286288494L249.31967646053857,91.07509846270834L249.40220531736102,55.633469743732036L249.81484960147313,126.76599968631187L249.89737845829555,98.05500874349319L250.06243617194042,68.65225471390272L250.22749388558526,21.54963444109045L250.31002274240765,3.2925167222903107L250.55760931287494,-16.06343709342874L250.8877247401646,-48.877200190218986L250.97025359698705,28.41880085596444L251.1353113106319,38.0681830879826L251.30036902427673,51.70858433655084L251.38289788109915,35.690936647080356L251.79554216521126,75.2517088430013L251.87807102203368,68.34005695765156L252.12565759250097,40.9813283897541L252.20818644932336,69.1766654262942L252.53830187661308,79.20384252891049L252.6208307334355,68.34863623111805L252.70335959025792,85.24248215196171L253.19853273119244,70.04766333787857L253.36359044483729,108.61808099801085L253.44611930165973,50.22035297786269L253.52864815848213,35.633698270641524L254.60152329717366,38.37221330802969L254.68405215399605,27.861773662310814L254.84910986764092,49.642604731465326L255.261754151753,35.168245111688954L255.67439843586513,18.51233154210599L255.83945614950997,0.6630160826360487L256.3346292904445,3.9712211664971635L256.49968700408937,21.616885132924995L256.6647447177342,36.08617379379538L256.82980243137905,47.54420174330286L256.9123312882015,63.06739345134969L257.0773890018463,65.83079302099853L257.4900332859584,73.16604227718847L257.57256214278084,84.65147811922576L257.65509099960326,89.0224840154761L257.7376198564257,71.11760608461363L257.98520642689294,82.8144014197591L258.0677352837154,98.67461009866683L258.3153218541826,94.82834446048733L258.39785071100505,54.31278439677031L258.4803795678275,19.56495314322237L258.5629084246499,69.53023465432781L258.8930238519396,29.66231893511212L258.97555270876205,25.578149526593247L259.38819699287416,43.21851030438008L259.553254706519,44.75732288247505L259.9658989906311,77.49086201358968L260.0484278474535,95.32827067976733L260.21348556109837,79.37067094909337L260.3785432747432,63.26198127343328L260.46107213156563,60.46045007737064L260.62612984521047,88.78217449716112L260.7911875588553,63.77128824624994L261.2038318429674,54.00954514289454L261.4514184134347,62.077713202922766L261.6164761270795,76.06960847780036L261.699004983902,94.63097838051839L262.0291204111917,95.55650713506802L262.4417646953038,94.60774000631338L263.01946669306074,110.41674447931527L263.10199554988316,112.12024234358253L263.51463983399526,123.8588532279481L263.6796975476401,128.69777249526325L264.0923418317522,90.5379216630374L264.1748706885747,78.48672891612243L264.25739954539705,139.08410479840708L264.3399284022195,153.86126788908868L265.0826881136213,139.621936208384L265.4953323977334,132.13010389247208L265.7429189682007,135.0416557728548L265.8254478250231,152.3025739146389L266.5682075364249,130.9298429330065L266.73326525006973,156.99550933552172L266.980851820537,154.92940089380272L267.14590953418184,115.79171831580585L267.6410826751164,138.69999899224746L268.21878467287337,126.82116862152635L268.3838423865182,102.60972645931713L268.46637124334063,101.8515635968899L268.6314289569855,105.69644454509347L268.87901552745274,48.60115306114615L269.2091309547424,78.76936121102052L269.4567175252097,89.4970633574363L269.5392463820321,33.86808502109015L269.70430409567695,10.604220293619184L269.8693618093218,17.326281435027333L269.95189066614427,19.229252091116077L270.4470638070788,1.2222517996176518L270.5295926639012,1.8526176977109075L270.69465037754605,0.6037419842942728L270.8597080911909,2.030446971292009L271.10729466165816,10.019268536763583L271.6849966594151,35.49407793054266L272.0151120867048,74.18221003327105L272.0976409435272,61.452706306633495L272.3452275139945,69.32338927228078" fill="none"></path></g></g></g></g><g opacity="0.2"><g><g><g><path style="fill: none;" stroke="rgb(255, 112, 67)" stroke-width="2px" d="M41.6770726953234,198.89802112967L41.759601552145824,171.58131111142683L42.33730354990278,194.26447243079767L42.91500554765974,235.67284566764667L43.16259211812701,37.755423623654856L43.32764983177185,233.48377121514224L43.41017868859427,45.10895733403249L43.57523640223912,100.66165124563777L43.74029411588397,167.7288144408264L43.987880686351225,181.08723821969235L44.152938399996074,149.50817905354342L44.730640397753035,85.98969586329004L45.060755825042726,49.432996382751476L45.14328468186515,167.52508616725225L45.225813538687575,192.59758353499657L45.47340010915484,91.73744749833186L46.21615982055664,69.72130889409546L46.29868867737906,69.72130889409546L46.38121753420148,59.29212176142318L46.62880410466875,98.09003367903388L46.87639067513602,155.5012908990031L47.20650610242571,55.25796905878378L47.5366215297154,91.24912300765318L47.619150386537825,176.05915615447446L47.701679243360246,245.39911883940292L47.86673695700509,245.39911883940292L48.03179467064994,122.15999329797178L48.11432352747236,26.579215152109278L48.27938124111721,75.96461521613055L48.36191009793963,85.2187788316116L48.52696781158448,138.8485373644391L48.69202552522932,118.9375732513674L49.26972752298627,189.97150626389404L49.51731409345354,28.76669938548293L49.59984295027596,66.47827960755622L49.76490066392081,261.21826890415326L50.0950160912105,107.12752463721627L50.507660375322615,116.3646411036154L50.59018923214504,92.96564794325623L51.58053551401411,86.05271094671225L51.66306437083653,93.0472791919694L51.99317979812622,68.89967447360614L52.24076636859349,112.3884253846406L52.40582408223834,155.40312137132986L52.570881795883174,100.1295003157149L53.313641507284984,103.28449507117439L53.80881464821952,143.78608295381144L54.221458932331636,193.55175741930563L54.30398778915405,141.17617291053847L54.55157435962132,118.35260584338103L54.71663207326616,164.94337600989837L54.88168978691101,101.75864801081225L55.37686292784555,125.21210087567006L55.45939178466797,221.56461766642857L56.20215149606977,58.06610521743841L56.367209209714616,58.06610521743841L56.53226692335946,202.69633373375447L56.77985349382673,162.8645885548437L57.52261320522854,150.28554177343193L57.7701997756958,169.83182623397323L57.85272863251822,197.45175923607277L58.017786346163064,170.89115600867007L58.265372916630334,149.06098823104747L58.843074914387294,202.03705538578694L59.00813262803214,133.24299372553213L59.090661484854564,189.49065580313L59.42077691214425,192.942491463001L59.50330576896667,90.95130676884146L59.5858346257891,187.50977283922677L59.66836348261152,132.69487699553628L59.91595005307879,154.89683800593428L59.99847890990121,134.28647431622556L60.3285943371909,134.28647431622556L60.41112319401332,134.28647431622556L60.49365205083575,134.28647431622556L60.90629633494786,134.28647431622556L61.07135404859271,134.28647431622556L61.153882905415124,134.28647431622556L61.483998332704815,134.28647431622556L61.896642616816926,134.28647431622556L61.979171473639354,134.28647431622556L62.144229187284196,134.28647431622556L62.309286900929045,134.28647431622556L62.391815757751466,134.28647431622556L62.47434461457389,134.28647431622556L62.72193118504115,78.67750785031258L62.886988898686,147.17533819015597L63.13457546915327,174.88473692055294L63.29963318279811,149.07273464969347L63.54721975326538,127.32724074005428L63.6297486100878,202.66819215587017L63.95986403737749,177.32109044789303L64.04239289419992,112.0901108771679L64.12492175102234,178.87384401594792L64.20745060784476,91.82160189473252L64.45503717831203,147.54945314286232L64.53756603513445,140.37181887127025L64.95021031924657,153.27653192920405L65.61044117382595,144.9904937205394L65.77549888747079,133.57195705638532L65.85802774429321,173.8351180840147L66.02308545793805,136.73746846102966L66.18814317158291,112.26111244103068L66.27067202840533,120.08231899630864L66.51825859887259,103.52737453974824L66.60078745569501,130.97223501701018L66.68331631251743,134.40476541663355L66.84837402616229,160.21019478175248L67.34354716709682,97.90455051962017L67.42607602391924,152.90019066971462L67.50860488074166,147.16694183314547L67.92124916485378,118.85927086136799L68.08630687849862,182.19250412434687L68.16883573532104,154.1384731039281L68.3338934489659,155.21037621121894L69.15918201719012,170.27417218885074L69.32423973083496,171.0688364928821L69.57182630130222,145.9847835327875L69.8194128717695,170.10627685302342L69.98447058541434,165.02199644372394L70.2320571558816,170.51939458027726L70.39711486952646,206.36698354602024L70.56217258317129,162.7140690133853L70.72723029681615,179.97041672268753L70.97481686728341,79.00801899445305L71.05734572410583,85.82547923438524L71.22240343775069,213.73088548513053L71.80010543550765,127.05830288065745L71.88263429233007,159.602487240196L71.96516314915249,138.62906592147027L72.04769200597491,81.32007039307082L72.87298057419913,79.28416584724273L73.12056714466641,144.49435595319818L73.20309600148883,159.75275234659347L73.53321142877851,111.59478942231381L73.94585571289063,179.56744459348803L74.11091342653546,132.2149488618681L74.2759711401803,200.74554831726638L74.52355771064758,169.60326933903724L74.77114428111484,200.47722004186969L75.26631742204938,206.97822137404702L75.3488462788718,171.06166990533274L75.51390399251666,156.08042750350995L75.59643284933908,156.08042750350995L76.0916059902736,120.2210285103558L76.17413484709604,259.0595119793771L76.4217214175633,182.21766139099574L76.751836844853,173.51232480338894L76.83436570167542,165.8276120568359L76.91689455849784,168.48451837615374L76.99942341532027,138.16158390286563L77.41206769943238,159.1817470625753L77.65965426989963,156.28903244908514L77.74218312672205,123.25907855093801L77.82471198354447,139.3889892382246L78.2373562676566,83.43472259025494L78.65000055176871,205.74694650546982L78.81505826541355,151.53713964250045L78.89758712223598,214.08468803880643L78.9801159790584,96.91062115704172L79.06264483588082,114.4137814769012L79.22770254952567,171.10737280315124L79.88793340410506,105.39503390154023L80.21804883139474,83.92050273032437L80.30057768821717,177.50438970636714L81.12586625644138,143.994327449717L81.5385105405535,188.5121409646592L81.70356825419834,82.4840047821901L81.78609711102077,159.2354328604303L81.86862596784319,102.46724965548601L81.95115482466561,106.74597806043876L82.2812702519553,79.37039812997428L82.69391453606742,133.55346810862483L82.77644339288985,133.55346810862483L83.02402996335711,152.35325070187554L83.43667424746923,140.19479567763227L83.51920310429165,78.1972404698965L83.84931853158133,120.01898586906027L83.93184738840377,69.14715497619837L84.01437624522619,143.96616996964138L84.17943395887103,105.09382519524952L84.42702052933828,116.44637836693728L84.75713595662798,116.29325086610443L84.8396648134504,207.45815480844564L85.25230909756252,187.35303024023662L85.66495338167464,148.501506734997L85.83001109531948,162.28620465405874L86.2426553794316,129.21407814456342L86.32518423625402,110.48888743000698L86.40771309307644,114.20018324325538L86.6552996635437,172.72584482715064L86.73782852036612,146.6400598292759L86.82035737718854,128.78147493222713L87.06794394765582,2.097028328630764L87.15047280447824,257.0620059248268L87.23300166130066,156.38768964395848L87.31553051812308,167.8556503186971L87.72817480223519,142.30587518250258L87.89323251588003,227.6869348162638L87.97576137270245,209.218082124858L88.05829022952489,132.75938688494142L88.1408190863473,131.92264538270973L88.38840565681457,148.06762074589523L88.55346337045941,94.8193133766974L88.80104994092669,129.74880522947814L88.88357879774911,134.65333786969558L89.29622308186123,190.37109652707542L89.37875193868365,80.84722403526503L89.62633850915091,15.852381403999239L89.79139622279575,31.463795842965915L90.20404050690787,214.1170595995786L90.36909822055271,155.7578568535625L90.61668479101999,130.85022280383617L90.78174250466483,125.75115335662049L90.86427136148725,28.69622087360694L90.94680021830968,97.50602040252598L91.02932907513211,153.03619681123945L91.19438678877695,88.39584582860626L91.27691564559936,66.69864157323828L91.4419733592442,125.99146727166335L91.60703107288904,48.603516881217L91.68955992971148,128.88939780390245L91.7720887865339,73.93702221562599L92.01967535700116,18.394018039257567L92.26726192746844,96.89192018006379L92.67990621158054,135.9557167363402L93.01002163887024,193.40123787784725L93.09255049569266,162.015273720018L93.2576082093375,196.33408432146777L93.50519477980478,53.70199264662387L93.83531020709447,112.52338198153912L93.91783906391689,104.88317416772607L94.08289677756174,67.16605998307769L94.16542563438416,135.96329678086357L94.24795449120658,123.47455324315816L94.330483348029,176.29378768649002L94.6605987753187,80.7849298511821L94.74312763214111,188.5903373400499L94.90818534578595,14.810172988610425L94.99071420260837,113.78272951850495L95.32082962989807,40.086324419702756L95.98106048447745,219.4430374145647L96.31117591176714,140.29169303000089L96.39370476858957,112.05856092961331L96.64129133905683,99.13012180224833L96.72382019587926,96.1980121601584L96.80634905270168,222.66622076635187L96.97140676634652,72.81345818950668L97.05393562316895,168.40672485627618L97.2189933368138,68.1547734269072L97.38405105045864,184.4231363034689L97.46657990728106,88.58412777369013L97.63163762092591,76.81374982612142L97.79669533457076,228.2956229929509L98.044281905038,49.02047233730645L98.29186847550528,93.93040208551538L98.62198390279497,102.83668936394788L98.70451275961739,106.55937114617264L99.28221475737435,135.5070417093222L99.4472724710192,117.36391360247326L99.52980132784162,163.0190094339029L99.94244561195373,204.10260691694313L100.27256103924343,29.38798739841622L100.43761875288827,146.84481644455462L100.76773418017797,-9.443531150158181L101.18037846429009,74.52998312510972L101.59302274840218,-61.467783245632546L101.75808046204703,-12.295133298387357L102.0056670325143,2.7593227922163313L102.17072474615914,148.50214282264932L102.33578245980398,126.0795442085866L102.41831131662641,129.25648398805077L102.58336903027126,131.64212012657998L102.83095560073852,-32.33091901176411L102.91348445756094,219.0018258160005L102.99601331438338,106.8226478254639L103.16107102802822,177.0856214004686L103.32612874167306,127.7484261790316L103.40865759849548,131.0502723704878L103.57371531214034,116.94074569031291L103.73877302578518,140.67528568872666L104.06888845307486,168.58566691433197L104.23394616671972,117.29110276920547L104.5640615940094,100.80521622876422L104.64659045083182,6.63636184473507L104.8941770212991,97.49613984099342L105.05923473494393,77.01572885865171L105.30682130541119,189.478909384484L105.47187901905605,193.25362313666776L105.63693673270089,76.59213688805649L105.88452330316815,68.3025365885389L106.13210987363543,75.79736656941641L106.21463873045785,163.45834457389282L106.62728301456997,181.07621270038564L107.03992729868207,101.3624714180316L107.37004272597177,-13.217545205924383L107.45257158279419,147.74391573963447L107.53510043961661,119.12212348222438L107.70015815326146,38.317343455705846L107.78268701008389,138.31070405148893L107.86521586690631,150.73606145464163L108.2778601510184,68.74777674223442L108.52544672148568,163.13426851650155L108.6079755783081,149.61414065495745L108.69050443513052,142.70416146599672L108.77303329195294,104.42423692658413L108.9380910055978,166.646203858055L109.18567757606506,-36.140575178981436L109.43326414653232,211.03882472156167L110.17602385793414,135.7127100502359L110.4236104284014,116.81888189759111L111.00131242615836,36.313010060354095L111.08384128298079,113.00268462901586L111.1663701398032,80.28574946457066L111.4964855670929,187.78084159225884L111.66154328073775,17.232818827043225L111.82660099438257,102.84370753104504L111.90912985120502,75.24848653423778L112.23924527849469,192.926197017641L112.73441841942923,202.53730651994644L112.89947613307407,116.91505835062044L113.14706270354135,121.1533103779645L113.22959156036377,152.48411513487753L113.47717813083104,113.17156590070427L113.72476470129831,125.67535291138684L113.88982241494315,152.66122314020248L114.054880128588,142.0161372568752L114.46752441270012,212.6595601574572L114.55005326952254,135.00858222205005L114.7976398399898,112.5137876594501L115.1277552672795,223.3852224441409L115.29281298092432,117.11578641076785L115.62292840821402,42.93695123353172L115.70545726503644,43.019600222488585L115.9530438355037,143.30341964323833L116.11810154914856,51.96015142245887L116.20063040597098,165.57823389274762L116.44821697643825,201.91076548315115L116.53074583326067,58.57338512015594L116.77833240372794,147.7507960877403L116.86086126055037,88.00168351339126L116.94339011737279,22.10707369501069L117.43856325830733,110.39938989732691L117.85120754241943,199.14482313876644L118.09879411288671,231.82674167795196L119.25419810840062,119.73693400256498L119.33672696522304,134.0957752380629L119.50178467886788,189.492394442713L120.07948667662484,113.56263258934469L120.16201553344726,196.06308447793137L120.24454439026968,43.59947892925647L120.57465981755938,89.25617558127779L120.6571886743818,179.34013867093492L120.9873041016715,74.22455503739202L121.31741952896118,191.8374799934074L121.3999483857836,40.899732106555525L121.56500609942846,144.43660979582927L121.7300638130733,71.55852086026353L121.81259266989572,159.82798031294004L121.89512152671814,140.1569484623198L121.97765038354055,111.54663758703391L122.63788123811993,65.45962763822463L122.96799666540963,135.95740236861883L123.13305437905447,111.9574441958177L123.38064094952175,-41.377908878887666L123.79328523363385,6.394012449204816L124.28845837456839,52.92327293974376L124.37098723139081,136.03810068877527L124.45351608821325,22.610706695188306L124.61857380185809,170.55832314459866L124.86616037232535,214.68631034182246L125.69144894054958,194.2275263396593L125.85650665419442,69.33645466152593L126.02156436783926,31.391833126567867L126.26915093830654,44.14992798064413L126.5167375087738,112.52926579232299L126.68179522241864,81.34595916051985L126.76432407924106,35.54892036947712L127.17696836335318,-20.31403589600339L127.2594972201756,129.79039476047836L127.50708379064288,97.81804259890596L127.5896126474653,109.86110072155925L127.67214150428772,40.62718975046227L127.91972807475499,-18.21422574403985L128.0022569315774,161.09886223933444L128.3323723588671,92.77176842683203L128.49743007251195,105.46600008061633L128.99260321344647,120.28952454904875L129.1576609270913,41.366620443351344L129.4052474975586,128.9828602829486L129.7353629248483,-1.3368060506798272L130.06547835213797,-19.685454077990272L130.23053606578281,101.78402790813944L130.56065149307253,92.18179712931415L130.64318034989495,126.82680938105996L131.05582463400705,158.61523679796682L131.2208823476519,144.8115622639445L132.21122862952097,-30.531469449221532L132.54134405681066,87.6340460532776L132.62387291363308,93.26068659931953L132.7064017704555,81.61833189323916L132.95398834092276,127.49619622196879L133.1190460545676,1.540409227015694L133.36663262503487,160.4931795768045L133.69674805232458,93.10382738425979L133.86180576596942,150.4792092606387L133.9443346227918,109.99333274301371L134.27445005008153,-17.41118628591974L134.35697890690395,6.182682928185564L134.6045654773712,18.90127673905335L134.9346809046609,76.98498462212338L135.01720976148331,77.98665305113828L135.18226747512819,162.82217210989546L135.34732518877303,39.41062970957518L135.5949117592403,131.73031367957282L136.0075560433524,83.23166220871572L136.17261375699724,75.67937230991284L136.33767147064208,30.606010440903624L136.58525804110937,16.6743762741582L136.99790232522147,110.36885769001601L137.0804311820439,84.23670190228786L137.24548889568874,-46.066850210815375L137.41054660933358,46.741115844017436L137.493075466156,-0.4091994273156003L137.57560432297845,40.023160915828335L137.82319089344568,51.73359820362766L138.23583517755782,30.577556119923607L138.40089289120266,59.42417355804282L138.48342174802508,45.25947687549087L138.81353717531476,135.7189543106894L139.22618145942687,104.74772990362744L139.55629688671658,64.15191623676147L139.88641231400626,188.88283164550396L139.96894117082869,-84.76680462997027L140.3815854549408,37.493906786868315L140.54664316858566,100.89280549848736L140.7117008822305,161.4005374099035L140.87675859587534,-87.19661705595243L141.12434516634258,-19.363911769747375L141.20687402316503,49.81676926631207L141.5369894504547,101.2069903928852L142.03216259138924,21.52946370086938L142.19722030503408,96.69384248513434L142.36227801867895,136.35912352543545L142.5273357323238,31.452961149954895L142.6098645891462,73.63670403204851L143.02250887325832,-7.715514230970059L143.43515315737042,58.899061998138855L143.6827397278377,48.14396475534449L143.84779744148256,22.857402689676015L144.0128551551274,23.847769961401532L144.09538401194982,-21.56068288284476L144.26044172559466,28.981378968137683L144.4254994392395,79.20951035978324L144.6730860097068,0.4850125943023119L144.8381437233516,49.24030422994492L144.92067258017403,105.98969104476346L145.00320143699645,92.34656503418428L145.0857302938189,106.06190819622243L145.66343229157584,92.18794597661982L145.8284900052207,1.633829300218345L146.07607657568795,118.4939021138809L146.15860543251037,112.06904577441556L146.24113428933282,7.689510967743622L146.73630743026735,117.5796533312152L147.14895171437945,123.37979738588565L147.3965382848467,14.289662462724841L147.47906714166913,90.35334196982622L148.13929799624853,135.12725497504942L148.22182685307092,117.22584017607842L148.30435570989337,47.97544393332573L148.38688456671576,50.283806023560096L148.5519422803606,30.84242301834565L148.96458656447274,62.31972936304664L149.12964427811758,-3.8518330191498378L149.21217313494,105.4669118062513L149.8724039895194,123.92346150231533L149.95493284634182,103.90105483255884L150.2850482736315,37.11674921489175L150.45010598727637,112.12102473707019L150.61516370092122,126.46562821061725L150.6976925577436,87.68177383012262L150.86275027138845,91.92151006198874L151.19286569867816,89.37461510213798L151.27539455550055,112.7755483298367L151.4404522691454,114.3443631111124L151.6055099827903,43.50709779921926L151.6880388396127,67.57165067311253L151.85309655325753,101.61141492222414L151.93562541007995,69.54275909009193L152.01815426690237,112.45890389651659L152.1006831237248,39.17296615975028L152.43079855101448,24.96289522466686L152.51332740783693,140.5028847320288L152.76091397830416,-4.078619470120231L152.8434428351266,73.81209460071223L152.92597169194903,92.48495650440528L153.2560871192387,-12.508265067754822L153.503673689706,-45.63007002289558L153.91631797381808,24.880458264927434L154.57654882839748,145.10229672689383L154.82413539886477,14.728414522366798L154.98919311250958,-60.2426996302045L155.15425082615442,-14.206491881893074L155.23677968297687,87.04059747659376L155.56689511026656,136.51578131273862L155.7319528239114,-30.637399246252954L155.97953939437866,73.24809688233036L156.06206825120108,120.81567505211815L156.22712596484592,-85.99555635085997L156.80482796260287,-19.974195466295697L156.96988567624774,13.803500670064018L157.05241453307016,20.269480076251234L157.38252996035985,-19.629011900308598L157.46505881718227,158.0256895588838L157.71264538764956,95.79600476389824L157.79517424447195,48.33474864519412L157.8777031012944,39.10024013816946L158.04276081493924,101.9701683581272L158.12528967176164,-1.1515985292487882L158.2903473854065,114.46139263767664L158.45540509905135,7.2073565272923545L158.53793395587374,105.96337821887955L158.86804938316345,128.65697137574824L159.11563595363071,119.35255683573469L159.44575138092043,95.59040003174978L159.52828023774282,113.78914340233241L159.7758668082101,122.2099049757564L159.94092452185495,108.38900306781734L160.1059822354998,55.271496522856246L160.18851109232222,139.53881968472632L160.27103994914464,93.88651203750597L161.01379966054643,78.27212918949517L161.1788573741913,126.06970605289753L161.42644394465853,112.13002537735038L161.59150165830337,135.762664133864L161.75655937194827,98.2077098947113L162.33426136970522,116.67278316531629L162.4167902265276,89.43436493561167L162.6643767969949,20.992308881415006L162.7469056538173,91.97587435333953L162.82943451063974,40.35719174497826L163.24207879475185,103.37897529046423L163.4896653652191,76.20251199809464L163.65472307886398,30.179471264186027L163.90230964933122,133.9577654204333L163.98483850615366,156.72768909557925L164.06736736297606,67.03801553866761L164.39748279026577,84.7727753727333L164.4800116470882,114.17772934912882L164.64506936073303,121.73531997836763L164.8101270743779,160.01480985788447L164.8926559312003,165.36722241555452L165.22277135848998,93.6276031600939L165.3053002153124,43.4064899355455L165.63541564260208,57.29718126040388L165.71794449942453,69.49244455679418L165.88300221306937,69.38980121263303L166.04805992671422,94.05728036922956L166.46070421082632,-4.9402213980963845L166.54323306764877,58.777526850704085L166.7082907812936,16.926054955255672L166.95587735176085,65.709991738174L167.53357934951782,125.33634999708802L167.69863706316266,70.43574134224873L168.02875249045238,19.4458949869615L168.11128134727477,58.43927664012717L168.44139677456448,33.541088492037666L168.52392563138687,92.29822237260869L169.01909877232143,89.65260660911936L169.2666853427887,102.17303791337072L169.3492141996111,57.421048729230456L169.43174305643353,107.46477831047123L169.5968007700784,84.74097099011779L169.6793296269008,91.94118637336688L169.76185848372324,136.57588099442108L169.84438734054564,94.05602939684668L170.17450276783535,76.0660923995958L170.25703162465777,86.96778664332597L170.4220893383026,109.8046903482602L170.50461819512503,112.1768520300213L170.66967590876988,61.27730891844039L170.91726247923717,67.5524620289345L170.99979133605956,47.693572291665255L171.32990676334927,127.65794271049045L171.4124356201717,132.9242926088029L172.0726664747511,-50.558265123778966L172.4853107588632,-49.7486951657618L172.98048389979772,27.150803516475385L173.0630127566201,66.75179729804968L173.14554161344256,84.11537878407053L173.55818589755467,107.08383601696342L173.88830132484435,104.3015568213752L174.3834744657789,-11.689450635857414L175.37382074764795,-2.1250670723445935L175.62140731811522,40.33547995311273L176.03405160222735,55.97503066923327L176.44669588633946,68.80837469257786L177.02439788409643,39.77521394895775L177.51957102503096,75.98337980187371L177.6846287386758,64.50664111753322L177.84968645232067,24.832624473473693L178.0147441659655,16.697699488076246L178.0972730227879,39.082980959870106L178.3448595932552,25.230136850324193L179.08761930465698,85.24895058925286L179.9954367297036,38.50384435536325L180.07796558652606,64.35385286344827L180.32555215699333,39.24925427218404L180.40808101381575,28.114794353551765L180.73819644110543,50.88268254821032L180.82072529792785,23.667863170406413L180.9857830115727,50.89962368268352L181.39842729568483,-1.036572678789328L181.6460138661521,21.58934075187353L182.05865815026422,25.402050139821945L182.14118700708661,22.68623150243929L182.22371586390906,-23.115493134308764L182.3887735775539,-30.087013803630526L182.4713024343763,3.436077648431088L182.8839467184884,-12.50018675457048L183.2140621457781,-26.713628954211146L183.29659100260054,64.55540783754368L183.70923528671264,-72.62936170117499L184.20440842764717,171.26383976415872L184.28693728446962,182.15302428406014L184.69958156858172,13.11618675882091L185.0296969958714,40.56322053556159L185.44234127998354,-40.79639754714552L186.10257213456288,13.249298701527728L187.42303384372167,-13.148678116100912L187.5055627005441,-3.266589973180801L187.9182069846562,57.56052154846038L188.99108212334767,129.34708407266152L189.07361098017012,75.35969585878338L189.48625526428222,15.158367369485127L189.65131297792706,103.82703543275166L189.8163706915719,1.0083855146232923L189.89889954839435,65.93796555276204L189.98142840521675,116.86708674017537L190.31154383250643,78.76399456810505L190.4766015461513,65.44487040469103L190.64165925979614,123.48772025756098L190.80671697344098,8.55488701579015L191.05430354390828,60.37221979796795L191.13683240073067,103.00361996683587L191.3018901143755,65.18269627733044L191.46694782802035,115.42093086118685L191.5494766848428,123.4626796069817L191.63200554166522,70.91904074047416L191.71453439848764,139.76219246529598L191.87959211213249,143.2966135053586L191.9621209689549,88.65626011346212L192.04464982577733,115.67682892371131L192.2922363962446,48.69320524019276L192.952467250824,135.10342289100953L193.28258267811367,103.43285191461491L193.3651115349361,66.36348698923594L193.61269810540335,50.25212885847504L194.1078712463379,-4.17208194916637L194.1904001031603,120.30109074285993L194.35545781680514,66.50141199517857L194.76810210091728,-1.2765261441625468L194.93315981456212,-6.061855958337021L195.01568867138454,128.50335620771529L195.34580409867422,85.51271493574423L195.42833295549667,95.76165603067348L195.84097723960878,-21.513676005339022L196.00603495325362,89.63214578963671L196.088563810076,-113.65553107067242L196.25362152372085,51.88899441708708L196.9963812351227,164.74663409903877L197.0789100919451,10.22803077350563L197.24396780558993,-18.85849772414329L197.40902551923477,68.80468538419446L197.65661208970207,-20.100967735401156L197.7391409465245,85.55868287008452L198.4819006579263,-51.46195485141632L198.97707379886083,127.15532745055653L199.55477579661778,47.76667996583746L199.88489122390746,175.50853747971286L199.96742008072988,124.44052655341757L200.29753550801956,111.42987309699147L201.04029521942138,111.06132391124284L201.3704106467111,126.41360684211914L201.45293950353349,157.26249039072007L201.53546836035594,137.31129373363973L201.94811264446804,85.5438196219422L202.44328578540257,88.66987238922157L202.69087235586986,116.10978198425637L202.77340121269225,110.37000264779017L202.8559300695147,142.45247218343837L203.10351663998196,93.44063579615813L203.2685743536268,86.20337890862284L203.43363206727165,119.6358066673085L203.51616092409407,50.644594939950544L203.5986897809165,43.039997433206004L203.92880520820617,74.36996467471018L204.093862921851,118.09898709494401L204.34144949231828,15.949193944680879L204.42397834914073,46.530655642789675L204.50650720596312,27.853404734295687L204.83662263325283,14.912964753223783L205.33179577418736,-32.86001672095588L205.90949777194433,127.51251187025055L205.99202662876675,145.67849672673918L206.07455548558917,158.58925261736994L206.48719976970128,92.36250963133553L206.56972862652373,77.13016102730235L206.73478634016854,139.60208920320946L207.3950171947479,-18.17860483551047L207.72513262203762,-27.36996539678674L207.80766147886004,90.24189941314144L208.0552480493273,45.2407546955912L208.63295004708428,-21.017336810241233L208.88053661755154,74.21817295794717L209.04559433119638,54.554901376685116L209.21065204484123,50.47963620878472L209.62329632895336,93.88922601148916L210.03594061306543,52.64716849279757L210.11846946988786,5.323731365427371L210.2009983267103,114.62146409538055L210.531113754,113.7772167588516L210.61364261082238,-8.940597846398108L211.10881575175694,32.61418156509098L211.27387346540178,130.5218955606353L211.43893117904662,-26.1951751117347L211.6865177495139,153.1846596692887L211.7690466063363,120.15720771590732L211.85157546315875,126.39228730430587L211.93410431998117,104.02994739383867L212.18169089044844,89.87636104228041L212.34674860409328,3.9813955927567766L212.75939288820538,35.085551717690755L213.00697945867267,87.054061331901L213.1720371723175,198.290939074305L213.50215259960717,228.90295948337686L213.58468145642962,51.619081223290046L213.99732574054173,43.49246778321612L214.3274411678314,120.36847362816134L214.5750277382987,-23.29376730032962L214.6575565951211,92.4194818820608L214.82261430876594,55.34740298269862L215.15272973605565,-78.7291878517706L215.23525859287807,72.43059703158106L215.4003163065229,139.54054772284843L215.48284516334533,33.69324065847031L215.97801830427986,184.69483054269242L216.0605471611023,225.44094112033846L216.22560487474715,77.7983711060544L216.39066258839196,-36.18677634546091L216.63824915885925,0.001628384389910623L216.7207780156817,5.988654991309154L216.88583572932654,24.06219510899536L217.13342229979378,100.89780938801887L217.4635377270835,96.76953691575928L217.62859544072833,124.82980159517065L217.71112429755073,135.0863757419276L217.8761820111956,83.52941483876221L217.95871086801802,128.9995363809L218.53641286577496,158.0503485568717L218.7014705794198,121.86136074667293L218.9490571498871,112.73952456579418L219.11411486353194,169.4366249755928L219.19664372035436,110.35948599860531L219.27917257717678,179.09424838747347L219.77434571811133,50.053923946015125L220.59963428633552,82.21339189197552L220.76469199998036,39.015258827820794L221.1773362840925,79.8867528831981L221.34239399773733,84.79293935131155L221.67250942502704,123.3263236172481L221.75503828184944,128.268618661091L221.8375671386719,42.62408092028199L222.00262485231673,-14.815800244041187L222.16768256596157,119.75736301766501L222.250211422784,81.55060976118985L222.58032685007367,100.43287172002347L223.0754999910082,81.18231501050214L223.24055770465307,135.41618718965054L223.4056154182979,89.8991753860766L223.7357308455876,181.0843228179526L224.47849055698939,124.43292530597246L224.56101941381183,127.49318540708119L224.64354827063423,126.63524098310582L224.9736636979239,25.696452708232933L225.38630798203604,115.8524951303577L225.46883683885846,-18.73781069357827L225.5513656956809,21.01595013915921L225.8814811229706,74.8811247121068L225.964009979793,117.88934320620338L226.21159655026028,23.33107596142981L226.37665426390512,-74.03346158488492L226.6242408343724,70.5847978821068L227.03688511848452,34.376971275938736L227.20194283212933,115.47825296012088L227.36700054577418,4.106068772609611L227.44952940259662,74.48367594402153L227.8621736867087,-46.319610240921776L228.02723140035357,113.73066574416335L228.43987568446568,61.876482283995024L228.68746225493294,192.23399583293596L228.85251996857778,76.13601963550646L229.01757768222262,15.379089784836829L229.43022196633476,100.68743399847808L229.67780853680202,104.07197158473464L229.84286625044686,108.31195165020081L230.0079239640917,100.12171884343498L230.09045282091415,169.13282951284936L230.3380393913814,17.09050481629965L230.4205682482038,75.6565367631949L230.50309710502626,67.7324112257731L230.7506836754935,44.130421292639944L230.83321253231594,67.40881223412107L230.91574138913833,46.44111570426612L231.57597224371773,184.31122728250577L231.65850110054018,135.56267817597762L231.74102995736257,181.31864690760287L231.9060876710074,32.983536461865874L231.98861652782986,55.428694984663885L232.31873195511955,129.5564417219586L232.4837896687644,98.96312759059511L233.22654938016618,147.678027660316L233.63919366427828,20.01629598770996L233.72172252110073,-6.507626185076135L233.80425137792312,162.52261723150076L233.96930909156802,150.19701957515207L234.3819533756801,43.44645744303234L234.46448223250252,38.336468491118644L234.54701108932497,68.19103042308889L234.62953994614736,33.61892441775871L234.7945976597922,51.49203331620192L234.95965537343704,60.88284976232098L235.28977080072676,91.94300982463683L235.61988622801644,31.1646226171626L235.70241508483886,-7.964860590675728L235.86747279848373,63.46116745219587L236.11505936895097,54.35697210220787L236.2801170825958,120.99002667761643L236.85781908035278,-4.048023654044102L237.2704633644649,56.719019990297234L237.51804993493215,91.58760645036928L237.93069421904428,-9.98884909448387L238.17828078951155,60.05042305466413L238.26080964633397,24.64871033026902L238.3433385031564,42.663921210238364L238.67345393044607,60.57303266980234L239.00356935773576,119.36300987615432L239.1686270713806,49.127398671659826L239.82885792596,32.248685600073436L239.91138678278242,107.75261857460255L239.99391563960484,114.50851613125197L240.32403106689452,76.6226266895239L240.65414649418423,122.32626661028571L240.98426192147392,42.73628678214954L241.0667907782963,126.89118145147377L241.39690620558602,106.82432285628165L241.47943506240844,104.51123251449845L241.56196391923086,62.78000238825843L241.64449277605328,133.1095107316948L241.974608203343,63.800032547503356L242.22219477381023,98.0363054753354L242.46978134427752,141.08748108888466L242.63483905792236,112.84541195698212L242.7998967715672,177.09859758857573L243.13001219885692,127.69670165143789L243.54265648296902,135.16990465213684L243.62518533979144,85.29400679795818L243.70771419661386,121.47566899869453L243.8727719102587,149.74747522834258L243.9553007670811,102.21692796138014L244.120358480726,62.118344012325174L244.28541619437084,165.7643319368919L244.36794505119323,64.06958529163076L244.45047390801565,60.330110795385L245.11070476259502,128.77603638279987L245.27576247623986,175.46615283914724L245.52334904670715,61.91543205123816L245.60587790352957,100.20152664087819L245.688406760352,114.63323171694829L245.77093561717442,185.97299567270576L246.1010510444641,-53.60050274140556L246.3486376149314,106.2711598309108L246.43116647175378,-149.88984012609833L246.7612818990435,-15.616655801221698L246.84381075586592,63.94497572054315L246.92633961268834,37.22700440795888L247.17392618315563,150.7512109422275L247.83415703773497,89.39227713595047L249.31967646053857,108.95645686244343L249.40220531736102,2.4710266652675235L249.81484960147313,233.46479460018165L249.89737845829555,54.9885223292651L250.06243617194042,24.548123669517004L250.22749388558526,-49.1042959681279L250.8877247401646,-98.09784483540423L250.97025359698705,144.36280242523952L251.1353113106319,52.54225643600984L251.30036902427673,72.16918620940324L251.38289788109915,11.664465112874673L251.79554216521126,134.5928671368826L251.87807102203368,57.97257912962704L252.12565759250097,-0.056764462092162495L252.20818644932336,111.46967098110436L252.53830187661308,94.24460818283497L252.6208307334355,52.06582678442937L252.70335959025792,110.58325103322723L253.19853273119244,47.255435116753866L253.36359044483729,166.4737074882093L253.44611930165973,-37.37623905235958L253.52864815848213,13.753716209809859L254.60152329717366,42.479985864111946L254.68405215399605,12.096114193732497L254.84910986764092,82.31385133519707L255.261754151753,13.456705682024399L255.67439843586513,-6.471538812268393L255.83945614950997,-26.110957106568804L256.3346292904445,8.933528792288776L256.49968700408937,48.085381082566705L256.6647447177342,57.79010678510094L256.82980243137905,64.73124366756402L256.9123312882015,86.35218101341998L257.0773890018463,69.97589237547182L257.4900332859584,84.16891616147332L257.57256214278084,101.87963188228169L257.65509099960326,95.57899285985168L257.7376198564257,44.26028918831998L257.98520642689294,100.35959442247731L258.0677352837154,122.4649231170285L258.3153218541826,89.05894600321808L258.39785071100505,-6.460555698805167L258.4803795678275,-32.556793737099525L258.5629084246499,144.478156920986L258.8930238519396,-30.139554643711364L258.97555270876205,19.45189541381496L259.38819699287416,69.6790514710603L259.553254706519,47.06554174961747L259.9658989906311,126.59117071026158L260.0484278474535,122.08438367903382L260.21348556109837,55.43427135308247L260.3785432747432,39.0989467599431L260.46107213156563,56.25815328327662L260.62612984521047,131.26476112684685L260.7911875588553,26.25495886988319L261.2038318429674,39.36693048786146L261.4514184134347,74.17996529296506L261.6164761270795,97.0574513901167L261.699004983902,122.47303323459546L262.0291204111917,96.94480026689253L262.4417646953038,93.18458931318146L263.01946669306074,134.13025118881814L263.10199554988316,114.67548913998344L263.51463983399526,141.46676955449647L263.6796975476401,135.95615139623595L264.0923418317522,33.29814541469859L264.1748706885747,60.409939795749956L264.25739954539705,229.98016862183405L264.3399284022195,176.02701252511105L265.0826881136213,118.26293868732701L265.4953323977334,120.89235541860417L265.7429189682007,139.4089835934289L265.8254478250231,178.1939511273151L266.5682075364249,98.8707464605579L266.73326525006973,196.09400893929453L266.980851820537,151.8302382312242L267.14590953418184,57.085194448810576L267.6410826751164,173.0624200069098L268.21878467287337,109.0029230654447L268.3838423865182,66.29256321600333L268.46637124334063,100.71431930324907L268.6314289569855,111.46376596739874L268.87901552745274,-37.04178416477478L269.2091309547424,124.02167343583206L269.4567175252097,105.58861657706002L269.5392463820321,-49.57538248342897L269.70430409567695,-24.29157679758717L269.8693618093218,27.409373147139554L269.95189066614427,22.083708075249156L270.4470638070788,-25.788248637630005L270.5295926639012,2.798166544850752L270.69465037754605,-1.26957158583062L270.8597080911909,4.170504451788652L271.10729466165816,22.002500884970864L271.6849966594151,73.70629202121127L272.0151120867048,132.21440818736363L272.0976409435272,42.358450716677176L272.3452275139945,81.12941372075166" fill="none"></path></g></g></g></g></g></g><g transform="translate(41, 177)" clip-path="url(#clip_1)"><clipPath id="clip_1"><rect width="288" height="22"></rect></clipPath><g><g><line x1="0" y1="0" x2="0" y2="5" style="visibility: inherit;" fill="rgb(0, 0, 0)" stroke="rgb(204, 204, 204)" stroke-width="1px"></line><line x1="41.264428411211284" y1="0" x2="41.264428411211284" y2="5" style="visibility: inherit;" fill="rgb(0, 0, 0)" stroke="rgb(204, 204, 204)" stroke-width="1px"></line><line x1="82.52885682242257" y1="0" x2="82.52885682242257" y2="5" style="visibility: inherit;" fill="rgb(0, 0, 0)" stroke="rgb(204, 204, 204)" stroke-width="1px"></line><line x1="123.79328523363385" y1="0" x2="123.79328523363385" y2="5" style="visibility: inherit;" fill="rgb(0, 0, 0)" stroke="rgb(204, 204, 204)" stroke-width="1px"></line><line x1="165.05771364484514" y1="0" x2="165.05771364484514" y2="5" style="visibility: inherit;" fill="rgb(0, 0, 0)" stroke="rgb(204, 204, 204)" stroke-width="1px"></line><line x1="206.32214205605644" y1="0" x2="206.32214205605644" y2="5" style="visibility: inherit;" fill="rgb(0, 0, 0)" stroke="rgb(204, 204, 204)" stroke-width="1px"></line><line x1="247.5865704672677" y1="0" x2="247.5865704672677" y2="5" style="visibility: inherit;" fill="rgb(0, 0, 0)" stroke="rgb(204, 204, 204)" stroke-width="1px"></line><line x1="288.850998878479" y1="0" x2="288.850998878479" y2="5" style="visibility: inherit;" fill="rgb(0, 0, 0)" stroke="rgb(204, 204, 204)" stroke-width="1px"></line></g><g transform="translate(0, 8)"><text style="text-anchor: middle; visibility: hidden; font-family: Roboto, sans-serif; font-size: 12px; font-weight: 200;" x="0" y="0" dx="0em" dy="0.95em" fill="rgb(50, 49, 63)" stroke="none" stroke-width="1px">-500</text><text style="text-anchor: middle; visibility: inherit; font-family: Roboto, sans-serif; font-size: 12px; font-weight: 200;" x="41.264428411211284" y="0" dx="0em" dy="0.95em" fill="rgb(50, 49, 63)" stroke="none" stroke-width="1px">0</text><text style="text-anchor: middle; visibility: inherit; font-family: Roboto, sans-serif; font-size: 12px; font-weight: 200;" x="82.52885682242257" y="0" dx="0em" dy="0.95em" fill="rgb(50, 49, 63)" stroke="none" stroke-width="1px">500</text><text style="text-anchor: middle; visibility: inherit; font-family: Roboto, sans-serif; font-size: 12px; font-weight: 200;" x="123.79328523363385" y="0" dx="0em" dy="0.95em" fill="rgb(50, 49, 63)" stroke="none" stroke-width="1px">1k</text><text style="text-anchor: middle; visibility: inherit; font-family: Roboto, sans-serif; font-size: 12px; font-weight: 200;" x="165.05771364484514" y="0" dx="0em" dy="0.95em" fill="rgb(50, 49, 63)" stroke="none" stroke-width="1px">1.5k</text><text style="text-anchor: middle; visibility: inherit; font-family: Roboto, sans-serif; font-size: 12px; font-weight: 200;" x="206.32214205605644" y="0" dx="0em" dy="0.95em" fill="rgb(50, 49, 63)" stroke="none" stroke-width="1px">2k</text><text style="text-anchor: middle; visibility: inherit; font-family: Roboto, sans-serif; font-size: 12px; font-weight: 200;" x="247.5865704672677" y="0" dx="0em" dy="0.95em" fill="rgb(50, 49, 63)" stroke="none" stroke-width="1px">2.5k</text><text style="text-anchor: middle; visibility: hidden; font-family: Roboto, sans-serif; font-size: 12px; font-weight: 200;" x="288.850998878479" y="0" dx="0em" dy="0.95em" fill="rgb(50, 49, 63)" stroke="none" stroke-width="1px">3k</text></g><line x1="0" y1="0" x2="288.850998878479" y2="0" fill="rgb(0, 0, 0)" stroke="rgb(204, 204, 204)" stroke-width="1px"></line></g></g></g></g></svg>