<svg viewBox="0 0 330 200" xmlns="http://www.w3.org/2000/svg"><g><g><g><g><g><line x1="61.91500186920166" y1="177.86299896240234" x2="56.91500186920166" y2="177.86299896240234" style="visibility: inherit;" fill="rgb(0, 0, 0)" stroke="rgb(204, 204, 204)" stroke-width="1px"></line><line x1="61.91500186920166" y1="155.63012409210205" x2="56.91500186920166" y2="155.63012409210205" style="visibility: inherit;" fill="rgb(0, 0, 0)" stroke="rgb(204, 204, 204)" stroke-width="1px"></line><line x1="61.91500186920166" y1="133.39724922180176" x2="56.91500186920166" y2="133.39724922180176" style="visibility: inherit;" fill="rgb(0, 0, 0)" stroke="rgb(204, 204, 204)" stroke-width="1px"></line><line x1="61.91500186920166" y1="111.16437435150146" x2="56.91500186920166" y2="111.16437435150146" style="visibility: inherit;" fill="rgb(0, 0, 0)" stroke="rgb(204, 204, 204)" stroke-width="1px"></line><line x1="61.91500186920166" y1="88.93149948120119" x2="56.91500186920166" y2="88.93149948120119" style="visibility: inherit;" fill="rgb(0, 0, 0)" stroke="rgb(204, 204, 204)" stroke-width="1px"></line><line x1="61.91500186920166" y1="66.69862461090088" x2="56.91500186920166" y2="66.69862461090088" style="visibility: inherit;" fill="rgb(0, 0, 0)" stroke="rgb(204, 204, 204)" stroke-width="1px"></line><line x1="61.91500186920166" y1="44.46574974060061" x2="56.91500186920166" y2="44.46574974060061" style="visibility: inherit;" fill="rgb(0, 0, 0)" stroke="rgb(204, 204, 204)" stroke-width="1px"></line><line x1="61.91500186920166" y1="22.232874870300293" x2="56.91500186920166" y2="22.232874870300293" style="visibility: inherit;" fill="rgb(0, 0, 0)" stroke="rgb(204, 204, 204)" stroke-width="1px"></line><line x1="61.91500186920166" y1="0" x2="56.91500186920166" y2="0" style="visibility: inherit;" fill="rgb(0, 0, 0)" stroke="rgb(204, 204, 204)" stroke-width="1px"></line></g><g transform="translate(51.91500186920166, 0)"><text style="text-anchor: end; visibility: hidden; font-family: Roboto, sans-serif; font-size: 12px; font-weight: 200;" x="0" y="177.86299896240234" dx="0em" dy="0.3em" fill="rgb(50, 49, 63)" stroke="none" stroke-width="1px">0.01</text><text style="text-anchor: end; visibility: inherit; font-family: Roboto, sans-serif; font-size: 12px; font-weight: 200;" x="0" y="155.63012409210205" dx="0em" dy="0.3em" fill="rgb(50, 49, 63)" stroke="none" stroke-width="1px">0.012</text><text style="text-anchor: end; visibility: hidden; font-family: Roboto, sans-serif; font-size: 12px; font-weight: 200;" x="0" y="133.39724922180176" dx="0em" dy="0.3em" fill="rgb(50, 49, 63)" stroke="none" stroke-width="1px">0.014</text><text style="text-anchor: end; visibility: inherit; font-family: Roboto, sans-serif; font-size: 12px; font-weight: 200;" x="0" y="111.16437435150146" dx="0em" dy="0.3em" fill="rgb(50, 49, 63)" stroke="none" stroke-width="1px">0.016</text><text style="text-anchor: end; visibility: hidden; font-family: Roboto, sans-serif; font-size: 12px; font-weight: 200;" x="0" y="88.93149948120119" dx="0em" dy="0.3em" fill="rgb(50, 49, 63)" stroke="none" stroke-width="1px">0.018</text><text style="text-anchor: end; visibility: inherit; font-family: Roboto, sans-serif; font-size: 12px; font-weight: 200;" x="0" y="66.69862461090088" dx="0em" dy="0.3em" fill="rgb(50, 49, 63)" stroke="none" stroke-width="1px">0.02</text><text style="text-anchor: end; visibility: hidden; font-family: Roboto, sans-serif; font-size: 12px; font-weight: 200;" x="0" y="44.46574974060061" dx="0em" dy="0.3em" fill="rgb(50, 49, 63)" stroke="none" stroke-width="1px">0.022</text><text style="text-anchor: end; visibility: inherit; font-family: Roboto, sans-serif; font-size: 12px; font-weight: 200;" x="0" y="22.232874870300293" dx="0em" dy="0.3em" fill="rgb(50, 49, 63)" stroke="none" stroke-width="1px">0.024</text><text style="text-anchor: end; visibility: hidden; font-family: Roboto, sans-serif; font-size: 12px; font-weight: 200;" x="0" y="0" dx="0em" dy="0.3em" fill="rgb(50, 49, 63)" stroke="none" stroke-width="1px">0.026</text></g><line x1="61.91500186920166" y1="0" x2="61.91500186920166" y2="177.86299896240234" fill="rgb(0, 0, 0)" stroke="rgb(204, 204, 204)" stroke-width="1px"></line></g></g><g transform="translate(61, 0)" clip-path="url(#clip_0)"><clipPath id="clip_0"><rect width="268" height="177"></rect></clipPath><g><g><g><line x1="0" y1="0" x2="0" y2="177.86299896240234" fill="rgb(0, 0, 0)" stroke="rgb(60, 60, 60)" stroke-width="1px" opacity="0.25"></line><line x1="26.808499813079834" y1="0" x2="26.808499813079834" y2="177.86299896240234" fill="rgb(0, 0, 0)" stroke="rgb(60, 60, 60)" stroke-width="1px" opacity="0.25"></line><line x1="53.61699962615967" y1="0" x2="53.61699962615967" y2="177.86299896240234" fill="rgb(0, 0, 0)" stroke="rgb(60, 60, 60)" stroke-width="1px" opacity="0.25"></line><line x1="80.4254994392395" y1="0" x2="80.4254994392395" y2="177.86299896240234" fill="rgb(0, 0, 0)" stroke="rgb(60, 60, 60)" stroke-width="1px" opacity="0.25"></line><line x1="107.23399925231934" y1="0" x2="107.23399925231934" y2="177.86299896240234" fill="rgb(0, 0, 0)" stroke="rgb(60, 60, 60)" stroke-width="1px" opacity="0.25"></line><line x1="134.04249906539917" y1="0" x2="134.04249906539917" y2="177.86299896240234" fill="rgb(0, 0, 0)" stroke="rgb(60, 60, 60)" stroke-width="1px" opacity="0.25"></line><line x1="160.850998878479" y1="0" x2="160.850998878479" y2="177.86299896240234" fill="rgb(0, 0, 0)" stroke="rgb(60, 60, 60)" stroke-width="1px" opacity="0.25"></line><line x1="187.65949869155884" y1="0" x2="187.65949869155884" y2="177.86299896240234" fill="rgb(0, 0, 0)" stroke="rgb(60, 60, 60)" stroke-width="1px" opacity="0.25"></line><line x1="214.46799850463867" y1="0" x2="214.46799850463867" y2="177.86299896240234" fill="rgb(0, 0, 0)" stroke="rgb(60, 60, 60)" stroke-width="1px" opacity="0.25"></line><line x1="241.2764983177185" y1="0" x2="241.2764983177185" y2="177.86299896240234" fill="rgb(0, 0, 0)" stroke="rgb(60, 60, 60)" stroke-width="1px" opacity="0.25"></line><line x1="268.08499813079834" y1="0" x2="268.08499813079834" y2="177.86299896240234" fill="rgb(0, 0, 0)" stroke="rgb(60, 60, 60)" stroke-width="1px" opacity="0.25"></line></g><g><line x1="0" y1="177.86299896240234" x2="268.08499813079834" y2="177.86299896240234" fill="rgb(0, 0, 0)" stroke="rgb(60, 60, 60)" stroke-width="1px" opacity="0.25"></line><line x1="0" y1="155.63012409210205" x2="268.08499813079834" y2="155.63012409210205" fill="rgb(0, 0, 0)" stroke="rgb(60, 60, 60)" stroke-width="1px" opacity="0.25"></line><line x1="0" y1="133.39724922180176" x2="268.08499813079834" y2="133.39724922180176" fill="rgb(0, 0, 0)" stroke="rgb(60, 60, 60)" stroke-width="1px" opacity="0.25"></line><line x1="0" y1="111.16437435150146" x2="268.08499813079834" y2="111.16437435150146" fill="rgb(0, 0, 0)" stroke="rgb(60, 60, 60)" stroke-width="1px" opacity="0.25"></line><line x1="0" y1="88.93149948120119" x2="268.08499813079834" y2="88.93149948120119" fill="rgb(0, 0, 0)" stroke="rgb(60, 60, 60)" stroke-width="1px" opacity="0.25"></line><line x1="0" y1="66.69862461090088" x2="268.08499813079834" y2="66.69862461090088" fill="rgb(0, 0, 0)" stroke="rgb(60, 60, 60)" stroke-width="1px" opacity="0.25"></line><line x1="0" y1="44.46574974060061" x2="268.08499813079834" y2="44.46574974060061" fill="rgb(0, 0, 0)" stroke="rgb(60, 60, 60)" stroke-width="1px" opacity="0.25"></line><line x1="0" y1="22.232874870300293" x2="268.08499813079834" y2="22.232874870300293" fill="rgb(0, 0, 0)" stroke="rgb(60, 60, 60)" stroke-width="1px" opacity="0.25"></line><line x1="0" y1="0" x2="268.08499813079834" y2="0" fill="rgb(0, 0, 0)" stroke="rgb(60, 60, 60)" stroke-width="1px" opacity="0.25"></line></g></g></g><g><g><line x1="0" y1="289.0273733139038" x2="268.08499813079834" y2="289.0273733139038" fill="rgb(0, 0, 0)" stroke="rgb(153, 153, 153)" stroke-width="1.5px"></line></g></g><g><g><line x1="26.808499813079834" y1="0" x2="26.808499813079834" y2="177.86299896240234" fill="rgb(0, 0, 0)" stroke="rgb(153, 153, 153)" stroke-width="1.5px"></line></g></g><g><g><g><g><g><path style="fill: none;" stroke="rgb(255, 112, 67)" stroke-width="2px" d="M27.076584811210633,-76.25143775658292L30.159562289714813,25.317581581839278L33.51062476634979,96.7643233600497L36.86168724298477,113.5784010532084L40.21274971961975,103.48085378045974L43.56381219625473,79.01992639553612L46.91487467288971,80.18505116851826L50.26593714952469,88.13167686166022L53.61699962615967,72.15079521516073L56.96806210279465,59.17653053275015L60.31912457942963,26.29154150891585L63.670187056064606,-8.406857918151037L67.02124953269958,19.218309734388022L70.37231200933456,90.10601934695752L73.72337448596954,119.21291932821246L77.07443696260452,138.9301557750891L80.4254994392395,99.25969893238968L83.77656191587448,138.80246938409925L87.12762439250946,113.25753420912832L90.47868686914444,115.73715396373926L93.82974934577942,138.08799579866533L97.1808118224144,133.90538480271934L100.53187429904938,154.27599162543294L103.88293677568436,143.46805383683414L107.23399925231934,132.589788771613L110.58506172895432,143.84905909431822L113.9361242055893,137.81555444228076L117.28718668222427,134.36038962359075L120.63824915885925,133.772287365868L123.98931163549423,152.51973282034984L127.34037411212921,143.93660727285268L130.6914365887642,165.03174743987785L134.04249906539917,163.10333646883458L137.39356154203415,151.85644046964873L140.74462401866913,137.5031793111934L144.0956864953041,113.0361249819548L147.4467489719391,104.74442393271607L150.79781144857407,126.5569055358049L154.14887392520905,112.31242443709148L157.49993640184402,137.74875591274886L160.850998878479,129.43891881086L164.20206135511398,113.0250020131649L167.55312383174896,122.23254595105759L170.90418630838394,105.56108356679013L174.25524878501892,120.29388250549259L177.6063112616539,120.45458067756965L180.95737373828888,102.87498095020992L184.30843621492386,107.58247483709025L187.65949869155884,121.69038343527681L191.01056116819382,146.03095705042486L194.3616236448288,155.55578517289882L197.71268612146378,170.28517462603256L201.06374859809875,156.1089002831522L204.41481107473373,171.64103714130135L207.7658735513687,154.49476193538797L211.1169360280037,164.04680259436591L214.46799850463867,122.30724032336475L217.81906098127365,148.18721856267533L221.17012345790863,145.26766141991033L224.5211859345436,147.0946366053454L227.8722484111786,150.95839933633067L231.22331088781357,144.57067933022782L234.57437336444855,150.47785790126449L237.92543584108353,165.24202238020666L241.2764983177185,189.15547965085625L244.62756079435349,164.43530095067936L247.97862327098846,152.22886085765833L251.32968574762344,117.20897844025158L254.68074822425842,120.13183882309472L258.0318107008934,100.34305940676579L261.3828731775284,102.55919951477381" fill="none"></path></g></g></g></g><g opacity="0.2"><g><g><g><path style="fill: none;" stroke="rgb(255, 112, 67)" stroke-width="2px" d="M27.076584811210633,-65.20826660339849L30.159562289714813,122.82384014672463L33.51062476634979,180.78569169122503L36.86168724298477,135.53086088939645L40.21274971961975,89.51231078523013L43.56381219625473,44.04040886025716L46.91487467288971,81.88381427272394L50.26593714952469,99.85140620647002L53.61699962615967,48.421048445979594L56.96806210279465,39.832809134897936L60.31912457942963,-22.856983368768933L63.670187056064606,-60.341160764310814L67.02124953269958,60.60194063391898L70.37231200933456,196.35425792418468L73.72337448596954,162.8527408591168L77.07443696260452,168.4976667717409L80.4254994392395,39.764085993035366L83.77656191587448,198.11060111858325L87.12762439250946,74.94246635493039L90.47868686914444,119.45644760741524L93.82974934577942,171.6135230870833L97.1808118224144,127.63155088715826L100.53187429904938,184.83166055024523L103.88293677568436,127.25622397213209L107.23399925231934,116.27243756461257L110.58506172895432,160.7379357689892L113.9361242055893,128.7653067270754L117.28718668222427,129.17764557825083L120.63824915885925,132.89013430431905L123.98931163549423,180.64089478521572L127.34037411212921,131.0619206593616L130.6914365887642,196.67445517207946L134.04249906539917,160.21072015039783L137.39356154203415,134.98609695422525L140.74462401866913,115.97328794362448L144.0956864953041,76.3355438666423L147.4467489719391,92.30687243582967L150.79781144857407,159.2756278189472L154.14887392520905,90.9457028366246L157.49993640184402,175.9032530752319L160.850998878479,116.97416316802399L164.20206135511398,88.40412682847064L167.55312383174896,136.0438618539087L170.90418630838394,80.55388999472123L174.25524878501892,142.39308091124911L177.6063112616539,120.69562793567022L180.95737373828888,76.50558136015704L184.30843621492386,114.64371566725228L187.65949869155884,142.85224633227153L191.01056116819382,182.5418174728518L194.3616236448288,169.84302735654043L197.71268612146378,192.37925880566885L201.06374859809875,134.84448876886876L204.41481107473373,194.93924242850068L207.7658735513687,128.77534912653408L211.1169360280037,178.37486358282737L214.46799850463867,59.6978969168772L217.81906098127365,187.00718592163588L221.17012345790863,140.88832570576324L224.5211859345436,149.83509938349792L227.8722484111786,156.7540434328084L231.22331088781357,134.9890993210737L234.57437336444855,159.33862575781941L237.92543584108353,187.38826909861982L241.2764983177185,225.02566555683043L244.62756079435349,127.35503290041416L247.97862327098846,133.91920071812677L251.32968574762344,64.67915481414153L254.68074822425842,124.51612939735944L258.0318107008934,70.65989028227247L261.3828731775284,105.88340967678587" fill="none"></path></g></g></g></g></g></g><g transform="translate(61, 177)" clip-path="url(#clip_1)"><clipPath id="clip_1"><rect width="268" height="22"></rect></clipPath><g><g><line x1="0" y1="0" x2="0" y2="5" style="visibility: inherit;" fill="rgb(0, 0, 0)" stroke="rgb(204, 204, 204)" stroke-width="1px"></line><line x1="26.808499813079834" y1="0" x2="26.808499813079834" y2="5" style="visibility: inherit;" fill="rgb(0, 0, 0)" stroke="rgb(204, 204, 204)" stroke-width="1px"></line><line x1="53.61699962615967" y1="0" x2="53.61699962615967" y2="5" style="visibility: inherit;" fill="rgb(0, 0, 0)" stroke="rgb(204, 204, 204)" stroke-width="1px"></line><line x1="80.4254994392395" y1="0" x2="80.4254994392395" y2="5" style="visibility: inherit;" fill="rgb(0, 0, 0)" stroke="rgb(204, 204, 204)" stroke-width="1px"></line><line x1="107.23399925231934" y1="0" x2="107.23399925231934" y2="5" style="visibility: inherit;" fill="rgb(0, 0, 0)" stroke="rgb(204, 204, 204)" stroke-width="1px"></line><line x1="134.04249906539917" y1="0" x2="134.04249906539917" y2="5" style="visibility: inherit;" fill="rgb(0, 0, 0)" stroke="rgb(204, 204, 204)" stroke-width="1px"></line><line x1="160.850998878479" y1="0" x2="160.850998878479" y2="5" style="visibility: inherit;" fill="rgb(0, 0, 0)" stroke="rgb(204, 204, 204)" stroke-width="1px"></line><line x1="187.65949869155884" y1="0" x2="187.65949869155884" y2="5" style="visibility: inherit;" fill="rgb(0, 0, 0)" stroke="rgb(204, 204, 204)" stroke-width="1px"></line><line x1="214.46799850463867" y1="0" x2="214.46799850463867" y2="5" style="visibility: inherit;" fill="rgb(0, 0, 0)" stroke="rgb(204, 204, 204)" stroke-width="1px"></line><line x1="241.2764983177185" y1="0" x2="241.2764983177185" y2="5" style="visibility: inherit;" fill="rgb(0, 0, 0)" stroke="rgb(204, 204, 204)" stroke-width="1px"></line><line x1="268.08499813079834" y1="0" x2="268.08499813079834" y2="5" style="visibility: inherit;" fill="rgb(0, 0, 0)" stroke="rgb(204, 204, 204)" stroke-width="1px"></line></g><g transform="translate(0, 8)"><text style="text-anchor: middle; visibility: hidden; font-family: Roboto, sans-serif; font-size: 12px; font-weight: 200;" x="0" y="0" dx="0em" dy="0.95em" fill="rgb(50, 49, 63)" stroke="none" stroke-width="1px">-200</text><text style="text-anchor: middle; visibility: inherit; font-family: Roboto, sans-serif; font-size: 12px; font-weight: 200;" x="26.808499813079834" y="0" dx="0em" dy="0.95em" fill="rgb(50, 49, 63)" stroke="none" stroke-width="1px">0</text><text style="text-anchor: middle; visibility: hidden; font-family: Roboto, sans-serif; font-size: 12px; font-weight: 200;" x="53.61699962615967" y="0" dx="0em" dy="0.95em" fill="rgb(50, 49, 63)" stroke="none" stroke-width="1px">200</text><text style="text-anchor: middle; visibility: inherit; font-family: Roboto, sans-serif; font-size: 12px; font-weight: 200;" x="80.4254994392395" y="0" dx="0em" dy="0.95em" fill="rgb(50, 49, 63)" stroke="none" stroke-width="1px">400</text><text style="text-anchor: middle; visibility: hidden; font-family: Roboto, sans-serif; font-size: 12px; font-weight: 200;" x="107.23399925231934" y="0" dx="0em" dy="0.95em" fill="rgb(50, 49, 63)" stroke="none" stroke-width="1px">600</text><text style="text-anchor: middle; visibility: inherit; font-family: Roboto, sans-serif; font-size: 12px; font-weight: 200;" x="134.04249906539917" y="0" dx="0em" dy="0.95em" fill="rgb(50, 49, 63)" stroke="none" stroke-width="1px">800</text><text style="text-anchor: middle; visibility: hidden; font-family: Roboto, sans-serif; font-size: 12px; font-weight: 200;" x="160.850998878479" y="0" dx="0em" dy="0.95em" fill="rgb(50, 49, 63)" stroke="none" stroke-width="1px">1k</text><text style="text-anchor: middle; visibility: inherit; font-family: Roboto, sans-serif; font-size: 12px; font-weight: 200;" x="187.65949869155884" y="0" dx="0em" dy="0.95em" fill="rgb(50, 49, 63)" stroke="none" stroke-width="1px">1.2k</text><text style="text-anchor: middle; visibility: hidden; font-family: Roboto, sans-serif; font-size: 12px; font-weight: 200;" x="214.46799850463867" y="0" dx="0em" dy="0.95em" fill="rgb(50, 49, 63)" stroke="none" stroke-width="1px">1.4k</text><text style="text-anchor: middle; visibility: inherit; font-family: Roboto, sans-serif; font-size: 12px; font-weight: 200;" x="241.2764983177185" y="0" dx="0em" dy="0.95em" fill="rgb(50, 49, 63)" stroke="none" stroke-width="1px">1.6k</text><text style="text-anchor: middle; visibility: hidden; font-family: Roboto, sans-serif; font-size: 12px; font-weight: 200;" x="268.08499813079834" y="0" dx="0em" dy="0.95em" fill="rgb(50, 49, 63)" stroke="none" stroke-width="1px">1.8k</text></g><line x1="0" y1="0" x2="268.08499813079834" y2="0" fill="rgb(0, 0, 0)" stroke="rgb(204, 204, 204)" stroke-width="1px"></line></g></g></g></g></svg>