<svg viewBox="0 0 330 200" xmlns="http://www.w3.org/2000/svg"><g><g><g><g><g><line x1="41.149001121520996" y1="177.86299896240234" x2="36.149001121520996" y2="177.86299896240234" style="visibility: inherit;" fill="rgb(0, 0, 0)" stroke="rgb(204, 204, 204)" stroke-width="1px"></line><line x1="41.149001121520996" y1="165.15849903651647" x2="36.149001121520996" y2="165.15849903651647" style="visibility: inherit;" fill="rgb(0, 0, 0)" stroke="rgb(204, 204, 204)" stroke-width="1px"></line><line x1="41.149001121520996" y1="152.4539991106306" x2="36.149001121520996" y2="152.4539991106306" style="visibility: inherit;" fill="rgb(0, 0, 0)" stroke="rgb(204, 204, 204)" stroke-width="1px"></line><line x1="41.149001121520996" y1="139.7494991847447" x2="36.149001121520996" y2="139.7494991847447" style="visibility: inherit;" fill="rgb(0, 0, 0)" stroke="rgb(204, 204, 204)" stroke-width="1px"></line><line x1="41.149001121520996" y1="127.04499925885884" x2="36.149001121520996" y2="127.04499925885884" style="visibility: inherit;" fill="rgb(0, 0, 0)" stroke="rgb(204, 204, 204)" stroke-width="1px"></line><line x1="41.149001121520996" y1="114.34049933297294" x2="36.149001121520996" y2="114.34049933297294" style="visibility: inherit;" fill="rgb(0, 0, 0)" stroke="rgb(204, 204, 204)" stroke-width="1px"></line><line x1="41.149001121520996" y1="101.63599940708708" x2="36.149001121520996" y2="101.63599940708708" style="visibility: inherit;" fill="rgb(0, 0, 0)" stroke="rgb(204, 204, 204)" stroke-width="1px"></line><line x1="41.149001121520996" y1="88.93149948120117" x2="36.149001121520996" y2="88.93149948120117" style="visibility: inherit;" fill="rgb(0, 0, 0)" stroke="rgb(204, 204, 204)" stroke-width="1px"></line><line x1="41.149001121520996" y1="76.2269995553153" x2="36.149001121520996" y2="76.2269995553153" style="visibility: inherit;" fill="rgb(0, 0, 0)" stroke="rgb(204, 204, 204)" stroke-width="1px"></line><line x1="41.149001121520996" y1="63.52249962942944" x2="36.149001121520996" y2="63.52249962942944" style="visibility: inherit;" fill="rgb(0, 0, 0)" stroke="rgb(204, 204, 204)" stroke-width="1px"></line><line x1="41.149001121520996" y1="50.81799970354354" x2="36.149001121520996" y2="50.81799970354354" style="visibility: inherit;" fill="rgb(0, 0, 0)" stroke="rgb(204, 204, 204)" stroke-width="1px"></line><line x1="41.149001121520996" y1="38.113499777657665" x2="36.149001121520996" y2="38.113499777657665" style="visibility: inherit;" fill="rgb(0, 0, 0)" stroke="rgb(204, 204, 204)" stroke-width="1px"></line><line x1="41.149001121520996" y1="25.408999851771792" x2="36.149001121520996" y2="25.408999851771792" style="visibility: inherit;" fill="rgb(0, 0, 0)" stroke="rgb(204, 204, 204)" stroke-width="1px"></line><line x1="41.149001121520996" y1="12.704499925885896" x2="36.149001121520996" y2="12.704499925885896" style="visibility: inherit;" fill="rgb(0, 0, 0)" stroke="rgb(204, 204, 204)" stroke-width="1px"></line><line x1="41.149001121520996" y1="0" x2="36.149001121520996" y2="0" style="visibility: inherit;" fill="rgb(0, 0, 0)" stroke="rgb(204, 204, 204)" stroke-width="1px"></line></g><g transform="translate(31.149001121520996, 0)"><text style="text-anchor: end; visibility: hidden; font-family: Roboto, sans-serif; font-size: 12px; font-weight: 200;" x="0" y="177.86299896240234" dx="0em" dy="0.3em" fill="rgb(50, 49, 63)" stroke="none" stroke-width="1px">0.8</text><text style="text-anchor: end; visibility: inherit; font-family: Roboto, sans-serif; font-size: 12px; font-weight: 200;" x="0" y="165.15849903651647" dx="0em" dy="0.3em" fill="rgb(50, 49, 63)" stroke="none" stroke-width="1px">0.9</text><text style="text-anchor: end; visibility: hidden; font-family: Roboto, sans-serif; font-size: 12px; font-weight: 200;" x="0" y="152.4539991106306" dx="0em" dy="0.3em" fill="rgb(50, 49, 63)" stroke="none" stroke-width="1px">1</text><text style="text-anchor: end; visibility: inherit; font-family: Roboto, sans-serif; font-size: 12px; font-weight: 200;" x="0" y="139.7494991847447" dx="0em" dy="0.3em" fill="rgb(50, 49, 63)" stroke="none" stroke-width="1px">1.1</text><text style="text-anchor: end; visibility: hidden; font-family: Roboto, sans-serif; font-size: 12px; font-weight: 200;" x="0" y="127.04499925885884" dx="0em" dy="0.3em" fill="rgb(50, 49, 63)" stroke="none" stroke-width="1px">1.2</text><text style="text-anchor: end; visibility: inherit; font-family: Roboto, sans-serif; font-size: 12px; font-weight: 200;" x="0" y="114.34049933297294" dx="0em" dy="0.3em" fill="rgb(50, 49, 63)" stroke="none" stroke-width="1px">1.3</text><text style="text-anchor: end; visibility: hidden; font-family: Roboto, sans-serif; font-size: 12px; font-weight: 200;" x="0" y="101.63599940708708" dx="0em" dy="0.3em" fill="rgb(50, 49, 63)" stroke="none" stroke-width="1px">1.4</text><text style="text-anchor: end; visibility: inherit; font-family: Roboto, sans-serif; font-size: 12px; font-weight: 200;" x="0" y="88.93149948120117" dx="0em" dy="0.3em" fill="rgb(50, 49, 63)" stroke="none" stroke-width="1px">1.5</text><text style="text-anchor: end; visibility: hidden; font-family: Roboto, sans-serif; font-size: 12px; font-weight: 200;" x="0" y="76.2269995553153" dx="0em" dy="0.3em" fill="rgb(50, 49, 63)" stroke="none" stroke-width="1px">1.6</text><text style="text-anchor: end; visibility: inherit; font-family: Roboto, sans-serif; font-size: 12px; font-weight: 200;" x="0" y="63.52249962942944" dx="0em" dy="0.3em" fill="rgb(50, 49, 63)" stroke="none" stroke-width="1px">1.7</text><text style="text-anchor: end; visibility: hidden; font-family: Roboto, sans-serif; font-size: 12px; font-weight: 200;" x="0" y="50.81799970354354" dx="0em" dy="0.3em" fill="rgb(50, 49, 63)" stroke="none" stroke-width="1px">1.8</text><text style="text-anchor: end; visibility: inherit; font-family: Roboto, sans-serif; font-size: 12px; font-weight: 200;" x="0" y="38.113499777657665" dx="0em" dy="0.3em" fill="rgb(50, 49, 63)" stroke="none" stroke-width="1px">1.9</text><text style="text-anchor: end; visibility: hidden; font-family: Roboto, sans-serif; font-size: 12px; font-weight: 200;" x="0" y="25.408999851771792" dx="0em" dy="0.3em" fill="rgb(50, 49, 63)" stroke="none" stroke-width="1px">2</text><text style="text-anchor: end; visibility: inherit; font-family: Roboto, sans-serif; font-size: 12px; font-weight: 200;" x="0" y="12.704499925885896" dx="0em" dy="0.3em" fill="rgb(50, 49, 63)" stroke="none" stroke-width="1px">2.1</text><text style="text-anchor: end; visibility: hidden; font-family: Roboto, sans-serif; font-size: 12px; font-weight: 200;" x="0" y="0" dx="0em" dy="0.3em" fill="rgb(50, 49, 63)" stroke="none" stroke-width="1px">2.2</text></g><line x1="41.149001121520996" y1="0" x2="41.149001121520996" y2="177.86299896240234" fill="rgb(0, 0, 0)" stroke="rgb(204, 204, 204)" stroke-width="1px"></line></g></g><g transform="translate(41, 0)" clip-path="url(#clip_0)"><clipPath id="clip_0"><rect width="288" height="177"></rect></clipPath><g><g><g><line x1="0" y1="0" x2="0" y2="177.86299896240234" fill="rgb(0, 0, 0)" stroke="rgb(60, 60, 60)" stroke-width="1px" opacity="0.25"></line><line x1="41.264428411211284" y1="0" x2="41.264428411211284" y2="177.86299896240234" fill="rgb(0, 0, 0)" stroke="rgb(60, 60, 60)" stroke-width="1px" opacity="0.25"></line><line x1="82.52885682242257" y1="0" x2="82.52885682242257" y2="177.86299896240234" fill="rgb(0, 0, 0)" stroke="rgb(60, 60, 60)" stroke-width="1px" opacity="0.25"></line><line x1="123.79328523363385" y1="0" x2="123.79328523363385" y2="177.86299896240234" fill="rgb(0, 0, 0)" stroke="rgb(60, 60, 60)" stroke-width="1px" opacity="0.25"></line><line x1="165.05771364484514" y1="0" x2="165.05771364484514" y2="177.86299896240234" fill="rgb(0, 0, 0)" stroke="rgb(60, 60, 60)" stroke-width="1px" opacity="0.25"></line><line x1="206.32214205605644" y1="0" x2="206.32214205605644" y2="177.86299896240234" fill="rgb(0, 0, 0)" stroke="rgb(60, 60, 60)" stroke-width="1px" opacity="0.25"></line><line x1="247.5865704672677" y1="0" x2="247.5865704672677" y2="177.86299896240234" fill="rgb(0, 0, 0)" stroke="rgb(60, 60, 60)" stroke-width="1px" opacity="0.25"></line><line x1="288.850998878479" y1="0" x2="288.850998878479" y2="177.86299896240234" fill="rgb(0, 0, 0)" stroke="rgb(60, 60, 60)" stroke-width="1px" opacity="0.25"></line></g><g><line x1="0" y1="177.86299896240234" x2="288.850998878479" y2="177.86299896240234" fill="rgb(0, 0, 0)" stroke="rgb(60, 60, 60)" stroke-width="1px" opacity="0.25"></line><line x1="0" y1="165.15849903651647" x2="288.850998878479" y2="165.15849903651647" fill="rgb(0, 0, 0)" stroke="rgb(60, 60, 60)" stroke-width="1px" opacity="0.25"></line><line x1="0" y1="152.4539991106306" x2="288.850998878479" y2="152.4539991106306" fill="rgb(0, 0, 0)" stroke="rgb(60, 60, 60)" stroke-width="1px" opacity="0.25"></line><line x1="0" y1="139.7494991847447" x2="288.850998878479" y2="139.7494991847447" fill="rgb(0, 0, 0)" stroke="rgb(60, 60, 60)" stroke-width="1px" opacity="0.25"></line><line x1="0" y1="127.04499925885884" x2="288.850998878479" y2="127.04499925885884" fill="rgb(0, 0, 0)" stroke="rgb(60, 60, 60)" stroke-width="1px" opacity="0.25"></line><line x1="0" y1="114.34049933297294" x2="288.850998878479" y2="114.34049933297294" fill="rgb(0, 0, 0)" stroke="rgb(60, 60, 60)" stroke-width="1px" opacity="0.25"></line><line x1="0" y1="101.63599940708708" x2="288.850998878479" y2="101.63599940708708" fill="rgb(0, 0, 0)" stroke="rgb(60, 60, 60)" stroke-width="1px" opacity="0.25"></line><line x1="0" y1="88.93149948120117" x2="288.850998878479" y2="88.93149948120117" fill="rgb(0, 0, 0)" stroke="rgb(60, 60, 60)" stroke-width="1px" opacity="0.25"></line><line x1="0" y1="76.2269995553153" x2="288.850998878479" y2="76.2269995553153" fill="rgb(0, 0, 0)" stroke="rgb(60, 60, 60)" stroke-width="1px" opacity="0.25"></line><line x1="0" y1="63.52249962942944" x2="288.850998878479" y2="63.52249962942944" fill="rgb(0, 0, 0)" stroke="rgb(60, 60, 60)" stroke-width="1px" opacity="0.25"></line><line x1="0" y1="50.81799970354354" x2="288.850998878479" y2="50.81799970354354" fill="rgb(0, 0, 0)" stroke="rgb(60, 60, 60)" stroke-width="1px" opacity="0.25"></line><line x1="0" y1="38.113499777657665" x2="288.850998878479" y2="38.113499777657665" fill="rgb(0, 0, 0)" stroke="rgb(60, 60, 60)" stroke-width="1px" opacity="0.25"></line><line x1="0" y1="25.408999851771792" x2="288.850998878479" y2="25.408999851771792" fill="rgb(0, 0, 0)" stroke="rgb(60, 60, 60)" stroke-width="1px" opacity="0.25"></line><line x1="0" y1="12.704499925885896" x2="288.850998878479" y2="12.704499925885896" fill="rgb(0, 0, 0)" stroke="rgb(60, 60, 60)" stroke-width="1px" opacity="0.25"></line><line x1="0" y1="0" x2="288.850998878479" y2="0" fill="rgb(0, 0, 0)" stroke="rgb(60, 60, 60)" stroke-width="1px" opacity="0.25"></line></g></g></g><g><g><line x1="0" y1="279.4989983694894" x2="288.850998878479" y2="279.4989983694894" fill="rgb(0, 0, 0)" stroke="rgb(153, 153, 153)" stroke-width="1.5px"></line></g></g><g><g><line x1="41.264428411211284" y1="0" x2="41.264428411211284" y2="177.86299896240234" fill="rgb(0, 0, 0)" stroke="rgb(153, 153, 153)" stroke-width="1.5px"></line></g></g><g><g><g><g><g><path style="fill: none;" stroke="rgb(255, 112, 67)" stroke-width="2px" d="M42.91500554765974,192.56196518124372L43.16259211812701,152.72348323970215L43.32764983177185,170.39561779931537L43.41017868859427,143.1458193564981L43.57523640223912,181.9775352441718L43.74029411588397,149.11715274171323L43.987880686351225,134.79366092467978L44.152938399996074,137.28972301495028L44.730640397753035,142.76855601783777L45.060755825042726,152.74890227392356L45.14328468186515,139.43719167491207L45.225813538687575,103.04441974690995L45.47340010915484,145.33662658230227L46.21615982055664,131.6661955649234L46.29868867737906,132.0206955583666L46.38121753420148,112.53866098573253L46.62880410466875,119.72249161158021L46.87639067513602,90.92439385967054L47.20650610242571,91.7222776324127L47.5366215297154,119.8411030812993L47.619150386537825,112.114633674865L47.701679243360246,93.86582496337411L47.86673695700509,131.55623308093575L48.03179467064994,136.87117870217466L48.11432352747236,153.9108183849799L48.27938124111721,177.37313296106865L48.36191009793963,156.5592492596006L48.52696781158448,118.43960325050737L48.69202552522932,112.94827742837211L49.26972752298627,145.0989283834525L49.51731409345354,134.4224470723527L49.59984295027596,139.2401191726975L49.76490066392081,117.81166162005036L50.0950160912105,115.08293820294962L50.507660375322615,149.70330016143083L50.59018923214504,132.3871096019725L51.58053551401411,130.3293135901236L51.66306437083653,139.30799252325122L51.99317979812622,136.9114982624128L52.24076636859349,130.62369384968434L52.40582408223834,121.39479671212221L52.570881795883174,119.33710020765932L53.313641507284984,122.50706216668532L53.80881464821952,123.9605975471361L54.221458932331636,141.27131977157114L54.30398778915405,121.20588669441419L54.55157435962132,149.82050925996523L54.71663207326616,155.17596590608423L54.88168978691101,120.64740916025586L55.37686292784555,150.7744604247477L55.45939178466797,152.7585792476172L56.20215149606977,143.7226330072744L56.367209209714616,174.3079124030276L56.53226692335946,159.07844688778536L56.77985349382673,154.04828844849186L57.52261320522854,183.09147060028297L57.7701997756958,151.18970326728683L57.85272863251822,145.492234239517L58.017786346163064,121.02427965282342L58.265372916630334,121.44167735806911L58.843074914387294,145.50354231735616L59.00813262803214,118.72624632621279L59.090661484854564,121.67280126807793L59.42077691214425,75.8442640535446L59.50330576896667,122.73034126328727L59.5858346257891,116.04450622844068L59.66836348261152,153.22693512285497L59.91595005307879,121.66802230335027L59.99847890990121,116.74537057720781L60.3285943371909,150.14687861313323L60.41112319401332,137.0374272309254L60.49365205083575,87.8528110306889L60.90629633494786,106.0438051995785L61.07135404859271,94.67728109667863L61.153882905415124,142.47834055636147L61.483998332704815,89.41607293310358L61.896642616816926,123.88477396093194L61.979171473639354,126.49962710546977L62.144229187284196,149.17967025865457L62.309286900929045,132.6276909859334L62.391815757751466,158.8763421717671L62.47434461457389,119.8421476102768L62.72193118504115,147.6556319015371L62.886988898686,130.69320752252978L63.13457546915327,141.63287550147456L63.29963318279811,135.89933909818822L63.54721975326538,140.99523488325022L63.6297486100878,148.96724007783618L63.95986403737749,136.715404009974L64.04239289419992,98.20089619400443L64.12492175102234,103.74384504811997L64.20745060784476,96.64042419892817L64.45503717831203,100.89562170171494L64.53756603513445,102.27876903954842L64.95021031924657,153.1696416583054L65.61044117382595,124.26218454913979L65.77549888747079,149.8963537308934L65.85802774429321,138.95923749572543L66.02308545793805,164.1830310457571L66.18814317158291,116.95714565835758L66.27067202840533,98.5697163511925L66.51825859887259,138.26431005211188L66.60078745569501,101.11660828194435L66.68331631251743,116.41315259349251L66.84837402616229,132.13066604393623L67.34354716709682,155.30118233220617L67.42607602391924,128.1713798596048L67.50860488074166,139.68132065599318L67.92124916485378,141.65620037760803L68.08630687849862,166.3392904649201L68.16883573532104,143.35287073882336L68.3338934489659,135.75809982681037L69.15918201719012,131.67249947625524L69.32423973083496,108.63017019163127L69.57182630130222,123.08776793520799L69.8194128717695,97.11874552682588L69.98447058541434,119.88301899749166L70.2320571558816,101.24857307481139L70.39711486952646,113.5632447579657L70.56217258317129,133.59765203511782L70.72723029681615,106.61468585299657L70.97481686728341,107.17278507219638L71.05734572410583,140.10006712471616L71.22240343775069,138.88317254492094L71.80010543550765,178.68738219377485L72.87298057419913,185.69394942381055L73.12056714466641,138.6918542259855L73.20309600148883,114.13399207814913L73.53321142877851,105.81689033113717L73.94585571289063,77.34066779555594L74.11091342653546,120.82511484813612L74.2759711401803,110.57430234181048L74.52355771064758,149.77860005833932L74.77114428111484,154.10470457412578L75.26631742204938,134.0685079478801L75.3488462788718,163.7506925612339L75.51390399251666,134.64012141142345L75.59643284933908,73.61977278984773L76.0916059902736,82.6974913052736L76.17413484709604,85.6359742796705L76.4217214175633,74.82056401537903L76.751836844853,64.5310212650422L76.83436570167542,76.08359245414125L76.91689455849784,45.566359102562686L76.99942341532027,48.48871579540065L77.41206769943238,103.82716532399589L77.65965426989963,77.06315643127891L77.74218312672205,117.98589190310332L77.82471198354447,69.89359504080375L78.2373562676566,69.3274095489019L78.65000055176871,49.60889415757841L78.81505826541355,99.1367141855781L78.89758712223598,114.60182600449805L78.9801159790584,137.34448185207015L79.06264483588082,130.4613641225396L79.22770254952567,84.07582726318428L79.88793340410506,117.65985841411366L80.21804883139474,127.15838962694752L80.30057768821717,165.30073500230387L81.12586625644138,177.6675423738523L81.5385105405535,160.2212763501844L81.70356825419834,166.69821935801403L81.78609711102077,147.29480513652769L81.86862596784319,155.9784165471369L81.95115482466561,145.5023711046017L82.2812702519553,158.52348829122266L82.69391453606742,121.5186039270459L82.77644339288985,83.992030981456L83.02402996335711,91.42316052262882L83.43667424746923,116.51046371064015L83.51920310429165,147.3471486863116L83.84931853158133,100.8250388345095L83.93184738840377,115.07881093217665L84.01437624522619,122.88084212375387L84.17943395887103,132.0181335101059L84.42702052933828,136.5097866784996L84.75713595662798,125.85847832842406L84.8396648134504,158.350368459143L85.1697802407401,155.01989696094068L85.25230909756252,160.32191632286504L85.66495338167464,137.76392287197828L85.83001109531948,141.69680251727323L86.2426553794316,115.97441147069875L86.32518423625402,138.8686352169893L86.40771309307644,165.34902201340583L86.6552996635437,183.45057559926846L86.73782852036612,172.20214898660913L86.82035737718854,140.878167644817L87.06794394765582,156.41842120850916L87.15047280447824,174.69729415639713L87.23300166130066,158.30881426267464L87.31553051812308,126.3707414221211L87.72817480223519,135.02667626348395L87.89323251588003,155.19668468082156L87.97576137270245,133.21965161306554L88.05829022952489,60.304074263150355L88.1408190863473,98.26087740192062L88.38840565681457,103.43803661638391L88.55346337045941,92.45513603785037L88.80104994092669,28.494384645219352L88.88357879774911,57.57686490438174L89.29622308186123,71.06081906997997L89.37875193868365,69.22776378699626L89.62633850915091,111.47693155653347L89.79139622279575,151.05949923646466L90.20404050690787,170.81888926237974L90.36909822055271,168.40280333338123L90.61668479101999,172.08491612852654L90.78174250466483,145.7187759685068L90.86427136148725,111.34904334951891L90.94680021830968,118.76524476656132L91.02932907513211,91.37531951341926L91.19438678877695,85.99599225081249L91.27691564559936,123.19561301337515L91.4419733592442,129.5287580707923L91.60703107288904,104.61881074428067L91.68955992971148,97.96436605579227L91.7720887865339,88.59269973565706L92.01967535700116,41.31151994072051L92.26726192746844,81.75107892433444L92.67990621158054,126.94592974637224L93.01002163887024,149.33124165810776L93.09255049569266,154.25379323705283L93.2576082093375,130.57401916734693L93.50519477980478,135.54586944451026L93.83531020709447,92.161794254078L93.91783906391689,8.970156149905552L94.08289677756174,64.6104479671213L94.16542563438416,43.21291887325559L94.24795449120658,79.15209242490656L94.330483348029,75.87121839420428L94.6605987753187,124.0319137374942L94.74312763214111,143.4979377294201L94.90818534578595,141.23190585554644L94.99071420260837,142.5257839236226L95.32082962989807,103.29611694567917L95.98106048447745,144.32518750174918L96.31117591176714,80.30288255738307L96.39370476858957,97.52158027036582L96.64129133905683,142.00387242844374L96.72382019587926,120.18855341973646L96.80634905270168,147.5677521796762L96.97140676634652,126.45807009996439L97.05393562316895,118.92791745531613L97.2189933368138,112.88004112269839L97.38405105045864,82.99096969952613L97.46657990728106,84.44260700664125L97.63163762092591,110.96010437205481L97.79669533457076,121.23215221784979L98.044281905038,91.23233186089254L98.29186847550528,80.44096657529079L98.62198390279497,123.09069397971619L98.70451275961739,156.80729834087518L99.28221475737435,151.38526047767215L99.4472724710192,93.98050258371026L99.52980132784162,136.82436034443106L99.94244561195373,88.3597379119769L100.27256103924343,107.41394730598125L100.43761875288827,134.050164283186L100.76773418017797,98.83471685844547L101.18037846429009,84.59043086232053L101.59302274840218,117.08319867753464L101.6755516052246,130.75986288557368L101.75808046204703,81.03570508659485L102.0056670325143,104.86964004030672L102.17072474615914,80.67761713927189L102.33578245980398,63.008056846799114L102.41831131662641,83.42394161463581L102.58336903027126,122.75567060662384L102.83095560073852,124.27186197678583L102.91348445756094,138.1522824362496L102.99601331438338,155.00148311957958L103.16107102802822,124.55294923734824L103.32612874167306,68.76854836442797L103.40865759849548,91.0720602119162L103.57371531214034,123.93662038504107L103.73877302578518,140.48003116049316L104.06888845307486,97.18857052938806L104.23394616671972,102.38811978730635L104.5640615940094,116.64430839331114L104.64659045083182,105.92485041685866L104.8941770212991,137.42918272173966L105.05923473494393,93.94493519574085L105.30682130541119,72.13955168633794L105.47187901905605,96.45832400036767L105.63693673270089,131.26428941381306L105.88452330316815,136.9857199027516L106.13210987363543,138.32408089054243L106.21463873045785,157.65594914242686L106.62728301456997,120.68451951506762L107.03992729868207,151.67118662312245L107.37004272597177,119.10272365038553L107.45257158279419,129.5945667764215L107.53510043961661,164.44832260850046L107.70015815326146,138.56189463409518L107.78268701008389,134.86573896992422L107.86521586690631,141.54797197333102L108.2778601510184,124.37704081009565L108.52544672148568,94.07637096172739L108.6079755783081,60.51662362121315L108.69050443513052,89.63476260094737L108.77303329195294,111.77429915359572L108.9380910055978,113.67520831517993L109.18567757606506,119.49565664141772L109.43326414653232,112.2761792823654L110.17602385793414,112.19006293126846L110.4236104284014,103.6785121565692L111.00131242615836,141.95246273841312L111.08384128298079,134.2958764041799L111.1663701398032,155.18937223687448L111.4964855670929,146.08646750130964L111.66154328073775,171.6270976735686L111.82660099438257,145.52319602554647L111.90912985120502,150.48136583899068L112.23924527849469,125.04650014360064L112.73441841942923,126.18382953326362L112.89947613307407,132.66535348148815L113.14706270354135,139.9601598078642L113.22959156036377,144.3465364546533L113.47717813083104,127.72267462614344L113.72476470129831,113.81614847414176L113.88982241494315,123.28975064956086L114.054880128588,117.68646992681056L114.46752441270012,101.21245717945041L114.55005326952254,98.45869509905357L114.7976398399898,116.85383064935247L115.1277552672795,137.59544382678155L115.29281298092432,155.54912162854257L115.62292840821402,177.86779431658817L115.70545726503644,139.89458984557092L115.9530438355037,165.44548062851547L116.11810154914856,118.84965627277288L116.20063040597098,110.20861099165033L116.44821697643825,118.73357493524479L116.53074583326067,125.75695559181837L116.77833240372794,107.94010026394778L116.86086126055037,130.29842991313308L116.94339011737279,143.29031431228265L117.43856325830733,152.20484411826348L117.85120754241943,165.70875092245876L118.01626525606429,171.55291720152002L118.09879411288671,176.0694696390269L119.25419810840062,156.03997025684131L119.33672696522304,140.7251254267232L119.50178467886788,147.9375326722357L120.07948667662484,161.51110472768337L120.16201553344726,125.54630098745402L120.24454439026968,118.89125877800141L120.57465981755938,137.7415586135636L120.6571886743818,138.09517716767576L120.9873041016715,93.34076131604618L121.31741952896118,84.39396104367268L121.3999483857836,23.41464570170903L121.56500609942846,10.772012775834446L121.7300638130733,69.91091307978262L121.81259266989572,45.33661394452136L121.89512152671814,60.128437467604456L121.97765038354055,92.39890812916177L122.63788123811993,104.90482595375316L122.96799666540963,66.29688035407358L123.13305437905447,84.2855423000688L123.38064094952175,126.43430469369241L123.79328523363385,3.8700821095148976L124.28845837456839,13.949208140674504L124.37098723139081,5.6171408997784535L124.45351608821325,17.478015635469145L124.61857380185809,47.07730086689961L124.86616037232535,111.77818401948588L125.69144894054958,74.40620848041044L125.85650665419442,82.56772284412313L126.02156436783926,82.00999810446002L126.26915093830654,47.5294874751899L126.5167375087738,68.19469328895947L126.68179522241864,91.29547659924386L126.76432407924106,98.78327517984351L127.17696836335318,61.17490586989891L127.2594972201756,109.38556419512634L127.50708379064288,134.23956247477545L127.5896126474653,149.515591550469L127.67214150428772,170.59989835206204L127.91972807475499,113.7450513895546L128.0022569315774,95.79337364374095L128.3323723588671,70.68816204132656L128.49743007251195,72.28566095638648L128.99260321344647,83.5575037606537L129.1576609270913,99.74044966021138L129.4052474975586,87.8400963731681L129.7353629248483,85.50699870271382L130.06547835213797,36.726776157178115L130.23053606578281,39.64697986826551L130.56065149307253,13.503871871392883L130.64318034989495,13.469640425794935L131.05582463400705,40.66100402000591L131.2208823476519,82.15796288160216L132.21122862952097,103.51697073301555L132.54134405681066,58.74903228203382L132.62387291363308,46.14013413427383L132.7064017704555,80.59868930068585L132.95398834092276,88.02039700463622L133.1190460545676,74.76837011529247L133.36663262503487,81.44661265088197L133.69674805232458,76.33862808586773L133.86180576596942,69.9722637643968L133.9443346227918,74.90502338326039L134.27445005008153,1.7186020645924376L134.35697890690395,40.00228648786572L134.6045654773712,21.68229081684698L134.9346809046609,-4.228373107543796L135.01720976148331,9.286437717919918L135.18226747512819,8.620270904403753L135.34732518877303,-21.780436667170978L135.5949117592403,-45.36231337173882L136.0075560433524,10.165008357790665L136.17261375699724,72.19885669234273L136.33767147064208,78.23283613042794L136.58525804110937,51.151496094051296L136.99790232522147,91.44400250001786L137.0804311820439,105.97724747750925L137.24548889568874,139.61486809717601L137.41054660933358,116.00151525816888L137.493075466156,142.29145582445318L137.57560432297845,147.51283808498093L137.82319089344568,126.00747860659554L138.23583517755782,138.57300654683212L138.40089289120266,136.5301353511742L138.48342174802508,144.71735887222127L138.81353717531476,152.99396057791907L139.22618145942687,160.98975550974433L139.55629688671658,143.14190321983702L139.88641231400626,161.56383756571253L139.96894117082869,156.44649297777858L140.3815854549408,164.45430993720856L140.54664316858566,114.30025759008936L140.7117008822305,139.90845287842876L140.87675859587534,159.45471343681643L141.12434516634258,110.60849690391677L141.20687402316503,140.94205361449298L141.5369894504547,111.6541976668046L142.03216259138924,8.39184471384497L142.19722030503408,78.01210497061595L142.36227801867895,86.18472102377567L142.5273357323238,93.50054706244987L142.6098645891462,103.71404911425297L143.02250887325832,124.12733717417848L143.43515315737042,82.91559890969056L143.6827397278377,78.4031307584949L143.84779744148256,89.64716631714089L144.0128551551274,95.30925206042376L144.09538401194982,106.56322798458092L144.26044172559466,137.85352164089613L144.4254994392395,152.69949613199904L144.6730860097068,141.0324380021125L144.8381437233516,118.9731126806815L144.92067258017403,58.65170453342293L145.00320143699645,44.00037387506078L145.0857302938189,-33.50865771683108L145.66343229157584,6.645572150243264L145.8284900052207,39.79625873242619L146.07607657568795,88.7127678234266L146.15860543251037,130.837579020057L146.24113428933282,82.54217410327009L146.73630743026735,94.93965838222854L147.14895171437945,101.75921748997266L147.3965382848467,125.53878660622684L147.47906714166913,127.68733783381654L148.13929799624853,123.55792864326502L148.22182685307092,106.24753690403759L148.30435570989337,92.77568306498698L148.38688456671576,63.46024359440759L148.5519422803606,99.96007551255376L148.96458656447274,139.19055834525145L149.12964427811758,71.04656630833095L149.21217313494,100.82462652788314L149.8724039895194,109.84616710007207L149.95493284634182,156.09250505131106L150.2850482736315,118.03921803350761L150.45010598727637,108.60341534587849L150.61516370092122,110.99302236612391L150.6976925577436,102.80253807970948L150.86275027138845,93.07325177717817L151.19286569867816,69.54849951798647L151.27539455550055,77.7262789242231L151.4404522691454,93.73902486134901L151.6055099827903,86.46270708542336L151.6880388396127,102.08971472390382L151.85309655325753,136.70850045498653L151.93562541007995,39.70873069220054L152.01815426690237,83.85963690752837L152.1006831237248,115.42054435688863L152.43079855101448,125.59905237690407L152.51332740783693,109.65662701191945L152.76091397830416,116.03938555682727L152.8434428351266,127.05813967804973L152.92597169194903,124.6572659449839L153.2560871192387,56.29856386857653L153.33861597606113,50.09893389440025L153.503673689706,76.70670656214504L153.91631797381808,101.27044527909145L154.57654882839748,73.68626943199553L154.82413539886477,70.37944809158802L154.98919311250958,116.39603796711735L155.15425082615442,120.39732000996375L155.23677968297687,138.95409769063585L155.56689511026656,148.71223098237124L155.7319528239114,132.46135971892082L155.97953939437866,115.82821105543358L156.06206825120108,147.40738123003376L156.22712596484592,54.26030045853135L156.80482796260287,59.92747782118885L156.96988567624774,82.90811301917292L157.05241453307016,101.42753235651875L157.38252996035985,121.66511533269035L157.46505881718227,145.48292978800865L157.71264538764956,158.55256945888055L157.79517424447195,118.42433000647118L157.8777031012944,72.81926023561934L158.04276081493924,62.111410243672736L158.12528967176164,95.43232218828149L158.2903473854065,110.66107565138626L158.45540509905135,15.346792343818837L158.53793395587374,27.470125249020686L158.86804938316345,37.837443477237755L159.11563595363071,61.12096444110326L159.44575138092043,35.62814454828786L159.52828023774282,27.817168799804367L159.7758668082101,42.40776487196801L159.94092452185495,62.13776649206067L160.1059822354998,67.05758122994632L160.18851109232222,66.96755958584373L160.27103994914464,79.77993386176989L161.01379966054643,110.03679636142975L161.1788573741913,101.15818214636768L161.42644394465853,131.21482198880736L161.59150165830337,108.9632515522917L161.75655937194827,110.68864073824781L162.33426136970522,129.83419537875534L162.4167902265276,127.3966940762165L162.6643767969949,147.463288670522L162.7469056538173,166.054057723189L162.82943451063974,77.57834037656475L163.24207879475185,97.8027691445666L163.4896653652191,111.4774430754323L163.65472307886398,75.94504220041922L163.90230964933122,76.7285147513782L163.98483850615366,55.61502351319881L164.06736736297606,51.38169335903245L164.39748279026577,51.200671759957984L164.4800116470882,60.300378670195705L164.64506936073303,73.0319568575506L164.8101270743779,80.94671137600528L164.8926559312003,53.353075549615106L165.22277135848998,63.13550874850502L165.3053002153124,74.60092252814013L165.63541564260208,94.8489522020589L165.71794449942453,116.94523584403251L165.88300221306937,132.62145974712186L166.04805992671422,89.50566684085777L166.46070421082632,48.6353420506413L166.54323306764877,37.322615886644726L166.7082907812936,25.546175021064688L166.95587735176085,38.67912850936939L167.53357934951782,57.709359639934526L167.69863706316266,63.57026705105404L168.02875249045238,61.58061869213198L168.11128134727477,82.58300531852957L168.44139677456448,88.63000232765506L168.52392563138687,100.07781989826641L169.01909877232143,87.89112965475123L169.2666853427887,84.32579294030312L169.3492141996111,84.75200510913369L169.43174305643353,104.25254009917204L169.5968007700784,82.43636072080686L169.6793296269008,102.82077791257677L169.76185848372324,87.08577401403645L169.84438734054564,66.95566398256187L170.17450276783535,39.93404526974811L170.25703162465777,17.806706818967438L170.4220893383026,15.44751853094556L170.50461819512503,46.93662595686383L170.66967590876988,52.89901000679832L170.91726247923717,41.251870276016945L170.99979133605956,18.579530788687627L171.32990676334927,1.0974463318305783L171.4124356201717,18.633405849507753L172.0726664747511,34.671818232423135L172.4853107588632,35.666718311173426L172.98048389979772,69.76340842263424L173.0630127566201,52.1153740243516L173.14554161344256,53.24054973504545L173.55818589755467,80.7417371430282L173.88830132484435,61.39715356661207L174.3834744657789,34.37641241513995L174.7135898930686,72.946495793411L175.04370532035827,67.6681555731235L175.2087630340031,71.74597777154877L175.37382074764795,85.16123934951366L175.62140731811522,44.464309757675565L176.03405160222735,28.723417436285292L176.44669588633946,86.06283932740388L177.02439788409643,45.53377982977029L177.51957102503096,58.836712412910956L177.6846287386758,20.55998489887849L177.84968645232067,84.10969601178289L178.0147441659655,4.176820144561514L178.0972730227879,33.51837958654213L178.3448595932552,61.33893746963397L179.08761930465698,87.1415861068945L179.9954367297036,62.7254678207955L180.07796558652606,58.6507722427291L180.32555215699333,78.45880291847207L180.40808101381575,81.59236375129751L180.73819644110543,86.19401641634684L180.82072529792785,93.95480235399943L180.9857830115727,46.87675671775513L181.39842729568483,77.25784958248481L181.6460138661521,81.94579848973186L182.05865815026422,80.54705572004362L182.14118700708661,48.43130144041996L182.22371586390906,50.46254637545169L182.3887735775539,38.20872665738648L182.4713024343763,16.870987644416466L182.8839467184884,38.61476744575545L182.96647557531085,64.84512716835378L183.2140621457781,84.40306146999188L183.29659100260054,59.21989445066678L183.70923528671264,54.50384821715255L184.20440842764717,81.51122638981049L184.28693728446962,93.38756145764442L184.69958156858172,107.61894015488534L185.0296969958714,133.90302568254754L185.44234127998354,117.05481737698162L186.10257213456288,74.38755811282842L187.42303384372167,99.88927294542417L187.5055627005441,117.14113421079642L187.9182069846562,133.27691689181736L188.99108212334767,94.56936927993172L189.07361098017012,87.5784700352794L189.48625526428222,80.96225392647774L189.65131297792706,80.75332889671667L189.8163706915719,99.73696776686525L189.89889954839435,105.94565982694341L189.98142840521675,111.17892984302067L190.31154383250643,120.94189101032147L190.4766015461513,95.9870911365982L190.64165925979614,79.45783194469124L190.80671697344098,107.32199288775958L191.05430354390828,122.78221114968842L191.13683240073067,109.5085986580526L191.3018901143755,113.91944374303787L191.46694782802035,133.89472919850203L191.5494766848428,120.57043319265125L191.63200554166522,146.0671032817322L191.71453439848764,163.33350280716581L191.87959211213249,159.31192774774306L191.9621209689549,72.18250897195651L192.04464982577733,32.262974586810465L192.2922363962446,56.998172226719696L192.952467250824,42.41382149298831L193.28258267811367,36.365759690109385L193.3651115349361,30.194522667940927L193.61269810540335,47.04144623737407L194.1078712463379,18.037903393549726L194.1904001031603,29.688390597080648L194.35545781680514,24.107573602991657L194.76810210091728,55.70063214931908L194.93315981456212,57.51014304323571L195.01568867138454,84.42585464549994L195.34580409867422,96.46581612618556L195.42833295549667,95.235630781449L195.84097723960878,95.27511552663475L196.00603495325362,88.88430463256381L196.088563810076,116.53357012903233L196.25362152372085,117.06306722182815L196.9963812351227,113.8538108948856L197.0789100919451,115.50026486105658L197.24396780558993,130.71815103823695L197.40902551923477,130.94501259919144L197.65661208970207,154.0059466122253L197.7391409465245,134.10740452448013L198.4819006579263,42.86336061058531L198.97707379886083,95.40379703897518L199.55477579661778,125.01095734969967L199.88489122390746,154.18200137579896L199.96742008072988,152.40405986070343L200.29753550801956,111.54903696523165L201.04029521942138,101.28814258583853L201.3704106467111,117.8393111739862L201.45293950353349,110.94664493901706L201.53546836035594,113.70300644699739L201.94811264446804,130.38041101731935L202.44328578540257,125.9275364213545L202.69087235586986,149.92333213856517L202.77340121269225,59.18701868354852L202.8559300695147,28.80177483799032L203.10351663998196,19.140267933597034L203.2685743536268,25.313933667656002L203.43363206727165,9.030350809542293L203.51616092409407,40.56621874129984L203.5986897809165,2.059383638493289L203.92880520820617,-4.792714254526334L204.093862921851,11.63306796699217L204.34144949231828,-19.32594815688288L204.42397834914073,23.568420306461817L204.50650720596312,0.722786793176199L204.83662263325283,-4.858470570910115L205.90949777194433,-14.109469771271678L205.99202662876675,22.5940214280387L206.07455548558917,79.02522923553381L206.48719976970128,50.626590225203344L206.56972862652373,26.288500922005593L206.73478634016854,33.1726821771539L207.3950171947479,72.38003854565902L207.56007490839275,63.392261701640294L207.72513262203762,87.58629798782259L207.80766147886004,129.46068309101628L208.0552480493273,147.20968699809794L208.63295004708428,136.09924559817048L208.88053661755154,101.47956971742428L209.04559433119638,104.90409625049564L209.21065204484123,131.2345824926646L209.62329632895336,56.63825199689812L210.03594061306543,29.700867279370765L210.11846946988786,42.92182705383653L210.2009983267103,35.535891698494154L210.531113754,32.91190379584794L210.61364261082238,-5.335395582377763L211.10881575175694,1.4020235815326336L211.27387346540178,22.33172989993909L211.43893117904662,-7.691147263006973L211.6865177495139,7.000227344348818L211.7690466063363,19.78150691126295L211.85157546315875,60.70680902928916L211.93410431998117,69.87102566749604L212.18169089044844,65.47131693910904L212.34674860409328,74.27674404762797L212.75939288820538,81.4301646482859L213.00697945867267,90.53213615410014L213.1720371723175,113.76322121995013L213.50215259960717,124.38351807893204L213.58468145642962,145.33869320399893L213.99732574054173,136.28945548237036L214.3274411678314,72.16471270323548L214.5750277382987,57.405795412360604L214.6575565951211,54.88756217263128L214.82261430876594,56.710321266686535L215.15272973605565,52.00479588689417L215.23525859287807,51.08192882479291L215.4003163065229,63.1452616061695L215.48284516334533,74.92149829714668L215.97801830427986,70.73362603087892L216.0605471611023,60.81650315147754L216.22560487474715,73.24108123343353L216.39066258839196,88.85373097719706L216.63824915885925,70.9758087019329L216.7207780156817,66.95974372078307L216.88583572932654,67.45622565010298L217.13342229979378,54.31326769953924L217.4635377270835,58.771458373757376L217.62859544072833,59.51881516257035L217.71112429755073,64.30221505017452L217.8761820111956,87.26133878339976L217.95871086801802,90.27580319436285L218.53641286577496,107.49206350621895L218.7014705794198,98.4770311416047L218.9490571498871,103.39576710687548L219.11411486353194,104.94063706071265L219.19664372035436,118.41323090110775L219.27917257717678,133.3121422980467L219.77434571811133,129.38040997013943L220.59963428633552,102.30676640872876L220.76469199998036,86.67836158313995L221.1773362840925,81.21796479812261L221.34239399773733,58.15873436271885L221.67250942502704,52.12750089913606L221.75503828184944,73.53200683050889L221.8375671386719,62.75081480904942L222.00262485231673,79.06571732977727L222.16768256596157,82.00788404847677L222.250211422784,81.69229299190589L222.58032685007367,94.8138418457185L223.0754999910082,61.648407079517185L223.24055770465307,30.746768387671988L223.4056154182979,-0.6467717268683547L223.7357308455876,-0.2711222589291948L224.47849055698939,10.58240762720519L224.56101941381183,18.768229679533036L224.64354827063423,31.727279742787978L224.9736636979239,39.301233560354824L225.38630798203604,37.17256173994778L225.46883683885846,51.55006945287084L225.5513656956809,68.15562124334024L225.8814811229706,79.45135603594997L225.964009979793,69.03797683186244L226.21159655026028,74.44890893220442L226.37665426390512,71.95652182786903L226.6242408343724,100.75003272601198L227.03688511848452,118.4824079668888L227.20194283212933,12.93924211128402L227.36700054577418,68.64179581246631L227.44952940259662,83.93648377022586L227.8621736867087,32.333358495131286L228.02723140035357,-8.895359088784058L228.43987568446568,-15.24825103655053L228.68746225493294,16.0148259297183L228.85251996857778,29.909521514528148L229.01757768222262,54.95607676665862L229.43022196633476,72.82593444688452L229.67780853680202,79.18168888776283L229.84286625044686,86.48821992394107L230.0079239640917,100.34504664678096L230.09045282091415,94.80989700965777L230.3380393913814,102.5620936877968L230.4205682482038,112.05236066895566L230.50309710502626,122.1709345379045L230.7506836754935,125.7633058579967L230.83321253231594,131.7605102726998L230.91574138913833,130.9377693029036L231.57597224371773,95.96864648805932L231.65850110054018,74.36521235070128L231.74102995736257,52.66678480470784L231.9060876710074,46.203326375531866L231.98861652782986,39.03048690243247L232.31873195511955,55.18729374436367L232.4837896687644,62.48261861692829L233.22654938016618,74.15034731236656L233.63919366427828,69.73826958198849L233.72172252110073,71.52999394428666L233.80425137792312,63.68907880889558L233.96930909156802,67.92977586030304L234.3819533756801,71.99255349114532L234.46448223250252,75.97594941263074L234.54701108932497,77.85668066928352L234.62953994614736,90.36783526563777L234.7945976597922,85.03330560018354L234.95965537343704,79.84255426178095L235.28977080072676,80.91993320342007L235.61988622801644,99.56730794001705L235.70241508483886,105.27626171575618L235.86747279848373,100.4339060099551L236.11505936895097,114.24002364910072L236.2801170825958,109.94000249682009L236.85781908035278,110.6901691583351L237.2704633644649,104.8064717921958L237.51804993493215,112.75611494432668L237.93069421904428,88.07154708053572L238.17828078951155,85.54505226323205L238.26080964633397,74.03139014687383L238.3433385031564,68.48949703826636L238.67345393044607,85.18463240573988L239.00356935773576,73.14080050924255L239.1686270713806,103.19542299190395L239.82885792596,103.52176980886229L239.91138678278242,106.23762995996054L239.99391563960484,113.91510379665242L240.32403106689452,122.96297623227136L240.65414649418423,64.22812063832669L240.98426192147392,56.41781485232686L241.0667907782963,47.38179140523474L241.39690620558602,18.240414260526652L241.47943506240844,15.973227808022504L241.56196391923086,43.97537622875237L241.64449277605328,79.38457960659365L241.974608203343,85.46209480979083L242.22219477381023,88.83105162810672L242.46978134427752,92.51943577445017L242.63483905792236,81.04613172615224L242.7998967715672,101.00651425526065L243.13001219885692,79.19823846949745L243.54265648296902,95.26859891876906L243.62518533979144,19.404593193023473L243.70771419661386,6.410672059331627L243.8727719102587,16.840314562117417L243.9553007670811,-17.32104177214229L244.120358480726,10.165495233044703L244.28541619437084,0.46649017834407774L244.36794505119323,-22.21307639852579L244.45047390801565,12.829760118480493L245.11070476259502,-25.111111283881975L245.27576247623986,8.457996713002554L245.52334904670715,-15.382558714829386L245.77093561717442,-0.9089002130245823L245.93599333081926,57.55679370004828L246.1010510444641,80.42217610778093L246.3486376149314,110.5179607413849L246.43116647175378,115.59139227539272L246.7612818990435,130.45623151733966L246.84381075586592,81.22835757421683L246.92633961268834,106.23510742180393L247.17392618315563,63.37999444652939L247.83415703773497,26.922279430001097L249.31967646053857,50.95775530581941L249.40220531736102,41.47011740301577L249.81484960147313,44.911171782657064L249.89737845829555,84.92641122730929L250.06243617194042,44.5841482420238L250.22749388558526,16.69530984194302L250.31002274240765,52.19952394224448L250.55760931287494,95.48045889292445L250.8877247401646,92.43721651988588L250.97025359698705,48.21293950097895L251.1353113106319,35.30493376035456L251.30036902427673,81.3909500977251L251.38289788109915,123.90858259622622L251.79554216521126,42.73190582955613L251.87807102203368,-22.434921888397284L253.36359044483729,-22.826729954000054L253.44611930165973,11.75280883310352L253.52864815848213,-0.5585667232125555L254.60152329717366,14.528020873513633L254.68405215399605,32.461738016490905L254.84910986764092,67.56486707484386L255.261754151753,48.453338478956084L255.67439843586513,71.8006495481223L255.83945614950997,99.50420325712665L256.3346292904445,74.82114777884028L256.49968700408937,95.11663460219751L256.6647447177342,84.82634759816432L256.82980243137905,49.48685381190711L256.9123312882015,23.67066182807751L257.0773890018463,44.268416373164236L257.4900332859584,71.96843101190018L257.57256214278084,113.10625661411609L257.65509099960326,139.32977435653643L257.7376198564257,108.33268182678529L257.98520642689294,115.5687810027951L258.0677352837154,113.53589112976134L258.3153218541826,147.39021512265347L258.39785071100505,74.12700085553033L258.4803795678275,40.454149226814565L258.5629084246499,33.033013391308856L258.8930238519396,31.8242516992579L258.97555270876205,47.734952475581515L259.38819699287416,42.10234665653902L259.553254706519,42.42202057386743L259.9658989906311,65.18869686431266L260.0484278474535,72.70027333337003L260.21348556109837,50.06861222471379L260.3785432747432,-8.282994980510365L260.46107213156563,-6.244191935934638L260.62612984521047,49.27482916661844L260.7911875588553,-6.922510226511382L261.2038318429674,39.21403887877767L261.4514184134347,34.098452987913426L261.6164761270795,27.614001369939235L261.699004983902,58.770227373113464L262.0291204111917,70.3264476603538L262.4417646953038,42.62618855677566L263.01946669306074,17.386718275030514L263.10199554988316,61.939662362050406L263.51463983399526,99.71992300117931L263.6796975476401,97.89556976727776L264.0923418317522,80.73563123928145L264.1748706885747,43.39918825422278L264.25739954539705,25.587137106974755L264.3399284022195,25.688498219797676L265.0826881136213,3.79801481794719L265.4953323977334,78.07432050743101L265.7429189682007,99.85314824183759L265.8254478250231,53.91457346895775L266.5682075364249,35.948404088451525L266.73326525006973,60.874095545711185L266.980851820537,76.89153448031965L267.14590953418184,71.30145361966707L267.6410826751164,75.57386585132663L268.21878467287337,65.4081027736386L268.3838423865182,59.92881827207314L268.46637124334063,45.254139694981546L268.6314289569855,50.707055535934515L268.87901552745274,38.256323639468576L269.2091309547424,39.24054954688118L269.4567175252097,13.218153053062624L269.5392463820321,24.518849843350683L269.70430409567695,51.41512797935968L269.8693618093218,78.0234428359816L269.95189066614427,77.16997132398627L270.4470638070788,76.30218820161711L270.5295926639012,77.2807224028924L270.69465037754605,86.5856968075652L270.8597080911909,101.15486739590916L271.10729466165816,85.27438600440334L271.6849966594151,36.00566691656146L272.0151120867048,55.09506644878335L272.0976409435272,47.49438552832168L272.3452275139945,47.1466037579671" fill="none"></path></g></g></g></g><g opacity="0.2"><g><g><g><path style="fill: none;" stroke="rgb(255, 112, 67)" stroke-width="2px" d="M42.33730354990278,220.5144313488348L42.74994783401489,140.62245073383139L42.91500554765974,204.0024137218389L43.16259211812701,97.6125208610512L43.32764983177185,195.66705297371522L43.41017868859427,103.41535162880545L43.57523640223912,239.2467735059965L43.74029411588397,100.3233144059806L43.987880686351225,113.43833621570113L44.152938399996074,141.0202326906869L44.730640397753035,150.96891618181508L45.060755825042726,167.6998691207586L45.14328468186515,119.48527319250157L45.225813538687575,48.48092885726823L45.47340010915484,208.7570401908341L46.21615982055664,111.16401995980948L46.29868867737906,132.55239154402548L46.38121753420148,83.31738986190977L46.62880410466875,130.49784357200707L46.87639067513602,47.72819484547942L47.20650610242571,92.91908753870266L47.5366215297154,162.01900816033486L47.619150386537825,100.5249844816512L47.701679243360246,66.492689718971L47.86673695700509,188.09174881785398L48.03179467064994,144.84358897433947L48.11432352747236,179.4702622132714L48.27938124111721,212.56659185793714L48.36191009793963,125.33843060950885L48.52696781158448,61.2601418214012L48.69202552522932,104.71128935072325L49.26972752298627,193.32490251318785L49.51731409345354,118.40772556454367L49.59984295027596,146.4666271989858L49.76490066392081,85.66897562261303L50.0950160912105,110.98985310262924L50.507660375322615,201.63384290632453L50.59018923214504,106.41282382065351L51.58053551401411,127.24261957647639L51.66306437083653,152.77601091214066L51.99317979812622,133.31675687288512L52.24076636859349,121.19198723331492L52.40582408223834,107.55145100817728L52.570881795883174,116.25055545128585L53.313641507284984,127.26200510492774L53.80881464821952,126.1409006177307L54.221458932331636,167.23740310764074L54.30398778915405,91.10773707908425L54.55157435962132,192.74244310794492L54.71663207326616,163.2091508752237L54.88168978691101,68.85457404166407L55.37686292784555,195.96503732140644L55.45939178466797,155.73475748191828L56.20215149606977,130.16871364676874L56.367209209714616,220.1858314966401L56.53226692335946,136.2342486149272L56.77985349382673,146.50305078955262L57.52261320522854,226.65624382796614L57.7701997756958,103.33705226779486L57.85272863251822,136.9460306978625L58.017786346163064,84.32234777278377L58.265372916630334,122.0677739159376L58.843074914387294,181.59633975628654L59.00813262803214,78.56030233949788L59.090661484854564,126.09263368087564L59.42077691214425,7.101458231744685L59.50330576896667,193.0594570779011L59.5858346257891,106.01575367617079L59.66836348261152,209.00057846447643L59.91595005307879,74.32965307409333L59.99847890990121,109.36139298799417L60.3285943371909,200.2491406670212L60.41112319401332,117.37325015761367L60.49365205083575,14.075886730334169L60.90629633494786,133.33029645291288L61.07135404859271,77.62749494232881L61.153882905415124,214.17992974588574L61.483998332704815,9.822671498216705L61.896642616816926,175.5878255026745L61.979171473639354,130.42190682227647L62.144229187284196,183.19973498843177L62.309286900929045,107.79972207685168L62.391815757751466,198.24931895051768L62.47434461457389,61.29085576804134L62.72193118504115,189.37585833842758L62.886988898686,105.24957095401885L63.13457546915327,158.04237746989162L63.29963318279811,127.29903449325866L63.54721975326538,148.6390785608432L63.6297486100878,160.9252478697151L63.95986403737749,118.33764990818081L64.04239289419992,40.429134470050116L64.12492175102234,112.05826832929324L64.20745060784476,85.98529292514054L64.45503717831203,107.27841795589511L64.53756603513445,104.35349004629866L64.95021031924657,229.5059505864409L65.61044117382595,80.90099888539136L65.77549888747079,188.3476075035238L65.85802774429321,122.5535631429735L66.02308545793805,202.01872137080463L66.18814317158291,46.118317577258246L66.27067202840533,70.98857239044487L66.51825859887259,197.80620060349094L66.60078745569501,45.39505562669314L66.68331631251743,139.35796906081475L66.84837402616229,155.70693621960177L67.34354716709682,190.05695676461102L67.42607602391924,87.47667615070273L67.50860488074166,156.9462318505757L67.92124916485378,144.6185199600303L68.08630687849862,203.36392559588825L68.16883573532104,108.87324114967825L68.3338934489659,124.3659434587909L69.15918201719012,125.54409895042254L69.32423973083496,74.06667626469532L69.57182630130222,144.774164550573L69.8194128717695,58.165211914252744L69.98447058541434,154.02942920349034L70.2320571558816,73.29690419079104L70.39711486952646,132.03525228269714L70.56217258317129,163.6492629508461L70.72723029681615,66.14023657981463L70.97481686728341,108.00993390099616L71.05734572410583,189.49099020349576L71.22240343775069,137.0578306752281L71.80010543550765,238.3936966670557L72.04769200597491,210.6292733257451L72.87298057419913,165.16751330724634L73.12056714466641,68.1887114292479L73.20309600148883,77.2971988563946L73.53321142877851,93.34123771061931L73.94585571289063,34.626333992184065L74.11091342653546,186.05178542700637L74.2759711401803,95.19808358232203L74.52355771064758,208.5850466331326L74.77114428111484,160.5938613478055L75.26631742204938,104.01421300851158L75.3488462788718,208.2739694812646L75.51390399251666,90.97426468670778L75.59643284933908,-17.910750142515873L76.0916059902736,96.31406907841237L76.17413484709604,90.04369874126587L76.4217214175633,58.597448618941755L76.751836844853,49.09670713953699L76.83436570167542,93.41244923778986L76.91689455849784,-0.20949092480518716L76.99942341532027,52.87225083465755L77.41206769943238,186.83483961688867L77.65965426989963,36.91714309220349L77.74218312672205,179.36999511083997L77.82471198354447,-2.2448502526455756L78.2373562676566,68.47813131104913L78.65000055176871,20.031121070593166L78.81505826541355,173.42844422757767L78.89758712223598,137.79949373287792L78.9801159790584,171.4584656234283L79.06264483588082,120.13668752824378L79.22770254952567,14.49752197415132L79.88793340410506,168.0359051405077L80.21804883139474,141.40618644619826L80.30057768821717,222.51425306533838L81.12586625644138,196.21775343117497L81.5385105405535,134.0518773146826L81.70356825419834,176.41363386975848L81.78609711102077,118.18968380429814L81.86862596784319,169.00383366305078L81.95115482466561,129.78830294079893L82.2812702519553,178.05516407115414L82.69391453606742,66.01127738078075L82.77644339288985,27.70217156307121L83.02402996335711,102.56985483438802L83.43667424746923,154.1414184926572L83.51920310429165,193.6021761498188L83.84931853158133,31.04187405680636L83.93184738840377,136.4594690786774L84.01437624522619,134.5838889111197L84.17943395887103,145.72407058963395L84.42702052933828,143.24726643109017L84.75713595662798,109.88151580331073L84.8396648134504,207.08820365522143L85.1697802407401,150.02418971363724L85.25230909756252,168.27494536575153L85.66495338167464,103.92693269564813L85.83001109531948,147.5961219852157L86.2426553794316,77.39082490083703L86.32518423625402,173.2099708364252L86.40771309307644,205.06960220803057L86.6552996635437,210.60290597806244L86.73782852036612,155.32950906762017L86.82035737718854,93.89219563212882L87.06794394765582,179.72880155404738L87.15047280447824,202.11560357822913L87.23300166130066,133.72609442209097L87.31553051812308,78.4636321612908L87.72817480223519,148.01057852552822L87.89323251588003,185.45169730682795L87.97576137270245,100.25410201143158L88.05829022952489,-49.06929176172235L88.1408190863473,155.19608211007602L88.38840565681457,111.20377543807888L88.55346337045941,75.98078517005005L88.80104994092669,-67.44674244372719L88.88357879774911,101.20058529312533L89.29622308186123,91.28675031837729L89.37875193868365,66.47818086252069L89.62633850915091,174.85068321083932L89.79139622279575,210.43335075636145L90.20404050690787,200.4579743012524L90.36909822055271,164.77867443988345L90.61668479101999,177.60808532124457L90.78174250466483,106.1695657284771L90.86427136148725,59.79444442103706L90.94680021830968,129.889546892125L91.02932907513211,50.290431633706135L91.19438678877695,77.92700135690238L91.27691564559936,178.99504415721913L91.4419733592442,139.02847565691798L91.60703107288904,67.2538897545132L91.68955992971148,87.98269902305974L91.7720887865339,74.53520025545421L92.01967535700116,-29.610249751684254L92.26726192746844,142.41041739975532L92.67990621158054,194.73820597942898L93.01002163887024,182.90920952571105L93.09255049569266,161.63762060547043L93.2576082093375,95.05435806278808L93.50519477980478,143.0036448602553L93.83531020709447,27.085681468429627L93.91783906391689,-115.81730100635313L94.08289677756174,148.0708856929449L94.16542563438416,11.116625232457041L94.24795449120658,133.06085275238303L94.330483348029,70.94990734815084L94.6605987753187,196.27295675242902L94.74312763214111,172.69697371730894L94.90818534578595,137.83285804473599L94.99071420260837,144.46660102573685L95.32082962989807,44.451616478764024L95.98106048447745,205.8687933358542L96.31117591176714,-15.730574859166115L96.39370476858957,123.34962683983994L96.64129133905683,208.72731066556065L96.72382019587926,87.46557490667551L96.80634905270168,188.63655031958578L96.97140676634652,94.79354698039674L97.05393562316895,107.63268848834377L97.2189933368138,103.80822662377173L97.38405105045864,38.1573625647677L97.46657990728106,86.62006296731398L97.63163762092591,150.73635042017514L97.79669533457076,136.64022398654225L98.044281905038,46.23260132545668L98.29186847550528,64.2539186468882L98.62198390279497,187.06528508635424L98.70451275961739,207.38220488261368L99.28221475737435,143.25220368286762L99.4472724710192,7.873365742767438L99.52980132784162,201.09014698551223L99.94244561195373,15.662804263295738L100.27256103924343,135.9952613969877L100.43761875288827,174.0044897489932L100.76773418017797,46.01154572133473L101.18037846429009,63.22400186813309L101.59302274840218,165.8223504003558L101.6755516052246,151.27485919763228L101.75808046204703,6.4494683881265455L102.0056670325143,140.62054247087445L102.17072474615914,44.389582787719675L102.33578245980398,36.503716408089936L102.41831131662641,114.04776876639089L102.58336903027126,181.7532640946059L102.83095560073852,126.54614903202882L102.91348445756094,158.9729131254453L102.99601331438338,180.27528414457456L103.16107102802822,78.88014841400128L103.32612874167306,-14.9080529449524L103.40865759849548,124.52732798314851L103.57371531214034,173.23346064472838L103.73877302578518,165.29514732367124L104.06888845307486,32.251379582730436L104.23394616671972,110.18744367418381L104.5640615940094,138.02859130231838L104.64659045083182,89.8456634521799L104.8941770212991,184.6856811790611L105.05923473494393,28.7185639067427L105.30682130541119,39.431476422233594L105.47187901905605,132.93648247141223L105.63693673270089,183.47323753398115L105.88452330316815,145.56786563615944L106.13210987363543,140.3316223722286L106.21463873045785,186.65375152025354L106.62728301456997,65.22737507402873L107.03992729868207,198.15118728520468L107.37004272597177,70.2500291912802L107.45257158279419,145.33233146547536L107.53510043961661,216.72895635661894L107.70015815326146,99.73225267248733L107.78268701008389,129.32150547366774L107.86521586690631,151.57132147844123L108.2778601510184,98.62064406524264L108.52544672148568,48.625366189175L108.6079755783081,10.177002610441784L108.69050443513052,133.31197107054868L108.77303329195294,144.98360398256824L108.9380910055978,116.52657205755622L109.18567757606506,128.2263291307744L109.43326414653232,101.44696324378688L110.17602385793414,112.060888404623L110.4236104284014,90.91118599452034L111.00131242615836,199.363388611179L111.08384128298079,122.81099690282997L111.1663701398032,186.52961598591637L111.4964855670929,132.43211039796242L111.66154328073775,209.93804293195703L111.82660099438257,106.36734355351332L111.90912985120502,157.918620559157L112.23924527849469,86.89420160051566L112.73441841942923,127.88982361775808L112.89947613307407,142.38763940382498L113.14706270354135,150.90236929742815L113.22959156036377,150.92610142483696L113.47717813083104,102.7868818833787L113.72476470129831,92.95635924613921L113.88982241494315,137.50015391268946L114.054880128588,109.28154884268511L114.46752441270012,76.50143805841022L114.55005326952254,94.32805197845835L114.7976398399898,144.44653397480084L115.1277552672795,168.70786359292515L115.29281298092432,182.4796383311841L115.62292840821402,211.3458033486566L115.70545726503644,82.93478313904508L115.9530438355037,203.77181680293228L116.11810154914856,48.95591973915896L116.20063040597098,97.24704306996657L116.44821697643825,131.52102085063652L116.53074583326067,136.29202657667872L116.77833240372794,81.21481727214191L116.86086126055037,163.835924386911L116.94339011737279,162.77814091100703L117.43856325830733,165.57663882723475L117.85120754241943,185.96461112875167L118.09879411288671,182.84429829528716L119.25419810840062,125.9957211835629L119.33672696522304,117.75285818154603L119.50178467886788,158.7561435405044L120.07948667662484,181.8714628108549L120.16201553344726,71.59909537711L120.24454439026968,108.90869546382251L120.57465981755938,166.01700836690685L120.6571886743818,138.62560499884395L120.9873041016715,26.209137538601837L121.31741952896118,70.97376063511248L121.3999483857836,-68.05432731123642L121.56500609942846,-8.191936612977363L121.7300638130733,158.61926353570485L121.81259266989572,8.47516524162947L121.89512152671814,82.31617275222914L121.97765038354055,140.80461412149776L122.63788123811993,123.66370269064024L122.96799666540963,8.384961954554225L123.13305437905447,111.2685352190617L123.38064094952175,189.65744828412775L123.79328523363385,-179.97625176675137L124.28845837456839,29.0678971874139L124.37098723139081,-6.8809599615656705L124.45351608821325,35.269327739005234L124.61857380185809,91.47622871404528L124.86616037232535,208.82950874836519L125.69144894054958,18.348245171797338L125.85650665419442,94.80999438969218L126.02156436783926,81.17341099496534L126.26915093830654,-4.191278468715338L126.5167375087738,99.19250200961378L126.68179522241864,125.9466515646704L126.76432407924106,110.01497305074308L127.17696836335318,4.762351904981982L127.2594972201756,181.7015516829675L127.50708379064288,171.5205598942491L127.5896126474653,172.42963516400934L127.67214150428772,202.22635855445165L127.91972807475499,28.462780945793405L128.0022569315774,68.86585702502052L128.3323723588671,33.030344637705L128.49743007251195,74.68190932897637L128.99260321344647,100.46526796705453L129.1576609270913,124.01486850954788L129.4052474975586,69.98956644260322L129.7353629248483,82.00735219703245L130.06547835213797,-36.443557661125446L130.23053606578281,44.027285434896605L130.56065149307253,-25.710790123915974L130.64318034989495,13.418293257398043L131.05582463400705,81.44804941132239L131.2208823476519,144.40340117399657L132.21122862952097,135.55548251013562L132.54134405681066,-8.402875394438755L132.62387291363308,27.226786912633813L132.7064017704555,132.28652205030386L132.95398834092276,99.15295856056181L133.1190460545676,54.89032978127686L133.36663262503487,91.46397645426623L133.69674805232458,68.67665123834638L133.86180576596942,60.422717282190476L133.9443346227918,82.30416281155576L134.27445005008153,-108.06102991340958L134.35697890690395,97.42781312277555L134.6045654773712,-5.797702689681094L134.9346809046609,-43.09436899412995L135.01720976148331,29.55865395611547L135.18226747512819,7.621020684129458L135.34732518877303,-67.38149802453309L135.5949117592403,-80.73512842859054L136.0075560433524,93.4559909520849L136.17261375699724,165.2496291941708L136.33767147064208,87.28380528755577L136.58525804110937,10.529486039486365L136.99790232522147,151.88276210896765L137.0804311820439,127.77711494374634L137.24548889568874,190.0712990266762L137.41054660933358,80.58148599965821L137.493075466156,181.72636667387965L137.57560432297845,155.34491147577256L137.82319089344568,93.74943938901743L138.23583517755782,157.42129845718696L138.40089289120266,133.4658285576873L138.48342174802508,156.99819415379184L138.81353717531476,165.40886313646584L139.22618145942687,172.9834479074822L139.55629688671658,116.37012478497608L139.88641231400626,189.19673908452583L139.96894117082869,148.7704760958776L140.3815854549408,176.46603537635357L140.54664316858566,39.069179069410524L140.7117008822305,178.32074581093784L140.87675859587534,188.7741042743979L141.12434516634258,37.33917210456732L141.20687402316503,186.44238868035728L141.5369894504547,67.72241374527209L142.03216259138924,-146.50168471559454L142.19722030503408,182.44249535577242L142.36227801867895,98.44364510351522L142.5273357323238,104.47428612046122L142.6098645891462,119.03430219195761L143.02250887325832,154.7472692640667L143.43515315737042,21.097991512958693L143.6827397278377,71.63442853170145L143.84779744148256,106.51321965510984L144.0128551551274,103.8023806753481L144.09538401194982,123.44419187081675L144.26044172559466,184.788962125369L144.4254994392395,174.9684578686534L144.6730860097068,123.53185080728277L144.8381437233516,85.88412469853498L144.92067258017403,-31.830407687464916L145.00320143699645,22.02337788751747L145.0857302938189,-149.77220510466887L145.66343229157584,66.87691695085468L145.8284900052207,89.52228860570062L146.07607657568795,162.0875314599272L146.15860543251037,194.02479581500265L146.24113428933282,10.099066728089674L146.73630743026735,113.53588480066617L147.14895171437945,111.98855615158887L147.3965382848467,161.2081402806081L147.47906714166913,130.91016467520112L148.13929799624853,117.36381485743773L148.22182685307092,80.28194929519643L148.30435570989337,72.56790230641101L148.38688456671576,19.48708438853855L148.5519422803606,154.70982338977294L148.96458656447274,198.03628259429806L149.12964427811758,-31.16942174704982L149.21217313494,145.49171685721143L149.8724039895194,123.37847795835543L149.95493284634182,225.46201197816953L150.2850482736315,60.9592875068025L150.45010598727637,94.44971131443477L150.61516370092122,114.57743289649211L150.6976925577436,90.5168116500879L150.86275027138845,78.47932232338113L151.19286569867816,34.261371129198935L151.27539455550055,89.99294803357797L151.4404522691454,117.75814376703784L151.6055099827903,75.5482304215349L151.6880388396127,125.53022618162454L151.85309655325753,188.63667905161066L151.93562541007995,-105.79092395197844L152.01815426690237,150.08599623052007L152.1006831237248,162.76190553092903L152.43079855101448,140.8668144069273L152.51332740783693,85.74298896444259L152.76091397830416,125.61352337418899L152.8434428351266,143.58627085988337L152.92597169194903,121.05595534538512L153.2560871192387,-46.239489246034516L153.33861597606113,40.799488933135784L153.503673689706,116.61836556376227L153.91631797381808,138.11605335451105L154.57654882839748,32.31000566135171L154.82413539886477,65.41921608097672L154.98919311250958,185.42092278041142L155.15425082615442,126.39924307423334L155.23677968297687,166.78926421164397L155.56689511026656,163.3494309199743L155.7319528239114,108.08505282374517L155.97953939437866,90.87848806020274L156.06206825120108,194.77613649193398L156.22712596484592,-85.46032069872231L156.80482796260287,68.42824386517506L156.96988567624774,117.37906581614907L157.05241453307016,129.2066613625375L157.38252996035985,152.02148979694772L157.46505881718227,181.2096514709862L157.71264538764956,178.15702896518843L157.79517424447195,58.23197082785712L157.8777031012944,4.4116555793415255L158.04276081493924,46.04963525575283L158.12528967176164,145.4136901051947L158.2903473854065,133.50420584604336L158.45540509905135,-127.62463261753223L158.53793395587374,45.65512460682348L158.86804938316345,53.388420819563336L159.11563595363071,96.04624588690149L159.44575138092043,-2.6110852909353115L159.52828023774282,16.10070517707913L159.7758668082101,64.29365898021351L159.94092452185495,91.7327689221997L160.1059822354998,74.43730333677482L160.18851109232222,66.83252711968987L160.27103994914464,98.99849527565911L161.01379966054643,155.42209011091956L161.1788573741913,87.84026082377451L161.42644394465853,176.29978175246697L161.59150165830337,75.58589589751814L161.75655937194827,113.27672451718199L162.33426136970522,158.55252733951662L162.4167902265276,123.74044212240824L162.6643767969949,177.56318056198026L162.7469056538173,193.94021130218943L162.82943451063974,-55.135235643371566L163.24207879475185,128.1394122965694L163.4896653652191,131.9894539717308L163.65472307886398,22.646440887899594L163.90230964933122,77.90372357781663L163.98483850615366,23.94478665592969L164.06736736297606,45.031698127782896L164.39748279026577,50.92913936134627L164.4800116470882,73.94993903555225L164.64506936073303,92.12932413858289L164.8101270743779,92.81884315368734L164.8926559312003,11.962621810029846L165.22277135848998,77.80915854683983L165.3053002153124,91.7990431975928L165.63541564260208,125.22099671293708L165.71794449942453,150.08966130699292L165.88300221306937,156.1357956017559L166.04805992671422,24.831977481461646L166.46070421082632,-12.670145134683441L166.54323306764877,20.353526640649918L166.7082907812936,7.881513722694647L166.95587735176085,58.37855874182646L167.53357934951782,86.25470633578217L167.69863706316266,72.36162816773323L168.02875249045238,58.59614615374892L168.11128134727477,114.08658525812594L168.44139677456448,97.70049784134335L168.52392563138687,117.2495462541834L169.01909877232143,69.61109428947854L169.2666853427887,78.97778786863093L169.3492141996111,85.39132336237955L169.43174305643353,133.5033425842295L169.5968007700784,49.71209165325908L169.6793296269008,133.39740370023162L169.76185848372324,63.483268166225976L169.84438734054564,36.76049893535L170.17450276783535,-0.598382799472443L170.25703162465777,-15.384300857203653L170.4220893383026,11.908736098912705L170.50461819512503,94.17028709574129L170.66967590876988,61.84258608170007L170.91726247923717,23.7811606798449L170.99979133605956,-15.428978442306384L171.32990676334927,-25.125680353455074L171.4124356201717,44.93734512602352L172.0726664747511,58.72943680679616L172.4853107588632,37.15906842929887L172.98048389979772,120.90844358982551L173.0630127566201,25.643322426927647L173.14554161344256,54.92831330108624L173.55818589755467,121.99351825500241L173.88830132484435,32.3802782019879L174.3834744657789,-6.154699312068221L174.7135898930686,130.80162086081756L175.04370532035827,59.75064524269226L175.2087630340031,77.86271106918673L175.37382074764795,105.28413171646105L175.62140731811522,-16.581084630081527L176.03405160222735,5.112078954199883L176.44669588633946,172.07197216408167L177.02439788409643,-15.25980941668004L177.51957102503096,78.79111128762193L177.6846287386758,-36.85510637217026L178.0147441659655,-115.72249365627067L178.0972730227879,77.53071874951301L178.3448595932552,103.0697742942717L179.08761930465698,125.84555906278536L179.9954367297036,26.10129039164701L180.07796558652606,52.538728875629474L180.32555215699333,108.17084893208657L180.40808101381575,86.29270500053568L180.73819644110543,93.09649541392082L180.82072529792785,105.59598126047827L180.9857830115727,-23.740311736611243L181.39842729568483,122.82948887957927L181.6460138661521,88.97772185060239L182.05865815026422,78.44894156551126L182.14118700708661,0.2576700209845015L182.22371586390906,53.50941377799922L182.3887735775539,19.827997080288718L182.4713024343763,-15.135620875038473L182.8839467184884,71.23043714776384L182.96647557531085,104.1906667522513L183.2140621457781,113.73996292244908L183.29659100260054,21.44514392167914L183.70923528671264,47.42977886688122L184.20440842764717,122.0222936487974L184.28693728446962,111.20206405939527L184.69958156858172,128.96600820074673L185.0296969958714,173.32915397404082L185.44234127998354,91.78250491863272L186.10257213456288,10.386669216598575L187.42303384372167,138.1418451943178L187.5055627005441,143.01892610885483L187.9182069846562,157.48059091334875L188.99108212334767,36.50804786210328L189.07361098017012,77.0921211683009L189.48625526428222,71.03792976327533L189.65131297792706,80.43994135207505L189.8163706915719,128.21242607208816L189.89889954839435,115.25869791706063L189.98142840521675,119.02883486713654L190.31154383250643,135.58633276127267L190.4766015461513,58.554891326013355L190.64165925979614,54.66394315683076L190.80671697344098,149.11823430236214L191.05430354390828,145.97253854258167L191.13683240073067,89.59817992059888L191.3018901143755,120.53571137051574L191.46694782802035,163.85765738169826L191.5494766848428,100.58398918387502L191.63200554166522,184.31210841535366L191.71453439848764,189.23310209531624L191.87959211213249,153.27956515860893L191.9621209689549,-58.511619191723284L192.04464982577733,-27.61632699090865L192.2922363962446,94.10096868658354L192.952467250824,20.537295392391204L193.28258267811367,27.293666985791035L193.3651115349361,20.937667134688283L193.61269810540335,72.31183159152378L194.1078712463379,-25.46741087218675L194.1904001031603,47.16412140237703L194.35545781680514,15.73634811185809L194.76810210091728,103.09021996881025L194.93315981456212,60.224409384110665L195.01568867138454,124.7994220488963L195.34580409867422,114.52575834721392L195.42833295549667,93.39035276434413L195.84097723960878,95.33434264441337L196.00603495325362,79.2980882914574L196.088563810076,158.0074683737351L196.25362152372085,117.85731286102187L196.9963812351227,109.03992640447177L197.0789100919451,117.9699458103131L197.24396780558993,153.5449803040075L197.40902551923477,131.2853049406232L197.65661208970207,188.59734763177613L197.7391409465245,104.25959139286235L198.4819006579263,-94.00270526025683L198.97707379886083,174.21445168155998L199.55477579661778,169.4216978157864L199.88489122390746,197.93856741494787L199.96742008072988,149.73714758806014L200.29753550801956,50.26650262202399L201.04029521942138,85.89680101674887L201.3704106467111,142.6660640562077L201.45293950353349,100.60764558656334L201.53546836035594,117.83754870896792L201.94811264446804,155.39651787280224L202.44328578540257,119.24822452740723L202.69087235586986,185.91702571438117L202.8559300695147,-16.776090930346943L203.10351663998196,4.6480075770071565L203.2685743536268,34.57443226874436L203.43363206727165,-15.395023477628321L203.51616092409407,87.8700206389362L203.5986897809165,-55.70086901571654L203.92880520820617,-15.07086109405564L204.093862921851,36.271741299269976L204.34144949231828,-65.76447234269546L204.42397834914073,87.90997300147892L204.50650720596312,-33.54566347675218L205.90949777194433,-15.75901706419086L205.99202662876675,77.6492582270043L206.07455548558917,163.67204094677646L206.48719976970128,8.028631709707584L206.56972862652373,-10.21863303279106L206.73478634016854,43.498954059876425L207.3950171947479,131.19107309841667L207.56007490839275,49.91059643561223L207.72513262203762,123.87735241709602L207.80766147886004,192.27226074580676L208.0552480493273,173.8331928587204L208.63295004708428,119.43358349827929L208.88053661755154,49.55005589630507L209.04559433119638,110.04088605010267L209.21065204484123,170.73031185591805L209.62329632895336,-55.256243746751586L210.03594061306543,-10.705209796920284L210.11846946988786,62.753266715535204L210.2009983267103,24.45698866548059L210.531113754,28.97592194187864L210.61364261082238,-62.70634464971641L211.10881575175694,11.50815232739819L211.27387346540178,53.726289377548866L211.43893117904662,-52.72546300742602L211.6865177495139,29.037289255382504L211.7690466063363,38.95342626163414L211.85157546315875,122.09476220632848L211.93410431998117,83.61735062480643L212.18169089044844,58.87175384652855L212.34674860409328,87.48488471040636L212.75939288820538,92.16029554927277L213.00697945867267,104.18509341282152L213.1720371723175,148.6098488187251L213.50215259960717,140.31396336740494L213.58468145642962,176.77145589159923L213.99732574054173,122.7155988999275L214.3274411678314,-24.02240146546679L214.5750277382987,35.2674194760483L214.6575565951211,51.110212313037295L214.82261430876594,59.44445990776942L215.15272973605565,44.94650781720561L215.23525859287807,49.697628231641076L215.4003163065229,81.24026077823433L215.48284516334533,92.58585333361252L215.97801830427986,64.45181763147725L216.0605471611023,45.94081883237545L216.22560487474715,91.87794835636748L216.39066258839196,112.27270559284236L216.63824915885925,44.15892528903664L216.7207780156817,60.935646249058294L216.88583572932654,68.20094854408282L217.13342229979378,34.59883077369368L217.4635377270835,65.45874438508459L217.62859544072833,60.63985034578986L217.71112429755073,71.47731488158078L217.8761820111956,121.70002438323759L217.95871086801802,94.7974998108075L218.53641286577496,133.31645397400308L218.7014705794198,84.95448259468336L218.9490571498871,110.77387105478167L219.11411486353194,107.25794199146836L219.19664372035436,138.62212166170036L219.27917257717678,155.66050939345516L219.77434571811133,123.48281147827845L220.59963428633552,61.69630106661279L220.76469199998036,63.23575434475672L221.1773362840925,73.02736962059655L221.34239399773733,23.569888709613245L221.67250942502704,43.080650703761826L221.75503828184944,105.63876572756817L221.8375671386719,46.579026776860196L222.00262485231673,103.53807111086905L222.16768256596157,86.42113412652597L222.250211422784,81.21890640704962L222.58032685007367,114.4961651264374L223.0754999910082,11.900254930215233L223.24055770465307,-15.605689650095844L223.4056154182979,-47.7370818986788L223.7357308455876,0.29235194297950573L224.47849055698939,26.862702456406645L224.56101941381183,31.046962758024844L224.64354827063423,51.165854837670345L224.9736636979239,50.662164286705135L225.38630798203604,33.97955400933722L225.46883683885846,73.1163310222554L225.5513656956809,93.06394892904427L225.8814811229706,96.39495822486451L225.964009979793,53.41790802573114L226.21159655026028,82.56530708271737L226.37665426390512,68.21794117136598L226.6242408343724,143.9402990732264L227.03688511848452,145.08097082820404L227.20194283212933,-145.37550667212312L227.36700054577418,152.19562636423976L227.44952940259662,106.87851570686522L227.8621736867087,-45.07132941751061L228.43987568446568,-24.77758895820025L228.68746225493294,62.909441379121496L228.85251996857778,50.75156489174296L229.01757768222262,92.52590964485432L229.43022196633476,99.63072096722331L229.67780853680202,88.71532054908027L229.84286625044686,97.44801647820846L230.0079239640917,121.13028673104081L230.09045282091415,86.50717255397299L230.3380393913814,114.19038870500535L230.4205682482038,126.28776114069387L230.50309710502626,137.3487953413278L230.7506836754935,131.15186283813495L230.83321253231594,140.7563168947545L230.91574138913833,129.70365784820933L231.57597224371773,43.5149622657929L231.65850110054018,41.960061144664266L231.74102995736257,20.11914348571763L231.9060876710074,36.508138731767914L231.98861652782986,28.27122769278337L232.31873195511955,79.4225040072605L232.4837896687644,73.42560592577517L233.22654938016618,91.65194035552395L233.63919366427828,63.12015298642136L233.72172252110073,74.2175804877339L233.80425137792312,51.927706105808944L233.96930909156802,74.29082143741421L234.3819533756801,78.0867199374087L234.46448223250252,81.95104329485886L234.54701108932497,80.67777755426273L234.62953994614736,109.1345671601691L234.7945976597922,77.0315111020022L234.95965537343704,72.05642725417708L235.28977080072676,82.53600161587879L235.61988622801644,127.53837004491251L235.70241508483886,113.83969237936489L235.86747279848373,93.17037245125346L236.11505936895097,134.9492001078192L236.2801170825958,103.4899707683991L236.85781908035278,111.81541915060761L237.2704633644649,95.98092574298687L237.51804993493215,124.68057967252298L237.93069421904428,51.044695284849325L238.17828078951155,81.75531003727652L238.26080964633397,56.76089697233655L238.3433385031564,60.17665737535508L238.67345393044607,110.22733545695014L239.00356935773576,55.07505266449661L239.1686270713806,148.27735671589602L239.82885792596,104.01129003429978L239.91138678278242,110.31142018660793L239.99391563960484,125.43131455169028L240.32403106689452,136.53478488569974L240.65414649418423,-23.874162752590294L240.98426192147392,44.70235617332714L241.0667907782963,33.827756234596585L241.39690620558602,-25.471651456535486L241.47943506240844,12.572448129266261L241.56196391923086,85.97859885984717L241.64449277605328,132.4983846733555L241.974608203343,94.57836761458657L242.22219477381023,93.88448685558058L242.46978134427752,98.05201199396535L242.63483905792236,63.83617565370541L242.7998967715672,130.94708804892332L243.13001219885692,46.48582479085262L243.54265648296902,119.37413959267647L243.62518533979144,-94.39141539559492L243.70771419661386,-13.0802096412062L243.8727719102587,32.484778316296044L243.9553007670811,-68.5630762735319L244.120358480726,51.39530074082516L244.28541619437084,-14.08201740370687L244.36794505119323,-56.23242626383058L244.45047390801565,65.39401489398995L245.11070476259502,-82.0224183874257L245.27576247623986,58.81165870832931L245.52334904670715,-51.14339185657728L245.60587790352957,-173.51647875865743L245.688406760352,107.87494701420943L245.77093561717442,3.775295318037315L245.93599333081926,145.2553345696576L246.1010510444641,114.7202497193799L246.3486376149314,155.66163769179082L246.43116647175378,123.20153957640443L246.7612818990435,152.75349038026008L246.84381075586592,7.386546659532561L246.92633961268834,143.74523219318456L247.17392618315563,-0.902675016382458L247.83415703773497,-27.764293094791316L249.31967646053857,87.01096911954691L249.40220531736102,27.238660548810273L249.81484960147313,50.072753352119065L249.89737845829555,144.9492703942876L250.06243617194042,-15.92924623590439L250.22749388558526,-25.137947758178193L250.31002274240765,105.45584509269665L250.55760931287494,160.40186131894444L250.8877247401646,87.872352960328L250.97025359698705,-18.12347602738137L251.1353113106319,15.94292514941794L251.30036902427673,150.5199746037809L251.38289788109915,187.68503134397787L252.6208307334355,-15.61029371310306L252.70335959025792,8.291426779776382L253.19853273119244,-47.333772037225806L253.36359044483729,-13.796414047819509L253.44611930165973,63.62211701375888L253.52864815848213,-19.02563005768671L254.60152329717366,37.15790226860297L254.68405215399605,59.36231373095677L254.84910986764092,120.21956066237337L255.261754151753,19.786045585124427L255.67439843586513,106.82161615187165L255.83945614950997,141.05953382063322L256.3346292904445,37.79656456141078L256.49968700408937,125.55986483723336L256.6647447177342,69.39091709211452L256.82980243137905,-3.522386867478649L256.9123312882015,-15.053626147666867L257.0773890018463,75.1650481907943L257.4900332859584,113.51845297000405L257.57256214278084,174.81299501743993L257.65509099960326,178.665050970167L257.7376198564257,61.83704303215852L257.98520642689294,126.42292976680983L258.0677352837154,110.48655632021072L258.3153218541826,198.1717011119917L258.4803795678275,-10.055128216259076L258.5629084246499,21.90130963805029L258.8930238519396,30.011109161181476L258.97555270876205,71.60100364006693L259.38819699287416,33.65343792797534L259.553254706519,42.901531449860045L259.9658989906311,99.33871129998053L260.0484278474535,83.96763803695612L260.21348556109837,16.121120561729455L260.3785432747432,-95.81040578834654L260.46107213156563,-3.185987369071068L260.62612984521047,132.55336082044806L260.7911875588553,-91.21851931620613L261.2038318429674,108.4188625367112L261.4514184134347,26.425074151617103L261.6164761270795,17.887323942977943L261.699004983902,105.5045663778748L262.0291204111917,87.66077809121427L262.4417646953038,1.0757999014084567L263.01946669306074,-20.47248714758721L263.10199554988316,128.76907849258026L263.51463983399526,156.3903139598726L263.6796975476401,95.15903991642544L264.0923418317522,54.995723447287034L264.1748706885747,-12.60547622336522L264.25739954539705,-1.130939613897274L264.3399284022195,25.84053988903206L265.0826881136213,-29.03771028482852L265.4953323977334,189.48877904165678L265.7429189682007,132.5213898434474L265.8254478250231,-14.993288690361991L266.5682075364249,8.9991500176922L266.73326525006973,98.26263273160062L266.980851820537,100.91769288223233L267.14590953418184,62.91633232868819L267.6410826751164,81.98248419881592L268.21878467287337,50.159458157106606L268.3838423865182,51.70989151972496L268.46637124334063,23.242121829344157L268.6314289569855,58.886429297363996L268.87901552745274,19.580225794769714L269.2091309547424,40.716888408000045L269.4567175252097,-25.81544168766514L269.5392463820321,41.46989502878272L269.70430409567695,91.75954518337312L269.8693618093218,117.9359151209145L269.95189066614427,75.88976405599325L270.4470638070788,75.00051351806334L270.5295926639012,78.74852370480535L270.69465037754605,100.54315841457435L270.8597080911909,123.00862327842515L271.10729466165816,61.45366391714458L271.6849966594151,-37.89741171520132L272.0151120867048,83.72916574711613L272.0976409435272,36.09336414762924L272.3452275139945,46.62493110243526" fill="none"></path></g></g></g></g></g></g><g transform="translate(41, 177)" clip-path="url(#clip_1)"><clipPath id="clip_1"><rect width="288" height="22"></rect></clipPath><g><g><line x1="0" y1="0" x2="0" y2="5" style="visibility: inherit;" fill="rgb(0, 0, 0)" stroke="rgb(204, 204, 204)" stroke-width="1px"></line><line x1="41.264428411211284" y1="0" x2="41.264428411211284" y2="5" style="visibility: inherit;" fill="rgb(0, 0, 0)" stroke="rgb(204, 204, 204)" stroke-width="1px"></line><line x1="82.52885682242257" y1="0" x2="82.52885682242257" y2="5" style="visibility: inherit;" fill="rgb(0, 0, 0)" stroke="rgb(204, 204, 204)" stroke-width="1px"></line><line x1="123.79328523363385" y1="0" x2="123.79328523363385" y2="5" style="visibility: inherit;" fill="rgb(0, 0, 0)" stroke="rgb(204, 204, 204)" stroke-width="1px"></line><line x1="165.05771364484514" y1="0" x2="165.05771364484514" y2="5" style="visibility: inherit;" fill="rgb(0, 0, 0)" stroke="rgb(204, 204, 204)" stroke-width="1px"></line><line x1="206.32214205605644" y1="0" x2="206.32214205605644" y2="5" style="visibility: inherit;" fill="rgb(0, 0, 0)" stroke="rgb(204, 204, 204)" stroke-width="1px"></line><line x1="247.5865704672677" y1="0" x2="247.5865704672677" y2="5" style="visibility: inherit;" fill="rgb(0, 0, 0)" stroke="rgb(204, 204, 204)" stroke-width="1px"></line><line x1="288.850998878479" y1="0" x2="288.850998878479" y2="5" style="visibility: inherit;" fill="rgb(0, 0, 0)" stroke="rgb(204, 204, 204)" stroke-width="1px"></line></g><g transform="translate(0, 8)"><text style="text-anchor: middle; visibility: hidden; font-family: Roboto, sans-serif; font-size: 12px; font-weight: 200;" x="0" y="0" dx="0em" dy="0.95em" fill="rgb(50, 49, 63)" stroke="none" stroke-width="1px">-500</text><text style="text-anchor: middle; visibility: hidden; font-family: Roboto, sans-serif; font-size: 12px; font-weight: 200;" x="41.264428411211284" y="0" dx="0em" dy="0.95em" fill="rgb(50, 49, 63)" stroke="none" stroke-width="1px">0</text><text style="text-anchor: middle; visibility: hidden; font-family: Roboto, sans-serif; font-size: 12px; font-weight: 200;" x="82.52885682242257" y="0" dx="0em" dy="0.95em" fill="rgb(50, 49, 63)" stroke="none" stroke-width="1px">500</text><text style="text-anchor: middle; visibility: hidden; font-family: Roboto, sans-serif; font-size: 12px; font-weight: 200;" x="123.79328523363385" y="0" dx="0em" dy="0.95em" fill="rgb(50, 49, 63)" stroke="none" stroke-width="1px">1k</text><text style="text-anchor: middle; visibility: hidden; font-family: Roboto, sans-serif; font-size: 12px; font-weight: 200;" x="165.05771364484514" y="0" dx="0em" dy="0.95em" fill="rgb(50, 49, 63)" stroke="none" stroke-width="1px">1.5k</text><text style="text-anchor: middle; visibility: hidden; font-family: Roboto, sans-serif; font-size: 12px; font-weight: 200;" x="206.32214205605644" y="0" dx="0em" dy="0.95em" fill="rgb(50, 49, 63)" stroke="none" stroke-width="1px">2k</text><text style="text-anchor: middle; visibility: hidden; font-family: Roboto, sans-serif; font-size: 12px; font-weight: 200;" x="247.5865704672677" y="0" dx="0em" dy="0.95em" fill="rgb(50, 49, 63)" stroke="none" stroke-width="1px">2.5k</text><text style="text-anchor: middle; visibility: hidden; font-family: Roboto, sans-serif; font-size: 12px; font-weight: 200;" x="288.850998878479" y="0" dx="0em" dy="0.95em" fill="rgb(50, 49, 63)" stroke="none" stroke-width="1px">3k</text></g><line x1="0" y1="0" x2="288.850998878479" y2="0" fill="rgb(0, 0, 0)" stroke="rgb(204, 204, 204)" stroke-width="1px"></line></g></g></g></g></svg>