<svg viewBox="0 0 330 200" xmlns="http://www.w3.org/2000/svg"><g><g><g><g><g><line x1="51.53200149536133" y1="177.86299896240234" x2="46.53200149536133" y2="177.86299896240234" style="visibility: inherit;" fill="rgb(0, 0, 0)" stroke="rgb(204, 204, 204)" stroke-width="1px"></line><line x1="51.53200149536133" y1="160.07669906616212" x2="46.53200149536133" y2="160.07669906616212" style="visibility: inherit;" fill="rgb(0, 0, 0)" stroke="rgb(204, 204, 204)" stroke-width="1px"></line><line x1="51.53200149536133" y1="142.29039916992187" x2="46.53200149536133" y2="142.29039916992187" style="visibility: inherit;" fill="rgb(0, 0, 0)" stroke="rgb(204, 204, 204)" stroke-width="1px"></line><line x1="51.53200149536133" y1="124.50409927368163" x2="46.53200149536133" y2="124.50409927368163" style="visibility: inherit;" fill="rgb(0, 0, 0)" stroke="rgb(204, 204, 204)" stroke-width="1px"></line><line x1="51.53200149536133" y1="106.71779937744141" x2="46.53200149536133" y2="106.71779937744141" style="visibility: inherit;" fill="rgb(0, 0, 0)" stroke="rgb(204, 204, 204)" stroke-width="1px"></line><line x1="51.53200149536133" y1="88.93149948120117" x2="46.53200149536133" y2="88.93149948120117" style="visibility: inherit;" fill="rgb(0, 0, 0)" stroke="rgb(204, 204, 204)" stroke-width="1px"></line><line x1="51.53200149536133" y1="71.14519958496093" x2="46.53200149536133" y2="71.14519958496093" style="visibility: inherit;" fill="rgb(0, 0, 0)" stroke="rgb(204, 204, 204)" stroke-width="1px"></line><line x1="51.53200149536133" y1="53.35889968872071" x2="46.53200149536133" y2="53.35889968872071" style="visibility: inherit;" fill="rgb(0, 0, 0)" stroke="rgb(204, 204, 204)" stroke-width="1px"></line><line x1="51.53200149536133" y1="35.57259979248046" x2="46.53200149536133" y2="35.57259979248046" style="visibility: inherit;" fill="rgb(0, 0, 0)" stroke="rgb(204, 204, 204)" stroke-width="1px"></line><line x1="51.53200149536133" y1="17.78629989624023" x2="46.53200149536133" y2="17.78629989624023" style="visibility: inherit;" fill="rgb(0, 0, 0)" stroke="rgb(204, 204, 204)" stroke-width="1px"></line><line x1="51.53200149536133" y1="0" x2="46.53200149536133" y2="0" style="visibility: inherit;" fill="rgb(0, 0, 0)" stroke="rgb(204, 204, 204)" stroke-width="1px"></line></g><g transform="translate(41.53200149536133, 0)"><text style="text-anchor: end; visibility: hidden; font-family: Roboto, sans-serif; font-size: 12px; font-weight: 200;" x="0" y="177.86299896240234" dx="0em" dy="0.3em" fill="rgb(50, 49, 63)" stroke="none" stroke-width="1px">0</text><text style="text-anchor: end; visibility: inherit; font-family: Roboto, sans-serif; font-size: 12px; font-weight: 200;" x="0" y="160.07669906616212" dx="0em" dy="0.3em" fill="rgb(50, 49, 63)" stroke="none" stroke-width="1px">0.05</text><text style="text-anchor: end; visibility: hidden; font-family: Roboto, sans-serif; font-size: 12px; font-weight: 200;" x="0" y="142.29039916992187" dx="0em" dy="0.3em" fill="rgb(50, 49, 63)" stroke="none" stroke-width="1px">0.1</text><text style="text-anchor: end; visibility: inherit; font-family: Roboto, sans-serif; font-size: 12px; font-weight: 200;" x="0" y="124.50409927368163" dx="0em" dy="0.3em" fill="rgb(50, 49, 63)" stroke="none" stroke-width="1px">0.15</text><text style="text-anchor: end; visibility: hidden; font-family: Roboto, sans-serif; font-size: 12px; font-weight: 200;" x="0" y="106.71779937744141" dx="0em" dy="0.3em" fill="rgb(50, 49, 63)" stroke="none" stroke-width="1px">0.2</text><text style="text-anchor: end; visibility: inherit; font-family: Roboto, sans-serif; font-size: 12px; font-weight: 200;" x="0" y="88.93149948120117" dx="0em" dy="0.3em" fill="rgb(50, 49, 63)" stroke="none" stroke-width="1px">0.25</text><text style="text-anchor: end; visibility: hidden; font-family: Roboto, sans-serif; font-size: 12px; font-weight: 200;" x="0" y="71.14519958496093" dx="0em" dy="0.3em" fill="rgb(50, 49, 63)" stroke="none" stroke-width="1px">0.3</text><text style="text-anchor: end; visibility: inherit; font-family: Roboto, sans-serif; font-size: 12px; font-weight: 200;" x="0" y="53.35889968872071" dx="0em" dy="0.3em" fill="rgb(50, 49, 63)" stroke="none" stroke-width="1px">0.35</text><text style="text-anchor: end; visibility: hidden; font-family: Roboto, sans-serif; font-size: 12px; font-weight: 200;" x="0" y="35.57259979248046" dx="0em" dy="0.3em" fill="rgb(50, 49, 63)" stroke="none" stroke-width="1px">0.4</text><text style="text-anchor: end; visibility: inherit; font-family: Roboto, sans-serif; font-size: 12px; font-weight: 200;" x="0" y="17.78629989624023" dx="0em" dy="0.3em" fill="rgb(50, 49, 63)" stroke="none" stroke-width="1px">0.45</text><text style="text-anchor: end; visibility: hidden; font-family: Roboto, sans-serif; font-size: 12px; font-weight: 200;" x="0" y="0" dx="0em" dy="0.3em" fill="rgb(50, 49, 63)" stroke="none" stroke-width="1px">0.5</text></g><line x1="51.53200149536133" y1="0" x2="51.53200149536133" y2="177.86299896240234" fill="rgb(0, 0, 0)" stroke="rgb(204, 204, 204)" stroke-width="1px"></line></g></g><g transform="translate(51, 0)" clip-path="url(#clip_0)"><clipPath id="clip_0"><rect width="278" height="177"></rect></clipPath><g><g><g><line x1="0" y1="0" x2="0" y2="177.86299896240234" fill="rgb(0, 0, 0)" stroke="rgb(60, 60, 60)" stroke-width="1px" opacity="0.25"></line><line x1="39.78114264351981" y1="0" x2="39.78114264351981" y2="177.86299896240234" fill="rgb(0, 0, 0)" stroke="rgb(60, 60, 60)" stroke-width="1px" opacity="0.25"></line><line x1="79.56228528703961" y1="0" x2="79.56228528703961" y2="177.86299896240234" fill="rgb(0, 0, 0)" stroke="rgb(60, 60, 60)" stroke-width="1px" opacity="0.25"></line><line x1="119.34342793055943" y1="0" x2="119.34342793055943" y2="177.86299896240234" fill="rgb(0, 0, 0)" stroke="rgb(60, 60, 60)" stroke-width="1px" opacity="0.25"></line><line x1="159.12457057407923" y1="0" x2="159.12457057407923" y2="177.86299896240234" fill="rgb(0, 0, 0)" stroke="rgb(60, 60, 60)" stroke-width="1px" opacity="0.25"></line><line x1="198.90571321759904" y1="0" x2="198.90571321759904" y2="177.86299896240234" fill="rgb(0, 0, 0)" stroke="rgb(60, 60, 60)" stroke-width="1px" opacity="0.25"></line><line x1="238.68685586111886" y1="0" x2="238.68685586111886" y2="177.86299896240234" fill="rgb(0, 0, 0)" stroke="rgb(60, 60, 60)" stroke-width="1px" opacity="0.25"></line><line x1="278.4679985046387" y1="0" x2="278.4679985046387" y2="177.86299896240234" fill="rgb(0, 0, 0)" stroke="rgb(60, 60, 60)" stroke-width="1px" opacity="0.25"></line></g><g><line x1="0" y1="177.86299896240234" x2="278.4679985046387" y2="177.86299896240234" fill="rgb(0, 0, 0)" stroke="rgb(60, 60, 60)" stroke-width="1px" opacity="0.25"></line><line x1="0" y1="160.07669906616212" x2="278.4679985046387" y2="160.07669906616212" fill="rgb(0, 0, 0)" stroke="rgb(60, 60, 60)" stroke-width="1px" opacity="0.25"></line><line x1="0" y1="142.29039916992187" x2="278.4679985046387" y2="142.29039916992187" fill="rgb(0, 0, 0)" stroke="rgb(60, 60, 60)" stroke-width="1px" opacity="0.25"></line><line x1="0" y1="124.50409927368163" x2="278.4679985046387" y2="124.50409927368163" fill="rgb(0, 0, 0)" stroke="rgb(60, 60, 60)" stroke-width="1px" opacity="0.25"></line><line x1="0" y1="106.71779937744141" x2="278.4679985046387" y2="106.71779937744141" fill="rgb(0, 0, 0)" stroke="rgb(60, 60, 60)" stroke-width="1px" opacity="0.25"></line><line x1="0" y1="88.93149948120117" x2="278.4679985046387" y2="88.93149948120117" fill="rgb(0, 0, 0)" stroke="rgb(60, 60, 60)" stroke-width="1px" opacity="0.25"></line><line x1="0" y1="71.14519958496093" x2="278.4679985046387" y2="71.14519958496093" fill="rgb(0, 0, 0)" stroke="rgb(60, 60, 60)" stroke-width="1px" opacity="0.25"></line><line x1="0" y1="53.35889968872071" x2="278.4679985046387" y2="53.35889968872071" fill="rgb(0, 0, 0)" stroke="rgb(60, 60, 60)" stroke-width="1px" opacity="0.25"></line><line x1="0" y1="35.57259979248046" x2="278.4679985046387" y2="35.57259979248046" fill="rgb(0, 0, 0)" stroke="rgb(60, 60, 60)" stroke-width="1px" opacity="0.25"></line><line x1="0" y1="17.78629989624023" x2="278.4679985046387" y2="17.78629989624023" fill="rgb(0, 0, 0)" stroke="rgb(60, 60, 60)" stroke-width="1px" opacity="0.25"></line><line x1="0" y1="0" x2="278.4679985046387" y2="0" fill="rgb(0, 0, 0)" stroke="rgb(60, 60, 60)" stroke-width="1px" opacity="0.25"></line></g></g></g><g><g><line x1="0" y1="177.86299896240234" x2="278.4679985046387" y2="177.86299896240234" fill="rgb(0, 0, 0)" stroke="rgb(153, 153, 153)" stroke-width="1.5px"></line></g></g><g><g><line x1="39.78114264351981" y1="0" x2="39.78114264351981" y2="177.86299896240234" fill="rgb(0, 0, 0)" stroke="rgb(153, 153, 153)" stroke-width="1.5px"></line></g></g><g><g><g><g><g><path style="fill: none;" stroke="rgb(255, 112, 67)" stroke-width="2px" d="M40.25851635524205,-45.36236299310599L40.81545235225133,36.334233449407954L41.213263778686525,72.56305717152884L41.3723883492606,104.32387536221451L41.61107520512172,102.43589566763723L41.7701997756958,17.59572853912788L41.84976206098284,39.91532804036301L42.00888663155692,67.98178609191199L42.168011202131005,88.76989523536375L42.406698057992116,79.4425676418269L42.565822628566195,104.14587497780994L43.12275862557547,101.40829233343587L43.44100776672363,107.02421720448328L43.52057005201067,115.98112925901742L43.600132337297715,119.03394234218347L43.83881919315883,130.47069756218946L44.55487976074219,118.99521155456594L44.63444204602923,92.94602811844537L44.71400433131626,108.62288849216127L44.952691187177386,118.50527729405735L45.191378043038505,69.9175294846397L45.50962718418666,57.017610622213134L45.82787632533482,-15.121638136560684L45.90743861062187,34.559834707752394L45.9870008959089,13.6846724473731L46.14612546648298,-1.8657229013969894L46.30525003705706,-36.45174933852348L46.3848123223441,23.304587493908883L46.54393689291818,28.026220397365506L46.623499178205215,60.53341328712363L46.7826237487793,32.26022052181994L46.94174831935337,-59.12970972929101L47.498684316362656,9.597637089806797L47.737371172223774,43.563246006597154L47.81693345751081,7.870866848449424L47.97605802808489,23.518961218694187L48.29430716923305,59.719330120860214L48.69211859566825,91.05224793854596L48.771680880955294,-16.651313748054687L49.72642830439976,-16.87393514050547L49.8059905896868,34.33729863733731L50.12423973083496,58.74315319404247L50.36292658669608,-7.639985730710491L50.52205115727016,33.732378807472024L50.681175727844234,69.63285477691565L51.3972362954276,86.97205281087992L51.87461000714983,21.296808363505253L52.27242143358503,-10.223718050240667L52.35198371887207,32.350732323750215L52.59067057473319,46.3862976034865L52.74979514530727,75.98330852000068L52.908919715881346,52.329528855067615L53.38629342760359,65.88453668596318L53.46585571289063,76.44409280111091L54.18191628047398,65.06956025132125L54.341040851048064,82.03415846819414L54.500165421622135,102.56215679426235L54.738852277483254,124.77146198842118L55.454912845066616,101.55679167062546L55.693599700927734,114.53741257441837L55.773161986214774,107.95235203045168L55.93228655678885,74.48923608585811L56.17097341264997,65.05967736682678L56.72790940965925,78.90887185290094L56.88703398023333,30.504291872676937L56.966596265520366,-2.288311562188868L57.28484540666852,-10.075802497524808L57.36440769195556,52.80141601140413L57.44396997724261,36.175792685984206L57.52353226252965,33.972226678931776L57.76221911839077,34.591057658713304L57.84178140367781,21.37018085695307L58.160030544825965,45.11240272787509L58.239592830113,53.19335952487623L58.319155115400044,92.00638719444713L58.71696654183524,5.753114531923416L58.87609111240932,36.39901672672343L58.95565339769636,64.6738960299473L59.27390253884452,78.50563394114332L59.671713965279714,70.07359107920708L59.751276250566754,103.29372272330129L59.91040082114083,114.59887882748963L60.06952539171491,109.62250344567103L60.14908767700195,-165.2021034447459L61.26295967102051,-36.096247937353546L61.34252195630754,17.726814075171383L61.6607710974557,-37.000397100059736L61.74033338274275,46.73538947789803L61.81989566802979,67.03093875327414L61.899457953316826,21.045795821736373L62.138144809177945,3.5150808529233726L62.217707094464984,54.16095345776651L62.61551852090018,78.05082044940012L63.2520168031965,55.65411359677831L63.411141373770576,-45.304364035122795L63.49070365905762,27.74106961408361L63.649828229631694,73.596056382519L63.80895280020578,108.28588601538779L63.88851508549281,104.8290128945559L64.12720194135393,117.22490989800987L64.20676422664097,107.83605747848274L64.28632651192801,111.95707808501221L64.44545108250209,128.23013789826283L64.92282479422433,-259.44515121024676L65.47976079123362,-28.136308635828282L65.63888536180768,28.798633299371158L65.71844764709472,41.41677691892294L65.8775722176688,22.539694024138093L66.67319507053921,37.05130776177743L66.83231964111327,10.281131765570594L67.0710064969744,52.60004990077509L67.30969335283552,90.9230871367278L67.4688179234096,83.62070870889183L67.70750477927072,101.00019644681365L67.8666293498448,45.27977713881873L68.02575392041888,75.66462645352881L68.18487849099296,63.139752402838226L68.42356534685408,19.52683674147244L68.50312763214112,57.23475707489255L68.6622522027152,-30.168517808918278L69.21918819972447,37.06046141001736L69.29875048501151,72.16924448435438L69.37831277029855,111.63039451481629L69.45787505558559,116.63123884823803L70.25349790845598,103.59879148155393L70.49218476431712,68.17881829663771L70.57174704960416,60.83239319927303L70.8899961907523,66.83947691011474L71.2878076171875,79.7957231533183L71.44693218776158,116.02790259571117L71.60605675833565,94.9561031388213L71.84474361419677,114.51551425915785L72.08343047005789,70.81085310645688L72.56080418178013,96.84520034259715L72.64036646706717,116.96214797581987L72.79949103764126,113.1504842934523L72.8790533229283,94.31916429126491L73.35642703465052,121.63656986748941L73.43598931993758,113.31911174646936L73.6746761757987,88.71234884688708L73.99292531694685,91.47284093445225L74.07248760223389,20.330439471602595L74.15204988752093,60.451200854607684L74.23161217280797,89.42932468094148L74.62942359924317,109.48494076697689L74.86811045510429,124.02955054524476L74.94767274039131,124.5112189251357L75.02723502567835,122.81829804600156L75.42504645211356,58.83712782019854L75.82285787854876,98.2874968592042L75.98198244912284,89.42186137058384L76.06154473440988,42.71759967785461L76.14110701969692,61.77610919113528L76.22066930498394,-23.325598747596956L76.37979387555804,-69.61489749125259L77.01629215785435,15.520115685747973L77.33454129900251,60.77175342994639L77.41410358428956,83.14086445882735L78.20972643715994,107.83727307309312L78.60753786359516,122.63372025302887L78.76666243416922,108.55591456961668L78.84622471945626,118.70535968947205L78.9257870047433,120.43591808010223L79.00534929003034,118.06384160281996L79.32359843117851,122.83027136822724L79.72140985761371,108.52821933161577L79.80097214290075,108.98666296877087L80.03965899876185,84.0332334068827L80.43747042519706,52.13504438397583L80.5170327104841,68.45269989376209L80.83528185163225,96.02867182892432L80.9148441369193,96.41438987504164L80.99440642220634,96.55939547339263L81.15353099278042,75.04346912798417L81.39221784864152,37.161832990372865L81.7104669897897,54.732714592973785L81.79002927507673,61.75580025839146L82.10827841622489,89.38721857744868L82.18784070151193,97.31076339542263L82.58565212794713,116.56299443200959L82.7447766985212,127.39441328966123L83.1425881249564,117.95148532130511L83.22215041024344,110.68351067610074L83.30171269553048,134.09421048475187L83.5403995513916,124.27428929945879L83.61996183667864,104.79537711740274L83.69952412196568,90.57767736786278L83.9382109778268,-73.54994336961526L84.01777326311384,19.04249449686913L84.09733554840088,68.53432286336147L84.17689783368792,108.97160719707456L84.57470926012311,44.83257521298017L84.7338338306972,83.2054548118541L84.81339611598423,6.015677339661185L84.89295840127129,31.246405637607722L84.97252068655833,-96.50776193691026L85.68858125414167,-54.508517411790976L86.08639268057688,22.485222351492965L86.16595496586392,51.14300620533886L86.40464182172502,80.18212899261883L86.5637663922991,75.18988651932207L86.9615778187343,48.4045575168627L87.12070238930838,90.26506425247666L87.35938924516951,75.2802187912591L87.51851381574357,54.05683284989375L87.59807610103061,65.11430717333705L87.67763838631765,-34.221808166622424L87.7572006716047,43.339784984449885L87.91632524217879,66.34296180135561L87.99588752746583,15.785614643882653L88.15501209803989,27.95905709326638L88.31413666861397,0.3666288172255578L88.39369895390102,46.48607983794477L88.47326123918806,78.86684515942139L88.71194809504918,115.66218183251327L88.9506349509103,113.17510036004441L89.3484463773455,68.92696047296938L89.66669551849365,81.04009257200327L89.7462578037807,75.45676858709433L89.90538237435477,74.30414323163951L90.14406923021589,60.45257602322327L90.46231837136405,87.87986423414692L90.54188065665109,72.01735716790304L90.70100522722517,48.13635765133603L90.7805675125122,-28.745877813742727L90.86012979779925,16.729523558932524L90.93969208308629,58.18640078137632L91.25794122423446,93.5745259344896L91.33750350952148,116.96465201361688L91.49662808009556,32.279934059503624L91.5761903653826,-30.372796356158798L91.89443950653077,36.62947340155121L92.53093778882707,35.25324892191453L92.84918692997523,51.76253538456464L92.92874921526229,72.01645825567918L93.16743607112339,103.02084705194375L93.24699835641043,96.63720464322887L93.32656064169747,92.61833015681859L93.48568521227155,98.32140602212199L93.5652474975586,42.79180136412088L93.72437206813268,77.46961621919154L93.88349663870675,113.25330774481755L93.96305892399378,102.73679412256892L94.12218349456788,102.35286086327027L94.28130806514196,113.14829373209481L94.51999492100306,96.23778724009364L94.7586817768642,102.44784759727858L95.07693091801234,119.56338471285517L95.15649320329938,115.88513033859662L95.71342920030865,54.91500524135788L95.87255377088275,13.220685240227434L95.95211605616979,51.80162516264734L96.34992748260497,32.05038964204681L96.66817662375314,44.48637389877873L96.82730119432722,93.94152004227244L97.14555033547538,83.1383162565544L97.54336176191059,74.19222434474796L97.94117318834577,48.26039395268179L98.02073547363281,95.5307358981842L98.10029775891987,120.78734487710457L98.33898461478097,128.5680694984645L98.49810918535505,90.6006006018342L98.65723375592913,87.49273709302268L98.73679604121618,-21.32631594409379L98.89592061179025,50.72001516470784L99.13460746765136,65.61028543388493L99.2141697529384,48.885562223903676L99.29373203822546,54.475068037976556L99.45285660879952,84.0219111576676L99.6119811793736,102.56266141115223L99.69154346466064,115.36188476549451L99.85066803523473,123.97908512768538L100.00979260580881,87.4111591719549L100.32804174695696,114.00906922328842L100.48716631753105,31.703048296964962L100.80541545867919,77.81403885219056L100.88497774396623,107.19383668323782L101.12366459982736,108.23562065282604L101.28278917040144,112.60235367234868L101.52147602626255,104.3419339664584L101.68060059683664,85.10480617096995L101.83972516741072,105.14798558131585L102.07841202327182,110.17869101490614L102.31709887913296,97.10667070630737L102.39666116442,79.56142558967532L102.7944725908552,111.57812122322349L103.19228401729038,132.26115381353276L103.51053315843855,142.6413295146081L103.59009544372559,142.91278469417014L103.66965772901263,153.89071425702764L103.82878229958669,144.20204194501733L103.90834458487375,27.777809576807538L103.98790687016078,76.77528325713679L104.38571829659598,109.12746062161324L104.6244051524571,122.34165552386698L104.70396743774414,133.74785448669576L104.78352972303118,144.32663073189346L104.86309200831822,142.0753717299813L105.02221657889231,116.17981939773854L105.26090343475342,132.53056384676464L105.49959029061453,137.193695940829L106.2156508581979,149.65859229859032L106.45433771405901,146.67196009204528L107.01127371106828,156.8075232528198L107.09083599635532,130.06771680490738L107.17039828164236,137.22307125047973L107.48864742279054,112.86954006210507L107.6477719933646,107.66477395386724L107.80689656393868,114.89175372755544L107.88645884922573,135.43996430401867L108.20470799037388,137.43604800340847L108.68208170209613,147.35812168080284L108.84120627267019,115.17253194998578L109.07989312853132,93.5415233451405L109.15945541381836,113.84411822187438L109.39814226967948,130.17507633169188L109.6368291255406,117.06138382760241L109.79595369611468,135.60452948712808L109.95507826668876,149.84132466815788L110.35288969312396,141.48985805653922L110.432451978411,147.17284023422056L110.67113883427211,145.84499781940946L110.98938797542027,157.04778127187632L111.14851254599435,145.23114145831138L111.46676168714251,143.55355319345531L111.54632397242955,128.7688921835579L111.78501082829067,110.05792561098662L111.94413539886476,108.20539060246364L112.02369768415178,86.99757074531664L112.2623845400129,120.28172394379311L112.34194682529994,137.65643677183863L112.58063368116107,122.86374865750967L112.6601959664481,133.99310729611895L112.73975825173514,127.70197023680828L113.21713196345739,141.75522301474408L113.61494338989257,145.27481710301865L113.77406796046667,151.16978649934805L113.85363024575369,154.48350455162304L114.96750223977226,162.0186115975763L115.0470645250593,164.05197226681977L115.20618909563336,149.5531493613483L115.76312509264264,123.00939610748227L115.84268737792968,139.7385219370555L115.92224966321672,110.51461191093978L116.24049880436489,70.58001940130978L116.32006108965193,95.25044210845562L116.63831023080009,125.62814418562901L116.95655937194823,52.51602350487281L117.03612165723527,45.640479403541434L117.19524622780936,82.0809708362178L117.35437079838344,66.62740888848523L117.43393308367048,104.08578663306436L117.51349536895752,64.69422798961368L117.59305765424455,83.5523015021902L118.22955593654086,-44.46821931910658L118.54780507768903,7.274818200530501L118.70692964826311,9.167594408569546L118.94561650412423,61.294410468367445L119.34342793055943,17.3440412854079L119.82080164228167,46.95023711594748L119.9003639275687,75.50706445516767L119.97992621285576,74.77653736953839L120.13905078342982,100.67134773949036L120.37773763929094,115.38546200422067L121.17336049216135,19.669854722779462L121.33248506273543,75.99251486129658L121.4916096333095,61.650488478622385L121.73029648917063,90.52744361870108L121.96898334503175,94.97230955012732L122.12810791560581,103.05532040152593L122.20767020089285,111.36317078772262L122.60548162732806,134.50338262134616L122.68504391261509,120.19864137063786L122.92373076847622,140.39999795744913L123.00329305376326,90.09940923599787L123.0828553390503,85.20122058282594L123.3215421949114,38.91118252463437L123.40110448019844,85.93151409495543L123.71935362134661,111.91634133731716L123.87847819192068,122.2197484714433L124.35585190364293,132.48024471895747L124.514976474217,135.48547979384384L124.75366333007813,137.8543179713353L125.07191247122628,147.02807589920818L125.39016161237444,151.02272185318716L125.54928618294852,148.70186251804415L125.86753532409668,145.62611162863897L125.94709760938372,127.86339663016878L126.34490903581893,124.56461691394544L126.504033606393,123.96379131231934L127.45878102983748,128.55158294087138L127.77703017098563,134.53063230951219L127.85659245627267,114.73635551243511L127.9361547415597,117.43427922586527L128.17484159742082,128.88629974923649L128.3339661679949,135.41487072758918L128.57265302385602,143.81577450288793L128.89090216500418,150.06393288648977L129.05002673557826,147.39760300438758L129.1295890208653,146.15040012240888L129.44783816201345,152.72745674381585L129.5274004473005,146.68203011475293L129.76608730316164,143.7675909228316L130.08433644430977,153.51937652429567L130.1638987295968,142.20913458652885L130.32302330017092,151.0124249141559L130.48214787074497,147.89781098838816L130.72083472660609,120.36576189576253L131.11864615304128,102.19954884731902L131.27777072361536,105.72635258141757L131.43689529418944,105.84142180407001L131.6755821500506,80.90598918345526L132.07339357648578,85.18886607590376L132.15295586177282,94.20870759151144L132.3120804323469,118.84005445281161L132.47120500292095,86.25530686391723L132.550767288208,108.35576826389216L132.63032957349506,111.92195902747386L132.86901642935618,123.62757093774822L133.26682785579138,129.1958822785224L133.42595242636546,100.96075182222992L133.5055147116525,73.14484340657351L133.82376385280065,79.07139059449088L134.22157527923582,70.31853092725098L134.539824420384,106.0689615860689L134.85807356153214,62.32564236459037L134.9376358468192,52.22720659046493L135.3354472732544,86.47674719535405L135.49457184382848,62.73307718810303L135.65369641440256,58.42247101998489L135.81282098497664,93.14432845866597L136.05150784083776,114.19936436245091L136.1310701261248,127.11317407708125L136.44931926727295,143.1137117887986L136.9266929789952,126.16810944107644L137.08581754956927,142.04257036230146L137.24494212014335,142.10403468284278L137.40406669071743,141.50319723846724L137.48362897600447,124.3486099819572L137.88144040243967,106.97999738082873L138.27925182887486,120.79318523268311L138.51793868473598,102.08470576506477L138.67706325531006,73.94145485671109L138.83618782588414,102.00361416109163L138.91575011117118,125.20321958433364L139.07487468174526,137.72702593666457L139.23399925231934,143.73709708890215L139.47268610818045,87.94894927383963L139.63181067875453,74.70298215652943L139.71137296404157,72.6743713548497L139.7909352493286,105.84665724966501L139.87049753461568,121.72176413528302L140.42743353162496,129.40553049746575L140.586558102199,139.62229232574515L140.82524495806013,147.38163122629018L140.90480724334716,125.6122330350071L140.98436952863423,123.78244117873038L141.46174324035644,138.37347612275812L141.85955466679164,146.31719187716078L142.09824152265276,135.7545257516824L142.1778038079398,134.54538489343997L142.81430209023614,119.96446951249588L142.89386437552315,119.16365739500499L142.97342666081022,136.88827119117792L143.05298894609723,143.67798820425153L143.2121135166713,143.66838587873966L143.6099249431065,149.74018809627032L143.76904951368059,139.9796341278157L143.84861179896762,122.79497079285514L144.48511008126397,138.7815587081711L144.56467236655098,147.30358658266854L144.88292150769914,152.9256405646866L145.04204607827324,155.98208858129382L145.20117064884732,155.9168058598733L145.28073293413433,158.13213918551511L145.4398575047084,147.21973901933126L145.7581066458566,116.36117302818612L145.8376689311436,135.38456972027257L145.9967935017177,127.66600128944405L146.1559180722918,137.41589880521838L146.2354803575788,141.40588521494476L146.3946049281529,142.1908689609015L146.47416721343996,103.39023267341366L146.55372949872697,56.674651631392265L146.63329178401403,96.85660289238226L146.95154092516216,125.50000309174378L147.03110321044923,120.76712954463387L147.26979006631032,78.63687541642545L147.3493523515974,101.97875265617137L147.42891463688443,120.4837241946678L147.7471637780326,115.81895293532199L147.8267260633196,38.91638543538492L147.9858506338937,86.16079415581952L148.38366206032887,117.89756447428934L149.02016034262522,109.80597790280558L149.25884719848634,133.18338998446276L149.41797176906041,132.3352418174937L149.5770963396345,85.26896463078815L149.65665862492153,101.08623417895771L149.9749077660697,118.308118344746L150.13403233664377,86.3764705155132L150.3727191925049,108.83478758553865L150.45228147779193,127.28390163737238L150.61140604836598,-33.05571607050684L151.16834204537525,43.08003453686991L151.32746661594936,82.4703299457619L151.4070289012364,112.10310264219275L151.72527804238456,132.72169913246555L151.8048403276716,133.87374232264312L152.04352718353272,131.66405445342124L152.12308946881976,78.81243216134848L152.2026517541068,116.1047344458619L152.36177632468087,125.10092218563695L152.4413386099679,142.95993860603284L152.600463180542,148.4311015457296L152.75958775111607,142.44627573307594L152.8391500364031,143.48078066153L153.15739917755127,113.98199329973706L153.3960860334124,131.98671730147956L153.71433517456055,146.89370108064378L153.79389745984759,121.34216303759031L154.0325843157087,140.88868737282695L154.19170888628278,132.65269628559543L154.35083345685686,143.1256321017879L154.4303957421439,57.123292929255534L154.50995802743094,53.976044445021955L155.2260185950143,77.02790769346728L155.3851431655884,112.61838838328623L155.6238300214495,136.3114815123785L155.78295459202357,144.22341774533706L155.94207916259768,154.79333910618752L156.49901515960696,151.50656650293465L156.57857744489397,151.36937198429828L156.8172643007551,147.61395652338933L156.89682658604212,149.32048010000653L156.97638887132916,146.07434843747816L157.3742002977644,149.71527194439489L157.61288715362548,141.95926872862444L157.7720117241996,127.63141605605014L158.01069858006068,140.70500538061904L158.09026086534772,135.20068466752272L158.16982315063476,109.29970020142531L158.48807229178294,112.22659780515848L158.56763457706995,44.959599400770955L158.72675914764403,74.40432085383793L158.88588371821814,92.9353826956583L158.96544600350515,14.126146260093858L159.2836951446533,45.3080761062749L159.36325742994035,1.1772061542687122L159.6815065710885,51.757904474797364L159.76106885637557,83.6749113771276L159.92019342694965,105.05860161091447L160.0793179975237,69.12342728420964L160.47712942395893,-57.55173009440626L160.55669170924597,21.601850485263384L160.71581627982005,78.83991174115954L160.95450313568114,99.18653393883187L161.5114391326904,116.31860277339952L161.6705637032645,129.42328287708366L161.98881284441268,121.62880821971937L162.0683751296997,137.3779342337873L162.38662427084788,142.99782133835257L162.4661865561349,151.33479460930823L162.94356026785715,148.6018733712934L163.18224712371824,153.17431696359122L163.2618094090053,160.41564027466882L163.34137169429232,113.57240870211083L163.50049626486643,124.5290132221774L163.58005855015347,130.708529499851L163.6596208354405,140.65754403267763L163.73918312072752,142.80718597192285L164.0574322618757,117.90019202270533L164.13699454716274,111.62551202478782L164.2961191177368,112.42502730570872L164.37568140302386,107.21137457407633L164.53480597359794,124.66073616355338L164.77349282945906,141.61005929496366L164.8530551147461,150.01154683033485L165.17130425589426,151.8466688992524L165.2508665411813,153.93629338208112L165.8873648234776,158.26202900525132L166.2851762499128,157.01600876917448L166.76254996163505,151.31672353139822L166.84211224692206,158.25363099223438L166.92167453220912,150.8280283575335L167.31948595864432,159.90154163858588L167.63773509979248,162.48219847120822L168.11510881151474,163.7575704985839L168.43335795266287,144.6636924785957L168.75160709381103,149.18363574235033L168.9107316643851,157.5824039468736L169.0698562349592,163.60330236835816L169.3085430908203,152.6408300376976L169.7063545172555,137.9876435346261L170.1041659436907,148.43714458230258L170.66110194069998,111.20702107399337L171.13847565242222,124.74402870322972L171.2976002229963,48.60373060315987L171.4567247935704,97.46856815313477L171.61584936414448,122.8692560866478L171.6954116494315,63.863212781421474L171.9340985052926,62.90745216336659L172.65015907287597,97.51852486921611L173.5253442110334,126.49521383964199L173.60490649632047,125.72189319188682L173.84359335218159,143.95173769726168L173.9231556374686,134.5728955906461L174.24140477861675,138.9567268723515L174.32096706390382,97.01869298493996L174.48009163447787,112.69566833986356L174.8779030609131,134.86231862850838L175.11658991677422,136.66253764850117L175.5144013432094,123.1013031333487L175.59396362849645,18.393243142710915L175.6735259137835,49.48172816008692L175.83265048435757,89.49573660585705L175.91221276964458,120.72783743714368L176.31002419607978,139.75608660329593L176.38958648136685,147.7473240329236L176.62827333722794,148.183758219713L176.707835622515,143.4600220210127L177.1056470489502,148.5876062242937L177.5830207606724,157.65207334582172L177.66258304595948,158.10573945823947L178.06039447239468,137.7927194508042L178.37864361354283,144.24169469898138L178.77645503997803,154.62276109174732L179.41295332227432,83.23311365674417L180.68594988686698,96.26469435371725L180.76551217215402,93.48058319976195L181.16332359858922,96.91032667179428L182.19763330732073,116.55859793989363L182.27719559260777,135.968455303223L182.67500701904297,146.41544043983646L182.83413158961704,154.54459871142117L182.99325616019112,136.67304586590186L183.0728184454782,120.64576650422094L183.1523807307652,107.83812593264948L183.47062987191336,115.29009539330184L183.62975444248747,130.0382113220546L183.78887901306155,141.0321211039334L183.9480035836356,144.00109550451205L184.18669043949674,116.40017512947031L184.26625272478375,107.7445449556438L184.42537729535783,106.07348950426358L184.5845018659319,130.74994321868726L184.66406415121895,142.9613798264301L184.74362643650602,151.4749173739112L184.82318872179303,156.56967252038663L184.9823132923671,163.00862340082702L185.06187557765415,166.66074723198506L185.1414378629412,137.84103872994675L185.3801247188023,150.0148758106558L186.01662300109865,151.93653225529687L186.33487214224678,154.58244451490268L186.41443442753385,131.62900139409678L186.65312128339494,144.95022081212844L187.1304949951172,153.4539768016449L187.21005728040421,139.1322793722519L187.3691818509783,145.74944027374715L187.7669932774135,127.88428685914229L187.92611784798757,105.82982660676487L188.00568013327464,128.28401597353383L188.32392927442277,136.6810876222246L188.40349155970983,138.78173153290967L188.80130298614503,147.21931113014054L188.9604275567191,146.17366076423292L189.03998984200612,151.6040094256958L189.1991144125802,141.51006295744813L189.91517498016358,142.2955217140995L189.99473726545062,145.35271484526427L190.15386183602467,143.32369405962123L190.31298640659875,147.18149986878166L190.5516732624599,143.90604787860207L190.63123554774694,142.20037147642478L191.3472961153303,23.939469152811387L191.82466982705253,80.1636425275497L192.3816058240618,115.10128567388907L192.69985496520994,108.61844761678539L192.779417250497,69.55948817037272L193.09766639164516,100.95482890627464L193.8137269592285,125.14868754998066L194.13197610037668,78.50164892067528L194.21153838566372,105.03254930962689L194.29110067095075,117.83584072449298L194.68891209738595,33.75065536069528L195.1662858091082,79.4949886287519L195.4049726649693,113.84980104509232L195.48453495025635,116.2436756612L195.5640972355434,89.42060851189748L195.8027840914045,100.64927299907167L195.96190866197858,125.56296895646535L196.12103323255266,134.71249275607838L196.20059551783973,122.20469211436411L196.28015780312674,136.57359513959358L196.5984069442749,143.37174807093137L196.75753151484898,149.5912656060542L196.9962183707101,113.18615906958472L197.07578065599714,129.2272650324777L197.15534294128418,136.79781181475366L197.47359208243236,140.7458294086665L197.95096579415457,126.41968201471944L198.50790179116385,139.98720147860524L198.5874640764509,132.2915461572679L198.66702636173792,108.7936762916427L199.06483778817312,106.66336760892224L199.1444000734602,132.38262253242812L199.30352464403427,134.553836953725L199.94002292633056,146.10204638460382L200.09914749690464,152.74132741035942L200.25827206747874,146.2579740533133L200.33783435276575,112.69717219074434L200.5765212086269,6.115717593063947L201.13345720563618,65.30979180256534L201.3721440614973,86.80566120553645L201.53126863207137,114.37596355339572L201.69039320264545,129.41358086452243L202.08820462908065,145.5358311257442L202.48601605551582,150.95452057903233L202.5655783408029,144.46161829052858L202.64514062608993,95.05315976565157L202.96338976723808,112.34279271157739L203.0429520525251,55.17981651448001L203.52032576424736,92.95372597144737L203.67945033482144,111.42454188097159L203.8385749053955,130.1671524945278L204.07726176125664,128.06631449005903L204.15682404654365,140.58527619528013L204.23638633183072,107.1248550312157L204.31594861711775,123.33960164006905L204.55463547297884,140.2673572984316L204.71376004355292,149.4277315170684L205.11157146998812,146.60383626317505L205.35025832584927,151.97065937241658L205.50938289642335,86.60405721250596L205.82763203757148,118.87874880587377L205.90719432285854,129.5676764423705L206.30500574929374,142.4827690376843L206.6232548904419,129.02307204771378L206.86194174630302,117.65476663193289L206.94150403159003,140.07201176172148L207.1006286021641,141.7991538149126L207.4188777433123,149.95451773951285L207.49844002859933,132.07542868065002L207.65756459917338,136.23090393961402L207.73712688446045,144.3262771877282L208.21450059618266,148.41717082696448L208.29406288146973,158.63466635687084L208.4531874520438,163.15396995125857L208.61231202261789,164.23186725257722L208.850998878479,167.99750320966885L208.93056116376604,163.60879162762453L209.08968573434012,163.70147855689578L209.32837259020124,164.12905198038874L209.6466217313494,164.356089518513L209.80574630192348,167.51777867798793L209.88530858721052,169.71540825830087L210.04443315778462,165.79662103227284L210.12399544307164,161.46097414161463L210.6809314400809,166.53926093956642L210.840056010655,168.1492906039562L211.0787428665161,169.1934363985581L211.2378674370902,160.7947112640821L211.31742972237726,151.0829660556741L211.39699200766427,159.56060207319038L211.87436571938653,164.5013399165593L212.6699885722569,164.45206028433407L212.82911314283098,160.0012089060678L213.22692456926617,163.22796529726367L213.38604913984025,160.12279761615878L213.70429828098844,158.89136862128004L213.78386056627545,163.55853669483434L213.86342285156252,161.79028984217464L214.02254742213657,165.16112660657654L214.18167199271065,160.59235589371664L214.26123427799772,165.05222640568826L214.57948341914584,168.761264122752L215.05685713086808,171.01152107263732L215.2159817014422,171.7649702946596L215.37510627201627,171.90457462294683L215.69335541316443,168.1208848034303L216.40941598074775,163.91728567296124L216.48897826603482,167.2455627846167L216.56854055132183,159.1267749047232L216.88678969247,157.58010440400474L217.2846011189052,155.33809449449868L217.36416340419225,160.07258146504898L217.44372568947927,159.35492564020183L217.76197483062745,164.55062973407627L217.84153711591446,164.15965985707084L218.0802239717756,152.04655448094522L218.2393485423497,158.30511797479096L218.4780353982108,163.7269999919221L218.875846824646,158.5438060093995L219.03497139522008,104.11852328823674L219.19409596579416,118.62811871804045L219.2736582510812,138.63763300854606L219.67146967751637,140.88512276401153L219.83059424809048,150.56648359891855L220.22840567452565,137.6915059697187L220.4670925303868,149.51936032621626L220.62621710096087,153.8553523452825L220.78534167153492,159.29374821031868L221.18315309797015,130.24585868745186L221.42183995383127,128.85550476814308L221.58096452440535,130.34264553694456L221.74008909497942,145.0135559305728L221.81965138026646,129.67940158096624L222.05833823612755,143.34045259149485L222.13790052141462,153.00312291177525L222.21746280670166,159.51455671430185L222.45614966256278,163.1389161574546L222.53571194784982,149.93954611184614L222.61527423313683,105.1942697822083L223.25177251543317,83.0759407339062L223.3313348007202,115.62839563572987L223.41089708600725,122.80310474580435L223.57002165658133,137.17149151160808L223.64958394186837,130.06863982395342L223.96783308301653,128.4357136955698L224.1269576535906,139.78308122510782L224.84301822117396,108.66814143765102L225.24082964760916,124.63311659104211L225.3203919328962,131.0877568111439L225.39995421818324,147.3996521516197L225.55907878875735,152.41037696054306L225.95689021519252,150.82292745273065L226.03645250047956,158.0703437150059L226.11601478576662,158.7792382749154L226.19557707105363,158.231406489108L226.3547016416277,157.43421401965173L226.5138262122018,147.7099849793474L226.83207535334998,152.62122293341454L227.1503244944981,156.81836454969874L227.22988677978515,146.44458612464774L227.38901135035925,151.07174754676956L227.62769820622034,159.41109817888486L227.78682277679442,150.33598044699443L228.3437587738037,159.13877958909083L228.7415702002389,161.0210270981585L228.98025705610002,162.4568288525831L229.37806848253524,165.17088020777098L229.61675533839636,162.4856868473252L229.69631762368337,156.24321345414762L229.77587990897044,158.85531895840154L230.0941290501186,129.16819760466245L230.41237819126673,142.64813493102812L230.5715027618408,78.60820910827053L231.20800104413715,101.36001113936503L231.28756332942416,121.9882943502247L231.36712561471123,140.36400523288663L231.68537475585936,141.04632769698125L232.00362389700754,144.54055228240944L232.3218730381557,141.05278130132393L232.4014353234427,152.31707471928087L232.7196844645909,142.39549510950255L232.7992467498779,149.55231915848287L232.87880903516498,152.16529329099566L232.958371320452,156.29128554925043L233.27662046160017,156.7962373612831L233.51530731746126,156.94008423132772L233.7539941733224,150.40116628311915L233.91311874389646,148.0862331127026L234.07224331447054,-5.095845065674908L234.39049245561873,17.347964336325887L234.78830388205392,3.2357114395470603L234.86786616734096,63.54727929517129L234.947428452628,98.55407386546133L235.10655302320208,116.55091053263887L235.1861153084891,86.89960504071954L235.3452398790632,104.72094590447078L235.50436444963728,115.25179614556679L235.58392673492432,133.56661780123636L235.66348902021136,144.60697929695175L236.29998730250767,124.99165396889762L236.45911187308172,138.11813861451236L236.69779872894287,128.27812744641435L236.7773610142299,102.82770694719157L236.85692329951695,127.0768479247556L236.936485584804,143.1338846306296L237.09561015537807,152.4335701353205L237.25473472595215,151.84052606417765L237.49342158181327,151.05547403458942L237.5729838671003,143.1476144885349L237.89123300824846,146.88409078158784L237.9707952935355,50.23653336046812L238.05035757882254,71.3445909875414L238.2890444346837,107.8866273008593L238.92554271697998,129.09459506188574L240.3576638521467,141.0522301565283L240.43722613743373,149.90994419753582L240.83503756386895,90.87959053107656L240.91459984915596,70.92963064255437L241.07372441973007,74.4644947825553L241.23284899030415,55.31317917169645L241.31241127559116,65.77081051795258L241.55109813145228,105.42105898317627L241.86934727260044,95.26126999116596L241.9489095578875,73.80410878421894L242.10803412846155,112.4462046179344L242.26715869903563,118.46111637485556L242.3467209843227,137.19193049878473L242.74453241075787,134.56544626228586L242.8240946960449,148.0195743835346L243.06278155190606,155.18108362575794L243.14234383719307,154.50356321963866L243.46059297834125,149.7532052179012L243.54015526362826,154.2301938089421L243.61971754891533,143.04405895915735L244.09709126063754,137.7823992209089L244.25621583121162,104.8450665141377L244.3357781164987,53.14926025516134L244.4153404017857,55.10266753911348L245.44965011051724,101.86894051346485L245.52921239580425,122.1290059866145L245.68833696637836,123.2792086360457L246.08614839281353,139.60163961397643L246.48395981924872,153.00503662702587L246.6430843898228,152.6931846262459L247.12045810154507,157.85024228747403L247.27958267211915,149.0022238124036L247.43870724269323,157.69356413572143L247.5978318132673,161.83965891250895L247.67739409855434,156.83938681865848L247.83651866912842,162.25414797141616L248.23433009556362,166.38717564354218L248.31389238085066,163.44089887349716L248.3934546661377,160.93987004851633L248.4730169514247,158.41666764221276L248.71170380728586,160.90120272216848L248.7912660925729,133.80866252227048L249.029952948434,143.5750140835597L249.10951523372105,152.4580812523418L249.1890775190081,158.3306988578388L249.26863980429513,143.09296005946325L249.58688894544326,150.42869907680105L249.66645123073033,157.12831683857678L250.06426265716553,163.6096890646399L250.2233872277396,148.8285962450062L250.6211986541748,150.80316774024797L250.70076093946184,157.2367675951939L250.85988551003595,147.34594912562173L251.01901008061,155.9630807494908L251.09857236589704,144.30933084265845L251.25769693647112,140.4267310855775L251.4168215070452,127.23191420861528L251.8146329334804,145.47944713906693L252.05331978934151,145.50327742238542L252.2124443599156,92.42812899405102L252.29200664520263,114.3965938767208L252.6102557863508,137.44586879491632L253.008067212786,149.13440564407344L253.56500320979526,156.72977588684043L253.6445654950823,143.89039564622922L254.0423769215175,155.3777212081432L254.20150149209158,161.163439056122L254.59931291852678,162.82151797665244L254.67887520381382,160.1754086183878L254.75843748910086,153.51636351186448L254.8379997743879,141.2167623201724L255.55406034197125,153.75014961916847L255.95187176840645,155.37509497083875L256.19055862426757,149.01509640010727L256.27012090955463,149.56076089102152L256.98618147713796,155.37106393489248L257.14530604771204,159.97500230706876L257.3839929035732,151.90091724750707L257.54311747414727,145.7815504295139L258.0204911858695,155.29478487989803L258.57742718287875,118.11397915918101L258.73655175345283,128.31921148774373L258.8161140387399,124.4285586732582L258.975238609314,91.68766967639475L259.21392546517507,124.08116497215401L259.5321746063233,141.50583531678845L259.77086146218437,153.32308161714838L259.8504237474714,92.571552257286L260.00954831804546,124.25440657428867L260.16867288861954,142.10653611057933L260.2482351739066,150.84172166861845L260.72560888562884,158.96867177444713L260.8051711709159,142.00088977585966L260.96429574148993,133.3001187853586L261.123420312064,139.80390188164284L261.36210716792516,102.39450184819907L261.91904316493446,121.7433158865742L262.23729230608257,60.31425415017999L262.31685459136963,96.20799489566636L262.5555414472307,122.96635040519854" fill="none"></path></g></g></g></g><g opacity="0.2"><g><g><g><path style="fill: none;" stroke="rgb(255, 112, 67)" stroke-width="2px" d="M40.25851635524205,-40.45992414141074L40.81545235225133,114.76296603422134L41.213263778686525,115.16815386874305L41.3723883492606,145.79079959197372L41.61107520512172,99.82414007734678L41.7701997756958,-103.72706789731456L41.84976206098284,72.457518381319L42.00888663155692,109.37436008913483L42.168011202131005,119.63781458399762L42.406698057992116,65.53617442630366L42.565822628566195,141.06640167416015L43.12275862557547,97.31085704919019L43.44100776672363,115.43710232960075L43.52057005201067,129.40596882692807L43.600132337297715,123.61100888662395L43.83881919315883,147.62099074067942L44.55487976074219,101.78489616778484L44.63444204602923,53.87622129517604L44.71400433131626,132.1367461256009L44.952691187177386,133.32831852321306L45.191378043038505,-2.962493428948619L45.50962718418666,37.667987014968276L45.82787632533482,-123.3296567165462L45.90743861062187,109.08169085957638L45.9870008959089,-17.62798192016453L46.30525003705706,-88.33073589651576L46.3848123223441,112.93903769852568L46.54393689291818,35.10866714297572L46.623499178205215,109.29419184202197L46.7826237487793,-10.149563000716626L46.94174831935337,-196.21459419583516L47.498684316362656,112.68865239565457L47.737371172223774,94.51165792205052L47.81693345751081,-45.66770096840628L47.97605802808489,46.99110253195977L48.29430716923305,114.01988313806191L48.69211859566825,138.05162449055683L48.771680880955294,-178.2066559180239L49.72642830439976,-17.207867228735267L49.8059905896868,111.15414924249058L50.12423973083496,95.35193501148296L50.36292658669608,-107.21469408908888L50.52205115727016,95.79092560399454L50.681175727844234,123.48356872548356L51.3972362954276,112.98084986020422L51.87461000714983,-77.21605830387034L52.27242143358503,-57.50450766979793L52.35198371887207,96.21240788387627L52.59067057473319,67.43964552292073L52.74979514530727,120.3788248945566L52.908919715881346,16.84885935777129L53.38629342760359,86.21704843227099L53.46585571289063,92.28342697381595L54.18191628047398,48.00776142664745L54.341040851048064,107.48105579349385L54.500165421622135,133.35415428335773L54.738852277483254,158.0854197796549L55.454912845066616,66.73478619393472L55.693599700927734,134.00834393010678L55.773161986214774,98.0747612145019L55.93228655678885,24.294562168968696L56.17097341264997,50.91533928827994L56.72790940965925,99.68266358201208L56.88703398023333,-42.10257809765881L57.28484540666852,-21.75703890052864L57.36440769195556,147.11724377479743L57.44396997724261,11.23735769785435L57.52353226252965,30.66687766835321L57.76221911839077,35.519304128385556L57.84178140367781,1.5388656543127581L58.160030544825965,80.72573553425809L58.239592830113,65.3147947203779L58.319155115400044,150.2259286988035L58.71696654183524,-123.62679446186212L58.87609111240932,82.36787001892344L58.95565339769636,107.08621498478306L59.27390253884452,99.25324080793735L59.671713965279714,57.425526786302726L59.751276250566754,153.12392018944263L59.91040082114083,131.55661298377208L60.06952539171491,102.15794037294313L60.14908767700195,-577.4390137803712L60.22864996228899,-596.8055080659869L60.46733681815011,129.26023584505333L60.626461388724195,8.321860544950596L60.86514824458531,-194.74875140400763L61.024272815159385,28.889394332737083L61.26295967102051,9.662415272194721L61.34252195630754,98.46140709395877L61.6607710974557,-119.09121386290644L61.74033338274275,172.33906934483463L61.81989566802979,97.47426266633829L61.899457953316826,-47.93191857557031L62.138144809177945,-22.780991600296147L62.217707094464984,130.12976236503118L62.61551852090018,113.8856209368505L63.2520168031965,22.05905331784561L63.411141373770576,-196.74208048297442L63.49070365905762,137.3092200878932L63.649828229631694,142.3785365351721L63.80895280020578,160.32063046469096L63.88851508549281,99.64370321330807L64.12720194135393,135.81875540319083L64.20676422664097,93.75277884919205L64.28632651192801,118.13860899480642L64.44545108250209,152.63972761813875L64.92282479422433,-840.9580848730111L65.00238707951137,-8.316400792601598L65.0819493647984,156.29039897739153L65.47976079123362,-21.02072503713589L65.63888536180768,114.20104620217035L65.71844764709472,60.343992348250595L65.8775722176688,-5.775930318039173L66.67319507053921,58.81872836823641L66.83231964111327,-29.874132228739654L67.0710064969744,116.07842710358182L67.30969335283552,148.40764299065688L67.4688179234096,72.66714106713789L67.70750477927072,127.06942805369636L67.8666293498448,-38.300851823173616L68.02575392041888,121.24190042559394L68.18487849099296,44.352441326802364L68.42356534685408,-45.892536750576255L68.50312763214112,113.79663757502271L68.6622522027152,-161.2734301346345L69.21918819972447,137.9039302384208L69.29875048501151,124.8324190958599L69.37831277029855,170.82211956050918L69.45787505558559,124.13250534837061L70.25349790845598,84.05012043152783L70.49218476431712,15.048858519263376L70.57174704960416,49.812755553226L70.8899961907523,75.85010247637729L71.2878076171875,99.23009251812368L71.44693218776158,170.37617175930046L71.60605675833565,63.34840395348647L71.84474361419677,143.85463093966268L72.08343047005789,5.253861377405428L72.56080418178013,135.89672119680756L72.64036646706717,147.13756942565396L72.79949103764126,107.43298876990093L72.8790533229283,66.07218428798387L73.35642703465052,162.61267823182618L73.43598931993758,100.84292456493927L73.6746761757987,51.802204497513685L73.99292531694685,95.61357906579997L74.07248760223389,-86.38316272267184L74.15204988752093,120.63234292911534L74.23161217280797,132.89651042044216L74.62942359924317,139.56836489603006L74.86811045510429,145.84646521264654L74.94767274039131,125.23372149497209L75.02723502567835,120.27891672730038L75.42504645211356,-37.13462751850602L75.82285787854876,157.46305041771268L75.98198244912284,76.12340813765331L76.06154473440988,-27.3387928612392L76.14110701969692,90.3638734610563L76.22066930498394,-150.97816065569532L76.37979387555804,-139.048845606736L77.01629215785435,143.22263545124883L77.33454129900251,128.64921004624398L77.41410358428956,116.69453100214878L78.20972643715994,144.88188599449177L78.60753786359516,144.82839102293246L78.76666243416922,87.4392060444984L78.84622471945626,133.92952736925508L78.9257870047433,123.0317556660475L79.00534929003034,114.50572688689658L79.32359843117851,129.97991601633817L79.72140985761371,87.07514127669856L79.80097214290075,109.67432842450353L80.03965899876185,46.60308906405044L80.43747042519706,4.287760849615552L80.5170327104841,92.92918315844145L80.83528185163225,137.39262973166763L80.9148441369193,96.99296694421764L80.99440642220634,96.77690387091911L81.15353099278042,42.76957960987147L81.39221784864152,-19.660621216044092L81.7104669897897,81.08903699687517L81.79002927507673,72.29042875651794L82.10827841622489,130.83434605603452L82.18784070151193,109.19608062238353L82.58565212794713,145.44134098689005L82.7447766985212,143.6415415761387L83.1425881249564,103.78709336877091L83.22215041024344,99.78154870829417L83.30171269553048,169.2102601977286L83.5403995513916,109.54440752151913L83.61996183667864,75.5770088443187L83.69952412196568,69.25112774355284L83.9382109778268,-319.74137447583234L84.01777326311384,157.93115129659571L84.09733554840088,142.7720654131L84.17689783368792,169.6275336976442L84.57470926012311,-51.37597276316137L84.7338338306972,140.764774210165L84.81339611598423,-109.76898886862818L84.89295840127129,69.0924980845275L84.97252068655833,-288.13901329868713L85.37033211299351,-27.596768810094545L85.60901896885464,44.37905099359068L85.68858125414167,-108.208072175702L86.08639268057688,137.97583199641883L86.16595496586392,94.1296819861077L86.40464182172502,123.74081317353875L86.5637663922991,67.70152280937691L86.9615778187343,8.226564013173629L87.12070238930838,153.05582435589758L87.35938924516951,52.802950599432734L87.51851381574357,22.221753937845733L87.59807610103061,81.700518658502L87.67763838631765,-183.22598117656162L87.7572006716047,159.68217471105834L87.91632524217879,100.84772702671421L87.99588752746583,-60.05040609232674L88.15501209803989,46.219220767341994L88.31413666861397,-41.02201359683568L88.39369895390102,115.66525636902361L88.47326123918806,127.4379931416363L88.71194809504918,170.85518684215106L88.9506349509103,109.44447815134117L89.3484463773455,2.554750642356794L89.66669551849365,99.20979072055411L89.7462578037807,67.08178260973091L89.90538237435477,72.5752051984573L90.14406923021589,39.67522521059891L90.46231837136405,129.0207965505324L90.54188065665109,48.22359656853723L90.70100522722517,12.314858376485518L90.7805675125122,-144.0692310113609L90.86012979779925,84.9426256179454L90.93969208308629,120.37171661504203L91.25794122423446,146.6567136641595L91.33750350952148,152.04984113230785L91.49662808009556,-94.74714287166626L91.5761903653826,-124.35189197965246L91.89443950653077,137.13287803811625L92.53093778882707,33.188912202459505L92.84918692997523,76.52646507853979L92.92874921526229,102.39734256235101L93.16743607112339,149.5274302463406L93.24699835641043,87.06174103015655L93.32656064169747,86.59001842720318L93.48568521227155,106.87601982007709L93.5652474975586,-40.502605622880765L93.72437206813268,129.4863385017975L93.88349663870675,166.92884503325652L93.96305892399378,86.96202368919603L94.12218349456788,101.77696097432226L94.28130806514196,129.34144303533162L94.51999492100306,70.8720275020919L94.7586817768642,111.76293813305597L95.07693091801234,145.23669038622006L95.15649320329938,110.36774877720882L95.71342920030865,-36.54018240450023L95.87255377088275,-49.32079476146828L95.95211605616979,109.67303504627716L96.34992748260497,2.4235363611460343L96.66817662375314,63.140350283876614L96.82730119432722,168.12423925751298L97.14555033547538,66.93351057797736L97.54336176191059,60.773086477038305L97.94117318834577,9.362648364582583L98.02073547363281,166.4362488164378L98.10029775891987,158.67225834548515L98.33898461478097,140.2391564305044L98.49810918535505,33.64939725688873L98.65723375592913,82.8309418298054L98.73679604121618,-184.55489549976846L98.89592061179025,158.7895118279103L99.13460746765136,87.94569083765055L99.2141697529384,23.79847740893183L99.29373203822546,62.85932675908589L99.45285660879952,128.3421758372042L99.6119811793736,130.3737867913792L99.69154346466064,134.5607197970079L99.85066803523473,136.90488567097168L100.00979260580881,32.559270238359204L100.32804174695696,153.90593430028866L100.48716631753105,-91.75598309252018L100.80541545867919,146.98052468502897L100.88497774396623,151.26353342980872L101.12366459982736,109.79829660720839L101.28278917040144,119.15245320163262L101.52147602626255,91.95130440762296L101.68060059683664,56.249114477737294L101.83972516741072,135.21275469683474L102.07841202327182,117.72474916529154L102.31709887913296,77.49864024340923L102.39666116442,53.24355791472726L102.7944725908552,159.60316467354573L103.19228401729038,163.28570269899666L103.51053315843855,158.2115930662211L103.59009544372559,143.3199674635132L103.66965772901263,170.35760860131387L103.82878229958669,129.6690334770019L103.90834458487375,-146.85853897550714L103.98790687016078,150.27149377763067L104.38571829659598,157.65572666832793L104.6244051524571,142.16294787724757L104.70396743774414,150.85715293093892L104.78352972303118,160.19479509969005L104.86309200831822,138.698483227113L105.02221657889231,77.33649089937444L105.26090343475342,157.05668052030376L105.49959029061453,144.1883940819256L106.2156508581979,168.35593683523226L106.45433771405901,142.19201178222772L107.01127371106828,172.0108679939816L107.09083599635532,89.95800713303879L107.17039828164236,147.95610291883827L107.48864742279054,76.3392432795431L107.6477719933646,99.85762479151049L107.80689656393868,125.73222338808773L107.88645884922573,166.26228016871352L108.20470799037388,140.43017355249322L108.68208170209613,162.24123219689432L108.84120627267019,66.89414735376022L109.07989312853132,61.09501043787259L109.15945541381836,144.2980105369752L109.39814226967948,154.67151349641813L109.6368291255406,97.39084507146822L109.79595369611468,163.4192479764166L109.95507826668876,171.19651743970255L110.35288969312396,128.96265813911123L110.432451978411,155.69731350074255L110.67113883427211,143.85323419719282L110.98938797542027,173.8519564505766L111.14851254599435,127.50618173796397L111.46676168714251,141.03717079617127L111.54632397242955,106.59190066871179L111.78501082829067,81.99147575212965L111.94413539886476,105.42658808967917L112.02369768415178,55.185840959596135L112.2623845400129,170.20795374150785L112.34194682529994,163.7185060139069L112.58063368116107,100.67471648601622L112.6601959664481,150.68714525403288L112.73975825173514,118.26526464784229L113.21713196345739,162.8351021816478L113.61494338989257,150.55420823543045L113.77406796046667,160.0122405938422L113.85363024575369,159.4540816300355L114.96750223977226,173.32127216650622L115.0470645250593,167.10201327068498L115.20618909563336,127.8049150031411L115.76312509264264,83.19376622668324L115.84268737792968,164.8322106814154L115.92224966321672,66.67874687176618L116.24049880436489,10.678130636864807L116.32006108965193,132.25607616917432L116.63831023080009,171.1946973013891L116.95655937194823,-57.15215751626147L117.03612165723527,35.327163251544334L117.19524622780936,136.74170798523232L117.35437079838344,43.447065966886385L117.43393308367048,160.273353249933L117.51349536895752,5.606890024437689L117.59305765424455,111.83941177105498L118.22955593654086,-236.49900055105172L118.54780507768903,84.88937447998615L118.70692964826311,12.006758720628113L118.94561650412423,139.48463455806427L119.34342793055943,-48.58151248903141L119.82080164228167,91.35953086175687L119.9003639275687,118.34230546399795L119.97992621285576,73.68074674109448L120.13905078342982,139.5135632944183L120.37773763929094,137.45663340131614L121.17336049216135,-123.90355619938236L121.33248506273543,160.47650506907223L121.4916096333095,40.13744890461112L121.73029648917063,133.8428763288191L121.96898334503175,101.63960844726671L122.12810791560581,115.17983667862381L122.20767020089285,123.82494636701767L122.60548162732806,169.2137003717815L122.68504391261509,98.74152949457539L122.92373076847622,170.70203283766602L123.00329305376326,14.648526153820967L123.0828553390503,77.85393760306806L123.3215421949114,-30.523874562652964L123.40110448019844,156.46201145043705L123.71935362134661,150.89358220085978L123.87847819192068,137.67485917263252L124.35585190364293,147.8709890902287L124.514976474217,139.9933324061734L124.75366333007813,141.40757523757247L125.07191247122628,160.78871279101747L125.39016161237444,157.01469078415562L125.54928618294852,145.22057351532965L125.86753532409668,141.0124852945312L125.94709760938372,101.2193241324635L126.34490903581893,119.61644733961043L126.504033606393,123.0625529098802L127.45878102983748,135.43327038369944L127.77703017098563,143.4992063624734L127.85659245627267,85.04494031681952L127.9361547415597,121.48116479601049L128.17484159742082,146.06433053429328L128.3339661679949,145.2077271951182L128.57265302385602,156.4171301658361L128.89090216500418,159.43617046189252L129.05002673557826,143.3981081812343L129.1295890208653,144.2795957994408L129.44783816201345,162.59304167592632L129.5274004473005,137.61389017115857L129.76608730316164,139.3959321349496L130.08433644430977,168.1470549264918L130.1638987295968,125.24377167987859L130.32302330017092,164.21736040559654L130.48214787074497,143.2258900997365L130.72083472660609,79.06768825682411L131.11864615304128,74.9502292746538L131.27777072361536,111.0165581825654L131.43689529418944,106.01402563804868L131.6755821500506,43.50284025253313L132.07339357648578,91.6131814145765L132.15295586177282,107.73846986492299L132.3120804323469,155.7870747447618L132.47120500292095,37.37818548057567L132.550767288208,141.50646036385456L132.63032957349506,117.27124517284642L132.86901642935618,141.18598880315972L133.26682785579138,137.54834928968364L133.42595242636546,58.60805613779121L133.5055147116525,31.420980783088908L133.82376385280065,87.96121137636692L134.22157527923582,57.18924142639116L134.539824420384,159.6946075742958L134.85807356153214,-3.289336467627436L134.9376358468192,37.079552929276815L135.3354472732544,137.85105810268772L135.49457184382848,27.11757217722652L135.65369641440256,51.95656176780767L135.81282098497664,145.22711461668757L136.05150784083776,145.78191821812834L136.1310701261248,146.48388864902677L136.44931926727295,167.11451835637462L136.9266929789952,100.74970591949318L137.08581754956927,165.85426174413902L137.24494212014335,142.19623116365472L137.40406669071743,140.60194107190398L137.48362897600447,98.61672909719209L137.88144040243967,80.92707847913607L138.27925182887486,141.51296701046465L138.51793868473598,74.02198656363726L138.67706325531006,31.726578494180558L138.83618782588414,144.09685311766248L138.91575011117118,160.00262771919665L139.07487468174526,156.51273546516097L139.23399925231934,152.75220381725853L139.47268610818045,4.266727551245822L139.63181067875453,54.834031480564136L139.71137296404157,69.63145515233009L139.7909352493286,155.60508609188798L139.87049753461568,145.53442446371002L140.42743353162496,140.93118004073983L140.586558102199,154.94743506816428L140.82524495806013,159.02063957710772L140.90480724334716,92.95813574808244L140.98436952863423,121.03775339431536L141.46174324035644,160.2600285387997L141.85955466679164,158.23276550876477L142.09824152265276,119.91052656346483L142.1778038079398,132.73167360607636L142.81430209023614,98.09309644107975L142.89386437552315,117.96243921876862L142.97342666081022,163.4751918854373L143.05298894609723,153.86256372386197L143.2121135166713,143.6539823904718L143.6099249431065,158.8478914225663L143.76904951368059,125.33880317513376L143.84861179896762,97.01797579041431L144.48511008126397,162.76144058114505L144.56467236655098,160.08662839441467L144.88292150769914,161.35872153771368L145.04204607827324,160.56676060620464L145.20117064884732,155.81888177774255L145.28073293413433,161.45513917397784L145.4398575047084,130.8511387700555L145.7581066458566,70.07332404146837L145.8376689311436,163.91966475840223L145.9967935017177,116.0881486432013L146.1559180722918,152.0407450788798L146.2354803575788,147.3908648295344L146.3946049281529,143.36834457983662L146.47416721343996,45.1892782421819L146.55372949872697,-13.39871993163979L146.63329178401403,157.1295297838672L146.95154092516216,168.4651033907861L147.03110321044923,113.66781922396899L147.26979006631032,15.44149422411283L147.3493523515974,136.99156851579028L147.42891463688443,148.24118150241247L147.7471637780326,108.82179604630323L147.8267260633196,-76.43746581452069L147.9858506338937,157.0274072364714L148.38366206032887,165.50271995199404L149.02016034262522,97.66859804557998L149.25884719848634,168.24950810694855L149.41797176906041,131.0630195670401L149.5770963396345,14.669548850729825L149.65665862492153,124.81213850121208L149.9749077660697,144.14094459342846L150.13403233664377,38.47899877166401L150.3727191925049,142.52226319057684L150.45228147779193,154.95757271512298L150.61140604836598,-273.56514263232566L151.16834204537525,157.28366044793506L151.32746661594936,141.55577305909992L151.4070289012364,156.55226168683902L151.72527804238456,163.64959386787473L151.8048403276716,135.6018071079095L152.04352718353272,128.34952264958838L152.12308946881976,-0.4650012767606313L152.2026517541068,172.04318787263202L152.36177632468087,138.59520379529954L152.4413386099679,169.74846323662666L152.600463180542,156.63784595527477L152.75958775111607,133.46903701409542L152.8391500364031,145.03253805421105L153.15739917755127,69.7338122570477L153.3960860334124,158.99380330409326L153.71433517456055,169.25417674939018L153.79389745984759,83.01485597301007L154.0325843157087,170.20847387568188L154.19170888628278,120.29870965474811L154.35083345685686,158.8350358260766L154.4303957421439,-71.88021582954298L154.50995802743094,49.25517171867159L155.2260185950143,111.60570256613528L155.3851431655884,166.00410941801465L155.6238300214495,171.8511212060169L155.78295459202357,156.0913220947749L155.94207916259768,170.64822114746318L156.49901515960696,146.5764075980553L156.57857744489397,151.1635802063438L156.8172643007551,141.9808333320259L156.89682658604212,151.88026546493234L156.97638887132916,141.20515094368557L157.3742002977644,155.17665720476998L157.61288715362548,130.32526390496878L157.7720117241996,106.13963704718867L158.01069858006068,160.31538936747245L158.09026086534772,126.94420359787819L158.16982315063476,70.44822350227923L158.48807229178294,116.61694421075822L158.56763457706995,-55.9408982058103L158.72675914764403,118.5714030334384L158.88588371821814,120.73197545838889L158.96544600350515,-104.0877083932528L159.2836951446533,92.08097087554643L159.36325742994035,-65.01909877374055L159.6815065710885,127.62895195559031L159.76106885637557,131.55042173062293L159.92019342694965,137.13413696159478L160.0793179975237,15.22066579415241L160.47712942395893,-247.56446616233006L160.55669170924597,140.33222135476785L160.71581627982005,164.6970036250038L160.95450313568114,129.70646723534037L161.5114391326904,142.01670602525098L161.6705637032645,149.0803030326099L161.98881284441268,109.93709623367295L162.0683751296997,161.00162325488924L162.38662427084788,151.42765199520045L162.4661865561349,163.84025451574172L162.94356026785715,144.50249151427124L163.18224712371824,160.03298235203795L163.2618094090053,171.27762524128516L163.34137169429232,43.307561343273846L163.50049626486643,140.9639200022773L163.58005855015347,139.97780391636138L163.6596208354405,155.5810658319176L163.73918312072752,146.0316488807906L164.0574322618757,80.53970109887905L164.13699454716274,102.21349202791157L164.2961191177368,113.62430022709009L164.37568140302386,99.39089547662775L164.53480597359794,150.8347785477689L164.77349282945906,167.0340439920791L164.8530551147461,162.61377813339163L165.17130425589426,154.59935200262873L165.2508665411813,157.07073010632416L165.8873648234776,164.7506324400066L166.2851762499128,155.14697841505927L166.76254996163505,142.76779567473386L166.84211224692206,168.65899218348858L166.92167453220912,139.68962440548216L167.31948595864432,173.5118115601645L167.63773509979248,166.35318372014171L168.11510881151474,165.67062853964745L168.43335795266287,116.02287544861338L168.75160709381103,155.96355063798228L168.9107316643851,170.1805562536585L169.0698562349592,172.634650000585L169.3085430908203,136.1971215417068L169.7063545172555,116.00786378001885L170.1041659436907,164.11139615381728L170.66110194069998,55.361835811529545L171.13847565242222,145.04954014708426L171.2976002229963,-65.60671654694488L171.4567247935704,170.7658244780971L171.61584936414448,160.9702879869173L171.6954116494315,-24.645852176417975L171.9340985052926,61.47381123628429L172.65015907287597,149.43513392799036L173.5253442110334,169.9602472952808L173.60490649632047,124.56191222025404L173.84359335218159,171.296504455324L173.9231556374686,120.50463243072272L174.24140477861675,145.5324737949096L174.32096706390382,34.111642153822686L174.48009163447787,136.21113137224893L174.8779030609131,168.11229406147564L175.11658991677422,139.36286617849032L175.5144013432094,102.75945136062L175.59396362849645,-138.66884684324577L175.6735259137835,96.1144556861509L175.83265048435757,149.51674927451222L175.91221276964458,167.57598868407362L176.31002419607978,168.29846035252427L176.38958648136685,159.73418017736515L176.62827333722794,148.83840949989712L176.707835622515,136.37441772296222L177.1056470489502,156.27898252921517L177.5830207606724,171.24877402811376L177.66258304595948,158.78623862686612L178.06039447239468,107.32318943965129L178.37864361354283,153.91515757124716L178.77645503997803,170.19436068089624L179.41295332227432,-23.851357495760567L180.68594988686698,115.81206539917684L180.76551217215402,89.304416468829L181.16332359858922,102.05494187984277L182.19763330732073,146.03100484204265L182.27719559260777,165.0832413482171L182.67500701904297,162.08591814475665L182.83413158961704,166.73833611879826L182.99325616019112,109.86571659762285L183.0728184454782,96.60484746169959L183.1523807307652,88.6266650752923L183.47062987191336,126.46804958428038L183.62975444248747,152.16038521518374L183.78887901306155,157.52298577675163L183.9480035836356,148.45455710538L184.18669043949674,74.99879456690769L184.26625272478375,94.76109969490403L184.42537729535783,103.56690632719324L184.5845018659319,167.7646237903228L184.66406415121895,161.2785347380443L184.74362643650602,164.24522369513295L184.82318872179303,164.2118052400997L184.9823132923671,172.66704972148761L185.06187557765415,172.13893297872212L185.1414378629412,94.61147597688932L185.3801247188023,168.27563143171938L186.01662300109865,154.81901692225847L186.33487214224678,158.55131290431137L186.41443442753385,97.1988367128879L186.65312128339494,164.93204993917595L187.1304949951172,166.2096107859196L187.21005728040421,117.6497332281624L187.3691818509783,155.67518162598998L187.7669932774135,101.08655673723501L187.92611784798757,72.74813622819875L188.00568013327464,161.9653000236873L188.32392927442277,149.27669509526072L188.40349155970983,141.9326973989373L188.80130298614503,159.8756805259868L188.9604275567191,144.60518521537153L189.03998984200612,159.74953241789018L189.1991144125802,126.36914325507655L189.91517498016358,143.4737098490766L189.99473726545062,149.9385045420114L190.15386183602467,140.28016288115668L190.31298640659875,152.96820858252227L190.5516732624599,138.99286989333268L190.63123554774694,139.64185687315887L191.3472961153303,-153.45188433260864L191.82466982705253,164.49990258965715L192.3816058240618,167.5077503933981L192.69985496520994,98.89419053112988L192.779417250497,10.971049000753737L193.09766639164516,148.04784001012752L193.8137269592285,161.4394755155397L194.13197610037668,8.531090976717223L194.21153838566372,144.8288998930543L194.29110067095075,137.04077784679214L194.68891209738595,-92.37712268500127L195.1662858091082,148.11148853083682L195.4049726649693,165.38201966960293L195.48453495025635,119.83448758536156L195.5640972355434,49.18600778794371L195.8027840914045,117.49226972983297L195.96190866197858,162.93351289255588L196.12103323255266,148.43677845549792L196.20059551783973,103.44299115179274L196.28015780312674,158.12694967743772L196.5984069442749,153.5689774679381L196.75753151484898,158.92054190873841L196.9962183707101,58.57849926488052L197.07578065599714,153.28892397681716L197.15534294128418,148.1536319881676L197.47359208243236,146.6678557995358L197.95096579415457,104.93046092379882L198.50790179116385,160.33848067443392L198.5874640764509,120.7480631752619L198.66702636173792,73.54687149320489L199.06483778817312,103.46790458484156L199.1444000734602,170.9615049176869L199.30352464403427,137.81065858567035L199.94002292633056,163.42436053092206L200.09914749690464,162.7002489489928L200.25827206747874,136.53294401774406L200.33783435276575,62.35596939689094L200.5765212086269,-153.7564643034566L201.13345720563618,154.10090311681745L201.3721440614973,119.04946530999314L201.53126863207137,155.73141707518465L201.69039320264545,151.97000683121246L202.08820462908065,169.7192065175769L202.48601605551582,159.08255475896448L202.5655783408029,134.72226485777298L202.64514062608993,20.940471978336063L202.96338976723808,138.2772421304661L203.0429520525251,-30.56464778116606L203.52032576424736,149.61459015689843L203.67945033482144,139.13076574525792L203.8385749053955,158.2810684148621L204.07726176125664,124.9150574833559L204.15682404654365,159.36371875311175L204.23638633183072,56.93422328511906L204.31594861711775,147.66172155334903L204.55463547297884,165.6589907859754L204.71376004355292,163.16829284502364L205.11157146998812,142.36799338233504L205.35025832584927,160.02089403627883L205.50938289642335,-11.445846027359948L205.82763203757148,167.29078619592548L205.90719432285854,145.60106789711563L206.30500574929374,161.85540793065502L206.6232548904419,108.83352656275792L206.86194174630302,100.60230850826156L206.94150403159003,173.6978794564044L207.1006286021641,144.38986689469925L207.4188777433123,162.18756362641324L207.49844002859933,105.25679509235579L207.65756459917338,142.46411682806L207.73712688446045,156.4693370598995L208.21450059618266,154.5535112858189L208.29406288146973,173.9609096517304L208.4531874520438,169.93292534284015L208.61231202261789,165.84871320455522L208.850998878479,173.6459571453063L208.93056116376604,157.02572425455799L209.08968573434012,163.84050895080264L209.32837259020124,164.77041211562823L209.6466217313494,164.69664582569936L209.80574630192348,172.26031241720034L209.88530858721052,173.01185262877027L210.04443315778462,159.91844019323077L210.12399544307164,154.9575038056273L210.6809314400809,174.15669113649415L210.840056010655,170.56433510054083L211.0787428665161,170.759655090461L211.2378674370902,148.19662356236813L211.31742972237726,136.51534824306202L211.39699200766427,172.2770560994648L211.87436571938653,171.91244668161266L212.6699885722569,164.37814083599625L212.82911314283098,153.32493183866836L213.22692456926617,168.06809988405746L213.38604913984025,155.46504609450142L213.70429828098844,157.04422512896195L213.78386056627545,170.55928880516583L213.86342285156252,159.13791956318505L214.02254742213657,170.21738175317944L214.18167199271065,153.7391998244268L214.26123427799772,171.74203217364567L214.57948341914584,174.3248206983476L215.05685713086808,174.38690649746528L215.2159817014422,172.89514412769307L215.37510627201627,172.11398111537764L215.69335541316443,162.4453500741555L216.40941598074775,157.61188697725765L216.48897826603482,172.2379784520999L216.56854055132183,146.948593084883L216.88678969247,155.260098652927L217.2846011189052,151.97507963023963L217.36416340419225,167.1743119208744L217.44372568947927,158.2784419029311L217.76197483062745,172.3441858748879L217.84153711591446,163.5732050415627L218.0802239717756,133.87689641675684L218.2393485423497,167.6929632155596L218.4780353982108,171.85982301761877L218.875846824646,150.76901503561567L219.03497139522008,22.48059920649257L219.19409596579416,140.392511862746L219.2736582510812,168.65190444430445L219.67146967751637,144.25635739720974L219.83059424809048,165.0885248512791L220.22840567452565,118.37903952591887L220.4670925303868,167.2611418609626L220.62621710096087,160.35934037388188L220.78534167153492,167.45134200787297L221.18315309797015,86.67402440315163L221.42183995383127,126.76997388917994L221.58096452440535,132.57335669014674L221.74008909497942,167.0199215210152L221.81965138026646,106.67817005655638L222.05833823612755,163.83202910728778L222.13790052141462,167.49712839219583L222.21746280670166,169.28170741809174L222.45614966256278,168.5754553221837L222.53571194784982,130.14049104343349L222.61527423313683,38.07635528775154L223.25177251543317,49.89844716145308L223.3313348007202,164.45707798846536L223.41089708600725,133.56516841091604L223.57002165658133,158.72407166031365L223.64958394186837,119.41436229247142L223.96783308301653,125.98632450299442L224.1269576535906,156.8041325194148L224.84301822117396,61.99573175646583L225.24082964760916,148.58057932112877L225.3203919328962,140.7697171412965L225.39995421818324,171.86749516233346L225.55907878875735,159.92646417392814L225.95689021519252,148.44175319101203L226.03645250047956,168.94146810841875L226.11601478576662,159.8425801147797L226.19557707105363,157.40965881039688L226.3547016416277,156.23842531546734L226.5138262122018,133.12364141889088L226.83207535334998,159.98807986451527L227.1503244944981,163.11407697412506L227.22988677978515,130.88391848707124L227.38901135035925,158.0124896799523L227.62769820622034,171.9201241270578L227.78682277679442,136.7233038491588L228.3437587738037,172.34297830223545L228.7415702002389,163.84439836176L228.98025705610002,164.61053148422002L229.37806848253524,169.24195724055278L229.61675533839636,158.45789680665655L229.69631762368337,146.8795033643812L229.77587990897044,162.77347721478242L230.0941290501186,84.63751557405385L230.41237819126673,162.86804092057662L230.5715027618408,-17.451679625865836L231.20800104413715,135.48771418600677L231.28756332942416,152.93071916651422L231.36712561471123,167.92757155687949L231.68537475585936,142.06981139312325L232.00362389700754,149.7818891605517L232.3218730381557,135.8211248296957L232.4014353234427,169.21351484621624L232.7196844645909,127.51312569483503L232.7992467498779,160.28755523195343L232.87880903516498,156.0847544897648L232.958371320452,162.48027393663256L233.27662046160017,157.55366507933212L233.51530731746126,157.1558545363946L233.7539941733224,140.59278936080636L233.91311874389646,144.61383335707774L234.07224331447054,-234.86896233324114L234.39049245561873,51.01367843932712L234.78830388205392,-17.9326679056212L234.86786616734096,154.01463107860764L234.947428452628,151.0642657208964L235.10655302320208,143.5461655334052L235.1861153084891,42.42264680284052L235.3452398790632,131.45295720009767L235.50436444963728,131.0480715072108L235.58392673492432,161.0388502847407L235.66348902021136,161.16752154052483L236.29998730250767,95.56866597681642L236.45911187308172,157.80786558293448L236.69779872894287,113.5181106942673L236.7773610142299,64.65207619835746L236.85692329951695,163.4505593911016L236.936485584804,167.2194396894406L237.09561015537807,166.38309839235683L237.25473472595215,150.9509599574634L237.49342158181327,149.8778959902071L237.5729838671003,131.28582516945312L237.89123300824846,152.48880522116724L237.9707952935355,-94.73480277121143L238.05035757882254,103.0066774281513L238.2890444346837,162.69968177083615L238.92554271697998,160.90654670342536L240.3576638521467,158.98868279849216L240.43722613743373,163.1965152590471L240.83503756386895,2.3340600313877076L240.91459984915596,41.00469080977109L241.07372441973007,79.76679099255671L241.23284899030415,26.586205755408173L241.31241127559116,81.45725753733677L241.55109813145228,164.8964316810118L241.86934727260044,80.0215865031505L241.9489095578875,41.6183669737984L242.10803412846155,170.40934836850758L242.26715869903563,127.48348401023736L242.3467209843227,165.28815168467844L242.74453241075787,130.6257199075376L242.8240946960449,168.20076656540766L243.06278155190606,165.92334748909298L243.14234383719307,153.48728261045972L243.46059297834125,142.6276682152951L243.54015526362826,160.94567669550332L243.61971754891533,126.26485668448026L244.09709126063754,129.88990961353625L244.25621583121162,55.4390674539809L244.3357781164987,-24.39444913330317L244.4153404017857,58.0327784650417L245.44965011051724,172.0183499749919L245.52921239580425,152.51910419633896L245.68833696637836,125.00451261019248L246.08614839281353,164.08528608087255L246.48395981924872,173.11013214660005L246.6430843898228,152.22540662507595L247.12045810154507,165.58582877931622L247.27958267211915,135.73019609979792L247.43870724269323,170.73057462069823L247.5978318132673,168.05880107769025L247.67739409855434,149.33897867788278L247.83651866912842,170.37628970055266L248.23433009556362,172.58671715173125L248.31389238085066,159.02148371842964L248.3934546661377,157.18832681104504L248.4730169514247,154.63186403275745L248.71170380728586,164.62800534210203L248.7912660925729,93.16985222242351L249.029952948434,158.22454142549344L249.10951523372105,165.78268200551497L249.1890775190081,167.13962526608435L249.26863980429513,120.23635186189995L249.58688894544326,161.43230760280773L249.66645123073033,167.17774348124036L250.06426265716553,173.33174740373454L250.2233872277396,126.65695701555569L250.6211986541748,153.7650249831106L250.70076093946184,166.8871673776128L250.85988551003595,132.50972142126352L251.01901008061,168.8887781852944L251.09857236589704,126.82870598240993L251.25769693647112,134.60283144995606L251.4168215070452,107.43968889317193L251.8146329334804,172.85074653474442L252.05331978934151,145.53902284736319L252.2124443599156,12.815406351549427L252.29200664520263,147.34929120072547L252.6102557863508,172.0197811722096L253.008067212786,166.6672109178091L253.56500320979526,168.12283125099094L253.6445654950823,124.63132528531241L254.0423769215175,172.60870955101421L254.20150149209158,169.8420158280902L254.59931291852678,165.30863635744805L254.67887520381382,156.20624458099087L254.75843748910086,143.52779585207952L254.8379997743879,122.76736053263426L255.55406034197125,172.55023056766254L255.95187176840645,157.81251299834418L256.19055862426757,139.47509854401005L256.27012090955463,150.37925762739292L256.98618147713796,164.0865185006989L257.14530604771204,166.8809098653332L257.3839929035732,139.78978965816452L257.54311747414727,136.6025002025242L258.0204911858695,169.56463655547418L258.57742718287875,62.3427705781055L258.73655175345283,143.62705998058777L258.8161140387399,118.5925794515299L258.975238609314,42.57633618109958L259.21392546517507,172.67140791579288L259.5321746063233,167.64284083374014L259.77086146218437,171.04895106768828L259.8504237474714,1.444258217492461L260.00954831804546,171.77868804979266L260.16867288861954,168.88473041501527L260.2482351739066,163.94450000567713L260.72560888562884,171.15909693319017L260.8051711709159,116.54921677797847L260.96429574148993,120.248962299607L261.123420312064,149.55957652606924L261.36210716792516,46.28040179803338L261.91904316493446,150.76653694413687L262.23729230608257,-31.8293384544113L262.31685459136963,150.0486060138959L262.5555414472307,163.10388366949678" fill="none"></path></g></g></g></g></g></g><g transform="translate(51, 177)" clip-path="url(#clip_1)"><clipPath id="clip_1"><rect width="278" height="22"></rect></clipPath><g><g><line x1="0" y1="0" x2="0" y2="5" style="visibility: inherit;" fill="rgb(0, 0, 0)" stroke="rgb(204, 204, 204)" stroke-width="1px"></line><line x1="39.78114264351981" y1="0" x2="39.78114264351981" y2="5" style="visibility: inherit;" fill="rgb(0, 0, 0)" stroke="rgb(204, 204, 204)" stroke-width="1px"></line><line x1="79.56228528703961" y1="0" x2="79.56228528703961" y2="5" style="visibility: inherit;" fill="rgb(0, 0, 0)" stroke="rgb(204, 204, 204)" stroke-width="1px"></line><line x1="119.34342793055943" y1="0" x2="119.34342793055943" y2="5" style="visibility: inherit;" fill="rgb(0, 0, 0)" stroke="rgb(204, 204, 204)" stroke-width="1px"></line><line x1="159.12457057407923" y1="0" x2="159.12457057407923" y2="5" style="visibility: inherit;" fill="rgb(0, 0, 0)" stroke="rgb(204, 204, 204)" stroke-width="1px"></line><line x1="198.90571321759904" y1="0" x2="198.90571321759904" y2="5" style="visibility: inherit;" fill="rgb(0, 0, 0)" stroke="rgb(204, 204, 204)" stroke-width="1px"></line><line x1="238.68685586111886" y1="0" x2="238.68685586111886" y2="5" style="visibility: inherit;" fill="rgb(0, 0, 0)" stroke="rgb(204, 204, 204)" stroke-width="1px"></line><line x1="278.4679985046387" y1="0" x2="278.4679985046387" y2="5" style="visibility: inherit;" fill="rgb(0, 0, 0)" stroke="rgb(204, 204, 204)" stroke-width="1px"></line></g><g transform="translate(0, 8)"><text style="text-anchor: middle; visibility: hidden; font-family: Roboto, sans-serif; font-size: 12px; font-weight: 200;" x="0" y="0" dx="0em" dy="0.95em" fill="rgb(50, 49, 63)" stroke="none" stroke-width="1px">-500</text><text style="text-anchor: middle; visibility: inherit; font-family: Roboto, sans-serif; font-size: 12px; font-weight: 200;" x="39.78114264351981" y="0" dx="0em" dy="0.95em" fill="rgb(50, 49, 63)" stroke="none" stroke-width="1px">0</text><text style="text-anchor: middle; visibility: inherit; font-family: Roboto, sans-serif; font-size: 12px; font-weight: 200;" x="79.56228528703961" y="0" dx="0em" dy="0.95em" fill="rgb(50, 49, 63)" stroke="none" stroke-width="1px">500</text><text style="text-anchor: middle; visibility: inherit; font-family: Roboto, sans-serif; font-size: 12px; font-weight: 200;" x="119.34342793055943" y="0" dx="0em" dy="0.95em" fill="rgb(50, 49, 63)" stroke="none" stroke-width="1px">1k</text><text style="text-anchor: middle; visibility: inherit; font-family: Roboto, sans-serif; font-size: 12px; font-weight: 200;" x="159.12457057407923" y="0" dx="0em" dy="0.95em" fill="rgb(50, 49, 63)" stroke="none" stroke-width="1px">1.5k</text><text style="text-anchor: middle; visibility: inherit; font-family: Roboto, sans-serif; font-size: 12px; font-weight: 200;" x="198.90571321759904" y="0" dx="0em" dy="0.95em" fill="rgb(50, 49, 63)" stroke="none" stroke-width="1px">2k</text><text style="text-anchor: middle; visibility: inherit; font-family: Roboto, sans-serif; font-size: 12px; font-weight: 200;" x="238.68685586111886" y="0" dx="0em" dy="0.95em" fill="rgb(50, 49, 63)" stroke="none" stroke-width="1px">2.5k</text><text style="text-anchor: middle; visibility: hidden; font-family: Roboto, sans-serif; font-size: 12px; font-weight: 200;" x="278.4679985046387" y="0" dx="0em" dy="0.95em" fill="rgb(50, 49, 63)" stroke="none" stroke-width="1px">3k</text></g><line x1="0" y1="0" x2="278.4679985046387" y2="0" fill="rgb(0, 0, 0)" stroke="rgb(204, 204, 204)" stroke-width="1px"></line></g></g></g></g></svg>