<svg viewBox="0 0 330 200" xmlns="http://www.w3.org/2000/svg"><g><g><g><g><g><line x1="41.149001121520996" y1="177.86299896240234" x2="36.149001121520996" y2="177.86299896240234" style="visibility: inherit;" fill="rgb(0, 0, 0)" stroke="rgb(204, 204, 204)" stroke-width="1px"></line><line x1="41.149001121520996" y1="165.15849903651647" x2="36.149001121520996" y2="165.15849903651647" style="visibility: inherit;" fill="rgb(0, 0, 0)" stroke="rgb(204, 204, 204)" stroke-width="1px"></line><line x1="41.149001121520996" y1="152.45399911063058" x2="36.149001121520996" y2="152.45399911063058" style="visibility: inherit;" fill="rgb(0, 0, 0)" stroke="rgb(204, 204, 204)" stroke-width="1px"></line><line x1="41.149001121520996" y1="139.7494991847447" x2="36.149001121520996" y2="139.7494991847447" style="visibility: inherit;" fill="rgb(0, 0, 0)" stroke="rgb(204, 204, 204)" stroke-width="1px"></line><line x1="41.149001121520996" y1="127.0449992588588" x2="36.149001121520996" y2="127.0449992588588" style="visibility: inherit;" fill="rgb(0, 0, 0)" stroke="rgb(204, 204, 204)" stroke-width="1px"></line><line x1="41.149001121520996" y1="114.34049933297293" x2="36.149001121520996" y2="114.34049933297293" style="visibility: inherit;" fill="rgb(0, 0, 0)" stroke="rgb(204, 204, 204)" stroke-width="1px"></line><line x1="41.149001121520996" y1="101.63599940708704" x2="36.149001121520996" y2="101.63599940708704" style="visibility: inherit;" fill="rgb(0, 0, 0)" stroke="rgb(204, 204, 204)" stroke-width="1px"></line><line x1="41.149001121520996" y1="88.93149948120116" x2="36.149001121520996" y2="88.93149948120116" style="visibility: inherit;" fill="rgb(0, 0, 0)" stroke="rgb(204, 204, 204)" stroke-width="1px"></line><line x1="41.149001121520996" y1="76.2269995553153" x2="36.149001121520996" y2="76.2269995553153" style="visibility: inherit;" fill="rgb(0, 0, 0)" stroke="rgb(204, 204, 204)" stroke-width="1px"></line><line x1="41.149001121520996" y1="63.5224996294294" x2="36.149001121520996" y2="63.5224996294294" style="visibility: inherit;" fill="rgb(0, 0, 0)" stroke="rgb(204, 204, 204)" stroke-width="1px"></line><line x1="41.149001121520996" y1="50.81799970354352" x2="36.149001121520996" y2="50.81799970354352" style="visibility: inherit;" fill="rgb(0, 0, 0)" stroke="rgb(204, 204, 204)" stroke-width="1px"></line><line x1="41.149001121520996" y1="38.11349977765763" x2="36.149001121520996" y2="38.11349977765763" style="visibility: inherit;" fill="rgb(0, 0, 0)" stroke="rgb(204, 204, 204)" stroke-width="1px"></line><line x1="41.149001121520996" y1="25.408999851771732" x2="36.149001121520996" y2="25.408999851771732" style="visibility: inherit;" fill="rgb(0, 0, 0)" stroke="rgb(204, 204, 204)" stroke-width="1px"></line><line x1="41.149001121520996" y1="12.704499925885896" x2="36.149001121520996" y2="12.704499925885896" style="visibility: inherit;" fill="rgb(0, 0, 0)" stroke="rgb(204, 204, 204)" stroke-width="1px"></line><line x1="41.149001121520996" y1="0" x2="36.149001121520996" y2="0" style="visibility: inherit;" fill="rgb(0, 0, 0)" stroke="rgb(204, 204, 204)" stroke-width="1px"></line></g><g transform="translate(31.149001121520996, 0)"><text style="text-anchor: end; visibility: hidden; font-family: Roboto, sans-serif; font-size: 12px; font-weight: 200;" x="0" y="177.86299896240234" dx="0em" dy="0.3em" fill="rgb(50, 49, 63)" stroke="none" stroke-width="1px">1.2</text><text style="text-anchor: end; visibility: inherit; font-family: Roboto, sans-serif; font-size: 12px; font-weight: 200;" x="0" y="165.15849903651647" dx="0em" dy="0.3em" fill="rgb(50, 49, 63)" stroke="none" stroke-width="1px">1.4</text><text style="text-anchor: end; visibility: hidden; font-family: Roboto, sans-serif; font-size: 12px; font-weight: 200;" x="0" y="152.45399911063058" dx="0em" dy="0.3em" fill="rgb(50, 49, 63)" stroke="none" stroke-width="1px">1.6</text><text style="text-anchor: end; visibility: inherit; font-family: Roboto, sans-serif; font-size: 12px; font-weight: 200;" x="0" y="139.7494991847447" dx="0em" dy="0.3em" fill="rgb(50, 49, 63)" stroke="none" stroke-width="1px">1.8</text><text style="text-anchor: end; visibility: hidden; font-family: Roboto, sans-serif; font-size: 12px; font-weight: 200;" x="0" y="127.0449992588588" dx="0em" dy="0.3em" fill="rgb(50, 49, 63)" stroke="none" stroke-width="1px">2</text><text style="text-anchor: end; visibility: inherit; font-family: Roboto, sans-serif; font-size: 12px; font-weight: 200;" x="0" y="114.34049933297293" dx="0em" dy="0.3em" fill="rgb(50, 49, 63)" stroke="none" stroke-width="1px">2.2</text><text style="text-anchor: end; visibility: hidden; font-family: Roboto, sans-serif; font-size: 12px; font-weight: 200;" x="0" y="101.63599940708704" dx="0em" dy="0.3em" fill="rgb(50, 49, 63)" stroke="none" stroke-width="1px">2.4</text><text style="text-anchor: end; visibility: inherit; font-family: Roboto, sans-serif; font-size: 12px; font-weight: 200;" x="0" y="88.93149948120116" dx="0em" dy="0.3em" fill="rgb(50, 49, 63)" stroke="none" stroke-width="1px">2.6</text><text style="text-anchor: end; visibility: hidden; font-family: Roboto, sans-serif; font-size: 12px; font-weight: 200;" x="0" y="76.2269995553153" dx="0em" dy="0.3em" fill="rgb(50, 49, 63)" stroke="none" stroke-width="1px">2.8</text><text style="text-anchor: end; visibility: inherit; font-family: Roboto, sans-serif; font-size: 12px; font-weight: 200;" x="0" y="63.5224996294294" dx="0em" dy="0.3em" fill="rgb(50, 49, 63)" stroke="none" stroke-width="1px">3</text><text style="text-anchor: end; visibility: hidden; font-family: Roboto, sans-serif; font-size: 12px; font-weight: 200;" x="0" y="50.81799970354352" dx="0em" dy="0.3em" fill="rgb(50, 49, 63)" stroke="none" stroke-width="1px">3.2</text><text style="text-anchor: end; visibility: inherit; font-family: Roboto, sans-serif; font-size: 12px; font-weight: 200;" x="0" y="38.11349977765763" dx="0em" dy="0.3em" fill="rgb(50, 49, 63)" stroke="none" stroke-width="1px">3.4</text><text style="text-anchor: end; visibility: hidden; font-family: Roboto, sans-serif; font-size: 12px; font-weight: 200;" x="0" y="25.408999851771732" dx="0em" dy="0.3em" fill="rgb(50, 49, 63)" stroke="none" stroke-width="1px">3.6</text><text style="text-anchor: end; visibility: inherit; font-family: Roboto, sans-serif; font-size: 12px; font-weight: 200;" x="0" y="12.704499925885896" dx="0em" dy="0.3em" fill="rgb(50, 49, 63)" stroke="none" stroke-width="1px">3.8</text><text style="text-anchor: end; visibility: hidden; font-family: Roboto, sans-serif; font-size: 12px; font-weight: 200;" x="0" y="0" dx="0em" dy="0.3em" fill="rgb(50, 49, 63)" stroke="none" stroke-width="1px">4</text></g><line x1="41.149001121520996" y1="0" x2="41.149001121520996" y2="177.86299896240234" fill="rgb(0, 0, 0)" stroke="rgb(204, 204, 204)" stroke-width="1px"></line></g></g><g transform="translate(41, 0)" clip-path="url(#clip_0)"><clipPath id="clip_0"><rect width="288" height="177"></rect></clipPath><g><g><g><line x1="0" y1="0" x2="0" y2="177.86299896240234" fill="rgb(0, 0, 0)" stroke="rgb(60, 60, 60)" stroke-width="1px" opacity="0.25"></line><line x1="41.264428411211284" y1="0" x2="41.264428411211284" y2="177.86299896240234" fill="rgb(0, 0, 0)" stroke="rgb(60, 60, 60)" stroke-width="1px" opacity="0.25"></line><line x1="82.52885682242257" y1="0" x2="82.52885682242257" y2="177.86299896240234" fill="rgb(0, 0, 0)" stroke="rgb(60, 60, 60)" stroke-width="1px" opacity="0.25"></line><line x1="123.79328523363385" y1="0" x2="123.79328523363385" y2="177.86299896240234" fill="rgb(0, 0, 0)" stroke="rgb(60, 60, 60)" stroke-width="1px" opacity="0.25"></line><line x1="165.05771364484514" y1="0" x2="165.05771364484514" y2="177.86299896240234" fill="rgb(0, 0, 0)" stroke="rgb(60, 60, 60)" stroke-width="1px" opacity="0.25"></line><line x1="206.32214205605644" y1="0" x2="206.32214205605644" y2="177.86299896240234" fill="rgb(0, 0, 0)" stroke="rgb(60, 60, 60)" stroke-width="1px" opacity="0.25"></line><line x1="247.5865704672677" y1="0" x2="247.5865704672677" y2="177.86299896240234" fill="rgb(0, 0, 0)" stroke="rgb(60, 60, 60)" stroke-width="1px" opacity="0.25"></line><line x1="288.850998878479" y1="0" x2="288.850998878479" y2="177.86299896240234" fill="rgb(0, 0, 0)" stroke="rgb(60, 60, 60)" stroke-width="1px" opacity="0.25"></line></g><g><line x1="0" y1="177.86299896240234" x2="288.850998878479" y2="177.86299896240234" fill="rgb(0, 0, 0)" stroke="rgb(60, 60, 60)" stroke-width="1px" opacity="0.25"></line><line x1="0" y1="165.15849903651647" x2="288.850998878479" y2="165.15849903651647" fill="rgb(0, 0, 0)" stroke="rgb(60, 60, 60)" stroke-width="1px" opacity="0.25"></line><line x1="0" y1="152.45399911063058" x2="288.850998878479" y2="152.45399911063058" fill="rgb(0, 0, 0)" stroke="rgb(60, 60, 60)" stroke-width="1px" opacity="0.25"></line><line x1="0" y1="139.7494991847447" x2="288.850998878479" y2="139.7494991847447" fill="rgb(0, 0, 0)" stroke="rgb(60, 60, 60)" stroke-width="1px" opacity="0.25"></line><line x1="0" y1="127.0449992588588" x2="288.850998878479" y2="127.0449992588588" fill="rgb(0, 0, 0)" stroke="rgb(60, 60, 60)" stroke-width="1px" opacity="0.25"></line><line x1="0" y1="114.34049933297293" x2="288.850998878479" y2="114.34049933297293" fill="rgb(0, 0, 0)" stroke="rgb(60, 60, 60)" stroke-width="1px" opacity="0.25"></line><line x1="0" y1="101.63599940708704" x2="288.850998878479" y2="101.63599940708704" fill="rgb(0, 0, 0)" stroke="rgb(60, 60, 60)" stroke-width="1px" opacity="0.25"></line><line x1="0" y1="88.93149948120116" x2="288.850998878479" y2="88.93149948120116" fill="rgb(0, 0, 0)" stroke="rgb(60, 60, 60)" stroke-width="1px" opacity="0.25"></line><line x1="0" y1="76.2269995553153" x2="288.850998878479" y2="76.2269995553153" fill="rgb(0, 0, 0)" stroke="rgb(60, 60, 60)" stroke-width="1px" opacity="0.25"></line><line x1="0" y1="63.5224996294294" x2="288.850998878479" y2="63.5224996294294" fill="rgb(0, 0, 0)" stroke="rgb(60, 60, 60)" stroke-width="1px" opacity="0.25"></line><line x1="0" y1="50.81799970354352" x2="288.850998878479" y2="50.81799970354352" fill="rgb(0, 0, 0)" stroke="rgb(60, 60, 60)" stroke-width="1px" opacity="0.25"></line><line x1="0" y1="38.11349977765763" x2="288.850998878479" y2="38.11349977765763" fill="rgb(0, 0, 0)" stroke="rgb(60, 60, 60)" stroke-width="1px" opacity="0.25"></line><line x1="0" y1="25.408999851771732" x2="288.850998878479" y2="25.408999851771732" fill="rgb(0, 0, 0)" stroke="rgb(60, 60, 60)" stroke-width="1px" opacity="0.25"></line><line x1="0" y1="12.704499925885896" x2="288.850998878479" y2="12.704499925885896" fill="rgb(0, 0, 0)" stroke="rgb(60, 60, 60)" stroke-width="1px" opacity="0.25"></line><line x1="0" y1="0" x2="288.850998878479" y2="0" fill="rgb(0, 0, 0)" stroke="rgb(60, 60, 60)" stroke-width="1px" opacity="0.25"></line></g></g></g><g><g><line x1="0" y1="254.08999851771765" x2="288.850998878479" y2="254.08999851771765" fill="rgb(0, 0, 0)" stroke="rgb(153, 153, 153)" stroke-width="1.5px"></line></g></g><g><g><line x1="41.264428411211284" y1="0" x2="41.264428411211284" y2="177.86299896240234" fill="rgb(0, 0, 0)" stroke="rgb(153, 153, 153)" stroke-width="1.5px"></line></g></g><g><g><g><g><g><path style="fill: none;" stroke="rgb(255, 112, 67)" stroke-width="2px" d="M42.91500554765974,193.273359106934L43.16259211812701,150.25625392243265L43.32764983177185,167.17797662690063L43.41017868859427,143.81564376344463L43.57523640223912,181.75954801486907L43.74029411588397,150.5493640951766L43.987880686351225,138.22821922179767L44.152938399996074,145.8692120885953L44.730640397753035,151.74883391176442L45.060755825042726,162.79485872455766L45.14328468186515,151.61473261474598L45.225813538687575,112.587881238357L45.47340010915484,153.79243583403L46.21615982055664,137.1872699485409L46.29868867737906,134.94545868900178L46.38121753420148,115.06450551658521L46.62880410466875,120.54602423257849L46.87639067513602,95.11616800159777L47.20650610242571,98.57296926707087L47.5366215297154,129.9469316123956L47.619150386537825,121.10364860399704L47.701679243360246,103.18263765861319L47.86673695700509,141.7019958514949L48.03179467064994,147.44576188684223L48.11432352747236,166.68380367649294L48.27938124111721,189.4746176634646L48.36191009793963,167.63617152802252L48.52696781158448,129.57253959927775L48.69202552522932,126.16875540786565L49.26972752298627,154.92394174133744L49.51731409345354,140.48763209555537L49.59984295027596,147.96635878155374L49.76490066392081,126.3458312414555L50.0950160912105,122.60179574330591L50.507660375322615,159.86485196918275L50.59018923214504,144.57383725214387L51.58053551401411,139.69464960079011L51.66306437083653,146.00297827903267L51.99317979812622,141.81757305311217L52.24076636859349,135.85488196843343L52.40582408223834,126.97460438694873L52.570881795883174,124.35372987267044L53.313641507284984,126.63268863819216L53.80881464821952,130.24528671577153L54.221458932331636,147.44466904860644L54.30398778915405,127.5476633082943L54.55157435962132,154.24134381778853L54.71663207326616,161.15919363484488L54.88168978691101,124.35855623734152L55.37686292784555,155.08512872158937L55.45939178466797,157.977707035983L56.20215149606977,148.0895275997795L56.367209209714616,178.45804305603747L56.53226692335946,161.45124525565134L56.77985349382673,153.98515438198146L57.52261320522854,180.89374181520367L57.7701997756958,149.44200003704756L57.85272863251822,142.73645239340567L58.017786346163064,119.89238061133167L58.265372916630334,119.2636634124609L58.843074914387294,142.05287866579067L59.00813262803214,115.32178695426282L59.090661484854564,120.07402032176941L59.42077691214425,73.99692867666062L59.50330576896667,121.97860892295361L59.5858346257891,117.92855307704056L59.66836348261152,153.0658260250556L59.91595005307879,122.8319093133893L59.99847890990121,119.95848682679782L60.3285943371909,151.03631951974864L60.41112319401332,137.13796091270584L60.49365205083575,87.60939877998116L60.90629633494786,104.19187011649073L61.07135404859271,94.50895582018202L61.153882905415124,142.21698102954065L61.483998332704815,87.87991265313352L61.896642616816926,122.35719764034886L61.979171473639354,125.15472413731221L62.144229187284196,149.98331392356744L62.309286900929045,132.50546912084687L62.391815757751466,159.79969570381695L62.47434461457389,119.3692561888302L62.72193118504115,145.69971893258966L62.886988898686,129.9331130803765L63.13457546915327,144.42735638021009L63.29963318279811,138.22182561010072L63.54721975326538,142.29913475326643L63.6297486100878,150.0745838365129L63.95986403737749,135.48209667051304L64.04239289419992,96.03507830603289L64.12492175102234,103.81244194516196L64.20745060784476,96.52303536952283L64.45503717831203,102.45954838313142L64.53756603513445,102.40537664162142L64.95021031924657,152.63313044379146L65.61044117382595,125.3359110745902L65.77549888747079,152.40217830856153L65.85802774429321,137.79431667418712L66.02308545793805,165.00655071385242L66.18814317158291,115.92242018108898L66.27067202840533,100.84777723870644L66.51825859887259,137.40058952442095L66.60078745569501,99.74772928411971L66.68331631251743,113.71154948877047L66.84837402616229,128.46241911847844L67.34354716709682,154.40319703262068L67.42607602391924,127.05396942663717L67.50860488074166,136.6843680571455L67.92124916485378,139.15599038660196L68.08630687849862,163.92350963104028L68.16883573532104,141.73710711746202L68.3338934489659,134.28371164080298L69.15918201719012,129.53466121121525L69.32423973083496,107.30656013278832L69.57182630130222,121.17054008012931L69.8194128717695,94.80082085834407L69.98447058541434,118.27151088536492L70.2320571558816,99.54759519007199L70.39711486952646,110.18544077040367L70.56217258317129,131.6460728145878L70.72723029681615,105.86384937732119L70.97481686728341,105.74730257247616L71.05734572410583,141.26885336357017L71.22240343775069,142.67854667563603L71.80010543550765,179.6105019149206L72.87298057419913,186.32221154570428L73.12056714466641,138.19771308539543L73.20309600148883,111.56338741637902L73.53321142877851,101.91839465535448L73.94585571289063,73.98887886495574L74.11091342653546,116.01373163243584L74.2759711401803,108.79659361401559L74.52355771064758,148.0835665647087L74.77114428111484,155.03264908661907L75.26631742204938,132.23041918357382L75.3488462788718,161.61830508518304L75.51390399251666,130.74852773802854L75.59643284933908,70.83690425817778L76.0916059902736,78.52442845087342L76.17413484709604,83.4860945078328L76.4217214175633,74.28797665026343L76.751836844853,63.2388569009155L76.83436570167542,76.35924633598115L76.91689455849784,44.14823484735273L76.99942341532027,46.73673160731462L77.41206769943238,102.12145212707436L77.65965426989963,74.88316001902047L77.74218312672205,116.10413027161125L77.82471198354447,66.93671535528631L78.2373562676566,66.87586898500487L78.65000055176871,46.22580794789924L78.81505826541355,95.38941610576835L78.89758712223598,112.28859892915577L78.9801159790584,133.3145912850617L79.06264483588082,131.9312090234131L79.22770254952567,83.14259690226653L79.88793340410506,115.78588063265599L80.21804883139474,124.10871344918384L80.30057768821717,160.90411812850218L81.12586625644138,172.93818208073102L81.5385105405535,155.39291421701103L81.70356825419834,162.32575678592366L81.78609711102077,145.28923161989644L81.86862596784319,155.95670157316917L81.95115482466561,146.44749851903134L82.2812702519553,158.55197660291626L82.69391453606742,120.14220091441503L82.77644339288985,83.30192058611627L83.02402996335711,92.13317869182364L83.43667424746923,114.1475264918827L83.51920310429165,145.850762286445L83.84931853158133,97.18256995177066L83.93184738840377,111.67464563468526L84.01437624522619,118.55594171240762L84.17943395887103,128.62519646576644L84.42702052933828,133.80199724143222L84.75713595662798,123.54097436050056L84.8396648134504,153.67493921268638L85.1697802407401,150.30899289667877L85.25230909756252,156.7734986048248L85.66495338167464,134.06149671141137L85.83001109531948,135.6985273157213L86.2426553794316,111.00299576444559L86.32518423625402,137.67522999990805L86.40771309307644,162.08871247980474L86.6552996635437,178.60611212844194L86.73782852036612,169.51570504646708L86.82035737718854,139.3053655437523L87.06794394765582,155.739312428579L87.15047280447824,174.19179051598175L87.23300166130066,159.70216624156805L87.31553051812308,124.41048342320357L87.72817480223519,130.63001210367702L87.89323251588003,151.87975287996292L87.97576137270245,130.7213457332324L88.05829022952489,58.40200744216126L88.1408190863473,96.78598449798206L88.38840565681457,101.34513043963095L88.55346337045941,87.94644250107436L88.80104994092669,24.705495674002986L88.88357879774911,53.06549891704358L89.29622308186123,67.4866509520106L89.37875193868365,67.97054097662459L89.62633850915091,110.3886875949156L89.79139622279575,152.56696035600316L90.20404050690787,171.71297892563948L90.36909822055271,165.69492477380723L90.61668479101999,168.05786403454852L90.78174250466483,145.02875574817327L90.86427136148725,110.11362639418208L90.94680021830968,117.60220426531444L91.02932907513211,88.26062505012128L91.19438678877695,83.98405221627728L91.27691564559936,125.15159415123176L91.4419733592442,127.62096490755424L91.60703107288904,101.61080027478377L91.68955992971148,98.02640070310682L91.7720887865339,87.72576978430993L92.01967535700116,39.74257095601864L92.26726192746844,79.01496944278891L92.67990621158054,126.96243340312839L93.01002163887024,149.25625886365728L93.09255049569266,155.66316890777134L93.2576082093375,129.9732442513917L93.50519477980478,134.34284521387787L93.83531020709447,89.88880667401023L93.91783906391689,5.566160315102737L94.08289677756174,62.04341990976033L94.16542563438416,41.36926036198983L94.24795449120658,76.45828251195903L94.330483348029,74.34762798551253L94.6605987753187,121.30953737231457L94.74312763214111,139.85664610819805L94.90818534578595,141.6564012036473L94.99071420260837,143.81104853803689L95.32082962989807,104.32769242237465L95.98106048447745,145.25760677848814L96.31117591176714,79.31992697538467L96.39370476858957,94.43594678815529L96.64129133905683,138.95498857559693L96.72382019587926,117.54906794937108L96.80634905270168,147.66545955840502L96.97140676634652,125.87810735331661L97.05393562316895,116.52267725552811L97.2189933368138,109.91047079980093L97.38405105045864,80.14331058910277L97.46657990728106,80.4509257560624L97.63163762092591,108.28414115786187L97.79669533457076,119.45237350747901L98.044281905038,89.6508293076093L98.29186847550528,77.69496234131643L98.62198390279497,119.35103792193962L98.70451275961739,151.2530904140764L99.28221475737435,145.5412338903122L99.4472724710192,89.54136646900324L99.52980132784162,134.8018605680534L99.94244561195373,87.84253230344854L100.27256103924343,106.47318777589518L100.43761875288827,130.69295906389024L100.76773418017797,94.79785550290715L101.18037846429009,82.00222489920388L101.59302274840218,115.83455156583278L101.6755516052246,127.07140081210434L101.75808046204703,75.4097837499311L102.0056670325143,99.17218799123735L102.17072474615914,75.82847210140011L102.33578245980398,58.68066017453553L102.41831131662641,80.9997040489156L102.58336903027126,117.73586525716077L102.83095560073852,119.27886499425662L102.91348445756094,134.83260295332198L102.99601331438338,151.03568886766632L103.16107102802822,120.41569231706394L103.32612874167306,66.59247586902472L103.40865759849548,88.13129827681387L103.57371531214034,120.13560078177976L103.73877302578518,136.77620296058234L104.06888845307486,92.91494181775276L104.23394616671972,101.12948157100627L104.5640615940094,113.80963619176669L104.64659045083182,102.29319636356841L104.8941770212991,136.6815686409953L105.05923473494393,93.06176379653861L105.30682130541119,69.20319234783173L105.47187901905605,92.5629001822432L105.63693673270089,125.94872976654885L105.88452330316815,132.29015217983493L106.13210987363543,134.90930795401178L106.21463873045785,155.03429995976052L106.62728301456997,115.87656631035982L107.03992729868207,147.5810083049445L107.37004272597177,114.9741092509963L107.45257158279419,125.5232073958705L107.53510043961661,160.46064786567794L107.70015815326146,135.04146639820294L107.78268701008389,132.672625595016L107.86521586690631,138.4880327826514L108.2778601510184,122.94163925848288L108.52544672148568,90.61287363643845L108.6079755783081,58.0613458453437L108.69050443513052,86.09711833225583L108.77303329195294,107.86171286916048L108.9380910055978,109.81716888066778L109.18567757606506,115.3950647548724L109.43326414653232,108.28255849065681L110.17602385793414,110.99294233594998L110.4236104284014,106.64178427863354L111.00131242615836,142.35762709261533L111.08384128298079,136.7615858276287L111.1663701398032,155.54562702757335L111.4964855670929,143.4514042914169L111.66154328073775,168.68998993385233L111.82660099438257,142.9847130138046L111.90912985120502,146.40212993443916L112.23924527849469,123.07725653275475L112.73441841942923,126.76163154050595L112.89947613307407,135.27099639159619L113.14706270354135,145.99366304069767L113.22959156036377,150.23989692734892L113.47717813083104,133.87546100691452L113.72476470129831,119.09575799900072L113.88982241494315,128.88246362861486L114.054880128588,122.59992120378563L114.46752441270012,104.57660438916918L114.55005326952254,102.79783957494395L114.7976398399898,119.58035728396752L115.1277552672795,141.11965506437903L115.29281298092432,160.82361006242846L115.62292840821402,182.0790690463676L115.70545726503644,145.99466127618135L115.9530438355037,169.00375794368074L116.11810154914856,124.15977473213432L116.20063040597098,120.71140689970008L116.44821697643825,128.2716234433886L116.53074583326067,132.91622145926476L116.77833240372794,117.1061793033696L116.86086126055037,137.06047748868534L116.94339011737279,150.0995633635818L117.43856325830733,159.16977091895862L117.85120754241943,172.00931618158293L118.01626525606429,180.0358699386603L118.09879411288671,184.99675293841858L119.25419810840062,163.50447041493206L119.33672696522304,147.95159938521908L119.50178467886788,154.53549255360335L120.07948667662484,170.9609460861302L120.16201553344726,132.08585514799665L120.24454439026968,125.86605778856766L120.57465981755938,146.28751796711074L120.6571886743818,143.9373996803658L120.9873041016715,97.36890677525162L121.31741952896118,84.29680819528367L121.3999483857836,22.362181705193787L121.56500609942846,7.277209437162931L121.7300638130733,66.71697615481986L121.81259266989572,40.19861564524606L121.89512152671814,56.84940484150376L121.97765038354055,87.92254015979638L122.63788123811993,101.97807576656274L122.96799666540963,61.92910522838509L123.13305437905447,80.50079078029766L123.38064094952175,122.07000390059152L123.79328523363385,1.3815930687093398L124.28845837456839,10.73895914511564L124.37098723139081,4.823133019104365L124.45351608821325,15.052077371656168L124.61857380185809,44.44898249824941L124.86616037232535,109.6993071188698L125.69144894054958,71.33618468250292L125.85650665419442,77.45947964766518L126.02156436783926,79.16870302832862L126.26915093830654,46.9792664634442L126.5167375087738,66.83467055825851L126.68179522241864,90.30865464644724L126.76432407924106,98.46492020904518L127.17696836335318,59.089402136857906L127.2594972201756,107.75826388024568L127.50708379064288,130.878922216939L127.5896126474653,147.06942053723617L127.67214150428772,167.9641413244094L127.91972807475499,113.60310230119828L128.0022569315774,99.24354543759347L128.3323723588671,75.53025877588843L128.49743007251195,79.72605069993605L128.99260321344647,90.41961479783303L129.1576609270913,106.44250631570553L129.4052474975586,96.14469251851497L129.7353629248483,94.58308584135021L130.06547835213797,42.85757601879862L130.23053606578281,44.66873393864498L130.56065149307253,18.171093879566513L130.64318034989495,20.64788263979339L131.05582463400705,47.88799392222502L131.2208823476519,89.53948946133706L132.21122862952097,107.23630606699591L132.54134405681066,60.31218653674422L132.62387291363308,48.590863634680275L132.7064017704555,80.63797764125471L132.95398834092276,86.44761657004224L133.1190460545676,73.47610401235049L133.36663262503487,80.54769690034095L133.69674805232458,74.42724605067832L133.86180576596942,68.18491487453062L133.9443346227918,72.83904150164526L134.27445005008153,-0.3832287147916946L134.35697890690395,38.193149438150876L134.6045654773712,20.52092878227735L134.9346809046609,-6.475424383439541L135.01720976148331,7.723538879885202L135.18226747512819,5.210685291940524L135.34732518877303,-25.810573115426426L135.5949117592403,-48.66259186945678L136.0075560433524,8.028802294272774L136.17261375699724,69.87178902961615L136.33767147064208,76.98992537007804L136.58525804110937,50.44590433683732L136.99790232522147,88.4501651440955L137.0804311820439,104.05974249949354L137.24548889568874,135.68269565022797L137.41054660933358,113.2778632059477L137.493075466156,140.03860816567448L137.57560432297845,143.94869789861644L137.82319089344568,124.03891107484411L138.23583517755782,135.1132843498325L138.40089289120266,134.69500608177736L138.48342174802508,144.46800812920662L138.81353717531476,151.05653430982963L139.22618145942687,158.7553157675983L139.55629688671658,143.2717492323516L139.88641231400626,160.78453770222595L139.96894117082869,156.19935620226906L140.3815854549408,163.81699399204243L140.54664316858566,114.09020173613568L140.7117008822305,139.38777786481015L140.87675859587534,158.4015231719556L141.12434516634258,106.20840797388229L141.20687402316503,135.82125477767522L141.5369894504547,107.68689691054534L142.03216259138924,6.718469021856969L142.19722030503408,73.66298182680087L142.36227801867895,82.05008705178896L142.5273357323238,90.38844907854205L142.6098645891462,101.35513333972924L143.02250887325832,121.71034290656209L143.43515315737042,81.19803592912399L143.6827397278377,77.43236340075265L143.84779744148256,89.07663042568419L144.0128551551274,95.48633183572926L144.09538401194982,105.8583392987291L144.26044172559466,136.5824679248513L144.4254994392395,153.5825522996206L144.6730860097068,140.04675591739237L144.8381437233516,117.6368593281403L144.92067258017403,58.57607626110093L145.00320143699645,41.842915720194256L145.0857302938189,-36.09744134148112L145.66343229157584,3.5112449300615376L145.8284900052207,36.878066529104224L146.07607657568795,88.31603101459447L146.15860543251037,129.75328531632624L146.24113428933282,85.7014806166127L146.73630743026735,95.53368821724528L147.14895171437945,101.56206587531216L147.3965382848467,124.41619441133281L147.47906714166913,125.45024514282643L148.13929799624853,120.74716714987241L148.22182685307092,104.35529293072656L148.30435570989337,90.33597776436372L148.38688456671576,63.494760621118814L148.5519422803606,102.37778451287211L148.96458656447274,141.75423354556798L149.12964427811758,73.08956089663015L149.21217313494,100.460860834863L149.8724039895194,110.43132516018488L149.95493284634182,154.162740409837L150.2850482736315,115.00354005252936L150.45010598727637,105.26698346818736L150.61516370092122,106.56450944306911L150.6976925577436,98.08024393932273L150.86275027138845,89.57147075311174L151.19286569867816,66.85754381191794L151.27539455550055,73.74894519432198L151.4404522691454,90.56962737851585L151.6055099827903,84.0936798699745L151.6880388396127,99.01936170977491L151.85309655325753,132.72043120069827L151.93562541007995,37.131377679827494L152.01815426690237,81.41427210518471L152.1006831237248,114.12955749724048L152.43079855101448,122.31330979253768L152.51332740783693,107.5545435966614L152.76091397830416,113.23297803778168L152.8434428351266,127.6237821953544L152.92597169194903,125.9205923964603L153.2560871192387,57.01230257800789L153.33861597606113,49.167605795201894L153.503673689706,76.35429530809242L153.91631797381808,99.99977264627955L154.57654882839748,75.10151738217287L154.82413539886477,70.05218243283679L154.98919311250958,114.4533720123824L155.15425082615442,118.6945316929936L155.23677968297687,136.12468418971164L155.56689511026656,144.87993269464172L155.7319528239114,129.69774822688512L155.97953939437866,111.5767899206655L156.06206825120108,145.89096397345048L156.22712596484592,51.00444010649891L156.80482796260287,57.47505322655401L156.96988567624774,82.48367307724125L157.05241453307016,98.04722090278459L157.38252996035985,119.62420913059469L157.46505881718227,145.03306449674704L157.71264538764956,158.98132532663473L157.79517424447195,118.07472804012242L157.8777031012944,73.06039675482455L158.04276081493924,63.29889061760693L158.12528967176164,96.00278355003863L158.2903473854065,110.05788329220391L158.45540509905135,15.06011943380232L158.53793395587374,24.816400689813516L158.86804938316345,37.27769046820179L159.11563595363071,58.821282273040204L159.44575138092043,33.347613323059015L159.52828023774282,24.65966513943944L159.7758668082101,39.28778468597657L159.94092452185495,61.82609775679659L160.1059822354998,66.35519996416652L160.18851109232222,68.34678834966005L160.27103994914464,80.2237127756454L161.01379966054643,110.75428551057335L161.1788573741913,103.16305557828944L161.42644394465853,130.8158162406066L161.59150165830337,107.36480988054647L161.75655937194827,108.56359314384096L162.33426136970522,127.28730895551887L162.4167902265276,125.30338562144378L162.6643767969949,147.76989168661572L162.7469056538173,169.2021389229927L162.82943451063974,81.6435078712304L163.24207879475185,100.04028074259578L163.4896653652191,112.97544862753136L163.65472307886398,75.28540897479868L163.90230964933122,74.13662947465122L163.98483850615366,55.289270462940394L164.06736736297606,49.676123401662494L164.39748279026577,49.64696232423066L164.4800116470882,57.486553634617444L164.64506936073303,69.08967251848877L164.8101270743779,78.38553724244515L164.8926559312003,52.71129429767199L165.22277135848998,63.35799094017354L165.3053002153124,73.3242806368919L165.63541564260208,95.42258220222197L165.71794449942453,116.01049843358614L165.88300221306937,132.18455685961453L166.04805992671422,88.28206590013316L166.46070421082632,51.98976148316416L166.54323306764877,40.53682137063088L166.7082907812936,27.099984527660215L166.95587735176085,40.51990731143567L167.53357934951782,60.2809927753186L167.69863706316266,64.45411109824093L168.02875249045238,63.70842836353566L168.11128134727477,82.86044224862667L168.44139677456448,92.68216886944985L168.52392563138687,102.53637102996377L169.01909877232143,90.54864671698583L169.2666853427887,87.61799325496311L169.3492141996111,89.7199323279342L169.43174305643353,107.03012034154018L169.5968007700784,84.92998274484096L169.6793296269008,104.88943849524524L169.76185848372324,89.13179934835281L169.84438734054564,68.93990483977713L170.17450276783535,45.511482774013224L170.25703162465777,21.77213955221431L170.4220893383026,18.33800121125772L170.50461819512503,48.86903808901513L170.66967590876988,53.5164827396235L170.91726247923717,43.57478195283752L170.99979133605956,20.850051321960336L171.32990676334927,1.8251394532639906L171.4124356201717,19.992702604112065L172.0726664747511,36.83285736852133L172.4853107588632,36.738817390713116L172.98048389979772,70.15442822053105L173.0630127566201,55.51309471380159L173.14554161344256,56.2429300608884L173.55818589755467,83.80441447468135L173.88830132484435,65.29238478446628L174.3834744657789,34.606019495587645L174.7135898930686,73.84198219225807L175.04370532035827,71.15490952567667L175.2087630340031,74.28154316735075L175.37382074764795,86.90289754103568L175.62140731811522,46.88246888767694L176.03405160222735,33.814796421090506L176.44669588633946,90.33688863454952L177.02439788409643,50.655926345166414L177.51957102503096,61.70971388857124L177.6846287386758,23.53642047621642L177.84968645232067,85.5674839442479L178.0147441659655,4.640885602721086L178.0972730227879,36.144015011542436L178.3448595932552,62.94094595955762L179.08761930465698,88.64198998195916L179.9954367297036,63.56680479444376L180.07796558652606,58.05169822233437L180.32555215699333,80.34499266118759L180.40808101381575,83.05862577736728L180.73819644110543,85.50302726454217L180.82072529792785,90.36212957785814L180.9857830115727,44.10622228087355L181.39842729568483,74.61086765777041L181.6460138661521,80.22627480283629L182.05865815026422,78.154776674716L182.14118700708661,46.31905436266925L182.22371586390906,47.119337585643834L182.3887735775539,36.383246728709146L182.4713024343763,15.328041794638L182.8839467184884,37.60492974537692L182.96647557531085,64.43694724556634L183.2140621457781,84.01449705773061L183.29659100260054,63.37538743282894L183.70923528671264,60.35525305944953L184.20440842764717,89.52945546040513L184.28693728446962,100.77872121804644L184.69958156858172,115.836003412262L185.0296969958714,140.55504023339358L185.44234127998354,126.56267134770482L186.10257213456288,81.78620462644412L187.42303384372167,104.53248990575764L187.5055627005441,120.5262553206863L187.9182069846562,136.55124650030473L188.99108212334767,96.86285101637021L189.07361098017012,92.25591699560081L189.48625526428222,83.727808944874L189.65131297792706,86.80893870505635L189.8163706915719,102.12984399350206L189.89889954839435,107.30587529482084L189.98142840521675,114.75633621955046L190.31154383250643,124.1476473456999L190.4766015461513,100.00907927969763L190.64165925979614,86.94380810698426L190.80671697344098,112.14561270485486L191.05430354390828,124.6299970431755L191.13683240073067,111.6775277481174L191.3018901143755,116.00261592473365L191.46694782802035,137.6876891327369L191.5494766848428,125.17954465045398L191.63200554166522,149.11175447919274L191.71453439848764,166.03064862551184L191.87959211213249,162.15615848120598L191.9621209689549,74.74939170385213L192.04464982577733,34.502366892290134L192.2922363962446,59.7437896247341L192.952467250824,45.65877998657546L193.28258267811367,38.92135799113859L193.3651115349361,31.50977264476111L193.61269810540335,47.10315669151978L194.1078712463379,20.95035117655316L194.1904001031603,32.44234015333566L194.35545781680514,26.509232782446755L194.76810210091728,57.76431142797391L194.93315981456212,61.895520881966924L195.01568867138454,87.226828305432L195.34580409867422,98.05187406222487L195.42833295549667,97.50289108652598L195.84097723960878,98.94852509780054L196.00603495325362,93.01108220599232L196.088563810076,118.55752919594L196.25362152372085,118.24253901799607L196.9963812351227,115.26620276082795L197.0789100919451,117.57938012790339L197.24396780558993,133.5260728501839L197.40902551923477,137.42058645146793L197.65661208970207,158.7221237773307L197.7391409465245,140.0064179084612L198.4819006579263,48.42958864353156L198.97707379886083,98.93567412978639L199.55477579661778,127.28967133237563L199.88489122390746,156.2375456661495L199.96742008072988,153.66651258561413L200.29753550801956,116.589658723011L201.04029521942138,106.36195007359777L201.3704106467111,123.99699877080879L201.45293950353349,118.67454027416076L201.53546836035594,117.87915197324791L201.94811264446804,134.26189473944285L202.44328578540257,129.15228281137829L202.69087235586986,151.2004859372145L202.77340121269225,59.6523167088559L202.8559300695147,29.345629119503343L203.10351663998196,20.069654599862552L203.2685743536268,24.81005895845314L203.43363206727165,10.449378522005736L203.51616092409407,40.23699852950449L203.5986897809165,2.3154631844137645L203.92880520820617,-5.723539029173387L204.093862921851,11.450957676233479L204.34144949231828,-19.27427567413485L204.42397834914073,21.062872227284227L204.50650720596312,-1.6166980530230002L205.90949777194433,-14.151493673116873L205.99202662876675,23.41604797311185L206.07455548558917,78.57045889663121L206.48719976970128,50.99012099624524L206.56972862652373,27.95788304746729L206.73478634016854,35.298444322650695L207.3950171947479,75.73011933708017L207.56007490839275,67.25521775693123L207.72513262203762,90.39273475262594L207.80766147886004,132.16542130572077L208.0552480493273,149.75855178333396L208.63295004708428,139.7130443030572L208.88053661755154,104.83067755594024L209.04559433119638,105.7788501632557L209.21065204484123,131.83858474139203L209.62329632895336,55.8580242585811L210.03594061306543,33.89185096757238L210.11846946988786,44.88926314940886L210.2009983267103,37.15896979941673L210.531113754,34.15394580773951L210.61364261082238,-3.70288019887762L211.10881575175694,6.7982976893166525L211.27387346540178,27.228340689294363L211.43893117904662,-5.87088735693199L211.6865177495139,8.674708811930941L211.7690466063363,20.55068221825208L211.85157546315875,61.05204587180901L211.93410431998117,71.07659760717596L212.18169089044844,71.02820172634998L212.34674860409328,80.8652532218245L212.75939288820538,90.24618690981829L213.00697945867267,101.07816826368618L213.1720371723175,123.91957564770178L213.50215259960717,136.2997099913872L213.58468145642962,156.06686725419848L213.99732574054173,153.48416749448106L214.3274411678314,89.51113477668181L214.5750277382987,72.91536483407548L214.6575565951211,70.67501519398344L214.82261430876594,72.35641387893016L215.15272973605565,67.06019477277903L215.23525859287807,66.22057006954026L215.4003163065229,76.95665186122831L215.48284516334533,86.75474768017614L215.97801830427986,86.87034814273072L216.0605471611023,76.85466591041289L216.22560487474715,86.94943296928959L216.39066258839196,102.52678066214139L216.63824915885925,87.0444104085853L216.7207780156817,83.95209341200726L216.88583572932654,84.00746811575732L217.13342229979378,71.00522751965795L217.4635377270835,77.6834735223321L217.62859544072833,80.61708681942804L217.71112429755073,83.7102885456884L217.8761820111956,105.76661477923929L217.95871086801802,112.19938557277779L218.53641286577496,128.75819878052974L218.7014705794198,120.4754153569345L218.9490571498871,128.68474844335384L219.11411486353194,129.49453405396468L219.19664372035436,142.8884109891129L219.27917257717678,157.84585544555006L219.77434571811133,156.63154885841402L220.59963428633552,131.5900167750231L220.76469199998036,116.03332824765707L221.1773362840925,113.56843780449256L221.34239399773733,92.18302535796529L221.67250942502704,90.95386521874929L221.75503828184944,110.0327591303481L221.8375671386719,99.61854434651532L222.00262485231673,116.81042400071786L222.16768256596157,120.19781515731832L222.250211422784,119.20455051261207L222.58032685007367,133.0725646197635L223.0754999910082,99.29357256914396L223.24055770465307,67.17639747826229L223.4056154182979,33.84609576875164L223.7357308455876,30.89431263573591L224.47849055698939,39.34229984715243L224.56101941381183,43.892783722989236L224.64354827063423,54.43074102374157L224.9736636979239,61.91254586041181L225.38630798203604,55.78138210190939L225.46883683885846,71.13816417613903L225.5513656956809,88.0660078004684L225.8814811229706,100.51581601962258L225.964009979793,87.59503890752555L226.21159655026028,92.43141365703025L226.37665426390512,92.98400324135453L226.6242408343724,120.84211384118386L227.03688511848452,135.742643158486L227.20194283212933,28.557647927332532L227.36700054577418,83.13590379294956L227.44952940259662,98.16407236529355L227.8621736867087,48.28942219124041L228.02723140035357,7.690851077889982L228.43987568446568,1.8273441776838621L228.68746225493294,31.381624011105266L228.85251996857778,43.019587737289086L229.01757768222262,66.61000877705924L229.43022196633476,84.8182418643799L229.67780853680202,91.51260514709946L229.84286625044686,98.91138597575245L230.0079239640917,112.61390202589807L230.09045282091415,108.43150858064853L230.3380393913814,115.32204862181113L230.4205682482038,125.62234888395575L230.50309710502626,136.26787950540552L230.7506836754935,141.20055931609494L230.83321253231594,145.3133759422144L230.91574138913833,144.26222599631623L231.57597224371773,108.66853598716953L231.65850110054018,87.43623185635155L231.74102995736257,66.67466941434093L231.9060876710074,59.594350670963834L231.98861652782986,53.583130423972996L232.31873195511955,68.3573444108822L232.4837896687644,73.66221119912367L233.22654938016618,85.65852552135314L233.63919366427828,82.94421475053699L233.72172252110073,86.04248650203031L233.80425137792312,78.67070305001675L233.96930909156802,81.93306813919536L234.3819533756801,84.94228538669712L234.46448223250252,88.13037345041654L234.54701108932497,89.65624267693781L234.62953994614736,101.92614689378594L234.7945976597922,98.15590124687793L234.95965537343704,91.17054860526763L235.28977080072676,92.93239654658733L235.61988622801644,113.1373550679741L235.70241508483886,118.0456301730173L235.86747279848373,114.62630807152753L236.11505936895097,128.03880529134761L236.2801170825958,124.23494263056539L236.85781908035278,128.6722398481588L237.2704633644649,124.80635064642236L237.51804993493215,133.29766290741662L237.93069421904428,108.0526534099612L238.17828078951155,107.96024919355504L238.26080964633397,95.07668764608218L238.3433385031564,91.93605640452596L238.67345393044607,109.45555572523092L239.00356935773576,98.73804195101239L239.1686270713806,128.33699222797506L239.82885792596,130.14216334834472L239.91138678278242,131.46231165667203L239.99391563960484,141.2866544781801L240.32403106689452,149.32873449112833L240.65414649418423,89.66746477149204L240.98426192147392,80.14190445924467L241.0667907782963,67.4564348794543L241.39690620558602,34.86543369140845L241.47943506240844,27.487162065854164L241.56196391923086,53.03852550569852L241.64449277605328,86.20966972204376L241.974608203343,91.06818660728167L242.22219477381023,94.6817997343706L242.46978134427752,98.96838786990077L242.63483905792236,88.80368508001432L242.7998967715672,105.56678050069657L243.13001219885692,83.32630581466852L243.54265648296902,98.32228238004365L243.62518533979144,20.845242250172262L243.70771419661386,6.25124146356373L243.8727719102587,16.812120266858447L243.9553007670811,-18.654936033360624L244.120358480726,11.675280003255018L244.28541619437084,3.3458102600101185L244.36794505119323,-20.94357407959609L244.45047390801565,12.091702524389573L245.11070476259502,-25.79221579372325L245.27576247623986,9.766203641628604L245.52334904670715,-12.897036651066779L245.77093561717442,-2.1433632440855064L245.93599333081926,57.69784180531369L246.1010510444641,82.17323588363159L246.3486376149314,110.11349400362758L246.43116647175378,117.2556600027236L246.7612818990435,131.02886422696457L246.84381075586592,80.52415181038657L246.92633961268834,104.88052412077758L247.17392618315563,63.61368983086453L247.83415703773497,29.456599731581363L249.31967646053857,53.462995421802205L249.40220531736102,46.529605727953225L249.81484960147313,47.581134974665105L249.89737845829555,87.58529057687352L250.06243617194042,45.78062102706655L250.22749388558526,18.38773068332035L250.31002274240765,53.96467783525254L250.55760931287494,96.04454418291479L250.8877247401646,92.90082793513523L250.97025359698705,51.71608528648852L251.1353113106319,39.41648504153839L251.30036902427673,83.47305025997865L251.38289788109915,124.09503049043457L251.79554216521126,43.522852050923476L251.87807102203368,-21.591687445062053L253.36359044483729,-22.174281076530747L253.44611930165973,11.408878445018361L253.52864815848213,-1.4336748006235613L254.60152329717366,13.207158275419065L254.68405215399605,31.72982083116862L254.84910986764092,66.27613022852765L255.261754151753,45.52959548549353L255.67439843586513,68.09580401257138L255.83945614950997,97.87614027052844L256.3346292904445,73.33146825489159L256.49968700408937,95.12032172752991L256.6647447177342,84.35446496636612L256.82980243137905,52.05292681611373L256.9123312882015,25.816142165763534L257.0773890018463,44.9428214010217L257.4900332859584,73.5709688345919L257.57256214278084,113.89836432821251L257.65509099960326,140.0690147549053L257.7376198564257,110.42704557011704L257.98520642689294,120.15679564938563L258.0677352837154,117.97798758004677L258.3153218541826,152.44986684673074L258.39785071100505,79.77954987117509L258.4803795678275,48.36305440654795L258.5629084246499,38.61927285667187L258.8930238519396,35.37617144090478L258.97555270876205,50.82410926993887L259.38819699287416,45.1765619988822L259.553254706519,43.38623112357737L259.9658989906311,65.34211309434652L260.0484278474535,74.13533067378137L260.21348556109837,50.50639632830433L260.3785432747432,-3.2259901262159314L260.46107213156563,-2.9761728951329385L260.62612984521047,52.196214122988515L260.7911875588553,-4.95238928746906L261.2038318429674,41.958526878797585L261.4514184134347,38.680335305848025L261.6164761270795,32.24749136105057L261.699004983902,62.59029075463295L262.0291204111917,75.94482670751553L262.4417646953038,49.01985241024392L263.01946669306074,22.616120592236197L263.10199554988316,66.08498411839969L263.51463983399526,104.88664982949268L263.6796975476401,103.57624618276826L264.0923418317522,86.00929688542412L264.1748706885747,50.75757030510481L264.25739954539705,32.70201554002704L264.3399284022195,31.072677154627055L265.0826881136213,9.680828372840935L265.4953323977334,82.41141075108557L265.7429189682007,105.81766418470293L265.8254478250231,58.2534647241777L266.5682075364249,40.01350703764964L266.73326525006973,64.11419400594201L266.980851820537,79.42680613359465L267.14590953418184,75.95342428556188L267.6410826751164,79.51251645095664L268.21878467287337,68.77101331682213L268.3838423865182,65.77148929204708L268.46637124334063,49.690286443688294L268.6314289569855,55.47458990604367L268.87901552745274,42.25091221508523L269.2091309547424,47.88380702068293L269.4567175252097,22.467765014286098L269.5392463820321,33.45780955636069L269.70430409567695,59.40569362586196L269.8693618093218,85.57015409255396L269.95189066614427,84.21353331072378L270.4470638070788,83.75584868062883L270.5295926639012,86.4352229019236L270.69465037754605,95.28646216977003L270.8597080911909,107.98487311587402L271.10729466165816,92.68390658334464L271.6849966594151,43.69880906542392L272.0151120867048,62.905568090523815L272.0976409435272,54.21642991698879L272.3452275139945,55.41721249292218" fill="none"></path></g></g></g></g><g opacity="0.2"><g><g><g><path style="fill: none;" stroke="rgb(255, 112, 67)" stroke-width="2px" d="M42.33730354990278,220.2958504285792L42.74994783401489,140.82043907359062L42.91500554765974,205.6780412503872L43.16259211812701,90.74811129440084L43.32764983177185,191.37631084185304L43.41017868859427,109.75313817013037L43.57523640223912,237.7194365617583L43.74029411588397,104.20587833410795L43.987880686351225,119.8582537888946L44.152938399996074,157.28911944303687L44.730640397753035,160.54906866112756L45.060755825042726,179.34225563122155L45.14328468186515,134.85768526858465L45.225813538687575,54.07512893304231L45.47340010915484,215.58183134095916L46.21615982055664,112.28373717012668L46.29868867737906,131.58308331707465L46.38121753420148,85.24489295582887L46.62880410466875,128.76800168705455L46.87639067513602,56.972220435378134L47.20650610242571,103.75810291676967L47.5366215297154,177.00750347588837L47.619150386537825,107.83878694566997L47.701679243360246,76.30119766546288L47.86673695700509,199.4809345803372L48.03179467064994,156.06140212182936L48.11432352747236,195.54084864001362L48.27938124111721,223.66082604778563L48.36191009793963,134.87850956672577L48.52696781158448,72.4770992795493L48.69202552522932,121.06307952709099L49.26972752298627,198.05671918187014L49.51731409345354,118.83316824730824L49.59984295027596,159.18444861770436L49.76490066392081,93.91504026581319L50.0950160912105,116.98574253083734L50.507660375322615,215.7594361004507L50.59018923214504,121.63731522768622L51.58053551401411,132.37586813354287L51.66306437083653,155.4654712888071L51.99317979812622,135.53946521725265L52.24076636859349,126.91084534399775L52.40582408223834,113.6541880170294L52.570881795883174,120.4224181016616L53.313641507284984,130.0511267862615L53.80881464821952,135.6641838319378L54.221458932331636,173.24374254727962L54.30398778915405,97.70215469822816L54.55157435962132,194.2818645817062L54.71663207326616,171.5359683603791L54.88168978691101,69.15760014124706L55.37686292784555,201.1749874478807L55.45939178466797,162.31657450756887L56.20215149606977,133.2572584454835L56.367209209714616,224.01081624040728L56.53226692335946,135.94104855507794L56.77985349382673,142.78601807147814L57.52261320522854,221.25662296503378L57.7701997756958,102.26438736981565L57.85272863251822,132.67813092794313L58.017786346163064,85.62627293822125L58.265372916630334,118.32058761415479L58.843074914387294,176.2367015457851L59.00813262803214,75.22514938697115L59.090661484854564,127.20237037302923L59.42077691214425,4.881291208997549L59.50330576896667,193.95112929239303L59.5858346257891,111.85346930817104L59.66836348261152,205.77173544707813L59.91595005307879,77.48103424588992L59.99847890990121,115.64835309691065L60.3285943371909,197.65306855917484L60.41112319401332,116.29042300214158L60.49365205083575,13.316555580894214L60.90629633494786,129.06557712125505L61.07135404859271,79.98458437571894L61.153882905415124,213.77901884357863L61.483998332704815,6.374310088522837L61.896642616816926,174.07312512117187L61.979171473639354,129.3510138827573L62.144229187284196,187.22619860295026L62.309286900929045,106.28870191676599L62.391815757751466,200.74103557827212L62.47434461457389,58.723596916350154L62.72193118504115,185.1954130482289L62.886988898686,106.28320430205672L63.13457546915327,166.16872132996053L63.29963318279811,128.9135294549367L63.54721975326538,148.415098468015L63.6297486100878,161.73775746138259L63.95986403737749,113.59336592151325L64.04239289419992,36.86455075931267L64.12492175102234,115.47848740385557L64.20745060784476,85.58892550606417L64.45503717831203,111.36431790354436L64.53756603513445,102.32411902935641L64.95021031924657,227.9747611470465L65.61044117382595,84.39008202078833L65.77549888747079,193.00157915951849L65.85802774429321,115.88252422262549L66.02308545793805,205.8249017733504L66.18814317158291,42.29622438194383L66.27067202840533,78.2358128251326L66.51825859887259,192.22980795299267L66.60078745569501,43.268438923667944L66.68331631251743,134.65727979574663L66.84837402616229,150.58872356304033L67.34354716709682,193.31436390383405L67.42607602391924,86.03012801766192L67.50860488074166,151.12996600290802L67.92124916485378,142.86342388078668L68.08630687849862,201.07478849769774L68.16883573532104,108.45750334709464L68.3338934489659,123.10361842581446L69.15918201719012,122.41108556683359L69.32423973083496,73.96440851514788L69.57182630130222,141.96651000114085L69.8194128717695,55.24624202566622L69.98447058541434,153.47754592589612L70.2320571558816,71.46172164713269L70.39711486952646,126.14220914090114L70.56217258317129,163.837020880864L70.72723029681615,67.19051422142131L70.97481686728341,105.57248236520859L71.05734572410583,194.5511795502112L71.22240343775069,144.79308664373482L71.80010543550765,235.00843477384748L72.04769200597491,207.7672332820404L72.87298057419913,170.7424035792896L73.12056714466641,66.01096539493221L73.20309600148883,71.61189891285434L73.53321142877851,87.45090551381767L73.94585571289063,32.09460517935766L74.11091342653546,179.05101078365595L74.2759711401803,97.9708865863852L74.52355771064758,207.01402599074837L74.77114428111484,165.4562728694847L75.26631742204938,98.02707432900596L75.3488462788718,205.70013393759692L75.51390399251666,84.44386171729677L75.59643284933908,-19.030530961598338L76.0916059902736,90.05571473991691L76.17413484709604,90.92859359327186L76.4217214175633,60.49079986390941L76.751836844853,46.665177276893566L76.83436570167542,96.03983048857961L76.91689455849784,-4.168282385589919L76.99942341532027,50.61947674725745L77.41206769943238,185.19853290671398L77.65965426989963,34.02572185693966L77.74218312672205,177.93558565049744L77.82471198354447,-6.814407019201099L78.2373562676566,66.78459942958266L78.65000055176871,15.25071639224084L78.81505826541355,169.134828342572L78.89758712223598,137.6373731642369L78.9801159790584,164.85357981892062L79.06264483588082,129.85613563094017L79.22770254952567,9.959678720546687L79.88793340410506,164.75080622824015L80.21804883139474,136.59296267397556L80.30057768821717,216.0972251474797L81.12586625644138,190.98927800907435L81.5385105405535,129.07501242143098L81.70356825419834,172.72502063929258L81.78609711102077,119.7344438708556L81.86862596784319,171.9579065030783L81.95115482466561,132.18369393782464L82.2812702519553,176.70869372874353L82.69391453606742,62.52753738166314L82.77644339288985,28.04150009366822L83.02402996335711,105.3800658503847L83.43667424746923,147.16904819197129L83.51920310429165,193.4056159782884L83.84931853158133,24.180281449759082L83.93184738840377,133.41275915905726L84.01437624522619,128.87788582899117L84.17943395887103,143.72907859580468L84.42702052933828,141.56719840493093L84.75713595662798,108.1494400391031L84.8396648134504,198.87588649096512L85.1697802407401,145.2600734226673L85.25230909756252,166.47025716704383L85.66495338167464,99.99349387129118L85.83001109531948,138.15407322218624L86.2426553794316,73.95969843753196L86.32518423625402,177.68358135310172L86.40771309307644,198.70893619964983L86.6552996635437,203.38221160139773L86.73782852036612,155.88009442350474L86.82035737718854,93.98985628968016L87.06794394765582,180.39023275581908L87.15047280447824,201.87050764708584L87.23300166130066,137.96772982994753L87.31553051812308,71.47295919565684L87.72817480223519,139.9593051243872L87.89323251588003,183.75436404439174L87.97576137270245,98.98373501313668L88.05829022952489,-50.07699999444544L88.1408190863473,154.36195008171322L88.38840565681457,108.18384935210425L88.55346337045941,67.84841059323946L88.80104994092669,-70.15592456660411L88.88357879774911,95.60550378160443L89.29622308186123,89.11837900446112L89.37875193868365,68.69637601354562L89.62633850915091,174.01590752235214L89.79139622279575,215.83436949763444L90.20404050690787,200.43200678009399L90.36909822055271,156.66784354605883L90.61668479101999,171.6022729256604L90.78174250466483,110.48509331861037L90.86427136148725,57.74093236319523L90.94680021830968,128.83507107201302L91.02932907513211,44.24825622733156L91.19438678877695,77.56919296551132L91.27691564559936,186.9029070536635L91.4419733592442,131.32502104203792L91.60703107288904,62.595553325628046L91.68955992971148,92.64980134559144L91.7720887865339,72.27482340611459L92.01967535700116,-32.23222728641822L92.26726192746844,137.92356717294427L92.67990621158054,198.88362934363758L93.01002163887024,182.6969970544506L93.09255049569266,165.2735339739424L93.2576082093375,91.43835726682224L93.50519477980478,140.8972466576071L93.83531020709447,23.207748864208817L93.91783906391689,-120.91780922325856L94.08289677756174,146.75930930174673L94.16542563438416,10.358021040334027L94.24795449120658,129.09181573691285L94.330483348029,71.18164619584279L94.6605987753187,191.7524014525176L94.74312763214111,167.67730921202332L94.90818534578595,144.35603384682116L94.99071420260837,147.04301953962127L95.32082962989807,45.10265824888133L95.98106048447745,206.6524783126584L96.31117591176714,-19.586592729270436L96.39370476858957,117.10997650731119L96.64129133905683,205.73355125675934L96.72382019587926,85.44018701003226L96.80634905270168,192.84004697195593L96.97140676634652,93.19707904568399L97.05393562316895,102.48953210884534L97.2189933368138,99.99216111621016L97.38405105045864,35.49257027305559L97.46657990728106,80.91234850650184L97.63163762092591,150.03396426056105L97.79669533457076,136.2047220319047L98.044281905038,44.948513007804785L98.29186847550528,59.7611618918771L98.62198390279497,181.8351512928744L98.70451275961739,199.1061691522816L99.28221475737435,136.9734491046659L99.4472724710192,5.541565337039832L99.52980132784162,202.69260171662867L99.94244561195373,17.40353990654123L100.27256103924343,134.4191709845651L100.43761875288827,167.02261599588286L100.76773418017797,40.95520016143253L101.18037846429009,62.808778993648936L101.59302274840218,166.5830415657761L101.6755516052246,143.92667468151166L101.75808046204703,-2.0826418433287937L102.0056670325143,134.81579435319676L102.17072474615914,40.81289826664424L102.33578245980398,32.958942284238745L102.41831131662641,114.47826986048571L102.58336903027126,172.84010706952844L102.83095560073852,121.59336459990041L102.91348445756094,158.16320989192005L102.99601331438338,175.34031773918286L103.16107102802822,74.48569749116034L103.32612874167306,-14.14234880303411L103.40865759849548,120.43953188849757L103.57371531214034,168.14205453922858L103.73877302578518,161.73710622878616L104.06888845307486,27.123050103508444L104.23394616671972,113.4512912008865L104.5640615940094,132.82986812290736L104.64659045083182,85.01853662127098L104.8941770212991,188.26412705713568L105.05923473494393,27.632056529853664L105.30682130541119,33.41533517477144L105.47187901905605,127.6024619338604L105.63693673270089,176.02747414300728L105.88452330316815,141.80228579976398L106.13210987363543,138.8380416152771L106.21463873045785,185.22178796838358L106.62728301456997,57.13996583625883L107.03992729868207,195.1376712968215L107.37004272597177,66.06376067007398L107.45257158279419,141.34685461318182L107.53510043961661,212.86680857038908L107.70015815326146,96.91269419699047L107.78268701008389,129.11936439023552L107.86521586690631,147.21114356410453L108.2778601510184,99.62204897223015L108.52544672148568,42.11972520337181L108.6079755783081,9.234054158701586L108.69050443513052,128.150777062624L108.77303329195294,140.50860467451747L108.9380910055978,112.75035289792868L109.18567757606506,123.7619085661793L109.43326414653232,97.61379909433344L110.17602385793414,115.05851810388972L110.4236104284014,100.11504719265888L111.00131242615836,195.93139131358808L111.08384128298079,128.36752393014876L111.1663701398032,183.72168882749034L111.4964855670929,125.31007018718223L111.66154328073775,206.5478683975055L111.82660099438257,104.42679763373299L111.90912985120502,151.52825531539096L112.23924527849469,88.08994643022807L112.73441841942923,132.28819405213275L112.89947613307407,148.0350436682316L113.14706270354135,162.0776630143499L113.22959156036377,156.6092477573258L113.47717813083104,109.32880712626293L113.72476470129831,96.92620348713004L113.88982241494315,143.56252207303604L114.054880128588,113.17610756654176L114.46752441270012,77.54162916724454L114.55005326952254,100.1296923536061L114.7976398399898,144.75413384750286L115.1277552672795,173.42860173499633L115.29281298092432,190.37954255950254L115.62292840821402,213.96225752227627L115.70545726503644,91.86804962090199L115.9530438355037,203.51740294492984L116.11810154914856,56.893799914814714L116.20063040597098,115.53885515104866L116.44821697643825,139.6119482589214L116.53074583326067,139.88311848307893L116.77833240372794,93.39111606952687L116.86086126055037,166.99192476665888L116.94339011737279,169.65819217592656L117.43856325830733,172.77508225202382L117.85120754241943,191.26863407551937L118.09879411288671,192.438077438056L119.25419810840062,131.2660466297023L119.33672696522304,124.6222928406496L119.50178467886788,164.41133230617976L120.07948667662484,195.5991263849205L120.16201553344726,73.7732187407963L120.24454439026968,116.53636174942417L120.57465981755938,176.91970823492542L120.6571886743818,140.41222225024836L120.9873041016715,27.516167417580366L121.31741952896118,64.68866032533177L121.3999483857836,-70.5397580299411L121.56500609942846,-15.350248964883304L121.7300638130733,155.87662623130524L121.81259266989572,0.42107488088536316L121.89512152671814,81.82558863589031L121.97765038354055,134.5322431372353L122.63788123811993,123.06137917671224L122.96799666540963,1.8556494211186179L123.13305437905447,108.35831910816653L123.38064094952175,184.42382358103228L123.79328523363385,-179.65102317911388L124.28845837456839,24.775008259725197L124.37098723139081,-4.0506061699124984L124.45351608821325,30.395493900483803L124.61857380185809,88.54434018813922L124.86616037232535,207.57479404980032L125.69144894054958,13.79150102795263L125.85650665419442,86.64442209540861L126.02156436783926,81.73253809932378L126.26915093830654,-1.3048883838824192L126.5167375087738,96.61777670048L126.68179522241864,125.51963077873032L126.76432407924106,110.69931855294206L127.17696836335318,0.026125028577030633L127.2594972201756,180.76155649532728L127.50708379064288,165.55990972197895L127.5896126474653,171.35516801768193L127.67214150428772,199.30622250516927L127.91972807475499,32.061543766381625L128.0022569315774,77.70421014218623L128.3323723588671,39.960328783330894L128.49743007251195,86.01973858600752L128.99260321344647,106.4599609446785L129.1576609270913,130.47684359251434L129.4052474975586,80.69797182272914L129.7353629248483,92.24067582560306L130.06547835213797,-34.73068871502878L130.23053606578281,47.38547081841457L130.56065149307253,-21.57536620905116L130.64318034989495,24.363065780133706L131.05582463400705,88.74816084587239L131.2208823476519,152.0167327700051L132.21122862952097,133.7815309754842L132.54134405681066,-10.073992758633315L132.62387291363308,31.008879281584356L132.7064017704555,128.70864865111633L132.95398834092276,95.16207496322359L133.1190460545676,54.01883517581284L133.36663262503487,91.15508623232668L133.69674805232458,65.24656977618437L133.86180576596942,58.82141811030902L133.9443346227918,79.82023144231724L134.27445005008153,-110.21663403944721L134.35697890690395,96.05771666756482L134.6045654773712,-5.987402201532995L134.9346809046609,-46.96995413201485L135.01720976148331,29.021983774872364L135.18226747512819,1.4414049100235173L135.34732518877303,-72.34246072647693L135.5949117592403,-82.94062000050221L136.0075560433524,93.06589353986706L136.17261375699724,162.63626913263124L136.33767147064208,87.6671298807709L136.58525804110937,10.629872786976193L136.99790232522147,145.45655635498275L137.0804311820439,127.47410853259062L137.24548889568874,183.11712537632957L137.41054660933358,79.67061453952738L137.493075466156,180.1797256052646L137.57560432297845,149.81383249802937L137.82319089344568,94.17423083918557L138.23583517755782,151.72484426231512L138.40089289120266,134.06758867969464L138.48342174802508,159.1275112003505L138.81353717531476,160.93932358076407L139.22618145942687,170.30348795425132L139.55629688671658,120.04639942948157L139.88641231400626,187.05372040703747L139.96894117082869,149.3215839523337L140.3815854549408,175.24345067670245L140.54664316858566,39.500013352275616L140.7117008822305,177.3341420578218L140.87675859587534,186.92214113267383L141.12434516634258,27.918735176772316L141.20687402316503,180.2405249833646L141.5369894504547,65.48536010985052L142.03216259138924,-144.73417281117563L142.19722030503408,174.07975103421677L142.36227801867895,94.63074488927109L142.5273357323238,102.89599211867167L142.6098645891462,117.80515973151003L143.02250887325832,152.24315725681143L143.43515315737042,20.42957546296682L143.6827397278377,71.78385460819558L143.84779744148256,106.54303096308142L144.0128551551274,105.10088395079688L144.09538401194982,121.41635049322888L144.26044172559466,182.66866086403462L144.4254994392395,179.08267886177458L144.6730860097068,119.74306134405L144.8381437233516,84.02201444426217L144.92067258017403,-30.015098339458106L145.00320143699645,16.743174908834337L145.0857302938189,-153.00797693399417L145.66343229157584,62.92427433737559L145.8284900052207,86.9282989276683L146.07607657568795,165.47297774282987L146.15860543251037,191.90916676892388L146.24113428933282,19.623773567042395L146.73630743026735,110.28199961819413L147.14895171437945,110.60463236241245L147.3965382848467,158.69738721536382L147.47906714166913,127.00132124006682L148.13929799624853,113.69255016044137L148.22182685307092,79.76748160200778L148.30435570989337,69.30700501481947L148.38688456671576,23.23293490625149L148.5519422803606,160.70232035050202L148.96458656447274,200.81890709461177L149.12964427811758,-29.90744807677661L149.21217313494,141.51781074221225L149.8724039895194,125.3870216481677L149.95493284634182,219.75986328431514L150.2850482736315,56.264739516567964L150.45010598727637,90.66214859167431L150.61516370092122,108.51079840539178L150.6976925577436,85.35384568370318L150.86275027138845,76.80831097379527L151.19286569867816,32.786653400127236L151.27539455550055,84.08604726792808L151.4404522691454,115.80065065480669L151.6055099827903,74.37975860716244L151.6880388396127,121.40788446947549L151.85309655325753,183.27203543708328L151.93562541007995,-106.25220260147867L152.01815426690237,147.8386137432205L152.1006831237248,163.20248558532415L152.43079855101448,134.5889382354835L152.51332740783693,85.41639430284704L152.76091397830416,121.75062969946207L152.8434428351266,149.2099884317135L152.92597169194903,123.36580769811917L153.2560871192387,-46.350132149670706L153.33861597606113,37.400560620992884L153.503673689706,117.1343295774282L153.91631797381808,135.4679886535603L154.57654882839748,37.754134486012845L154.82413539886477,62.47818000883267L154.98919311250958,181.05515638170087L155.15425082615442,125.05627121391039L155.23677968297687,162.26991293478866L155.56689511026656,158.01280545203684L155.7319528239114,106.92447152525021L155.97953939437866,84.39535246133605L156.06206825120108,197.36222505262793L156.22712596484592,-91.32534569392843L156.80482796260287,67.18097290663665L156.96988567624774,119.99660285327211L157.05241453307016,121.39254264109954L157.38252996035985,151.98969147230986L157.46505881718227,183.1463475459756L157.71264538764956,179.90371657146625L157.79517424447195,56.714832110353974L157.8777031012944,5.538899826877763L158.04276081493924,48.65663141178045L158.12528967176164,145.0586229486862L158.2903473854065,131.14053290545175L158.45540509905135,-127.43652635379995L158.53793395587374,39.45082257383028L158.86804938316345,55.96962513578415L159.11563595363071,91.13666998029785L159.44575138092043,-4.862890101912853L159.52828023774282,11.627742864010155L159.7758668082101,61.22996400578227L159.94092452185495,95.63356736302663L160.1059822354998,73.14885327522136L160.18851109232222,71.33417092790035L160.27103994914464,98.03909941462344L161.01379966054643,156.55014461296528L161.1788573741913,91.77621067986365L161.42644394465853,172.29495723408232L161.59150165830337,72.18830034045627L161.75655937194827,110.36176803878269L162.33426136970522,155.3728826730357L162.4167902265276,122.3275006203312L162.6643767969949,181.4696507843736L162.82943451063974,-49.69443870641303L163.24207879475185,127.63544004964388L163.4896653652191,132.37820045493467L163.65472307886398,18.75034949569974L163.90230964933122,72.41346022443004L163.98483850615366,27.018231945374147L164.06736736297606,41.2564028097456L164.39748279026577,49.6032207080829L164.4800116470882,69.24594060019767L164.64506936073303,86.4943508442957L164.8101270743779,92.32933432837982L164.8926559312003,14.199929880512308L165.22277135848998,79.32803590392591L165.3053002153124,88.27371518196935L165.63541564260208,128.57003455021703L165.71794449942453,146.89237278063243L165.88300221306937,156.44564449865715L166.04805992671422,22.428329460911165L166.46070421082632,-2.4486951422893086L166.54323306764877,23.357411201830995L166.7082907812936,6.944729263204205L166.95587735176085,60.64979148709879L167.53357934951782,89.92262097114299L167.69863706316266,70.7137885826244L168.02875249045238,62.58990426147777L168.11128134727477,111.58846307626325L168.44139677456448,107.41475880068461L168.52392563138687,117.31767427073464L169.01909877232143,72.56706024751888L169.2666853427887,83.22201306192903L169.3492141996111,92.87284093739086L169.43174305643353,132.99540236194906L169.5968007700784,51.77977634979209L169.6793296269008,134.8286221208517L169.76185848372324,65.49534062801415L169.84438734054564,38.65206307691356L170.17450276783535,10.368849675367393L170.25703162465777,-13.836875280484085L170.4220893383026,13.186793699822896L170.50461819512503,94.66559340565122L170.66967590876988,60.48764971553606L170.91726247923717,28.66223077265854L170.99979133605956,-13.237044624355397L171.32990676334927,-26.712228349780567L171.4124356201717,47.24404733038423L172.0726664747511,62.09308951513515L172.4853107588632,36.59775742400079L172.98048389979772,120.27784446525791L173.0630127566201,33.5510944537074L173.14554161344256,57.33768308151864L173.55818589755467,125.1466410953708L173.88830132484435,37.52434024914366L174.3834744657789,-11.423528437730328L174.7135898930686,132.6959262372637L175.04370532035827,67.12430052580461L175.2087630340031,78.97149362986185L175.37382074764795,105.83492910156306L175.62140731811522,-13.148174092361204L176.03405160222735,14.213287721210826L176.44669588633946,175.12002695473808L177.02439788409643,-8.865517088908243L177.51957102503096,78.29039520367846L177.6846287386758,-33.7235196423158L178.0147441659655,-116.74901190956916L178.0972730227879,83.3987091247744L178.3448595932552,103.13634238158036L179.08761930465698,127.19355601556148L179.9954367297036,25.954027013170684L180.07796558652606,49.77903836417031L180.32555215699333,113.7849343194674L180.40808101381575,87.12907545163682L180.73819644110543,89.16962949530443L180.82072529792785,97.65078304783205L180.9857830115727,-25.277638664603224L181.39842729568483,120.36783572311575L181.6460138661521,88.64938552043505L182.05865815026422,75.04752948253554L182.14118700708661,-1.4345291054009497L182.22371586390906,48.31976242010569L182.3887735775539,20.279110443307218L182.4713024343763,-16.254765606468666L182.8839467184884,71.02026167148517L182.96647557531085,104.6849734958505L183.2140621457781,113.38082177597698L183.29659100260054,32.41672299547645L183.70923528671264,55.82505149938047L184.20440842764717,133.29075906183851L184.28693728446962,117.65261985450836L184.69958156858172,138.42192670358534L185.0296969958714,177.633595465091L185.44234127998354,105.57411801917169L186.10257213456288,14.621504544553066L187.42303384372167,138.65191782472783L187.5055627005441,144.51690344307931L187.9182069846562,160.58873326973233L188.99108212334767,37.3302577904685L189.07361098017012,85.34551596444673L189.48625526428222,70.9356468687838L189.65131297792706,91.43063334532988L189.8163706915719,125.11120192617064L189.89889954839435,115.06992224679898L189.98142840521675,125.93202760664488L190.31154383250643,138.23461403492405L190.4766015461513,63.80122718069417L190.64165925979614,67.34590134791426L190.80671697344098,149.9483196016607L191.05430354390828,143.35657355065646L191.13683240073067,92.24882380553026L191.3018901143755,122.49024818965805L191.46694782802035,170.21529894474173L191.5494766848428,106.4173279270296L191.63200554166522,185.0100692223009L191.71453439848764,191.4089898449905L191.87959211213249,156.34442326474723L191.9621209689549,-56.36075846217864L192.04464982577733,-25.868170325052873L192.2922363962446,97.60592372340007L192.952467250824,24.531265529337496L193.28258267811367,28.815224997983293L193.3651115349361,20.39239462519488L193.61269810540335,70.49323276165782L194.1078712463379,-18.278857095896726L194.1904001031603,49.6803236185094L194.35545781680514,17.60957172611338L194.76810210091728,104.64692939626471L194.93315981456212,68.09233506295641L195.01568867138454,125.22378944062957L195.34580409867422,114.28944269741415L195.42833295549667,96.6794166229777L195.84097723960878,101.11697611471234L196.00603495325362,84.10491786827995L196.088563810076,156.87719968086154L196.25362152372085,117.77005375108016L196.9963812351227,110.80169837507583L197.0789100919451,121.04914617851655L197.24396780558993,157.4461119336047L197.40902551923477,143.262356853394L197.65661208970207,190.67442976612483L197.7391409465245,111.93285910515701L198.4819006579263,-88.93565525386293L198.97707379886083,174.6948023591686L199.55477579661778,169.82066713625954L199.88489122390746,199.65935716681025L199.96742008072988,149.80996296481115L200.29753550801956,60.974377929106325L201.04029521942138,91.02038709947787L201.3704106467111,150.4495718166254L201.45293950353349,110.69085252918869L201.53546836035594,116.68606952187864L201.94811264446804,158.8360088887352L202.44328578540257,121.48786491928149L202.69087235586986,184.2727906259688L202.8559300695147,-16.11440226452551L203.10351663998196,6.155692820401395L203.2685743536268,31.920665496338962L203.43363206727165,-11.091642132665312L203.51616092409407,84.91842854075261L203.5986897809165,-54.56683983322236L203.92880520820617,-17.782042349554104L204.093862921851,37.212702734343885L204.34144949231828,-65.36212569968743L204.42397834914073,81.56859407941283L204.50650720596312,-35.63605347348389L205.90949777194433,-14.887480052883395L205.99202662876675,79.76736044245494L206.07455548558917,161.30207528191022L206.48719976970128,9.619614145666286L206.56972862652373,-6.590473875699629L206.73478634016854,46.30928623542591L207.3950171947479,136.3776318587244L207.56007490839275,54.542865386707874L207.72513262203762,125.09901024616802L207.80766147886004,194.824451135363L208.0552480493273,176.14824749975372L208.63295004708428,124.64478308264202L208.88053661755154,52.5071274352649L209.04559433119638,107.20110907422881L209.21065204484123,170.92818660859652L209.62329632895336,-58.11281646563529L210.03594061306543,0.9425910310593727L210.11846946988786,61.38538142216344L210.2009983267103,25.563529774428524L210.531113754,29.64640982022372L210.61364261082238,-60.488119208803255L211.10881575175694,22.5500645216081L211.27387346540178,57.873405189260914L211.43893117904662,-55.51972942627149L211.6865177495139,30.49310306522525L211.7690466063363,38.3646423277339L211.85157546315875,121.80409135214435L211.93410431998117,86.11342521022638L212.18169089044844,70.95560790511107L212.34674860409328,95.6208304650363L212.75939288820538,104.31758744180893L213.00697945867267,117.326140294488L213.1720371723175,158.18168672372525L213.50215259960717,154.86991150691534L213.58468145642962,185.7176031484154L213.99732574054173,149.6101178549049L214.3274411678314,-6.448414300016977L214.5750277382987,48.021709920165975L214.6575565951211,67.31449073384542L214.82261430876594,74.8785119063502L215.15272973605565,59.11586611355231L215.23525859287807,64.96113301468215L215.4003163065229,93.06077454876035L215.48284516334533,101.45189140859786L215.97801830427986,87.04374883656263L216.0605471611023,61.8311425619361L216.22560487474715,102.09158355760466L216.39066258839196,125.89280220141907L216.63824915885925,63.82085502825117L216.7207780156817,79.3136179171402L216.88583572932654,84.09053017138244L217.13342229979378,51.50186662550887L217.4635377270835,87.70084252634335L217.62859544072833,85.01750676507201L217.71112429755073,88.3500911350789L217.8761820111956,138.8511041295656L217.95871086801802,121.84854176308559L218.53641286577496,153.59641859215768L218.7014705794198,108.05124022154163L218.9490571498871,140.9987480729829L219.11411486353194,130.70921246988095L219.19664372035436,162.97922639183525L219.27917257717678,180.28202213020577L219.77434571811133,154.81008897770997L220.59963428633552,94.02771864993674L220.76469199998036,92.69829545660805L221.1773362840925,109.87110213974574L221.34239399773733,60.104906688174445L221.67250942502704,89.1101250099252L221.75503828184944,138.65109999774631L221.8375671386719,83.99722217076616L222.00262485231673,142.5982434820217L222.16768256596157,125.27890189221903L222.250211422784,117.71465354555271L222.58032685007367,153.87458578049063L223.0754999910082,48.62508449321467L223.24055770465307,19.000634841939767L223.4056154182979,-16.1493567955144L223.7357308455876,26.46663793621233L224.47849055698939,52.01428066427718L224.56101941381183,50.71850953674455L224.64354827063423,70.23767697487008L224.9736636979239,73.13525311541719L225.38630798203604,46.5846364641558L225.46883683885846,94.17333728748352L225.5513656956809,113.45777323696242L225.8814811229706,119.19052834835384L225.964009979793,68.21387323937999L226.21159655026028,99.68597578128734L226.37665426390512,93.81288761784097L226.6242408343724,162.62927974092787L227.03688511848452,158.09343713443923L227.20194283212933,-132.21984491939762L227.36700054577418,165.00328759137508L227.44952940259662,120.70632522380947L227.8621736867087,-26.522553069839248L228.43987568446568,-6.967916172625337L228.68746225493294,75.7130437612373L228.85251996857778,60.476533326564734L229.01757768222262,101.99564033671452L229.43022196633476,112.13059149536093L229.67780853680202,101.55415007117881L229.84286625044686,110.00955721873197L230.0079239640917,133.16767610111646L230.09045282091415,102.1579184127742L230.3380393913814,125.65785868355502L230.4205682482038,141.0727992771727L230.50309710502626,152.23617543758013L230.7506836754935,148.59957903212913L230.83321253231594,151.48260088139358L230.91574138913833,142.685501077469L231.57597224371773,55.27800097344944L231.65850110054018,55.58777566012459L231.74102995736257,35.53232575132499L231.9060876710074,48.9738725558982L231.98861652782986,44.56630005348675L232.31873195511955,90.51866539124603L232.4837896687644,81.61951138148586L233.22654938016618,103.65299700469741L233.63919366427828,78.87274859431272L233.72172252110073,90.68989412927036L233.80425137792312,67.61302787199642L233.96930909156802,86.82661577296324L234.3819533756801,89.45611125794974L234.46448223250252,92.91250554599563L234.54701108932497,91.94504651671973L234.62953994614736,120.33100321905813L234.7945976597922,92.50053277651594L234.95965537343704,80.6925196428522L235.28977080072676,95.57516845856688L235.61988622801644,143.44479285005426L235.70241508483886,125.40804283058215L235.86747279848373,109.49732491929288L236.11505936895097,148.15755112107777L236.2801170825958,118.52914863939206L236.85781908035278,135.32818567454893L237.2704633644649,119.00751684381767L237.51804993493215,146.034631298908L237.93069421904428,70.18513916377806L238.17828078951155,107.82164286894582L238.26080964633397,75.75134532487286L238.3433385031564,87.2251095421916L238.67345393044607,135.73480470628834L239.00356935773576,82.66177128968461L239.1686270713806,172.73541764341903L239.82885792596,132.84992002889925L239.91138678278242,133.442534119163L239.99391563960484,156.02316871044226L240.32403106689452,161.3918545105506L240.65414649418423,0.17556019203766482L240.98426192147392,65.85356399087361L241.0667907782963,48.42823050976872L241.39690620558602,-14.021068090660265L241.47943506240844,16.419754627522707L241.56196391923086,91.36557066546497L241.64449277605328,135.96638604656164L241.974608203343,98.35596193513861L242.22219477381023,100.10221942500395L242.46978134427752,105.39827007319607L242.63483905792236,73.55663089518461L242.7998967715672,130.71142363171992L243.13001219885692,49.965593785626496L243.54265648296902,120.81624722810633L243.62518533979144,-95.37031794463473L243.70771419661386,-15.639759716349138L243.8727719102587,32.65343847180052L243.9553007670811,-71.85552048368922L244.120358480726,57.17060405817845L244.28541619437084,-9.148394354857102L244.36794505119323,-57.3776505890055L244.45047390801565,61.644617430368136L245.11070476259502,-82.61809327089267L245.27576247623986,63.10383279465634L245.52334904670715,-46.89189709010993L245.60587790352957,-173.4564987220334L245.688406760352,102.29713073896554L245.77093561717442,2.672052777914882L245.93599333081926,147.4596493794125L246.1010510444641,118.88632700110843L246.3486376149314,152.02388118362154L246.43116647175378,127.96890900136759L246.7612818990435,151.688670563326L246.84381075586592,4.76708318551962L246.92633961268834,141.41508258636412L247.17392618315563,1.713438395994923L247.83415703773497,-21.77903541734331L249.31967646053857,89.4725889571334L249.40220531736102,36.12952118717983L249.81484960147313,49.15842884473282L249.89737845829555,147.59152398018614L250.06243617194042,-16.926383297643817L250.22749388558526,-22.701604832298976L250.31002274240765,107.33009856315088L250.55760931287494,159.1643437044081L250.8877247401646,88.1852535634659L250.97025359698705,-10.061028686481494L251.1353113106319,20.9670846741132L251.30036902427673,149.55789808763907L251.38289788109915,185.02800083611842L252.6208307334355,-15.265104089138324L252.70335959025792,7.346055136979749L253.19853273119244,-42.3525938638938L253.36359044483729,-15.172750220000532L253.44611930165973,61.78361772734204L253.52864815848213,-20.697504669086406L254.60152329717366,35.16840788948296L254.68405215399605,59.513814664792974L254.84910986764092,118.09559432456612L255.261754151753,14.409793370942428L255.67439843586513,101.94511680318814L255.83945614950997,142.54664465746404L256.3346292904445,36.51446023143633L256.49968700408937,127.8036019364874L256.6647447177342,68.20567982462046L256.82980243137905,3.6006195907352097L256.9123312882015,-13.539034809761823L257.0773890018463,73.63284025390904L257.4900332859584,116.51318998494712L257.57256214278084,174.38945756864345L257.65509099960326,179.32499039494456L257.7376198564257,65.96409179293458L257.98520642689294,134.75142076828857L258.0677352837154,114.70977547603847L258.3153218541826,204.15768574675667L258.39785071100505,-29.22592559215836L258.4803795678275,1.238311209607286L258.5629084246499,24.00360053185782L258.8930238519396,30.511519317254034L258.97555270876205,73.99601601349006L259.38819699287416,36.705241092297136L259.553254706519,40.700734810620176L259.9658989906311,98.27593605050033L260.0484278474535,87.32515704293355L260.21348556109837,15.062994810088774L260.3785432747432,-83.8245698079962L260.46107213156563,-2.60144704850841L260.62612984521047,134.9547946501707L260.7911875588553,-90.67529440315543L261.2038318429674,112.32490112819764L261.4514184134347,33.76304794642367L261.6164761270795,22.59822544385445L261.699004983902,108.1044898450065L262.0291204111917,95.97663063683936L262.4417646953038,8.63239096433647L263.01946669306074,-16.98947713477537L263.10199554988316,131.28827940764495L263.51463983399526,163.08914839613212L263.6796975476401,101.6106407126816L264.0923418317522,59.658872939407935L264.1748706885747,-2.1200195653741023L264.25739954539705,5.618683392410412L264.3399284022195,28.628669576527113L265.0826881136213,-22.406944799838264L265.4953323977334,191.5072843184526L265.7429189682007,140.92704433512898L265.8254478250231,-13.092834466610201L266.5682075364249,12.653570507857559L266.73326525006973,100.26522445838054L266.980851820537,102.39572432507364L267.14590953418184,70.74335151351272L267.6410826751164,84.85115469904875L268.21878467287337,52.65875861562042L268.3838423865182,61.272203254884495L268.46637124334063,25.568482171150073L268.6314289569855,64.15104509957666L268.87901552745274,22.41539567864752L269.2091309547424,56.33314922907953L269.4567175252097,-15.656297995309208L269.5392463820321,49.94287636947256L269.70430409567695,98.32751973011389L269.8693618093218,124.81684479259198L269.95189066614427,82.17860213797849L270.4470638070788,83.06932173548634L270.5295926639012,90.45428423386575L270.69465037754605,108.56332107153972L270.8597080911909,127.03248953503002L271.10729466165816,69.73245678455051L271.6849966594151,-29.778837211457088L272.0151120867048,91.71570662817365L272.0976409435272,41.182722656686316L272.3452275139945,57.21838635682225" fill="none"></path></g></g></g></g></g></g><g transform="translate(41, 177)" clip-path="url(#clip_1)"><clipPath id="clip_1"><rect width="288" height="22"></rect></clipPath><g><g><line x1="0" y1="0" x2="0" y2="5" style="visibility: inherit;" fill="rgb(0, 0, 0)" stroke="rgb(204, 204, 204)" stroke-width="1px"></line><line x1="41.264428411211284" y1="0" x2="41.264428411211284" y2="5" style="visibility: inherit;" fill="rgb(0, 0, 0)" stroke="rgb(204, 204, 204)" stroke-width="1px"></line><line x1="82.52885682242257" y1="0" x2="82.52885682242257" y2="5" style="visibility: inherit;" fill="rgb(0, 0, 0)" stroke="rgb(204, 204, 204)" stroke-width="1px"></line><line x1="123.79328523363385" y1="0" x2="123.79328523363385" y2="5" style="visibility: inherit;" fill="rgb(0, 0, 0)" stroke="rgb(204, 204, 204)" stroke-width="1px"></line><line x1="165.05771364484514" y1="0" x2="165.05771364484514" y2="5" style="visibility: inherit;" fill="rgb(0, 0, 0)" stroke="rgb(204, 204, 204)" stroke-width="1px"></line><line x1="206.32214205605644" y1="0" x2="206.32214205605644" y2="5" style="visibility: inherit;" fill="rgb(0, 0, 0)" stroke="rgb(204, 204, 204)" stroke-width="1px"></line><line x1="247.5865704672677" y1="0" x2="247.5865704672677" y2="5" style="visibility: inherit;" fill="rgb(0, 0, 0)" stroke="rgb(204, 204, 204)" stroke-width="1px"></line><line x1="288.850998878479" y1="0" x2="288.850998878479" y2="5" style="visibility: inherit;" fill="rgb(0, 0, 0)" stroke="rgb(204, 204, 204)" stroke-width="1px"></line></g><g transform="translate(0, 8)"><text style="text-anchor: middle; visibility: hidden; font-family: Roboto, sans-serif; font-size: 12px; font-weight: 200;" x="0" y="0" dx="0em" dy="0.95em" fill="rgb(50, 49, 63)" stroke="none" stroke-width="1px">-500</text><text style="text-anchor: middle; visibility: inherit; font-family: Roboto, sans-serif; font-size: 12px; font-weight: 200;" x="41.264428411211284" y="0" dx="0em" dy="0.95em" fill="rgb(50, 49, 63)" stroke="none" stroke-width="1px">0</text><text style="text-anchor: middle; visibility: inherit; font-family: Roboto, sans-serif; font-size: 12px; font-weight: 200;" x="82.52885682242257" y="0" dx="0em" dy="0.95em" fill="rgb(50, 49, 63)" stroke="none" stroke-width="1px">500</text><text style="text-anchor: middle; visibility: inherit; font-family: Roboto, sans-serif; font-size: 12px; font-weight: 200;" x="123.79328523363385" y="0" dx="0em" dy="0.95em" fill="rgb(50, 49, 63)" stroke="none" stroke-width="1px">1k</text><text style="text-anchor: middle; visibility: inherit; font-family: Roboto, sans-serif; font-size: 12px; font-weight: 200;" x="165.05771364484514" y="0" dx="0em" dy="0.95em" fill="rgb(50, 49, 63)" stroke="none" stroke-width="1px">1.5k</text><text style="text-anchor: middle; visibility: inherit; font-family: Roboto, sans-serif; font-size: 12px; font-weight: 200;" x="206.32214205605644" y="0" dx="0em" dy="0.95em" fill="rgb(50, 49, 63)" stroke="none" stroke-width="1px">2k</text><text style="text-anchor: middle; visibility: inherit; font-family: Roboto, sans-serif; font-size: 12px; font-weight: 200;" x="247.5865704672677" y="0" dx="0em" dy="0.95em" fill="rgb(50, 49, 63)" stroke="none" stroke-width="1px">2.5k</text><text style="text-anchor: middle; visibility: hidden; font-family: Roboto, sans-serif; font-size: 12px; font-weight: 200;" x="288.850998878479" y="0" dx="0em" dy="0.95em" fill="rgb(50, 49, 63)" stroke="none" stroke-width="1px">3k</text></g><line x1="0" y1="0" x2="288.850998878479" y2="0" fill="rgb(0, 0, 0)" stroke="rgb(204, 204, 204)" stroke-width="1px"></line></g></g></g></g></svg>