<svg viewBox="0 0 330 200" xmlns="http://www.w3.org/2000/svg"><g><g><g><g><g><line x1="51.53200149536133" y1="177.86299896240234" x2="46.53200149536133" y2="177.86299896240234" style="visibility: inherit;" fill="rgb(0, 0, 0)" stroke="rgb(204, 204, 204)" stroke-width="1px"></line><line x1="51.53200149536133" y1="163.04108238220215" x2="46.53200149536133" y2="163.04108238220215" style="visibility: inherit;" fill="rgb(0, 0, 0)" stroke="rgb(204, 204, 204)" stroke-width="1px"></line><line x1="51.53200149536133" y1="148.21916580200195" x2="46.53200149536133" y2="148.21916580200195" style="visibility: inherit;" fill="rgb(0, 0, 0)" stroke="rgb(204, 204, 204)" stroke-width="1px"></line><line x1="51.53200149536133" y1="133.39724922180176" x2="46.53200149536133" y2="133.39724922180176" style="visibility: inherit;" fill="rgb(0, 0, 0)" stroke="rgb(204, 204, 204)" stroke-width="1px"></line><line x1="51.53200149536133" y1="118.57533264160153" x2="46.53200149536133" y2="118.57533264160153" style="visibility: inherit;" fill="rgb(0, 0, 0)" stroke="rgb(204, 204, 204)" stroke-width="1px"></line><line x1="51.53200149536133" y1="103.75341606140135" x2="46.53200149536133" y2="103.75341606140135" style="visibility: inherit;" fill="rgb(0, 0, 0)" stroke="rgb(204, 204, 204)" stroke-width="1px"></line><line x1="51.53200149536133" y1="88.93149948120117" x2="46.53200149536133" y2="88.93149948120117" style="visibility: inherit;" fill="rgb(0, 0, 0)" stroke="rgb(204, 204, 204)" stroke-width="1px"></line><line x1="51.53200149536133" y1="74.10958290100098" x2="46.53200149536133" y2="74.10958290100098" style="visibility: inherit;" fill="rgb(0, 0, 0)" stroke="rgb(204, 204, 204)" stroke-width="1px"></line><line x1="51.53200149536133" y1="59.287666320800746" x2="46.53200149536133" y2="59.287666320800746" style="visibility: inherit;" fill="rgb(0, 0, 0)" stroke="rgb(204, 204, 204)" stroke-width="1px"></line><line x1="51.53200149536133" y1="44.465749740600586" x2="46.53200149536133" y2="44.465749740600586" style="visibility: inherit;" fill="rgb(0, 0, 0)" stroke="rgb(204, 204, 204)" stroke-width="1px"></line><line x1="51.53200149536133" y1="29.643833160400384" x2="46.53200149536133" y2="29.643833160400384" style="visibility: inherit;" fill="rgb(0, 0, 0)" stroke="rgb(204, 204, 204)" stroke-width="1px"></line><line x1="51.53200149536133" y1="14.821916580200162" x2="46.53200149536133" y2="14.821916580200162" style="visibility: inherit;" fill="rgb(0, 0, 0)" stroke="rgb(204, 204, 204)" stroke-width="1px"></line><line x1="51.53200149536133" y1="0" x2="46.53200149536133" y2="0" style="visibility: inherit;" fill="rgb(0, 0, 0)" stroke="rgb(204, 204, 204)" stroke-width="1px"></line></g><g transform="translate(41.53200149536133, 0)"><text style="text-anchor: end; visibility: hidden; font-family: Roboto, sans-serif; font-size: 12px; font-weight: 200;" x="0" y="177.86299896240234" dx="0em" dy="0.3em" fill="rgb(50, 49, 63)" stroke="none" stroke-width="1px">0.09</text><text style="text-anchor: end; visibility: inherit; font-family: Roboto, sans-serif; font-size: 12px; font-weight: 200;" x="0" y="163.04108238220215" dx="0em" dy="0.3em" fill="rgb(50, 49, 63)" stroke="none" stroke-width="1px">0.1</text><text style="text-anchor: end; visibility: hidden; font-family: Roboto, sans-serif; font-size: 12px; font-weight: 200;" x="0" y="148.21916580200195" dx="0em" dy="0.3em" fill="rgb(50, 49, 63)" stroke="none" stroke-width="1px">0.11</text><text style="text-anchor: end; visibility: inherit; font-family: Roboto, sans-serif; font-size: 12px; font-weight: 200;" x="0" y="133.39724922180176" dx="0em" dy="0.3em" fill="rgb(50, 49, 63)" stroke="none" stroke-width="1px">0.12</text><text style="text-anchor: end; visibility: hidden; font-family: Roboto, sans-serif; font-size: 12px; font-weight: 200;" x="0" y="118.57533264160153" dx="0em" dy="0.3em" fill="rgb(50, 49, 63)" stroke="none" stroke-width="1px">0.13</text><text style="text-anchor: end; visibility: inherit; font-family: Roboto, sans-serif; font-size: 12px; font-weight: 200;" x="0" y="103.75341606140135" dx="0em" dy="0.3em" fill="rgb(50, 49, 63)" stroke="none" stroke-width="1px">0.14</text><text style="text-anchor: end; visibility: hidden; font-family: Roboto, sans-serif; font-size: 12px; font-weight: 200;" x="0" y="88.93149948120117" dx="0em" dy="0.3em" fill="rgb(50, 49, 63)" stroke="none" stroke-width="1px">0.15</text><text style="text-anchor: end; visibility: inherit; font-family: Roboto, sans-serif; font-size: 12px; font-weight: 200;" x="0" y="74.10958290100098" dx="0em" dy="0.3em" fill="rgb(50, 49, 63)" stroke="none" stroke-width="1px">0.16</text><text style="text-anchor: end; visibility: hidden; font-family: Roboto, sans-serif; font-size: 12px; font-weight: 200;" x="0" y="59.287666320800746" dx="0em" dy="0.3em" fill="rgb(50, 49, 63)" stroke="none" stroke-width="1px">0.17</text><text style="text-anchor: end; visibility: inherit; font-family: Roboto, sans-serif; font-size: 12px; font-weight: 200;" x="0" y="44.465749740600586" dx="0em" dy="0.3em" fill="rgb(50, 49, 63)" stroke="none" stroke-width="1px">0.18</text><text style="text-anchor: end; visibility: hidden; font-family: Roboto, sans-serif; font-size: 12px; font-weight: 200;" x="0" y="29.643833160400384" dx="0em" dy="0.3em" fill="rgb(50, 49, 63)" stroke="none" stroke-width="1px">0.19</text><text style="text-anchor: end; visibility: inherit; font-family: Roboto, sans-serif; font-size: 12px; font-weight: 200;" x="0" y="14.821916580200162" dx="0em" dy="0.3em" fill="rgb(50, 49, 63)" stroke="none" stroke-width="1px">0.2</text><text style="text-anchor: end; visibility: hidden; font-family: Roboto, sans-serif; font-size: 12px; font-weight: 200;" x="0" y="0" dx="0em" dy="0.3em" fill="rgb(50, 49, 63)" stroke="none" stroke-width="1px">0.21</text></g><line x1="51.53200149536133" y1="0" x2="51.53200149536133" y2="177.86299896240234" fill="rgb(0, 0, 0)" stroke="rgb(204, 204, 204)" stroke-width="1px"></line></g></g><g transform="translate(51, 0)" clip-path="url(#clip_0)"><clipPath id="clip_0"><rect width="278" height="177"></rect></clipPath><g><g><g><line x1="0" y1="0" x2="0" y2="177.86299896240234" fill="rgb(0, 0, 0)" stroke="rgb(60, 60, 60)" stroke-width="1px" opacity="0.25"></line><line x1="39.78114264351981" y1="0" x2="39.78114264351981" y2="177.86299896240234" fill="rgb(0, 0, 0)" stroke="rgb(60, 60, 60)" stroke-width="1px" opacity="0.25"></line><line x1="79.56228528703961" y1="0" x2="79.56228528703961" y2="177.86299896240234" fill="rgb(0, 0, 0)" stroke="rgb(60, 60, 60)" stroke-width="1px" opacity="0.25"></line><line x1="119.34342793055943" y1="0" x2="119.34342793055943" y2="177.86299896240234" fill="rgb(0, 0, 0)" stroke="rgb(60, 60, 60)" stroke-width="1px" opacity="0.25"></line><line x1="159.12457057407923" y1="0" x2="159.12457057407923" y2="177.86299896240234" fill="rgb(0, 0, 0)" stroke="rgb(60, 60, 60)" stroke-width="1px" opacity="0.25"></line><line x1="198.90571321759904" y1="0" x2="198.90571321759904" y2="177.86299896240234" fill="rgb(0, 0, 0)" stroke="rgb(60, 60, 60)" stroke-width="1px" opacity="0.25"></line><line x1="238.68685586111886" y1="0" x2="238.68685586111886" y2="177.86299896240234" fill="rgb(0, 0, 0)" stroke="rgb(60, 60, 60)" stroke-width="1px" opacity="0.25"></line><line x1="278.4679985046387" y1="0" x2="278.4679985046387" y2="177.86299896240234" fill="rgb(0, 0, 0)" stroke="rgb(60, 60, 60)" stroke-width="1px" opacity="0.25"></line></g><g><line x1="0" y1="177.86299896240234" x2="278.4679985046387" y2="177.86299896240234" fill="rgb(0, 0, 0)" stroke="rgb(60, 60, 60)" stroke-width="1px" opacity="0.25"></line><line x1="0" y1="163.04108238220215" x2="278.4679985046387" y2="163.04108238220215" fill="rgb(0, 0, 0)" stroke="rgb(60, 60, 60)" stroke-width="1px" opacity="0.25"></line><line x1="0" y1="148.21916580200195" x2="278.4679985046387" y2="148.21916580200195" fill="rgb(0, 0, 0)" stroke="rgb(60, 60, 60)" stroke-width="1px" opacity="0.25"></line><line x1="0" y1="133.39724922180176" x2="278.4679985046387" y2="133.39724922180176" fill="rgb(0, 0, 0)" stroke="rgb(60, 60, 60)" stroke-width="1px" opacity="0.25"></line><line x1="0" y1="118.57533264160153" x2="278.4679985046387" y2="118.57533264160153" fill="rgb(0, 0, 0)" stroke="rgb(60, 60, 60)" stroke-width="1px" opacity="0.25"></line><line x1="0" y1="103.75341606140135" x2="278.4679985046387" y2="103.75341606140135" fill="rgb(0, 0, 0)" stroke="rgb(60, 60, 60)" stroke-width="1px" opacity="0.25"></line><line x1="0" y1="88.93149948120117" x2="278.4679985046387" y2="88.93149948120117" fill="rgb(0, 0, 0)" stroke="rgb(60, 60, 60)" stroke-width="1px" opacity="0.25"></line><line x1="0" y1="74.10958290100098" x2="278.4679985046387" y2="74.10958290100098" fill="rgb(0, 0, 0)" stroke="rgb(60, 60, 60)" stroke-width="1px" opacity="0.25"></line><line x1="0" y1="59.287666320800746" x2="278.4679985046387" y2="59.287666320800746" fill="rgb(0, 0, 0)" stroke="rgb(60, 60, 60)" stroke-width="1px" opacity="0.25"></line><line x1="0" y1="44.465749740600586" x2="278.4679985046387" y2="44.465749740600586" fill="rgb(0, 0, 0)" stroke="rgb(60, 60, 60)" stroke-width="1px" opacity="0.25"></line><line x1="0" y1="29.643833160400384" x2="278.4679985046387" y2="29.643833160400384" fill="rgb(0, 0, 0)" stroke="rgb(60, 60, 60)" stroke-width="1px" opacity="0.25"></line><line x1="0" y1="14.821916580200162" x2="278.4679985046387" y2="14.821916580200162" fill="rgb(0, 0, 0)" stroke="rgb(60, 60, 60)" stroke-width="1px" opacity="0.25"></line><line x1="0" y1="0" x2="278.4679985046387" y2="0" fill="rgb(0, 0, 0)" stroke="rgb(60, 60, 60)" stroke-width="1px" opacity="0.25"></line></g></g></g><g><g><line x1="0" y1="311.2602481842041" x2="278.4679985046387" y2="311.2602481842041" fill="rgb(0, 0, 0)" stroke="rgb(153, 153, 153)" stroke-width="1.5px"></line></g></g><g><g><line x1="39.78114264351981" y1="0" x2="39.78114264351981" y2="177.86299896240234" fill="rgb(0, 0, 0)" stroke="rgb(153, 153, 153)" stroke-width="1.5px"></line></g></g><g><g><g><g><g><path style="fill: none;" stroke="rgb(255, 112, 67)" stroke-width="2px" d="M40.17895406995501,148.03890872107053L40.25851635524205,148.03890872107053L40.81545235225133,148.0389087210705L41.213263778686525,154.86414725674197L41.3723883492606,147.79449196250195L41.61107520512172,176.84708957638475L41.7701997756958,183.588683254281L41.84976206098284,157.82958291610993L42.00888663155692,165.15162913914776L42.168011202131005,151.5184571115086L42.406698057992116,141.43946935590088L42.565822628566195,112.99202670342484L43.12275862557547,100.81048480317452L43.44100776672363,90.25557465528563L43.52057005201067,76.72038373107199L43.600132337297715,92.65524901682811L43.83881919315883,98.44217208493308L44.55487976074219,115.87933506728788L44.63444204602923,130.48450959249212L44.71400433131626,130.19506276835813L44.952691187177386,140.9945605562496L45.191378043038505,122.34001887728633L45.50962718418666,105.86037237712165L45.82787632533482,84.89753415556136L45.90743861062187,90.74806022994618L45.9870008959089,86.69543799882332L46.14612546648298,78.91437528796025L46.30525003705706,81.31803465626714L46.3848123223441,76.51188501437153L46.54393689291818,77.55732832863428L46.623499178205215,77.34197227831066L46.7826237487793,79.17904710899181L46.94174831935337,63.87060075170826L47.498684316362656,80.83625486705743L47.737371172223774,101.75364606308389L47.81693345751081,81.45593960065061L47.97605802808489,81.82557607387729L48.29430716923305,90.14517785876409L48.69211859566825,70.48605981922364L48.771680880955294,57.904879419065416L49.72642830439976,75.04921755593807L49.8059905896868,90.93680190886839L50.12423973083496,103.9139791832062L50.36292658669608,100.91420023061943L50.52205115727016,99.04448690134872L50.681175727844234,101.32527728189639L51.3972362954276,108.31266712523083L51.87461000714983,91.76250355252515L52.27242143358503,90.9737889170789L52.35198371887207,88.99480814452629L52.59067057473319,103.08210168528363L52.74979514530727,94.36427227065624L52.908919715881346,109.2138988393406L53.38629342760359,103.42507616009041L53.46585571289063,95.78263438098044L54.18191628047398,100.94856087990317L54.341040851048064,103.88693923580064L54.500165421622135,116.68841050376636L54.738852277483254,132.1821193650041L55.454912845066616,145.91980021035118L55.693599700927734,142.6175017563572L55.773161986214774,149.44698797999624L55.93228655678885,139.88308507530644L56.17097341264997,148.00924551517735L56.72790940965925,156.17788804415417L56.88703398023333,154.8021341048892L56.966596265520366,141.6842348531278L57.28484540666852,143.21128397562342L57.36440769195556,136.15816561344L57.44396997724261,118.30696003065731L57.52353226252965,132.34578881383374L57.76221911839077,126.68523084106586L57.84178140367781,110.62868449155856L58.160030544825965,126.68671242707632L58.239592830113,131.36791266778795L58.319155115400044,132.98320869277052L58.71696654183524,144.36391317352997L58.87609111240932,132.1705586780786L58.95565339769636,134.39992024152232L59.27390253884452,143.37126485044368L59.671713965279714,142.66871380892576L59.751276250566754,141.88763463854653L59.91040082114083,127.29115791740395L60.06952539171491,134.31509243882888L60.14908767700195,126.30368061781455L60.22864996228899,135.4260046192088L60.46733681815011,145.43389120235153L60.626461388724195,138.56120532222806L60.86514824458531,115.16230034259834L61.024272815159385,118.75073961413862L61.26295967102051,125.12602932938894L61.34252195630754,124.89618854781408L61.6607710974557,141.66319689409016L61.74033338274275,146.7901357688554L61.81989566802979,131.17636530419753L61.899457953316826,133.66866406678798L62.138144809177945,121.87601324566533L62.217707094464984,130.88521538971793L62.61551852090018,136.9390866848683L63.2520168031965,125.67292029679119L63.411141373770576,117.296444673685L63.49070365905762,143.1989034480219L63.649828229631694,128.29318186609189L63.80895280020578,140.13449603652347L63.88851508549281,118.45400361944739L64.12720194135393,139.5523570349538L64.20676422664097,142.48846894396877L64.28632651192801,151.7745936195718L64.44545108250209,157.6341731812852L64.92282479422433,139.02394322834894L65.00238707951137,139.85325221846503L65.0819493647984,153.31626523688152L65.47976079123362,150.9422164580949L65.63888536180768,149.71230191144434L65.71844764709472,143.91175364509252L65.8775722176688,143.33578323662914L66.67319507053921,147.80589692348286L66.83231964111327,141.99198973110566L67.0710064969744,145.46534206459322L67.30969335283552,148.33110960665059L67.4688179234096,143.5442371483442L67.70750477927072,145.80894110692617L67.8666293498448,156.25739860901098L68.02575392041888,146.3500396788493L68.18487849099296,137.1919063066136L68.42356534685408,142.0480276420146L68.50312763214112,124.58168176154952L68.6622522027152,106.75805676178187L69.21918819972447,126.12045453080444L69.29875048501151,137.14035068472748L69.37831277029855,151.7525924785078L69.45787505558559,151.23499701492895L70.25349790845598,127.42890348953799L70.49218476431712,135.27811159655903L70.57174704960416,149.40426923102385L70.8899961907523,158.1579959576174L71.2878076171875,154.06110402542288L71.44693218776158,163.49449942506317L71.60605675833565,144.09885409750086L71.84474361419677,142.79485216555722L72.08343047005789,126.04611202580617L72.56080418178013,144.36172142676563L72.64036646706717,146.07442450152496L72.79949103764126,158.12595776486157L72.8790533229283,150.58775288398485L73.35642703465052,160.88961688119005L73.43598931993758,148.01897804771565L73.6746761757987,137.02820411632112L73.99292531694685,141.86596644144433L74.07248760223389,131.73397750722899L74.15204988752093,143.03827340932784L74.23161217280797,145.05604203084027L74.62942359924317,144.9718584419627L74.86811045510429,147.97782896894404L74.94767274039131,146.37702599721408L75.02723502567835,155.77719731958726L75.42504645211356,151.34158335490753L75.82285787854876,157.21603862164108L75.98198244912284,158.286614942662L76.06154473440988,148.9579024823527L76.14110701969692,160.65145007619552L76.22066930498394,125.09879069154242L76.37979387555804,140.91375982419828L77.01629215785435,146.63431068408477L77.33454129900251,153.9831477244511L77.41410358428956,163.44197876923246L78.20972643715994,163.96211385250257L78.60753786359516,167.58998731569775L78.76666243416922,165.70106881836577L78.84622471945626,150.31079362856008L78.9257870047433,135.0653705020247L79.00534929003034,129.32682200932751L79.32359843117851,134.29190589128126L79.72140985761371,144.00412954572408L79.80097214290075,140.9180558120717L80.03965899876185,128.75989217604592L80.43747042519706,149.33498895484448L80.5170327104841,143.5595353651346L80.83528185163225,160.08467820597426L80.9148441369193,157.40259569861598L80.99440642220634,162.0264309410455L81.15353099278042,159.07324867773823L81.39221784864152,153.2614185389451L81.7104669897897,148.87033830440282L81.79002927507673,164.5897917591514L82.10827841622489,164.49688610369626L82.18784070151193,156.0474890724485L82.58565212794713,156.43820395214667L82.7447766985212,173.17131980095448L83.1425881249564,165.80926675752022L83.22215041024344,139.0783186212812L83.30171269553048,153.36051974789785L83.5403995513916,164.78479616755286L83.61996183667864,150.94742185513843L83.69952412196568,145.26086798233797L83.9382109778268,137.22256856607095L84.01777326311384,135.32551260598194L84.09733554840088,121.91360556201995L84.17689783368792,144.88191857128234L84.57470926012311,161.74494982967497L84.7338338306972,154.75459926092418L84.81339611598423,149.74302953828092L84.89295840127129,147.0092873513623L84.97252068655833,142.91263938245226L85.21120754241943,148.16795990490596L85.37033211299351,164.60986697473643L85.60901896885464,159.54676728462036L85.68858125414167,163.52938921999896L86.08639268057688,161.5717317533949L86.16595496586392,144.9386833622899L86.40464182172502,142.06794220358685L86.5637663922991,122.29664730959428L86.9615778187343,126.25199651351987L87.12070238930838,150.71923799041247L87.35938924516951,159.07155321304543L87.51851381574357,134.91318177967148L87.59807610103061,139.38674327362966L87.67763838631765,138.55103613864074L87.7572006716047,152.20269463981427L87.91632524217879,144.994930888635L87.99588752746583,118.31405772147892L88.15501209803989,144.4112676203636L88.31413666861397,153.16355899763306L88.39369895390102,133.1742911026376L88.47326123918806,139.2047908150724L88.71194809504918,145.94670507381213L88.9506349509103,152.1463487665617L89.3484463773455,133.511903422401L89.66669551849365,133.2381207581866L89.7462578037807,125.18135066347196L89.90538237435477,137.55472294239283L90.14406923021589,141.38244807639407L90.46231837136405,147.60404434627458L90.54188065665109,154.52912406309062L90.70100522722517,150.00544497236177L90.7805675125122,145.34096185501335L90.86012979779925,149.8460866104031L90.93969208308629,142.05653342219745L91.25794122423446,149.490266157089L91.33750350952148,154.90417346257635L91.49662808009556,128.62068205193876L91.5761903653826,124.23497479733196L91.89443950653077,126.47265565291684L92.53093778882707,126.04745731406244L92.84918692997523,137.7219148624106L92.92874921526229,151.96639769720466L93.16743607112339,151.43010910511794L93.24699835641043,148.28018865036054L93.32656064169747,129.8796404821379L93.48568521227155,135.4490929775793L93.5652474975586,147.9924393740937L93.72437206813268,151.8890149961512L93.88349663870675,152.08917136730386L93.96305892399378,159.0321798815462L94.12218349456788,151.3487233390857L94.28130806514196,146.18627796398366L94.51999492100306,143.49664893866208L94.7586817768642,151.82720084316784L95.07693091801234,157.2512601508322L95.15649320329938,169.86571670462732L95.71342920030865,171.80577468532L95.87255377088275,163.2326547858495L95.95211605616979,144.89294572159702L96.34992748260497,133.9506087561022L96.66817662375314,139.1092649749148L96.82730119432722,154.42395870905582L97.14555033547538,159.07542037279887L97.54336176191059,148.73822125054707L97.94117318834577,139.80096782240628L98.02073547363281,155.90610579980864L98.10029775891987,169.61620792856758L98.33898461478097,169.9789094752084L98.49810918535505,163.88945629401368L98.65723375592913,160.33763792062302L98.73679604121618,148.5038027837824L98.89592061179025,165.59182574779493L99.13460746765136,165.65715244958201L99.2141697529384,153.84841200225733L99.29373203822546,159.57474607458215L99.45285660879952,160.0785181537538L99.6119811793736,145.19464809898426L99.69154346466064,150.4421190866715L99.85066803523473,155.90793083850562L100.00979260580881,154.66521456736055L100.32804174695696,158.9427689949686L100.48716631753105,140.0644192325558L100.80541545867919,150.18878077159434L100.88497774396623,156.11457527075368L101.12366459982736,136.64518966478775L101.28278917040144,140.59254112774966L101.52147602626255,152.71325794790894L101.68060059683664,160.34897801770563L101.83972516741072,168.32668522993546L102.07841202327182,165.98805003620848L102.31709887913296,156.91321894012356L102.39666116442,151.62152022662136L102.7944725908552,165.25524531180736L103.19228401729038,160.1600704399549L103.51053315843855,159.7161461107954L103.59009544372559,158.8018478939143L103.66965772901263,157.71504162987304L103.82878229958669,154.64010883834882L103.90834458487375,144.82573948589842L103.98790687016078,151.94467305391447L104.38571829659598,140.86761361288052L104.6244051524571,154.1194807223842L104.70396743774414,147.6627651011692L104.78352972303118,155.76294001309614L104.86309200831822,158.2083723038502L105.02221657889231,158.0060341092488L105.26090343475342,159.0210194524419L105.49959029061453,158.35845377228787L106.2156508581979,143.43280490368724L106.45433771405901,114.12538475752287L107.01127371106828,132.60596289877904L107.09083599635532,121.1089487076148L107.17039828164236,133.66889117540967L107.48864742279054,152.45135016284723L107.6477719933646,152.4076665287667L107.80689656393868,149.3407011683037L107.88645884922573,158.6015059910452L108.20470799037388,143.58255877546424L108.68208170209613,128.59247891834022L108.84120627267019,116.67622666025046L109.07989312853132,95.52530262297252L109.15945541381836,97.6296257548523L109.39814226967948,100.38844797957655L109.6368291255406,108.78830237556822L109.79595369611468,108.27516097394287L109.95507826668876,114.82689838278716L110.35288969312396,131.32696657861638L110.432451978411,122.64565475230138L110.67113883427211,133.66971852886456L110.98938797542027,127.28015752198358L111.14851254599435,113.28468213932707L111.46676168714251,118.04958764786134L111.54632397242955,102.7897950406889L111.78501082829067,117.6686769444984L111.94413539886476,108.02813045010487L112.02369768415178,75.82156075881457L112.2623845400129,81.75218050006725L112.34194682529994,95.53897431223065L112.58063368116107,91.24369016181797L112.6601959664481,102.50647947233672L112.73975825173514,99.9590564913183L113.21713196345739,101.30483543607751L113.61494338989257,107.37333960243859L113.77406796046667,94.0823807126516L113.85363024575369,91.8758835481328L114.96750223977226,98.5785279665059L115.0470645250593,96.5995552458076L115.20618909563336,100.01424810875277L115.76312509264264,84.51125870344993L115.84268737792968,102.15743771683228L115.92224966321672,97.5397039119763L116.24049880436489,81.84120051440513L116.32006108965193,98.4693665994796L116.63831023080009,107.76394739426199L116.95655937194823,134.6131278599271L117.03612165723527,140.0894018057985L117.19524622780936,155.69985033712493L117.35437079838344,152.44358283164746L117.43393308367048,166.11943240800412L117.51349536895752,154.9129251952186L117.59305765424455,162.50801651235844L118.22955593654086,151.41633442067635L118.54780507768903,160.73819493071798L118.70692964826311,156.10700175269437L118.94561650412423,159.98878173959898L119.34342793055943,148.23710425092378L119.82080164228167,152.5546715036939L119.9003639275687,135.81511768564366L119.97992621285576,146.53092754118032L120.13905078342982,147.31183141827597L120.37773763929094,144.2517879252256L121.17336049216135,150.4923920318238L121.33248506273543,164.37949899024863L121.4916096333095,150.2973859841469L121.73029648917063,133.3945132812809L121.96898334503175,138.1024767665153L122.12810791560581,135.43785375642028L122.20767020089285,131.11001655453134L122.60548162732806,143.26244206670722L122.68504391261509,139.85011915293376L122.92373076847622,152.1904450195825L123.00329305376326,145.9968357742197L123.0828553390503,148.77361886619212L123.3215421949114,132.40235877675218L123.40110448019844,110.81113303847647L123.71935362134661,102.9019508682457L123.87847819192068,86.67225005477384L124.35585190364293,90.59052469773646L124.514976474217,91.91977369199047L124.75366333007813,80.32205086443429L125.07191247122628,74.1846681688884L125.39016161237444,94.30797796118992L125.54928618294852,101.58359245861382L125.86753532409668,105.50266615801591L125.94709760938372,88.81217274899217L126.34490903581893,90.62787019944928L126.504033606393,89.53670068664701L127.45878102983748,111.4481051515751L127.77703017098563,123.82840920219361L127.85659245627267,116.39514132131838L127.9361547415597,130.8724994717546L128.17484159742082,140.6591251367451L128.3339661679949,137.77172300133844L128.57265302385602,134.13062120838063L128.89090216500418,141.69721918072693L129.05002673557826,141.0204817747257L129.1295890208653,142.42347261429566L129.44783816201345,143.28472079873745L129.5274004473005,141.6389351307357L129.76608730316164,136.9861013962787L130.08433644430977,144.0821275087983L130.1638987295968,139.31922515698346L130.32302330017092,152.26478551009666L130.48214787074497,156.7395509253161L130.72083472660609,151.6532036424617L131.11864615304128,143.0714082454757L131.27777072361536,144.72778862659922L131.43689529418944,137.467721392517L131.6755821500506,133.22365456525114L132.07339357648578,148.38066023790714L132.15295586177282,142.29808171117222L132.3120804323469,156.60294786391077L132.47120500292095,148.61778965588343L132.550767288208,144.92795681733224L132.63032957349506,154.1531217404238L132.86901642935618,142.85165196347825L133.26682785579138,152.84683982473612L133.42595242636546,141.24035044751128L133.5055147116525,130.0841621267117L133.82376385280065,141.47864400466335L134.22157527923582,143.06159808810432L134.539824420384,128.22313168295557L134.85807356153214,134.80640526220327L134.9376358468192,130.75560149441222L135.3354472732544,136.02783149394085L135.49457184382848,133.6632364994286L135.65369641440256,134.72196581478897L135.81282098497664,137.55648529641908L136.05150784083776,160.47838416270358L136.1310701261248,165.21519745746744L136.44931926727295,157.8092684334025L136.9266929789952,141.6333481431711L137.08581754956927,159.7044627355712L137.24494212014335,159.4943752644081L137.40406669071743,151.59549069239048L137.48362897600447,147.06742497797887L137.88144040243967,146.61106879190382L138.27925182887486,142.83082189689782L138.51793868473598,137.25356026701039L138.67706325531006,134.96383322507268L138.83618782588414,130.12945930757346L138.91575011117118,135.76774186081894L139.07487468174526,140.36296635708425L139.23399925231934,125.10169913515166L139.47268610818045,138.2233169092645L139.63181067875453,141.39965046466662L139.71137296404157,134.63027958375682L139.7909352493286,147.5306233990239L139.87049753461568,149.29045726487215L140.42743353162496,152.536204176619L140.586558102199,150.51652382356966L140.82524495806013,133.2581059032539L140.90480724334716,137.3433580119016L140.98436952863423,111.78255192105154L141.46174324035644,128.69671054290984L141.85955466679164,132.73989065906284L142.09824152265276,138.05852659407088L142.1778038079398,144.7950619516624L142.81430209023614,147.91952832509295L142.89386437552315,141.4651659979151L142.97342666081022,145.02715875091357L143.05298894609723,128.06320319780303L143.2121135166713,112.96331368540262L143.6099249431065,114.09196695614824L143.76904951368059,118.06637227165082L143.84861179896762,132.51330905090254L144.48511008126397,126.89972635678087L144.56467236655098,143.35417944392296L144.88292150769914,150.67889619027025L145.04204607827324,151.88002289861083L145.20117064884732,159.3517047895273L145.28073293413433,161.58111279652124L145.4398575047084,153.16970719027822L145.7581066458566,147.73908652569645L145.8376689311436,156.40863861762233L145.9967935017177,151.5334383639493L146.1559180722918,146.20550593969375L146.2354803575788,151.23963236052944L146.3946049281529,157.7207077472226L146.47416721343996,148.088417639758L146.55372949872697,147.06723099925657L146.63329178401403,139.28691549225854L146.95154092516216,153.26212839890013L147.03110321044923,146.6106078561808L147.26979006631032,150.84394224106728L147.3493523515974,128.54915499374354L147.42891463688443,123.3962775711717L147.7471637780326,126.03427850227808L147.8267260633196,137.32758432656146L147.9858506338937,133.57170553991543L148.38366206032887,138.91496426491997L149.02016034262522,121.82419296246674L149.25884719848634,133.15775440811913L149.41797176906041,142.64985397556632L149.5770963396345,140.3967832765323L149.65665862492153,147.42125227201038L149.9749077660697,154.5123573712477L150.13403233664377,146.75142185870502L150.3727191925049,157.50256438567337L150.45228147779193,138.3750610836132L150.61140604836598,150.32687767041793L151.16834204537525,145.51982312822085L151.32746661594936,132.9644209743929L151.4070289012364,153.38792993064473L151.72527804238456,145.14424322695476L151.8048403276716,134.77467720473666L152.04352718353272,128.3264108762268L152.12308946881976,134.20663842509651L152.2026517541068,129.87756848838478L152.36177632468087,123.35892002093684L152.4413386099679,126.21031448510732L152.600463180542,133.89733600987722L152.75958775111607,133.01487359671972L152.8391500364031,148.37853204209003L153.15739917755127,133.29178257632972L153.3960860334124,145.57940023397347L153.71433517456055,145.47644787484L153.79389745984759,151.0559302357586L154.0325843157087,151.72957783840275L154.19170888628278,133.15402400843905L154.35083345685686,135.73325460963719L154.4303957421439,123.10022590087897L154.50995802743094,128.80817371777914L155.2260185950143,129.91994659582883L155.3851431655884,120.82718617760824L155.6238300214495,135.9923254538825L155.78295459202357,143.73483725193572L155.94207916259768,145.6194721350449L156.49901515960696,147.97697018876778L156.57857744489397,146.01906922398814L156.8172643007551,131.13665298965776L156.89682658604212,112.39770684254921L156.97638887132916,106.7772479860991L157.3742002977644,117.14737252932227L157.61288715362548,120.73768760112638L157.7720117241996,135.153738317796L158.01069858006068,147.69562884776326L158.09026086534772,132.2981298640142L158.16982315063476,141.5889609656241L158.48807229178294,140.0715151963149L158.56763457706995,149.32403218490978L158.72675914764403,157.18907268047607L158.88588371821814,147.45081852775763L158.96544600350515,134.39649173185484L159.2836951446533,128.71487905790502L159.36325742994035,138.96103036672562L159.6815065710885,127.14466497112046L159.76106885637557,138.16300668883073L159.92019342694965,135.62075015818877L160.0793179975237,139.91916299966175L160.47712942395893,112.70836185664714L160.55669170924597,112.4009889229128L160.71581627982005,122.90019619081933L160.95450313568114,120.94467217993713L161.5114391326904,116.13247700555469L161.6705637032645,127.69315323816981L161.98881284441268,119.91975372971349L162.0683751296997,131.8725277233931L162.38662427084788,107.06049904526077L162.4661865561349,116.47191850214519L162.94356026785715,114.45966525845871L163.18224712371824,111.08108995294045L163.2618094090053,99.53531711123951L163.34137169429232,114.22344143161L163.50049626486643,116.05233422071072L163.58005855015347,118.91430072539035L163.6596208354405,119.64259402717434L163.73918312072752,119.88793093388483L164.0574322618757,98.59243279296294L164.13699454716274,108.28863190302839L164.2961191177368,114.95644717817757L164.37568140302386,120.62965814861143L164.53480597359794,129.9480734921406L164.77349282945906,117.90349977517025L164.8530551147461,118.41894941238817L165.17130425589426,128.99748329013948L165.2508665411813,124.36482077918828L165.8873648234776,118.00228287996481L166.2851762499128,124.19868805075303L166.76254996163505,129.4443562694958L166.84211224692206,109.21848230100228L166.92167453220912,111.03955145936422L167.31948595864432,111.14843039277903L167.63773509979248,106.04367265305206L168.11510881151474,131.4275766138116L168.43335795266287,126.08229452092547L168.75160709381103,107.77375064259161L168.9107316643851,114.1919559791511L169.0698562349592,119.31474527643215L169.3085430908203,113.946307706091L169.7063545172555,97.24369425154474L170.1041659436907,101.41602458534038L170.66110194069998,95.77315423708748L171.13847565242222,111.11542506218262L171.2976002229963,109.88412639465278L171.4567247935704,120.43754183180388L171.61584936414448,128.49830064205966L171.6954116494315,113.13411838173432L171.9340985052926,119.46823924742652L172.65015907287597,120.46682958664653L173.5253442110334,124.1111650801072L173.60490649632047,133.30754948470198L173.84359335218159,117.04171035722015L173.9231556374686,119.5083946384845L174.24140477861675,133.99187440701843L174.32096706390382,153.875956457207L174.48009163447787,147.16505309224837L174.8779030609131,146.8536075102441L175.11658991677422,140.97279270683444L175.5144013432094,144.89678627021362L175.59396362849645,142.14108390789843L175.6735259137835,150.84693740600713L175.83265048435757,142.96764903400336L175.91221276964458,141.14598060852595L176.31002419607978,137.42439592009583L176.38958648136685,132.56092670728503L176.62827333722794,132.08255937003497L176.707835622515,101.79919133110462L177.1056470489502,91.58240412290198L177.5830207606724,76.95347632995416L177.66258304595948,81.64386216374146L178.06039447239468,76.26489598202416L178.37864361354283,85.70567893449427L178.77645503997803,68.13701186713679L179.41295332227432,80.3467410178062L180.68594988686698,98.93480193253713L180.76551217215402,107.40805740416312L181.16332359858922,108.48716748998966L182.19763330732073,117.81422624827522L182.27719559260777,100.45969457472852L182.67500701904297,112.75095815912358L182.83413158961704,91.23083395411216L182.99325616019112,115.25286208413065L183.0728184454782,121.36183539479492L183.1523807307652,106.97339533036372L183.47062987191336,109.25890836187354L183.62975444248747,104.95254196901061L183.78887901306155,83.27932529812499L183.9480035836356,100.85204481392161L184.18669043949674,119.57827274451743L184.26625272478375,116.44233784935686L184.42537729535783,117.140889782843L184.5845018659319,105.79972321774497L184.66406415121895,100.17913578166483L184.74362643650602,109.80129428535528L184.82318872179303,113.12714496524742L184.9823132923671,111.37483576032066L185.06187557765415,112.84009569552772L185.1414378629412,115.19939228537531L185.3801247188023,110.90297379794245L186.01662300109865,107.67117159160333L186.33487214224678,113.40806917750463L186.41443442753385,120.82812321557999L186.65312128339494,128.92923147781673L187.1304949951172,108.70727290537178L187.21005728040421,109.59914093455427L187.3691818509783,113.52223244473267L187.7669932774135,116.07601323378114L187.92611784798757,100.52493747096541L188.00568013327464,110.82686794803874L188.32392927442277,118.95978610171596L188.40349155970983,113.83860470771867L188.80130298614503,104.81988985033449L188.9604275567191,101.85861437063252L189.03998984200612,115.78816956641289L189.1991144125802,121.22481149345728L189.91517498016358,119.55137488630623L189.99473726545062,115.00047050363153L190.15386183602467,110.30770348125783L190.31298640659875,85.72166066188764L190.5516732624599,98.94122970925201L190.63123554774694,92.29961994289188L191.3472961153303,93.88361914815458L191.82466982705253,106.31458801684775L192.3816058240618,113.94138801844755L192.69985496520994,114.0164057770505L192.779417250497,118.95835489262517L193.09766639164516,93.47619151157701L193.8137269592285,93.27547567609825L194.13197610037668,86.30745658308108L194.21153838566372,75.89904663642741L194.29110067095075,100.97966548373556L194.68891209738595,105.00406353178434L195.1662858091082,108.54659178276863L195.4049726649693,121.4194633758968L195.48453495025635,125.84114931402188L195.5640972355434,124.57458876336034L195.8027840914045,121.72508682602236L195.96190866197858,131.692117373487L196.12103323255266,118.91942923487008L196.20059551783973,130.3909143177762L196.28015780312674,126.57848622876153L196.5984069442749,135.3430346651441L196.75753151484898,130.01471200736898L196.9962183707101,128.86765664236106L197.07578065599714,146.54558859784734L197.15534294128418,145.83459036094288L197.47359208243236,130.65337732948979L197.95096579415457,135.00613715825963L198.50790179116385,131.27753637381343L198.5874640764509,125.73010508411669L198.66702636173792,133.95602832715437L199.06483778817312,129.1855296209236L199.1444000734602,121.87945138173902L199.30352464403427,118.81814232187429L199.94002292633056,111.42288726713974L200.09914749690464,110.17019221643152L200.25827206747874,118.48229415838586L200.33783435276575,118.80078680475971L200.5765212086269,120.32632361072538L201.13345720563618,113.42966771071578L201.3721440614973,114.59310253613722L201.53126863207137,131.12203341113434L201.69039320264545,133.36658021286323L202.08820462908065,142.7748579182388L202.48601605551582,110.78980665860838L202.5655783408029,123.70204020397844L202.64514062608993,124.11246264382929L202.96338976723808,125.79400372242458L203.0429520525251,122.5502936936549L203.52032576424736,96.98380082471691L203.67945033482144,100.14518589665668L203.8385749053955,120.7195470201175L204.07726176125664,120.9598927364667L204.15682404654365,126.70850944886989L204.23638633183072,128.71128683136382L204.31594861711775,122.85730999952034L204.55463547297884,94.43203859373612L204.71376004355292,86.79915379843195L205.11157146998812,72.66387567537333L205.35025832584927,61.706030850861865L205.50938289642335,64.85608818664717L205.82763203757148,53.547515831895396L205.90719432285854,61.512750341281375L206.30500574929374,21.223110775910495L206.6232548904419,20.30796922347498L206.86194174630302,31.67259399056969L206.94150403159003,29.835788452911572L207.1006286021641,30.325019745382733L207.4188777433123,33.903527186613665L207.49844002859933,34.45657832556093L207.65756459917338,42.35276337020436L207.73712688446045,54.91719724574203L208.21450059618266,27.81107855145798L208.29406288146973,28.56200109737848L208.4531874520438,43.545558426541454L208.61231202261789,43.30024785463753L208.850998878479,28.90674771551125L208.93056116376604,23.454089640834432L209.08968573434012,26.241724419125372L209.32837259020124,26.0935220504629L209.6466217313494,12.556850708003566L209.80574630192348,-1.148897365916415L209.88530858721052,10.629553700341729L210.04443315778462,15.870372517559849L210.12399544307164,-4.920231093476227L210.6809314400809,1.4245635028961858L210.840056010655,-2.8959400183574124L216.88678969247,-8.173725456104668L217.2846011189052,16.596706256876942L217.36416340419225,6.985598876632786L217.44372568947927,3.1163397425745383L217.76197483062745,-3.8190510202415706L217.84153711591446,12.129166253223634L218.0802239717756,14.610154238506754L218.2393485423497,-4.145157728985345L218.4780353982108,1.0194749514329609L218.875846824646,19.859833735235075L219.03497139522008,31.098602653734172L219.19409596579416,37.52477431015692L219.2736582510812,38.28077800154845L219.67146967751637,27.642027533423924L219.83059424809048,23.088041656883632L220.22840567452565,19.254944621390056L220.4670925303868,29.714350948686306L220.62621710096087,45.59372563060273L220.78534167153492,55.19817569287052L221.18315309797015,52.752806003020986L221.42183995383127,52.32317566829034L221.58096452440535,52.16057208242894L221.74008909497942,54.944734363298444L221.81965138026646,47.682078584628236L222.05833823612755,53.45897814151344L222.13790052141462,47.74250351958756L222.21746280670166,44.67617817793032L222.45614966256278,35.81047680934167L222.53571194784982,48.634608153472314L222.61527423313683,50.7581959628135L223.25177251543317,54.58182329708112L223.3313348007202,52.6220221700044L223.41089708600725,47.0422769784947L223.57002165658133,52.75661162414177L223.64958394186837,43.108460613478194L223.96783308301653,52.14814253779758L224.1269576535906,66.42629181254974L224.84301822117396,65.19175091570399L225.24082964760916,52.876510419635096L225.3203919328962,44.06490627496391L225.39995421818324,41.31324781745877L225.55907878875735,47.154852883229815L225.95689021519252,54.733453766349L226.03645250047956,59.52219508583758L226.11601478576662,62.1807779639774L226.19557707105363,64.24657954626663L226.3547016416277,53.99805245839292L226.5138262122018,65.33213220779636L226.83207535334998,60.821483898490015L227.1503244944981,50.22374732558998L227.22988677978515,53.8657549624303L227.38901135035925,47.10596809936908L227.62769820622034,49.92326159761557L227.78682277679442,45.579471693877586L228.3437587738037,21.237543764594797L228.7415702002389,8.75621300168368L228.98025705610002,4.843605339834682L229.37806848253524,10.080325850439367L229.61675533839636,-6.809800090046225L229.69631762368337,2.428094285818462L229.77587990897044,-13.06118644853726L232.3218730381557,-18.743207392065138L232.4014353234427,3.1293865231053166L232.7196844645909,23.524378869593686L232.7992467498779,55.79941633511904L232.87880903516498,71.15433022505216L232.958371320452,85.27101078893361L233.27662046160017,93.19980571520436L233.51530731746126,92.0769735638502L233.7539941733224,87.83884226415707L233.91311874389646,80.08220920032406L234.07224331447054,101.91021922324198L234.39049245561873,103.48777822837646L234.78830388205392,109.98769454905438L234.86786616734096,120.84919080301262L234.947428452628,132.22909350645983L235.10655302320208,130.98454391311515L235.1861153084891,139.9937245961869L235.3452398790632,120.23012364190548L235.50436444963728,110.62770657544378L235.58392673492432,121.48931606168382L235.66348902021136,135.50712894680518L236.29998730250767,134.09244458371208L236.45911187308172,121.97922840749753L236.69779872894287,114.59834013617933L236.7773610142299,119.67644634644248L236.85692329951695,139.5018093014754L236.936485584804,139.05453245642687L237.09561015537807,128.11819897968877L237.25473472595215,117.16219054232639L237.49342158181327,131.61262524047743L237.5729838671003,116.74499255866601L237.89123300824846,123.8357462970143L237.9707952935355,132.80251255935306L238.05035757882254,136.9774335830485L238.2890444346837,126.77123461193001L238.92554271697998,112.92390925658741L240.3576638521467,113.1213664755835L240.43722613743373,96.4361366048833L240.83503756386895,111.93483458173317L240.91459984915596,112.54334679623946L241.07372441973007,122.67220081051623L241.23284899030415,119.23578431907016L241.31241127559116,118.07559750590326L241.55109813145228,126.15589596620484L241.86934727260044,125.55262717107132L241.9489095578875,106.9190392468248L242.10803412846155,103.05582926045535L242.26715869903563,115.16830259810641L242.3467209843227,127.94414223051652L242.74453241075787,123.24101437356987L242.8240946960449,123.15808691749672L243.06278155190606,119.90010752026599L243.14234383719307,125.22476881682262L243.46059297834125,123.87353548920161L243.54015526362826,125.91615218263244L243.61971754891533,129.02528375179074L244.09709126063754,117.26635709569601L244.25621583121162,125.85404853333726L244.3357781164987,131.188610968135L244.4153404017857,133.7105545584912L245.44965011051724,137.35623990527836L245.52921239580425,133.4579001689726L245.68833696637836,136.64408619341796L246.08614839281353,148.8610803668178L246.48395981924872,153.90113162422148L246.6430843898228,139.26191823272924L247.12045810154507,138.13184542046142L247.27958267211915,127.42167023100635L247.43870724269323,131.17378033296626L247.5978318132673,112.44699930465602L247.67739409855434,113.69770235365316L247.83651866912842,123.48918253281724L248.23433009556362,117.92148102835351L248.31389238085066,122.75818653728474L248.3934546661377,122.70638222450248L248.4730169514247,113.7887134065208L248.71170380728586,96.81226741804919L248.7912660925729,98.0912790084114L249.029952948434,94.28003869579133L249.10951523372105,90.21078254632965L249.1890775190081,75.7573849686263L249.26863980429513,91.35270877619614L249.58688894544326,103.70295166682948L249.66645123073033,106.12499521184948L250.06426265716553,107.28095637601507L250.2233872277396,121.21531597590588L250.6211986541748,126.64591764918275L250.70076093946184,118.09642454139822L250.85988551003595,125.05265910714648L251.01901008061,93.81836865152071L251.09857236589704,106.82715541173943L251.25769693647112,107.78621606605402L251.4168215070452,114.19671419160481L251.8146329334804,110.03993491658056L252.05331978934151,99.44885142333615L252.2124443599156,98.38412710777077L252.29200664520263,102.6324511311902L252.6102557863508,91.69057418188375L253.008067212786,85.83154947911802L253.56500320979526,93.72452572355836L253.6445654950823,100.24896344486716L254.0423769215175,93.33783829376465L254.20150149209158,90.52147868605516L254.59931291852678,94.81187632282844L254.67887520381382,79.63129180612677L254.75843748910086,81.29865464647553L254.8379997743879,91.72829435572226L255.55406034197125,89.66109550609295L255.95187176840645,99.36089190115523L256.19055862426757,88.47754971605833L256.27012090955463,99.88155869615213L256.98618147713796,101.65020209100395L257.14530604771204,107.35664790723044L257.3839929035732,112.08304621788349L257.54311747414727,97.70592043977085L258.0204911858695,101.67431300690966L258.57742718287875,105.5203997632754L258.73655175345283,89.25597093426977L258.8161140387399,97.82548140868258L258.975238609314,95.14028815356414L259.21392546517507,101.56268537810062L259.5321746063233,71.0205231964578L259.77086146218437,66.5231000228445L259.8504237474714,67.11190293306295L260.00954831804546,73.71327932772289L260.16867288861954,76.5334939893176L260.2482351739066,79.97074692948942L260.72560888562884,77.41344144228256L260.8051711709159,65.97711700464569L260.96429574148993,68.42020688017581L261.123420312064,80.72251189210857L261.36210716792516,76.35956120724134L261.91904316493446,74.3482473654946L262.23729230608257,73.80868850406794L262.31685459136963,82.39671788709491L262.5555414472307,71.85568058438467" fill="none"></path></g></g></g></g><g opacity="0.2"><g><g><g><path style="fill: none;" stroke="rgb(255, 112, 67)" stroke-width="2px" d="M40.17895406995501,148.03890872107053L40.25851635524205,148.03890872107053L40.81545235225133,148.03890872107053L41.213263778686525,162.8906277746916L41.3723883492606,138.5643500103422L41.61107520512172,217.03729101152567L41.7701997756958,193.2292700791715L41.84976206098284,120.27256733569321L42.00888663155692,175.95022508387024L42.168011202131005,131.27478551486524L42.406698057992116,126.41240339961915L42.565822628566195,70.47567245138657L43.12275862557547,82.57794680064966L43.44100776672363,74.44388760122342L43.52057005201067,56.43350745359134L43.600132337297715,116.5463084438793L43.83881919315883,107.12010785519033L44.55487976074219,142.0306522470279L44.63444204602923,152.39004642896055L44.71400433131626,129.76091898874336L44.952691187177386,157.19321496796204L45.191378043038505,94.35882019448148L45.50962718418666,81.14122798874723L45.82787632533482,53.45352514802448L45.90743861062187,99.52380775848815L45.9870008959089,80.61652193472162L46.14612546648298,67.24280113127269L46.30525003705706,84.92352001854418L46.3848123223441,69.30266497867113L46.54393689291818,79.12549272222782L46.623499178205215,77.01893827423963L46.7826237487793,81.93465898949717L46.94174831935337,40.90793304330395L47.498684316362656,106.28473482486616L47.737371172223774,133.12973195816176L47.81693345751081,51.00938043039865L47.97605802808489,82.3800307779985L48.29430716923305,102.62458045886352L48.69211859566825,40.997382869410096L48.771680880955294,39.03310886087273L49.72642830439976,100.76572472687053L49.8059905896868,114.76817841914999L50.12423973083496,123.37974508534535L50.36292658669608,96.41453180303847L50.52205115727016,96.23991690792853L50.681175727844234,104.74646285236223L51.3972362954276,118.79375188957886L51.87461000714983,66.93725819439555L52.27242143358503,89.79071696393622L52.35198371887207,86.0263369857373L52.59067057473319,124.21304199624876L52.74979514530727,81.28752814877862L52.908919715881346,131.48833869230236L53.38629342760359,94.74184214123034L53.46585571289063,84.31897171232752L54.18191628047398,108.69745062828235L54.341040851048064,108.29450676964517L54.500165421622135,135.8906174057106L54.738852277483254,155.42268265685755L55.454912845066616,166.52632147837016L55.693599700927734,137.66405407536644L55.773161986214774,159.69121731545448L55.93228655678885,125.53723071827199L56.17097341264997,160.1984861749836L56.72790940965925,168.43085183761934L56.88703398023333,152.73850319599183L56.966596265520366,122.0073859754857L57.28484540666852,145.5018576593668L57.36440769195556,125.5784880701649L57.44396997724261,91.53015165648331L57.52353226252965,153.40403198859838L57.76221911839077,118.19439388191404L57.84178140367781,86.54386496729762L58.160030544825965,150.77375433035292L58.239592830113,138.38971302885545L58.319155115400044,135.40615273024434L58.71696654183524,161.43496989466917L58.87609111240932,113.88052693490158L58.95565339769636,137.74396258668793L59.27390253884452,156.82828176382577L59.671713965279714,141.61488724664883L59.751276250566754,140.71601588297773L59.91040082114083,105.3964428356901L60.06952539171491,144.8509942209663L60.14908767700195,114.28656288629304L60.22864996228899,149.1094906213002L60.46733681815011,160.44572107706563L60.626461388724195,128.25217650204286L60.86514824458531,80.06394287315378L61.024272815159385,124.13339852144907L61.26295967102051,134.6889639022644L61.34252195630754,124.5514273754518L61.6607710974557,166.81370941350428L61.74033338274275,154.48054408100325L61.81989566802979,107.75570960721075L61.899457953316826,137.40711221067363L62.138144809177945,104.18703701398134L62.217707094464984,144.39901860579687L62.61551852090018,146.0198936275939L63.2520168031965,108.77367071467552L63.411141373770576,104.73173123902575L63.49070365905762,182.05259160952727L63.649828229631694,105.93459949319686L63.80895280020578,157.89646729217088L63.88851508549281,85.93326499383329L64.12720194135393,171.19988715821341L64.20676422664097,146.89263680749127L64.28632651192801,165.7037806329763L64.44545108250209,166.42354252385536L64.92282479422433,111.10859829894456L65.00238707951137,141.09721570363922L65.0819493647984,173.5107847645063L65.47976079123362,147.38114328991492L65.63888536180768,147.86743009146852L65.71844764709472,135.21093124556478L65.8775722176688,142.47182762393413L66.67319507053921,154.51106745376342L66.83231964111327,133.27112894253992L67.0710064969744,150.67537056482456L67.30969335283552,152.6297609197366L67.4688179234096,136.3639284608846L67.70750477927072,149.20599704479918L67.8666293498448,171.9300848621382L68.02575392041888,131.48900128360685L68.18487849099296,123.45470624825998L68.42356534685408,149.3322096451161L68.50312763214112,98.38216294085191L68.6622522027152,80.02261926213043L69.21918819972447,155.1640511843383L69.29875048501151,153.670194915612L69.37831277029855,173.67095516917834L69.45787505558559,150.45860381956066L70.25349790845598,91.71976320145154L70.49218476431712,147.05192375709066L70.57174704960416,170.593505682721L70.8899961907523,171.2885860475078L71.2878076171875,147.91576612713106L71.44693218776158,177.6445925245236L71.60605675833565,115.0053861061574L71.84474361419677,140.83884926764176L72.08343047005789,100.92300181617964L72.56080418178013,171.83513552820477L72.64036646706717,148.643479113664L72.79949103764126,176.20325765986655L72.8790533229283,139.28044556266974L73.35642703465052,176.34241287699786L73.43598931993758,128.71301979750405L73.6746761757987,120.54204321922929L73.99292531694685,149.1226099291291L74.07248760223389,116.53599410590607L74.15204988752093,159.99471726247612L74.23161217280797,148.0826949631089L74.62942359924317,144.8455830586463L74.86811045510429,152.48678475941608L74.94767274039131,143.97582153961912L75.02723502567835,169.8774543031471L75.42504645211356,144.6881624078879L75.82285787854876,166.02772152174146L75.98198244912284,159.8924794241933L76.06154473440988,134.9648337918888L76.14110701969692,178.19177146695984L76.22066930498394,71.76980161456277L76.37979387555804,164.63621352318205L77.01629215785435,155.21513697391447L77.33454129900251,165.0064032850006L77.41410358428956,177.63022533640458L78.20972643715994,164.7423164774077L78.60753786359516,173.0317975104905L78.76666243416922,162.86769107236785L78.84622471945626,127.22538084385155L78.9257870047433,112.19723581222159L79.00534929003034,120.71899927028176L79.32359843117851,141.7395317142118L79.72140985761371,158.57246502738838L79.80097214290075,136.28894521159316L80.03965899876185,110.52264672200727L80.43747042519706,180.19763412304235L80.5170327104841,134.89635498056975L80.83528185163225,184.87239246723368L80.9148441369193,153.37947193757861L80.99440642220634,168.96218380468986L81.15353099278042,154.64347528277733L81.39221784864152,144.54367333075544L81.7104669897897,142.28371795258943L81.79002927507673,188.16897194127426L82.10827841622489,164.35752762051357L82.18784070151193,143.37339352557683L82.58565212794713,157.0242762716939L82.7447766985212,198.2709935741662L83.1425881249564,154.76618719236888L83.22215041024344,98.98189641692261L83.30171269553048,174.7838214378229L83.5403995513916,181.92121079703531L83.61996183667864,130.19136038651686L83.69952412196568,136.73103717313728L83.9382109778268,125.16511944167041L84.01777326311384,132.47992866584843L84.09733554840088,101.795744996077L84.17689783368792,179.334388085176L84.57470926012311,187.03949671726383L84.7338338306972,144.26907340779798L84.81339611598423,142.2256749543161L84.89295840127129,142.90867407098438L84.97252068655833,136.76766742908717L85.21120754241943,156.05094068858654L85.37033211299351,189.27272757948208L85.60901896885464,151.9521177494463L85.68858125414167,169.50332212306682L86.08639268057688,158.6352455534888L86.16595496586392,119.9891107756324L86.40464182172502,137.76183046553234L86.5637663922991,92.63970496860543L86.9615778187343,132.18502031940835L87.12070238930838,187.42010020575128L87.35938924516951,171.6000260469949L87.51851381574357,98.67562462961052L87.59807610103061,146.09708551456697L87.67763838631765,137.29747543615736L87.7572006716047,172.68018239157448L87.91632524217879,134.18328526186605L87.99588752746583,78.29274797074481L88.15501209803989,183.55708246869062L88.31413666861397,166.29199606353728L88.39369895390102,103.19038926014434L88.47326123918806,148.25054038372463L88.71194809504918,156.05957646192172L88.9506349509103,161.44581430568599L89.3484463773455,105.56023540616002L89.66669551849365,132.82744676186502L89.7462578037807,113.09619552139998L89.90538237435477,156.11478136077415L90.14406923021589,147.124035777396L90.46231837136405,156.93643875109535L90.54188065665109,164.9167436383147L90.70100522722517,143.21992633626854L90.7805675125122,138.34423717899062L90.86012979779925,156.60377374348775L90.93969208308629,130.372203639889L91.25794122423446,160.64086525942633L91.33750350952148,163.0250344208074L91.49662808009556,89.19544493598242L91.5761903653826,117.65641391542181L91.89443950653077,129.82917693629423L92.53093778882707,125.40965980578085L92.84918692997523,155.23360118493292L92.92874921526229,173.33312194939572L93.16743607112339,150.6256762169878L93.24699835641043,143.55530796822455L93.32656064169747,102.27881822980385L93.48568521227155,143.80327172074152L93.5652474975586,166.80745896886526L93.72437206813268,157.73387842923745L93.88349663870675,152.38940592403287L93.96305892399378,169.44669265290975L94.12218349456788,139.82353852539495L94.28130806514196,138.44260990133057L94.51999492100306,139.46220540067975L94.7586817768642,164.32302869992645L95.07693091801234,165.3873491123287L95.15649320329938,188.78740153532L95.71342920030865,174.71586165635904L95.87255377088275,150.37297493664374L95.95211605616979,117.3833821252183L96.34992748260497,117.53710330785998L96.66817662375314,146.8472493031337L96.82730119432722,177.39599931026737L97.14555033547538,166.05261286841346L97.54336176191059,133.2324225671693L97.94117318834577,126.39508768019516L98.02073547363281,180.0638127659122L98.10029775891987,190.181361121706L98.33898461478097,170.52296179516964L98.49810918535505,154.7552765222216L98.65723375592913,155.0099103605371L98.73679604121618,130.75305007852143L98.89592061179025,191.22386019381372L99.13460746765136,165.7551425022627L99.2141697529384,136.13530133127034L99.29373203822546,168.1642471830694L99.45285660879952,160.83417627251129L99.6119811793736,122.86884301682994L99.69154346466064,158.31332556820234L99.85066803523473,164.10664846625684L100.00979260580881,152.80114016064294L100.32804174695696,165.35910063638062L100.48716631753105,111.74689458893658L100.80541545867919,165.3753230801522L100.88497774396623,165.00326701949268L101.12366459982736,107.4411112558389L101.28278917040144,146.51356832219255L101.52147602626255,170.89433317814786L101.68060059683664,171.80255812240068L101.83972516741072,180.29324604828025L102.07841202327182,162.48009724561803L102.31709887913296,143.30097229599608L102.39666116442,143.6839721563681L102.7944725908552,185.7058329395864L103.19228401729038,152.51730813217625L103.51053315843855,159.0502596170561L103.59009544372559,157.43040056859263L103.66965772901263,156.0848322338112L103.82878229958669,150.02770965106242L103.90834458487375,130.1041854572228L103.98790687016078,162.62307340593856L104.38571829659598,124.25202445132958L104.6244051524571,173.99728138663966L104.70396743774414,137.97769166934677L104.78352972303118,167.91320238098655L104.86309200831822,161.8765207399813L105.02221657889231,157.70252681734667L105.26090343475342,160.54349746723153L105.49959029061453,157.36460525205678L106.2156508581979,121.04433160078634L106.45433771405901,70.16425453827628L107.01127371106828,160.3268301106633L107.09083599635532,103.86342742086843L107.17039828164236,152.50880487710197L107.48864742279054,180.6250386440036L107.6477719933646,152.34214107764592L107.80689656393868,144.7402531276092L107.88645884922573,172.49271322515744L108.20470799037388,121.05413795209279L108.68208170209613,106.1073591326542L108.84120627267019,98.80184827311587L109.07989312853132,63.79891656705557L109.15945541381836,100.786110452672L109.39814226967948,104.5266813166629L109.6368291255406,121.38808396955574L109.79595369611468,107.50544887150488L109.95507826668876,124.65450449605362L110.35288969312396,156.07706887236026L110.432451978411,109.6236870128289L110.67113883427211,150.20581419370933L110.98938797542027,117.69581601166213L111.14851254599435,92.2914690653423L111.46676168714251,125.19694591066273L111.54632397242955,79.90010612993024L111.78501082829067,139.98699980021263L111.94413539886476,93.56731070851458L112.02369768415178,27.51170622187918L112.2623845400129,90.64811011194625L112.34194682529994,116.21916503047576L112.58063368116107,84.80076393619902L112.6601959664481,119.40066343811485L112.73975825173514,96.13792201979072L113.21713196345739,103.32350385321638L113.61494338989257,116.47609585198018L113.77406796046667,74.14594237797108L113.85363024575369,88.56613780135467L114.96750223977226,108.6324945940655L115.0470645250593,93.63109616476014L115.20618909563336,105.13628740317051L115.76312509264264,61.25677459549569L115.84268737792968,128.62670623690582L115.92224966321672,90.61310320469238L116.24049880436489,58.293445418048336L116.32006108965193,123.41161572709132L116.63831023080009,121.70581858643548L116.95655937194823,174.88689855842472L117.03612165723527,148.30381272460562L117.19524622780936,179.11552313411454L117.35437079838344,147.55918157343137L117.43393308367048,186.63320677253898L117.51349536895752,138.10316437604035L117.59305765424455,173.9006534880682L118.22955593654086,134.77881128315323L118.54780507768903,174.72098569578043L118.70692964826311,149.16021198565892L118.94561650412423,165.81145171995593L119.34342793055943,130.60958801791094L119.82080164228167,159.03102238284907L119.9003639275687,110.7057869585683L119.97992621285576,162.60464232448533L120.13905078342982,148.48318723391947L120.37773763929094,139.6617226856501L121.17336049216135,159.85329819172114L121.33248506273543,185.21015942788586L121.4916096333095,129.1742164749943L121.73029648917063,108.04020422698191L121.96898334503175,145.16442199436688L122.12810791560581,131.4409192412777L122.20767020089285,124.61826075169802L122.60548162732806,161.49108033497106L122.68504391261509,134.73163478227355L122.92373076847622,170.70093381955564L123.00329305376326,136.70642190617548L123.0828553390503,152.93879350415074L123.3215421949114,107.84546864259231L123.40110448019844,78.42429443106288L123.71935362134661,91.0381776128995L123.87847819192068,62.32769883456602L124.35585190364293,96.46793666218036L124.514976474217,93.9136471833715L124.75366333007813,62.92546662310008L125.07191247122628,64.97859412556953L125.39016161237444,124.49294264964213L125.54928618294852,112.49701420474969L125.86753532409668,111.38127670711901L125.94709760938372,63.77643263545656L126.34490903581893,93.35141637513492L126.504033606393,87.89994641744362L127.45878102983748,144.3152118489673L127.77703017098563,142.39886527812138L127.85659245627267,105.24523950000548L127.9361547415597,152.58853669740893L128.17484159742082,155.3390636342309L128.3339661679949,133.44061979822845L128.57265302385602,128.66896851894387L128.89090216500418,153.04711613924644L129.05002673557826,140.00537566572382L129.1295890208653,144.52795887365062L129.44783816201345,144.57659307540018L129.5274004473005,139.17025662873306L129.76608730316164,130.00685079459322L130.08433644430977,154.72616667757768L130.1638987295968,132.17487162926125L130.32302330017092,171.68312603976636L130.48214787074497,163.45169904814531L130.72083472660609,144.0236827181801L131.11864615304128,130.1987151499967L131.27777072361536,147.2123591982845L131.43689529418944,126.57762054139373L131.6755821500506,126.85755432435235L132.07339357648578,171.1161687468911L132.15295586177282,133.17421392106985L132.3120804323469,178.06024709301857L132.47120500292095,136.6400523438424L132.550767288208,139.39320755950553L132.63032957349506,167.99086912506118L132.86901642935618,125.89944729805984L133.26682785579138,167.83962161662294L133.42595242636546,123.83061638167395L133.5055147116525,113.34987964551236L133.82376385280065,158.57036682159082L134.22157527923582,145.43602921326573L134.539824420384,105.96543207523244L134.85807356153214,144.68131563107482L134.9376358468192,124.67939584272561L135.3354472732544,143.9361764932338L135.49457184382848,130.1163440076602L135.65369641440256,136.31005978782957L135.81282098497664,141.80826451886423L136.05150784083776,194.86123246213032L136.1310701261248,172.32041739961323L136.44931926727295,146.7003748973051L136.9266929789952,117.36946770782401L137.08581754956927,186.81113462417136L137.24494212014335,159.17924405766348L137.40406669071743,139.74716383436407L137.48362897600447,140.27532640636144L137.88144040243967,145.92653451279125L138.27925182887486,137.16045155438883L138.51793868473598,128.8876678221792L138.67706325531006,131.5292426621662L138.83618782588414,122.87789843132464L138.91575011117118,144.2251656906871L139.07487468174526,147.25580310148223L139.23399925231934,102.20979830225279L139.47268610818045,157.90574357043374L139.63181067875453,146.16415079776976L139.71137296404157,124.47622326239218L139.7909352493286,166.88113912192455L139.87049753461568,151.9302080636445L140.42743353162496,157.40482454423932L140.586558102199,147.4870032939956L140.82524495806013,107.37047902278027L140.90480724334716,143.47123617487318L140.98436952863423,73.44134278477644L141.46174324035644,154.06794847569734L141.85955466679164,138.8046608332923L142.09824152265276,146.03648049658295L142.1778038079398,154.89986498804973L142.81430209023614,152.6062278852388L142.89386437552315,131.78362250714832L142.97342666081022,150.37014788041125L143.05298894609723,102.61726986813733L143.2121135166713,90.31347941680201L143.6099249431065,115.78494686226668L143.76904951368059,124.02798024490471L143.84861179896762,154.18371421978014L144.48511008126397,118.47935231559836L144.56467236655098,168.03585907463605L144.88292150769914,161.6659713097912L145.04204607827324,153.68171296112172L145.20117064884732,170.55922762590205L145.28073293413433,164.92522480701217L145.4398575047084,140.55259878091368L145.7581066458566,139.5931555288238L145.8376689311436,169.4129667555112L145.9967935017177,144.22063798343976L146.1559180722918,138.21360730331043L146.2354803575788,158.79082199178305L146.3946049281529,167.44232082726234L146.47416721343996,133.63998247856108L146.55372949872697,145.53545103850445L146.63329178401403,127.61644223176154L146.95154092516216,174.2249477588624L147.03110321044923,136.63332704210183L147.26979006631032,157.19394381839697L147.3493523515974,95.10697412275795L147.42891463688443,115.66696143731382L147.7471637780326,129.9912798989377L147.8267260633196,154.26754306298653L147.9858506338937,127.93788735994643L148.38366206032887,146.9298523524268L149.02016034262522,96.18803600878697L149.25884719848634,150.15809657659764L149.41797176906041,156.88800332673713L149.5770963396345,137.01717722798128L149.65665862492153,157.95795576522755L149.9749077660697,165.14901502010366L150.13403233664377,135.11001858989096L150.3727191925049,173.62927817612592L150.45228147779193,109.68380613052295L150.61140604836598,168.254602550625L151.16834204537525,138.30924131492515L151.32746661594936,114.13131774365104L151.4070289012364,184.0231933650225L151.72527804238456,132.77871317141978L151.8048403276716,119.2203281714095L152.04352718353272,118.65401138346192L152.12308946881976,143.02697974840106L152.2026517541068,123.38396358331725L152.36177632468087,113.58094731976485L152.4413386099679,130.48740618136299L152.600463180542,145.4278682970321L152.75958775111607,131.69117997698356L152.8391500364031,171.42401971014556L153.15739917755127,110.66165837768926L153.3960860334124,164.01082672043918L153.71433517456055,145.32201933613982L153.79389745984759,159.42515377713653L154.0325843157087,152.74004924236897L154.19170888628278,105.2906932634935L154.35083345685686,139.6021005114344L154.4303957421439,104.15068283774167L154.50995802743094,137.37009544312946L155.2260185950143,131.58760591290337L155.3851431655884,107.18804555027735L155.6238300214495,158.7400343682939L155.78295459202357,155.34860494901557L155.94207916259768,148.44642445970868L156.49901515960696,151.51321726935214L156.57857744489397,143.0822177768187L156.8172643007551,108.81302863816222L156.89682658604212,84.28928762188637L156.97638887132916,98.34655970142397L157.3742002977644,132.70255934415707L157.61288715362548,126.12316020883247L157.7720117241996,156.77781439280045L158.01069858006068,166.50846464271416L158.09026086534772,109.20188138839058L158.16982315063476,155.52520761803896L158.48807229178294,137.79534654235113L158.56763457706995,163.20280766780206L158.72675914764403,168.98663342382554L158.88588371821814,132.84343729868004L158.96544600350515,114.8150015380006L159.2836951446533,120.19246004698037L159.36325742994035,154.3302573299565L159.6815065710885,109.42011687771274L159.76106885637557,154.69051926539612L159.92019342694965,131.80736536222588L160.0793179975237,146.3667822618712L160.47712942395893,71.89216014212525L160.55669170924597,111.93992952231133L160.71581627982005,138.6490070926792L160.95450313568114,118.0113861636139L161.5114391326904,108.91418424398103L161.6705637032645,145.03416758709255L161.98881284441268,108.259654467029L162.0683751296997,149.80168871391248L162.38662427084788,69.84245602806232L162.4661865561349,130.58904768747175L162.94356026785715,111.44128539292898L163.18224712371824,106.013226994663L163.2618094090053,82.2166578486881L163.34137169429232,136.25562791216572L163.50049626486643,118.79567340436188L163.58005855015347,123.20725048240978L163.6596208354405,120.73503397985041L163.73918312072752,120.25593629395051L164.0574322618757,66.64918558158011L164.13699454716274,122.83293056812659L164.2961191177368,124.95817009090138L164.37568140302386,129.1394746042622L164.53480597359794,143.92569650743445L164.77349282945906,99.83663919971468L164.8530551147461,119.19212386821505L165.17130425589426,144.86528410676647L165.2508665411813,117.4158270127615L165.8873648234776,108.45847603112963L166.2851762499128,133.4932958069354L166.76254996163505,137.31285859760993L166.84211224692206,78.87967134826204L166.92167453220912,113.77115519690709L167.31948595864432,111.31174879290118L167.63773509979248,98.38653604346155L168.11510881151474,169.5034325549509L168.43335795266287,118.06437138159629L168.75160709381103,80.31093482509084L168.9107316643851,123.81926398399037L169.0698562349592,126.99892922235368L169.3085430908203,105.89365135057938L169.7063545172555,72.18977406972532L170.1041659436907,107.6745200860339L170.66110194069998,87.3088487147081L171.13847565242222,134.12883129982538L171.2976002229963,108.03717839335809L171.4567247935704,136.26766498753062L171.61584936414448,140.58943885744333L171.6954116494315,90.08784499124636L171.9340985052926,128.96942054596485L172.65015907287597,121.96471509547655L173.5253442110334,129.57766832029824L173.60490649632047,147.1021260915942L173.84359335218159,92.64295166599743L173.9231556374686,123.20842106038106L174.24140477861675,155.71709405981926L174.32096706390382,183.70207953248985L174.48009163447787,137.09869804481036L174.8779030609131,146.38643913723774L175.11658991677422,132.15157050172002L175.5144013432094,150.7827766152824L175.59396362849645,138.00753036442563L175.6735259137835,163.90571765317026L175.83265048435757,131.14871647599762L175.91221276964458,138.41347797030983L176.31002419607978,131.8420188874507L176.38958648136685,125.2657228880688L176.62827333722794,131.36500836415996L176.707835622515,56.37413927270904L177.1056470489502,76.25722331059795L177.5830207606724,55.01008464053234L177.66258304595948,88.67944091442246L178.06039447239468,68.19644670944831L178.37864361354283,99.86685336319943L178.77645503997803,41.7840112661006L179.41295332227432,98.66133474381036L180.68594988686698,126.81689330463348L180.76551217215402,120.11794061160208L181.16332359858922,110.10583261872942L182.19763330732073,131.8048143857036L182.27719559260777,74.4278970644084L182.67500701904297,131.18785353571616L182.83413158961704,58.950647646595144L182.99325616019112,151.28590427915844L183.0728184454782,130.5252953607914L183.1523807307652,85.3907352337169L183.47062987191336,112.68717790913831L183.62975444248747,98.49299237971626L183.78887901306155,50.769500291796476L183.9480035836356,127.2111240876166L184.18669043949674,147.66761464041116L184.26625272478375,111.73843550661593L184.42537729535783,118.18871768307223L184.5845018659319,88.78797337009792L184.66406415121895,91.74825462754461L184.74362643650602,124.23453204089104L184.82318872179303,118.11592098508561L184.9823132923671,108.74637195293053L185.06187557765415,115.03798559833831L185.1414378629412,118.73833717014666L185.3801247188023,104.45834606679318L186.01662300109865,102.82346828209461L186.33487214224678,122.01341555635656L186.41443442753385,131.95820427269302L186.65312128339494,141.08089387117195L187.1304949951172,78.37433504670433L187.21005728040421,110.93694297832803L187.3691818509783,119.40686971000025L187.7669932774135,119.90668441735384L187.92611784798757,77.1983238267419L188.00568013327464,126.27976366364868L188.32392927442277,131.15916333223174L188.40349155970983,106.1568326167228L188.80130298614503,91.29181756425827L188.9604275567191,97.41670115107956L189.03998984200612,136.6825023600834L189.1991144125802,129.3797743840239L189.91517498016358,117.04121997557968L189.99473726545062,108.17411392961934L190.15386183602467,103.26855294769733L190.31298640659875,48.842596432832345L190.5516732624599,118.77058328029852L190.63123554774694,82.33720529335164L191.3472961153303,96.25961795604871L191.82466982705253,124.9610413198875L192.3816058240618,125.38158802084729L192.69985496520994,114.12893241495487L192.779417250497,126.37127856598715L193.09766639164516,55.25294644000472L193.8137269592285,92.97440192288012L194.13197610037668,75.85542794355523L194.21153838566372,60.28643171644694L194.29110067095075,138.6005937546978L194.68891209738595,111.04066060385753L195.1662858091082,113.86038415924509L195.4049726649693,140.72877076558916L195.48453495025635,132.4736782212094L195.5640972355434,122.67474793736801L195.8027840914045,117.45083392001538L195.96190866197858,146.64266319468402L196.12103323255266,99.76039702694469L196.20059551783973,147.59814194213538L196.28015780312674,120.85984409523951L196.5984069442749,148.489857319718L196.75753151484898,122.02222802070628L196.9962183707101,127.14707359484925L197.07578065599714,173.0624865310768L197.15534294128418,144.7680930055862L197.47359208243236,107.88155778231021L197.95096579415457,141.53527690141436L198.50790179116385,125.68463519714419L198.5874640764509,117.40895814957162L198.66702636173792,146.29491319171086L199.06483778817312,122.02978156157747L199.1444000734602,110.92033402296215L199.30352464403427,114.22617873207719L199.94002292633056,100.33000468503792L200.09914749690464,108.2911496403691L200.25827206747874,130.9504470713174L200.33783435276575,119.27852577432054L200.5765212086269,122.61462881967394L201.13345720563618,103.08468386070136L201.3721440614973,116.33825477426944L201.53126863207137,155.91542972362993L201.69039320264545,136.73340041545663L202.08820462908065,156.8872744763022L202.48601605551582,62.81222976916274L202.5655783408029,143.07039052203356L202.64514062608993,124.72809630360562L202.96338976723808,128.3163153403175L203.0429520525251,117.68472865050035L203.52032576424736,58.63406152130983L203.67945033482144,104.88726350456635L203.8385749053955,151.58108870530873L204.07726176125664,121.3204113109905L204.15682404654365,135.3314345174747L204.23638633183072,131.7154529051047L204.31594861711775,114.07634475175517L204.55463547297884,51.79413148505978L204.71376004355292,75.34982660547576L205.11157146998812,51.460958490785394L205.35025832584927,45.26926361409471L205.50938289642335,69.5811741903251L205.82763203757148,36.584657299767734L205.90719432285854,73.4606021053603L206.30500574929374,-39.211348572145795L206.6232548904419,18.93525689482179L206.86194174630302,48.71953114121173L206.94150403159003,27.080580146424374L207.1006286021641,31.05886668408946L207.4188777433123,39.271288348460054L207.49844002859933,35.2861550339819L207.65756459917338,54.19704093716949L207.73712688446045,73.76384805904854L208.21450059618266,-12.848099489968062L208.29406288146973,29.68838491625921L208.4531874520438,66.02089442028591L208.61231202261789,42.93228199678173L208.850998878479,7.316497506821841L208.93056116376604,15.275102528819149L209.08968573434012,30.423176586561773L209.32837259020124,25.871218497469265L209.6466217313494,-7.748156305685497L209.80574630192348,-21.70751947679628L209.88530858721052,28.297230299728874L210.04443315778462,23.731600743387027L210.12399544307164,-36.10613651003031L210.6809314400809,10.941755397454687L210.840056010655,-9.37669530023777L216.40941598074775,-24.555557767262396L216.48897826603482,7.151909826786531L216.56854055132183,13.67222790412744L216.88678969247,-8.388771665243212L217.2846011189052,53.75235382634946L217.36416340419225,-7.431062193733396L217.76197483062745,-14.222137164465734L217.84153711591446,36.05149216342145L218.0802239717756,18.33163621643142L218.2393485423497,-32.27812568022355L218.4780353982108,8.766423972060458L218.875846824646,48.12037191093827L219.03497139522008,47.95675603148287L219.19409596579416,47.16403179479106L219.2736582510812,39.41478353863578L219.67146967751637,11.683901831237089L219.83059424809048,16.257062842073296L220.22840567452565,13.505299068149592L220.4670925303868,45.403460439630734L220.62621710096087,69.41278765347737L220.78534167153492,69.60485078627221L221.18315309797015,49.08475146824661L221.42183995383127,51.67873016619443L221.58096452440535,51.91666670363678L221.74008909497942,59.120977784602694L221.81965138026646,36.78809491662296L222.05833823612755,62.124327476841245L222.13790052141462,39.16779158669872L222.21746280670166,40.07669016544445L222.45614966256278,22.511924756458697L222.53571194784982,67.87080516966829L222.61527423313683,53.94357767682527L223.25177251543317,60.31726429848253L223.3313348007202,49.68232047938932L223.41089708600725,38.67265919123018L223.57002165658133,61.32811359261244L223.64958394186837,28.63623409748275L223.96783308301653,65.70766542427668L224.1269576535906,87.8435157246779L224.84301822117396,63.33993957043536L225.24082964760916,34.403649675531696L225.3203919328962,30.847500057957156L225.39995421818324,37.18576013120104L225.55907878875735,55.91726048188637L225.95689021519252,66.1013550910278L226.03645250047956,66.70530706507041L226.11601478576662,66.16865228118718L226.19557707105363,67.34528191970048L226.3547016416277,38.625261826582324L226.5138262122018,82.3332518319015L226.83207535334998,54.05551143453043L227.1503244944981,34.32714246623993L227.22988677978515,59.32876641769075L227.38901135035925,36.96628780477714L227.62769820622034,54.14920184498531L227.78682277679442,39.063786838270616L228.3437587738037,-15.275348129329359L228.98025705610002,-1.0253061529388237L229.37806848253524,17.935406616346413L229.61675533839636,-32.14498900077467L229.69631762368337,16.2849358496155L229.77587990897044,-36.29510755007085L232.3218730381557,-7.263669543842425L232.4014353234427,35.938277395860936L232.7196844645909,54.1168673893262L232.7992467498779,104.21197253340699L232.87880903516498,94.18670105995182L232.958371320452,106.44603163475585L233.27662046160017,105.09299810461049L233.51530731746126,90.39272533681901L233.7539941733224,81.48164531461737L233.91311874389646,68.44725960457457L234.07224331447054,134.65223425761883L234.39049245561873,105.85411673607813L234.78830388205392,119.7375690300712L234.86786616734096,137.14143518394997L234.947428452628,149.2989475616307L235.10655302320208,129.11771952309812L235.1861153084891,153.5074956207945L235.3452398790632,90.58472221048339L235.50436444963728,96.22408097575122L235.58392673492432,137.78173029104386L235.66348902021136,156.53384827448724L236.29998730250767,131.97041803907246L236.45911187308172,103.8094041431757L236.69779872894287,103.52700772920207L236.7773610142299,127.2936056618372L236.85692329951695,169.2398537340248L236.936485584804,138.38361718885415L237.09561015537807,111.71369876458164L237.25473472595215,100.72817788628275L237.49342158181327,153.28827728770398L237.5729838671003,94.44354353594895L237.89123300824846,134.47187690453666L237.9707952935355,146.25266195286122L238.05035757882254,143.23981511859165L238.2890444346837,111.46193615525226L238.92554271697998,92.15292122357344L240.3576638521467,113.41755230407762L240.43722613743373,71.40829179883303L240.83503756386895,135.18288154700804L240.91459984915596,113.45611511799893L241.07372441973007,137.8654818319314L241.23284899030415,114.08115958190115L241.31241127559116,116.33531728615286L241.55109813145228,138.27634365665722L241.86934727260044,124.64772397837099L241.9489095578875,78.96865736045504L242.10803412846155,97.26101428090124L242.26715869903563,133.33701260458304L242.3467209843227,147.10790167913166L242.74453241075787,116.18632258814989L242.8240946960449,123.03369573338705L243.06278155190606,115.01313842441994L243.14234383719307,133.21176076165762L243.46059297834125,121.84668549777005L243.54015526362826,128.98007722277873L243.61971754891533,133.68898110552811L244.09709126063754,99.62796711155397L244.25621583121162,138.73558568979922L244.3357781164987,139.1904546203316L244.4153404017857,137.4934699440255L245.44965011051724,142.82476792545913L245.52921239580425,127.61039056451386L245.68833696637836,141.423365230086L246.08614839281353,167.1865716269176L246.48395981924872,161.46120851032697L246.6430843898228,117.30309814549092L247.12045810154507,136.43673620205965L247.27958267211915,111.35640744682381L247.43870724269323,136.80194548590612L247.5978318132673,84.35682776219073L247.67739409855434,115.5737569271489L247.83651866912842,138.1764028015633L248.23433009556362,109.56992877165793L248.31389238085066,130.01324480068155L248.3934546661377,122.62867575532913L248.4730169514247,100.41221017954831L248.71170380728586,71.34759843534175L248.7912660925729,100.00979639395472L249.029952948434,88.56317822686128L249.10951523372105,84.10689832213711L249.1890775190081,54.07728860207135L249.26863980429513,114.74569448755095L249.58688894544326,122.22831600277948L249.66645123073033,109.75806052937946L250.06426265716553,109.0148981222635L250.2233872277396,142.11685537574203L250.6211986541748,134.79182015909805L250.70076093946184,105.27218487972141L250.85988551003595,135.48701095576894L251.01901008061,46.96693296808211L251.09857236589704,126.34033555206747L251.25769693647112,109.22480704752593L251.4168215070452,123.81246137993092L251.8146329334804,103.80476600404427L252.05331978934151,83.56222618346952L252.2124443599156,96.78704063442274L252.29200664520263,109.00493716631932L252.6102557863508,75.27775875792406L253.008067212786,77.04301242496945L253.56500320979526,105.5639900902188L253.6445654950823,110.03562002683032L254.0423769215175,82.97115056711084L254.20150149209158,86.29693927449101L254.59931291852678,101.24747277798838L254.67887520381382,56.86041503107423L254.75843748910086,83.79969890699873L254.8379997743879,107.37275391959236L255.55406034197125,86.56029723164897L255.95187176840645,113.91058649374861L256.19055862426757,72.15253643841298L256.27012090955463,116.9875721662928L256.98618147713796,104.30316718328163L257.14530604771204,115.91631663157023L257.3839929035732,119.17264368386304L257.54311747414727,76.14023177260185L258.0204911858695,107.6269018576179L258.57742718287875,111.28952989782397L258.73655175345283,64.85932769076133L258.8161140387399,110.67974712030184L258.975238609314,91.11249827088648L259.21392546517507,111.19628121490541L259.5321746063233,25.207279923993482L259.77086146218437,59.776965262424596L259.8504237474714,67.99510729839061L260.00954831804546,83.61534391971281L260.16867288861954,80.76381598170974L260.2482351739066,85.12662633974719L260.72560888562884,73.57748321147233L260.8051711709159,48.82263034819037L260.96429574148993,72.08484169347093L261.123420312064,99.17596941000772L261.36210716792516,69.81513517994051L261.91904316493446,71.33127660287448L262.23729230608257,72.999350211928L262.31685459136963,95.27876196163537L262.5555414472307,56.0441246303194" fill="none"></path></g></g></g></g></g></g><g transform="translate(51, 177)" clip-path="url(#clip_1)"><clipPath id="clip_1"><rect width="278" height="22"></rect></clipPath><g><g><line x1="0" y1="0" x2="0" y2="5" style="visibility: inherit;" fill="rgb(0, 0, 0)" stroke="rgb(204, 204, 204)" stroke-width="1px"></line><line x1="39.78114264351981" y1="0" x2="39.78114264351981" y2="5" style="visibility: inherit;" fill="rgb(0, 0, 0)" stroke="rgb(204, 204, 204)" stroke-width="1px"></line><line x1="79.56228528703961" y1="0" x2="79.56228528703961" y2="5" style="visibility: inherit;" fill="rgb(0, 0, 0)" stroke="rgb(204, 204, 204)" stroke-width="1px"></line><line x1="119.34342793055943" y1="0" x2="119.34342793055943" y2="5" style="visibility: inherit;" fill="rgb(0, 0, 0)" stroke="rgb(204, 204, 204)" stroke-width="1px"></line><line x1="159.12457057407923" y1="0" x2="159.12457057407923" y2="5" style="visibility: inherit;" fill="rgb(0, 0, 0)" stroke="rgb(204, 204, 204)" stroke-width="1px"></line><line x1="198.90571321759904" y1="0" x2="198.90571321759904" y2="5" style="visibility: inherit;" fill="rgb(0, 0, 0)" stroke="rgb(204, 204, 204)" stroke-width="1px"></line><line x1="238.68685586111886" y1="0" x2="238.68685586111886" y2="5" style="visibility: inherit;" fill="rgb(0, 0, 0)" stroke="rgb(204, 204, 204)" stroke-width="1px"></line><line x1="278.4679985046387" y1="0" x2="278.4679985046387" y2="5" style="visibility: inherit;" fill="rgb(0, 0, 0)" stroke="rgb(204, 204, 204)" stroke-width="1px"></line></g><g transform="translate(0, 8)"><text style="text-anchor: middle; visibility: hidden; font-family: Roboto, sans-serif; font-size: 12px; font-weight: 200;" x="0" y="0" dx="0em" dy="0.95em" fill="rgb(50, 49, 63)" stroke="none" stroke-width="1px">-500</text><text style="text-anchor: middle; visibility: hidden; font-family: Roboto, sans-serif; font-size: 12px; font-weight: 200;" x="39.78114264351981" y="0" dx="0em" dy="0.95em" fill="rgb(50, 49, 63)" stroke="none" stroke-width="1px">0</text><text style="text-anchor: middle; visibility: hidden; font-family: Roboto, sans-serif; font-size: 12px; font-weight: 200;" x="79.56228528703961" y="0" dx="0em" dy="0.95em" fill="rgb(50, 49, 63)" stroke="none" stroke-width="1px">500</text><text style="text-anchor: middle; visibility: hidden; font-family: Roboto, sans-serif; font-size: 12px; font-weight: 200;" x="119.34342793055943" y="0" dx="0em" dy="0.95em" fill="rgb(50, 49, 63)" stroke="none" stroke-width="1px">1k</text><text style="text-anchor: middle; visibility: hidden; font-family: Roboto, sans-serif; font-size: 12px; font-weight: 200;" x="159.12457057407923" y="0" dx="0em" dy="0.95em" fill="rgb(50, 49, 63)" stroke="none" stroke-width="1px">1.5k</text><text style="text-anchor: middle; visibility: hidden; font-family: Roboto, sans-serif; font-size: 12px; font-weight: 200;" x="198.90571321759904" y="0" dx="0em" dy="0.95em" fill="rgb(50, 49, 63)" stroke="none" stroke-width="1px">2k</text><text style="text-anchor: middle; visibility: hidden; font-family: Roboto, sans-serif; font-size: 12px; font-weight: 200;" x="238.68685586111886" y="0" dx="0em" dy="0.95em" fill="rgb(50, 49, 63)" stroke="none" stroke-width="1px">2.5k</text><text style="text-anchor: middle; visibility: hidden; font-family: Roboto, sans-serif; font-size: 12px; font-weight: 200;" x="278.4679985046387" y="0" dx="0em" dy="0.95em" fill="rgb(50, 49, 63)" stroke="none" stroke-width="1px">3k</text></g><line x1="0" y1="0" x2="278.4679985046387" y2="0" fill="rgb(0, 0, 0)" stroke="rgb(204, 204, 204)" stroke-width="1px"></line></g></g></g></g></svg>