<svg viewBox="0 0 330 200" xmlns="http://www.w3.org/2000/svg"><g><g><g><g><g><line x1="61.91500186920166" y1="177.86299896240234" x2="56.91500186920166" y2="177.86299896240234" style="visibility: inherit;" fill="rgb(0, 0, 0)" stroke="rgb(204, 204, 204)" stroke-width="1px"></line><line x1="61.91500186920166" y1="152.45399911063055" x2="56.91500186920166" y2="152.45399911063055" style="visibility: inherit;" fill="rgb(0, 0, 0)" stroke="rgb(204, 204, 204)" stroke-width="1px"></line><line x1="61.91500186920166" y1="127.04499925885884" x2="56.91500186920166" y2="127.04499925885884" style="visibility: inherit;" fill="rgb(0, 0, 0)" stroke="rgb(204, 204, 204)" stroke-width="1px"></line><line x1="61.91500186920166" y1="101.63599940708707" x2="56.91500186920166" y2="101.63599940708707" style="visibility: inherit;" fill="rgb(0, 0, 0)" stroke="rgb(204, 204, 204)" stroke-width="1px"></line><line x1="61.91500186920166" y1="76.22699955531527" x2="56.91500186920166" y2="76.22699955531527" style="visibility: inherit;" fill="rgb(0, 0, 0)" stroke="rgb(204, 204, 204)" stroke-width="1px"></line><line x1="61.91500186920166" y1="50.81799970354356" x2="56.91500186920166" y2="50.81799970354356" style="visibility: inherit;" fill="rgb(0, 0, 0)" stroke="rgb(204, 204, 204)" stroke-width="1px"></line><line x1="61.91500186920166" y1="25.408999851771792" x2="56.91500186920166" y2="25.408999851771792" style="visibility: inherit;" fill="rgb(0, 0, 0)" stroke="rgb(204, 204, 204)" stroke-width="1px"></line><line x1="61.91500186920166" y1="0" x2="56.91500186920166" y2="0" style="visibility: inherit;" fill="rgb(0, 0, 0)" stroke="rgb(204, 204, 204)" stroke-width="1px"></line></g><g transform="translate(51.91500186920166, 0)"><text style="text-anchor: end; visibility: hidden; font-family: Roboto, sans-serif; font-size: 12px; font-weight: 200;" x="0" y="177.86299896240234" dx="0em" dy="0.3em" fill="rgb(50, 49, 63)" stroke="none" stroke-width="1px">0.08</text><text style="text-anchor: end; visibility: inherit; font-family: Roboto, sans-serif; font-size: 12px; font-weight: 200;" x="0" y="152.45399911063055" dx="0em" dy="0.3em" fill="rgb(50, 49, 63)" stroke="none" stroke-width="1px">0.085</text><text style="text-anchor: end; visibility: inherit; font-family: Roboto, sans-serif; font-size: 12px; font-weight: 200;" x="0" y="127.04499925885884" dx="0em" dy="0.3em" fill="rgb(50, 49, 63)" stroke="none" stroke-width="1px">0.09</text><text style="text-anchor: end; visibility: inherit; font-family: Roboto, sans-serif; font-size: 12px; font-weight: 200;" x="0" y="101.63599940708707" dx="0em" dy="0.3em" fill="rgb(50, 49, 63)" stroke="none" stroke-width="1px">0.095</text><text style="text-anchor: end; visibility: inherit; font-family: Roboto, sans-serif; font-size: 12px; font-weight: 200;" x="0" y="76.22699955531527" dx="0em" dy="0.3em" fill="rgb(50, 49, 63)" stroke="none" stroke-width="1px">0.1</text><text style="text-anchor: end; visibility: inherit; font-family: Roboto, sans-serif; font-size: 12px; font-weight: 200;" x="0" y="50.81799970354356" dx="0em" dy="0.3em" fill="rgb(50, 49, 63)" stroke="none" stroke-width="1px">0.105</text><text style="text-anchor: end; visibility: inherit; font-family: Roboto, sans-serif; font-size: 12px; font-weight: 200;" x="0" y="25.408999851771792" dx="0em" dy="0.3em" fill="rgb(50, 49, 63)" stroke="none" stroke-width="1px">0.11</text><text style="text-anchor: end; visibility: hidden; font-family: Roboto, sans-serif; font-size: 12px; font-weight: 200;" x="0" y="0" dx="0em" dy="0.3em" fill="rgb(50, 49, 63)" stroke="none" stroke-width="1px">0.115</text></g><line x1="61.91500186920166" y1="0" x2="61.91500186920166" y2="177.86299896240234" fill="rgb(0, 0, 0)" stroke="rgb(204, 204, 204)" stroke-width="1px"></line></g></g><g transform="translate(61, 0)" clip-path="url(#clip_0)"><clipPath id="clip_0"><rect width="268" height="177"></rect></clipPath><g><g><g><line x1="0" y1="0" x2="0" y2="177.86299896240234" fill="rgb(0, 0, 0)" stroke="rgb(60, 60, 60)" stroke-width="1px" opacity="0.25"></line><line x1="26.808499813079834" y1="0" x2="26.808499813079834" y2="177.86299896240234" fill="rgb(0, 0, 0)" stroke="rgb(60, 60, 60)" stroke-width="1px" opacity="0.25"></line><line x1="53.61699962615967" y1="0" x2="53.61699962615967" y2="177.86299896240234" fill="rgb(0, 0, 0)" stroke="rgb(60, 60, 60)" stroke-width="1px" opacity="0.25"></line><line x1="80.4254994392395" y1="0" x2="80.4254994392395" y2="177.86299896240234" fill="rgb(0, 0, 0)" stroke="rgb(60, 60, 60)" stroke-width="1px" opacity="0.25"></line><line x1="107.23399925231934" y1="0" x2="107.23399925231934" y2="177.86299896240234" fill="rgb(0, 0, 0)" stroke="rgb(60, 60, 60)" stroke-width="1px" opacity="0.25"></line><line x1="134.04249906539917" y1="0" x2="134.04249906539917" y2="177.86299896240234" fill="rgb(0, 0, 0)" stroke="rgb(60, 60, 60)" stroke-width="1px" opacity="0.25"></line><line x1="160.850998878479" y1="0" x2="160.850998878479" y2="177.86299896240234" fill="rgb(0, 0, 0)" stroke="rgb(60, 60, 60)" stroke-width="1px" opacity="0.25"></line><line x1="187.65949869155884" y1="0" x2="187.65949869155884" y2="177.86299896240234" fill="rgb(0, 0, 0)" stroke="rgb(60, 60, 60)" stroke-width="1px" opacity="0.25"></line><line x1="214.46799850463867" y1="0" x2="214.46799850463867" y2="177.86299896240234" fill="rgb(0, 0, 0)" stroke="rgb(60, 60, 60)" stroke-width="1px" opacity="0.25"></line><line x1="241.2764983177185" y1="0" x2="241.2764983177185" y2="177.86299896240234" fill="rgb(0, 0, 0)" stroke="rgb(60, 60, 60)" stroke-width="1px" opacity="0.25"></line><line x1="268.08499813079834" y1="0" x2="268.08499813079834" y2="177.86299896240234" fill="rgb(0, 0, 0)" stroke="rgb(60, 60, 60)" stroke-width="1px" opacity="0.25"></line></g><g><line x1="0" y1="177.86299896240234" x2="268.08499813079834" y2="177.86299896240234" fill="rgb(0, 0, 0)" stroke="rgb(60, 60, 60)" stroke-width="1px" opacity="0.25"></line><line x1="0" y1="152.45399911063055" x2="268.08499813079834" y2="152.45399911063055" fill="rgb(0, 0, 0)" stroke="rgb(60, 60, 60)" stroke-width="1px" opacity="0.25"></line><line x1="0" y1="127.04499925885884" x2="268.08499813079834" y2="127.04499925885884" fill="rgb(0, 0, 0)" stroke="rgb(60, 60, 60)" stroke-width="1px" opacity="0.25"></line><line x1="0" y1="101.63599940708707" x2="268.08499813079834" y2="101.63599940708707" fill="rgb(0, 0, 0)" stroke="rgb(60, 60, 60)" stroke-width="1px" opacity="0.25"></line><line x1="0" y1="76.22699955531527" x2="268.08499813079834" y2="76.22699955531527" fill="rgb(0, 0, 0)" stroke="rgb(60, 60, 60)" stroke-width="1px" opacity="0.25"></line><line x1="0" y1="50.81799970354356" x2="268.08499813079834" y2="50.81799970354356" fill="rgb(0, 0, 0)" stroke="rgb(60, 60, 60)" stroke-width="1px" opacity="0.25"></line><line x1="0" y1="25.408999851771792" x2="268.08499813079834" y2="25.408999851771792" fill="rgb(0, 0, 0)" stroke="rgb(60, 60, 60)" stroke-width="1px" opacity="0.25"></line><line x1="0" y1="0" x2="268.08499813079834" y2="0" fill="rgb(0, 0, 0)" stroke="rgb(60, 60, 60)" stroke-width="1px" opacity="0.25"></line></g></g></g><g><g><line x1="0" y1="584.4069965907505" x2="268.08499813079834" y2="584.4069965907505" fill="rgb(0, 0, 0)" stroke="rgb(153, 153, 153)" stroke-width="1.5px"></line></g></g><g><g><line x1="26.808499813079834" y1="0" x2="26.808499813079834" y2="177.86299896240234" fill="rgb(0, 0, 0)" stroke="rgb(153, 153, 153)" stroke-width="1.5px"></line></g></g><g><g><g><g><g><path style="fill: none;" stroke="rgb(255, 112, 67)" stroke-width="2px" d="M28.417009801864623,107.4625683602278L30.159562289714813,64.42489673608755L31.768072278499602,0.7480468679454204L33.51062476634979,53.519176303623745L35.11913475513458,48.46581631241559L36.86168724298477,91.12823384971165L38.47019723176956,150.08077978601193L40.21274971961975,24.60274394987707L41.82125970840454,15.744696037570714L43.56381219625473,66.56239528195604L45.172322185039526,21.757046457836942L46.91487467288971,109.50672748022264L48.5233846616745,94.95058082066687L50.26593714952469,73.65109026172702L51.87444713830948,76.1750962164679L53.61699962615967,59.06062550307867L55.22550961494446,76.55166066571549L56.96806210279465,92.30878905059228L58.576572091579436,18.074492596546566L60.31912457942963,43.19016692301761L61.92763456821442,3.3520865114755787L63.670187056064606,-31.398759536379956L65.2786970448494,68.97393289567889L67.02124953269958,66.72830323100183L68.62975952148437,86.25078512902162L70.37231200933456,127.9741784160273L71.98082199811935,118.58767392871778L73.72337448596954,63.47482171439092L75.33188447475435,69.20225341455127L77.07443696260452,99.84616997590093L78.68294695138931,128.0910576684943L80.4254994392395,139.58874569479724L82.03400942802429,50.98283607008241L83.77656191587448,6.236429118128386L85.38507190465927,54.992390346567966L87.12762439250946,51.978254323942494L88.73613438129425,12.143619667893185L90.47868686914444,24.824028023023814L92.08719685792924,-46.350302766678695L95.43825933456421,-44.61718499879866L97.1808118224144,13.883137083420305L98.78932181119919,46.18979993936569L100.53187429904938,110.16220932656412L102.14038428783417,174.312520748419L103.88293677568436,162.1635424195152L105.49144676446915,74.6297595278555L107.23399925231934,87.71978055018218L108.84250924110414,94.11766736767926L110.58506172895432,116.36704785774889L112.1935717177391,164.71361298419833L113.9361242055893,103.40911537225459L115.54463419437408,103.7433580580503L117.28718668222427,110.93023609418881L118.89569667100906,133.48402402905919L120.63824915885925,171.0922447198176L122.24675914764404,141.56808044610753L123.98931163549423,61.822495767898296L125.59782162427904,84.5687281222673L127.34037411212921,52.992331689356824L128.948884100914,114.96417335643994L130.6914365887642,121.79459921318244L132.29994657754898,103.08702238961423L134.04249906539917,80.18257424397385L135.65100905418396,109.63690557892573L137.39356154203415,95.2314980592755L139.00207153081894,68.42431628743934L140.74462401866913,76.32812962332265L142.35313400745392,65.79356105909072L144.0956864953041,129.07191032733422L145.7041964840889,96.39672145642903L147.4467489719391,132.4802642666782L149.0552589607239,69.84241514517922L150.79781144857407,156.49352312422502L152.40632143735886,153.69802657040802L154.14887392520905,159.29169514223665L155.75738391399383,114.44132717745116L157.49993640184402,93.98332207956665L159.1084463906288,119.60751489719044L160.850998878479,151.3462032704308L162.4595088672638,124.66472490131052L164.20206135511398,133.44612738816312L165.8105713438988,120.92335492604767L167.55312383174896,146.5743475087631L169.16163382053375,161.62649899253094L170.90418630838394,53.58270732669297L172.51269629716873,42.00878188196895L174.25524878501892,85.01161929367642L175.8637587738037,112.86874811947726L177.6063112616539,16.977821661308653L179.2148212504387,40.809417398000456L180.95737373828888,41.175889527411584L182.5658837270737,34.40406392524764L184.30843621492386,87.32839452320651L185.91694620370865,36.5970241034405L187.65949869155884,23.297462483531284L189.26800868034363,56.55868047834666L191.01056116819382,126.16102268186206L192.6190711569786,156.74453541464143L194.3616236448288,110.89966247189068L195.97013363361359,86.29713007163356L197.71268612146378,131.30296680549432L199.3211961102486,134.1782405689324L201.06374859809875,98.7118595795628L202.67225858688354,57.21418184152894L204.41481107473373,74.99333101248587L206.02332106351852,46.49466231058269L207.7658735513687,54.211148669025654L209.3743835401535,96.08730441456677L211.1169360280037,129.68950191657956L212.72544601678848,9.634111823431699L214.46799850463867,26.59381120000213L216.0765084934235,58.439804385077956L217.81906098127365,71.61103655621636L219.42757097005844,71.7759513078728L221.17012345790863,37.701393937373595L222.77863344669342,73.19769099639242L224.5211859345436,92.49809342377279L226.1296959233284,79.84018459902572L227.8722484111786,91.27188113086817L229.48075839996338,97.20287745514099L231.22331088781357,71.42905041061672L232.83182087659839,88.84170174076921L234.57437336444855,61.13531638359439L236.18288335323334,13.400725848726736L237.92543584108353,36.96998544966573L239.53394582986832,108.14131243319724L241.2764983177185,101.46506337784032L242.8850083065033,73.0318670071122L244.62756079435349,92.72633562058553L246.23607078313827,71.26890821765505L247.97862327098846,94.94289726189947L249.58713325977328,131.8316908642445L251.32968574762344,133.05597835711598L252.93819573640823,112.70816771927235L254.68074822425842,71.33030384996032L256.2892582130432,27.612115443525056L258.0318107008934,65.8561069839312L259.6403206896782,16.556484185743514L261.3828731775284,95.47271230183446" fill="none"></path></g></g></g></g><g opacity="0.2"><g><g><g><path style="fill: none;" stroke="rgb(255, 112, 67)" stroke-width="2px" d="M28.417009801864623,107.4625683602278L30.159562289714813,38.602293761603526L31.768072278499602,-60.381729005471065L33.51062476634979,115.57802451998131L35.11913475513458,41.86814950789425L36.86168724298477,150.14571577410555L38.47019723176956,234.38386371565633L40.21274971961975,-158.34543688835166L41.82125970840454,2.680795954145352L43.56381219625473,142.02075616192764L45.172322185039526,-45.044595562180625L46.91487467288971,240.65371912470331L48.5233846616745,73.16388917572647L50.26593714952469,41.743582342650136L51.87444713830948,79.95813827432696L53.61699962615967,33.40098988371744L55.22550961494446,102.78081178978236L56.96806210279465,115.94048089471744L58.576572091579436,-93.26564323662538L60.31912457942963,80.8613827406077L61.92763456821442,-56.40284929082864L65.2786970448494,219.53098986004744L67.02124953269958,63.35988533561069L68.62975952148437,115.53436921860548L70.37231200933456,190.55909041532246L71.98082199811935,104.50794121524609L73.72337448596954,-19.19437199588938L75.33188447475435,77.79339568901783L77.07443696260452,145.81202788149878L78.68294695138931,170.45837984107214L80.4254994392395,156.83527544659665L82.03400942802429,-81.92601778922364L83.77656191587448,-60.88317810470908L85.38507190465927,128.12633009385354L87.12762439250946,47.45705036772683L88.73613438129425,-47.608331699873546L90.47868686914444,43.84464043800774L92.08719685792924,-153.11179855480646L93.82974934577942,58.49585936289013L95.43825933456421,-104.92520562819519L97.1808118224144,101.63362013636856L98.78932181119919,94.6497941999634L100.53187429904938,206.12082337965484L102.14038428783417,270.5379878645309L103.88293677568436,143.9400749280537L105.49144676446915,-56.670914801445136L107.23399925231934,107.35481208293758L108.84250924110414,103.7144975937094L110.58506172895432,149.74111859240384L112.1935717177391,237.2334606732863L113.9361242055893,11.452368954784967L115.54463419437408,104.2447220867424L117.28718668222427,121.71055314837773L118.89569667100906,167.31470593132937L120.63824915885925,227.50457575591957L122.24675914764404,97.28183403555913L123.98931163549423,-57.79588124938837L125.59782162427904,118.68807665381624L127.34037411212921,5.627737039994982L128.948884100914,207.9219358570599L130.6914365887642,132.04023799829574L132.29994657754898,75.02565715426253L134.04249906539917,45.82590202551353L135.65100905418396,153.81840258135313L137.39356154203415,73.62338677980021L139.00207153081894,28.21354362968527L140.74462401866913,88.18384962714762L142.35313400745392,49.99170821274267L144.0956864953041,223.9894342296996L145.7041964840889,47.38393815007139L147.4467489719391,186.6055784820519L150.79781144857407,286.4701850927937L152.40632143735886,149.50478173968233L154.14887392520905,167.68219799997965L155.75738391399383,47.165775230273034L157.49993640184402,63.296314432739905L159.1084463906288,158.0438041236261L160.850998878479,198.95423583029122L162.4595088672638,84.64250734763009L164.20206135511398,146.61823111844194L165.8105713438988,102.13919623287453L167.55312383174896,185.05083638283637L170.90418630838394,-108.48298017206403L172.51269629716873,24.647893714883022L174.25524878501892,149.51587541123752L175.8637587738037,154.65444135817845L177.6063112616539,-126.85856802594427L179.2148212504387,76.55681100303825L180.95737373828888,41.72559772152826L182.5658837270737,24.246325522001847L184.30843621492386,166.7148904201448L185.91694620370865,-39.50003152620848L187.65949869155884,3.3481200536674076L189.26800868034363,106.45050747056966L191.01056116819382,230.56453598713506L192.6190711569786,202.6198045138106L194.3616236448288,42.13235305776459L195.97013363361359,49.39333147124784L197.71268612146378,198.81172190628553L199.3211961102486,138.49115121408965L201.06374859809875,45.51228809550837L202.67225858688354,-5.032334765521866L204.41481107473373,101.66205476892124L206.02332106351852,3.7466592577280573L207.7658735513687,65.78587820669017L209.3743835401535,158.90153803287845L211.1169360280037,180.09279816959875L212.72544601678848,-170.44897331628997L214.46799850463867,52.03336026485771L216.0765084934235,106.20879416269172L217.81906098127365,91.36788481292389L219.42757097005844,72.02332343535754L221.17012345790863,-13.410442118375206L222.77863344669342,126.4421365849208L224.5211859345436,121.44869706484329L226.1296959233284,60.85332136190522L227.8722484111786,108.41942592863184L229.48075839996338,106.09937194155023L231.22331088781357,32.76830984383016L232.83182087659839,114.96067873599793L234.57437336444855,19.575738347832107L236.18288335323334,-58.201159953574695L237.92543584108353,72.3238748510742L239.53394582986832,214.8983029084945L241.2764983177185,91.45068979480502L242.8850083065033,30.382072451020072L244.62756079435349,122.26803854079549L246.23607078313827,39.08276711325941L247.97862327098846,130.45388082826594L249.58713325977328,187.16488126776193L251.32968574762344,134.89240959642316L252.93819573640823,82.1864517625069L254.68074822425842,9.263508045992394L256.2892582130432,-37.96516716612764L258.0318107008934,123.22209429454051L259.6403206896782,-57.39295001153796" fill="none"></path></g></g></g></g></g></g><g transform="translate(61, 177)" clip-path="url(#clip_1)"><clipPath id="clip_1"><rect width="268" height="22"></rect></clipPath><g><g><line x1="0" y1="0" x2="0" y2="5" style="visibility: inherit;" fill="rgb(0, 0, 0)" stroke="rgb(204, 204, 204)" stroke-width="1px"></line><line x1="26.808499813079834" y1="0" x2="26.808499813079834" y2="5" style="visibility: inherit;" fill="rgb(0, 0, 0)" stroke="rgb(204, 204, 204)" stroke-width="1px"></line><line x1="53.61699962615967" y1="0" x2="53.61699962615967" y2="5" style="visibility: inherit;" fill="rgb(0, 0, 0)" stroke="rgb(204, 204, 204)" stroke-width="1px"></line><line x1="80.4254994392395" y1="0" x2="80.4254994392395" y2="5" style="visibility: inherit;" fill="rgb(0, 0, 0)" stroke="rgb(204, 204, 204)" stroke-width="1px"></line><line x1="107.23399925231934" y1="0" x2="107.23399925231934" y2="5" style="visibility: inherit;" fill="rgb(0, 0, 0)" stroke="rgb(204, 204, 204)" stroke-width="1px"></line><line x1="134.04249906539917" y1="0" x2="134.04249906539917" y2="5" style="visibility: inherit;" fill="rgb(0, 0, 0)" stroke="rgb(204, 204, 204)" stroke-width="1px"></line><line x1="160.850998878479" y1="0" x2="160.850998878479" y2="5" style="visibility: inherit;" fill="rgb(0, 0, 0)" stroke="rgb(204, 204, 204)" stroke-width="1px"></line><line x1="187.65949869155884" y1="0" x2="187.65949869155884" y2="5" style="visibility: inherit;" fill="rgb(0, 0, 0)" stroke="rgb(204, 204, 204)" stroke-width="1px"></line><line x1="214.46799850463867" y1="0" x2="214.46799850463867" y2="5" style="visibility: inherit;" fill="rgb(0, 0, 0)" stroke="rgb(204, 204, 204)" stroke-width="1px"></line><line x1="241.2764983177185" y1="0" x2="241.2764983177185" y2="5" style="visibility: inherit;" fill="rgb(0, 0, 0)" stroke="rgb(204, 204, 204)" stroke-width="1px"></line><line x1="268.08499813079834" y1="0" x2="268.08499813079834" y2="5" style="visibility: inherit;" fill="rgb(0, 0, 0)" stroke="rgb(204, 204, 204)" stroke-width="1px"></line></g><g transform="translate(0, 8)"><text style="text-anchor: middle; visibility: hidden; font-family: Roboto, sans-serif; font-size: 12px; font-weight: 200;" x="0" y="0" dx="0em" dy="0.95em" fill="rgb(50, 49, 63)" stroke="none" stroke-width="1px">-200</text><text style="text-anchor: middle; visibility: hidden; font-family: Roboto, sans-serif; font-size: 12px; font-weight: 200;" x="26.808499813079834" y="0" dx="0em" dy="0.95em" fill="rgb(50, 49, 63)" stroke="none" stroke-width="1px">0</text><text style="text-anchor: middle; visibility: hidden; font-family: Roboto, sans-serif; font-size: 12px; font-weight: 200;" x="53.61699962615967" y="0" dx="0em" dy="0.95em" fill="rgb(50, 49, 63)" stroke="none" stroke-width="1px">200</text><text style="text-anchor: middle; visibility: hidden; font-family: Roboto, sans-serif; font-size: 12px; font-weight: 200;" x="80.4254994392395" y="0" dx="0em" dy="0.95em" fill="rgb(50, 49, 63)" stroke="none" stroke-width="1px">400</text><text style="text-anchor: middle; visibility: hidden; font-family: Roboto, sans-serif; font-size: 12px; font-weight: 200;" x="107.23399925231934" y="0" dx="0em" dy="0.95em" fill="rgb(50, 49, 63)" stroke="none" stroke-width="1px">600</text><text style="text-anchor: middle; visibility: hidden; font-family: Roboto, sans-serif; font-size: 12px; font-weight: 200;" x="134.04249906539917" y="0" dx="0em" dy="0.95em" fill="rgb(50, 49, 63)" stroke="none" stroke-width="1px">800</text><text style="text-anchor: middle; visibility: hidden; font-family: Roboto, sans-serif; font-size: 12px; font-weight: 200;" x="160.850998878479" y="0" dx="0em" dy="0.95em" fill="rgb(50, 49, 63)" stroke="none" stroke-width="1px">1k</text><text style="text-anchor: middle; visibility: hidden; font-family: Roboto, sans-serif; font-size: 12px; font-weight: 200;" x="187.65949869155884" y="0" dx="0em" dy="0.95em" fill="rgb(50, 49, 63)" stroke="none" stroke-width="1px">1.2k</text><text style="text-anchor: middle; visibility: hidden; font-family: Roboto, sans-serif; font-size: 12px; font-weight: 200;" x="214.46799850463867" y="0" dx="0em" dy="0.95em" fill="rgb(50, 49, 63)" stroke="none" stroke-width="1px">1.4k</text><text style="text-anchor: middle; visibility: hidden; font-family: Roboto, sans-serif; font-size: 12px; font-weight: 200;" x="241.2764983177185" y="0" dx="0em" dy="0.95em" fill="rgb(50, 49, 63)" stroke="none" stroke-width="1px">1.6k</text><text style="text-anchor: middle; visibility: hidden; font-family: Roboto, sans-serif; font-size: 12px; font-weight: 200;" x="268.08499813079834" y="0" dx="0em" dy="0.95em" fill="rgb(50, 49, 63)" stroke="none" stroke-width="1px">1.8k</text></g><line x1="0" y1="0" x2="268.08499813079834" y2="0" fill="rgb(0, 0, 0)" stroke="rgb(204, 204, 204)" stroke-width="1px"></line></g></g></g></g></svg>