<svg viewBox="0 0 330 200" xmlns="http://www.w3.org/2000/svg"><g><g><g><g><g><line x1="41.149001121520996" y1="177.86299896240234" x2="36.149001121520996" y2="177.86299896240234" style="visibility: inherit;" fill="rgb(0, 0, 0)" stroke="rgb(204, 204, 204)" stroke-width="1px"></line><line x1="41.149001121520996" y1="165.15849903651645" x2="36.149001121520996" y2="165.15849903651645" style="visibility: inherit;" fill="rgb(0, 0, 0)" stroke="rgb(204, 204, 204)" stroke-width="1px"></line><line x1="41.149001121520996" y1="152.4539991106306" x2="36.149001121520996" y2="152.4539991106306" style="visibility: inherit;" fill="rgb(0, 0, 0)" stroke="rgb(204, 204, 204)" stroke-width="1px"></line><line x1="41.149001121520996" y1="139.7494991847447" x2="36.149001121520996" y2="139.7494991847447" style="visibility: inherit;" fill="rgb(0, 0, 0)" stroke="rgb(204, 204, 204)" stroke-width="1px"></line><line x1="41.149001121520996" y1="127.04499925885884" x2="36.149001121520996" y2="127.04499925885884" style="visibility: inherit;" fill="rgb(0, 0, 0)" stroke="rgb(204, 204, 204)" stroke-width="1px"></line><line x1="41.149001121520996" y1="114.34049933297293" x2="36.149001121520996" y2="114.34049933297293" style="visibility: inherit;" fill="rgb(0, 0, 0)" stroke="rgb(204, 204, 204)" stroke-width="1px"></line><line x1="41.149001121520996" y1="101.63599940708704" x2="36.149001121520996" y2="101.63599940708704" style="visibility: inherit;" fill="rgb(0, 0, 0)" stroke="rgb(204, 204, 204)" stroke-width="1px"></line><line x1="41.149001121520996" y1="88.93149948120116" x2="36.149001121520996" y2="88.93149948120116" style="visibility: inherit;" fill="rgb(0, 0, 0)" stroke="rgb(204, 204, 204)" stroke-width="1px"></line><line x1="41.149001121520996" y1="76.22699955531532" x2="36.149001121520996" y2="76.22699955531532" style="visibility: inherit;" fill="rgb(0, 0, 0)" stroke="rgb(204, 204, 204)" stroke-width="1px"></line><line x1="41.149001121520996" y1="63.52249962942942" x2="36.149001121520996" y2="63.52249962942942" style="visibility: inherit;" fill="rgb(0, 0, 0)" stroke="rgb(204, 204, 204)" stroke-width="1px"></line><line x1="41.149001121520996" y1="50.81799970354352" x2="36.149001121520996" y2="50.81799970354352" style="visibility: inherit;" fill="rgb(0, 0, 0)" stroke="rgb(204, 204, 204)" stroke-width="1px"></line><line x1="41.149001121520996" y1="38.11349977765763" x2="36.149001121520996" y2="38.11349977765763" style="visibility: inherit;" fill="rgb(0, 0, 0)" stroke="rgb(204, 204, 204)" stroke-width="1px"></line><line x1="41.149001121520996" y1="25.408999851771732" x2="36.149001121520996" y2="25.408999851771732" style="visibility: inherit;" fill="rgb(0, 0, 0)" stroke="rgb(204, 204, 204)" stroke-width="1px"></line><line x1="41.149001121520996" y1="12.704499925885896" x2="36.149001121520996" y2="12.704499925885896" style="visibility: inherit;" fill="rgb(0, 0, 0)" stroke="rgb(204, 204, 204)" stroke-width="1px"></line><line x1="41.149001121520996" y1="0" x2="36.149001121520996" y2="0" style="visibility: inherit;" fill="rgb(0, 0, 0)" stroke="rgb(204, 204, 204)" stroke-width="1px"></line></g><g transform="translate(31.149001121520996, 0)"><text style="text-anchor: end; visibility: hidden; font-family: Roboto, sans-serif; font-size: 12px; font-weight: 200;" x="0" y="177.86299896240234" dx="0em" dy="0.3em" fill="rgb(50, 49, 63)" stroke="none" stroke-width="1px">1.5</text><text style="text-anchor: end; visibility: inherit; font-family: Roboto, sans-serif; font-size: 12px; font-weight: 200;" x="0" y="165.15849903651645" dx="0em" dy="0.3em" fill="rgb(50, 49, 63)" stroke="none" stroke-width="1px">1.6</text><text style="text-anchor: end; visibility: hidden; font-family: Roboto, sans-serif; font-size: 12px; font-weight: 200;" x="0" y="152.4539991106306" dx="0em" dy="0.3em" fill="rgb(50, 49, 63)" stroke="none" stroke-width="1px">1.7</text><text style="text-anchor: end; visibility: inherit; font-family: Roboto, sans-serif; font-size: 12px; font-weight: 200;" x="0" y="139.7494991847447" dx="0em" dy="0.3em" fill="rgb(50, 49, 63)" stroke="none" stroke-width="1px">1.8</text><text style="text-anchor: end; visibility: hidden; font-family: Roboto, sans-serif; font-size: 12px; font-weight: 200;" x="0" y="127.04499925885884" dx="0em" dy="0.3em" fill="rgb(50, 49, 63)" stroke="none" stroke-width="1px">1.9</text><text style="text-anchor: end; visibility: inherit; font-family: Roboto, sans-serif; font-size: 12px; font-weight: 200;" x="0" y="114.34049933297293" dx="0em" dy="0.3em" fill="rgb(50, 49, 63)" stroke="none" stroke-width="1px">2</text><text style="text-anchor: end; visibility: hidden; font-family: Roboto, sans-serif; font-size: 12px; font-weight: 200;" x="0" y="101.63599940708704" dx="0em" dy="0.3em" fill="rgb(50, 49, 63)" stroke="none" stroke-width="1px">2.1</text><text style="text-anchor: end; visibility: inherit; font-family: Roboto, sans-serif; font-size: 12px; font-weight: 200;" x="0" y="88.93149948120116" dx="0em" dy="0.3em" fill="rgb(50, 49, 63)" stroke="none" stroke-width="1px">2.2</text><text style="text-anchor: end; visibility: hidden; font-family: Roboto, sans-serif; font-size: 12px; font-weight: 200;" x="0" y="76.22699955531532" dx="0em" dy="0.3em" fill="rgb(50, 49, 63)" stroke="none" stroke-width="1px">2.3</text><text style="text-anchor: end; visibility: inherit; font-family: Roboto, sans-serif; font-size: 12px; font-weight: 200;" x="0" y="63.52249962942942" dx="0em" dy="0.3em" fill="rgb(50, 49, 63)" stroke="none" stroke-width="1px">2.4</text><text style="text-anchor: end; visibility: hidden; font-family: Roboto, sans-serif; font-size: 12px; font-weight: 200;" x="0" y="50.81799970354352" dx="0em" dy="0.3em" fill="rgb(50, 49, 63)" stroke="none" stroke-width="1px">2.5</text><text style="text-anchor: end; visibility: inherit; font-family: Roboto, sans-serif; font-size: 12px; font-weight: 200;" x="0" y="38.11349977765763" dx="0em" dy="0.3em" fill="rgb(50, 49, 63)" stroke="none" stroke-width="1px">2.6</text><text style="text-anchor: end; visibility: hidden; font-family: Roboto, sans-serif; font-size: 12px; font-weight: 200;" x="0" y="25.408999851771732" dx="0em" dy="0.3em" fill="rgb(50, 49, 63)" stroke="none" stroke-width="1px">2.7</text><text style="text-anchor: end; visibility: inherit; font-family: Roboto, sans-serif; font-size: 12px; font-weight: 200;" x="0" y="12.704499925885896" dx="0em" dy="0.3em" fill="rgb(50, 49, 63)" stroke="none" stroke-width="1px">2.8</text><text style="text-anchor: end; visibility: hidden; font-family: Roboto, sans-serif; font-size: 12px; font-weight: 200;" x="0" y="0" dx="0em" dy="0.3em" fill="rgb(50, 49, 63)" stroke="none" stroke-width="1px">2.9</text></g><line x1="41.149001121520996" y1="0" x2="41.149001121520996" y2="177.86299896240234" fill="rgb(0, 0, 0)" stroke="rgb(204, 204, 204)" stroke-width="1px"></line></g></g><g transform="translate(41, 0)" clip-path="url(#clip_0)"><clipPath id="clip_0"><rect width="288" height="177"></rect></clipPath><g><g><g><line x1="0" y1="0" x2="0" y2="177.86299896240234" fill="rgb(0, 0, 0)" stroke="rgb(60, 60, 60)" stroke-width="1px" opacity="0.25"></line><line x1="28.8850998878479" y1="0" x2="28.8850998878479" y2="177.86299896240234" fill="rgb(0, 0, 0)" stroke="rgb(60, 60, 60)" stroke-width="1px" opacity="0.25"></line><line x1="57.7701997756958" y1="0" x2="57.7701997756958" y2="177.86299896240234" fill="rgb(0, 0, 0)" stroke="rgb(60, 60, 60)" stroke-width="1px" opacity="0.25"></line><line x1="86.6552996635437" y1="0" x2="86.6552996635437" y2="177.86299896240234" fill="rgb(0, 0, 0)" stroke="rgb(60, 60, 60)" stroke-width="1px" opacity="0.25"></line><line x1="115.5403995513916" y1="0" x2="115.5403995513916" y2="177.86299896240234" fill="rgb(0, 0, 0)" stroke="rgb(60, 60, 60)" stroke-width="1px" opacity="0.25"></line><line x1="144.4254994392395" y1="0" x2="144.4254994392395" y2="177.86299896240234" fill="rgb(0, 0, 0)" stroke="rgb(60, 60, 60)" stroke-width="1px" opacity="0.25"></line><line x1="173.3105993270874" y1="0" x2="173.3105993270874" y2="177.86299896240234" fill="rgb(0, 0, 0)" stroke="rgb(60, 60, 60)" stroke-width="1px" opacity="0.25"></line><line x1="202.1956992149353" y1="0" x2="202.1956992149353" y2="177.86299896240234" fill="rgb(0, 0, 0)" stroke="rgb(60, 60, 60)" stroke-width="1px" opacity="0.25"></line><line x1="231.0807991027832" y1="0" x2="231.0807991027832" y2="177.86299896240234" fill="rgb(0, 0, 0)" stroke="rgb(60, 60, 60)" stroke-width="1px" opacity="0.25"></line><line x1="259.9658989906311" y1="0" x2="259.9658989906311" y2="177.86299896240234" fill="rgb(0, 0, 0)" stroke="rgb(60, 60, 60)" stroke-width="1px" opacity="0.25"></line><line x1="288.850998878479" y1="0" x2="288.850998878479" y2="177.86299896240234" fill="rgb(0, 0, 0)" stroke="rgb(60, 60, 60)" stroke-width="1px" opacity="0.25"></line></g><g><line x1="0" y1="177.86299896240234" x2="288.850998878479" y2="177.86299896240234" fill="rgb(0, 0, 0)" stroke="rgb(60, 60, 60)" stroke-width="1px" opacity="0.25"></line><line x1="0" y1="165.15849903651645" x2="288.850998878479" y2="165.15849903651645" fill="rgb(0, 0, 0)" stroke="rgb(60, 60, 60)" stroke-width="1px" opacity="0.25"></line><line x1="0" y1="152.4539991106306" x2="288.850998878479" y2="152.4539991106306" fill="rgb(0, 0, 0)" stroke="rgb(60, 60, 60)" stroke-width="1px" opacity="0.25"></line><line x1="0" y1="139.7494991847447" x2="288.850998878479" y2="139.7494991847447" fill="rgb(0, 0, 0)" stroke="rgb(60, 60, 60)" stroke-width="1px" opacity="0.25"></line><line x1="0" y1="127.04499925885884" x2="288.850998878479" y2="127.04499925885884" fill="rgb(0, 0, 0)" stroke="rgb(60, 60, 60)" stroke-width="1px" opacity="0.25"></line><line x1="0" y1="114.34049933297293" x2="288.850998878479" y2="114.34049933297293" fill="rgb(0, 0, 0)" stroke="rgb(60, 60, 60)" stroke-width="1px" opacity="0.25"></line><line x1="0" y1="101.63599940708704" x2="288.850998878479" y2="101.63599940708704" fill="rgb(0, 0, 0)" stroke="rgb(60, 60, 60)" stroke-width="1px" opacity="0.25"></line><line x1="0" y1="88.93149948120116" x2="288.850998878479" y2="88.93149948120116" fill="rgb(0, 0, 0)" stroke="rgb(60, 60, 60)" stroke-width="1px" opacity="0.25"></line><line x1="0" y1="76.22699955531532" x2="288.850998878479" y2="76.22699955531532" fill="rgb(0, 0, 0)" stroke="rgb(60, 60, 60)" stroke-width="1px" opacity="0.25"></line><line x1="0" y1="63.52249962942942" x2="288.850998878479" y2="63.52249962942942" fill="rgb(0, 0, 0)" stroke="rgb(60, 60, 60)" stroke-width="1px" opacity="0.25"></line><line x1="0" y1="50.81799970354352" x2="288.850998878479" y2="50.81799970354352" fill="rgb(0, 0, 0)" stroke="rgb(60, 60, 60)" stroke-width="1px" opacity="0.25"></line><line x1="0" y1="38.11349977765763" x2="288.850998878479" y2="38.11349977765763" fill="rgb(0, 0, 0)" stroke="rgb(60, 60, 60)" stroke-width="1px" opacity="0.25"></line><line x1="0" y1="25.408999851771732" x2="288.850998878479" y2="25.408999851771732" fill="rgb(0, 0, 0)" stroke="rgb(60, 60, 60)" stroke-width="1px" opacity="0.25"></line><line x1="0" y1="12.704499925885896" x2="288.850998878479" y2="12.704499925885896" fill="rgb(0, 0, 0)" stroke="rgb(60, 60, 60)" stroke-width="1px" opacity="0.25"></line><line x1="0" y1="0" x2="288.850998878479" y2="0" fill="rgb(0, 0, 0)" stroke="rgb(60, 60, 60)" stroke-width="1px" opacity="0.25"></line></g></g></g><g><g><line x1="0" y1="368.43049785069053" x2="288.850998878479" y2="368.43049785069053" fill="rgb(0, 0, 0)" stroke="rgb(153, 153, 153)" stroke-width="1.5px"></line></g></g><g><g><line x1="28.8850998878479" y1="0" x2="28.8850998878479" y2="177.86299896240234" fill="rgb(0, 0, 0)" stroke="rgb(153, 153, 153)" stroke-width="1.5px"></line></g></g><g><g><g><g><g><path style="fill: none;" stroke="rgb(255, 112, 67)" stroke-width="2px" d="M32.49573737382889,252.52227644415893L34.22884336709976,122.39079498888589L36.106374859809875,15.430476099102329L37.83948085308075,51.00335849574509L39.71701234579086,69.81144663056655L41.45011833906173,65.7552996134656L43.32764983177185,65.10393685975858L45.060755825042726,19.768159262206684L46.93828731775284,32.92823124358148L48.671393311023714,-0.7857801970286745L50.548924803733826,25.504594709145877L52.2820307970047,65.30215020129548L54.15956228971481,124.8365285938593L55.89266828298569,92.90851136899416L57.7701997756958,110.30777548136741L59.50330576896667,88.93763022809763L61.38083726167679,81.12476438778113L63.113943254947664,143.67346127867535L64.99147474765778,131.6942844570076L66.72458074092866,138.90357678968616L68.60211223363876,94.81827845064016L70.33521822690963,166.11225805925278L72.21274971961975,129.52954125347884L73.94585571289063,152.79369109615948L75.82338720560074,126.99774966228782L77.55649319887162,125.9343010488439L79.43402469158173,81.7935049435518L81.16713068485261,109.58133529601821L83.04466217756271,84.26216426015749L84.77776817083358,55.83456388544544L86.6552996635437,77.82121467149636L88.38840565681457,50.019570094113305L90.26593714952469,87.8376913440182L91.99904314279557,100.62673819620548L93.87657463550568,137.76829000900645L95.60968062877656,195.09126127899287L97.48721212148666,123.96495347654694L99.22031811475755,120.48913682913323L101.09784960746765,99.2534162782341L102.83095560073852,22.803468023889288L104.70848709344864,45.415725647415215L106.44159308671951,80.56008814178848L108.31912457942963,106.34979234245236L110.05223057270051,77.54662564010574L111.92976206541061,98.15013648447118L113.6628680586815,126.97525157876393L115.5403995513916,161.9867914346144L117.27350554466248,89.26342522466481L119.15103703737259,143.56952361806L120.88414303064346,122.55083344056567L122.76167452335358,88.06995657121728L124.49478051662444,65.23633691483822L126.37231200933456,147.65676359661603L128.10541800260543,114.06998170031642L129.98294949531555,139.87978892522332L131.71605548858642,130.25754892590425L133.59358698129654,141.5633280142241L135.3266929745674,140.13376497609087L137.20422446727753,135.3400985000434L138.9373304605484,164.0390958198188L140.81486195325851,166.48154196086074L142.54796794652938,219.26592231724675L144.4254994392395,122.05068028755511L146.15860543251037,76.1175385422335L148.0361369252205,93.15465537921234L149.76924291849136,169.53941301309L151.64677441120148,116.5804938794021L153.37988040447235,124.32990864810637L155.25741189718246,137.96244185705484L156.99051789045333,163.25385247139204L158.86804938316345,129.41361386220407L160.60115537643435,170.18279054562012L162.47868686914444,154.00271183873681L164.2117928624153,106.74705870233268L166.08932435512543,111.21988487259115L167.8224303483963,186.49914966504394L169.69996184110641,151.94355316090738L171.43306783437728,162.54664756499434L173.3105993270874,148.77685099790014L175.04370532035827,64.39516335870908L176.9212368130684,70.13656565373294L178.6543428063393,143.1155195693521L180.53187429904938,54.807935237385045L182.26498029232025,43.75089021102614L184.14251178503036,13.055684528125717L185.87561777830123,49.136891282465164L187.75314927101135,127.60925175284491L189.48625526428222,67.68389672195849L191.36378675699234,87.9558455846872L193.0968927502632,-6.379717099256829L196.70753023624422,-27.50105273785455L198.58506172895432,9.203217250422158L200.31816772222518,18.45930620623435L202.1956992149353,38.88865080811559L203.92880520820617,59.585141582781546L205.8063367009163,47.76549156416996L207.53944269418716,54.22600333379873L209.41697418689728,76.49527555831955L211.15008018016815,60.95913452946588L213.02761167287827,66.07765735984296L214.76071766614916,82.07484757415416L216.63824915885925,128.6515721518172L218.37135515213012,68.02010534066862L220.24888664484024,86.85716527548519L221.9819926381111,137.60515328291982L223.85952413082123,163.47486012199573L225.5926301240921,99.040205836988L227.47016161680222,61.261551738162666L229.20326761007308,75.5332171919253L231.0807991027832,119.94267561709572L232.8139050960541,142.0455095870395L234.6914365887642,112.21179900272159L236.42454258203506,77.48316502687564L238.30207407474518,24.633389334326225L240.03518006801605,96.33237836658196L241.91271156072617,56.01337285756648L243.64581755399703,144.9443367990452L245.52334904670715,196.9424660381151L247.25645503997802,184.73003634219134L249.13398653268814,153.20347796733614L250.86709252595904,128.21818841936184L252.74462401866913,129.1725992921796L254.47773001194,62.26887986147826L256.3552615046501,82.95554077012517L258.08836749792096,112.60740278194858L259.9658989906311,125.26671020166592L261.699004983902,163.7175012162601L263.5765364766121,95.6972434891708L265.309642469883,89.26527509759015L267.1871739625931,120.11771226405648L268.920279955864,68.26424976871591L270.79781144857407,152.96996700304243L272.53091744184496,153.21072886852792L274.40844893455505,113.79242410313756L276.1415549278259,74.87594338621835L278.01908642053604,95.67620829347919L279.75219241380694,55.23554656744102L281.62972390651703,101.96575263900463" fill="none"></path></g></g></g></g><g opacity="0.2"><g><g><g><path style="fill: none;" stroke="rgb(255, 112, 67)" stroke-width="2px" d="M36.106374859809875,-110.3548589152831L37.83948085308075,97.44731375280207L39.71701234579086,95.82980343275317L41.45011833906173,59.95494448065904L43.32764983177185,64.15424371177114L45.060755825042726,-47.093306672741974L46.93828731775284,52.46940440849408L48.671393311023714,-51.05101375552894L50.548924803733826,64.7970860091513L52.2820307970047,124.86853751580307L54.15956228971481,214.0214621377623L55.89266828298569,45.0540157174125L57.7701997756958,136.3944003408348L59.50330576896667,56.89145547746764L61.38083726167679,69.40744931309693L63.113943254947664,237.48697795059783L64.99147474765778,113.72661416871702L66.72458074092866,149.71711991397882L68.60211223363876,28.691781587591574L70.33521822690963,273.0518198969112L72.21274971961975,74.6558994019745L73.94585571289063,187.68975050856028L75.82338720560074,88.30394751938702L77.55649319887162,124.33913084975158L79.43402469158173,15.582378552133106L81.16713068485261,151.26305522819865L83.04466217756271,46.283421699887434L84.77776817083358,13.193172750278906L86.6552996635437,110.80118647596514L88.38840565681457,8.317106546996776L90.26593714952469,144.56487051004115L91.99904314279557,119.81030792485448L93.87657463550568,193.48061677047343L95.60968062877656,281.07571729709224L97.48721212148666,17.275492433142315L99.22031811475755,115.27541187737226L101.09784960746765,67.39983552285256L102.83095560073852,-91.87145420433626L104.70848709344864,79.3341120554999L106.44159308671951,133.2766318579796L108.31912457942963,145.03434863227852L110.05223057270051,34.34187559407083L111.92976206541061,129.0554027478069L113.6628680586815,170.21292421750644L115.5403995513916,214.50410121642486L119.15103703737259,225.02867120705545L120.88414303064346,91.02279817457902L122.76167452335358,36.348641267445466L124.49478051662444,30.98590743036948L126.37231200933456,271.2874036190668L128.10541800260543,63.689808855919956L129.98294949531555,178.59449976255928L131.71605548858642,115.82418892693099L133.59358698129654,158.5219966467001L135.3266929745674,137.9894204188913L137.20422446727753,128.14959878597284L138.9373304605484,207.08759179947964L140.81486195325851,170.1452111724236L142.54796794652938,298.44249285182434L144.4254994392395,-23.77218275698087L146.15860543251037,7.2178259242516125L148.0361369252205,118.71033063468062L149.76924291849136,284.11654946390615L151.64677441120148,37.142115178870355L153.37988040447235,135.9540308011627L155.25741189718246,158.4112416704776L156.99051789045333,201.19096839289782L158.86804938316345,78.65325594842216L160.60115537643435,231.33655557074417L162.47868686914444,129.73259377841183L164.2117928624153,35.86357899772649L166.08932435512543,117.92912412797887L167.8224303483963,299.41804685372307L169.69996184110641,100.11015840470255L171.43306783437728,178.45128917112484L173.3105993270874,128.12215614725886L175.04370532035827,-62.177368100077494L176.9212368130684,78.74866909626871L178.6543428063393,252.58395044278086L180.53187429904938,-77.65344126056543L182.26498029232025,27.165322671487687L184.14251178503036,-32.98712399622491L185.87561777830123,103.25870141397431L187.75314927101135,245.31779245841454L189.48625526428222,-22.204135824371175L191.36378675699234,118.36376887878018L193.0968927502632,-147.88306112517293L196.70753023624422,-7.31308156467953L198.58506172895432,64.25962223283723L200.31816772222518,32.343439639952635L202.1956992149353,69.53266771093747L203.92880520820617,90.62987774478044L205.8063367009163,30.036016536252646L207.53944269418716,63.916770988241936L209.41697418689728,109.89918389510083L211.15008018016815,37.65492298618533L213.02761167287827,73.75544160540865L214.76071766614916,106.07063289562106L216.63824915885925,198.51665901831166L218.37135515213012,-22.927094876054205L220.24888664484024,115.11275517771006L221.9819926381111,213.72713529407184L223.85952413082123,202.2794203806096L225.5926301240921,2.388224409476335L227.47016161680222,4.593570589924619L229.20326761007308,96.94071537256916L231.0807991027832,186.5568632548514L232.8139050960541,175.1997605419552L234.6914365887642,67.46123312624461L236.42454258203506,25.390214063106853L238.30207407474518,-54.64127420449795L245.52334904670715,274.93965989671995L247.25645503997802,166.41139179830574L249.13398653268814,105.91364040505323L250.86709252595904,90.74025409740038L252.74462401866913,130.60421560140625L254.47773001194,-38.086699284573655L256.3552615046501,113.98553213309553L258.08836749792096,157.0851957996838L259.9658989906311,144.2556713312419L261.699004983902,221.3936877381514L263.5765364766121,-6.333143101463065L265.309642469883,79.61732251021904L267.1871739625931,166.39636801375596L268.920279955864,-9.515943974294986L270.79781144857407,280.02854285453225L272.53091744184496,153.57187166675612L274.40844893455505,54.66496695505207L276.1415549278259,16.50122231083956L278.01908642053604,126.8766056543705L279.75219241380694,-5.425446021616153L281.62972390651703,172.06106174635013" fill="none"></path></g></g></g></g></g></g><g transform="translate(41, 177)" clip-path="url(#clip_1)"><clipPath id="clip_1"><rect width="288" height="22"></rect></clipPath><g><g><line x1="0" y1="0" x2="0" y2="5" style="visibility: inherit;" fill="rgb(0, 0, 0)" stroke="rgb(204, 204, 204)" stroke-width="1px"></line><line x1="28.8850998878479" y1="0" x2="28.8850998878479" y2="5" style="visibility: inherit;" fill="rgb(0, 0, 0)" stroke="rgb(204, 204, 204)" stroke-width="1px"></line><line x1="57.7701997756958" y1="0" x2="57.7701997756958" y2="5" style="visibility: inherit;" fill="rgb(0, 0, 0)" stroke="rgb(204, 204, 204)" stroke-width="1px"></line><line x1="86.6552996635437" y1="0" x2="86.6552996635437" y2="5" style="visibility: inherit;" fill="rgb(0, 0, 0)" stroke="rgb(204, 204, 204)" stroke-width="1px"></line><line x1="115.5403995513916" y1="0" x2="115.5403995513916" y2="5" style="visibility: inherit;" fill="rgb(0, 0, 0)" stroke="rgb(204, 204, 204)" stroke-width="1px"></line><line x1="144.4254994392395" y1="0" x2="144.4254994392395" y2="5" style="visibility: inherit;" fill="rgb(0, 0, 0)" stroke="rgb(204, 204, 204)" stroke-width="1px"></line><line x1="173.3105993270874" y1="0" x2="173.3105993270874" y2="5" style="visibility: inherit;" fill="rgb(0, 0, 0)" stroke="rgb(204, 204, 204)" stroke-width="1px"></line><line x1="202.1956992149353" y1="0" x2="202.1956992149353" y2="5" style="visibility: inherit;" fill="rgb(0, 0, 0)" stroke="rgb(204, 204, 204)" stroke-width="1px"></line><line x1="231.0807991027832" y1="0" x2="231.0807991027832" y2="5" style="visibility: inherit;" fill="rgb(0, 0, 0)" stroke="rgb(204, 204, 204)" stroke-width="1px"></line><line x1="259.9658989906311" y1="0" x2="259.9658989906311" y2="5" style="visibility: inherit;" fill="rgb(0, 0, 0)" stroke="rgb(204, 204, 204)" stroke-width="1px"></line><line x1="288.850998878479" y1="0" x2="288.850998878479" y2="5" style="visibility: inherit;" fill="rgb(0, 0, 0)" stroke="rgb(204, 204, 204)" stroke-width="1px"></line></g><g transform="translate(0, 8)"><text style="text-anchor: middle; visibility: hidden; font-family: Roboto, sans-serif; font-size: 12px; font-weight: 200;" x="0" y="0" dx="0em" dy="0.95em" fill="rgb(50, 49, 63)" stroke="none" stroke-width="1px">-200</text><text style="text-anchor: middle; visibility: inherit; font-family: Roboto, sans-serif; font-size: 12px; font-weight: 200;" x="28.8850998878479" y="0" dx="0em" dy="0.95em" fill="rgb(50, 49, 63)" stroke="none" stroke-width="1px">0</text><text style="text-anchor: middle; visibility: inherit; font-family: Roboto, sans-serif; font-size: 12px; font-weight: 200;" x="57.7701997756958" y="0" dx="0em" dy="0.95em" fill="rgb(50, 49, 63)" stroke="none" stroke-width="1px">200</text><text style="text-anchor: middle; visibility: inherit; font-family: Roboto, sans-serif; font-size: 12px; font-weight: 200;" x="86.6552996635437" y="0" dx="0em" dy="0.95em" fill="rgb(50, 49, 63)" stroke="none" stroke-width="1px">400</text><text style="text-anchor: middle; visibility: inherit; font-family: Roboto, sans-serif; font-size: 12px; font-weight: 200;" x="115.5403995513916" y="0" dx="0em" dy="0.95em" fill="rgb(50, 49, 63)" stroke="none" stroke-width="1px">600</text><text style="text-anchor: middle; visibility: inherit; font-family: Roboto, sans-serif; font-size: 12px; font-weight: 200;" x="144.4254994392395" y="0" dx="0em" dy="0.95em" fill="rgb(50, 49, 63)" stroke="none" stroke-width="1px">800</text><text style="text-anchor: middle; visibility: inherit; font-family: Roboto, sans-serif; font-size: 12px; font-weight: 200;" x="173.3105993270874" y="0" dx="0em" dy="0.95em" fill="rgb(50, 49, 63)" stroke="none" stroke-width="1px">1k</text><text style="text-anchor: middle; visibility: inherit; font-family: Roboto, sans-serif; font-size: 12px; font-weight: 200;" x="202.1956992149353" y="0" dx="0em" dy="0.95em" fill="rgb(50, 49, 63)" stroke="none" stroke-width="1px">1.2k</text><text style="text-anchor: middle; visibility: inherit; font-family: Roboto, sans-serif; font-size: 12px; font-weight: 200;" x="231.0807991027832" y="0" dx="0em" dy="0.95em" fill="rgb(50, 49, 63)" stroke="none" stroke-width="1px">1.4k</text><text style="text-anchor: middle; visibility: inherit; font-family: Roboto, sans-serif; font-size: 12px; font-weight: 200;" x="259.9658989906311" y="0" dx="0em" dy="0.95em" fill="rgb(50, 49, 63)" stroke="none" stroke-width="1px">1.6k</text><text style="text-anchor: middle; visibility: hidden; font-family: Roboto, sans-serif; font-size: 12px; font-weight: 200;" x="288.850998878479" y="0" dx="0em" dy="0.95em" fill="rgb(50, 49, 63)" stroke="none" stroke-width="1px">1.8k</text></g><line x1="0" y1="0" x2="288.850998878479" y2="0" fill="rgb(0, 0, 0)" stroke="rgb(204, 204, 204)" stroke-width="1px"></line></g></g></g></g></svg>