<svg viewBox="0 0 330 200" xmlns="http://www.w3.org/2000/svg"><g><g><g><g><g><line x1="51.53200149536133" y1="172.99319415606033" x2="46.53200149536133" y2="172.99319415606033" style="visibility: inherit;" fill="rgb(0, 0, 0)" stroke="rgb(204, 204, 204)" stroke-width="1px"></line><line x1="51.53200149536133" y1="164.13225239843212" x2="46.53200149536133" y2="164.13225239843212" style="visibility: inherit;" fill="rgb(0, 0, 0)" stroke="rgb(204, 204, 204)" stroke-width="1px"></line><line x1="51.53200149536133" y1="156.2058698969545" x2="46.53200149536133" y2="156.2058698969545" style="visibility: inherit;" fill="rgb(0, 0, 0)" stroke="rgb(204, 204, 204)" stroke-width="1px"></line><line x1="51.53200149536133" y1="104.05967785683633" x2="46.53200149536133" y2="104.05967785683633" style="visibility: inherit;" fill="rgb(0, 0, 0)" stroke="rgb(204, 204, 204)" stroke-width="1px"></line><line x1="51.53200149536133" y1="73.55611095796317" x2="46.53200149536133" y2="73.55611095796317" style="visibility: inherit;" fill="rgb(0, 0, 0)" stroke="rgb(204, 204, 204)" stroke-width="1px"></line><line x1="51.53200149536133" y1="51.913485816718186" x2="46.53200149536133" y2="51.913485816718186" style="visibility: inherit;" fill="rgb(0, 0, 0)" stroke="rgb(204, 204, 204)" stroke-width="1px"></line><line x1="51.53200149536133" y1="35.1261615576124" x2="46.53200149536133" y2="35.1261615576124" style="visibility: inherit;" fill="rgb(0, 0, 0)" stroke="rgb(204, 204, 204)" stroke-width="1px"></line><line x1="51.53200149536133" y1="21.40991891784499" x2="46.53200149536133" y2="21.40991891784499" style="visibility: inherit;" fill="rgb(0, 0, 0)" stroke="rgb(204, 204, 204)" stroke-width="1px"></line><line x1="51.53200149536133" y1="9.813001006567728" x2="46.53200149536133" y2="9.813001006567728" style="visibility: inherit;" fill="rgb(0, 0, 0)" stroke="rgb(204, 204, 204)" stroke-width="1px"></line></g><g transform="translate(41.53200149536133, 0)"><text style="text-anchor: end; visibility: hidden; font-family: Roboto, sans-serif; font-size: 12px; font-weight: 200;" x="0" y="172.99319415606033" dx="0em" dy="0.3em" fill="rgb(50, 49, 63)" stroke="none" stroke-width="1px">0.08</text><text style="text-anchor: end; visibility: inherit; font-family: Roboto, sans-serif; font-size: 12px; font-weight: 200;" x="0" y="164.13225239843212" dx="0em" dy="0.3em" fill="rgb(50, 49, 63)" stroke="none" stroke-width="1px">0.09</text><text style="text-anchor: end; visibility: hidden; font-family: Roboto, sans-serif; font-size: 12px; font-weight: 200;" x="0" y="156.2058698969545" dx="0em" dy="0.3em" fill="rgb(50, 49, 63)" stroke="none" stroke-width="1px">0.1</text><text style="text-anchor: end; visibility: inherit; font-family: Roboto, sans-serif; font-size: 12px; font-weight: 200;" x="0" y="104.05967785683633" dx="0em" dy="0.3em" fill="rgb(50, 49, 63)" stroke="none" stroke-width="1px">0.2</text><text style="text-anchor: end; visibility: hidden; font-family: Roboto, sans-serif; font-size: 12px; font-weight: 200;" x="0" y="73.55611095796317" dx="0em" dy="0.3em" fill="rgb(50, 49, 63)" stroke="none" stroke-width="1px">0.3</text><text style="text-anchor: end; visibility: inherit; font-family: Roboto, sans-serif; font-size: 12px; font-weight: 200;" x="0" y="51.913485816718186" dx="0em" dy="0.3em" fill="rgb(50, 49, 63)" stroke="none" stroke-width="1px">0.4</text><text style="text-anchor: end; visibility: hidden; font-family: Roboto, sans-serif; font-size: 12px; font-weight: 200;" x="0" y="35.1261615576124" dx="0em" dy="0.3em" fill="rgb(50, 49, 63)" stroke="none" stroke-width="1px">0.5</text><text style="text-anchor: end; visibility: inherit; font-family: Roboto, sans-serif; font-size: 12px; font-weight: 200;" x="0" y="21.40991891784499" dx="0em" dy="0.3em" fill="rgb(50, 49, 63)" stroke="none" stroke-width="1px">0.6</text><text style="text-anchor: end; visibility: hidden; font-family: Roboto, sans-serif; font-size: 12px; font-weight: 200;" x="0" y="9.813001006567728" dx="0em" dy="0.3em" fill="rgb(50, 49, 63)" stroke="none" stroke-width="1px">0.7</text></g><line x1="51.53200149536133" y1="0" x2="51.53200149536133" y2="177.86299896240234" fill="rgb(0, 0, 0)" stroke="rgb(204, 204, 204)" stroke-width="1px"></line></g></g><g transform="translate(51, 0)" clip-path="url(#clip_0)"><clipPath id="clip_0"><rect width="278" height="177"></rect></clipPath><g><g><g><line x1="0" y1="0" x2="0" y2="177.86299896240234" fill="rgb(0, 0, 0)" stroke="rgb(60, 60, 60)" stroke-width="1px" opacity="0.25"></line><line x1="27.846799850463867" y1="0" x2="27.846799850463867" y2="177.86299896240234" fill="rgb(0, 0, 0)" stroke="rgb(60, 60, 60)" stroke-width="1px" opacity="0.25"></line><line x1="55.693599700927734" y1="0" x2="55.693599700927734" y2="177.86299896240234" fill="rgb(0, 0, 0)" stroke="rgb(60, 60, 60)" stroke-width="1px" opacity="0.25"></line><line x1="83.5403995513916" y1="0" x2="83.5403995513916" y2="177.86299896240234" fill="rgb(0, 0, 0)" stroke="rgb(60, 60, 60)" stroke-width="1px" opacity="0.25"></line><line x1="111.38719940185547" y1="0" x2="111.38719940185547" y2="177.86299896240234" fill="rgb(0, 0, 0)" stroke="rgb(60, 60, 60)" stroke-width="1px" opacity="0.25"></line><line x1="139.23399925231934" y1="0" x2="139.23399925231934" y2="177.86299896240234" fill="rgb(0, 0, 0)" stroke="rgb(60, 60, 60)" stroke-width="1px" opacity="0.25"></line><line x1="167.0807991027832" y1="0" x2="167.0807991027832" y2="177.86299896240234" fill="rgb(0, 0, 0)" stroke="rgb(60, 60, 60)" stroke-width="1px" opacity="0.25"></line><line x1="194.92759895324707" y1="0" x2="194.92759895324707" y2="177.86299896240234" fill="rgb(0, 0, 0)" stroke="rgb(60, 60, 60)" stroke-width="1px" opacity="0.25"></line><line x1="222.77439880371094" y1="0" x2="222.77439880371094" y2="177.86299896240234" fill="rgb(0, 0, 0)" stroke="rgb(60, 60, 60)" stroke-width="1px" opacity="0.25"></line><line x1="250.6211986541748" y1="0" x2="250.6211986541748" y2="177.86299896240234" fill="rgb(0, 0, 0)" stroke="rgb(60, 60, 60)" stroke-width="1px" opacity="0.25"></line><line x1="278.4679985046387" y1="0" x2="278.4679985046387" y2="177.86299896240234" fill="rgb(0, 0, 0)" stroke="rgb(60, 60, 60)" stroke-width="1px" opacity="0.25"></line></g><g><line x1="0" y1="172.99319415606033" x2="278.4679985046387" y2="172.99319415606033" fill="rgb(0, 0, 0)" stroke="rgb(60, 60, 60)" stroke-width="1px" opacity="0.25"></line><line x1="0" y1="164.13225239843212" x2="278.4679985046387" y2="164.13225239843212" fill="rgb(0, 0, 0)" stroke="rgb(60, 60, 60)" stroke-width="1px" opacity="0.25"></line><line x1="0" y1="156.2058698969545" x2="278.4679985046387" y2="156.2058698969545" fill="rgb(0, 0, 0)" stroke="rgb(60, 60, 60)" stroke-width="1px" opacity="0.25"></line><line x1="0" y1="104.05967785683633" x2="278.4679985046387" y2="104.05967785683633" fill="rgb(0, 0, 0)" stroke="rgb(60, 60, 60)" stroke-width="1px" opacity="0.25"></line><line x1="0" y1="73.55611095796317" x2="278.4679985046387" y2="73.55611095796317" fill="rgb(0, 0, 0)" stroke="rgb(60, 60, 60)" stroke-width="1px" opacity="0.25"></line><line x1="0" y1="51.913485816718186" x2="278.4679985046387" y2="51.913485816718186" fill="rgb(0, 0, 0)" stroke="rgb(60, 60, 60)" stroke-width="1px" opacity="0.25"></line><line x1="0" y1="35.1261615576124" x2="278.4679985046387" y2="35.1261615576124" fill="rgb(0, 0, 0)" stroke="rgb(60, 60, 60)" stroke-width="1px" opacity="0.25"></line><line x1="0" y1="21.40991891784499" x2="278.4679985046387" y2="21.40991891784499" fill="rgb(0, 0, 0)" stroke="rgb(60, 60, 60)" stroke-width="1px" opacity="0.25"></line><line x1="0" y1="9.813001006567728" x2="278.4679985046387" y2="9.813001006567728" fill="rgb(0, 0, 0)" stroke="rgb(60, 60, 60)" stroke-width="1px" opacity="0.25"></line></g></g></g><g><g><line x1="27.846799850463867" y1="0" x2="27.846799850463867" y2="177.86299896240234" fill="rgb(0, 0, 0)" stroke="rgb(153, 153, 153)" stroke-width="1.5px"></line></g></g><g><g><g><g><g><path style="fill: none;" stroke="rgb(255, 112, 67)" stroke-width="2px" d="M29.5176078414917,0.19429177907079717L31.32764983177185,13.295366027602467L32.99845782279968,59.43340081675562L34.808499813079834,97.442662180187L36.47930780410767,108.68391689360105L38.28934979438782,112.99077751377595L39.960157785415646,126.10658465803117L41.7701997756958,136.80320727194496L43.44100776672363,157.17852224295996L45.251049757003784,155.75536788963328L46.92185774803162,176.9260672396649L48.73189973831177,139.67957330461667L50.402707729339596,126.71222810145208L52.21274971961975,88.48557672325941L53.88355771064759,109.15050856634046L55.693599700927734,98.72182639815593L57.36440769195556,108.58840839410777L59.17444968223572,118.011216368238L60.845257673263546,60.41963026782859L62.6552996635437,76.58215010685652L64.32610765457153,79.94645015577788L66.13614964485168,50.26286496825256L67.80695763587951,25.35228802622264L69.61699962615967,50.26641190081975L71.2878076171875,46.95821824013018L73.09784960746765,70.40839855135998L74.7686575984955,77.1605510110997L76.57869958877563,42.52073576474019L78.24950757980348,57.04568039972015L80.05954957008362,84.39628569764737L81.73035756111145,108.28783101402188L83.5403995513916,106.6992324709389L85.21120754241943,125.6444735645763L87.02124953269958,102.87704455596824L88.69205752372741,68.87117419092387L90.50209951400757,60.05495786220119L92.17290750503541,22.498509045702235L93.98294949531555,46.08545091978344L95.6537574863434,65.40215687916245L97.46379947662354,85.46967498355224L99.13460746765136,118.7196222376742L100.94464945793152,88.6271501719339L102.61545744895935,92.18827801121635L104.4254994392395,90.75795247380725L106.09630743026733,113.35184385001828L107.90634942054749,107.31306190279632L109.57715741157533,94.24195829958784L111.38719940185547,56.55445850104099L113.05800739288331,87.303405018574L114.86804938316345,68.6722827270647L116.53885737419128,21.253418752725327L118.34889936447144,50.088315603632076L120.01970735549926,78.01413323249773L121.82974934577942,39.364445362855925L123.50055733680725,69.98129150480729L125.3105993270874,69.19776709236305L126.98140731811525,85.56045426463588L128.79144930839539,83.12710541672847L130.46225729942321,93.7267038287259L132.27229928970337,99.14345571316403L133.9431072807312,80.65556875988005L135.75314927101135,61.402674863318786L137.42395726203918,21.701673579123174L139.23399925231934,56.195533478996026L140.90480724334716,86.17278206151236L142.71484923362732,91.72487585472376L144.38565722465515,32.88569008960155L146.1956992149353,25.408999851771753L147.86650720596313,46.83784294766858L149.6765491962433,57.985344686986345L151.34735718727111,60.64930558891803L153.15739917755127,38.12056829570104L154.82820716857913,32.999698171880176L156.63824915885925,55.42120479303006L158.30905714988708,82.48795016517433L160.11909914016724,34.855931931468255L161.78990713119506,8.987135107772485L163.59994912147522,38.10063069549979L165.27075711250305,50.317857504580935L167.0807991027832,70.33453514008453L168.75160709381103,101.88632616698617L170.5616490840912,114.19458564496023L172.23245707511904,66.32333333718003L174.04249906539917,99.32511821804597L175.713307056427,122.43772824292277L177.52334904670715,116.45434876863091L179.19415703773498,113.22149288805305L181.00419902801514,61.551596864201855L182.67500701904297,90.95375112415171L184.48504900932312,101.99481696062149L186.15585700035095,136.1803735582315L187.9658989906311,158.50642406834524L189.63670698165896,161.46352787202687L191.4467489719391,160.5406653257958L193.11755696296692,157.65189064399274L194.92759895324707,152.34664723702792L196.5984069442749,118.07258992272402L198.40844893455505,134.53590633274962L200.07925692558288,96.31056096473766L201.88929891586304,110.77482279017072L203.56010690689087,130.57714094293934L205.37014889717102,110.08327817771016L207.04095688819888,113.5787344294639L208.850998878479,88.54371626669143L210.52180686950683,110.63029452427243L212.331848859787,107.37342903071092L214.00265685081482,75.26263547725476L215.81269884109497,71.01130163333859L217.4835068321228,98.80784124404343L219.29354882240295,124.00609485332485L220.96435681343078,84.77102206226894L222.77439880371094,92.0214605522509L224.4452067947388,77.04410368426144L226.25524878501892,106.1877361580735L227.92605677604675,126.64147610118705L229.7360987663269,152.4539991106306L231.40690675735473,95.98328173859841L233.2169487476349,121.71100991901895L234.88775673866272,50.399140614283L236.69779872894287,26.29718553236214L238.3686067199707,45.64371792884462L240.17864871025085,36.810827703816784L241.8494567012787,61.67503255999219L243.65949869155884,66.39328844877039L245.33030668258667,96.85397455259503L247.14034867286682,114.14857010022448L248.81115666389465,102.28022499196327L250.6211986541748,80.1363791180353L252.29200664520263,63.86748082672127L254.1020486354828,88.395272842547L255.77285662651062,106.2000175204687L257.58289861679077,99.04390669678351L259.25370660781863,118.48921213322076L261.06374859809875,54.65514207951463L262.7345565891266,77.54336475129645L264.54459857940674,97.4692319785956L266.21540657043454,105.3568022795526L268.0254485607147,106.12594971873578L269.6962565517426,130.64667114085543L271.5062985420227,86.00831440063655" fill="none"></path></g></g></g></g><g opacity="0.2"><g><g><g><path style="fill: none;" stroke="rgb(255, 112, 67)" stroke-width="2px" d="M29.5176078414917,0.19429177907079717L31.32764983177185,22.412800376902492L32.99845782279968,185.41926203166008L34.808499813079834,209.0189887576438L36.47930780410767,126.45717215794225L38.28934979438782,119.3869139537103L39.960157785415646,150.02639655243888L41.7701997756958,155.76254900360178L43.44100776672363,203.36147977689276L45.251049757003784,153.69060737523978L46.92185774803162,226.7821622779181L48.73189973831177,105.09555625228343L50.402707729339596,110.71276628357955L52.21274971961975,53.27806769773143L53.88355771064759,157.4550953708406L55.693599700927734,85.37807011210724L57.36440769195556,126.33629064515235L59.17444968223572,134.80949370416707L60.845257673263546,16.10429319117254L62.6552996635437,110.09457564556601L64.32610765457153,85.29279986019895L66.13614964485168,20.311502256190696L67.80695763587951,-1.1770913720006984L69.61699962615967,117.1381689375773L71.2878076171875,42.25368663897729L73.09784960746765,130.25291888309792L74.7686575984955,88.58190553055348L76.57869958877563,9.380868365521225L78.24950757980348,85.9990281710768L80.05954957008362,165.03811133389263L81.73035756111145,170.1690430597694L83.5403995513916,104.37751461570072L85.21120754241943,167.87534857556403L87.02124953269958,78.01148874594102L88.69205752372741,36.120160955596795L90.50209951400757,48.50918749073081L92.17290750503541,-12.364520404448594L93.98294949531555,106.55410267032461L95.6537574863434,108.90332092982837L97.46379947662354,131.625860218665L99.13460746765136,253.66138281840267L100.94464945793152,58.398899842622306L102.61545744895935,97.8674835981333L104.4254994392395,88.66219535854553L106.09630743026733,169.42815054902357L107.90634942054749,99.0766809093987L109.57715741157533,78.10535331355933L111.38719940185547,21.61646124818959L113.05800739288331,193.840983103323L114.86804938316345,47.27157400397767L116.53885737419128,-18.726450403652354L118.34889936447144,140.82588841214923L120.01970735549926,162.38613306452393L121.82974934577942,3.8822561616038582L123.50055733680725,175.3009384302767L125.3105993270874,68.03757182490651L126.98140731811525,119.65960515480309L128.79144930839539,79.6185805600806L130.46225729942321,113.0924133650571L132.27229928970337,108.07843804712144L133.9431072807312,59.38128233636638L135.75314927101135,39.45838715751906L137.42395726203918,-14.362835261795363L140.90480724334716,185.88700294215352L142.71484923362732,100.9061640961491L144.38565722465515,-11.910448926512725L146.1956992149353,15.425914369068337L147.86650720596313,98.13493049318106L149.6765491962433,78.58965635163247L151.34735718727111,64.83092994666242L153.15739917755127,13.445641694172947L154.82820716857913,25.91800672269147L156.63824915885925,110.76615697961799L158.30905714988708,161.3650417043123L160.11909914016724,-5.223786693744599L161.78990713119506,-18.259946947915644L163.59994912147522,130.91854519650272L165.27075711250305,73.42807577407633L167.0807991027832,116.3071001989888L168.75160709381103,216.33440165371707L170.5616490840912,137.5236412425054L172.23245707511904,26.13204179632371L174.04249906539917,230.8690218079963L175.713307056427,180.76911539967676L177.52334904670715,108.28676502913981L179.19415703773498,108.61864859609022L181.00419902801514,19.65616565730584L182.67500701904297,185.99808272027266L184.48504900932312,122.35620597397961L186.15585700035095,285.64574292804724L187.9658989906311,213.45014775463594L189.63670698165896,166.12924862497874L191.4467489719391,159.1772569517079L193.11755696296692,153.5166314692951L194.92759895324707,145.0304588921749L196.5984069442749,85.15641644917945L198.40844893455505,168.93104005365598L200.07925692558288,61.06702796050601L201.88929891586304,139.56619556640246L203.56010690689087,175.7817433107189L205.37014889717102,87.07879018096587L207.04095688819888,119.14668982996909L208.850998878479,61.91996850375177L210.52180686950683,164.57897077563155L212.331848859787,102.73814484058191L214.00265685081482,43.706348512533395L215.81269884109497,65.053407153805L217.4835068321228,182.32272361932962L219.29354882240295,192.3392123773649L220.96435681343078,48.963030415218455L222.77439880371094,104.40376666758064L224.4452067947388,59.016457458240346L226.25524878501892,199.2346446800528L227.92605677604675,174.21154877284866L229.7360987663269,224.06497335561497L231.40690675735473,52.10291361533404L233.2169487476349,192.85929755047195L234.88775673866272,1.3760951718009262L236.69779872894287,0.3855293169262225L238.3686067199707,89.24808991003407L240.17864871025085,25.245981499874826L241.8494567012787,128.29450714110652L243.65949869155884,74.07665012296059L245.33030668258667,200.76152739217213L247.14034867286682,151.05010313009564L248.81115666389465,87.38733354520886L250.6211986541748,55.77114936934179L252.29200664520263,44.611279844063645L254.1020486354828,153.33496360731203L255.77285662651062,144.69640438324194L257.58289861679077,89.44388031763961L259.25370660781863,162.43667427572126L261.06374859809875,8.05271021161843L262.7345565891266,134.88902991440347L264.54459857940674,143.1152354128423L266.21540657043454,118.99548053709411L268.0254485607147,107.29461920666533L269.6962565517426,195.55153580281777L271.5062985420227,47.36996139174562" fill="none"></path></g></g></g></g></g></g><g transform="translate(51, 177)" clip-path="url(#clip_1)"><clipPath id="clip_1"><rect width="278" height="22"></rect></clipPath><g><g><line x1="0" y1="0" x2="0" y2="5" style="visibility: inherit;" fill="rgb(0, 0, 0)" stroke="rgb(204, 204, 204)" stroke-width="1px"></line><line x1="27.846799850463867" y1="0" x2="27.846799850463867" y2="5" style="visibility: inherit;" fill="rgb(0, 0, 0)" stroke="rgb(204, 204, 204)" stroke-width="1px"></line><line x1="55.693599700927734" y1="0" x2="55.693599700927734" y2="5" style="visibility: inherit;" fill="rgb(0, 0, 0)" stroke="rgb(204, 204, 204)" stroke-width="1px"></line><line x1="83.5403995513916" y1="0" x2="83.5403995513916" y2="5" style="visibility: inherit;" fill="rgb(0, 0, 0)" stroke="rgb(204, 204, 204)" stroke-width="1px"></line><line x1="111.38719940185547" y1="0" x2="111.38719940185547" y2="5" style="visibility: inherit;" fill="rgb(0, 0, 0)" stroke="rgb(204, 204, 204)" stroke-width="1px"></line><line x1="139.23399925231934" y1="0" x2="139.23399925231934" y2="5" style="visibility: inherit;" fill="rgb(0, 0, 0)" stroke="rgb(204, 204, 204)" stroke-width="1px"></line><line x1="167.0807991027832" y1="0" x2="167.0807991027832" y2="5" style="visibility: inherit;" fill="rgb(0, 0, 0)" stroke="rgb(204, 204, 204)" stroke-width="1px"></line><line x1="194.92759895324707" y1="0" x2="194.92759895324707" y2="5" style="visibility: inherit;" fill="rgb(0, 0, 0)" stroke="rgb(204, 204, 204)" stroke-width="1px"></line><line x1="222.77439880371094" y1="0" x2="222.77439880371094" y2="5" style="visibility: inherit;" fill="rgb(0, 0, 0)" stroke="rgb(204, 204, 204)" stroke-width="1px"></line><line x1="250.6211986541748" y1="0" x2="250.6211986541748" y2="5" style="visibility: inherit;" fill="rgb(0, 0, 0)" stroke="rgb(204, 204, 204)" stroke-width="1px"></line><line x1="278.4679985046387" y1="0" x2="278.4679985046387" y2="5" style="visibility: inherit;" fill="rgb(0, 0, 0)" stroke="rgb(204, 204, 204)" stroke-width="1px"></line></g><g transform="translate(0, 8)"><text style="text-anchor: middle; visibility: hidden; font-family: Roboto, sans-serif; font-size: 12px; font-weight: 200;" x="0" y="0" dx="0em" dy="0.95em" fill="rgb(50, 49, 63)" stroke="none" stroke-width="1px">-200</text><text style="text-anchor: middle; visibility: inherit; font-family: Roboto, sans-serif; font-size: 12px; font-weight: 200;" x="27.846799850463867" y="0" dx="0em" dy="0.95em" fill="rgb(50, 49, 63)" stroke="none" stroke-width="1px">0</text><text style="text-anchor: middle; visibility: hidden; font-family: Roboto, sans-serif; font-size: 12px; font-weight: 200;" x="55.693599700927734" y="0" dx="0em" dy="0.95em" fill="rgb(50, 49, 63)" stroke="none" stroke-width="1px">200</text><text style="text-anchor: middle; visibility: inherit; font-family: Roboto, sans-serif; font-size: 12px; font-weight: 200;" x="83.5403995513916" y="0" dx="0em" dy="0.95em" fill="rgb(50, 49, 63)" stroke="none" stroke-width="1px">400</text><text style="text-anchor: middle; visibility: hidden; font-family: Roboto, sans-serif; font-size: 12px; font-weight: 200;" x="111.38719940185547" y="0" dx="0em" dy="0.95em" fill="rgb(50, 49, 63)" stroke="none" stroke-width="1px">600</text><text style="text-anchor: middle; visibility: inherit; font-family: Roboto, sans-serif; font-size: 12px; font-weight: 200;" x="139.23399925231934" y="0" dx="0em" dy="0.95em" fill="rgb(50, 49, 63)" stroke="none" stroke-width="1px">800</text><text style="text-anchor: middle; visibility: hidden; font-family: Roboto, sans-serif; font-size: 12px; font-weight: 200;" x="167.0807991027832" y="0" dx="0em" dy="0.95em" fill="rgb(50, 49, 63)" stroke="none" stroke-width="1px">1k</text><text style="text-anchor: middle; visibility: inherit; font-family: Roboto, sans-serif; font-size: 12px; font-weight: 200;" x="194.92759895324707" y="0" dx="0em" dy="0.95em" fill="rgb(50, 49, 63)" stroke="none" stroke-width="1px">1.2k</text><text style="text-anchor: middle; visibility: hidden; font-family: Roboto, sans-serif; font-size: 12px; font-weight: 200;" x="222.77439880371094" y="0" dx="0em" dy="0.95em" fill="rgb(50, 49, 63)" stroke="none" stroke-width="1px">1.4k</text><text style="text-anchor: middle; visibility: inherit; font-family: Roboto, sans-serif; font-size: 12px; font-weight: 200;" x="250.6211986541748" y="0" dx="0em" dy="0.95em" fill="rgb(50, 49, 63)" stroke="none" stroke-width="1px">1.6k</text><text style="text-anchor: middle; visibility: hidden; font-family: Roboto, sans-serif; font-size: 12px; font-weight: 200;" x="278.4679985046387" y="0" dx="0em" dy="0.95em" fill="rgb(50, 49, 63)" stroke="none" stroke-width="1px">1.8k</text></g><line x1="0" y1="0" x2="278.4679985046387" y2="0" fill="rgb(0, 0, 0)" stroke="rgb(204, 204, 204)" stroke-width="1px"></line></g></g></g></g></svg>