<svg viewBox="0 0 330 200" xmlns="http://www.w3.org/2000/svg"><g><g><g><g><g><line x1="41.149001121520996" y1="177.86299896240234" x2="36.149001121520996" y2="177.86299896240234" style="visibility: inherit;" fill="rgb(0, 0, 0)" stroke="rgb(204, 204, 204)" stroke-width="1px"></line><line x1="41.149001121520996" y1="155.63012409210205" x2="36.149001121520996" y2="155.63012409210205" style="visibility: inherit;" fill="rgb(0, 0, 0)" stroke="rgb(204, 204, 204)" stroke-width="1px"></line><line x1="41.149001121520996" y1="133.39724922180176" x2="36.149001121520996" y2="133.39724922180176" style="visibility: inherit;" fill="rgb(0, 0, 0)" stroke="rgb(204, 204, 204)" stroke-width="1px"></line><line x1="41.149001121520996" y1="111.16437435150146" x2="36.149001121520996" y2="111.16437435150146" style="visibility: inherit;" fill="rgb(0, 0, 0)" stroke="rgb(204, 204, 204)" stroke-width="1px"></line><line x1="41.149001121520996" y1="88.93149948120117" x2="36.149001121520996" y2="88.93149948120117" style="visibility: inherit;" fill="rgb(0, 0, 0)" stroke="rgb(204, 204, 204)" stroke-width="1px"></line><line x1="41.149001121520996" y1="66.69862461090088" x2="36.149001121520996" y2="66.69862461090088" style="visibility: inherit;" fill="rgb(0, 0, 0)" stroke="rgb(204, 204, 204)" stroke-width="1px"></line><line x1="41.149001121520996" y1="44.46574974060061" x2="36.149001121520996" y2="44.46574974060061" style="visibility: inherit;" fill="rgb(0, 0, 0)" stroke="rgb(204, 204, 204)" stroke-width="1px"></line><line x1="41.149001121520996" y1="22.232874870300314" x2="36.149001121520996" y2="22.232874870300314" style="visibility: inherit;" fill="rgb(0, 0, 0)" stroke="rgb(204, 204, 204)" stroke-width="1px"></line><line x1="41.149001121520996" y1="0" x2="36.149001121520996" y2="0" style="visibility: inherit;" fill="rgb(0, 0, 0)" stroke="rgb(204, 204, 204)" stroke-width="1px"></line></g><g transform="translate(31.149001121520996, 0)"><text style="text-anchor: end; visibility: hidden; font-family: Roboto, sans-serif; font-size: 12px; font-weight: 200;" x="0" y="177.86299896240234" dx="0em" dy="0.3em" fill="rgb(50, 49, 63)" stroke="none" stroke-width="1px">0</text><text style="text-anchor: end; visibility: inherit; font-family: Roboto, sans-serif; font-size: 12px; font-weight: 200;" x="0" y="155.63012409210205" dx="0em" dy="0.3em" fill="rgb(50, 49, 63)" stroke="none" stroke-width="1px">0.1</text><text style="text-anchor: end; visibility: hidden; font-family: Roboto, sans-serif; font-size: 12px; font-weight: 200;" x="0" y="133.39724922180176" dx="0em" dy="0.3em" fill="rgb(50, 49, 63)" stroke="none" stroke-width="1px">0.2</text><text style="text-anchor: end; visibility: inherit; font-family: Roboto, sans-serif; font-size: 12px; font-weight: 200;" x="0" y="111.16437435150146" dx="0em" dy="0.3em" fill="rgb(50, 49, 63)" stroke="none" stroke-width="1px">0.3</text><text style="text-anchor: end; visibility: hidden; font-family: Roboto, sans-serif; font-size: 12px; font-weight: 200;" x="0" y="88.93149948120117" dx="0em" dy="0.3em" fill="rgb(50, 49, 63)" stroke="none" stroke-width="1px">0.4</text><text style="text-anchor: end; visibility: inherit; font-family: Roboto, sans-serif; font-size: 12px; font-weight: 200;" x="0" y="66.69862461090088" dx="0em" dy="0.3em" fill="rgb(50, 49, 63)" stroke="none" stroke-width="1px">0.5</text><text style="text-anchor: end; visibility: hidden; font-family: Roboto, sans-serif; font-size: 12px; font-weight: 200;" x="0" y="44.46574974060061" dx="0em" dy="0.3em" fill="rgb(50, 49, 63)" stroke="none" stroke-width="1px">0.6</text><text style="text-anchor: end; visibility: inherit; font-family: Roboto, sans-serif; font-size: 12px; font-weight: 200;" x="0" y="22.232874870300314" dx="0em" dy="0.3em" fill="rgb(50, 49, 63)" stroke="none" stroke-width="1px">0.7</text><text style="text-anchor: end; visibility: hidden; font-family: Roboto, sans-serif; font-size: 12px; font-weight: 200;" x="0" y="0" dx="0em" dy="0.3em" fill="rgb(50, 49, 63)" stroke="none" stroke-width="1px">0.8</text></g><line x1="41.149001121520996" y1="0" x2="41.149001121520996" y2="177.86299896240234" fill="rgb(0, 0, 0)" stroke="rgb(204, 204, 204)" stroke-width="1px"></line></g></g><g transform="translate(41, 0)" clip-path="url(#clip_0)"><clipPath id="clip_0"><rect width="288" height="177"></rect></clipPath><g><g><g><line x1="0" y1="0" x2="0" y2="177.86299896240234" fill="rgb(0, 0, 0)" stroke="rgb(60, 60, 60)" stroke-width="1px" opacity="0.25"></line><line x1="28.8850998878479" y1="0" x2="28.8850998878479" y2="177.86299896240234" fill="rgb(0, 0, 0)" stroke="rgb(60, 60, 60)" stroke-width="1px" opacity="0.25"></line><line x1="57.7701997756958" y1="0" x2="57.7701997756958" y2="177.86299896240234" fill="rgb(0, 0, 0)" stroke="rgb(60, 60, 60)" stroke-width="1px" opacity="0.25"></line><line x1="86.6552996635437" y1="0" x2="86.6552996635437" y2="177.86299896240234" fill="rgb(0, 0, 0)" stroke="rgb(60, 60, 60)" stroke-width="1px" opacity="0.25"></line><line x1="115.5403995513916" y1="0" x2="115.5403995513916" y2="177.86299896240234" fill="rgb(0, 0, 0)" stroke="rgb(60, 60, 60)" stroke-width="1px" opacity="0.25"></line><line x1="144.4254994392395" y1="0" x2="144.4254994392395" y2="177.86299896240234" fill="rgb(0, 0, 0)" stroke="rgb(60, 60, 60)" stroke-width="1px" opacity="0.25"></line><line x1="173.3105993270874" y1="0" x2="173.3105993270874" y2="177.86299896240234" fill="rgb(0, 0, 0)" stroke="rgb(60, 60, 60)" stroke-width="1px" opacity="0.25"></line><line x1="202.1956992149353" y1="0" x2="202.1956992149353" y2="177.86299896240234" fill="rgb(0, 0, 0)" stroke="rgb(60, 60, 60)" stroke-width="1px" opacity="0.25"></line><line x1="231.0807991027832" y1="0" x2="231.0807991027832" y2="177.86299896240234" fill="rgb(0, 0, 0)" stroke="rgb(60, 60, 60)" stroke-width="1px" opacity="0.25"></line><line x1="259.9658989906311" y1="0" x2="259.9658989906311" y2="177.86299896240234" fill="rgb(0, 0, 0)" stroke="rgb(60, 60, 60)" stroke-width="1px" opacity="0.25"></line><line x1="288.850998878479" y1="0" x2="288.850998878479" y2="177.86299896240234" fill="rgb(0, 0, 0)" stroke="rgb(60, 60, 60)" stroke-width="1px" opacity="0.25"></line></g><g><line x1="0" y1="177.86299896240234" x2="288.850998878479" y2="177.86299896240234" fill="rgb(0, 0, 0)" stroke="rgb(60, 60, 60)" stroke-width="1px" opacity="0.25"></line><line x1="0" y1="155.63012409210205" x2="288.850998878479" y2="155.63012409210205" fill="rgb(0, 0, 0)" stroke="rgb(60, 60, 60)" stroke-width="1px" opacity="0.25"></line><line x1="0" y1="133.39724922180176" x2="288.850998878479" y2="133.39724922180176" fill="rgb(0, 0, 0)" stroke="rgb(60, 60, 60)" stroke-width="1px" opacity="0.25"></line><line x1="0" y1="111.16437435150146" x2="288.850998878479" y2="111.16437435150146" fill="rgb(0, 0, 0)" stroke="rgb(60, 60, 60)" stroke-width="1px" opacity="0.25"></line><line x1="0" y1="88.93149948120117" x2="288.850998878479" y2="88.93149948120117" fill="rgb(0, 0, 0)" stroke="rgb(60, 60, 60)" stroke-width="1px" opacity="0.25"></line><line x1="0" y1="66.69862461090088" x2="288.850998878479" y2="66.69862461090088" fill="rgb(0, 0, 0)" stroke="rgb(60, 60, 60)" stroke-width="1px" opacity="0.25"></line><line x1="0" y1="44.46574974060061" x2="288.850998878479" y2="44.46574974060061" fill="rgb(0, 0, 0)" stroke="rgb(60, 60, 60)" stroke-width="1px" opacity="0.25"></line><line x1="0" y1="22.232874870300314" x2="288.850998878479" y2="22.232874870300314" fill="rgb(0, 0, 0)" stroke="rgb(60, 60, 60)" stroke-width="1px" opacity="0.25"></line><line x1="0" y1="0" x2="288.850998878479" y2="0" fill="rgb(0, 0, 0)" stroke="rgb(60, 60, 60)" stroke-width="1px" opacity="0.25"></line></g></g></g><g><g><line x1="0" y1="177.86299896240234" x2="288.850998878479" y2="177.86299896240234" fill="rgb(0, 0, 0)" stroke="rgb(153, 153, 153)" stroke-width="1.5px"></line></g></g><g><g><line x1="28.8850998878479" y1="0" x2="28.8850998878479" y2="177.86299896240234" fill="rgb(0, 0, 0)" stroke="rgb(153, 153, 153)" stroke-width="1.5px"></line></g></g><g><g><g><g><g><path style="fill: none;" stroke="rgb(255, 112, 67)" stroke-width="2px" d="M30.618205881118772,173.12645301278835L32.49573737382889,159.34542896580322L34.22884336709976,163.08950590301743L36.106374859809875,165.74700419299882L37.83948085308075,157.5065719873058L39.71701234579086,165.0704201653913L41.45011833906173,167.55308849675117L43.32764983177185,149.16573527433061L45.060755825042726,118.5097849782325L46.93828731775284,138.76892739247083L48.671393311023714,33.24231440699264L50.548924803733826,60.67068300427659L52.2820307970047,64.1634954722473L54.15956228971481,108.24396640561302L55.89266828298569,85.68595870386582L57.7701997756958,100.15135249433338L59.50330576896667,18.659913118157178L61.38083726167679,54.23673372521028L63.113943254947664,78.07522372858163L64.99147474765778,117.2303690562124L66.72458074092866,93.95349218360974L68.60211223363876,124.08845686619162L70.33521822690963,145.05870316210797L72.21274971961975,147.56665823463962L73.94585571289063,151.39317273243927L75.82338720560074,148.0108792712614L77.55649319887162,155.08997732232427L79.43402469158173,162.87026931012448L81.16713068485261,151.245982328315L83.04466217756271,110.4684804445621L84.77776817083358,53.82246550690955L86.6552996635437,62.636932546318775L88.38840565681457,25.595106093957746L90.26593714952469,78.28476763719358L91.99904314279557,83.99017769921835L93.87657463550568,120.35107041196349L95.60968062877656,141.18301391604678L97.48721212148666,145.21162492587325L99.22031811475755,103.54845116747022L101.09784960746765,124.59684538467435L102.83095560073852,1.9566922024848534L104.70848709344864,67.96024672628823L106.44159308671951,52.618286207407245L108.31912457942963,102.40875021778747L110.05223057270051,66.16143615312697L111.92976206541061,45.608288219890426L113.6628680586815,59.48318423328502L115.5403995513916,104.63412161919523L117.27350554466248,-59.32437152920807L119.15103703737259,35.28105357503423L120.88414303064346,91.77457156834305L122.76167452335358,23.24188621957215L124.49478051662444,17.83652940285739L126.37231200933456,76.44705441540432L128.10541800260543,102.36083644460669L129.98294949531555,66.81694328275445L131.71605548858642,83.34876340574759L133.59358698129654,81.42087932680647L135.3266929745674,80.33278803785674L137.20422446727753,73.35551781568631L138.9373304605484,104.16502129391074L140.81486195325851,131.55155289470238L142.54796794652938,127.04541700991956L144.4254994392395,107.56787615621633L146.15860543251037,84.49670254951717L148.0361369252205,108.55294087592434L149.76924291849136,115.82170376890969L151.64677441120148,140.0609158987503L153.37988040447235,91.35062885284715L155.25741189718246,121.89076079364064L156.99051789045333,129.90742253020102L158.86804938316345,148.9824890640977L160.60115537643435,156.66251010257145L162.47868686914444,110.96909747168137L164.2117928624153,35.07486454250327L166.08932435512543,87.13785431299638L167.8224303483963,120.04235452718895L169.69996184110641,111.5051777326721L171.43306783437728,76.14678435013596L173.3105993270874,72.5685692087807L175.04370532035827,78.53304841878604L176.9212368130684,116.22199825222036L178.6543428063393,136.67004494767724L180.53187429904938,137.72635217085016L182.26498029232025,91.89450598236778L184.14251178503036,122.3513959852514L185.87561777830123,127.13101624879079L187.75314927101135,144.80486833713007L189.48625526428222,157.35720266347332L191.36378675699234,102.2227841372479L193.0968927502632,132.0495692928589L194.97442424297333,149.85541126992135L196.70753023624422,154.0675508452574L198.58506172895432,128.3639135572545L200.31816772222518,137.2431902663099L202.1956992149353,76.83614835897953L203.92880520820617,106.08975480727673L205.8063367009163,124.50928316080636L207.53944269418716,142.59506482325062L209.41697418689728,95.72858826436912L211.15008018016815,67.66948580494889L213.02761167287827,109.75908501878209L214.76071766614916,44.00528251756585L216.63824915885925,92.9581992554461L218.37135515213012,117.11272623824625L220.24888664484024,108.4496361785063L221.9819926381111,97.08299878982584L223.85952413082123,126.73734944339063L225.5926301240921,62.0286555232296L227.47016161680222,90.29708084003167L229.20326761007308,105.81341002315945L231.0807991027832,78.99492898851992L232.8139050960541,72.87136568382248L234.6914365887642,-98.03053943595143L236.42454258203506,1.9733010600210164L238.30207407474518,-67.46747123274024L240.03518006801605,27.395624529815468L241.91271156072617,84.81655211621332L243.64581755399703,118.60991645695408L245.52334904670715,139.99442877959288L247.25645503997802,109.3899696835271L249.13398653268814,127.99434842794032L250.86709252595904,103.26580012765336L252.74462401866913,118.12105060585141L254.47773001194,8.520471131657235L256.3552615046501,57.72648115855353L258.08836749792096,68.62096424819025L259.9658989906311,20.365222753869258L261.699004983902,56.005416152943326L263.5765364766121,3.227810423364026L265.309642469883,42.68493196588407L267.1871739625931,66.34068943998342L268.920279955864,104.04892889080966L270.79781144857407,125.7431000766883L272.53091744184496,78.03426396576134L274.40844893455505,73.68629974462233L276.1415549278259,111.50354784480326L278.01908642053604,116.61397319465327L279.75219241380694,39.35894920402671L281.62972390651703,88.00675341260626" fill="none"></path></g></g></g></g><g opacity="0.2"><g><g><g><path style="fill: none;" stroke="rgb(255, 112, 67)" stroke-width="2px" d="M30.618205881118772,173.12645301278835L32.49573737382889,151.07681453761214L34.22884336709976,166.6838197627431L36.106374859809875,168.87222218201694L37.83948085308075,146.74786369955297L39.71701234579086,175.53394518102766L41.45011833906173,171.10334393328907L43.32764983177185,122.35679775745052L45.060755825042726,73.29821290327328L46.93828731775284,168.85139279612116L48.671393311023714,-124.09048645820508L50.548924803733826,101.6639719295328L52.2820307970047,69.39130953547857L54.15956228971481,174.27831457422025L55.89266828298569,51.875463242503315L57.7701997756958,121.83924106360035L59.50330576896667,-103.54276150005762L61.38083726167679,107.59293168489177L63.113943254947664,113.82932717962103L64.99147474765778,175.959508112282L66.72458074092866,59.03945343395333L68.60211223363876,169.28991228621524L70.33521822690963,176.51365858505036L72.21274971961975,151.3285611343183L73.94585571289063,157.13291728191143L75.82338720560074,142.93745350343113L77.55649319887162,165.7086062854469L79.43402469158173,174.5406953472439L81.16713068485261,133.80956256321195L83.04466217756271,49.30225015603821L84.77776817083358,-31.146538115134376L86.6552996635437,75.85863135164868L88.38840565681457,-29.967629162533626L90.26593714952469,157.31925617799487L91.99904314279557,92.54829254705538L93.87657463550568,174.892408543477L95.60968062877656,172.43092884986737L97.48721212148666,151.25454140321548L99.22031811475755,41.053690761920734L101.09784960746765,156.1694366401395L102.83095560073852,-182.00353732489066L104.70848709344864,166.96557843258614L106.44159308671951,29.60534544016025L108.31912457942963,177.09444621179316L110.05223057270051,11.790465065555622L111.92976206541061,14.77856632324017L113.6628680586815,80.29552825207884L115.5403995513916,172.36052769552617L117.27350554466248,-305.26211124629117L119.15103703737259,177.18919122948606L120.88414303064346,176.51484855762126L122.76167452335358,-79.55714180308564L124.49478051662444,9.728494177808898L126.37231200933456,164.36284193407124L128.10541800260543,141.23150948836948L129.98294949531555,13.50110354000958L131.71605548858642,108.14649359022792L133.59358698129654,78.52905320839551L135.3266929745674,78.70065110443232L137.20422446727753,62.88961248243152L138.9373304605484,150.3792765112451L140.81486195325851,172.63135029588864L142.54796794652938,120.28621318274543L144.4254994392395,78.35156487566178L146.15860543251037,49.889942139468644L148.0361369252205,144.63729836553495L149.76924291849136,126.72484810838765L151.64677441120148,176.41973409351118L153.37988040447235,18.285198283992486L155.25741189718246,167.70095870483087L156.99051789045333,141.9324151350416L158.86804938316345,177.59508886494268L160.60115537643435,168.18254166028203L162.47868686914444,42.428978525346224L164.2117928624153,-78.76648485126384L166.08932435512543,165.23233896873603L167.8224303483963,169.3991048484778L169.69996184110641,98.69941254089679L171.43306783437728,23.109194276331777L173.3105993270874,67.20124649674784L175.04370532035827,87.47976723379406L176.9212368130684,172.75542300237177L178.6543428063393,167.34211499086257L180.53187429904938,139.3108130056096L182.26498029232025,23.14673669964418L184.14251178503036,168.03673098957682L185.87561777830123,134.30044664409988L187.75314927101135,171.31564646963898L189.48625526428222,176.18570415298814L191.36378675699234,19.521156347909823L193.0968927502632,176.78974702627534L194.97442424297333,176.564174235515L196.70753023624422,160.38576020826144L198.58506172895432,89.80845762525018L200.31816772222518,150.56210532989303L202.1956992149353,-13.774414502016043L203.92880520820617,149.97016447972254L205.8063367009163,152.1385756911008L207.53944269418716,169.723737316917L209.41697418689728,25.428873426046835L211.15008018016815,25.580832115818566L213.02761167287827,172.89348383953183L214.76071766614916,-54.62542123425851L216.63824915885925,166.3875743622665L218.37135515213012,153.34451671244648L220.24888664484024,95.45500108889638L221.9819926381111,80.03304270680513L223.85952413082123,171.21887542373779L225.5926301240921,-35.034385357011956L227.47016161680222,132.69971881523472L229.20326761007308,129.08790379785114L231.0807991027832,38.767207436560625L232.8139050960541,63.68602072677629L234.6914365887642,-354.3833971156123L236.42454258203506,151.97906180397962L238.30207407474518,-171.6286296718822L240.03518006801605,169.69026817364897L241.91271156072617,170.94794349581008L243.64581755399703,169.29996296806522L245.52334904670715,172.07119726355108L247.25645503997802,63.48328103942845L249.13398653268814,155.90091654456015L250.86709252595904,66.17297767722289L252.74462401866913,140.40392632314845L254.47773001194,-155.880398079634L256.3552615046501,131.535496198898L258.08836749792096,84.96268888264535L259.9658989906311,-52.01838948761224L261.699004983902,109.46570625155442L263.5765364766121,-75.93859817100497L265.309642469883,101.8706142796641L267.1871739625931,101.82432565113243L268.920279955864,160.61128806704897L270.79781144857407,158.28435685550627L272.53091744184496,6.471009799370904L274.40844893455505,67.16435341291384L276.1415549278259,168.2294199950747L278.01908642053604,124.27961121942826L279.75219241380694,-76.52358678191308L281.62972390651703,160.97845972547557" fill="none"></path></g></g></g></g></g></g><g transform="translate(41, 177)" clip-path="url(#clip_1)"><clipPath id="clip_1"><rect width="288" height="22"></rect></clipPath><g><g><line x1="0" y1="0" x2="0" y2="5" style="visibility: inherit;" fill="rgb(0, 0, 0)" stroke="rgb(204, 204, 204)" stroke-width="1px"></line><line x1="28.8850998878479" y1="0" x2="28.8850998878479" y2="5" style="visibility: inherit;" fill="rgb(0, 0, 0)" stroke="rgb(204, 204, 204)" stroke-width="1px"></line><line x1="57.7701997756958" y1="0" x2="57.7701997756958" y2="5" style="visibility: inherit;" fill="rgb(0, 0, 0)" stroke="rgb(204, 204, 204)" stroke-width="1px"></line><line x1="86.6552996635437" y1="0" x2="86.6552996635437" y2="5" style="visibility: inherit;" fill="rgb(0, 0, 0)" stroke="rgb(204, 204, 204)" stroke-width="1px"></line><line x1="115.5403995513916" y1="0" x2="115.5403995513916" y2="5" style="visibility: inherit;" fill="rgb(0, 0, 0)" stroke="rgb(204, 204, 204)" stroke-width="1px"></line><line x1="144.4254994392395" y1="0" x2="144.4254994392395" y2="5" style="visibility: inherit;" fill="rgb(0, 0, 0)" stroke="rgb(204, 204, 204)" stroke-width="1px"></line><line x1="173.3105993270874" y1="0" x2="173.3105993270874" y2="5" style="visibility: inherit;" fill="rgb(0, 0, 0)" stroke="rgb(204, 204, 204)" stroke-width="1px"></line><line x1="202.1956992149353" y1="0" x2="202.1956992149353" y2="5" style="visibility: inherit;" fill="rgb(0, 0, 0)" stroke="rgb(204, 204, 204)" stroke-width="1px"></line><line x1="231.0807991027832" y1="0" x2="231.0807991027832" y2="5" style="visibility: inherit;" fill="rgb(0, 0, 0)" stroke="rgb(204, 204, 204)" stroke-width="1px"></line><line x1="259.9658989906311" y1="0" x2="259.9658989906311" y2="5" style="visibility: inherit;" fill="rgb(0, 0, 0)" stroke="rgb(204, 204, 204)" stroke-width="1px"></line><line x1="288.850998878479" y1="0" x2="288.850998878479" y2="5" style="visibility: inherit;" fill="rgb(0, 0, 0)" stroke="rgb(204, 204, 204)" stroke-width="1px"></line></g><g transform="translate(0, 8)"><text style="text-anchor: middle; visibility: hidden; font-family: Roboto, sans-serif; font-size: 12px; font-weight: 200;" x="0" y="0" dx="0em" dy="0.95em" fill="rgb(50, 49, 63)" stroke="none" stroke-width="1px">-200</text><text style="text-anchor: middle; visibility: inherit; font-family: Roboto, sans-serif; font-size: 12px; font-weight: 200;" x="28.8850998878479" y="0" dx="0em" dy="0.95em" fill="rgb(50, 49, 63)" stroke="none" stroke-width="1px">0</text><text style="text-anchor: middle; visibility: inherit; font-family: Roboto, sans-serif; font-size: 12px; font-weight: 200;" x="57.7701997756958" y="0" dx="0em" dy="0.95em" fill="rgb(50, 49, 63)" stroke="none" stroke-width="1px">200</text><text style="text-anchor: middle; visibility: inherit; font-family: Roboto, sans-serif; font-size: 12px; font-weight: 200;" x="86.6552996635437" y="0" dx="0em" dy="0.95em" fill="rgb(50, 49, 63)" stroke="none" stroke-width="1px">400</text><text style="text-anchor: middle; visibility: inherit; font-family: Roboto, sans-serif; font-size: 12px; font-weight: 200;" x="115.5403995513916" y="0" dx="0em" dy="0.95em" fill="rgb(50, 49, 63)" stroke="none" stroke-width="1px">600</text><text style="text-anchor: middle; visibility: inherit; font-family: Roboto, sans-serif; font-size: 12px; font-weight: 200;" x="144.4254994392395" y="0" dx="0em" dy="0.95em" fill="rgb(50, 49, 63)" stroke="none" stroke-width="1px">800</text><text style="text-anchor: middle; visibility: inherit; font-family: Roboto, sans-serif; font-size: 12px; font-weight: 200;" x="173.3105993270874" y="0" dx="0em" dy="0.95em" fill="rgb(50, 49, 63)" stroke="none" stroke-width="1px">1k</text><text style="text-anchor: middle; visibility: inherit; font-family: Roboto, sans-serif; font-size: 12px; font-weight: 200;" x="202.1956992149353" y="0" dx="0em" dy="0.95em" fill="rgb(50, 49, 63)" stroke="none" stroke-width="1px">1.2k</text><text style="text-anchor: middle; visibility: inherit; font-family: Roboto, sans-serif; font-size: 12px; font-weight: 200;" x="231.0807991027832" y="0" dx="0em" dy="0.95em" fill="rgb(50, 49, 63)" stroke="none" stroke-width="1px">1.4k</text><text style="text-anchor: middle; visibility: inherit; font-family: Roboto, sans-serif; font-size: 12px; font-weight: 200;" x="259.9658989906311" y="0" dx="0em" dy="0.95em" fill="rgb(50, 49, 63)" stroke="none" stroke-width="1px">1.6k</text><text style="text-anchor: middle; visibility: hidden; font-family: Roboto, sans-serif; font-size: 12px; font-weight: 200;" x="288.850998878479" y="0" dx="0em" dy="0.95em" fill="rgb(50, 49, 63)" stroke="none" stroke-width="1px">1.8k</text></g><line x1="0" y1="0" x2="288.850998878479" y2="0" fill="rgb(0, 0, 0)" stroke="rgb(204, 204, 204)" stroke-width="1px"></line></g></g></g></g></svg>