<svg viewBox="0 0 330 200" xmlns="http://www.w3.org/2000/svg"><g><g><g><g><g><line x1="61.91500186920166" y1="177.86299896240234" x2="56.91500186920166" y2="177.86299896240234" style="visibility: inherit;" fill="rgb(0, 0, 0)" stroke="rgb(204, 204, 204)" stroke-width="1px"></line><line x1="61.91500186920166" y1="163.04108238220215" x2="56.91500186920166" y2="163.04108238220215" style="visibility: inherit;" fill="rgb(0, 0, 0)" stroke="rgb(204, 204, 204)" stroke-width="1px"></line><line x1="61.91500186920166" y1="148.21916580200195" x2="56.91500186920166" y2="148.21916580200195" style="visibility: inherit;" fill="rgb(0, 0, 0)" stroke="rgb(204, 204, 204)" stroke-width="1px"></line><line x1="61.91500186920166" y1="133.39724922180176" x2="56.91500186920166" y2="133.39724922180176" style="visibility: inherit;" fill="rgb(0, 0, 0)" stroke="rgb(204, 204, 204)" stroke-width="1px"></line><line x1="61.91500186920166" y1="118.57533264160158" x2="56.91500186920166" y2="118.57533264160158" style="visibility: inherit;" fill="rgb(0, 0, 0)" stroke="rgb(204, 204, 204)" stroke-width="1px"></line><line x1="61.91500186920166" y1="103.7534160614014" x2="56.91500186920166" y2="103.7534160614014" style="visibility: inherit;" fill="rgb(0, 0, 0)" stroke="rgb(204, 204, 204)" stroke-width="1px"></line><line x1="61.91500186920166" y1="88.93149948120117" x2="56.91500186920166" y2="88.93149948120117" style="visibility: inherit;" fill="rgb(0, 0, 0)" stroke="rgb(204, 204, 204)" stroke-width="1px"></line><line x1="61.91500186920166" y1="74.10958290100099" x2="56.91500186920166" y2="74.10958290100099" style="visibility: inherit;" fill="rgb(0, 0, 0)" stroke="rgb(204, 204, 204)" stroke-width="1px"></line><line x1="61.91500186920166" y1="59.28766632080079" x2="56.91500186920166" y2="59.28766632080079" style="visibility: inherit;" fill="rgb(0, 0, 0)" stroke="rgb(204, 204, 204)" stroke-width="1px"></line><line x1="61.91500186920166" y1="44.46574974060061" x2="56.91500186920166" y2="44.46574974060061" style="visibility: inherit;" fill="rgb(0, 0, 0)" stroke="rgb(204, 204, 204)" stroke-width="1px"></line><line x1="61.91500186920166" y1="29.643833160400384" x2="56.91500186920166" y2="29.643833160400384" style="visibility: inherit;" fill="rgb(0, 0, 0)" stroke="rgb(204, 204, 204)" stroke-width="1px"></line><line x1="61.91500186920166" y1="14.821916580200202" x2="56.91500186920166" y2="14.821916580200202" style="visibility: inherit;" fill="rgb(0, 0, 0)" stroke="rgb(204, 204, 204)" stroke-width="1px"></line><line x1="61.91500186920166" y1="0" x2="56.91500186920166" y2="0" style="visibility: inherit;" fill="rgb(0, 0, 0)" stroke="rgb(204, 204, 204)" stroke-width="1px"></line></g><g transform="translate(51.91500186920166, 0)"><text style="text-anchor: end; visibility: hidden; font-family: Roboto, sans-serif; font-size: 12px; font-weight: 200;" x="0" y="177.86299896240234" dx="0em" dy="0.3em" fill="rgb(50, 49, 63)" stroke="none" stroke-width="1px">8e-3</text><text style="text-anchor: end; visibility: inherit; font-family: Roboto, sans-serif; font-size: 12px; font-weight: 200;" x="0" y="163.04108238220215" dx="0em" dy="0.3em" fill="rgb(50, 49, 63)" stroke="none" stroke-width="1px">0.01</text><text style="text-anchor: end; visibility: hidden; font-family: Roboto, sans-serif; font-size: 12px; font-weight: 200;" x="0" y="148.21916580200195" dx="0em" dy="0.3em" fill="rgb(50, 49, 63)" stroke="none" stroke-width="1px">0.012</text><text style="text-anchor: end; visibility: inherit; font-family: Roboto, sans-serif; font-size: 12px; font-weight: 200;" x="0" y="133.39724922180176" dx="0em" dy="0.3em" fill="rgb(50, 49, 63)" stroke="none" stroke-width="1px">0.014</text><text style="text-anchor: end; visibility: hidden; font-family: Roboto, sans-serif; font-size: 12px; font-weight: 200;" x="0" y="118.57533264160158" dx="0em" dy="0.3em" fill="rgb(50, 49, 63)" stroke="none" stroke-width="1px">0.016</text><text style="text-anchor: end; visibility: inherit; font-family: Roboto, sans-serif; font-size: 12px; font-weight: 200;" x="0" y="103.7534160614014" dx="0em" dy="0.3em" fill="rgb(50, 49, 63)" stroke="none" stroke-width="1px">0.018</text><text style="text-anchor: end; visibility: hidden; font-family: Roboto, sans-serif; font-size: 12px; font-weight: 200;" x="0" y="88.93149948120117" dx="0em" dy="0.3em" fill="rgb(50, 49, 63)" stroke="none" stroke-width="1px">0.02</text><text style="text-anchor: end; visibility: inherit; font-family: Roboto, sans-serif; font-size: 12px; font-weight: 200;" x="0" y="74.10958290100099" dx="0em" dy="0.3em" fill="rgb(50, 49, 63)" stroke="none" stroke-width="1px">0.022</text><text style="text-anchor: end; visibility: hidden; font-family: Roboto, sans-serif; font-size: 12px; font-weight: 200;" x="0" y="59.28766632080079" dx="0em" dy="0.3em" fill="rgb(50, 49, 63)" stroke="none" stroke-width="1px">0.024</text><text style="text-anchor: end; visibility: inherit; font-family: Roboto, sans-serif; font-size: 12px; font-weight: 200;" x="0" y="44.46574974060061" dx="0em" dy="0.3em" fill="rgb(50, 49, 63)" stroke="none" stroke-width="1px">0.026</text><text style="text-anchor: end; visibility: hidden; font-family: Roboto, sans-serif; font-size: 12px; font-weight: 200;" x="0" y="29.643833160400384" dx="0em" dy="0.3em" fill="rgb(50, 49, 63)" stroke="none" stroke-width="1px">0.028</text><text style="text-anchor: end; visibility: inherit; font-family: Roboto, sans-serif; font-size: 12px; font-weight: 200;" x="0" y="14.821916580200202" dx="0em" dy="0.3em" fill="rgb(50, 49, 63)" stroke="none" stroke-width="1px">0.03</text><text style="text-anchor: end; visibility: hidden; font-family: Roboto, sans-serif; font-size: 12px; font-weight: 200;" x="0" y="0" dx="0em" dy="0.3em" fill="rgb(50, 49, 63)" stroke="none" stroke-width="1px">0.032</text></g><line x1="61.91500186920166" y1="0" x2="61.91500186920166" y2="177.86299896240234" fill="rgb(0, 0, 0)" stroke="rgb(204, 204, 204)" stroke-width="1px"></line></g></g><g transform="translate(61, 0)" clip-path="url(#clip_0)"><clipPath id="clip_0"><rect width="268" height="177"></rect></clipPath><g><g><g><line x1="0" y1="0" x2="0" y2="177.86299896240234" fill="rgb(0, 0, 0)" stroke="rgb(60, 60, 60)" stroke-width="1px" opacity="0.25"></line><line x1="26.808499813079834" y1="0" x2="26.808499813079834" y2="177.86299896240234" fill="rgb(0, 0, 0)" stroke="rgb(60, 60, 60)" stroke-width="1px" opacity="0.25"></line><line x1="53.61699962615967" y1="0" x2="53.61699962615967" y2="177.86299896240234" fill="rgb(0, 0, 0)" stroke="rgb(60, 60, 60)" stroke-width="1px" opacity="0.25"></line><line x1="80.4254994392395" y1="0" x2="80.4254994392395" y2="177.86299896240234" fill="rgb(0, 0, 0)" stroke="rgb(60, 60, 60)" stroke-width="1px" opacity="0.25"></line><line x1="107.23399925231934" y1="0" x2="107.23399925231934" y2="177.86299896240234" fill="rgb(0, 0, 0)" stroke="rgb(60, 60, 60)" stroke-width="1px" opacity="0.25"></line><line x1="134.04249906539917" y1="0" x2="134.04249906539917" y2="177.86299896240234" fill="rgb(0, 0, 0)" stroke="rgb(60, 60, 60)" stroke-width="1px" opacity="0.25"></line><line x1="160.850998878479" y1="0" x2="160.850998878479" y2="177.86299896240234" fill="rgb(0, 0, 0)" stroke="rgb(60, 60, 60)" stroke-width="1px" opacity="0.25"></line><line x1="187.65949869155884" y1="0" x2="187.65949869155884" y2="177.86299896240234" fill="rgb(0, 0, 0)" stroke="rgb(60, 60, 60)" stroke-width="1px" opacity="0.25"></line><line x1="214.46799850463867" y1="0" x2="214.46799850463867" y2="177.86299896240234" fill="rgb(0, 0, 0)" stroke="rgb(60, 60, 60)" stroke-width="1px" opacity="0.25"></line><line x1="241.2764983177185" y1="0" x2="241.2764983177185" y2="177.86299896240234" fill="rgb(0, 0, 0)" stroke="rgb(60, 60, 60)" stroke-width="1px" opacity="0.25"></line><line x1="268.08499813079834" y1="0" x2="268.08499813079834" y2="177.86299896240234" fill="rgb(0, 0, 0)" stroke="rgb(60, 60, 60)" stroke-width="1px" opacity="0.25"></line></g><g><line x1="0" y1="177.86299896240234" x2="268.08499813079834" y2="177.86299896240234" fill="rgb(0, 0, 0)" stroke="rgb(60, 60, 60)" stroke-width="1px" opacity="0.25"></line><line x1="0" y1="163.04108238220215" x2="268.08499813079834" y2="163.04108238220215" fill="rgb(0, 0, 0)" stroke="rgb(60, 60, 60)" stroke-width="1px" opacity="0.25"></line><line x1="0" y1="148.21916580200195" x2="268.08499813079834" y2="148.21916580200195" fill="rgb(0, 0, 0)" stroke="rgb(60, 60, 60)" stroke-width="1px" opacity="0.25"></line><line x1="0" y1="133.39724922180176" x2="268.08499813079834" y2="133.39724922180176" fill="rgb(0, 0, 0)" stroke="rgb(60, 60, 60)" stroke-width="1px" opacity="0.25"></line><line x1="0" y1="118.57533264160158" x2="268.08499813079834" y2="118.57533264160158" fill="rgb(0, 0, 0)" stroke="rgb(60, 60, 60)" stroke-width="1px" opacity="0.25"></line><line x1="0" y1="103.7534160614014" x2="268.08499813079834" y2="103.7534160614014" fill="rgb(0, 0, 0)" stroke="rgb(60, 60, 60)" stroke-width="1px" opacity="0.25"></line><line x1="0" y1="88.93149948120117" x2="268.08499813079834" y2="88.93149948120117" fill="rgb(0, 0, 0)" stroke="rgb(60, 60, 60)" stroke-width="1px" opacity="0.25"></line><line x1="0" y1="74.10958290100099" x2="268.08499813079834" y2="74.10958290100099" fill="rgb(0, 0, 0)" stroke="rgb(60, 60, 60)" stroke-width="1px" opacity="0.25"></line><line x1="0" y1="59.28766632080079" x2="268.08499813079834" y2="59.28766632080079" fill="rgb(0, 0, 0)" stroke="rgb(60, 60, 60)" stroke-width="1px" opacity="0.25"></line><line x1="0" y1="44.46574974060061" x2="268.08499813079834" y2="44.46574974060061" fill="rgb(0, 0, 0)" stroke="rgb(60, 60, 60)" stroke-width="1px" opacity="0.25"></line><line x1="0" y1="29.643833160400384" x2="268.08499813079834" y2="29.643833160400384" fill="rgb(0, 0, 0)" stroke="rgb(60, 60, 60)" stroke-width="1px" opacity="0.25"></line><line x1="0" y1="14.821916580200202" x2="268.08499813079834" y2="14.821916580200202" fill="rgb(0, 0, 0)" stroke="rgb(60, 60, 60)" stroke-width="1px" opacity="0.25"></line><line x1="0" y1="0" x2="268.08499813079834" y2="0" fill="rgb(0, 0, 0)" stroke="rgb(60, 60, 60)" stroke-width="1px" opacity="0.25"></line></g></g></g><g><g><line x1="0" y1="237.15066528320312" x2="268.08499813079834" y2="237.15066528320312" fill="rgb(0, 0, 0)" stroke="rgb(153, 153, 153)" stroke-width="1.5px"></line></g></g><g><g><line x1="26.808499813079834" y1="0" x2="26.808499813079834" y2="177.86299896240234" fill="rgb(0, 0, 0)" stroke="rgb(153, 153, 153)" stroke-width="1.5px"></line></g></g><g><g><g><g><g><path style="fill: none;" stroke="rgb(255, 112, 67)" stroke-width="2px" d="M30.159562289714813,7.548077032857058L33.51062476634979,49.9113265974258L36.86168724298477,24.191463482597516L40.21274971961975,14.78067701717861L43.56381219625473,54.476767921672824L46.91487467288971,81.09413583607568L50.26593714952469,115.54384913114876L53.61699962615967,126.3687563051764L56.96806210279465,126.56393934076944L60.31912457942963,142.64128251906368L63.670187056064606,135.2071742534402L67.02124953269958,127.9175869404266L70.37231200933456,137.12512155559295L73.72337448596954,136.8052069161458L77.07443696260452,128.6959621991105L80.4254994392395,146.42348002493233L83.77656191587448,155.74211277459716L87.12762439250946,103.21549145492199L90.47868686914444,121.60825959862343L93.82974934577942,146.7125960284727L97.1808118224144,152.75645661632257L100.53187429904938,156.01350946656063L103.88293677568436,146.92778147120322L107.23399925231934,155.83471557157833L110.58506172895432,153.42013125878185L113.9361242055893,163.82105012754755L117.28718668222427,143.897527830318L120.63824915885925,154.25777979952963L123.98931163549423,146.61334823383658L127.34037411212921,147.91370018545055L130.6914365887642,156.19180641178608L134.04249906539917,147.19038778740057L137.39356154203415,152.3884060607381L140.74462401866913,133.72215558189623L144.0956864953041,153.53661690577385L147.4467489719391,140.70048197746235L150.79781144857407,161.67124179851515L154.14887392520905,144.0162936210618L157.49993640184402,145.04302008065102L160.850998878479,150.04871783146035L164.20206135511398,164.34917052563344L167.55312383174896,172.7572111879015L170.90418630838394,159.30931380720637L174.25524878501892,171.9678642430077L177.6063112616539,131.28618069415876L180.95737373828888,153.50418034014106L184.30843621492386,168.7202138948186L187.65949869155884,158.81740403122842L191.01056116819382,146.59505654982806L194.3616236448288,146.37920109318495L197.71268612146378,142.43301282227594L201.06374859809875,160.35303668973407L204.41481107473373,112.94672595940828L207.7658735513687,107.85598661282216L211.1169360280037,103.15562755336033L214.46799850463867,134.5461634640956L217.81906098127365,118.24207822986668L221.17012345790863,-19.944692744610546L227.8722484111786,-36.926164724508155L231.22331088781357,45.71682037032502L234.57437336444855,100.44461673575421L237.92543584108353,128.080406965888L241.2764983177185,146.37880149614801L244.62756079435349,161.02693618251868L247.97862327098846,161.99766062291732L251.32968574762344,158.84732643577598L254.68074822425842,168.3288560887932L258.0318107008934,175.35655065451394L261.3828731775284,177.0491500553614" fill="none"></path></g></g></g></g><g opacity="0.2"><g><g><g><path style="fill: none;" stroke="rgb(255, 112, 67)" stroke-width="2px" d="M30.159562289714813,7.548077032857058L33.51062476634979,75.32927633616701L36.86168724298477,-0.49960510763762045L40.21274971961975,3.7135921338460056L43.56381219625473,106.30398420658045L46.91487467288971,117.91553791414407L50.26593714952469,164.8074903385159L53.61699962615967,142.1515748840176L56.96806210279465,126.85179640591635L60.31912457942963,166.5142634209473L63.670187056064606,124.12343866982374L67.02124953269958,117.02287558315547L70.37231200933456,150.9063592802799L73.72337448596954,136.32596170305763L77.07443696260452,116.54162723631309L80.4254994392395,173.00225394462183L83.77656191587448,169.71611856601828L87.12762439250946,24.438895978872132L90.47868686914444,149.1946098610721L93.82974934577942,184.36680603745856L97.1808118224144,161.82191603841883L100.53187429904938,160.89898156720636L103.88293677568436,133.299368860017L107.23399925231934,169.19501121101518L110.58506172895432,149.798271951419L113.9361242055893,179.4223840755282L117.28718668222427,114.01229536330666L120.63824915885925,169.79814184791994L123.98931163549423,135.14670792689884L127.34037411212921,149.86422739418677L130.6914365887642,168.6089630061793L134.04249906539917,133.6882616418033L137.39356154203415,160.18543285020544L140.74462401866913,105.72278120065866L144.0956864953041,183.2583080400287L147.4467489719391,121.44627991598851L150.79781144857407,193.1273812056424L154.14887392520905,117.53387151877233L157.49993640184402,146.58310976431616L160.850998878479,157.55726444094594L164.20206135511398,185.79984953821887L167.55312383174896,185.36927217118813L170.90418630838394,139.13746774587096L174.25524878501892,190.9556898912272L177.6063112616539,70.26365538145703L180.95737373828888,186.8311798056503L184.30843621492386,191.54426422541144L187.65949869155884,143.96318923639902L191.01056116819382,128.26153532813908L194.3616236448288,146.0554179082247L197.71268612146378,136.51373041596023L201.06374859809875,187.23307249079087L204.41481107473373,41.83725986412653L207.7658735513687,100.21987759295632L211.1169360280037,96.10508896417498L214.46799850463867,181.63196733016892L217.81906098127365,93.7859503785325L221.17012345790863,-227.22484920627943L224.5211859345436,-259.94018443358806L227.8722484111786,81.59892231903383L231.22331088781357,169.6812980125688L234.57437336444855,182.53631128389554L237.92543584108353,169.53409231108793L241.2764983177185,173.82639329153778L244.62756079435349,182.99913821207454L247.97862327098846,163.45374728351533L251.32968574762344,154.12182515506396L254.68074822425842,182.551150568319" fill="none"></path></g></g></g></g></g></g><g transform="translate(61, 177)" clip-path="url(#clip_1)"><clipPath id="clip_1"><rect width="268" height="22"></rect></clipPath><g><g><line x1="0" y1="0" x2="0" y2="5" style="visibility: inherit;" fill="rgb(0, 0, 0)" stroke="rgb(204, 204, 204)" stroke-width="1px"></line><line x1="26.808499813079834" y1="0" x2="26.808499813079834" y2="5" style="visibility: inherit;" fill="rgb(0, 0, 0)" stroke="rgb(204, 204, 204)" stroke-width="1px"></line><line x1="53.61699962615967" y1="0" x2="53.61699962615967" y2="5" style="visibility: inherit;" fill="rgb(0, 0, 0)" stroke="rgb(204, 204, 204)" stroke-width="1px"></line><line x1="80.4254994392395" y1="0" x2="80.4254994392395" y2="5" style="visibility: inherit;" fill="rgb(0, 0, 0)" stroke="rgb(204, 204, 204)" stroke-width="1px"></line><line x1="107.23399925231934" y1="0" x2="107.23399925231934" y2="5" style="visibility: inherit;" fill="rgb(0, 0, 0)" stroke="rgb(204, 204, 204)" stroke-width="1px"></line><line x1="134.04249906539917" y1="0" x2="134.04249906539917" y2="5" style="visibility: inherit;" fill="rgb(0, 0, 0)" stroke="rgb(204, 204, 204)" stroke-width="1px"></line><line x1="160.850998878479" y1="0" x2="160.850998878479" y2="5" style="visibility: inherit;" fill="rgb(0, 0, 0)" stroke="rgb(204, 204, 204)" stroke-width="1px"></line><line x1="187.65949869155884" y1="0" x2="187.65949869155884" y2="5" style="visibility: inherit;" fill="rgb(0, 0, 0)" stroke="rgb(204, 204, 204)" stroke-width="1px"></line><line x1="214.46799850463867" y1="0" x2="214.46799850463867" y2="5" style="visibility: inherit;" fill="rgb(0, 0, 0)" stroke="rgb(204, 204, 204)" stroke-width="1px"></line><line x1="241.2764983177185" y1="0" x2="241.2764983177185" y2="5" style="visibility: inherit;" fill="rgb(0, 0, 0)" stroke="rgb(204, 204, 204)" stroke-width="1px"></line><line x1="268.08499813079834" y1="0" x2="268.08499813079834" y2="5" style="visibility: inherit;" fill="rgb(0, 0, 0)" stroke="rgb(204, 204, 204)" stroke-width="1px"></line></g><g transform="translate(0, 8)"><text style="text-anchor: middle; visibility: hidden; font-family: Roboto, sans-serif; font-size: 12px; font-weight: 200;" x="0" y="0" dx="0em" dy="0.95em" fill="rgb(50, 49, 63)" stroke="none" stroke-width="1px">-200</text><text style="text-anchor: middle; visibility: inherit; font-family: Roboto, sans-serif; font-size: 12px; font-weight: 200;" x="26.808499813079834" y="0" dx="0em" dy="0.95em" fill="rgb(50, 49, 63)" stroke="none" stroke-width="1px">0</text><text style="text-anchor: middle; visibility: hidden; font-family: Roboto, sans-serif; font-size: 12px; font-weight: 200;" x="53.61699962615967" y="0" dx="0em" dy="0.95em" fill="rgb(50, 49, 63)" stroke="none" stroke-width="1px">200</text><text style="text-anchor: middle; visibility: inherit; font-family: Roboto, sans-serif; font-size: 12px; font-weight: 200;" x="80.4254994392395" y="0" dx="0em" dy="0.95em" fill="rgb(50, 49, 63)" stroke="none" stroke-width="1px">400</text><text style="text-anchor: middle; visibility: hidden; font-family: Roboto, sans-serif; font-size: 12px; font-weight: 200;" x="107.23399925231934" y="0" dx="0em" dy="0.95em" fill="rgb(50, 49, 63)" stroke="none" stroke-width="1px">600</text><text style="text-anchor: middle; visibility: inherit; font-family: Roboto, sans-serif; font-size: 12px; font-weight: 200;" x="134.04249906539917" y="0" dx="0em" dy="0.95em" fill="rgb(50, 49, 63)" stroke="none" stroke-width="1px">800</text><text style="text-anchor: middle; visibility: hidden; font-family: Roboto, sans-serif; font-size: 12px; font-weight: 200;" x="160.850998878479" y="0" dx="0em" dy="0.95em" fill="rgb(50, 49, 63)" stroke="none" stroke-width="1px">1k</text><text style="text-anchor: middle; visibility: inherit; font-family: Roboto, sans-serif; font-size: 12px; font-weight: 200;" x="187.65949869155884" y="0" dx="0em" dy="0.95em" fill="rgb(50, 49, 63)" stroke="none" stroke-width="1px">1.2k</text><text style="text-anchor: middle; visibility: hidden; font-family: Roboto, sans-serif; font-size: 12px; font-weight: 200;" x="214.46799850463867" y="0" dx="0em" dy="0.95em" fill="rgb(50, 49, 63)" stroke="none" stroke-width="1px">1.4k</text><text style="text-anchor: middle; visibility: inherit; font-family: Roboto, sans-serif; font-size: 12px; font-weight: 200;" x="241.2764983177185" y="0" dx="0em" dy="0.95em" fill="rgb(50, 49, 63)" stroke="none" stroke-width="1px">1.6k</text><text style="text-anchor: middle; visibility: hidden; font-family: Roboto, sans-serif; font-size: 12px; font-weight: 200;" x="268.08499813079834" y="0" dx="0em" dy="0.95em" fill="rgb(50, 49, 63)" stroke="none" stroke-width="1px">1.8k</text></g><line x1="0" y1="0" x2="268.08499813079834" y2="0" fill="rgb(0, 0, 0)" stroke="rgb(204, 204, 204)" stroke-width="1px"></line></g></g></g></g></svg>