<svg viewBox="0 0 330 200" xmlns="http://www.w3.org/2000/svg"><g><g><g><g><g><line x1="41.149001121520996" y1="177.86299896240234" x2="36.149001121520996" y2="177.86299896240234" style="visibility: inherit;" fill="rgb(0, 0, 0)" stroke="rgb(204, 204, 204)" stroke-width="1px"></line><line x1="41.149001121520996" y1="163.04108238220215" x2="36.149001121520996" y2="163.04108238220215" style="visibility: inherit;" fill="rgb(0, 0, 0)" stroke="rgb(204, 204, 204)" stroke-width="1px"></line><line x1="41.149001121520996" y1="148.21916580200195" x2="36.149001121520996" y2="148.21916580200195" style="visibility: inherit;" fill="rgb(0, 0, 0)" stroke="rgb(204, 204, 204)" stroke-width="1px"></line><line x1="41.149001121520996" y1="133.39724922180176" x2="36.149001121520996" y2="133.39724922180176" style="visibility: inherit;" fill="rgb(0, 0, 0)" stroke="rgb(204, 204, 204)" stroke-width="1px"></line><line x1="41.149001121520996" y1="118.57533264160158" x2="36.149001121520996" y2="118.57533264160158" style="visibility: inherit;" fill="rgb(0, 0, 0)" stroke="rgb(204, 204, 204)" stroke-width="1px"></line><line x1="41.149001121520996" y1="103.75341606140135" x2="36.149001121520996" y2="103.75341606140135" style="visibility: inherit;" fill="rgb(0, 0, 0)" stroke="rgb(204, 204, 204)" stroke-width="1px"></line><line x1="41.149001121520996" y1="88.93149948120119" x2="36.149001121520996" y2="88.93149948120119" style="visibility: inherit;" fill="rgb(0, 0, 0)" stroke="rgb(204, 204, 204)" stroke-width="1px"></line><line x1="41.149001121520996" y1="74.10958290100099" x2="36.149001121520996" y2="74.10958290100099" style="visibility: inherit;" fill="rgb(0, 0, 0)" stroke="rgb(204, 204, 204)" stroke-width="1px"></line><line x1="41.149001121520996" y1="59.28766632080081" x2="36.149001121520996" y2="59.28766632080081" style="visibility: inherit;" fill="rgb(0, 0, 0)" stroke="rgb(204, 204, 204)" stroke-width="1px"></line><line x1="41.149001121520996" y1="44.46574974060061" x2="36.149001121520996" y2="44.46574974060061" style="visibility: inherit;" fill="rgb(0, 0, 0)" stroke="rgb(204, 204, 204)" stroke-width="1px"></line><line x1="41.149001121520996" y1="29.643833160400405" x2="36.149001121520996" y2="29.643833160400405" style="visibility: inherit;" fill="rgb(0, 0, 0)" stroke="rgb(204, 204, 204)" stroke-width="1px"></line><line x1="41.149001121520996" y1="14.821916580200202" x2="36.149001121520996" y2="14.821916580200202" style="visibility: inherit;" fill="rgb(0, 0, 0)" stroke="rgb(204, 204, 204)" stroke-width="1px"></line><line x1="41.149001121520996" y1="0" x2="36.149001121520996" y2="0" style="visibility: inherit;" fill="rgb(0, 0, 0)" stroke="rgb(204, 204, 204)" stroke-width="1px"></line></g><g transform="translate(31.149001121520996, 0)"><text style="text-anchor: end; visibility: hidden; font-family: Roboto, sans-serif; font-size: 12px; font-weight: 200;" x="0" y="177.86299896240234" dx="0em" dy="0.3em" fill="rgb(50, 49, 63)" stroke="none" stroke-width="1px">1.2</text><text style="text-anchor: end; visibility: inherit; font-family: Roboto, sans-serif; font-size: 12px; font-weight: 200;" x="0" y="163.04108238220215" dx="0em" dy="0.3em" fill="rgb(50, 49, 63)" stroke="none" stroke-width="1px">1.4</text><text style="text-anchor: end; visibility: hidden; font-family: Roboto, sans-serif; font-size: 12px; font-weight: 200;" x="0" y="148.21916580200195" dx="0em" dy="0.3em" fill="rgb(50, 49, 63)" stroke="none" stroke-width="1px">1.6</text><text style="text-anchor: end; visibility: inherit; font-family: Roboto, sans-serif; font-size: 12px; font-weight: 200;" x="0" y="133.39724922180176" dx="0em" dy="0.3em" fill="rgb(50, 49, 63)" stroke="none" stroke-width="1px">1.8</text><text style="text-anchor: end; visibility: hidden; font-family: Roboto, sans-serif; font-size: 12px; font-weight: 200;" x="0" y="118.57533264160158" dx="0em" dy="0.3em" fill="rgb(50, 49, 63)" stroke="none" stroke-width="1px">2</text><text style="text-anchor: end; visibility: inherit; font-family: Roboto, sans-serif; font-size: 12px; font-weight: 200;" x="0" y="103.75341606140135" dx="0em" dy="0.3em" fill="rgb(50, 49, 63)" stroke="none" stroke-width="1px">2.2</text><text style="text-anchor: end; visibility: hidden; font-family: Roboto, sans-serif; font-size: 12px; font-weight: 200;" x="0" y="88.93149948120119" dx="0em" dy="0.3em" fill="rgb(50, 49, 63)" stroke="none" stroke-width="1px">2.4</text><text style="text-anchor: end; visibility: inherit; font-family: Roboto, sans-serif; font-size: 12px; font-weight: 200;" x="0" y="74.10958290100099" dx="0em" dy="0.3em" fill="rgb(50, 49, 63)" stroke="none" stroke-width="1px">2.6</text><text style="text-anchor: end; visibility: hidden; font-family: Roboto, sans-serif; font-size: 12px; font-weight: 200;" x="0" y="59.28766632080081" dx="0em" dy="0.3em" fill="rgb(50, 49, 63)" stroke="none" stroke-width="1px">2.8</text><text style="text-anchor: end; visibility: inherit; font-family: Roboto, sans-serif; font-size: 12px; font-weight: 200;" x="0" y="44.46574974060061" dx="0em" dy="0.3em" fill="rgb(50, 49, 63)" stroke="none" stroke-width="1px">3</text><text style="text-anchor: end; visibility: hidden; font-family: Roboto, sans-serif; font-size: 12px; font-weight: 200;" x="0" y="29.643833160400405" dx="0em" dy="0.3em" fill="rgb(50, 49, 63)" stroke="none" stroke-width="1px">3.2</text><text style="text-anchor: end; visibility: inherit; font-family: Roboto, sans-serif; font-size: 12px; font-weight: 200;" x="0" y="14.821916580200202" dx="0em" dy="0.3em" fill="rgb(50, 49, 63)" stroke="none" stroke-width="1px">3.4</text><text style="text-anchor: end; visibility: hidden; font-family: Roboto, sans-serif; font-size: 12px; font-weight: 200;" x="0" y="0" dx="0em" dy="0.3em" fill="rgb(50, 49, 63)" stroke="none" stroke-width="1px">3.6</text></g><line x1="41.149001121520996" y1="0" x2="41.149001121520996" y2="177.86299896240234" fill="rgb(0, 0, 0)" stroke="rgb(204, 204, 204)" stroke-width="1px"></line></g></g><g transform="translate(41, 0)" clip-path="url(#clip_0)"><clipPath id="clip_0"><rect width="288" height="177"></rect></clipPath><g><g><g><line x1="0" y1="0" x2="0" y2="177.86299896240234" fill="rgb(0, 0, 0)" stroke="rgb(60, 60, 60)" stroke-width="1px" opacity="0.25"></line><line x1="28.8850998878479" y1="0" x2="28.8850998878479" y2="177.86299896240234" fill="rgb(0, 0, 0)" stroke="rgb(60, 60, 60)" stroke-width="1px" opacity="0.25"></line><line x1="57.7701997756958" y1="0" x2="57.7701997756958" y2="177.86299896240234" fill="rgb(0, 0, 0)" stroke="rgb(60, 60, 60)" stroke-width="1px" opacity="0.25"></line><line x1="86.6552996635437" y1="0" x2="86.6552996635437" y2="177.86299896240234" fill="rgb(0, 0, 0)" stroke="rgb(60, 60, 60)" stroke-width="1px" opacity="0.25"></line><line x1="115.5403995513916" y1="0" x2="115.5403995513916" y2="177.86299896240234" fill="rgb(0, 0, 0)" stroke="rgb(60, 60, 60)" stroke-width="1px" opacity="0.25"></line><line x1="144.4254994392395" y1="0" x2="144.4254994392395" y2="177.86299896240234" fill="rgb(0, 0, 0)" stroke="rgb(60, 60, 60)" stroke-width="1px" opacity="0.25"></line><line x1="173.3105993270874" y1="0" x2="173.3105993270874" y2="177.86299896240234" fill="rgb(0, 0, 0)" stroke="rgb(60, 60, 60)" stroke-width="1px" opacity="0.25"></line><line x1="202.1956992149353" y1="0" x2="202.1956992149353" y2="177.86299896240234" fill="rgb(0, 0, 0)" stroke="rgb(60, 60, 60)" stroke-width="1px" opacity="0.25"></line><line x1="231.0807991027832" y1="0" x2="231.0807991027832" y2="177.86299896240234" fill="rgb(0, 0, 0)" stroke="rgb(60, 60, 60)" stroke-width="1px" opacity="0.25"></line><line x1="259.9658989906311" y1="0" x2="259.9658989906311" y2="177.86299896240234" fill="rgb(0, 0, 0)" stroke="rgb(60, 60, 60)" stroke-width="1px" opacity="0.25"></line><line x1="288.850998878479" y1="0" x2="288.850998878479" y2="177.86299896240234" fill="rgb(0, 0, 0)" stroke="rgb(60, 60, 60)" stroke-width="1px" opacity="0.25"></line></g><g><line x1="0" y1="177.86299896240234" x2="288.850998878479" y2="177.86299896240234" fill="rgb(0, 0, 0)" stroke="rgb(60, 60, 60)" stroke-width="1px" opacity="0.25"></line><line x1="0" y1="163.04108238220215" x2="288.850998878479" y2="163.04108238220215" fill="rgb(0, 0, 0)" stroke="rgb(60, 60, 60)" stroke-width="1px" opacity="0.25"></line><line x1="0" y1="148.21916580200195" x2="288.850998878479" y2="148.21916580200195" fill="rgb(0, 0, 0)" stroke="rgb(60, 60, 60)" stroke-width="1px" opacity="0.25"></line><line x1="0" y1="133.39724922180176" x2="288.850998878479" y2="133.39724922180176" fill="rgb(0, 0, 0)" stroke="rgb(60, 60, 60)" stroke-width="1px" opacity="0.25"></line><line x1="0" y1="118.57533264160158" x2="288.850998878479" y2="118.57533264160158" fill="rgb(0, 0, 0)" stroke="rgb(60, 60, 60)" stroke-width="1px" opacity="0.25"></line><line x1="0" y1="103.75341606140135" x2="288.850998878479" y2="103.75341606140135" fill="rgb(0, 0, 0)" stroke="rgb(60, 60, 60)" stroke-width="1px" opacity="0.25"></line><line x1="0" y1="88.93149948120119" x2="288.850998878479" y2="88.93149948120119" fill="rgb(0, 0, 0)" stroke="rgb(60, 60, 60)" stroke-width="1px" opacity="0.25"></line><line x1="0" y1="74.10958290100099" x2="288.850998878479" y2="74.10958290100099" fill="rgb(0, 0, 0)" stroke="rgb(60, 60, 60)" stroke-width="1px" opacity="0.25"></line><line x1="0" y1="59.28766632080081" x2="288.850998878479" y2="59.28766632080081" fill="rgb(0, 0, 0)" stroke="rgb(60, 60, 60)" stroke-width="1px" opacity="0.25"></line><line x1="0" y1="44.46574974060061" x2="288.850998878479" y2="44.46574974060061" fill="rgb(0, 0, 0)" stroke="rgb(60, 60, 60)" stroke-width="1px" opacity="0.25"></line><line x1="0" y1="29.643833160400405" x2="288.850998878479" y2="29.643833160400405" fill="rgb(0, 0, 0)" stroke="rgb(60, 60, 60)" stroke-width="1px" opacity="0.25"></line><line x1="0" y1="14.821916580200202" x2="288.850998878479" y2="14.821916580200202" fill="rgb(0, 0, 0)" stroke="rgb(60, 60, 60)" stroke-width="1px" opacity="0.25"></line><line x1="0" y1="0" x2="288.850998878479" y2="0" fill="rgb(0, 0, 0)" stroke="rgb(60, 60, 60)" stroke-width="1px" opacity="0.25"></line></g></g></g><g><g><line x1="0" y1="266.7944984436035" x2="288.850998878479" y2="266.7944984436035" fill="rgb(0, 0, 0)" stroke="rgb(153, 153, 153)" stroke-width="1.5px"></line></g></g><g><g><line x1="28.8850998878479" y1="0" x2="28.8850998878479" y2="177.86299896240234" fill="rgb(0, 0, 0)" stroke="rgb(153, 153, 153)" stroke-width="1.5px"></line></g></g><g><g><g><g><g><path style="fill: none;" stroke="rgb(255, 112, 67)" stroke-width="2px" d="M32.49573737382889,167.008786895007L36.106374859809875,86.50870853527267L39.71701234579086,83.32684423750341L43.32764983177185,135.8046989281697L46.93828731775284,151.10022175930982L50.548924803733826,142.70270382768513L54.15956228971481,118.92273614818552L57.7701997756958,125.76396094799017L61.38083726167679,138.2912596217343L64.99147474765778,134.96274193083195L68.60211223363876,133.2160736059031L72.21274971961975,158.32621501458866L75.82338720560074,174.89761599473778L79.43402469158173,153.98268323817527L83.04466217756271,123.42774503674026L86.6552996635437,139.87466759807913L90.26593714952469,158.7809185141009L93.87657463550568,115.37308123083567L97.48721212148666,120.68733457213246L101.09784960746765,129.3815019566113L104.70848709344864,89.485515422468L108.31912457942963,45.94095796008832L111.92976206541061,67.13985709898853L115.5403995513916,106.05282247526607L119.15103703737259,143.63878086024724L122.76167452335358,161.81596533023557L126.37231200933456,117.38103656372205L129.98294949531555,86.3841789273678L133.59358698129654,116.68366485277322L137.20422446727753,144.47236710111355L140.81486195325851,114.44942963680387L144.4254994392395,117.76583188159552L148.0361369252205,71.13582336631069L151.64677441120148,75.21176867267775L155.25741189718246,109.52331696656184L158.86804938316345,101.03242056720056L162.47868686914444,61.55270859123888L166.08932435512543,113.33195353733227L169.69996184110641,103.05474995348838L173.3105993270874,37.39812509440724L176.9212368130684,31.19345825208061L180.53187429904938,41.92147413302543L184.14251178503036,91.5514693865076L187.75314927101135,98.42555452017292L191.36378675699234,97.35158632820355L194.97442424297333,135.7999245239765L198.58506172895432,114.16051555900601L202.1956992149353,97.65721344157454L205.8063367009163,109.79747157255258L209.41697418689728,105.17904828629794L213.02761167287827,123.78101649804073L216.63824915885925,82.0507140257013L220.24888664484024,-36.138595733400976L223.85952413082123,10.445491352450109L227.47016161680222,8.92135216486867L231.0807991027832,12.374670531520021L234.6914365887642,30.39916032493023L238.30207407474518,84.98327878859612L241.91271156072617,103.93120615526045L245.52334904670715,112.54344846340858L249.13398653268814,137.96981098943257L252.74462401866913,35.45025383026962L256.3552615046501,44.94245394685328L259.9658989906311,48.88858244643394L263.5765364766121,60.07403876161614L267.1871739625931,-2.308464776747434L270.79781144857407,34.15425071516002L274.40844893455505,-12.210691888487156L278.01908642053604,11.631734909718219L281.62972390651703,-19.048899654470816" fill="none"></path></g></g></g></g><g opacity="0.2"><g><g><g><path style="fill: none;" stroke="rgb(255, 112, 67)" stroke-width="2px" d="M32.49573737382889,167.008786895007L36.106374859809875,38.20866151943212L39.71701234579086,80.27225451164487L43.32764983177185,197.5186560443932L46.93828731775284,171.07005636764643L50.548924803733826,131.08591342179284L54.15956228971481,84.91700188701817L57.7701997756958,135.73853238186348L61.38083726167679,156.76659186301254L64.99147474765778,130.0202810786077L68.60211223363876,130.61191327166216L72.21274971961975,195.85477884693478L75.82338720560074,199.70060896555697L79.43402469158173,122.6512586338963L83.04466217756271,77.63125391745508L86.6552996635437,164.53345179604116L90.26593714952469,187.1322943963678L93.87657463550568,50.272346551121714L97.48721212148666,128.65790501106903L101.09784960746765,142.421958351993L104.70848709344864,29.643723611971406L108.31912457942963,-19.374445381269613L111.92976206541061,98.93778727205517L115.5403995513916,164.42180957850996L119.15103703737259,200.01745129281332L122.76167452335358,189.0816645178295L126.37231200933456,50.72875711075586L129.98294949531555,39.88894006031435L133.59358698129654,162.13286583077252L137.20422446727753,186.15540511523068L140.81486195325851,69.41503339627208L144.4254994392395,122.74043458892994L148.0361369252205,1.1908161600700042L151.64677441120148,81.32568634027666L155.25741189718246,160.99063793278833L158.86804938316345,88.29607618710544L162.47868686914444,2.3331412381121943L166.08932435512543,191.00082047580645L169.69996184110641,87.63894463496446L173.3105993270874,-61.0868119747983L176.9212368130684,21.8864580010318L180.53187429904938,58.01349794153612L184.14251178503036,165.99646223090576L187.75314927101135,108.73668221769367L191.36378675699234,95.74063404052869L194.97442424297333,193.47243181164106L198.58506172895432,81.70140211357466L202.1956992149353,72.90226026635357L205.8063367009163,128.00785876861073L209.41697418689728,98.25141335700937L213.02761167287827,151.68396881542935L216.63824915885925,19.455260317495725L220.24888664484024,-213.4225603715385L223.85952413082123,80.32162198110473L227.47016161680222,6.635143383498904L231.0807991027832,17.554648081493756L234.6914365887642,57.435895015035406L238.30207407474518,166.85945648407642L241.91271156072617,132.3530972052531L245.52334904670715,125.46181192562972L249.13398653268814,176.1093547784667L252.74462401866913,-118.3290819084704L256.3552615046501,59.18075412172858L259.9658989906311,54.807775195804886L263.5765364766121,76.8522232343894L267.1871739625931,-95.88222008429234L270.79781144857407,88.84832395302101L274.40844893455505,-81.7581057939578L278.01908642053604,47.395375107026226L281.62972390651703,-65.06985150075428" fill="none"></path></g></g></g></g></g></g><g transform="translate(41, 177)" clip-path="url(#clip_1)"><clipPath id="clip_1"><rect width="288" height="22"></rect></clipPath><g><g><line x1="0" y1="0" x2="0" y2="5" style="visibility: inherit;" fill="rgb(0, 0, 0)" stroke="rgb(204, 204, 204)" stroke-width="1px"></line><line x1="28.8850998878479" y1="0" x2="28.8850998878479" y2="5" style="visibility: inherit;" fill="rgb(0, 0, 0)" stroke="rgb(204, 204, 204)" stroke-width="1px"></line><line x1="57.7701997756958" y1="0" x2="57.7701997756958" y2="5" style="visibility: inherit;" fill="rgb(0, 0, 0)" stroke="rgb(204, 204, 204)" stroke-width="1px"></line><line x1="86.6552996635437" y1="0" x2="86.6552996635437" y2="5" style="visibility: inherit;" fill="rgb(0, 0, 0)" stroke="rgb(204, 204, 204)" stroke-width="1px"></line><line x1="115.5403995513916" y1="0" x2="115.5403995513916" y2="5" style="visibility: inherit;" fill="rgb(0, 0, 0)" stroke="rgb(204, 204, 204)" stroke-width="1px"></line><line x1="144.4254994392395" y1="0" x2="144.4254994392395" y2="5" style="visibility: inherit;" fill="rgb(0, 0, 0)" stroke="rgb(204, 204, 204)" stroke-width="1px"></line><line x1="173.3105993270874" y1="0" x2="173.3105993270874" y2="5" style="visibility: inherit;" fill="rgb(0, 0, 0)" stroke="rgb(204, 204, 204)" stroke-width="1px"></line><line x1="202.1956992149353" y1="0" x2="202.1956992149353" y2="5" style="visibility: inherit;" fill="rgb(0, 0, 0)" stroke="rgb(204, 204, 204)" stroke-width="1px"></line><line x1="231.0807991027832" y1="0" x2="231.0807991027832" y2="5" style="visibility: inherit;" fill="rgb(0, 0, 0)" stroke="rgb(204, 204, 204)" stroke-width="1px"></line><line x1="259.9658989906311" y1="0" x2="259.9658989906311" y2="5" style="visibility: inherit;" fill="rgb(0, 0, 0)" stroke="rgb(204, 204, 204)" stroke-width="1px"></line><line x1="288.850998878479" y1="0" x2="288.850998878479" y2="5" style="visibility: inherit;" fill="rgb(0, 0, 0)" stroke="rgb(204, 204, 204)" stroke-width="1px"></line></g><g transform="translate(0, 8)"><text style="text-anchor: middle; visibility: hidden; font-family: Roboto, sans-serif; font-size: 12px; font-weight: 200;" x="0" y="0" dx="0em" dy="0.95em" fill="rgb(50, 49, 63)" stroke="none" stroke-width="1px">-200</text><text style="text-anchor: middle; visibility: inherit; font-family: Roboto, sans-serif; font-size: 12px; font-weight: 200;" x="28.8850998878479" y="0" dx="0em" dy="0.95em" fill="rgb(50, 49, 63)" stroke="none" stroke-width="1px">0</text><text style="text-anchor: middle; visibility: inherit; font-family: Roboto, sans-serif; font-size: 12px; font-weight: 200;" x="57.7701997756958" y="0" dx="0em" dy="0.95em" fill="rgb(50, 49, 63)" stroke="none" stroke-width="1px">200</text><text style="text-anchor: middle; visibility: inherit; font-family: Roboto, sans-serif; font-size: 12px; font-weight: 200;" x="86.6552996635437" y="0" dx="0em" dy="0.95em" fill="rgb(50, 49, 63)" stroke="none" stroke-width="1px">400</text><text style="text-anchor: middle; visibility: inherit; font-family: Roboto, sans-serif; font-size: 12px; font-weight: 200;" x="115.5403995513916" y="0" dx="0em" dy="0.95em" fill="rgb(50, 49, 63)" stroke="none" stroke-width="1px">600</text><text style="text-anchor: middle; visibility: inherit; font-family: Roboto, sans-serif; font-size: 12px; font-weight: 200;" x="144.4254994392395" y="0" dx="0em" dy="0.95em" fill="rgb(50, 49, 63)" stroke="none" stroke-width="1px">800</text><text style="text-anchor: middle; visibility: inherit; font-family: Roboto, sans-serif; font-size: 12px; font-weight: 200;" x="173.3105993270874" y="0" dx="0em" dy="0.95em" fill="rgb(50, 49, 63)" stroke="none" stroke-width="1px">1k</text><text style="text-anchor: middle; visibility: inherit; font-family: Roboto, sans-serif; font-size: 12px; font-weight: 200;" x="202.1956992149353" y="0" dx="0em" dy="0.95em" fill="rgb(50, 49, 63)" stroke="none" stroke-width="1px">1.2k</text><text style="text-anchor: middle; visibility: inherit; font-family: Roboto, sans-serif; font-size: 12px; font-weight: 200;" x="231.0807991027832" y="0" dx="0em" dy="0.95em" fill="rgb(50, 49, 63)" stroke="none" stroke-width="1px">1.4k</text><text style="text-anchor: middle; visibility: inherit; font-family: Roboto, sans-serif; font-size: 12px; font-weight: 200;" x="259.9658989906311" y="0" dx="0em" dy="0.95em" fill="rgb(50, 49, 63)" stroke="none" stroke-width="1px">1.6k</text><text style="text-anchor: middle; visibility: hidden; font-family: Roboto, sans-serif; font-size: 12px; font-weight: 200;" x="288.850998878479" y="0" dx="0em" dy="0.95em" fill="rgb(50, 49, 63)" stroke="none" stroke-width="1px">1.8k</text></g><line x1="0" y1="0" x2="288.850998878479" y2="0" fill="rgb(0, 0, 0)" stroke="rgb(204, 204, 204)" stroke-width="1px"></line></g></g></g></g></svg>