<svg viewBox="0 0 330 200" xmlns="http://www.w3.org/2000/svg"><g><g><g><g><g><line x1="41.149001121520996" y1="177.86299896240234" x2="36.149001121520996" y2="177.86299896240234" style="visibility: inherit;" fill="rgb(0, 0, 0)" stroke="rgb(204, 204, 204)" stroke-width="1px"></line><line x1="41.149001121520996" y1="163.04108238220215" x2="36.149001121520996" y2="163.04108238220215" style="visibility: inherit;" fill="rgb(0, 0, 0)" stroke="rgb(204, 204, 204)" stroke-width="1px"></line><line x1="41.149001121520996" y1="148.21916580200195" x2="36.149001121520996" y2="148.21916580200195" style="visibility: inherit;" fill="rgb(0, 0, 0)" stroke="rgb(204, 204, 204)" stroke-width="1px"></line><line x1="41.149001121520996" y1="133.3972492218018" x2="36.149001121520996" y2="133.3972492218018" style="visibility: inherit;" fill="rgb(0, 0, 0)" stroke="rgb(204, 204, 204)" stroke-width="1px"></line><line x1="41.149001121520996" y1="118.57533264160158" x2="36.149001121520996" y2="118.57533264160158" style="visibility: inherit;" fill="rgb(0, 0, 0)" stroke="rgb(204, 204, 204)" stroke-width="1px"></line><line x1="41.149001121520996" y1="103.7534160614014" x2="36.149001121520996" y2="103.7534160614014" style="visibility: inherit;" fill="rgb(0, 0, 0)" stroke="rgb(204, 204, 204)" stroke-width="1px"></line><line x1="41.149001121520996" y1="88.93149948120119" x2="36.149001121520996" y2="88.93149948120119" style="visibility: inherit;" fill="rgb(0, 0, 0)" stroke="rgb(204, 204, 204)" stroke-width="1px"></line><line x1="41.149001121520996" y1="74.10958290100099" x2="36.149001121520996" y2="74.10958290100099" style="visibility: inherit;" fill="rgb(0, 0, 0)" stroke="rgb(204, 204, 204)" stroke-width="1px"></line><line x1="41.149001121520996" y1="59.28766632080081" x2="36.149001121520996" y2="59.28766632080081" style="visibility: inherit;" fill="rgb(0, 0, 0)" stroke="rgb(204, 204, 204)" stroke-width="1px"></line><line x1="41.149001121520996" y1="44.46574974060061" x2="36.149001121520996" y2="44.46574974060061" style="visibility: inherit;" fill="rgb(0, 0, 0)" stroke="rgb(204, 204, 204)" stroke-width="1px"></line><line x1="41.149001121520996" y1="29.643833160400423" x2="36.149001121520996" y2="29.643833160400423" style="visibility: inherit;" fill="rgb(0, 0, 0)" stroke="rgb(204, 204, 204)" stroke-width="1px"></line><line x1="41.149001121520996" y1="14.821916580200202" x2="36.149001121520996" y2="14.821916580200202" style="visibility: inherit;" fill="rgb(0, 0, 0)" stroke="rgb(204, 204, 204)" stroke-width="1px"></line><line x1="41.149001121520996" y1="0" x2="36.149001121520996" y2="0" style="visibility: inherit;" fill="rgb(0, 0, 0)" stroke="rgb(204, 204, 204)" stroke-width="1px"></line></g><g transform="translate(31.149001121520996, 0)"><text style="text-anchor: end; visibility: hidden; font-family: Roboto, sans-serif; font-size: 12px; font-weight: 200;" x="0" y="177.86299896240234" dx="0em" dy="0.3em" fill="rgb(50, 49, 63)" stroke="none" stroke-width="1px">0.9</text><text style="text-anchor: end; visibility: inherit; font-family: Roboto, sans-serif; font-size: 12px; font-weight: 200;" x="0" y="163.04108238220215" dx="0em" dy="0.3em" fill="rgb(50, 49, 63)" stroke="none" stroke-width="1px">1</text><text style="text-anchor: end; visibility: hidden; font-family: Roboto, sans-serif; font-size: 12px; font-weight: 200;" x="0" y="148.21916580200195" dx="0em" dy="0.3em" fill="rgb(50, 49, 63)" stroke="none" stroke-width="1px">1.1</text><text style="text-anchor: end; visibility: inherit; font-family: Roboto, sans-serif; font-size: 12px; font-weight: 200;" x="0" y="133.3972492218018" dx="0em" dy="0.3em" fill="rgb(50, 49, 63)" stroke="none" stroke-width="1px">1.2</text><text style="text-anchor: end; visibility: hidden; font-family: Roboto, sans-serif; font-size: 12px; font-weight: 200;" x="0" y="118.57533264160158" dx="0em" dy="0.3em" fill="rgb(50, 49, 63)" stroke="none" stroke-width="1px">1.3</text><text style="text-anchor: end; visibility: inherit; font-family: Roboto, sans-serif; font-size: 12px; font-weight: 200;" x="0" y="103.7534160614014" dx="0em" dy="0.3em" fill="rgb(50, 49, 63)" stroke="none" stroke-width="1px">1.4</text><text style="text-anchor: end; visibility: hidden; font-family: Roboto, sans-serif; font-size: 12px; font-weight: 200;" x="0" y="88.93149948120119" dx="0em" dy="0.3em" fill="rgb(50, 49, 63)" stroke="none" stroke-width="1px">1.5</text><text style="text-anchor: end; visibility: inherit; font-family: Roboto, sans-serif; font-size: 12px; font-weight: 200;" x="0" y="74.10958290100099" dx="0em" dy="0.3em" fill="rgb(50, 49, 63)" stroke="none" stroke-width="1px">1.6</text><text style="text-anchor: end; visibility: hidden; font-family: Roboto, sans-serif; font-size: 12px; font-weight: 200;" x="0" y="59.28766632080081" dx="0em" dy="0.3em" fill="rgb(50, 49, 63)" stroke="none" stroke-width="1px">1.7</text><text style="text-anchor: end; visibility: inherit; font-family: Roboto, sans-serif; font-size: 12px; font-weight: 200;" x="0" y="44.46574974060061" dx="0em" dy="0.3em" fill="rgb(50, 49, 63)" stroke="none" stroke-width="1px">1.8</text><text style="text-anchor: end; visibility: hidden; font-family: Roboto, sans-serif; font-size: 12px; font-weight: 200;" x="0" y="29.643833160400423" dx="0em" dy="0.3em" fill="rgb(50, 49, 63)" stroke="none" stroke-width="1px">1.9</text><text style="text-anchor: end; visibility: inherit; font-family: Roboto, sans-serif; font-size: 12px; font-weight: 200;" x="0" y="14.821916580200202" dx="0em" dy="0.3em" fill="rgb(50, 49, 63)" stroke="none" stroke-width="1px">2</text><text style="text-anchor: end; visibility: hidden; font-family: Roboto, sans-serif; font-size: 12px; font-weight: 200;" x="0" y="0" dx="0em" dy="0.3em" fill="rgb(50, 49, 63)" stroke="none" stroke-width="1px">2.1</text></g><line x1="41.149001121520996" y1="0" x2="41.149001121520996" y2="177.86299896240234" fill="rgb(0, 0, 0)" stroke="rgb(204, 204, 204)" stroke-width="1px"></line></g></g><g transform="translate(41, 0)" clip-path="url(#clip_0)"><clipPath id="clip_0"><rect width="288" height="177"></rect></clipPath><g><g><g><line x1="0" y1="0" x2="0" y2="177.86299896240234" fill="rgb(0, 0, 0)" stroke="rgb(60, 60, 60)" stroke-width="1px" opacity="0.25"></line><line x1="28.8850998878479" y1="0" x2="28.8850998878479" y2="177.86299896240234" fill="rgb(0, 0, 0)" stroke="rgb(60, 60, 60)" stroke-width="1px" opacity="0.25"></line><line x1="57.7701997756958" y1="0" x2="57.7701997756958" y2="177.86299896240234" fill="rgb(0, 0, 0)" stroke="rgb(60, 60, 60)" stroke-width="1px" opacity="0.25"></line><line x1="86.6552996635437" y1="0" x2="86.6552996635437" y2="177.86299896240234" fill="rgb(0, 0, 0)" stroke="rgb(60, 60, 60)" stroke-width="1px" opacity="0.25"></line><line x1="115.5403995513916" y1="0" x2="115.5403995513916" y2="177.86299896240234" fill="rgb(0, 0, 0)" stroke="rgb(60, 60, 60)" stroke-width="1px" opacity="0.25"></line><line x1="144.4254994392395" y1="0" x2="144.4254994392395" y2="177.86299896240234" fill="rgb(0, 0, 0)" stroke="rgb(60, 60, 60)" stroke-width="1px" opacity="0.25"></line><line x1="173.3105993270874" y1="0" x2="173.3105993270874" y2="177.86299896240234" fill="rgb(0, 0, 0)" stroke="rgb(60, 60, 60)" stroke-width="1px" opacity="0.25"></line><line x1="202.1956992149353" y1="0" x2="202.1956992149353" y2="177.86299896240234" fill="rgb(0, 0, 0)" stroke="rgb(60, 60, 60)" stroke-width="1px" opacity="0.25"></line><line x1="231.0807991027832" y1="0" x2="231.0807991027832" y2="177.86299896240234" fill="rgb(0, 0, 0)" stroke="rgb(60, 60, 60)" stroke-width="1px" opacity="0.25"></line><line x1="259.9658989906311" y1="0" x2="259.9658989906311" y2="177.86299896240234" fill="rgb(0, 0, 0)" stroke="rgb(60, 60, 60)" stroke-width="1px" opacity="0.25"></line><line x1="288.850998878479" y1="0" x2="288.850998878479" y2="177.86299896240234" fill="rgb(0, 0, 0)" stroke="rgb(60, 60, 60)" stroke-width="1px" opacity="0.25"></line></g><g><line x1="0" y1="177.86299896240234" x2="288.850998878479" y2="177.86299896240234" fill="rgb(0, 0, 0)" stroke="rgb(60, 60, 60)" stroke-width="1px" opacity="0.25"></line><line x1="0" y1="163.04108238220215" x2="288.850998878479" y2="163.04108238220215" fill="rgb(0, 0, 0)" stroke="rgb(60, 60, 60)" stroke-width="1px" opacity="0.25"></line><line x1="0" y1="148.21916580200195" x2="288.850998878479" y2="148.21916580200195" fill="rgb(0, 0, 0)" stroke="rgb(60, 60, 60)" stroke-width="1px" opacity="0.25"></line><line x1="0" y1="133.3972492218018" x2="288.850998878479" y2="133.3972492218018" fill="rgb(0, 0, 0)" stroke="rgb(60, 60, 60)" stroke-width="1px" opacity="0.25"></line><line x1="0" y1="118.57533264160158" x2="288.850998878479" y2="118.57533264160158" fill="rgb(0, 0, 0)" stroke="rgb(60, 60, 60)" stroke-width="1px" opacity="0.25"></line><line x1="0" y1="103.7534160614014" x2="288.850998878479" y2="103.7534160614014" fill="rgb(0, 0, 0)" stroke="rgb(60, 60, 60)" stroke-width="1px" opacity="0.25"></line><line x1="0" y1="88.93149948120119" x2="288.850998878479" y2="88.93149948120119" fill="rgb(0, 0, 0)" stroke="rgb(60, 60, 60)" stroke-width="1px" opacity="0.25"></line><line x1="0" y1="74.10958290100099" x2="288.850998878479" y2="74.10958290100099" fill="rgb(0, 0, 0)" stroke="rgb(60, 60, 60)" stroke-width="1px" opacity="0.25"></line><line x1="0" y1="59.28766632080081" x2="288.850998878479" y2="59.28766632080081" fill="rgb(0, 0, 0)" stroke="rgb(60, 60, 60)" stroke-width="1px" opacity="0.25"></line><line x1="0" y1="44.46574974060061" x2="288.850998878479" y2="44.46574974060061" fill="rgb(0, 0, 0)" stroke="rgb(60, 60, 60)" stroke-width="1px" opacity="0.25"></line><line x1="0" y1="29.643833160400423" x2="288.850998878479" y2="29.643833160400423" fill="rgb(0, 0, 0)" stroke="rgb(60, 60, 60)" stroke-width="1px" opacity="0.25"></line><line x1="0" y1="14.821916580200202" x2="288.850998878479" y2="14.821916580200202" fill="rgb(0, 0, 0)" stroke="rgb(60, 60, 60)" stroke-width="1px" opacity="0.25"></line><line x1="0" y1="0" x2="288.850998878479" y2="0" fill="rgb(0, 0, 0)" stroke="rgb(60, 60, 60)" stroke-width="1px" opacity="0.25"></line></g></g></g><g><g><line x1="0" y1="311.2602481842041" x2="288.850998878479" y2="311.2602481842041" fill="rgb(0, 0, 0)" stroke="rgb(153, 153, 153)" stroke-width="1.5px"></line></g></g><g><g><line x1="28.8850998878479" y1="0" x2="28.8850998878479" y2="177.86299896240234" fill="rgb(0, 0, 0)" stroke="rgb(153, 153, 153)" stroke-width="1.5px"></line></g></g><g><g><g><g><g><path style="fill: none;" stroke="rgb(255, 112, 67)" stroke-width="2px" d="M32.49573737382889,168.78070446366542L36.106374859809875,89.47435059810023L39.71701234579086,75.92642113111502L43.32764983177185,127.3552565672034L46.93828731775284,146.90327151594715L50.548924803733826,141.22187963497007L54.15956228971481,122.68832870894602L57.7701997756958,130.27189025113356L61.38083726167679,142.5894152551553L64.99147474765778,142.94843846739556L68.60211223363876,140.02302944657959L72.21274971961975,163.0246016533064L75.82338720560074,180.65408965946813L79.43402469158173,159.65966965758204L83.04466217756271,133.16325214824064L86.6552996635437,152.22340446262564L90.26593714952469,173.31450295825306L93.87657463550568,122.15958251715897L97.48721212148666,127.33136299362621L101.09784960746765,141.6370509196429L104.70848709344864,101.21432754449341L108.31912457942963,56.04833911088802L111.92976206541061,76.78726071479862L115.5403995513916,118.4302049554072L119.15103703737259,156.1955044347433L122.76167452335358,176.8651524674051L126.37231200933456,127.17253689351254L129.98294949531555,98.71300552181138L133.59358698129654,125.56650267292595L137.20422446727753,154.13420075584128L140.81486195325851,125.46273429053011L144.4254994392395,128.4543197646075L148.0361369252205,82.38163729405913L151.64677441120148,80.4417524395461L155.25741189718246,119.32970676484423L158.86804938316345,106.4446194366363L162.47868686914444,71.76591852944688L166.08932435512543,120.69912948389823L169.69996184110641,112.81578456778652L173.3105993270874,48.82082662616499L176.9212368130684,45.03053991439138L180.53187429904938,58.342932511456645L184.14251178503036,103.05453530031015L187.75314927101135,112.9281001328146L191.36378675699234,108.30423779164283L194.97442424297333,148.1587408699618L198.58506172895432,129.67384716297553L202.1956992149353,110.01394094262174L205.8063367009163,122.32355653556223L209.41697418689728,116.3567505848275L213.02761167287827,132.16762947181954L216.63824915885925,94.41888142506829L220.24888664484024,-26.74314917642793L223.85952413082123,17.90651022454903L227.47016161680222,13.670706565212093L231.0807991027832,21.266970275280265L234.6914365887642,38.39738260182822L238.30207407474518,81.32068725749306L241.91271156072617,95.5179680810108L245.52334904670715,108.71634440935395L249.13398653268814,140.67135921084443L252.74462401866913,42.61138182426596L256.3552615046501,53.42202476897864L259.9658989906311,60.85293709072191L263.5765364766121,72.08948608633506L267.1871739625931,9.082870729863444L270.79781144857407,44.32224602361675L274.40844893455505,-1.1315023920656444L278.01908642053604,22.843463045577593L281.62972390651703,-7.714323698185831" fill="none"></path></g></g></g></g><g opacity="0.2"><g><g><g><path style="fill: none;" stroke="rgb(255, 112, 67)" stroke-width="2px" d="M32.49573737382889,168.78070446366542L36.106374859809875,41.89053827876116L39.71701234579086,62.92040884280915L43.32764983177185,187.83556704004332L46.93828731775284,172.425159833027L50.548924803733826,133.36246936250154L54.15956228971481,96.1850543479168L57.7701997756958,141.32879578183383L61.38083726167679,160.7553720800306L64.99147474765778,143.48154609557105L68.60211223363876,135.66144915986433L72.21274971961975,197.4017864231971L75.82338720560074,207.0407583315839L79.43402469158173,128.2091699091061L83.04466217756271,93.44977142837345L86.6552996635437,180.80019023807017L90.26593714952469,204.94222565565542L93.87657463550568,45.440190084276324L97.48721212148666,135.08824583962542L101.09784960746765,163.0942752121266L104.70848709344864,40.58245935998778L108.31912457942963,-11.699157333431685L111.92976206541061,107.89523366683488L115.5403995513916,180.8941280159454L122.76167452335358,207.8695363697907L126.37231200933456,52.63374068245732L129.98294949531555,56.023752156344045L133.59358698129654,165.8467236637316L137.20422446727753,196.98573209128176L140.81486195325851,82.45554410033357L144.4254994392395,132.94169738049823L148.0361369252205,13.272619088389554L151.64677441120148,77.53192529672653L155.25741189718246,177.66163658151277L158.86804938316345,87.11698877658003L162.47868686914444,19.747867705199056L166.08932435512543,194.0989454613291L169.69996184110641,100.9907672375275L173.3105993270874,-47.17161007240426L176.9212368130684,39.345109854331014L180.53187429904938,78.31152139103872L184.14251178503036,170.12193945131548L187.75314927101135,127.73844737729496L191.36378675699234,101.3684442810868L194.97442424297333,207.9404954812262L198.58506172895432,101.94650660422532L202.1956992149353,80.52408161319455L205.8063367009163,140.78797992455839L209.41697418689728,107.40654165884601L213.02761167287827,155.88394780211593L216.63824915885925,37.795759355216006L220.24888664484024,-208.48619507814325L223.85952413082123,84.8809993258974L227.47016161680222,7.317001076213293L231.0807991027832,32.66136584037534L234.6914365887642,64.09300109164045L238.30207407474518,145.70564424097574L241.91271156072617,116.81388931628454L245.52334904670715,128.51390890186713L249.13398653268814,188.60388141307772L252.74462401866913,-104.47858425559748L256.3552615046501,69.63798918604746L259.9658989906311,71.99930557333667L263.5765364766121,88.94430957975467L267.1871739625931,-85.42705230484351L270.79781144857407,97.18130896424647L274.40844893455505,-69.31212501558909L278.01908642053604,58.805911202042374L281.62972390651703,-53.55100381383089" fill="none"></path></g></g></g></g></g></g><g transform="translate(41, 177)" clip-path="url(#clip_1)"><clipPath id="clip_1"><rect width="288" height="22"></rect></clipPath><g><g><line x1="0" y1="0" x2="0" y2="5" style="visibility: inherit;" fill="rgb(0, 0, 0)" stroke="rgb(204, 204, 204)" stroke-width="1px"></line><line x1="28.8850998878479" y1="0" x2="28.8850998878479" y2="5" style="visibility: inherit;" fill="rgb(0, 0, 0)" stroke="rgb(204, 204, 204)" stroke-width="1px"></line><line x1="57.7701997756958" y1="0" x2="57.7701997756958" y2="5" style="visibility: inherit;" fill="rgb(0, 0, 0)" stroke="rgb(204, 204, 204)" stroke-width="1px"></line><line x1="86.6552996635437" y1="0" x2="86.6552996635437" y2="5" style="visibility: inherit;" fill="rgb(0, 0, 0)" stroke="rgb(204, 204, 204)" stroke-width="1px"></line><line x1="115.5403995513916" y1="0" x2="115.5403995513916" y2="5" style="visibility: inherit;" fill="rgb(0, 0, 0)" stroke="rgb(204, 204, 204)" stroke-width="1px"></line><line x1="144.4254994392395" y1="0" x2="144.4254994392395" y2="5" style="visibility: inherit;" fill="rgb(0, 0, 0)" stroke="rgb(204, 204, 204)" stroke-width="1px"></line><line x1="173.3105993270874" y1="0" x2="173.3105993270874" y2="5" style="visibility: inherit;" fill="rgb(0, 0, 0)" stroke="rgb(204, 204, 204)" stroke-width="1px"></line><line x1="202.1956992149353" y1="0" x2="202.1956992149353" y2="5" style="visibility: inherit;" fill="rgb(0, 0, 0)" stroke="rgb(204, 204, 204)" stroke-width="1px"></line><line x1="231.0807991027832" y1="0" x2="231.0807991027832" y2="5" style="visibility: inherit;" fill="rgb(0, 0, 0)" stroke="rgb(204, 204, 204)" stroke-width="1px"></line><line x1="259.9658989906311" y1="0" x2="259.9658989906311" y2="5" style="visibility: inherit;" fill="rgb(0, 0, 0)" stroke="rgb(204, 204, 204)" stroke-width="1px"></line><line x1="288.850998878479" y1="0" x2="288.850998878479" y2="5" style="visibility: inherit;" fill="rgb(0, 0, 0)" stroke="rgb(204, 204, 204)" stroke-width="1px"></line></g><g transform="translate(0, 8)"><text style="text-anchor: middle; visibility: hidden; font-family: Roboto, sans-serif; font-size: 12px; font-weight: 200;" x="0" y="0" dx="0em" dy="0.95em" fill="rgb(50, 49, 63)" stroke="none" stroke-width="1px">-200</text><text style="text-anchor: middle; visibility: hidden; font-family: Roboto, sans-serif; font-size: 12px; font-weight: 200;" x="28.8850998878479" y="0" dx="0em" dy="0.95em" fill="rgb(50, 49, 63)" stroke="none" stroke-width="1px">0</text><text style="text-anchor: middle; visibility: hidden; font-family: Roboto, sans-serif; font-size: 12px; font-weight: 200;" x="57.7701997756958" y="0" dx="0em" dy="0.95em" fill="rgb(50, 49, 63)" stroke="none" stroke-width="1px">200</text><text style="text-anchor: middle; visibility: hidden; font-family: Roboto, sans-serif; font-size: 12px; font-weight: 200;" x="86.6552996635437" y="0" dx="0em" dy="0.95em" fill="rgb(50, 49, 63)" stroke="none" stroke-width="1px">400</text><text style="text-anchor: middle; visibility: hidden; font-family: Roboto, sans-serif; font-size: 12px; font-weight: 200;" x="115.5403995513916" y="0" dx="0em" dy="0.95em" fill="rgb(50, 49, 63)" stroke="none" stroke-width="1px">600</text><text style="text-anchor: middle; visibility: hidden; font-family: Roboto, sans-serif; font-size: 12px; font-weight: 200;" x="144.4254994392395" y="0" dx="0em" dy="0.95em" fill="rgb(50, 49, 63)" stroke="none" stroke-width="1px">800</text><text style="text-anchor: middle; visibility: hidden; font-family: Roboto, sans-serif; font-size: 12px; font-weight: 200;" x="173.3105993270874" y="0" dx="0em" dy="0.95em" fill="rgb(50, 49, 63)" stroke="none" stroke-width="1px">1k</text><text style="text-anchor: middle; visibility: hidden; font-family: Roboto, sans-serif; font-size: 12px; font-weight: 200;" x="202.1956992149353" y="0" dx="0em" dy="0.95em" fill="rgb(50, 49, 63)" stroke="none" stroke-width="1px">1.2k</text><text style="text-anchor: middle; visibility: hidden; font-family: Roboto, sans-serif; font-size: 12px; font-weight: 200;" x="231.0807991027832" y="0" dx="0em" dy="0.95em" fill="rgb(50, 49, 63)" stroke="none" stroke-width="1px">1.4k</text><text style="text-anchor: middle; visibility: hidden; font-family: Roboto, sans-serif; font-size: 12px; font-weight: 200;" x="259.9658989906311" y="0" dx="0em" dy="0.95em" fill="rgb(50, 49, 63)" stroke="none" stroke-width="1px">1.6k</text><text style="text-anchor: middle; visibility: hidden; font-family: Roboto, sans-serif; font-size: 12px; font-weight: 200;" x="288.850998878479" y="0" dx="0em" dy="0.95em" fill="rgb(50, 49, 63)" stroke="none" stroke-width="1px">1.8k</text></g><line x1="0" y1="0" x2="288.850998878479" y2="0" fill="rgb(0, 0, 0)" stroke="rgb(204, 204, 204)" stroke-width="1px"></line></g></g></g></g></svg>