<svg viewBox="0 0 330 200" xmlns="http://www.w3.org/2000/svg"><g><g><g><g><g><line x1="51.53200149536133" y1="177.86299896240234" x2="46.53200149536133" y2="177.86299896240234" style="visibility: inherit;" fill="rgb(0, 0, 0)" stroke="rgb(204, 204, 204)" stroke-width="1px"></line><line x1="51.53200149536133" y1="155.63012409210202" x2="46.53200149536133" y2="155.63012409210202" style="visibility: inherit;" fill="rgb(0, 0, 0)" stroke="rgb(204, 204, 204)" stroke-width="1px"></line><line x1="51.53200149536133" y1="133.39724922180176" x2="46.53200149536133" y2="133.39724922180176" style="visibility: inherit;" fill="rgb(0, 0, 0)" stroke="rgb(204, 204, 204)" stroke-width="1px"></line><line x1="51.53200149536133" y1="111.16437435150148" x2="46.53200149536133" y2="111.16437435150148" style="visibility: inherit;" fill="rgb(0, 0, 0)" stroke="rgb(204, 204, 204)" stroke-width="1px"></line><line x1="51.53200149536133" y1="88.93149948120117" x2="46.53200149536133" y2="88.93149948120117" style="visibility: inherit;" fill="rgb(0, 0, 0)" stroke="rgb(204, 204, 204)" stroke-width="1px"></line><line x1="51.53200149536133" y1="66.69862461090086" x2="46.53200149536133" y2="66.69862461090086" style="visibility: inherit;" fill="rgb(0, 0, 0)" stroke="rgb(204, 204, 204)" stroke-width="1px"></line><line x1="51.53200149536133" y1="44.46574974060063" x2="46.53200149536133" y2="44.46574974060063" style="visibility: inherit;" fill="rgb(0, 0, 0)" stroke="rgb(204, 204, 204)" stroke-width="1px"></line><line x1="51.53200149536133" y1="22.232874870300314" x2="46.53200149536133" y2="22.232874870300314" style="visibility: inherit;" fill="rgb(0, 0, 0)" stroke="rgb(204, 204, 204)" stroke-width="1px"></line><line x1="51.53200149536133" y1="0" x2="46.53200149536133" y2="0" style="visibility: inherit;" fill="rgb(0, 0, 0)" stroke="rgb(204, 204, 204)" stroke-width="1px"></line></g><g transform="translate(41.53200149536133, 0)"><text style="text-anchor: end; visibility: hidden; font-family: Roboto, sans-serif; font-size: 12px; font-weight: 200;" x="0" y="177.86299896240234" dx="0em" dy="0.3em" fill="rgb(50, 49, 63)" stroke="none" stroke-width="1px">0.09</text><text style="text-anchor: end; visibility: inherit; font-family: Roboto, sans-serif; font-size: 12px; font-weight: 200;" x="0" y="155.63012409210202" dx="0em" dy="0.3em" fill="rgb(50, 49, 63)" stroke="none" stroke-width="1px">0.1</text><text style="text-anchor: end; visibility: hidden; font-family: Roboto, sans-serif; font-size: 12px; font-weight: 200;" x="0" y="133.39724922180176" dx="0em" dy="0.3em" fill="rgb(50, 49, 63)" stroke="none" stroke-width="1px">0.11</text><text style="text-anchor: end; visibility: inherit; font-family: Roboto, sans-serif; font-size: 12px; font-weight: 200;" x="0" y="111.16437435150148" dx="0em" dy="0.3em" fill="rgb(50, 49, 63)" stroke="none" stroke-width="1px">0.12</text><text style="text-anchor: end; visibility: hidden; font-family: Roboto, sans-serif; font-size: 12px; font-weight: 200;" x="0" y="88.93149948120117" dx="0em" dy="0.3em" fill="rgb(50, 49, 63)" stroke="none" stroke-width="1px">0.13</text><text style="text-anchor: end; visibility: inherit; font-family: Roboto, sans-serif; font-size: 12px; font-weight: 200;" x="0" y="66.69862461090086" dx="0em" dy="0.3em" fill="rgb(50, 49, 63)" stroke="none" stroke-width="1px">0.14</text><text style="text-anchor: end; visibility: hidden; font-family: Roboto, sans-serif; font-size: 12px; font-weight: 200;" x="0" y="44.46574974060063" dx="0em" dy="0.3em" fill="rgb(50, 49, 63)" stroke="none" stroke-width="1px">0.15</text><text style="text-anchor: end; visibility: inherit; font-family: Roboto, sans-serif; font-size: 12px; font-weight: 200;" x="0" y="22.232874870300314" dx="0em" dy="0.3em" fill="rgb(50, 49, 63)" stroke="none" stroke-width="1px">0.16</text><text style="text-anchor: end; visibility: hidden; font-family: Roboto, sans-serif; font-size: 12px; font-weight: 200;" x="0" y="0" dx="0em" dy="0.3em" fill="rgb(50, 49, 63)" stroke="none" stroke-width="1px">0.17</text></g><line x1="51.53200149536133" y1="0" x2="51.53200149536133" y2="177.86299896240234" fill="rgb(0, 0, 0)" stroke="rgb(204, 204, 204)" stroke-width="1px"></line></g></g><g transform="translate(51, 0)" clip-path="url(#clip_0)"><clipPath id="clip_0"><rect width="278" height="177"></rect></clipPath><g><g><g><line x1="0" y1="0" x2="0" y2="177.86299896240234" fill="rgb(0, 0, 0)" stroke="rgb(60, 60, 60)" stroke-width="1px" opacity="0.25"></line><line x1="34.808499813079834" y1="0" x2="34.808499813079834" y2="177.86299896240234" fill="rgb(0, 0, 0)" stroke="rgb(60, 60, 60)" stroke-width="1px" opacity="0.25"></line><line x1="69.61699962615967" y1="0" x2="69.61699962615967" y2="177.86299896240234" fill="rgb(0, 0, 0)" stroke="rgb(60, 60, 60)" stroke-width="1px" opacity="0.25"></line><line x1="104.4254994392395" y1="0" x2="104.4254994392395" y2="177.86299896240234" fill="rgb(0, 0, 0)" stroke="rgb(60, 60, 60)" stroke-width="1px" opacity="0.25"></line><line x1="139.23399925231934" y1="0" x2="139.23399925231934" y2="177.86299896240234" fill="rgb(0, 0, 0)" stroke="rgb(60, 60, 60)" stroke-width="1px" opacity="0.25"></line><line x1="174.04249906539917" y1="0" x2="174.04249906539917" y2="177.86299896240234" fill="rgb(0, 0, 0)" stroke="rgb(60, 60, 60)" stroke-width="1px" opacity="0.25"></line><line x1="208.850998878479" y1="0" x2="208.850998878479" y2="177.86299896240234" fill="rgb(0, 0, 0)" stroke="rgb(60, 60, 60)" stroke-width="1px" opacity="0.25"></line><line x1="243.65949869155884" y1="0" x2="243.65949869155884" y2="177.86299896240234" fill="rgb(0, 0, 0)" stroke="rgb(60, 60, 60)" stroke-width="1px" opacity="0.25"></line><line x1="278.4679985046387" y1="0" x2="278.4679985046387" y2="177.86299896240234" fill="rgb(0, 0, 0)" stroke="rgb(60, 60, 60)" stroke-width="1px" opacity="0.25"></line></g><g><line x1="0" y1="177.86299896240234" x2="278.4679985046387" y2="177.86299896240234" fill="rgb(0, 0, 0)" stroke="rgb(60, 60, 60)" stroke-width="1px" opacity="0.25"></line><line x1="0" y1="155.63012409210202" x2="278.4679985046387" y2="155.63012409210202" fill="rgb(0, 0, 0)" stroke="rgb(60, 60, 60)" stroke-width="1px" opacity="0.25"></line><line x1="0" y1="133.39724922180176" x2="278.4679985046387" y2="133.39724922180176" fill="rgb(0, 0, 0)" stroke="rgb(60, 60, 60)" stroke-width="1px" opacity="0.25"></line><line x1="0" y1="111.16437435150148" x2="278.4679985046387" y2="111.16437435150148" fill="rgb(0, 0, 0)" stroke="rgb(60, 60, 60)" stroke-width="1px" opacity="0.25"></line><line x1="0" y1="88.93149948120117" x2="278.4679985046387" y2="88.93149948120117" fill="rgb(0, 0, 0)" stroke="rgb(60, 60, 60)" stroke-width="1px" opacity="0.25"></line><line x1="0" y1="66.69862461090086" x2="278.4679985046387" y2="66.69862461090086" fill="rgb(0, 0, 0)" stroke="rgb(60, 60, 60)" stroke-width="1px" opacity="0.25"></line><line x1="0" y1="44.46574974060063" x2="278.4679985046387" y2="44.46574974060063" fill="rgb(0, 0, 0)" stroke="rgb(60, 60, 60)" stroke-width="1px" opacity="0.25"></line><line x1="0" y1="22.232874870300314" x2="278.4679985046387" y2="22.232874870300314" fill="rgb(0, 0, 0)" stroke="rgb(60, 60, 60)" stroke-width="1px" opacity="0.25"></line><line x1="0" y1="0" x2="278.4679985046387" y2="0" fill="rgb(0, 0, 0)" stroke="rgb(60, 60, 60)" stroke-width="1px" opacity="0.25"></line></g></g></g><g><g><line x1="0" y1="377.958872795105" x2="278.4679985046387" y2="377.958872795105" fill="rgb(0, 0, 0)" stroke="rgb(153, 153, 153)" stroke-width="1.5px"></line></g></g><g><g><line x1="34.808499813079834" y1="0" x2="34.808499813079834" y2="177.86299896240234" fill="rgb(0, 0, 0)" stroke="rgb(153, 153, 153)" stroke-width="1.5px"></line></g></g><g><g><g><g><g><path style="fill: none;" stroke="rgb(255, 112, 67)" stroke-width="2px" d="M34.808499813079834,77.09246117229601L35.01713809334834,132.61069669181558L35.22548630278508,156.94611601879788L35.431765340288486,181.17884484821533L35.640983762220536,146.74929401990624L35.84997012748718,148.16624106626364L36.055475642772514,146.16178088280984L36.26351444332202,145.21479911610464L36.47342903525035,165.5976668474477L36.891633822449045,153.9580569531518L37.05233306325277,157.60424608056087L37.2612807524085,174.62269137090155L37.46792721296549,150.87513254453415L37.88385010962089,155.188484027164L38.09016782323519,156.64558581039327L38.29768449628751,133.0279612840703L38.50371213907003,117.78479808708983L38.71233108128309,106.52887071753645L38.92508836736282,102.34867370712807L39.132469674026964,118.43862030475496L39.340411784299214,135.62945258109895L39.548914698179566,153.52612097709158L39.76039567259948,165.45624746480226L39.97002019369602,190.45137175404534L40.39106767504612,154.8805305788641L40.81167038112084,149.95159185676863L41.025181851363186,166.4373728988505L41.23724296744665,175.82181554779783L41.44721557354132,163.7425582634056L41.657555602689584,116.0171624830575L41.86849511155685,142.35560900695535L42.07848705570698,163.39483601538595L42.28778282986085,155.9338164311553L42.709004353710014,141.504672423435L42.91907365008195,155.8497527868824L43.130225877559184,149.15808428987188L43.33640822478533,152.29131705030602L43.54769581865072,115.62231729161616L43.75813253807624,119.4593015873489L43.969284765553475,143.5337256327447L44.179102667204546,151.91269456348064L44.81224994074901,153.5477078256956L45.02245460350911,140.95292229638423L45.235869383474196,175.55957158390996L45.4507151795427,144.2267765067789L45.66097785646915,141.8022418185973L45.87162729450464,168.2720538575167L46.29250073335568,147.37718177482293L46.50034615335067,153.45305122696823L46.710009350558124,177.1054974597005L47.12881361747583,173.10880738722727L47.34166759383281,130.5495971666748L47.55169821409385,133.17434061946975L47.760413846584164,153.27307289113733L47.97027042434613,172.04075767191569L48.18150000404517,128.64776332236826L48.39211076596976,166.97448255986453L48.81845687451363,156.27834260121074L49.028255438109234,155.27671970439926L49.23656497143507,138.6669304658336L49.449592990291116,140.91672935644624L49.658753398056824,140.4333046881596L49.869518864425025,149.11918876354818L50.08128990967671,143.21217208291756L50.29236478493214,138.0751058303714L50.501660559086005,135.5276700243497L50.71157515101432,118.57833680838485L51.128561640719575,129.25001628849466L51.33750932987531,140.51509246525583L52.17960429257552,149.1804332320693L52.390659829775494,157.99780364719447L52.60169602892002,142.03531826457956L52.81106915529569,131.34737701598976L53.0214671986103,142.08458226738483L53.23217465081215,138.99150094800223L53.44224394718409,132.9804095676551L53.65515593770742,149.6330271990976L53.8674104343454,142.4111780340962L54.07674488461018,121.19216767303789L54.28439692405065,130.50908344548097L54.49262910515468,130.47462121747927L54.70192487930854,122.99717446951323L54.91123999151787,95.03831669639348L55.122643613715965,118.42718649626893L55.33190071175893,104.47273781140706L55.542492135628066,144.67025077821458L55.96649833946228,141.9923072812458L56.3882613288641,124.53778837688195L56.595855354138216,147.4483087137735L56.80708493383726,145.37928870225457L57.01881730297804,147.55071885694494L57.22927336045901,160.22511468750318L57.44187594209512,165.20281619640497L57.86421907316049,166.77108090352868L58.07430770758788,157.2782210819123L58.28354546757539,142.25019157946207L58.705540513642624,136.47902437573168L58.917446925282476,104.0627537773687L59.12811570137342,128.1552518779534L59.33994476079146,118.26219665429781L59.54927921105623,119.2584600068091L59.759251817150904,120.70329461971497L59.97374952822128,130.9088963771142L60.18147891988357,117.65500001278784L60.39058131348292,127.92816365201517L60.60161751262744,117.68939543777167L60.81288576843738,116.56212295795389L61.02301307897567,134.83224640404103L61.23470677200556,134.12122417944983L61.44172065561613,131.10530341544398L61.65380110975504,139.47260344322376L61.86491466112136,133.9289457449296L62.07819407469829,134.08433050948264L62.2902358527263,119.75157710546739L62.49993772604465,136.47165909979466L62.70996834630569,124.15627271472701L62.917987808799744,147.7056949525849L63.129256064609685,154.13997975538777L63.338687205151714,103.79017924630875L63.55018751762708,138.61782967951018L63.759405939559144,144.30517324382024L63.97003603953918,128.8211114660043L64.18248391673168,127.28970471176206L64.39048404117028,126.02756547844739L64.60010856226683,122.22653626302298L64.81071932419141,136.16774408681374L65.02092398695152,141.0799042707823L65.44299638524056,138.67251513531897L65.65443868354956,121.04774114256965L65.86253549826543,135.18546511952624L66.07318493630092,142.58959963938187L66.2844725301663,137.58449573257272L66.70515258846282,126.56848483633333L66.91442902456124,121.5879186538957L67.33344601008892,113.57373113709401L67.54417280034622,136.430963191905L67.75671736781597,127.77583568225323L67.96690269252062,143.92493110869313L68.17714603139163,125.8975977655672L68.38899442886512,140.4592332053102L68.80876559855541,142.2349308354886L69.02156156074604,127.52234759403669L69.23083799684444,145.71511865026687L69.44117802599271,130.56500919389106L69.6517887879173,148.23499203085015L69.86191609845558,133.15163644038466L70.07244950815837,121.3822953651741L70.28315696036022,130.97955467162183L70.49695850143432,132.7040345160163L70.70582883836826,122.8243925627462L70.91520196474393,134.14825865292008L71.1243043583433,125.15700969476822L71.33429630249341,131.53875398518625L71.54465566969712,137.95999026086275L71.75515040328901,141.83519387149087L71.96429147299925,147.15163748929209L72.3852422640721,138.28797394434338L72.59492479933499,121.49312459508585L72.80543887098233,122.61221903488986L73.01479265930254,137.6788030844693L73.22308285457294,113.74722956766497L73.43332619344392,102.84253294980172L73.64196447371243,112.05283649515911L73.85011930259465,72.87730951678324L74.0606720503529,81.88481856803737L74.27122479811112,124.32116770377814L74.48208695475657,126.72006888705728L74.69672003221511,126.49523202484164L74.90541632664997,127.80399046764806L75.32503279189666,118.94848241978535L75.53684251325924,121.08530121144868L75.75012192683619,115.18445880960128L75.9567103732268,101.92838369666931L76.17002846291462,104.2020871984087L76.37827998207409,83.52860202307218L76.58821391205788,110.2534362238302L77.0099769014597,125.84774665636441L77.21940804200172,122.41916988183766L77.42742750449577,115.47433954859471L77.63656857420605,107.33569679579685L77.847024631687,121.19117631544269L78.26613830749193,112.98598329533851L78.4743124744296,115.512262253222L78.68242862720093,94.44628188328133L78.89348416440089,86.06565829283934L79.10349544660647,101.48209541530824L79.31141821882328,84.5385042543004L79.52057862658899,89.90743877911555L79.73221430545252,96.12576622334326L79.9418968407154,107.51480746160983L80.15074783959389,87.9943786670897L80.36168734846115,80.543736387118L80.57034496678511,68.12331551134243L80.99013547453086,93.62655222286043L81.20250599950154,96.80873190734496L81.62163901336194,83.45695850467462L81.82845951641798,52.96194519494436L82.03647897891204,61.00732791701855L82.24430506085157,77.78209916082632L82.45416163861354,87.60732251001606L82.6655845988671,79.22222909194447L82.87592462801535,80.18782312412722L83.29712681380907,77.4034420234108L83.50530098074674,87.65968875075718L83.9211658632358,100.53079405799744L84.1286825362881,89.41997525534453L84.33763022544383,99.17531913797157L84.54595909682511,125.32720223207663L84.75595104097525,101.82074907160843L84.96377712291478,101.22557666205176L85.1723767270724,118.62713934464948L85.38167250122626,128.67137028838386L85.5905041620493,121.58061530328852L85.79999331675768,124.17148584169993L86.01079745923678,136.36507109311626L86.22024793783426,104.78609890570846L86.42871217560369,90.49642767182823L86.63702170892954,119.08625142103843L86.8461627786398,122.43567867734204L87.05373746585846,114.86941310263501L87.26465763667026,108.22143399701068L87.47522972248396,108.80467230470391L87.68514431441227,133.55067054394513L87.89563904800416,131.16798679492365L88.1036585104982,120.65071152338723L88.31227745271127,123.34683732187585L88.52165057908694,137.65187735847363L88.72988276019096,152.3291776662615L88.940512860171,128.40513762826L89.14814556155602,145.69052179276886L89.3586402951479,152.29416537136154L89.77375099347434,153.08603102618483L89.97950790348052,149.54650307926096L90.18584495515029,112.8706640595199L90.39488933458328,93.36355392403738L90.6053647301197,111.19706487204142L90.81701974703869,118.12380672455602L91.02621883091528,119.00054832596994L91.23462505451838,135.89192266459023L91.44809784864982,128.8384463602487L91.65865059640805,125.63323132951628L91.86742424306473,127.68873781349558L92.07844110415378,131.33788935553196L92.28947730329833,138.66647156794323L92.49846366856495,150.96362413378054L93.12283146493435,126.34208187476547L93.33085092742841,120.83330273543093L93.54119095657667,89.2661241607234L93.95939574377536,122.73519898192541L94.16627426099777,109.06281162670943L94.3693045051853,115.95631005716656L94.57912240683636,111.3714353730481L94.7666048544407,132.27183969460773L94.9737154283285,138.08486565810023L95.39137874997456,148.84093679532032L95.60355589439075,144.1017426147293L95.81374121909539,106.73531750540285L96.02388786768913,117.62632589704053L96.23389914989473,137.81823639651842L96.4445872640411,142.1556871867104L96.65558478707473,133.91544729502112L96.8655960692803,122.58659342768124L97.07469846287967,152.44027395635788L97.28598605674505,145.44502579830714L97.49655814255874,128.02130216829121L97.70672412920793,144.34670932594005L97.91743158140977,130.65420502975115L98.12709477861723,97.9840873779217L98.33468880389134,119.387897610578L98.54464207193057,120.7515778835352L98.75384115580717,130.93607733888422L98.96135782885949,134.66004362236416L99.17113705439967,132.75786587852124L99.37838299467563,127.206331631791L99.5876400927186,99.17976517080251L99.7983668829759,125.43154448744914L100.00671509241263,141.61290549648595L100.42981240764061,133.18213885853814L100.6398623659571,149.6492693329093L100.8500670287172,126.6333470504744L101.06054242425361,122.13000781901006L101.48070035505295,132.08789780215184L101.6875595342199,111.38306162109566L101.89985270696879,131.211394103729L102.11094692027966,123.18914973929638L102.32140297776063,108.83778804067751L102.52791407192944,118.84833102828381L102.73674573275248,97.83912635487776L102.94789796022972,99.96724883399507L103.15547264744836,111.6440891776097L103.3635114479979,132.4234523265595L103.57242046104271,133.874972957566L103.7823543910265,127.19217219124495L103.99400940794547,97.81195019348756L104.20057851628066,105.6871550820438L104.40991296654543,91.99539368496548L104.62009829125007,93.39363555069399L104.82802106346686,94.60938309316842L105.03720080928802,92.62612981076674L105.24483351067305,76.15574896187357L105.45366517149607,79.13680300138435L105.66512680786053,97.81798870384536L105.87397780673902,86.12624596319152L106.08296417200566,107.48240584558162L106.29216325588226,111.8984195819097L106.49948654838006,110.0977465789257L106.70976856336196,128.53206138793067L106.91908367557129,136.60347561773585L107.12781864611705,107.36624520117697L107.5442056561033,88.36885644658159L107.75208975220919,104.25641680437403L107.9612501599749,90.02219385586359L108.1727698105057,88.00476546485248L108.38194955632686,101.46833374782872L108.58884741160472,110.00111174119026L108.79851060881217,108.32271101957483L109.00585323936541,87.72929272622959L109.21549709851742,93.7628140668634L109.6318647704482,110.14113569102433L109.84073510738214,107.40437714178196L110.04914133098522,91.63659099911908L110.46839037317831,94.65230154785016L110.67552028512159,88.85407979997841L110.88760073926052,110.66595205163777L111.09803745868604,106.87718629518675L111.30801006478072,109.16561618803395L111.51724782476822,88.53032626806406L111.72395229949157,66.32850228927954L111.93382821530898,70.37461508764785L112.14246649557751,85.08408181260816L112.35344468055565,82.46020398373658L112.56043922611077,91.67707780420709L112.97593668554623,87.87298684996509L113.18457496581475,89.27383758360143L113.3930392035842,87.10642203426836L113.6022769635717,86.11613169430022L113.81029642606576,89.6385312505069L114.22745695827007,87.72776245188932L114.43605656242768,104.81656922637002L114.64444344797532,70.49345345297326L114.85226952991485,89.30706267930276L115.06104317657153,97.71084237430779L115.27057100739081,90.96280149730299L115.48100772681633,84.01013082369452L115.68751882098516,86.03524132103281L116.10527883290848,111.60047180031202L116.31693384982745,103.98751355947716L116.52926569868723,111.64071177916334L116.73776861256758,122.55136642711328L116.94779923282861,123.37859574526497L117.15753978225789,122.66475669989632L117.36513380753199,107.50501441855813L117.5714128450354,76.06877681365796L117.78043788641294,87.57448823375468L117.98779985502163,89.34775552940768L118.19440763946771,84.17376332250473L118.40494104917049,77.9436067712575L118.82419009136359,88.1789207386375L119.03387262662649,88.69146887246664L119.24171804662147,103.0314226583833L119.45074308799902,112.79797100687838L119.66005820020835,92.67762208187986L119.86772957770427,67.92880865216114L120.0749948560357,64.90453582086683L120.28148661214908,78.32971789544672L120.491768627131,70.35631942614718L120.91322220764557,84.46664122062111L121.1214157126387,104.10371951031075L121.32966723179817,112.51274065661823L121.53826683595578,123.32503664077038L121.74671173566976,131.36547524168182L122.16267330843608,135.70486733742905L122.37264591453075,129.03509997827916L122.58358542339802,140.97233720620878L122.79616866697867,118.13486434522603L123.00453621447086,133.67851146934566L123.42335981944403,129.51733569709776L123.63398991942405,127.14820556351553L123.84262819969256,92.54744140737829L124.05155655079285,121.51740222106079L124.47171448159217,109.74859475727713L124.68046879019339,97.31588135089804L124.89154366544882,110.5567519422943L125.10159362376531,101.80486792224565L125.31261048485437,122.68064027408262L125.52285382372538,121.77475510734669L125.72961631261508,101.08265730280857L125.93868003010353,94.96902622874198L126.14795646620193,107.0529884652467L126.35802576257387,93.91244970712269L126.56732153672775,103.5819259751447L126.778261045595,95.19625310560981L126.9878275525252,113.16119375960513L127.19710398862361,115.61069635960662L127.40638042472204,120.43953705598037L127.61687515831392,100.88486886203125L127.8276406246821,118.61805320711386L128.03583412967524,135.72982438076926L128.24449174799918,134.5124437889334L128.4526852529923,139.34863713433054L128.6628125635306,141.96333184028987L128.87158621018727,128.1123039480355L129.0839954112689,135.3429054036693L129.29389066514176,125.61166999924849L129.50214218430122,105.82149901203759L129.71168935317596,107.49904507479236L129.91816177123388,118.55092070242645L130.1280376870513,136.51301997709L130.33545766982635,146.2024768936548L130.5457590228637,100.2042409086518L130.75490009257396,114.42514705531774L130.96626503866116,84.89673672784731L131.17732057586113,110.49488095091881L131.38679039251406,103.67502764922087L131.59852276165486,88.6723969309048L131.80832132525046,98.19632804858524L132.0186226782878,82.0871157005984L132.22904005965788,96.8353214824354L132.64461487131516,113.09482512286657L132.8535625604709,116.90639421089348L133.48173995376428,113.99178189424589L133.90031216401655,76.8171463512657L134.1074227379044,90.2833107298476L134.3155002145648,82.29311619007082L134.52628501898846,85.7290063037965L134.73621894897224,78.63753059545954L134.94329084674914,102.43577374151934L135.153186100622,107.49348282595953L135.3666008805871,96.59038092024217L135.78391611723504,89.3033430921301L135.99210962222813,101.89042312203178L136.41058514220316,92.45290246502337L136.61825651969912,103.18564207190104L136.82745560357571,89.40085242716698L137.03669336356322,109.18196755434477L137.2469560404897,90.3670205807642L137.45725739352704,87.07653658059276L137.66713330934445,93.01888046062312L137.87778274737994,85.39275523058814L138.29473056097427,95.4979234746733L138.50269200930197,66.3758425594888L138.7111175709605,25.172668297808773L138.91836351123652,52.740256436192915L139.12756259511312,67.65025162983012L139.33801865259406,87.48982624626257L139.54868742868504,95.75615015777647L139.76057450226944,103.15289568938155L140.17922406474352,77.29491636793179L140.60079367359083,70.47609632162323L141.0160397383054,61.851301581213356L141.22492941329477,75.73824893931781L141.43511473799947,73.19549179915171L141.6486068701863,78.08613317486338L141.85807668683927,76.510683049062L142.0665989387751,44.682694862607725L142.27637816431522,50.21630249793241L142.48766575818064,67.8908981069025L142.90530974177122,88.03748707815775L143.11327119009889,95.6526708672556L143.32247027397554,98.94075361626565L143.5307991453568,93.7538271549182L143.7417579922795,48.45771636679864L143.9527748533686,51.55688126424861L144.16027218836544,73.0493912391046L144.37119235917726,87.90612110391722L144.58052680944203,93.34602053962469L144.78856560999156,85.614999605299L144.9986349063635,104.13482113123722L145.20912963995536,93.34358569027494L145.41600815717777,87.52315333888143L145.62406629578274,78.13318197860609L145.83628211630977,78.49657809590153L146.0469315543453,77.84595856609239L146.2562853426655,77.4487356541185L146.463937382106,74.14019233479716L146.6736585934798,82.00003347088179L146.88229687374832,53.15160701767951L147.29976681483984,44.2159029861632L147.50854046149652,52.744421838755144L147.7172174178759,17.85395214137927L147.93034212700923,56.39077813849526L148.76891756361724,85.29928359887585L148.98140411692063,100.83620833471629L149.1925756824533,81.38666758726521L149.40204549910624,30.491484905683443L149.61020032798848,28.14734376260905L149.8201922721386,38.69798175759054L150.03310426266194,51.42669073821305L150.24313488292296,61.53148565546371L150.45260469957591,49.54296363915879L150.66085621873538,49.77669059131702L150.87109955760639,46.62576949407976L151.08178767175278,40.47539083551917L151.29005852896768,60.29809070073165L151.49815534368355,72.78820181581321L151.70785721700193,64.5114557809569L151.91316935173273,47.73797810672736L152.12592663781248,45.7708102503615L152.5378658950448,46.2600540982915L152.7469102744778,20.627886866878644L153.16146016919612,24.67855971098211L153.36698502253688,57.82663003446919L153.78776177111072,49.86795236519567L153.99462095027766,72.26830528146182L154.20463223248322,92.84344596805659L154.41224559581278,117.7806805670628L154.621212623024,107.62288629429463L154.83010229801337,124.69609236916939L155.03912733939092,135.13058389917862L155.24822973299024,101.00396673164984L155.4581443249186,134.9629995259415L155.66643452018894,154.67484726289592L155.87487941990295,127.67756418856523L156.08359505239326,162.21428759450376L156.29548212597768,152.55001693241732L156.50406239207985,176.6622969725391L156.71386095567547,139.14822425050352L156.9200819790125,142.94624562466507L157.12935841511091,140.8559446391812L157.33766794843675,151.76088431380379L157.5470410748124,118.58858914136121L157.7572457375725,115.1761753529119L157.96733437199987,128.91156581592404L158.17719094976187,131.49048695703826L158.39132123777867,138.66079485491315L158.60220273247958,138.54046092451534L158.81370304495493,160.1326108944028L159.44615414850313,172.69650156686L159.65479242877166,141.3534945312101L159.8644169498682,141.15362519102928L160.0748343312383,139.73299710072868L160.28471024705567,130.34086522593358L160.49681003925008,147.48546189759588L160.70641522229113,119.62679874562696L160.91377719089985,94.10419870229518L161.1217966533939,131.4006069079309L161.33194330198765,127.43340413226895L161.5402141592026,138.26751190344595L161.75055418835083,165.4750679848555L161.94476627925238,170.99745510755767L162.15572512617507,178.42865380571453L162.3656783942143,158.94450371860242L162.57706267835698,164.40903261262426L162.78517883112826,160.16315106603176L162.99391380167404,160.74319886535596L163.202571419998,162.04869848359067L163.40952728944225,168.01339599651266L163.6178561608235,143.16993643973333L164.03397243803343,127.41143036652637L164.24605289217232,124.70403067518023L164.45326015633745,133.44014678572574L164.6660754565835,149.97290235360592L164.86962782826822,135.86847919804944L165.07977447686196,140.2731629123457L165.28864481379588,151.59569394869865L165.49939094210862,143.07295737922442L165.70802922237715,148.299490054367L165.9186593223572,149.91663774903975L166.12828384345372,116.79664350531225L166.33728954677582,130.5910171548203L166.54503827649353,145.33361810034717L166.7551462489764,169.73140250021723L167.37986213034392,122.57961747053484L167.588867833666,120.06740325616911L167.79930455309153,100.25527434240514L168.21408650447526,123.40726299870761L168.42697915694316,136.73861292158634L168.6359268460989,115.3641540150988L168.84990242967208,116.69629184241737L169.26574797410566,95.38464429736922L169.4752177907586,96.3999097086058L169.68341129575174,81.62388439065569L169.89071525019406,64.69338011537278L170.09906345963083,66.5449027433883L170.3097128976663,76.63514766403708L170.5051432860613,83.05806643285334L170.68396228482325,72.88625723443838L170.89675824701388,110.61784696948932L171.31736095308858,124.45516982863158L171.52714017862877,146.39265894808574L171.73614588195085,146.6779488276042L171.94331447000505,140.79331652062478L172.15272627249163,147.0437431028834L172.3597401561022,152.10137120695387L172.56685072999002,137.33273592766358L172.77633988469842,116.10734260769767L172.98780152106283,123.52764378073795L173.1960723782778,98.33067910880982L173.40645108353695,102.04510767212811L173.6162303090771,78.64466689331627L173.82691842322347,93.05808069248145L174.0343964201649,105.87022378052612L174.24487181570132,97.83735203467594L174.45451567485333,105.16890417203366L174.66528114122153,122.6713868621291L174.87173422122402,115.91020632065673L175.2945801417311,107.49739085309965L175.50387591588498,134.77584833671798L175.71166332171362,125.75926198109539L176.13632701943317,145.1770171535701L176.34900695329108,149.60529251985326L176.55907624966304,162.94691357565458L176.76916488409043,149.85809325330555L176.97830595380069,158.90492775726105L177.19044442210594,157.2644977974222L177.40061040875514,170.08204319769732L177.6112405087352,157.12002353534461L177.8203042262236,172.23542081901832L178.0295226481557,164.08592546309364L178.23961128258307,185.63775586842902L178.44732133618993,190.3276097255143L178.65806746450264,153.02665424681138L179.07410638949077,148.55636123021472L179.496700915277,108.59363144321507L179.70800784719785,112.28548840269063L179.91417085636854,124.41004646589326L180.12338927830058,100.14660799670081L180.33434812522333,125.66257058013065L180.54457212603887,117.94572210924844L180.75371319574913,133.74840489718974L180.96567762155533,152.82965064123144L181.1758436082045,134.4269900902956L181.38910368372598,132.98842229848992L181.59816740121445,127.92224632389615L181.80568407426674,147.6563008179388L182.22448834118447,125.52618090255463L182.43488638449907,106.4523963092981L182.64381473559936,114.12145960370562L182.8534392566959,117.69564252552105L183.06165209974446,97.90616704503505L183.26938149140676,101.51812841502225L183.48057239499488,92.13110432844873L183.68934604165156,111.48921002030086L183.89742351831197,75.05032817223311L184.31295965385834,72.20530426886398L184.52084374996423,91.78526800340944L184.7325374429941,109.51086670489738L184.9419105693698,90.56992583805348L185.1527147118489,97.4878390020434L185.36025072295666,68.61944251683168L185.57236985320648,71.03779469602651L185.9885248065273,64.2714281562152L186.19807197540203,92.57251453631463L186.40870207538205,62.828473243393454L186.6176110884269,80.29724399504332L187.03552580479382,52.22854017011056L187.24544039672216,68.96653081070285L187.45496822754146,68.74566662207364L187.8738691847364,72.66269413272147L188.08111512501242,99.3406129747642L188.29271212776501,104.02040568521194L188.50214326830704,84.60005253140737L188.71159374690453,79.9698905213268L188.92094753522477,78.1057982643441L189.1310555077076,79.714237423783L189.7580726176739,81.79861641012127L189.96692361655238,79.92372110768842L190.1733766965548,85.52844551758555L190.38329128848315,77.85504012950395L190.59250971041521,68.48377172728435L190.8017087942918,56.36798695308138L191.00984428511856,51.501323943335926L191.21933343982695,77.38116197914566L191.43135587979953,66.79082873102804L191.63987813173534,62.7627483193522L191.8511270494898,74.26579047081131L192.27333481416701,79.57037316308326L192.48237919360002,89.51759691694116L192.69184901025295,91.79699383698623L192.89975244441428,78.74270941096266L193.1082746963501,70.23767484042162L193.31666158189773,67.61782102628193L193.52717565354507,77.40987968284483L193.73879199435314,97.5410980885367L193.95075642015934,77.89200231575366L194.16070968819858,92.50121606539955L194.36944465874433,82.98860660413521L194.57680662735305,89.0010089284998L194.99479869594177,68.28207317007342L195.20227669288317,75.97953319864045L195.411997904257,78.83542358305463L195.62038478980463,101.76370018625461L196.04185770837466,97.51095742639774L196.25010922753413,80.82414545719016L196.46050727084875,68.23004597667686L196.67196890721323,84.61821808724508L196.88201886552972,82.72716455280994L197.0918174291253,97.16552187618551L197.3017513591091,94.19929027049851L197.51085375270844,83.2499767479017L197.71920196214515,79.36544713300664L197.93056690823238,85.51911825528114L198.14258934820492,96.54578261091505L198.35028006375632,66.39484152284216L198.7696064581712,76.33272391496823L198.97776128705343,93.49946812847364L199.394419029816,83.2611388617358L199.6029799578627,100.80464078016611L199.81349402951003,80.38222850371501L200.02207429561219,95.00920923682868L200.23127337948878,82.99381261484494L200.43908012337286,80.99345667094609L200.64702223364512,59.5916028366206L200.85482897752922,88.5490492150797L201.06656134666997,106.23380192413477L201.2740393436114,112.03555260975347L201.48337379387615,97.50403190491244L201.68973018360137,104.00215825135948L202.10631057414216,92.95639982697797L202.31887447966736,94.92971120028119L202.53070353908538,105.49510302349327L202.74027004601558,99.21951405593147L202.95028132822117,99.33654816492297L203.1599058493177,114.71724602542871L203.37074866790772,102.78614935440996L203.5825970653812,91.38752983888904L203.7903264570435,94.95530207215708L204.00024104897182,88.03462514252163L204.2086472725749,107.73790452690191L204.42037964171567,104.13771499804749L204.63079702308576,95.80600058967163L204.83960934585332,72.05797034897152L205.04983334666886,95.84823408106017L205.2592644872109,91.54759260450223L205.46830886664392,112.38095148654723L205.678513529404,98.3151436940748L205.88603020245634,89.35288773117482L206.0967183166027,93.8857797764305L206.3046797649304,104.69853771488548L206.5170116137902,80.94620118416637L206.72655878266494,61.46610575643923L206.93589323292971,55.243340112105905L207.14683274179697,45.108492147436976L207.3560705017845,15.546924504815447L207.5644187112212,-7.6253983215758145L208.61265734503667,-10.723991573336384L208.82193378113507,0.44410956777653304L209.0302433144609,5.9552080542759995L209.23934570806026,16.77602359022251L209.6555780136029,15.155122143788873L209.86367482831875,25.758965741368865L210.07287391219535,29.896422817700376L210.28325261745454,13.468660499790117L210.49324456160466,4.307670971454084L210.70414539436103,15.468516634721773L210.91276433657407,12.221277793331723L211.12111254601083,18.883388001301483L211.32891928989488,29.835689523749377L211.53993615098395,36.77557721712324L211.7493286154151,25.62217461803527L211.95649720346927,19.36116195397933L212.165444892625,26.68300145566169L212.37499206149977,16.43784651770448L212.5864150217533,20.43470838284558L212.79690975534518,19.712961337434834L213.0062635436654,9.65140130986178L213.2145924150467,13.706976532352806L213.42286327226162,24.639685120540406L213.6326811739127,19.051467311542453L213.83973373363418,27.397420971957903L214.04612879947027,37.17019080818604L214.2560047152877,32.86444112408902L214.46555188416244,20.0189627152552L214.67326193776927,17.535585270032197L214.88489761663277,1.9505322708310142L215.09314913579226,-0.7379584364777514L216.7619459690531,-3.5671817804707087L216.9731175345858,14.824544583398966L217.180672883749,3.0927974093581634L217.3896012348493,-1.7118339944131429L217.80689713344177,-7.084108045640031L218.01389167899688,6.209054144988663L218.2226459875981,15.669049966814745L218.43035604120493,-3.4550957276711016L218.64090878896315,6.944318309721491L218.84946971700984,20.616823223142994L219.05835939199926,16.52227376055753L219.27076859308085,16.979130322587825L219.4801803955674,-4.565556101396797L219.6903463822166,-2.370417664543255L219.89960348025957,9.052932032084852L220.10725551970003,29.172881134646925L220.31556505302586,17.513824982049464L220.52518957412244,25.128277769799297L220.7328416135629,33.95535749727588L220.9408417380015,32.85582350073752L221.1525741071423,16.648119854609227L221.36134775379895,27.736272398701786L221.57232593877714,28.774047167083083L221.7803067251603,39.664929229271316L221.98946713292597,47.4235428943251L222.1976606379191,40.3978492310253L222.4079233148456,19.432230870147503L222.61536263567606,-5.359466494042733L223.03151758899688,-16.596759529804896L223.24234106953145,18.893328137044275L223.66203488699992,34.75503316451002L223.87229756392637,27.67977602960366L224.50051363333066,27.13162944301825L224.709229265821,45.376076880095184L224.91908584358293,44.36829953038535L225.12768544774056,35.35259308675496L225.3393984788259,36.89705170937291L225.54954512741963,12.874288622634548L225.75833811213175,-16.454060960608306L225.96657029323578,-16.787373538502386L226.1769683365504,4.13329332207499L226.3848524326563,-5.478343496072845L226.5928525570949,-0.8129050087232985L226.80251575430233,14.664751154928197L227.012701079007,8.023604024658418L227.22039179455837,24.524887195065556L227.43289768591723,0.16355105969833064L227.641033176744,10.709542038832973L227.85232077060937,29.788812295832138L228.06167455892958,25.32156740383466L228.27058357197444,26.797642469875733L228.47955059918561,35.55969587153795L229.10759262609082,32.95056443467373L229.31611487802664,27.696638557850854L229.73315938189825,5.490727968886752L229.94264853660664,-5.821668249799334L230.15151887354057,3.517796541753225L230.36021516797544,16.682079511176333L230.56804124991496,11.713298433374048L230.77569328935544,4.693350260260935L230.98475700684386,-10.23005642016581L231.40342590737342,-6.782034434804623L231.61537099512418,2.3653874323655617L231.82385457094907,4.825095944365654L232.03289895038205,19.04044479655981L232.24178862537147,17.781418047689307L232.66231397922436,9.967443335287491L232.87159041532277,10.253303704391794L233.2858309011539,9.90412917513402L233.49464322392146,26.781913320723504L233.70569876112145,34.29448883812504L233.91410498472453,21.59979894591885L234.12535390247902,14.21735680681932L234.54365537995497,17.81319740334221L234.75279644966525,-21.72895191377725L235.17322511324087,-5.286406162213888L235.38110920934676,9.414500599674588L235.5914105623841,20.38539197274728L235.80424520068567,-2.1264176280858713L236.22169580372173,19.365311416835972L236.4306048167666,20.815753788812007L236.64129293091298,9.583073436879351L236.85230979200205,14.106404248657846L237.06228239809673,2.547642712141097L237.26991509948172,14.161536596645368L237.47791522392035,25.173535140389387L237.68523851641814,19.126114971399172L237.89747367500067,40.1743918012122L238.10593791277012,29.59442772925121L238.31563978608847,34.358503017154234L238.524664827466,26.697966683639272L238.734308686618,28.56328829222095L238.94269557216563,35.44082375182278L239.15257148798307,43.253658498287784L239.36238938963413,51.994284585644984L239.5721299390634,75.45318255796705L239.9930613920808,64.95725706808875L240.20239584234557,61.450337571282255L240.6201558542689,53.76552386295758L240.82844604953922,87.16335758089977L241.03890210702022,64.35933474769095L241.24630275173982,85.3778348026887L241.45552117367188,113.28200595722922L241.66425614421766,128.52674088389304L241.87217891643442,142.54935271676354L242.29442535722256,121.64245285732581L242.7102902397116,109.37999375702795L242.91794227915207,98.14740605984399L243.12687063025237,93.12465401511926L243.32905,100.68349516829178L243.5304171714187,122.43220635223614L243.74000301640433,133.0613183229531L243.9488153391719,130.821772338665L244.16072175081175,119.75007799296161L244.36812239553134,132.32236823766203L244.57770824051698,128.28409694408452L244.7865012252291,117.8976745603165L244.99430796911318,99.8790506736139L245.20348771493434,102.1146039190001L245.41405980074802,107.12577731710604L245.62136375519037,89.81617303682836L245.83007938768068,108.90328005376747L246.24923173959652,128.88832882402247L246.45806340041955,129.88911514051327L246.6682100490133,126.45277591145474L247.08840665592354,125.00043710771557L247.2984952903509,130.49474726509862L247.7152303853353,129.05136719642462L247.92493225865363,151.86254910360424L248.13488552669287,143.41367298403262L248.34799089777073,122.47835999340751L248.55896908274892,114.16205013942138L248.7674526585738,71.67206123254968L248.9743698519071,77.59646456542802L249.18554141743977,89.45104328902265L249.39466314909458,93.41948999137436L249.6055446437955,95.09850277020003L249.80646703993878,99.24833583590872L249.98596287064154,106.90805794722567L250.17766101433438,119.30093438960165L250.39210071123838,96.55748159116129L250.60255676871935,128.42731783855777L250.81177519065142,129.32049130951964L251.02072287980715,122.98964365984094L251.22823955285946,105.51481323509962L251.43529211258095,106.32827613433092L251.85245264478525,131.6721944865066L252.2705220655958,151.43064052244083L252.48366611278456,147.10724939183478L252.6937354091565,161.54728424303872L252.90254773192405,115.36246740790676L253.11134071663616,116.94844276372166L253.3191667985757,110.44498130343732L253.528095149676,126.72692639246657L253.7375843043844,144.34495126148104L253.94695743076005,151.99933742661185L254.15497689325412,158.61378035447194L254.36539427462418,145.93507811874693L254.57832560320298,147.30510095854223L254.97591602329015,173.7481554689596L255.18652678521474,149.95269725974458L255.39752430824834,162.69740643949112L255.60825109850566,165.11999767752258L255.8183590709885,160.64089540550344L256.0284863815268,134.00067887402273L256.2370666476289,136.56875430746229L256.44464133484763,128.75576499247578L256.656528408432,113.86794809938253L256.85818565068246,123.75638262269487L257.06862237010796,153.35937803254305L257.2781115248164,130.79792914614885L257.4880647928556,129.00932046413712L257.672897926863,130.4685990984299L257.88542315627734,127.24480664090876L258.30527167818946,148.1032413565034L258.51690735705296,145.9881006571562L258.72707334370216,122.69637628743182L258.9378194720149,115.46813786808814L259.14547151145536,93.45578991147242L259.3572232186516,117.45068970739747L259.5666930353045,135.1415962406157L259.77540866779486,108.04453741036897L259.9835441586216,119.74502467421927L260.1934780886054,92.12196258422748L260.4009174094359,56.02085724012991L260.6129785255194,96.68305506825956L260.8262192629854,122.43390203012338L261.0357664318601,148.58339789318927L261.24519757240216,156.4622902140487L261.454106585447,122.61383814750566L261.6647753615379,137.1515170086211L261.87412914985816,146.48128324124673L262.0812783998569,169.66961693242203L262.2927787123322,164.72363202082036L262.50389226369856,135.12454190205887L262.71512184339764,137.76447184770018L262.9270669311484,128.01011440534808L263.1365367478013,121.22314018599722L263.55632725554705,118.00991251787539L263.7652749447028,57.44391764494382L263.97412594358127,100.39519093228287L264.18462067717314,111.1216603143283L264.39525077715314,126.67347311072866L264.6065383710186,129.91159643352253L264.81780662682854,142.810165862245L265.02814665597674,154.90125358875997L265.23583737152813,176.52726646027392L265.4467382042845,179.48263840364123L265.866818782862,154.35845125554317L266.07729417839846,137.53984625726673L266.2876148694913,146.81825461793468L266.49739409503144,154.940867914362L266.7060130372445,148.42096638229575L266.91672048944633,142.31922083493401L267.12831749219896,141.7024492549962L267.3397404524525,136.73169683613338L267.5477985910575,145.84599593123707L267.75792590159574,141.42379007191641L267.96364413549105,135.97246274389767L268.170503314658,151.06306528146044L268.380533934919,152.16194479568267L268.5905065410137,154.32039858245062L268.79904813100495,146.40265558679576L269.0107418240349,163.44466429773044" fill="none"></path></g></g></g></g><g opacity="0.2"><g><g><g><path style="fill: none;" stroke="rgb(255, 112, 67)" stroke-width="2px" d="M34.808499813079834,77.09246117229601L35.01713809334834,165.9216380035274L35.22548630278508,180.30811857270083L35.431765340288486,209.67653395161025L35.640983762220536,101.79807245846592L35.84997012748718,150.12638893231258L36.055475642772514,143.29537074910792L36.26351444332202,143.8340906092235L36.47342903525035,195.65843758295063L36.891633822449045,136.67459278681793L37.05233306325277,163.0404591046484L37.2612807524085,200.05774567867707L37.46792721296549,115.33133420484762L37.88385010962089,161.650060946524L38.09016782323519,158.82952571678845L38.29768449628751,97.61818147322134L38.50371213907003,94.92650368742648L38.71233108128309,89.64783754194616L38.92508836736282,96.07901500245634L39.132469674026964,142.57206951634404L39.340411784299214,161.414758209517L39.548914698179566,180.3705346735838L39.97002019369602,227.94376209683367L40.39106767504612,101.52452163840724L40.81167038112084,142.5582047932976L41.025181851363186,191.16600227937812L41.23724296744665,189.8984651138888L41.44721557354132,145.62368346352048L41.657555602689584,44.42909518963622L41.86849511155685,181.86327005868665L42.07848705570698,194.95367234192986L42.28778282986085,144.7422879455053L42.709004353710014,119.86095744538463L42.91907365008195,177.36737271554819L43.130225877559184,139.1205817169079L43.33640822478533,156.991166142481L43.54769581865072,60.61881799397914L43.75813253807624,125.21477800957672L43.969284765553475,179.64536162038473L44.179102667204546,164.48114794278356L44.81224994074901,156.00022771705102L45.02245460350911,122.06074401150875L45.235869383474196,227.4695455002102L45.4507151795427,97.2275838992245L45.66097785646915,138.165439786703L45.87162729450464,207.9767719134195L46.29250073335568,116.03487365195508L46.50034615335067,162.56685540498157L46.710009350558124,212.58416680832102L47.12881361747583,167.11377227856576L47.34166759383281,66.71078183615568L47.55169821409385,137.11145579865078L47.760413846584164,183.4211712985861L47.97027042434613,200.19228484305376L48.18150000404517,63.558271798088036L48.39211076596976,224.46456141608724L48.81845687451363,140.23413266323377L49.028255438109234,153.77428535918216L49.23656497143507,113.7522466079871L49.449592990291116,144.2914276923651L49.658753398056824,139.70816768572962L49.869518864425025,162.14801487663084L50.08128990967671,134.35164706197173L50.29236478493214,130.36950645155218L50.501660559086005,131.7065163153173L50.71157515101432,93.15433698443758L51.128561640719575,145.25753550865932L51.33750932987531,157.41270673039753L52.17960429257552,162.17844438228954L52.390659829775494,171.22385926988233L52.60169602892002,118.0915901906572L52.81106915529569,115.31546514310509L53.0214671986103,158.19039014447742L53.23217465081215,134.3518789689283L53.44224394718409,123.96377249713441L53.65515593770742,174.61195364626138L53.8674104343454,131.57840428659415L54.07674488461018,89.36365213145041L54.28439692405065,144.48445710414563L54.49262910515468,130.4229278754767L54.70192487930854,111.78100434756419L54.91123999151787,53.10003003671388L55.122643613715965,153.51049119608209L55.33190071175893,83.54106478411428L55.542492135628066,204.96652022842585L55.96649833946228,137.97539203579265L56.3882613288641,98.35601002033616L56.595855354138216,181.81408921911088L56.80708493383726,142.27575868497613L57.01881730297804,150.80786408898052L57.22927336045901,179.23670843334054L57.44187594209512,172.66936845975766L57.86421907316049,169.12347796421432L58.07430770758788,143.03893134948768L58.28354546757539,119.70814732578663L58.705540513642624,127.82227357013613L58.917446925282476,55.43834787982424L59.12811570137342,164.29399902883037L59.33994476079146,103.42261381881445L59.54927921105623,120.75285503557598L59.759251817150904,122.87054653907379L59.97374952822128,146.21729901321305L60.18147891988357,97.77415546629828L60.39058131348292,143.33790911085617L60.60161751262744,102.3312431164064L60.81288576843738,114.87121423822717L61.02301307897567,162.23743157317176L61.23470677200556,133.05469084256305L61.44172065561613,126.58142226943514L61.65380110975504,152.0235534848935L61.86491466112136,125.61345919748834L62.07819407469829,134.3174076563122L62.2902358527263,98.25244699944437L62.49993772604465,161.55178209128553L62.70996834630569,105.68319313712553L62.917987808799744,183.0298283093717L63.129256064609685,163.7914069595921L63.338687205151714,28.265478482690206L63.55018751762708,190.85930532931232L63.759405939559144,152.83618859028525L63.97003603953918,105.59501879928052L64.18248391673168,124.99259458039862L64.39048404117028,124.13435662847536L64.60010856226683,116.52499243988632L64.81071932419141,157.07955582249997L65.02092398695152,148.44814454673514L65.44299638524056,135.061431432124L65.65443868354956,94.61058015344565L65.86253549826543,156.39205108496117L66.07318493630092,153.69580141916532L66.2844725301663,130.07683987235896L66.70515258846282,110.04446849197424L66.91442902456124,114.11706938023929L67.33344601008892,101.55244986189149L67.54417280034622,170.71681127412137L67.75671736781597,114.79314441777564L67.96690269252062,168.148574248353L68.17714603139163,98.85659775087834L68.38899442886512,162.30168636492468L68.80876559855541,144.8984772807562L69.02156156074604,105.45347273185885L69.23083799684444,173.00427523461212L69.44117802599271,107.83984500932735L69.6517887879173,174.73996628628885L69.86191609845558,110.52660305468638L70.07244950815837,103.7282837523583L70.28315696036022,145.3754436312933L70.49695850143432,135.290754282608L70.70582883836826,108.00492963284103L70.91520196474393,151.13405778818094L71.1243043583433,111.6701362575404L71.33429630249341,141.11137042081327L71.54465566969712,147.5918446743775L71.75515040328901,147.64799928743304L71.96429147299925,155.12630291599396L72.3852422640721,124.99247862692033L72.59492479933499,96.30085057119959L72.80543887098233,124.29086069459589L73.01479265930254,160.2786791588385L73.22308285457294,77.84986929245851L73.43332619344392,86.48548802300685L73.64196447371243,125.86829181319519L73.85011930259465,14.114019049219356L74.0606720503529,95.39608214491852L74.27122479811112,187.97569140738932L74.48208695475657,130.318420661976L74.69672003221511,126.1579767315182L74.90541632664997,129.76712813185773L75.32503279189666,105.66522034799124L75.53684251325924,124.29052939894365L75.75012192683619,106.3331952068302L75.9567103732268,82.04427102727142L76.17002846291462,107.61264245101773L76.37827998207409,52.518374260067354L76.58821391205788,150.34068752496725L77.0099769014597,149.23921230516572L77.21940804200172,117.2763047200475L77.42742750449577,105.05709404873033L77.63656857420605,95.12773266660008L77.847024631687,141.97439559491147L78.26613830749193,100.67819376518219L78.4743124744296,119.30168069004725L78.68242862720093,62.84731132837029L78.89348416440089,73.49472290717632L79.10349544660647,124.60675109901149L79.31141821882328,59.12311751278869L79.52057862658899,97.96084056633833L79.73221430545252,105.4532573896849L79.9418968407154,124.59836931900969L80.15074783959389,58.713735475309555L80.36168734846115,69.36777296716049L80.57034496678511,49.49268419767909L80.99013547453086,131.88140729013742L81.20250599950154,101.58200143407174L81.62163901336194,63.42929840066906L81.82845951641798,7.219425230348881L82.03647897891204,73.07540200012984L82.24430506085157,102.94425602653791L82.45416163861354,102.34515753380069L82.6655845988671,66.64458896483713L82.87592462801535,81.63621417240127L83.29712681380907,73.22687037233625L83.50530098074674,103.04405884177672L83.9211658632358,119.83745201885785L84.1286825362881,72.75374705136518L84.33763022544383,113.80833496191218L84.54595909682511,164.5550268732342L84.75595104097525,66.56106933090616L84.96377712291478,100.33281804771678L85.1723767270724,144.72948336854603L85.38167250122626,143.73771670398543L85.5905041620493,110.9444828256456L85.79999331675768,128.0577916493171L86.01079745923678,154.65544897024077L86.22024793783426,57.41764062459671L86.42871217560369,69.06192082100792L86.63702170892954,161.97098704485373L86.8461627786398,127.4598195617975L87.05373746585846,103.52001474057448L87.26465763667026,98.24946533857417L87.47522972248396,109.67952976624377L87.68514431441227,170.6696679028069L87.89563904800416,127.5939611713915L88.1036585104982,104.87479861608253L88.31227745271127,127.39102601960883L88.52165057908694,159.10943741337024L88.72988276019096,174.34512812794327L88.940512860171,92.51907757125781L89.14814556155602,171.61859803953223L89.3586402951479,162.1996307392506L89.77375099347434,154.27382950841977L89.97950790348052,144.2372111588752L90.18584495515029,57.85690552990834L90.39488933458328,64.10288872081357L90.6053647301197,137.9473312940475L90.81701974703869,128.513919503328L91.02621883091528,120.31566072809088L91.23462505451838,161.22898417252063L91.44809784864982,118.25823190373643L91.65865059640805,120.82540878341763L91.86742424306473,130.77199753946462L92.07844110415378,136.81161666858645L92.28947730329833,149.6593448865602L92.49846366856495,169.40935298253652L93.12283146493435,89.40976848624291L93.33085092742841,112.57013402642914L93.54119095657667,41.91535629866214L93.95939574377536,172.9388112137285L94.16627426099777,88.55423059388546L94.3693045051853,126.29655770285228L94.57912240683636,104.49412334687042L94.7666048544407,163.62244617694716L94.9737154283285,146.804404603339L95.39137874997456,164.9750435011504L95.60355589439075,136.99295134384275L95.81374121909539,50.6856798414133L96.02388786768913,133.962838484497L96.23389914989473,168.10610214573518L96.4445872640411,148.66186337199838L96.65558478707473,121.55508745748722L96.8655960692803,105.59331262667146L97.07469846287967,197.22079474937277L97.28598605674505,134.952153561231L97.49655814255874,101.88571672326734L97.70672412920793,168.83482006241326L97.91743158140977,110.11544858546773L98.12709477861723,48.97891090017756L98.33468880389134,151.49361295956243L98.54464207193057,122.79709829297107L98.75384115580717,146.21282652190774L98.96135782885949,140.24599304758414L99.17113705439967,129.9045992627568L99.37838299467563,118.8790302616957L99.5876400927186,57.13991547931973L99.7983668829759,164.80921346241917L100.00671509241263,165.88494701004126L100.42981240764061,120.5359889016164L100.6398623659571,174.34996504446605L100.8500670287172,92.1094636268221L101.06054242425361,115.37499897181351L101.48070035505295,147.02473277686454L101.6875595342199,80.32580734951144L101.89985270696879,160.953892827679L102.11094692027966,111.15578319264745L102.32140297776063,87.31074549274912L102.52791407192944,133.86414550969323L102.73674573275248,66.32531934476863L102.94789796022972,103.15943255267103L103.15547264744836,129.1593496930317L103.3635114479979,163.59249704998422L103.57242046104271,136.0522539040757L103.7823543910265,117.1679710417634L103.99400940794547,53.74161719685153L104.20057851628066,117.4999624148781L104.40991296654543,71.457751589348L104.62009829125007,95.49099834928671L104.82802106346686,96.43300440688012L105.03720080928802,89.65124988716428L105.24483351067305,51.450177688533834L105.45366517149607,83.60838406065047L105.66512680786053,125.83976725753689L105.87397780673902,68.58863185221072L106.08296417200566,139.5166456691668L106.29216325588226,118.52244018640181L106.49948654838006,107.39673707444967L106.70976856336196,156.18353360143817L106.91908367557129,148.71059696244362L107.12781864611705,63.510399576338635L107.5442056561033,59.87277331468865L107.75208975220919,128.08775734106266L107.9612501599749,68.67085943309793L108.1727698105057,84.97862287833574L108.38194955632686,121.66368617229313L108.58884741160472,122.80027873123262L108.79851060881217,105.80510993715168L109.00585323936541,56.83916528621173L109.21549709851742,102.81309607781412L109.6318647704482,134.7086181272657L109.84073510738214,103.29923931791842L110.04914133098522,67.98491178512468L110.46839037317831,99.17586737094683L110.67552028512159,80.15674717817082L110.88760073926052,143.38376042912688L111.09803745868604,101.19403766051025L111.30801006478072,112.59826102730474L111.51724782476822,57.57739138810924L111.72395229949157,33.025766321102786L111.93382821530898,76.44378428520032L112.14246649557751,107.14828190004854L112.35344468055565,78.5243872404293L112.56043922611077,105.50238853491282L112.97593668554623,82.16685041860207L113.18457496581475,91.37511368405586L113.3930392035842,83.85529871026866L113.6022769635717,84.63069618434805L113.81029642606576,94.92213058481684L114.22745695827007,84.86160925396281L114.43605656242768,130.44977938809114L114.64444344797532,19.00877979287818L114.85226952991485,117.52747651879704L115.06104317657153,110.31651191681522L115.27057100739081,80.84074018179582L115.48100772681633,73.58112481328182L115.68751882098516,89.0729070670402L116.10527883290848,149.9483175192309L116.31693384982745,92.56807619822484L116.52926569868723,123.12050910869263L116.73776861256758,138.91734839903822L116.94779923282861,124.61943972249247L117.15753978225789,121.59399813184339L117.36513380753199,84.76540099655087L117.5714128450354,28.91442040630769L117.78043788641294,104.83305536389966L117.98779985502163,92.00765647288722L118.19440763946771,76.41277501215019L118.40494104917049,68.59837194438673L118.82419009136359,103.53189168970746L119.03387262662649,89.46029107321027L119.24171804662147,124.54135333725833L119.45074308799902,127.44779352962101L119.66005820020835,62.49709869438211L119.86772957770427,30.80558850758299L120.0749948560357,60.36812657392536L120.28148661214908,98.4674910073166L120.491768627131,58.39622172219796L120.91322220764557,105.63212391233196L121.1214157126387,133.55933694484523L121.32966723179817,125.12627237607947L121.53826683595578,139.54348061699864L121.74671173566976,143.42613314304901L122.16267330843608,142.21395548104982L122.37264591453075,119.03044893955428L122.58358542339802,158.87819304810324L122.79616866697867,83.87865505375193L123.00453621447086,156.9939821555251L123.42335981944403,123.2755720387259L123.63398991942405,123.59451036314215L123.84262819969256,40.64629517317248L124.05155655079285,164.9723434415846L124.47171448159217,92.0953835616017L124.68046879019339,78.66681124132943L124.89154366544882,130.4180578293887L125.10159362376531,88.67704189217268L125.31261048485437,153.99429880183806L125.52285382372538,120.41592735724282L125.72961631261508,70.04451059600133L125.93868003010353,85.79857961764209L126.14795646620193,125.17893182000381L126.35802576257387,74.20164156993668L126.56732153672775,118.08614037717777L126.778261045595,82.6177438013075L126.9878275525252,140.10860474059814L127.19710398862361,119.28495025960888L127.40638042472204,127.68279810054099L127.61687515831392,71.55286657110754L127.8276406246821,145.21782972473775L128.03583412967524,161.39748114125243L128.24449174799918,132.68637290117968L128.4526852529923,146.60292715242622L128.6628125635306,145.8853738992288L128.87158621018727,107.33576210965398L129.0839954112689,146.18880758711998L129.29389066514176,111.0148168926172L129.50214218430122,76.1362425312213L129.71168935317596,110.01536416892452L129.91816177123388,135.12873414387758L130.1280376870513,163.4561688890854L130.33545766982635,160.73666226850196L130.5457590228637,31.206886931147345L130.75490009257396,135.7565062753166L130.96626503866116,40.604121236641696L131.17732057586113,148.89209728552603L131.38679039251406,93.4452476966739L131.59852276165486,66.16845085343063L131.80832132525046,112.48222472510594L132.0186226782878,57.923297178618235L132.22904005965788,118.95763015519083L132.64461487131516,137.48408058351333L132.8535625604709,122.62374784293388L133.48173995376428,109.61986341927445L133.90031216401655,21.05519303679548L134.1074227379044,110.4825572977204L134.3155002145648,70.30782438040565L134.52628501898846,90.88284147438503L134.73621894897224,68.00031703295407L134.94329084674914,138.1331384606091L135.153186100622,115.0800464526198L135.3666008805871,80.23572806166602L135.78391611723504,78.372786349962L135.99210962222813,120.77104316688423L136.41058514220316,78.29662147951088L136.61825651969912,119.28475148221753L136.82745560357571,68.72366796006578L137.03669336356322,138.8536402451115L137.2469560404897,62.14460012039344L137.45725739352704,82.14081058033561L137.66713330934445,101.93239628066866L137.87778274737994,73.95356738553564L138.29473056097427,110.65567584080102L138.50269200930197,22.692721186712014L138.7111175709605,-36.63209309471121L138.91836351123652,94.0916386437691L139.12756259511312,90.01524442028585L139.33801865259406,117.24918817091125L139.54868742868504,108.15563602504727L139.76057450226944,114.24801398678912L140.17922406474352,38.5079473857572L140.60079367359083,60.24786625216043L141.0160397383054,48.91410947059844L141.22492941329477,96.56866997647444L141.43511473799947,69.38135608890254L141.6486068701863,85.42209523843088L141.85807668683927,74.14750786035985L142.0665989387751,-3.0592874170736937L142.27637816431522,58.51671395091946L142.48766575818064,94.4027915203576L142.90530974177122,118.2573705350406L143.11327119009889,107.07544655090248L143.32247027397554,103.87287773978062L143.5307991453568,85.973437462897L143.7417579922795,-19.4864498153806L143.9527748533686,56.20562861042364L144.16027218836544,105.2881562013886L144.37119235917726,110.19121590113616L144.58052680944203,101.50586969318584L144.78856560999156,74.01846820381043L144.9986349063635,131.91455342014453L145.20912963995536,77.15673252883154L145.41600815717777,78.79250481179118L145.62406629578274,64.04822493819314L145.83628211630977,79.04167227184463L146.0469315543453,76.87002927137873L146.2562853426655,76.85290128615766L146.463937382106,69.1773773558153L146.6736585934798,93.78979517500869L146.88229687374832,9.878967337875983L147.29976681483984,30.812346938888787L147.50854046149652,65.53720011764302L147.7172174178759,-34.481752404684656L147.93034212700923,114.19601713416927L148.76891756361724,128.66204178944673L148.98140411692063,124.14159543847691L149.1925756824533,52.21235646608866L149.40204549910624,-45.8512891166891L149.61020032798848,24.631132047997447L149.8201922721386,54.52393875006285L150.03310426266194,70.51975420914677L150.24313488292296,76.68867803133982L150.45260469957591,31.5601806147014L150.66085621873538,50.12728101955437L150.87109955760639,41.89938784822393L151.08178767175278,31.249822847678296L151.29005852896768,90.03214049855035L151.49815534368355,91.5233684884355L151.70785721700193,52.09633672867246L151.91316935173273,22.577761595383002L152.12592663781248,42.82005846581276L152.5378658950448,46.99391987018648L152.7469102744778,-17.820363980240547L153.16146016919612,30.75456897713726L153.36698502253688,107.54873551969968L153.78776177111072,37.929935861285365L153.99462095027766,105.86883465586101L154.20463223248322,123.70615699794871L154.41224559581278,155.1865324655721L154.621212623024,92.38619488514234L154.83010229801337,150.30590148148153L155.03912733939092,150.78232119419243L155.24822973299024,49.81404098035673L155.4581443249186,185.90154871737911L155.66643452018894,184.24261886832755L155.87487941990295,87.18163957706925L156.08359505239326,214.01937270341153L156.29548212597768,138.0536109392877L156.50406239207985,212.83071703272174L156.71386095567547,82.8771151674501L156.9200819790125,148.64327768590744L157.12935841511091,137.72049316095536L157.33766794843675,168.1182938257378L157.5470410748124,68.83014638269732L157.7572457375725,110.05755467023792L157.96733437199987,149.5146515104422L158.17719094976187,135.35886866870956L158.39132123777867,149.41625670172544L158.60220273247958,138.35996002891864L158.81370304495493,192.520835849234L159.44615414850313,191.54233757554582L159.65479242877166,94.33898397773521L159.8644169498682,140.85382118075802L160.0748343312383,137.60205496527777L160.28471024705567,116.25266741374094L160.49681003925008,173.2023569050894L160.70641522229113,77.83880401767352L160.91377719089985,55.82029863729749L161.1217966533939,187.3452192163845L161.33194330198765,121.48259996877601L161.5402141592026,154.51867356021143L161.75055418835083,206.2864021069699L162.15572512617507,189.57545185294993L162.3656783942143,129.7182785879342L162.57706267835698,172.60582595365707L162.78517883112826,153.79432874614298L162.99391380167404,161.6132705643422L163.202571419998,164.0069479109427L163.40952728944225,176.96044226589567L163.6178561608235,105.90474710456436L164.03397243803343,103.77367125671586L164.24605289217232,120.64293113816109L164.45326015633745,146.54432095154408L164.6660754565835,174.77203570542616L164.86962782826822,114.71184446471472L165.07977447686196,146.88018848379005L165.28864481379588,168.57949050322804L165.49939094210862,130.28885252501314L165.70802922237715,156.13928906708085L165.9186593223572,152.34235929104887L166.12828384345372,67.11665213972101L166.33728954677582,151.28257762908237L166.54503827649353,167.44751951863736L166.7551462489764,206.3280791000223L167.37986213034392,51.85193992601133L167.588867833666,116.29908193462046L167.79930455309153,70.53708097175918L168.21408650447526,158.13524598316124L168.42697915694316,156.73563780590445L168.6359268460989,83.30246565536744L168.84990242967208,118.69449858339524L169.26574797410566,63.417172979796895L169.4752177907586,97.92280782546061L169.68341129575174,59.459846413730496L169.89071525019406,39.297623702448355L170.09906345963083,69.32218668541158L170.3097128976663,91.77051504501026L170.5051432860613,92.69244458607761L170.68396228482325,57.62854343681587L170.89675824701388,167.2152315720658L171.31736095308858,145.21115411734502L171.52714017862877,179.29889262726692L171.73614588195085,147.10588364688195L171.94331447000505,131.96636806015565L172.15272627249163,156.41938297627138L172.3597401561022,159.68781336305955L172.56685072999002,115.17978300872815L172.77633988469842,84.26925262774877L172.98780152106283,134.65809554029835L173.1960723782778,60.53523210091773L173.40645108353695,107.61675051710557L173.6162303090771,43.54400572509851L173.82691842322347,114.67820139122924L174.0343964201649,125.08843841259309L174.24487181570132,85.7880444159007L174.45451567485333,116.16623237807022L174.66528114122153,148.92511089727225L174.87173422122402,105.76843550844816L175.2945801417311,94.87816765176393L175.50387591588498,175.6935345621456L175.71166332171362,112.23438244766146L176.13632701943317,174.3036499122822L176.34900695329108,156.24770556927803L176.55907624966304,182.9593451593566L176.76916488409043,130.22486276978202L176.97830595380069,172.47517951319426L177.19044442210594,154.8038528576639L177.40061040875514,189.30836129811001L177.6112405087352,137.6769940418156L177.8203042262236,194.90851674452887L178.0295226481557,151.8616824292066L178.23961128258307,217.96550147643205L178.44732133618993,197.36239051114228L178.65806746450264,97.07522102875703L179.07410638949077,141.85092170531976L179.496700915277,48.64953676271559L179.70800784719785,117.82327384190398L179.91417085636854,142.5968835606972L180.12338927830058,63.75145029291209L180.33434812522333,163.93651445527541L180.54457212603887,106.37044940292515L180.75371319574913,157.4524290791017L180.96567762155533,181.45151925729397L181.1758436082045,106.8229992638918L181.38910368372598,130.83057061078154L181.59816740121445,120.32298236200549L181.80568407426674,177.25738255900285L182.22448834118447,92.33100102947833L182.43488638449907,77.84171941941328L182.64381473559936,125.62505454531691L182.8534392566959,123.0569169082442L183.06165209974446,68.22195382430597L183.26938149140676,106.93607047000302L183.48057239499488,78.05056819858852L183.68934604165156,140.52636855807907L183.89742351831197,20.39200540013146L184.31295965385834,67.93776841381022L184.52084374996423,121.15521360522752L184.7325374429941,136.09926475712928L184.9419105693698,62.15851453778773L185.1527147118489,107.86470874802833L185.36025072295666,25.316847789014126L185.57236985320648,74.66532296481877L185.9885248065273,54.12187834649833L186.19807197540203,135.02414410646384L186.40870207538205,18.212411304011674L186.6176110884269,106.50040012251824L187.03552580479382,10.12548443271148L187.24544039672216,94.0735167715913L187.45496822754146,68.41437033912986L187.8738691847364,78.53823539869315L188.08111512501242,139.3574912378283L188.29271212776501,111.0400947508835L188.50214326830704,55.469522800700496L188.71159374690453,73.02464750620591L188.92094753522477,75.30965987887005L189.1310555077076,82.12689616294132L189.7580726176739,84.92518488962862L189.96692361655238,77.1113781540392L190.1733766965548,93.93553213243126L190.38329128848315,66.34493204738153L190.59250971041521,54.426869123955065L190.8017087942918,38.19430979177687L191.00984428511856,44.20132942871779L191.21933343982695,116.20091903286027L191.43135587979953,50.905328858851725L191.63987813173534,56.720627701838474L191.8511270494898,91.52035369800006L192.27333481416701,87.52724720149122L192.48237919360002,104.43843254772804L192.69184901025295,95.21608921705382L192.89975244441428,59.16128277192731L193.1082746963501,57.48012298461011L193.31666158189773,63.6880403050724L193.52717565354507,92.0979676676892L193.73879199435314,127.73792569707456L193.95075642015934,48.41835865657904L194.16070968819858,114.41503668986843L194.36944465874433,68.71969241223884L194.57680662735305,98.0196124150466L194.99479869594177,37.2036695324339L195.20227669288317,87.5257232414909L195.411997904257,83.11925915967596L195.62038478980463,136.15611509105452L196.04185770837466,91.13184328661237L196.25010922753413,55.79392750337879L196.46050727084875,49.338896755906966L196.67196890721323,109.20047625309752L196.88201886552972,79.8905842511572L197.0918174291253,118.82305786124891L197.3017513591091,89.74994286196807L197.51085375270844,66.82600646400648L197.71920196214515,73.53865271066401L197.93056690823238,94.74962493869288L198.14258934820492,113.08577914436586L198.35028006375632,21.168429890732817L198.7696064581712,91.23954750315721L198.97776128705343,119.24958444873172L199.394419029816,67.90364496162898L199.6029799578627,127.11989365781153L199.81349402951003,49.748610089038344L200.02207429561219,116.94968033649917L200.23127337948878,64.97071768186932L200.43908012337286,77.9929227550979L200.64702223364512,27.488822085132277L200.85482897752922,131.98521878276838L201.06656134666997,132.76093098771742L201.2740393436114,120.73817863818152L201.48337379387615,75.7067508476509L201.68973018360137,113.74934777102996L202.10631057414216,76.3877621904057L202.31887447966736,97.88967826023611L202.53070353908538,121.34319075831132L202.74027004601558,89.80613060458882L202.95028132822117,99.51209932841027L203.1599058493177,137.7882928161873L203.37074866790772,84.88950434788184L203.5825970653812,74.28960056560773L203.7903264570435,100.30696042205906L204.00024104897182,77.65360974806858L204.2086472725749,137.2928236034723L204.42037964171567,98.73743070476581L204.63079702308576,83.30842897710785L204.83960934585332,36.43592498792136L205.04983334666886,131.53362967919324L205.2592644872109,85.0966303896654L205.46830886664392,143.6309898096147L205.678513529404,77.21643200536609L205.88603020245634,75.90950378682483L206.0967183166027,100.6851178443141L206.3046797649304,120.91767462256786L206.5170116137902,45.31769638808773L206.72655878266494,32.24596261484853L206.93589323292971,45.90919164560594L207.14683274179697,29.906220200433516L207.3560705017845,-28.795426959116885L208.40046086256504,-39.9551872641198L208.61265734503667,8.408080901038678L208.82193378113507,17.196261279445842L209.0302433144609,14.2218557840251L209.23934570806026,33.00724689414229L209.6555780136029,12.723769974138483L209.86367482831875,41.664731137738805L210.07287391219535,36.10260843219768L210.28325261745454,-11.172982977075282L210.49324456160466,-9.433813321049985L210.70414539436103,32.20978512962338L210.91276433657407,7.3504195312465495L211.12111254601083,28.87655331325609L211.32891928989488,46.26414180742122L211.53993615098395,47.185408757184085L211.7493286154151,8.892070719403383L211.95649720346927,9.969642957895436L212.165444892625,37.66576070818521L212.37499206149977,1.0701141107687333L212.5864150217533,26.43000118055729L212.79690975534518,18.630340769318728L213.0062635436654,-5.440938731497699L213.2145924150467,19.790339366089334L213.42286327226162,41.0387480028219L213.6326811739127,10.669140598045507L213.83973373363418,39.9163514625811L214.04612879947027,51.829345562528225L214.2560047152877,26.405816597943407L214.46555188416244,0.7507451020045635L214.67326193776927,13.810519102197722L214.88489761663277,-21.42704722797085L215.92689005853734,-27.21385464486453L216.1373461160183,9.837588510910583L216.34660321406128,-13.49463664887772L216.55487407127617,-26.0918225298412L216.7619459690531,16.409599753190115L216.9731175345858,42.4121341292035L217.180672883749,-14.504823351703141L217.59702121762433,-56.19785111369147L217.80689713344177,17.549091149086756L218.01389167899688,26.148797430931744L218.2226459875981,29.85904369955383L218.43035604120493,-32.14131426939993L218.64090878896315,22.54343936581042L218.84946971700984,41.12558059327531L219.05835939199926,10.380449566679223L219.27076859308085,17.664415165633237L219.4801803955674,-36.882585737373645L219.6903463822166,0.922289990737019L219.89960348025957,26.1879565770271L220.10725551970003,59.35280478849014L220.31556505302586,0.025240753153261006L220.52518957412244,36.549956951424086L220.7328416135629,47.1959770884907L220.9408417380015,31.206522505929875L221.1525741071423,-7.663435614583211L221.36134775379895,44.36850121484061L221.57232593877714,30.33070931965502L221.7803067251603,56.001252322553704L221.98946713292597,59.061463391905896L222.1976606379191,29.859308736075626L222.4079233148456,-12.01619667116923L223.03151758899688,-12.680775749572678L223.24234106953145,72.12845963731799L223.66203488699992,58.54759070570869L223.87229756392637,17.066890327244174L224.50051363333066,26.309409563140115L224.709229265821,72.74274803571065L224.91908584358293,42.856633505820604L225.12768544774056,21.829033421309326L225.3393984788259,39.213739643299924L225.54954512741963,-23.159856007473042L225.96657029323578,-17.287342405343583L226.1769683365504,35.514293612941024L226.3848524326563,-19.895798723294508L226.5928525570949,6.1852527223009215L226.80251575430233,37.88123540040535L227.012701079007,-1.9381166707462003L227.22039179455837,49.276811950676255L227.43289768591723,-36.378453143352445L227.641033176744,26.52852850753495L227.85232077060937,58.40771768133086L228.06167455892958,18.6207000658384L228.27058357197444,29.01175506893727L228.47955059918561,48.70277597403136L229.10759262609082,29.03686727937744L229.31611487802664,19.815749742616525L229.73315938189825,-27.81813791455939L229.94264853660664,-22.790262577828532L230.15151887354057,17.526993729082015L230.36021516797544,36.42850396531107L230.56804124991496,4.260126816670512L230.77569328935544,-5.836571999408665L231.40342590737342,-1.6100014567627627L231.61537099512418,16.0865202331208L231.82385457094907,8.514658712365891L232.03289895038205,40.363468074850935L232.24178862537147,15.892877924383603L232.66231397922436,-1.7535187333152922L232.87159041532277,10.682094258048286L233.2858309011539,9.380367381247273L233.49464322392146,52.09858953910773L233.70569876112145,45.56335211422739L233.91410498472453,2.557764107609634L234.12535390247902,3.143693598170122L234.54365537995497,23.206958298126686L234.75279644966525,-81.04217588945637L235.17322511324087,19.37741246513118L235.38110920934676,31.465860742507253L235.5914105623841,36.84172903235625L235.80424520068567,-35.894132029335495L236.22169580372173,51.602904984218775L236.4306048167666,22.991417346776096L236.64129293091298,-7.265947091019672L236.85230979200205,20.891400466325557L237.06228239809673,-14.790499592633996L237.26991509948172,31.582377423401816L237.47791522392035,41.691532956005425L237.68523851641814,10.054984717913745L237.89747367500067,71.74680704593176L238.10593791277012,13.724481621309698L238.31563978608847,41.5046159490088L238.524664827466,15.207162183366924L238.734308686618,31.36127070509351L238.94269557216563,45.757126941225486L239.15257148798307,54.97291061798526L239.36238938963413,65.10522371668078L239.5721299390634,110.64152951645016L239.9930613920808,49.21336883327134L240.20239584234557,56.18995832607245L240.6201558542689,42.238303300470555L240.82844604953922,137.2601081578131L241.03890210702022,30.15330049787783L241.24630275173982,116.90558488518536L241.45552117367188,155.13826268904L241.66425614421766,151.39384327388885L241.87217891643442,163.5832704660692L242.29442535722256,90.28210306816919L242.7102902397116,90.98630510658114L242.91794227915207,81.29852451406795L243.12687063025237,85.59052594803224L243.32905,112.02175689805063L243.5304171714187,155.05527312815263L243.74000301640433,149.00498627902851L243.9488153391719,127.46245336223285L244.16072175081175,103.14253647440654L244.36812239553134,151.1808036047127L244.57770824051698,122.22669000371826L244.7865012252291,102.31804098466444L244.99430796911318,72.85111484355998L245.20348771493434,105.46793378707935L245.41405980074802,114.64253741426506L245.62136375519037,63.85176661641187L245.83007938768068,137.5339405791762L246.24923173959652,158.86590197940495L246.45806340041955,131.39029461524945L246.6682100490133,121.2982670678669L247.08840665592354,122.82192890210683L247.2984952903509,138.73621250117327L247.7152303853353,126.88629709341359L247.92493225865363,186.07932196437378L248.13488552669287,130.74035880467522L248.34799089777073,91.07539050746982L248.55896908274892,101.68758535844222L248.7674526585738,7.937077872241977L248.9743698519071,86.48306956474546L249.18554141743977,107.23291137441453L249.39466314909458,99.37216004490199L249.6055446437955,97.61702193843848L249.80646703993878,105.47308543447176L249.98596287064154,118.39764111420112L250.17766101433438,137.8902490531657L250.39210071123838,62.44230239350079L250.60255676871935,176.23207220965244L250.81177519065142,130.6602515159624L251.02072287980715,113.49337218532287L251.22823955285946,79.30256759798756L251.43529211258095,107.54847048317788L251.85245264478525,169.68807201477023L252.2705220655958,181.0683095763422L252.48366611278456,140.6221626959257L252.6937354091565,183.20733651984457L252.90254773192405,46.085242155208924L253.11134071663616,119.32740579744407L253.3191667985757,100.68978911301076L253.528095149676,151.1498440260104L253.7375843043844,170.77198856500277L253.94695743076005,163.4809166743081L254.15497689325412,168.53544474626207L254.36539427462418,126.91702476515931L254.57832560320298,149.36013521823514L254.97591602329015,213.41273723458573L255.18652678521474,114.25950994592202L255.39752430824834,181.81447020911097L255.60825109850566,168.7538845345698L255.8183590709885,153.92224199747477L256.0284863815268,94.04035407680158L256.2370666476289,140.42086745762165L256.44464133484763,117.03628101999601L256.656528408432,91.5362227597426L256.85818565068246,138.58903440766343L257.06862237010796,197.76387114731537L257.2781115248164,96.95575581655748L257.4880647928556,126.32640744111956L257.672897926863,132.65751704986914L257.88542315627734,122.40911795462696L258.30527167818946,179.39089342989536L258.51690735705296,142.81538960813538L258.72707334370216,87.75878973284524L258.9378194720149,104.62578023907258L259.14547151145536,60.43726797654889L259.3572232186516,153.443039401285L259.5666930353045,161.67795604044304L259.77540866779486,67.39894916499897L259.9835441586216,137.29575556999467L260.1934780886054,50.687369449239746L260.4009174094359,1.869199223983648L260.6129785255194,157.6763518104541L260.8262192629854,161.0601724729192L261.0357664318601,187.80764168778805L261.24519757240216,168.28062869533784L261.454106585447,71.84116004769113L261.6647753615379,158.95803530029428L261.87412914985816,160.47593259018515L262.0812783998569,204.45211746918505L262.2927787123322,157.30465465341783L262.50389226369856,90.72590672391658L262.71512184339764,141.72436676616218L262.9270669311484,113.37857824181998L263.1365367478013,111.04267885697101L263.55632725554705,113.19007101569258L263.7652749447028,-33.405074664453664L263.97412594358127,164.8221008632915L264.18462067717314,127.21136438739637L264.39525077715314,150.0011923053292L264.6065383710186,134.7687814177134L264.81780662682854,162.15802000532864L265.02814665597674,173.03788517853238L265.23583737152813,208.96628576754483L265.4467382042845,183.9156963186922L265.866818782862,116.67217053339616L266.07729417839846,112.31193875985201L266.2876148694913,160.73586715893657L266.49739409503144,167.1247878590029L266.7060130372445,138.64111408419635L266.91672048944633,133.1666025138914L267.12831749219896,140.77729188508943L267.3397404524525,129.27556820783923L267.5477985910575,159.51744457389256L267.75792590159574,134.79048128293545L267.96364413549105,127.79547175186951L268.170503314658,173.69896908780464L268.380533934919,153.81026406701596L268.5905065410137,157.55807926260263L268.79904813100495,134.5260410933135L269.0107418240349,189.00767736413246" fill="none"></path></g></g></g></g></g></g><g transform="translate(51, 177)" clip-path="url(#clip_1)"><clipPath id="clip_1"><rect width="278" height="22"></rect></clipPath><g><g><line x1="0" y1="0" x2="0" y2="5" style="visibility: inherit;" fill="rgb(0, 0, 0)" stroke="rgb(204, 204, 204)" stroke-width="1px"></line><line x1="34.808499813079834" y1="0" x2="34.808499813079834" y2="5" style="visibility: inherit;" fill="rgb(0, 0, 0)" stroke="rgb(204, 204, 204)" stroke-width="1px"></line><line x1="69.61699962615967" y1="0" x2="69.61699962615967" y2="5" style="visibility: inherit;" fill="rgb(0, 0, 0)" stroke="rgb(204, 204, 204)" stroke-width="1px"></line><line x1="104.4254994392395" y1="0" x2="104.4254994392395" y2="5" style="visibility: inherit;" fill="rgb(0, 0, 0)" stroke="rgb(204, 204, 204)" stroke-width="1px"></line><line x1="139.23399925231934" y1="0" x2="139.23399925231934" y2="5" style="visibility: inherit;" fill="rgb(0, 0, 0)" stroke="rgb(204, 204, 204)" stroke-width="1px"></line><line x1="174.04249906539917" y1="0" x2="174.04249906539917" y2="5" style="visibility: inherit;" fill="rgb(0, 0, 0)" stroke="rgb(204, 204, 204)" stroke-width="1px"></line><line x1="208.850998878479" y1="0" x2="208.850998878479" y2="5" style="visibility: inherit;" fill="rgb(0, 0, 0)" stroke="rgb(204, 204, 204)" stroke-width="1px"></line><line x1="243.65949869155884" y1="0" x2="243.65949869155884" y2="5" style="visibility: inherit;" fill="rgb(0, 0, 0)" stroke="rgb(204, 204, 204)" stroke-width="1px"></line><line x1="278.4679985046387" y1="0" x2="278.4679985046387" y2="5" style="visibility: inherit;" fill="rgb(0, 0, 0)" stroke="rgb(204, 204, 204)" stroke-width="1px"></line></g><g transform="translate(0, 8)"><text style="text-anchor: middle; visibility: hidden; font-family: Roboto, sans-serif; font-size: 12px; font-weight: 200;" x="0" y="0" dx="0em" dy="0.95em" fill="rgb(50, 49, 63)" stroke="none" stroke-width="1px">-0.5</text><text style="text-anchor: middle; visibility: hidden; font-family: Roboto, sans-serif; font-size: 12px; font-weight: 200;" x="34.808499813079834" y="0" dx="0em" dy="0.95em" fill="rgb(50, 49, 63)" stroke="none" stroke-width="1px">0</text><text style="text-anchor: middle; visibility: hidden; font-family: Roboto, sans-serif; font-size: 12px; font-weight: 200;" x="69.61699962615967" y="0" dx="0em" dy="0.95em" fill="rgb(50, 49, 63)" stroke="none" stroke-width="1px">0.5</text><text style="text-anchor: middle; visibility: hidden; font-family: Roboto, sans-serif; font-size: 12px; font-weight: 200;" x="104.4254994392395" y="0" dx="0em" dy="0.95em" fill="rgb(50, 49, 63)" stroke="none" stroke-width="1px">1</text><text style="text-anchor: middle; visibility: hidden; font-family: Roboto, sans-serif; font-size: 12px; font-weight: 200;" x="139.23399925231934" y="0" dx="0em" dy="0.95em" fill="rgb(50, 49, 63)" stroke="none" stroke-width="1px">1.5</text><text style="text-anchor: middle; visibility: hidden; font-family: Roboto, sans-serif; font-size: 12px; font-weight: 200;" x="174.04249906539917" y="0" dx="0em" dy="0.95em" fill="rgb(50, 49, 63)" stroke="none" stroke-width="1px">2</text><text style="text-anchor: middle; visibility: hidden; font-family: Roboto, sans-serif; font-size: 12px; font-weight: 200;" x="208.850998878479" y="0" dx="0em" dy="0.95em" fill="rgb(50, 49, 63)" stroke="none" stroke-width="1px">2.5</text><text style="text-anchor: middle; visibility: hidden; font-family: Roboto, sans-serif; font-size: 12px; font-weight: 200;" x="243.65949869155884" y="0" dx="0em" dy="0.95em" fill="rgb(50, 49, 63)" stroke="none" stroke-width="1px">3</text><text style="text-anchor: middle; visibility: hidden; font-family: Roboto, sans-serif; font-size: 12px; font-weight: 200;" x="278.4679985046387" y="0" dx="0em" dy="0.95em" fill="rgb(50, 49, 63)" stroke="none" stroke-width="1px">3.5</text></g><line x1="0" y1="0" x2="278.4679985046387" y2="0" fill="rgb(0, 0, 0)" stroke="rgb(204, 204, 204)" stroke-width="1px"></line></g></g></g></g></svg>