<svg viewBox="0 0 330 200" xmlns="http://www.w3.org/2000/svg"><g><g><g><g><g><line x1="41.149001121520996" y1="177.86299896240234" x2="36.149001121520996" y2="177.86299896240234" style="visibility: inherit;" fill="rgb(0, 0, 0)" stroke="rgb(204, 204, 204)" stroke-width="1px"></line><line x1="41.149001121520996" y1="163.04108238220215" x2="36.149001121520996" y2="163.04108238220215" style="visibility: inherit;" fill="rgb(0, 0, 0)" stroke="rgb(204, 204, 204)" stroke-width="1px"></line><line x1="41.149001121520996" y1="148.21916580200195" x2="36.149001121520996" y2="148.21916580200195" style="visibility: inherit;" fill="rgb(0, 0, 0)" stroke="rgb(204, 204, 204)" stroke-width="1px"></line><line x1="41.149001121520996" y1="133.39724922180176" x2="36.149001121520996" y2="133.39724922180176" style="visibility: inherit;" fill="rgb(0, 0, 0)" stroke="rgb(204, 204, 204)" stroke-width="1px"></line><line x1="41.149001121520996" y1="118.57533264160158" x2="36.149001121520996" y2="118.57533264160158" style="visibility: inherit;" fill="rgb(0, 0, 0)" stroke="rgb(204, 204, 204)" stroke-width="1px"></line><line x1="41.149001121520996" y1="103.75341606140137" x2="36.149001121520996" y2="103.75341606140137" style="visibility: inherit;" fill="rgb(0, 0, 0)" stroke="rgb(204, 204, 204)" stroke-width="1px"></line><line x1="41.149001121520996" y1="88.93149948120117" x2="36.149001121520996" y2="88.93149948120117" style="visibility: inherit;" fill="rgb(0, 0, 0)" stroke="rgb(204, 204, 204)" stroke-width="1px"></line><line x1="41.149001121520996" y1="74.10958290100099" x2="36.149001121520996" y2="74.10958290100099" style="visibility: inherit;" fill="rgb(0, 0, 0)" stroke="rgb(204, 204, 204)" stroke-width="1px"></line><line x1="41.149001121520996" y1="59.28766632080079" x2="36.149001121520996" y2="59.28766632080079" style="visibility: inherit;" fill="rgb(0, 0, 0)" stroke="rgb(204, 204, 204)" stroke-width="1px"></line><line x1="41.149001121520996" y1="44.46574974060063" x2="36.149001121520996" y2="44.46574974060063" style="visibility: inherit;" fill="rgb(0, 0, 0)" stroke="rgb(204, 204, 204)" stroke-width="1px"></line><line x1="41.149001121520996" y1="29.643833160400405" x2="36.149001121520996" y2="29.643833160400405" style="visibility: inherit;" fill="rgb(0, 0, 0)" stroke="rgb(204, 204, 204)" stroke-width="1px"></line><line x1="41.149001121520996" y1="14.821916580200202" x2="36.149001121520996" y2="14.821916580200202" style="visibility: inherit;" fill="rgb(0, 0, 0)" stroke="rgb(204, 204, 204)" stroke-width="1px"></line><line x1="41.149001121520996" y1="0" x2="36.149001121520996" y2="0" style="visibility: inherit;" fill="rgb(0, 0, 0)" stroke="rgb(204, 204, 204)" stroke-width="1px"></line></g><g transform="translate(31.149001121520996, 0)"><text style="text-anchor: end; visibility: hidden; font-family: Roboto, sans-serif; font-size: 12px; font-weight: 200;" x="0" y="177.86299896240234" dx="0em" dy="0.3em" fill="rgb(50, 49, 63)" stroke="none" stroke-width="1px">1</text><text style="text-anchor: end; visibility: inherit; font-family: Roboto, sans-serif; font-size: 12px; font-weight: 200;" x="0" y="163.04108238220215" dx="0em" dy="0.3em" fill="rgb(50, 49, 63)" stroke="none" stroke-width="1px">1.1</text><text style="text-anchor: end; visibility: hidden; font-family: Roboto, sans-serif; font-size: 12px; font-weight: 200;" x="0" y="148.21916580200195" dx="0em" dy="0.3em" fill="rgb(50, 49, 63)" stroke="none" stroke-width="1px">1.2</text><text style="text-anchor: end; visibility: inherit; font-family: Roboto, sans-serif; font-size: 12px; font-weight: 200;" x="0" y="133.39724922180176" dx="0em" dy="0.3em" fill="rgb(50, 49, 63)" stroke="none" stroke-width="1px">1.3</text><text style="text-anchor: end; visibility: hidden; font-family: Roboto, sans-serif; font-size: 12px; font-weight: 200;" x="0" y="118.57533264160158" dx="0em" dy="0.3em" fill="rgb(50, 49, 63)" stroke="none" stroke-width="1px">1.4</text><text style="text-anchor: end; visibility: inherit; font-family: Roboto, sans-serif; font-size: 12px; font-weight: 200;" x="0" y="103.75341606140137" dx="0em" dy="0.3em" fill="rgb(50, 49, 63)" stroke="none" stroke-width="1px">1.5</text><text style="text-anchor: end; visibility: hidden; font-family: Roboto, sans-serif; font-size: 12px; font-weight: 200;" x="0" y="88.93149948120117" dx="0em" dy="0.3em" fill="rgb(50, 49, 63)" stroke="none" stroke-width="1px">1.6</text><text style="text-anchor: end; visibility: inherit; font-family: Roboto, sans-serif; font-size: 12px; font-weight: 200;" x="0" y="74.10958290100099" dx="0em" dy="0.3em" fill="rgb(50, 49, 63)" stroke="none" stroke-width="1px">1.7</text><text style="text-anchor: end; visibility: hidden; font-family: Roboto, sans-serif; font-size: 12px; font-weight: 200;" x="0" y="59.28766632080079" dx="0em" dy="0.3em" fill="rgb(50, 49, 63)" stroke="none" stroke-width="1px">1.8</text><text style="text-anchor: end; visibility: inherit; font-family: Roboto, sans-serif; font-size: 12px; font-weight: 200;" x="0" y="44.46574974060063" dx="0em" dy="0.3em" fill="rgb(50, 49, 63)" stroke="none" stroke-width="1px">1.9</text><text style="text-anchor: end; visibility: hidden; font-family: Roboto, sans-serif; font-size: 12px; font-weight: 200;" x="0" y="29.643833160400405" dx="0em" dy="0.3em" fill="rgb(50, 49, 63)" stroke="none" stroke-width="1px">2</text><text style="text-anchor: end; visibility: inherit; font-family: Roboto, sans-serif; font-size: 12px; font-weight: 200;" x="0" y="14.821916580200202" dx="0em" dy="0.3em" fill="rgb(50, 49, 63)" stroke="none" stroke-width="1px">2.1</text><text style="text-anchor: end; visibility: hidden; font-family: Roboto, sans-serif; font-size: 12px; font-weight: 200;" x="0" y="0" dx="0em" dy="0.3em" fill="rgb(50, 49, 63)" stroke="none" stroke-width="1px">2.2</text></g><line x1="41.149001121520996" y1="0" x2="41.149001121520996" y2="177.86299896240234" fill="rgb(0, 0, 0)" stroke="rgb(204, 204, 204)" stroke-width="1px"></line></g></g><g transform="translate(41, 0)" clip-path="url(#clip_0)"><clipPath id="clip_0"><rect width="288" height="177"></rect></clipPath><g><g><g><line x1="0" y1="0" x2="0" y2="177.86299896240234" fill="rgb(0, 0, 0)" stroke="rgb(60, 60, 60)" stroke-width="1px" opacity="0.25"></line><line x1="36.106374859809875" y1="0" x2="36.106374859809875" y2="177.86299896240234" fill="rgb(0, 0, 0)" stroke="rgb(60, 60, 60)" stroke-width="1px" opacity="0.25"></line><line x1="72.21274971961975" y1="0" x2="72.21274971961975" y2="177.86299896240234" fill="rgb(0, 0, 0)" stroke="rgb(60, 60, 60)" stroke-width="1px" opacity="0.25"></line><line x1="108.31912457942963" y1="0" x2="108.31912457942963" y2="177.86299896240234" fill="rgb(0, 0, 0)" stroke="rgb(60, 60, 60)" stroke-width="1px" opacity="0.25"></line><line x1="144.4254994392395" y1="0" x2="144.4254994392395" y2="177.86299896240234" fill="rgb(0, 0, 0)" stroke="rgb(60, 60, 60)" stroke-width="1px" opacity="0.25"></line><line x1="180.53187429904938" y1="0" x2="180.53187429904938" y2="177.86299896240234" fill="rgb(0, 0, 0)" stroke="rgb(60, 60, 60)" stroke-width="1px" opacity="0.25"></line><line x1="216.63824915885925" y1="0" x2="216.63824915885925" y2="177.86299896240234" fill="rgb(0, 0, 0)" stroke="rgb(60, 60, 60)" stroke-width="1px" opacity="0.25"></line><line x1="252.74462401866913" y1="0" x2="252.74462401866913" y2="177.86299896240234" fill="rgb(0, 0, 0)" stroke="rgb(60, 60, 60)" stroke-width="1px" opacity="0.25"></line><line x1="288.850998878479" y1="0" x2="288.850998878479" y2="177.86299896240234" fill="rgb(0, 0, 0)" stroke="rgb(60, 60, 60)" stroke-width="1px" opacity="0.25"></line></g><g><line x1="0" y1="177.86299896240234" x2="288.850998878479" y2="177.86299896240234" fill="rgb(0, 0, 0)" stroke="rgb(60, 60, 60)" stroke-width="1px" opacity="0.25"></line><line x1="0" y1="163.04108238220215" x2="288.850998878479" y2="163.04108238220215" fill="rgb(0, 0, 0)" stroke="rgb(60, 60, 60)" stroke-width="1px" opacity="0.25"></line><line x1="0" y1="148.21916580200195" x2="288.850998878479" y2="148.21916580200195" fill="rgb(0, 0, 0)" stroke="rgb(60, 60, 60)" stroke-width="1px" opacity="0.25"></line><line x1="0" y1="133.39724922180176" x2="288.850998878479" y2="133.39724922180176" fill="rgb(0, 0, 0)" stroke="rgb(60, 60, 60)" stroke-width="1px" opacity="0.25"></line><line x1="0" y1="118.57533264160158" x2="288.850998878479" y2="118.57533264160158" fill="rgb(0, 0, 0)" stroke="rgb(60, 60, 60)" stroke-width="1px" opacity="0.25"></line><line x1="0" y1="103.75341606140137" x2="288.850998878479" y2="103.75341606140137" fill="rgb(0, 0, 0)" stroke="rgb(60, 60, 60)" stroke-width="1px" opacity="0.25"></line><line x1="0" y1="88.93149948120117" x2="288.850998878479" y2="88.93149948120117" fill="rgb(0, 0, 0)" stroke="rgb(60, 60, 60)" stroke-width="1px" opacity="0.25"></line><line x1="0" y1="74.10958290100099" x2="288.850998878479" y2="74.10958290100099" fill="rgb(0, 0, 0)" stroke="rgb(60, 60, 60)" stroke-width="1px" opacity="0.25"></line><line x1="0" y1="59.28766632080079" x2="288.850998878479" y2="59.28766632080079" fill="rgb(0, 0, 0)" stroke="rgb(60, 60, 60)" stroke-width="1px" opacity="0.25"></line><line x1="0" y1="44.46574974060063" x2="288.850998878479" y2="44.46574974060063" fill="rgb(0, 0, 0)" stroke="rgb(60, 60, 60)" stroke-width="1px" opacity="0.25"></line><line x1="0" y1="29.643833160400405" x2="288.850998878479" y2="29.643833160400405" fill="rgb(0, 0, 0)" stroke="rgb(60, 60, 60)" stroke-width="1px" opacity="0.25"></line><line x1="0" y1="14.821916580200202" x2="288.850998878479" y2="14.821916580200202" fill="rgb(0, 0, 0)" stroke="rgb(60, 60, 60)" stroke-width="1px" opacity="0.25"></line><line x1="0" y1="0" x2="288.850998878479" y2="0" fill="rgb(0, 0, 0)" stroke="rgb(60, 60, 60)" stroke-width="1px" opacity="0.25"></line></g></g></g><g><g><line x1="0" y1="326.0821647644043" x2="288.850998878479" y2="326.0821647644043" fill="rgb(0, 0, 0)" stroke="rgb(153, 153, 153)" stroke-width="1.5px"></line></g></g><g><g><line x1="36.106374859809875" y1="0" x2="36.106374859809875" y2="177.86299896240234" fill="rgb(0, 0, 0)" stroke="rgb(153, 153, 153)" stroke-width="1.5px"></line></g></g><g><g><g><g><g><path style="fill: none;" stroke="rgb(255, 112, 67)" stroke-width="2px" d="M36.106374859809875,82.98805194610578L36.322792458900146,72.73609694419615L36.538909171533255,89.05341635334615L36.752879560771916,131.8387094452606L36.969898932776516,160.62207863236813L37.186677595615386,161.96993678924065L37.39984562096828,192.24647228397922L37.615641388047074,175.10520566603492L37.83338288754887,137.7072558032771L38.26718092239234,90.2931758414084L38.4338720196618,106.41489529478642L38.650610564306376,147.39824230235743L38.86496207639078,136.82584237399277L39.29639313777122,172.30852241157348L39.51040364520417,150.31279310944L39.725657816660075,176.23787795686792L39.93936743763586,188.0206207176651L40.155764977628984,194.64428404119533L40.376455164411006,150.01458654299375L40.591568922186894,111.44415714380463L40.80726439377997,135.6697759866909L41.02354157919023,143.9431980529552L41.24290786556072,137.2343438540941L41.46034847860535,149.94587578866245L41.89709520072904,137.27418050697983L42.33338056361841,141.49975826922133L42.55485305518906,183.27645142748048L42.77482111447387,145.9704558565718L42.9926227912671,128.2730881253755L43.21080559090608,111.12044567172701L43.429610222556526,124.17607428111579L43.6474319584469,120.23760138473432L43.864531566840085,120.23483427636998L44.301458820838064,131.50828736832054L44.519360793117016,132.9837000200494L44.73838607483605,141.49578704517427L44.952256168588995,144.84066647309874L45.171421863988044,166.15137729902244L45.389704959112734,139.37305273511225L45.60873024083177,141.81622994484573L45.82637144484785,124.39710377950742L46.48314640354779,130.0683651291013L46.70116873040961,152.2757105313865L46.922540926494534,148.67631314722732L47.14539749576813,110.7401367384322L47.36352011811567,117.71824261702713L47.582003804211816,111.64179653529058L48.0185699944612,106.47485955103082L48.23416517056856,68.74631880044481L48.45164590180748,62.89152600753427L48.88606576866243,68.93874383754469L49.106856250930164,66.16059759537968L49.32473816411198,73.14427575702345L49.54121594049368,83.92325524765431L49.75889726270404,95.83674767706407L49.97800278081166,97.27993553686451L50.196466407810654,101.55785069030044L50.63870932255188,102.70618792647424L50.85633046747082,101.82881028908288L51.07240706190964,102.6640141381055L51.293378076051674,103.55741170269887L51.51033727076484,107.86143559980538L51.728961370540986,113.69443453238978L51.94862854336865,130.25730450473722L52.167573588699106,150.6066222634113L52.384673197092276,181.4449727450819L52.602414696594074,132.52907396862878L53.034949008317454,117.8925813474439L53.25168755296204,109.48863492245468L54.12518099720941,126.21060684071014L54.34410598344273,130.1917976325216L54.5630109105789,127.8863053834477L54.78019075536066,132.92065384625562L54.99843373229106,141.1984778968016L55.21699765477578,161.98593028011177L55.43489962705473,164.84133595369255L55.655750286613895,183.08796044298816L55.87591893687016,169.82414917408414L56.09305866345763,166.02145838348832L56.308453248593544,161.79776229201855L56.524449606643785,160.6119656483477L56.74154921503696,152.4968231771249L56.958668882527284,145.7968654018245L57.177954932509195,165.39510797255195L57.39501442270809,155.8085279873017L57.61345799060994,174.67233815897464L58.05327375459671,170.1620777690753L58.49076266331474,169.42298726170262L58.70609707115922,169.51437665826333L58.92520258926683,63.631667130700855L59.1448296439002,9.368453250771697L59.36315285721918,-13.631169684572843L59.5836625121269,-16.4206054310348L60.02175319375926,24.60683436136797L60.23967522513536,45.20134428181345L60.45673471533425,61.3029738812146L60.89444427412086,90.877177398913L61.11425186062853,112.13872001848367L61.33277566491895,137.9248763399199L61.55250301503804,147.67436095080035L61.7696427416255,163.62302454676487L61.98744441841873,180.264909580945L62.209939923943736,132.9539435171144L62.425414745468224,96.28937571277336L62.64231376288996,80.5272129583705L62.861218690026135,76.40008953231005L63.08036432632804,77.92114577188497L63.29832647589842,79.49104181912166L63.5179134123375,84.6206413035273L63.73264604726765,80.40161337001975L63.952634165649606,91.97161670634341L64.17161932917435,93.9654857931746L64.39285111157928,99.91927642027657L64.61279911176695,98.97831807709991L64.83031996120016,96.55163887489877L65.04818181528482,94.12967571242017L65.26395752326647,106.71901619475726L65.48310315956837,109.82321562681074L65.70034318164156,101.57472626469679L65.9197295271092,102.80559170693401L66.1367488991138,105.79282924364574L66.35523258520995,116.73296032276575L66.57560182643765,120.79248624510916L66.79135747532216,124.0093315708335L67.00879808836679,124.18392872521903L67.22726171536578,124.56240966992061L67.44530410132475,127.17396468075461L67.88311395559708,128.82954710306535L68.10244012377328,129.34345608998368L68.31829606814352,129.71543851792805L68.5367998133368,129.24770956675516L68.75596550873584,123.99103623607368L69.19235116711093,125.98073383515097L69.40941065730982,146.2339576969588L69.84405117423336,162.10902612526544L70.06263515581522,191.08668773598805L70.28310469252865,116.8063821517872L70.50112701939047,97.2000593233525L70.71920952354373,89.82693132276985L70.93895693275995,96.49548318251597L71.37437975447212,99.41759761082784L71.59511005944842,95.02232993833348L71.81218960874445,96.69522859048627L72.03037240838343,90.81419533295009L72.24883603538242,85.28049988081563L72.4667981849528,85.40929121317346L72.68518157556322,86.8320044794739L72.90374549804794,90.52405343779935L73.12551887607574,93.86902395678193L73.34217718433175,105.98262628471655L73.55935702911351,106.2811399369096L73.77625604653525,108.84750629026803L73.9940777824256,116.84553110383095L74.21228064116173,108.36132333664357L74.43062391357788,105.97909734413537L74.64756304919388,116.88545199572914L75.08420947583186,113.44596803064212L75.30171026616792,111.02623818967005L75.52007359768119,118.56257324729343L75.73723338336579,116.83592271748918L75.95328991870748,118.53814132235065L76.17137242286071,115.46528724353117L76.38779002195099,119.96410372439442L76.60370614361265,106.92319262727459L76.82210959332023,121.37313510704524L77.04051304302779,140.81500468700415L77.25923743828965,138.47366008976007L77.48187335749466,146.82895399790172L77.69835113387636,146.4559379969587L78.13361348281138,142.00910006686078L78.35332077383333,148.51179810362757L78.57455255623826,149.04995504364427L78.7888438910312,152.89734728034088L79.01011579163041,149.01174482281544L79.22613220877778,138.64108353996676L79.44391382647389,147.86521315446421L79.88138267609477,147.42969026240362L80.09862269816796,151.77743938524594L80.3143984061496,148.1663672535358L80.53133754176565,138.99678057516383L80.74964069598748,157.0798476684817L81.18440156749388,156.45515787781355L81.40031768915553,155.4512957211212L81.61619369262291,152.45589652922425L81.83511867885622,168.90215975246963L82.05296047384374,171.86585764644286L82.26863588633968,163.95598083858025L82.48559508105286,173.24470684972005L82.70512184020049,162.25987410270662L82.92262263053655,171.07202778149008L83.13926087969541,170.56222208718023L83.35806551134586,175.55962759240455L83.57450316953329,167.40574398151753L84.00994605034259,176.30305908245393L84.23023505518171,164.3858743403572L84.66499592668812,169.77603156039828L84.87952797064682,169.77847550721947L85.09530367862848,168.65762882157574L85.31087879563869,178.67383877264498L85.52856011784904,104.71489366516771L85.7478662269281,83.38590103716193L85.96604902656706,79.32931100222214L86.40295622146792,84.70227276728103L86.61889240222672,86.32935673676798L87.05026328631574,95.12537894270015L87.26551745777162,106.07841366759298L87.48225600241621,120.94996273099919L87.69835265595216,128.26018380593746L87.91617439184255,129.89834711651378L88.13174950885275,134.78832162784855L88.34812698974875,136.99843151867958L88.56522659814192,131.77306320472337L88.78184478820364,119.09374984894558L88.99914498756826,133.08474423417644L89.2178092055387,142.3765566341799L89.43506928670904,140.5766247364374L89.651306353925,161.69342129090182L89.86738294836381,171.7388072100319L90.08432208397984,185.22949548584737L90.51842100528047,188.53686949921172L90.73684451408519,163.92348538873787L90.95458601358698,147.55395583731L91.17292928600313,114.88476121120955L91.38870499398477,112.71222986750874L91.6051025339779,92.20433431532469L91.82228237875965,116.56982397520905L92.03827873680989,96.6682026865393L92.25676242290602,51.660368796075154L92.4721369489448,38.23742614920908L92.69048022136091,28.5908405385796L93.1210688006613,34.929207634722324L93.3345176533742,29.2247105650117L93.54852816080717,35.48527360127437L93.76536700093746,7.629878554476017L93.98369021425644,13.31031935520142L94.20323703250124,39.41110977877754L94.42023634540868,43.69126916903244L94.63641323533322,42.82625132321406L94.8578456087096,52.87308057903326L95.07624905841715,38.35913025667422L95.29280707118744,35.86132200648109L95.51169193922645,36.774426998865245L95.73059686636263,35.278823073045714L95.9473755292015,67.37534137817453L96.59502359870076,84.45600913908045L96.81081936577957,103.08574806988584L97.0289821063214,95.62290849224235L97.46278014116486,85.74484178046292L97.677372362415,89.84339337674027L97.88797282333341,65.90711307040904L98.10561402734949,24.727479542050972L98.30008697416386,71.53873761795668L98.51493996367687,35.86610167639504L98.94815628470313,44.77953190193912L99.16824469857083,78.71825993937625L99.38626702543264,42.42929707265243L99.60424923410017,84.1434674800475L99.8220910290877,14.756482954732913L100.04063489247528,-26.327174039665632L100.47734149640468,-6.355809611849393L100.69424051382641,9.838104449829654L100.91340620922546,54.57929074487884L101.13182971803018,56.6055656301374L101.34983198579482,64.49923317030783L101.56841596737671,79.2555316549598L101.78587663951848,20.861678882141025L102.00121104736296,51.40922701575497L102.21899266505903,40.9920078241794L102.43599197796648,83.13504820599321L102.65124614942239,82.19961490254582L102.86884723524419,97.10676978756412L103.08382057934006,82.54368022226222L103.30088006953895,99.58840970002122L103.5194640511208,8.005050832521135L103.73558076375392,-15.607908402971733L105.91827130132086,-10.931855622041924L106.13657445554269,0.8274587298134516L106.35078555394708,13.216790726001452L106.56740374400881,25.67711500194055L106.78642902572784,21.743013772267602L107.00174337447517,24.23730121442713L107.21753914155398,16.750026113551932L107.43423756800425,32.55788960639074L107.65199912660322,23.00378336910503L107.87156600394515,24.367668964001062L108.08581722054383,21.63668776217138L108.30295694713129,11.778970185791426L108.5209792739931,17.513931609998956L108.73665468648905,31.0585812749462L108.95363394029935,28.979316422032188L109.16900846633811,24.365821954037028L109.38562665639982,20.44663278705677L109.60497288367317,25.548384473487896L109.82161113283205,25.380202233221873L110.03838979567091,13.850861528094496L110.25538910857837,15.100551884277507L110.47044268906282,16.728704198859827L110.68856531141036,19.44088510895538L110.9056849789007,36.76708428145322L111.12220287347667,31.00465787354335L111.55411535318858,17.043769331819366L111.76975064749023,18.199829522963423L111.9867098422034,14.366995227403427L112.20611624676816,20.28187194481527L112.42309550057848,29.216043257252498L112.63770778092577,26.784274409976447L112.85518851216469,24.130371920229816L113.07026215174628,18.337703358396706L113.28772282388806,31.492218103079093L113.71963530359997,46.051846445440624L113.93627355275882,48.702271828172236L114.15245044268336,42.108510240936575L114.58733166877262,49.83596782735688L114.80218465828564,50.310845981608985L115.02217277666762,51.63858910663905L115.2404558717923,47.60681376285886L115.45825754858554,46.527872157759454L115.67529697968727,44.404607150325155L115.88970866906313,30.00072472081001L116.10741005037062,36.68553506260951L116.32382764946091,41.741937338870024L116.54267239930563,37.32965890263464L116.75738497513863,51.70616011473701L117.18839479547906,65.66796692509106L117.40479233547217,58.01028490152137L117.62102940268815,64.69413171521369L117.83806883378989,77.24783907621851L118.05384454177155,67.88506657733588L118.48655938536922,76.35379030291828L118.7029368662652,84.62004969855684L118.9190936970926,79.75635033928172L119.13466881410281,71.91317260221946L119.3512268268731,71.9217638802515L119.568567144432,78.05249927994434L119.7868502395567,75.01812376627352L120.00106133796109,72.23878008086821L120.43439801357025,82.37139846336828L120.65394483181502,88.6538107775495L120.87419371845986,93.77285947324631L121.09047090387013,92.48926510563732L121.30833275795479,89.67641193664532L121.5258937255823,99.43217133537475L121.74122813342677,95.03945639479099L121.95519852266543,94.49384183255872L122.1720173036986,108.10022755413912L122.38711100237734,94.94756025926772L122.60142239626745,95.33129061552899L122.81980578687786,93.20498663320913L123.25468701296714,90.41279248363105L123.4721878033032,95.11079156441095L123.68778297941056,91.8001585158885L123.90460176044371,86.50166321355432L124.12172142793405,98.0681591617173L124.3371360721671,94.28721634171798L124.55212947536012,84.70597496954082L124.76632051466737,98.03171779359634L124.9844431370149,119.0184692783646L125.42161110017862,131.5496395132589L125.63756734003458,126.86410245426703L125.85358375718197,141.80260826265678L126.06996123807795,161.64807246061088L126.28617824619677,178.2441085526559L126.7176494257715,178.2168361650683L126.93545110256473,167.89108564151556L127.15425573421518,109.52211466283404L127.3747653891229,72.87681443455789L127.59090216085315,41.691891656871086L128.02534208680524,52.660151759409L128.24382577290137,63.7574644375065L128.46024337199165,62.47489845471931L128.67696185753908,79.9697252784263L129.11278586119414,79.78299211141349L129.32932381486725,89.42431741622006L129.54826886019774,110.46472787593059L129.76615077337954,60.84613647764965L129.98503564141856,18.389570400342148L130.2031181455718,23.29126155541938L130.4175900122391,-1.8681821029310572L130.63444891146654,0.05399834612711103L130.85152846076255,11.997508829123252L131.06943043304153,-3.7312644417011045L131.2865300414347,8.308985311345452L131.50533467308514,9.694543143741079L131.72271510883834,11.822351696117451L131.9397946581344,8.336111434011277L132.15687420743043,18.893450842499018L132.37521747984655,-2.6517259603606447L132.5938415796227,23.882045764975025L132.80979781947866,17.98195090768056L133.02623547766606,30.576455188092925L133.24219171752202,21.665512796239266L133.4601538670924,24.05293923163267L133.6767118798627,33.90024811876685L133.89704100289612,52.25800669689503L134.11476244330075,43.013213576561704L134.33077886044813,39.10046101842827L134.54813923710418,64.01462160357666L134.7623102173143,57.654337090360734L134.98001159862181,72.83236563279027L135.195165474592,66.91679255296134L135.41330815603666,67.3959048893949L135.6302472916527,77.44633535217856L135.8494932234403,83.31254662431793L136.06841820967364,82.6750377242401L136.2856983499411,81.90214418904878L136.50532540457448,71.23838211346741L136.7229465494934,70.39705020746729L136.9410892309381,72.55586104027631L137.15935226696564,62.606927163103016L137.5904222645975,60.02843702901641L137.80716080924205,57.30608619923403L138.45876052087877,64.79337399210975L138.89293967856798,69.4437791112314L139.10777260898385,88.2034903611566L139.32360849425694,69.40761041276875L139.54225265313022,54.255912853293275L139.76001421172919,48.56638717361891L139.97480702395075,57.36647348344915L140.1925284643554,50.50229033795347L140.41390066044033,50.81429350473119L140.84677597681517,44.33620853422004L141.0627322166711,48.36943333128209L141.4968110788746,58.851913487724424L141.71222572310765,61.966695176549315L141.9292250360151,67.12186157202177L142.14626446711685,87.30028281800259L142.36436703036725,62.68966350317454L142.58250971181195,63.4299992580335L142.80021109311946,59.79791780280482L143.01871483831275,50.670407865498625L143.45120903184184,60.48959776967762L143.66692456253205,37.52201282079935L143.88312151155372,26.51166598312761L144.0980948556496,19.488763927136585L144.31509416855707,23.97739440592493L144.53339732277888,27.149221583920905L144.75192112706935,27.653419790476363L144.97170865447984,36.97981032919203L145.40596804855767,33.30321825367847L145.84325636630422,31.14717468615494L146.2739853592846,18.651748147550705L146.49066372663773,40.24490085671611L146.7086860534996,17.042813945066758L146.9301384859731,6.659212749885382L147.14741862624058,24.303817554142118L147.363715870748,37.725474682591305L147.58131695656976,35.11335691674663L147.80048265196882,28.83503734557403L148.2336989729951,26.968661372692754L148.4494145036853,25.733760465020392L148.66641381659275,15.829397742358342L148.88251047012872,22.88524541900488L149.1013351608763,6.850810453803934L149.32022002891534,39.41653565435434L149.53547420037123,28.432958464182544L149.7542387138274,13.137811275400303L149.97137844041487,21.33775416817789L150.18717420749368,30.562443090854902L150.4050761797726,32.35827668305608L150.62341945218876,22.762551144075307L150.83801167343887,31.570017651150764L151.0538274996148,44.330987008965266L151.2739560316768,48.77582778196783L151.49245977687008,58.72238084151084L151.70961956255468,49.191309061714406L151.9250141476906,45.0980325012229L152.14255505622094,70.36432133354224L152.35897265531125,41.3509522800366L152.79200844446322,41.815276441193674L153.0085664572335,48.952938377921775L153.22502417451804,20.811504604121215L153.4460954841458,51.04157193478371L154.31593817271292,73.07824302767557L154.53634753213493,90.18519342573987L154.7553928729511,90.82686289256614L154.97267301321855,72.01586298078712L155.18858913488026,52.69198457059248L155.40641087077063,48.16134022697662L155.62726153032978,26.53027253691192L155.84514344351157,57.514780538820894L156.06240352468194,75.31285651642231L156.27841994182933,50.40673959359803L156.49650244598257,57.54859813936631L156.71504630937014,74.49875556501111L156.93108278561465,56.94333706947587L157.14693872998487,86.37969961588345L157.36445957941814,76.72126270373334L157.57742701379954,81.41224685759153L157.79811720058157,77.2618613157629L158.2254160879503,87.7133138764799L158.4422549280806,73.53427836731697L158.87226179356375,95.25492966322611L159.08544987801378,34.215167764288786L159.52191577277748,89.28593246192038L159.73648793493047,56.21098116043619L159.95432972991796,74.5378353562684L160.16968419685958,35.48209757349914L160.38644280060134,2.271577764673378L160.60312116795447,-5.355272599142779L161.25458046591118,-0.7460311065168812L161.4706370012528,40.35398066670318L161.68685400937167,25.792582789397457L161.9033518448505,-7.954727690989434L162.12313937226105,48.213495227943945L162.33949679405987,59.402700349871374L162.55711793897882,42.6000629171131L162.77102815092604,60.10886012046723L162.98810770022206,69.74980840523922L163.2041842946609,95.19998127875627L163.42136413944263,75.72379699541197L163.63942658449878,39.97990856331644L163.85732855677767,21.15260280368189L164.07500987898806,-21.60478901761956L164.29712426166734,-8.15337509266568L164.51586871602635,23.17087302669253L164.73525506149397,17.116389190460385L165.39128783359956,36.6500535917086L165.60770543268984,82.21843394833385L165.8251460457345,100.85527406629667L166.04340908176206,65.18073039953188L166.26111046306954,79.23490827145137L166.4811186405487,102.0017915922291L166.6985391944961,87.6523530911735L166.9136328931749,94.23327590637886L167.1294086011565,127.01803639904513L167.34739080982408,108.09671272671312L167.56342728606862,144.1649385641891L167.78161008570757,146.51433917706342L167.9830635983282,131.075452366124L168.20188828907575,130.14317935872742L168.41966990677184,122.36748595051522L168.6389358976566,93.90810165134688L168.85481190112398,95.80240711208964L169.07132979569997,22.621194796011363L169.2877674538874,73.61627159915412L169.50243991152612,112.10041584945654L169.71853656506207,116.45981020519619L170.15016821741395,129.10813931470543L170.3701563357959,119.45855358570971L170.58508956169752,140.06684964234677L170.80583992577098,139.05122877513946L171.01698198231227,88.47020247222167L171.23496419097978,68.64004519132476L171.45162249923578,65.06230949411366L171.6702265399148,108.33975454099898L171.88664413900509,99.0259591804829L172.10512782510122,105.29620045743039L172.32256843814585,41.03397966011217L172.53936716008187,94.64779054962324L172.75486204070347,124.04131432349978L172.97280413117673,144.99021548690163L173.6208132644246,122.72486612909825L173.83761198636063,139.42228229060373L174.05589508148532,176.0244075275871L174.48614265613423,132.07516712626858L174.70697325659626,104.13315766784153L174.92371180124084,95.97703791713664L175.14566571114295,121.45829717175788L175.5770165361348,82.02334357961918L175.79429667640227,112.56734402114775L176.01025291625825,81.60939027943341L176.22528643764556,114.43427446115388L176.4414031502787,108.88918331774504L176.65990689547195,86.46604934236227L176.86262413121264,94.21738768400083L177.04811060250634,84.56237442694666L177.26884090748266,70.10978932405054L177.705126270372,76.89073680281065L177.9227273561938,115.08022725597256L178.1395260781298,161.6986325492104L178.35441918583712,175.91730519410993L178.57163914881318,138.95946363125557L178.7863717837433,131.43899550095358L179.00120471415917,135.31692278596373L179.21850491352382,136.33684414293876L179.43785114079714,146.4541091806587L179.65388761704168,133.27500697805942L179.87211053487493,147.847653661972L180.08971162069673,155.10197671960586L180.30825548408427,162.82614608761673L180.5234695373459,167.40499003884608L180.74179275066487,158.6406718513343L180.95925342280665,169.5250596935485L181.1778775225828,175.5387863696879L181.39202844369578,168.95644585636205L181.83064066185386,186.44473264305276L182.04774027024706,122.21838585966294L182.26327526906297,82.92392311435904L182.70377304235265,66.61870973512511L182.92438299274608,22.028660411583925L183.14228496502506,40.97438353590135L183.36020699640113,45.724774254521456L183.5771461320172,62.214183885187765L183.79719442769056,78.44981438341773L184.01519669545524,97.94729306427494L184.23368038155138,105.86064175074816L184.45053928077883,123.65811636731L184.66755865278344,135.19983569019755L184.88548068415952,139.4979312944969L185.10093544658687,155.06171943560724L185.31953948726587,155.54210424454118L185.7510909032292,156.62957926502955L186.1894423531244,147.2908941696718L186.4086281076206,153.21971901670517L186.6224781422764,158.26169904654225L186.839497514281,146.69337542490783L187.0583222050286,155.81174275093196L187.2763846500847,162.0953863252947L187.49332378570074,170.01558500459976L187.71319154949984,172.5884537800863L187.9311938172645,138.4890741245719L188.15240554057226,140.87413150847743L188.36926443979974,134.96774644896828L188.58451861125562,125.99379768122247L189.01893847811056,125.78079276329603L189.23718145504097,126.81327023147897L189.4538999405884,130.44837759558644L189.67134055363306,139.87720848313046L189.88731685258614,120.34075720610109L190.10279167411062,106.97110844421398L190.32185707402394,104.5346917797699L190.53841508679423,122.58901455894842L190.75425097206733,121.85773260138913L191.18528085150487,100.32801431290258L191.4009161458065,101.36817980592403L191.6205030822456,96.95843690944537L191.83768292702734,90.16303803350851L192.05634714499777,93.3312540585559L192.2716213755508,79.14588739632448L192.4916496121271,88.88298320060498L192.92332138267324,96.10871719166721L193.1406817593293,95.7031913520584L193.35916544542545,104.61546001294724L193.57586387187575,117.48202748272267L194.00936102026205,120.42274459187567L194.22710251976383,123.92413234189084L194.44444283732275,133.4934821468935L194.8789629996634,125.2938317366781L195.0939363437593,133.12406509908135L195.31342298471264,123.63273635373416L195.53066300678583,126.69691555232384L195.7479230879562,125.69406900209123L195.9650828736408,134.89674757432178L196.18302496411405,107.14031956747134L196.83342112992207,114.07213351439218L197.05005937908095,129.0603102545839L197.2642103001939,142.86192586791609L197.48195179969568,142.2436261245801L197.69897117170032,157.69187055355496L197.91597048460775,161.5577897452474L198.13186654717225,137.8860152787562L198.3491667465369,127.21518067034395L198.56909468762743,126.43688918297855L198.78539193213484,132.2977354586647L199.0045175093396,140.09282320857693L199.44246777729194,149.62682914234892L199.65930661742223,160.44180006277756L199.87658675768972,173.00584375303373L200.0922421110885,166.19175073618942L200.3085393555959,180.42295149172907L200.52471624552044,173.65396108950208L200.7430595179366,116.40265585927041L200.96256621798707,106.03224999570224L201.18243398178618,77.5043914503991L201.40021559948227,75.03130460211541L201.61673349405825,53.69666933962262L201.831827192737,49.82145598406504L202.26540457751187,35.24424791170769L202.48061863077348,41.55383509285672L202.69815953930384,37.64905445297448L202.91431637013125,36.78065138238178L203.3515043923921,53.35549707139244L203.56752080953947,47.741396600741965L203.78576378646991,53.175357550802495L204.00511001374326,64.35493351277545L204.22299192692506,56.40171388871529L204.44061307184398,46.17755680250079L204.65837463044292,61.25489658922436L204.87527364786465,66.33481334954377L205.09139036049774,47.643605635877265L205.31063629228538,64.31275858110303L205.5305642333759,62.37536571393221L205.74599893670612,58.235467301930065L206.18096039918396,56.18280981827639L206.3968765208456,68.67407845970072L206.82906982791755,76.20029064514182L207.04540719061924,77.72272374980483L207.26377052213252,66.44141505105307L207.48012794393136,67.80628970953542L207.69712725683883,62.52307016791858L207.91268231475186,70.43674668759883L208.12837778634494,73.97660515687525L208.34395290335516,82.37404779160153L208.56355989889138,93.01456559689711L208.77877395215302,94.42657910196422L208.99591367874044,83.49919694364941L209.20996430436767,82.5813595749253L209.64207737505106,77.24732748180081L209.86256697086162,72.99786540209529L210.0822943209807,65.84369099200875L210.2996747567339,50.20120579544064L210.51751655172143,50.002714504537416L210.73495716476606,57.597645515859156L210.95366150093076,36.53168597408259L211.173408910147,42.47903671088257L211.3888837316715,49.26635458219803L211.6066252311733,65.71306727550302L211.82280212109785,107.17354723653632L212.0424291757312,47.297954613037355L212.26069221175877,37.51701718307455L212.4772903427233,42.706287284547486L212.69537284687658,48.012238521368275L212.91259280985264,51.51897006139673L213.12943164998293,57.175282885584615L213.3474740359419,67.5136282006017L213.5627282073978,73.43638930528516L213.78127207078538,83.3559546512929L213.9970076605727,97.0533473363622L214.21723648812042,100.99914684863202L214.4345968647765,113.1798758796529L214.65173659136397,124.1997645996066L214.87054122301438,127.52598706356953L215.08758065411615,128.95602658982597L215.30369736674925,129.02572567514983L215.52011496583953,133.24237214711226L216.17091231359043,108.64579428042359L216.39102078655526,97.48151663146545L216.6081003358513,100.01924666218227L216.82417693029012,107.36463811750215L217.04107594771185,105.38197673536378L217.47282795464662,107.54320484676488L217.68868389901684,100.90774493063998L217.9056832119243,94.9007418375739L218.1239061297576,90.7476387436339L218.34172786564795,97.51403973428805L218.56049237910412,100.78272864201803L218.77688991909721,107.72106636328326L218.99300663173034,112.93743014826839L219.2085616896434,105.70507665457838L219.4274465576824,110.41001819555112L219.6446464615613,109.32395592634539L219.8595395692686,100.78306476602795L220.0762781139132,103.91188750845457L220.29363849056926,104.4005735383546L220.5129445996483,107.97898705418208L220.73128787206443,107.60456250699843L220.94844765774906,104.20958331080813L221.164544311285,106.866880261301L221.38058078752957,104.39655938636534L221.59822199154564,110.0549878992721L221.81299474467008,108.06918166218638L222.0270854884916,117.56532746574094L222.2447868697991,113.2020942953268L222.46214724645517,119.75380316248904L222.67762206797963,132.08252834499382L222.89712876803014,122.64642463544178L223.11314518517753,128.2995885159757L223.32801823378767,131.67231940303984L223.54126649552913,137.85423960944576L223.97797309945855,139.87045858194637L224.1962762536804,136.50386441854033L224.4133357438793,120.20341501466194L224.6293722201238,124.42465023386634L224.8441650323454,124.06727764363269L225.06321037316158,120.9912724327626L225.27850466281177,117.96047545425299L225.4952231483592,122.62192112820118L225.71037702432938,117.19040106812652L225.92807840563688,118.75784649983022L226.1427909814699,127.14960707374959L226.35932893514303,138.0658026338325L226.57478369757038,131.83634941159278L226.7931871472779,137.60212384467042L227.0095245099796,139.2021064028775L227.2262229364299,141.8698075256L227.4465320003662,143.2105934609053L227.6637519633422,139.95148973170942L227.8817542311069,138.71546383187666L228.0988137213058,122.25620014743394L228.31420830644169,124.49117129023027L228.53028490088053,113.41794930959253L228.74772551392516,115.36548241759226L228.96312009906106,118.66952522221257L229.17887574794557,96.60407059522261L229.39850280257895,93.37613897289822L229.6150608153492,98.73895227404356L229.83390556519396,112.27396077228335L230.04964115498132,100.0639436078509L230.26662040879165,90.13762112182778L230.48255658955046,88.17016081896521L230.70065915280085,89.29750251915728L230.91583308786815,82.9723776680429L231.13251145522133,82.28871137336927L231.34750485841434,81.11842219025714L231.56618913548192,88.32729201509581L232.0015317208055,98.57516243189575L232.21963428405587,92.50657741461252L232.8712741138869,79.79842097899298L233.08777194936573,92.97439199155639L233.30545327157608,92.92634166224603L233.52183075247208,97.08037439276879L233.7414377480083,104.9035619394725L233.95941995667582,99.78893926010342L234.17599802854326,99.40536727086678L234.3919943865935,89.67864038990767L234.6102373635239,109.77890866091401L234.82587265782556,114.96710373942315L235.04162830671007,127.3776221210219L235.25910903794897,112.79535549832184L235.47713136481082,102.0897362205835L235.69256606814102,112.87861381983618L235.91299548666015,113.39995513447023L236.12889154922468,91.47017411479179L236.3480572446237,89.36490800840524L236.5652170303083,82.2550850795972L236.7819154567586,79.74230543320442L236.99867406050032,72.50201782881133L237.650133358457,58.859282732563194L237.86643060296444,63.47187365975139L238.29902509197925,65.50637960262006L238.51632529134386,61.92472740800659L238.73298359959986,75.98093128599632L238.94946137598157,61.92474278983184L239.16503649299176,67.2108608059404L239.38043107812769,66.19086240733236L239.59728997735513,60.748010881009364L240.03156943053006,63.087532627936966L240.25141713523203,67.28314746433306L240.46769432064227,63.09172110017488L240.68451310167544,56.057342362124864L240.9011914690286,64.47395331943214L241.33739659552938,67.07164650606718L241.5544761448254,74.22610218643717L241.98416206475432,69.41137860348785L242.20076019571889,60.410533690760616L242.4196851819522,75.60544237300367L242.63586207187674,73.15025695308424L242.8549876490815,66.26219512577956L243.28888597941068,67.58793008241707L243.5058251150267,52.24120508034518L243.94192994604177,68.08140423673092L244.15756524034342,92.66485084837144L244.3757079217881,88.1167191406764L244.59647834495868,94.20239648738809L245.02949407501353,72.35881610900628L245.24619250146384,59.368598390431046L245.4647363648514,57.88719244710984L245.68364129198756,86.99430603055535L245.90142290968365,73.03715873763798L246.11679743572242,80.0790624327196L246.33255308460693,62.493833333414L246.54760666509137,60.426677492253724L246.7677552562505,58.32896610280548L246.98399232346648,67.48560314986378L247.2015131728997,48.67807571843874L247.41833195393286,63.26723022833465L247.63579262607462,90.14902313118172L247.85194945690202,84.31296036308768L248.06965083820953,70.67224808013722L248.2872920422256,68.05413187640752L248.5048530098531,81.30170145520393L248.94147937739393,87.94239044820698L249.1586191039814,105.97185950680174L249.59195577959053,118.68683492070767L249.8080123149322,151.34232133189292L250.02631546915407,120.46191661496378L250.2414492860271,99.82365089220292L250.45846865803168,100.43271814822066L250.6749865526077,117.31037907107819L250.8906619651036,79.14737082704713L251.32865235125027,2.4646231635590206L251.76002323533925,45.96205562796178L251.97541782047514,65.79153911397732L252.1921363060226,108.54947398642194L252.40185416666665,147.3564744100785L252.61072954523067,72.66781469167067L252.82813004008102,63.62747459486307L253.0447281710456,-5.2299132993001125L253.91364814114405,-9.18623523417138L254.12920319905712,41.289479332545476L254.34618245286742,16.031069914618605L254.56460596167213,14.544699795142826L254.77963948305944,32.15533881273701L254.9961373185383,68.95319956410962L255.43091824914183,68.82711381302151L255.64753643920355,54.80082331010032L255.86551864787108,29.571761085621706L256.3013827697204,21.268322269826733L256.5193048010965,14.439371414225961L256.95157834455705,4.843136228891587L257.16909919399023,43.762467311670214L257.3868808116863,102.35995134619762L257.60793206221695,120.04987754769967L257.82677681206167,123.03686667941678L258.0430339383748,60.87435512387978L258.2576662778192,103.18598132466889L258.4767316777325,144.15657091988274L258.69363069515424,102.96168363194265L258.9123751495133,40.24316454113585L259.120789168843,88.3095203877736L259.3069777085367,111.56799692584L259.50582353852855,168.53847146414606L259.72825886676213,118.13415589582297L259.94656202098395,94.75809742331681L260.16358139298853,74.78643511590556L260.38031993763315,105.92865394773699L260.59557410908906,121.35422685504086L260.81034686221346,104.82011056819755L261.24306170581116,119.43144245645028L261.67671932697465,129.24139706862857L261.89781069569955,128.434907887323L262.11571266797847,126.5507522236653L262.332310798943,131.41137759628646L262.54888887081046,129.8006392543198L262.76446398782065,134.15347217394475L262.9811824733681,127.61683916030194L263.1984826727327,171.4076952049497L263.4156625175145,157.1531985036462L263.63143822549614,160.4512728420442L263.8497012615237,126.4811714457647L264.07057198018003,124.43457041798288L264.4829870174676,113.81968055751442L264.7014506444666,96.79314043261643L264.9203154534085,117.46145577828614L265.1388994349904,131.75262185037172L265.3568415254636,123.33787262941006L265.574803675034,144.29270331407565L265.7911610968328,121.68847741522957L266.0064754455802,129.6931863562823L266.2262629729907,131.70064678878958L266.43543923801184,120.43655409062761L266.65372233313656,124.27087321329577L266.8710225325012,125.07808636736465L267.08880415019723,142.53638499114618L267.2805290007028,148.61980087858305L267.5009784783191,156.82462672181947L267.9364815364198,113.81833882909596L268.15600829556746,120.60597996118447L268.37401056333215,118.15224878660842L268.5926146040112,107.25793346145295L268.80800918914707,99.3647742655585L269.02765630287763,123.97813971663727L269.24493644314504,126.78923773421495L269.4614342786239,131.50864232108756L269.67733034118845,129.66524579030667L269.8950918997874,112.02704948851165L270.1102658348547,109.43381667888788L270.33023389413955,114.5244487514323L270.55142555835016,100.58687718598016L270.7687859350062,122.98451537219515L270.9860259570794,116.04084269397451L271.2027243835297,108.58635569786126L271.42124818782014,124.77410849106063L271.63840797350474,136.31500329725077L271.8532810221149,133.1235202024467L272.0726673675825,130.51996651497015L272.2916525311073,123.92911614961406L272.51075804921487,107.14880307955596L272.73060575391685,121.5494936937852L272.9478858941843,124.73867928786625L273.38332877499363,158.38372708836317L273.60006731963824,94.33756224315799L273.81670556879703,111.16037320694927L274.0350488412132,150.66038488389228L274.2535325273093,94.9828724054342L274.47269822270835,71.91430881112797L274.6918438590103,83.42002676201116L274.91002665864926,101.95051786440364L275.12546136197943,64.20197231890307L275.3442258754356,62.74681910230618L275.7799696427021,84.30969069474988L275.99829285602107,118.2970099991263L276.2164555965629,98.75786131783445L276.43405668238466,129.61718931657194L276.6504542223778,138.26604888823675L276.86901814486254,96.37049571168477L277.08850478581587,132.7224213705281L277.30781089489494,159.56184612352737L277.52362672107085,100.99028419714955L277.74158887064124,117.50976420960076L277.95499760515986,109.97435948994283L278.1695497082157,135.1375958195311L278.3874115623004,158.77038857879052L278.60521323909364,160.4012386840597L278.82153054269816,112.26851659662688L279.04111747913726,163.59435925378034" fill="none"></path></g></g></g></g><g opacity="0.2"><g><g><g><path style="fill: none;" stroke="rgb(255, 112, 67)" stroke-width="2px" d="M36.106374859809875,82.98805194610578L36.322792458900146,66.58492394305041L36.538909171533255,104.71804298613006L36.752879560771916,182.15421412135197L36.969898932776516,198.20164544305567L37.186677595615386,163.8345098491318L37.39984562096828,235.5424024660233L37.615641388047074,150.11307438091262L37.83338288754887,82.55254393349061L38.26718092239234,19.88879292456844L38.4338720196618,130.45125166596972L38.650610564306376,208.6502332491234L38.86496207639078,121.00176320156562L39.29639313777122,225.46302820391884L39.51040364520417,117.34505431034633L39.725657816660075,215.10722084958113L40.155764977628984,204.57809727909034L40.376455164411006,83.07683918090744L40.591568922186894,53.592038535045525L40.80726439377997,172.00687566050829L41.02354157919023,156.35305891187454L41.24290786556072,127.17119501042544L41.46034847860535,169.01302311030076L41.89709520072904,118.2667276494426L42.33338056361841,147.83810689242455L42.55485305518906,245.94138426976153L42.77482111447387,90.01151977369956L42.9926227912671,101.72705283035793L43.21080559090608,85.3914914712591L43.429610222556526,143.7595128658104L43.6474319584469,114.32989282378641L43.864531566840085,120.2306836141538L44.301458820838064,148.41846619875196L44.519360793117016,135.19681893423422L44.73838607483605,154.26391736336836L44.952256168588995,149.8579855632347L45.171421863988044,198.11744334008108L45.389704959112734,99.20556603839668L45.60873024083177,145.48099575128117L45.82637144484785,98.26841456642752L46.48314640354779,138.57525714666917L46.70116873040961,185.58672861878404L46.922540926494534,143.2772170725475L47.14539749576813,53.83587213509784L47.36352011811567,128.18540143383143L47.582003804211816,102.52712741325423L48.0185699944612,98.72445407493117L48.23416517056856,12.153507675836435L48.45164590180748,54.10933681828694L48.88606576866243,78.00957058248696L49.106856250930164,61.9933782321523L49.32473816411198,83.61979299945871L49.54121594049368,100.0917244835723L49.75889726270404,113.70698632116L49.97800278081166,99.44471732656396L50.196466407810654,107.97472342045194L50.63870932255188,104.42869378073465L50.85633046747082,100.51274383299598L51.07240706190964,103.91681991163934L51.293378076051674,104.89750804958886L51.51033727076484,114.31747144546489L51.728961370540986,122.44393293126633L51.94862854336865,155.10160946325823L52.167573588699106,181.13059890142222L52.384673197092276,227.70249846758767L52.602414696594074,59.15522580394919L53.034949008317454,95.93784241566665L53.25168755296204,96.88271528497083L54.12518099720941,151.29356471809342L54.34410598344273,136.16358382023873L54.5630109105789,124.42806700983692L54.78019075536066,140.47217654046744L54.99843373229106,153.6152139726205L55.21699765477578,193.167108855077L55.43489962705473,169.1244444640638L55.655750286613895,210.45789717693148L55.87591893687016,149.92843227072808L56.09305866345763,160.31742219759462L56.308453248593544,155.46221815481385L56.524449606643785,158.83327068284143L56.74154921503696,140.32410947029075L56.958668882527284,135.74692873887398L57.177954932509195,194.7924718286431L57.39501442270809,141.42865800942627L57.61345799060994,202.96805341648405L58.05327375459671,163.39668718422627L58.49076266331474,168.31435150064362L58.70609707115922,169.6514607531044L58.92520258926683,-95.19239716064288L59.5836625121269,-20.604759050727793L60.02175319375926,86.14799404997211L60.23967522513536,76.09310916248161L60.45673471533425,85.4554182803163L60.89444427412086,135.23848267546055L61.11425186062853,144.03103394783966L61.33277566491895,176.6041108220743L61.55250301503804,162.2985878671211L61.7696427416255,187.54601994071163L61.98744441841873,205.22773713221522L62.209939923943736,61.98749442136843L62.425414745468224,41.29252400626186L62.64231376288996,56.883968826766264L62.861218690026135,70.20940439321932L63.08036432632804,80.20273013124735L63.29832647589842,81.84588588997669L63.5179134123375,92.31504053013578L63.73264604726765,74.07307146975837L63.952634165649606,109.32662171082893L64.17161932917435,96.9562894234214L64.39285111157928,108.84996236092957L64.61279911176695,97.566880562335L64.83031996120016,92.91162007159713L65.04818181528482,90.4967309687022L65.26395752326647,125.60302691826291L65.48310315956837,114.47951477489096L65.70034318164156,89.20199222152588L65.9197295271092,104.65188987028978L66.1367488991138,110.27368554871327L66.35523258520995,133.1431569414458L66.57560182643765,126.88177512862421L66.79135747532216,128.83459955941998L67.00879808836679,124.44582445679725L67.22726171536578,125.13013108697307L67.44530410132475,131.0912971970056L67.88311395559708,131.3129207365314L68.10244012377328,130.1143195703612L68.31829606814352,130.2734121598446L68.5367998133368,128.54611613999577L68.75596550873584,116.1060262400515L69.19235116711093,128.96528023376686L69.40941065730982,176.61379348967057L69.84405117423336,185.92162876772545L70.06263515581522,234.55318015207195L70.28310469252865,5.385923775485955L70.50112701939047,67.79057508070038L70.71920952354373,78.7672393218959L70.93895693275995,106.49831097213519L71.37437975447212,103.80076925329558L71.59511005944842,88.42942842959201L71.81218960874445,99.20457656871532L72.03037240838343,81.99264544664584L72.24883603538242,76.97995670261389L72.4667981849528,85.60247821171016L72.68518157556322,88.96607437892456L72.90374549804794,96.0621268752875L73.12551887607574,98.88647973525578L73.34217718433175,124.1530297766185L73.55935702911351,106.72891041519917L73.77625604653525,112.69705582030566L73.9940777824256,128.84256832417532L74.21228064116173,95.63501168586255L74.43062391357788,102.40575835537311L74.64756304919388,133.24498397311982L75.08420947583186,108.28674208301165L75.30171026616792,107.39664342821199L75.52007359768119,129.86707583372845L75.73723338336579,114.24594692278288L75.95328991870748,121.09146922964283L76.17137242286071,110.85600612530199L76.38779002195099,126.71232844568931L76.60370614361265,87.36182598159486L76.82210959332023,143.04804882670123L77.04051304302779,169.97780905694253L77.25923743828965,134.9616431938939L77.48187335749466,159.36189486011426L77.69835113387636,145.8964139955442L78.13361348281138,135.33884317171396L78.35332077383333,158.26584515877767L78.57455255623826,149.85719045366932L78.7888438910312,158.66843563538578L79.01011579163041,143.18334113652736L79.22613220877778,123.08509161569373L79.44391382647389,161.70140757621039L79.88138267609477,146.7764059243127L80.09862269816796,158.29906306950943L80.3143984061496,142.74975905597057L80.53133754176565,125.24240055760585L80.74964069598748,184.2044483084585L81.18440156749388,155.51812319181136L81.40031768915553,153.94550248608266L81.61619369262291,147.96279774137884L81.83511867885622,193.5715545873377L82.05296047384374,176.3114044874028L82.26863588633968,152.09116562678628L82.48559508105286,187.17779586642973L82.70512184020049,145.78262498218646L82.92262263053655,184.2902582996653L83.13926087969541,169.79751354571545L83.35806551134586,183.05573585024104L83.57450316953329,155.174918565187L84.00994605034259,189.64903173385846L84.23023505518171,146.5100972272121L84.66499592668812,177.86126739045994L84.87952797064682,169.78214142745128L85.09530367862848,166.9763587931102L85.31087879563869,193.6981536992489L85.52856011784904,-6.223523996048204L85.7478662269281,51.39241209515332L85.96604902656706,73.24442594981247L86.40295622146792,92.76171541486931L86.61889240222672,88.76998269099842L87.05026328631574,108.31941225159835L87.26551745777162,122.50796575493224L87.48225600241621,143.25728632610844L87.69835265595216,139.2255154183449L87.91617439184255,132.35559208237828L88.13174950885275,142.12328339485066L88.34812698974875,140.31359635492618L88.56522659814192,123.93501073378911L88.78184478820364,100.07477981527882L88.99914498756826,154.07123581202268L89.2178092055387,156.31427523418506L89.43506928670904,137.87672688982366L89.651306353925,193.3686161225985L90.51842100528047,186.32596848537742L90.73684451408519,127.00340922302713L90.95458601358698,122.99966151016817L91.17292928600313,65.88096927205882L91.38870499398477,109.4534328519576L91.6051025339779,61.4424909870486L91.82228237875965,153.11805846503557L92.03827873680989,66.81577075353472L92.25676242290602,-15.851382039621045L92.4721369489448,18.103012178909943L92.69048022136091,14.120962122635353L93.1210688006613,44.43675827893642L93.3345176533742,20.66796496044574L93.54852816080717,44.87611815566835L93.76536700093746,-34.153214015721446L93.98369021425644,21.830980556289465L94.20323703250124,78.56229541414179L94.42023634540868,50.11150825441476L94.63641323533322,41.528724554486445L94.8578456087096,67.94332446276212L95.07624905841715,16.588204773135683L95.29280707118744,32.11460963119136L95.51169193922645,38.14408448744145L95.73059686636263,33.03541718431646L95.9473755292015,115.52011883586785L96.59502359870076,110.07701078043921L96.81081936577957,131.03035646609396L97.0289821063214,84.42864912577716L97.46278014116486,70.9277417127937L97.677372362415,95.99122077115636L97.88797282333341,30.002692610912177L98.10561402734949,-37.0419707504861L98.30008697416386,141.75562473181526L98.51493996367687,-17.642852235947405L98.94815628470313,58.1496772402552L99.16824469857083,129.62635199553188L99.38626702543264,-12.004147227433323L99.60424923410017,146.71472309114006L99.8220910290877,-89.32399383323897L100.25949970141716,-13.148928310577464L100.47734149640468,15.694289592422164L100.69424051382641,34.128975542348165L100.91340620922546,121.69107018745264L101.13182971803018,59.644977958025294L101.34983198579482,76.3397344805635L101.56841596737671,101.38997938193779L101.78587663951848,-66.7291002770871L102.00121104736296,97.23054921617589L102.21899266505903,25.366179036816014L102.43599197796648,146.3496087787139L102.65124614942239,80.79646494737473L102.86884723524419,119.46750211509152L103.08382057934006,60.6990458743094L103.30088006953895,125.15550391665965L103.5194640511208,-129.36998746872902L104.1744537501749,-41.381784772982385L104.39233566335672,12.993673449929728L104.61037804931568,6.029927185247321L104.82870126263465,-15.532030699958302L105.91827130132086,-4.266671010121145L106.13657445554269,18.466430257596606L106.35078555394708,31.800788720283457L106.56740374400881,44.367601415849116L106.78642902572784,15.841861927758172L107.00174337447517,27.978732377666372L107.21753914155398,5.519113462239174L107.43423756800425,56.26968484564898L107.65199912660322,8.6726240131766L107.87156600394515,26.413497356345054L108.08581722054383,17.540215959426884L108.30295694713129,-3.007606178778574L108.5209792739931,26.1163737463103L108.73665468648905,51.37555577236709L108.95363394029935,25.86041914266118L109.16900846633811,17.44558025204427L109.38562665639982,14.567849036586287L109.60497288367317,33.20101200313459L109.82161113283205,25.127928872822864L110.03838979567091,-3.443149529596641L110.25538910857837,16.975087418552025L110.47044268906282,19.17093267073326L110.68856531141036,23.50915647409877L110.9056849789007,62.75638304020005L111.12220287347667,22.361018261678534L111.55411535318858,-3.8975634807665815L111.76975064749023,19.933919809679562L111.9867098422034,8.617743784063384L112.20611624676816,29.154187020933044L112.42309550057848,42.61730022590839L112.63770778092577,23.136621139062324L112.85518851216469,20.14951818560987L113.07026215174628,9.648700515646878L113.28772282388806,51.2239902201027L113.71963530359997,67.89128895898286L113.93627355275882,52.677909902269704L114.15245044268336,32.217867860083075L114.58733166877262,61.427154206987346L114.80218465828564,51.02316321298714L115.02217277666762,53.63020379418415L115.2404558717923,41.559150747188625L115.45825754858554,44.90945975011029L115.67529697968727,41.219709639173765L115.88970866906313,8.394901076537314L116.10741005037062,46.71275057530877L116.32382764946091,49.326540753260836L116.54267239930563,30.71124124828158L116.75738497513863,73.27091193289063L117.18839479547906,86.61067714062212L117.40479233547217,46.52376186616678L117.62102940268815,74.71990193575222L117.83806883378989,96.07840011772578L118.05384454177155,53.84090782901196L118.48655938536922,89.05687589129187L118.7029368662652,97.01943879201463L118.9190936970926,72.460801300369L119.13466881410281,60.148405996626046L119.3512268268731,71.9346507972996L119.568567144432,87.24860237948361L119.7868502395567,70.46656049576724L120.00106133796109,68.06976455276028L120.43439801357025,97.57032603711835L120.65394483181502,98.07742924882133L120.87419371845986,101.45143251679156L121.09047090387013,90.56387355422387L121.30833275795479,85.45713218315724L121.5258937255823,114.06581043346888L121.74122813342677,88.45038398391536L121.95519852266543,93.67541998921024L122.1720173036986,128.50980613650972L122.38711100237734,75.21855931696065L122.60142239626745,95.90688614992088L122.81980578687786,90.0155306597294L123.25468701296714,86.2245012592639L123.4721878033032,102.15779018558078L123.68778297941056,86.83420894310485L123.90460176044371,78.55392026005303L124.12172142793405,115.41790308396185L124.3371360721671,88.61580211171895L124.55212947536012,70.33411291127504L124.76632051466737,118.0203320296796L124.9844431370149,150.49859650551707L125.42161110017862,150.34639486560036L125.63756734003458,119.83579686577923L125.85358375718197,164.2103669752414L126.06996123807795,191.41626875754196L126.7176494257715,178.17592758368687L126.93545110256473,152.4024598561864L127.15425573421518,21.96865819481175L127.3747653891229,17.908864092143663L127.59090216085315,-5.085492509659148L128.02534208680524,69.11254191321588L128.24382577290137,80.40343345465271L128.46024337199165,60.551049480538516L128.67696185753908,106.2119655139868L129.11278586119414,79.5028923608943L129.32932381486725,103.88630537342988L129.54826886019774,142.0253435654963L129.76615077337954,-13.581750619771784L129.98503564141856,-45.295278715619105L130.2031181455718,30.643798288035235L130.4175900122391,-39.6073475904568L130.63444891146654,2.937269019714255L130.85152846076255,29.91277455361753L131.06943043304153,-27.32442434793754L131.2865300414347,26.369359940915288L131.50533467308514,11.772879892334478L131.72271510883834,15.014064524682018L131.9397946581344,3.106751040852058L132.15687420743043,34.72945995523061L132.37521747984655,-34.969491164650165L132.5938415796227,63.68270335297851L132.80979781947866,9.13180862173889L133.02623547766606,49.46821160871153L133.24219171752202,8.299099208458776L133.4601538670924,27.634078884722864L133.6767118798627,48.67121144946807L133.89704100289612,79.79464456408732L134.11476244330075,29.146023896061727L134.33077886044813,33.231332181228055L134.54813923710418,101.38586248129923L134.7623102173143,48.1139103205369L134.98001159862181,95.59940844643464L135.195165474592,58.04343293321792L135.41330815603666,68.11457339404525L135.6302472916527,92.52198104635409L135.8494932234403,92.11186353252697L136.06841820967364,81.71877437412333L136.2856983499411,80.74280388626177L136.50532540457448,55.24273900009532L136.7229465494934,69.13505234846708L136.9410892309381,75.7940772894899L137.15935226696564,47.683526347343125L137.5904222645975,56.16070182788647L137.80716080924205,53.22255995456047L138.45876052087877,76.02430568142337L138.89293967856798,76.41938678991393L139.10777260898385,116.3430572360444L139.32360849425694,41.21379049018698L139.54225265313022,31.528366514080087L139.76001421172919,40.03209865410737L139.97480702395075,70.56660294819449L140.1925284643554,40.2060156197099L140.41390066044033,51.28229825489782L140.84677597681517,34.61908107845331L141.0627322166711,54.419270526875174L141.4968110788746,74.57563372238793L141.71222572310765,66.63886770978664L141.9292250360151,74.8546111652304L142.14626446711685,117.56791468697384L142.36436703036725,25.77373453093244L142.58250971181195,64.54050289032195L142.80021109311946,54.34979561996171L143.01871483831275,36.979142959539345L143.45120903184184,75.21838262594612L143.66692456253205,3.0706353974819978L143.88312151155372,9.996145726619977L144.0980948556496,8.954410843150098L144.31509416855707,30.710340124107475L144.53339732277888,31.90696235091493L144.75192112706935,28.40971710030955L144.97170865447984,50.96939613726547L145.40596804855767,27.78833014040813L145.84325636630422,27.913109334869684L146.2739853592846,-0.0913916603558128L146.49066372663773,72.63462992046425L146.7086860534996,-17.76031642240739L146.9301384859731,-8.91618904288676L147.14741862624058,50.770724760527195L147.363715870748,57.85796037526509L147.58131695656976,31.195180267979616L147.80048265196882,19.417557988815165L148.2336989729951,24.16909741337079L148.4494145036853,23.881409103511956L148.66641381659275,0.9728536583652583L148.88251047012872,33.4690169339747L149.1013351608763,-17.200841993997514L149.32022002891534,88.26512345517996L149.53547420037123,11.957592678924838L149.7542387138274,-9.804909507773079L149.97137844041487,33.6376685073442L150.18717420749368,44.39947647487044L150.4050761797726,35.0520270713578L150.62341945218876,8.368962835604199L150.83801167343887,44.78121741176394L151.0538274996148,63.47244104568701L151.2739560316768,55.44308894147164L151.49245977687008,73.64221043082536L151.70961956255468,34.8947013920197L151.9250141476906,38.958117660485655L152.14255505622094,108.26375458202119L152.35897265531125,-2.169101300221843L152.79200844446322,42.51176268292922L153.0085664572335,59.65943128301389L153.22502417451804,-21.400646056579692L153.4460954841458,96.38667293077745L154.31593817271292,106.13324966701339L154.53634753213493,115.84561902283622L154.7553928729511,91.7893670928056L154.97267301321855,43.79936311311851L155.18858913488026,23.706166955300446L155.40641087077063,41.36537371155284L155.62726153032978,-5.9163289981852225L155.84514344351157,103.99154254168434L156.06240352468194,102.00997048282443L156.27841994182933,13.047564209361587L156.49650244598257,68.26138595801878L156.71504630937014,99.92399170347836L156.93108278561465,30.61020932617295L157.14693872998487,130.53424343549477L157.36445957941814,62.23360733550819L157.57742701379954,88.44872308837876L157.79811720058157,71.0362830030199L158.2254160879503,103.39049271755539L158.4422549280806,52.26572510357258L158.87226179356375,127.83590660708978L159.08544987801378,-57.34447508411719L159.52191577277748,171.89207950836771L159.73648793493047,6.5985542082098885L159.95432972991796,102.02811665001674L160.16968419685958,-23.101509100654752L160.81993994898764,-59.445755305321605L161.03683896640933,38.362032853865024L161.25458046591118,-0.5899783651584322L161.4706370012528,102.0039983265333L161.68685400937167,3.950485973438864L161.9033518448505,-58.57569341156972L162.12313937226105,132.46582960634396L162.33949679405987,76.18650803276252L162.55711793897882,17.396106767975674L162.77102815092604,86.37205592549844L162.98810770022206,84.21123083239719L163.2041842946609,133.37524058903182L163.42136413944263,46.5095205703956L163.63942658449878,-13.635924084826884L164.07500987898806,-85.74087674957167L164.29712426166734,12.023745794765118L164.51586871602635,70.15724520572986L164.73525506149397,8.034663436112202L165.39128783359956,65.95055019358098L165.60770543268984,150.57100448327174L165.8251460457345,128.8105342432409L166.04340908176206,11.668914899384644L166.26111046306954,100.3161750793306L166.4811186405487,136.1521165733957L166.6985391944961,66.12819533959012L166.9136328931749,104.10466012918687L167.1294086011565,176.19517713804453L167.34739080982408,79.71472721821512L167.56342728606862,198.26727732040308L167.78161008570757,150.03844009637487L167.9830635983282,107.91712214971496L168.20188828907575,128.7447698476326L168.41966990677184,110.70394583819689L168.6389358976566,51.21902520259438L168.85481190112398,98.64386530320373L169.07132979569997,-87.15062367810602L169.2877674538874,150.10888680386824L169.50243991152612,169.8266322249101L169.71853656506207,122.99890173880567L170.15016821741395,148.08063297896933L170.3701563357959,104.98417499221615L170.58508956169752,170.97929372730232L170.80583992577098,137.5277974743285L171.01698198231227,12.598663017844983L171.23496419097978,38.894809269979326L171.45162249923578,59.69570594829705L171.6702265399148,173.25592211132698L171.88664413900509,85.0552661397087L172.10512782510122,114.70156237285164L172.32256843814585,-55.359351535865216L172.53936716008187,175.06850688388977L172.75486204070347,168.13159998431456L172.97280413117673,176.41356723200443L173.6208132644246,89.32684209239326L173.83761198636063,164.468406532862L174.05589508148532,230.9275953830622L174.48614265613423,66.15130652429073L174.70697325659626,62.22014348020095L174.92371180124084,83.74285829107932L175.14566571114295,159.6801860536898L175.5770165361348,22.870913191411113L175.79429667640227,158.38334468344055L176.01025291625825,35.1724596668619L176.22528643764556,163.67160073373452L176.4414031502787,100.57154660263177L176.65990689547195,52.831348379288116L176.86262413121264,105.84439519645866L177.04811060250634,70.07985454136544L177.26884090748266,48.430911669706376L177.705126270372,87.06215802095085L177.9227273561938,172.36446293571544L178.1395260781298,231.6262404890672L178.35441918583712,197.2453141614592L178.57163914881318,83.5227012869741L178.7863717837433,120.15829330550059L179.00120471415917,141.13381371347896L179.21850491352382,137.86672617840122L179.43785114079714,161.63000673723855L179.65388761704168,113.50635367416044L179.87211053487493,169.70662368784087L180.08971162069673,165.9834613060566L180.30825548408427,174.41240013963306L180.5234695373459,174.27325596569017L180.74179275066487,145.4941945700666L180.95925342280665,185.85164145686986L181.1778775225828,184.55937638389696L181.39202844369578,159.08293508637325L181.83064066185386,212.6771628230888L182.04774027024706,25.87886568457818L182.26327526906297,23.98222899640315L182.70377304235265,42.160889666274244L182.92438299274608,-44.856413573727835L183.14228496502506,69.39296822237748L183.36020699640113,52.85036033245162L183.5771461320172,86.94829833118729L183.79719442769056,102.80326013076274L184.01519669545524,127.19351108556066L184.23368038155138,117.73066478045803L184.45053928077883,150.3543282921528L184.66755865278344,152.51241467452883L184.88548068415952,145.94507470094595L185.10093544658687,178.40740164727276L185.31953948726587,156.2626814579421L185.7510909032292,158.2607917957621L186.1894423531244,133.2828665266352L186.4086281076206,162.1129562872552L186.6224781422764,165.8246690912979L186.839497514281,129.34088999245614L187.0583222050286,169.48929373996816L187.2763846500847,171.5208516868388L187.49332378570074,181.89588302355742L187.71319154949984,176.4477569433161L187.9311938172645,87.34000464130033L188.15240554057226,144.4517175843357L188.36926443979974,126.10816885970463L188.58451861125562,112.53287452960376L189.01893847811056,125.46128538640642L189.23718145504097,128.36198643375337L189.4538999405884,135.90103864174762L189.67134055363306,154.02045481444657L189.88731685258614,91.03608029055704L190.10279167411062,86.91663530138341L190.32185707402394,100.88006678310376L190.53841508679423,149.67049872771622L190.75425097206733,120.76080966505015L191.18528085150487,68.03343688017276L191.4009161458065,102.92842804545626L191.6205030822456,90.34382256472738L191.83768292702734,79.96993971960319L192.05634714499777,98.083578096127L192.2716213755508,57.867837402977344L192.4916496121271,103.48862690702573L192.92332138267324,106.9473181782605L193.1406817593293,95.09490259264521L193.35916544542545,117.98386300428047L193.57586387187575,136.78187868738587L194.00936102026205,124.83382025560515L194.22710251976383,129.17621396691356L194.44444283732275,147.84750685439758L194.8789629996634,112.99435612135494L195.0939363437593,144.8694151426862L195.31342298471264,109.39574323571333L195.53066300678583,131.29318435020832L195.7479230879562,124.18979917674233L195.9650828736408,148.7007654326676L196.18302496411405,65.5056775571957L196.83342112992207,124.46985443477342L197.05005937908095,151.54257536487148L197.2642103001939,163.5643492879144L197.48195179969568,141.31617650957605L197.69897117170032,180.86423719701725L197.91597048460775,167.356668532786L198.13186654717225,102.3783535790194L198.3491667465369,111.20892875772553L198.56909468762743,125.26945195193048L198.78539193213484,141.08900487219398L199.0045175093396,151.78545483344533L199.44246777729194,163.9278380430069L199.65930661742223,176.66425644342053L199.87658675768972,191.85190928841803L200.0922421110885,155.97061121092293L200.3085393555959,201.76975262503856L200.52471624552044,163.50047548616158L200.7430595179366,30.52569801392294L200.96256621798707,90.47664120035006L201.18243398178618,34.712603632444385L201.40021559948227,71.32167432968983L201.61673349405825,21.69471644588341L201.831827192737,44.008635950728625L202.26540457751187,13.378435803171703L202.48061863077348,51.01821586458029L202.69815953930384,31.79188349315111L202.91431637013125,35.478046776492675L203.3515043923921,78.21776560490845L203.56752080953947,39.32024589476625L203.78576378646991,61.32629897589324L204.00511001374326,81.12429745573492L204.22299192692506,44.471884452625105L204.44061307184398,30.841321173179054L204.65837463044292,83.87090626930967L204.87527364786465,73.95468849002283L205.09139036049774,19.606794065377503L205.31063629228538,89.31648799894175L205.5305642333759,59.469276413176L205.74599893670612,52.025619683926855L206.18096039918396,53.10382359279586L206.3968765208456,87.41098142183729L206.82906982791755,87.48960892330342L207.04540719061924,80.00637340679943L207.26377052213252,49.519452002925405L207.48012794393136,69.85360169725891L207.69712725683883,54.59824085549327L207.91268231475186,82.30726146711915L208.12837778634494,79.28639286078989L208.34395290335516,94.97021174369095L208.56355989889138,108.97534230484052L208.77877395215302,96.54459935956493L208.99591367874044,67.10812370617715L209.20996430436767,81.2046035218391L209.64207737505106,69.24627934211414L209.86256697086162,66.62367228253699L210.0822943209807,55.112429376878964L210.2996747567339,26.737478000588474L210.51751655172143,49.7049775681826L210.73495716476606,68.99004203284177L210.95366150093076,4.932746661417722L211.173408910147,51.40006281608251L211.3888837316715,59.44733138917129L211.6066252311733,90.38313631546043L211.82280212109785,169.36426717808627L212.0424291757312,-42.515434322211135L212.26069221175877,22.845611038130325L212.4772903427233,50.49019243675687L212.69537284687658,55.97116537659942L212.91259280985264,56.77906737143941L213.12943164998293,65.65975212186642L213.3474740359419,83.02114617312736L213.5627282073978,82.3205309623104L213.78127207078538,98.23530267030449L213.9970076605727,117.59943636396612L214.21723648812042,106.91784611703679L214.4345968647765,131.4509694261842L214.65173659136397,140.72959767953716L214.87054122301438,132.515320759514L215.08758065411615,131.1010858792106L215.30369736674925,129.1302743031356L215.52011496583953,139.56734185505593L216.17091231359043,71.75092748039062L216.39102078655526,80.73510015802822L216.6081003358513,103.82584170825749L216.82417693029012,118.382725300482L217.04107594771185,102.4079846621562L217.47282795464662,110.78504701386646L217.68868389901684,90.95455505645259L217.9056832119243,85.8902371979748L218.1239061297576,84.51798410272387L218.34172786564795,107.66364122026927L218.56049237910412,105.68576200361304L218.77688991909721,118.12857294518108L218.99300663173034,120.76197582574605L219.2085616896434,94.85654641404336L219.4274465576824,117.46743050701025L219.6446464615613,107.69486252253684L219.8595395692686,87.9717280255518L220.0762781139132,108.60512162209443L220.29363849056926,105.13360258320473L220.5129445996483,113.34660732792328L220.73128787206443,107.04292568622306L220.94844765774906,99.11711451652265L221.164544311285,110.85282568704044L221.38058078752957,100.69107807396176L221.59822199154564,118.54263066863223L221.81299474467008,105.09047230655779L222.0270854884916,131.80954617107272L222.2447868697991,106.65724453970553L222.46214724645517,129.58136646323237L222.67762206797963,150.575616118751L222.89712876803014,108.4922690711137L223.11314518517753,136.77933433677663L223.32801823378767,136.7314157336359L223.54126649552913,147.12711991905462L223.97797309945855,142.89478704069734L224.1962762536804,131.45397317343122L224.4133357438793,95.75274090884433L224.6293722201238,130.7565030626729L224.8441650323454,123.53121875828221L225.06321037316158,116.37726461645752L225.27850466281177,113.41427998648851L225.4952231483592,129.61408963912345L225.71037702432938,109.04312097801449L225.92807840563688,121.10901464738572L226.1427909814699,139.7372479346286L226.35932893514303,154.4400959739569L226.57478369757038,122.4921695782332L226.7931871472779,146.2507854942869L227.0095245099796,141.60208024018812L227.2262229364299,145.87135920968376L227.4465320003662,145.22177236386324L227.6637519633422,135.06283413791562L227.8817542311069,136.86142498212757L228.0988137213058,97.56730462076987L228.31420830644169,127.84362800442479L228.53028490088053,96.80811633863597L228.74772551392516,118.28678207959184L228.96312009906106,123.62558942914302L229.17887574794557,63.50588865473767L229.39850280257895,88.53424153941161L229.6150608153492,106.78317222576152L229.83390556519396,132.57647351964306L230.04964115498132,81.74891786120224L230.26662040879165,75.24813739279308L230.48255658955046,85.21897036467136L230.70065915280085,90.98851506944541L230.91583308786815,73.48469039137127L231.13251145522133,81.26321193135891L231.34750485841434,79.36298841558893L231.56618913548192,99.14059675235377L232.0015317208055,113.94696805709556L232.21963428405587,83.4036998886877L232.8712741138869,60.73618632556375L233.08777194936573,112.73834851040148L233.30545327157608,92.85426616828047L233.52183075247208,103.31142348855293L233.7414377480083,116.63834325952803L233.95941995667582,92.11700524104981L234.17599802854326,98.83000928701176L234.3919943865935,75.08855006846898L234.6102373635239,139.92931106742344L234.82587265782556,122.74939635718692L235.04162830671007,145.9933996934201L235.25910903794897,90.92195556427168L235.47713136481082,86.03130730397608L235.69256606814102,129.06193021871513L235.91299548666015,114.18196710642133L236.12889154922468,58.57550258527411L236.3480572446237,86.20700884882537L236.5652170303083,71.59035068638515L236.7819154567586,75.97313596361528L236.99867406050032,61.64158642222175L237.650133358457,38.39518008819097L237.86643060296444,70.39076005053359L238.29902509197925,68.55813851692302L238.51632529134386,56.5522491160864L238.73298359959986,97.06523710298097L238.94946137598157,40.84046004558515L239.16503649299176,75.14003783010322L239.38043107812769,64.66086480942023L239.59728997735513,52.583733591524854L240.03156943053006,66.59681524832833L240.25141713523203,73.5765697189272L240.46769432064227,56.80458155393765L240.68451310167544,45.50577425504982L240.9011914690286,77.09886975539304L241.33739659552938,70.96818628601977L241.5544761448254,84.95778570699214L241.98416206475432,62.1892932290639L242.20076019571889,46.90926632166976L242.4196851819522,98.39780539636833L242.63586207187674,69.46747882320507L242.8549876490815,55.93010238482249L243.28888597941068,69.57653251737338L243.5058251150267,29.221117577237262L243.94192994604177,91.8417029713096L244.15756524034342,129.5400207658322L244.3757079217881,81.29452157913376L244.59647834495868,103.33091250745565L245.02949407501353,39.59344554143356L245.24619250146384,39.88327181256821L245.4647363648514,55.665083532127966L245.68364129198756,130.65497640572357L245.90142290968365,52.101437798261955L246.11679743572242,90.64191797534204L246.33255308460693,36.11598968445563L246.54760666509137,57.32594373051326L246.7677552562505,55.182399018633106L246.98399232346648,81.22055872045122L247.2015131728997,20.466784571301137L247.41833195393286,85.15096199317851L247.63579262607462,130.47171248545237L247.85194945690202,75.5588662109467L248.06965083820953,50.2111796557115L248.2872920422256,64.12695757081295L248.5048530098531,101.17305582339851L248.94147937739393,97.90342393771155L249.1586191039814,133.0160630946939L249.59195577959053,137.75929804156658L249.8080123149322,200.32555094867075L250.02631546915407,74.1413095395701L250.2414492860271,68.86625230806159L250.45846865803168,101.34631903224727L250.6749865526077,142.6268704553645L250.8906619651036,21.902858461000537L251.32865235125027,-112.55949833167318L251.76002323533925,111.20820432456594L251.97541782047514,95.53576434300066L252.1921363060226,172.68637629508885L252.40185416666665,205.56697504556337L252.61072954523067,-39.365174885941045L252.82813004008102,50.066964449651564L253.0447281710456,-108.51599514054482L253.26453575755326,-82.40512708624732L253.47966957442628,40.349842105537874L253.69707006927663,-39.91348244223259L253.91364814114405,5.950557581520135L254.12920319905712,117.00305118262078L254.34618245286742,-21.85654421227169L254.56460596167213,12.315144615929077L254.77963948305944,58.571297339128265L254.9961373185383,124.14999069116857L255.43091824914183,68.63798518638941L255.64753643920355,33.76138755571857L255.86551864787108,-8.271832251096345L256.3013827697204,8.81316404613428L256.5193048010965,4.195945130824866L256.95157834455705,-9.551216549109956L257.16909919399023,102.14146393583815L257.3868808116863,190.25617739798872L257.60793206221695,146.58476684995276L257.82677681206167,127.51735037699245L258.0430339383748,-32.369412209425704L258.2576662778192,166.6534206258525L258.4767316777325,205.61245531270356L258.69363069515424,41.169352700032526L258.9123751495133,-53.83461409507431L259.120789168843,160.40905415773022L259.3069777085367,146.45571173293956L259.50582353852855,253.99418327160515L259.72825886676213,42.52768254333843L259.94656202098395,59.69400971455755L260.16358139298853,44.828941654788665L260.38031993763315,152.64198219548416L260.59557410908906,144.49258621599665L260.81034686221346,80.01893613793256L261.24306170581116,141.34844028882935L261.67671932697465,143.9563289868961L261.89781069569955,127.22517411536455L262.11571266797847,123.72451872817874L262.332310798943,138.70231565521817L262.54888887081046,127.38453174136977L262.76446398782065,140.68272155338218L262.9811824733681,117.81188963983779L263.1984826727327,237.0939792719214L263.4156625175145,135.77145345169083L263.63143822549614,165.39838434964122L263.8497012615237,75.52601935134544L264.07057198018003,121.36466887631013L264.4829870174676,97.89734576681167L264.7014506444666,71.25333024526937L264.9203154534085,148.4639287967907L265.1388994349904,153.18937095850015L265.3568415254636,110.71574879796755L265.574803675034,175.72494934107408L265.7911610968328,87.7821385669604L266.0064754455802,141.70024976786135L266.2262629729907,134.71183743755046L266.43543923801184,103.54041504338467L266.65372233313656,130.022351897298L266.8710225325012,126.28890609846803L267.08880415019723,168.72383292681843L267.2805290007028,157.74492470973837L267.5009784783191,169.1318654866741L267.9364815364198,49.30890699001067L268.15600829556746,130.7874416593172L268.37401056333215,114.47165202474434L268.5926146040112,90.9164604737198L268.80800918914707,87.52503547171683L269.02765630287763,160.89818789325545L269.24493644314504,131.00588476058147L269.4614342786239,138.5877492013965L269.67733034118845,126.90015099413542L269.8950918997874,85.56975503581909L270.1102658348547,105.54396746445218L270.33023389413955,122.16039686024898L270.55142555835016,79.68051983780197L270.7687859350062,156.58097265151764L270.9860259570794,105.62533367664355L271.2027243835297,97.4046252036915L271.42124818782014,149.0557376808597L271.63840797350474,153.62634550653593L271.8532810221149,128.33629556024061L272.0726673675825,126.6146359837553L272.2916525311073,114.04284060157988L272.51075804921487,81.97833347446885L272.73060575391685,143.15052961512902L272.9478858941843,129.52245767898785L273.38332877499363,208.85129878910854L273.60006731963824,-1.7316850246497384L273.81670556879703,136.3945896526361L274.0350488412132,209.9104023993068L274.2535325273093,11.46660368774703L274.47269822270835,37.31146341966863L274.6918438590103,100.67860368833591L274.91002665864926,129.74625451799238L275.12546136197943,7.579154000652144L275.3442258754356,60.56408927741088L275.7799696427021,116.65399808341546L275.99829285602107,169.27798895569094L276.2164555965629,69.44913829589679L276.43405668238466,175.90618131467818L276.6504542223778,151.23933824573396L276.86901814486254,33.52716594685674L277.08850478581587,187.25030985879312L277.30781089489494,199.82098325302627L277.52362672107085,13.132941307582788L277.74158887064124,142.2889842282775L277.95499760515986,98.67125241045596L278.1695497082157,172.88245031391352L278.3874115623004,194.2195777176796L278.60521323909364,162.84751384196352L278.82153054269816,40.069433465477715L279.04111747913726,240.58312323951054" fill="none"></path></g></g></g></g></g></g><g transform="translate(41, 177)" clip-path="url(#clip_1)"><clipPath id="clip_1"><rect width="288" height="22"></rect></clipPath><g><g><line x1="0" y1="0" x2="0" y2="5" style="visibility: inherit;" fill="rgb(0, 0, 0)" stroke="rgb(204, 204, 204)" stroke-width="1px"></line><line x1="36.106374859809875" y1="0" x2="36.106374859809875" y2="5" style="visibility: inherit;" fill="rgb(0, 0, 0)" stroke="rgb(204, 204, 204)" stroke-width="1px"></line><line x1="72.21274971961975" y1="0" x2="72.21274971961975" y2="5" style="visibility: inherit;" fill="rgb(0, 0, 0)" stroke="rgb(204, 204, 204)" stroke-width="1px"></line><line x1="108.31912457942963" y1="0" x2="108.31912457942963" y2="5" style="visibility: inherit;" fill="rgb(0, 0, 0)" stroke="rgb(204, 204, 204)" stroke-width="1px"></line><line x1="144.4254994392395" y1="0" x2="144.4254994392395" y2="5" style="visibility: inherit;" fill="rgb(0, 0, 0)" stroke="rgb(204, 204, 204)" stroke-width="1px"></line><line x1="180.53187429904938" y1="0" x2="180.53187429904938" y2="5" style="visibility: inherit;" fill="rgb(0, 0, 0)" stroke="rgb(204, 204, 204)" stroke-width="1px"></line><line x1="216.63824915885925" y1="0" x2="216.63824915885925" y2="5" style="visibility: inherit;" fill="rgb(0, 0, 0)" stroke="rgb(204, 204, 204)" stroke-width="1px"></line><line x1="252.74462401866913" y1="0" x2="252.74462401866913" y2="5" style="visibility: inherit;" fill="rgb(0, 0, 0)" stroke="rgb(204, 204, 204)" stroke-width="1px"></line><line x1="288.850998878479" y1="0" x2="288.850998878479" y2="5" style="visibility: inherit;" fill="rgb(0, 0, 0)" stroke="rgb(204, 204, 204)" stroke-width="1px"></line></g><g transform="translate(0, 8)"><text style="text-anchor: middle; visibility: hidden; font-family: Roboto, sans-serif; font-size: 12px; font-weight: 200;" x="0" y="0" dx="0em" dy="0.95em" fill="rgb(50, 49, 63)" stroke="none" stroke-width="1px">-0.5</text><text style="text-anchor: middle; visibility: hidden; font-family: Roboto, sans-serif; font-size: 12px; font-weight: 200;" x="36.106374859809875" y="0" dx="0em" dy="0.95em" fill="rgb(50, 49, 63)" stroke="none" stroke-width="1px">0</text><text style="text-anchor: middle; visibility: hidden; font-family: Roboto, sans-serif; font-size: 12px; font-weight: 200;" x="72.21274971961975" y="0" dx="0em" dy="0.95em" fill="rgb(50, 49, 63)" stroke="none" stroke-width="1px">0.5</text><text style="text-anchor: middle; visibility: hidden; font-family: Roboto, sans-serif; font-size: 12px; font-weight: 200;" x="108.31912457942963" y="0" dx="0em" dy="0.95em" fill="rgb(50, 49, 63)" stroke="none" stroke-width="1px">1</text><text style="text-anchor: middle; visibility: hidden; font-family: Roboto, sans-serif; font-size: 12px; font-weight: 200;" x="144.4254994392395" y="0" dx="0em" dy="0.95em" fill="rgb(50, 49, 63)" stroke="none" stroke-width="1px">1.5</text><text style="text-anchor: middle; visibility: hidden; font-family: Roboto, sans-serif; font-size: 12px; font-weight: 200;" x="180.53187429904938" y="0" dx="0em" dy="0.95em" fill="rgb(50, 49, 63)" stroke="none" stroke-width="1px">2</text><text style="text-anchor: middle; visibility: hidden; font-family: Roboto, sans-serif; font-size: 12px; font-weight: 200;" x="216.63824915885925" y="0" dx="0em" dy="0.95em" fill="rgb(50, 49, 63)" stroke="none" stroke-width="1px">2.5</text><text style="text-anchor: middle; visibility: hidden; font-family: Roboto, sans-serif; font-size: 12px; font-weight: 200;" x="252.74462401866913" y="0" dx="0em" dy="0.95em" fill="rgb(50, 49, 63)" stroke="none" stroke-width="1px">3</text><text style="text-anchor: middle; visibility: hidden; font-family: Roboto, sans-serif; font-size: 12px; font-weight: 200;" x="288.850998878479" y="0" dx="0em" dy="0.95em" fill="rgb(50, 49, 63)" stroke="none" stroke-width="1px">3.5</text></g><line x1="0" y1="0" x2="288.850998878479" y2="0" fill="rgb(0, 0, 0)" stroke="rgb(204, 204, 204)" stroke-width="1px"></line></g></g></g></g></svg>