<svg viewBox="0 0 330 200" xmlns="http://www.w3.org/2000/svg"><g><g><g><g><g><line x1="51.53200149536133" y1="177.86299896240234" x2="46.53200149536133" y2="177.86299896240234" style="visibility: inherit;" fill="rgb(0, 0, 0)" stroke="rgb(204, 204, 204)" stroke-width="1px"></line><line x1="51.53200149536133" y1="155.63012409210205" x2="46.53200149536133" y2="155.63012409210205" style="visibility: inherit;" fill="rgb(0, 0, 0)" stroke="rgb(204, 204, 204)" stroke-width="1px"></line><line x1="51.53200149536133" y1="133.39724922180176" x2="46.53200149536133" y2="133.39724922180176" style="visibility: inherit;" fill="rgb(0, 0, 0)" stroke="rgb(204, 204, 204)" stroke-width="1px"></line><line x1="51.53200149536133" y1="111.16437435150146" x2="46.53200149536133" y2="111.16437435150146" style="visibility: inherit;" fill="rgb(0, 0, 0)" stroke="rgb(204, 204, 204)" stroke-width="1px"></line><line x1="51.53200149536133" y1="88.93149948120117" x2="46.53200149536133" y2="88.93149948120117" style="visibility: inherit;" fill="rgb(0, 0, 0)" stroke="rgb(204, 204, 204)" stroke-width="1px"></line><line x1="51.53200149536133" y1="66.69862461090088" x2="46.53200149536133" y2="66.69862461090088" style="visibility: inherit;" fill="rgb(0, 0, 0)" stroke="rgb(204, 204, 204)" stroke-width="1px"></line><line x1="51.53200149536133" y1="44.46574974060061" x2="46.53200149536133" y2="44.46574974060061" style="visibility: inherit;" fill="rgb(0, 0, 0)" stroke="rgb(204, 204, 204)" stroke-width="1px"></line><line x1="51.53200149536133" y1="22.232874870300314" x2="46.53200149536133" y2="22.232874870300314" style="visibility: inherit;" fill="rgb(0, 0, 0)" stroke="rgb(204, 204, 204)" stroke-width="1px"></line><line x1="51.53200149536133" y1="0" x2="46.53200149536133" y2="0" style="visibility: inherit;" fill="rgb(0, 0, 0)" stroke="rgb(204, 204, 204)" stroke-width="1px"></line></g><g transform="translate(41.53200149536133, 0)"><text style="text-anchor: end; visibility: hidden; font-family: Roboto, sans-serif; font-size: 12px; font-weight: 200;" x="0" y="177.86299896240234" dx="0em" dy="0.3em" fill="rgb(50, 49, 63)" stroke="none" stroke-width="1px">0</text><text style="text-anchor: end; visibility: inherit; font-family: Roboto, sans-serif; font-size: 12px; font-weight: 200;" x="0" y="155.63012409210205" dx="0em" dy="0.3em" fill="rgb(50, 49, 63)" stroke="none" stroke-width="1px">0.05</text><text style="text-anchor: end; visibility: hidden; font-family: Roboto, sans-serif; font-size: 12px; font-weight: 200;" x="0" y="133.39724922180176" dx="0em" dy="0.3em" fill="rgb(50, 49, 63)" stroke="none" stroke-width="1px">0.1</text><text style="text-anchor: end; visibility: inherit; font-family: Roboto, sans-serif; font-size: 12px; font-weight: 200;" x="0" y="111.16437435150146" dx="0em" dy="0.3em" fill="rgb(50, 49, 63)" stroke="none" stroke-width="1px">0.15</text><text style="text-anchor: end; visibility: hidden; font-family: Roboto, sans-serif; font-size: 12px; font-weight: 200;" x="0" y="88.93149948120117" dx="0em" dy="0.3em" fill="rgb(50, 49, 63)" stroke="none" stroke-width="1px">0.2</text><text style="text-anchor: end; visibility: inherit; font-family: Roboto, sans-serif; font-size: 12px; font-weight: 200;" x="0" y="66.69862461090088" dx="0em" dy="0.3em" fill="rgb(50, 49, 63)" stroke="none" stroke-width="1px">0.25</text><text style="text-anchor: end; visibility: hidden; font-family: Roboto, sans-serif; font-size: 12px; font-weight: 200;" x="0" y="44.46574974060061" dx="0em" dy="0.3em" fill="rgb(50, 49, 63)" stroke="none" stroke-width="1px">0.3</text><text style="text-anchor: end; visibility: inherit; font-family: Roboto, sans-serif; font-size: 12px; font-weight: 200;" x="0" y="22.232874870300314" dx="0em" dy="0.3em" fill="rgb(50, 49, 63)" stroke="none" stroke-width="1px">0.35</text><text style="text-anchor: end; visibility: hidden; font-family: Roboto, sans-serif; font-size: 12px; font-weight: 200;" x="0" y="0" dx="0em" dy="0.3em" fill="rgb(50, 49, 63)" stroke="none" stroke-width="1px">0.4</text></g><line x1="51.53200149536133" y1="0" x2="51.53200149536133" y2="177.86299896240234" fill="rgb(0, 0, 0)" stroke="rgb(204, 204, 204)" stroke-width="1px"></line></g></g><g transform="translate(51, 0)" clip-path="url(#clip_0)"><clipPath id="clip_0"><rect width="278" height="177"></rect></clipPath><g><g><g><line x1="0" y1="0" x2="0" y2="177.86299896240234" fill="rgb(0, 0, 0)" stroke="rgb(60, 60, 60)" stroke-width="1px" opacity="0.25"></line><line x1="34.808499813079834" y1="0" x2="34.808499813079834" y2="177.86299896240234" fill="rgb(0, 0, 0)" stroke="rgb(60, 60, 60)" stroke-width="1px" opacity="0.25"></line><line x1="69.61699962615967" y1="0" x2="69.61699962615967" y2="177.86299896240234" fill="rgb(0, 0, 0)" stroke="rgb(60, 60, 60)" stroke-width="1px" opacity="0.25"></line><line x1="104.4254994392395" y1="0" x2="104.4254994392395" y2="177.86299896240234" fill="rgb(0, 0, 0)" stroke="rgb(60, 60, 60)" stroke-width="1px" opacity="0.25"></line><line x1="139.23399925231934" y1="0" x2="139.23399925231934" y2="177.86299896240234" fill="rgb(0, 0, 0)" stroke="rgb(60, 60, 60)" stroke-width="1px" opacity="0.25"></line><line x1="174.04249906539917" y1="0" x2="174.04249906539917" y2="177.86299896240234" fill="rgb(0, 0, 0)" stroke="rgb(60, 60, 60)" stroke-width="1px" opacity="0.25"></line><line x1="208.850998878479" y1="0" x2="208.850998878479" y2="177.86299896240234" fill="rgb(0, 0, 0)" stroke="rgb(60, 60, 60)" stroke-width="1px" opacity="0.25"></line><line x1="243.65949869155884" y1="0" x2="243.65949869155884" y2="177.86299896240234" fill="rgb(0, 0, 0)" stroke="rgb(60, 60, 60)" stroke-width="1px" opacity="0.25"></line><line x1="278.4679985046387" y1="0" x2="278.4679985046387" y2="177.86299896240234" fill="rgb(0, 0, 0)" stroke="rgb(60, 60, 60)" stroke-width="1px" opacity="0.25"></line></g><g><line x1="0" y1="177.86299896240234" x2="278.4679985046387" y2="177.86299896240234" fill="rgb(0, 0, 0)" stroke="rgb(60, 60, 60)" stroke-width="1px" opacity="0.25"></line><line x1="0" y1="155.63012409210205" x2="278.4679985046387" y2="155.63012409210205" fill="rgb(0, 0, 0)" stroke="rgb(60, 60, 60)" stroke-width="1px" opacity="0.25"></line><line x1="0" y1="133.39724922180176" x2="278.4679985046387" y2="133.39724922180176" fill="rgb(0, 0, 0)" stroke="rgb(60, 60, 60)" stroke-width="1px" opacity="0.25"></line><line x1="0" y1="111.16437435150146" x2="278.4679985046387" y2="111.16437435150146" fill="rgb(0, 0, 0)" stroke="rgb(60, 60, 60)" stroke-width="1px" opacity="0.25"></line><line x1="0" y1="88.93149948120117" x2="278.4679985046387" y2="88.93149948120117" fill="rgb(0, 0, 0)" stroke="rgb(60, 60, 60)" stroke-width="1px" opacity="0.25"></line><line x1="0" y1="66.69862461090088" x2="278.4679985046387" y2="66.69862461090088" fill="rgb(0, 0, 0)" stroke="rgb(60, 60, 60)" stroke-width="1px" opacity="0.25"></line><line x1="0" y1="44.46574974060061" x2="278.4679985046387" y2="44.46574974060061" fill="rgb(0, 0, 0)" stroke="rgb(60, 60, 60)" stroke-width="1px" opacity="0.25"></line><line x1="0" y1="22.232874870300314" x2="278.4679985046387" y2="22.232874870300314" fill="rgb(0, 0, 0)" stroke="rgb(60, 60, 60)" stroke-width="1px" opacity="0.25"></line><line x1="0" y1="0" x2="278.4679985046387" y2="0" fill="rgb(0, 0, 0)" stroke="rgb(60, 60, 60)" stroke-width="1px" opacity="0.25"></line></g></g></g><g><g><line x1="0" y1="177.86299896240234" x2="278.4679985046387" y2="177.86299896240234" fill="rgb(0, 0, 0)" stroke="rgb(153, 153, 153)" stroke-width="1.5px"></line></g></g><g><g><line x1="34.808499813079834" y1="0" x2="34.808499813079834" y2="177.86299896240234" fill="rgb(0, 0, 0)" stroke="rgb(153, 153, 153)" stroke-width="1.5px"></line></g></g><g><g><g><g><g><path style="fill: none;" stroke="rgb(255, 112, 67)" stroke-width="2px" d="M34.808499813079834,136.62348844468522L35.01713809334834,120.66587137430514L35.22548630278508,108.8442283318399L35.431765340288486,111.88886296737098L35.640983762220536,111.6106352489427L35.84997012748718,128.26624350809988L36.055475642772514,129.91587532186796L36.26351444332202,138.85954698232845L36.47342903525035,145.94793547232666L36.891633822449045,-30.192718316942184L37.05233306325277,4.927918308172889L37.2612807524085,58.270779095034136L37.46792721296549,77.90010329180566L37.88385010962089,35.13330859183359L38.09016782323519,80.92318543041031L38.29768449628751,96.56996323705044L38.50371213907003,95.21186649085158L38.71233108128309,100.0990996137247L38.92508836736282,99.91964197182288L39.132469674026964,98.28606093397399L39.340411784299214,108.77897728332067L39.548914698179566,109.86837102265324L39.76039567259948,19.566316572154584L39.97002019369602,-29.97069037652681L40.39106767504612,-14.671021387534747L40.81167038112084,40.77366729007732L41.025181851363186,81.72265453300908L41.23724296744665,20.1137916086082L41.44721557354132,-85.84524102580713L41.657555602689584,-78.80583695489317L41.86849511155685,13.657451089038288L42.07848705570698,61.618864418729316L42.28778282986085,75.4939738411895L42.709004353710014,70.73895097145865L42.91907365008195,105.89005094795243L43.130225877559184,102.0721472874617L43.33640822478533,87.77105242617856L43.54769581865072,-8.56345156150914L43.75813253807624,36.5635642517039L43.969284765553475,73.94641588515348L44.179102667204546,49.4440187430264L44.812269278804465,78.57548662673821L45.02245460350911,89.41918332364513L45.235869383474196,89.96184106547287L45.4507151795427,39.372154724971814L45.660997194524604,73.01603865334073L45.87162729450464,99.83264720568107L46.29250073335568,105.25993862928996L46.50034615335067,47.621381765353405L46.710009350558124,84.93858505034729L47.12881361747583,113.53310322887694L47.34166759383281,112.53086202347036L47.5517175521493,131.44389003839677L47.760413846584164,132.76340335605647L47.97027042434613,140.7709466573171L48.18150000404517,140.4734957402085L48.39211076596976,132.18300466075777L48.81845687451363,116.45292102497079L49.028255438109234,100.69058261222959L49.23656497143507,100.63824702448223L49.449592990291116,113.03701746340526L49.658753398056824,125.13733921659372L49.869518864425025,85.18420588929872L50.08128990967671,112.0944859216299L50.29236478493214,100.54530943479097L50.501660559086005,7.527674175348444L50.71157515101432,57.442560144626555L51.128561640719575,86.18066310009009L51.33750932987531,80.17658714111118L52.17960429257552,101.44181738424162L52.390659829775494,122.1103914183211L52.60169602892002,105.92506764898366L52.81106915529569,123.5781521605563L53.0214671986103,134.73593071435172L53.23217465081215,138.01101249332143L53.44224394718409,142.80615997073653L53.65515593770742,148.32895300790972L53.8674104343454,144.4490671888442L54.07674488461018,60.17711473450285L54.28439692405065,94.32973207193389L54.49262910515468,113.83981127578195L54.70192487930854,120.08923653041575L54.91123999151787,125.76092593779971L55.122643613715965,119.93295341058008L55.33190071175893,123.42721447894817L55.542492135628066,126.39327246147731L55.96649833946228,134.46008506848278L56.3882613288641,131.8540603400625L56.595855354138216,124.28228090829523L56.80708493383726,132.18434237691355L57.01883664103349,140.03347569843828L57.22929269851446,123.51594875375557L57.44187594209512,108.24074618795153L57.86421907316049,94.43446145032554L58.07430770758788,107.37609274920803L58.283564805630846,87.1335438162331L58.705540513642624,88.00909444964171L58.917446925282476,111.23590414826161L59.12811570137342,124.71776640083176L59.33994476079146,134.2773792603415L59.54927921105623,105.64962603855322L59.759251817150904,111.51341525769294L59.97374952822128,112.35491003145466L60.18147891988357,118.7711496734669L60.39058131348292,126.92744672286771L60.60161751262744,108.29567552780883L60.81288576843738,123.43805900755098L61.02301307897567,129.17981086452235L61.23470677200556,77.085337731868L61.44172065561613,90.78088607972813L61.65380110975504,109.6269906242202L61.86491466112136,76.57799529305129L62.07819407469829,86.09656921855932L62.2902358527263,103.15487590269856L62.49993772604465,122.85331955696894L62.70996834630569,133.950108882924L62.917987808799744,130.7001406341801L63.129256064609685,129.98282334488516L63.338687205151714,133.90529341658987L63.55018751762708,132.26461676811235L63.759405939559144,108.50840799494031L63.97003603953918,123.97844913950101L64.18248391673168,125.86810166395583L64.39048404117028,122.13170132054039L64.60010856226683,101.6203158874759L64.81071932419141,55.74775144958384L65.02092398695152,72.17982023029623L65.44299638524056,80.27154353632709L65.65443868354956,96.02249396750061L65.86253549826543,113.90236527636098L66.07318493630092,128.17210362069792L66.2844725301663,133.9278379980372L66.70517192651828,129.68824505628595L66.91442902456124,108.47011800455051L67.33344601008892,99.48492607546069L67.54417280034622,97.30109472885142L67.75671736781597,90.9105811718307L67.96690269252062,111.25808469466715L68.17714603139163,92.18735153268442L68.38899442886512,108.55064584083419L68.80876559855541,83.02703588666354L69.02156156074604,102.37731994441552L69.23083799684444,119.28448114966396L69.44117802599271,126.93637177147832L69.6517887879173,110.82041207549834L69.86191609845558,107.80903870226051L70.07244950815837,93.60643800136279L70.28315696036022,112.56190289037127L70.49695850143432,120.64365085374844L70.70582883836826,94.89733676809776L70.91520196474393,121.66873121990423L71.1243043583433,99.83089537466554L71.33429630249341,112.11272270792487L71.54465566969712,110.99427760724215L71.75515040328901,111.78904008683398L71.96429147299925,125.41317735800098L72.3852422640721,133.07348621805178L72.59492479933499,129.5053964042611L72.80543887098233,101.44169402061648L73.01479265930254,81.26020649134723L73.22308285457294,108.73639761295657L73.43332619344392,90.13624623491654L73.64196447371243,118.22588966141755L73.85011930259465,107.07142578049186L74.0606720503529,100.46668391950313L74.27122479811112,107.07199783578591L74.48208695475657,114.20614939145322L74.69672003221511,65.18686816385346L74.90541632664997,99.34456295253176L75.32503279189666,121.16152853170942L75.53684251325924,113.5216470703512L75.75012192683619,119.04748198495736L75.9567103732268,100.57542905325545L76.17002846291462,120.61925655019927L76.37827998207409,132.40780336167109L76.58823325011333,122.00146804410848L77.0099769014597,132.54221907487621L77.21940804200172,141.30992543429582L77.42742750449577,139.57003027218482L77.63656857420605,145.14959505006098L77.847024631687,122.93881588832942L78.2661576455474,117.21019541782485L78.4743124744296,132.5719715263205L78.68242862720093,135.51479116841963L78.89348416440089,79.1901822871294L79.10349544660647,84.88503444237524L79.31141821882328,109.64238565408374L79.52059796464444,85.1276313703321L79.73221430545252,74.4797266950741L79.9418968407154,82.03300483795391L80.15074783959389,85.63911964209186L80.36168734846115,101.6353626409336L80.57034496678511,120.6920763775723L80.99013547453086,112.53662450669192L81.20250599950154,116.94432112421131L81.62163901336194,123.80678728543653L81.82845951641798,114.12148827159302L82.03647897891204,109.06149392591762L82.24430506085157,127.60041504790632L82.45418097666898,116.43028297381233L82.6655845988671,133.77661852943703L82.87592462801535,121.62654925838967L83.29712681380907,119.44258470861323L83.50530098074674,88.79444141099236L83.9211658632358,109.08320172753515L84.1286825362881,127.1154579699352L84.33763022544383,133.05536809490232L84.54595909682511,141.5903988059056L84.75595104097525,130.51990543164254L84.96377712291478,141.5007053789699L85.1723767270724,144.20028723567984L85.38167250122626,128.62238097815532L85.5905041620493,131.999363466753L85.79999331675768,125.13854841362236L86.01079745923678,115.56254556561615L86.22024793783426,128.6876382966523L86.42871217560369,83.83032653714329L86.63702170892954,87.66731609367015L86.8461627786398,106.23614358018915L87.05373746585846,122.64942067131855L87.26465763667026,132.66480917163213L87.47522972248396,101.77925557816569L87.68514431441227,115.22328639854585L87.89563904800416,113.3358766621341L88.1036585104982,78.28403555791432L88.31227745271127,108.72997003540027L88.52165057908694,121.04976927567668L88.72988276019096,127.80507747587986L88.940512860171,136.47461287497478L89.14814556155602,139.87979730326367L89.3586402951479,132.80827149647288L89.77375099347434,57.995607964145265L89.97952724153599,52.9874881012349L90.18584495515029,89.17941204195016L90.39488933458328,69.38665737858723L90.60538406817517,70.62078169614726L90.81701974703869,70.39495433113686L91.02621883091528,102.03530802089564L91.23462505451838,122.55653924709807L91.44809784864982,133.890848618627L91.65865059640805,135.8202537972297L91.86742424306473,138.0115830704218L92.07844110415378,124.65547612179826L92.28947730329833,129.0809433038146L92.49846366856495,131.53031938960626L93.12283146493435,110.43341304312679L93.33087026548385,128.5749885090469L93.54119095657667,134.5198014427739L93.95939574377536,142.34803121213304L94.16627426099777,115.14620430245274L94.3693045051853,130.48532150576742L94.57912240683636,91.90248696762583L94.7666048544407,111.64484453206474L94.97373476638396,92.55410429623015L95.39137874997456,90.39268342503615L95.60355589439075,111.68238110876551L95.81374121909539,103.34040873186422L96.02390720574458,118.77956746781395L96.23389914989473,120.26137044914034L96.4445872640411,114.62572218596249L96.65558478707473,108.7999729473922L96.8655960692803,119.6931163145022L97.07469846287967,133.7607969593406L97.28598605674505,109.11880061785912L97.49655814255874,123.28573261559902L97.70672412920793,140.04782130699812L97.91745091946522,147.4582246820436L98.12709477861723,149.5646255665515L98.33468880389134,144.9834427457588L98.54464207193057,148.62837802935053L98.75384115580717,122.73113708403686L98.96135782885949,132.94656626386956L99.17113705439967,138.38969457377848L99.37838299467563,141.8732009988662L99.5876400927186,141.7366482226237L99.7983668829759,146.5590795737217L100.00671509241263,137.8768509649927L100.42981240764061,132.58637551897272L100.6398623659571,102.35055209557227L100.8500670287172,65.41875315430072L101.06054242425361,94.95557478852433L101.48070035505295,107.89732196667639L101.6875595342199,124.73325980904414L101.89985270696879,129.02519280267927L102.11094692027966,108.44911557907605L102.32140297776063,87.10653417529697L102.52791407192944,92.09074819646352L102.73674573275248,91.88475858183419L102.94789796022972,90.94560237928164L103.15547264744836,112.93251980926634L103.3635114479979,123.37502501859768L103.57242046104271,92.69743589407939L103.7823543910265,112.07357194023957L103.99402874600092,124.3489296427185L104.20057851628066,136.93157305873396L104.40991296654543,144.08963986984182L104.62009829125007,127.40269673551812L104.82802106346686,121.49903690338796L105.03720080928802,134.44368962712522L105.24483351067305,132.62801425597263L105.45366517149607,96.36077000848182L105.66512680786053,120.07495189689129L105.87397780673902,131.9854469721701L106.0829835100611,129.09821665622826L106.29216325588226,117.04784500086694L106.49948654838006,128.05951332398112L106.70976856336196,138.89306962089555L106.91908367557129,138.28491659597137L107.12781864611705,124.28115260661251L107.5442056561033,134.98884043401878L107.75208975220919,135.0353008642768L107.9612501599749,127.19124920279492L108.1727698105057,133.08512351851041L108.38194955632686,142.82990544031517L108.58884741160472,141.20501935469935L108.79851060881217,125.35914422560035L109.00585323936541,140.21810957875982L109.21549709851742,138.85320315147607L109.63188410850367,135.51789256701812L109.84073510738214,112.1633020363187L110.04914133098522,119.43806779415304L110.46839037317831,107.53582173124195L110.67552028512159,127.3228128445247L110.88760073926052,129.5952614510609L111.09803745868604,138.69649572210355L111.30801006478072,142.30056666231343L111.51724782476822,146.8752609950786L111.72395229949157,143.96434067674173L111.93382821530898,148.37607109158253L112.14246649557751,133.5073067785379L112.35344468055565,144.04656020688614L112.56043922611077,133.46874254524297L112.9759560236017,127.15371056078563L113.18457496581475,133.7528428981138L113.3930392035842,130.38732507243486L113.6022769635717,112.7162984845565L113.81029642606576,122.37045039634931L114.22745695827007,91.59030541683086L114.43605656242768,91.5509180874735L114.64444344797532,110.51724656450709L114.85226952991485,130.75973573428087L115.06104317657153,123.35721209934255L115.27057100739081,119.53675799990414L115.48100772681633,131.8460763764172L115.68751882098516,135.82841028653402L116.10527883290848,117.07747461318169L116.31693384982745,118.93992907104445L116.52926569868723,100.15378179470936L116.73776861256758,120.88573911520048L116.94779923282861,122.22847506568841L117.15753978225789,123.03898933243438L117.36513380753199,137.75292749713438L117.5714128450354,128.74611750005846L117.78043788641294,59.1295236755845L117.98779985502163,99.4816716835274L118.19440763946771,115.7932991470157L118.40494104917049,106.66310173044148L118.82419009136359,127.74813549664803L119.03387262662649,117.00073838785637L119.24171804662147,115.61723286578975L119.45074308799902,81.5352658754333L119.66005820020835,51.50658973523381L119.86774891575973,88.2727948811978L120.0749948560357,110.28341862793089L120.28148661214908,105.87319692478256L120.491768627131,97.99486661077975L120.91322220764557,121.17992269102719L121.1214157126387,124.78802664216528L121.32966723179817,112.2214514839137L121.53826683595578,78.63428155464413L121.74671173566976,103.28147127702415L122.16267330843608,126.66926677384492L122.37264591453075,125.9242755599148L122.58358542339802,132.53312817101832L122.79616866697867,137.465971462688L123.00453621447086,143.68854934602462L123.42335981944403,148.48656557147237L123.63398991942405,149.228666770213L123.84262819969256,133.3692596707942L124.05155655079285,114.71197305099032L124.47171448159217,112.5675328516235L124.68046879019339,72.99093111279736L124.89154366544882,92.16510102521411L125.10159362376531,82.43062035982932L125.31261048485437,105.53906287498309L125.52285382372538,87.54678882113632L125.72961631261508,81.28254707348732L125.93868003010353,69.41758966851529L126.14795646620193,55.040425753505325L126.35802576257387,86.6190201528119L126.56732153672775,94.16478004010628L126.778261045595,98.9351472454394L126.9878275525252,111.66109133096413L127.19710398862361,121.37658754474259L127.40638042472204,130.71615883557143L127.61687515831392,121.77484041362652L127.8276406246821,65.26385531059968L128.03583412967524,80.51884627087856L128.24449174799918,95.98760020304432L128.4526852529923,97.50604680464357L128.6628125635306,23.84041736330774L128.87158621018727,63.91450640695154L129.0839954112689,79.76560754651047L129.29389066514176,108.31414969580847L129.50214218430122,115.32375321182491L129.71168935317596,63.077658505984424L129.91816177123388,93.64159494473662L130.1280376870513,103.25834697794289L130.33545766982635,120.9070183861194L130.5457590228637,63.62041438046323L130.75490009257396,28.28787481039386L130.96626503866116,42.70301533727999L131.17732057586113,82.10789177409701L131.38679039251406,60.74103802875686L131.59852276165486,70.82179870138769L131.80832132525046,92.60016869801042L132.0186226782878,107.89315955750516L132.22904005965788,130.05381019977906L132.64461487131516,102.88712913503632L132.8535625604709,122.73579823919823L133.48173995376428,102.64448542190823L133.90031216401655,98.26004814897112L134.1074227379044,33.22510023039452L134.3155002145648,81.29564604967237L134.52628501898846,110.85853429636755L134.73621894897224,119.32412885199545L134.94329084674914,84.83814981744031L135.153186100622,111.00680778416937L135.3666008805871,124.75639354672724L135.78393545529048,57.36504502824255L135.99210962222813,75.0390851646793L136.41058514220316,104.1486971199028L136.61825651969912,108.67795877913105L136.82745560357571,104.47651474250533L137.03669336356322,27.477316572933862L137.2469560404897,69.46651242231975L137.45725739352704,28.457345636182907L137.66713330934445,77.95172238634606L137.87778274737994,103.3729714183093L138.29473056097427,98.97352248210585L138.50269200930197,111.82341436808953L138.7111175709605,105.23912681856086L138.91836351123652,123.55761194509957L139.12756259511312,136.9558243451914L139.33801865259406,123.02749519190752L139.54868742868504,129.03515516190595L139.76057450226944,134.16532389146707L140.17922406474352,143.69738579171883L140.60079367359083,149.7661908645188L141.0160397383054,143.90822969583039L141.22492941329477,143.27280976740897L141.43511473799947,138.73151673541145L141.6486068701863,148.1291284453876L141.85807668683927,147.00360696101777L142.0665989387751,117.52476759517285L142.27637816431522,130.06559223474238L142.48766575818064,143.50681533836217L142.90530974177122,141.05875629706125L143.11327119009889,140.53385507057013L143.32247027397554,152.1492242644785L143.5307991453568,132.10598741943696L143.7417579922795,135.2558377730591L143.9527748533686,136.46162643889437L144.1602915264209,134.17264682508835L144.37119235917726,146.4253054513281L144.58052680944203,143.29486985009265L144.78856560999156,137.16927763595322L144.9986349063635,140.56463952098653L145.20912963995536,151.9564651337004L145.41600815717777,143.0857360777505L145.62406629578274,138.77436129271052L145.83628211630977,97.66569317109158L146.0469315543453,95.21876100570432L146.2562853426655,119.79785701999062L146.463937382106,134.06570453872035L146.6736585934798,62.41935001330706L146.88229687374832,73.90074335600579L147.29978615289528,84.51876514009469L147.50854046149652,74.21243336488313L147.7172174178759,101.26497478779109L147.93034212700923,77.93085908160396L148.76891756361724,70.20313623676785L148.98140411692063,103.97401432568877L149.1925756824533,62.64437125803601L149.40204549910624,95.82553496490928L149.61020032798848,119.43399461285307L149.8201922721386,125.71269004044915L150.03310426266194,137.04422587835137L150.24315422097843,122.84329927077869L150.45260469957591,103.19150888207308L150.66085621873538,119.89645382484153L150.87109955760639,136.3239793079462L151.08178767175278,144.68333442797473L151.29005852896768,150.8135857586484L151.49815534368355,122.39804404988892L151.70785721700193,138.4002031646285L151.91316935173273,127.56454436442678L152.12592663781248,141.97422784978335L152.5378658950448,152.88792862305775L152.7469102744778,118.40846470250723L153.16146016919612,136.44507178462402L153.36698502253688,144.20930239342937L153.78776177111072,153.6825134288064L153.99462095027766,113.05788938561057L154.20463223248322,104.70889544793127L154.41224559581278,101.7312902643335L154.621212623024,123.36668771692155L154.83010229801337,96.67427860777147L155.03912733939092,85.19494911501111L155.24822973299024,93.51350116320853L155.4581443249186,79.19870690283727L155.66643452018894,104.68061844578494L155.87487941990295,110.31330149445576L156.08359505239326,63.71518908817077L156.29550146403315,54.89500643807102L156.50406239207985,61.68193897922868L156.71386095567547,84.59985698260996L156.9200819790125,103.86698253615265L157.12935841511091,67.00767739333378L157.33766794843675,-8.113338893711969L157.5470410748124,32.16047599515347L157.75726507562797,78.42760758044946L157.96733437199987,43.92792926512195L158.17719094976187,79.41223389632704L158.39132123777867,-35.292028993222026L158.60220273247958,6.3453815080162945L158.81370304495493,39.35974104923027L159.44615414850313,68.19540794354752L159.65479242877166,92.0986147281977L159.8644169498682,-42.32151765452772L160.0748343312383,28.35250881807656L160.28471024705567,21.05896706746386L160.49681003925008,10.392269081764038L160.70641522229113,32.835363945645206L160.91377719089985,32.98384594160376L161.1217966533939,80.73099081418607L161.33194330198765,20.741858142980004L161.5402141592026,44.654671023856544L161.75055418835083,77.49859236685498L161.94476627925238,57.89455863649864L162.15572512617507,29.67597305339779L162.3656783942143,18.18612751061772L162.57708201641242,66.93491519862643L162.78517883112826,1.5764700524213826L162.99391380167404,53.1761989624775L163.202571419998,34.11947827148491L163.40952728944225,62.45083649220327L163.6178561608235,85.59056088647351L164.03397243803343,58.98449310064456L164.24605289217232,95.82802439778084L164.45326015633745,90.01457114647272L164.6660754565835,111.71731681785752L164.86962782826822,116.96433385856825L165.07977447686196,109.9998330854512L165.28864481379588,79.47382018545879L165.49939094210862,71.99167038629194L165.70802922237715,101.26984888377544L165.9186593223572,96.33077952881104L166.12828384345372,116.02842831885063L166.33728954677582,76.18455492666024L166.54503827649353,102.63676820281084L166.7551462489764,97.06368374762224L167.37986213034392,79.97181355969869L167.588867833666,73.67340047791518L167.79930455309153,45.05277098108075L168.21410584253073,16.911141229844112L168.42697915694316,22.001507561903743L168.6359268460989,37.916094508246424L168.84990242967208,57.013335999352705L169.26574797410566,82.52077394649147L169.4752177907586,84.16590902161816L169.68341129575174,56.42395343110453L169.89071525019406,94.44585312563771L170.09906345963083,107.33026367233185L170.3097128976663,102.5507793405166L170.5051432860613,34.754383323810615L170.68396228482325,17.88379053085986L170.89675824701388,29.25970269719733L171.31736095308858,-313.11889882282304L171.73614588195085,-24.976669443301414L171.94331447000505,47.44792186291988L172.15272627249163,37.22316280758838L172.3597401561022,84.21053819535157L172.56685072999002,95.17194128354753L172.77633988469842,117.7908633707937L172.98780152106283,113.67412972056401L173.1960723782778,116.55516895439159L173.40645108353695,75.64755275893226L173.6162303090771,101.16120481990923L173.82691842322347,124.72044811910037L174.0343964201649,112.54687210010108L174.24487181570132,126.27927155582344L174.45451567485333,96.23164660594706L174.66528114122153,86.50593966381993L174.87173422122402,111.30607380111621L175.2945801417311,124.81855655474841L175.50387591588498,120.34303050360208L175.71166332171362,124.67773457535948L176.13632701943317,116.98982599046744L176.34900695329108,-64.68053574189733L176.55907624966304,-41.731850264798666L176.76916488409043,15.528910718165173L176.97830595380069,64.34133382721878L177.19044442210594,103.52448148541744L177.40061040875514,126.8837206709826L177.6112405087352,102.44200768172321L177.8203042262236,124.82120676204549L178.0295226481557,137.3149283337255L178.23961128258307,144.26439093226836L178.44732133618993,142.8814546336637L178.65806746450264,142.69695342083062L179.07410638949077,144.8821951719538L179.496700915277,147.43039288738007L179.70800784719785,153.6718172457164L179.91417085636854,157.32838024421233L180.12338927830058,160.07471113758487L180.33434812522333,146.06895707804142L180.54457212603887,131.87153726378534L180.75371319574913,130.11558764200424L180.96567762155533,141.53329152430686L181.1758436082045,141.24046531786018L181.38910368372598,78.66123409253454L181.5981867392699,101.38988606258388L181.80568407426674,127.57673379482765L182.22448834118447,114.80862506690721L182.43488638449907,135.40267097542548L182.64381473559936,137.23033219719062L182.8534392566959,66.57452563816025L183.06165209974446,100.27370361609309L183.26938149140676,108.43045410330832L183.48057239499488,128.78332008163227L183.68934604165156,137.4721404287578L183.89742351831197,123.12479446106262L184.31295965385834,133.7286511132978L184.52084374996423,135.77603403599142L184.7325374429941,146.13502232241862L184.9419105693698,149.6924528044178L185.1527147118489,155.4808245121229L185.36025072295666,157.89209334046603L185.57236985320648,143.0696659327989L185.9885248065273,128.5851659973991L186.19807197540203,142.99461660377602L186.40870207538205,150.67376569433395L186.6176110884269,154.37324135017823L187.03552580479382,152.74935053981673L187.24544039672216,158.15428114188148L187.45496822754146,126.28135177140393L187.8738691847364,110.40020997868264L188.08111512501242,130.111954145584L188.29271212776501,138.47212350065058L188.50214326830704,150.56418806256517L188.71159374690453,150.39155697088555L188.92094753522477,132.67355897712483L189.1310555077076,147.63515849049816L189.7580726176739,152.4772993241742L189.96692361655238,157.6161307426503L190.1733766965548,145.6841306614537L190.38329128848315,154.39459962020132L190.59250971041521,90.52383985364312L190.8017087942918,114.48954180872376L191.00984428511856,126.25248732126296L191.21933343982695,141.3317877138813L191.43135587979953,150.57441793341596L191.63987813173534,132.1992516766743L191.8511270494898,140.97131664174617L192.27333481416701,138.82182666585985L192.48237919360002,117.86088084939473L192.69184901025295,134.2433573024068L192.89975244441428,143.88525231186077L193.1082746963501,150.43769257623686L193.3166809199532,139.02453468464878L193.52717565354507,74.55626096293399L193.73879199435314,98.8994470515307L193.95075642015934,123.7627849438633L194.16070968819858,141.46662697793008L194.36944465874433,151.12150251242346L194.57680662735305,157.7697838441639L194.9948180339972,162.3366223731408L195.20227669288317,139.08836361122096L195.411997904257,146.2835582490401L195.62038478980463,153.61438014260426L196.04185770837466,151.51416848802677L196.25010922753413,80.93266847199062L196.46050727084875,112.02325775840296L196.67196890721323,104.91717721543674L196.88201886552972,122.97355041868904L197.0918174291253,134.98535036468445L197.3017513591091,142.15740840629158L197.51085375270844,150.4373963117786L197.71920196214515,152.382483201344L197.93056690823238,130.87006398668714L198.14258934820492,143.86470196769355L198.35028006375632,145.54571533373317L198.7696064581712,155.0765263303157L198.97778062510886,157.6550755602003L199.394419029816,132.8832999390063L199.6029799578627,144.6426284083841L199.81349402951003,147.12423977386428L200.02207429561219,151.57692316564908L200.23127337948878,155.5142740811828L200.43908012337286,159.3502313714279L200.64702223364512,150.3681633947367L200.85484831558466,150.88947425245968L201.06656134666997,151.0221644749852L201.2740393436114,151.39727511515525L201.48337379387615,158.9422940884364L201.68973018360137,153.366860995829L202.1063299121976,155.7662419091318L202.31887447966736,149.7990531418027L202.53070353908538,156.1499359788576L202.74027004601558,155.8469299020341L202.95028132822117,155.03104758046487L203.1599058493177,149.61786051189304L203.37074866790772,148.91756678030526L203.5825970653812,136.47834472757398L203.79034579509894,146.0247428242802L204.00024104897182,150.8719454939237L204.2086472725749,150.42824087699063L204.42037964171567,153.25962980495626L204.63079702308576,149.90679417126051L204.83960934585332,149.95668732692886L205.04985268472433,122.81993977561453L205.2592644872109,123.55001575038878L205.46830886664392,137.88828602380073L205.678513529404,135.9307089549735L205.88603020245634,141.22011194010744L206.0967183166027,140.05463940510907L206.30469910298584,142.88658588445026L206.5170116137902,145.99295060752206L206.72655878266494,104.41895722463728L206.93589323292971,117.77041840482678L207.14683274179697,103.23517755307734L207.3560705017845,123.70967508792612L207.5644187112212,130.0383794656619L207.77305699148974,132.99678800447126L208.40046086256504,98.68265012057078L208.61265734503667,123.39854238014144L208.82193378113507,136.8069128131268L209.0302433144609,144.19832585615165L209.23934570806026,126.39047920853375L209.6555780136029,103.67987951282645L209.86367482831875,123.50312579624793L210.07287391219535,127.94323413388427L210.28325261745454,128.30379649085884L210.49324456160466,93.54153608550445L210.70414539436103,87.01732313663645L210.91276433657407,117.44739468492745L211.12111254601083,134.91747012018516L211.32891928989488,131.1106623401525L211.53993615098395,142.14792085382564L211.7493286154151,144.25303655297347L211.95649720346927,131.93497067914845L212.165444892625,119.90975819239829L212.37499206149977,133.30000110198628L212.5864150217533,137.77148484109648L212.79690975534518,145.52739276686836L213.0062635436654,147.60783376343164L213.2145924150467,146.04646143341031L213.42286327226162,149.55654138970803L213.6326811739127,143.8012960342871L213.83973373363418,141.23762596519057L214.04612879947027,150.96360894961884L214.2560047152877,142.674462608002L214.46555188416244,150.0033632111669L214.6732812758247,148.37893200332178L214.88489761663277,141.7749982695461L215.09314913579226,118.31447094927148L215.30029838579097,107.40486392682955L215.50588125329813,88.64174827324763L215.92689005853734,112.59751903926194L216.1373461160183,129.70212719830863L216.34660321406128,136.53677190183595L216.55487407127617,140.85873302657373L216.7619459690531,131.79721091933337L216.97313687264125,109.44298201400318L217.180672883749,127.00854942597286L217.3896012348493,141.15297230029333L217.59702121762433,151.2522659202229L217.80689713344177,151.54591690283925L218.01389167899688,157.15216382432186L218.2226459875981,154.3393484772776L218.43035604120493,151.65338198233255L218.64090878896315,132.0140682297413L218.84946971700984,144.1362335696805L219.0583787300547,147.12890736978656L219.27076859308085,147.56001418581832L219.4801803955674,153.41126560397635L219.6903463822166,157.77027511915747L219.89960348025957,160.18111371410055L220.10725551970003,156.56255492255363L220.31556505302586,137.77301418369493L220.52518957412244,120.7729795599512L220.7328416135629,95.72538490328476L220.9408417380015,114.27074561513135L221.1525741071423,104.63491346268911L221.36134775379895,125.86038329494833L221.57232593877714,112.44522519952828L221.7803067251603,126.7380783427565L221.98948647098146,139.09350654522606L222.1976606379191,135.79247522235696L222.4079233148456,115.51885811980655L222.61536263567606,132.1242260499442L222.82425231066546,140.14918039164576L223.03151758899688,126.66434854995802L223.24234106953145,126.50234563975948L223.66203488699992,136.80708725964593L223.87229756392637,141.92802563929777L224.50051363333066,148.24025397757526L224.709229265821,154.20056115139053L224.91908584358293,157.241918319478L225.12768544774056,157.2508282653322L225.3393984788259,148.8007438945959L225.54954512741963,150.79891119127055L225.75833811213175,156.3452805091124L225.96657029323578,150.28559662244697L226.1769683365504,111.20241837480803L226.3848524326563,123.50602302819092L226.5928525570949,109.0338387607146L226.80251575430233,119.73367870605685L227.012701079007,118.83751055005781L227.22039179455837,109.6541327899079L227.43289768591723,127.98030089016657L227.64105251479944,119.97902933448964L227.85232077060937,135.88052487881188L228.06167455892958,119.98021530481664L228.27058357197444,129.17341122868203L228.47955059918561,135.60446941356284L229.10759262609082,64.70615823408768L229.3161342160821,7.665327185204402L229.73315938189825,66.35532670323445L229.94264853660664,99.47446913209002L230.15151887354057,125.27757464884982L230.36021516797544,118.65184121431926L230.56804124991496,102.44241337101104L230.77569328935544,121.60479003522374L230.98475700684386,134.07404135041202L231.40342590737342,139.03514384900168L231.61537099512418,147.76766312521642L231.8238739090045,156.4726779529496L232.03289895038205,161.1383723584004L232.24178862537147,158.50814082600164L232.66231397922436,149.7704709545916L232.87159041532277,152.25619685091664L233.2858309011539,146.68526316304L233.49464322392146,149.356137796265L233.70569876112145,130.2828679951729L233.91410498472453,140.59337879892396L234.12535390247902,141.97856260325764L234.54365537995497,60.353346927785L234.75279644966525,98.36495984290272L235.17322511324087,116.50857156067724L235.38110920934676,114.86301673126208L235.5914105623841,125.22972386018803L235.80424520068567,138.05106314285547L236.22169580372173,150.07769952324662L236.4306048167666,155.61497513976462L236.64129293091298,154.27355048107486L236.85232913005748,150.44341179194237L237.06228239809673,151.5339000205812L237.26991509948172,151.58039199083407L237.47791522392035,156.6440778254401L237.68523851641814,110.27524041649083L237.89747367500067,125.49110507931104L238.10593791277012,133.58468755090263L238.31563978608847,143.4710367408846L238.524664827466,133.31535731326585L238.734308686618,99.07457277329934L238.94269557216563,121.08064222575257L239.15257148798307,126.54743846683424L239.36238938963413,141.74381366037886L239.5721299390634,110.13232256935885L239.9930613920808,130.3677504472791L240.20239584234557,142.29443956930695L240.6201558542689,120.89162816196185L240.82844604953922,101.69883139027915L241.03890210702022,92.9169281890039L241.24630275173982,116.59440993712721L241.45552117367188,136.1875396852786L241.66425614421766,130.7870760556365L241.87217891643442,144.11131545357895L242.29442535722256,152.25225035868016L242.7102902397116,117.12522857262633L242.91794227915207,121.30921968456992L243.12687063025237,121.43343753870239L243.32905,125.03623249284317L243.5304171714187,94.37545796082502L243.74000301640433,106.4105635348212L243.9488153391719,115.40718339932158L244.16072175081175,122.58197871269866L244.36812239553134,128.223482786716L244.57770824051698,119.61673359224069L244.7865012252291,21.428222937893633L244.99430796911318,37.42024190465992L245.20348771493434,-181.02433949505627L245.41405980074802,-52.412988799696265L245.62136375519037,26.83992275539342L245.83007938768068,69.51110032534798L246.24923173959652,54.36992392164036L246.45806340041955,54.0192051150287L246.6682100490133,-8.05345372864504L247.2984952903509,-30.097297940944525L247.7152303853353,47.36022042497436L247.92493225865363,61.23137370594831L248.13488552669287,99.65660240220826L248.34799089777073,125.4667657726075L248.55896908274892,109.95228460522225L248.7674526585738,131.90004532810556L248.9743698519071,141.73638233369454L249.18556075549523,150.46895481466396L249.39466314909458,133.5493950236046L249.6055446437955,-165.3239892363127L250.17766101433438,-39.99346765518589L250.39210071123838,14.133773906783631L250.60257610677482,41.52248572266518L250.81177519065142,74.16273587549728L251.02072287980715,86.60543978229046L251.22823955285946,110.61221938306296L251.43529211258095,103.43617867385316L251.85245264478525,74.51709748596845L252.2705220655958,94.52968262873196L252.48366611278456,108.76804214279912L252.6937354091565,119.79246493691961L252.90254773192405,121.76649343938759L253.11134071663616,118.73164838031101L253.3191667985757,76.31544979994703L253.528095149676,23.05902111198903L253.7375843043844,57.21068978164005L253.94695743076005,71.47238389047685L254.15497689325412,36.32684978334206L254.36539427462418,65.39344518387342L254.57832560320298,92.03710838665377L254.97591602329015,103.18210679535292L255.18652678521474,114.29809007564435L255.39752430824834,108.79094677585026L255.60825109850566,109.0229344413238L255.8183590709885,106.50126372601964L256.0284863815268,125.64960409892204L256.2370666476289,134.02408928222135L256.44464133484763,109.87024049046273L256.656528408432,111.81904248585657L256.85818565068246,121.2362681924798L257.06862237010796,115.82993986806423L257.2781115248164,98.62565948127198L257.4880647928556,106.00916618050833L257.672897926863,101.65343672004347L257.88542315627734,115.22318737266264L258.30527167818946,108.06440250036019L258.51690735705296,90.4145481773136L258.72707334370216,98.24215335098482L258.9378194720149,39.283127221843856L259.14547151145536,79.24495774960046L259.3572232186516,64.54147051611238L259.56671237336,85.05821879205304L259.77540866779486,109.67471387490114L259.9835441586216,114.3590356913506L260.1934780886054,102.33108734346288L260.4009174094359,57.24389642441419L260.6129785255194,93.97740077686095L260.8262192629854,99.13201730842809L261.0357664318601,115.75759973684565L261.24519757240216,129.8179120481291L261.454106585447,126.77841824628065L261.6647753615379,136.62271630437047L261.87412914985816,112.67737032064602L262.0812783998569,118.42031769180404L262.2927787123322,56.24152995927189L262.50389226369856,71.62239939867375L262.71512184339764,102.65733891721932L262.9270669311484,124.22450426230047L263.1365367478013,125.50433881773448L263.55632725554705,50.36394300552685L263.7652749447028,70.81412540273166L263.97412594358127,90.5574245899274L264.18462067717314,108.83407004226795L264.39525077715314,42.43393268079584L264.6065383710186,83.33507983323487L264.81780662682854,109.52407265959101L265.02814665597674,128.48932998403282L265.23583737152813,118.21925305895762L265.4467382042845,127.94894782161755L265.866818782862,138.23529204481142L266.07729417839846,123.80305534747251L266.2876148694913,89.4276622301955L266.49739409503144,112.28500324508855L266.7060130372445,125.50952627378012L266.91672048944633,132.32068799151926L267.12831749219896,141.3831846579085L267.3397404524525,126.25746366453039L267.5477985910575,131.6487342172768L267.75792590159574,87.28180287805124L267.9636634735465,111.75975784895681L268.170503314658,104.08159356311937L268.380533934919,108.66602109814532L268.5905065410137,109.25205278579216L268.79904813100495,125.90234515351177L269.0107418240349,136.23193760800766" fill="none"></path></g></g></g></g><g opacity="0.2"><g><g><g><path style="fill: none;" stroke="rgb(255, 112, 67)" stroke-width="2px" d="M34.808499813079834,136.62348844468522L35.01713809334834,111.09130113207709L35.22548630278508,97.49545101107327L35.431765340288486,115.4693532987555L35.640983762220536,111.24738113976275L35.84997012748718,151.3069457494876L36.055475642772514,132.2748752096653L36.26351444332202,151.89950612252778L36.47342903525035,156.40193164649372L36.891633822449045,-291.7410610576512L37.05233306325277,57.29033165653459L37.2612807524085,137.99478078254464L37.46792721296549,107.2799964376942L37.88385010962089,-28.933098855181242L38.09016782323519,149.55417640693764L38.29768449628751,120.02909462703809L38.50371213907003,93.1752960725812L38.71233108128309,107.42870843007393L38.92508836736282,99.65048284753561L39.132469674026964,95.83583869297809L39.340411784299214,124.51777635087066L39.548914698179566,111.50242578468703L39.76039567259948,-115.88498224705336L39.97002019369602,-104.27561398647572L40.39106767504612,8.27837335245431L40.81167038112084,123.94046386022507L41.025181851363186,143.14603062017153L41.23724296744665,-72.29940819387639L41.657555602689584,-68.24673473909388L41.86849511155685,152.35235249310318L42.07848705570698,133.56097487054993L42.28778282986085,96.3066363184704L42.709004353710014,63.606417007454866L42.91907365008195,158.61669940201236L43.130225877559184,96.34529189517434L43.33640822478533,66.31941035551517L43.54769581865072,-153.06520664876916L43.75813253807624,104.25408772017545L43.969284765553475,130.0206932103991L44.179102667204546,12.690423078966091L44.812269278804465,122.27268841725856L45.02245460350911,105.68472836117803L45.235869383474196,90.77582767797946L45.4507151795427,-36.51237477263339L45.660997194524604,123.48186454064842L45.87162729450464,140.05756003168284L46.29250073335568,113.40087576439868L46.50034615335067,-38.836453528610264L46.710009350558124,140.91438997708406L47.12881361747583,156.42488049632473L47.34166759383281,111.02750021536775L47.5517175521493,159.8134320607039L47.760413846584164,134.74267333254258L47.97027042434613,152.78226160919542L48.18150000404517,140.02731936454592L48.39211076596976,119.74726804158632L48.81845687451363,92.8577955712957L49.028255438109234,77.04707499312104L49.23656497143507,100.55974364286112L49.449592990291116,131.63517312178894L49.658753398056824,143.28782184637586L49.869518864425025,25.25450589835725L50.08128990967671,152.45990597012627L50.29236478493214,83.22154470453268L50.501660559086005,-131.99877871381477L50.71157515101432,132.31488909854346L51.128561640719575,129.28781753328533L51.33750932987531,71.17047320264288L52.17960429257552,133.33966274893723L52.390659829775494,153.11325246944034L52.60169602892002,81.6470819949775L52.81106915529569,150.05777892791525L53.0214671986103,151.4725985450449L53.23217465081215,142.923635161776L53.44224394718409,149.99888118685914L53.65515593770742,156.61314256366947L53.8674104343454,138.62923846024597L54.07674488461018,-66.23081394700921L54.28439692405065,145.55865807808044L54.49262910515468,143.10493008155402L54.70192487930854,129.46337441236648L54.91123999151787,134.26846004887562L55.122643613715965,111.19099461975065L55.33190071175893,128.66860608150031L55.542492135628066,130.84235943527102L55.96649833946228,146.560303978991L56.3882613288641,127.94502324743203L56.595855354138216,112.92461176064432L56.80708493383726,144.03743457984103L57.01883664103349,151.80717568072535L57.22929269851446,98.73965833673151L57.44187594209512,85.32794233924545L57.86421907316049,73.72503434388659L58.07430770758788,126.78853969753175L58.283564805630846,56.769720416770724L58.705540513642624,89.3224203997546L58.917446925282476,146.07611869619146L59.12811570137342,144.94055977968696L59.33994476079146,148.6167985496061L59.54927921105623,62.70799620587081L59.759251817150904,120.30909908640251L59.97374952822128,113.61715219209725L60.18147891988357,128.3955091364852L60.39058131348292,139.16189229696894L60.60161751262744,80.34801873522053L60.81288576843738,146.15163422716418L61.02301307897567,137.7924386499795L61.23470677200556,-1.0563719671135914L61.44172065561613,111.32420860151836L61.65380110975504,137.89614744095826L61.86491466112136,27.004502296297915L62.07819407469829,100.37443010682136L62.2902358527263,128.74233592890744L62.49993772604465,152.40098503837447L62.70996834630569,150.59529287185666L62.917987808799744,125.8251882610642L63.129256064609685,128.90684741094273L63.338687205151714,139.78899852414696L63.55018751762708,129.803601795396L63.759405939559144,72.87409483518229L63.97003603953918,147.18351085634208L64.18248391673168,128.70258045063804L64.39048404117028,116.5271008054172L64.60010856226683,70.85323773787917L64.81071932419141,-13.061095207254311L65.02092398695152,96.82792340136484L65.44299638524056,92.40912849537335L65.65443868354956,119.64891961426088L65.86253549826543,140.7221722396515L66.07318493630092,149.57671113720335L66.2844725301663,142.5614395640461L66.70517192651828,123.32885564365907L66.91442902456124,76.64292742694738L67.33344601008892,86.00713818182595L67.54417280034622,94.02534770893749L67.75671736781597,81.32481083629966L67.96690269252062,141.7793399789218L68.17714603139163,63.581251789710336L68.38899442886512,133.09558730305878L68.80876559855541,44.7416209554076L69.02156156074604,131.40274603104342L69.23083799684444,144.64522295753665L69.44117802599271,138.41420770419984L69.6517887879173,86.64647253152833L69.86191609845558,103.29197864240382L70.07244950815837,72.30253695001619L70.28315696036022,140.99510022388398L70.49695850143432,132.7662727988142L70.70582883836826,56.27786563962172L70.91520196474393,161.82582289761388L71.1243043583433,67.07414160680753L71.33429630249341,130.53546370781388L71.54465566969712,109.31660995621809L71.75515040328901,112.98118380622168L71.96429147299925,145.8493832647515L72.3852422640721,144.5639495081279L72.59492479933499,124.15326168357507L72.80543887098233,59.34614044514956L73.01479265930254,50.98797519744335L73.22308285457294,149.95068429537054L73.43332619344392,62.23601916785651L73.64196447371243,160.36035480116905L73.85011930259465,90.3397299591033L74.0606720503529,90.55957112802002L74.27122479811112,116.97996871021002L74.48208695475657,124.90737672495425L74.69672003221511,-8.342053677546232L74.90541632664997,150.58110513554925L75.32503279189666,153.8869769004759L75.53684251325924,102.06182487831381L75.75012192683619,127.33623435686664L75.9567103732268,72.86734965570258L76.17002846291462,150.68499779561503L76.37827998207409,150.09062357887882L76.58823325011333,106.39196506776454L77.0099769014597,148.35334562102784L77.21940804200172,154.46148497342523L77.42742750449577,136.96018752901833L77.63656857420605,153.5189422168752L77.847024631687,89.62264714573206L78.2661576455474,108.61726471206805L78.4743124744296,155.61463568906396L78.68242862720093,139.9290206315683L78.89348416440089,-5.29673103480593L79.10349544660647,93.42731267524397L79.31141821882328,146.77841247164648L79.52059796464444,48.35549994470466L79.73221430545252,58.507869682187106L79.9418968407154,93.36292205227363L80.15074783959389,91.04829184829879L80.36168734846115,125.62972713919618L80.57034496678511,149.27714698253038L80.99013547453086,100.30344670037135L81.20250599950154,123.55586605049038L81.62163901336194,134.10048652727437L81.82845951641798,99.59353975082774L82.03647897891204,101.47150240740456L82.24430506085157,155.40879673088935L82.45418097666898,99.67508486267133L82.6655845988671,159.7961218628741L82.87592462801535,103.40144535181861L83.29712681380907,116.16663788394857L83.50530098074674,42.82222646456103L83.9211658632358,139.51634220234934L84.1286825362881,154.16384233353529L84.33763022544383,141.96523328235298L84.54595909682511,154.39294487241054L84.75595104097525,113.91416537024793L84.96377712291478,157.97190529996098L85.1723767270724,148.24966002074473L85.38167250122626,105.25552159186856L85.5905041620493,137.06483719964947L85.79999331675768,114.84732583392639L86.01079745923678,101.19854129360687L86.22024793783426,148.37527739320646L86.42871217560369,16.544358897879874L86.63702170892954,93.42280042846039L86.8461627786398,134.08938480996764L87.05373746585846,147.26933630801267L87.26465763667026,147.68789192210247L87.47522972248396,55.45092518796605L87.68514431441227,135.3893326291161L87.89563904800416,110.50476205751647L88.1036585104982,25.70627390158461L88.31227745271127,154.3988717516292L88.52165057908694,139.52946813609128L88.72988276019096,137.93803977618464L88.940512860171,149.47891597361715L89.14814556155602,144.98757394569705L89.3586402951479,122.20098278628666L89.77375099347434,-54.22338733434617L89.97952724153599,45.47530830686935L90.18584495515029,143.46729795302306L90.39488933458328,39.697525383542825L90.60538406817517,72.47196817248732L90.81701974703869,70.05621328362122L91.02621883091528,149.49583855553382L91.23462505451838,153.33838608640167L91.44809784864982,150.89231267592038L91.65865059640805,138.7143615651338L91.86742424306473,141.29857698020996L92.07844110415378,104.62131569886293L92.28947730329833,135.71914407683903L92.49846366856495,135.2043835182938L93.12283146493435,78.7880535234076L93.33087026548385,155.7873517079271L93.54119095657667,143.4370208433644L93.95939574377536,154.0903758661717L94.16627426099777,74.34346393793231L94.3693045051853,153.49399731073942L94.57912240683636,34.02823516041349L94.7666048544407,141.25838087872307L94.97373476638396,63.91799394247823L95.39137874997456,87.15055211824517L95.60355589439075,143.6169276343595L95.81374121909539,90.82745016651228L96.02390720574458,141.9383055717385L96.23389914989473,122.48407492113L96.4445872640411,106.17224979119567L96.65558478707473,100.0613490895368L96.8655960692803,136.0328313651672L97.07469846287967,154.8623179265982L97.28598605674505,72.15580610563688L97.49655814255874,144.5361306122089L97.70672412920793,165.19095434409672L97.91745091946522,158.57382974461186L98.12709477861723,152.7242268933134L98.33468880389134,138.11166851456971L98.54464207193057,154.09578095473807L98.75384115580717,83.88527566606638L98.96135782885949,148.2697100336186L99.17113705439967,146.5543870386419L99.37838299467563,147.09846063649775L99.5876400927186,141.53181905826L99.7983668829759,153.79272660036872L100.00671509241263,124.85350805189921L100.42981240764061,124.65066234994265L100.6398623659571,56.99681696047162L100.8500670287172,10.021054742393403L101.06054242425361,139.26080723985973L101.48070035505295,127.30994273390448L101.6875595342199,149.98716657259575L101.89985270696879,135.46309229313192L102.11094692027966,77.58499974367123L102.32140297776063,55.09266206962832L102.52791407192944,99.56706922821337L102.73674573275248,91.57577415989022L102.94789796022972,89.53686807545279L103.15547264744836,145.9128959542434L103.3635114479979,139.0387828325947L103.57242046104271,46.681052207301946L103.7823543910265,141.1377760094798L103.99402874600092,142.76196619643696L104.20057851628066,155.80553818275706L104.40991296654543,154.8267400865036L104.62009829125007,102.3722820340326L104.82802106346686,112.64354715519272L105.03720080928802,153.86066871273113L105.24483351067305,129.90450119924373L105.45366517149607,41.95990363724559L105.66512680786053,155.6462247295055L105.87397780673902,149.85118958508832L106.0829835100611,124.76737118231551L106.29216325588226,98.9722875178249L106.49948654838006,144.57701580865245L106.70976856336196,155.14340406626718L106.91908367557129,137.3726870585851L107.12781864611705,103.2755066225742L107.5442056561033,151.0503721751282L107.75208975220919,135.1049915096638L107.9612501599749,115.4251717105721L108.1727698105057,141.92593499208368L108.38194955632686,157.4470783230223L108.58884741160472,138.76769022627568L108.79851060881217,101.59033153195179L109.00585323936541,162.50655760849907L109.21549709851742,136.80584351055043L109.63188410850367,130.5149266903312L109.84073510738214,77.13141624026957L110.04914133098522,130.35021643090457L110.46839037317831,89.68245263687533L110.67552028512159,157.00329951444883L110.88760073926052,133.0039343608652L111.09803745868604,152.34834712866754L111.30801006478072,147.70667307262823L111.51724782476822,153.7373024942264L111.72395229949157,139.5979601992364L111.93382821530898,154.99366671384377L112.14246649557751,111.20416030897087L112.35344468055565,159.85544034940855L112.56043922611077,117.60201605277825L112.9759560236017,117.68116258409958L113.18457496581475,143.65154140410607L113.3930392035842,125.33904833391642L113.6022769635717,86.20975860273899L113.81029642606576,136.85167826403853L114.22745695827007,45.42008794755316L114.43605656242768,91.49183709343743L114.64444344797532,138.9667392800575L114.85226952991485,161.12346948894145L115.06104317657153,112.25342664693511L115.27057100739081,113.80607685074648L115.48100772681633,150.31005394118677L115.68751882098516,141.80191115170925L116.10527883290848,88.9510711031532L116.31693384982745,121.73361075783856L116.52926569868723,71.9745608802067L116.73776861256758,151.98367509593714L116.94779923282861,124.24257899142032L117.15753978225789,124.25476073255336L117.36513380753199,159.82383474418438L117.5714128450354,115.23590250444454L117.78043788641294,-45.2953670611264L117.98779985502163,160.0098936954417L118.19440763946771,140.26074034224817L118.40494104917049,92.96780560558017L118.82419009136359,159.3756861459578L119.03387262662649,100.87964272466888L119.24171804662147,113.54197458268982L119.45074308799902,30.412315389898595L119.66005820020835,6.463575524934527L119.86774891575973,143.4221026001438L120.0749948560357,143.2993542480305L120.28148661214908,99.25786437006008L120.491768627131,86.17737113977552L120.91322220764557,155.9575068113984L121.1214157126387,130.20018256887238L121.32966723179817,93.37158874653636L121.53826683595578,28.253526660739794L121.74671173566976,140.25225586059418L122.16267330843608,161.7509600190761L122.37264591453075,124.80678873901962L122.58358542339802,142.4464070876736L122.79616866697867,144.86523640019254L123.00453621447086,153.02241617102953L123.42335981944403,155.68358990964396L123.63398991942405,150.34181856832402L123.84262819969256,109.58014902166593L124.05155655079285,86.72604312128453L124.47171448159217,109.35087255257326L124.68046879019339,13.626028504558121L124.89154366544882,120.92635589383929L125.10159362376531,67.82889936175206L125.31261048485437,140.20172664771377L125.52285382372538,60.558377740366154L125.72961631261508,71.88618445201382L125.93868003010353,51.620153561057236L126.14795646620193,33.47467988099038L126.35802576257387,133.98691175177174L126.56732153672775,105.48341987104789L126.778261045595,106.09069805343904L126.9878275525252,130.7500074592512L127.19710398862361,135.94983186541026L127.40638042472204,144.72551577181474L127.61687515831392,108.36286278070912L127.8276406246821,-19.50262234394063L128.03583412967524,103.40133271129685L128.24449174799918,119.19073110129301L128.4526852529923,99.78371670704246L128.6628125635306,-86.65802679869603L128.87158621018727,124.02563997241725L129.0839954112689,103.54225925584882L129.29389066514176,151.1369629197555L129.50214218430122,125.83815848584959L129.71168935317596,-15.291483552776299L129.91816177123388,139.4874996028649L130.1280376870513,117.68347502775225L130.33545766982635,147.38002549838424L130.5457590228637,-22.309491628021078L130.75490009257396,-24.7109345447102L130.96626503866116,64.32572612760919L131.17732057586113,141.2152064293225L131.38679039251406,28.69075741074664L131.59852276165486,85.94293971033392L131.80832132525046,125.2677236929446L132.0186226782878,130.8326458467472L132.22904005965788,163.2947861631899L132.64461487131516,62.13710753792225L132.8535625604709,152.50880189544108L133.48173995376428,72.50751619597321L133.90031216401655,91.68339223956548L134.1074227379044,-64.3273216474704L134.3155002145648,153.40146477858912L134.52628501898846,155.2028666664104L134.73621894897224,132.02252068543726L134.94329084674914,33.10918126560762L135.153186100622,150.25979473426293L135.3666008805871,145.38077219056402L135.78393545529048,-43.721977749484495L135.99210962222813,101.55014536933447L136.41058514220316,147.81311505273803L136.61825651969912,115.47185126797342L136.82745560357571,98.17434868756675L137.03669336356322,-88.02148068142333L137.2469560404897,132.4503061963986L137.45725739352704,-33.05640454302238L137.66713330934445,152.1932875115908L137.87778274737994,141.5048449662542L138.29473056097427,92.37434907780067L138.50269200930197,131.09825219706505L138.7111175709605,95.36269549426788L138.91836351123652,151.0353396349076L139.12756259511312,157.05314294532909L139.33801865259406,102.13500146198169L139.54868742868504,138.0466451169036L139.76057450226944,141.8605769858088L140.17922406474352,157.9954786420965L140.60079367359083,158.86939847371875L141.0160397383054,135.12128794279772L141.22492941329477,142.31967987477685L141.43511473799947,131.91957718741517L141.6486068701863,162.22554601035182L141.85807668683927,145.31532473446302L142.0665989387751,73.3065085464055L142.27637816431522,148.87682919409667L142.48766575818064,163.66864999379186L142.90530974177122,137.38666773510982L143.11327119009889,139.7465032308335L143.32247027397554,169.57227805534103L143.5307991453568,102.04113215187459L143.7417579922795,139.98061330349242L143.9527748533686,138.27030943764723L144.1602915264209,130.73917740437932L144.37119235917726,164.8042933906877L144.58052680944203,138.59921644823953L144.78856560999156,127.98088931474408L144.9986349063635,145.65768234853647L145.20912963995536,169.04420355277122L145.41600815717777,129.77964249382563L145.62406629578274,132.30729911515053L145.83628211630977,36.002690988663176L146.0469315543453,91.54836275762347L146.2562853426655,156.66650104142005L146.463937382106,155.46747581681498L146.6736585934798,-45.05018177481293L146.88229687374832,91.12283337005391L147.29978615289528,100.44579781622798L147.50854046149652,58.75293570206577L147.7172174178759,141.84378692215301L147.93034212700923,42.92968552232321L148.76891756361724,58.6115519695137L148.98140411692063,154.63033145907016L149.1925756824533,0.6499066565568228L149.40204549910624,145.59728052521916L149.61020032798848,154.84668408476875L149.8201922721386,135.13073318184323L150.03310426266194,154.0415296352047L150.24315422097843,101.54190935941966L150.45260469957591,73.71382329901462L150.66085621873538,144.95387123899417L150.87109955760639,160.96526753260318L151.08178767175278,157.22236710801758L151.29005852896768,160.00896275465888L151.49815534368355,79.77473148674972L151.70785721700193,162.4034418367378L151.91316935173273,111.31105616412424L152.12592663781248,163.58875307781818L152.5378658950448,169.25847978296937L152.7469102744778,66.68926882168148L153.16146016919612,163.49998240779917L153.36698502253688,155.8556483066374L153.78776177111072,167.8923299818719L153.99462095027766,52.12095332081685L154.20463223248322,92.18540454141231L154.41224559581278,97.26488248893685L154.621212623024,155.8197838958036L154.83010229801337,56.63566494404631L155.03912733939092,67.97595487587057L155.24822973299024,105.99132923550468L155.4581443249186,57.72651551228034L155.66643452018894,142.90348576020645L155.87487941990295,118.76232606746197L156.08359505239326,-6.1819795212567215L156.29550146403315,41.66473246292139L156.50406239207985,71.86233779096523L156.71386095567547,118.97673398768188L156.9200819790125,132.7676708664667L157.12935841511091,11.718719679105448L157.33766794843675,-120.79486332428064L157.5470410748124,92.5711983284516L157.75726507562797,147.82830495839346L157.96733437199987,-7.821588207869354L158.17719094976187,132.63869084313467L158.39132123777867,-207.34842332754556L158.60220273247958,68.80149725987377L158.81370304495493,88.88128036105127L159.44615414850313,111.44890828502338L159.65479242877166,127.95342490517297L159.8644169498682,-243.95171622861585L160.0748343312383,134.36354852698298L160.28471024705567,10.118654441544777L160.49681003925008,-5.607777896785706L160.70641522229113,66.50000624146696L160.91377719089985,33.206568935541554L161.1217966533939,152.35170812305955L161.33194330198765,-69.24184086382911L161.5402141592026,80.52389034517131L161.75055418835083,126.76447438135267L161.94476627925238,28.48850804096412L162.15572512617507,-12.65190532125348L162.3656783942143,0.9513591964475836L162.57708201641242,140.05809673063948L162.78517883112826,-96.46119766688616L162.99391380167404,130.57579232756166L163.202571419998,5.5343972349960495L163.40952728944225,104.94787382328082L163.6178561608235,120.30014747787885L164.03397243803343,19.075391421901145L164.24605289217232,151.09332134348523L164.45326015633745,81.29439126951053L164.6660754565835,144.2714353249347L164.86962782826822,124.83485941963434L165.07977447686196,99.55308192577559L165.28864481379588,33.68480083547024L165.49939094210862,60.76844568754166L165.70802922237715,145.18711663000073L165.9186593223572,88.92217549636439L166.12828384345372,145.57490150391L166.33728954677582,16.418744838374664L166.54503827649353,142.31508811703674L166.7551462489764,88.70405706483933L167.37986213034392,54.33400827781338L167.588867833666,64.22578085523992L167.79930455309153,2.1218267358291314L168.21410584253073,-25.30130339701077L168.42697915694316,29.63705705999314L168.6359268460989,61.78797492776039L168.84990242967208,85.65919823601217L169.26574797410566,120.7819308671996L169.4752177907586,86.63361163430818L169.68341129575174,14.81102004533409L169.89071525019406,151.4787026674375L170.09906345963083,126.65687949237306L170.3097128976663,95.38155284279367L170.5051432860613,-66.94021070124836L170.68396228482325,-7.422098658566256L170.89675824701388,46.32357094670351L171.31736095308858,-826.6868011028537L171.52714017862877,116.0459137482705L171.73614588195085,149.73778708332486L171.94331447000505,156.08480882225177L172.15272627249163,21.886024224591097L172.3597401561022,154.69160127699635L172.56685072999002,111.61404591584142L172.77633988469842,151.719246501663L172.98780152106283,107.49902924521945L173.1960723782778,120.87672780513299L173.40645108353695,14.286128465743218L173.6162303090771,139.43168291137465L173.82691842322347,160.05931306788708L174.0343964201649,94.28650807160221L174.24487181570132,146.87787073940694L174.45451567485333,51.16020918113247L174.66528114122153,71.91737925062921L174.87173422122402,148.50627500706065L175.2945801417311,145.0872806851967L175.50387591588498,113.62974142688256L175.71166332171362,131.1797906829956L176.13632701943317,105.45796311312938L176.34900695329108,-337.1860783404445L176.55907624966304,-7.308822049150649L176.76916488409043,101.42005219261091L176.97830595380069,137.55996849079918L177.19044442210594,162.29920297271545L177.40061040875514,161.9225794493303L177.6112405087352,65.77943819783411L177.8203042262236,158.39000538252895L178.0295226481557,156.0555106912455L178.23961128258307,154.68858483008268L178.44732133618993,140.80705018575668L178.65806746450264,142.42020160158103L179.07410638949077,148.16005779863855L179.496700915277,151.25268946051943L179.70800784719785,163.0339537832209L179.91417085636854,162.81322474195616L180.12338927830058,164.19420747764374L180.33434812522333,125.06032598872619L180.54457212603887,110.5754075424012L180.75371319574913,127.48166320933262L180.96567762155533,158.65984734776075L181.1758436082045,140.8012260081902L181.38910368372598,-15.207612745453957L181.5981867392699,135.4828640176579L181.80568407426674,166.85700539319328L182.22448834118447,95.65646197502656L182.43488638449907,166.29373983820287L182.64381473559936,139.97182402983836L182.8534392566959,-39.40918420038531L183.06165209974446,150.82247058299237L183.26938149140676,120.66557983413117L183.48057239499488,159.31261904911818L183.68934604165156,150.50537094944605L183.89742351831197,101.60377550951989L184.31295965385834,149.6344360916505L184.52084374996423,138.84710842003184L184.7325374429941,161.67350475205947L184.9419105693698,155.02859852741648L185.1527147118489,164.16338207368062L185.36025072295666,161.5089965829807L185.57236985320648,120.83602482129817L185.9885248065273,106.8584160942994L186.19807197540203,164.60879251334137L186.40870207538205,162.19248933017082L186.6176110884269,159.92245483394467L187.03552580479382,150.31351432427448L187.24544039672216,166.2616770449786L187.45496822754146,78.47195771568761L187.8738691847364,86.5784972896007L188.08111512501242,159.67957039593603L188.29271212776501,151.0123775332505L188.50214326830704,168.702284905437L188.71159374690453,150.13261033336607L188.92094753522477,106.09656198648378L189.1310555077076,170.07755776055814L189.7580726176739,159.74051057468824L189.96692361655238,165.32437787036446L190.1733766965548,127.78613053965881L190.38329128848315,167.46030305832272L190.59250971041521,-5.282299796194138L190.8017087942918,150.43809474134468L191.00984428511856,143.89690559007175L191.21933343982695,163.9507383028089L191.43135587979953,164.43836326271787L191.63987813173534,104.63650229156184L191.8511270494898,154.129414089354L192.27333481416701,135.59759170203034L192.48237919360002,86.41946212469702L192.69184901025295,158.81707198192493L192.89975244441428,158.3480948260417L193.1082746963501,160.26635297280106L193.3166809199532,121.9047978472666L193.52717565354507,-22.14614961963821L193.73879199435314,135.4142261844258L193.95075642015934,161.05779178236216L194.16070968819858,168.02239002903025L194.36944465874433,165.60381581416357L194.57680662735305,167.7422058417745L194.9948180339972,169.1868801666062L195.20227669288317,104.21597546834118L195.411997904257,157.07635020576885L195.62038478980463,164.61061298295047L196.04185770837466,148.36385100616053L196.25010922753413,-24.9395815520636L196.46050727084875,158.65914168802146L196.67196890721323,94.25805640098741L196.88201886552972,150.0581102235675L197.0918174291253,153.00305028367757L197.3017513591091,152.91549546870226L197.51085375270844,162.8573781700091L197.71920196214515,155.3001135356921L197.93056690823238,98.60143516470185L198.14258934820492,163.3566589392032L198.35028006375632,148.06723538279255L198.7696064581712,169.37274282518953L198.97778062510886,161.52289940502715L199.394419029816,95.72563650721531L199.6029799578627,162.2816211124508L199.81349402951003,150.8466568220845L200.02207429561219,158.25594825332627L200.23127337948878,161.42030045448342L200.43908012337286,165.1041673067955L200.64702223364512,136.8950614297L200.85484831558466,151.67144053904406L201.06656134666997,151.22119980877355L201.2740393436114,151.9599410754103L201.48337379387615,170.2598225483581L201.68973018360137,145.0037113569179L202.1063299121976,159.36531327908602L202.31887447966736,140.848269990809L202.53070353908538,165.67626023443995L202.74027004601558,155.39242078679888L202.95028132822117,153.80722409811096L203.1599058493177,141.49807990903537L203.37074866790772,147.86712618292353L203.5825970653812,117.81951164847709L203.79034579509894,160.34433996933953L204.00024104897182,158.14274949838892L204.2086472725749,149.76268395159107L204.42037964171567,157.50671319690466L204.63079702308576,144.87754072071692L204.83960934585332,150.03152706043136L205.04985268472433,82.11481844864306L205.2592644872109,124.64512971255016L205.46830886664392,159.3956914339186L205.678513529404,132.9943433517327L205.88603020245634,149.15421641780836L206.0967183166027,138.3064306026115L206.30469910298584,147.134505603462L206.5170116137902,150.6524976921298L206.72655878266494,42.057967150310105L206.93589323292971,137.79761017511103L207.14683274179697,81.43231627545316L207.3560705017845,154.42142139019927L207.5644187112212,139.53143603226562L207.77305699148974,137.43440081268528L208.40046086256504,47.211443294720084L208.61265734503667,160.47238076949742L208.82193378113507,156.91946846260475L209.0302433144609,155.28544542068897L209.23934570806026,99.67870923710689L209.6555780136029,69.61397996926547L209.86367482831875,153.23799522138015L210.07287391219535,134.6033966403388L210.28325261745454,128.8446400263207L210.49324456160466,41.398145477472895L210.70414539436103,77.23100371333442L210.91276433657407,163.09250200736392L211.12111254601083,161.1225832730717L211.32891928989488,125.40045067010351L211.53993615098395,158.7038086243354L211.7493286154151,147.41071010169517L211.95649720346927,113.4578718684109L212.165444892625,101.87193946227308L212.37499206149977,153.38536546636828L212.5864150217533,144.4787104497618L212.79690975534518,157.1612546555262L213.0062635436654,150.72849525827655L213.2145924150467,143.70440293837828L213.42286327226162,154.8216613241547L213.6326811739127,135.16842800115566L213.83973373363418,137.39212086154578L214.04612879947027,165.55258342626126L214.2560047152877,130.24074309557673L214.46555188416244,160.99671411591427L214.6732812758247,145.94228519155405L214.88489761663277,131.8690976688826L215.09314913579226,83.1236799688595L215.30029838579097,91.04045339316667L215.50588125329813,60.49707479287474L215.92689005853734,148.53117518828338L216.1373461160183,155.35903943687867L216.34660321406128,146.78873895712695L216.55487407127617,147.34167471368036L216.7619459690531,118.20492775847282L216.97313687264125,75.91163865600788L217.180672883749,153.3569005439274L217.3896012348493,162.36960661177403L217.59702121762433,166.40120635011723L217.80689713344177,151.9863933767638L218.01389167899688,165.5615342065458L218.2226459875981,150.12012545671124L218.43035604120493,147.62443223991494L218.64090878896315,102.55509760085442L218.84946971700984,162.31948157958936L219.0583787300547,151.61791806994563L219.27076859308085,148.20667440986594L219.4801803955674,162.18814273121336L219.6903463822166,164.3087893919292L219.89960348025957,163.79737160651513L220.10725551970003,151.13471673523327L220.31556505302586,109.5887030754069L220.52518957412244,95.27292762433558L220.7328416135629,58.1539929182851L220.9408417380015,142.08878668290123L221.1525741071423,90.1811652340258L221.36134775379895,157.6985880433371L221.57232593877714,92.32248805639824L221.7803067251603,148.17735805759878L221.98948647098146,157.6266488489304L222.1976606379191,130.84092823805332L222.4079233148456,85.10843246598097L222.61536263567606,157.0322779451507L222.82425231066546,152.18661190419806L223.03151758899688,106.4371007874264L223.24234106953145,126.25934127446169L223.66203488699992,152.26419968947556L223.87229756392637,149.60943320877558L224.50051363333066,157.70859648499146L224.709229265821,163.14102191211344L224.91908584358293,161.8039540716092L225.12768544774056,157.26419318411348L225.3393984788259,136.12561733849145L225.54954512741963,153.7961621362825L225.75833811213175,164.66483448587513L225.96657029323578,141.19607079244884L226.1769683365504,52.577651003349615L226.3848524326563,141.9614300082652L226.5928525570949,87.32556235950011L226.80251575430233,135.78343862407021L227.012701079007,117.49325831605927L227.22039179455837,95.87906614968301L227.43289768591723,155.46955304055456L227.64105251479944,107.97712200097419L227.85232077060937,159.73276819529528L228.06167455892958,96.12975094382375L228.27058357197444,142.96320511448013L228.47955059918561,145.251056690884L229.10759262609082,-41.64130853512506L229.3161342160821,-77.89591938812055L229.73315938189825,154.39032598027956L229.94264853660664,149.15318277537335L230.15151887354057,163.98223292398956L230.36021516797544,108.71324106252342L230.56804124991496,78.12827160604866L230.77569328935544,150.3483550315428L230.98475700684386,152.77791832319448L231.40342590737342,146.47679759688612L231.61537099512418,160.8664420395385L231.8238739090045,169.5302001945494L232.03289895038205,168.13691396657657L232.24178862537147,154.5627935274035L232.66231397922436,136.66396614747651L232.87159041532277,155.98478569540424L233.2858309011539,138.328862631225L233.49464322392146,153.3624497461025L233.70569876112145,101.67296329353474L233.91410498472453,156.0591450045506L234.12535390247902,144.05633830975813L234.54365537995497,-62.084476585424L234.75279644966525,155.38237921557933L235.17322511324087,143.723989137339L235.38110920934676,112.39468448713933L235.5914105623841,140.77978455357692L235.80424520068567,157.28307206685668L236.22169580372173,168.11765409383332L236.4306048167666,163.92088856454163L236.64129293091298,152.2614134930402L236.85232913005748,144.69820375824366L237.06228239809673,153.1696323635394L237.26991509948172,151.65012994621338L237.47791522392035,164.23960657734915L237.68523851641814,40.72198430306696L237.89747367500067,148.31490207354133L238.10593791277012,145.72506125829005L238.31563978608847,158.30056052585758L238.524664827466,118.08183817183772L238.734308686618,47.71339596334951L238.94269557216563,154.08974640443245L239.15257148798307,134.7476328284567L239.36238938963413,164.53837645069584L239.5721299390634,62.715085932828856L239.9930613920808,160.72089226415943L240.20239584234557,160.1844732523487L240.6201558542689,88.78741105094417L240.82844604953922,72.90963623275513L241.03890210702022,79.74407338709096L241.24630275173982,152.1106325593122L241.45552117367188,165.57723430750568L241.66425614421766,122.6863806111734L241.87217891643442,164.0976745504926L242.29442535722256,164.46365271633198L242.7102902397116,64.43469589354561L242.91794227915207,127.58520635248527L243.12687063025237,121.6197643199011L243.32905,130.44042492405435L243.5304171714187,48.384296162797796L243.74000301640433,124.46322189581548L243.9488153391719,128.90211319607215L244.16072175081175,133.34417168276428L244.36812239553134,136.68573889774206L244.57770824051698,106.7066098005277L244.7865012252291,-125.85454304362702L244.99430796911318,61.40827035480936L245.20348771493434,-508.69121159463066L245.41405980074802,140.50403724334384L245.62136375519037,145.71929008802795L245.83007938768068,133.5178666802798L246.24923173959652,31.658159316078923L246.45806340041955,53.49312690511124L246.6682100490133,-101.16244199415564L247.08840665592354,-373.2088882514772L247.2984952903509,155.93019645430556L247.7152303853353,163.5464979738526L247.92493225865363,82.03810362740921L248.13488552669287,157.29444544659825L248.34799089777073,164.18201082820633L248.55896908274892,86.68056285414434L248.7674526585738,164.82168641243055L248.9743698519071,156.49088784207802L249.18556075549523,163.56781353611805L249.39466314909458,108.17005533701558L249.6055446437955,-613.6340656261887L249.80648637799422,84.79278059443499L249.98596287064154,-155.74952304517114L250.17766101433438,52.2155978627502L250.39210071123838,95.32463624973798L250.60257610677482,82.60555344648748L250.81177519065142,123.12311110474536L251.02072287980715,105.26949564248025L251.22823955285946,146.6223887842217L251.43529211258095,92.67211761003847L251.85245264478525,31.138475704141342L252.2705220655958,124.54856034287727L252.48366611278456,130.12558141389985L252.6937354091565,136.32909912810032L252.90254773192405,124.72753619308958L253.11134071663616,114.17938079169613L253.3191667985757,12.69115192940103L253.528095149676,-56.825621919947935L253.7375843043844,108.43819278611659L253.94695743076005,92.86492505373201L254.15497689325412,-16.391451377360113L254.36539427462418,108.99333828467047L254.57832560320298,132.0026031908243L254.97591602329015,119.89960440840161L255.18652678521474,130.97206499608146L255.39752430824834,100.53023182615914L255.60825109850566,109.37091593953409L255.8183590709885,102.71875765306345L256.0284863815268,154.37211465827562L256.2370666476289,146.58581705717037L256.44464133484763,73.63946730282476L256.656528408432,114.74224547894732L256.85818565068246,135.3621067524146L257.06862237010796,107.72044738144086L257.2781115248164,72.81923890108357L257.4880647928556,117.08442622936286L257.672897926863,95.11984252934622L257.88542315627734,135.57781335159132L258.30527167818946,97.32622519190653L258.51690735705296,63.939766692743774L258.72707334370216,109.98356111149161L258.9378194720149,-49.15541197186758L259.14547151145536,139.18770354123535L259.3572232186516,42.48623966588025L259.56671237336,115.83334120596402L259.77540866779486,146.5994564991733L259.9835441586216,121.38551841602475L260.1934780886054,84.28916482163129L260.4009174094359,-10.386889954158846L260.6129785255194,149.07765730553106L260.8262192629854,106.86394210577885L261.0357664318601,140.69597337947198L261.24519757240216,150.90838051505426L261.454106585447,122.21917754350795L261.6647753615379,151.38916339150524L261.87412914985816,76.75935134505932L262.0812783998569,127.03473874854109L262.2927787123322,-37.026651639526335L262.50389226369856,94.69370355777653L262.71512184339764,149.20974819503766L262.9270669311484,156.5752522799222L263.1365367478013,127.42409065088549L263.55632725554705,-62.346650712784594L263.7652749447028,101.48939899853883L263.97412594358127,120.172373370721L264.18462067717314,136.2490382207788L264.39525077715314,-57.16627336141232L264.6065383710186,144.6868005618934L264.81780662682854,148.8075618991253L265.02814665597674,156.93721597069552L265.23583737152813,102.81413767134478L265.4467382042845,142.54348996560748L265.866818782862,153.66480837960216L266.07729417839846,102.15470030146417L266.2876148694913,37.86457255428002L266.49739409503144,146.57101476742807L266.7060130372445,145.3463108168175L266.91672048944633,142.53743056812792L267.12831749219896,154.97692965749235L267.3397404524525,103.56888217446323L267.5477985910575,139.73564004639638L267.75792590159574,20.73140586921295L267.9636634735465,148.47669030531517L268.170503314658,92.56434713436317L268.380533934919,115.54266240068426L268.5905065410137,110.1311003172624L268.79904813100495,150.8777837050912L269.0107418240349,151.72632628975148" fill="none"></path></g></g></g></g></g></g><g transform="translate(51, 177)" clip-path="url(#clip_1)"><clipPath id="clip_1"><rect width="278" height="22"></rect></clipPath><g><g><line x1="0" y1="0" x2="0" y2="5" style="visibility: inherit;" fill="rgb(0, 0, 0)" stroke="rgb(204, 204, 204)" stroke-width="1px"></line><line x1="34.808499813079834" y1="0" x2="34.808499813079834" y2="5" style="visibility: inherit;" fill="rgb(0, 0, 0)" stroke="rgb(204, 204, 204)" stroke-width="1px"></line><line x1="69.61699962615967" y1="0" x2="69.61699962615967" y2="5" style="visibility: inherit;" fill="rgb(0, 0, 0)" stroke="rgb(204, 204, 204)" stroke-width="1px"></line><line x1="104.4254994392395" y1="0" x2="104.4254994392395" y2="5" style="visibility: inherit;" fill="rgb(0, 0, 0)" stroke="rgb(204, 204, 204)" stroke-width="1px"></line><line x1="139.23399925231934" y1="0" x2="139.23399925231934" y2="5" style="visibility: inherit;" fill="rgb(0, 0, 0)" stroke="rgb(204, 204, 204)" stroke-width="1px"></line><line x1="174.04249906539917" y1="0" x2="174.04249906539917" y2="5" style="visibility: inherit;" fill="rgb(0, 0, 0)" stroke="rgb(204, 204, 204)" stroke-width="1px"></line><line x1="208.850998878479" y1="0" x2="208.850998878479" y2="5" style="visibility: inherit;" fill="rgb(0, 0, 0)" stroke="rgb(204, 204, 204)" stroke-width="1px"></line><line x1="243.65949869155884" y1="0" x2="243.65949869155884" y2="5" style="visibility: inherit;" fill="rgb(0, 0, 0)" stroke="rgb(204, 204, 204)" stroke-width="1px"></line><line x1="278.4679985046387" y1="0" x2="278.4679985046387" y2="5" style="visibility: inherit;" fill="rgb(0, 0, 0)" stroke="rgb(204, 204, 204)" stroke-width="1px"></line></g><g transform="translate(0, 8)"><text style="text-anchor: middle; visibility: hidden; font-family: Roboto, sans-serif; font-size: 12px; font-weight: 200;" x="0" y="0" dx="0em" dy="0.95em" fill="rgb(50, 49, 63)" stroke="none" stroke-width="1px">-0.5</text><text style="text-anchor: middle; visibility: inherit; font-family: Roboto, sans-serif; font-size: 12px; font-weight: 200;" x="34.808499813079834" y="0" dx="0em" dy="0.95em" fill="rgb(50, 49, 63)" stroke="none" stroke-width="1px">0</text><text style="text-anchor: middle; visibility: inherit; font-family: Roboto, sans-serif; font-size: 12px; font-weight: 200;" x="69.61699962615967" y="0" dx="0em" dy="0.95em" fill="rgb(50, 49, 63)" stroke="none" stroke-width="1px">0.5</text><text style="text-anchor: middle; visibility: inherit; font-family: Roboto, sans-serif; font-size: 12px; font-weight: 200;" x="104.4254994392395" y="0" dx="0em" dy="0.95em" fill="rgb(50, 49, 63)" stroke="none" stroke-width="1px">1</text><text style="text-anchor: middle; visibility: inherit; font-family: Roboto, sans-serif; font-size: 12px; font-weight: 200;" x="139.23399925231934" y="0" dx="0em" dy="0.95em" fill="rgb(50, 49, 63)" stroke="none" stroke-width="1px">1.5</text><text style="text-anchor: middle; visibility: inherit; font-family: Roboto, sans-serif; font-size: 12px; font-weight: 200;" x="174.04249906539917" y="0" dx="0em" dy="0.95em" fill="rgb(50, 49, 63)" stroke="none" stroke-width="1px">2</text><text style="text-anchor: middle; visibility: inherit; font-family: Roboto, sans-serif; font-size: 12px; font-weight: 200;" x="208.850998878479" y="0" dx="0em" dy="0.95em" fill="rgb(50, 49, 63)" stroke="none" stroke-width="1px">2.5</text><text style="text-anchor: middle; visibility: inherit; font-family: Roboto, sans-serif; font-size: 12px; font-weight: 200;" x="243.65949869155884" y="0" dx="0em" dy="0.95em" fill="rgb(50, 49, 63)" stroke="none" stroke-width="1px">3</text><text style="text-anchor: middle; visibility: hidden; font-family: Roboto, sans-serif; font-size: 12px; font-weight: 200;" x="278.4679985046387" y="0" dx="0em" dy="0.95em" fill="rgb(50, 49, 63)" stroke="none" stroke-width="1px">3.5</text></g><line x1="0" y1="0" x2="278.4679985046387" y2="0" fill="rgb(0, 0, 0)" stroke="rgb(204, 204, 204)" stroke-width="1px"></line></g></g></g></g></svg>