<svg viewBox="0 0 330 200" xmlns="http://www.w3.org/2000/svg"><g><g><g><g><g><line x1="41.149001121520996" y1="177.86299896240234" x2="36.149001121520996" y2="177.86299896240234" style="visibility: inherit;" fill="rgb(0, 0, 0)" stroke="rgb(204, 204, 204)" stroke-width="1px"></line><line x1="41.149001121520996" y1="160.07669906616212" x2="36.149001121520996" y2="160.07669906616212" style="visibility: inherit;" fill="rgb(0, 0, 0)" stroke="rgb(204, 204, 204)" stroke-width="1px"></line><line x1="41.149001121520996" y1="142.29039916992187" x2="36.149001121520996" y2="142.29039916992187" style="visibility: inherit;" fill="rgb(0, 0, 0)" stroke="rgb(204, 204, 204)" stroke-width="1px"></line><line x1="41.149001121520996" y1="124.50409927368163" x2="36.149001121520996" y2="124.50409927368163" style="visibility: inherit;" fill="rgb(0, 0, 0)" stroke="rgb(204, 204, 204)" stroke-width="1px"></line><line x1="41.149001121520996" y1="106.71779937744141" x2="36.149001121520996" y2="106.71779937744141" style="visibility: inherit;" fill="rgb(0, 0, 0)" stroke="rgb(204, 204, 204)" stroke-width="1px"></line><line x1="41.149001121520996" y1="88.93149948120116" x2="36.149001121520996" y2="88.93149948120116" style="visibility: inherit;" fill="rgb(0, 0, 0)" stroke="rgb(204, 204, 204)" stroke-width="1px"></line><line x1="41.149001121520996" y1="71.14519958496093" x2="36.149001121520996" y2="71.14519958496093" style="visibility: inherit;" fill="rgb(0, 0, 0)" stroke="rgb(204, 204, 204)" stroke-width="1px"></line><line x1="41.149001121520996" y1="53.35889968872069" x2="36.149001121520996" y2="53.35889968872069" style="visibility: inherit;" fill="rgb(0, 0, 0)" stroke="rgb(204, 204, 204)" stroke-width="1px"></line><line x1="41.149001121520996" y1="35.57259979248048" x2="36.149001121520996" y2="35.57259979248048" style="visibility: inherit;" fill="rgb(0, 0, 0)" stroke="rgb(204, 204, 204)" stroke-width="1px"></line><line x1="41.149001121520996" y1="17.78629989624023" x2="36.149001121520996" y2="17.78629989624023" style="visibility: inherit;" fill="rgb(0, 0, 0)" stroke="rgb(204, 204, 204)" stroke-width="1px"></line><line x1="41.149001121520996" y1="0" x2="36.149001121520996" y2="0" style="visibility: inherit;" fill="rgb(0, 0, 0)" stroke="rgb(204, 204, 204)" stroke-width="1px"></line></g><g transform="translate(31.149001121520996, 0)"><text style="text-anchor: end; visibility: hidden; font-family: Roboto, sans-serif; font-size: 12px; font-weight: 200;" x="0" y="177.86299896240234" dx="0em" dy="0.3em" fill="rgb(50, 49, 63)" stroke="none" stroke-width="1px">1.2</text><text style="text-anchor: end; visibility: inherit; font-family: Roboto, sans-serif; font-size: 12px; font-weight: 200;" x="0" y="160.07669906616212" dx="0em" dy="0.3em" fill="rgb(50, 49, 63)" stroke="none" stroke-width="1px">1.4</text><text style="text-anchor: end; visibility: hidden; font-family: Roboto, sans-serif; font-size: 12px; font-weight: 200;" x="0" y="142.29039916992187" dx="0em" dy="0.3em" fill="rgb(50, 49, 63)" stroke="none" stroke-width="1px">1.6</text><text style="text-anchor: end; visibility: inherit; font-family: Roboto, sans-serif; font-size: 12px; font-weight: 200;" x="0" y="124.50409927368163" dx="0em" dy="0.3em" fill="rgb(50, 49, 63)" stroke="none" stroke-width="1px">1.8</text><text style="text-anchor: end; visibility: hidden; font-family: Roboto, sans-serif; font-size: 12px; font-weight: 200;" x="0" y="106.71779937744141" dx="0em" dy="0.3em" fill="rgb(50, 49, 63)" stroke="none" stroke-width="1px">2</text><text style="text-anchor: end; visibility: inherit; font-family: Roboto, sans-serif; font-size: 12px; font-weight: 200;" x="0" y="88.93149948120116" dx="0em" dy="0.3em" fill="rgb(50, 49, 63)" stroke="none" stroke-width="1px">2.2</text><text style="text-anchor: end; visibility: hidden; font-family: Roboto, sans-serif; font-size: 12px; font-weight: 200;" x="0" y="71.14519958496093" dx="0em" dy="0.3em" fill="rgb(50, 49, 63)" stroke="none" stroke-width="1px">2.4</text><text style="text-anchor: end; visibility: inherit; font-family: Roboto, sans-serif; font-size: 12px; font-weight: 200;" x="0" y="53.35889968872069" dx="0em" dy="0.3em" fill="rgb(50, 49, 63)" stroke="none" stroke-width="1px">2.6</text><text style="text-anchor: end; visibility: hidden; font-family: Roboto, sans-serif; font-size: 12px; font-weight: 200;" x="0" y="35.57259979248048" dx="0em" dy="0.3em" fill="rgb(50, 49, 63)" stroke="none" stroke-width="1px">2.8</text><text style="text-anchor: end; visibility: inherit; font-family: Roboto, sans-serif; font-size: 12px; font-weight: 200;" x="0" y="17.78629989624023" dx="0em" dy="0.3em" fill="rgb(50, 49, 63)" stroke="none" stroke-width="1px">3</text><text style="text-anchor: end; visibility: hidden; font-family: Roboto, sans-serif; font-size: 12px; font-weight: 200;" x="0" y="0" dx="0em" dy="0.3em" fill="rgb(50, 49, 63)" stroke="none" stroke-width="1px">3.2</text></g><line x1="41.149001121520996" y1="0" x2="41.149001121520996" y2="177.86299896240234" fill="rgb(0, 0, 0)" stroke="rgb(204, 204, 204)" stroke-width="1px"></line></g></g><g transform="translate(41, 0)" clip-path="url(#clip_0)"><clipPath id="clip_0"><rect width="288" height="177"></rect></clipPath><g><g><g><line x1="0" y1="0" x2="0" y2="177.86299896240234" fill="rgb(0, 0, 0)" stroke="rgb(60, 60, 60)" stroke-width="1px" opacity="0.25"></line><line x1="41.264428411211284" y1="0" x2="41.264428411211284" y2="177.86299896240234" fill="rgb(0, 0, 0)" stroke="rgb(60, 60, 60)" stroke-width="1px" opacity="0.25"></line><line x1="82.52885682242257" y1="0" x2="82.52885682242257" y2="177.86299896240234" fill="rgb(0, 0, 0)" stroke="rgb(60, 60, 60)" stroke-width="1px" opacity="0.25"></line><line x1="123.79328523363385" y1="0" x2="123.79328523363385" y2="177.86299896240234" fill="rgb(0, 0, 0)" stroke="rgb(60, 60, 60)" stroke-width="1px" opacity="0.25"></line><line x1="165.05771364484514" y1="0" x2="165.05771364484514" y2="177.86299896240234" fill="rgb(0, 0, 0)" stroke="rgb(60, 60, 60)" stroke-width="1px" opacity="0.25"></line><line x1="206.32214205605644" y1="0" x2="206.32214205605644" y2="177.86299896240234" fill="rgb(0, 0, 0)" stroke="rgb(60, 60, 60)" stroke-width="1px" opacity="0.25"></line><line x1="247.5865704672677" y1="0" x2="247.5865704672677" y2="177.86299896240234" fill="rgb(0, 0, 0)" stroke="rgb(60, 60, 60)" stroke-width="1px" opacity="0.25"></line><line x1="288.850998878479" y1="0" x2="288.850998878479" y2="177.86299896240234" fill="rgb(0, 0, 0)" stroke="rgb(60, 60, 60)" stroke-width="1px" opacity="0.25"></line></g><g><line x1="0" y1="177.86299896240234" x2="288.850998878479" y2="177.86299896240234" fill="rgb(0, 0, 0)" stroke="rgb(60, 60, 60)" stroke-width="1px" opacity="0.25"></line><line x1="0" y1="160.07669906616212" x2="288.850998878479" y2="160.07669906616212" fill="rgb(0, 0, 0)" stroke="rgb(60, 60, 60)" stroke-width="1px" opacity="0.25"></line><line x1="0" y1="142.29039916992187" x2="288.850998878479" y2="142.29039916992187" fill="rgb(0, 0, 0)" stroke="rgb(60, 60, 60)" stroke-width="1px" opacity="0.25"></line><line x1="0" y1="124.50409927368163" x2="288.850998878479" y2="124.50409927368163" fill="rgb(0, 0, 0)" stroke="rgb(60, 60, 60)" stroke-width="1px" opacity="0.25"></line><line x1="0" y1="106.71779937744141" x2="288.850998878479" y2="106.71779937744141" fill="rgb(0, 0, 0)" stroke="rgb(60, 60, 60)" stroke-width="1px" opacity="0.25"></line><line x1="0" y1="88.93149948120116" x2="288.850998878479" y2="88.93149948120116" fill="rgb(0, 0, 0)" stroke="rgb(60, 60, 60)" stroke-width="1px" opacity="0.25"></line><line x1="0" y1="71.14519958496093" x2="288.850998878479" y2="71.14519958496093" fill="rgb(0, 0, 0)" stroke="rgb(60, 60, 60)" stroke-width="1px" opacity="0.25"></line><line x1="0" y1="53.35889968872069" x2="288.850998878479" y2="53.35889968872069" fill="rgb(0, 0, 0)" stroke="rgb(60, 60, 60)" stroke-width="1px" opacity="0.25"></line><line x1="0" y1="35.57259979248048" x2="288.850998878479" y2="35.57259979248048" fill="rgb(0, 0, 0)" stroke="rgb(60, 60, 60)" stroke-width="1px" opacity="0.25"></line><line x1="0" y1="17.78629989624023" x2="288.850998878479" y2="17.78629989624023" fill="rgb(0, 0, 0)" stroke="rgb(60, 60, 60)" stroke-width="1px" opacity="0.25"></line><line x1="0" y1="0" x2="288.850998878479" y2="0" fill="rgb(0, 0, 0)" stroke="rgb(60, 60, 60)" stroke-width="1px" opacity="0.25"></line></g></g></g><g><g><line x1="0" y1="284.58079833984374" x2="288.850998878479" y2="284.58079833984374" fill="rgb(0, 0, 0)" stroke="rgb(153, 153, 153)" stroke-width="1.5px"></line></g></g><g><g><line x1="41.264428411211284" y1="0" x2="41.264428411211284" y2="177.86299896240234" fill="rgb(0, 0, 0)" stroke="rgb(153, 153, 153)" stroke-width="1.5px"></line></g></g><g><g><g><g><g><path style="fill: none;" stroke="rgb(255, 112, 67)" stroke-width="2px" d="M42.74994783401489,180.95597553034037L42.91500554765974,114.94525275091964L43.16259211812701,172.40078665643097L43.32764983177185,205.10908461970698L44.152938399996074,224.10009393353516L44.730640397753035,156.39551818157528L45.060755825042726,158.29445386969851L45.14328468186515,149.4466626965456L45.225813538687575,128.35728526589153L45.47340010915484,145.54306059254174L46.21615982055664,155.3436572255035L46.29868867737906,116.57520872097841L46.38121753420148,93.31565160517286L46.62880410466875,107.05942124651494L46.87639067513602,135.49511004528676L47.20650610242571,127.84941803168077L47.5366215297154,129.91410379102987L47.619150386537825,127.27427716778695L47.701679243360246,138.89290813086092L47.86673695700509,121.77278081186803L48.03179467064994,95.97807253733492L48.11432352747236,93.26642208147224L48.27938124111721,92.06430516839184L48.36191009793963,90.17954590853495L48.52696781158448,107.8499969719867L48.69202552522932,113.80399660060266L49.26972752298627,113.72622830136751L49.51731409345354,123.0868289171934L49.59984295027596,138.4680295106837L49.76490066392081,170.71876360064357L50.0950160912105,130.97228028417797L50.507660375322615,151.1226412464368L50.59018923214504,106.36717147427798L51.58053551401411,99.81589926434545L51.66306437083653,112.64928539463716L51.99317979812622,115.7124331490582L52.24076636859349,88.07779410804626L52.40582408223834,69.04522355217092L52.570881795883174,75.25774258331954L53.313641507284984,82.94402607716518L53.80881464821952,125.59411766087022L54.221458932331636,126.58731614529634L54.30398778915405,124.65087699921968L54.55157435962132,175.90067479195193L54.71663207326616,160.33936290660003L54.88168978691101,124.65722460951103L55.37686292784555,115.94302988313358L55.45939178466797,132.96194160311208L56.20215149606977,125.81572029767143L56.367209209714616,133.23050763123166L56.53226692335946,142.9135332930121L56.77985349382673,130.83398563182618L57.52261320522854,151.00610442559753L57.7701997756958,141.01721614200284L57.85272863251822,116.38212595435084L58.017786346163064,108.18444334447324L58.265372916630334,135.25337571325653L58.843074914387294,101.43133772307598L59.00813262803214,131.75005736943316L59.090661484854564,141.87655008340593L59.42077691214425,140.70760665943868L59.50330576896667,92.92857926537216L59.5858346257891,121.395497169176L59.66836348261152,158.98740953389026L59.91595005307879,98.81161022214872L59.99847890990121,140.20193604787593L60.3285943371909,149.16825504410272L60.41112319401332,126.96514858314899L60.49365205083575,142.48617043046903L60.90629633494786,126.06948750484719L61.07135404859271,183.61325711207888L61.153882905415124,174.32130212528492L61.483998332704815,163.4246876833295L61.896642616816926,127.05405546376286L61.979171473639354,117.53239852058189L62.144229187284196,132.47776297804106L62.309286900929045,147.94075540433795L62.391815757751466,176.43115221942406L62.47434461457389,193.52539030847572L62.72193118504115,151.00754925893926L62.886988898686,144.4838320591274L63.13457546915327,152.76001804771997L63.29963318279811,159.12877785966694L63.54721975326538,126.46884635179451L63.6297486100878,125.67603706429468L63.95986403737749,121.16883643262025L64.04239289419992,95.44580153531368L64.12492175102234,139.96119574523476L64.20745060784476,111.55880789857068L64.45503717831203,132.46613553585465L64.53756603513445,113.7444323175972L64.95021031924657,64.91489842087239L65.61044117382595,103.6699654561576L65.77549888747079,111.8904479643019L65.85802774429321,112.83021034251627L66.02308545793805,135.37375431061957L66.18814317158291,159.30537143881307L66.27067202840533,119.32806790572744L66.51825859887259,95.8867450545565L66.60078745569501,81.4725102311807L66.68331631251743,95.7849355777961L66.84837402616229,115.62783457586703L67.34354716709682,145.82457125779897L67.42607602391924,118.33514555864129L67.50860488074166,169.87424711229554L67.92124916485378,170.9778658968731L68.08630687849862,129.73747471193767L68.16883573532104,80.27519611660556L68.3338934489659,102.42845173293304L69.15918201719012,147.96460840514635L69.32423973083496,113.00049772021758L69.57182630130222,117.74182843433303L69.8194128717695,97.2602664311683L69.98447058541434,122.3112010302543L70.2320571558816,86.39214161755076L70.39711486952646,106.21839857901455L70.56217258317129,103.40830238284562L70.72723029681615,118.61980289357646L70.97481686728341,140.32731263675922L71.05734572410583,52.338173292579974L71.22240343775069,97.32461791285193L71.80010543550765,79.36690971372985L71.88263429233007,93.48986653878421L71.96516314915249,101.44244737385111L72.04769200597491,117.43990823558836L72.87298057419913,140.26046314322392L73.12056714466641,151.759553140886L73.20309600148883,160.0150442401846L73.53321142877851,172.01687282144294L73.94585571289063,185.3510529035485L74.2759711401803,188.36768679524397L74.52355771064758,159.7351886480757L74.77114428111484,102.8670812649712L75.26631742204938,111.35459911213148L75.3488462788718,106.66050267470368L75.51390399251666,112.72523631250368L75.59643284933908,75.25851490550922L76.0916059902736,90.1901511959058L76.17413484709604,150.57335192158678L76.4217214175633,135.80127566740293L76.751836844853,95.0549674973672L76.83436570167542,110.19696427190198L76.91689455849784,130.88475308326514L76.99942341532027,159.97002159881475L77.41206769943238,113.44369442739962L77.65965426989963,85.87654200736623L77.74218312672205,74.6769951451807L77.82471198354447,117.32500505807815L78.2373562676566,119.76264607596627L78.65000055176871,159.40156199105647L78.81505826541355,102.76294602508983L78.89758712223598,114.05860734796836L78.9801159790584,149.90712871669766L79.06264483588082,150.8711849674892L79.22770254952567,156.10009794984882L79.88793340410506,108.99068546057504L80.21804883139474,132.23185396025238L80.30057768821717,102.05654016141065L81.12586625644138,133.25914501196064L81.5385105405535,153.38687721116275L81.70356825419834,107.54239265154453L81.78609711102077,81.69656070063083L81.86862596784319,101.26692506834907L81.95115482466561,122.84765134654816L82.2812702519553,108.37869926190896L82.69391453606742,60.064241487199936L82.77644339288985,60.52388925490455L83.02402996335711,67.04236087166313L83.43667424746923,53.62794280314908L83.51920310429165,50.18594899526546L83.84931853158133,95.06623079548706L83.93184738840377,129.64463455112565L84.01437624522619,120.3066263914317L84.17943395887103,104.20962196429262L84.42702052933828,126.4471610727373L84.75713595662798,121.00276787746748L84.8396648134504,75.86165913534958L85.1697802407401,106.11224711676572L85.25230909756252,98.95927905060071L85.66495338167464,118.16329543077383L85.83001109531948,92.96048919690475L86.2426553794316,103.88361792848049L86.32518423625402,46.269973580261144L86.40771309307644,79.25548301030952L86.6552996635437,99.28376100291463L86.73782852036612,139.22593410696618L86.82035737718854,160.068836345242L87.06794394765582,69.81512632758745L87.15047280447824,68.1615720270683L87.23300166130066,122.72422396644602L87.31553051812308,130.70027133145246L87.72817480223519,154.45496647090857L87.89323251588003,165.48271738334424L87.97576137270245,108.45734803730487L88.05829022952489,101.66292371105632L88.1408190863473,136.57115687802232L88.38840565681457,135.8834681412965L88.55346337045941,137.77416221295167L88.80104994092669,136.19653837921683L88.88357879774911,109.7141150217827L89.29622308186123,82.08160090412802L89.37875193868365,154.21559937555924L89.62633850915091,124.95097455891668L89.79139622279575,101.54970065778552L90.20404050690787,111.30174406476439L90.36909822055271,125.68172664398497L90.61668479101999,128.74520444676872L90.78174250466483,112.61377254482726L90.86427136148725,131.5308953444339L90.94680021830968,152.44484865070885L91.02932907513211,159.32989479323095L91.19438678877695,148.55988224870907L91.27691564559936,118.56512505010893L91.4419733592442,99.92125085218744L91.60703107288904,122.69327136305046L91.68955992971148,101.94694046524684L91.7720887865339,115.43390275344353L92.01967535700116,129.90337619206363L92.26726192746844,156.19455322763974L92.67990621158054,149.24611790037474L93.01002163887024,118.14375275878699L93.09255049569266,109.87084936201788L93.2576082093375,110.70884159775765L93.50519477980478,172.48900045516538L93.83531020709447,162.19959031765515L93.91783906391689,161.30578979315132L94.08289677756174,99.1693182271115L94.16542563438416,138.19090923804916L94.24795449120658,97.23938195649336L94.330483348029,101.48367725799237L94.6605987753187,92.37739156479523L94.74312763214111,97.3446349734035L94.90818534578595,80.73949447601531L94.99071420260837,81.70028267745644L95.32082962989807,92.47766783491657L95.98106048447745,129.39420004613066L96.31117591176714,125.38313185214392L96.39370476858957,122.96986290241479L96.64129133905683,138.97562936068357L96.72382019587926,132.99000147327428L96.80634905270168,145.7134333868889L96.97140676634652,163.62012153415895L97.05393562316895,159.80796819581548L97.2189933368138,146.44791677645122L97.38405105045864,145.65201933276776L97.46657990728106,126.11231635731332L97.63163762092591,127.64119422221604L97.79669533457076,134.83455609319634L98.044281905038,139.33416931516302L98.29186847550528,160.53347374795018L98.62198390279497,164.95074707681175L98.70451275961739,149.07120350941588L99.28221475737435,127.79074873346909L99.4472724710192,124.82212705108171L99.52980132784162,139.63423338072226L99.94244561195373,81.88258847640459L100.27256103924343,100.39778362622206L100.43761875288827,135.62443121027457L100.76773418017797,108.57121221094489L101.18037846429009,124.05111267345492L101.59302274840218,113.1947040376722L101.6755516052246,90.45166760814332L101.75808046204703,55.12164312667128L102.0056670325143,80.88022109431779L102.17072474615914,85.64488865641738L102.33578245980398,87.59623806772245L102.41831131662641,94.19952462497184L102.58336903027126,103.59597502560047L102.83095560073852,91.67763947649979L102.91348445756094,103.92660760550409L102.99601331438338,76.63695333480038L103.16107102802822,75.47713916501262L103.32612874167306,72.79343434382653L103.40865759849548,54.86700341221962L103.57371531214034,67.64311425762229L103.73877302578518,66.15699757731436L104.06888845307486,63.66544838720727L104.23394616671972,37.07301902007854L104.5640615940094,72.89231447453348L104.64659045083182,92.4239191047268L104.8941770212991,94.40061428706919L105.05923473494393,60.494455886031126L105.30682130541119,86.26954973332701L105.47187901905605,92.4963403769469L105.63693673270089,117.53946829606573L105.88452330316815,136.69412214933413L106.13210987363543,140.92469325369888L106.21463873045785,137.68710559827852L106.62728301456997,143.24163049560866L107.03992729868207,126.31383843423744L107.37004272597177,139.31363733886968L107.45257158279419,145.73836302670355L107.53510043961661,136.3460539547253L107.70015815326146,110.76958352783757L107.78268701008389,105.48905050783999L107.86521586690631,120.41991362708448L108.2778601510184,95.90517115325152L108.52544672148568,114.0876548647387L108.6079755783081,124.40697024606442L108.69050443513052,140.06936182296477L108.77303329195294,84.60026997964759L108.9380910055978,121.3376558874131L109.18567757606506,115.22471068630324L109.43326414653232,132.63079464349414L110.17602385793414,121.61917034012045L110.4236104284014,94.55342023710178L111.00131242615836,99.9418832824002L111.08384128298079,91.41437891185613L111.1663701398032,115.40176149891802L111.4964855670929,72.34417064965415L111.66154328073775,100.50839456353464L111.82660099438257,119.48906430826095L111.90912985120502,101.41946670908288L112.23924527849469,80.34701004851507L112.73441841942923,55.04871638932721L112.89947613307407,29.031620790640588L113.14706270354135,17.13024635218258L113.22959156036377,6.309561327636526L113.47717813083104,47.132012978725996L113.72476470129831,100.51359128476692L113.88982241494315,118.28380238732194L114.054880128588,112.19131243764996L114.46752441270012,130.22735730252487L114.55005326952254,83.80474241605552L114.7976398399898,55.80254948391943L115.1277552672795,61.3755660076432L115.29281298092432,73.24848018482729L115.62292840821402,81.78745586817878L115.70545726503644,76.0430038598998L115.9530438355037,72.91664943429852L116.11810154914856,80.81802982740753L116.20063040597098,73.34210772598763L116.44821697643825,81.54548538848404L116.53074583326067,70.35454667375282L116.77833240372794,82.59375861820482L116.86086126055037,79.3137653932542L116.94339011737279,89.17387024000759L117.43856325830733,96.0240829930739L117.85120754241943,79.37113927222265L118.01626525606429,102.68110598876952L118.09879411288671,100.99681226897052L119.25419810840062,65.01633353575909L119.33672696522304,46.55170313295456L119.50178467886788,61.11267674617781L120.07948667662484,80.47159394211593L120.16201553344726,61.71658309103441L120.24454439026968,89.18837658323964L120.57465981755938,100.3012063434141L120.6571886743818,88.02814762017867L120.9873041016715,89.34920723699112L121.31741952896118,54.50014713321981L121.3999483857836,76.75266346944836L121.56500609942846,110.73523949368474L121.7300638130733,121.55207303705282L121.81259266989572,106.60098146600758L121.89512152671814,120.40194219168153L121.97765038354055,101.19093751176173L122.63788123811993,93.64421640795412L122.96799666540963,107.98449418199586L123.13305437905447,109.5164814264132L123.38064094952175,108.4921588384414L123.79328523363385,119.438051270302L124.28845837456839,122.4293959335207L124.37098723139081,114.02419373932273L124.45351608821325,103.44637198602696L124.61857380185809,123.24277966998173L124.86616037232535,115.71439571939118L125.69144894054958,113.15967455349262L125.85650665419442,52.11713995018103L126.02156436783926,74.8578621234488L126.26915093830654,40.91834648174339L126.5167375087738,52.24158096928526L126.68179522241864,48.4115432870789L126.76432407924106,85.5776283965522L127.17696836335318,77.44379295497653L127.2594972201756,104.75569270657937L127.50708379064288,56.53865799998697L127.5896126474653,37.22151961020519L127.67214150428772,83.63147279708564L127.91972807475499,118.80356728236133L128.0022569315774,102.03941923897482L128.3323723588671,127.08910564813414L128.49743007251195,161.81388956319077L128.99260321344647,68.4848866724554L129.1576609270913,78.6301859031332L129.4052474975586,-8.124512566329772L129.7353629248483,54.2382393554888L130.06547835213797,34.53277675452299L130.23053606578281,42.19707064388435L130.56065149307253,130.53703696624973L130.64318034989495,110.60516152395861L131.05582463400705,105.36642104160488L131.2208823476519,89.75453570459241L132.21122862952097,78.1948527707145L132.54134405681066,82.91921665190154L132.62387291363308,38.66580117161055L132.7064017704555,74.7228078354282L132.95398834092276,76.33897720642584L133.1190460545676,100.15942380127291L133.36663262503487,104.47348653041261L133.69674805232458,87.43752602335923L133.86180576596942,96.94623525485231L133.9443346227918,109.2578417071377L134.27445005008153,100.79688526924454L134.35697890690395,110.44994297658356L134.6045654773712,117.59753058253695L134.9346809046609,101.77920827671004L135.01720976148331,86.97705261979615L135.18226747512819,72.11525463745694L135.34732518877303,21.00353890476788L135.5949117592403,36.679472604084715L136.0075560433524,22.642200502318445L136.17261375699724,35.70024586238188L136.33767147064208,41.7794881203807L136.58525804110937,45.99894412395659L136.99790232522147,61.7387912406158L137.0804311820439,56.039504951926L137.24548889568874,80.90176839034496L137.41054660933358,106.71572351473925L137.493075466156,64.53368877868671L137.57560432297845,19.83879772901441L137.82319089344568,55.68175517637586L138.23583517755782,110.08676328980575L138.40089289120266,123.72946529309866L138.48342174802508,42.23542071722575L138.81353717531476,-21.33515803333838L139.22618145942687,51.03679172774777L139.55629688671658,31.15325741710628L139.88641231400626,89.80606885571474L139.96894117082869,126.54960604246841L140.3815854549408,146.7072986105885L140.54664316858566,145.14871251246876L140.7117008822305,176.12052532480402L140.87675859587534,164.16250683505112L141.12434516634258,66.82974293582551L141.20687402316503,12.858289358951478L141.5369894504547,39.53921743174561L142.03216259138924,64.30508134451482L142.19722030503408,46.56236809378011L142.36227801867895,43.07192900197344L142.5273357323238,101.08958979636333L142.6098645891462,128.4775395189039L143.02250887325832,49.695544522873845L143.43515315737042,102.12184523579936L143.6827397278377,120.52633256702246L143.84779744148256,131.67241889334719L144.0128551551274,75.10187456621405L144.09538401194982,59.530777108901596L144.26044172559466,102.04215367423028L144.4254994392395,57.017553725933844L144.6730860097068,81.89863247718195L144.8381437233516,70.8561770931833L144.92067258017403,60.68731398682391L145.00320143699645,55.38571944416769L145.0857302938189,83.13083550378278L145.66343229157584,131.25653878715397L145.8284900052207,70.62413617889183L146.07607657568795,109.07087407463483L146.15860543251037,140.3681057469661L146.24113428933282,147.12945561999544L146.73630743026735,126.83368369978493L147.14895171437945,102.89370464347247L147.3965382848467,104.1506899257737L147.47906714166913,105.52916296063796L148.13929799624853,101.21232467368422L148.22182685307092,39.36760366806903L148.30435570989337,35.837794268508794L148.38688456671576,50.70166790003331L148.5519422803606,57.71941306085679L148.96458656447274,43.18198724964865L149.12964427811758,17.012707606137216L149.21217313494,19.65117522052856L149.8724039895194,46.653353078067205L149.95493284634182,62.54513105980745L150.2850482736315,52.813306408418924L150.45010598727637,41.64232136787148L150.61516370092122,43.122115948971526L150.6976925577436,65.14241048592879L150.86275027138845,83.256388912L151.19286569867816,78.81807295763883L151.27539455550055,73.90655593994845L151.4404522691454,82.94497889754031L151.6055099827903,97.64694009725133L151.6880388396127,81.99716330153926L151.85309655325753,40.312635208529564L151.93562541007995,58.01798602869853L152.01815426690237,73.17974128821533L152.1006831237248,78.13156387485522L152.43079855101448,94.37143313228066L152.51332740783693,99.70087669561144L152.76091397830416,97.56764488063315L152.8434428351266,88.7295850893638L152.92597169194903,65.66235617710751L153.2560871192387,86.27875125670785L153.33861597606113,52.73964897363089L153.503673689706,50.045557515391884L153.91631797381808,64.05714865123086L154.57654882839748,71.1476563275127L154.82413539886477,80.53816517763937L154.98919311250958,97.2625399693851L155.15425082615442,103.5330949589641L155.23677968297687,101.27550289241476L155.56689511026656,105.53845822042426L155.7319528239114,96.14730790624209L155.97953939437866,95.6275172663223L156.06206825120108,103.48219414584074L156.22712596484592,114.05830359151234L156.80482796260287,94.92658937872241L156.96988567624774,74.89807633971859L157.05241453307016,97.52821343572168L157.38252996035985,97.52113423020725L157.46505881718227,100.51436919730861L157.71264538764956,107.63625512802687L157.79517424447195,108.98756470199794L157.8777031012944,120.1603964070593L158.04276081493924,117.42955007817291L158.12528967176164,86.95461920749624L158.2903473854065,91.5898833913084L158.45540509905135,87.35913390693659L158.53793395587374,100.21003621527427L158.86804938316345,99.81108763980318L159.11563595363071,95.1604675880854L159.44575138092043,93.11714233943415L159.52828023774282,104.30509318091366L159.7758668082101,114.20948012769651L159.94092452185495,95.49879669089451L160.1059822354998,85.3359845516571L160.18851109232222,93.84270862295574L160.27103994914464,107.78672456729059L161.01379966054643,76.91069872134021L161.1788573741913,78.63663833997911L161.42644394465853,107.19152512929604L161.59150165830337,104.56457238840692L161.75655937194827,56.27302948743715L162.33426136970522,49.46667439609135L162.4167902265276,61.030210492021766L162.6643767969949,70.04876283106982L162.7469056538173,54.35325919904171L162.82943451063974,53.75130920748306L163.24207879475185,61.46071757103761L163.4896653652191,66.54655080269518L163.65472307886398,63.72250061613003L163.90230964933122,55.411045724086094L163.98483850615366,76.36056200012848L164.06736736297606,80.80252184907455L164.39748279026577,92.84059773568782L164.4800116470882,96.98599607818164L164.64506936073303,91.06636142399604L164.8101270743779,95.84716773454541L164.8926559312003,28.924970907418615L165.22277135848998,48.820617104790706L165.3053002153124,45.22236962655917L165.63541564260208,30.18707335039513L165.71794449942453,77.81853346759884L165.88300221306937,101.45028446850495L166.04805992671422,114.02664437970303L166.46070421082632,79.96431740148826L166.54323306764877,90.5309274589293L166.7082907812936,110.10442570231305L166.95587735176085,108.61889377702502L167.53357934951782,105.39193709308677L167.69863706316266,98.11761373051073L168.02875249045238,115.73974138357431L168.11128134727477,127.81560119003743L168.44139677456448,101.65774155860284L168.52392563138687,32.490291844763895L169.01909877232143,117.94914753812634L169.2666853427887,123.23736341317509L169.3492141996111,105.66490480224749L169.43174305643353,144.72965756519307L169.5968007700784,87.41124706436165L169.6793296269008,107.64773062868872L169.76185848372324,129.40592180497936L169.84438734054564,104.89664203830513L170.17450276783535,112.29379703376948L170.25703162465777,94.38847654106489L170.4220893383026,114.05422625049133L170.50461819512503,117.01595904663374L170.66967590876988,149.82891112532894L170.91726247923717,86.35777162891729L170.99979133605956,59.49856619635124L171.32990676334927,8.928167885802242L171.4124356201717,19.78113644227959L172.0726664747511,44.96682266360883L172.4853107588632,50.315883393157144L172.98048389979772,31.2757709829266L173.0630127566201,-16.96382849064405L173.55818589755467,-3.087998717547769L173.88830132484435,2.06567711601218L174.3834744657789,29.76551864641532L174.7135898930686,1.4183010553368802L175.04370532035827,79.43989037877502L175.2087630340031,110.47823700608663L175.37382074764795,68.14260325608767L175.62140731811522,97.8506062298767L176.03405160222735,99.75837890175441L176.44669588633946,169.57312617607965L177.02439788409643,186.761314136732L177.51957102503096,166.5585451594322L177.6846287386758,127.49643868378035L177.84968645232067,132.36849323718621L178.0147441659655,95.84563225274607L178.0972730227879,104.30643260338812L178.3448595932552,123.45251863288924L179.08761930465698,48.32983094318761L179.9954367297036,52.85204042935653L180.07796558652606,69.15481905553507L180.32555215699333,68.17135576587872L180.40808101381575,-19.561789164711655L180.73819644110543,27.490399435908213L180.82072529792785,18.24997558438697L180.9857830115727,47.81447746872128L181.39842729568483,1.6923954404384922L181.6460138661521,58.94404831912871L182.05865815026422,72.02896752054214L182.14118700708661,102.29513055751744L182.22371586390906,104.648686307442L182.3887735775539,127.53160649263268L182.4713024343763,112.20684651793106L182.8839467184884,106.55218300847135L182.96647557531085,127.96638776563417L183.2140621457781,138.8752758199888L183.29659100260054,104.63605081695765L183.70923528671264,89.38207655188428L184.20440842764717,119.63711158006342L184.28693728446962,149.13607893824334L184.69958156858172,125.48681050626989L185.0296969958714,142.50115259707076L185.44234127998354,140.43744737812878L186.10257213456288,133.74587942071716L187.42303384372167,68.21104285957598L187.5055627005441,98.96524600978611L187.9182069846562,95.8071309334393L188.99108212334767,122.54793145732258L189.07361098017012,124.19154846555078L189.48625526428222,119.93505455605512L189.65131297792706,98.62547769433385L189.8163706915719,117.95030134513621L189.89889954839435,104.64840253977884L189.98142840521675,68.98381266179739L190.31154383250643,25.027609538655977L190.4766015461513,20.06849937913935L190.64165925979614,33.366156985341505L190.80671697344098,31.63482264953265L191.05430354390828,66.24446045102059L191.13683240073067,86.92398116509138L191.3018901143755,78.18948853655972L191.46694782802035,79.16507403742132L191.5494766848428,72.86076490888449L191.63200554166522,95.68748152982597L191.71453439848764,98.42291554205676L191.87959211213249,53.952426431495404L191.9621209689549,78.1696124679743L192.04464982577733,119.60049072391813L192.2922363962446,112.61554111485442L192.952467250824,121.68534083160725L193.28258267811367,113.13699434096706L193.3651115349361,127.86785575883675L193.61269810540335,144.3974695558486L194.1078712463379,159.59307759566107L194.1904001031603,157.2573110682775L194.35545781680514,77.22012577912284L194.76810210091728,4.072047017296959L194.93315981456212,21.142668400535356L195.01568867138454,68.03693758906172L195.34580409867422,114.37079219291292L195.42833295549667,106.776681795324L195.84097723960878,127.96468440158431L196.00603495325362,151.35204603018366L196.088563810076,169.05537149525432L196.25362152372085,79.0606190763277L196.9963812351227,71.01375581230465L197.0789100919451,84.54229634503605L197.24396780558993,61.43342831081736L197.40902551923477,83.40444618575191L197.65661208970207,109.13819428623317L197.7391409465245,93.79822950057225L198.4819006579263,65.03731170045819L198.97707379886083,31.118690922011588L199.55477579661778,48.8339380535661L199.88489122390746,24.900746392923754L199.96742008072988,14.80994639677249L200.29753550801956,49.0278379759166L201.04029521942138,91.92261330819412L201.3704106467111,101.83096311227608L201.45293950353349,124.0354038497753L201.53546836035594,90.24792407647736L201.94811264446804,90.9949526830951L202.44328578540257,89.87390768414123L202.69087235586986,102.87537568284691L202.77340121269225,85.22700015727823L202.8559300695147,95.31324491568749L203.10351663998196,87.62840328110771L203.2685743536268,84.15817308432635L203.43363206727165,77.41403830728166L203.51616092409407,105.19841826524735L203.5986897809165,112.04960849027488L203.92880520820617,125.83951576946188L204.093862921851,126.73296055072285L204.34144949231828,132.83472652784567L204.42397834914073,122.43893597272447L204.50650720596312,138.08674429205485L204.83662263325283,126.89919805736734L205.33179577418736,135.09928734186204L205.90949777194433,144.15369014219016L205.99202662876675,145.0766060662056L206.07455548558917,134.89012162596285L206.48719976970128,95.9432040044284L206.56972862652373,97.95589216841726L206.73478634016854,86.42166013195869L207.3950171947479,84.73094877569254L207.56007490839275,80.04600784836624L207.72513262203762,76.03139583042528L207.80766147886004,63.55716064716385L208.0552480493273,65.54886679561567L208.63295004708428,59.87975837341237L208.88053661755154,89.676946144799L209.04559433119638,46.82758050779887L209.21065204484123,60.65655046789712L209.62329632895336,-15.34527991221649L210.03594061306543,62.026344351044045L210.11846946988786,112.10594934940924L210.2009983267103,70.18464355502633L210.531113754,130.98523957732405L210.61364261082238,136.72404495226039L211.10881575175694,157.75003337829529L211.27387346540178,120.96314105555386L211.43893117904662,139.88985718703194L211.6865177495139,172.5213522860519L211.7690466063363,198.06988955655333L211.85157546315875,95.8490087534053L211.93410431998117,35.832630435833636L212.18169089044844,-12.375797190982041L212.34674860409328,-5.835294804721846L212.75939288820538,12.100999867188332L213.00697945867267,44.33406803510783L213.1720371723175,-10.53024465023071L213.50215259960717,3.4352039968890162L213.58468145642962,20.110599743991173L213.99732574054173,60.127347391553734L214.3274411678314,36.82380124899448L214.5750277382987,28.32560572441286L214.6575565951211,10.274383273584194L214.82261430876594,43.52934989318519L215.15272973605565,67.92835356304053L215.23525859287807,97.00570298118515L215.4003163065229,115.19493155185566L215.48284516334533,104.40269845850553L215.97801830427986,131.50591689783857L216.0605471611023,96.27789253156736L216.22560487474715,86.79544195276058L216.39066258839196,102.41904252761427L216.63824915885925,99.90706969399034L216.7207780156817,110.39485376966245L216.88583572932654,109.67897052262641L217.13342229979378,87.56353747632622L217.4635377270835,49.26702731580283L217.62859544072833,77.23037047813952L217.71112429755073,136.8010247642701L217.8761820111956,126.39136106381393L217.95871086801802,37.57983351978124L218.53641286577496,80.50520296043791L218.7014705794198,80.82680757511798L218.9490571498871,91.4543981463177L219.11411486353194,80.03949604222923L219.19664372035436,72.32042927725905L219.27917257717678,61.662177448997845L219.77434571811133,63.09626102602685L220.59963428633552,64.14363613033655L220.76469199998036,32.499967567243864L221.1773362840925,46.8420115117942L221.34239399773733,10.132633406499986L221.67250942502704,8.290466366060576L221.75503828184944,12.682337407087601L221.8375671386719,35.60818967612659L222.00262485231673,25.191606944572765L222.16768256596157,40.93175872197565L222.250211422784,-1.1462916766605942L222.58032685007367,28.101660696530754L223.0754999910082,25.347107940507044L223.24055770465307,39.852376604905494L223.4056154182979,27.70125146151221L223.7357308455876,30.97521201283147L224.47849055698939,54.09058837253643L224.56101941381183,67.08321755412612L224.64354827063423,38.160313049052746L224.9736636979239,31.01484423703357L225.38630798203604,34.94171053202265L225.46883683885846,31.44897042134731L225.5513656956809,33.10323268868574L225.8814811229706,26.089007041541525L225.964009979793,35.67168310987633L226.21159655026028,40.533293425914515L226.37665426390512,27.011083111697527L226.6242408343724,38.52600551829318L227.03688511848452,41.070176379108936L227.20194283212933,58.162744525539686L227.36700054577418,5.2407876106266125L227.44952940259662,-25.42309915549275L227.8621736867087,-14.63164024803937L228.02723140035357,27.01141884074285L228.43987568446568,53.4571348242454L228.68746225493294,77.35058271250016L228.85251996857778,82.96056355833569L229.01757768222262,73.6333127087903L229.43022196633476,63.24337172657727L229.67780853680202,70.93015996455604L229.84286625044686,80.15174809441916L230.0079239640917,68.12318597125459L230.09045282091415,83.26939786689805L230.3380393913814,60.0050454766198L230.4205682482038,17.3639950679793L230.50309710502626,18.45493029189194L230.7506836754935,41.43286884771052L230.83321253231594,67.16687622078743L230.91574138913833,75.17064420277377L231.57597224371773,84.52166108649277L231.65850110054018,77.75576958585329L231.74102995736257,82.67130424203856L231.9060876710074,75.123677605769L231.98861652782986,34.1047206420986L232.31873195511955,-9.344211254732903L232.4837896687644,8.216360172632964L233.22654938016618,23.204146193944872L233.63919366427828,55.19703489610477L233.72172252110073,88.05708432797053L233.80425137792312,47.39066165908854L233.96930909156802,46.97466261149616L234.3819533756801,62.57134662664647L234.46448223250252,88.29303841641607L234.54701108932497,96.71233052551743L234.62953994614736,108.65350261126677L234.7945976597922,99.83676651464772L234.95965537343704,97.43372316246435L235.28977080072676,82.21416227159322L235.61988622801644,100.42211336160736L235.70241508483886,83.61494233882097L235.86747279848373,81.08323918660949L236.11505936895097,88.99265620574361L236.2801170825958,33.67873218153538L236.85781908035278,-23.430877280570318L237.2704633644649,-13.436086612699823L237.51804993493215,21.70364396757572L237.93069421904428,42.037594341848L238.17828078951155,5.123050175074199L238.26080964633397,16.887591292998735L238.3433385031564,14.955166111334043L238.67345393044607,5.651168371634865L239.00356935773576,21.536329378361888L239.1686270713806,45.61263877973084L239.82885792596,49.022405426991504L239.91138678278242,48.277358750902145L239.99391563960484,46.44721327289616L240.32403106689452,77.39672731693331L240.65414649418423,49.93478662321904L240.98426192147392,73.47098313238888L241.0667907782963,34.807387028764445L241.39690620558602,49.646846916315624L241.47943506240844,81.71460459862293L241.56196391923086,67.29756312754812L241.64449277605328,75.14575571209495L241.974608203343,64.62540980419578L242.22219477381023,75.41794695799902L242.46978134427752,49.100165402299346L242.63483905792236,24.10127958481701L242.7998967715672,39.80394840254928L243.13001219885692,45.32955522863102L243.54265648296902,57.10619119998754L243.62518533979144,65.38481028316595L243.70771419661386,72.12174720517444L243.8727719102587,96.10086825350898L243.9553007670811,125.41196222420189L244.120358480726,107.45114851698776L244.28541619437084,68.41970614521307L244.36794505119323,86.57875252125972L244.45047390801565,105.70708827424706L245.11070476259502,116.36488516038199L245.27576247623986,124.024203078296L245.52334904670715,127.01267596963875L245.60587790352957,122.55112678161382L245.688406760352,121.03981941048893L245.77093561717442,96.03116073106753L245.93599333081926,126.60068743939057L246.1010510444641,123.9359903994255L246.3486376149314,105.66952146806535L246.43116647175378,122.15902741030351L246.7612818990435,108.8161352335064L246.84381075586592,98.48969773673893L246.92633961268834,68.7115725039356L247.17392618315563,101.81290825819362L247.83415703773497,98.1293069130711L249.31967646053857,57.466248131000015L249.40220531736102,12.078665293289008L249.81484960147313,21.210500330401455L249.89737845829555,9.881587303344668L250.06243617194042,13.653828126985152L250.22749388558526,34.05847727674841L250.31002274240765,3.340245976311239L250.55760931287494,7.671983712542874L250.8877247401646,47.8243606902134L250.97025359698705,50.94303557041704L251.1353113106319,56.694002006209885L251.30036902427673,72.52729171404305L251.38289788109915,89.91922200329523L251.79554216521126,54.60165549224807L251.87807102203368,80.35681418095764L252.12565759250097,89.97024733396705L252.20818644932336,86.89334727819161L252.53830187661308,70.8912546471015L252.6208307334355,100.70750700583629L252.70335959025792,99.65744749204684L253.19853273119244,123.40158668330504L253.36359044483729,26.902487475670966L253.44611930165973,-15.395692606536333L253.52864815848213,-14.205236381193458L254.60152329717366,51.57786121982603L254.68405215399605,34.722590707957174L254.84910986764092,71.5121232302932L255.261754151753,88.34157992896274L255.67439843586513,67.84007932923099L255.83945614950997,72.94051861845395L256.3346292904445,53.55471618413905L256.49968700408937,44.52479081565611L256.6647447177342,83.62918017388513L256.82980243137905,115.01322535226116L256.9123312882015,134.08750302167647L257.0773890018463,107.1188635178323L257.4900332859584,91.91281066768629L257.57256214278084,59.024706794559386L257.65509099960326,36.67187576133504L257.7376198564257,41.14874296979479L257.98520642689294,2.3985954941756376L258.0677352837154,10.681263234449249L258.3153218541826,30.618905341358552L258.39785071100505,49.857027247955514L258.4803795678275,44.033011250100834L258.5629084246499,21.32085010238847L258.8930238519396,13.349576968755384L258.97555270876205,-12.806614070597753L259.38819699287416,-5.0255902162133905L259.553254706519,2.1644755501756165L259.9658989906311,25.308744998883636L260.0484278474535,75.59186896188571L260.21348556109837,98.01874164096832L260.3785432747432,22.358120080526586L260.46107213156563,-17.548918190324258L260.62612984521047,-8.101100719486476L260.7911875588553,31.21802596307037L261.2038318429674,18.745409972936805L261.4514184134347,7.549904237371666L261.6164761270795,27.123647038723487L261.699004983902,58.79587429759776L262.0291204111917,72.15623961655342L262.4417646953038,88.52533286651189L263.01946669306074,49.81971270874028L263.10199554988316,36.374280005392464L263.51463983399526,30.208668028730898L263.6796975476401,15.330102759222534L264.0923418317522,22.116991696554862L264.1748706885747,27.555119051706495L264.25739954539705,34.185248429248546L264.3399284022195,72.61032210106323L265.0826881136213,100.87109916949149L265.4953323977334,130.69222190872406L265.7429189682007,54.28809425726443L265.8254478250231,38.55717597222965L266.5682075364249,36.534915119363376L266.73326525006973,41.18267378408017L266.980851820537,41.30153340746446L267.14590953418184,50.823423942256454L267.6410826751164,68.76297713273212L268.21878467287337,70.73622364598027L268.3838423865182,62.22123424903097L268.46637124334063,48.44960882793856L268.6314289569855,91.64897431987521L268.87901552745274,114.79366547241749L269.2091309547424,123.51728884078993L269.4567175252097,127.53232030505791L269.5392463820321,127.61654482903299L269.70430409567695,132.59963820559628L269.8693618093218,130.064542898175L269.95189066614427,125.33375773607362L270.4470638070788,151.93720154839187L270.5295926639012,159.98299161999057L270.69465037754605,179.07727137603496L270.8597080911909,106.96380807400719L271.10729466165816,88.70135344535525L271.6849966594151,93.2233366033668L272.0151120867048,91.60363310933457L272.0976409435272,76.06855876976297L272.3452275139945,54.06468968413383" fill="none"></path></g></g></g></g><g opacity="0.2"><g><g><g><path style="fill: none;" stroke="rgb(255, 112, 67)" stroke-width="2px" d="M41.6770726953234,192.67804862301384L41.759601552145824,170.84003576434606L42.33730354990278,181.64958211017822L42.74994783401489,181.64958211017822L42.91500554765974,28.761653090107934L43.16259211812701,251.88247403995908L44.152938399996074,214.0908792919556L44.730640397753035,55.05972174048038L45.060755825042726,161.13913718918656L45.14328468186515,136.18537618320687L45.225813538687575,96.7380929828134L45.47340010915484,171.31445113836088L46.21615982055664,170.04206380452268L46.29868867737906,58.42844194711615L46.38121753420148,58.42844194711615L46.62880410466875,127.67432196753744L46.87639067513602,178.14770755499214L47.20650610242571,116.38103096212326L47.5366215297154,133.01110797188238L47.619150386537825,123.31455599568035L47.701679243360246,156.32080502731804L47.86673695700509,96.09263363909231L48.03179467064994,57.28604972648845L48.11432352747236,89.1989488954916L48.27938124111721,90.26113046316296L48.36191009793963,87.35240764375631L48.52696781158448,134.35567005133606L48.69202552522932,122.73499533273862L49.26972752298627,113.6095758580852L49.51731409345354,137.12772943864383L49.59984295027596,161.5398300042986L49.76490066392081,219.09486423661176L50.0950160912105,71.35255567844543L50.507660375322615,181.3481825775918L50.59018923214504,39.23396696560685L51.58053551401411,89.98899096258283L51.66306437083653,131.89936457463517L51.99317979812622,120.30715477847862L52.24076636859349,46.62583555849705L52.40582408223834,40.49636772330377L52.570881795883174,84.57652112907381L53.313641507284984,94.4734513172145L53.80881464821952,189.56925503403383L54.221458932331636,128.0771138719021L54.30398778915405,121.74621828014388L54.55157435962132,252.7753714804289L54.71663207326616,136.99739507868543L54.88168978691101,71.13401716403332L55.37686292784555,102.87173779359019L55.45939178466797,158.49030918305306L56.20215149606977,115.09638833951722L56.367209209714616,144.3526886315678L56.53226692335946,157.43807178567948L56.77985349382673,112.71466414004972L57.52261320522854,181.26428261625207L57.7701997756958,126.03388371661158L57.85272863251822,79.42949067287391L58.017786346163064,95.88791942965709L58.265372916630334,175.85677426643105L58.843074914387294,50.69828073780554L59.00813262803214,177.22813683896874L59.090661484854564,157.06628915436494L59.42077691214425,138.95419152348785L59.50330576896667,21.260038174272445L59.5858346257891,164.09587402488177L59.66836348261152,215.37527808096158L59.91595005307879,8.54791125453648L59.99847890990121,202.28742478646674L60.3285943371909,162.6177335384429L60.41112319401332,93.66048889171834L60.49365205083575,165.76770320144914L60.90629633494786,101.44446311641441L61.07135404859271,269.9289115229264L61.153882905415124,160.38336964509398L61.483998332704815,147.07976602039633L61.896642616816926,72.49810713441293L61.979171473639354,103.24991310581045L62.144229187284196,154.89580966422972L62.309286900929045,171.1352440437833L62.391815757751466,219.16674744205326L62.47434461457389,219.16674744205326L62.72193118504115,87.23078768463456L62.886988898686,134.69825625940956L63.13457546915327,165.17429703060878L63.29963318279811,168.6819175775874L63.54721975326538,77.47894908998587L63.6297486100878,124.4868231330449L63.95986403737749,114.40803548510867L64.04239289419992,56.861249189353835L64.12492175102234,206.73428706011643L64.20745060784476,68.95522612857458L64.45503717831203,163.82712699178063L64.53756603513445,85.66187749021101L64.95021031924657,-8.329402424214807L65.61044117382595,161.8025660090854L65.77549888747079,124.22117172651834L65.85802774429321,114.2398539098378L66.02308545793805,169.18907026277446L66.18814317158291,195.20279713110332L66.27067202840533,59.36211260609907L66.51825859887259,60.72476077780011L66.60078745569501,59.85115799611703L66.68331631251743,117.25357359771915L66.84837402616229,145.3921830729734L67.34354716709682,191.1196762806969L67.42607602391924,77.10100700990479L67.50860488074166,247.18289944277691L67.92124916485378,172.63329407373948L68.08630687849862,67.87688793453454L68.16883573532104,6.081778223607394L68.3338934489659,135.65833515742423L69.15918201719012,216.26884341346633L69.32423973083496,60.55433169282441L69.57182630130222,124.85382450550624L69.8194128717695,66.53792342642119L69.98447058541434,159.88760292888327L70.2320571558816,32.51355249849548L70.39711486952646,135.95778402121022L70.56217258317129,99.19315808859228L70.72723029681615,141.4370536596727L70.97481686728341,172.88857725153338L71.05734572410583,-79.64553572368894L71.22240343775069,164.80428484325984L71.80010543550765,52.430347415046704L71.88263429233007,114.6743017763658L71.96516314915249,113.37131862645147L72.04769200597491,141.43609952819423L72.87298057419913,174.49129550467723L73.12056714466641,169.00818813737914L73.20309600148883,172.39828088913254L73.53321142877851,190.01961569333045L74.2759711401803,193.18475604684429L74.52355771064758,116.78644142732328L74.77114428111484,17.564920190314474L75.26631742204938,124.08587588287192L75.3488462788718,99.61935801856198L75.51390399251666,121.82233676920369L75.59643284933908,19.058432795017502L76.0916059902736,112.58760563150072L76.17413484709604,241.1481530101083L76.4217214175633,113.64316128612718L76.751836844853,33.93550524231359L76.83436570167542,132.90995943370416L76.91689455849784,161.91643630030984L76.99942341532027,203.5979243721392L77.41206769943238,43.65420367027691L77.65965426989963,44.52581337731608L77.74218312672205,57.877674851902334L77.82471198354447,181.29701992742432L78.2373562676566,123.41910760279843L78.65000055176871,218.8599358636918L78.81505826541355,17.8050220761399L78.89758712223598,131.00209933228615L78.9801159790584,203.67991076979158L79.06264483588082,152.31726934367651L79.22770254952567,163.9434674233882L79.88793340410506,38.326566726664346L80.21804883139474,167.09360670976838L80.30057768821717,56.79356946314801L81.12586625644138,180.06305228778567L81.5385105405535,183.57847550996595L81.70356825419834,38.77566581211722L81.78609711102077,42.9278127742602L81.86862596784319,130.62247161992644L81.95115482466561,155.21874076384682L82.2812702519553,86.67527113495017L82.69391453606742,-12.407445174863627L82.77644339288985,61.21336090646145L83.02402996335711,76.82006829680104L83.43667424746923,33.50631570037803L83.51920310429165,45.022958283440126L83.84931853158133,162.38665349581942L83.93184738840377,181.51224018458353L84.01437624522619,106.29961415189082L84.17943395887103,80.06411532358398L84.42702052933828,159.80346973540435L84.75713595662798,112.83617808456275L84.8396648134504,8.14999602217285L85.1697802407401,151.48812908888993L85.25230909756252,88.22982695135325L85.66495338167464,146.9693200010335L85.83001109531948,55.15627984610109L86.2426553794316,120.2683110258442L86.32518423625402,-40.150492942067814L86.40771309307644,128.7337471553821L86.6552996635437,129.32617799182225L86.73782852036612,199.1391937630435L87.06794394765582,-65.56543869889427L87.15047280447824,65.68124057628957L87.23300166130066,204.56820187551259L87.31553051812308,142.6643423789621L87.72817480223519,190.08700918009274L87.89323251588003,182.02434375199775L87.97576137270245,22.919294018245814L88.05829022952489,91.47128722168345L88.1408190863473,188.93350662847135L88.38840565681457,134.85193503620775L88.55346337045941,140.61020332043444L88.80104994092669,133.8301026286146L88.88357879774911,69.99047998563147L89.29622308186123,40.63282972764609L89.37875193868365,262.416597082706L89.62633850915091,81.05403733395288L89.79139622279575,66.4477898060888L90.20404050690787,125.92980917523273L90.36909822055271,147.25170051281583L90.61668479101999,133.34042115094434L90.78174250466483,88.41662469191506L90.86427136148725,159.90657954384386L90.94680021830968,183.8157786101212L91.02932907513211,169.65746400701408L91.19438678877695,132.40486343192623L91.27691564559936,73.57298925220876L91.4419733592442,71.9554395553052L91.60703107288904,156.8513021293449L91.68955992971148,70.82744411854146L91.7720887865339,135.66434618573857L92.01967535700116,151.60758634999382L92.26726192746844,195.63131878100396L92.67990621158054,138.8234649094772L93.01002163887024,71.49020504640539L93.09255049569266,97.46149426686425L93.2576082093375,111.96582995136733L93.50519477980478,265.159238741277L93.83531020709447,146.76547511138978L93.91783906391689,159.96508900639554L94.08289677756174,5.964610878051822L94.16542563438416,196.72329575445562L94.24795449120658,35.81209103415967L94.330483348029,107.85012021024086L94.6605987753187,78.71796302499952L94.74312763214111,104.79550008631595L94.90818534578595,55.83178372993297L94.99071420260837,83.1414649796181L95.32082962989807,108.64374557110678L95.98106048447745,184.7689983629518L96.31117591176714,119.36652956116377L96.39370476858957,119.34995947782109L96.64129133905683,162.98427904808676L96.72382019587926,124.01155964216032L96.80634905270168,164.7985812573108L96.97140676634652,190.48015375506404L97.05393562316895,154.08973818830026L97.2189933368138,126.40783964740486L97.38405105045864,144.4581731672426L97.46657990728106,96.80276189413162L97.63163762092591,129.93451101957015L97.79669533457076,145.62459889966675L98.044281905038,146.08358914811305L98.29186847550528,192.332430397131L98.62198390279497,171.5766570701041L98.70451275961739,125.25188815832207L99.28221475737435,95.87006656954891L99.4472724710192,120.36919452750062L99.52980132784162,161.85239287518306L99.94244561195373,-4.744878880071867L100.27256103924343,128.17057635094824L100.43761875288827,188.46440258635332L100.76773418017797,67.9913837119504L101.18037846429009,147.27096336721996L101.59302274840218,96.91009108399813L101.6755516052246,56.33711296385008L101.75808046204703,2.1266064044631965L102.0056670325143,119.5180880457876L102.17072474615914,92.79188999956678L102.33578245980398,90.52326218468006L102.41831131662641,104.10445446084596L102.58336903027126,117.69065062654336L102.83095560073852,73.8001361528488L102.91348445756094,122.30005979901053L102.99601331438338,35.70247192874485L103.16107102802822,73.73741791033099L103.32612874167306,68.76787711204743L103.40865759849548,27.977357014809236L103.57371531214034,86.80728052572631L103.73877302578518,63.92782255685251L104.06888845307486,59.92812460204659L104.23394616671972,-2.8156250306144854L104.5640615940094,126.62125765621586L104.64659045083182,121.7213260500168L104.8941770212991,97.36565706058282L105.05923473494393,9.6352182844741L105.30682130541119,124.93219050427088L105.47187901905605,101.83652634237679L105.63693673270089,155.10416017474398L105.88452330316815,165.42610292923672L106.13210987363543,147.27054991024596L106.21463873045785,132.83072411514803L106.62728301456997,151.57341784160388L107.03992729868207,100.92215034218061L107.37004272597177,158.813335695818L107.45257158279419,155.37545155845436L107.53510043961661,122.25759034675794L107.70015815326146,72.40487788750598L107.78268701008389,97.56825097784368L107.86521586690631,142.8162083059512L108.2778601510184,59.1330574425021L108.52544672148568,141.3613804319695L108.6079755783081,139.88594331805297L108.69050443513052,163.56294918831526L108.77303329195294,1.3966322146718044L108.9380910055978,176.44373474906132L109.18567757606506,106.0552928846384L109.43326414653232,158.73992057928052L110.17602385793414,105.10173388505991L110.4236104284014,53.95479508257376L111.00131242615836,108.02457785034785L111.08384128298079,78.62312235604004L111.1663701398032,151.38283537951082L111.4964855670929,7.75778437575827L111.66154328073775,142.7547304343554L111.82660099438257,147.9600689253504L111.90912985120502,74.31507031031579L112.23924527849469,48.73832505766331L112.73441841942923,17.10127590054544L112.89947613307407,-9.994022607389327L113.22959156036377,-9.921466209182457L113.47717813083104,108.36569045536017L113.72476470129831,180.5859587438283L113.88982241494315,144.93911904115447L114.054880128588,103.05257751314203L114.46752441270012,157.28142459983718L114.55005326952254,14.170820086351519L114.7976398399898,13.799260085715282L115.1277552672795,69.73509079322885L115.29281298092432,91.05785145060345L115.62292840821402,94.59591939320599L115.70545726503644,67.42632584748135L115.9530438355037,68.22711779589663L116.11810154914856,92.67010041707108L116.20063040597098,62.12822457385773L116.44821697643825,93.85055188222869L116.53074583326067,53.568138601656024L116.77833240372794,100.9525765348828L116.86086126055037,74.39377555582833L116.94339011737279,103.96402751013757L117.43856325830733,106.29940212267338L117.85120754241943,54.39172369094576L118.01626525606429,137.6460560635898L118.09879411288671,98.470371689272L119.25419810840062,11.045615435941905L119.33672696522304,18.85475752874772L119.50178467886788,82.9541371660127L120.07948667662484,109.50996973602305L120.16201553344726,33.584066814412104L120.24454439026968,130.39606682154744L120.57465981755938,116.9704509836758L120.6571886743818,69.61855953532559L120.9873041016715,91.33079666220983L121.31741952896118,2.226556977562901L121.3999483857836,110.13143797379117L121.56500609942846,161.70910353003927L121.7300638130733,137.77732335210493L121.81259266989572,84.1743441094397L121.89512152671814,141.10338328019242L121.97765038354055,72.37443049188205L122.63788123811993,82.32413475224276L122.96799666540963,129.49491084305845L123.13305437905447,111.8144622930392L123.38064094952175,106.95567495648375L123.79328523363385,135.85688991809292L124.28845837456839,126.91641292834875L124.37098723139081,101.41639044802578L124.45351608821325,87.57963935608332L124.61857380185809,152.9373911959139L124.86616037232535,104.42181979350535L125.69144894054958,109.3275928046448L125.85650665419442,-39.44666195478638L126.02156436783926,108.96894538335046L126.26915093830654,-9.99092698081475L126.5167375087738,69.22643270059798L126.68179522241864,42.66648676376935L126.76432407924106,141.32675606076208L127.17696836335318,65.24303979261295L127.2594972201756,145.72354233398363L127.50708379064288,-15.7868940599017L127.5896126474653,8.245812025532537L127.67214150428772,153.2464025774063L127.91972807475499,171.5617090102748L128.0022569315774,76.89319717389499L128.3323723588671,164.66363526187314L128.49743007251195,213.90106543577573L128.99260321344647,-71.50861766364758L129.1576609270913,93.8481347491499L129.4052474975586,-138.25656027052426L129.7353629248483,147.78236723821664L130.06547835213797,4.974582853074203L130.23053606578281,53.6935114779264L130.56065149307253,263.04698644979777L130.64318034989495,80.70734836052198L131.05582463400705,97.5083103180743L131.2208823476519,66.33670769907367L132.21122862952097,60.855328369897684L132.54134405681066,90.00576247368208L132.62387291363308,-27.714322048825835L132.7064017704555,128.80831783115462L132.95398834092276,78.76323126292228L133.1190460545676,135.89009369354352L133.36663262503487,110.94458062412214L133.69674805232458,61.88358526277916L133.86180576596942,111.20929910209198L133.9443346227918,127.72525138556576L134.27445005008153,88.10545061240482L134.35697890690395,124.92952953759205L134.6045654773712,128.31891199146702L134.9346809046609,78.05172481796963L135.01720976148331,64.77381913442532L135.18226747512819,49.822557663948096L135.34732518877303,-55.664034694265666L135.5949117592403,60.193373153060016L136.0075560433524,1.586292349669016L136.17261375699724,55.28731390247703L136.33767147064208,50.8983515073789L136.58525804110937,52.328128129320426L136.99790232522147,85.34856191560466L137.0804311820439,47.49057551889127L137.24548889568874,118.19516354797334L137.41054660933358,145.43665620133078L137.493075466156,1.2606366746078452L137.57560432297845,-47.20353884549402L137.82319089344568,109.44619134741806L138.23583517755782,191.6942754599506L138.40089289120266,144.193518298038L138.48342174802508,-80.00564614658359L138.81353717531476,-116.69102615918453L139.22618145942687,159.59471636937695L139.55629688671658,1.327955951144027L139.88641231400626,177.7852860136274L139.96894117082869,181.6649118225989L140.3815854549408,176.9438374627686L140.54664316858566,142.81083336528917L140.7117008822305,222.5782445433069L140.87675859587534,146.22547910042175L141.12434516634258,-79.16940291301287L141.20687402316503,-68.09889100635954L141.5369894504547,79.56060954093682L142.03216259138924,101.4538772136686L142.19722030503408,19.94829821767798L142.36227801867895,37.836270364263505L142.5273357323238,188.11608098794815L142.6098645891462,169.5594641027148L143.02250887325832,-68.47744797117119L143.43515315737042,180.76129630518764L143.6827397278377,148.1330635638571L143.84779744148256,148.3915483828343L144.0128551551274,-9.753941924485646L144.09538401194982,36.174130922932996L144.26044172559466,165.80921852222326L144.4254994392395,-10.519346196510726L144.6730860097068,119.22025060405413L144.8381437233516,54.29249401718534L144.92067258017403,45.43401932728484L145.00320143699645,47.433327630183335L145.0857302938189,124.74850959320538L145.66343229157584,203.44509371221076L145.8284900052207,-20.32446773350128L146.07607657568795,166.74098091824925L146.15860543251037,187.31395325546302L146.24113428933282,157.2714804295394L146.73630743026735,96.39002581946916L147.14895171437945,66.98373605900379L147.3965382848467,106.0361678492256L147.47906714166913,107.59687251293435L148.13929799624853,94.73706724325366L148.22182685307092,-53.39947784035374L148.30435570989337,30.543080169168384L148.38688456671576,72.99747834732007L148.5519422803606,68.246030802092L148.96458656447274,21.37584853283642L149.12964427811758,-22.24121185912989L149.21217313494,23.608876642115497L149.8724039895194,87.15661986437517L149.95493284634182,86.38279803241785L150.2850482736315,38.215569431336185L150.45010598727637,24.88584380705033L150.61516370092122,45.341807820621575L150.6976925577436,98.17285229136469L150.86275027138845,110.42735655110683L151.19286569867816,72.16059902609705L151.27539455550055,66.53928041341278L151.4404522691454,96.5026133339281L151.6055099827903,119.6998818968179L151.6880388396127,58.52249810797111L151.85309655325753,-22.214156930984956L151.93562541007995,84.57601225895196L152.01815426690237,95.92237417749057L152.1006831237248,85.55929775481509L152.43079855101448,118.73123701841878L152.51332740783693,107.69504204060759L152.76091397830416,94.36779715816574L152.8434428351266,75.47249540245976L152.92597169194903,31.061512808723087L153.2560871192387,117.20334387610838L153.33861597606113,2.430995549015457L153.503673689706,46.0044203280333L153.91631797381808,85.07453535498935L154.57654882839748,81.78341784193545L154.82413539886477,94.62392845282939L154.98919311250958,122.34910215700366L155.15425082615442,112.93892744333262L155.23677968297687,97.88911479259077L155.56689511026656,111.93289121243852L155.7319528239114,82.06058243496882L155.97953939437866,94.84783130644264L156.06206825120108,115.26420946511844L156.22712596484592,129.92246776001974L156.80482796260287,66.22901805953752L156.96988567624774,44.85530678121285L157.05241453307016,131.4734190797264L157.38252996035985,97.51051542193564L157.46505881718227,105.00422164796073L157.71264538764956,118.31908402410427L157.79517424447195,111.01452906295454L157.8777031012944,136.91964396465136L158.04276081493924,113.33328058484331L158.12528967176164,41.24222290148118L158.2903473854065,98.54277966702666L158.45540509905135,81.01300968037886L158.53793395587374,119.48638967778079L158.86804938316345,99.21266477659647L159.11563595363071,88.18453751050875L159.44575138092043,90.05215446645725L159.52828023774282,121.08701944313289L159.7758668082101,129.0660605478708L159.94092452185495,67.43277153569143L160.1059822354998,70.09176634280102L160.18851109232222,106.60279472990369L160.27103994914464,128.70274848379285L161.01379966054643,30.59665995241466L161.1788573741913,81.2255477679375L161.42644394465853,150.02385531327144L161.59150165830337,100.6241432770732L161.75655937194827,-16.164284864017446L162.33426136970522,39.25714175907269L162.4167902265276,78.37551463591736L162.6643767969949,83.5765913396419L162.7469056538173,30.810003750999563L162.82943451063974,52.848384220145086L163.24207879475185,73.02483011636942L163.4896653652191,74.17530065018146L163.65472307886398,59.48642533628226L163.90230964933122,42.94386338602016L163.98483850615366,107.78483641419207L164.06736736297606,87.4654616224936L164.39748279026577,110.89771156560774L164.4800116470882,103.20409359192236L164.64506936073303,82.18690944271766L164.8101270743779,103.01837720036947L164.8926559312003,-71.45832433327158L165.22277135848998,78.66408640084883L165.3053002153124,39.82499840921191L165.63541564260208,7.634128936149132L165.71794449942453,149.26572364340444L165.88300221306937,136.89791096986409L166.04805992671422,132.89118424650013L166.46070421082632,28.87082693416614L166.54323306764877,106.38084254509086L166.7082907812936,139.46467306738867L166.95587735176085,106.39059588909295L167.53357934951782,100.55150206717936L167.69863706316266,87.20612868664666L168.02875249045238,142.1729328631697L168.11128134727477,145.92939089973214L168.44139677456448,62.420952111450966L168.52392563138687,-71.26088272599443L169.01909877232143,246.13743107817L169.2666853427887,131.1696872257482L169.3492141996111,79.30621688585616L169.43174305643353,203.32678670961147L169.5968007700784,1.4336313131145249L169.6793296269008,138.00245597517932L169.76185848372324,162.0432085694153L169.84438734054564,68.13272238829377L170.17450276783535,123.389529526966L170.25703162465777,67.53049580200805L170.4220893383026,143.55285081463097L170.50461819512503,121.45855824084738L170.66967590876988,199.04833924337183L170.91726247923717,-8.848937615700182L170.99979133605956,19.20975804750214L171.32990676334927,-66.92742958002125L171.4124356201717,36.06058927699559L172.0726664747511,82.74535199560269L172.4853107588632,58.33947448747967L172.98048389979772,2.7156023675808645L173.0630127566201,-89.32322770099998L173.14554161344256,-47.157210461484084L173.55818589755467,35.84177512460082L173.88830132484435,9.796190866352113L174.3834744657789,71.31528094202004L174.7135898930686,-41.10252533128076L175.04370532035827,196.4722743639322L175.2087630340031,157.03575694705404L175.37382074764795,4.639152631089196L175.62140731811522,142.41261069056026L176.03405160222735,102.62003790957097L176.44669588633946,274.29524708756753L177.02439788409643,212.5435960777106L177.51957102503096,136.25439169348255L177.6846287386758,68.90327897030257L177.84968645232067,139.676575067295L178.0147441659655,41.06134077608585L178.0972730227879,116.9976331293512L178.3448595932552,152.17164767714092L179.08761930465698,-64.35420059136484L179.9954367297036,59.63535465860986L180.07796558652606,93.60898699480295L180.32555215699333,66.69616083139427L180.40808101381575,-151.16150656059725L180.73819644110543,98.068682336838L180.82072529792785,4.389339807105166L180.9857830115727,92.16123029522278L181.39842729568483,-67.49072760198558L181.6460138661521,144.82152763716402L182.05865815026422,91.65634632266229L182.14118700708661,147.69437511298037L182.22371586390906,108.17901993232881L182.3887735775539,161.8559867704186L182.4713024343763,89.21970655587866L182.8839467184884,98.0701877442818L182.96647557531085,160.08769490137837L183.2140621457781,155.23860790152065L183.29659100260054,53.277213312411L183.70923528671264,66.50111515427416L184.20440842764717,165.01966412233213L184.28693728446962,193.38452997551323L184.69958156858172,90.0129078583097L185.0296969958714,168.02266573327205L185.44234127998354,137.34188954971586L186.10257213456288,123.70852748459966L187.42303384372167,-30.091211982135775L187.5055627005441,145.0965507351013L187.9182069846562,91.06995831891909L188.99108212334767,162.65913224314744L189.07361098017012,126.65697397789309L189.48625526428222,113.55031369181161L189.65131297792706,66.66111240175196L189.8163706915719,146.93753682133973L189.89889954839435,84.69555433174283L189.98142840521675,15.486927844825182L190.31154383250643,-40.90669514605614L190.4766015461513,12.629834139864393L190.64165925979614,53.31264339464469L190.80671697344098,29.037821145819358L191.05430354390828,118.15891715325252L191.13683240073067,117.94326223619755L191.3018901143755,65.08774959376224L191.46694782802035,80.62845228871375L191.5494766848428,63.404301216079325L191.63200554166522,129.92755646123823L191.71453439848764,102.52606656040298L191.87959211213249,-12.753307234346524L191.9621209689549,114.49539152269263L192.04464982577733,181.74680810783386L192.2922363962446,102.13811670125888L192.952467250824,135.29004040673652L193.28258267811367,100.31447460500677L193.3651115349361,149.96414788564124L193.61269810540335,169.19189025136637L194.1078712463379,182.3864896553798L194.1904001031603,153.75366127720207L194.35545781680514,-42.83565215460911L194.76810210091728,-105.65007112544188L194.93315981456212,46.748600475392955L195.01568867138454,138.37834137185126L195.34580409867422,183.8715740986897L195.42833295549667,95.3855161989406L195.84097723960878,159.74668831097478L196.00603495325362,186.43308847308273L196.25362152372085,-55.93150955206218L196.9963812351227,58.94346091627012L197.0789100919451,104.83510714413315L197.24396780558993,26.770126259489366L197.40902551923477,116.36097299815374L197.65661208970207,147.73881643695512L197.7391409465245,70.78828232208089L198.4819006579263,21.895935000287132L198.97707379886083,-19.759240245658276L199.55477579661778,75.40680875089784L199.88489122390746,-10.999041098039728L199.96742008072988,-0.32625359745432675L200.29753550801956,100.35467534463278L201.04029521942138,156.26477630661037L201.3704106467111,116.69348781839899L201.45293950353349,157.3420649560241L201.53546836035594,39.566704416530406L201.94811264446804,92.11549559302166L202.44328578540257,88.19234018571042L202.69087235586986,122.37757768090542L202.77340121269225,58.75443686892522L202.8559300695147,110.4426120533014L203.10351663998196,76.1011408292381L203.2685743536268,78.95282778915426L203.43363206727165,67.29783614171465L203.51616092409407,146.87498820219588L203.5986897809165,122.32639382781618L203.92880520820617,146.5243766882424L204.093862921851,128.0731277226143L204.34144949231828,141.9873754935299L204.42397834914073,106.84525014004267L204.50650720596312,161.55845677105043L204.83662263325283,110.11787870533608L205.33179577418736,147.39942126860404L205.90949777194433,157.73529434268238L205.99202662876675,146.4609799522288L206.07455548558917,119.6103949655987L206.48719976970128,37.522827572126694L206.56972862652373,100.97492441440063L206.73478634016854,69.12031207727087L207.3950171947479,82.19488174129329L207.56007490839275,73.01859645737677L207.72513262203762,70.0094778035138L207.80766147886004,44.845807872271685L208.0552480493273,68.53642601829343L208.63295004708428,51.37609574010748L208.88053661755154,134.37272780187885L209.04559433119638,-17.446467947701223L209.21065204484123,81.40000540804449L209.62329632895336,-129.34802548238693L210.11846946988786,187.22535684695706L210.2009983267103,7.302684863451937L210.531113754,222.1861336107706L210.61364261082238,145.3322530146649L211.10881575175694,189.28901601734762L211.27387346540178,65.78280257144179L211.43893117904662,168.27993138424898L211.6865177495139,221.4685949345819L212.18169089044844,-84.68843863120563L212.34674860409328,3.9754587746685464L212.75939288820538,39.00544187505347L213.00697945867267,92.68367028698704L213.1720371723175,-92.82671367823858L213.50215259960717,24.383376967568616L213.58468145642962,45.123693364644346L213.99732574054173,120.1524688628976L214.3274411678314,1.8684820351556441L214.5750277382987,15.57831243754044L214.6575565951211,-16.802450402658707L214.82261430876594,93.41179982258673L215.15272973605565,104.52685906782354L215.23525859287807,140.62172710840213L215.4003163065229,142.4787744078614L215.48284516334533,88.21434881848036L215.97801830427986,172.1607445568381L216.0605471611023,43.4358559821605L216.22560487474715,72.57176608455048L216.39066258839196,125.85444338989483L216.63824915885925,96.13911044355446L216.7207780156817,126.12652988317059L216.88583572932654,108.60514565207241L217.13342229979378,54.39038790687591L217.4635377270835,-8.177737924982269L217.62859544072833,119.1753852216445L217.71112429755073,226.157006193466L217.8761820111956,110.77686551312964L217.95871086801802,-95.63745779626768L218.53641286577496,144.8932571214229L218.7014705794198,81.30921449713806L218.9490571498871,107.3957840031173L219.11411486353194,62.91714288609655L219.19664372035436,60.74182912980377L219.27917257717678,45.67479970660606L219.77434571811133,65.2473863915704L220.59963428633552,65.7146987868011L220.76469199998036,-14.96553527739505L221.1773362840925,68.35507742861974L221.34239399773733,-44.93143375144135L221.67250942502704,5.527215805401461L221.75503828184944,19.27014396862814L221.8375671386719,69.99696807968503L222.00262485231673,9.566732847242015L222.16768256596157,64.54198638807993L222.250211422784,-64.26336727461492L222.58032685007367,71.9735892563178L223.0754999910082,21.215278806471538L223.24055770465307,61.61027960150313L223.4056154182979,9.474563746422241L223.7357308455876,35.88615283981034L224.47849055698939,88.76365291209386L224.56101941381183,86.57216132651065L224.64354827063423,-5.224043708557276L224.9736636979239,20.296641019004888L225.38630798203604,40.832009974506214L225.46883683885846,26.209860255334384L225.5513656956809,35.58462608969348L225.8814811229706,15.567668570825113L225.964009979793,50.04569721237858L226.21159655026028,47.825708899971865L226.37665426390512,6.727767640372072L226.6242408343724,55.79838912818668L227.03688511848452,44.886432670332574L227.20194283212933,83.80159674518582L227.36700054577418,-74.14214776174302L227.44952940259662,-71.41892930467182L227.8621736867087,1.555548113140681L228.02723140035357,89.47600747391625L228.43987568446568,93.12570879949926L228.68746225493294,113.1907545448823L228.85251996857778,91.375534827089L229.01757768222262,59.64243643447225L229.43022196633476,47.65846025325772L229.67780853680202,82.46034232152415L229.84286625044686,93.98413028921387L230.0079239640917,50.08034278650775L230.09045282091415,105.98871571036325L230.3380393913814,25.10851689120245L230.4205682482038,-46.59758054498141L230.50309710502626,20.09133312776084L230.7506836754935,75.89977668143838L230.83321253231594,105.76788728040283L230.91574138913833,87.17629617575331L231.57597224371773,98.5481864120713L231.65850110054018,67.60693233489401L231.74102995736257,90.0446062263165L231.9060876710074,63.8022376513647L231.98861652782986,-27.423714803406966L232.31873195511955,-74.51760909998009L232.4837896687644,34.557217313681754L233.22654938016618,45.68582522591277L233.63919366427828,103.18636794934464L233.72172252110073,137.34715847576916L233.80425137792312,-13.608972344234447L233.96930909156802,46.35066404010758L234.3819533756801,85.96637264937199L234.46448223250252,126.87557610107042L234.54701108932497,109.34126868916947L234.62953994614736,126.5652607398908L234.7945976597922,86.61166236971913L234.95965537343704,93.82915813418931L235.28977080072676,59.38482093528655L235.61988622801644,127.73403999662851L235.70241508483886,58.40418580464138L235.86747279848373,77.28568445829224L236.11505936895097,100.85678173444485L236.2801170825958,-49.2921538547769L236.85781908035278,-109.09529147372885L237.2704633644649,1.5560993891060166L237.51804993493215,74.41323983798902L237.93069421904428,72.53851990325639L238.17828078951155,-50.24876607508648L238.26080964633397,34.534402969885555L238.3433385031564,12.056528338837047L238.67345393044607,-8.304828237913883L239.00356935773576,45.36407088845244L239.1686270713806,81.72710288178423L239.82885792596,54.13705539788243L239.91138678278242,47.15978873676813L239.99391563960484,43.70199505588716L240.32403106689452,123.820998382989L240.65414649418423,8.741875582647658L240.98426192147392,108.77527789614369L241.0667907782963,-23.188007126672147L241.39690620558602,71.90603674764243L241.47943506240844,129.8162411220839L241.56196391923086,45.67200092093589L241.64449277605328,86.9180445889153L241.974608203343,48.84489094234704L242.22219477381023,91.60675268870382L242.46978134427752,9.623493068749845L242.63483905792236,-13.397049141406372L242.7998967715672,63.35795162914764L243.13001219885692,53.61796546775367L243.54265648296902,74.77114515702233L243.62518533979144,77.8027389079336L243.70771419661386,82.22715258818717L243.8727719102587,132.0695498260108L243.9553007670811,169.3786031802412L244.120358480726,80.50992795616658L244.28541619437084,9.872542587551102L244.36794505119323,113.81732208532976L244.45047390801565,134.3995919037281L245.11070476259502,132.35158048958436L245.27576247623986,135.513179955167L245.52334904670715,131.49538530665285L245.60587790352957,115.85880299957644L245.688406760352,118.77285835380162L245.77093561717442,58.5181727119354L245.93599333081926,172.45497750187513L246.1010510444641,119.93894483947788L246.3486376149314,78.26981807102511L246.43116647175378,146.89328632366067L246.7612818990435,88.80179696831074L246.84381075586592,83.00004149158777L246.92633961268834,24.04438465473067L247.17392618315563,151.4649118895806L247.83415703773497,92.60390489538732L249.31967646053857,-3.5283400421065223L249.40220531736102,-56.002708963277456L249.81484960147313,34.90825288607011L249.89737845829555,-7.111782237240534L250.06243617194042,19.312189362445856L250.22749388558526,64.66545100139338L250.31002274240765,-42.737100974344486L250.55760931287494,14.169590316890385L250.8877247401646,108.05292615671915L250.97025359698705,55.621047890722544L251.1353113106319,65.32045165989912L251.30036902427673,96.27722627579278L251.38289788109915,116.00711743717348L251.79554216521126,1.625305725677386L251.87807102203368,118.98955221402203L252.12565759250097,104.39039706348122L252.20818644932336,82.27799719452851L252.53830187661308,46.888115700466365L252.6208307334355,145.43188554393845L252.70335959025792,98.08235822136267L253.19853273119244,159.0177954701923L253.36359044483729,-117.84616133578018L253.52864815848213,-12.419552043179268L254.60152329717366,150.25250762135528L254.68405215399605,9.439684940153889L254.84910986764092,126.6964220137972L255.261754151753,113.58576497696704L255.67439843586513,37.08782842963337L255.83945614950997,80.59117755228836L256.3346292904445,24.47601253266675L256.49968700408937,30.979902762931665L256.6647447177342,142.2857642112287L256.82980243137905,162.0892931198252L256.9123312882015,162.69891952579945L257.0773890018463,66.66590426206604L257.4900332859584,69.10373139246731L257.57256214278084,9.692550984869008L257.65509099960326,3.142629211498566L257.7376198564257,47.86404378248444L257.98520642689294,-55.72662571925301L258.0677352837154,23.105264844859626L258.3153218541826,60.52536850172255L258.39785071100505,78.71421010785089L258.4803795678275,35.296987253318726L258.5629084246499,-12.747391619180037L258.8930238519396,1.3926672683057364L258.97555270876205,-52.04090062962749L259.38819699287416,6.645945565363213L259.553254706519,12.949574199759077L259.9658989906311,60.025149171945664L260.0484278474535,151.01655490638876L260.21348556109837,131.6590506595923L260.3785432747432,-91.13281226013603L260.46107213156563,-77.40947559660052L260.62612984521047,6.0706254867702185L260.7911875588553,90.19671598690566L261.2038318429674,0.03648598773651943L261.4514184134347,-9.243354365976105L261.6164761270795,56.484261240751216L261.699004983902,106.3042151859092L262.0291204111917,92.19678759498693L262.4417646953038,113.07897274144962L263.01946669306074,-8.23871752791709L263.10199554988316,16.206130950370785L263.51463983399526,20.960250063738563L263.6796975476401,-6.98774514504001L264.0923418317522,32.29732510255344L264.1748706885747,35.712310084433916L264.25739954539705,44.13044249556169L264.3399284022195,130.24793260878522L265.0826881136213,143.26226477213385L265.4953323977334,175.42390601757296L265.7429189682007,-60.31809721992502L265.8254478250231,14.960798544677523L266.5682075364249,33.50152384006396L266.73326525006973,48.15431178115541L266.980851820537,41.47982284254085L267.14590953418184,65.10625974444447L267.6410826751164,95.67230691844561L268.21878467287337,73.69609341585256L268.3838423865182,49.44875015360703L268.46637124334063,27.79217069629994L268.6314289569855,156.44802255778012L268.87901552745274,149.5107022012309L269.2091309547424,136.60272389334858L269.4567175252097,133.5548675014599L269.5392463820321,127.74288161499562L269.70430409567695,140.0742782704412L269.8693618093218,126.26189993704311L269.95189066614427,118.23757999292157L270.4470638070788,191.84236726686933L270.5295926639012,172.0516767273886L270.69465037754605,207.71869101010154L270.8597080911909,-1.2063868790344556L271.10729466165816,61.30767150237734L271.6849966594151,100.00631134038413L272.0151120867048,89.17407786828626L272.0976409435272,52.76594726040566L272.3452275139945,21.05888605569016" fill="none"></path></g></g></g></g></g></g><g transform="translate(41, 177)" clip-path="url(#clip_1)"><clipPath id="clip_1"><rect width="288" height="22"></rect></clipPath><g><g><line x1="0" y1="0" x2="0" y2="5" style="visibility: inherit;" fill="rgb(0, 0, 0)" stroke="rgb(204, 204, 204)" stroke-width="1px"></line><line x1="41.264428411211284" y1="0" x2="41.264428411211284" y2="5" style="visibility: inherit;" fill="rgb(0, 0, 0)" stroke="rgb(204, 204, 204)" stroke-width="1px"></line><line x1="82.52885682242257" y1="0" x2="82.52885682242257" y2="5" style="visibility: inherit;" fill="rgb(0, 0, 0)" stroke="rgb(204, 204, 204)" stroke-width="1px"></line><line x1="123.79328523363385" y1="0" x2="123.79328523363385" y2="5" style="visibility: inherit;" fill="rgb(0, 0, 0)" stroke="rgb(204, 204, 204)" stroke-width="1px"></line><line x1="165.05771364484514" y1="0" x2="165.05771364484514" y2="5" style="visibility: inherit;" fill="rgb(0, 0, 0)" stroke="rgb(204, 204, 204)" stroke-width="1px"></line><line x1="206.32214205605644" y1="0" x2="206.32214205605644" y2="5" style="visibility: inherit;" fill="rgb(0, 0, 0)" stroke="rgb(204, 204, 204)" stroke-width="1px"></line><line x1="247.5865704672677" y1="0" x2="247.5865704672677" y2="5" style="visibility: inherit;" fill="rgb(0, 0, 0)" stroke="rgb(204, 204, 204)" stroke-width="1px"></line><line x1="288.850998878479" y1="0" x2="288.850998878479" y2="5" style="visibility: inherit;" fill="rgb(0, 0, 0)" stroke="rgb(204, 204, 204)" stroke-width="1px"></line></g><g transform="translate(0, 8)"><text style="text-anchor: middle; visibility: hidden; font-family: Roboto, sans-serif; font-size: 12px; font-weight: 200;" x="0" y="0" dx="0em" dy="0.95em" fill="rgb(50, 49, 63)" stroke="none" stroke-width="1px">-500</text><text style="text-anchor: middle; visibility: inherit; font-family: Roboto, sans-serif; font-size: 12px; font-weight: 200;" x="41.264428411211284" y="0" dx="0em" dy="0.95em" fill="rgb(50, 49, 63)" stroke="none" stroke-width="1px">0</text><text style="text-anchor: middle; visibility: inherit; font-family: Roboto, sans-serif; font-size: 12px; font-weight: 200;" x="82.52885682242257" y="0" dx="0em" dy="0.95em" fill="rgb(50, 49, 63)" stroke="none" stroke-width="1px">500</text><text style="text-anchor: middle; visibility: inherit; font-family: Roboto, sans-serif; font-size: 12px; font-weight: 200;" x="123.79328523363385" y="0" dx="0em" dy="0.95em" fill="rgb(50, 49, 63)" stroke="none" stroke-width="1px">1k</text><text style="text-anchor: middle; visibility: inherit; font-family: Roboto, sans-serif; font-size: 12px; font-weight: 200;" x="165.05771364484514" y="0" dx="0em" dy="0.95em" fill="rgb(50, 49, 63)" stroke="none" stroke-width="1px">1.5k</text><text style="text-anchor: middle; visibility: inherit; font-family: Roboto, sans-serif; font-size: 12px; font-weight: 200;" x="206.32214205605644" y="0" dx="0em" dy="0.95em" fill="rgb(50, 49, 63)" stroke="none" stroke-width="1px">2k</text><text style="text-anchor: middle; visibility: inherit; font-family: Roboto, sans-serif; font-size: 12px; font-weight: 200;" x="247.5865704672677" y="0" dx="0em" dy="0.95em" fill="rgb(50, 49, 63)" stroke="none" stroke-width="1px">2.5k</text><text style="text-anchor: middle; visibility: hidden; font-family: Roboto, sans-serif; font-size: 12px; font-weight: 200;" x="288.850998878479" y="0" dx="0em" dy="0.95em" fill="rgb(50, 49, 63)" stroke="none" stroke-width="1px">3k</text></g><line x1="0" y1="0" x2="288.850998878479" y2="0" fill="rgb(0, 0, 0)" stroke="rgb(204, 204, 204)" stroke-width="1px"></line></g></g></g></g></svg>