<svg viewBox="0 0 330 200" xmlns="http://www.w3.org/2000/svg"><g><g><g><g><g><line x1="41.149001121520996" y1="177.86299896240234" x2="36.149001121520996" y2="177.86299896240234" style="visibility: inherit;" fill="rgb(0, 0, 0)" stroke="rgb(204, 204, 204)" stroke-width="1px"></line><line x1="41.149001121520996" y1="160.07669906616212" x2="36.149001121520996" y2="160.07669906616212" style="visibility: inherit;" fill="rgb(0, 0, 0)" stroke="rgb(204, 204, 204)" stroke-width="1px"></line><line x1="41.149001121520996" y1="142.29039916992187" x2="36.149001121520996" y2="142.29039916992187" style="visibility: inherit;" fill="rgb(0, 0, 0)" stroke="rgb(204, 204, 204)" stroke-width="1px"></line><line x1="41.149001121520996" y1="124.50409927368163" x2="36.149001121520996" y2="124.50409927368163" style="visibility: inherit;" fill="rgb(0, 0, 0)" stroke="rgb(204, 204, 204)" stroke-width="1px"></line><line x1="41.149001121520996" y1="106.71779937744138" x2="36.149001121520996" y2="106.71779937744138" style="visibility: inherit;" fill="rgb(0, 0, 0)" stroke="rgb(204, 204, 204)" stroke-width="1px"></line><line x1="41.149001121520996" y1="88.93149948120117" x2="36.149001121520996" y2="88.93149948120117" style="visibility: inherit;" fill="rgb(0, 0, 0)" stroke="rgb(204, 204, 204)" stroke-width="1px"></line><line x1="41.149001121520996" y1="71.14519958496092" x2="36.149001121520996" y2="71.14519958496092" style="visibility: inherit;" fill="rgb(0, 0, 0)" stroke="rgb(204, 204, 204)" stroke-width="1px"></line><line x1="41.149001121520996" y1="53.35889968872067" x2="36.149001121520996" y2="53.35889968872067" style="visibility: inherit;" fill="rgb(0, 0, 0)" stroke="rgb(204, 204, 204)" stroke-width="1px"></line><line x1="41.149001121520996" y1="35.57259979248046" x2="36.149001121520996" y2="35.57259979248046" style="visibility: inherit;" fill="rgb(0, 0, 0)" stroke="rgb(204, 204, 204)" stroke-width="1px"></line><line x1="41.149001121520996" y1="17.786299896240212" x2="36.149001121520996" y2="17.786299896240212" style="visibility: inherit;" fill="rgb(0, 0, 0)" stroke="rgb(204, 204, 204)" stroke-width="1px"></line><line x1="41.149001121520996" y1="0" x2="36.149001121520996" y2="0" style="visibility: inherit;" fill="rgb(0, 0, 0)" stroke="rgb(204, 204, 204)" stroke-width="1px"></line></g><g transform="translate(31.149001121520996, 0)"><text style="text-anchor: end; visibility: hidden; font-family: Roboto, sans-serif; font-size: 12px; font-weight: 200;" x="0" y="177.86299896240234" dx="0em" dy="0.3em" fill="rgb(50, 49, 63)" stroke="none" stroke-width="1px">0.9</text><text style="text-anchor: end; visibility: inherit; font-family: Roboto, sans-serif; font-size: 12px; font-weight: 200;" x="0" y="160.07669906616212" dx="0em" dy="0.3em" fill="rgb(50, 49, 63)" stroke="none" stroke-width="1px">1</text><text style="text-anchor: end; visibility: hidden; font-family: Roboto, sans-serif; font-size: 12px; font-weight: 200;" x="0" y="142.29039916992187" dx="0em" dy="0.3em" fill="rgb(50, 49, 63)" stroke="none" stroke-width="1px">1.1</text><text style="text-anchor: end; visibility: inherit; font-family: Roboto, sans-serif; font-size: 12px; font-weight: 200;" x="0" y="124.50409927368163" dx="0em" dy="0.3em" fill="rgb(50, 49, 63)" stroke="none" stroke-width="1px">1.2</text><text style="text-anchor: end; visibility: hidden; font-family: Roboto, sans-serif; font-size: 12px; font-weight: 200;" x="0" y="106.71779937744138" dx="0em" dy="0.3em" fill="rgb(50, 49, 63)" stroke="none" stroke-width="1px">1.3</text><text style="text-anchor: end; visibility: inherit; font-family: Roboto, sans-serif; font-size: 12px; font-weight: 200;" x="0" y="88.93149948120117" dx="0em" dy="0.3em" fill="rgb(50, 49, 63)" stroke="none" stroke-width="1px">1.4</text><text style="text-anchor: end; visibility: hidden; font-family: Roboto, sans-serif; font-size: 12px; font-weight: 200;" x="0" y="71.14519958496092" dx="0em" dy="0.3em" fill="rgb(50, 49, 63)" stroke="none" stroke-width="1px">1.5</text><text style="text-anchor: end; visibility: inherit; font-family: Roboto, sans-serif; font-size: 12px; font-weight: 200;" x="0" y="53.35889968872067" dx="0em" dy="0.3em" fill="rgb(50, 49, 63)" stroke="none" stroke-width="1px">1.6</text><text style="text-anchor: end; visibility: hidden; font-family: Roboto, sans-serif; font-size: 12px; font-weight: 200;" x="0" y="35.57259979248046" dx="0em" dy="0.3em" fill="rgb(50, 49, 63)" stroke="none" stroke-width="1px">1.7</text><text style="text-anchor: end; visibility: inherit; font-family: Roboto, sans-serif; font-size: 12px; font-weight: 200;" x="0" y="17.786299896240212" dx="0em" dy="0.3em" fill="rgb(50, 49, 63)" stroke="none" stroke-width="1px">1.8</text><text style="text-anchor: end; visibility: hidden; font-family: Roboto, sans-serif; font-size: 12px; font-weight: 200;" x="0" y="0" dx="0em" dy="0.3em" fill="rgb(50, 49, 63)" stroke="none" stroke-width="1px">1.9</text></g><line x1="41.149001121520996" y1="0" x2="41.149001121520996" y2="177.86299896240234" fill="rgb(0, 0, 0)" stroke="rgb(204, 204, 204)" stroke-width="1px"></line></g></g><g transform="translate(41, 0)" clip-path="url(#clip_0)"><clipPath id="clip_0"><rect width="288" height="177"></rect></clipPath><g><g><g><line x1="0" y1="0" x2="0" y2="177.86299896240234" fill="rgb(0, 0, 0)" stroke="rgb(60, 60, 60)" stroke-width="1px" opacity="0.25"></line><line x1="41.264428411211284" y1="0" x2="41.264428411211284" y2="177.86299896240234" fill="rgb(0, 0, 0)" stroke="rgb(60, 60, 60)" stroke-width="1px" opacity="0.25"></line><line x1="82.52885682242257" y1="0" x2="82.52885682242257" y2="177.86299896240234" fill="rgb(0, 0, 0)" stroke="rgb(60, 60, 60)" stroke-width="1px" opacity="0.25"></line><line x1="123.79328523363385" y1="0" x2="123.79328523363385" y2="177.86299896240234" fill="rgb(0, 0, 0)" stroke="rgb(60, 60, 60)" stroke-width="1px" opacity="0.25"></line><line x1="165.05771364484514" y1="0" x2="165.05771364484514" y2="177.86299896240234" fill="rgb(0, 0, 0)" stroke="rgb(60, 60, 60)" stroke-width="1px" opacity="0.25"></line><line x1="206.32214205605644" y1="0" x2="206.32214205605644" y2="177.86299896240234" fill="rgb(0, 0, 0)" stroke="rgb(60, 60, 60)" stroke-width="1px" opacity="0.25"></line><line x1="247.5865704672677" y1="0" x2="247.5865704672677" y2="177.86299896240234" fill="rgb(0, 0, 0)" stroke="rgb(60, 60, 60)" stroke-width="1px" opacity="0.25"></line><line x1="288.850998878479" y1="0" x2="288.850998878479" y2="177.86299896240234" fill="rgb(0, 0, 0)" stroke="rgb(60, 60, 60)" stroke-width="1px" opacity="0.25"></line></g><g><line x1="0" y1="177.86299896240234" x2="288.850998878479" y2="177.86299896240234" fill="rgb(0, 0, 0)" stroke="rgb(60, 60, 60)" stroke-width="1px" opacity="0.25"></line><line x1="0" y1="160.07669906616212" x2="288.850998878479" y2="160.07669906616212" fill="rgb(0, 0, 0)" stroke="rgb(60, 60, 60)" stroke-width="1px" opacity="0.25"></line><line x1="0" y1="142.29039916992187" x2="288.850998878479" y2="142.29039916992187" fill="rgb(0, 0, 0)" stroke="rgb(60, 60, 60)" stroke-width="1px" opacity="0.25"></line><line x1="0" y1="124.50409927368163" x2="288.850998878479" y2="124.50409927368163" fill="rgb(0, 0, 0)" stroke="rgb(60, 60, 60)" stroke-width="1px" opacity="0.25"></line><line x1="0" y1="106.71779937744138" x2="288.850998878479" y2="106.71779937744138" fill="rgb(0, 0, 0)" stroke="rgb(60, 60, 60)" stroke-width="1px" opacity="0.25"></line><line x1="0" y1="88.93149948120117" x2="288.850998878479" y2="88.93149948120117" fill="rgb(0, 0, 0)" stroke="rgb(60, 60, 60)" stroke-width="1px" opacity="0.25"></line><line x1="0" y1="71.14519958496092" x2="288.850998878479" y2="71.14519958496092" fill="rgb(0, 0, 0)" stroke="rgb(60, 60, 60)" stroke-width="1px" opacity="0.25"></line><line x1="0" y1="53.35889968872067" x2="288.850998878479" y2="53.35889968872067" fill="rgb(0, 0, 0)" stroke="rgb(60, 60, 60)" stroke-width="1px" opacity="0.25"></line><line x1="0" y1="35.57259979248046" x2="288.850998878479" y2="35.57259979248046" fill="rgb(0, 0, 0)" stroke="rgb(60, 60, 60)" stroke-width="1px" opacity="0.25"></line><line x1="0" y1="17.786299896240212" x2="288.850998878479" y2="17.786299896240212" fill="rgb(0, 0, 0)" stroke="rgb(60, 60, 60)" stroke-width="1px" opacity="0.25"></line><line x1="0" y1="0" x2="288.850998878479" y2="0" fill="rgb(0, 0, 0)" stroke="rgb(60, 60, 60)" stroke-width="1px" opacity="0.25"></line></g></g></g><g><g><line x1="0" y1="337.93969802856446" x2="288.850998878479" y2="337.93969802856446" fill="rgb(0, 0, 0)" stroke="rgb(153, 153, 153)" stroke-width="1.5px"></line></g></g><g><g><line x1="41.264428411211284" y1="0" x2="41.264428411211284" y2="177.86299896240234" fill="rgb(0, 0, 0)" stroke="rgb(153, 153, 153)" stroke-width="1.5px"></line></g></g><g><g><g><g><g><path style="fill: none;" stroke="rgb(255, 112, 67)" stroke-width="2px" d="M42.74994783401489,191.0088648851032L42.91500554765974,124.86345213869483L43.16259211812701,180.9574425285297L44.152938399996074,235.03163758826435L44.730640397753035,164.58250434301178L45.060755825042726,167.52104116089382L45.14328468186515,157.1818093939357L45.225813538687575,123.51858219716934L45.47340010915484,138.4708254867392L46.21615982055664,154.36657017858022L46.29868867737906,118.18931104660696L46.38121753420148,96.4843664967828L46.62880410466875,114.21546113943619L46.87639067513602,145.44703675697616L47.20650610242571,124.23885304575987L47.5366215297154,131.4921057803414L47.619150386537825,135.43041613293568L47.701679243360246,153.25054656367124L47.86673695700509,135.56364445038628L48.03179467064994,104.26987535777728L48.11432352747236,99.2066548163574L48.27938124111721,94.4881288495229L48.36191009793963,86.72050663602708L48.52696781158448,94.05659045053213L48.69202552522932,98.92942019622504L49.26972752298627,102.55845430965495L49.51731409345354,111.4682604636305L49.59984295027596,122.39476159965562L49.76490066392081,157.6164867515404L50.0950160912105,125.09461206533636L50.507660375322615,137.0276508942036L50.59018923214504,94.21071183449708L51.58053551401411,91.38798436588985L51.66306437083653,105.66464298626002L51.99317979812622,110.73021387773555L52.24076636859349,84.69349791175567L52.40582408223834,73.81006691019856L52.570881795883174,85.00945893355514L53.313641507284984,87.76638680944188L53.80881464821952,132.01698008677684L54.221458932331636,135.51743203604462L54.30398778915405,129.9405238570555L54.55157435962132,184.27961184354308L54.71663207326616,170.59181542233475L54.88168978691101,133.46005702611433L55.37686292784555,126.21076091579596L55.45939178466797,142.58726824562424L56.20215149606977,135.41637626014696L56.367209209714616,139.14163193127507L56.53226692335946,151.22407524170714L56.77985349382673,142.75497570367352L57.52261320522854,159.84447831966364L57.7701997756958,150.64968966467364L57.85272863251822,125.9351737736617L58.017786346163064,115.80917898894722L58.265372916630334,148.2720466041052L58.843074914387294,112.84397016340964L59.00813262803214,143.6126316074342L59.090661484854564,155.3510435200865L59.42077691214425,147.14891853657414L59.50330576896667,102.75052571488766L59.5858346257891,128.24133266763369L59.66836348261152,168.15963493942326L59.91595005307879,106.56443467507248L59.99847890990121,152.41874329738675L60.3285943371909,161.72348904676468L60.41112319401332,138.31022149764186L60.49365205083575,155.82722019135755L60.90629633494786,140.43482765357766L61.07135404859271,194.75592184393994L61.153882905415124,185.41100139750782L61.483998332704815,176.59826489544423L61.896642616816926,139.45464942950036L61.979171473639354,131.81958881962342L62.144229187284196,147.4242682673079L62.309286900929045,165.08928349270496L62.391815757751466,185.79407583584353L62.47434461457389,198.2169512417266L62.72193118504115,157.09615247923176L62.886988898686,156.13683431415447L63.13457546915327,163.38165698111285L63.29963318279811,172.99962661085704L63.54721975326538,143.15449526768504L63.6297486100878,137.56828162599737L63.95986403737749,133.7317019888877L64.04239289419992,110.77976225617421L64.12492175102234,154.93004458009614L64.20745060784476,122.97959306908355L64.45503717831203,146.34781112826315L64.53756603513445,126.9839020426467L64.95021031924657,79.6319333299062L65.61044117382595,118.71811621875328L65.77549888747079,127.37695454759393L65.85802774429321,127.33099706388515L66.02308545793805,148.86677278406006L66.18814317158291,173.63753767904802L66.27067202840533,133.71787200819736L66.51825859887259,109.03208682310162L66.60078745569501,95.0942015313899L66.68331631251743,112.61268108408588L66.84837402616229,130.6693034636388L67.34354716709682,160.35186861047524L67.42607602391924,132.27676691605816L67.50860488074166,183.31463666663942L67.92124916485378,183.48311434934146L68.08630687849862,144.79673784118725L68.16883573532104,94.11357537065142L68.3338934489659,114.61587066302313L69.15918201719012,157.26682590319737L69.32423973083496,123.23442265440598L69.57182630130222,130.84952624046747L69.8194128717695,110.91438869527158L69.98447058541434,135.60104251349128L70.2320571558816,102.70722842691168L70.39711486952646,122.42195276929213L70.56217258317129,117.528170213011L70.72723029681615,134.26925524112656L70.97481686728341,153.29946277965925L71.05734572410583,70.8007678089325L71.22240343775069,114.07035508486872L71.80010543550765,84.26989898790714L71.88263429233007,91.33382805858788L71.96516314915249,94.44805747715861L72.04769200597491,107.51155122325237L72.87298057419913,128.05381057323768L73.12056714466641,138.76241795676722L73.20309600148883,145.6357358220281L73.53321142877851,161.3754588587236L73.94585571289063,175.93041810926005L74.11091342653546,174.55709734097542L74.2759711401803,176.51448719200312L74.52355771064758,150.60442760360553L74.77114428111484,93.97511877222945L75.26631742204938,110.40747991900139L75.3488462788718,108.87611880805733L75.51390399251666,119.0516122075093L75.59643284933908,85.75453495533228L76.0916059902736,105.98963972789525L76.17413484709604,166.05774449500228L76.4217214175633,154.02205940989822L76.751836844853,112.96418620457123L76.83436570167542,126.30855976708834L76.91689455849784,148.09618403410826L76.99942341532027,171.64329029543347L77.41206769943238,124.77233417420962L77.65965426989963,97.31832254872828L77.74218312672205,85.05590834668357L77.82471198354447,130.0636549025695L78.2373562676566,135.47361046677946L78.65000055176871,172.5333800362259L78.81505826541355,116.6756030242212L78.89758712223598,128.80568774292936L78.9801159790584,165.48493115223246L79.06264483588082,168.8158878204787L79.22770254952567,174.58686869572452L79.88793340410506,126.77361313535292L80.21804883139474,149.5521860004743L80.30057768821717,117.7625002890504L81.12586625644138,146.8442897809935L81.5385105405535,160.70500644376517L81.70356825419834,117.59675208585287L81.78609711102077,94.9192346968328L81.86862596784319,113.84158527141518L81.95115482466561,139.48738053404136L82.2812702519553,125.19488485786862L82.69391453606742,75.1864103449246L82.77644339288985,74.54722807228622L83.02402996335711,81.49468826976117L83.43667424746923,67.8960573767683L83.51920310429165,65.02148657519851L83.84931853158133,108.62478273749788L83.93184738840377,146.9178255248123L84.01437624522619,137.10775140949224L84.17943395887103,121.0447370429377L84.42702052933828,142.64921310193034L84.75713595662798,134.39665385552914L84.8396648134504,89.39169658194751L85.1697802407401,113.44071009613212L85.25230909756252,107.31057791835376L85.66495338167464,124.47720123309097L85.83001109531948,102.75998312145734L86.2426553794316,112.87215791108738L86.32518423625402,54.0846188052888L86.40771309307644,91.59322755682594L86.6552996635437,114.10822248226856L86.73782852036612,154.2068282618822L86.82035737718854,172.3615123376636L87.06794394765582,86.6009481944381L87.15047280447824,83.69915632166061L87.23300166130066,139.08032987284395L87.31553051812308,144.43925213250344L87.72817480223519,171.45848964227562L87.89323251588003,182.92392349860592L87.97576137270245,126.43132730717689L88.05829022952489,114.75794122772359L88.1408190863473,148.99837575065328L88.38840565681457,150.03802634655702L88.55346337045941,151.37200432731942L88.80104994092669,151.13347339384268L88.88357879774911,123.20101684780158L89.29622308186123,94.79247960965687L89.37875193868365,168.59365868596817L89.62633850915091,142.008807641087L89.79139622279575,118.62472937029575L90.20404050690787,132.05761275021388L90.36909822055271,142.01353703203944L90.61668479101999,143.72976542539007L90.78174250466483,128.7166848954682L90.86427136148725,146.05903897187088L90.94680021830968,168.06205523716065L91.02932907513211,173.43790474600158L91.19438678877695,165.18318576604665L91.27691564559936,135.5423253497232L91.4419733592442,114.17037651492294L91.60703107288904,136.18253053048335L91.68955992971148,112.86578868051933L91.7720887865339,126.42211303565075L92.01967535700116,141.8359393105906L92.26726192746844,171.84229831812968L92.67990621158054,162.6771180993217L93.01002163887024,127.51477472071291L93.09255049569266,125.93793188972167L93.2576082093375,126.9508998297246L93.50519477980478,188.7006936685204L93.83531020709447,178.80454909204948L93.91783906391689,177.80502282026987L94.08289677756174,116.57053147928211L94.16542563438416,153.81309822205412L94.24795449120658,110.24422492042814L94.330483348029,115.98636197190677L94.6605987753187,110.25568968445664L94.74312763214111,115.0957381152513L94.90818534578595,95.43124157105667L94.99071420260837,93.76397814716566L95.32082962989807,108.46243297522521L95.98106048447745,143.22443406439547L96.31117591176714,140.08987571493475L96.39370476858957,136.21150319259323L96.64129133905683,150.2173532145741L96.72382019587926,144.2860767069829L96.80634905270168,157.3376076064926L96.97140676634652,174.43989805296667L97.05393562316895,164.85020646170528L97.2189933368138,157.87618880410582L97.38405105045864,155.35263699440333L97.46657990728106,139.36897906070533L97.63163762092591,141.835427135101L97.79669533457076,148.42027256095193L98.044281905038,150.5534618165455L98.29186847550528,168.07104778665837L98.62198390279497,172.1950461073907L98.70451275961739,156.54393662095012L99.28221475737435,136.23324039863166L99.4472724710192,133.7665388334476L99.52980132784162,145.6283122216795L99.94244561195373,81.90152107464756L100.27256103924343,105.63648097964726L100.43761875288827,148.57460224364203L100.76773418017797,118.53889928814083L101.18037846429009,135.5601611653495L101.59302274840218,124.33500456631019L101.6755516052246,103.31685921516141L101.75808046204703,68.95121453832314L102.0056670325143,90.04051915264668L102.17072474615914,91.15516658625742L102.33578245980398,96.56042484773215L102.41831131662641,105.00629337390015L102.58336903027126,116.062164158837L102.83095560073852,95.27718774514108L102.91348445756094,109.06682618749664L102.99601331438338,79.85708341652737L103.16107102802822,78.8872169130873L103.32612874167306,79.0123381206567L103.40865759849548,61.3737267153458L103.57371531214034,74.00528268022853L103.73877302578518,71.81149278659193L104.06888845307486,69.36178698451113L104.23394616671972,42.9223003059752L104.5640615940094,75.93397208033075L104.64659045083182,96.07466672734607L104.8941770212991,102.13431570793229L105.05923473494393,65.92059610953639L105.30682130541119,92.81230925548286L105.47187901905605,100.55293928252286L105.63693673270089,127.25486944973301L105.88452330316815,144.22133013191063L106.13210987363543,144.16837118564442L106.21463873045785,141.8753466197648L106.62728301456997,147.70192692384134L107.03992729868207,133.92522871104075L107.37004272597177,149.3745250926291L107.45257158279419,151.54622980100547L107.53510043961661,142.88567741426587L107.70015815326146,116.81002323019477L107.78268701008389,111.94356004658641L107.86521586690631,123.98748301481781L108.2778601510184,95.53298336602165L108.52544672148568,115.21436105579443L108.6079755783081,125.65126533998638L108.69050443513052,143.1229643373656L108.77303329195294,82.05054578035106L108.9380910055978,118.82551883942406L109.18567757606506,114.86386534748934L109.43326414653232,133.81635099531152L110.17602385793414,125.13958087147404L110.4236104284014,101.21779306688151L111.00131242615836,103.2743824208987L111.08384128298079,95.84277824718554L111.1663701398032,122.21218122418722L111.4964855670929,79.56650762654724L111.66154328073775,112.20259373292062L111.82660099438257,130.9026660759016L111.90912985120502,113.34903857553797L112.23924527849469,89.00824726053119L112.73441841942923,58.494779266472236L112.89947613307407,19.80422802381358L113.14706270354135,15.143081410421424L113.22959156036377,12.648823436969243L113.47717813083104,51.2539651908649L113.72476470129831,110.67536100604204L113.88982241494315,131.5216554467404L114.054880128588,128.74105690671072L114.46752441270012,148.48825514737095L114.55005326952254,99.8086400365135L114.7976398399898,68.51357902303297L115.1277552672795,74.31332395349045L115.29281298092432,83.32737095958878L115.62292840821402,91.06559316678066L115.70545726503644,85.04947848380026L115.9530438355037,78.23435196480258L116.11810154914856,86.65238768221596L116.20063040597098,77.65034512055685L116.44821697643825,83.82958720165634L116.53074583326067,75.81205242476051L116.77833240372794,91.25747144904875L116.86086126055037,86.70049421726104L116.94339011737279,97.3161677969621L117.43856325830733,105.65841900134511L117.85120754241943,86.43585257863094L118.01626525606429,106.88353618903241L118.09879411288671,103.47271294335289L119.25419810840062,70.81318614736004L119.33672696522304,51.864685015405826L119.50178467886788,61.000904511039444L120.07948667662484,82.61427705412054L120.16201553344726,67.20177424878823L120.24454439026968,94.12971382908559L120.57465981755938,107.52441536755843L120.6571886743818,92.29528722364017L120.9873041016715,94.32568606058952L121.31741952896118,58.798091579682605L121.3999483857836,81.26610260546423L121.56500609942846,115.85150877590273L121.7300638130733,123.25073834254302L121.81259266989572,107.18522730511931L121.89512152671814,120.684847286085L121.97765038354055,103.96786306782367L122.63788123811993,95.4078746494049L122.96799666540963,105.21967851141794L123.13305437905447,108.72522321486963L123.38064094952175,108.70943674502165L123.79328523363385,115.41370040987498L124.28845837456839,114.80923828951948L124.37098723139081,105.57651377271797L124.45351608821325,97.61640440339089L124.61857380185809,117.44319991408508L124.86616037232535,104.41802453413936L125.69144894054958,109.6580501315397L125.85650665419442,52.512906017650636L126.02156436783926,79.89865625113288L126.26915093830654,49.036480571823645L126.5167375087738,63.25762281308446L126.68179522241864,59.86151046017215L126.76432407924106,94.00206613525432L127.17696836335318,87.01162810133785L127.2594972201756,117.27006915281079L127.50708379064288,63.514847970534674L127.5896126474653,47.86524833319721L127.67214150428772,94.60733178865993L127.91972807475499,126.27588130936532L128.0022569315774,113.39621307630534L128.3323723588671,140.8034938793534L128.49743007251195,174.82173866564122L128.99260321344647,78.61712057671511L129.1576609270913,92.19972466034082L129.4052474975586,7.942323433452931L129.7353629248483,69.50859363114861L130.06547835213797,49.22869237125702L130.23053606578281,57.522504026529305L130.56065149307253,147.73719527567025L130.64318034989495,127.74199924267128L131.05582463400705,118.81111246674368L131.2208823476519,104.1786514220566L132.21122862952097,94.80244824685897L132.54134405681066,95.34782823406954L132.62387291363308,48.62708745831956L132.7064017704555,85.30097322738477L132.95398834092276,89.47475853548897L133.1190460545676,111.59527746177041L133.36663262503487,116.8135402568409L133.69674805232458,100.11192102249784L133.86180576596942,107.90456722250681L133.9443346227918,118.45958944333532L134.27445005008153,113.02186861917842L134.35697890690395,119.15058688443129L134.6045654773712,130.10037759582153L134.9346809046609,111.07737558714061L135.01720976148331,95.22111277469025L135.18226747512819,83.37356645323067L135.34732518877303,34.91418470961217L135.5949117592403,47.28907182754782L136.0075560433524,32.514765543063106L136.17261375699724,46.07694464026546L136.33767147064208,50.10154681147147L136.58525804110937,53.546150985623L136.99790232522147,72.80792326710376L137.0804311820439,62.35938164327811L137.24548889568874,89.5113111804451L137.41054660933358,117.29685265856084L137.493075466156,75.11712744328781L137.57560432297845,28.698476062499225L137.82319089344568,65.75790137895726L138.23583517755782,121.36916049724466L138.40089289120266,133.46545019703115L138.48342174802508,53.99817690286736L138.81353717531476,-11.329463652582225L139.22618145942687,59.55999241219391L139.55629688671658,39.37978709455095L139.88641231400626,99.28137021718115L139.96894117082869,132.93724304918382L140.3815854549408,151.8030270670432L140.54664316858566,148.12637062487198L140.7117008822305,180.3289955165026L140.87675859587534,169.8845010337001L141.12434516634258,70.61732000033751L141.20687402316503,17.2890759132466L141.5369894504547,47.486591962377034L142.03216259138924,66.69946919473354L142.19722030503408,50.998293175721386L142.36227801867895,50.56533646808579L142.5273357323238,107.86408667673658L142.6098645891462,134.9728167707603L143.02250887325832,57.55913635587655L143.43515315737042,110.74187140194906L143.6827397278377,128.34772458040206L143.84779744148256,140.70865056952906L144.0128551551274,85.59488938120036L144.09538401194982,71.35358044479187L144.26044172559466,114.83289451738456L144.4254994392395,68.59937781724352L144.6730860097068,88.13013015977347L144.8381437233516,79.14284289299526L144.92067258017403,71.41928561772912L145.00320143699645,66.74821576289193L145.0857302938189,94.06443444207916L145.66343229157584,142.77032742782205L145.8284900052207,78.80991423432296L146.07607657568795,121.8414065521201L146.15860543251037,152.49227394422462L146.24113428933282,153.73014804014127L146.73630743026735,131.84818459590514L147.14895171437945,113.38965214908973L147.3965382848467,112.80680698702885L147.47906714166913,114.50659126787376L148.13929799624853,112.03128740446564L148.22182685307092,51.40352329147138L148.30435570989337,46.06009717537619L148.38688456671576,64.23414334465731L148.5519422803606,69.58552584155639L148.96458656447274,51.65900151121664L149.12964427811758,21.170316394859338L149.21217313494,26.14827879196453L149.8724039895194,54.67826694185031L149.95493284634182,64.47215153619999L150.2850482736315,56.96854814983491L150.45010598727637,44.83520014740476L150.61516370092122,45.546614956982886L150.6976925577436,68.96972870748952L150.86275027138845,89.47782570475037L151.19286569867816,85.23858686131052L151.27539455550055,82.08990368751329L151.4404522691454,92.18930068255833L151.6055099827903,104.32765540129296L151.6880388396127,91.60879871277814L151.85309655325753,48.009204462776935L151.93562541007995,65.78782162143064L152.01815426690237,75.49138697272218L152.1006831237248,79.89215864031915L152.43079855101448,99.94560593456093L152.51332740783693,108.49084534918924L152.76091397830416,107.33601278725503L152.8434428351266,91.1444559489607L152.92597169194903,71.94233387995568L153.2560871192387,91.83870196146695L153.33861597606113,61.08329492170123L153.503673689706,57.4831638435675L153.91631797381808,71.12429122876597L154.57654882839748,78.52121126775779L154.82413539886477,87.3917068641386L154.98919311250958,100.5433442180259L155.15425082615442,103.68671257338147L155.23677968297687,99.30579448798422L155.56689511026656,105.38744629489281L155.7319528239114,95.88199206822277L155.97953939437866,99.68990072449434L156.06206825120108,104.12626752979367L156.22712596484592,117.73134806448972L156.80482796260287,97.41748157187963L156.96988567624774,74.13396108758192L157.05241453307016,99.03804882704772L157.38252996035985,100.52073408680302L157.46505881718227,103.97184477500402L157.71264538764956,111.88597705230175L157.79517424447195,113.76173191981019L157.8777031012944,123.13808132648191L158.04276081493924,118.2142754828929L158.12528967176164,84.96032983035724L158.2903473854065,85.89353581219319L158.45540509905135,85.84697102773856L158.53793395587374,97.03871933993895L158.86804938316345,99.54987351430856L159.11563595363071,95.75447859601894L159.44575138092043,87.75110426842883L159.52828023774282,103.96773106326411L159.7758668082101,114.15195853560184L159.94092452185495,92.35191872651914L160.1059822354998,79.51101291132605L160.18851109232222,86.62267252176456L160.27103994914464,106.68629448900968L161.01379966054643,80.12561726224446L161.1788573741913,81.63957173031868L161.42644394465853,110.55252597749133L161.59150165830337,105.50902086773198L161.75655937194827,50.33532407003464L162.33426136970522,49.12463417111435L162.4167902265276,62.44691997003883L162.6643767969949,72.88294436478361L162.7469056538173,56.47098564347218L162.82943451063974,58.83730397919084L163.24207879475185,62.503018706905635L163.4896653652191,66.8148691933512L163.65472307886398,59.54781983081918L163.90230964933122,54.53102901975388L163.98483850615366,75.78598527267881L164.06736736297606,78.15564229266177L164.39748279026577,92.41669614316262L164.4800116470882,94.62008498218705L164.64506936073303,86.38028755386682L164.8101270743779,91.72630575544406L164.8926559312003,27.695694669450265L165.22277135848998,48.45688770832436L165.3053002153124,47.48355416284055L165.63541564260208,33.29294369679799L165.71794449942453,81.30042719759092L165.88300221306937,107.13127537286522L166.04805992671422,121.64610440782222L166.46070421082632,85.73212995690649L166.54323306764877,97.59742118105258L166.7082907812936,117.61175493693636L166.95587735176085,116.69954911492938L167.53357934951782,114.82875620882214L167.69863706316266,106.49506500610806L168.02875249045238,124.14713590920731L168.11128134727477,136.5714728098323L168.44139677456448,106.83467448844034L168.52392563138687,38.402636244403745L169.01909877232143,125.04499798229728L169.2666853427887,130.17893797334008L169.3492141996111,117.71174224812233L169.43174305643353,157.24605410691828L169.5968007700784,99.91519912586436L169.6793296269008,121.23008547390134L169.76185848372324,141.3234407857585L169.84438734054564,117.00371294824781L170.17450276783535,124.49366757686491L170.25703162465777,101.5538923280591L170.4220893383026,123.12027757572582L170.50461819512503,126.52107537404977L170.66967590876988,159.87865112104993L170.91726247923717,96.69244822043655L170.99979133605956,63.740522415518704L171.32990676334927,14.459106525040303L171.4124356201717,29.004589506374092L172.0726664747511,54.766476247420286L172.4853107588632,53.20127510973866L172.98048389979772,27.77083762554834L173.0630127566201,-17.487540614122157L173.55818589755467,-0.03731519719278817L173.88830132484435,5.87106645059809L174.3834744657789,35.14478931030905L174.7135898930686,10.671940753742994L175.04370532035827,90.31784231590876L175.2087630340031,120.31142486163417L175.37382074764795,77.47882600186956L175.62140731811522,103.53156162603206L176.03405160222735,106.6057047484859L176.44669588633946,176.5412959154535L177.02439788409643,194.48468904198035L177.51957102503096,178.37435505813386L177.6846287386758,138.57632636879796L177.84968645232067,148.5036002443553L178.0147441659655,106.26255997038238L178.0972730227879,113.90917316904186L178.3448595932552,136.78638276940657L179.08761930465698,57.73824733173192L179.9954367297036,63.524671090630946L180.07796558652606,82.5986953110568L180.32555215699333,79.65151645459687L180.40808101381575,-4.52413435761274L180.73819644110543,44.363869396016774L180.82072529792785,29.881563245389113L180.9857830115727,53.55067084621209L181.39842729568483,7.083706551394423L181.6460138661521,69.74693717542469L182.05865815026422,83.83988898368703L182.14118700708661,115.91108417299439L182.22371586390906,115.75889508582652L182.3887735775539,139.0801743478914L182.4713024343763,122.41133316283035L182.8839467184884,113.63903460774438L182.96647557531085,139.70512232724383L183.2140621457781,149.42961353498225L183.29659100260054,115.47320060052849L183.70923528671264,98.48500145921216L184.20440842764717,129.0797778424843L184.28693728446962,161.33451430660838L184.69958156858172,136.0819385583723L185.0296969958714,150.1567633571478L185.44234127998354,147.5355734998199L186.10257213456288,139.89517706419096L187.42303384372167,73.78361391234039L187.5055627005441,105.99933018677356L187.9182069846562,104.11853592150563L188.99108212334767,131.89914484850527L189.07361098017012,132.7524756270652L189.48625526428222,127.60231865423852L189.65131297792706,105.83682669740892L189.8163706915719,122.18792616942613L189.89889954839435,108.18360833000368L189.98142840521675,71.10910378223019L190.31154383250643,26.27223843373482L190.4766015461513,24.326560279925715L190.64165925979614,37.14654275740282L190.80671697344098,37.734849522754644L191.05430354390828,74.44218509913566L191.13683240073067,94.54352384865605L191.3018901143755,82.50255037506179L191.46694782802035,82.98188676426587L191.5494766848428,76.75287237389284L191.63200554166522,100.89910384037123L191.71453439848764,104.66828235221259L191.87959211213249,61.36727194509718L191.9621209689549,84.1483139724093L192.04464982577733,125.44191212539458L192.2922363962446,115.6011208323677L192.952467250824,124.61622612135935L193.28258267811367,116.56850728221167L193.3651115349361,131.48517318304275L193.61269810540335,148.4252139040799L194.1078712463379,162.77784584307562L194.1904001031603,163.5122554595448L194.35545781680514,84.7536106779235L194.76810210091728,11.28267338195596L194.93315981456212,23.133494894719753L195.01568867138454,72.16169762535372L195.34580409867422,111.0367931516485L195.42833295549667,90.83694221394138L195.84097723960878,116.44001480470416L196.00603495325362,142.80388058799875L196.088563810076,163.89827573649177L196.25362152372085,73.42873148990454L196.9963812351227,70.98380624687503L197.0789100919451,88.76775553849527L197.24396780558993,69.00480822958167L197.40902551923477,91.09756523631037L197.65661208970207,120.5146631128514L197.7391409465245,107.2821539009365L198.4819006579263,79.43958446935751L198.97707379886083,41.32809036928199L199.55477579661778,61.94099930758748L199.88489122390746,36.127210169217555L199.96742008072988,25.912094842679984L200.29753550801956,57.93750521996574L201.04029521942138,95.04192791887775L201.3704106467111,100.77714999291914L201.45293950353349,116.54972441892524L201.53546836035594,82.3371585455064L201.94811264446804,87.08763206907653L202.44328578540257,88.11385426911593L202.69087235586986,103.85844049155753L202.77340121269225,87.9573367531774L202.8559300695147,99.23233760993337L203.10351663998196,91.31676587424258L203.2685743536268,88.06004915540228L203.43363206727165,82.47154997749574L203.51616092409407,110.43534399070886L203.5986897809165,112.72423913483944L203.92880520820617,127.02621889673154L204.093862921851,125.81553280238168L204.34144949231828,135.60205557874724L204.42397834914073,128.39895855977184L204.50650720596312,146.16594801186648L204.83662263325283,132.39503269812522L205.33179577418736,140.3134253892198L205.90949777194433,149.04376598854938L205.99202662876675,150.25648539991653L206.07455548558917,138.44231743795217L206.48719976970128,102.47511496147183L206.56972862652373,97.01791074674352L206.73478634016854,85.38187678153871L207.3950171947479,84.08621000174354L207.56007490839275,80.12864306971282L207.72513262203762,71.68552138538027L207.80766147886004,56.199879579947016L208.0552480493273,59.434586981043985L208.63295004708428,53.131232021143894L208.88053661755154,86.05963546779974L209.04559433119638,49.53940769827254L209.21065204484123,65.61774176949278L209.62329632895336,-14.333936885731603L210.03594061306543,67.12974198527156L210.11846946988786,115.50498207943859L210.2009983267103,74.14568738314107L210.531113754,135.3647396604118L210.61364261082238,143.83710351250977L211.10881575175694,163.35282906281617L211.27387346540178,126.72490778843141L211.43893117904662,145.8494336232828L211.6865177495139,180.96045810646115L211.7690466063363,206.35738790992326L211.85157546315875,106.09295611830218L211.93410431998117,46.4355001886754L212.18169089044844,0.14646240932255933L212.34674860409328,4.953847907977289L212.75939288820538,22.174507526628457L213.00697945867267,46.08311712795967L213.1720371723175,-12.818813215665749L213.50215259960717,-6.664462657794148L213.58468145642962,16.7282148085849L213.99732574054173,64.79804733436447L214.3274411678314,41.70853810808904L214.5750277382987,34.076304125547274L214.6575565951211,14.802635030650503L214.82261430876594,47.12022940598607L215.15272973605565,71.80064360883705L215.23525859287807,104.5320017590468L215.4003163065229,120.5826292401524L215.48284516334533,110.5572357412666L215.97801830427986,132.62236045057517L216.0605471611023,97.22979483954246L216.22560487474715,90.0503847149785L216.39066258839196,100.29554208355707L216.63824915885925,99.85906145394218L216.7207780156817,105.81789828655134L216.88583572932654,100.99487574448202L217.13342229979378,80.83704965372789L217.4635377270835,32.664013636195996L217.62859544072833,58.39387921897717L217.71112429755073,114.73819687379763L217.8761820111956,108.43895211839859L217.95871086801802,28.939149481540156L218.53641286577496,79.63787193917908L218.7014705794198,81.97794893107746L218.9490571498871,96.82256114420959L219.11411486353194,82.88755657632228L219.19664372035436,79.42645575769852L219.27917257717678,67.04706659971566L219.77434571811133,66.25629533861417L220.59963428633552,66.25732082380831L220.76469199998036,30.842322755034534L221.1773362840925,51.158844725414724L221.34239399773733,18.007471678896177L221.67250942502704,15.972968275991578L221.75503828184944,19.207237565319407L221.8375671386719,44.060931588103195L222.00262485231673,31.746993542005388L222.16768256596157,48.835224207069224L222.250211422784,8.530762561535711L222.58032685007367,36.27761149650788L223.0754999910082,32.507324180665414L223.24055770465307,47.875287928173606L223.4056154182979,33.89019770872947L223.7357308455876,34.93858256332464L224.47849055698939,59.24747750019512L224.56101941381183,72.97181469731875L224.64354827063423,39.34644698910964L224.9736636979239,28.296556786566313L225.38630798203604,34.61628167648636L225.46883683885846,31.886920555446277L225.5513656956809,33.16429004531196L225.8814811229706,27.95074146466844L225.964009979793,34.28662972942923L226.21159655026028,39.85280553449389L226.37665426390512,26.752511840329106L226.6242408343724,40.347495805741076L227.03688511848452,42.57690408946959L227.20194283212933,60.79585736891452L227.36700054577418,7.603063483798132L227.44952940259662,-20.99874883977124L227.8621736867087,-9.216236631737951L228.02723140035357,31.80303277997604L228.43987568446568,55.812685884544855L228.68746225493294,76.50130207486711L228.85251996857778,81.07224889775014L229.01757768222262,73.58366938847801L229.43022196633476,63.52975013356173L229.67780853680202,70.22386715661536L229.84286625044686,80.03497714663334L230.0079239640917,65.9628070708595L230.09045282091415,79.71274739437219L230.3380393913814,57.610076062413164L230.4205682482038,16.15793359204886L230.50309710502626,20.27737756645693L230.7506836754935,46.65153017235505L230.83321253231594,66.12659662185278L230.91574138913833,75.81235363215902L231.57597224371773,87.7752673439686L231.65850110054018,76.65145923293656L231.74102995736257,82.43506129200924L231.9060876710074,70.65212898478566L231.98861652782986,32.016341750006234L232.31873195511955,-12.419991011644083L232.4837896687644,6.973805031319589L233.22654938016618,26.981521993961632L233.63919366427828,52.86315913071186L233.72172252110073,88.73184980641268L233.80425137792312,49.61224156063191L233.96930909156802,47.85860391170811L234.3819533756801,59.21985844290223L234.46448223250252,82.97883970558048L234.54701108932497,95.92690719548435L234.62953994614736,105.33960173104543L234.7945976597922,97.44752453465289L234.95965537343704,94.53179422449814L235.28977080072676,80.85731549846953L235.61988622801644,100.04472526935517L235.70241508483886,84.76444679840274L235.86747279848373,81.6076981639245L236.11505936895097,89.82657757576543L236.2801170825958,33.774180440061265L236.85781908035278,-19.618991550616627L237.2704633644649,-8.479274943176053L237.51804993493215,25.249008922881774L237.93069421904428,49.92586257447423L238.17828078951155,8.411052352623063L238.26080964633397,18.685412519429306L238.3433385031564,21.630051149493507L238.67345393044607,14.41200294579225L239.00356935773576,33.8665946732936L239.1686270713806,59.284457533376326L239.82885792596,55.315803797205234L239.91138678278242,55.777329679521124L239.99391563960484,48.702598558568255L240.32403106689452,82.01852372570701L240.65414649418423,52.734337588455546L240.98426192147392,76.81253850150264L241.0667907782963,38.506657600406264L241.39690620558602,54.71353250234078L241.47943506240844,89.88074795865047L241.56196391923086,75.00816627743515L241.64449277605328,81.20668523616594L241.974608203343,66.36056073848228L242.22219477381023,78.60658308043125L242.46978134427752,49.76762792877283L242.63483905792236,19.847668283418805L242.7998967715672,34.454805832944714L243.13001219885692,46.143726095127704L243.54265648296902,56.28566264857305L243.62518533979144,64.13109962496922L243.70771419661386,67.0041733812795L243.8727719102587,97.02755728635447L243.9553007670811,128.74693997471198L244.120358480726,111.69275307444025L244.28541619437084,74.98258353673583L244.36794505119323,93.19821940961275L244.45047390801565,111.89367141091462L245.11070476259502,120.91696604368413L245.27576247623986,125.99067833520328L245.52334904670715,131.05249093155632L245.60587790352957,125.4608374565604L245.688406760352,124.90748919557954L245.77093561717442,96.78110443882979L245.93599333081926,127.9319692205445L246.1010510444641,125.95872272116095L246.3486376149314,104.51675704477425L246.43116647175378,124.96293671447147L246.7612818990435,112.56450538434746L246.84381075586592,100.65246125288903L246.92633961268834,71.5532222862992L247.17392618315563,101.94411889423901L247.83415703773497,98.27317206276238L249.31967646053857,58.004532093170546L249.40220531736102,14.442445724394068L249.81484960147313,23.780836975059092L249.89737845829555,12.146244075763418L250.06243617194042,15.409417060415091L250.22749388558526,33.719497526547336L250.31002274240765,2.9580445578405885L250.55760931287494,3.6242490394461906L250.8877247401646,47.449548534108665L250.97025359698705,49.5194996160393L251.1353113106319,55.279295537485226L251.30036902427673,71.7963085831584L251.38289788109915,92.63082993120862L251.79554216521126,54.50141667388607L251.87807102203368,81.46177907280747L252.12565759250097,89.48796656531262L252.20818644932336,85.78315774058771L252.53830187661308,68.76895309515685L252.6208307334355,96.03637397946542L252.70335959025792,89.81257682061398L253.19853273119244,113.3091515525296L253.36359044483729,17.588021981307918L253.44611930165973,-21.470000230303928L253.52864815848213,-17.214069157424117L254.60152329717366,49.213164021607255L254.68405215399605,33.02805298713861L254.84910986764092,69.82811411832112L255.261754151753,86.11136528516442L255.67439843586513,66.10474688064208L255.83945614950997,72.2277218749029L256.3346292904445,53.02322354445015L256.49968700408937,44.79082786703745L256.6647447177342,87.21214473022893L256.82980243137905,111.85898634916043L256.9123312882015,129.7041964268726L257.0773890018463,108.23688102420417L257.4900332859584,93.84971038947288L257.57256214278084,65.07961927933285L257.65509099960326,44.994183553860495L257.7376198564257,45.68289271514682L257.98520642689294,7.197763813423779L258.0677352837154,15.280714705638069L258.3153218541826,36.74814794004485L258.39785071100505,56.231782912310806L258.4803795678275,46.42234542744737L258.5629084246499,24.70108576538236L258.8930238519396,9.538394704966395L258.97555270876205,-16.580136758420107L259.553254706519,-0.17345361509113758L259.9658989906311,24.50017308996723L260.0484278474535,77.4794379261454L260.21348556109837,92.34422408488257L260.3785432747432,18.58884142171309L260.46107213156563,-25.158978371168935L260.62612984521047,-15.594866794567814L260.7911875588553,16.94486502175499L261.2038318429674,-3.980644012496337L261.6164761270795,-6.4643281030295565L261.699004983902,24.24165257944024L262.0291204111917,38.089692882479625L262.4417646953038,45.93522474303516L263.01946669306074,13.078429958022465L263.10199554988316,1.4113622776943109L263.51463983399526,-2.4749663562136432L264.0923418317522,-5.201484885273301L264.1748706885747,0.6771222876654902L264.25739954539705,4.962240156753108L264.3399284022195,42.154840894120305L265.0826881136213,66.73974156959794L265.4953323977334,93.8442590067662L265.7429189682007,19.581069640922145L265.8254478250231,7.7543861957005324L266.5682075364249,8.875797441885288L266.73326525006973,13.463789133072636L266.980851820537,19.04173777143114L267.14590953418184,31.989792082961802L267.6410826751164,52.52011199143543L268.21878467287337,57.528282862144344L268.3838423865182,52.33011420868809L268.46637124334063,36.472718143397906L268.6314289569855,79.43205150300156L268.87901552745274,102.13302431788152L269.2091309547424,108.39994283831706L269.4567175252097,103.18009683499614L269.5392463820321,101.5852399172151L269.70430409567695,103.52494171763749L269.8693618093218,103.21912892365559L269.95189066614427,96.66160195034419L270.4470638070788,120.57388367023773L270.5295926639012,124.02654694145039L270.69465037754605,137.8785560743158L270.8597080911909,68.19304983682157L271.10729466165816,58.480476150658475L271.6849966594151,74.43140275278779L272.0151120867048,80.1881298118489L272.0976409435272,69.52321678868775L272.3452275139945,52.38589659666812" fill="none"></path></g></g></g></g><g opacity="0.2"><g><g><g><path style="fill: none;" stroke="rgb(255, 112, 67)" stroke-width="2px" d="M41.6770726953234,193.84114337643206L41.759601552145824,172.61133632798175L42.33730354990278,194.76595121412612L42.74994783401489,194.76595121412612L42.91500554765974,38.50400125698414L43.16259211812701,258.5556250742116L44.152938399996074,227.27238377150007L44.730640397753035,59.138833118385065L45.060755825042726,171.92308948818192L45.14328468186515,141.68511512232072L45.225813538687575,73.04748331796034L45.47340010915484,160.89286313284157L46.21615982055664,178.2061512884864L46.29868867737906,63.92893358995187L46.38121753420148,63.92893358995187L46.62880410466875,140.81113068804626L46.87639067513602,192.29337249498695L47.20650610242571,92.42699619752673L47.5366215297154,142.37189896052024L47.619150386537825,141.33785367000274L47.701679243360246,179.98066621505842L47.86673695700509,109.03333653639382L48.03179467064994,57.32926976217075L48.11432352747236,91.61182866816924L48.27938124111721,87.41034250712872L48.36191009793963,75.06907589161145L48.52696781158448,105.06071471265457L48.69202552522932,106.23866423304642L49.26972752298627,108.00200521985951L49.51731409345354,124.83296931167914L49.59984295027596,138.7845130219419L49.76490066392081,210.44907393442992L50.0950160912105,76.31180033793024L50.507660375322615,154.92720907103995L50.59018923214504,29.985303388026097L51.58053551401411,87.15389316863892L51.66306437083653,127.0796308996394L51.99317979812622,118.32857021129237L52.24076636859349,45.63842397406259L52.40582408223834,57.4849204106911L52.570881795883174,101.8085469668438L53.313641507284984,91.90177862301405L53.80881464821952,198.39287000029555L54.221458932331636,140.76810995982834L54.30398778915405,121.57516158868455L54.55157435962132,265.78824382261547L54.71663207326616,150.06012079062185L54.88168978691101,77.7624194319458L55.37686292784555,115.33681675033748L55.45939178466797,167.15202924034094L56.20215149606977,124.66003828193769L56.367209209714616,144.72951543796518L56.53226692335946,169.34774020735114L56.77985349382673,130.05132639662477L57.52261320522854,185.47873224364668L57.7701997756958,136.85750668218935L57.85272863251822,88.8633999371448L58.017786346163064,100.62018681187581L58.265372916630334,196.96634802684167L58.843074914387294,59.701855502366726L59.00813262803214,189.76562377347074L59.090661484854564,172.95866138906496L59.42077691214425,134.84573106130557L59.50330576896667,36.152936482358L59.5858346257891,166.47754309675275L59.66836348261152,228.0370883471076L59.91595005307879,14.171634278546465L59.99847890990121,221.2002062308582L60.3285943371909,175.68060767083153L60.41112319401332,103.19032017395764L60.49365205083575,182.10271823193108L60.90629633494786,117.34623884690771L61.07135404859271,276.23756312948336L61.153882905415124,171.39362072785963L61.483998332704815,163.3791601423489L61.896642616816926,83.73922623058459L61.979171473639354,120.36699790480796L62.144229187284196,170.83128743883464L62.309286900929045,191.58680633080058L62.47434461457389,216.85126435055128L62.72193118504115,95.41495433548951L62.886988898686,154.69785706653857L63.13457546915327,174.24889098155046L63.29963318279811,187.42658105547326L63.54721975326538,98.3867982529271L63.6297486100878,129.18896116346585L63.95986403737749,127.97683253322319L64.04239289419992,76.35185265710405L64.12492175102234,221.15546806597905L64.20745060784476,75.05391580256472L64.45503717831203,181.40013821703252L64.53756603513445,97.93803841422212L64.95021031924657,8.603980260795455L65.61044117382595,177.3473905520239L65.77549888747079,140.36521204085494L65.85802774429321,127.26206083832201L66.02308545793805,181.17043636432237L66.18814317158291,210.79368502152994L66.27067202840533,73.83837350192132L66.51825859887259,72.00340904545808L66.60078745569501,74.18737359382229L66.68331631251743,138.89040041312984L66.84837402616229,157.7542370329682L67.34354716709682,204.87571633072986L67.42607602391924,90.16411437443256L67.50860488074166,259.8714412925113L67.92124916485378,183.7358308733945L68.08630687849862,86.76717307895595L68.16883573532104,18.08883166484773L68.3338934489659,145.3693136015807L69.15918201719012,221.24325876345875L69.32423973083496,72.18581778121896L69.57182630130222,142.27218161955972L69.8194128717695,81.01168237747768L69.98447058541434,172.63102324082075L70.2320571558816,53.36650729704232L70.39711486952646,151.99403928286284L70.56217258317129,110.18749637858926L70.72723029681615,159.3808827832998L70.97481686728341,181.84477408745835L71.22240343775069,178.97473599877304L71.80010543550765,39.569214842464845L71.88263429233007,101.92972166460893L71.96516314915249,99.1194016050147L72.04769200597491,127.10679184239305L72.87298057419913,158.86719959821568L73.12056714466641,154.82532903206157L73.20309600148883,155.94571261991933L73.53321142877851,184.98504341376685L73.94585571289063,197.76285698506473L74.11091342653546,172.49711618854855L74.2759711401803,179.4505719685447L74.52355771064758,111.73933822100915L74.77114428111484,9.031155525165362L75.26631742204938,135.05602163915938L75.3488462788718,106.57907714164119L75.51390399251666,134.31485230668733L75.59643284933908,35.808919077066804L76.0916059902736,136.3422968867397L76.17413484709604,256.15990164566284L76.4217214175633,135.9685317822421L76.751836844853,51.377376396580786L76.83436570167542,146.32512011086402L76.91689455849784,180.7776204346381L76.99942341532027,206.96394968742135L77.41206769943238,54.465899992373835L77.65965426989963,56.13730511050633L77.74218312672205,66.66228704361654L77.82471198354447,197.5752747363984L78.2373562676566,143.5885438130943L78.65000055176871,228.12303439039562L78.81505826541355,32.88893750621426L78.89758712223598,147.0008148209916L78.9801159790584,220.50379626618707L79.06264483588082,173.8123228228481L79.22770254952567,183.24334000859318L79.88793340410506,55.0537297947956L80.21804883139474,183.72004529815632L80.30057768821717,70.07797172191457L81.12586625644138,190.46697401890816L81.5385105405535,181.49608143792267L81.70356825419834,52.93437054898439L81.78609711102077,60.90295861330267L81.86862596784319,142.22511113328875L81.95115482466561,177.95607342798058L82.2812702519553,103.75614134360947L82.69391453606742,0.17369857550855397L82.77644339288985,73.58845466332858L83.02402996335711,91.9158785659736L83.43667424746923,47.49811103727896L83.51920310429165,60.709630372843804L83.84931853158133,174.02972698094692L83.93184738840377,204.35738970578387L84.01437624522619,122.39264023651211L84.17943395887103,96.95021549310584L84.42702052933828,175.05592719041925L84.75713595662798,122.01781498592734L84.8396648134504,21.88426067157505L85.1697802407401,149.51423036740908L85.25230909756252,98.11537965168625L85.66495338167464,150.2271362051968L85.83001109531948,70.18415595400691L86.2426553794316,128.04042009553248L86.32518423625402,-34.096689853409096L86.40771309307644,147.85614068413162L86.6552996635437,147.88071487043254L86.73782852036612,214.35473693130263L87.06794394765582,-42.039898020400194L87.15047280447824,79.34646851249434L87.23300166130066,222.15209019961895L87.31553051812308,152.47763552199268L87.72817480223519,211.98734590693385L87.89323251588003,200.1220742831013L87.97576137270245,41.692433020033405L88.05829022952489,97.24786210854361L88.1408190863473,200.3590275350478L88.38840565681457,151.59750224041255L88.55346337045941,153.37297129846303L88.80104994092669,150.77567699362754L88.88357879774911,81.30233202874004L89.29622308186123,52.17967375243987L89.37875193868365,279.29542730043505L89.62633850915091,102.13153107376527L89.79139622279575,83.54861196410891L90.20404050690787,152.20693782009113L90.36909822055271,156.94742345477772L90.61668479101999,146.30410801541603L90.78174250466483,106.19706410058532L90.86427136148725,172.07257008647485L90.94680021830968,201.06657963509525L91.02932907513211,181.501679009263L91.19438678877695,152.80110729611425L91.27691564559936,91.08103472523797L91.4419733592442,82.11245326272254L91.60703107288904,169.20076155382395L91.68955992971148,77.89067590557332L91.7720887865339,146.7565995683479L92.01967535700116,164.95667872300038L92.26726192746844,216.85183682943835L92.67990621158054,148.9293477711097L93.01002163887024,74.77125965279973L93.09255049569266,123.57266764323484L93.2576082093375,128.47035173972907L93.50519477980478,281.32538442671404L93.83531020709447,163.96033222734314L93.91783906391689,176.30573341260043L94.08289677756174,24.718794467800564L94.16542563438416,209.6769483362121L94.24795449120658,44.890914967989175L94.330483348029,124.59956754912471L94.6605987753187,101.65968125328143L94.74312763214111,122.35581076144334L94.90818534578595,65.93449675476475L94.99071420260837,91.2630830113292L95.32082962989807,130.5101152173145L95.98106048447745,195.3674356981508L96.31117591176714,135.38803819074366L96.39370476858957,130.3939444090809L96.64129133905683,171.22612824754543L96.72382019587926,135.38916194559607L96.80634905270168,176.9149039557572L96.97140676634652,200.09333372267776L97.05393562316895,150.4656690748132L97.2189933368138,147.41516231770657L97.38405105045864,151.56730927984955L97.46657990728106,115.39349216015833L97.63163762092591,145.53509924669453L97.79669533457076,158.29754069972824L98.044281905038,153.75324569993592L98.29186847550528,194.34742674182763L98.62198390279497,178.38104358848915L98.70451275961739,133.0672723912892L99.28221475737435,105.76719606515397L99.4472724710192,130.0664864856715L99.52980132784162,163.42097230402743L99.94244561195373,-13.688665645900311L100.27256103924343,141.23892083714674L100.43761875288827,212.98178413963416L100.76773418017797,73.48534485488906L101.18037846429009,161.09205398116256L101.59302274840218,107.49726966775123L101.6755516052246,71.78964118843831L101.75808046204703,17.402747523065756L102.0056670325143,121.67447607413195L102.17072474615914,92.82713773667345L102.33578245980398,104.6683122399443L102.41831131662641,117.67509616315218L102.58336903027126,132.6459703362423L102.83095560073852,64.0997231245972L102.91348445756094,129.75128385102997L102.99601331438338,36.04246926007343L103.16107102802822,77.43241715792718L103.32612874167306,79.20001993201075L103.40865759849548,34.91580960737954L103.57371531214034,92.95261662755254L103.73877302578518,68.52080794613701L104.06888845307486,65.68722828138996L104.23394616671972,3.2630702881713503L104.5640615940094,125.451479741864L104.64659045083182,126.28570869786907L104.8941770212991,111.22378917881159L105.05923473494393,11.600016711942574L105.30682130541119,133.14987897440258L105.47187901905605,112.16388432308284L105.63693673270089,167.30776470054826L105.88452330316815,169.67102115517702L106.13210987363543,144.08893276624514L106.21463873045785,138.43580977094535L106.62728301456997,156.4417973799562L107.03992729868207,113.26018139183978L107.37004272597177,172.54846966501174L107.45257158279419,154.80378686357L107.53510043961661,129.89484883415642L107.70015815326146,77.69654195408819L107.78268701008389,104.64386527117384L107.86521586690631,142.05336746716495L108.2778601510184,52.85123389282742L108.52544672148568,144.73642759045362L108.6079755783081,141.3066217662743L108.69050443513052,169.3305128334344L108.77303329195294,-9.558082055170654L108.9380910055978,173.9879784280336L109.18567757606506,108.92138510958719L109.43326414653232,162.24507946704472L110.17602385793414,112.12442568571785L110.4236104284014,65.33511135999268L111.00131242615836,106.35926645192447L111.08384128298079,84.69537198661581L111.1663701398032,161.76628568968982L111.4964855670929,15.59799723008726L111.66154328073775,161.1567228924808L111.82660099438257,158.95277459037317L111.90912985120502,87.0185973249925L112.23924527849469,52.497060288021004L112.73441841942923,12.724577275383838L112.89947613307407,-38.23159884017446L113.14706270354135,8.151361490333132L113.22959156036377,8.907436476790993L113.47717813083104,109.16167782170831L113.72476470129831,199.80745472880773L113.88982241494315,162.79109710778795L114.054880128588,124.57015909666623L114.46752441270012,178.10905250836123L114.55005326952254,26.789217370227362L114.7976398399898,21.570987502812187L115.1277552672795,83.0129413491766L115.29281298092432,96.84844146873618L115.62292840821402,102.67292647756838L115.70545726503644,76.02530645932964L115.9530438355037,68.01166218630604L116.11810154914856,99.27944125833599L116.20063040597098,64.14728127806828L116.44821697643825,93.09845032330557L116.53074583326067,63.7857502594168L116.77833240372794,114.42559998548111L116.86086126055037,79.8650283695795L116.94339011737279,113.23967816651364L117.43856325830733,118.17179580791961L117.85120754241943,57.6020029445597L118.01626525606429,137.55506160463466L118.09879411288671,98.35647807483363L119.25419810840062,21.823895953370794L119.33672696522304,23.44193331747445L119.50178467886788,74.70523375448991L120.07948667662484,115.03433586874215L120.16201553344726,44.08302004078976L120.24454439026968,134.5216231995317L120.57465981755938,127.61646767526761L120.6571886743818,69.45159500776279L120.9873041016715,97.37128431601357L121.31741952896118,5.506699858322265L121.3999483857836,114.96811914413664L121.56500609942846,167.7296180315605L121.7300638130733,134.34958269250347L121.81259266989572,83.08696074898378L121.89512152671814,140.93427725753355L121.97765038354055,78.8923867404317L122.63788123811993,82.56789202177677L122.96799666540963,119.93738430443753L123.13305437905447,113.98354027004714L123.38064094952175,108.68575704024968L123.79328523363385,125.47009590715496L124.28845837456839,113.90254510898629L124.37098723139081,91.72742699751578L124.45351608821325,85.67624034940016L124.61857380185809,147.18339318012642L124.86616037232535,84.8802614642207L125.69144894054958,117.51808852764023L125.85650665419442,-33.20481015318297L126.02156436783926,120.97728160135628L126.26915093830654,2.7432170528598205L126.5167375087738,84.58933617497567L126.68179522241864,54.767341930803724L126.76432407924106,145.21289964787758L127.17696836335318,76.52597105046314L127.2594972201756,162.6577307300202L127.50708379064288,-17.117983802879518L127.5896126474653,24.390848877191075L127.67214150428772,164.72045697185405L127.91972807475499,173.7787055904235L128.0022569315774,94.07671072671545L128.3323723588671,181.91441508392546L128.99260321344647,-65.68980655667407L129.1576609270913,112.57363078577944L129.4052474975586,-118.4437784068789L129.7353629248483,161.8579989276921L130.06547835213797,18.808840481419594L130.23053606578281,69.96322150943777L130.56065149307253,283.05923214938167L130.64318034989495,97.74920519317291L131.05582463400705,105.41478230285227L131.2208823476519,82.22995985502601L132.21122862952097,80.73814348406248L132.54134405681066,96.1658982148854L132.62387291363308,-21.454023705305428L132.7064017704555,140.3118018809826L132.95398834092276,95.73543649764522L133.1190460545676,144.77605585119255L133.36663262503487,124.64093444944663L133.69674805232458,75.0594921709833L133.86180576596942,119.59353652252028L133.9443346227918,134.2921227745781L134.27445005008153,104.86528738294308L134.35697890690395,128.34366428231058L134.6045654773712,146.52506366290692L134.9346809046609,82.54287257411923L135.01720976148331,71.43671855601477L135.18226747512819,65.6022469710413L135.34732518877303,-37.77488790581561L135.5949117592403,65.85140250445127L136.0075560433524,10.353306116335974L136.17261375699724,66.42021328606896L136.33767147064208,56.13845006828049L136.58525804110937,58.71305724685024L136.99790232522147,101.70058168932499L137.0804311820439,46.686569207539634L137.24548889568874,130.23920548619552L137.41054660933358,158.9751648757345L137.493075466156,11.847539620378287L137.57560432297845,-40.92950100868371L137.82319089344568,121.3470393536443L138.23583517755782,204.78604917467584L138.40089289120266,151.60988474671086L138.48342174802508,-65.20273303837827L138.81353717531476,-109.32092448575646L139.22618145942687,165.89417650935803L139.55629688671658,9.109479118086513L139.88641231400626,189.13374490112648L140.3815854549408,180.1017030938322L140.54664316858566,142.6113859616151L140.7117008822305,228.6329328539485L140.87675859587534,154.21775930949644L141.12434516634258,-78.28345154970636L141.20687402316503,-62.703290217389856L141.5369894504547,92.78286603607265L142.03216259138924,95.51878504326831L142.19722030503408,27.446529147203165L142.36227801867895,49.91590140663246L142.5273357323238,193.8122119897128L142.6098645891462,175.63591191179586L143.02250887325832,-58.561384266449075L143.43515315737042,190.5159739710578L143.6827397278377,154.7565043480816L143.84779744148256,159.25003955321955L144.0128551551274,2.9242475987073546L144.09538401194982,49.991617040179136L144.26044172559466,180.0518656262737L144.4254994392395,-0.7508972329681098L144.6730860097068,117.42625867356836L144.8381437233516,65.66191199282801L144.92067258017403,59.83394970482985L145.00320143699645,59.741610980636125L145.0857302938189,135.03876246086003L145.66343229157584,215.82916690643634L146.15860543251037,198.46857503238135L146.24113428933282,155.58695918401628L146.73630743026735,99.02523942955102L147.14895171437945,85.70185347886652L147.3965382848467,111.93253924393755L147.47906714166913,117.05626768914115L148.13929799624853,108.31833160935346L148.22182685307092,-39.53812287801998L148.30435570989337,38.04495800123348L148.38688456671576,91.495212598579L148.5519422803606,77.61259958690496L148.96458656447274,24.769215015707033L149.12964427811758,-24.562711279676716L149.21217313494,33.615222387622254L149.8724039895194,97.47324916667893L149.95493284634182,79.16297842772454L150.2850482736315,45.713143070287316L150.45010598727637,26.635178143759532L150.61516370092122,46.613737171350095L150.6976925577436,104.1043993332494L150.86275027138845,120.23997120064158L151.19286569867816,78.87972859615073L151.27539455550055,77.36687892681746L151.4404522691454,107.33839617512584L151.6055099827903,122.53518747939486L151.6880388396127,72.53051368000595L151.85309655325753,-17.390186912224873L151.93562541007995,92.45574735941116L152.01815426690237,90.04673499965955L152.1006831237248,86.49331614171459L152.43079855101448,130.02577687592364L152.51332740783693,121.30870447113173L152.76091397830416,105.60376394435369L152.8434428351266,66.85712069151921L152.92597169194903,43.13915077644813L153.2560871192387,121.68325408373383L153.33861597606113,14.950184362052626L153.503673689706,52.08296722636695L153.91631797381808,91.5859823065637L154.57654882839748,89.61659132624553L154.82413539886477,100.69745025870978L154.98919311250958,120.27080024885689L155.15425082615442,108.40176510641484L155.23677968297687,92.73441735988834L155.56689511026656,114.50992400525573L155.7319528239114,81.6238107282177L155.97953939437866,105.40176370890165L156.06206825120108,110.78081773774264L156.22712596484592,138.13896886653384L156.80482796260287,66.94668183296452L156.96988567624774,39.20868036113532L157.05241453307016,136.39418043624647L157.38252996035985,102.74476197643597L157.46505881718227,109.14851080730548L157.71264538764956,123.75717546824833L157.79517424447195,116.57536422107276L157.8777031012944,137.20260543648948L158.04276081493924,110.8285667175094L158.12528967176164,35.07941135155377L158.2903473854065,87.2933447849471L158.45540509905135,85.77712385105659L158.53793395587374,113.8263418082395L158.86804938316345,103.316604775863L159.11563595363071,90.06138621858443L159.44575138092043,75.74604277704364L159.52828023774282,128.29267125551704L159.7758668082101,129.4282997441085L159.94092452185495,59.65185901289513L160.1059822354998,60.249654188536425L160.18851109232222,97.29016193742225L160.27103994914464,136.78172743987744L161.01379966054643,40.284601422096586L161.1788573741913,83.91050343243003L161.42644394465853,153.92195734825037L161.59150165830337,97.94376320309291L161.75655937194827,-32.42522112651137L162.33426136970522,47.308599322733954L162.4167902265276,82.43034866842552L162.6643767969949,88.53698095690086L162.7469056538173,31.853047561505065L162.82943451063974,62.38678148276884L163.24207879475185,68.00159079847779L163.4896653652191,73.28264492301949L163.65472307886398,48.64724578702115L163.90230964933122,47.00584280315596L163.98483850615366,107.6684196520662L164.06736736297606,81.71012782263622L164.39748279026577,113.80827691891389L164.4800116470882,97.9251682407237L164.64506936073303,74.0205914113865L164.8101270743779,99.74533305780986L164.8926559312003,-68.35022195954049L165.22277135848998,79.5986772666354L165.3053002153124,46.02355384461478L165.63541564260208,12.007027997734243L165.71794449942453,153.3116524487803L165.88300221306937,145.8775476357767L166.04805992671422,143.4183479602578L166.46070421082632,31.861168280532894L166.54323306764877,115.39535801727177L166.7082907812936,147.63325557076206L166.95587735176085,115.33124038191889L167.53357934951782,112.02256684966122L167.69863706316266,93.99452820203695L168.02875249045238,150.62524226385614L168.11128134727477,155.20797816076976L168.44139677456448,62.22947700635248L168.52392563138687,-64.24542112165115L169.01909877232143,255.00854058913757L169.2666853427887,137.87984795990434L169.3492141996111,99.01094866029578L169.43174305643353,216.5475218951122L169.5968007700784,13.918916654283551L169.6793296269008,153.20241499595687L169.76185848372324,171.46347375354418L169.84438734054564,80.52412119198178L170.17450276783535,135.72859951979063L170.25703162465777,67.14422945485038L170.4220893383026,155.46985544722594L170.50461819512503,131.62227207153572L170.66967590876988,209.91501474155012L170.91726247923717,1.9131438695165186L170.99979133605956,14.312633708141933L171.32990676334927,-59.463017310677294L171.4124356201717,50.82281397837485L172.0726664747511,93.40930635898965L172.4853107588632,50.85347340321621L172.98048389979772,-10.374818600737182L173.14554161344256,-44.09832006912007L173.55818589755467,42.10449060120007L173.88830132484435,14.73363892228443L174.3834744657789,79.05537359987537L174.7135898930686,-26.037332081106126L175.04370532035827,209.78669465915738L175.2087630340031,165.30179868022225L175.37382074764795,13.229927712222691L175.62140731811522,142.6106650622758L176.03405160222735,111.21691943216663L176.44669588633946,281.44468266590485L177.02439788409643,221.3997787317706L177.51957102503096,154.2088540823641L177.6846287386758,78.87928333479411L177.84968645232067,163.39451105769132L178.0147441659655,42.90099955942313L178.0972730227879,125.37909296703108L178.3448595932552,171.10219716995363L179.08761930465698,-60.83395582478011L179.9954367297036,72.20430672897945L180.07796558652606,111.20973164169553L180.32555215699333,75.230748169907L180.40808101381575,-130.78761057592715L180.73819644110543,117.69587502646098L180.82072529792785,8.158104019447622L180.9857830115727,89.05433224744664L181.39842729568483,-62.61673989083216L181.6460138661521,163.74178311147017L182.05865815026422,104.97931669608059L182.14118700708661,164.0178769569555L182.22371586390906,115.5306114550747L182.3887735775539,174.06209324098864L182.4713024343763,97.40807138523886L182.8839467184884,100.48058677511543L182.96647557531085,178.804253906493L183.2140621457781,164.01635034658995L183.29659100260054,64.53858119884788L183.70923528671264,73.00270274723769L184.20440842764717,174.97194241739254L184.28693728446962,209.71661900279452L184.69958156858172,98.20307493601811L185.0296969958714,171.26900055531115L185.44234127998354,143.603788713828L186.10257213456288,128.43458241074748L187.42303384372167,-25.383730815435467L187.5055627005441,154.32290459842335L187.9182069846562,101.2973445236037L188.99108212334767,173.57005823900482L189.07361098017012,134.032471794905L189.48625526428222,119.8770831949985L189.65131297792706,73.18858876216453L189.8163706915719,146.71457537745192L189.89889954839435,87.17713157086999L189.98142840521675,15.497346960570015L190.31154383250643,-40.98305958900824L190.4766015461513,21.40804304921201L190.64165925979614,56.37651647361852L190.80671697344098,38.61730967078236L191.05430354390828,129.50318846370718L191.13683240073067,124.6955319729366L191.3018901143755,64.44109016467044L191.46694782802035,83.70089134807202L191.5494766848428,67.40935078833334L191.63200554166522,137.11845104008881L191.71453439848764,110.32205011997465L191.87959211213249,-3.584243665575978L191.9621209689549,118.31987701337746L192.04464982577733,187.38230935487246L192.2922363962446,100.8399338928273L192.952467250824,138.13888405484687L193.28258267811367,104.49692902349014L193.3651115349361,153.8601720342893L193.61269810540335,173.83527498563564L194.1078712463379,184.30679375156916L194.1904001031603,164.61386988424857L194.35545781680514,-33.384356494508445L194.76810210091728,-98.92373256199541L194.93315981456212,40.90972716386548L195.01568867138454,145.70400172130468L195.34580409867422,169.34943644109063L195.42833295549667,60.53716580738072L195.84097723960878,154.84462369084832L196.00603495325362,182.34967926294058L196.25362152372085,-62.27558487997636L196.9963812351227,67.3164183823308L197.0789100919451,115.44367947592562L197.24396780558993,39.36038726621135L197.40902551923477,124.23670074640339L197.65661208970207,164.64030992766294L197.7391409465245,87.4333900830641L198.4819006579263,37.67573032198905L198.97707379886083,-15.839150780831243L199.55477579661778,92.8603627150458L199.88489122390746,-2.5934735383373306L199.96742008072988,10.589421852873587L200.29753550801956,105.97562078589434L201.04029521942138,150.69856196724578L201.3704106467111,109.37998310398123L201.45293950353349,140.20858605793438L201.53546836035594,31.018309735378153L201.94811264446804,94.21334235443172L202.44328578540257,89.65318756917512L202.69087235586986,127.47531982521994L202.77340121269225,64.10568114560718L202.8559300695147,116.14483889506735L203.10351663998196,79.44340827070644L203.2685743536268,83.1749740771418L203.43363206727165,74.08880121063592L203.51616092409407,152.38103501052848L203.5986897809165,116.1575818510353L203.92880520820617,148.47918853956963L204.093862921851,123.99950366085685L204.34144949231828,150.2818397432955L204.42397834914073,117.59431303130876L204.50650720596312,172.81643219000836L204.83662263325283,111.73865972751335L205.33179577418736,152.19101442586162L205.90949777194433,162.13927688754376L205.99202662876675,152.0755645169673L206.07455548558917,120.72106549500566L206.48719976970128,48.524311246751296L206.56972862652373,88.83210442465113L206.73478634016854,67.92782583373153L207.3950171947479,82.14270983205077L207.56007490839275,74.19229267166682L207.72513262203762,59.02083885888149L207.80766147886004,32.971416871797175L208.0552480493273,64.28664808268948L208.63295004708428,43.67619958129379L208.88053661755154,135.45224063778352L209.04559433119638,-5.240933956018362L209.21065204484123,89.73524287632316L209.62329632895336,-134.26145486856808L210.11846946988786,188.0678422206891L210.2009983267103,12.106745338694767L210.531113754,227.1933180763179L210.61364261082238,156.54564929065674L211.10881575175694,192.6264173882758L211.27387346540178,71.78302587685428L211.43893117904662,174.53622237555993L211.6865177495139,233.62699483122861L212.18169089044844,-69.2870942597067L212.34674860409328,12.164926155959423L212.75939288820538,48.005496954605206L213.00697945867267,81.9460315299564L213.1720371723175,-101.17170873110378L213.50215259960717,2.5670631790133327L213.58468145642962,51.81723100815341L213.99732574054173,136.90279612303385L214.3274411678314,7.074274268675965L214.5750277382987,22.6279531517346L214.6575565951211,-14.107868611694595L214.82261430876594,95.59662096898936L215.15272973605565,108.82126491311354L215.23525859287807,153.62903898436144L215.4003163065229,144.65857046181083L215.48284516334533,95.51914549293795L215.97801830427986,165.72004751453807L216.0605471611023,44.140946422993494L216.22560487474715,79.28126952813253L216.39066258839196,115.6632781364249L216.63824915885925,99.20434050951988L216.7207780156817,114.75615353546507L216.88583572932654,93.76034193137801L217.13342229979378,50.60031051759668L217.4635377270835,-39.59554039010187L217.62859544072833,96.98867759314888L217.71112429755073,199.25467335602826L217.8761820111956,98.9900849853L217.95871086801802,-90.31055447374753L218.53641286577496,155.68595562563752L218.7014705794198,85.488064418925L218.9490571498871,119.0894794639078L219.11411486353194,61.98504972449135L219.19664372035436,74.2348045297629L219.27917257717678,48.47798286274136L219.77434571811133,65.07013844696192L220.59963428633552,66.25885905159956L220.76469199998036,-22.28017434812615L221.1773362840925,81.63362768098503L221.34239399773733,-31.719587890881723L221.67250942502704,12.92121317163472L221.75503828184944,24.058641499311108L221.8375671386719,81.34147262227887L222.00262485231673,13.276086472858681L222.16768256596157,74.46757020466501L222.250211422784,-51.92592990676463L222.58032685007367,77.89788489896617L223.0754999910082,26.85189320690168L223.24055770465307,70.9272335494359L223.4056154182979,12.9125623795633L223.7357308455876,36.51115984521746L224.47849055698939,95.71081990550081L224.56101941381183,93.55832049300423L224.64354827063423,-11.091604573204005L224.9736636979239,11.721721482751294L225.38630798203604,44.09586901136643L225.46883683885846,27.792878873886167L225.5513656956809,35.080344280110495L225.8814811229706,20.130418593703126L225.964009979793,43.790462126570475L226.21159655026028,48.20206924209086L226.37665426390512,7.102071299081929L226.6242408343724,60.73997175385901L227.03688511848452,45.92101651506235L227.20194283212933,88.12428728808189L227.36700054577418,-72.18612734387649L227.44952940259662,-63.901467325125175L227.8621736867087,8.457531680311861L228.02723140035357,93.33193689754697L228.43987568446568,91.82716554139805L228.68746225493294,107.53422636035046L228.85251996857778,87.9286691320747L229.01757768222262,62.350800124569815L229.43022196633476,48.448871251187285L229.67780853680202,80.26504269119576L229.84286625044686,94.75164213166025L230.0079239640917,44.854551957198765L230.09045282091415,100.33765787964128L230.3380393913814,24.456069064474633L230.4205682482038,-46.02028011349763L230.50309710502626,26.456543528069034L230.7506836754935,86.21275908120222L230.83321253231594,95.33919629609935L230.91574138913833,90.34098914761833L231.57597224371773,105.7196379116829L231.65850110054018,59.96574706638856L231.74102995736257,91.1104643806182L231.9060876710074,52.977730523950214L231.98861652782986,-25.937339102162934L232.31873195511955,-79.07449015411954L232.4837896687644,36.064499095765115L233.22654938016618,56.99309743792472L233.63919366427828,91.68561483583724L233.72172252110073,142.5348858199639L233.80425137792312,-9.067170808039247L233.96930909156802,45.228147438322395L234.3819533756801,76.26174023969341L234.46448223250252,118.6173115995978L234.54701108932497,115.34900843034009L234.62953994614736,119.458643534387L234.7945976597922,85.60940874006408L234.95965537343704,90.15819875926607L235.28977080072676,60.345597409426574L235.61988622801644,128.8258399256836L235.70241508483886,61.844029091974136L235.86747279848373,76.87257521220707L236.11505936895097,102.15489669352681L236.2801170825958,-50.30441526349501L236.85781908035278,-99.70874953663339L237.2704633644649,8.23029996798485L237.51804993493215,75.84143472196845L237.93069421904428,86.94114305186284L238.17828078951155,-53.86116298015373L238.26080964633397,34.09695276963865L238.3433385031564,26.047009094589868L238.67345393044607,3.5849306402404024L239.00356935773576,63.048482264545584L239.1686270713806,97.41125182350041L239.82885792596,49.36282319294858L239.91138678278242,56.46961850299502L239.99391563960484,38.090501877138905L240.32403106689452,131.99241147641513L240.65414649418423,8.808058382578368L240.98426192147392,112.92983987107326L241.0667907782963,-18.952163751238242L241.39690620558602,79.02384485524252L241.47943506240844,142.63157114311508L241.56196391923086,52.69929375561222L241.64449277605328,90.5044636742621L241.974608203343,44.09137399195677L242.22219477381023,96.97561659335477L242.46978134427752,6.509195201285167L242.63483905792236,-25.032271184612238L242.7998967715672,56.36551215723355L243.13001219885692,63.67710648840219L243.54265648296902,71.49856747874108L243.62518533979144,75.89925508956347L243.70771419661386,71.31378401574491L243.8727719102587,142.06263314396693L243.9553007670811,176.32601400724826L244.120358480726,86.11147272403267L244.28541619437084,19.91732923017915L244.36794505119323,120.5216732189281L244.45047390801565,139.9368494128674L245.11070476259502,134.45190799283847L245.27576247623986,133.60124677248206L245.52334904670715,138.64520982608593L245.60587790352957,117.07335724406656L245.688406760352,124.07746680410835L245.77093561717442,54.591527303705135L245.93599333081926,174.65826639311655L246.1010510444641,122.99885297208564L246.3486376149314,72.35380853019413L246.43116647175378,155.6322062190173L246.7612818990435,93.96685838916144L246.84381075586592,82.78439505570148L246.92633961268834,27.904363836414433L247.17392618315563,147.5304638061487L247.83415703773497,92.76675181554745L249.31967646053857,-2.3984278612172245L249.40220531736102,-50.90068382877076L249.81484960147313,37.788423851056706L249.89737845829555,-5.305645273180072L250.06243617194042,20.30417653739258L250.22749388558526,61.18461822574571L250.31002274240765,-43.18413489521959L250.55760931287494,4.623555761854534L250.8877247401646,113.18749777610245L250.97025359698705,52.624426238935285L251.1353113106319,63.91898941965408L251.30036902427673,96.57182815166814L251.38289788109915,123.88261195328394L251.79554216521126,-2.69270321209775L251.87807102203368,121.90232267118952L252.12565759250097,101.52724780407041L252.20818644932336,80.22594450350041L252.53830187661308,43.24764612701054L252.6208307334355,136.93750530592825L252.70335959025792,80.47688108233686L253.19853273119244,148.55401365040308L253.36359044483729,-125.99367237552475L253.52864815848213,-10.83017254810444L254.60152329717366,148.8540137901544L254.68405215399605,8.75038643543556L254.84910986764092,125.02820581509494L255.261754151753,110.5362420354293L255.67439843586513,36.094819273858576L255.83945614950997,81.41218436629404L256.3346292904445,24.216476048771057L256.49968700408937,32.442234350918426L256.6647447177342,150.84412002501614L256.82980243137905,148.82924877755778L256.9123312882015,156.47201154344094L257.0773890018463,76.03590792020148L257.4900332859584,72.26895443737592L257.57256214278084,21.92448261412281L257.65509099960326,14.866029965651963L257.7376198564257,46.71595645707637L257.98520642689294,-50.52992953916078L258.0677352837154,27.405141043959503L258.3153218541826,68.94929779165503L258.39785071100505,85.4572353707097L258.4803795678275,31.708189200152248L258.5629084246499,-7.880803727715157L258.97555270876205,-55.757933953499794L259.38819699287416,7.95784242357857L259.553254706519,9.713783590703118L259.9658989906311,61.51061314755478L260.0484278474535,156.9483351804127L260.21348556109837,114.64140332298828L260.3785432747432,-92.04423257304121L260.62612984521047,-1.248699429666213L260.7911875588553,65.75446274623917L261.2038318429674,-35.36890756387334L261.4514184134347,-44.603161635837075L261.6164761270795,14.183656335175131L261.699004983902,70.30062360314494L262.0291204111917,58.861753337038664L262.4417646953038,57.70352253386844L263.01946669306074,-36.206762219496575L263.6796975476401,-33.09756577500344L264.0923418317522,9.082296972411116L264.1748706885747,9.495033047073578L264.25739954539705,11.389916960384456L264.3399284022195,97.94374200017117L265.0826881136213,103.61709258281442L265.4953323977334,134.50103516251858L265.7429189682007,-91.81371440784393L265.8254478250231,-9.985638972131948L266.5682075364249,10.55791431116248L266.73326525006973,20.345776669853677L266.980851820537,27.408660728968954L267.14590953418184,51.41187355025775L267.6410826751164,83.31559185414588L268.21878467287337,65.04053916820774L268.3838423865182,44.53286122850366L268.46637124334063,12.686624045462652L268.6314289569855,143.8710515424071L268.87901552745274,136.18448354020148L269.2091309547424,117.80032061897035L269.4567175252097,95.35032783001478L269.5392463820321,99.19295454054352L269.70430409567695,106.43449441827104L269.8693618093218,102.7604097326828L269.95189066614427,86.82531149037712L270.4470638070788,156.44230625007805L270.5295926639012,129.2055418482694L270.69465037754605,158.65656977361397L270.8597080911909,-36.335209519419784L271.10729466165816,43.91161562141386L271.6849966594151,98.35779265598174L272.0151120867048,88.82322040044053L272.0976409435272,53.52584725394607L272.3452275139945,26.679916308638695" fill="none"></path></g></g></g></g></g></g><g transform="translate(41, 177)" clip-path="url(#clip_1)"><clipPath id="clip_1"><rect width="288" height="22"></rect></clipPath><g><g><line x1="0" y1="0" x2="0" y2="5" style="visibility: inherit;" fill="rgb(0, 0, 0)" stroke="rgb(204, 204, 204)" stroke-width="1px"></line><line x1="41.264428411211284" y1="0" x2="41.264428411211284" y2="5" style="visibility: inherit;" fill="rgb(0, 0, 0)" stroke="rgb(204, 204, 204)" stroke-width="1px"></line><line x1="82.52885682242257" y1="0" x2="82.52885682242257" y2="5" style="visibility: inherit;" fill="rgb(0, 0, 0)" stroke="rgb(204, 204, 204)" stroke-width="1px"></line><line x1="123.79328523363385" y1="0" x2="123.79328523363385" y2="5" style="visibility: inherit;" fill="rgb(0, 0, 0)" stroke="rgb(204, 204, 204)" stroke-width="1px"></line><line x1="165.05771364484514" y1="0" x2="165.05771364484514" y2="5" style="visibility: inherit;" fill="rgb(0, 0, 0)" stroke="rgb(204, 204, 204)" stroke-width="1px"></line><line x1="206.32214205605644" y1="0" x2="206.32214205605644" y2="5" style="visibility: inherit;" fill="rgb(0, 0, 0)" stroke="rgb(204, 204, 204)" stroke-width="1px"></line><line x1="247.5865704672677" y1="0" x2="247.5865704672677" y2="5" style="visibility: inherit;" fill="rgb(0, 0, 0)" stroke="rgb(204, 204, 204)" stroke-width="1px"></line><line x1="288.850998878479" y1="0" x2="288.850998878479" y2="5" style="visibility: inherit;" fill="rgb(0, 0, 0)" stroke="rgb(204, 204, 204)" stroke-width="1px"></line></g><g transform="translate(0, 8)"><text style="text-anchor: middle; visibility: hidden; font-family: Roboto, sans-serif; font-size: 12px; font-weight: 200;" x="0" y="0" dx="0em" dy="0.95em" fill="rgb(50, 49, 63)" stroke="none" stroke-width="1px">-500</text><text style="text-anchor: middle; visibility: hidden; font-family: Roboto, sans-serif; font-size: 12px; font-weight: 200;" x="41.264428411211284" y="0" dx="0em" dy="0.95em" fill="rgb(50, 49, 63)" stroke="none" stroke-width="1px">0</text><text style="text-anchor: middle; visibility: hidden; font-family: Roboto, sans-serif; font-size: 12px; font-weight: 200;" x="82.52885682242257" y="0" dx="0em" dy="0.95em" fill="rgb(50, 49, 63)" stroke="none" stroke-width="1px">500</text><text style="text-anchor: middle; visibility: hidden; font-family: Roboto, sans-serif; font-size: 12px; font-weight: 200;" x="123.79328523363385" y="0" dx="0em" dy="0.95em" fill="rgb(50, 49, 63)" stroke="none" stroke-width="1px">1k</text><text style="text-anchor: middle; visibility: hidden; font-family: Roboto, sans-serif; font-size: 12px; font-weight: 200;" x="165.05771364484514" y="0" dx="0em" dy="0.95em" fill="rgb(50, 49, 63)" stroke="none" stroke-width="1px">1.5k</text><text style="text-anchor: middle; visibility: hidden; font-family: Roboto, sans-serif; font-size: 12px; font-weight: 200;" x="206.32214205605644" y="0" dx="0em" dy="0.95em" fill="rgb(50, 49, 63)" stroke="none" stroke-width="1px">2k</text><text style="text-anchor: middle; visibility: hidden; font-family: Roboto, sans-serif; font-size: 12px; font-weight: 200;" x="247.5865704672677" y="0" dx="0em" dy="0.95em" fill="rgb(50, 49, 63)" stroke="none" stroke-width="1px">2.5k</text><text style="text-anchor: middle; visibility: hidden; font-family: Roboto, sans-serif; font-size: 12px; font-weight: 200;" x="288.850998878479" y="0" dx="0em" dy="0.95em" fill="rgb(50, 49, 63)" stroke="none" stroke-width="1px">3k</text></g><line x1="0" y1="0" x2="288.850998878479" y2="0" fill="rgb(0, 0, 0)" stroke="rgb(204, 204, 204)" stroke-width="1px"></line></g></g></g></g></svg>