<svg viewBox="0 0 330 200" xmlns="http://www.w3.org/2000/svg"><g><g><g><g><g><line x1="51.53200149536133" y1="177.86299896240234" x2="46.53200149536133" y2="177.86299896240234" style="visibility: inherit;" fill="rgb(0, 0, 0)" stroke="rgb(204, 204, 204)" stroke-width="1px"></line><line x1="51.53200149536133" y1="155.63012409210205" x2="46.53200149536133" y2="155.63012409210205" style="visibility: inherit;" fill="rgb(0, 0, 0)" stroke="rgb(204, 204, 204)" stroke-width="1px"></line><line x1="51.53200149536133" y1="133.39724922180176" x2="46.53200149536133" y2="133.39724922180176" style="visibility: inherit;" fill="rgb(0, 0, 0)" stroke="rgb(204, 204, 204)" stroke-width="1px"></line><line x1="51.53200149536133" y1="111.16437435150146" x2="46.53200149536133" y2="111.16437435150146" style="visibility: inherit;" fill="rgb(0, 0, 0)" stroke="rgb(204, 204, 204)" stroke-width="1px"></line><line x1="51.53200149536133" y1="88.93149948120117" x2="46.53200149536133" y2="88.93149948120117" style="visibility: inherit;" fill="rgb(0, 0, 0)" stroke="rgb(204, 204, 204)" stroke-width="1px"></line><line x1="51.53200149536133" y1="66.69862461090088" x2="46.53200149536133" y2="66.69862461090088" style="visibility: inherit;" fill="rgb(0, 0, 0)" stroke="rgb(204, 204, 204)" stroke-width="1px"></line><line x1="51.53200149536133" y1="44.465749740600586" x2="46.53200149536133" y2="44.465749740600586" style="visibility: inherit;" fill="rgb(0, 0, 0)" stroke="rgb(204, 204, 204)" stroke-width="1px"></line><line x1="51.53200149536133" y1="22.23287487030027" x2="46.53200149536133" y2="22.23287487030027" style="visibility: inherit;" fill="rgb(0, 0, 0)" stroke="rgb(204, 204, 204)" stroke-width="1px"></line><line x1="51.53200149536133" y1="0" x2="46.53200149536133" y2="0" style="visibility: inherit;" fill="rgb(0, 0, 0)" stroke="rgb(204, 204, 204)" stroke-width="1px"></line></g><g transform="translate(41.53200149536133, 0)"><text style="text-anchor: end; visibility: hidden; font-family: Roboto, sans-serif; font-size: 12px; font-weight: 200;" x="0" y="177.86299896240234" dx="0em" dy="0.3em" fill="rgb(50, 49, 63)" stroke="none" stroke-width="1px">0</text><text style="text-anchor: end; visibility: inherit; font-family: Roboto, sans-serif; font-size: 12px; font-weight: 200;" x="0" y="155.63012409210205" dx="0em" dy="0.3em" fill="rgb(50, 49, 63)" stroke="none" stroke-width="1px">0.01</text><text style="text-anchor: end; visibility: hidden; font-family: Roboto, sans-serif; font-size: 12px; font-weight: 200;" x="0" y="133.39724922180176" dx="0em" dy="0.3em" fill="rgb(50, 49, 63)" stroke="none" stroke-width="1px">0.02</text><text style="text-anchor: end; visibility: inherit; font-family: Roboto, sans-serif; font-size: 12px; font-weight: 200;" x="0" y="111.16437435150146" dx="0em" dy="0.3em" fill="rgb(50, 49, 63)" stroke="none" stroke-width="1px">0.03</text><text style="text-anchor: end; visibility: hidden; font-family: Roboto, sans-serif; font-size: 12px; font-weight: 200;" x="0" y="88.93149948120117" dx="0em" dy="0.3em" fill="rgb(50, 49, 63)" stroke="none" stroke-width="1px">0.04</text><text style="text-anchor: end; visibility: inherit; font-family: Roboto, sans-serif; font-size: 12px; font-weight: 200;" x="0" y="66.69862461090088" dx="0em" dy="0.3em" fill="rgb(50, 49, 63)" stroke="none" stroke-width="1px">0.05</text><text style="text-anchor: end; visibility: hidden; font-family: Roboto, sans-serif; font-size: 12px; font-weight: 200;" x="0" y="44.465749740600586" dx="0em" dy="0.3em" fill="rgb(50, 49, 63)" stroke="none" stroke-width="1px">0.06</text><text style="text-anchor: end; visibility: inherit; font-family: Roboto, sans-serif; font-size: 12px; font-weight: 200;" x="0" y="22.23287487030027" dx="0em" dy="0.3em" fill="rgb(50, 49, 63)" stroke="none" stroke-width="1px">0.07</text><text style="text-anchor: end; visibility: hidden; font-family: Roboto, sans-serif; font-size: 12px; font-weight: 200;" x="0" y="0" dx="0em" dy="0.3em" fill="rgb(50, 49, 63)" stroke="none" stroke-width="1px">0.08</text></g><line x1="51.53200149536133" y1="0" x2="51.53200149536133" y2="177.86299896240234" fill="rgb(0, 0, 0)" stroke="rgb(204, 204, 204)" stroke-width="1px"></line></g></g><g transform="translate(51, 0)" clip-path="url(#clip_0)"><clipPath id="clip_0"><rect width="278" height="177"></rect></clipPath><g><g><g><line x1="0" y1="0" x2="0" y2="177.86299896240234" fill="rgb(0, 0, 0)" stroke="rgb(60, 60, 60)" stroke-width="1px" opacity="0.25"></line><line x1="39.78114264351981" y1="0" x2="39.78114264351981" y2="177.86299896240234" fill="rgb(0, 0, 0)" stroke="rgb(60, 60, 60)" stroke-width="1px" opacity="0.25"></line><line x1="79.56228528703961" y1="0" x2="79.56228528703961" y2="177.86299896240234" fill="rgb(0, 0, 0)" stroke="rgb(60, 60, 60)" stroke-width="1px" opacity="0.25"></line><line x1="119.34342793055943" y1="0" x2="119.34342793055943" y2="177.86299896240234" fill="rgb(0, 0, 0)" stroke="rgb(60, 60, 60)" stroke-width="1px" opacity="0.25"></line><line x1="159.12457057407923" y1="0" x2="159.12457057407923" y2="177.86299896240234" fill="rgb(0, 0, 0)" stroke="rgb(60, 60, 60)" stroke-width="1px" opacity="0.25"></line><line x1="198.90571321759904" y1="0" x2="198.90571321759904" y2="177.86299896240234" fill="rgb(0, 0, 0)" stroke="rgb(60, 60, 60)" stroke-width="1px" opacity="0.25"></line><line x1="238.68685586111886" y1="0" x2="238.68685586111886" y2="177.86299896240234" fill="rgb(0, 0, 0)" stroke="rgb(60, 60, 60)" stroke-width="1px" opacity="0.25"></line><line x1="278.4679985046387" y1="0" x2="278.4679985046387" y2="177.86299896240234" fill="rgb(0, 0, 0)" stroke="rgb(60, 60, 60)" stroke-width="1px" opacity="0.25"></line></g><g><line x1="0" y1="177.86299896240234" x2="278.4679985046387" y2="177.86299896240234" fill="rgb(0, 0, 0)" stroke="rgb(60, 60, 60)" stroke-width="1px" opacity="0.25"></line><line x1="0" y1="155.63012409210205" x2="278.4679985046387" y2="155.63012409210205" fill="rgb(0, 0, 0)" stroke="rgb(60, 60, 60)" stroke-width="1px" opacity="0.25"></line><line x1="0" y1="133.39724922180176" x2="278.4679985046387" y2="133.39724922180176" fill="rgb(0, 0, 0)" stroke="rgb(60, 60, 60)" stroke-width="1px" opacity="0.25"></line><line x1="0" y1="111.16437435150146" x2="278.4679985046387" y2="111.16437435150146" fill="rgb(0, 0, 0)" stroke="rgb(60, 60, 60)" stroke-width="1px" opacity="0.25"></line><line x1="0" y1="88.93149948120117" x2="278.4679985046387" y2="88.93149948120117" fill="rgb(0, 0, 0)" stroke="rgb(60, 60, 60)" stroke-width="1px" opacity="0.25"></line><line x1="0" y1="66.69862461090088" x2="278.4679985046387" y2="66.69862461090088" fill="rgb(0, 0, 0)" stroke="rgb(60, 60, 60)" stroke-width="1px" opacity="0.25"></line><line x1="0" y1="44.465749740600586" x2="278.4679985046387" y2="44.465749740600586" fill="rgb(0, 0, 0)" stroke="rgb(60, 60, 60)" stroke-width="1px" opacity="0.25"></line><line x1="0" y1="22.23287487030027" x2="278.4679985046387" y2="22.23287487030027" fill="rgb(0, 0, 0)" stroke="rgb(60, 60, 60)" stroke-width="1px" opacity="0.25"></line><line x1="0" y1="0" x2="278.4679985046387" y2="0" fill="rgb(0, 0, 0)" stroke="rgb(60, 60, 60)" stroke-width="1px" opacity="0.25"></line></g></g></g><g><g><line x1="0" y1="177.86299896240234" x2="278.4679985046387" y2="177.86299896240234" fill="rgb(0, 0, 0)" stroke="rgb(153, 153, 153)" stroke-width="1.5px"></line></g></g><g><g><line x1="39.78114264351981" y1="0" x2="39.78114264351981" y2="177.86299896240234" fill="rgb(0, 0, 0)" stroke="rgb(153, 153, 153)" stroke-width="1.5px"></line></g></g><g><g><g><g><g><path style="fill: none;" stroke="rgb(255, 112, 67)" stroke-width="2px" d="M40.17895406995501,77.8415534402915L40.25851635524205,72.6522729323847L40.81545235225133,80.52726249543736L41.213263778686525,84.0015225967841L41.3723883492606,96.93638868805382L41.61107520512172,99.27794386004024L41.7701997756958,100.61094486197565L41.84976206098284,101.38645556819246L42.00888663155692,101.84334073988644L42.168011202131005,102.11450713251782L42.406698057992116,99.32295782353422L42.565822628566195,97.65452407975157L43.12275862557547,98.4691608020257L43.44100776672363,101.13188065722107L43.52057005201067,97.03862596893856L43.600132337297715,78.94142647497537L43.83881919315883,73.87045075627454L44.55487976074219,94.72630600272615L44.63444204602923,103.10600571046683L44.71400433131626,108.13349872305783L44.952691187177386,117.70648260041851L45.191378043038505,116.57956265779121L45.50962718418666,27.543604386011694L45.82787632533482,61.91719576192215L45.90743861062187,90.0951565546593L45.9870008959089,110.39529756299811L46.14612546648298,109.11643054170057L46.30525003705706,87.78126724474743L46.3848123223441,69.05930595461597L46.54393689291818,36.87261652532871L46.623499178205215,7.650493002509477L46.7826237487793,-29.761692133849767L47.498684316362656,-5.183983009877201L47.737371172223774,11.308990295260076L47.81693345751081,30.56135189644444L47.97605802808489,48.92400197907071L48.29430716923305,73.2420026025051L48.69211859566825,15.832295465265073L48.771680880955294,11.157447343484783L49.72642830439976,33.447670643840574L49.8059905896868,49.82527799000628L50.12423973083496,71.23217259266367L50.36292658669608,88.96747222402504L50.52205115727016,108.7131981939056L50.681175727844234,119.69494167036758L51.3972362954276,118.41829349486807L51.87461000714983,113.25270992303449L52.27242143358503,113.12951617299154L52.35198371887207,113.72258752076749L52.59067057473319,126.37715775501952L52.74979514530727,133.73434951502372L52.908919715881346,136.13291605266352L53.38629342760359,139.84890273832252L53.46585571289063,139.33940938432173L54.18191628047398,139.08939423219428L54.341040851048064,136.14439611892632L54.500165421622135,137.33147444516536L54.738852277483254,142.15577053072596L55.454912845066616,138.3681736812586L55.693599700927734,135.81546534212688L55.773161986214774,135.94140856256877L55.93228655678885,135.68938438445926L56.17097341264997,138.48177315974684L56.72790940965925,139.76425002587857L56.88703398023333,140.94636488042872L56.966596265520366,142.17458358522666L57.28484540666852,135.37357796214042L57.36440769195556,135.17366418759948L57.44396997724261,132.8970259516731L57.52353226252965,136.27937438844035L57.76221911839077,135.30691354550882L57.84178140367781,139.76064000556974L58.160030544825965,140.05673070092257L58.239592830113,139.25097372992332L58.319155115400044,139.3936898642842L58.71696654183524,142.64415957890577L58.87609111240932,142.19924921170835L58.95565339769636,144.20257602048562L59.27390253884452,147.1560079833017L59.671713965279714,146.59975527481788L59.751276250566754,147.25780427209256L59.91040082114083,149.02898406468742L60.06952539171491,151.3416513866647L60.14908767700195,143.78453917519292L60.22864996228899,139.25027184830984L60.46733681815011,139.20809599992856L60.626461388724195,142.99624612230485L60.86514824458531,144.40830005765466L61.024272815159385,147.12877576887513L61.26295967102051,149.89854162689494L61.34252195630754,144.86192109713926L61.6607710974557,141.40481016132296L61.74033338274275,144.06753555621898L61.81989566802979,146.05947390902384L61.899457953316826,132.952910890008L62.138144809177945,138.59112285027786L62.217707094464984,141.55743332015476L62.61551852090018,145.6622789931884L63.2520168031965,146.84413982305983L63.411141373770576,146.15723938859625L63.49070365905762,141.69065655435259L63.649828229631694,137.9841326115427L63.80895280020578,127.80182746171457L63.88851508549281,134.55082788620678L64.12720194135393,139.46655550441403L64.20676422664097,143.66828467138967L64.28632651192801,148.83355262229452L64.44545108250209,146.81364395839137L64.92282479422433,146.6274812057043L65.00238707951137,145.5198698962045L65.0819493647984,148.2234385803142L65.47976079123362,145.75657479829403L65.63888536180768,145.86503160518365L65.71844764709472,141.44142976315874L65.8775722176688,138.94018479215052L66.67319507053921,135.1949942459771L66.83231964111327,137.61937223949266L67.0710064969744,143.94774652427807L67.30969335283552,142.61945093998452L67.4688179234096,139.6928438470819L67.70750477927072,142.1968306556673L67.8666293498448,144.11947790160437L68.02575392041888,143.59074112939263L68.18487849099296,144.6536568755791L68.42356534685408,142.68315540864444L68.50312763214112,149.6044198956787L68.6622522027152,146.70856459206098L69.21918819972447,99.74257724779568L69.29875048501151,58.88341898338579L69.37831277029855,32.56483418557042L69.45787505558559,9.552087427418817L70.25349790845598,-0.38828021968593496L71.84474361419677,-3.0822246537125584L72.08343047005789,2.181746402160763L72.56080418178013,47.63116201475793L72.64036646706717,77.81068379763617L72.79949103764126,102.56657132361548L72.8790533229283,118.29286413604251L73.35642703465052,134.6335120899801L73.43598931993758,139.9306491889626L73.6746761757987,147.81602976979676L73.99292531694685,147.78136310097042L74.07248760223389,143.69268731564975L74.15204988752093,142.51208948990424L74.23161217280797,131.3087201851184L74.62942359924317,122.99874387725401L74.86811045510429,115.51025509360721L74.94767274039131,117.92162659624826L75.02723502567835,127.06852906191963L75.42504645211356,135.23491346017965L75.82285787854876,126.09755930323281L75.98198244912284,134.1291934076162L76.06154473440988,138.79232825423455L76.14110701969692,145.2698321172124L76.22066930498394,151.69874986351192L76.37979387555804,154.4869146081166L77.01629215785435,155.60703920495646L77.33454129900251,151.815138612494L77.41410358428956,142.8898186338289L78.20972643715994,141.82097948972336L78.60753786359516,134.64146519990078L78.76666243416922,142.60503703498776L78.84622471945626,147.93796700705028L78.9257870047433,149.23338788683574L79.00534929003034,153.51056777969706L79.32359843117851,154.28092281283287L79.72140985761371,151.35646934059645L79.80097214290075,152.4758077464582L80.03965899876185,152.4098986302083L80.43747042519706,154.2600942057116L80.5170327104841,153.97152934510484L80.83528185163225,152.75325369108174L80.9148441369193,155.7376373485737L80.99440642220634,154.7672653138026L81.15353099278042,154.4045776416175L81.39221784864152,153.59487013565763L81.7104669897897,151.50306842360675L81.79002927507673,150.13380220863434L82.10827841622489,141.8746426631639L82.18784070151193,141.63465519745853L82.58565212794713,138.4847294718687L82.7447766985212,142.86833924694767L83.1425881249564,145.2851565096232L83.22215041024344,142.47032636811784L83.30171269553048,147.22387642181423L83.5403995513916,149.0187293871965L83.61996183667864,151.47654770411344L83.69952412196568,148.92414292031268L83.9382109778268,152.2083896321306L84.01777326311384,149.94185924672536L84.09733554840088,152.38277179781937L84.17689783368792,152.8894665715964L84.57470926012311,155.96699994427286L84.7338338306972,156.70048625688995L84.81339611598423,157.40049687666811L84.89295840127129,154.10693159980354L84.97252068655833,151.4080428081819L85.21120754241943,152.64316446829957L85.37033211299351,152.43762225601492L85.60901896885464,149.3550589764223L85.68858125414167,144.68181362306092L86.08639268057688,145.92499314836888L86.16595496586392,150.04117319032022L86.40464182172502,153.6289791946439L86.5637663922991,155.22082149818303L86.9615778187343,159.51493110929462L87.12070238930838,156.9714201055479L87.35938924516951,148.51867511246598L87.51851381574357,149.722091611637L87.59807610103061,142.18393459012833L87.67763838631765,145.67117457281122L87.7572006716047,148.1132516459525L87.91632524217879,152.1181391313821L87.99588752746583,154.59657473002565L88.15501209803989,152.098165129248L88.31413666861397,152.51581711301876L88.39369895390102,149.0343122581544L88.47326123918806,149.290695164152L88.71194809504918,151.99429717034107L88.9506349509103,152.6368527446487L89.3484463773455,152.59335076542385L89.66669551849365,149.39298915201223L89.7462578037807,155.2027735431237L89.90538237435477,155.97688324955664L90.14406923021589,155.90529862801876L90.46231837136405,155.56093092948788L90.54188065665109,156.74672937197246L90.70100522722517,154.98896503730302L90.7805675125122,153.46580303340082L90.86012979779925,151.04478724521442L90.93969208308629,153.23706520641065L91.25794122423446,153.20443138610008L91.33750350952148,153.84619341379474L91.49662808009556,150.09788018065518L91.5761903653826,150.7818244899659L91.89443950653077,154.70226229929452L92.53093778882707,146.76614554445618L92.84918692997523,142.45770285212862L92.92874921526229,139.168408694668L93.16743607112339,136.49646427821568L93.24699835641043,136.68793445894673L93.32656064169747,138.95120758249843L93.48568521227155,138.00246418817807L93.5652474975586,131.8181693091203L93.72437206813268,137.49580716304763L93.88349663870675,137.66293294988296L93.96305892399378,142.38895129834611L94.12218349456788,142.4185436249307L94.28130806514196,144.37055874764425L94.51999492100306,142.46355248969894L94.7586817768642,139.82412531948054L95.07693091801234,137.67766065035917L95.15649320329938,137.93634449508772L95.71342920030865,135.325279174114L95.87255377088275,126.52196186749894L95.95211605616979,123.23110970434838L96.34992748260497,109.70645586963224L96.66817662375314,127.4028349501662L96.82730119432722,140.39556522047434L97.14555033547538,143.26473267564577L97.54336176191059,147.27687671926182L97.94117318834577,147.49302753702656L98.02073547363281,147.87717876402263L98.10029775891987,150.45185873052753L98.33898461478097,145.1163119786935L98.49810918535505,140.46916497628285L98.65723375592913,142.77526965262513L98.73679604121618,143.31413517111875L98.89592061179025,143.16794725328813L99.13460746765136,134.4522769839996L99.2141697529384,136.53639199356073L99.29373203822546,134.81467352826846L99.45285660879952,135.03357724583995L99.6119811793736,138.96607906965485L99.69154346466064,139.24867860938954L99.85066803523473,140.7322579352079L100.00979260580881,140.64547594192413L100.32804174695696,140.32424062385263L100.48716631753105,139.19959623633153L100.80541545867919,139.3909704912656L100.88497774396623,139.84188951399375L101.12366459982736,142.51130636414533L101.28278917040144,138.83777555901756L101.52147602626255,141.3275267619914L101.68060059683664,144.36034434891025L101.83972516741072,146.24508811533636L102.07841202327182,145.01576012966393L102.31709887913296,141.26321885035279L102.39666116442,142.0311566151313L102.7944725908552,140.84494008736243L103.19228401729038,144.81173424213964L103.51053315843855,147.13102378049294L103.59009544372559,144.08592836883565L103.66965772901263,143.83631466402753L103.82878229958669,142.72227483100102L103.90834458487375,142.97410742920863L103.98790687016078,140.8648032565178L104.38571829659598,135.33566270716253L104.6244051524571,137.10636111833662L104.70396743774414,133.98444981805642L104.78352972303118,136.86615928408233L104.86309200831822,127.3755495954647L105.02221657889231,128.28679171666784L105.26090343475342,131.33955503518823L105.49959029061453,135.40588171164944L106.2156508581979,137.13261683337322L106.45433771405901,133.6606367988751L107.01127371106828,134.41597501830694L107.09083599635532,136.95889981802304L107.17039828164236,140.51459426546216L107.48864742279054,140.9828245664814L107.6477719933646,145.25435885079693L107.80689656393868,146.9006340459722L107.88645884922573,146.0223664629379L108.20470799037388,143.61766936582313L108.68208170209613,124.0412378118378L108.84120627267019,94.69643701097529L109.07989312853132,116.47728006108193L109.15945541381836,130.4351035164454L109.39814226967948,133.3970784561762L109.6368291255406,141.68753925610764L109.79595369611468,147.2746348382415L109.95507826668876,152.01056255918817L110.35288969312396,154.44098460027672L110.432451978411,152.51892309870462L110.67113883427211,148.00188407508315L110.98938797542027,147.85923840833073L111.14851254599435,140.6846396488453L111.46676168714251,137.61218757898368L111.54632397242955,136.36160634928083L111.78501082829067,132.25944176547915L111.94413539886476,132.32122610004382L112.02369768415178,134.99987264508846L112.2623845400129,133.54528578728446L112.34194682529994,138.99011896458788L112.58063368116107,143.13500370024525L112.6601959664481,140.04024799959436L112.73975825173514,142.41910308417775L113.21713196345739,144.15649727008125L113.61494338989257,137.93969857487033L113.77406796046667,136.957387153942L113.85363024575369,135.06435522275746L114.96750223977226,137.24614894688892L115.0470645250593,138.17928743998283L115.20618909563336,133.51357132793544L115.76312509264264,134.07104620790545L115.84268737792968,137.0945966554644L115.92224966321672,135.17885470093867L116.24049880436489,138.70493537400893L116.32006108965193,136.47219416739645L116.63831023080009,137.2115870267011L116.95655937194823,136.29376822881787L117.03612165723527,136.46833282720004L117.19524622780936,135.59891162910733L117.35437079838344,131.41766277742306L117.43393308367048,131.97598401224445L117.51349536895752,132.01473052442154L117.59305765424455,135.10997368743037L118.22955593654086,133.81464598968975L118.54780507768903,127.6774418605476L118.70692964826311,128.81169766574786L118.94561650412423,128.70570226313401L119.34342793055943,120.1137730750404L119.82080164228167,111.78787432437355L119.9003639275687,109.76402063208924L119.97992621285576,111.33471218775095L120.13905078342982,110.57434697956525L120.37773763929094,84.33322821851323L121.17336049216135,102.8017389140482L121.33248506273543,116.96612286050896L121.4916096333095,126.31468725478516L121.73029648917063,135.45783612480471L121.96898334503175,142.90657267541147L122.12810791560581,145.8859623210863L122.20767020089285,144.53963779871017L122.60548162732806,146.03075165408202L122.68504391261509,150.20527674113927L122.92373076847622,144.19155730445908L123.00329305376326,149.2767538078378L123.0828553390503,149.65894399650983L123.3215421949114,147.35244830238642L123.40110448019844,151.80948290175243L123.71935362134661,153.3208302465791L123.87847819192068,152.9248980119782L124.35585190364293,150.32862047008118L124.514976474217,153.3072604639597L124.75366333007813,155.18468111356702L125.07191247122628,150.8377582771137L125.39016161237444,149.90575185934043L125.54928618294852,147.11625822361103L125.86753532409668,152.0224407279546L125.94709760938372,154.552655157559L126.34490903581893,151.24814779163478L126.504033606393,152.9766189250069L127.45878102983748,156.2514045444342L127.77703017098563,151.6221237712519L127.85659245627267,145.86686335905154L127.9361547415597,149.38975327966273L128.17484159742082,153.0086544864828L128.3339661679949,152.34363812872724L128.57265302385602,153.15332985644187L128.89090216500418,153.07871025942868L129.05002673557826,151.477132193452L129.1295890208653,148.23870001842087L129.44783816201345,150.58478140940932L129.5274004473005,147.44948726176688L129.76608730316164,151.12560981402586L130.08433644430977,148.57872877573118L130.1638987295968,148.26425787807997L130.32302330017092,149.80384205559918L130.48214787074497,152.81547325458035L130.72083472660609,148.49887672889446L131.11864615304128,145.4290171834669L131.27777072361536,146.9970745974637L131.43689529418944,144.69039997951288L131.6755821500506,143.53772902383548L132.07339357648578,147.20246964125496L132.15295586177282,142.59379380087663L132.3120804323469,144.59161098067145L132.47120500292095,147.19072114015316L132.550767288208,145.37028911389967L132.63032957349506,142.739779459861L132.86901642935618,146.13426778902644L133.26682785579138,149.91576164040004L133.42595242636546,148.50302403160825L133.5055147116525,146.52747962059118L133.82376385280065,141.07835970832704L134.22157527923582,142.9820967026654L134.539824420384,145.4320067353533L134.85807356153214,149.47949256264945L134.9376358468192,146.0556264843803L135.3354472732544,147.1604204260748L135.49457184382848,145.22021822981566L135.65369641440256,148.21839112873576L135.81282098497664,150.50145447547428L136.05150784083776,146.79614539840688L136.1310701261248,144.52670942263472L136.44931926727295,146.89281550460166L136.9266929789952,137.76438090088837L137.08581754956927,137.4439253705058L137.24494212014335,140.47543703696792L137.40406669071743,140.08074409850073L137.48362897600447,142.0287204603239L137.88144040243967,146.06774910681622L138.27925182887486,146.90341614478402L138.51793868473598,146.92341396824403L138.67706325531006,148.33397560179398L138.83618782588414,149.5581561015485L138.91575011117118,149.93940136269498L139.07487468174526,148.46499732666967L139.23399925231934,144.72403726015906L139.47268610818045,136.11333034810428L139.63181067875453,141.02032735618477L139.71137296404157,142.33348003879183L139.7909352493286,144.5024181584567L139.87049753461568,144.1297225652443L140.42743353162496,148.39143670586608L140.586558102199,144.37252809448054L140.82524495806013,149.96657214125798L140.90480724334716,151.0427419457483L140.98436952863423,145.99406872676428L141.46174324035644,144.1607012993261L141.85955466679164,148.40004863422607L142.09824152265276,147.7777866716825L142.1778038079398,147.75746062590602L142.81430209023614,149.2873990500101L142.89386437552315,150.0464205305906L142.97342666081022,147.7266086673218L143.05298894609723,151.16521507767945L143.2121135166713,148.37285435256973L143.6099249431065,143.7822738823785L143.76904951368059,136.9955025922247L143.84861179896762,140.1690819642739L144.48511008126397,143.76256409503972L144.56467236655098,136.19906260069658L144.88292150769914,139.4015926842514L145.04204607827324,136.1034541422427L145.20117064884732,136.79593209695844L145.28073293413433,135.20726901222744L145.4398575047084,138.55123997928905L145.7581066458566,139.67751495335895L145.8376689311436,142.6395719399218L145.9967935017177,143.88844174559398L146.1559180722918,136.26771149328852L146.2354803575788,140.92370671490687L146.3946049281529,137.19000675154274L146.47416721343996,138.5458784992523L146.55372949872697,132.58968631216476L146.63329178401403,134.5770666889314L146.95154092516216,137.6564124930484L147.03110321044923,139.9447285016349L147.26979006631032,141.55464502072888L147.3493523515974,131.28305634690486L147.42891463688443,136.16592424689324L147.7471637780326,137.00914662552557L147.8267260633196,138.90161364704593L147.9858506338937,140.17937540372782L148.38366206032887,139.22378869658482L149.02016034262522,138.91596351166035L149.25884719848634,137.29061103565746L149.41797176906041,135.0880651119663L149.5770963396345,131.35502490971254L149.65665862492153,127.62154605782243L149.9749077660697,130.40113948546093L150.13403233664377,131.72968854962343L150.3727191925049,135.4090156211306L150.45228147779193,129.69200164107386L150.61140604836598,133.76901402260697L151.16834204537525,133.80718078192322L151.32746661594936,128.97414628781902L151.4070289012364,132.2499415857249L151.72527804238456,132.99895248025092L151.8048403276716,132.0817379478038L152.04352718353272,132.85239100844498L152.12308946881976,134.73314235600358L152.2026517541068,133.48194784528906L152.36177632468087,132.11850314298977L152.4413386099679,128.02005113121075L152.600463180542,121.33413771906261L152.75958775111607,127.24004428816228L152.8391500364031,123.75365185441824L153.15739917755127,129.0072191153564L153.3960860334124,131.520152671043L153.71433517456055,124.41228445356309L153.79389745984759,128.98729681792818L154.0325843157087,129.2140415034417L154.19170888628278,118.79771717618159L154.35083345685686,113.91244986046608L154.4303957421439,115.22266395990324L154.50995802743094,125.01349438445395L155.2260185950143,129.78957527825304L155.3851431655884,131.68499964975913L155.6238300214495,132.57336675743548L155.78295459202357,129.68625801256843L155.94207916259768,122.30726543291497L156.49901515960696,125.71832667371763L156.57857744489397,130.6896447491745L156.8172643007551,134.14461969224558L156.89682658604212,134.95693028203516L156.97638887132916,136.94121640736049L157.3742002977644,132.65967840572952L157.61288715362548,130.53882800497752L157.7720117241996,124.79167635043586L158.01069858006068,126.74445530782616L158.09026086534772,121.60776811538518L158.16982315063476,120.60281886110536L158.48807229178294,121.72941967303896L158.56763457706995,116.56797395833806L158.72675914764403,111.4457968186482L158.88588371821814,106.95208030357306L158.96544600350515,111.55655801926818L159.2836951446533,114.51421876594448L159.36325742994035,124.28802990484031L159.6815065710885,128.7395476911356L159.76106885637557,130.86801970910074L159.92019342694965,134.65308223593962L160.0793179975237,134.7802939910178L160.47712942395893,128.192097147374L160.55669170924597,128.95754141480873L160.71581627982005,130.56161666638474L160.95450313568114,132.65766608948658L161.5114391326904,135.19050074670824L161.6705637032645,133.99906344863348L161.98881284441268,131.22308658130294L162.0683751296997,129.34258068890202L162.38662427084788,126.34235070366856L162.4661865561349,128.27523887019893L162.94356026785715,129.4148140861563L163.18224712371824,133.67841745449874L163.2618094090053,140.8701309903896L163.34137169429232,142.9017328171951L163.50049626486643,146.95426728340806L163.58005855015347,147.58198583831407L163.6596208354405,146.22240661364603L163.73918312072752,145.2517112740511L164.0574322618757,147.4024989378588L164.13699454716274,138.18517374286733L164.2961191177368,142.6903194363081L164.37568140302386,142.80100594996853L164.53480597359794,142.87437672334022L164.77349282945906,145.88225374449908L164.8530551147461,135.29527109390546L165.17130425589426,139.07762173726704L165.2508665411813,144.14483384536248L165.8873648234776,140.45096325314452L166.2851762499128,128.14997639630238L166.76254996163505,105.02237185794915L166.84211224692206,109.04975668916966L166.92167453220912,115.44561654340785L167.31948595864432,121.62930034954107L167.63773509979248,127.68055503954936L168.11510881151474,136.68137598477165L168.43335795266287,144.93382054834296L168.75160709381103,146.70496746312952L168.9107316643851,144.58833381679764L169.0698562349592,142.0293319404611L169.3085430908203,140.43201993964587L169.7063545172555,142.85672040999125L170.1041659436907,140.29100705687938L170.66110194069998,139.22180021606968L171.13847565242222,145.27576786936814L171.2976002229963,146.71203265104998L171.4567247935704,152.03374245668982L171.61584936414448,146.68823165922012L171.6954116494315,145.81002306584668L171.9340985052926,147.4586825003111L172.65015907287597,143.34313312230762L173.5253442110334,147.56090850385326L173.60490649632047,151.54344462741818L173.84359335218159,150.8410659748286L173.9231556374686,152.2877975732626L174.24140477861675,155.03786667127025L174.32096706390382,150.29871576757367L174.48009163447787,146.29094131932334L174.8779030609131,146.95126831598722L175.11658991677422,151.8347456854482L175.5144013432094,149.37445389594666L175.59396362849645,152.93193526810825L175.6735259137835,151.8505703246283L175.83265048435757,151.67483823698967L175.91221276964458,151.30167979606642L176.31002419607978,148.49908124785057L176.38958648136685,151.99403325003163L176.62827333722794,151.38938531126064L176.707835622515,150.509535141148L177.1056470489502,145.02322322886445L177.5830207606724,147.14899544446098L177.66258304595948,151.2705286159512L178.06039447239468,149.935692000898L178.37864361354283,145.34412754133544L178.77645503997803,145.72180294326995L179.41295332227432,145.15903251854394L180.68594988686698,145.92817851527187L180.76551217215402,149.20884303086996L181.16332359858922,147.8304673858369L182.19763330732073,147.82100181407944L182.27719559260777,144.09887848898848L182.67500701904297,140.89775571898713L182.83413158961704,139.5129610568839L182.99325616019112,134.93856596864492L183.0728184454782,133.21596606400774L183.1523807307652,131.43993777850093L183.47062987191336,132.9580442482294L183.62975444248747,136.02813582596454L183.78887901306155,134.79981720912082L183.9480035836356,136.5006750349289L184.18669043949674,139.9750701229402L184.26625272478375,141.78990413775432L184.42537729535783,139.97307249873677L184.5845018659319,138.40060373270103L184.66406415121895,139.72363198356584L184.74362643650602,141.53782132173842L184.82318872179303,140.96445985724193L184.9823132923671,138.937311982096L185.06187557765415,139.4110667372406L185.1414378629412,141.3388417068321L185.3801247188023,140.37994458789404L186.01662300109865,142.64847966848913L186.33487214224678,143.57551727553565L186.41443442753385,144.29576928662487L186.65312128339494,145.77753717639487L187.1304949951172,147.6084441176981L187.21005728040421,152.15282749104537L187.3691818509783,154.2687520791401L187.7669932774135,152.19494647930142L187.92611784798757,139.79706077233135L188.00568013327464,128.45207035039826L188.32392927442277,92.95721156012715L188.40349155970983,45.592327705676176L188.80130298614503,45.499188911778305L188.9604275567191,44.275372507797705L189.03998984200612,50.909442518816235L189.1991144125802,64.46139690878516L189.91517498016358,97.29020322963041L189.99473726545062,116.3496277663268L190.15386183602467,126.48661264217469L190.31298640659875,136.05959959625844L190.5516732624599,144.72758775155344L190.63123554774694,148.4023806914248L191.3472961153303,151.9339721349583L191.82466982705253,147.7247592977208L192.3816058240618,150.77249494546527L192.69985496520994,150.24540227856306L192.779417250497,151.42426987693818L193.09766639164516,146.92829405136865L193.8137269592285,138.65883581944024L194.13197610037668,131.39631588839828L194.21153838566372,120.3210590430275L194.29110067095075,122.82243125646302L194.68891209738595,129.6409688920565L195.1662858091082,132.9083679025402L195.4049726649693,135.3522289551515L195.48453495025635,136.678974041384L195.5640972355434,139.8320612817814L195.8027840914045,138.26159494347263L195.96190866197858,139.849068863291L196.12103323255266,140.47228177937225L196.20059551783973,139.80439899971051L196.28015780312674,133.5210064874775L196.5984069442749,134.18516947748031L196.75753151484898,132.13575351365247L196.9962183707101,136.85011776515276L197.07578065599714,141.46883936565436L197.15534294128418,142.2362123520906L197.47359208243236,139.07967941804597L197.95096579415457,139.19844866061618L198.50790179116385,137.36965178605502L198.5874640764509,135.7564254078598L198.66702636173792,136.41804675746621L199.06483778817312,138.50622755167984L199.1444000734602,128.1647953384162L199.30352464403427,130.8397809264066L199.94002292633056,132.24274653398356L200.09914749690464,132.30402812788407L200.25827206747874,126.84884776726348L200.33783435276575,123.0246805842077L200.5765212086269,124.83758211442935L201.13345720563618,123.73437709091837L201.3721440614973,129.27723402744732L201.53126863207137,136.49792905487422L201.69039320264545,143.44836855123987L202.08820462908065,137.9996824694956L202.48601605551582,140.57198260368054L202.5655783408029,134.1713294253785L202.64514062608993,134.38998510152896L202.96338976723808,134.78028980627485L203.0429520525251,141.4980022568394L203.52032576424736,139.67947992268418L203.67945033482144,137.04380655820748L203.8385749053955,139.69966316462617L204.07726176125664,136.72878358099814L204.15682404654365,135.76879998917173L204.23638633183072,140.8043668203667L204.31594861711775,144.54472781202057L204.55463547297884,147.3632081494187L204.71376004355292,147.42740113589986L205.11157146998812,144.8924164423451L205.35025832584927,110.20852046374966L205.50938289642335,94.09820472290507L205.82763203757148,96.28353747007141L205.90719432285854,110.86780422891445L206.30500574929374,125.26806333895412L206.6232548904419,127.85772820902767L206.86194174630302,132.00717224615042L206.94150403159003,129.62691515981405L207.1006286021641,130.8007602737009L207.4188777433123,132.304939282422L207.49844002859933,137.81016368794647L207.65756459917338,134.49240607197115L207.73712688446045,136.26508789928027L208.21450059618266,128.88145297298394L208.29406288146973,129.44583723258202L208.4531874520438,134.3921144679381L208.61231202261789,126.1686706078812L208.850998878479,131.21503489877088L208.93056116376604,125.0271890629797L209.08968573434012,119.6837068734595L209.32837259020124,120.31230510126571L209.6466217313494,102.27766012656458L209.80574630192348,95.75829662405805L209.88530858721052,87.83410509351934L210.04443315778462,96.05136211128345L210.12399544307164,112.05699623562236L210.6809314400809,126.48832091850063L210.840056010655,130.832512476628L211.0787428665161,136.21935660088354L211.2378674370902,134.23207566101274L211.31742972237726,137.1546475697122L211.39699200766427,135.54008174877453L211.87436571938653,132.50585963455137L212.6699885722569,126.44715881906475L212.82911314283098,118.13182900863828L213.22692456926617,130.16724464579573L213.38604913984025,138.08003560315163L213.70429828098844,141.62847043902525L213.78386056627545,140.09255993576315L213.86342285156252,142.43933303655055L214.02254742213657,142.0939798714729L214.18167199271065,145.87260252936838L214.26123427799772,147.2327432920415L214.57948341914584,145.13083030845416L215.05685713086808,140.6170400258213L215.2159817014422,140.95069934445942L215.37510627201627,139.4484146166249L215.69335541316443,136.0704961388711L216.40941598074775,135.00948347386077L216.48897826603482,135.09197959170453L216.56854055132183,129.0347972673615L216.88678969247,123.5011483642178L217.2846011189052,126.95054505274042L217.36416340419225,127.706763109007L217.44372568947927,127.84127236056804L217.76197483062745,128.91050119162978L217.84153711591446,123.32329592510442L218.0802239717756,125.33806337673197L218.2393485423497,126.71159766461341L218.4780353982108,128.68402872350165L218.875846824646,127.46278946236217L219.03497139522008,129.03517455034694L219.19409596579416,124.17519696111012L219.2736582510812,125.53473816522444L219.67146967751637,128.84038824718374L219.83059424809048,128.45515352698158L220.22840567452565,125.14094719493798L220.4670925303868,122.55565391140988L220.62621710096087,120.9460804566718L220.78534167153492,124.3045927624958L221.18315309797015,124.47291406676791L221.42183995383127,123.94874367115358L221.58096452440535,123.53457941919838L221.74008909497942,121.93118269551718L221.81965138026646,117.13912176257374L222.05833823612755,119.5772429725128L222.13790052141462,121.0371704801278L222.21746280670166,126.0162402025336L222.45614966256278,129.1162231690447L222.53571194784982,123.02372419685392L222.61527423313683,124.249591273978L223.25177251543317,127.84492516251818L223.3313348007202,123.84129191327708L223.41089708600725,125.83992248524177L223.57002165658133,120.84102298882996L223.64958394186837,124.0081571818276L223.96783308301653,123.31573945737428L224.1269576535906,125.46205398790406L224.84301822117396,132.59287182354072L225.24082964760916,123.93224226008154L225.3203919328962,126.45145203557436L225.39995421818324,127.41575699431787L225.55907878875735,126.9037610637648L225.95689021519252,122.69992036398826L226.03645250047956,120.01229610069556L226.11601478576662,124.44474244745166L226.19557707105363,122.47435517185981L226.3547016416277,122.74100789907644L226.5138262122018,123.38746081933688L226.83207535334998,127.02937975753908L227.1503244944981,130.36290289631546L227.22988677978515,132.70038673761022L227.38901135035925,132.1827851741925L227.62769820622034,131.78822091055864L227.78682277679442,128.88639435563263L228.3437587738037,136.42788869595114L228.7415702002389,141.52027156174228L228.98025705610002,139.69787554306174L229.37806848253524,144.22920947347322L229.61675533839636,138.0988155612781L229.69631762368337,137.07035803861646L229.77587990897044,142.68495557198688L230.0941290501186,146.12265009132827L230.41237819126673,149.05217310559735L230.5715027618408,148.37526225317995L231.20800104413715,136.230051859211L231.28756332942416,139.70497709266027L231.36712561471123,134.02083384541086L231.68537475585936,134.81978548505128L232.00362389700754,132.97214740281456L232.3218730381557,137.29801502526885L232.4014353234427,137.0721862099405L232.7196844645909,139.93156020508167L232.7992467498779,141.25376356097323L232.87880903516498,142.21665511291414L232.958371320452,138.14631204308148L233.27662046160017,131.89586267862572L233.51530731746126,135.14393708175805L233.7539941733224,127.46657905400701L233.91311874389646,121.67911180188561L234.07224331447054,121.18811839060025L234.39049245561873,130.11890862506914L234.78830388205392,131.10126536568117L234.86786616734096,129.28054826487914L234.947428452628,121.25187203964894L235.10655302320208,129.39902384390092L235.1861153084891,135.40518679632234L235.3452398790632,137.40524713484425L235.50436444963728,135.16981699626376L235.58392673492432,138.47889883517843L235.66348902021136,138.46952653829487L236.29998730250767,138.57722283801516L236.45911187308172,131.17461385941917L236.69779872894287,135.42086283282117L236.7773610142299,129.71592653539616L236.85692329951695,133.39627318024773L236.936485584804,130.6438820385292L237.09561015537807,131.73054794256376L237.25473472595215,134.97404312201874L237.49342158181327,131.83940832812345L237.5729838671003,137.5283165013016L237.89123300824846,137.64004099173926L237.9707952935355,136.47149364264985L238.05035757882254,137.9501630761421L238.2890444346837,133.435012671948L238.92554271697998,133.98253053086933L240.3576638521467,133.374236530369L240.43722613743373,136.2673275888547L240.83503756386895,133.73855740620513L240.91459984915596,132.23898979740179L241.07372441973007,128.27619067663653L241.23284899030415,122.26265737426694L241.31241127559116,121.79807925760652L241.55109813145228,118.78535808589332L241.86934727260044,125.00505547928321L241.9489095578875,128.00484801155142L242.10803412846155,128.43733385583636L242.26715869903563,129.33541098393565L242.3467209843227,134.77521157667275L242.74453241075787,132.71678917999924L242.8240946960449,133.6777405682489L243.06278155190606,132.10540853430285L243.14234383719307,132.164385721759L243.46059297834125,132.54325605352375L243.54015526362826,129.55313923610973L243.61971754891533,124.8341840678599L244.09709126063754,119.9442607067727L244.25621583121162,119.91907423444009L244.3357781164987,126.9238505291118L244.4153404017857,128.60750441076564L245.44965011051724,127.76749500236102L245.52921239580425,130.69106258009708L245.68833696637836,132.17754439985518L246.08614839281353,130.9352832202087L246.48395981924872,132.24366139025275L246.6430843898228,131.9124124392136L247.12045810154507,129.3664234335648L247.27958267211915,130.22146197973015L247.43870724269323,135.83412322363216L247.5978318132673,119.8555240033228L247.67739409855434,123.4774136663189L247.83651866912842,127.84713040128347L248.23433009556362,130.39191101241957L248.31389238085066,138.52254696612673L248.3934546661377,137.10611733773965L248.4730169514247,132.64660790393296L248.71170380728586,135.58648447211462L248.7912660925729,137.3386924858037L249.029952948434,135.899474068135L249.10951523372105,134.22615705475135L249.1890775190081,126.04717101370358L249.26863980429513,130.26876194846824L249.58688894544326,117.89452034225926L249.66645123073033,118.1444921700934L250.06426265716553,118.3670869913747L250.2233872277396,111.73723817412723L250.6211986541748,112.5921141497721L250.70076093946184,116.93859093259017L250.85988551003595,104.76496612328368L251.01901008061,102.34141559587732L251.09857236589704,90.39638439266105L251.25769693647112,87.73542716448063L251.4168215070452,64.70921884314876L251.8146329334804,13.406582437437583L252.05331978934151,-19.577174613765887L254.59931291852678,-3.427043678631306L254.67887520381382,0.5633698608197364L254.75843748910086,-2.9727199607819057L258.8161140387399,-2.2212832920307934L258.975238609314,6.17885033435135L259.21392546517507,3.999892233153545L259.5321746063233,-6.503587342581532L261.36210716792516,-18.356486178835265L261.91904316493446,7.478062494972207L262.23729230608257,26.817262637123697L262.31685459136963,42.284190284026046L262.5555414472307,48.016415595406265" fill="none"></path></g></g></g></g><g opacity="0.2"><g><g><g><path style="fill: none;" stroke="rgb(255, 112, 67)" stroke-width="2px" d="M40.17895406995501,77.84155344029149L40.25851635524205,69.53870462764063L40.81545235225133,88.08725247596787L41.213263778686525,88.08725247596787L41.3723883492606,113.82414985681558L41.61107520512172,102.51715762275933L41.7701997756958,102.51715762275933L41.84976206098284,102.51715762275933L42.00888663155692,102.51715762275933L42.168011202131005,102.51715762275933L42.406698057992116,95.1609530068333L42.565822628566195,95.1609530068333L43.12275862557547,99.68845595519593L43.44100776672363,105.12074389462225L43.52057005201067,90.903555403746L43.600132337297715,51.808390781228056L43.83881919315883,66.2661330451994L44.55487976074219,126.00479357301577L44.63444204602923,115.67427870916902L44.71400433131626,115.67427870916902L44.952691187177386,132.06543341127255L45.191378043038505,114.88921982563103L45.50962718418666,-106.00857516197794L45.82787632533482,113.47717563782808L45.90743861062187,132.36189746687964L45.9870008959089,140.84542250467797L46.14612546648298,107.19813328202446L46.30525003705706,55.77855505381895L46.3848123223441,40.976381264991105L46.54393689291818,-11.407399829508222L46.94174831935337,-83.62421999282776L47.498684316362656,64.00009563101759L47.737371172223774,36.048449544151254L47.81693345751081,59.43989380177837L47.97605802808489,76.46797681890985L48.29430716923305,109.71900331191311L48.69211859566825,-70.28226492083493L48.771680880955294,4.145175176437135L49.72642830439976,66.88300554967957L49.8059905896868,74.39168898955135L50.12423973083496,103.34251448119727L50.36292658669608,115.57042166338587L50.52205115727016,138.3317871435952L50.681175727844234,136.16755688334828L51.3972362954276,116.5033212317382L51.87461000714983,105.50433456557411L52.27242143358503,112.94472554793126L52.35198371887207,114.61219454241942L52.59067057473319,145.35901310624413L52.74979514530727,144.77013715497648L52.908919715881346,139.73076585911272L53.38629342760359,145.4228827668013L53.46585571289063,138.57516935332131L54.18191628047398,138.71437150400337L54.341040851048064,131.726898949026L54.500165421622135,139.11209193452348L54.738852277483254,149.39221465906593L55.454912845066616,132.68677840705803L55.693599700927734,131.9864028334295L55.773161986214774,136.1303233932316L55.93228655678885,135.311348117295L56.17097341264997,142.67035632267817L56.72790940965925,141.6879653250761L56.88703398023333,142.71953716225394L56.966596265520366,144.0169116424236L57.28484540666852,125.17206952751104L57.36440769195556,134.8737935257881L57.44396997724261,129.48206859778352L57.52353226252965,141.35289704359118L57.76221911839077,133.84822228111156L57.84178140367781,146.4412296956611L58.160030544825965,140.50086674395186L58.239592830113,138.0423382734244L58.319155115400044,139.60776406582548L58.71696654183524,147.51986415083815L58.87609111240932,141.53188366091217L58.95565339769636,147.2075662336516L59.27390253884452,151.58615592752577L59.671713965279714,145.76537621209218L59.751276250566754,148.24487776800459L59.91040082114083,151.68575375357975L60.06952539171491,154.8106523696306L60.14908767700195,132.44887085798524L60.22864996228899,132.44887085798524L60.46733681815011,139.14483222735657L60.626461388724195,148.67847130586932L60.86514824458531,146.52638096067938L61.024272815159385,151.20948933570583L61.26295967102051,154.0531904139246L61.34252195630754,137.30699030250577L61.6607710974557,136.2191437575985L61.74033338274275,148.06162364856308L61.81989566802979,149.0473814382311L61.899457953316826,113.29306636148425L62.138144809177945,147.04844079068266L62.217707094464984,146.0068990249701L62.61551852090018,151.81954750273889L63.2520168031965,148.616931067867L63.411141373770576,145.12688873690087L63.49070365905762,134.9907823029871L63.649828229631694,132.42434669732782L63.80895280020578,112.52836973697237L63.88851508549281,144.67432852294507L64.12720194135393,146.84014693172495L64.20676422664097,149.97087842185312L64.28632651192801,156.5814545486518L64.44545108250209,143.7837809625366L64.92282479422433,146.34823707667374L65.00238707951137,143.85845293195482L65.0819493647984,152.2787916064787L65.47976079123362,142.0562791252638L65.63888536180768,146.02771681551803L65.71844764709472,134.8060270001214L65.8775722176688,135.1883173356382L66.67319507053921,129.577208426717L66.83231964111327,141.25593922976603L67.0710064969744,153.44030795145616L67.30969335283552,140.62700756354414L67.4688179234096,135.302933207728L67.70750477927072,145.95281086854544L67.8666293498448,147.00344877050998L68.02575392041888,142.79763597107504L68.18487849099296,146.24803049485877L68.42356534685408,139.72740320824244L68.50312763214112,159.98631662623012L68.6622522027152,142.36478163663435L69.21918819972447,29.293596231397714L69.29875048501151,-2.4053184132290824L71.60605675833565,-30.253550562247142L71.84474361419677,27.59737905668598L72.08343047005789,10.077702985970774L72.56080418178013,115.80528543365365L72.64036646706717,123.0799664719535L72.79949103764126,139.70040261258447L72.8790533229283,141.88230335468302L73.35642703465052,159.14448402088647L73.43598931993758,147.87635483743637L73.6746761757987,159.644100641048L73.99292531694685,147.72936309773092L74.07248760223389,137.55967363766868L74.15204988752093,140.74119275128604L74.23161217280797,114.50366622793962L74.62942359924317,110.53377941545747L74.86811045510429,104.277521918137L74.94767274039131,121.5386838502098L75.02723502567835,140.7888827604267L75.42504645211356,147.4844900575697L75.82285787854876,112.39152806781257L75.98198244912284,146.1766445641913L76.06154473440988,145.78703052416205L76.14110701969692,154.9860879116791L76.22066930498394,161.3421264829612L76.37979387555804,158.66916172502363L77.01629215785435,157.28722610021626L77.33454129900251,146.12728772380026L77.41410358428956,129.50183866583126L78.20972643715994,140.21772077356502L78.60753786359516,123.87219376516694L78.76666243416922,154.55039478761825L78.84622471945626,155.93736196514405L78.9257870047433,151.17651920651397L79.00534929003034,159.92633761898898L79.32359843117851,155.43645536253658L79.72140985761371,146.96978913224189L79.80097214290075,154.15481535525075L80.03965899876185,152.31103495583346L80.43747042519706,157.03538756896657L80.5170327104841,153.53868205419465L80.83528185163225,150.92584021004714L80.9148441369193,160.2142128348116L80.99440642220634,153.31170726164595L81.15353099278042,153.8605461333398L81.39221784864152,152.3803088767179L81.7104669897897,148.36536585553043L81.79002927507673,148.0799028861757L82.10827841622489,129.48590334495827L82.18784070151193,141.27467399890048L82.58565212794713,133.7598408834839L82.7447766985212,149.4437539095661L83.1425881249564,148.91038240363648L83.22215041024344,138.24808115585984L83.30171269553048,154.35420150235876L83.5403995513916,151.71100883526992L83.61996183667864,155.16327517948883L83.69952412196568,145.0955357446115L83.9382109778268,157.13475969985745L84.01777326311384,146.54206366861752L84.09733554840088,156.04414062446045L84.17689783368792,153.64950873226192L84.57470926012311,160.58330000328755L84.7338338306972,157.80071572581556L84.81339611598423,158.4505128063354L84.89295840127129,149.16658368450666L84.97252068655833,147.35970962074944L85.21120754241943,154.49584695847608L85.37033211299351,152.12930893758795L85.60901896885464,144.73121405703336L85.68858125414167,137.67194559301885L86.08639268057688,147.78976243633085L86.16595496586392,156.2154432532472L86.40464182172502,159.01068820112948L86.5637663922991,157.60858495349174L86.9615778187343,165.95609552596196L87.12070238930838,153.1561535999278L87.35938924516951,135.83955762284313L87.51851381574357,151.52721636039354L87.59807610103061,130.87669905786535L87.67763838631765,150.90203454683552L87.7572006716047,151.77636725566438L87.91632524217879,158.12547035952653L87.99588752746583,158.31422812799093L88.15501209803989,148.3505507280816L88.31413666861397,153.14229508867484L88.39369895390102,143.8120549758579L88.47326123918806,149.67526952314842L88.71194809504918,156.04970017962466L88.9506349509103,153.60068610611012L89.3484463773455,152.52809779658654L89.66669551849365,144.59244673189488L89.7462578037807,163.9174501297909L89.90538237435477,157.138047809206L90.14406923021589,155.79792169571198L90.46231837136405,155.0443793816916L90.54188065665109,158.5254270356993L90.70100522722517,152.35231853529882L90.7805675125122,151.18106002754755L90.86012979779925,147.41326356293484L90.93969208308629,156.52548214820501L91.25794122423446,153.1554806556342L91.33750350952148,154.80883645533672L91.49662808009556,144.47541033094586L91.5761903653826,151.80774095393198L91.89443950653077,160.58291901328747L92.53093778882707,134.86197041219862L92.84918692997523,135.99503881363734L92.92874921526229,134.234467458477L93.16743607112339,132.48854765353724L93.24699835641043,136.97513973004328L93.32656064169747,142.346117267826L93.48568521227155,136.57934909669748L93.5652474975586,122.54172699053368L93.72437206813268,146.01226394393862L93.88349663870675,137.91362163013594L93.96305892399378,149.47797882104086L94.12218349456788,142.4629321148076L94.28130806514196,147.29858143171458L94.51999492100306,139.603043102781L94.7586817768642,135.86498456415293L95.07693091801234,134.45796364667714L95.15649320329938,138.32437026218057L95.71342920030865,131.40868119265338L95.87255377088275,113.31698590757634L95.95211605616979,118.29483145962254L96.34992748260497,89.41947511755804L96.66817662375314,153.94740357096714L96.82730119432722,159.88466062593656L97.14555033547538,147.56848385840294L97.54336176191059,153.29509278468586L97.94117318834577,147.8172537636737L98.02073547363281,148.4534056045167L98.10029775891987,154.3138786802849L98.33898461478097,137.11299185094242L98.49810918535505,133.49844447266696L98.65723375592913,146.23442666713845L98.73679604121618,144.12243344885928L98.89592061179025,142.94866537654224L99.13460746765136,121.37877158006678L99.2141697529384,139.66256450790246L99.29373203822546,132.23209583033005L99.45285660879952,135.36193282219716L99.6119811793736,144.86483180537724L99.69154346466064,139.67257791899155L99.85066803523473,142.95762692393546L100.00979260580881,140.51530295199842L100.32804174695696,139.84238764674538L100.48716631753105,137.5126296550499L100.80541545867919,139.67803187366664L100.88497774396623,140.51826804808604L101.12366459982736,146.51543163937265L101.28278917040144,133.3274793513259L101.52147602626255,145.0621535664522L101.68060059683664,148.90957072928848L101.83972516741072,149.07220376497554L102.07841202327182,143.1717681511553L102.31709887913296,135.63440693138608L102.39666116442,143.18306326229904L102.7944725908552,139.06561529570916L103.19228401729038,150.76192547430546L103.51053315843855,150.60995808802284L103.59009544372559,139.51828525134977L103.66965772901263,143.46189410681538L103.82878229958669,141.05121508146124L103.90834458487375,143.35185632652002L103.98790687016078,137.70084699748156L104.38571829659598,127.0419518831296L104.6244051524571,139.76240873509778L104.70396743774414,129.3015828676361L104.78352972303118,141.18872348312118L104.86309200831822,113.13963506253828L105.02221657889231,129.65365489847252L105.26090343475342,135.9187000129688L105.49959029061453,141.50537172634128L106.2156508581979,139.72271951595883L106.45433771405901,128.4526667471279L107.01127371106828,135.54898234745468L107.09083599635532,140.77328701759726L107.17039828164236,145.8481359366208L107.48864742279054,141.6851700180103L107.6477719933646,151.66166027727022L107.80689656393868,149.3700468387351L107.88645884922573,144.70496508838642L108.20470799037388,140.01062372015105L108.68208170209613,94.67659048085982L108.84120627267019,50.67923580968146L109.07989312853132,149.14854463624192L109.15945541381836,151.37183869949064L109.39814226967948,137.84004086577232L109.6368291255406,154.12323045600485L109.79595369611468,155.65527821144224L109.95507826668876,159.11445414060827L110.35288969312396,158.08661766190951L110.432451978411,149.63583084634647L110.67113883427211,141.226325539651L110.98938797542027,147.645269908202L111.14851254599435,129.9227415096172L111.46676168714251,133.0035094741912L111.54632397242955,134.4857345047266L111.78501082829067,126.10619488977666L111.94413539886476,132.41390260189078L112.02369768415178,139.01784246265544L112.2623845400129,131.36340550057847L112.34194682529994,147.157368730543L112.58063368116107,149.3523308037313L112.6601959664481,135.39811444861797L112.73975825173514,145.98738571105287L113.21713196345739,146.76258854893655L113.61494338989257,128.6145005320539L113.77406796046667,135.48392002254943L113.85363024575369,132.22480732598066L114.96750223977226,140.51883953308615L115.0470645250593,139.57899517962363L115.20618909563336,126.51499715986436L115.76312509264264,134.9072585278605L115.84268737792968,141.62992232680278L115.92224966321672,132.3052417691501L116.24049880436489,143.99405638361435L116.32006108965193,133.12308235747773L116.63831023080009,138.32067631565803L116.95655937194823,134.91704003199303L117.03612165723527,136.73017972477334L117.19524622780936,134.29477983196824L117.35437079838344,125.1457894998967L117.43393308367048,132.8134658644765L117.51349536895752,132.07285029268718L117.59305765424455,139.75283843194356L118.22955593654086,131.8716544430788L118.54780507768903,118.47163566683439L118.70692964826311,130.5130813735482L118.94561650412423,128.5467091592133L119.34342793055943,107.22587929289998L119.82080164228167,99.29902619837326L119.9003639275687,106.72824009366278L119.97992621285576,113.69074952124348L120.13905078342982,109.43379916728671L120.37773763929094,44.97155007693519L121.17336049216135,130.50450495735072L121.33248506273543,138.21269878020007L121.4916096333095,140.33753384619942L121.73029648917063,149.17255942983402L121.96898334503175,154.07967750132158L122.12810791560581,150.3550467895986L122.20767020089285,142.52015101514596L122.60548162732806,148.26742243713983L122.68504391261509,156.4670643717251L122.92373076847622,135.1709781494388L123.00329305376326,156.90454856290592L123.0828553390503,150.2322292795179L123.3215421949114,143.8927047612013L123.40110448019844,158.49503480080148L123.71935362134661,155.58785126381906L123.87847819192068,152.33099966007686L124.35585190364293,146.43420415723568L124.514976474217,157.77522045477747L124.75366333007813,158.00081208797806L125.07191247122628,144.3173740224337L125.39016161237444,148.50774223268053L125.54928618294852,142.93201777001693L125.86753532409668,159.38171448446997L125.94709760938372,158.3479768019656L126.34490903581893,146.2913867427485L126.504033606393,155.5693256250651L127.45878102983748,161.16358297357507L127.77703017098563,144.6782026114785L127.85659245627267,137.23397274075097L127.9361547415597,154.67408816057954L128.17484159742082,158.43700629671292L128.3339661679949,151.34611359209381L128.57265302385602,154.36786744801384L128.89090216500418,152.96678086390892L129.05002673557826,149.07476509448696L129.1295890208653,143.38105175587413L129.44783816201345,154.103903495892L129.5274004473005,142.7465460403032L129.76608730316164,156.6397936424143L130.08433644430977,144.7584072182892L130.1638987295968,147.79255153160318L130.32302330017092,152.11321832187798L130.48214787074497,157.33292005305216L130.72083472660609,142.0239819403656L131.11864615304128,140.82422786532558L131.27777072361536,149.34916071845888L131.43689529418944,141.23038805258665L131.6755821500506,141.8087225903194L132.07339357648578,152.6995805673842L132.15295586177282,135.68078004030906L132.3120804323469,147.5883367503637L132.47120500292095,151.0893863793757L132.550767288208,142.6396410745194L132.63032957349506,138.79401497880306L132.86901642935618,151.22600028277458L133.26682785579138,155.58800241746042L133.42595242636546,146.38391761842053L133.5055147116525,143.5641630040656L133.82376385280065,132.90467983993085L134.22157527923582,145.83770219417292L134.539824420384,149.10687178438516L134.85807356153214,155.55072130359372L134.9376358468192,140.91982736697653L135.3354472732544,148.8176113386166L135.49457184382848,142.30991493542695L135.65369641440256,152.7156504771159L135.81282098497664,153.9260494955821L136.05150784083776,141.2381817828057L136.1310701261248,141.12255545897654L136.44931926727295,150.441974627552L136.9266929789952,124.07172899531844L137.08581754956927,136.96324207493203L137.24494212014335,145.0227045366611L137.40406669071743,139.48870469079992L137.48362897600447,144.9506850030587L137.88144040243967,152.12629207655468L138.27925182887486,148.1569167017357L138.51793868473598,146.95341070343403L138.67706325531006,150.44981805211893L138.83618782588414,151.39442685118027L138.91575011117118,150.5112692544147L139.07487468174526,146.25339127263166L139.23399925231934,139.11259716039314L139.47268610818045,123.19726998002214L139.63181067875453,148.38082286830547L139.71137296404157,144.3032090627024L139.7909352493286,147.755825337954L139.87049753461568,143.57067917542568L140.42743353162496,154.78400791679877L140.586558102199,138.3441651774022L140.82524495806013,158.35763821142416L140.90480724334716,152.65699665248377L140.98436952863423,138.42105889828827L141.46174324035644,141.41065015816878L141.85955466679164,154.75906963657604L142.09824152265276,146.84439372786716L142.1778038079398,147.72697155724128L142.81430209023614,151.58230668616625L142.89386437552315,151.18495275146142L142.97342666081022,144.2468908724186L143.05298894609723,156.32312469321596L143.2121135166713,144.18431326490514L143.6099249431065,136.8964031770916L143.76904951368059,126.81534565699403L143.84861179896762,144.92945102234762L144.48511008126397,149.15278729118847L144.56467236655098,124.85381035918189L144.88292150769914,144.20538780958358L145.04204607827324,131.15624632922967L145.20117064884732,137.83464902903202L145.28073293413433,132.824274385131L145.4398575047084,143.56719642988145L145.7581066458566,141.36692741446376L145.8376689311436,147.0826574197661L145.9967935017177,145.76174645410228L146.1559180722918,124.83661611483038L146.2354803575788,147.9076995473344L146.3946049281529,131.58945680649651L146.47416721343996,140.5796861208166L146.55372949872697,123.65539803153348L146.63329178401403,137.5581372540814L146.95154092516216,142.27543119922387L147.03110321044923,143.3772025145146L147.26979006631032,143.96951979936995L147.3493523515974,115.87567333616875L147.42891463688443,143.4902260968758L147.7471637780326,138.2739801934741L147.8267260633196,141.74031417932648L147.9858506338937,142.0960180387506L148.38366206032887,137.79040863587036L149.02016034262522,138.45422573427365L149.25884719848634,134.85258232165313L149.41797176906041,131.78424622642962L149.5770963396345,125.75546460633186L149.65665862492153,122.02132777998725L149.9749077660697,134.5705296269187L150.13403233664377,133.7225121458672L150.3727191925049,140.92800622839133L150.45228147779193,121.11648067098878L150.61140604836598,139.8845325949066L151.16834204537525,133.86443092089763L151.32746661594936,121.72459454666271L151.4070289012364,137.16363453258373L151.72527804238456,134.12246882203996L151.8048403276716,130.70591614913306L152.04352718353272,134.0083705994068L152.12308946881976,137.55426937734143L152.2026517541068,131.6051560792173L152.36177632468087,130.07333608954082L152.4413386099679,121.87237311354224L152.600463180542,111.30526760084038L152.75958775111607,136.0989041418118L152.8391500364031,118.52406320380216L153.15739917755127,136.8875700067636L153.3960860334124,135.28955300457295L153.71433517456055,113.75048212734325L153.79389745984759,135.84981536447577L154.0325843157087,129.55415853171203L154.19170888628278,103.17323068529139L154.35083345685686,106.58454888689282L154.4303957421439,117.18798510905899L154.50995802743094,139.69974002127998L155.2260185950143,136.9536966189517L155.3851431655884,134.5281362070183L155.6238300214495,133.90591741895003L155.78295459202357,125.3555948952678L155.94207916259768,111.23877656343481L156.49901515960696,130.8349185349216L156.57857744489397,138.14662186235984L156.8172643007551,139.3270821068522L156.89682658604212,136.1753961667195L156.97638887132916,139.91764559534846L157.3742002977644,126.23737140328306L157.61288715362548,127.35755240384947L157.7720117241996,116.17094886862341L158.01069858006068,129.67362374391158L158.09026086534772,113.90273732672374L158.16982315063476,119.09539497968561L158.48807229178294,123.41932089093935L158.56763457706995,108.8258053862867L158.72675914764403,103.76253110911347L158.88588371821814,100.21150553096032L158.96544600350515,118.46327459281085L159.2836951446533,118.9507098859589L159.36325742994035,138.94874661318408L159.6815065710885,135.41682437057852L159.76106885637557,134.06072773604845L159.92019342694965,140.33067602619795L160.0793179975237,134.97111162363507L160.47712942395893,118.30980188190836L160.55669170924597,130.1057078159608L160.71581627982005,132.96772954374873L160.95450313568114,135.80174022413937L161.5114391326904,138.9897527325407L161.6705637032645,132.21190750152135L161.98881284441268,127.05912128030718L162.0683751296997,126.52182185030061L162.38662427084788,121.84200572581834L162.4661865561349,131.17457111999448L162.94356026785715,131.12417691009236L163.18224712371824,140.0738225070124L163.2618094090053,151.6577012942259L163.34137169429232,145.94913555740334L163.50049626486643,153.03306898272749L163.58005855015347,148.52356367067307L163.6596208354405,144.183037776644L163.73918312072752,143.79566826465873L164.0574322618757,150.62868043357034L164.13699454716274,124.35918595038012L164.2961191177368,149.4480379764692L164.37568140302386,142.96703572045922L164.53480597359794,142.98443288339774L164.77349282945906,150.3940692762374L164.8530551147461,119.414797118015L165.17130425589426,144.75114770230937L165.2508665411813,151.74565200750564L165.8873648234776,134.91015736481765L166.2851762499128,109.69849611103915L166.76254996163505,70.3309650504193L166.84211224692206,115.09083393600037L166.92167453220912,125.03940632476518L167.31948595864432,130.90482605874095L167.63773509979248,136.75743707456178L168.11510881151474,150.18260740260507L168.43335795266287,157.31248739369994L168.75160709381103,149.3616878353094L168.9107316643851,141.4133833472998L169.0698562349592,138.19082912595627L169.3085430908203,138.03605193842304L169.7063545172555,146.49377111550933L170.1041659436907,136.4424370272116L170.66110194069998,137.6179899548551L171.13847565242222,154.35671934931582L171.2976002229963,148.8664298235727L171.4567247935704,160.01630716514958L171.61584936414448,138.6699654630156L171.6954116494315,144.49271017578653L171.9340985052926,149.93167165200776L172.65015907287597,137.16980905530244L173.5253442110334,153.8875715761717L173.60490649632047,157.51724881276562L173.84359335218159,149.78749799594422L173.9231556374686,154.4578949709136L174.24140477861675,159.16297031828174L174.32096706390382,143.18998941202878L174.48009163447787,140.2792796469478L174.8779030609131,147.941758810983L175.11658991677422,159.15996173963978L175.5144013432094,145.68401621169428L175.59396362849645,158.26815732635063L175.6735259137835,150.2285229094084L175.83265048435757,151.4112401055317L175.91221276964458,150.7419421346816L176.31002419607978,144.29518342552677L176.38958648136685,157.2364612533032L176.62827333722794,150.48241340310418L176.707835622515,149.18975988597902L177.1056470489502,136.79375536043915L177.5830207606724,150.33765376785573L177.66258304595948,157.45282837318658L178.06039447239468,147.93343707831818L178.37864361354283,138.4567808519916L178.77645503997803,146.28831604617176L179.41295332227432,144.3148768814549L180.68594988686698,147.08189751036377L180.76551217215402,154.12983980426714L181.16332359858922,145.7629039182873L182.19763330732073,147.8068034564432L182.27719559260777,138.51569350135205L182.67500701904297,136.0960715639851L182.83413158961704,137.43576906372905L182.99325616019112,128.07697333628641L183.0728184454782,130.632066207052L183.1523807307652,128.77589535024072L183.47062987191336,135.23520395282216L183.62975444248747,140.63327319256723L183.78887901306155,132.95733928385522L183.9480035836356,139.051961773641L184.18669043949674,145.18666275495715L184.26625272478375,144.5121551599755L184.42537729535783,137.24782504021047L184.5845018659319,136.04190058364742L184.66406415121895,141.70817435986305L184.74362643650602,144.2591053289973L184.82318872179303,140.10441766049723L184.9823132923671,135.8965901693771L185.06187557765415,140.12169886995747L185.1414378629412,144.23050416121941L185.3801247188023,138.9415989094869L186.01662300109865,146.0512822893818L186.33487214224678,144.9660736861055L186.41443442753385,145.37614730325868L186.65312128339494,148.0001890110499L187.1304949951172,150.35480452965288L187.21005728040421,158.96940255106628L187.3691818509783,157.44263896128223L187.7669932774135,149.08423807954335L187.92611784798757,121.20023221187631L188.00568013327464,111.43458471749857L188.32392927442277,39.71492337472047L188.40349155970983,-25.454998076000265L188.80130298614503,45.35948072093146L188.9604275567191,42.439647901826774L189.03998984200612,60.860547535344026L189.1991144125802,84.7893284937386L189.91517498016358,146.53341271089826L189.99473726545062,144.93876457137137L190.15386183602467,141.69208995594656L190.31298640659875,150.41908002738407L190.5516732624599,157.72956998449595L190.63123554774694,153.91457010123182L191.3472961153303,157.23135930025862L191.82466982705253,141.4109400418645L192.3816058240618,155.344098417082L192.69985496520994,149.45476327820978L192.779417250497,153.19257127450084L193.09766639164516,140.18433031301439L193.8137269592285,126.25464847154764L194.13197610037668,120.50253599183532L194.21153838566372,103.70817377497137L194.29110067095075,126.57448957661626L194.68891209738595,139.8687753454467L195.1662858091082,137.80946641826574L195.4049726649693,139.0180205340685L195.48453495025635,138.66909167073277L195.5640972355434,144.5616921423774L195.8027840914045,135.90589543600953L195.96190866197858,142.23027974301854L196.12103323255266,141.40710115349412L196.20059551783973,138.80257483021794L196.28015780312674,124.09591771912798L196.5984069442749,135.18141396248453L196.75753151484898,129.06162956791073L196.9962183707101,143.92166414240316L197.07578065599714,148.39692176640676L197.15534294128418,143.387271831745L197.47359208243236,134.34488001697898L197.95096579415457,139.37660252447154L198.50790179116385,134.62645647421328L198.5874640764509,133.336585840567L198.66702636173792,137.4104787818758L199.06483778817312,141.63849874300027L199.1444000734602,112.65264701852075L199.30352464403427,134.85225930839218L199.94002292633056,134.34719494534903L200.09914749690464,132.39595051873476L200.25827206747874,118.66607722633262L200.33783435276575,117.28842980962402L200.5765212086269,127.55693440976182L201.13345720563618,122.07956955565191L201.3721440614973,137.59151943224072L201.53126863207137,147.32897159601458L201.69039320264545,153.87402779578835L202.08820462908065,129.8266533468792L202.48601605551582,144.43043280495795L202.5655783408029,124.57034965792542L202.64514062608993,134.71796861575467L202.96338976723808,135.36574686339364L203.0429520525251,151.57457093268633L203.52032576424736,136.9516964214513L203.67945033482144,133.09029651149243L203.8385749053955,143.68344807425422L204.07726176125664,132.2724642055561L204.15682404654365,134.32882460143205L204.23638633183072,148.35771706715923L204.31594861711775,150.15526929950138L204.55463547297884,151.5909286555159L204.71376004355292,147.52369061562158L205.11157146998812,141.08993940201302L205.35025832584927,58.18267649585647L205.50938289642335,69.9327311116382L205.82763203757148,99.56153659082088L205.90719432285854,132.74420436717904L206.30500574929374,146.86845200401362L206.6232548904419,131.742225514138L206.86194174630302,138.2313383018345L206.94150403159003,126.05652953030949L207.1006286021641,132.56152794453115L207.4188777433123,134.56120779550366L207.49844002859933,146.0680002962332L207.65756459917338,129.51576964800816L207.73712688446045,138.924110640244L208.21450059618266,117.8060005835394L208.29406288146973,130.2924136219791L208.4531874520438,141.81153032097217L208.61231202261789,113.83350481779584L208.850998878479,138.78458133510537L208.93056116376604,115.74542030929298L209.08968573434012,111.66848358917917L209.32837259020124,121.25520244297505L209.6466217313494,75.22569266451289L209.80574630192348,85.97925137029823L209.88530858721052,75.9478177977113L210.04443315778462,108.3772476379296L210.12399544307164,136.06544742213072L210.6809314400809,148.13530794281803L210.840056010655,137.34879981381908L211.0787428665161,144.29962278726686L211.2378674370902,131.25115425120654L211.31742972237726,141.53850543276144L211.39699200766427,133.11823301736797L211.87436571938653,127.95452646321668L212.6699885722569,117.35910759583484L212.82911314283098,105.65883429299856L213.22692456926617,148.22036810153193L213.38604913984025,149.94922203918543L213.70429828098844,146.9511226928357L213.78386056627545,137.78869418086998L213.86342285156252,145.95949268773165L214.02254742213657,141.57595012385642L214.18167199271065,151.54053651621163L214.26123427799772,149.27295443605124L214.57948341914584,141.9779608330731L215.05685713086808,133.846354601872L215.2159817014422,141.4511883224166L215.37510627201627,137.19498752487306L215.69335541316443,131.0036184222404L216.40941598074775,133.41796447634533L216.48897826603482,135.21572376847016L216.56854055132183,119.949023780847L216.88678969247,115.20067500950219L217.2846011189052,132.1246400855244L217.36416340419225,128.8410901934069L217.44372568947927,128.04303623790958L217.76197483062745,130.5143444382224L217.84153711591446,114.94248802531638L218.0802239717756,128.3602145541733L218.2393485423497,128.7718990964355L218.4780353982108,131.642675311834L218.875846824646,125.63093057065296L219.03497139522008,131.3937521823241L219.19409596579416,116.8852305772549L219.2736582510812,127.57404997139592L219.67146967751637,133.79886337012272L219.83059424809048,127.87730144667837L220.22840567452565,120.1696376968726L220.4670925303868,118.67771398611774L220.62621710096087,118.53172027456466L220.78534167153492,129.3423612212318L221.18315309797015,124.72539602317607L221.42183995383127,123.16248807773206L221.58096452440535,122.91333304126557L221.74008909497942,119.52608760999539L221.81965138026646,109.95103036315854L222.05833823612755,123.23442478742142L222.13790052141462,123.22706174155027L222.21746280670166,133.48484478614228L222.45614966256278,133.76619761881136L222.53571194784982,113.88497573856776L222.61527423313683,126.08839188966414L223.25177251543317,133.23792599532845L223.3313348007202,117.83584203941538L223.41089708600725,128.8378683431888L223.57002165658133,113.34267374421228L223.64958394186837,128.75885847132403L223.96783308301653,122.2771128706943L224.1269576535906,128.68152578369873L224.84301822117396,143.2890985769957L225.24082964760916,110.94129791489274L225.3203919328962,130.2302666988136L225.39995421818324,128.86221443243315L225.55907878875735,126.13576716793517L225.95689021519252,116.39415931432347L226.03645250047956,115.98085970575653L226.11601478576662,131.09341196758575L226.19557707105363,119.51877425847209L226.3547016416277,123.14098698990136L226.5138262122018,124.3571401997275L226.83207535334998,132.49225816484238L227.1503244944981,135.36318760448006L227.22988677978515,136.2066124995523L227.38901135035925,131.40638282906593L227.62769820622034,131.19637451510783L227.78682277679442,124.53365452324363L228.3437587738037,147.7401302064289L228.7415702002389,149.15884586042893L228.98025705610002,136.96428151504094L229.37806848253524,151.02621036909042L229.61675533839636,128.90322469298542L229.69631762368337,135.52767175462404L229.77587990897044,151.10685187204248L230.0941290501186,151.27919187034033L230.41237819126673,153.44645762700097L230.5715027618408,147.35989597455384L231.20800104413715,118.01223626825757L231.28756332942416,144.91736494283415L231.36712561471123,125.49461897453676L231.68537475585936,136.0182129445119L232.00362389700754,130.20069027945945L232.3218730381557,143.7868164589503L232.4014353234427,136.73344298694795L232.7196844645909,144.22062119779338L232.7992467498779,143.23706859481064L232.87880903516498,143.66099244082548L232.958371320452,132.04079743833248L233.27662046160017,122.52018863194209L233.51530731746126,140.01604868645654L233.7539941733224,115.95054201238047L233.91311874389646,112.99791092370353L234.07224331447054,120.45162827367221L234.39049245561873,143.51509397677245L234.78830388205392,132.57480047659922L234.86786616734096,126.5494726136761L234.947428452628,109.20885770180367L235.10655302320208,141.61975155027886L235.1861153084891,144.4144312249545L235.3452398790632,140.40533764262702L235.50436444963728,131.81667178839308L235.58392673492432,143.44252159355037L235.66348902021136,138.45546809296957L236.29998730250767,138.73876728759555L236.45911187308172,120.07070039152528L236.69779872894287,141.79023629292413L236.7773610142299,121.15852208925867L236.85692329951695,138.91679314752506L236.936485584804,126.51529532595139L237.09561015537807,133.36054679861562L237.25473472595215,139.83928589120123L237.49342158181327,127.13745613728051L237.5729838671003,146.0616787610688L237.89123300824846,137.80762772739578L237.9707952935355,134.7186726190157L238.05035757882254,140.1681672263805L238.2890444346837,126.66228706565684L238.92554271697998,134.80380731925135L240.3576638521467,132.46179552961846L240.43722613743373,140.60696417658332L240.83503756386895,129.94540213223075L240.91459984915596,129.98963838419678L241.07372441973007,122.33199199548868L241.23284899030415,113.2423574207125L241.31241127559116,121.10121208261593L241.55109813145228,114.26627632832347L241.86934727260044,134.3346015693681L241.9489095578875,132.50453680995372L242.10803412846155,129.0860626222638L242.26715869903563,130.68252667608456L242.3467209843227,142.9349124657784L242.74453241075787,129.629155584989L242.8240946960449,135.11916765062335L243.06278155190606,129.74691048338383L243.14234383719307,132.2528515029432L243.46059297834125,133.1115615511709L243.54015526362826,125.0679640099887L243.61971754891533,117.75575131548516L244.09709126063754,112.60937566514191L244.25621583121162,119.88129452594117L244.3357781164987,137.43101497111934L244.4153404017857,131.13298523324642L245.44965011051724,126.50748088975405L245.52921239580425,135.07641394670114L245.68833696637836,134.40726712949237L246.08614839281353,129.071891450739L246.48395981924872,134.2062286453188L246.6430843898228,131.41553901265485L247.12045810154507,125.54743992509157L247.27958267211915,131.5040197989782L247.43870724269323,144.25311508948514L247.5978318132673,95.88762517285876L247.67739409855434,128.910248160813L247.83651866912842,134.40170550373028L248.23433009556362,134.20908192912376L248.31389238085066,150.71850089668743L248.3934546661377,134.98147289515902L248.4730169514247,125.95734375322299L248.71170380728586,139.99629932438708L248.7912660925729,139.96700450633733L249.029952948434,133.74064644163195L249.10951523372105,131.71618153467588L249.1890775190081,113.77869195213191L249.26863980429513,136.6011483506152L249.58688894544326,99.3331579329458L249.66645123073033,118.51944991184465L250.06426265716553,118.70097922329663L250.2233872277396,101.79246494825603L250.6211986541748,113.8744281132394L250.70076093946184,123.45830610681728L250.85988551003595,86.50452890932397L251.01901008061,98.70608980476779L251.09857236589704,72.47883758783662L251.25769693647112,83.74399132220998L251.4168215070452,30.169906361150936L251.8146329334804,-63.547372171129155L254.20150149209158,-3.236274168189965L254.59931291852678,16.878656088734203L254.67887520381382,6.54899016999633L254.75843748910086,-8.276854693184418L258.0204911858695,-25.121250835928663L258.57742718287875,12.30929393471041L258.73655175345283,4.959533019220544L258.8161140387399,1.4014674084571936L258.975238609314,18.779050773924524L259.21392546517507,0.7314550813569269L259.5321746063233,-22.258806706184117L261.123420312064,-18.290315476637062L261.36210716792516,29.515216457967L261.91904316493446,46.22988550568341L262.23729230608257,55.82606285035088L262.31685459136963,65.48458175437955L262.5555414472307,56.61475356247661" fill="none"></path></g></g></g></g></g></g><g transform="translate(51, 177)" clip-path="url(#clip_1)"><clipPath id="clip_1"><rect width="278" height="22"></rect></clipPath><g><g><line x1="0" y1="0" x2="0" y2="5" style="visibility: inherit;" fill="rgb(0, 0, 0)" stroke="rgb(204, 204, 204)" stroke-width="1px"></line><line x1="39.78114264351981" y1="0" x2="39.78114264351981" y2="5" style="visibility: inherit;" fill="rgb(0, 0, 0)" stroke="rgb(204, 204, 204)" stroke-width="1px"></line><line x1="79.56228528703961" y1="0" x2="79.56228528703961" y2="5" style="visibility: inherit;" fill="rgb(0, 0, 0)" stroke="rgb(204, 204, 204)" stroke-width="1px"></line><line x1="119.34342793055943" y1="0" x2="119.34342793055943" y2="5" style="visibility: inherit;" fill="rgb(0, 0, 0)" stroke="rgb(204, 204, 204)" stroke-width="1px"></line><line x1="159.12457057407923" y1="0" x2="159.12457057407923" y2="5" style="visibility: inherit;" fill="rgb(0, 0, 0)" stroke="rgb(204, 204, 204)" stroke-width="1px"></line><line x1="198.90571321759904" y1="0" x2="198.90571321759904" y2="5" style="visibility: inherit;" fill="rgb(0, 0, 0)" stroke="rgb(204, 204, 204)" stroke-width="1px"></line><line x1="238.68685586111886" y1="0" x2="238.68685586111886" y2="5" style="visibility: inherit;" fill="rgb(0, 0, 0)" stroke="rgb(204, 204, 204)" stroke-width="1px"></line><line x1="278.4679985046387" y1="0" x2="278.4679985046387" y2="5" style="visibility: inherit;" fill="rgb(0, 0, 0)" stroke="rgb(204, 204, 204)" stroke-width="1px"></line></g><g transform="translate(0, 8)"><text style="text-anchor: middle; visibility: hidden; font-family: Roboto, sans-serif; font-size: 12px; font-weight: 200;" x="0" y="0" dx="0em" dy="0.95em" fill="rgb(50, 49, 63)" stroke="none" stroke-width="1px">-500</text><text style="text-anchor: middle; visibility: inherit; font-family: Roboto, sans-serif; font-size: 12px; font-weight: 200;" x="39.78114264351981" y="0" dx="0em" dy="0.95em" fill="rgb(50, 49, 63)" stroke="none" stroke-width="1px">0</text><text style="text-anchor: middle; visibility: inherit; font-family: Roboto, sans-serif; font-size: 12px; font-weight: 200;" x="79.56228528703961" y="0" dx="0em" dy="0.95em" fill="rgb(50, 49, 63)" stroke="none" stroke-width="1px">500</text><text style="text-anchor: middle; visibility: inherit; font-family: Roboto, sans-serif; font-size: 12px; font-weight: 200;" x="119.34342793055943" y="0" dx="0em" dy="0.95em" fill="rgb(50, 49, 63)" stroke="none" stroke-width="1px">1k</text><text style="text-anchor: middle; visibility: inherit; font-family: Roboto, sans-serif; font-size: 12px; font-weight: 200;" x="159.12457057407923" y="0" dx="0em" dy="0.95em" fill="rgb(50, 49, 63)" stroke="none" stroke-width="1px">1.5k</text><text style="text-anchor: middle; visibility: inherit; font-family: Roboto, sans-serif; font-size: 12px; font-weight: 200;" x="198.90571321759904" y="0" dx="0em" dy="0.95em" fill="rgb(50, 49, 63)" stroke="none" stroke-width="1px">2k</text><text style="text-anchor: middle; visibility: inherit; font-family: Roboto, sans-serif; font-size: 12px; font-weight: 200;" x="238.68685586111886" y="0" dx="0em" dy="0.95em" fill="rgb(50, 49, 63)" stroke="none" stroke-width="1px">2.5k</text><text style="text-anchor: middle; visibility: hidden; font-family: Roboto, sans-serif; font-size: 12px; font-weight: 200;" x="278.4679985046387" y="0" dx="0em" dy="0.95em" fill="rgb(50, 49, 63)" stroke="none" stroke-width="1px">3k</text></g><line x1="0" y1="0" x2="278.4679985046387" y2="0" fill="rgb(0, 0, 0)" stroke="rgb(204, 204, 204)" stroke-width="1px"></line></g></g></g></g></svg>