<svg viewBox="0 0 330 200" xmlns="http://www.w3.org/2000/svg"><g><g><g><g><g><line x1="41.149001121520996" y1="177.86299896240234" x2="36.149001121520996" y2="177.86299896240234" style="visibility: inherit;" fill="rgb(0, 0, 0)" stroke="rgb(204, 204, 204)" stroke-width="1px"></line><line x1="41.149001121520996" y1="161.69363542036578" x2="36.149001121520996" y2="161.69363542036578" style="visibility: inherit;" fill="rgb(0, 0, 0)" stroke="rgb(204, 204, 204)" stroke-width="1px"></line><line x1="41.149001121520996" y1="145.5242718783292" x2="36.149001121520996" y2="145.5242718783292" style="visibility: inherit;" fill="rgb(0, 0, 0)" stroke="rgb(204, 204, 204)" stroke-width="1px"></line><line x1="41.149001121520996" y1="129.35490833629262" x2="36.149001121520996" y2="129.35490833629262" style="visibility: inherit;" fill="rgb(0, 0, 0)" stroke="rgb(204, 204, 204)" stroke-width="1px"></line><line x1="41.149001121520996" y1="113.18554479425603" x2="36.149001121520996" y2="113.18554479425603" style="visibility: inherit;" fill="rgb(0, 0, 0)" stroke="rgb(204, 204, 204)" stroke-width="1px"></line><line x1="41.149001121520996" y1="97.01618125221945" x2="36.149001121520996" y2="97.01618125221945" style="visibility: inherit;" fill="rgb(0, 0, 0)" stroke="rgb(204, 204, 204)" stroke-width="1px"></line><line x1="41.149001121520996" y1="80.84681771018289" x2="36.149001121520996" y2="80.84681771018289" style="visibility: inherit;" fill="rgb(0, 0, 0)" stroke="rgb(204, 204, 204)" stroke-width="1px"></line><line x1="41.149001121520996" y1="64.67745416814631" x2="36.149001121520996" y2="64.67745416814631" style="visibility: inherit;" fill="rgb(0, 0, 0)" stroke="rgb(204, 204, 204)" stroke-width="1px"></line><line x1="41.149001121520996" y1="48.50809062610975" x2="36.149001121520996" y2="48.50809062610975" style="visibility: inherit;" fill="rgb(0, 0, 0)" stroke="rgb(204, 204, 204)" stroke-width="1px"></line><line x1="41.149001121520996" y1="32.33872708407316" x2="36.149001121520996" y2="32.33872708407316" style="visibility: inherit;" fill="rgb(0, 0, 0)" stroke="rgb(204, 204, 204)" stroke-width="1px"></line><line x1="41.149001121520996" y1="16.16936354203658" x2="36.149001121520996" y2="16.16936354203658" style="visibility: inherit;" fill="rgb(0, 0, 0)" stroke="rgb(204, 204, 204)" stroke-width="1px"></line><line x1="41.149001121520996" y1="0" x2="36.149001121520996" y2="0" style="visibility: inherit;" fill="rgb(0, 0, 0)" stroke="rgb(204, 204, 204)" stroke-width="1px"></line></g><g transform="translate(31.149001121520996, 0)"><text style="text-anchor: end; visibility: hidden; font-family: Roboto, sans-serif; font-size: 12px; font-weight: 200;" x="0" y="177.86299896240234" dx="0em" dy="0.3em" fill="rgb(50, 49, 63)" stroke="none" stroke-width="1px">1.2</text><text style="text-anchor: end; visibility: inherit; font-family: Roboto, sans-serif; font-size: 12px; font-weight: 200;" x="0" y="161.69363542036578" dx="0em" dy="0.3em" fill="rgb(50, 49, 63)" stroke="none" stroke-width="1px">1.4</text><text style="text-anchor: end; visibility: hidden; font-family: Roboto, sans-serif; font-size: 12px; font-weight: 200;" x="0" y="145.5242718783292" dx="0em" dy="0.3em" fill="rgb(50, 49, 63)" stroke="none" stroke-width="1px">1.6</text><text style="text-anchor: end; visibility: inherit; font-family: Roboto, sans-serif; font-size: 12px; font-weight: 200;" x="0" y="129.35490833629262" dx="0em" dy="0.3em" fill="rgb(50, 49, 63)" stroke="none" stroke-width="1px">1.8</text><text style="text-anchor: end; visibility: hidden; font-family: Roboto, sans-serif; font-size: 12px; font-weight: 200;" x="0" y="113.18554479425603" dx="0em" dy="0.3em" fill="rgb(50, 49, 63)" stroke="none" stroke-width="1px">2</text><text style="text-anchor: end; visibility: inherit; font-family: Roboto, sans-serif; font-size: 12px; font-weight: 200;" x="0" y="97.01618125221945" dx="0em" dy="0.3em" fill="rgb(50, 49, 63)" stroke="none" stroke-width="1px">2.2</text><text style="text-anchor: end; visibility: hidden; font-family: Roboto, sans-serif; font-size: 12px; font-weight: 200;" x="0" y="80.84681771018289" dx="0em" dy="0.3em" fill="rgb(50, 49, 63)" stroke="none" stroke-width="1px">2.4</text><text style="text-anchor: end; visibility: inherit; font-family: Roboto, sans-serif; font-size: 12px; font-weight: 200;" x="0" y="64.67745416814631" dx="0em" dy="0.3em" fill="rgb(50, 49, 63)" stroke="none" stroke-width="1px">2.6</text><text style="text-anchor: end; visibility: hidden; font-family: Roboto, sans-serif; font-size: 12px; font-weight: 200;" x="0" y="48.50809062610975" dx="0em" dy="0.3em" fill="rgb(50, 49, 63)" stroke="none" stroke-width="1px">2.8</text><text style="text-anchor: end; visibility: inherit; font-family: Roboto, sans-serif; font-size: 12px; font-weight: 200;" x="0" y="32.33872708407316" dx="0em" dy="0.3em" fill="rgb(50, 49, 63)" stroke="none" stroke-width="1px">3</text><text style="text-anchor: end; visibility: hidden; font-family: Roboto, sans-serif; font-size: 12px; font-weight: 200;" x="0" y="16.16936354203658" dx="0em" dy="0.3em" fill="rgb(50, 49, 63)" stroke="none" stroke-width="1px">3.2</text><text style="text-anchor: end; visibility: hidden; font-family: Roboto, sans-serif; font-size: 12px; font-weight: 200;" x="0" y="0" dx="0em" dy="0.3em" fill="rgb(50, 49, 63)" stroke="none" stroke-width="1px">3.4</text></g><line x1="41.149001121520996" y1="0" x2="41.149001121520996" y2="177.86299896240234" fill="rgb(0, 0, 0)" stroke="rgb(204, 204, 204)" stroke-width="1px"></line></g></g><g transform="translate(41, 0)" clip-path="url(#clip_0)"><clipPath id="clip_0"><rect width="288" height="177"></rect></clipPath><g><g><g><line x1="0" y1="0" x2="0" y2="177.86299896240234" fill="rgb(0, 0, 0)" stroke="rgb(60, 60, 60)" stroke-width="1px" opacity="0.25"></line><line x1="41.264428411211284" y1="0" x2="41.264428411211284" y2="177.86299896240234" fill="rgb(0, 0, 0)" stroke="rgb(60, 60, 60)" stroke-width="1px" opacity="0.25"></line><line x1="82.52885682242257" y1="0" x2="82.52885682242257" y2="177.86299896240234" fill="rgb(0, 0, 0)" stroke="rgb(60, 60, 60)" stroke-width="1px" opacity="0.25"></line><line x1="123.79328523363385" y1="0" x2="123.79328523363385" y2="177.86299896240234" fill="rgb(0, 0, 0)" stroke="rgb(60, 60, 60)" stroke-width="1px" opacity="0.25"></line><line x1="165.05771364484514" y1="0" x2="165.05771364484514" y2="177.86299896240234" fill="rgb(0, 0, 0)" stroke="rgb(60, 60, 60)" stroke-width="1px" opacity="0.25"></line><line x1="206.32214205605644" y1="0" x2="206.32214205605644" y2="177.86299896240234" fill="rgb(0, 0, 0)" stroke="rgb(60, 60, 60)" stroke-width="1px" opacity="0.25"></line><line x1="247.5865704672677" y1="0" x2="247.5865704672677" y2="177.86299896240234" fill="rgb(0, 0, 0)" stroke="rgb(60, 60, 60)" stroke-width="1px" opacity="0.25"></line><line x1="288.850998878479" y1="0" x2="288.850998878479" y2="177.86299896240234" fill="rgb(0, 0, 0)" stroke="rgb(60, 60, 60)" stroke-width="1px" opacity="0.25"></line></g><g><line x1="0" y1="177.86299896240234" x2="288.850998878479" y2="177.86299896240234" fill="rgb(0, 0, 0)" stroke="rgb(60, 60, 60)" stroke-width="1px" opacity="0.25"></line><line x1="0" y1="161.69363542036578" x2="288.850998878479" y2="161.69363542036578" fill="rgb(0, 0, 0)" stroke="rgb(60, 60, 60)" stroke-width="1px" opacity="0.25"></line><line x1="0" y1="145.5242718783292" x2="288.850998878479" y2="145.5242718783292" fill="rgb(0, 0, 0)" stroke="rgb(60, 60, 60)" stroke-width="1px" opacity="0.25"></line><line x1="0" y1="129.35490833629262" x2="288.850998878479" y2="129.35490833629262" fill="rgb(0, 0, 0)" stroke="rgb(60, 60, 60)" stroke-width="1px" opacity="0.25"></line><line x1="0" y1="113.18554479425603" x2="288.850998878479" y2="113.18554479425603" fill="rgb(0, 0, 0)" stroke="rgb(60, 60, 60)" stroke-width="1px" opacity="0.25"></line><line x1="0" y1="97.01618125221945" x2="288.850998878479" y2="97.01618125221945" fill="rgb(0, 0, 0)" stroke="rgb(60, 60, 60)" stroke-width="1px" opacity="0.25"></line><line x1="0" y1="80.84681771018289" x2="288.850998878479" y2="80.84681771018289" fill="rgb(0, 0, 0)" stroke="rgb(60, 60, 60)" stroke-width="1px" opacity="0.25"></line><line x1="0" y1="64.67745416814631" x2="288.850998878479" y2="64.67745416814631" fill="rgb(0, 0, 0)" stroke="rgb(60, 60, 60)" stroke-width="1px" opacity="0.25"></line><line x1="0" y1="48.50809062610975" x2="288.850998878479" y2="48.50809062610975" fill="rgb(0, 0, 0)" stroke="rgb(60, 60, 60)" stroke-width="1px" opacity="0.25"></line><line x1="0" y1="32.33872708407316" x2="288.850998878479" y2="32.33872708407316" fill="rgb(0, 0, 0)" stroke="rgb(60, 60, 60)" stroke-width="1px" opacity="0.25"></line><line x1="0" y1="16.16936354203658" x2="288.850998878479" y2="16.16936354203658" fill="rgb(0, 0, 0)" stroke="rgb(60, 60, 60)" stroke-width="1px" opacity="0.25"></line><line x1="0" y1="0" x2="288.850998878479" y2="0" fill="rgb(0, 0, 0)" stroke="rgb(60, 60, 60)" stroke-width="1px" opacity="0.25"></line></g></g></g><g><g><line x1="0" y1="274.8791802146218" x2="288.850998878479" y2="274.8791802146218" fill="rgb(0, 0, 0)" stroke="rgb(153, 153, 153)" stroke-width="1.5px"></line></g></g><g><g><line x1="41.264428411211284" y1="0" x2="41.264428411211284" y2="177.86299896240234" fill="rgb(0, 0, 0)" stroke="rgb(153, 153, 153)" stroke-width="1.5px"></line></g></g><g><g><g><g><g><path style="fill: none;" stroke="rgb(255, 112, 67)" stroke-width="2px" d="M43.987880686351225,187.9621359021728L44.152938399996074,149.92516857789076L44.730640397753035,119.39996674642366L45.060755825042726,64.72017967753524L45.14328468186515,52.5641862130249L45.225813538687575,71.77538521114393L45.47340010915484,93.79222641625189L46.21615982055664,117.98122538683796L46.29868867737906,130.78297113448738L46.38121753420148,138.14714087414532L46.62880410466875,152.52726104213517L46.87639067513602,162.33755280070903L47.20650610242571,168.32203525943243L47.5366215297154,111.80412731146586L47.619150386537825,110.62691034095066L47.701679243360246,60.98518860193496L47.86673695700509,60.921994713875264L48.03179467064994,51.336612782505426L48.11432352747236,97.62039119252506L48.27938124111721,134.6254161629845L48.36191009793963,164.177401966521L48.52696781158448,164.29652137459246L48.69202552522932,95.39426076512544L49.26972752298627,56.5259999479182L49.51731409345354,17.77807560993108L49.59984295027596,-6.213497879507564L51.58053551401411,-0.1365539330173971L51.66306437083653,5.950288084980766L51.99317979812622,33.38147774646067L52.24076636859349,43.85103692799499L52.40582408223834,48.18085459028883L52.570881795883174,66.69379703193593L53.313641507284984,61.44911365181836L53.80881464821952,63.18172814977925L54.221458932331636,75.90456933865724L54.30398778915405,132.22440561225926L54.55157435962132,158.32596718135426L54.71663207326616,138.99601920993882L54.88168978691101,112.66112543745272L55.37686292784555,148.53915168892323L55.45939178466797,168.68648800329174L56.20215149606977,162.00043890751567L56.367209209714616,185.12849338335542L56.53226692335946,152.89482135521004L56.77985349382673,124.01916307022377L57.52261320522854,118.84225582271951L57.7701997756958,135.31172053929964L57.85272863251822,101.40881854766019L58.017786346163064,107.76352191707662L58.265372916630334,85.86022224376086L58.843074914387294,102.50682087927554L59.00813262803214,88.54456876103963L59.090661484854564,112.94782117346293L59.42077691214425,101.57775837040339L59.50330576896667,137.29612948254183L59.5858346257891,173.22996218773156L59.66836348261152,138.25289843084863L59.91595005307879,160.46792163559994L59.99847890990121,174.04739603531712L60.3285943371909,146.69816297704654L60.41112319401332,112.9058202437335L60.49365205083575,126.94838431659444L60.90629633494786,124.06341305490263L61.07135404859271,158.25537444750753L61.153882905415124,144.55547934944374L61.483998332704815,131.60747193036903L61.896642616816926,158.00313574850205L61.979171473639354,156.9235477665098L62.144229187284196,165.7538094028736L62.309286900929045,162.59070144812242L62.391815757751466,166.6369524236584L62.47434461457389,169.06470300898002L62.72193118504115,116.51585399604906L62.886988898686,84.70732909446298L63.13457546915327,82.5146512980809L63.29963318279811,111.13439353914201L63.54721975326538,146.48886417875943L63.6297486100878,128.01837218381542L63.95986403737749,107.5247708081722L64.04239289419992,170.48090499546535L64.12492175102234,162.62792255352755L64.20745060784476,136.64719701160575L64.45503717831203,141.2049028248903L64.53756603513445,154.6917014075314L64.95021031924657,180.01001337115807L66.02308545793805,179.54287919637062L66.18814317158291,163.1270237015014L66.27067202840533,162.78077558239738L66.51825859887259,153.71244522162846L66.60078745569501,139.99266597835384L66.68331631251743,99.18392013129092L66.84837402616229,129.9391033959859L67.34354716709682,115.00951223022116L67.42607602391924,131.75187294734957L67.50860488074166,145.53577311916544L67.92124916485378,152.07792860723123L68.08630687849862,110.93901005556305L68.16883573532104,68.63495924424741L68.3338934489659,88.90398443273197L69.15918201719012,76.17756420615915L69.32423973083496,80.61086231561268L69.57182630130222,128.61645434809785L69.8194128717695,107.09561930275284L69.98447058541434,105.08396440240621L70.2320571558816,109.96101878393989L70.39711486952646,107.02978236794814L70.56217258317129,87.29427824565838L70.72723029681615,120.45655111568189L70.97481686728341,101.19047225937767L71.05734572410583,82.95412512050423L71.22240343775069,93.49442323407348L71.80010543550765,121.11623536978507L71.88263429233007,129.7961919303028L71.96516314915249,125.64117150889875L72.04769200597491,127.24002245660537L72.87298057419913,159.8260351565363L73.12056714466641,169.2776464241999L73.20309600148883,171.4647649681708L73.53321142877851,110.59695071614127L73.94585571289063,113.26922306538579L74.11091342653546,101.41214676563519L74.2759711401803,108.91758923849605L74.52355771064758,127.78123895215194L74.77114428111484,139.10891226897994L75.26631742204938,153.1893097047627L75.3488462788718,142.614387009797L75.51390399251666,157.12593023581863L75.59643284933908,167.72792320088482L76.0916059902736,164.34851600626163L76.17413484709604,160.5186850225019L76.4217214175633,156.6544533565835L76.751836844853,154.18856561614396L76.83436570167542,139.53952433444297L76.91689455849784,145.87819147570355L76.99942341532027,108.61846808988896L77.41206769943238,137.32230741760438L77.65965426989963,135.2139612315947L77.74218312672205,149.03092329286255L77.82471198354447,158.6817035831452L78.2373562676566,150.74001467833392L78.65000055176871,164.39941896737778L78.81505826541355,181.06198958501744L78.9801159790584,196.57690371540656L79.06264483588082,160.8103666701795L79.22770254952567,144.58173338271422L79.88793340410506,133.87632391634827L80.21804883139474,93.47794820304517L80.30057768821717,103.89452395868179L81.12586625644138,123.82031924104676L81.5385105405535,151.93476281069456L81.70356825419834,150.34172116382047L81.78609711102077,145.34498552363542L81.86862596784319,144.46039355278413L81.95115482466561,146.1283158187893L82.2812702519553,130.07660009065492L82.69391453606742,104.26659255049614L82.77644339288985,98.35493310805656L83.02402996335711,85.63920039881698L83.43667424746923,83.89277741134806L83.51920310429165,96.70355419851035L83.84931853158133,119.92065157793094L83.93184738840377,143.15960946332743L84.01437624522619,128.55185452894267L84.17943395887103,125.99129212281285L84.42702052933828,129.07030645230537L84.75713595662798,120.89006692177207L84.8396648134504,127.1358782448585L85.1697802407401,129.84390529299486L85.25230909756252,123.40897438682897L85.66495338167464,115.49091001393333L85.83001109531948,123.72225414156613L86.2426553794316,112.88438675203224L86.32518423625402,116.41661210669719L86.40771309307644,132.96264657849642L86.6552996635437,127.95019129608771L86.73782852036612,137.26421012632625L86.82035737718854,130.15370585251807L87.06794394765582,128.82391157281572L87.15047280447824,102.67120338638787L87.23300166130066,97.83579823373618L87.31553051812308,101.35008123227409L87.72817480223519,88.67888842967422L87.89323251588003,92.41716068976001L87.97576137270245,83.42286850748921L88.05829022952489,85.53753231289552L88.1408190863473,99.88834826830877L88.38840565681457,117.8930429000781L88.55346337045941,112.84447057187808L88.80104994092669,104.85338087773536L88.88357879774911,103.66007030495048L89.29622308186123,97.74239815543943L89.37875193868365,104.6426263264287L89.62633850915091,128.80637461024148L89.79139622279575,123.32363007201471L90.20404050690787,140.65958037429104L90.36909822055271,127.7747025039131L90.61668479101999,116.41169215653402L90.78174250466483,122.81719218062254L90.86427136148725,119.79611181686303L90.94680021830968,115.1767364704795L91.02932907513211,95.74843518756279L91.19438678877695,74.21482506347252L91.27691564559936,65.26299011241197L91.4419733592442,81.58092834473396L91.60703107288904,94.6341038962168L91.68955992971148,93.50307930700494L91.7720887865339,83.14455976215207L92.01967535700116,103.938080564317L92.26726192746844,74.94942389200548L92.67990621158054,65.56323957467471L93.01002163887024,104.12291291751364L93.09255049569266,113.72800687618448L93.2576082093375,127.21066155059256L93.50519477980478,103.97423278471588L93.83531020709447,97.3370210806416L93.91783906391689,89.26192876970477L94.08289677756174,93.13943156205117L94.16542563438416,85.08879927766748L94.24795449120658,85.67641406542967L94.330483348029,95.73234972609129L94.6605987753187,89.86508894527574L94.74312763214111,91.08100258512272L94.90818534578595,102.23962803201775L94.99071420260837,116.49217226248442L95.32082962989807,75.71655858307977L95.98106048447745,94.28510295561023L96.31117591176714,106.12188973138525L96.39370476858957,163.87184550271712L96.64129133905683,133.87287116188514L96.72382019587926,88.3972987632477L96.80634905270168,105.69747073190418L96.97140676634652,151.65262052274772L97.05393562316895,58.56234036535874L97.2189933368138,103.3788081582751L97.38405105045864,80.15221781089657L97.46657990728106,57.840662324821196L97.63163762092591,110.25437521254189L97.79669533457076,115.79478756226266L98.044281905038,137.95054099135106L98.29186847550528,160.7213790968643L98.62198390279497,120.07289475464202L98.70451275961739,86.36566746385024L99.28221475737435,48.238501477262396L99.4472724710192,56.72009722982695L99.52980132784162,56.414830925786255L99.94244561195373,69.10201426514911L100.27256103924343,71.67436663983418L100.43761875288827,60.32357972835797L100.76773418017797,62.255018245317665L101.18037846429009,70.35079885652958L101.59302274840218,96.89281911695873L101.6755516052246,74.45672606507473L101.75808046204703,62.864859525602384L102.0056670325143,74.73121085657512L102.17072474615914,39.74978319664651L102.33578245980398,55.5377721626158L102.41831131662641,73.0745609717472L102.58336903027126,139.4301493020963L102.83095560073852,120.7276326111794L102.91348445756094,113.17135217108203L102.99601331438338,78.28837708615673L103.16107102802822,67.76124660261911L103.32612874167306,52.322014159380394L103.40865759849548,68.65332338618205L103.57371531214034,58.364221847547036L103.73877302578518,92.21196191920993L104.06888845307486,86.77853960118136L104.23394616671972,114.26609207571816L104.5640615940094,75.29932080896256L104.64659045083182,134.75264303356093L104.8941770212991,132.9295360497113L105.05923473494393,135.43441678141946L105.30682130541119,127.82983064943429L105.47187901905605,173.9839193964663L105.63693673270089,126.08974249274105L105.88452330316815,143.50985741893797L106.13210987363543,100.3353849033187L106.21463873045785,84.52403231866114L106.62728301456997,84.13153170124536L107.03992729868207,79.68496144912727L107.37004272597177,123.4219304349837L107.45257158279419,157.9351788448728L107.53510043961661,162.30456888833183L107.70015815326146,175.97182644601017L107.78268701008389,196.11007743026767L107.86521586690631,123.60599178459418L108.2778601510184,101.64725091944055L108.52544672148568,79.83416738657425L108.6079755783081,56.914252598942724L108.69050443513052,101.42723876419205L108.77303329195294,69.03386761224941L108.9380910055978,65.54221076772984L109.18567757606506,86.75743126049814L109.43326414653232,54.73082723748527L110.17602385793414,83.15702041562201L110.4236104284014,126.5262676854427L111.00131242615836,112.76586496637017L111.08384128298079,107.77229809223063L111.1663701398032,117.34370023657436L111.4964855670929,128.90082214403907L111.66154328073775,104.72808062422523L111.82660099438257,111.38672494780197L111.90912985120502,76.81448309384449L112.23924527849469,100.31729484418629L112.73441841942923,98.12109009582134L112.89947613307407,113.43300381405072L113.14706270354135,98.77662613750455L113.22959156036377,126.88171224152003L113.47717813083104,147.05526859761034L113.72476470129831,165.15442444721944L113.88982241494315,110.79863818604184L114.054880128588,117.49990920213982L114.46752441270012,102.64955487964882L114.55005326952254,79.72616939253594L114.7976398399898,88.23843648538994L115.1277552672795,54.57152029862078L115.29281298092432,57.14054830436754L115.62292840821402,73.83377344983624L115.70545726503644,122.13595540228636L115.9530438355037,123.14704099283712L116.11810154914856,89.44428861470324L116.20063040597098,101.77201337188114L116.44821697643825,67.15553682059574L116.53074583326067,105.12718134753051L116.77833240372794,56.20619670229687L116.86086126055037,38.718799473686445L116.94339011737279,55.53927101292541L117.43856325830733,70.13716709684724L117.85120754241943,85.17627955905843L118.01626525606429,115.98625028798412L118.09879411288671,76.72840382274404L119.25419810840062,81.03000200860555L119.33672696522304,75.96230374199453L119.50178467886788,48.602797079204215L120.07948667662484,14.036829227745171L120.16201553344726,6.950172204832814L120.24454439026968,41.18919881937807L120.57465981755938,98.3411130064636L120.6571886743818,109.96963041020699L120.9873041016715,112.12008076118515L121.31741952896118,130.59413168140645L121.3999483857836,128.7882421043927L121.56500609942846,115.72224336702878L121.7300638130733,131.9324050692799L121.81259266989572,112.9441292029651L121.89512152671814,112.23635682051999L121.97765038354055,116.88802366846771L122.63788123811993,131.90449738203466L122.96799666540963,153.09867143079362L123.13305437905447,129.1857252999312L123.38064094952175,122.04179292166597L123.79328523363385,62.77616489150602L124.28845837456839,62.906101083413084L124.37098723139081,77.83542188439336L124.45351608821325,103.57717011574445L124.61857380185809,95.6008009131445L124.86616037232535,111.11212002852723L125.69144894054958,83.99312463867882L125.85650665419442,41.33759802257808L126.02156436783926,44.550802838481175L126.26915093830654,64.90081103856188L126.5167375087738,25.243673658179972L126.68179522241864,73.8226501640296L126.76432407924106,15.91575075568324L127.17696836335318,17.547451596278698L127.2594972201756,74.93229640921167L127.50708379064288,101.13557528263392L127.5896126474653,94.31904496729693L127.67214150428772,95.40913163268276L127.91972807475499,107.2789509728185L128.0022569315774,73.46325130429423L128.3323723588671,88.85296711074574L128.49743007251195,152.26624087364905L128.99260321344647,118.86443367124323L129.1576609270913,114.9587265358195L129.4052474975586,94.97607507572322L129.7353629248483,84.80928781673953L130.06547835213797,84.6201505647455L130.23053606578281,79.15512015682471L130.56065149307253,72.93224199625959L130.64318034989495,94.65283082734831L131.05582463400705,108.2488117570221L131.2208823476519,99.52022381478616L132.21122862952097,134.52580788081985L132.54134405681066,130.46477203403188L132.62387291363308,116.27467323455843L132.7064017704555,124.46483469066366L132.95398834092276,149.1218316819664L133.1190460545676,142.95686463158742L133.36663262503487,144.9596661745232L133.69674805232458,117.00796964545462L133.86180576596942,105.30703292612887L133.9443346227918,114.33190143143983L134.27445005008153,102.93249695376055L134.35697890690395,88.50159918080026L134.6045654773712,65.33069374402598L134.9346809046609,71.76098912896714L135.01720976148331,83.0509292138519L135.18226747512819,37.37796285188651L135.34732518877303,17.30251418128501L135.5949117592403,18.79826350100079L136.0075560433524,16.28966803377223L136.17261375699724,49.07048332983434L136.33767147064208,70.50199930553521L136.58525804110937,29.861542544236823L136.99790232522147,27.74182437791982L137.0804311820439,42.71586487197074L137.24548889568874,10.2855704753359L137.41054660933358,10.328993140321554L137.493075466156,22.186785942407813L137.57560432297845,8.205988577223847L137.82319089344568,51.04689941310742L138.23583517755782,35.98625367119138L138.40089289120266,89.72170201985986L138.48342174802508,41.67241004328517L138.81353717531476,62.21393836949132L139.22618145942687,48.67913977404809L139.55629688671658,46.77401663331886L139.88641231400626,19.632043469235494L139.96894117082869,35.82403016861481L140.3815854549408,65.62029348738699L140.54664316858566,108.65529499706577L140.7117008822305,108.88881040658819L140.87675859587534,120.95277205760445L141.12434516634258,125.47859758831845L141.20687402316503,117.40616583093987L141.5369894504547,96.67188023480786L142.03216259138924,116.9975446897046L142.19722030503408,148.18324577299038L142.36227801867895,124.35929428667102L142.5273357323238,138.33284370723334L142.6098645891462,143.5409106100514L143.02250887325832,159.92538722689685L143.43515315737042,165.67668116951708L143.6827397278377,133.58412856882973L143.84779744148256,124.54152783207245L144.0128551551274,131.8863136777855L144.09538401194982,126.94695270090622L144.26044172559466,138.1066099983968L144.4254994392395,124.27225134013877L144.6730860097068,119.32724909110543L144.8381437233516,156.07376542895344L144.92067258017403,168.30343679626571L145.00320143699645,162.40214299005305L145.0857302938189,122.82407905481851L145.66343229157584,111.97834732737681L145.8284900052207,101.41815098821148L146.07607657568795,114.02920306961832L146.15860543251037,100.02998023575819L146.24113428933282,106.67428959994393L146.73630743026735,126.82006135805504L147.14895171437945,151.7035994824559L147.3965382848467,127.76143830016225L147.47906714166913,147.88176858847712L148.13929799624853,77.00577759326399L148.22182685307092,81.99482807179078L148.30435570989337,99.43874344102686L148.38688456671576,117.1894219639131L148.5519422803606,108.2341195738402L148.96458656447274,105.6945814133087L149.12964427811758,121.87609617383497L149.21217313494,116.63477479268559L149.8724039895194,133.53898673531071L149.95493284634182,99.71815775331001L150.2850482736315,105.2799480073101L150.45010598727637,120.5168420169857L150.61516370092122,113.66134312657158L150.6976925577436,84.65648444858601L150.86275027138845,58.17074643692428L151.19286569867816,38.3047041518508L151.27539455550055,42.928107195347195L151.4404522691454,56.27947711326372L151.6055099827903,52.820505300313364L151.6880388396127,55.65268108795488L151.85309655325753,35.774089218285155L151.93562541007995,26.026031610538194L152.01815426690237,29.00887702532155L152.1006831237248,46.92413872482903L152.43079855101448,62.39616560632777L152.51332740783693,46.76616457069793L152.76091397830416,-1.4719650508399647L152.8434428351266,44.10847718681209L152.92597169194903,62.76710670534777L153.2560871192387,14.334379308037086L153.33861597606113,-15.638015925877964L153.503673689706,-15.240802119852049L153.91631797381808,75.18845992115588L154.57654882839748,114.47774514942994L154.82413539886477,84.96072685058688L154.98919311250958,68.58664689803409L155.15425082615442,53.6916242785719L155.23677968297687,40.64918534658297L155.56689511026656,33.98085409370586L155.7319528239114,59.494854409763114L155.97953939437866,17.51277500429528L156.06206825120108,15.42532880498433L156.22712596484592,5.282075070298217L156.80482796260287,0.23637672099827917L156.96988567624774,3.098635921997313L157.05241453307016,6.243634279595484L157.38252996035985,47.744799872746505L157.46505881718227,16.801120577680763L157.71264538764956,28.13891243596441L157.79517424447195,35.83594992054309L157.8777031012944,39.98595021796298L158.04276081493924,40.23721484611013L158.12528967176164,49.5555849843834L158.2903473854065,80.0994158693869L158.45540509905135,44.28160960928834L158.53793395587374,38.19969818647652L158.86804938316345,65.4267240054436L159.11563595363071,72.39676855592437L159.44575138092043,-8.634328533415921L159.52828023774282,26.72073758992691L159.7758668082101,43.90836787520499L159.94092452185495,27.153010872716433L160.1059822354998,57.88663902530811L160.18851109232222,58.886711158730996L160.27103994914464,41.43761695648718L161.01379966054643,57.27225842544187L161.1788573741913,89.65778465827933L161.42644394465853,61.76903260763049L161.59150165830337,60.30532376108949L161.75655937194827,76.60761776792751L162.33426136970522,53.864066884280824L162.4167902265276,110.57781402785032L162.6643767969949,72.8354424594038L162.7469056538173,109.40089785175996L162.82943451063974,86.32943686638029L163.24207879475185,50.82763693122359L163.4896653652191,40.30529739820641L163.65472307886398,66.11721913773418L163.90230964933122,84.13287842553477L163.98483850615366,114.48598615884129L164.06736736297606,127.44749079481497L164.39748279026577,101.43039046568023L164.4800116470882,87.07656914980963L164.64506936073303,54.21579006780595L164.8101270743779,109.43449589128117L164.8926559312003,105.62527207926557L165.22277135848998,95.94566987791968L165.3053002153124,78.63557794622707L165.63541564260208,90.01922561463613L165.71794449942453,65.00018163805969L165.88300221306937,29.8625410050386L166.04805992671422,47.42674568187774L166.46070421082632,51.7757578334865L166.54323306764877,51.40249229661819L166.7082907812936,51.994899432702404L166.95587735176085,30.432289826102757L167.53357934951782,18.78383086354523L167.69863706316266,43.36209714658875L168.02875249045238,58.189296482446295L168.11128134727477,53.50175223965522L168.44139677456448,35.98691929292594L168.52392563138687,68.18530687821527L169.01909877232143,63.81547919833351L169.2666853427887,60.45175018474332L169.3492141996111,103.8483438452037L169.43174305643353,91.81451109205663L169.5968007700784,69.70485671856768L169.6793296269008,55.30107629895429L169.76185848372324,4.156618483424301L169.84438734054564,10.495703947150286L170.17450276783535,13.529944065138592L170.25703162465777,52.92282106076077L170.4220893383026,89.6610739382447L170.50461819512503,118.53455075953805L170.66967590876988,138.8945020281875L170.91726247923717,64.83730311455817L170.99979133605956,103.35835879751544L171.32990676334927,15.686011372239703L171.4124356201717,20.09072127577751L172.0726664747511,83.02712769216689L172.4853107588632,66.2002106413214L172.98048389979772,124.85375543920482L173.0630127566201,166.80188685296218L173.14554161344256,133.27793449967913L173.55818589755467,112.58219439380434L173.88830132484435,89.3176054215808L174.3834744657789,81.19413511686139L174.7135898930686,98.27362364373892L175.04370532035827,111.37198019692283L175.2087630340031,99.02427817051228L175.37382074764795,116.784639181574L175.62140731811522,114.94450522044546L176.03405160222735,110.72911581725423L176.44669588633946,104.57227043913669L177.02439788409643,75.64798164305247L177.51957102503096,107.38767111096077L177.6846287386758,82.76928723442379L177.84968645232067,112.5954416334529L178.0147441659655,124.23994239148497L178.0972730227879,126.6116688706485L178.3448595932552,96.06642741262569L179.08761930465698,86.53902706202086L179.9954367297036,52.972818996702806L180.07796558652606,53.71953723616847L180.32555215699333,30.39344136276944L180.40808101381575,38.766442219876865L180.73819644110543,61.73808422157763L180.82072529792785,26.287245191045688L180.9857830115727,47.672178344698445L181.39842729568483,90.7961920108263L181.6460138661521,62.65107607741487L182.05865815026422,65.95242628176244L182.14118700708661,63.99029481599624L182.22371586390906,53.36025997338914L182.3887735775539,63.76681116686932L182.4713024343763,67.56765642796374L182.8839467184884,74.42231229822784L182.96647557531085,71.35615889518444L183.2140621457781,84.63221480810805L183.29659100260054,80.44976156035162L183.70923528671264,97.07481622328427L184.20440842764717,30.77165184450839L184.28693728446962,-0.1242333525882507L184.69958156858172,12.50774869659342L185.0296969958714,-7.752745048256071L185.44234127998354,48.61097597474404L186.10257213456288,42.67122451930293L187.42303384372167,53.034686271824654L187.5055627005441,63.432938620487484L187.9182069846562,35.16690283690381L188.99108212334767,40.35169764753923L189.07361098017012,39.48108988889239L189.48625526428222,32.65554378820338L189.65131297792706,38.682012938714095L189.8163706915719,43.8876432404414L189.89889954839435,61.84063016468152L189.98142840521675,60.18023179265636L190.31154383250643,118.96090044665799L190.4766015461513,79.2586732261494L190.64165925979614,45.15878495493077L190.80671697344098,44.08526931410106L191.05430354390828,1.5358904390760946L191.13683240073067,-23.975818489527114L191.46694782802035,-9.947939349783484L191.5494766848428,12.176030661120217L191.63200554166522,20.15016026125106L191.71453439848764,70.9186518864614L191.87959211213249,115.15306844936468L191.9621209689549,111.67485308700628L192.04464982577733,49.68250721122447L192.2922363962446,78.91703316216702L192.952467250824,58.80460569052318L193.28258267811367,81.08026173049699L193.3651115349361,110.29817785428702L193.61269810540335,99.04498978219281L194.1078712463379,108.50855490822705L194.1904001031603,69.8679999983078L194.35545781680514,54.51413735689785L194.76810210091728,91.28764166814695L194.93315981456212,113.3517442548964L195.01568867138454,116.20100931222073L195.34580409867422,75.3952214061423L195.42833295549667,82.44736304199134L195.84097723960878,50.29939965011174L196.00603495325362,31.89410495819959L196.088563810076,28.949110392606322L196.25362152372085,60.0041439906256L196.9963812351227,48.85572531194587L197.0789100919451,93.63391773585259L197.24396780558993,115.00282691529688L197.40902551923477,154.14526744634955L197.65661208970207,103.25870423873916L197.7391409465245,91.76671247447595L198.4819006579263,71.42712253576566L198.97707379886083,86.86635782449696L199.55477579661778,75.5079681504466L199.88489122390746,64.28666651169877L199.96742008072988,96.08447871886979L200.29753550801956,118.79793665677121L201.04029521942138,135.22582254007477L201.3704106467111,65.57062605193592L201.45293950353349,98.40498848646246L201.53546836035594,121.31811844671347L201.94811264446804,119.14271784566128L202.44328578540257,119.37004394404654L202.69087235586986,111.67111961207178L202.77340121269225,83.51757045826002L202.8559300695147,79.49182106893254L203.10351663998196,68.91527433435354L203.2685743536268,73.23217227604867L203.43363206727165,103.92609375358687L203.51616092409407,117.15899920204595L203.5986897809165,130.53726491283837L203.92880520820617,143.53543824087683L204.093862921851,154.15402627855147L204.34144949231828,135.48817542441085L204.42397834914073,93.426463037163L204.50650720596312,112.00830733347533L204.83662263325283,126.82424334253793L205.33179577418736,96.38364186844824L205.90949777194433,60.11025942963588L205.99202662876675,78.0838669408691L206.07455548558917,81.55034031266992L206.48719976970128,39.99695527388019L206.56972862652373,46.715689770554064L206.73478634016854,122.7232022799844L207.3950171947479,143.63284705561412L207.56007490839275,119.18844456048053L207.72513262203762,68.9843261035422L207.80766147886004,67.93574080305387L208.0552480493273,77.43847902443495L208.63295004708428,92.74159135844448L208.88053661755154,97.95209754518551L209.04559433119638,126.62599827510006L209.21065204484123,56.092467349099756L209.62329632895336,52.315127881306886L210.03594061306543,37.41825937022185L210.11846946988786,20.59605155255445L210.2009983267103,22.555755176672676L210.531113754,41.657267567972795L210.61364261082238,50.659314573981895L211.10881575175694,56.236588709286764L211.27387346540178,68.8780750681445L211.43893117904662,75.69662390026232L211.6865177495139,79.6727254215352L211.7690466063363,105.5288718917011L211.85157546315875,107.94546875180976L211.93410431998117,102.45089944547125L212.18169089044844,101.44485984562836L212.34674860409328,88.19407877328597L212.75939288820538,92.80488404402526L213.00697945867267,83.30898509752973L213.1720371723175,73.87947706768394L213.50215259960717,56.09078657442131L213.58468145642962,37.451935275344496L213.99732574054173,74.18041186104229L214.3274411678314,99.74750286218584L214.5750277382987,71.79357709075674L214.6575565951211,68.1957380099447L214.82261430876594,65.0310214610235L215.15272973605565,84.67642248927312L215.23525859287807,99.10759420120279L215.4003163065229,92.99412912769887L215.48284516334533,106.47987684742216L215.97801830427986,106.7367456629729L216.0605471611023,106.12324408364854L216.22560487474715,111.02133979506834L216.39066258839196,97.10427536366993L216.63824915885925,117.17808762275195L216.7207780156817,127.70663978397242L216.88583572932654,135.76303904118535L217.13342229979378,95.22260293357921L217.4635377270835,59.321623098500304L217.62859544072833,45.05994426098451L217.71112429755073,58.181351570101455L217.8761820111956,86.3025968580406L217.95871086801802,89.90215696111692L218.53641286577496,73.06222470381931L218.7014705794198,23.054474569983356L218.9490571498871,46.90664125638565L219.11411486353194,72.70587702278651L219.19664372035436,78.29578980971954L219.27917257717678,106.55643185666477L219.77434571811133,98.86550768942861L220.59963428633552,12.787801239505402L220.76469199998036,-24.091565897477935L221.67250942502704,-66.70801442150699L221.75503828184944,8.476632736946724L221.8375671386719,6.602825869496185L222.00262485231673,43.285910988922005L222.16768256596157,68.10350692894907L222.250211422784,84.79022182002255L222.58032685007367,23.82190041669383L223.0754999910082,40.75173120931048L223.24055770465307,72.86128442147931L223.4056154182979,95.59427617045098L223.7357308455876,103.32442756712575L224.47849055698939,104.12278492965072L224.56101941381183,67.93317349781894L224.64354827063423,53.966869432173326L224.9736636979239,48.03362659648557L225.38630798203604,51.70865750475159L225.46883683885846,36.03373788292818L225.5513656956809,55.22734092878233L225.8814811229706,43.43232438764461L225.964009979793,41.63383965720115L226.21159655026028,58.73055641080605L226.37665426390512,44.54532627627358L226.6242408343724,47.75170147660076L227.03688511848452,66.0351150425646L227.20194283212933,46.207927059602L227.36700054577418,75.37149242981769L227.44952940259662,46.05109391744407L227.8621736867087,60.20868809050745L228.02723140035357,71.66689647383666L228.43987568446568,68.54823683315576L228.68746225493294,69.65279786901564L228.85251996857778,60.854382170373725L229.01757768222262,56.08253747991084L229.43022196633476,75.59364806735346L229.67780853680202,47.70544635509029L229.84286625044686,58.255280794341424L230.0079239640917,48.370636417158074L230.09045282091415,55.7021925298325L230.3380393913814,42.56872319341645L230.4205682482038,47.02209589419072L230.50309710502626,62.91491223717546L230.7506836754935,45.28591215477951L230.83321253231594,20.502438884776353L230.91574138913833,17.99819957966935L231.57597224371773,28.86433027978363L231.65850110054018,54.54889018522234L231.74102995736257,59.77816815085143L231.9060876710074,62.19427274974839L231.98861652782986,67.26901060483348L232.31873195511955,63.12133652276673L232.4837896687644,67.52302627718677L233.22654938016618,70.12004599475897L233.63919366427828,44.619058255405314L233.72172252110073,61.00652514354957L233.80425137792312,90.87615954203456L233.96930909156802,94.46952995717561L234.3819533756801,97.94739631883475L234.46448223250252,80.60789129212418L234.54701108932497,86.23950309179418L234.62953994614736,84.51690841730642L234.7945976597922,58.40416568682855L234.95965537343704,62.791585000398584L235.28977080072676,84.62471631596743L235.61988622801644,85.04855555838053L235.70241508483886,98.75531494932004L235.86747279848373,100.28888114950604L236.11505936895097,115.15097507663724L236.2801170825958,91.17598472887899L236.85781908035278,73.47279494856512L237.2704633644649,54.620924599724155L237.51804993493215,23.688032637163296L237.93069421904428,37.42855087842683L238.17828078951155,69.74577250332192L238.26080964633397,87.26658989704524L238.3433385031564,62.05195287611549L238.67345393044607,68.4179217119636L239.00356935773576,70.64556451849695L239.1686270713806,71.5777757890749L239.82885792596,57.06137800277067L239.91138678278242,59.01788114336345L239.99391563960484,68.979515132991L240.32403106689452,52.08141114238797L240.65414649418423,67.50736639342863L240.98426192147392,80.39542409718013L241.0667907782963,47.27699032385892L241.39690620558602,51.84548166279482L241.47943506240844,44.82162868325506L241.56196391923086,34.39729723309538L241.64449277605328,53.23099769005792L241.974608203343,65.6023895707261L242.22219477381023,56.85913026211564L242.46978134427752,54.53169902881662L242.63483905792236,31.157864480624937L242.7998967715672,27.60513166987111L243.13001219885692,52.29605152634962L243.54265648296902,51.13195054159287L243.62518533979144,56.8442974270106L243.70771419661386,80.05882340542816L243.8727719102587,57.130681314044935L243.9553007670811,75.79865326648765L244.120358480726,74.45547181810475L244.28541619437084,87.13390413379247L244.36794505119323,76.45060618284471L244.45047390801565,60.877480229687265L245.11070476259502,50.5168898644932L245.27576247623986,39.89617992909276L245.52334904670715,63.376234158415166L245.60587790352957,57.29634051924857L245.688406760352,43.915569341597276L245.77093561717442,58.30016778936128L245.93599333081926,84.28238798295651L246.1010510444641,30.875369554540363L246.3486376149314,35.14149352013602L246.43116647175378,23.29974252321166L246.7612818990435,30.58504552111194L246.84381075586592,63.540572326155356L246.92633961268834,51.137768459498886L247.17392618315563,33.44165156030583L247.83415703773497,41.46833503242946L249.31967646053857,31.496278678810846L249.40220531736102,26.933702304693078L249.81484960147313,39.0714170414786L249.89737845829555,18.136256988351356L250.06243617194042,31.09659356891327L250.22749388558526,20.893458053333028L250.31002274240765,11.169840282462742L250.55760931287494,-9.171886017359984L250.8877247401646,6.64477476750596L250.97025359698705,4.87027572827763L251.1353113106319,24.651317483802597L251.30036902427673,45.30600153911009L251.38289788109915,31.133779261785783L251.79554216521126,21.291431271281006L251.87807102203368,24.669756458138263L252.12565759250097,48.478443686154115L252.20818644932336,44.09532383437036L252.53830187661308,37.874532806943954L252.6208307334355,0.4474466667501276L252.70335959025792,-2.713074519300704L253.19853273119244,6.129121616906166L253.36359044483729,20.420437997589044L253.44611930165973,29.842573680409796L253.52864815848213,33.1254069899257L254.60152329717366,22.738337169246684L254.68405215399605,2.396337292063529L254.84910986764092,-6.615286271366746L255.261754151753,3.2373590070473424L255.67439843586513,28.53462332127453L255.83945614950997,37.06780119166107L256.3346292904445,29.169044571893636L256.49968700408937,33.62120320484463L256.6647447177342,65.8642364709849L256.82980243137905,44.1392953892063L256.9123312882015,38.758770533288065L257.0773890018463,76.09115532065725L257.4900332859584,40.59990585448649L257.57256214278084,51.47701240965775L257.65509099960326,60.28047784818505L257.7376198564257,32.591566610985105L257.98520642689294,35.291367603173825L258.0677352837154,28.675586204347024L258.3153218541826,25.99372839670108L258.39785071100505,30.347654031925696L258.4803795678275,48.33661498648425L258.5629084246499,48.82870237804335L258.8930238519396,39.78529369927249L258.97555270876205,11.065996229924883L259.38819699287416,10.442843683667663L259.553254706519,16.692050994836194L259.9658989906311,18.215923961486713L260.0484278474535,41.01864066974607L260.21348556109837,53.285812219950834L260.3785432747432,27.86905042710173L260.46107213156563,20.5847537169653L260.62612984521047,31.09960594442321L260.7911875588553,10.493142911803345L261.2038318429674,4.31374101658122L261.4514184134347,21.98721097746111L261.6164761270795,24.612047530187052L261.699004983902,36.29101292001567L262.0291204111917,19.449669603063466L262.4417646953038,37.47471049885131L263.01946669306074,20.651209963162778L263.10199554988316,14.774517269481358L263.51463983399526,7.498375580158021L263.6796975476401,19.865388753793436L264.0923418317522,33.62153854510792L264.1748706885747,33.53620410979448L264.25739954539705,44.35019782632401L264.3399284022195,36.42398431771205L265.0826881136213,17.692038083987505L265.4953323977334,26.335158468935372L265.7429189682007,33.90117817300914L265.8254478250231,32.440895142574156L266.5682075364249,26.227202036553013L266.73326525006973,15.349391801585089L266.980851820537,22.67566156737398L267.14590953418184,-14.459101769705338L267.6410826751164,7.528047665389397L268.21878467287337,6.509514651410046L268.3838423865182,6.637891072215094L268.46637124334063,16.210695543601815L268.6314289569855,7.014313826175607L268.87901552745274,16.284458710772302L269.2091309547424,-8.705569285346828L269.4567175252097,10.474064979212919L269.5392463820321,7.220834029200925L269.70430409567695,27.159555172551013L269.8693618093218,41.21621014846474L269.95189066614427,50.402714102079536L270.4470638070788,40.51623742773223L270.5295926639012,47.03381269322242L270.69465037754605,39.69856717442319L270.8597080911909,10.586941181250989L271.10729466165816,14.40537054968653L271.6849966594151,22.71196692479739L272.0151120867048,37.7348759629204L272.0976409435272,59.17687973414911L272.3452275139945,70.45028228467132" fill="none"></path></g></g></g></g><g opacity="0.2"><g><g><g><path style="fill: none;" stroke="rgb(255, 112, 67)" stroke-width="2px" d="M42.74994783401489,186.6405710130823L42.91500554765974,160.0760182596203L43.16259211812701,249.6800835743381L43.74029411588397,196.16709194097598L43.987880686351225,172.12153302988835L44.152938399996074,93.07671308793397L44.730640397753035,73.71183407944739L45.060755825042726,-17.19237753063231L45.14328468186515,34.34448493025842L45.225813538687575,100.57863448236559L45.47340010915484,126.80817143458577L46.21615982055664,154.2585822584987L46.29868867737906,149.98363953884638L46.38121753420148,149.19272236934864L46.62880410466875,174.09665265415398L46.87639067513602,177.05266762674074L47.20650610242571,177.29864079435083L47.5366215297154,27.027934898016778L47.619150386537825,108.86109325233222L47.701679243360246,-13.477182307321433L47.86673695700509,60.82720404348155L48.03179467064994,36.95855460126983L48.11432352747236,167.0460161736532L48.27938124111721,190.13293316655884L48.36191009793963,208.5053708720657L48.52696781158448,164.47520046299888L48.69202552522932,-7.9591219235288895L50.0950160912105,-28.28378009781821L50.507660375322615,19.493688685617766L50.59018923214504,-27.100849818354913L51.58053551401411,22.80866912332502L51.66306437083653,15.08055110465518L51.99317979812622,74.52826221887948L52.24076636859349,59.555375695762045L52.40582408223834,54.67558108260446L52.570881795883174,94.46321069151998L53.313641507284984,53.582088582132705L53.80881464821952,65.78064989662332L54.221458932331636,94.98883112154579L54.30398778915405,216.7041600215243L54.55157435962132,197.4783095346802L54.71663207326616,110.00109725295624L54.88168978691101,73.15878477883864L55.37686292784555,202.356191066035L55.45939178466797,198.9074924748129L56.20215149606977,151.97136526385782L56.367209209714616,219.82057509710197L56.53226692335946,104.54431331300293L56.77985349382673,80.70567564275024L57.52261320522854,111.07689495146371L57.7701997756958,160.01591761416867L57.85272863251822,50.554465560202516L58.017786346163064,117.29557697120106L58.265372916630334,53.00527273378762L58.843074914387294,127.47671883254736L59.00813262803214,67.60119058368582L59.090661484854564,149.5526997920978L59.42077691214425,84.52266416581419L59.50330576896667,190.87368615074936L59.5858346257891,227.13071124551612L59.66836348261152,85.78730279552424L59.91595005307879,193.79045644272696L59.99847890990121,194.4166076348929L60.3285943371909,105.6743133896406L60.41112319401332,62.217306143763956L60.49365205083575,148.0122304258859L60.90629633494786,119.73595616236491L61.07135404859271,209.54331653641486L61.153882905415124,124.00563670234816L61.483998332704815,112.1854608017569L61.896642616816926,197.59663147570163L61.979171473639354,155.30416579352146L62.144229187284196,178.9992018574192L62.309286900929045,157.84603951599564L62.391815757751466,172.7063288869624L62.47434461457389,172.7063288869624L62.72193118504115,37.69258047665261L62.886988898686,36.99454174208387L63.13457546915327,79.2256346035078L63.29963318279811,154.06400690073366L63.54721975326538,199.52057013818555L63.6297486100878,100.31263419139941L63.95986403737749,76.78436874470736L64.04239289419992,264.915106276405L64.12492175102234,150.84844889062083L64.20745060784476,97.6761086987231L64.45503717831203,148.04146154481705L64.53756603513445,174.9218992814931L64.95021031924657,217.987481316598L65.77549888747079,233.1050054979283L65.85802774429321,177.06226676767562L66.02308545793805,161.0954065485979L66.18814317158291,138.5032404591976L66.27067202840533,162.26140340374133L66.51825859887259,140.1099496804751L66.60078745569501,119.41299711344188L66.68331631251743,37.97080136069649L66.84837402616229,176.07187829302836L67.34354716709682,92.61512548157407L67.42607602391924,156.86541402304215L67.50860488074166,166.2116233768892L67.92124916485378,161.89116183932987L68.08630687849862,49.2306322280608L68.16883573532104,5.178883027273962L68.3338934489659,119.30752221545879L69.15918201719012,57.08793386629986L69.32423973083496,87.26080947979294L69.57182630130222,200.62484239682558L69.8194128717695,74.81436673473533L69.98447058541434,102.06648205188637L70.2320571558816,117.27660035624046L70.39711486952646,102.63292774396045L70.56217258317129,57.69102206222372L70.72723029681615,170.19996042071722L70.97481686728341,72.29135397492131L71.05734572410583,55.599604412194005L71.22240343775069,109.30487040442743L71.80010543550765,162.54895357335243L71.88263429233007,142.8161267710794L71.96516314915249,119.40864087679273L72.04769200597491,129.63829887816527L72.87298057419913,208.70505420643266L73.12056714466641,183.45506332569536L73.20309600148883,174.7454427841272L73.53321142877851,19.295229338096927L73.94585571289063,117.27763158925255L74.11091342653546,83.62653231600927L74.2759711401803,120.17575294778736L74.52355771064758,156.07671352263583L74.77114428111484,156.10042224422193L75.26631742204938,174.30990585843688L75.3488462788718,126.7520029673484L75.51390399251666,178.89324507485105L75.59643284933908,183.63091264848404L76.0916059902736,159.27940521432686L76.17413484709604,154.77393854686224L76.4217214175633,150.85810585770594L76.751836844853,150.4897340054846L76.83436570167542,117.56596241189146L76.91689455849784,155.38619218759436L76.99942341532027,52.72888301116705L77.41206769943238,180.37806640917748L77.65965426989963,132.05144195258023L77.74218312672205,169.7563663847643L77.82471198354447,173.1578740185692L78.2373562676566,138.82748132111698L78.65000055176871,184.88852540094356L78.9801159790584,207.97614594534346L79.06264483588082,107.16056110233893L79.22770254952567,120.23878345151627L79.88793340410506,117.81820971679934L80.21804883139474,32.88038463309055L80.30057768821717,119.51938759213664L81.12586625644138,153.70901216459424L81.5385105405535,194.10642816516625L81.70356825419834,147.95215869350938L81.78609711102077,137.84988206335782L81.86862596784319,143.13350559650718L81.95115482466561,148.6301992177971L82.2812702519553,105.99902649845336L82.69391453606742,65.55158124025796L82.77644339288985,89.48744394439711L83.02402996335711,66.5656013349577L83.43667424746923,81.27314293014472L83.51920310429165,115.9197193792537L83.84931853158133,154.74629764706185L83.93184738840377,178.01804629142217L84.01437624522619,106.64022212736563L84.17943395887103,122.15044851361812L84.42702052933828,133.68882794654417L84.75713595662798,108.61970762597213L84.8396648134504,136.5045952294882L85.1697802407401,133.90594586519944L85.25230909756252,113.75657802758013L85.66495338167464,103.61381345458985L85.83001109531948,136.0692703330153L86.2426553794316,96.62758566773135L86.32518423625402,121.71495013869463L86.40771309307644,157.78169828619525L86.6552996635437,120.43150837247462L86.73782852036612,151.2352383716841L86.82035737718854,119.48794944180578L87.06794394765582,126.82922015326221L87.15047280447824,63.442141106746114L87.23300166130066,90.58269050475859L87.31553051812308,106.621505730081L87.72817480223519,69.67209922577439L87.89323251588003,98.02456907988878L87.97576137270245,69.931430234083L88.05829022952489,88.70952802100493L88.1408190863473,121.41457220142863L88.38840565681457,144.90008484773205L88.55346337045941,105.27161207957795L88.80104994092669,92.86674633652135L88.88357879774911,101.8701044457731L89.29622308186123,88.86588993117287L89.37875193868365,114.99296858291257L89.62633850915091,165.0519970359606L89.79139622279575,115.09951326467456L90.20404050690787,166.66350582770554L90.36909822055271,108.44738569834624L90.61668479101999,99.36717663546534L90.78174250466483,132.4254422167553L90.86427136148725,115.26449127122379L90.94680021830968,108.24767345090417L91.02932907513211,66.60598326318772L91.19438678877695,41.91440987733703L91.27691564559936,51.83523768582118L91.4419733592442,106.05783569321697L91.60703107288904,114.21386722344107L91.68955992971148,91.80654242318714L91.7720887865339,67.6067804448728L92.01967535700116,135.12836176756446L92.26726192746844,31.466438883538196L92.67990621158054,51.48396309867863L93.01002163887024,161.96242293177204L93.09255049569266,128.13564781419072L93.2576082093375,147.43464356220466L93.50519477980478,69.11958963590091L93.83531020709447,87.38120352453024L93.91783906391689,77.1492903032995L94.08289677756174,98.95568575057075L94.16542563438416,73.01285085109191L94.24795449120658,86.55783624707294L94.330483348029,110.81625321708371L94.6605987753187,81.06419777405245L94.74312763214111,92.90487304489317L94.90818534578595,118.97756620236032L94.99071420260837,137.87098860818446L95.32082962989807,14.55313806397287L95.98106048447745,122.13791951440594L96.31117591176714,123.87706989504784L96.39370476858957,250.49677915971486L96.64129133905683,88.87440965063716L96.72382019587926,20.183940165291553L96.80634905270168,131.64772868488888L96.97140676634652,220.5853452090131L97.05393562316895,-81.07307987072468L97.2189933368138,170.60350984764963L97.38405105045864,45.31233228982886L97.46657990728106,24.373329095708126L97.63163762092591,188.87494454412297L97.79669533457076,124.10540608684386L98.044281905038,171.18417113498367L98.29186847550528,194.87763625513412L98.62198390279497,59.10016824130865L98.70451275961739,35.80482652766264L99.28221475737435,-8.952247502619404L99.4472724710192,69.44249085867375L99.52980132784162,55.9569314697252L99.94244561195373,88.13278927419344L100.27256103924343,75.53289520186182L100.43761875288827,43.29739936114361L100.76773418017797,65.15217602075725L101.18037846429009,82.49446977334745L101.59302274840218,136.7058495076025L101.6755516052246,40.802586487248675L101.75808046204703,45.477059716393846L102.0056670325143,92.53073785303422L102.17072474615914,-12.72235829324645L102.33578245980398,79.21975561156978L102.41831131662641,99.37974418544434L102.58336903027126,238.96353179761996L102.83095560073852,92.67385757480406L102.91348445756094,101.83693151093593L102.99601331438338,25.963914458768752L103.16107102802822,51.97055087731266L103.32612874167306,29.16316549452231L103.40865759849548,93.15028722638453L103.57371531214034,42.93056953959455L103.73877302578518,142.98357202670428L104.06888845307486,78.62840612413856L104.23394616671972,155.49742078752337L104.5640615940094,16.849163908829073L104.64659045083182,223.93262637045848L104.8941770212991,130.19487557393686L105.05923473494393,139.19173787898166L105.30682130541119,116.42295145145653L105.47187901905605,243.21505251701433L105.63693673270089,54.24847713715314L105.88452330316815,169.64002980823344L106.13210987363543,35.573676129889726L106.21463873045785,60.80700344167484L106.62728301456997,83.54278077512174L107.03992729868207,73.01510607095008L107.37004272597177,189.0273839137683L107.45257158279419,209.7050514597065L107.53510043961661,168.85865395352033L107.70015815326146,196.47271278252768L107.78268701008389,226.31745390665392L107.86521586690631,14.84986331608395L108.2778601510184,68.7091396217101L108.52544672148568,47.11454208727479L108.6079755783081,22.534380417495413L108.69050443513052,168.19671801206607L108.77303329195294,20.44381088433544L108.9380910055978,60.30472550095048L109.18567757606506,118.58026199965059L109.43326414653232,6.69092120296593L110.17602385793414,125.79631018282716L110.4236104284014,191.58013859017368L111.00131242615836,92.12526088776146L111.08384128298079,100.28194778102129L111.1663701398032,131.70080345308997L111.4964855670929,146.23650500523615L111.66154328073775,68.46896834450442L111.82660099438257,121.37469143316709L111.90912985120502,24.95612031290827L112.23924527849469,135.57151246969906L112.73441841942923,94.82678297327385L112.89947613307407,136.40087439139478L113.14706270354135,76.79205962268531L113.22959156036377,169.0393413975433L113.47717813083104,177.31560313174577L113.72476470129831,192.30315822163314L113.88982241494315,29.264958794275376L114.054880128588,127.5518157262868L114.46752441270012,80.37402339591227L114.55005326952254,45.34109116186664L114.7976398399898,101.00683712467088L115.1277552672795,4.071146018467128L115.29281298092432,60.99409031298771L115.62292840821402,98.8736111680393L115.70545726503644,194.58922833096153L115.9530438355037,124.66366937866324L116.11810154914856,38.89016004750243L116.20063040597098,120.26360050764809L116.44821697643825,15.230821993667652L116.53074583326067,162.08464813793267L116.77833240372794,-17.17528026555355L116.86086126055037,12.487703630770852L116.94339011737279,80.7699783217838L117.43856325830733,92.03401122273003L117.85120754241943,107.7349482523752L118.01626525606429,162.20120638137269L118.09879411288671,17.841634124883893L119.25419810840062,87.4823992873978L119.33672696522304,68.36075634207803L119.50178467886788,7.563537085018765L120.07948667662484,-37.81212254944345L120.16201553344726,-3.679813329535672L120.24454439026968,92.54773874119599L120.57465981755938,184.0689842870919L120.6571886743818,127.41240651582211L120.9873041016715,115.3457562876523L121.31741952896118,158.30520806173843L121.3999483857836,126.07940773887209L121.56500609942846,96.12324526098281L121.7300638130733,156.24764762265667L121.81259266989572,84.4617154034928L121.89512152671814,111.1746982468523L121.97765038354055,123.86552394038924L122.63788123811993,154.42920795238513L122.96799666540963,184.88993250393204L123.13305437905447,93.31630610363754L123.38064094952175,111.32589435426814L123.79328523363385,-26.122277153733915L124.28845837456839,63.10100537127372L124.37098723139081,100.22940308586375L124.45351608821325,142.18979246277112L124.61857380185809,83.63624710924458L124.86616037232535,134.37909870160132L125.69144894054958,43.3146315539062L125.85650665419442,-22.645691901573013L126.02156436783926,49.37061006233589L126.26915093830654,95.42582333868302L126.5167375087738,-34.24203241239292L126.68179522241864,146.69111492280405L126.76432407924106,-70.94459835683628L127.17696836335318,19.995002857171965L127.2594972201756,161.0095636286111L127.50708379064288,140.44049359276738L127.5896126474653,84.09424949429145L127.67214150428772,97.04426163076145L127.91972807475499,125.0836799830221L128.0022569315774,22.73970180150785L128.3323723588671,111.93754082042307L128.49743007251195,247.38615151800403L128.99260321344647,68.76172286763442L129.1576609270913,109.1001658326839L129.4052474975586,65.00209788557879L129.7353629248483,69.55910692826399L130.06547835213797,84.33644468675448L130.23053606578281,70.95757454494344L130.56065149307253,63.597924755411945L130.64318034989495,127.23371407398142L131.05582463400705,128.64278315153274L131.2208823476519,86.42734190143231L132.21122862952097,187.03418397987033L132.54134405681066,124.37321826384994L132.62387291363308,94.98952503534828L132.7064017704555,136.75007687482147L132.95398834092276,186.1073271689205L133.1190460545676,133.70941405601894L133.36663262503487,147.9638684889269L133.69674805232458,75.0804248518517L133.86180576596942,87.7556278471402L133.9443346227918,127.86920418940628L134.27445005008153,85.83339023724164L134.35697890690395,66.85525252135977L134.6045654773712,30.57433558886458L134.9346809046609,81.40643220637884L135.01720976148331,99.98583934117912L135.18226747512819,-31.131486691061543L135.34732518877303,-12.810658824617162L135.5949117592403,21.04188748057444L136.0075560433524,12.526774832929437L136.17261375699724,98.24170627392743L136.33767147064208,102.64927326908649L136.58525804110937,-31.09914259771072L136.99790232522147,24.56224712844431L137.0804311820439,65.17692561304715L137.24548889568874,-38.359871119616265L137.41054660933358,10.394127137799956L137.493075466156,39.973475145537215L137.57560432297845,-12.765207470552067L137.82319089344568,115.3082656669328L138.23583517755782,13.395285058317333L138.40089289120266,170.32487454286257L138.48342174802508,-30.4015279215769L138.81353717531476,93.02623085880063L139.22618145942687,28.376941880883276L139.55629688671658,43.91633192222501L139.88641231400626,-21.08091627688948L139.96894117082869,60.11201021768384L140.3815854549408,110.31468846554526L140.54664316858566,173.20779726158383L140.7117008822305,109.23908352087182L140.87675859587534,139.04871453412886L141.12434516634258,132.26733588438938L141.20687402316503,105.29751819487204L141.5369894504547,65.57045184060983L142.03216259138924,147.48604137204967L142.19722030503408,194.96179739791896L142.36227801867895,88.623367057192L142.5273357323238,159.29316783807684L142.6098645891462,151.3530109642785L143.02250887325832,184.502102152165L143.43515315737042,174.3036220834474L143.6827397278377,85.4452996677987L143.84779744148256,110.97762672693649L144.0128551551274,142.90349244635507L144.09538401194982,119.53791123558726L144.26044172559466,154.84609594463268L144.4254994392395,103.52071335275171L144.6730860097068,111.90974571755544L144.8381437233516,211.19353993572543L144.92067258017403,186.64794384723407L145.00320143699645,153.55020228073408L145.0857302938189,63.45698315196669L145.66343229157584,95.70974973621428L145.8284900052207,85.57785647946349L146.07607657568795,132.94578119172863L146.15860543251037,79.03114598496806L146.24113428933282,116.6407536462226L146.73630743026735,157.03871899522164L147.14895171437945,189.02890666905716L147.3965382848467,91.84819652672181L147.47906714166913,178.06226402094944L148.13929799624853,-29.308208899555748L148.22182685307092,89.47840378958097L148.30435570989337,125.60461649488091L148.38688456671576,143.8154397482424L148.5519422803606,94.80116598873082L148.96458656447274,101.88527417251152L149.12964427811758,146.14836831462435L149.21217313494,108.77279272096149L149.8724039895194,158.89530464924843L149.95493284634182,48.986914280308895L150.2850482736315,113.62263338831029L150.45010598727637,143.3721830314991L150.61516370092122,103.37809479095037L150.6976925577436,41.14919643160764L150.86275027138845,18.4421394194317L151.19286569867816,8.505640724240653L151.27539455550055,49.86321176059178L151.4404522691454,76.30653199013845L151.6055099827903,47.632047580887786L151.6880388396127,59.90094476941721L151.85309655325753,5.956201413780651L151.93562541007995,11.40394519891778L152.01815426690237,33.48314514749654L152.1006831237248,73.79703127409019L152.43079855101448,85.60420592857588L152.51332740783693,23.321163017253156L152.76091397830416,-73.82915948314684L152.8434428351266,112.47914054329026L152.92597169194903,90.75505098315129L153.2560871192387,-58.31471178792905L153.91631797381808,210.8323529826677L154.57654882839748,173.41167299184104L154.82413539886477,40.68519940232232L154.98919311250958,44.02552696920496L155.15425082615442,31.349090349378624L155.23677968297687,21.085526948599608L155.56689511026656,23.97835721439019L155.7319528239114,97.76585488384909L155.97953939437866,-45.46034410390641L156.06206825120108,12.29415950601787L156.22712596484592,-9.932805531730953L156.80482796260287,-7.332170802951677L156.96988567624774,7.392024723495805L157.05241453307016,10.96113181599275L157.38252996035985,109.99654826247307L157.46505881718227,-29.6143983649179L157.71264538764956,45.14560022338992L157.79517424447195,47.38150614741112L157.8777031012944,46.2109506640928L158.04276081493924,40.614111788330774L158.12528967176164,63.53314019179331L158.2903473854065,125.9151621968922L158.45540509905135,-9.445099780859518L158.53793395587374,29.076831052258726L158.86804938316345,106.26726273389431L159.11563595363071,82.85183538164546L159.44575138092043,-130.1809741674263L159.52828023774282,79.75333677494119L159.7758668082101,69.68981330312207L159.94092452185495,2.01997536898359L160.1059822354998,103.98708125419563L160.18851109232222,60.38681935886533L160.27103994914464,15.263975653121413L161.01379966054643,81.02422062887392L161.1788573741913,138.23607400753554L161.42644394465853,19.935904531657314L161.59150165830337,58.10976049127799L161.75655937194827,101.06105877818447L162.33426136970522,19.748740558810823L162.4167902265276,195.6484347432046L162.6643767969949,16.221885106734014L162.7469056538173,164.24908094029425L162.82943451063974,51.722245388310775L163.24207879475185,-2.4250629715115397L163.4896653652191,24.52178809868069L163.65472307886398,104.83510174702577L163.90230964933122,111.15636735723571L163.98483850615366,160.01564775880104L164.06736736297606,146.8897477487755L164.39748279026577,62.40473997197808L164.4800116470882,65.54583717600376L164.64506936073303,4.924621444800436L164.8101270743779,192.262554626494L164.8926559312003,99.91143636124218L165.22277135848998,81.42626657590088L165.3053002153124,52.670440048688114L165.63541564260208,107.09469711724968L165.71794449942453,27.47161567319498L165.88300221306937,-22.843919944493027L166.04805992671422,73.77305269713644L166.46070421082632,58.29927606089967L166.54323306764877,50.84259399131571L166.7082907812936,52.88351013682868L166.95587735176085,-1.9116245837966719L167.53357934951782,1.311142419708985L167.69863706316266,80.229496571154L168.02875249045238,80.43009548623262L168.11128134727477,46.470435875468624L168.44139677456448,9.714669872832038L168.52392563138687,116.48288825614922L169.01909877232143,57.26073767851085L169.2666853427887,55.40615666435803L169.3492141996111,168.9432343358942L169.43174305643353,73.76376196233602L169.5968007700784,36.54037515833426L169.6793296269008,33.69540566953418L169.76185848372324,-72.56006823987063L169.84438734054564,20.004332142739184L170.17450276783535,18.08130424212109L170.25703162465777,112.01213655419403L170.4220893383026,144.76845325447061L170.50461819512503,161.84476599147803L170.66967590876988,169.43442893116168L170.91726247923717,-46.24849525588578L170.99979133605956,161.1399423219513L171.32990676334927,-115.82250976567393L171.4124356201717,26.697786131084285L172.0726664747511,177.4317373167509L172.4853107588632,40.95983506505318L172.98048389979772,212.83407263603L173.0630127566201,229.72408397359823L173.14554161344256,82.99200596975459L173.55818589755467,81.53858423499217L173.88830132484435,54.420721963245434L174.3834744657789,69.00892965978231L174.7135898930686,123.89285643405516L175.04370532035827,131.01951502669874L175.2087630340031,80.50272513089641L175.37382074764795,143.4251806981666L175.62140731811522,112.1843042787527L176.03405160222735,104.40603171246732L176.44669588633946,95.3370023719604L177.02439788409643,32.26154844892617L177.51957102503096,154.99720531282318L177.6846287386758,45.84171141961832L177.84968645232067,157.3346732319966L178.0147441659655,141.7066935285331L178.0972730227879,130.16925858939382L178.3448595932552,50.24856522559144L179.08761930465698,72.24792653611358L179.9954367297036,2.6235068987257293L180.07796558652606,54.83961459536692L180.32555215699333,-4.595702447329038L180.40808101381575,51.325943505538L180.73819644110543,96.19554722412876L180.82072529792785,-26.88901335475217L180.9857830115727,79.74957807517751L181.39842729568483,155.48221251001814L181.6460138661521,20.433402177297634L182.05865815026422,70.90445158828383L182.14118700708661,61.04709761734691L182.22371586390906,37.415207709478466L182.3887735775539,79.3766379570896L182.4713024343763,73.26892431960533L182.8839467184884,84.7042961036239L182.96647557531085,66.75692879061933L183.2140621457781,104.54629867749348L183.29659100260054,74.17608168871696L183.70923528671264,122.01239821768336L184.20440842764717,-68.68309472365544L184.28693728446962,-46.468061148233296L184.69958156858172,31.455721770365926L185.0296969958714,-38.14348566553035L185.44234127998354,133.15655750924418L186.10257213456288,33.76159733614127L187.42303384372167,68.57987890060724L187.5055627005441,79.03031714348172L187.9182069846562,-7.232150838471706L188.99108212334767,48.12888986349241L189.07361098017012,38.17517825092215L189.48625526428222,22.41722463716989L189.65131297792706,47.72171666448017L189.8163706915719,51.69608869303243L189.89889954839435,88.77011055104165L189.98142840521675,57.68963423461867L190.31154383250643,207.13190342766038L190.4766015461513,19.705332395386495L190.64165925979614,-5.991047451897149L190.80671697344098,42.4749958528565L191.05430354390828,-62.288177873461365L191.3018901143755,-13.520629021512551L191.46694782802035,4.820765679023218L191.5494766848428,45.36198567747588L191.63200554166522,32.1113546614473L191.71453439848764,147.07138932427694L191.87959211213249,181.50469329371958L191.9621209689549,106.45753004346874L192.04464982577733,-43.3060116024482L192.2922363962446,122.7688220885808L192.952467250824,28.635964483057418L193.28258267811367,114.49374579045764L193.3651115349361,154.12505203997205L193.61269810540335,82.1652076740515L194.1078712463379,122.70390259727834L194.1904001031603,11.907167633428912L194.35545781680514,31.483343394782924L194.76810210091728,146.44789813502064L194.93315981456212,146.44789813502064L195.01568867138454,120.47490689820724L195.34580409867422,14.186539547024655L195.42833295549667,93.02557549576488L195.84097723960878,2.077454562292366L196.00603495325362,4.286162920331441L196.088563810076,24.531618544216403L196.25362152372085,106.58669438765456L196.9963812351227,32.133097293926284L197.0789100919451,160.80120637171262L197.24396780558993,147.0561906844634L197.40902551923477,212.85892824292856L197.65661208970207,26.928859427323598L197.7391409465245,74.52872482808117L198.4819006579263,40.91773762770026L198.97707379886083,110.02521075759384L199.55477579661778,58.470383639371164L199.88489122390746,47.45471405357703L199.96742008072988,143.78119702962636L200.29753550801956,152.86812356362333L201.04029521942138,159.86765136503016L201.3704106467111,-38.912168680272345L201.45293950353349,147.65653213825226L201.53546836035594,155.68781338708993L201.94811264446804,115.87961694408305L202.44328578540257,119.7110330916244L202.69087235586986,100.12273311410966L202.77340121269225,41.287246727542396L202.8559300695147,73.45319698494131L203.10351663998196,53.05045423248504L203.2685743536268,79.70751918859143L203.43363206727165,149.96697596989418L203.51616092409407,137.0083573747346L203.5986897809165,150.60466347902707L203.92880520820617,163.03269823293448L204.093862921851,170.08190833506342L204.34144949231828,107.48939914319999L204.42397834914073,30.333894456291258L204.50650720596312,139.8810737779438L204.83662263325283,149.04814735613184L205.33179577418736,50.72273965731373L205.90949777194433,5.700185771417416L205.99202662876675,105.04427820771889L206.07455548558917,86.75005037037111L206.48719976970128,-22.33312228430437L206.56972862652373,56.793791515564834L206.73478634016854,236.73447104412992L207.3950171947479,174.9973142190587L207.56007490839275,82.52184081778019L207.72513262203762,-6.321851581865357L207.80766147886004,66.36286285232134L208.0552480493273,91.69258635650658L208.63295004708428,115.69625985945872L208.88053661755154,105.76785682529705L209.04559433119638,169.63684936997188L209.21065204484123,-49.70782903990068L209.62329632895336,46.64911867961763L210.03594061306543,15.072956603594267L210.11846946988786,-4.6372601739466495L210.2009983267103,25.495310612850034L210.531113754,70.30953615492301L210.61364261082238,64.1623850829955L211.10881575175694,64.60249991224407L211.27387346540178,87.8403046064311L211.43893117904662,85.92444714843906L211.6865177495139,85.63687770344454L211.7690466063363,144.31309159694996L211.85157546315875,111.57036404197277L211.93410431998117,94.20904548596344L212.18169089044844,99.93580044586403L212.34674860409328,68.3179071647724L212.75939288820538,99.72109195013417L213.00697945867267,69.06513667778647L213.1720371723175,59.735215022915256L213.50215259960717,29.407750834527345L213.58468145642962,9.4936583267293L213.99732574054173,129.2731267395889L214.3274411678314,138.0981393639012L214.5750277382987,29.8626884336131L214.6575565951211,62.7989793887267L214.82261430876594,60.28394663764168L215.15272973605565,114.14452403164755L215.23525859287807,120.75435176909724L215.4003163065229,83.82393151744293L215.48284516334533,126.70849842700706L215.97801830427986,107.12204888629903L216.0605471611023,105.20299171466205L216.22560487474715,118.36848336219803L216.39066258839196,76.22867871657235L216.63824915885925,147.28880601137496L216.7207780156817,143.49946802580308L216.88583572932654,147.8476379270047L217.13342229979378,34.41194877217013L217.4635377270835,5.4701533458819L217.62859544072833,23.667426004710844L217.71112429755073,77.86346253377683L217.8761820111956,128.48446478994936L217.95871086801802,95.30149711573142L218.53641286577496,47.80232631787294L218.7014705794198,-51.95715063077062L218.9490571498871,82.68489128598908L219.11411486353194,111.40473067238781L219.19664372035436,86.68065899011907L219.27917257717678,148.94739492708254L219.77434571811133,87.3291214385744L220.59963428633552,-116.32875843537937L221.67250942502704,-66.19950012290127L221.75503828184944,121.2536034746273L221.8375671386719,3.792115568320308L222.00262485231673,98.31053866806077L222.16768256596157,105.32990083898966L222.250211422784,109.82029415663287L222.58032685007367,-67.6305816882992L223.0754999910082,66.14647739823539L223.24055770465307,121.02561423973252L223.4056154182979,129.69376379390837L223.7357308455876,114.91965466213797L224.47849055698939,105.32032097343819L224.56101941381183,13.648756350071327L224.64354827063423,33.01741333370494L224.9736636979239,39.133762342953894L225.38630798203604,57.2212038671506L225.46883683885846,12.521358450193086L225.5513656956809,84.01774549756357L225.8814811229706,25.73979957593806L225.964009979793,38.93611256153599L226.21159655026028,84.37563154121347L226.37665426390512,23.267481074474837L226.6242408343724,52.56126427709157L227.03688511848452,93.46023539151031L227.20194283212933,16.46714508515819L227.36700054577418,119.1168404851412L227.44952940259662,2.070496148883762L227.8621736867087,81.44507935010255L228.02723140035357,88.85420904883044L228.43987568446568,63.87024737213441L228.68746225493294,71.30963942280555L228.85251996857778,47.65675862241089L229.01757768222262,48.924770444216534L229.43022196633476,104.86031394851737L229.67780853680202,5.873143786695623L229.84286625044686,74.0800324532181L230.0079239640917,33.54366985138306L230.09045282091415,66.69952669884417L230.3380393913814,22.868519188792416L230.4205682482038,53.70215494535214L230.50309710502626,86.75413675165262L230.7506836754935,18.842412031185557L230.83321253231594,-16.67277102022835L230.91574138913833,14.241840622008848L231.57597224371773,45.16352632995504L231.65850110054018,93.0757300433804L231.74102995736257,67.62208509929506L231.9060876710074,65.81842964809385L231.98861652782986,74.88111738746112L232.31873195511955,56.89982539966662L232.4837896687644,74.1255609088168L233.22654938016618,74.01557557111731L233.63919366427828,6.36757664637482L233.72172252110073,85.58772547576602L233.80425137792312,135.680611139762L233.96930909156802,99.8595855798872L234.3819533756801,103.16419586132344L234.46448223250252,54.59863375205831L234.54701108932497,94.68692079129919L234.62953994614736,81.93301640557482L234.7945976597922,19.235051591111688L234.95965537343704,69.37271397075364L235.28977080072676,117.37441328932073L235.61988622801644,85.68431442200017L235.70241508483886,119.31545403572926L235.86747279848373,102.58923044978508L236.11505936895097,137.44411596733403L236.2801170825958,55.213499207241604L236.85781908035278,46.91801027809429L237.2704633644649,26.343119076462745L237.51804993493215,-22.71130530667799L237.93069421904428,58.03932824032216L238.17828078951155,118.22160494066453L238.26080964633397,113.5478159876302L238.3433385031564,24.229997344720854L238.67345393044607,77.96687496573577L239.00356935773576,73.98702872829696L239.1686270713806,72.97609269494171L239.82885792596,35.28678132331434L239.91138678278242,61.95263585425264L239.99391563960484,83.92196611743236L240.32403106689452,26.734255156483414L240.65414649418423,90.64629926998963L240.98426192147392,99.72751065280748L241.0667907782963,-2.400660336122923L241.39690620558602,58.69821867119871L241.47943506240844,34.285849213945454L241.56196391923086,18.760800057855796L241.64449277605328,81.48154837550167L241.974608203343,84.15947739172837L242.22219477381023,43.744241299199956L242.46978134427752,51.040552178868076L242.63483905792236,-3.9028873416626033L242.7998967715672,22.27603245374039L243.13001219885692,89.33243131106744L243.54265648296902,49.38579906445772L243.62518533979144,65.41281775513727L243.70771419661386,114.88061237305448L243.8727719102587,22.738468176970038L243.9553007670811,103.80061119515166L244.120358480726,72.44069964553043L244.28541619437084,106.15155260732404L244.36794505119323,60.42565925642305L244.45047390801565,37.517791299951085L245.11070476259502,34.976004316702216L245.27576247623986,23.9651150259921L245.52334904670715,98.59631550239878L245.60587790352957,48.17650006049868L245.688406760352,23.84441257512035L245.77093561717442,79.87706546100725L245.93599333081926,123.25571827334932L246.1010510444641,-49.23515808808388L246.3486376149314,41.54067946852956L246.43116647175378,5.537116027825117L246.7612818990435,41.51300001796237L246.84381075586592,112.97386253372052L246.92633961268834,32.533562659514175L247.17392618315563,6.897476211516177L247.83415703773497,53.50836024061491L249.31967646053857,16.5381941483829L249.40220531736102,20.089837743516426L249.81484960147313,57.27798914665685L249.89737845829555,-13.266483091339458L250.06243617194042,50.53709843975611L250.22749388558526,5.588754779962688L250.31002274240765,-3.415586373842617L250.55760931287494,-39.68447546709415L250.8877247401646,30.369765944804886L250.97025359698705,2.2085271694351145L251.1353113106319,54.32288011709005L251.30036902427673,76.28802762207124L251.38289788109915,9.875445845799343L251.79554216521126,6.5279092855238465L251.87807102203368,29.737244238424122L252.12565759250097,84.19147452817792L252.20818644932336,37.52064405669477L252.53830187661308,28.54334626580435L252.6208307334355,-55.69318254354054L252.70335959025792,-7.453856298377011L253.19853273119244,19.3924158212166L253.36359044483729,41.85741256861334L253.44611930165973,43.975777204640934L253.52864815848213,38.04965695419957L254.60152329717366,7.157732438228148L254.68405215399605,-28.116662523711202L254.84910986764092,-20.13272161651214L255.261754151753,18.016326924668405L255.67439843586513,66.48051979261537L255.83945614950997,49.867567997240926L256.3346292904445,17.320909642242533L256.49968700408937,40.299441154271165L256.6647447177342,114.22878637019528L256.82980243137905,11.551883766538447L256.9123312882015,30.687983249410703L257.0773890018463,132.08973250171096L257.4900332859584,-12.636968344769619L257.57256214278084,67.79267224241465L257.65509099960326,73.48567600597596L257.7376198564257,-8.941800244814806L257.98520642689294,39.34106909145686L258.0677352837154,18.751914106106856L258.3153218541826,21.97094168523225L258.39785071100505,36.87854248476256L258.4803795678275,75.32005641832208L258.5629084246499,49.56683346538193L258.8930238519396,26.220180681116215L258.97555270876205,-32.01294997409653L259.38819699287416,9.508114864281811L259.553254706519,26.06586196158904L259.9658989906311,20.501733411462496L260.0484278474535,75.22271573213519L260.21348556109837,71.68656954525795L260.3785432747432,-10.256092262171867L260.46107213156563,9.658308651760661L260.62612984521047,46.87188428561009L260.7911875588553,-20.416551637126386L261.2038318429674,-4.955361826252035L261.4514184134347,48.497415918780966L261.6164761270795,28.549302359275984L261.699004983902,53.80946100475857L262.0291204111917,-5.812345372364743L262.4417646953038,64.51227184253301L263.01946669306074,-4.584040840370014L263.10199554988316,5.959478228959209L263.51463983399526,-3.4158369538268643L263.6796975476401,38.41590851424653L264.0923418317522,54.25576323207961L264.1748706885747,33.40820245682435L264.25739954539705,60.57118840111831L264.3399284022195,24.53466405479412L265.0826881136213,-10.405881266599248L265.4953323977334,39.29983904635712L265.7429189682007,45.25020772911988L265.8254478250231,30.25047059692159L266.5682075364249,16.906662377521254L266.73326525006973,-0.9673235508667758L266.980851820537,33.66506621605731L267.14590953418184,-70.16124677532433L267.6410826751164,40.5087718180315L268.21878467287337,4.981715130441149L268.3838423865182,6.830455703422745L268.46637124334063,30.569902250681814L268.6314289569855,-6.780258749963704L268.87901552745274,30.18967603766745L269.2091309547424,-46.190611279525534L269.4567175252097,39.243516376052554L269.5392463820321,2.340987604182895L269.70430409567695,57.06763688757615L269.8693618093218,62.30119261233533L269.95189066614427,64.18247003250178L270.4470638070788,25.68652241621121L270.5295926639012,56.810175591457664L270.69465037754605,28.695698896224396L270.8597080911909,-33.08049780850735L271.10729466165816,20.133014602339912L271.6849966594151,35.171861487463595L272.0151120867048,60.26923952010492L272.0976409435272,91.3398853909922L272.3452275139945,87.36038611045461" fill="none"></path></g></g></g></g></g></g><g transform="translate(41, 177)" clip-path="url(#clip_1)"><clipPath id="clip_1"><rect width="288" height="22"></rect></clipPath><g><g><line x1="0" y1="0" x2="0" y2="5" style="visibility: inherit;" fill="rgb(0, 0, 0)" stroke="rgb(204, 204, 204)" stroke-width="1px"></line><line x1="41.264428411211284" y1="0" x2="41.264428411211284" y2="5" style="visibility: inherit;" fill="rgb(0, 0, 0)" stroke="rgb(204, 204, 204)" stroke-width="1px"></line><line x1="82.52885682242257" y1="0" x2="82.52885682242257" y2="5" style="visibility: inherit;" fill="rgb(0, 0, 0)" stroke="rgb(204, 204, 204)" stroke-width="1px"></line><line x1="123.79328523363385" y1="0" x2="123.79328523363385" y2="5" style="visibility: inherit;" fill="rgb(0, 0, 0)" stroke="rgb(204, 204, 204)" stroke-width="1px"></line><line x1="165.05771364484514" y1="0" x2="165.05771364484514" y2="5" style="visibility: inherit;" fill="rgb(0, 0, 0)" stroke="rgb(204, 204, 204)" stroke-width="1px"></line><line x1="206.32214205605644" y1="0" x2="206.32214205605644" y2="5" style="visibility: inherit;" fill="rgb(0, 0, 0)" stroke="rgb(204, 204, 204)" stroke-width="1px"></line><line x1="247.5865704672677" y1="0" x2="247.5865704672677" y2="5" style="visibility: inherit;" fill="rgb(0, 0, 0)" stroke="rgb(204, 204, 204)" stroke-width="1px"></line><line x1="288.850998878479" y1="0" x2="288.850998878479" y2="5" style="visibility: inherit;" fill="rgb(0, 0, 0)" stroke="rgb(204, 204, 204)" stroke-width="1px"></line></g><g transform="translate(0, 8)"><text style="text-anchor: middle; visibility: hidden; font-family: Roboto, sans-serif; font-size: 12px; font-weight: 200;" x="0" y="0" dx="0em" dy="0.95em" fill="rgb(50, 49, 63)" stroke="none" stroke-width="1px">-500</text><text style="text-anchor: middle; visibility: inherit; font-family: Roboto, sans-serif; font-size: 12px; font-weight: 200;" x="41.264428411211284" y="0" dx="0em" dy="0.95em" fill="rgb(50, 49, 63)" stroke="none" stroke-width="1px">0</text><text style="text-anchor: middle; visibility: inherit; font-family: Roboto, sans-serif; font-size: 12px; font-weight: 200;" x="82.52885682242257" y="0" dx="0em" dy="0.95em" fill="rgb(50, 49, 63)" stroke="none" stroke-width="1px">500</text><text style="text-anchor: middle; visibility: inherit; font-family: Roboto, sans-serif; font-size: 12px; font-weight: 200;" x="123.79328523363385" y="0" dx="0em" dy="0.95em" fill="rgb(50, 49, 63)" stroke="none" stroke-width="1px">1k</text><text style="text-anchor: middle; visibility: inherit; font-family: Roboto, sans-serif; font-size: 12px; font-weight: 200;" x="165.05771364484514" y="0" dx="0em" dy="0.95em" fill="rgb(50, 49, 63)" stroke="none" stroke-width="1px">1.5k</text><text style="text-anchor: middle; visibility: inherit; font-family: Roboto, sans-serif; font-size: 12px; font-weight: 200;" x="206.32214205605644" y="0" dx="0em" dy="0.95em" fill="rgb(50, 49, 63)" stroke="none" stroke-width="1px">2k</text><text style="text-anchor: middle; visibility: inherit; font-family: Roboto, sans-serif; font-size: 12px; font-weight: 200;" x="247.5865704672677" y="0" dx="0em" dy="0.95em" fill="rgb(50, 49, 63)" stroke="none" stroke-width="1px">2.5k</text><text style="text-anchor: middle; visibility: hidden; font-family: Roboto, sans-serif; font-size: 12px; font-weight: 200;" x="288.850998878479" y="0" dx="0em" dy="0.95em" fill="rgb(50, 49, 63)" stroke="none" stroke-width="1px">3k</text></g><line x1="0" y1="0" x2="288.850998878479" y2="0" fill="rgb(0, 0, 0)" stroke="rgb(204, 204, 204)" stroke-width="1px"></line></g></g></g></g></svg>