<svg viewBox="0 0 330 200" xmlns="http://www.w3.org/2000/svg"><g><g><g><g><g><line x1="51.53200149536133" y1="177.86299896240234" x2="46.53200149536133" y2="177.86299896240234" style="visibility: inherit;" fill="rgb(0, 0, 0)" stroke="rgb(204, 204, 204)" stroke-width="1px"></line><line x1="51.53200149536133" y1="158.1004435221354" x2="46.53200149536133" y2="158.1004435221354" style="visibility: inherit;" fill="rgb(0, 0, 0)" stroke="rgb(204, 204, 204)" stroke-width="1px"></line><line x1="51.53200149536133" y1="138.3378880818685" x2="46.53200149536133" y2="138.3378880818685" style="visibility: inherit;" fill="rgb(0, 0, 0)" stroke="rgb(204, 204, 204)" stroke-width="1px"></line><line x1="51.53200149536133" y1="118.57533264160158" x2="46.53200149536133" y2="118.57533264160158" style="visibility: inherit;" fill="rgb(0, 0, 0)" stroke="rgb(204, 204, 204)" stroke-width="1px"></line><line x1="51.53200149536133" y1="98.81277720133464" x2="46.53200149536133" y2="98.81277720133464" style="visibility: inherit;" fill="rgb(0, 0, 0)" stroke="rgb(204, 204, 204)" stroke-width="1px"></line><line x1="51.53200149536133" y1="79.0502217610677" x2="46.53200149536133" y2="79.0502217610677" style="visibility: inherit;" fill="rgb(0, 0, 0)" stroke="rgb(204, 204, 204)" stroke-width="1px"></line><line x1="51.53200149536133" y1="59.28766632080079" x2="46.53200149536133" y2="59.28766632080079" style="visibility: inherit;" fill="rgb(0, 0, 0)" stroke="rgb(204, 204, 204)" stroke-width="1px"></line><line x1="51.53200149536133" y1="39.52511088053387" x2="46.53200149536133" y2="39.52511088053387" style="visibility: inherit;" fill="rgb(0, 0, 0)" stroke="rgb(204, 204, 204)" stroke-width="1px"></line><line x1="51.53200149536133" y1="19.762555440266915" x2="46.53200149536133" y2="19.762555440266915" style="visibility: inherit;" fill="rgb(0, 0, 0)" stroke="rgb(204, 204, 204)" stroke-width="1px"></line><line x1="51.53200149536133" y1="0" x2="46.53200149536133" y2="0" style="visibility: inherit;" fill="rgb(0, 0, 0)" stroke="rgb(204, 204, 204)" stroke-width="1px"></line></g><g transform="translate(41.53200149536133, 0)"><text style="text-anchor: end; visibility: hidden; font-family: Roboto, sans-serif; font-size: 12px; font-weight: 200;" x="0" y="177.86299896240234" dx="0em" dy="0.3em" fill="rgb(50, 49, 63)" stroke="none" stroke-width="1px">0</text><text style="text-anchor: end; visibility: inherit; font-family: Roboto, sans-serif; font-size: 12px; font-weight: 200;" x="0" y="158.1004435221354" dx="0em" dy="0.3em" fill="rgb(50, 49, 63)" stroke="none" stroke-width="1px">0.05</text><text style="text-anchor: end; visibility: hidden; font-family: Roboto, sans-serif; font-size: 12px; font-weight: 200;" x="0" y="138.3378880818685" dx="0em" dy="0.3em" fill="rgb(50, 49, 63)" stroke="none" stroke-width="1px">0.1</text><text style="text-anchor: end; visibility: inherit; font-family: Roboto, sans-serif; font-size: 12px; font-weight: 200;" x="0" y="118.57533264160158" dx="0em" dy="0.3em" fill="rgb(50, 49, 63)" stroke="none" stroke-width="1px">0.15</text><text style="text-anchor: end; visibility: hidden; font-family: Roboto, sans-serif; font-size: 12px; font-weight: 200;" x="0" y="98.81277720133464" dx="0em" dy="0.3em" fill="rgb(50, 49, 63)" stroke="none" stroke-width="1px">0.2</text><text style="text-anchor: end; visibility: inherit; font-family: Roboto, sans-serif; font-size: 12px; font-weight: 200;" x="0" y="79.0502217610677" dx="0em" dy="0.3em" fill="rgb(50, 49, 63)" stroke="none" stroke-width="1px">0.25</text><text style="text-anchor: end; visibility: hidden; font-family: Roboto, sans-serif; font-size: 12px; font-weight: 200;" x="0" y="59.28766632080079" dx="0em" dy="0.3em" fill="rgb(50, 49, 63)" stroke="none" stroke-width="1px">0.3</text><text style="text-anchor: end; visibility: inherit; font-family: Roboto, sans-serif; font-size: 12px; font-weight: 200;" x="0" y="39.52511088053387" dx="0em" dy="0.3em" fill="rgb(50, 49, 63)" stroke="none" stroke-width="1px">0.35</text><text style="text-anchor: end; visibility: hidden; font-family: Roboto, sans-serif; font-size: 12px; font-weight: 200;" x="0" y="19.762555440266915" dx="0em" dy="0.3em" fill="rgb(50, 49, 63)" stroke="none" stroke-width="1px">0.4</text><text style="text-anchor: end; visibility: hidden; font-family: Roboto, sans-serif; font-size: 12px; font-weight: 200;" x="0" y="0" dx="0em" dy="0.3em" fill="rgb(50, 49, 63)" stroke="none" stroke-width="1px">0.45</text></g><line x1="51.53200149536133" y1="0" x2="51.53200149536133" y2="177.86299896240234" fill="rgb(0, 0, 0)" stroke="rgb(204, 204, 204)" stroke-width="1px"></line></g></g><g transform="translate(51, 0)" clip-path="url(#clip_0)"><clipPath id="clip_0"><rect width="278" height="177"></rect></clipPath><g><g><g><line x1="0" y1="0" x2="0" y2="177.86299896240234" fill="rgb(0, 0, 0)" stroke="rgb(60, 60, 60)" stroke-width="1px" opacity="0.25"></line><line x1="39.78114264351981" y1="0" x2="39.78114264351981" y2="177.86299896240234" fill="rgb(0, 0, 0)" stroke="rgb(60, 60, 60)" stroke-width="1px" opacity="0.25"></line><line x1="79.56228528703961" y1="0" x2="79.56228528703961" y2="177.86299896240234" fill="rgb(0, 0, 0)" stroke="rgb(60, 60, 60)" stroke-width="1px" opacity="0.25"></line><line x1="119.34342793055943" y1="0" x2="119.34342793055943" y2="177.86299896240234" fill="rgb(0, 0, 0)" stroke="rgb(60, 60, 60)" stroke-width="1px" opacity="0.25"></line><line x1="159.12457057407923" y1="0" x2="159.12457057407923" y2="177.86299896240234" fill="rgb(0, 0, 0)" stroke="rgb(60, 60, 60)" stroke-width="1px" opacity="0.25"></line><line x1="198.90571321759904" y1="0" x2="198.90571321759904" y2="177.86299896240234" fill="rgb(0, 0, 0)" stroke="rgb(60, 60, 60)" stroke-width="1px" opacity="0.25"></line><line x1="238.68685586111886" y1="0" x2="238.68685586111886" y2="177.86299896240234" fill="rgb(0, 0, 0)" stroke="rgb(60, 60, 60)" stroke-width="1px" opacity="0.25"></line><line x1="278.4679985046387" y1="0" x2="278.4679985046387" y2="177.86299896240234" fill="rgb(0, 0, 0)" stroke="rgb(60, 60, 60)" stroke-width="1px" opacity="0.25"></line></g><g><line x1="0" y1="177.86299896240234" x2="278.4679985046387" y2="177.86299896240234" fill="rgb(0, 0, 0)" stroke="rgb(60, 60, 60)" stroke-width="1px" opacity="0.25"></line><line x1="0" y1="158.1004435221354" x2="278.4679985046387" y2="158.1004435221354" fill="rgb(0, 0, 0)" stroke="rgb(60, 60, 60)" stroke-width="1px" opacity="0.25"></line><line x1="0" y1="138.3378880818685" x2="278.4679985046387" y2="138.3378880818685" fill="rgb(0, 0, 0)" stroke="rgb(60, 60, 60)" stroke-width="1px" opacity="0.25"></line><line x1="0" y1="118.57533264160158" x2="278.4679985046387" y2="118.57533264160158" fill="rgb(0, 0, 0)" stroke="rgb(60, 60, 60)" stroke-width="1px" opacity="0.25"></line><line x1="0" y1="98.81277720133464" x2="278.4679985046387" y2="98.81277720133464" fill="rgb(0, 0, 0)" stroke="rgb(60, 60, 60)" stroke-width="1px" opacity="0.25"></line><line x1="0" y1="79.0502217610677" x2="278.4679985046387" y2="79.0502217610677" fill="rgb(0, 0, 0)" stroke="rgb(60, 60, 60)" stroke-width="1px" opacity="0.25"></line><line x1="0" y1="59.28766632080079" x2="278.4679985046387" y2="59.28766632080079" fill="rgb(0, 0, 0)" stroke="rgb(60, 60, 60)" stroke-width="1px" opacity="0.25"></line><line x1="0" y1="39.52511088053387" x2="278.4679985046387" y2="39.52511088053387" fill="rgb(0, 0, 0)" stroke="rgb(60, 60, 60)" stroke-width="1px" opacity="0.25"></line><line x1="0" y1="19.762555440266915" x2="278.4679985046387" y2="19.762555440266915" fill="rgb(0, 0, 0)" stroke="rgb(60, 60, 60)" stroke-width="1px" opacity="0.25"></line><line x1="0" y1="0" x2="278.4679985046387" y2="0" fill="rgb(0, 0, 0)" stroke="rgb(60, 60, 60)" stroke-width="1px" opacity="0.25"></line></g></g></g><g><g><line x1="0" y1="177.86299896240234" x2="278.4679985046387" y2="177.86299896240234" fill="rgb(0, 0, 0)" stroke="rgb(153, 153, 153)" stroke-width="1.5px"></line></g></g><g><g><line x1="39.78114264351981" y1="0" x2="39.78114264351981" y2="177.86299896240234" fill="rgb(0, 0, 0)" stroke="rgb(153, 153, 153)" stroke-width="1.5px"></line></g></g><g><g><g><g><g><path style="fill: none;" stroke="rgb(255, 112, 67)" stroke-width="2px" d="M40.25851635524205,-47.1022211551179L40.81545235225133,33.401327207297825L41.213263778686525,67.335272044597L41.3723883492606,97.53765014027677L41.61107520512172,110.566691055339L41.7701997756958,76.69928017184857L41.84976206098284,56.077500535990055L42.00888663155692,68.2218656374772L42.168011202131005,41.1973632316007L42.406698057992116,78.88256821359772L42.565822628566195,53.12908455898411L43.12275862557547,52.96448566868707L43.44100776672363,61.18709651884526L43.52057005201067,88.11895097855127L43.600132337297715,95.14382887852535L43.83881919315883,105.17559710559664L44.55487976074219,120.33573651597112L44.63444204602923,122.3270814568771L44.71400433131626,66.44750859751055L44.952691187177386,86.62183966856514L45.191378043038505,96.94304126682972L45.50962718418666,110.40155459720627L45.82787632533482,123.23250313092498L45.90743861062187,129.61782547074958L45.9870008959089,108.90892875581916L46.14612546648298,95.78699298427156L46.30525003705706,110.51156989441944L46.3848123223441,121.81285176046431L46.54393689291818,128.11726384638692L46.623499178205215,125.50080867789414L46.7826237487793,119.77220853241248L46.94174831935337,103.8697020281061L47.498684316362656,113.50582959910876L47.737371172223774,121.04421282340155L47.81693345751081,126.37377473386579L47.97605802808489,121.66728284480055L48.29430716923305,124.56542730985699L48.69211859566825,100.15959658283414L48.771680880955294,86.84341050786928L49.72642830439976,94.27685493933748L49.8059905896868,103.29350486747839L50.12423973083496,73.45308613657556L50.36292658669608,97.0027826499267L50.52205115727016,106.70374132868677L50.681175727844234,118.61653319324728L51.3972362954276,79.62179277057567L51.87461000714983,58.46202638528894L52.27242143358503,58.07766662385615L52.35198371887207,56.38969385561835L52.59067057473319,77.03235882960354L52.74979514530727,28.86284679576185L52.908919715881346,65.91903304780654L53.38629342760359,83.91699236052902L53.46585571289063,63.553454564734196L54.18191628047398,87.56813082350084L54.341040851048064,102.47547616595388L54.500165421622135,46.842841957227996L54.738852277483254,-65.78474118310189L55.454912845066616,7.8962581857276275L55.693599700927734,57.690102004240785L55.773161986214774,69.12058374386541L55.93228655678885,66.30789035712068L56.17097341264997,87.21141496407726L56.72790940965925,117.0814361204982L56.88703398023333,98.23479786042164L56.966596265520366,-52.65029442996364L57.28484540666852,13.957802719566528L57.36440769195556,-47.64514138761696L57.44396997724261,21.747331622840008L57.52353226252965,69.95525352743634L57.76221911839077,31.992024654900924L57.84178140367781,43.41774545380953L58.160030544825965,51.25527370952002L58.239592830113,20.302302524081274L58.319155115400044,-127.14193167367483L58.71696654183524,-41.721807920850736L58.87609111240932,21.75003313712915L58.95565339769636,-22.53786674560416L59.27390253884452,-38.14917673332141L59.671713965279714,33.84048905377495L59.751276250566754,-16.603121692131623L59.91040082114083,25.101073089600746L60.06952539171491,-9.695753760164497L60.14908767700195,36.44435695679891L60.22864996228899,63.327589032718166L60.46733681815011,88.3928894741732L60.626461388724195,-9.32905895488861L60.86514824458531,38.26419789429028L61.024272815159385,66.86136577190693L61.26295967102051,-114.81365344431616L61.6607710974557,-16.555632088464844L61.74033338274275,40.3234651351919L61.81989566802979,27.506486212303848L61.899457953316826,18.22934968950398L62.138144809177945,59.13283286795026L62.217707094464984,81.25989585313178L62.61551852090018,29.31621493102517L63.2520168031965,67.88018940137044L63.411141373770576,99.41485452796833L63.49070365905762,64.6305410651626L63.649828229631694,20.36422036530817L63.80895280020578,26.091700035986175L63.88851508549281,37.875702740713336L64.12720194135393,-30.70979348493667L64.20676422664097,39.2365115967836L64.28632651192801,81.78918548769586L64.44545108250209,96.63890391234958L64.92282479422433,124.71835187878685L65.00238707951137,140.10059191276574L65.0819493647984,37.84521547157706L65.47976079123362,50.515761927687976L65.63888536180768,17.492943070196265L65.71844764709472,29.346625802672968L65.8775722176688,35.0683761047708L66.67319507053921,68.21796190920881L66.83231964111327,104.72293304318889L67.0710064969744,125.49357545476587L67.30969335283552,139.50474068885015L67.4688179234096,143.29121363292398L67.70750477927072,154.1957026646638L67.8666293498448,161.0605356075797L68.02575392041888,163.8100396662683L68.18487849099296,154.24283550510398L68.42356534685408,146.1533117350125L68.50312763214112,142.0373931849922L68.6622522027152,147.45966611906545L69.21918819972447,65.44274726627819L69.29875048501151,101.9987677898178L69.37831277029855,103.31660731330803L69.45787505558559,112.14111221136342L70.25349790845598,105.62346955285662L70.49218476431712,106.30528367522089L70.57174704960416,119.07113338819096L70.8899961907523,118.43374911137559L71.2878076171875,128.44458557264466L71.44693218776158,129.5672818431332L71.60605675833565,137.38300484781658L71.84474361419677,139.46301038485322L72.08343047005789,142.42147578499967L72.56080418178013,146.68233256301215L72.64036646706717,142.831265959815L72.79949103764126,140.25803370180174L72.8790533229283,128.92296556041393L73.35642703465052,130.8731738343438L73.43598931993758,53.909585109405484L73.6746761757987,89.75172239722183L73.99292531694685,120.38982082491832L74.07248760223389,130.7463488991843L74.15204988752093,119.6114933206209L74.23161217280797,137.12445300091113L74.62942359924317,122.2266865480521L74.86811045510429,135.81466802739567L74.94767274039131,136.42615955318294L75.02723502567835,119.96473367441304L75.42504645211356,137.85120415312295L75.82285787854876,127.28906163163742L75.98198244912284,132.82688236444744L76.06154473440988,144.92577273414773L76.14110701969692,88.87921132675721L76.22066930498394,110.2681729173456L76.37979387555804,130.08344289254336L77.01629215785435,143.8734992303172L77.33454129900251,154.0459445823975L77.41410358428956,153.73982303026088L78.20972643715994,127.1782936761449L78.60753786359516,117.64079243086856L78.76666243416922,111.28560592239212L78.84622471945626,121.40369823591632L78.9257870047433,134.75137162971956L79.00534929003034,138.34659457269524L79.32359843117851,145.4105314582348L79.72140985761371,132.8853365308123L79.80097214290075,121.32063114469001L80.03965899876185,137.86357669089307L80.43747042519706,118.89887010377905L80.5170327104841,125.13904274461625L80.83528185163225,51.901528730968046L80.9148441369193,68.26690998500075L80.99440642220634,99.31720618177434L81.15353099278042,124.49316992552882L81.39221784864152,98.01829791176127L81.7104669897897,120.46953763695828L81.79002927507673,138.56766807181708L82.10827841622489,115.03299160383081L82.18784070151193,101.26245799024464L82.58565212794713,114.31867909804056L82.7447766985212,134.36525169226385L83.1425881249564,116.19374718071495L83.22215041024344,136.36426961401736L83.30171269553048,118.28246501282163L83.5403995513916,139.23028170867278L83.61996183667864,129.35751046286452L83.69952412196568,144.25816655458345L83.9382109778268,140.91202775863874L84.01777326311384,150.15006790949425L84.09733554840088,154.45180489042343L84.17689783368792,159.94659911363118L84.57470926012311,152.13017565585366L84.7338338306972,157.54062283256764L84.81339611598423,160.0340233885369L84.89295840127129,158.00754399982458L84.97252068655833,157.43679059885153L85.21120754241943,139.6840658826871L85.37033211299351,150.19229584679184L85.60901896885464,151.47237018686653L85.68858125414167,141.27007078730554L86.08639268057688,152.67662060281543L86.16595496586392,148.7385402629637L86.40464182172502,154.0466252623525L86.5637663922991,132.42558089842626L86.9615778187343,142.7461071668456L87.12070238930838,154.09660700438937L87.35938924516951,155.850361391682L87.51851381574357,152.45840741635627L87.59807610103061,155.39089995984014L87.67763838631765,138.77737411110562L87.7572006716047,123.7056234588337L87.91632524217879,132.41510094995746L87.99588752746583,146.851555157974L88.15501209803989,147.731826418413L88.31413666861397,138.30823765442733L88.39369895390102,124.21209634206635L88.47326123918806,141.27934629008143L88.71194809504918,120.05542971106185L88.9506349509103,133.7402017839577L89.3484463773455,142.66879217429943L89.66669551849365,129.76666398458326L89.7462578037807,139.15202767319892L89.90538237435477,121.73830676989571L90.14406923021589,105.99787443417553L90.46231837136405,108.57803460924391L90.54188065665109,125.23962280666363L90.70100522722517,138.4259810556548L90.7805675125122,134.37525538874777L90.86012979779925,130.90132055086858L90.93969208308629,143.09593890095135L91.25794122423446,138.32062120975553L91.33750350952148,148.53216531295854L91.49662808009556,153.31584486554482L91.5761903653826,152.27607186079877L91.89443950653077,130.1399133051697L92.53093778882707,127.05863284649084L92.84918692997523,117.78021943948664L92.92874921526229,124.0152170844171L93.16743607112339,111.06545943340613L93.24699835641043,85.82728563512532L93.32656064169747,113.50492218843922L93.48568521227155,132.1603312580884L93.5652474975586,130.90098944447587L93.72437206813268,101.66642440328444L93.88349663870675,93.93340309553363L93.96305892399378,109.13990789349847L94.12218349456788,25.56150241031363L94.28130806514196,25.198302133950996L94.51999492100306,62.06647835464836L94.7586817768642,87.43845163682707L95.07693091801234,102.72338793777264L95.15649320329938,114.68000960200624L95.71342920030865,123.89113222905688L95.87255377088275,116.33534629849598L95.95211605616979,55.58897603070047L96.34992748260497,87.21348162043422L96.66817662375314,83.75864240334067L96.82730119432722,29.450692041394888L97.14555033547538,67.29134158417133L97.54336176191059,60.272217569524074L97.94117318834577,-3.233335865952458L98.02073547363281,64.05959821743723L98.10029775891987,97.31099379190971L98.33898461478097,41.11255896823288L98.49810918535505,68.69715232949774L98.65723375592913,58.87740109168708L98.73679604121618,87.05261100397706L98.89592061179025,98.84655474611924L99.13460746765136,121.29113320621082L99.2141697529384,121.96805172197979L99.29373203822546,130.0489831870974L99.45285660879952,54.34528530379637L99.6119811793736,95.44630816589736L99.69154346466064,114.00068950534549L99.85066803523473,104.5714244984117L100.00979260580881,-22.307876842464754L100.32804174695696,-50.18006729729876L100.48716631753105,20.155833956389717L100.80541545867919,74.66650476239724L100.88497774396623,95.47607507315372L101.12366459982736,16.611818289114623L101.28278917040144,29.055197493054585L101.52147602626255,-7.085382336128173L101.68060059683664,25.25805661380266L101.83972516741072,51.213028728648254L102.07841202327182,70.03558827515329L102.31709887913296,61.47788616465635L102.39666116442,-24.169906633659153L102.7944725908552,26.38857098069006L103.19228401729038,-13.924204418537487L103.51053315843855,47.40397341539148L103.59009544372559,78.64016180928822L103.66965772901263,84.15883290003384L103.82878229958669,45.478709187211486L103.90834458487375,56.46665060659946L103.98790687016078,81.29503070972711L104.38571829659598,84.19083283561058L104.6244051524571,70.41087102134199L104.70396743774414,106.22621069668101L104.78352972303118,121.18958690422544L104.86309200831822,98.07089355175201L105.02221657889231,92.09507783048747L105.26090343475342,117.38376492235436L105.49959029061453,125.29028592279856L106.2156508581979,140.77018545469784L106.45433771405901,73.86203754323712L107.01127371106828,84.22871377823517L107.09083599635532,110.27980044669629L107.17039828164236,105.15754622694188L107.48864742279054,122.55170387749L107.6477719933646,134.82025930194334L107.80689656393868,134.92095969767408L107.88645884922573,70.07615734229694L108.20470799037388,108.08054812257606L108.68208170209613,126.83070702989731L108.84120627267019,118.14200118084906L109.07989312853132,105.75935128642307L109.15945541381836,104.31962208055977L109.39814226967948,90.15537550588687L109.6368291255406,87.465999348656L109.79595369611468,33.89095288361022L109.95507826668876,74.1239948601881L110.35288969312396,37.97142029618707L110.432451978411,70.19397940647787L110.67113883427211,61.844209871281286L110.98938797542027,96.28233458079464L111.14851254599435,121.07776604689457L111.46676168714251,136.19175495885264L111.54632397242955,146.11228607429535L111.78501082829067,132.64196276528773L111.94413539886476,44.27059198080665L112.02369768415178,71.00237589031269L112.2623845400129,53.696068250489404L112.34194682529994,72.17993204720419L112.58063368116107,69.61128808799155L112.6601959664481,58.82193381207598L112.73975825173514,84.54680963613598L113.21713196345739,103.0623606380155L113.61494338989257,119.80683651268457L113.77406796046667,-57.94295977220301L113.85363024575369,8.17029332866539L114.96750223977226,45.694504939250166L115.0470645250593,53.93495406153383L115.20618909563336,45.515789976806126L115.76312509264264,65.17372419705619L115.84268737792968,60.59923074951657L115.92224966321672,21.288607217735347L116.24049880436489,55.6370634887733L116.32006108965193,20.7187902547953L116.63831023080009,52.89117190842975L116.95655937194823,54.86209818610542L117.03612165723527,73.34787778816799L117.19524622780936,39.67232584962923L117.35437079838344,68.58678103808374L117.43393308367048,51.736102577720764L117.51349536895752,69.39769232452787L117.59305765424455,68.76921629617868L118.22955593654086,85.52953353130964L118.54780507768903,44.14924032645054L118.70692964826311,83.2495272886243L118.94561650412423,103.08948080303009L119.34342793055943,124.83912974825932L119.82080164228167,116.65733337740025L119.9003639275687,64.33492746284219L119.97992621285576,96.0616843546869L120.13905078342982,115.23267977347098L120.37773763929094,133.6483889453898L121.17336049216135,109.81271621316117L121.33248506273543,112.84449378182477L121.4916096333095,94.15272550385924L121.73029648917063,-5.16051300199075L121.96898334503175,52.240458618017456L122.12810791560581,72.68499648083994L122.20767020089285,96.7522618361028L122.60548162732806,89.55971112025996L122.68504391261509,78.0154214630778L122.92373076847622,109.27555827449541L123.00329305376326,67.36863120842015L123.0828553390503,86.9975775512116L123.3215421949114,28.265208644808506L123.40110448019844,75.8797931978688L123.71935362134661,85.70168500706657L123.87847819192068,45.04180761793299L124.35585190364293,59.088747821585436L124.514976474217,63.565092542148385L124.75366333007813,97.0075820178847L125.07191247122628,100.76631615753627L125.39016161237444,114.06937082025392L125.54928618294852,130.4707843063614L125.86753532409668,132.20905777047884L125.94709760938372,122.31584929858374L126.34490903581893,138.44922384522494L126.504033606393,145.47464218193093L127.45878102983748,147.15531240987647L127.77703017098563,156.0611361820695L127.85659245627267,157.22790222930084L127.9361547415597,156.1147038923115L128.17484159742082,143.92455945996667L128.3339661679949,144.66235772088822L128.57265302385602,121.71931654609351L128.89090216500418,130.92772098058424L129.05002673557826,135.3963563359622L129.1295890208653,143.72529208249722L129.44783816201345,11.077972005127501L129.5274004473005,12.005658646882052L129.76608730316164,69.9264302730108L130.08433644430977,-24.056967837991923L130.1638987295968,47.844177283757205L130.32302330017092,57.64257846403407L130.48214787074497,69.60563029905522L130.72083472660609,104.37674350747571L131.11864615304128,112.39598659783442L131.27777072361536,119.73615638305783L131.43689529418944,103.40086889597238L131.6755821500506,129.1827379872933L132.07339357648578,132.57875648483673L132.15295586177282,136.29211223281214L132.3120804323469,142.3458654428974L132.47120500292095,135.80856236890787L132.550767288208,143.35079467143754L132.63032957349506,130.96623266142407L132.86901642935618,134.26650853498975L133.26682785579138,135.3456476540508L133.42595242636546,146.52734869792718L133.5055147116525,130.02517103074766L133.82376385280065,-8.609997691895664L134.22157527923582,52.24073013192343L134.539824420384,59.70497335336299L134.85807356153214,-6.0969997065208785L134.9376358468192,39.967699359364666L135.3354472732544,78.78713747816428L135.49457184382848,109.60274429775582L135.65369641440256,128.03499596391399L135.81282098497664,128.28800461484022L136.05150784083776,-27.94949550119945L136.1310701261248,-6.287743634644006L136.44931926727295,52.2604359678889L136.9266929789952,78.25358783040517L137.08581754956927,112.29081849247808L137.24494212014335,126.5767362631068L137.40406669071743,121.53181416547675L137.48362897600447,136.68551877420404L137.88144040243967,131.21196508845458L138.27925182887486,143.7775711012208L138.51793868473598,155.45142773554917L138.67706325531006,69.88208517395493L138.83618782588414,80.99024840380318L138.91575011117118,116.38465385885549L139.07487468174526,136.4195950384117L139.23399925231934,143.8171263133699L139.47268610818045,151.68940878124963L139.63181067875453,151.01820899515056L139.71137296404157,150.40054214843434L139.7909352493286,127.89021160532432L139.87049753461568,139.09363088714022L140.42743353162496,146.92857552301152L140.586558102199,133.98217855801582L140.82524495806013,148.24572830126388L140.90480724334716,144.46285921858248L140.98436952863423,151.74737632340214L141.46174324035644,151.23704972821875L141.85955466679164,156.2820742534007L142.09824152265276,160.77529191552205L142.1778038079398,138.7506421111164L142.81430209023614,150.94881698454157L142.89386437552315,135.50111737415864L142.97342666081022,131.1030278293101L143.05298894609723,143.63349584361092L143.2121135166713,135.00698622560114L143.6099249431065,138.50591781741386L143.76904951368059,135.25011019088498L143.84861179896762,122.60199674910604L144.48511008126397,129.90078138928487L144.56467236655098,131.44353119222322L144.88292150769914,138.6607346444491L145.04204607827324,138.19610784277907L145.20117064884732,122.96253647100923L145.28073293413433,97.0728252168215L145.4398575047084,98.18376085325566L145.7581066458566,122.90942006842083L145.8376689311436,115.48679759585194L145.9967935017177,97.59556854870881L146.1559180722918,117.28654557892345L146.2354803575788,110.0478117332312L146.3946049281529,122.18710790462158L146.47416721343996,104.55467286982048L146.55372949872697,107.63589623460294L146.63329178401403,118.70766209013324L146.95154092516216,121.39304901748159L147.03110321044923,89.38266681212666L147.26979006631032,84.29243812786099L147.3493523515974,96.69765742504337L147.42891463688443,118.04075307265376L147.7471637780326,74.44847124800724L147.8267260633196,45.88215090406826L147.9858506338937,92.33659992734846L148.38366206032887,111.39405803529394L149.02016034262522,130.45284441226698L149.25884719848634,65.72715537050927L149.41797176906041,68.1295541680371L149.5770963396345,99.87804928733607L149.65665862492153,115.99716761046079L149.9749077660697,122.00231536604564L150.13403233664377,96.66048276843307L150.3727191925049,104.770610694056L150.45228147779193,122.10478405311723L150.61140604836598,128.8919403302406L151.16834204537525,114.47209529630382L151.32746661594936,124.92942515616127L151.4070289012364,130.00082465552393L151.72527804238456,123.72585781416663L151.8048403276716,99.68921891509784L152.04352718353272,98.62134220406747L152.12308946881976,102.19919660517554L152.2026517541068,101.95851444274655L152.36177632468087,117.5642691482663L152.4413386099679,122.57516028135352L152.600463180542,115.57001220470816L152.75958775111607,120.17374773125385L152.8391500364031,134.93615660399735L153.15739917755127,138.01268362226406L153.3960860334124,144.2675088769526L153.71433517456055,152.23454656817708L153.79389745984759,158.36615624728668L154.0325843157087,145.7133677980467L154.19170888628278,149.50327293314746L154.35083345685686,153.49781249975575L154.4303957421439,137.3265239619903L154.50995802743094,138.05323245702752L155.2260185950143,148.66341241016883L155.3851431655884,136.9137122398714L155.6238300214495,134.51819260725188L155.78295459202357,128.89643003632057L155.94207916259768,92.20386442864236L156.49901515960696,101.59608818129739L156.57857744489397,116.9146201022142L156.8172643007551,124.91324688593649L156.89682658604212,81.11324136568537L156.97638887132916,104.93787538336437L157.3742002977644,124.4280948763927L157.61288715362548,136.66425688572502L157.7720117241996,119.89310096169903L158.01069858006068,125.46015530591784L158.09026086534772,109.95037795346781L158.16982315063476,116.62716087013399L158.48807229178294,101.53040644580153L158.56763457706995,73.37475495913962L158.72675914764403,108.2615669995268L158.88588371821814,120.215397161288L158.96544600350515,99.06300540804762L159.2836951446533,124.13939603986216L159.36325742994035,136.88320918025798L159.6815065710885,80.72415483421146L159.76106885637557,107.72471370222173L159.92019342694965,120.9705302485351L160.0793179975237,96.87160503115993L160.47712942395893,98.20808735302803L160.55669170924597,63.776817826095254L160.71581627982005,33.83044606334398L160.95450313568114,75.47956481147287L161.5114391326904,106.90605816513602L161.6705637032645,71.9130846512072L161.98881284441268,64.85605889130125L162.0683751296997,94.29987877188151L162.38662427084788,116.21261294506729L162.4661865561349,68.2332207095727L162.94356026785715,42.914439906666566L163.18224712371824,-5.049520356067602L163.2618094090053,6.343747991915178L163.34137169429232,71.67630020094941L163.50049626486643,-54.48935140370083L164.2961191177368,-0.7459108352118106L164.37568140302386,13.458792108802118L164.53480597359794,59.67917425425077L164.77349282945906,82.62868875436052L164.8530551147461,27.963993299098995L165.17130425589426,-16.66968236252929L165.2508665411813,50.73755216337127L165.8873648234776,63.61821240613816L166.2851762499128,99.17727739310827L166.76254996163505,122.09016428953599L166.84211224692206,134.52034922612057L166.92167453220912,146.54644002939145L167.31948595864432,149.10625682996863L167.63773509979248,138.05986314951696L168.11510881151474,131.30553031012317L168.43335795266287,124.37134517103199L168.75160709381103,117.96175065477783L168.9107316643851,93.2657521781096L169.0698562349592,117.03335494290657L169.3085430908203,133.9354295999167L169.7063545172555,138.95207780706778L170.1041659436907,124.50290011823685L170.66110194069998,133.87480177266207L171.13847565242222,145.24973885768162L171.2976002229963,151.1977724131468L171.4567247935704,139.73103532673636L171.61584936414448,143.75623998595245L171.6954116494315,147.17831662771164L171.9340985052926,149.8442917129566L172.65015907287597,137.02129247820352L173.5253442110334,99.96678003511447L173.60490649632047,122.17967894523505L173.84359335218159,133.2309059343823L173.9231556374686,145.10819144212473L174.24140477861675,144.2755672376308L174.32096706390382,86.33997872794926L174.48009163447787,105.02912523102601L174.8779030609131,125.56424856813182L175.11658991677422,120.55646499152007L175.5144013432094,121.8489650806624L175.59396362849645,116.35476588630222L175.6735259137835,125.5095396578917L175.83265048435757,120.13652847958087L175.91221276964458,137.94752672770818L176.31002419607978,140.0374681981953L176.38958648136685,137.63303737904957L176.62827333722794,137.06160811995L176.707835622515,145.69306388351703L177.1056470489502,140.19723333253427L177.5830207606724,118.70427690629218L177.66258304595948,-56.48735081760943L178.06039447239468,32.477617246646176L178.37864361354283,86.38059825862211L178.77645503997803,119.42143217696054L179.41295332227432,133.5281367930403L180.68594988686698,140.29789533903573L180.76551217215402,139.74789824640493L181.16332359858922,146.4590357419332L182.19763330732073,149.82338725952158L182.27719559260777,153.40801534362026L182.67500701904297,155.27412353365895L182.83413158961704,158.36280660995968L182.99325616019112,158.05019866353828L183.0728184454782,151.75754883152734L183.1523807307652,159.0024083848571L183.47062987191336,162.79585836087918L183.62975444248747,157.3766365199294L183.78887901306155,153.19435758163718L183.9480035836356,107.2094734646157L184.18669043949674,108.85383590276582L184.26625272478375,127.92730950716717L184.42537729535783,137.50031062512443L184.5845018659319,140.81576187151694L184.66406415121895,147.3843825274576L184.74362643650602,148.59292766742703L184.82318872179303,157.41319009827393L184.9823132923671,160.33533856054802L185.06187557765415,160.3551503774053L185.1414378629412,160.28844294837623L185.3801247188023,155.99326420116472L186.01662300109865,160.63881003353714L186.33487214224678,159.32805124810844L186.41443442753385,158.24808275321337L186.65312128339494,161.44757264545345L187.1304949951172,162.2531413886744L187.21005728040421,158.22551509397545L187.3691818509783,157.13263654367387L187.7669932774135,49.878366340574864L187.92611784798757,67.5768825618067L188.00568013327464,91.6533547959682L188.32392927442277,88.77321173661272L188.40349155970983,25.6787675382918L188.80130298614503,48.473072802375164L188.9604275567191,70.11574679213807L189.03998984200612,106.9680425169674L189.1991144125802,124.68843915641088L189.91517498016358,131.16079346737774L189.99473726545062,19.90050268780554L190.15386183602467,37.35912938889302L190.31298640659875,-3.975571011819083L190.5516732624599,35.20872819562215L190.63123554774694,67.24723357176379L191.3472961153303,84.3766024605049L191.82466982705253,81.12030696543151L192.3816058240618,2.1618998325045236L192.69985496520994,54.5078021879087L192.779417250497,-14.852424262817348L193.09766639164516,54.52073521474045L193.8137269592285,83.2679451610362L194.13197610037668,112.61511885033492L194.21153838566372,133.12759667866672L194.29110067095075,121.90263784791179L194.68891209738595,138.14506977120777L195.1662858091082,113.14056927844891L195.4049726649693,132.22972704371927L195.48453495025635,121.61478668113435L195.5640972355434,134.4051141413093L195.8027840914045,130.5774423480172L195.96190866197858,113.81009254940113L196.12103323255266,117.83464694350643L196.20059551783973,137.34563462864614L196.28015780312674,147.72612937129475L196.5984069442749,146.42716047749894L196.75753151484898,150.8920609207891L196.9962183707101,149.42249818230988L197.07578065599714,146.1697120108528L197.15534294128418,155.46699188123637L197.47359208243236,145.71739956868043L197.95096579415457,146.11610988080628L198.50790179116385,144.40398406240706L198.5874640764509,134.58045503326397L198.66702636173792,141.944453905695L199.06483778817312,150.5204428635142L199.1444000734602,151.1743804364923L199.30352464403427,158.51910857671564L199.94002292633056,9.41206555197265L200.09914749690464,70.72392123538364L200.25827206747874,107.87608004836073L200.33783435276575,118.89877218825309L200.5765212086269,128.33237017439734L201.13345720563618,135.40035820814057L201.3721440614973,146.64696330083828L201.53126863207137,144.2680279780119L201.69039320264545,74.75566322052256L202.08820462908065,111.22173591445642L202.48601605551582,69.78113776916624L202.5655783408029,107.46576907697667L202.64514062608993,132.28933395383237L202.96338976723808,144.53259437458863L203.0429520525251,140.0454143869926L203.52032576424736,125.69321569413246L203.67945033482144,141.86176466656556L203.8385749053955,52.96298063668618L204.07726176125664,83.91874913316792L204.15682404654365,96.26633153275509L204.23638633183072,124.14215468343372L204.31594861711775,137.72550249447306L204.55463547297884,142.6960329407237L204.71376004355292,152.07533071209193L205.11157146998812,148.60491205122955L205.35025832584927,156.40531087505846L205.50938289642335,158.2140738158122L205.82763203757148,162.7701685918381L205.90719432285854,164.9436931494996L206.30500574929374,147.20481069831442L206.6232548904419,124.02578853145688L206.86194174630302,112.93233512583592L206.94150403159003,132.92450505307323L207.1006286021641,111.01477554858411L207.4188777433123,129.03101740817812L207.49844002859933,141.1179611540984L207.65756459917338,82.28452166420294L207.73712688446045,113.45851713624882L208.21450059618266,119.18443698576631L208.29406288146973,137.4144023413252L208.4531874520438,129.03589848276758L208.61231202261789,145.33819834575877L208.850998878479,152.00791845183278L208.93056116376604,151.4204499584037L209.08968573434012,73.35331207427231L209.32837259020124,107.65045729778824L209.6466217313494,79.9954145443401L209.80574630192348,54.344425335205194L209.88530858721052,72.10087295350037L210.04443315778462,85.3080609696166L210.12399544307164,76.40567147473719L210.6809314400809,31.12092518056373L210.840056010655,61.20720587411372L211.0787428665161,91.49218846067498L211.2378674370902,119.73021040735124L211.31742972237726,123.54725886781442L211.39699200766427,111.9481265136033L211.87436571938653,97.8582458714889L212.6699885722569,17.659779152915092L212.82911314283098,48.12570050921987L213.22692456926617,81.59887950223148L213.38604913984025,111.90153621034477L213.70429828098844,41.82249590974199L213.78386056627545,73.8935315869513L213.86342285156252,98.96123403979813L214.02254742213657,103.48747975102823L214.18167199271065,94.69558876880468L214.26123427799772,82.74997966070612L214.57948341914584,108.16702167587343L215.05685713086808,128.72095397551843L215.2159817014422,114.04931345045881L215.37510627201627,123.2982882125945L215.69335541316443,137.91603253726683L216.40941598074775,125.8395488939204L216.48897826603482,134.41814484130174L216.56854055132183,149.27978145626687L216.88678969247,150.0120610472349L217.2846011189052,153.71503846875746L217.36416340419225,157.3951683578718L217.44372568947927,120.33809265490483L217.76197483062745,140.7080767412331L217.84153711591446,149.7949699072019L218.0802239717756,156.6231135860929L218.2393485423497,155.2517144463683L218.4780353982108,158.397741513244L218.875846824646,161.35125366065122L219.03497139522008,165.4349647304765L219.19409596579416,120.26161245795353L219.2736582510812,131.9408087858212L219.67146967751637,130.7153168811581L219.83059424809048,142.81028368144132L220.22840567452565,149.7263025219014L220.4670925303868,153.97096946920462L220.62621710096087,155.86633872654437L220.78534167153492,157.3023972048539L221.18315309797015,129.30324364538495L221.42183995383127,141.98106634624992L221.58096452440535,146.83382966652204L221.74008909497942,132.22793585569227L221.81965138026646,140.3272316523948L222.05833823612755,146.38574895436437L222.13790052141462,154.11791698420865L222.21746280670166,117.35782753644496L222.45614966256278,138.57804617723747L222.53571194784982,147.93609634969633L222.61527423313683,152.18847028570642L223.25177251543317,157.94003307352946L223.3313348007202,137.1977823964763L223.41089708600725,146.62087339749456L223.57002165658133,144.1129601137806L223.64958394186837,142.33309598834728L223.96783308301653,147.23808179618513L224.1269576535906,152.07189565674472L224.84301822117396,147.26980094713426L225.24082964760916,154.67932594302314L225.3203919328962,135.06991364883334L225.39995421818324,120.74994557809804L225.55907878875735,136.12321725938386L225.95689021519252,97.90671950392144L226.03645250047956,122.11701290478449L226.11601478576662,134.40483183502502L226.19557707105363,144.6672953122975L226.3547016416277,152.6968064520327L226.5138262122018,157.86215624078318L226.83207535334998,150.85925996393956L227.1503244944981,156.30170060144837L227.22988677978515,159.04512431388224L227.38901135035925,144.65866818684592L227.62769820622034,124.85263329896692L227.78682277679442,138.42782225639326L228.3437587738037,146.48172066150775L228.7415702002389,156.0722692149306L228.98025705610002,157.9630578990057L229.37806848253524,144.86827859782986L229.61675533839636,153.58432966162292L229.69631762368337,155.46193386031584L229.77587990897044,161.50971012394587L230.0941290501186,164.52543799205228L230.41237819126673,165.31550361115538L230.5715027618408,167.21944004893368L231.20800104413715,164.6687326599562L231.28756332942416,148.02799421657235L231.36712561471123,96.48186194244468L231.68537475585936,125.11051877679368L232.00362389700754,118.40773791595906L232.3218730381557,115.17936258121686L232.4014353234427,116.44793879827283L232.7196844645909,131.011230096283L232.7992467498779,146.2168669687047L232.87880903516498,151.98795938296314L232.958371320452,143.37385702063352L233.27662046160017,153.04820265656895L233.51530731746126,159.03555654821386L233.7539941733224,163.68491568508165L233.91311874389646,165.14205593108264L234.07224331447054,167.28828509601507L234.39049245561873,154.26973162307817L234.78830388205392,151.47971173298072L234.86786616734096,153.48647165044042L234.947428452628,151.23348544581708L235.10655302320208,153.23396399622604L235.1861153084891,132.1005964132432L235.3452398790632,138.595037642717L235.50436444963728,136.60967499783692L235.58392673492432,150.4523734655584L235.66348902021136,157.52171643844778L236.29998730250767,111.26839564417526L236.45911187308172,132.5007146286484L236.69779872894287,122.05517284513695L236.7773610142299,138.12006834619032L236.85692329951695,147.9260016253857L236.936485584804,151.06692243745462L237.09561015537807,112.1442339677827L237.25473472595215,132.4211645692647L237.49342158181327,126.48292961648042L237.5729838671003,137.52540395799548L237.89123300824846,135.85842881380177L237.9707952935355,107.72057942582668L238.05035757882254,130.5214395312868L238.2890444346837,138.7140504772502L238.92554271697998,112.84486173304106L240.3576638521467,117.03723615374018L240.43722613743373,133.94494847276815L240.83503756386895,124.76671836945773L240.91459984915596,129.01807990355152L241.07372441973007,136.46301293994864L241.23284899030415,130.03329654286938L241.31241127559116,143.6548302786443L241.55109813145228,135.4928052236811L241.86934727260044,147.0712280633316L241.9489095578875,155.78277978559515L242.10803412846155,136.37486089752508L242.26715869903563,129.3859013064046L242.3467209843227,135.0943983765195L242.74453241075787,146.16512766860748L242.8240946960449,128.0844107485851L243.06278155190606,125.85034369255703L243.14234383719307,133.5430195476028L243.46059297834125,145.78776848311338L243.54015526362826,155.08031426520432L243.61971754891533,143.2370186862001L244.09709126063754,153.85341778310988L244.25621583121162,153.92182222580527L244.3357781164987,152.13359283047743L244.4153404017857,129.8959976557081L245.44965011051724,143.25577588658496L245.52921239580425,150.11223997154445L245.68833696637836,157.56077554640464L246.08614839281353,159.05671542290315L246.48395981924872,142.33742189491264L246.6430843898228,153.32761034738965L247.12045810154507,151.5333133812424L247.27958267211915,125.53209876446951L247.43870724269323,101.06586535800713L247.5978318132673,126.78648573660209L247.67739409855434,139.4790965159674L247.83651866912842,85.39373900692505L248.23433009556362,111.59985387354297L248.31389238085066,103.63092099636886L248.3934546661377,125.59986527139763L248.4730169514247,129.7686372311499L248.71170380728586,133.08308192935547L248.7912660925729,140.18239970252694L249.029952948434,149.19084173168437L249.10951523372105,154.479368623635L249.1890775190081,138.3332753445582L249.26863980429513,136.76005291658439L249.58688894544326,145.7903060271342L249.66645123073033,153.2316059370131L250.06426265716553,157.53091003607207L250.2233872277396,156.2870149681635L250.6211986541748,162.01556903940846L250.70076093946184,136.22703528923412L250.85988551003595,149.1333325752973L251.01901008061,154.8360175749804L251.09857236589704,158.5004438456288L251.25769693647112,161.20208533011225L251.4168215070452,163.37627535753163L251.8146329334804,160.3805950721602L252.05331978934151,158.87979457320967L252.2124443599156,146.23145265122236L252.29200664520263,151.99962796112362L252.6102557863508,158.57388183039902L253.008067212786,136.7557151278477L253.56500320979526,129.85445212165837L253.6445654950823,144.11134288637493L254.0423769215175,153.2690441328358L254.20150149209158,144.74715041198152L254.59931291852678,143.45148480128893L254.67887520381382,151.3616251145266L254.75843748910086,145.70349626676074L254.8379997743879,145.46403070435497L255.55406034197125,153.54213824402228L255.95187176840645,156.33967029386034L256.19055862426757,160.8127628801424L256.27012090955463,152.58867639390766L256.98618147713796,154.11276521664232L257.14530604771204,151.84508165911151L257.3839929035732,140.65805047477087L257.54311747414727,152.30395661404125L258.0204911858695,155.93543911870378L258.57742718287875,159.11899137424246L258.73655175345283,161.04866180892247L258.8161140387399,162.38653106057882L258.975238609314,165.31890705383043L259.21392546517507,166.40441368434992L259.5321746063233,166.8945530765478L259.77086146218437,141.74081935869674L259.8504237474714,153.10338919940864L260.00954831804546,137.25382746386552L260.16867288861954,112.81541241959962L260.2482351739066,109.83716870433149L260.72560888562884,129.32544029229538L260.8051711709159,133.36581999260298L260.96429574148993,128.76447147242035L261.123420312064,144.5206165300573L261.36210716792516,150.6857130275784L261.91904316493446,150.5201179136909L262.23729230608257,155.49196847546284L262.31685459136963,133.94131117014558L262.5555414472307,117.02952637713489" fill="none"></path></g></g></g></g><g opacity="0.2"><g><g><g><path style="fill: none;" stroke="rgb(255, 112, 67)" stroke-width="2px" d="M40.25851635524205,-62.43520235956686L40.81545235225133,110.68473363521693L41.213263778686525,107.24159117326084L41.3723883492606,136.96987498199624L41.61107520512172,128.5905450955995L41.7701997756958,28.26834072988308L41.84976206098284,26.010747857823844L42.00888663155692,86.13244524069341L42.168011202131005,1.0691267024825202L42.406698057992116,135.0685736510376L42.565822628566195,14.639008397838246L43.12275862557547,52.71812477717685L43.44100776672363,73.50490384343357L43.52057005201067,128.4850752841759L43.600132337297715,105.67619124032596L43.83881919315883,120.21900433809334L44.55487976074219,143.07209647377886L44.63444204602923,125.3137955068772L44.71400433131626,-17.366743077240827L44.952691187177386,116.8822298668847L45.191378043038505,112.42450404069162L45.50962718418666,130.58905887790266L45.82787632533482,142.47877393668537L45.90743861062187,139.1957635963482L45.9870008959089,77.84567199740832L46.14612546648298,76.10412290238735L46.30525003705706,132.5984126539473L46.3848123223441,138.76476414945378L46.54393689291818,137.5738784909181L46.623499178205215,121.57612679279994L46.7826237487793,111.17930945398969L46.94174831935337,80.01594417008648L47.498684316362656,127.96002026539661L47.737371172223774,132.3517873358654L47.81693345751081,134.3681174621337L47.97605802808489,114.60754508401989L48.29430716923305,128.91264398053818L48.69211859566825,63.550850628235224L48.771680880955294,66.86913143992297L49.72642830439976,105.42702157163481L49.8059905896868,116.81847974884205L50.12423973083496,28.692458061761513L50.36292658669608,132.32732740975385L50.52205115727016,121.25517934430597L50.681175727844234,136.48572098823055L51.3972362954276,21.129682140216275L51.87461000714983,26.72237680854657L52.27242143358503,57.50112698171992L52.35198371887207,53.85773470329574L52.59067057473319,107.99635629033098L52.74979514530727,-43.39142125465027L52.908919715881346,121.50331242571187L53.38629342760359,110.91393132956561L53.46585571289063,33.008147871073874L54.18191628047398,123.59014521162817L54.341040851048064,124.83649417962502L54.500165421622135,-36.60610935584192L54.738852277483254,-234.72611589357376L55.454912845066616,118.41775723896293L55.693599700927734,132.3808677320069L55.773161986214774,86.26630635330184L55.93228655678885,62.08885027700369L56.17097341264997,118.56670187451179L56.72790940965925,161.88646785512933L56.88703398023333,69.96484047030694L56.966596265520366,-278.97793286554105L57.28484540666852,113.86994844386165L57.36440769195556,-140.04955754839222L57.44396997724261,125.83604113852546L57.52353226252965,142.2671363843308L57.76221911839077,-24.9528186539022L57.84178140367781,60.55632665217248L58.160030544825965,63.0115660930857L58.239592830113,-26.127154254076814L58.319155115400044,-348.30828297030894L58.71696654183524,86.40837770838546L58.87609111240932,116.95779472409897L58.95565339769636,-88.96971656970405L59.27390253884452,-61.56614171489731L59.671713965279714,141.82498773441952L59.751276250566754,-92.2685378109915L59.91040082114083,87.65736526219932L60.06952539171491,-61.89099403481244L60.14908767700195,105.65452303224401L60.22864996228899,103.6524371465971L60.46733681815011,125.99084013635577L60.626461388724195,-155.91198159848133L60.86514824458531,109.6540831680586L61.024272815159385,109.75711758833192L61.26295967102051,-387.3261822686509L61.34252195630754,142.83202639233605L61.6607710974557,-23.75600795667924L61.74033338274275,125.6421109706771L61.81989566802979,8.28101782797178L61.899457953316826,4.313644905304201L62.138144809177945,120.48805763561965L62.217707094464984,114.45049033090406L62.61551852090018,-48.59930645213474L63.2520168031965,125.72615110688837L63.411141373770576,146.71685221786515L63.49070365905762,12.454070870954027L63.649828229631694,-46.035260684473556L63.80895280020578,34.68291954200323L63.88851508549281,55.55170679780411L64.12720194135393,-133.58803782341178L64.20676422664097,144.15596921936404L64.28632651192801,145.61819632406423L64.44545108250209,118.91348154933016L64.92282479422433,166.83752382844273L65.00238707951137,163.17395196373403L65.0819493647984,-115.53784919020595L65.47976079123362,69.52158161185434L65.63888536180768,-32.04128521604129L65.71844764709472,47.127149901388L65.8775722176688,43.65100155791758L66.67319507053921,117.94234061586577L66.83231964111327,159.480389744159L67.0710064969744,156.64953907213138L67.30969335283552,160.52148853997656L67.4688179234096,148.97092304903472L67.70750477927072,170.55243621227353L67.8666293498448,171.35778502195356L68.02575392041888,167.93429575430122L68.18487849099296,139.89202926335747L68.42356534685408,134.01902607987526L68.50312763214112,135.86351535996178L68.6622522027152,155.59307552017526L69.21918819972447,-57.582631012902624L69.29875048501151,156.8327985751272L69.37831277029855,105.29336659854336L69.45787505558559,125.37786955844649L70.25349790845598,95.84700556509642L70.49218476431712,107.3280048587673L70.57174704960416,138.2199079576461L70.8899961907523,117.47767269615255L71.2878076171875,143.46084026454824L71.44693218776158,131.251326248866L71.60605675833565,149.10658935484162L71.84474361419677,142.58301869040824L72.08343047005789,146.85917388521935L72.56080418178013,153.07361773003086L72.64036646706717,137.05466605501928L72.79949103764126,136.3981853147818L72.8790533229283,111.92036334833224L73.35642703465052,133.79848624523856L73.43598931993758,-61.53579797800194L73.6746761757987,143.51492832894633L73.99292531694685,166.3469684664631L74.07248760223389,146.28114101058327L74.15204988752093,102.90920995277581L74.23161217280797,163.39389252134643L74.62942359924317,99.88003686876361L74.86811045510429,156.19664024641102L74.94767274039131,137.34339684186384L75.02723502567835,95.27259485625822L75.42504645211356,164.68090987118777L75.82285787854876,111.44584784940919L75.98198244912284,141.1336134636625L76.06154473440988,163.0741082886981L76.14110701969692,4.809369215671424L76.22066930498394,142.35161530322816L76.37979387555804,159.80634785534005L77.01629215785435,164.55858373697797L77.33454129900251,169.30461261051792L77.41410358428956,153.28064070205596L78.20972643715994,87.33599964497095L78.60753786359516,103.33454056295402L78.76666243416922,101.75282615967747L78.84622471945626,136.58083670620263L78.9257870047433,154.7728817204244L79.00534929003034,143.73942898715873L79.32359843117851,156.00643678654413L79.72140985761371,114.09754413967858L79.80097214290075,103.97357306550657L80.03965899876185,162.6779950101977L80.43747042519706,90.45181022310801L80.5170327104841,134.499301705872L80.83528185163225,-57.954742289504196L80.9148441369193,92.81498186604979L80.99440642220634,145.8926504769347L81.15353099278042,162.25711554116052L81.39221784864152,58.30598989110999L81.7104669897897,154.14639722475377L81.79002927507673,165.71486372410524L82.10827841622489,79.73097690185143L82.18784070151193,80.60665756986539L82.58565212794713,133.90301075973443L82.7447766985212,164.4351105835988L83.1425881249564,88.93649041339161L83.22215041024344,166.62005326397096L83.30171269553048,91.15975811102803L83.5403995513916,170.6520067524495L83.61996183667864,114.54835359415209L83.69952412196568,166.60915069216185L83.9382109778268,135.8928195647217L84.01777326311384,164.00712813577752L84.09733554840088,160.90441036181718L84.17689783368792,168.18879044844277L84.57470926012311,140.40554046918746L84.7338338306972,165.65629359763858L84.81339611598423,163.77412422249083L84.89295840127129,154.9678249167561L84.97252068655833,156.58066049739196L85.21120754241943,113.0549788084404L85.37033211299351,165.95464079294896L85.60901896885464,153.3924816969785L85.68858125414167,125.9666216879641L86.08639268057688,169.7864453260802L86.16595496586392,142.83141975318617L86.40464182172502,162.00875276143574L86.5637663922991,99.99401435253687L86.9615778187343,158.22689656947463L87.12070238930838,171.122356760705L87.35938924516951,158.48099297262092L87.51851381574357,147.3704764533677L87.59807610103061,159.78963877506592L87.67763838631765,113.85708533800378L87.7572006716047,101.09799748042589L87.91632524217879,145.47931718664313L87.99588752746583,168.5062364699988L88.15501209803989,149.0522333090715L88.31413666861397,124.17285450844884L88.39369895390102,103.06788437352482L88.47326123918806,166.88022121210406L88.71194809504918,88.21955484253249L88.9506349509103,154.26735989330146L89.3484463773455,156.06167775981203L89.66669551849365,110.41347170000896L89.7462578037807,153.2300732061224L89.90538237435477,95.61772541494096L90.14406923021589,82.38722593059522L90.46231837136405,112.44827487184648L90.54188065665109,150.2320051027932L90.70100522722517,158.20551842914153L90.7805675125122,128.29916688838725L90.86012979779925,125.69041829404979L90.93969208308629,161.38786642607548L91.25794122423446,131.15764467296185L91.33750350952148,163.849481467763L91.49662808009556,160.49136419442422L91.5761903653826,150.71641235367974L91.89443950653077,96.93567547172611L92.53093778882707,122.4367121584725L92.84918692997523,103.86259932898035L92.92874921526229,133.3677135518128L93.16743607112339,91.64082295688968L93.24699835641043,47.97002493770408L93.32656064169747,155.0213770184101L93.48568521227155,160.14344486256212L93.5652474975586,129.01197672405706L93.72437206813268,57.814576841497306L93.88349663870675,82.33387113390745L93.96305892399378,131.9496650904458L94.12218349456788,-99.80610581446368L94.28130806514196,24.65350171940706L94.51999492100306,117.3687426856944L94.7586817768642,125.49641156009513L95.07693091801234,125.65079238919103L95.15649320329938,132.61494209835664L95.71342920030865,137.70781616963282L95.87255377088275,105.00166740265469L95.95211605616979,-35.53057937099281L96.34992748260497,134.65024000503482L96.66817662375314,78.57638357770035L96.82730119432722,-52.01123350152375L97.14555033547538,124.05231589833602L97.54336176191059,49.74353154755318L97.94117318834577,-98.49166601916717L98.02073547363281,164.99899934252173L98.10029775891987,147.18808715361843L98.33898461478097,-43.185093267282355L98.49810918535505,110.0740423713951L98.65723375592913,44.14777423497101L98.73679604121618,129.31542587241202L98.89592061179025,116.53747035933247L99.13460746765136,154.95800089634818L99.2141697529384,122.98342949563327L99.29373203822546,142.1703803847738L99.45285660879952,-59.21026152115519L99.6119811793736,157.09784245904882L99.69154346466064,141.83226151451768L99.85066803523473,90.42752698801102L100.00979260580881,-212.62682885377941L100.32804174695696,-91.98835297954972L100.48716631753105,125.6596858369224L100.80541545867919,156.4325109714085L100.88497774396623,126.69043053928847L101.12366459982736,-101.68456688694397L101.28278917040144,47.72026629896452L101.52147602626255,-61.29625207990223L101.68060059683664,73.77321503869886L101.83972516741072,90.1454869009167L102.07841202327182,98.26942759491082L102.31709887913296,48.641332998910904L102.39666116442,-152.64159583113238L102.7944725908552,102.22628740221383L103.19228401729038,-74.39336751737878L103.51053315843855,139.3962401662849L103.59009544372559,125.49444440013335L103.66965772901263,92.43683953615223L103.82878229958669,-12.541476382022068L103.90834458487375,72.94856273568136L103.98790687016078,118.5376008644186L104.38571829659598,88.53453602443581L104.6244051524571,49.74092829993909L104.70396743774414,159.94922020968954L104.78352972303118,143.63465121554205L104.86309200831822,63.3928535230419L105.02221657889231,83.13135424859063L105.26090343475342,155.31679556015465L105.49959029061453,137.15006742346486L106.2156508581979,163.9900347525468L106.45433771405901,-26.50018432395396L107.01127371106828,99.7787281307322L107.09083599635532,149.35643044938797L107.17039828164236,97.47416489731025L107.48864742279054,148.64294035331218L107.6477719933646,153.22309243862333L107.80689656393868,135.07201029127023L107.88645884922573,-27.19104619076886L108.20470799037388,165.08713429299473L108.68208170209613,154.95594539087915L108.84120627267019,105.10894240727673L109.07989312853132,87.18537644478405L109.15945541381836,102.16002827176483L109.39814226967948,68.9090056438775L109.6368291255406,83.4319351128097L109.79595369611468,-46.47161681395848L109.95507826668876,134.47355782505488L110.35288969312396,-16.25744154981446L110.432451978411,118.52781807191407L110.67113883427211,49.31955556848638L110.98938797542027,147.93952164506467L111.14851254599435,158.27091324604444L111.46676168714251,158.86273832678978L111.54632397242955,160.9930827474594L111.78501082829067,112.43647780177632L111.94413539886476,-88.28646419591496L112.02369768415178,111.10005175457174L112.2623845400129,27.736606790754493L112.34194682529994,99.90572774227635L112.58063368116107,65.75832214917257L112.6601959664481,42.63790239820265L112.73975825173514,123.13412337222599L113.21713196345739,130.8356871408348L113.61494338989257,144.92355032468814L113.77406796046667,-324.56765419953445L113.85363024575369,107.34017297996797L114.96750223977226,101.98082235512736L115.0470645250593,66.29562774495935L115.20618909563336,32.88704384971455L115.76312509264264,94.66062552743128L115.84268737792968,53.737490578207144L115.92224966321672,-37.67732807993647L116.24049880436489,107.15974789533024L116.32006108965193,-31.65861959617179L116.63831023080009,101.14974438888142L116.95655937194823,57.81848760261891L117.03612165723527,101.07654719126185L117.19524622780936,-10.841002058178987L117.35437079838344,111.95846382076554L117.43393308367048,26.46008488717628L117.51349536895752,95.89007694473852L117.59305765424455,67.82650225365494L118.22955593654086,110.67000938400604L118.54780507768903,-17.92119948083804L118.70692964826311,141.89995773188488L118.94561650412423,132.84941107463882L119.34342793055943,157.46360316610313L119.82080164228167,104.38463882111166L119.9003639275687,-14.148681408994877L119.97992621285576,143.65181969245396L120.13905078342982,143.9891729016471L120.37773763929094,161.271952703268L121.17336049216135,74.0592071148182L121.33248506273543,117.39216013482019L121.4916096333095,66.11507308691095L121.73029648917063,-154.1303707607658L121.96898334503175,138.34191604802973L122.12810791560581,103.35180327507366L122.20767020089285,132.8531598689971L122.60548162732806,78.7708850464957L122.68504391261509,60.69898697730453L122.92373076847622,156.1657634916218L123.00329305376326,4.508240609307307L123.0828553390503,116.44099706539873L123.3215421949114,-59.8333447147961L123.40110448019844,147.3016700274592L123.71935362134661,100.43452272086324L123.87847819192068,-15.948008465767375L124.35585190364293,80.15915812706407L124.514976474217,70.27960962299282L124.75366333007813,147.17131623148921L125.07191247122628,106.4044173670136L125.39016161237444,134.0239528143304L125.54928618294852,155.0729045355226L125.86753532409668,134.81646796665504L125.94709760938372,107.47603659074109L126.34490903581893,162.64928566518668L126.504033606393,156.01276968698994L127.45878102983748,149.67631775179476L127.77703017098563,169.41987184035906L127.85659245627267,158.97805130014785L127.9361547415597,154.44490638682748L128.17484159742082,125.63934281144944L128.3339661679949,145.7690551122705L128.57265302385602,87.30475478390144L128.89090216500418,144.74032763232034L129.05002673557826,142.0993093690291L129.1295890208653,156.2186957022998L129.44783816201345,-187.89300811092713L129.5274004473005,13.397188609513861L129.76608730316164,156.80758771220394L130.08433644430977,-165.03206500449596L130.1638987295968,155.6958949663809L130.32302330017092,72.34018023444939L130.48214787074497,87.55020805158695L130.72083472660609,156.53341332010646L131.11864615304128,124.42485123337246L131.27777072361536,130.74641106089294L131.43689529418944,78.89793766534422L131.6755821500506,167.85554162427465L132.07339357648578,137.6727842311519L132.15295586177282,141.86214585477532L132.3120804323469,151.4264952580253L132.47120500292095,126.00260775792351L132.550767288208,154.66414312523202L132.63032957349506,112.3893896464039L132.86901642935618,139.21692234533825L133.26682785579138,136.9643563326424L133.42595242636546,163.29990026374173L133.5055147116525,105.27190452997836L133.82376385280065,-216.56275077586056L134.22157527923582,143.51682186765206L134.539824420384,70.90133818552233L134.85807356153214,-104.79995929634664L134.9376358468192,109.06474795819304L135.3354472732544,137.0162946563637L135.49457184382848,155.82615452714313L135.65369641440256,155.68337346315116L135.81282098497664,128.66751759122954L136.05150784083776,-262.30574567525883L136.1310701261248,26.204884165189164L136.44931926727295,140.08270537168823L136.9266929789952,117.24331562417956L137.08581754956927,163.34666448558752L137.24494212014335,148.00561291904987L137.40406669071743,113.96443101903165L137.48362897600447,159.41607568729498L137.88144040243967,123.0016345598304L138.27925182887486,162.6259801203701L138.51793868473598,172.96221268704176L138.67706325531006,-58.471928668436405L138.83618782588414,97.65249324857555L138.91575011117118,169.47626204143396L139.07487468174526,166.47200680774594L139.23399925231934,154.91342322580724L139.47268610818045,163.49783248306923L139.63181067875453,150.01140931600193L139.71137296404157,149.47404187836005L139.7909352493286,94.1247157906593L139.87049753461568,155.89875980986403L140.42743353162496,158.68099247681843L140.586558102199,114.56258311052231L140.82524495806013,169.64105291613598L140.90480724334716,138.78855559456034L140.98436952863423,162.67415198063165L141.46174324035644,150.47155983544363L141.85955466679164,163.8496110411737L142.09824152265276,167.51511840870404L142.1778038079398,105.71366740450792L142.81430209023614,169.24607929467928L142.89386437552315,112.32956795858429L142.97342666081022,124.50589351203719L143.05298894609723,162.42919786506218L143.2121135166713,122.06722179858646L143.6099249431065,143.75431520513294L143.76904951368059,130.36639875109162L143.84861179896762,103.62982658643766L144.48511008126397,140.8489583495531L144.56467236655098,133.75765589663078L144.88292150769914,149.48653982278788L145.04204607827324,137.49916764027407L145.20117064884732,100.11217941335447L145.28073293413433,58.23825833553989L145.4398575047084,99.85016430790695L145.7581066458566,159.99790889116858L145.8376689311436,104.35286388699858L145.9967935017177,70.75872497799416L146.1559180722918,146.82301112424543L146.2354803575788,99.1897109646928L146.3946049281529,140.39605216170716L146.47416721343996,78.10602031761877L146.55372949872697,112.25773128177663L146.63329178401403,135.31531087342873L146.95154092516216,125.42112940850409L147.03110321044923,41.36709350409425L147.26979006631032,76.6570951014625L147.3493523515974,115.30548637081696L147.42891463688443,150.05539654406934L147.7471637780326,9.060048511037472L147.8267260633196,3.0326703881598145L147.9858506338937,162.0182734622687L148.38366206032887,139.98024519721216L149.02016034262522,159.04102397772658L149.25884719848634,-31.36137819212732L149.41797176906041,71.73315236432882L149.5770963396345,147.50079196628454L149.65665862492153,140.17584509514782L149.9749077660697,131.01003699942294L150.13403233664377,58.64773387201421L150.3727191925049,116.93580258249038L150.45228147779193,148.1060440917091L150.61140604836598,139.07267474592564L151.16834204537525,92.84232774539866L151.32746661594936,140.61541994594745L151.4070289012364,137.6079239045679L151.72527804238456,114.3134075521307L151.8048403276716,63.63426056649467L152.04352718353272,97.01952713752189L152.12308946881976,107.56597820683767L152.2026517541068,101.59749119910309L152.36177632468087,140.97290120654588L152.4413386099679,130.09149698098432L152.600463180542,105.06229008974015L152.75958775111607,127.0793510210724L152.8391500364031,157.07976991311259L153.15739917755127,142.62747414966415L153.3960860334124,153.6497467589854L153.71433517456055,164.18510310501378L153.79389745984759,167.56357076595114L154.0325843157087,126.73418512418677L154.19170888628278,155.18813063579853L154.35083345685686,159.48962184966823L154.4303957421439,113.06959115534211L154.50995802743094,139.14329519958332L155.2260185950143,164.57868233988083L155.3851431655884,119.28916198442523L155.6238300214495,130.92491315832254L155.78295459202357,120.46378617992363L155.94207916259768,37.1650160171251L156.49901515960696,115.6844238102799L156.57857744489397,139.89241798358944L156.8172643007551,136.91118706151988L156.89682658604212,15.413233085308697L156.97638887132916,140.6748264098829L157.3742002977644,153.6634241159352L157.61288715362548,155.01849989972348L157.7720117241996,94.73636707566008L158.01069858006068,133.810736822246L158.09026086534772,86.68571192479278L158.16982315063476,126.64233524513322L158.48807229178294,78.88527480930286L158.56763457706995,31.14127772914678L158.72675914764403,160.59178506010758L158.88588371821814,138.14614240392976L158.96544600350515,67.33441777818705L159.2836951446533,161.75398198758398L159.36325742994035,155.99892889085172L159.6815065710885,-3.5144266848583356L159.76106885637557,148.22555200423713L159.92019342694965,140.83925506800514L160.0793179975237,60.72321720509717L160.47712942395893,100.21281083583017L160.55669170924597,12.129913535696083L160.71581627982005,-11.089111580782927L160.95450313568114,137.95324293366616L161.5114391326904,154.04579819563074L161.6705637032645,19.42362438031403L161.98881284441268,54.270520251442285L162.0683751296997,138.46560859275192L162.38662427084788,149.08171420484595L162.4661865561349,-3.735867643669111L162.94356026785715,4.936268702307345L163.18224712371824,-76.99546075016889L163.2618094090053,23.43365051388932L163.34137169429232,169.67512851450078L163.50049626486643,-243.73782881067626L163.73918312072752,-117.84599925122288L164.0574322618757,139.3154158065381L164.13699454716274,9.594974667828566L164.2961191177368,46.18133468000634L164.37568140302386,34.765846524822955L164.53480597359794,129.00974747242375L164.77349282945906,117.05296050452519L164.8530551147461,-54.03304988379327L165.17130425589426,-83.62019585497184L165.2508665411813,151.84840395222213L165.8873648234776,82.93920277028853L166.2851762499128,152.51587487356338L166.76254996163505,156.45949463417756L166.84211224692206,153.16562663099748L166.92167453220912,164.58557623429775L167.31948595864432,152.94598203083441L167.63773509979248,121.4902726288395L168.11510881151474,121.17403105103253L168.43335795266287,113.97006746239519L168.75160709381103,108.34735888039661L168.9107316643851,56.22175446310727L169.0698562349592,152.68475909010203L169.3085430908203,159.28854158543186L169.7063545172555,146.4770501177944L170.1041659436907,102.8291335849905L170.66110194069998,147.9326542542999L171.13847565242222,162.31214448521098L171.2976002229963,160.1198227463445L171.4567247935704,122.53092969712073L171.61584936414448,149.79404697477653L171.6954116494315,152.31143159035045L171.9340985052926,153.84325434082402L172.65015907287597,117.78679362607393L173.5253442110334,44.385011370480846L173.60490649632047,155.49902731041595L173.84359335218159,149.80774641810316L173.9231556374686,162.9241197037384L174.24140477861675,143.02663093088987L174.32096706390382,-0.563404036573047L174.48009163447787,133.06284498564114L174.8779030609131,156.36693357379056L175.11658991677422,113.04478962660248L175.5144013432094,123.78771521437588L175.59396362849645,108.1134670947619L175.6735259137835,139.24170031527592L175.83265048435757,112.07701171211465L175.91221276964458,164.66402409989914L176.31002419607978,143.17238040392598L176.38958648136685,134.02639115033094L176.62827333722794,136.20446423130065L176.707835622515,158.64024752886766L177.1056470489502,131.95348750606013L177.5830207606724,86.46484226692898L177.66258304595948,-319.27479240346173L178.06039447239468,165.92506934302958L178.37864361354283,167.235069776586L178.77645503997803,168.98268305446817L179.41295332227432,154.68819371715986L180.68594988686698,150.45253315802893L180.76551217215402,138.92290260745872L181.16332359858922,156.5257419852256L182.19763330732073,154.86991453590417L182.27719559260777,158.78495746976827L182.67500701904297,158.07328581871704L182.83413158961704,162.9958312244108L182.99325616019112,157.58128674390616L183.0728184454782,142.31857408351092L183.1523807307652,169.8696977148517L183.47062987191336,168.48603332491234L183.62975444248747,149.24780375850477L183.78887901306155,146.9209391741988L183.9480035836356,38.23214728908352L184.18669043949674,111.32037955999097L184.26625272478375,156.5375199137692L184.42537729535783,151.8598123020603L184.5845018659319,145.78893874110568L184.66406415121895,157.2373135113686L184.74362643650602,150.4057453773812L184.82318872179303,170.64358374454432L184.9823132923671,164.71856125395914L185.06187557765415,160.38486810269123L185.1414378629412,160.18838180483263L185.3801247188023,149.55049608034747L186.01662300109865,167.60712878209577L186.33487214224678,157.36191306996537L186.41443442753385,156.62813001087076L186.65312128339494,166.24680748381357L187.1304949951172,163.46149450350586L187.21005728040421,152.18407565192697L187.3691818509783,155.4933187182215L187.7669932774135,-111.0030389640736L187.92611784798757,94.12465689365445L188.00568013327464,127.76806314721048L188.32392927442277,84.45299714757948L188.40349155970983,-68.96289875918954L188.80130298614503,82.66453069850013L188.9604275567191,102.57975777678243L189.03998984200612,162.24648610421139L189.1991144125802,151.2690341155761L189.91517498016358,140.869324933828L189.99473726545062,-146.98993348155273L190.15386183602467,63.547069440524254L190.31298640659875,-65.97762161288723L190.5516732624599,93.98517700678394L190.63123554774694,115.30499163597626L191.3472961153303,110.07065579361658L191.82466982705253,76.2358637228214L192.3816058240618,-116.27571086688599L192.69985496520994,133.026655721015L192.779417250497,-118.89276393890637L193.09766639164516,158.58047443107705L193.8137269592285,126.38876008047978L194.13197610037668,156.63587938428304L194.21153838566372,163.89631342116436L194.29110067095075,105.06519960177941L194.68891209738595,162.5087176561517L195.1662858091082,75.6338185393106L195.4049726649693,160.86346369162482L195.48453495025635,105.69237613725696L195.5640972355434,153.59060533157174L195.8027840914045,124.83593465807903L195.96190866197858,88.65906785147702L196.12103323255266,123.87147853466438L196.20059551783973,166.6121161563557L196.28015780312674,163.29687148526764L196.5984069442749,144.47870713680527L196.75753151484898,157.58941158572432L196.9962183707101,147.21815407459107L197.07578065599714,141.29053275366718L197.15534294128418,169.41291168681167L197.47359208243236,131.09301109984654L197.95096579415457,146.714175348995L198.50790179116385,141.8357953348083L198.5874640764509,119.84516148954934L198.66702636173792,152.99045221434153L199.06483778817312,163.38442630024295L199.1444000734602,152.15528679595946L199.30352464403427,169.5362007870507L199.94002292633056,-214.24849898514188L200.09914749690464,162.69170476050013L200.25827206747874,163.60431826782636L200.33783435276575,135.43281039809162L200.5765212086269,142.48276715361376L201.13345720563618,146.00234025875534L201.3721440614973,163.5168709398849L201.53126863207137,140.6996249937723L201.69039320264545,-29.51288391571144L202.08820462908065,165.92084495535718L202.48601605551582,7.620240551230992L202.5655783408029,163.9927160386923L202.64514062608993,169.52468126911586L202.96338976723808,162.89748500572304L203.0429520525251,133.31464440559853L203.52032576424736,104.1649176548423L203.67945033482144,166.11458812521516L203.8385749053955,-80.38519540813286L204.07726176125664,130.35240187789054L204.15682404654365,114.78770513213583L204.23638633183072,165.95588940945166L204.31594861711775,158.10052421103205L204.55463547297884,150.15182861009967L204.71376004355292,166.14427736914425L205.11157146998812,143.399284059936L205.35025832584927,168.1059091108018L205.50938289642335,160.92721822694284L205.82763203757148,169.6043107558769L205.90719432285854,168.20397998599194L206.30500574929374,120.59648702153662L206.6232548904419,89.25725528117057L206.86194174630302,96.29215501740448L206.94150403159003,162.91275994392922L207.1006286021641,78.15018129185046L207.4188777433123,156.05538019756912L207.49844002859933,159.2483767729788L207.65756459917338,-5.965637570640254L207.73712688446045,160.21951034431757L208.21450059618266,127.77331676004253L208.29406288146973,164.75935037466354L208.4531874520438,116.46814269493113L208.61231202261789,169.7916481402456L208.850998878479,162.0124986109438L208.93056116376604,150.5392472182601L209.08968573434012,-43.74739475192473L209.32837259020124,159.09617513306208L209.6466217313494,38.5128504141679L209.80574630192348,15.867941521502878L209.88530858721052,98.73554438094318L210.04443315778462,105.11884299379092L210.12399544307164,63.05208723241806L210.6809314400809,-36.80619426069643L210.840056010655,106.33662691443865L211.0787428665161,136.91966234051688L211.2378674370902,162.08724332736563L211.31742972237726,129.27283155850918L211.39699200766427,94.54942798228664L211.87436571938653,76.72342490831731L212.6699885722569,-102.63792092494562L212.82911314283098,93.82458254367702L213.22692456926617,131.80864799174887L213.38604913984025,157.35552127251472L213.70429828098844,-63.296064541162195L213.78386056627545,122.0000851027653L213.86342285156252,136.56278771906833L214.02254742213657,110.27684831787339L214.18167199271065,81.50775229546934L214.26123427799772,64.83156599855829L214.57948341914584,146.29258469862438L215.05685713086808,159.55185242498592L215.2159817014422,92.04185266286945L215.37510627201627,137.17175035579803L215.69335541316443,159.84264902427537L216.40941598074775,107.72482342890073L216.48897826603482,147.28603876237375L216.56854055132183,171.57223637871456L216.88678969247,151.110480433687L217.2846011189052,159.2695046010413L217.36416340419225,162.9153631915433L217.44372568947927,64.75247910045437L217.76197483062745,171.26305287072552L217.84153711591446,163.42530965615512L218.0802239717756,166.86532910442938L218.2393485423497,153.19461573678146L218.4780353982108,163.11678211355752L218.875846824646,165.78152188176207L219.03497139522008,171.56053133521445L219.19409596579416,52.501584049169054L219.2736582510812,149.45960327762268L219.67146967751637,128.8770790241634L219.83059424809048,160.95273388186618L220.22840567452565,160.10033078259153L220.4670925303868,160.33796989015943L220.62621710096087,158.70939261255398L220.78534167153492,159.45648492231814L221.18315309797015,87.30451330618159L221.42183995383127,160.99780039754737L221.58096452440535,154.11297464693018L221.74008909497942,110.31909513944767L221.81965138026646,152.4761753474486L222.05833823612755,155.4735249073187L222.13790052141462,165.7161690289751L222.21746280670166,62.21769336479945L222.45614966256278,170.4083741384262L222.53571194784982,161.97317160838463L222.61527423313683,158.56703118972152L223.25177251543317,166.567377255264L223.3313348007202,106.08440638089662L223.41089708600725,160.75550989902194L223.57002165658133,140.35109018820958L223.64958394186837,139.66329980019728L223.96783308301653,154.59556050794194L224.1269576535906,159.3226164475841L224.84301822117396,140.0666588827186L225.24082964760916,165.79361343685645L225.3203919328962,105.65579520754864L225.39995421818324,99.26999347199505L225.55907878875735,159.1831247813126L225.95689021519252,40.58197287072774L226.03645250047956,158.4324530060791L226.11601478576662,152.8365602303858L226.19557707105363,160.06099052820628L226.3547016416277,164.74107316163546L226.5138262122018,165.61018092390887L226.83207535334998,140.35491554867417L227.1503244944981,164.4653615577116L227.22988677978515,163.16025988253304L227.38901135035925,123.07898399629144L227.62769820622034,95.14358096714842L227.78682277679442,158.79060569253275L228.3437587738037,158.56256826917948L228.7415702002389,170.4580920450649L228.98025705610002,160.79924092511828L229.37806848253524,125.2261096460661L229.61675533839636,166.65840625731252L229.69631762368337,158.27834015835523L229.77587990897044,170.58137451939086L230.0941290501186,169.04902979421186L230.41237819126673,166.50060203981005L230.5715027618408,170.07534470560114L231.20800104413715,160.84267157648992L231.28756332942416,123.06688655149658L231.36712561471123,19.16266353125321L231.68537475585936,168.05350402831712L232.00362389700754,108.35356662470713L232.3218730381557,110.33679957910364L232.4014353234427,118.35080312385678L232.7196844645909,152.85616704329823L232.7992467498779,169.0253222773372L232.87880903516498,160.6445980043508L232.958371320452,130.45270347713912L233.27662046160017,167.55972111047205L233.51530731746126,168.0165873856812L233.7539941733224,170.65895439038334L233.91311874389646,167.32776630008414L234.07224331447054,170.5076288434137L234.39049245561873,134.74190141367285L234.78830388205392,147.29468189783452L234.86786616734096,156.49661152662998L234.947428452628,147.85400613888206L235.10655302320208,156.23468182183947L235.1861153084891,100.400545038769L235.3452398790632,148.33669948692764L235.50436444963728,133.6316310305168L235.58392673492432,171.21642116714062L235.66348902021136,168.1257308977819L236.29998730250767,41.8884144527665L236.45911187308172,164.34919310535815L236.69779872894287,106.38686016986973L236.7773610142299,162.21741159777037L236.85692329951695,162.63490154417877L236.936485584804,155.778303655558L237.09561015537807,53.760201263274816L237.25473472595215,162.83656047148773L237.49342158181327,117.57557718730399L237.5729838671003,154.08911547026807L237.89123300824846,133.3579660975112L237.9707952935355,65.51380534386408L238.05035757882254,164.72272968947695L238.2890444346837,151.00296689619532L238.92554271697998,74.04107861672735L240.3576638521467,123.32579778478885L240.43722613743373,159.3065169513101L240.83503756386895,110.99937321449215L240.91459984915596,135.39512220469223L241.07372441973007,147.63041249454423L241.23284899030415,120.38872194725052L241.31241127559116,164.08713088230675L241.55109813145228,123.24976764123629L241.86934727260044,164.43886232280735L241.9489095578875,168.85010736899045L242.10803412846155,107.26298256542L242.26715869903563,118.90246191972393L242.3467209843227,143.6571439816918L242.74453241075787,162.77122160673943L242.8240946960449,100.96333536855157L243.06278155190606,122.49924310851489L243.14234383719307,145.0820333301714L243.46059297834125,164.15489188637926L243.54015526362826,169.01913293834073L243.61971754891533,125.47207531769376L244.09709126063754,169.77801642847456L244.25621583121162,154.0244288898484L244.3357781164987,149.4512487374856L244.4153404017857,96.53960489355418L245.44965011051724,163.2954432329002L245.52921239580425,160.39693609898367L245.68833696637836,168.7335789086949L246.08614839281353,161.30062523765096L246.48395981924872,117.25848160292678L246.6430843898228,169.81289302610523L247.12045810154507,148.84186793202153L247.27958267211915,86.53027683931016L247.43870724269323,64.36651524831359L247.5978318132673,165.36741630449447L247.67739409855434,158.51801268501535L247.83651866912842,4.26570274336155L248.23433009556362,150.90902617346987L248.31389238085066,91.6775216806077L248.3934546661377,158.55328168394078L248.4730169514247,136.02179517077835L248.71170380728586,138.05474897666377L248.7912660925729,150.83137636228412L249.029952948434,162.70350477542056L249.10951523372105,162.41215896156095L249.1890775190081,114.114135425943L249.26863980429513,134.4002192746237L249.58688894544326,159.3356856929589L249.66645123073033,164.39355580183144L250.06426265716553,163.97986618466055L250.2233872277396,154.42117236630065L250.6211986541748,170.6084001462759L250.70076093946184,97.54423466397263L250.85988551003595,168.49277850439205L251.01901008061,163.39004507450503L251.09857236589704,163.99708325160145L251.25769693647112,165.25454755683742L251.4168215070452,166.6375603986607L251.8146329334804,155.88707464410308L252.05331978934151,156.6285938247839L252.2124443599156,127.25893976824136L252.29200664520263,160.65189092597555L252.6102557863508,168.43526263431207L253.008067212786,104.02846507402076L253.56500320979526,119.50255761237442L253.6445654950823,165.49667903344974L254.0423769215175,167.00559600252708L254.20150149209158,131.96430983070013L254.59931291852678,141.50798638525006L254.67887520381382,163.22683558438305L254.75843748910086,137.21630299511193L254.8379997743879,145.10483236074637L255.55406034197125,165.65929955352328L255.95187176840645,160.53596836861735L256.19055862426757,167.5224017595655L256.27012090955463,140.25254666455558L256.98618147713796,156.39889845074427L257.14530604771204,148.4435563228153L257.3839929035732,123.87750369825987L257.54311747414727,169.77281582294685L258.0204911858695,161.38266287569755L258.57742718287875,163.89431975755042L258.73655175345283,163.94316746094253L258.8161140387399,164.39333493806328L258.975238609314,169.71747104370795L259.21392546517507,168.0326736301291L259.5321746063233,167.62976216484458L259.77086146218437,104.01021878192024L259.8504237474714,170.14724396047646L260.00954831804546,113.47948486055081L260.16867288861954,76.1577898532008L260.2482351739066,105.36980313142932L260.72560888562884,158.5578476742413L260.8051711709159,139.42638954306435L260.96429574148993,121.8624486921464L261.123420312064,168.15483411651277L261.36210716792516,159.93335777386005L261.91904316493446,150.2717252428597L262.23729230608257,162.9497443181207L262.31685459136963,101.61532521216971L262.5555414472307,91.66184918761884" fill="none"></path></g></g></g></g></g></g><g transform="translate(51, 177)" clip-path="url(#clip_1)"><clipPath id="clip_1"><rect width="278" height="22"></rect></clipPath><g><g><line x1="0" y1="0" x2="0" y2="5" style="visibility: inherit;" fill="rgb(0, 0, 0)" stroke="rgb(204, 204, 204)" stroke-width="1px"></line><line x1="39.78114264351981" y1="0" x2="39.78114264351981" y2="5" style="visibility: inherit;" fill="rgb(0, 0, 0)" stroke="rgb(204, 204, 204)" stroke-width="1px"></line><line x1="79.56228528703961" y1="0" x2="79.56228528703961" y2="5" style="visibility: inherit;" fill="rgb(0, 0, 0)" stroke="rgb(204, 204, 204)" stroke-width="1px"></line><line x1="119.34342793055943" y1="0" x2="119.34342793055943" y2="5" style="visibility: inherit;" fill="rgb(0, 0, 0)" stroke="rgb(204, 204, 204)" stroke-width="1px"></line><line x1="159.12457057407923" y1="0" x2="159.12457057407923" y2="5" style="visibility: inherit;" fill="rgb(0, 0, 0)" stroke="rgb(204, 204, 204)" stroke-width="1px"></line><line x1="198.90571321759904" y1="0" x2="198.90571321759904" y2="5" style="visibility: inherit;" fill="rgb(0, 0, 0)" stroke="rgb(204, 204, 204)" stroke-width="1px"></line><line x1="238.68685586111886" y1="0" x2="238.68685586111886" y2="5" style="visibility: inherit;" fill="rgb(0, 0, 0)" stroke="rgb(204, 204, 204)" stroke-width="1px"></line><line x1="278.4679985046387" y1="0" x2="278.4679985046387" y2="5" style="visibility: inherit;" fill="rgb(0, 0, 0)" stroke="rgb(204, 204, 204)" stroke-width="1px"></line></g><g transform="translate(0, 8)"><text style="text-anchor: middle; visibility: hidden; font-family: Roboto, sans-serif; font-size: 12px; font-weight: 200;" x="0" y="0" dx="0em" dy="0.95em" fill="rgb(50, 49, 63)" stroke="none" stroke-width="1px">-500</text><text style="text-anchor: middle; visibility: inherit; font-family: Roboto, sans-serif; font-size: 12px; font-weight: 200;" x="39.78114264351981" y="0" dx="0em" dy="0.95em" fill="rgb(50, 49, 63)" stroke="none" stroke-width="1px">0</text><text style="text-anchor: middle; visibility: inherit; font-family: Roboto, sans-serif; font-size: 12px; font-weight: 200;" x="79.56228528703961" y="0" dx="0em" dy="0.95em" fill="rgb(50, 49, 63)" stroke="none" stroke-width="1px">500</text><text style="text-anchor: middle; visibility: inherit; font-family: Roboto, sans-serif; font-size: 12px; font-weight: 200;" x="119.34342793055943" y="0" dx="0em" dy="0.95em" fill="rgb(50, 49, 63)" stroke="none" stroke-width="1px">1k</text><text style="text-anchor: middle; visibility: inherit; font-family: Roboto, sans-serif; font-size: 12px; font-weight: 200;" x="159.12457057407923" y="0" dx="0em" dy="0.95em" fill="rgb(50, 49, 63)" stroke="none" stroke-width="1px">1.5k</text><text style="text-anchor: middle; visibility: inherit; font-family: Roboto, sans-serif; font-size: 12px; font-weight: 200;" x="198.90571321759904" y="0" dx="0em" dy="0.95em" fill="rgb(50, 49, 63)" stroke="none" stroke-width="1px">2k</text><text style="text-anchor: middle; visibility: inherit; font-family: Roboto, sans-serif; font-size: 12px; font-weight: 200;" x="238.68685586111886" y="0" dx="0em" dy="0.95em" fill="rgb(50, 49, 63)" stroke="none" stroke-width="1px">2.5k</text><text style="text-anchor: middle; visibility: hidden; font-family: Roboto, sans-serif; font-size: 12px; font-weight: 200;" x="278.4679985046387" y="0" dx="0em" dy="0.95em" fill="rgb(50, 49, 63)" stroke="none" stroke-width="1px">3k</text></g><line x1="0" y1="0" x2="278.4679985046387" y2="0" fill="rgb(0, 0, 0)" stroke="rgb(204, 204, 204)" stroke-width="1px"></line></g></g></g></g></svg>