<svg viewBox="0 0 330 200" xmlns="http://www.w3.org/2000/svg"><g><g><g><g><g><line x1="51.53200149536133" y1="177.86299896240234" x2="46.53200149536133" y2="177.86299896240234" style="visibility: inherit;" fill="rgb(0, 0, 0)" stroke="rgb(204, 204, 204)" stroke-width="1px"></line><line x1="51.53200149536133" y1="155.63012409210205" x2="46.53200149536133" y2="155.63012409210205" style="visibility: inherit;" fill="rgb(0, 0, 0)" stroke="rgb(204, 204, 204)" stroke-width="1px"></line><line x1="51.53200149536133" y1="133.39724922180176" x2="46.53200149536133" y2="133.39724922180176" style="visibility: inherit;" fill="rgb(0, 0, 0)" stroke="rgb(204, 204, 204)" stroke-width="1px"></line><line x1="51.53200149536133" y1="111.16437435150146" x2="46.53200149536133" y2="111.16437435150146" style="visibility: inherit;" fill="rgb(0, 0, 0)" stroke="rgb(204, 204, 204)" stroke-width="1px"></line><line x1="51.53200149536133" y1="88.93149948120117" x2="46.53200149536133" y2="88.93149948120117" style="visibility: inherit;" fill="rgb(0, 0, 0)" stroke="rgb(204, 204, 204)" stroke-width="1px"></line><line x1="51.53200149536133" y1="66.69862461090088" x2="46.53200149536133" y2="66.69862461090088" style="visibility: inherit;" fill="rgb(0, 0, 0)" stroke="rgb(204, 204, 204)" stroke-width="1px"></line><line x1="51.53200149536133" y1="44.465749740600586" x2="46.53200149536133" y2="44.465749740600586" style="visibility: inherit;" fill="rgb(0, 0, 0)" stroke="rgb(204, 204, 204)" stroke-width="1px"></line><line x1="51.53200149536133" y1="22.23287487030027" x2="46.53200149536133" y2="22.23287487030027" style="visibility: inherit;" fill="rgb(0, 0, 0)" stroke="rgb(204, 204, 204)" stroke-width="1px"></line><line x1="51.53200149536133" y1="0" x2="46.53200149536133" y2="0" style="visibility: inherit;" fill="rgb(0, 0, 0)" stroke="rgb(204, 204, 204)" stroke-width="1px"></line></g><g transform="translate(41.53200149536133, 0)"><text style="text-anchor: end; visibility: hidden; font-family: Roboto, sans-serif; font-size: 12px; font-weight: 200;" x="0" y="177.86299896240234" dx="0em" dy="0.3em" fill="rgb(50, 49, 63)" stroke="none" stroke-width="1px">0</text><text style="text-anchor: end; visibility: inherit; font-family: Roboto, sans-serif; font-size: 12px; font-weight: 200;" x="0" y="155.63012409210205" dx="0em" dy="0.3em" fill="rgb(50, 49, 63)" stroke="none" stroke-width="1px">0.02</text><text style="text-anchor: end; visibility: hidden; font-family: Roboto, sans-serif; font-size: 12px; font-weight: 200;" x="0" y="133.39724922180176" dx="0em" dy="0.3em" fill="rgb(50, 49, 63)" stroke="none" stroke-width="1px">0.04</text><text style="text-anchor: end; visibility: inherit; font-family: Roboto, sans-serif; font-size: 12px; font-weight: 200;" x="0" y="111.16437435150146" dx="0em" dy="0.3em" fill="rgb(50, 49, 63)" stroke="none" stroke-width="1px">0.06</text><text style="text-anchor: end; visibility: hidden; font-family: Roboto, sans-serif; font-size: 12px; font-weight: 200;" x="0" y="88.93149948120117" dx="0em" dy="0.3em" fill="rgb(50, 49, 63)" stroke="none" stroke-width="1px">0.08</text><text style="text-anchor: end; visibility: inherit; font-family: Roboto, sans-serif; font-size: 12px; font-weight: 200;" x="0" y="66.69862461090088" dx="0em" dy="0.3em" fill="rgb(50, 49, 63)" stroke="none" stroke-width="1px">0.1</text><text style="text-anchor: end; visibility: hidden; font-family: Roboto, sans-serif; font-size: 12px; font-weight: 200;" x="0" y="44.465749740600586" dx="0em" dy="0.3em" fill="rgb(50, 49, 63)" stroke="none" stroke-width="1px">0.12</text><text style="text-anchor: end; visibility: inherit; font-family: Roboto, sans-serif; font-size: 12px; font-weight: 200;" x="0" y="22.23287487030027" dx="0em" dy="0.3em" fill="rgb(50, 49, 63)" stroke="none" stroke-width="1px">0.14</text><text style="text-anchor: end; visibility: hidden; font-family: Roboto, sans-serif; font-size: 12px; font-weight: 200;" x="0" y="0" dx="0em" dy="0.3em" fill="rgb(50, 49, 63)" stroke="none" stroke-width="1px">0.16</text></g><line x1="51.53200149536133" y1="0" x2="51.53200149536133" y2="177.86299896240234" fill="rgb(0, 0, 0)" stroke="rgb(204, 204, 204)" stroke-width="1px"></line></g></g><g transform="translate(51, 0)" clip-path="url(#clip_0)"><clipPath id="clip_0"><rect width="278" height="177"></rect></clipPath><g><g><g><line x1="0" y1="0" x2="0" y2="177.86299896240234" fill="rgb(0, 0, 0)" stroke="rgb(60, 60, 60)" stroke-width="1px" opacity="0.25"></line><line x1="39.78114264351981" y1="0" x2="39.78114264351981" y2="177.86299896240234" fill="rgb(0, 0, 0)" stroke="rgb(60, 60, 60)" stroke-width="1px" opacity="0.25"></line><line x1="79.56228528703961" y1="0" x2="79.56228528703961" y2="177.86299896240234" fill="rgb(0, 0, 0)" stroke="rgb(60, 60, 60)" stroke-width="1px" opacity="0.25"></line><line x1="119.34342793055943" y1="0" x2="119.34342793055943" y2="177.86299896240234" fill="rgb(0, 0, 0)" stroke="rgb(60, 60, 60)" stroke-width="1px" opacity="0.25"></line><line x1="159.12457057407923" y1="0" x2="159.12457057407923" y2="177.86299896240234" fill="rgb(0, 0, 0)" stroke="rgb(60, 60, 60)" stroke-width="1px" opacity="0.25"></line><line x1="198.90571321759904" y1="0" x2="198.90571321759904" y2="177.86299896240234" fill="rgb(0, 0, 0)" stroke="rgb(60, 60, 60)" stroke-width="1px" opacity="0.25"></line><line x1="238.68685586111886" y1="0" x2="238.68685586111886" y2="177.86299896240234" fill="rgb(0, 0, 0)" stroke="rgb(60, 60, 60)" stroke-width="1px" opacity="0.25"></line><line x1="278.4679985046387" y1="0" x2="278.4679985046387" y2="177.86299896240234" fill="rgb(0, 0, 0)" stroke="rgb(60, 60, 60)" stroke-width="1px" opacity="0.25"></line></g><g><line x1="0" y1="177.86299896240234" x2="278.4679985046387" y2="177.86299896240234" fill="rgb(0, 0, 0)" stroke="rgb(60, 60, 60)" stroke-width="1px" opacity="0.25"></line><line x1="0" y1="155.63012409210205" x2="278.4679985046387" y2="155.63012409210205" fill="rgb(0, 0, 0)" stroke="rgb(60, 60, 60)" stroke-width="1px" opacity="0.25"></line><line x1="0" y1="133.39724922180176" x2="278.4679985046387" y2="133.39724922180176" fill="rgb(0, 0, 0)" stroke="rgb(60, 60, 60)" stroke-width="1px" opacity="0.25"></line><line x1="0" y1="111.16437435150146" x2="278.4679985046387" y2="111.16437435150146" fill="rgb(0, 0, 0)" stroke="rgb(60, 60, 60)" stroke-width="1px" opacity="0.25"></line><line x1="0" y1="88.93149948120117" x2="278.4679985046387" y2="88.93149948120117" fill="rgb(0, 0, 0)" stroke="rgb(60, 60, 60)" stroke-width="1px" opacity="0.25"></line><line x1="0" y1="66.69862461090088" x2="278.4679985046387" y2="66.69862461090088" fill="rgb(0, 0, 0)" stroke="rgb(60, 60, 60)" stroke-width="1px" opacity="0.25"></line><line x1="0" y1="44.465749740600586" x2="278.4679985046387" y2="44.465749740600586" fill="rgb(0, 0, 0)" stroke="rgb(60, 60, 60)" stroke-width="1px" opacity="0.25"></line><line x1="0" y1="22.23287487030027" x2="278.4679985046387" y2="22.23287487030027" fill="rgb(0, 0, 0)" stroke="rgb(60, 60, 60)" stroke-width="1px" opacity="0.25"></line><line x1="0" y1="0" x2="278.4679985046387" y2="0" fill="rgb(0, 0, 0)" stroke="rgb(60, 60, 60)" stroke-width="1px" opacity="0.25"></line></g></g></g><g><g><line x1="0" y1="177.86299896240234" x2="278.4679985046387" y2="177.86299896240234" fill="rgb(0, 0, 0)" stroke="rgb(153, 153, 153)" stroke-width="1.5px"></line></g></g><g><g><line x1="39.78114264351981" y1="0" x2="39.78114264351981" y2="177.86299896240234" fill="rgb(0, 0, 0)" stroke="rgb(153, 153, 153)" stroke-width="1.5px"></line></g></g><g><g><g><g><g><path style="fill: none;" stroke="rgb(255, 112, 67)" stroke-width="2px" d="M40.17895406995501,119.99096581042122L40.25851635524205,98.74462880681409L40.81545235225133,112.24551136839794L41.213263778686525,113.2736555878344L41.3723883492606,114.53820430835489L41.61107520512172,117.55617409901417L41.7701997756958,116.974135674985L41.84976206098284,118.1901017797552L42.00888663155692,119.46827834170328L42.168011202131005,120.22689024010295L42.406698057992116,118.22548592645934L42.565822628566195,113.98319621489348L43.12275862557547,27.998081808289733L43.44100776672363,-27.66847099964845L51.3972362954276,-57.33290262719079L51.87461000714983,21.124462169882786L52.27242143358503,70.78943911737281L52.35198371887207,101.37938123159296L52.59067057473319,122.66816713439329L52.74979514530727,125.99251645106143L52.908919715881346,136.3219448841632L53.38629342760359,143.1278102389482L53.46585571289063,147.37148356778383L54.18191628047398,150.25021149595935L54.341040851048064,152.25951502766367L54.500165421622135,150.52537085190272L54.738852277483254,147.1701613796886L55.454912845066616,149.76923769117616L55.693599700927734,149.23525109870636L55.773161986214774,149.82219759552788L55.93228655678885,148.84185214009577L56.17097341264997,152.5081635107058L56.72790940965925,153.82886228927453L56.88703398023333,156.89052052895696L56.966596265520366,158.94762374880276L57.28484540666852,159.29871855919467L57.36440769195556,161.29662521122629L57.44396997724261,161.75998851608097L57.52353226252965,159.78815494802197L57.76221911839077,159.28026516307057L57.84178140367781,161.1196717839945L58.160030544825965,163.18192593811324L58.239592830113,161.44043895697797L58.319155115400044,161.82329022882053L58.71696654183524,161.728011138302L58.87609111240932,162.25498459214882L58.95565339769636,163.64512770974164L59.27390253884452,163.22768876192015L59.671713965279714,163.86583445995052L59.751276250566754,162.03512111218512L59.91040082114083,161.84168970968744L60.06952539171491,159.03379778755698L60.14908767700195,158.7278488797919L60.22864996228899,158.54427953513283L60.46733681815011,154.25198999146193L60.626461388724195,159.30935874566862L60.86514824458531,158.8579405666948L61.024272815159385,160.54464982341526L61.26295967102051,160.9637601039399L61.34252195630754,163.21889864995632L61.6607710974557,164.606651453454L61.74033338274275,164.78751041284758L61.81989566802979,163.13032680486577L61.899457953316826,164.2692554344148L62.138144809177945,164.40310659383067L62.217707094464984,164.59094219225324L62.61551852090018,162.79887327878947L63.2520168031965,165.0721422743209L63.411141373770576,161.43993415706785L63.49070365905762,163.39896366544085L63.649828229631694,159.49067981749354L63.80895280020578,162.41598434945365L63.88851508549281,163.81260164300934L64.12720194135393,165.4764324469721L64.20676422664097,164.1938042603169L64.28632651192801,164.732185482224L64.44545108250209,164.609166859816L64.92282479422433,164.34988519901623L65.00238707951137,163.7422579014937L65.0819493647984,161.67026324226606L65.47976079123362,162.96895221631829L65.63888536180768,164.58033224131947L65.71844764709472,164.75393369259564L65.8775722176688,163.8395778454798L66.67319507053921,150.59537619337786L66.83231964111327,143.26341194998767L67.0710064969744,122.9140456385751L67.30969335283552,105.94991912244663L67.4688179234096,94.65541086200838L67.70750477927072,85.234386833439L67.8666293498448,77.75410706564436L68.02575392041888,70.67229511562856L68.18487849099296,58.25322194134453L68.42356534685408,57.97705215813959L68.50312763214112,56.68261937510489L68.6622522027152,57.887581458491816L69.21918819972447,55.19310159848646L69.29875048501151,50.30137063447625L69.37831277029855,48.965290766152314L69.45787505558559,44.49860849419775L70.25349790845598,36.39149928151282L70.49218476431712,29.739277500126974L70.57174704960416,23.20344142605391L70.8899961907523,23.744452461871806L71.2878076171875,41.791782946382206L71.44693218776158,52.61485069004381L71.60605675833565,55.02240131162498L71.84474361419677,54.74265708107332L72.08343047005789,53.60835155305671L72.56080418178013,51.12026885194592L72.64036646706717,50.19499494270556L72.79949103764126,46.84976794151929L72.8790533229283,49.6233572080071L73.35642703465052,45.84917336986345L73.43598931993758,51.676990057409085L73.6746761757987,52.0512748677883L73.99292531694685,47.95692654830666L74.07248760223389,45.53297668201596L74.15204988752093,48.26484205922661L74.23161217280797,47.84260992067598L74.62942359924317,38.28989112885487L74.86811045510429,40.14830287991231L74.94767274039131,45.300727465065144L75.02723502567835,42.83730494653029L75.42504645211356,35.83803711700748L75.82285787854876,43.67260877448429L75.98198244912284,46.48541048734796L76.06154473440988,37.082462673817176L76.14110701969692,37.20220366658699L76.22066930498394,36.162842889140904L76.37979387555804,39.45255030020846L77.01629215785435,34.753205690113006L77.33454129900251,39.2587180689316L77.41410358428956,33.05382995483332L78.20972643715994,39.64209989841261L78.60753786359516,37.86618149246155L78.76666243416922,36.48309019212714L78.84622471945626,34.56826865447631L78.9257870047433,27.74588467988601L79.00534929003034,31.82168163236276L79.32359843117851,32.8669188518962L79.72140985761371,31.030043144131138L79.80097214290075,25.852431246075977L80.03965899876185,21.499529863497212L80.43747042519706,15.307582934747083L80.5170327104841,10.67552093034376L80.83528185163225,6.251115900044487L80.9148441369193,-2.700172040181632L80.99440642220634,2.104642132474482L81.15353099278042,-7.946602800967618L81.39221784864152,-10.576785416303338L81.7104669897897,7.908402844017013L81.79002927507673,-5.1166145060081165L82.10827841622489,1.3946062258329597L82.18784070151193,12.69673224356769L82.58565212794713,27.162254799074518L82.7447766985212,33.51638304892324L83.1425881249564,38.68349810425354L83.22215041024344,41.037686015639494L83.30171269553048,31.216191788843496L83.5403995513916,29.235207810822562L83.61996183667864,33.4323550113394L83.69952412196568,40.71204763641013L83.9382109778268,39.772261703705155L84.01777326311384,43.66774557677804L84.09733554840088,36.46810415744527L84.17689783368792,31.952762108238435L84.57470926012311,40.39113212962769L84.7338338306972,40.32330549109958L84.81339611598423,37.150275375136815L84.89295840127129,35.62746718338L84.97252068655833,39.60751268250626L85.21120754241943,42.025028607988354L85.37033211299351,41.72868244812021L85.60901896885464,29.08663781648175L85.68858125414167,32.599298566488315L86.08639268057688,32.747533018158876L86.16595496586392,40.68357895075776L86.40464182172502,50.80619631242378L86.5637663922991,46.57448748364725L86.9615778187343,50.78182107861133L87.12070238930838,43.53339373618877L87.35938924516951,41.09762935566743L87.51851381574357,43.96000304758664L87.59807610103061,39.14421736724953L87.67763838631765,33.87433369036267L87.7572006716047,35.229242025547435L87.91632524217879,40.196601376245226L87.99588752746583,48.52930033902957L88.15501209803989,37.40122539732712L88.31413666861397,56.059294435827965L88.39369895390102,66.01994360083759L88.47326123918806,74.75121878313004L88.71194809504918,96.18338076563185L88.9506349509103,103.9221276291213L89.3484463773455,118.74828100496485L89.66669551849365,119.90333956559292L89.7462578037807,115.75168101375644L89.90538237435477,114.09573976483372L90.14406923021589,111.42428842920705L90.46231837136405,104.5099664646046L90.54188065665109,101.84076076911703L90.70100522722517,100.77706602663554L90.7805675125122,98.20200203533977L90.86012979779925,94.31156269640697L90.93969208308629,94.5162032017659L91.25794122423446,91.63141268885775L91.33750350952148,92.39236206469093L91.49662808009556,93.21326414487773L91.5761903653826,91.63176209167524L91.89443950653077,94.77964301767618L92.53093778882707,107.26946305046414L92.84918692997523,122.76854384987608L92.92874921526229,134.97682116353863L93.16743607112339,142.2866672181677L93.24699835641043,147.10545734551624L93.32656064169747,153.8074145228408L93.48568521227155,158.4371723164965L93.5652474975586,160.13925576018738L93.72437206813268,159.49674154554498L93.88349663870675,160.60878295592863L93.96305892399378,161.98758406767018L94.12218349456788,161.82374119783944L94.28130806514196,162.3692588817313L94.51999492100306,164.40961275883612L94.7586817768642,166.7343741264927L95.07693091801234,165.88288264057755L95.15649320329938,165.97167636214627L95.71342920030865,161.688853225092L95.87255377088275,162.76898432454465L95.95211605616979,162.39695894604085L96.34992748260497,164.17666571198788L96.66817662375314,164.9675034155836L96.82730119432722,165.45103715722124L97.14555033547538,165.74220015526924L97.54336176191059,162.15093521092055L97.94117318834577,161.62064389137723L98.02073547363281,162.80574382769115L98.10029775891987,164.38948706007977L98.33898461478097,164.4762634751212L98.49810918535505,165.97800082977224L98.65723375592913,166.28779521442516L98.73679604121618,164.8852702852131L98.89592061179025,162.50075410974614L99.13460746765136,164.5506129221366L99.2141697529384,164.9166453938529L99.29373203822546,163.02831843499567L99.45285660879952,161.63092927968984L99.6119811793736,161.66516332056312L99.69154346466064,164.17386288463177L99.85066803523473,163.59490664423453L100.00979260580881,164.13419063532768L100.32804174695696,163.49906968098443L100.48716631753105,164.97498957840733L100.80541545867919,164.92423498684497L100.88497774396623,161.12953477196953L101.12366459982736,163.67621783310085L101.28278917040144,162.9077632346565L101.52147602626255,164.3393817086264L101.68060059683664,166.20209165420195L101.83972516741072,168.1656421423157L102.07841202327182,169.03614350903646L102.31709887913296,167.18897661931598L102.39666116442,165.4046283657191L102.7944725908552,165.93937254385105L103.19228401729038,167.0742700309157L103.51053315843855,165.42322960823032L103.59009544372559,165.75558650398986L103.66965772901263,166.1449875167798L103.82878229958669,162.5869348903251L103.90834458487375,164.32644239022912L103.98790687016078,164.83543694980682L104.38571829659598,167.2344023102526L104.6244051524571,165.7266702375291L104.70396743774414,166.89352911636115L104.78352972303118,165.53803443243677L104.86309200831822,163.20813486995243L105.02221657889231,162.5607002935902L105.26090343475342,163.6288044876832L105.49959029061453,164.09213684532918L106.2156508581979,164.21811503809064L106.45433771405901,165.07001007675106L107.01127371106828,162.18126398190267L107.09083599635532,153.72721689233435L107.17039828164236,147.89526685216956L107.48864742279054,139.21436613395898L107.6477719933646,141.3390143817581L107.80689656393868,137.34652298828576L107.88645884922573,144.6135449665145L108.20470799037388,149.5425580023129L108.68208170209613,154.51659020501805L108.84120627267019,157.96217307456618L109.07989312853132,160.4315935528487L109.15945541381836,163.32171576165302L109.39814226967948,163.35232730454837L109.6368291255406,163.56127453895695L109.79595369611468,165.72257517144104L109.95507826668876,165.33035937908L110.35288969312396,166.18508991764722L110.432451978411,164.97731528248366L110.67113883427211,165.27801302980114L110.98938797542027,164.66106640353144L111.14851254599435,164.2715126626785L111.46676168714251,161.96910948997294L111.54632397242955,162.83828028908243L111.78501082829067,161.00984100335918L111.94413539886476,157.1066204334971L112.02369768415178,154.5280460918987L112.2623845400129,157.85442369457215L112.34194682529994,159.72034177677878L112.58063368116107,155.2907666489992L112.6601959664481,146.5584275612021L112.73975825173514,151.5589205008512L113.21713196345739,157.9758745380367L113.61494338989257,161.03213627110156L113.77406796046667,162.85255244914416L113.85363024575369,163.20451705159348L114.96750223977226,164.9527279115885L115.0470645250593,165.9512564906073L115.20618909563336,164.1505548982646L115.76312509264264,158.2911693120511L115.84268737792968,160.0560183636189L115.92224966321672,161.87716206413617L116.24049880436489,164.12462193466166L116.32006108965193,163.69220606886662L116.63831023080009,160.76749172358953L116.95655937194823,159.57710394274002L117.03612165723527,158.34666792311955L117.19524622780936,156.07779389432326L117.35437079838344,155.11155279417372L117.43393308367048,156.55202997197395L117.51349536895752,155.87738088660652L117.59305765424455,154.7153928597236L118.22955593654086,158.5018655371319L118.54780507768903,159.183552789377L118.70692964826311,159.25938607269606L118.94561650412423,160.39342085431232L119.34342793055943,161.42093645106308L119.82080164228167,163.2885627197189L119.9003639275687,164.57768969930726L119.97992621285576,165.80628163285357L120.13905078342982,165.76040378235683L120.37773763929094,164.9684885525035L121.17336049216135,163.1030857841954L121.33248506273543,163.69824818687184L121.4916096333095,164.92528701343608L121.73029648917063,162.49778756995673L121.96898334503175,163.07311047314198L122.12810791560581,164.70735033664494L122.20767020089285,165.58092137335416L122.60548162732806,165.64659553758568L122.68504391261509,164.69950014419558L122.92373076847622,165.86195251558718L123.00329305376326,164.30310094100327L123.0828553390503,164.17793955601368L123.3215421949114,165.44815734254772L123.40110448019844,164.21175030525674L123.71935362134661,163.49511354082233L123.87847819192068,163.74484124712274L124.35585190364293,164.61250154417655L124.514976474217,164.80793890800214L124.75366333007813,164.9588054725438L125.07191247122628,162.69387047230694L125.39016161237444,162.90603893333886L125.54928618294852,161.82409472860076L125.86753532409668,160.08833561489433L125.94709760938372,159.7640292191722L126.34490903581893,158.11425573290492L126.504033606393,160.40214178875L127.45878102983748,160.13176832415448L127.77703017098563,159.54561170287147L127.85659245627267,161.094978319553L127.9361547415597,160.89471529581948L128.17484159742082,163.39315931476077L128.3339661679949,161.54925920113658L128.57265302385602,163.50203527018357L128.89090216500418,163.4543386892741L129.05002673557826,164.40942242675467L129.1295890208653,164.70038932966077L129.44783816201345,164.70105871759534L129.5274004473005,164.84033037714678L129.76608730316164,164.39625410997095L130.08433644430977,165.35012884467727L130.1638987295968,166.2076847478992L130.32302330017092,166.17307421201892L130.48214787074497,165.648105310263L130.72083472660609,166.72648018338882L131.11864615304128,167.0512215249995L131.27777072361536,167.2799313715384L131.43689529418944,164.95889177485824L131.6755821500506,165.8369340454134L132.07339357648578,166.6646611686154L132.15295586177282,165.42603624696866L132.3120804323469,161.53903203024092L132.47120500292095,163.49623150565714L132.550767288208,161.61361042376188L132.63032957349506,162.98938494672745L132.86901642935618,162.4349701393412L133.26682785579138,161.7802815890686L133.42595242636546,162.33576996213026L133.5055147116525,161.67747149398275L133.82376385280065,162.2049822579335L134.22157527923582,160.98885332520337L134.539824420384,157.74180193304696L134.85807356153214,159.96685894652887L134.9376358468192,161.75086170958392L135.3354472732544,163.51740374025107L135.49457184382848,165.00824894060253L135.65369641440256,165.93908014436465L135.81282098497664,162.99503550833788L136.05150784083776,161.05285058553196L136.1310701261248,162.9560807162567L136.44931926727295,162.89178209197627L136.9266929789952,141.3098562556665L137.08581754956927,124.43410020308173L137.24494212014335,111.47399152109661L137.40406669071743,90.34263990286637L137.48362897600447,76.64238811579604L137.88144040243967,70.68818335143128L138.27925182887486,69.31409205971886L138.51793868473598,79.85330012478154L138.67706325531006,79.43313300158977L138.83618782588414,81.64865857681279L138.91575011117118,82.30250515545387L139.07487468174526,82.74430867308392L139.23399925231934,85.79761474843404L139.47268610818045,87.94970287875627L139.63181067875453,80.96401095134777L139.71137296404157,82.04121374325041L139.7909352493286,87.05909087732987L139.87049753461568,93.4868502093802L140.42743353162496,95.67005527112093L140.586558102199,94.13165068616298L140.82524495806013,99.63350403013185L140.90480724334716,103.29125580615488L140.98436952863423,105.02774817540956L141.46174324035644,93.08957601774283L141.85955466679164,71.69632848191587L142.09824152265276,65.39425907312585L142.1778038079398,60.00271184168026L142.81430209023614,54.19857909373997L142.89386437552315,46.61505019905249L142.97342666081022,39.33516270234998L143.05298894609723,34.59943902303218L143.2121135166713,25.86884691974325L143.6099249431065,36.11091378361283L143.76904951368059,45.59269536186778L143.84861179896762,49.98656395636898L144.48511008126397,60.79262264560504L144.56467236655098,63.14712136782604L144.88292150769914,62.59236173708437L145.04204607827324,62.531377109741165L145.20117064884732,63.43311500918871L145.28073293413433,60.20516944813562L145.4398575047084,68.20861673920155L145.7581066458566,76.7551244067314L145.8376689311436,84.53433841781812L145.9967935017177,89.69009060127054L146.1559180722918,94.4640987405721L146.2354803575788,94.04845138588414L146.3946049281529,98.42590492275964L146.47416721343996,105.7218434931911L146.55372949872697,108.09449811084592L146.63329178401403,117.21089188004575L146.95154092516216,135.68695441136688L147.03110321044923,145.86094125082266L147.26979006631032,152.0651688851806L147.3493523515974,156.58108359728078L147.42891463688443,157.66610845721414L147.7471637780326,158.7184226249776L147.8267260633196,160.91706194296108L147.9858506338937,163.57465553576654L148.38366206032887,166.7317620446492L149.02016034262522,166.62869974755571L149.25884719848634,166.9410674344234L149.41797176906041,167.55278832724372L149.5770963396345,167.10025008306442L149.65665862492153,164.1558561767008L149.9749077660697,164.55905271672856L150.13403233664377,158.08970796755543L150.3727191925049,161.11340489711995L150.45228147779193,163.65024223269845L150.61140604836598,165.6006887923005L151.16834204537525,163.58948358171614L151.32746661594936,165.47050177929972L151.4070289012364,166.74941532347992L151.72527804238456,167.3577518898996L151.8048403276716,167.81757271602174L152.04352718353272,165.66341864251063L152.12308946881976,166.96176669828589L152.2026517541068,168.3741861081315L152.36177632468087,165.6548567899639L152.4413386099679,166.34486648947444L152.600463180542,165.77555534023065L152.75958775111607,166.72551729680933L152.8391500364031,167.2851969736456L153.15739917755127,168.67829219957204L153.3960860334124,166.2575722926575L153.71433517456055,165.60836582913763L153.79389745984759,165.38070720903866L154.0325843157087,165.699664678914L154.19170888628278,165.9707683583889L154.35083345685686,167.41442413271824L154.4303957421439,167.74606005295115L154.50995802743094,168.5892041748052L155.2260185950143,168.29754150417043L155.3851431655884,168.70637608381156L155.6238300214495,168.423461735434L155.78295459202357,169.24848422841436L155.94207916259768,169.29083729331197L156.49901515960696,167.78047968427975L156.57857744489397,167.76794011022608L156.8172643007551,166.08589781394548L156.89682658604212,163.82781496192007L156.97638887132916,165.22949250394836L157.3742002977644,162.77842904111125L157.61288715362548,162.13051816260725L157.7720117241996,163.69684749633728L158.01069858006068,164.81375616638508L158.09026086534772,167.09917079875487L158.16982315063476,167.63042255780627L158.48807229178294,167.68351508385408L158.56763457706995,164.82669075291733L158.72675914764403,161.78019047191728L158.88588371821814,163.56998499028902L158.96544600350515,161.42470243216493L159.2836951446533,162.78069491953144L159.36325742994035,163.16128616622802L159.6815065710885,163.31081035615296L159.76106885637557,164.88102219381685L159.92019342694965,166.1202287336963L160.0793179975237,166.06988213797544L160.47712942395893,164.89985480195054L160.55669170924597,164.7128830449026L160.71581627982005,165.2480666034649L160.95450313568114,163.85509154700628L161.5114391326904,163.91937136938944L161.6705637032645,162.68326930193717L161.98881284441268,160.16294465073636L162.0683751296997,160.49242943087842L162.38662427084788,161.1680287715118L162.4661865561349,161.5460747058425L162.94356026785715,160.65923371015853L163.18224712371824,157.93339780290793L163.2618094090053,145.86293298618844L163.34137169429232,147.79299580227672L163.50049626486643,153.63270859914064L163.58005855015347,160.47509822655132L163.6596208354405,160.67296521565942L163.73918312072752,163.02302250257037L164.0574322618757,162.77952962951437L164.13699454716274,163.46977818442542L164.2961191177368,165.30467339960077L164.37568140302386,165.4716110587882L164.53480597359794,166.25410272551227L164.77349282945906,163.51896494251136L164.8530551147461,163.56283373876795L165.17130425589426,164.02516245733284L165.2508665411813,164.4680397961703L165.8873648234776,165.5486350657998L166.2851762499128,166.2067588234057L166.76254996163505,164.24384416113725L166.84211224692206,163.05402170784973L166.92167453220912,161.50603511108955L167.31948595864432,163.32660365307984L167.63773509979248,160.07395757416788L168.11510881151474,159.5578905527809L168.43335795266287,160.35813964107808L168.75160709381103,160.4633365431173L168.9107316643851,160.76537227103336L169.0698562349592,159.66821323559572L169.3085430908203,159.21118240778935L169.7063545172555,157.97185660768108L170.1041659436907,157.97758066442904L170.66110194069998,158.33116312981383L171.13847565242222,161.6215043358029L171.2976002229963,161.52365021903876L171.4567247935704,162.30224858279036L171.61584936414448,164.8687341441765L171.6954116494315,165.18382752525628L171.9340985052926,163.68453506505278L172.65015907287597,162.7124041846108L173.5253442110334,163.6675052999365L173.60490649632047,164.55274461988367L173.84359335218159,161.65151658566995L173.9231556374686,161.6355794722509L174.24140477861675,145.49072544728125L174.32096706390382,151.2154192534972L174.48009163447787,156.59894472386225L174.8779030609131,160.25240946825903L175.11658991677422,159.23890636981807L175.5144013432094,162.02421204115544L175.59396362849645,164.39093699990056L175.6735259137835,164.56174469211874L175.83265048435757,163.61156884552818L175.91221276964458,165.90423068763909L176.31002419607978,162.4357149073827L176.38958648136685,164.5889924886699L176.62827333722794,164.64313577900276L176.707835622515,163.6356101592837L177.1056470489502,162.68311798499718L177.5830207606724,164.32322532010625L177.66258304595948,164.2028850195652L178.06039447239468,160.566687935139L178.37864361354283,162.34239522512576L178.77645503997803,160.80443831643976L179.41295332227432,164.06864653990903L180.68594988686698,162.4378125041553L180.76551217215402,164.28687367910317L181.16332359858922,165.76455792512914L182.19763330732073,165.08189550958198L182.27719559260777,160.62997718048427L182.67500701904297,161.96088925749294L182.83413158961704,160.72032998539112L182.99325616019112,161.36950054759203L183.0728184454782,163.3504573343518L183.1523807307652,162.82650454673595L183.47062987191336,164.90821252836525L183.62975444248747,165.20504723139945L183.78887901306155,165.197373602104L183.9480035836356,163.26970831904893L184.18669043949674,148.8544343500453L184.26625272478375,153.58936336288411L184.42537729535783,152.99625912245935L184.5845018659319,153.9780317625132L184.66406415121895,158.9335227629062L184.74362643650602,157.80794100257785L184.82318872179303,160.30441817745262L184.9823132923671,162.7555369072668L185.06187557765415,164.79988508013705L185.1414378629412,165.5410539187768L185.3801247188023,166.56999551881427L186.01662300109865,166.0474106525813L186.33487214224678,166.2822053881331L186.41443442753385,165.64063478390497L186.65312128339494,165.1900755903649L187.1304949951172,164.91394115796786L187.21005728040421,165.02593926241533L187.3691818509783,163.27327354468247L187.7669932774135,161.03041818660242L187.92611784798757,159.6847049717544L188.00568013327464,160.78380897999372L188.32392927442277,161.2141377870947L188.40349155970983,163.58434361205838L188.80130298614503,165.28978245232565L188.9604275567191,166.38337443990326L189.03998984200612,164.6598217811458L189.1991144125802,166.11558697113205L189.91517498016358,163.53464205570876L189.99473726545062,163.2848919650704L190.15386183602467,163.60189711791799L190.31298640659875,163.84923173073662L190.5516732624599,164.94279828830446L190.63123554774694,165.61837575288197L191.3472961153303,164.93382869370987L191.82466982705253,164.7313839641752L192.3816058240618,165.2570203592019L192.69985496520994,161.17391861254603L192.779417250497,161.66758920402097L193.09766639164516,163.28128976523206L193.8137269592285,162.26416251502192L194.13197610037668,160.95686330326802L194.21153838566372,162.45036086876962L194.29110067095075,162.60237434256308L194.68891209738595,163.72159449223363L195.1662858091082,166.01529338079706L195.4049726649693,167.23477094318406L195.48453495025635,165.49754786082573L195.5640972355434,164.07091353952393L195.8027840914045,165.5007913656789L195.96190866197858,163.1428489721711L196.12103323255266,164.76792737695772L196.20059551783973,165.65735685618085L196.28015780312674,165.59657903728288L196.5984069442749,166.60519566217917L196.75753151484898,167.3827594709583L196.9962183707101,166.94596632483632L197.07578065599714,164.47074188914482L197.15534294128418,166.28172730513273L197.47359208243236,165.81291238520703L197.95096579415457,162.21283527908304L198.50790179116385,163.7383272542863L198.5874640764509,165.1323276780001L198.66702636173792,164.61192646619816L199.06483778817312,150.00116209501675L199.1444000734602,148.80240226319236L199.30352464403427,153.66793341932853L199.94002292633056,159.37341417646664L200.09914749690464,160.52371421966404L200.25827206747874,163.30531276149858L200.33783435276575,165.25957293520398L200.5765212086269,165.68562882861488L201.13345720563618,167.03405184070024L201.3721440614973,166.6269180662014L201.53126863207137,165.1153876208715L201.69039320264545,164.43408624816763L202.08820462908065,161.55540316015674L202.48601605551582,157.9907017276516L202.5655783408029,156.72303438107457L202.64514062608993,153.2593927464615L202.96338976723808,154.0174083103456L203.0429520525251,152.27439897872625L203.52032576424736,151.3379905170825L203.67945033482144,149.8979576922339L203.8385749053955,149.09595654342502L204.07726176125664,148.52415146268547L204.15682404654365,148.39307444098287L204.23638633183072,150.21272332695554L204.31594861711775,149.56754529036212L204.55463547297884,151.7663468042652L204.71376004355292,152.05810513653879L205.11157146998812,152.81842372220243L205.35025832584927,155.13014218860738L205.50938289642335,153.74220609920283L205.82763203757148,148.381450351393L205.90719432285854,135.07011358680225L206.30500574929374,139.858302957332L206.6232548904419,140.66277797253218L206.86194174630302,149.2600712611758L206.94150403159003,153.28588157407555L207.1006286021641,155.99651408896563L207.4188777433123,151.3859721713225L207.49844002859933,147.55426563400803L207.65756459917338,143.14481717825353L207.73712688446045,138.2807626007597L208.21450059618266,146.8647542218181L208.29406288146973,152.59024448894607L208.4531874520438,153.0942753018766L208.61231202261789,155.28830334236685L208.850998878479,155.75284640421734L208.93056116376604,155.49211110719017L209.08968573434012,158.96390395888267L209.32837259020124,161.37983531054573L209.6466217313494,162.5212291176187L209.80574630192348,158.8730354860851L209.88530858721052,158.64549309834655L210.04443315778462,160.96977917739446L210.12399544307164,161.975244495381L210.6809314400809,91.4989023528365L210.840056010655,49.01074168291854L211.0787428665161,19.627327796133113L211.2378674370902,4.853167252848461L211.31742972237726,1.4139950316938097L211.39699200766427,4.720966495631457L211.87436571938653,28.69311260818961L212.6699885722569,39.22074503237557L212.82911314283098,43.569474693943235L213.22692456926617,58.224698604511666L213.38604913984025,75.85925585353218L213.70429828098844,103.23573143796091L213.78386056627545,105.87626472629104L213.86342285156252,101.54603464832458L214.02254742213657,99.75415426563069L214.18167199271065,104.58235344675914L214.26123427799772,107.70643078883276L214.57948341914584,103.1284752776057L215.05685713086808,76.55513400358376L215.2159817014422,44.38581865586353L215.37510627201627,21.11343239994471L215.69335541316443,6.594629866795997L216.40941598074775,9.257344298390437L216.48897826603482,9.743045359717252L216.56854055132183,12.485000302952136L216.88678969247,8.757034855218562L217.2846011189052,0.20982213948542944L217.36416340419225,1.2272607661466566L217.44372568947927,-1.3140506195762498L217.76197483062745,9.826641715707288L217.84153711591446,12.18086392012232L218.0802239717756,16.812935017201163L218.2393485423497,23.56249103108287L218.4780353982108,25.947185698532955L218.875846824646,28.639238421186626L219.03497139522008,33.45326872137813L219.19409596579416,34.637588203214406L219.2736582510812,36.96984891935972L219.67146967751637,37.28504364003174L219.83059424809048,35.3451485964999L220.22840567452565,37.83307691916428L220.4670925303868,39.07263127166512L220.62621710096087,42.23188355211863L220.78534167153492,43.67579943542427L221.18315309797015,48.7692131385754L221.42183995383127,48.35144423406864L221.58096452440535,52.88181315056421L221.74008909497942,56.05559583890712L221.81965138026646,58.574246613088164L222.05833823612755,59.21814812845419L222.13790052141462,57.5773638266302L222.21746280670166,58.66184121971881L222.45614966256278,53.81253944960941L222.53571194784982,52.17973870173073L222.61527423313683,49.871423543327175L223.25177251543317,50.709332199109774L223.3313348007202,54.39831664100203L223.41089708600725,54.10792384951328L223.57002165658133,58.91534114194965L223.64958394186837,59.38198922141449L223.96783308301653,54.68418800906895L224.1269576535906,55.36039812449837L224.84301822117396,52.03869361965197L225.24082964760916,53.025171739296425L225.3203919328962,49.6286664517057L225.39995421818324,52.605105188487876L225.55907878875735,55.607688155948665L225.95689021519252,56.68448231574792L226.03645250047956,55.96320557907325L226.11601478576662,54.719305200981374L226.19557707105363,53.661401290928964L226.3547016416277,51.584104912240214L226.5138262122018,48.907927934981075L226.83207535334998,51.61683411085562L227.1503244944981,52.91769028978898L227.22988677978515,54.80318432495126L227.38901135035925,56.48738999894987L227.62769820622034,56.59271097976354L227.78682277679442,57.75359539170463L228.3437587738037,54.597757248390636L228.7415702002389,53.36778985950111L228.98025705610002,51.27589685822474L229.37806848253524,50.40616060267206L229.61675533839636,53.202824573965415L229.69631762368337,53.73876401953989L229.77587990897044,56.90286094792922L230.0941290501186,57.858213145803944L230.41237819126673,58.94905735637897L230.5715027618408,55.61285265378086L231.20800104413715,57.04988262678584L231.28756332942416,55.529196998599325L231.36712561471123,55.91882722935808L231.68537475585936,56.82746786326245L232.00362389700754,51.896484195038894L232.3218730381557,52.18028122966996L232.4014353234427,54.28034337294956L232.7196844645909,50.21634357386208L232.7992467498779,54.28473607458814L232.87880903516498,49.93883890426338L232.958371320452,51.977334508891374L233.27662046160017,49.7416655067522L233.51530731746126,53.34644193435596L233.7539941733224,52.31146325579733L233.91311874389646,55.89823562417362L234.07224331447054,50.9731281923767L234.39049245561873,51.94022326587914L234.78830388205392,49.680196546414706L234.86786616734096,48.24806533863278L234.947428452628,51.96306850842324L235.10655302320208,53.912503261194054L235.1861153084891,57.54080853686228L235.3452398790632,56.53087661070993L235.50436444963728,52.90065858984797L235.58392673492432,54.355774310458095L235.66348902021136,55.087327492011205L236.29998730250767,55.568602298256515L236.45911187308172,53.48374316123358L236.69779872894287,50.93809114048117L236.7773610142299,50.08450890330473L236.85692329951695,52.99729070095105L236.936485584804,53.48784186231259L237.09561015537807,52.946794007211174L237.25473472595215,47.52628158592662L237.49342158181327,50.14098491450154L237.5729838671003,52.78707767109502L237.89123300824846,52.3302250311342L237.9707952935355,54.06951307932879L238.05035757882254,55.14505262573068L238.2890444346837,51.200553380065365L238.92554271697998,52.13441989772211L240.3576638521467,51.765544953595075L240.43722613743373,53.73218261141435L240.83503756386895,52.27320981040931L240.91459984915596,51.44465808320764L241.07372441973007,52.77756447440969L241.23284899030415,47.07981871086737L241.31241127559116,49.102102695735354L241.55109813145228,49.38395584941283L241.86934727260044,54.38992794413527L241.9489095578875,53.544372543099485L242.10803412846155,54.190150262638426L242.26715869903563,51.41911703090157L242.3467209843227,50.38609134938582L242.74453241075787,52.05234183331467L242.8240946960449,50.425815412586786L243.06278155190606,49.645463383670275L243.14234383719307,53.09269302307343L243.46059297834125,56.61512055398379L243.54015526362826,56.8201252770771L243.61971754891533,54.3205685370661L244.09709126063754,50.303345335302L244.25621583121162,56.28335872160883L244.3357781164987,57.36933253781264L244.4153404017857,54.137151148093025L245.44965011051724,53.40027988408444L245.52921239580425,55.571195262500765L245.68833696637836,49.97911422815836L246.08614839281353,55.77580861212507L246.48395981924872,53.69833838887841L246.6430843898228,50.61630275479749L247.12045810154507,55.393050739509604L247.27958267211915,57.62001365237368L247.43870724269323,56.315009697612446L247.5978318132673,57.187451943545646L247.67739409855434,61.01138728042234L247.83651866912842,60.491577442292446L248.23433009556362,56.09289794540728L248.31389238085066,52.56347232604172L248.3934546661377,48.47705609843477L248.4730169514247,49.863130661911406L248.71170380728586,50.536280247006864L248.7912660925729,55.297724902738146L249.029952948434,54.66643609395029L249.10951523372105,54.134696980123024L249.1890775190081,53.22830276291804L249.26863980429513,57.442395245963645L249.58688894544326,52.77318102833376L249.66645123073033,48.68345242243599L250.06426265716553,48.50613652399443L250.2233872277396,49.87378404341965L250.6211986541748,51.062816388806006L250.70076093946184,56.292242785267554L250.85988551003595,59.84362063366802L251.01901008061,58.655527498518L251.09857236589704,57.85263208506082L251.25769693647112,53.32148133142212L251.4168215070452,54.579697018352974L251.8146329334804,51.34384562948138L252.05331978934151,51.46390150320943L252.2124443599156,53.73126566704767L252.29200664520263,55.20685909885359L252.6102557863508,53.45683444232829L253.008067212786,49.87971960378397L253.56500320979526,45.28937003352432L253.6445654950823,45.263161332475526L254.0423769215175,46.24458301779933L254.20150149209158,49.62543345124478L254.59931291852678,51.204822760346104L254.67887520381382,55.632538272988334L254.75843748910086,52.36565101278109L254.8379997743879,56.53845714510294L255.55406034197125,53.5400488911417L255.95187176840645,51.17215936499075L256.19055862426757,53.55752568898632L256.27012090955463,52.565801478863825L256.98618147713796,53.44606293475903L257.14530604771204,53.968263112468776L257.3839929035732,51.89576420536537L257.54311747414727,53.239948941658504L258.0204911858695,53.499477409751805L258.57742718287875,56.935047951485366L258.73655175345283,52.61855804193982L258.8161140387399,56.265602915811414L258.975238609314,57.55158919967994L259.21392546517507,57.6420271701158L259.5321746063233,54.25335620668215L259.77086146218437,56.53649535415668L259.8504237474714,57.8413753227144L260.00954831804546,56.16927000245277L260.16867288861954,57.87484902383347L260.2482351739066,58.22221416190818L260.72560888562884,55.91242517543012L260.8051711709159,55.77750097572472L260.96429574148993,55.242356681456194L261.123420312064,56.00243690121401L261.36210716792516,57.0407437678023L261.91904316493446,55.25489045210804L262.23729230608257,58.43230814890742L262.31685459136963,60.10243232641459L262.5555414472307,56.7547870704205" fill="none"></path></g></g></g></g><g opacity="0.2"><g><g><g><path style="fill: none;" stroke="rgb(255, 112, 67)" stroke-width="2px" d="M40.17895406995501,119.99096581042122L40.25851635524205,85.99682660464983L40.81545235225133,125.2063586275184L41.213263778686525,114.48275318989165L41.3723883492606,116.18919911786645L41.61107520512172,121.73111278862064L41.7701997756958,116.14181141600847L41.84976206098284,119.96299203378479L42.00888663155692,121.35334049756133L42.168011202131005,121.35334049756133L42.406698057992116,115.24153204581532L42.565822628566195,107.64284800081552L43.12275862557547,-100.69883348431705L50.681175727844234,-166.87431178112308L51.3972362954276,146.87833496743966L51.87461000714983,138.8105093610892L52.27242143358503,145.2869045369352L52.35198371887207,147.26429440230507L52.59067057473319,154.60134598833568L52.74979514530727,130.9790404260395L52.908919715881346,151.81608753377074L53.38629342760359,153.33660827110782L53.46585571289063,153.7369935610307L54.18191628047398,154.5683033882199L54.341040851048064,155.27347032521902L54.500165421622135,147.92415458826184L54.738852277483254,142.13734717136816L55.454912845066616,153.66785215840716L55.693599700927734,148.43427121000173L55.773161986214774,150.70261734076013L55.93228655678885,147.37133395694758L56.17097341264997,158.00763056662083L56.72790940965925,155.8099104571276L56.88703398023333,161.48300788848056L56.966596265520366,162.03327857857144L57.28484540666852,159.82536077478252L57.36440769195556,164.29348518927372L57.44396997724261,162.45503347336302L57.52353226252965,156.8304045959335L57.76221911839077,158.51843048564345L57.84178140367781,163.87878171538043L58.160030544825965,166.27530716929132L58.239592830113,158.82820848527513L58.319155115400044,162.39756713658437L58.71696654183524,161.5850925025242L58.87609111240932,163.04544477291904L58.95565339769636,165.73034238613093L59.27390253884452,162.6015303401879L59.671713965279714,164.82305300699605L59.751276250566754,159.28905109053704L59.91040082114083,161.5515426059409L60.06952539171491,154.82195990436128L60.14908767700195,158.26892551814427L60.22864996228899,158.26892551814427L60.46733681815011,147.8135556759555L60.626461388724195,166.8954118769787L60.86514824458531,158.18081329823406L61.024272815159385,163.07471370849595L61.26295967102051,161.59242552472685L61.34252195630754,166.6016064689809L61.6607710974557,166.68828065870056L61.74033338274275,165.05879885193792L61.81989566802979,160.64455139289308L61.899457953316826,165.9776483787383L62.138144809177945,164.60388333295447L62.217707094464984,164.87269558988714L62.61551852090018,160.11076990859377L63.2520168031965,168.48204576761802L63.411141373770576,155.9916219811883L63.49070365905762,166.33750792800032L63.649828229631694,153.62825404557256L63.80895280020578,166.80394114739386L63.88851508549281,165.90752758334284L64.12720194135393,167.97217865291623L64.20676422664097,162.26986198033416L64.28632651192801,165.5397573150846L64.44545108250209,164.42463892620404L64.92282479422433,163.96096270781652L65.00238707951137,162.83081695520994L65.0819493647984,158.5622712534246L65.47976079123362,164.91698567739664L65.63888536180768,166.99740227882123L65.71844764709472,165.01433586950992L65.8775722176688,162.46804407480602L66.67319507053921,130.72907371522498L66.83231964111327,132.26546558490242L67.0710064969744,92.3899961714562L67.30969335283552,80.50372934825394L67.4688179234096,77.71364847135101L67.70750477927072,71.1028507905849L67.8666293498448,66.53368741395245L68.02575392041888,60.04957719060482L68.18487849099296,39.624612179918486L68.42356534685408,57.562797483332176L68.50312763214112,54.740970200552866L68.6622522027152,59.695024583572234L69.21918819972447,51.151381808478405L69.29875048501151,42.96377418846096L69.37831277029855,46.96117096366639L69.45787505558559,37.79858508626586L70.25349790845598,24.23083546248546L70.49218476431712,19.760944828048224L70.57174704960416,13.399687314944345L70.8899961907523,24.55596901559869L71.2878076171875,68.86277867314779L71.44693218776158,68.84945230553623L71.60605675833565,58.63372724399672L71.84474361419677,54.32304073524581L72.08343047005789,51.9068932610318L72.56080418178013,47.38814480027973L72.64036646706717,48.80708407884502L72.79949103764126,41.83192743973987L72.8790533229283,53.783741107738805L73.35642703465052,40.18789761264803L73.43598931993758,60.418715088727495L73.6746761757987,52.612702083357135L73.99292531694685,41.81540406908415L74.07248760223389,41.89705188257993L74.15204988752093,52.36264012504262L74.23161217280797,47.20926171285005L74.62942359924317,23.96081294112318L74.86811045510429,42.93592050649846L74.94767274039131,53.02936434279435L75.02723502567835,39.14217116872803L75.42504645211356,25.339135372723234L75.82285787854876,55.4244662606995L75.98198244912284,50.704613056643424L76.06154473440988,22.97804095352103L76.14110701969692,37.38181515574166L76.22066930498394,34.60380172297175L76.37979387555804,44.3871114168098L77.01629215785435,27.704188774969765L77.33454129900251,46.01698663715948L77.41410358428956,23.746497783685896L78.20972643715994,49.52450481378155L78.60753786359516,35.20230388353494L78.76666243416922,34.408453241625494L78.84622471945626,31.696036348000092L78.9257870047433,17.512308718000583L79.00534929003034,37.935377061077816L79.32359843117851,34.43477468119636L79.72140985761371,28.274729582483474L79.80097214290075,18.08601339899323L80.03965899876185,14.970177789629105L80.43747042519706,6.019662541621898L80.5170327104841,3.7274279237388157L80.83528185163225,-0.3854916454044428L80.9148441369193,-16.12710395052079L80.99440642220634,9.311863391458644L81.15353099278042,-23.023470201130777L81.39221784864152,-14.522059339306878L81.7104669897897,35.63618523449759L81.79002927507673,-24.65414053104584L82.10827841622489,11.161437323594583L82.18784070151193,29.649921270169813L82.58565212794713,48.86053863233475L82.7447766985212,43.04757542369633L83.1425881249564,46.43417068724898L83.22215041024344,44.56896788271838L83.30171269553048,16.483950448649523L83.5403995513916,26.263731843791163L83.61996183667864,39.7280758121146L83.69952412196568,51.63158657401621L83.9382109778268,38.36258280464773L84.01777326311384,49.51097138638734L84.09733554840088,25.6686420284461L84.17689783368792,25.17974903442817L84.57470926012311,53.04868716171154L84.7338338306972,40.22156553330743L84.81339611598423,32.39073020119261L84.89295840127129,33.34325489574479L84.97252068655833,45.57758093119564L85.21120754241943,45.65130249621146L85.37033211299351,41.284163208318006L85.60901896885464,10.123570869024093L85.68858125414167,37.868289691498205L86.08639268057688,32.96988469566469L86.16595496586392,52.58764784965611L86.40464182172502,65.99012235492279L86.5637663922991,40.22692424048249L86.9615778187343,57.092821471057434L87.12070238930838,32.66075272255489L87.35938924516951,37.443982784885435L87.51851381574357,48.2535635854654L87.59807610103061,31.92053884674391L87.67763838631765,25.969508175032388L87.7572006716047,37.26160452832457L87.91632524217879,47.64764040229193L87.99588752746583,61.02834878320611L88.15501209803989,20.709112984773384L88.31413666861397,84.0463979935792L88.39369895390102,80.96091734835203L88.47326123918806,87.84813155656875L88.71194809504918,128.33162373938455L88.9506349509103,115.5302479243555L89.3484463773455,140.98751106873019L89.66669551849365,121.63592740653499L89.7462578037807,109.52419318600175L89.90538237435477,111.61182789144964L90.14406923021589,107.41711142576709L90.46231837136405,94.13848351770089L90.54188065665109,97.83695222588567L90.70100522722517,99.18152391291326L90.7805675125122,94.33940604839617L90.86012979779925,88.47590368800778L90.93969208308629,94.8231639598043L91.25794122423446,87.30422691949553L91.33750350952148,93.53378612844072L91.49662808009556,94.44461726515787L91.5761903653826,89.25950901187154L91.89443950653077,99.50146440667756L92.53093778882707,126.00419309964607L92.84918692997523,146.01716504899403L92.92874921526229,153.28923713403245L93.16743607112339,153.2514363001113L93.24699835641043,154.33364253653912L93.32656064169747,163.86035028882756L93.48568521227155,165.38180900698006L93.5652474975586,162.6923809257237L93.72437206813268,158.53297022358134L93.88349663870675,162.27684507150414L93.96305892399378,164.0557857352825L94.12218349456788,161.57797689309334L94.28130806514196,163.18753540756907L94.51999492100306,167.4701435744933L94.7586817768642,170.2215161779776L95.07693091801234,164.60564541170484L95.15649320329938,166.10486694449932L95.71342920030865,155.26461851951058L95.87255377088275,164.38918097372363L95.95211605616979,161.83892087828517L96.34992748260497,166.84622586090836L96.66817662375314,166.1537599709772L96.82730119432722,166.17633776967767L97.14555033547538,166.1789446523413L97.54336176191059,156.7640377943975L97.94117318834577,160.82520691206227L98.02073547363281,164.58339373216202L98.10029775891987,166.7651019086627L98.33898461478097,164.60642809768328L98.49810918535505,168.23060686174884L98.65723375592913,166.75248679140455L98.73679604121618,162.781482891395L98.89592061179025,158.92397984654568L99.13460746765136,167.62540114072226L99.2141697529384,165.4656941014274L99.29373203822546,160.19582799670985L99.45285660879952,159.53484554673108L99.6119811793736,161.71651438187305L99.69154346466064,167.93691223073475L99.85066803523473,162.72647228363863L100.00979260580881,164.94311662196745L100.32804174695696,162.54638824946957L100.48716631753105,167.18886942454165L100.80541545867919,164.84810309950143L100.88497774396623,155.43748444965638L101.12366459982736,167.49624242479783L101.28278917040144,161.75508133699003L101.52147602626255,166.48680941958125L101.68060059683664,168.99615657256527L101.83972516741072,171.11096787448636L102.07841202327182,170.34189555911757L102.31709887913296,164.41822628473528L102.39666116442,162.72810598532377L102.7944725908552,166.74148881104892L103.19228401729038,168.77661626151271L103.51053315843855,162.94666897420217L103.59009544372559,166.25412184762916L103.66965772901263,166.72908903596476L103.82878229958669,157.24985595064302L103.90834458487375,166.93570364008517L103.98790687016078,165.59892878917339L104.38571829659598,170.83285035092126L104.6244051524571,163.46507212844384L104.70396743774414,168.64381743460925L104.78352972303118,163.5047924065502L104.86309200831822,159.7132855262259L105.02221657889231,161.58954842904689L105.26090343475342,165.2309607788227L105.49959029061453,164.78713538179812L106.2156508581979,164.4070823272329L106.45433771405901,166.34785263474166L107.01127371106828,157.8481448396301L107.09083599635532,141.0461462579819L107.17039828164236,139.14734179192234L107.48864742279054,126.1930150566431L107.6477719933646,144.52598675345672L107.80689656393868,131.35778589807725L107.88645884922573,155.51407793385758L108.20470799037388,156.9360775560105L108.68208170209613,161.9776385090758L108.84120627267019,163.13054737888837L109.07989312853132,164.1357242702725L109.15945541381836,167.65689907485947L109.39814226967948,163.39824461889145L109.6368291255406,163.87469539056977L109.79595369611468,168.96452612016716L109.95507826668876,164.74203569053844L110.35288969312396,167.4671857254981L110.432451978411,163.1656533297383L110.67113883427211,165.72905965077737L110.98938797542027,163.7356464641269L111.14851254599435,163.6871820513991L111.46676168714251,158.51550473091456L111.54632397242955,164.14203648774668L111.78501082829067,158.26718207477433L111.94413539886476,151.25178957870403L112.02369768415178,150.66018457950102L112.2623845400129,162.84399009858234L112.34194682529994,162.51921890008873L112.58063368116107,148.64640395732985L112.6601959664481,133.4599189295065L112.73975825173514,159.0596599103248L113.21713196345739,167.6013055938149L113.61494338989257,165.6165288706989L113.77406796046667,165.58317671620804L113.85363024575369,163.73246395526752L114.96750223977226,167.57504420158102L115.0470645250593,167.44904935913553L115.20618909563336,161.44950250975054L115.76312509264264,149.50209093273082L115.84268737792968,162.70329194097062L115.92224966321672,164.60887761491205L116.24049880436489,167.4958117404499L116.32006108965193,163.04358227017406L116.63831023080009,156.3804202056739L116.95655937194823,157.79152227146577L117.03612165723527,156.50101389368888L117.19524622780936,152.6744828511288L117.35437079838344,153.66219114394943L117.43393308367048,158.71274573867427L117.51349536895752,154.86540725855536L117.59305765424455,152.97241081939924L118.22955593654086,164.1815745532443L118.54780507768903,160.20608366774465L118.70692964826311,159.37313599767464L118.94561650412423,162.09447302673675L119.34342793055943,162.9622098461892L119.82080164228167,166.09000212270263L119.9003639275687,166.51138016868978L119.97992621285576,167.64916953317302L120.13905078342982,165.69158700661174L120.37773763929094,163.78061570772348L121.17336049216135,160.30498163173326L121.33248506273543,164.59099179088648L121.4916096333095,166.7658452532824L121.73029648917063,158.85653840473773L121.96898334503175,163.9360948279199L122.12810791560581,167.1587101318993L122.20767020089285,166.89127792841802L122.60548162732806,165.745106783933L122.68504391261509,163.2788570541104L122.92373076847622,167.60563107267456L123.00329305376326,161.9648235791274L123.0828553390503,163.99019747852932L123.3215421949114,167.3534840223487L123.40110448019844,162.35713974932028L123.71935362134661,162.42015839417076L123.87847819192068,164.11943280657334L124.35585190364293,165.91399198975728L124.514976474217,165.10109495374047L124.75366333007813,165.18510531935632L125.07191247122628,159.29646797195167L125.39016161237444,163.22429162488675L125.54928618294852,160.2011784214936L125.86753532409668,157.4846969443347L125.94709760938372,159.2775696255889L126.34490903581893,155.6395955035041L126.504033606393,163.83397087251754L127.45878102983748,159.72620812726126L127.77703017098563,158.66637677094693L127.85659245627267,163.41902824457526L127.9361547415597,160.59432076021926L128.17484159742082,167.14082534317265L128.3339661679949,158.78340903070028L128.57265302385602,166.4311993737541L128.89090216500418,163.38279381790989L129.05002673557826,165.84204803297553L129.1295890208653,165.1368396840199L129.44783816201345,164.70206279949727L129.5274004473005,165.04923786647393L129.76608730316164,163.73013970920724L130.08433644430977,166.78094094673673L130.1638987295968,167.49401860273213L130.32302330017092,166.12115840819845L130.48214787074497,164.8606519576291L130.72083472660609,168.34404249307752L131.11864615304128,167.53833353741555L131.27777072361536,167.62299614134676L131.43689529418944,161.47733237983803L131.6755821500506,167.15399745124614L132.07339357648578,167.90625185341838L132.15295586177282,163.56809886449855L132.3120804323469,155.7085257051493L132.47120500292095,166.43203071878145L132.550767288208,158.78967880091903L132.63032957349506,165.0530467311758L132.86901642935618,161.60334792826183L133.26682785579138,160.79824876365973L133.42595242636546,163.16900252172272L133.5055147116525,160.69002379176152L133.82376385280065,162.99624840385957L134.22157527923582,159.1646599261082L134.539824420384,152.87122484481233L134.85807356153214,163.30444446675176L134.9376358468192,164.4268658541665L135.3354472732544,166.16721678625183L135.49457184382848,167.24451674112967L135.65369641440256,167.33532695000787L135.81282098497664,158.57896855429775L136.05150784083776,158.13957320132303L136.1310701261248,165.81092591234386L136.44931926727295,162.7953341555556L136.9266929789952,108.93696750120185L137.08581754956927,99.12046612420451L137.24494212014335,92.03382849811892L137.40406669071743,58.645612475521006L137.48362897600447,56.092010435190545L137.88144040243967,61.75687620488415L138.27925182887486,67.25295512215024L138.51793868473598,95.6621122223756L138.67706325531006,78.80288231680208L138.83618782588414,84.97194693964734L138.91575011117118,83.28327502341548L139.07487468174526,83.40701394952899L139.23399925231934,90.37757386145924L139.47268610818045,91.17783507423962L139.63181067875453,70.48547306023505L139.71137296404157,83.65701793110436L139.7909352493286,94.58590657844906L139.87049753461568,103.1284892074557L140.42743353162496,98.94486286373206L140.586558102199,91.82404380872609L140.82524495806013,107.88628404608514L140.90480724334716,108.77788347018947L140.98436952863423,107.63248672929156L141.46174324035644,75.18231778124272L141.85955466679164,39.60645717817546L142.09824152265276,55.94115495994079L142.1778038079398,51.91539099451188L142.81430209023614,45.492379971829536L142.89386437552315,35.239756857021234L142.97342666081022,28.415331457296247L143.05298894609723,27.495853504055503L143.2121135166713,12.772958764809886L143.6099249431065,51.47401407941719L143.76904951368059,59.81536772925023L143.84861179896762,56.57736684812076L144.48511008126397,77.00171067945914L144.56467236655098,66.67886945115751L144.88292150769914,61.760222290971825L145.04204607827324,62.43990016872634L145.20117064884732,64.78572185836005L145.28073293413433,55.363251106555936L145.4398575047084,80.21378767580043L145.7581066458566,89.57488590802616L145.8376689311436,96.2031594344482L145.9967935017177,97.42371887644919L146.1559180722918,101.62511094952447L146.2354803575788,93.42498035385216L146.3946049281529,104.99208522807291L146.47416721343996,116.66575134883826L146.55372949872697,111.65348003732814L146.63329178401403,130.8854825338455L146.95154092516216,163.40104820834858L147.03110321044923,161.12192151000636L147.26979006631032,161.3715103367175L147.3493523515974,163.35495566543108L147.42891463688443,159.2936457471141L147.7471637780326,160.29689387662282L147.8267260633196,164.21502091993625L147.9858506338937,167.56104592497476L148.38366206032887,171.46742180797315L149.02016034262522,166.47410630191547L149.25884719848634,167.40961896472487L149.41797176906041,168.4703696664742L149.5770963396345,166.4214427167955L149.65665862492153,159.73926531715537L149.9749077660697,165.16384752677024L150.13403233664377,148.38569084379566L150.3727191925049,165.64895029146672L150.45228147779193,167.45549823606626L150.61140604836598,168.5263586317036L151.16834204537525,160.5726757658396L151.32746661594936,168.29202907567506L151.4070289012364,168.66778563975024L151.72527804238456,168.2702567395291L151.8048403276716,168.50730395520495L152.04352718353272,162.43218753224397L152.12308946881976,168.9092887819488L152.2026517541068,170.49281522289994L152.36177632468087,161.57586281271244L152.4413386099679,167.37988103874025L152.600463180542,164.921588616365L152.75958775111607,168.1504602316773L152.8391500364031,168.12471648890005L153.15739917755127,170.76793503846167L153.3960860334124,162.62649243228566L153.71433517456055,164.63455613385779L153.79389745984759,165.03921927889024L154.0325843157087,166.17810088372698L154.19170888628278,166.37742387760127L154.35083345685686,169.57990779421223L154.4303957421439,168.24351393330053L154.50995802743094,169.85392035758625L155.2260185950143,167.86004749821825L155.3851431655884,169.31962795327325L155.6238300214495,167.99909021286766L155.78295459202357,170.4860179678849L155.94207916259768,169.3543668906584L156.49901515960696,165.51494327073144L156.57857744489397,167.74913074914554L156.8172643007551,163.56283436952458L156.89682658604212,160.44069068388194L156.97638887132916,167.33200881699085L157.3742002977644,159.10183384685558L157.61288715362548,161.1586518448512L157.7720117241996,166.0463414969324L158.01069858006068,166.48911917145674L158.09026086534772,170.5272927473095L158.16982315063476,168.42730019638344L158.48807229178294,167.76315387292573L158.56763457706995,160.54145425651225L158.72675914764403,157.2104400504172L158.88588371821814,166.25467676784666L158.96544600350515,158.20677859497877L159.2836951446533,164.8146836505812L159.36325742994035,163.73217303627288L159.6815065710885,163.53509664104038L159.76106885637557,167.2363399503127L159.92019342694965,167.97903854351551L160.0793179975237,165.99436224439407L160.47712942395893,163.14481379791317L160.55669170924597,164.43242540933073L160.71581627982005,166.05084194130836L160.95450313568114,161.76562896231837L161.5114391326904,164.01579110296416L161.6705637032645,160.82911620075876L161.98881284441268,156.3824576739352L162.0683751296997,160.98665660109145L162.38662427084788,162.18142778246192L162.4661865561349,162.11314360733857L162.94356026785715,159.32897221663256L163.18224712371824,153.84464394203204L163.2618094090053,127.75723576110914L163.34137169429232,150.68809002640918L163.50049626486643,162.3922777944365L163.58005855015347,170.73868266766738L163.6596208354405,160.96976569932153L163.73918312072752,166.5481084329368L164.0574322618757,162.41429031993036L164.13699454716274,164.50515101679198L164.2961191177368,168.05701622236379L164.37568140302386,165.72201754756935L164.53480597359794,167.42784022559835L164.77349282945906,159.41625826800998L164.8530551147461,163.62863693315285L165.17130425589426,164.71865553518018L165.2508665411813,165.13235580442654L165.8873648234776,167.16952797024402L166.2851762499128,167.19394445981447L166.76254996163505,161.29947216773465L166.84211224692206,161.2692880279184L166.92167453220912,159.1840552159493L167.31948595864432,166.05745646606522L167.63773509979248,155.1949884558L168.11510881151474,158.7837900207004L168.43335795266287,161.55851327352394L168.75160709381103,160.62113189617608L168.9107316643851,161.21842586290748L169.0698562349592,158.02247468243922L169.3085430908203,158.52563616607978L169.7063545172555,156.11286790751865L170.1041659436907,157.986166749551L170.66110194069998,158.86153682789097L171.13847565242222,166.55701614478653L171.2976002229963,161.37686904389258L171.4567247935704,163.47014612841775L171.61584936414448,168.71846248625567L171.6954116494315,165.65646759687593L171.9340985052926,161.43559637474755L172.65015907287597,161.25420786394778L173.5253442110334,165.10015697292505L173.60490649632047,165.88060359980446L173.84359335218159,157.29967453434938L173.9231556374686,161.61167380212228L174.24140477861675,121.2734444098268L174.32096706390382,159.8024599628211L174.48009163447787,164.67423292940978L174.8779030609131,165.73260658485424L175.11658991677422,157.71865172215664L175.5144013432094,166.2021705481615L175.59396362849645,167.94102443801825L175.6735259137835,164.81795623044604L175.83265048435757,162.1863050756423L175.91221276964458,169.34322345080548L176.31002419607978,157.2329412369981L176.38958648136685,167.81890886060074L176.62827333722794,164.72435071450204L176.707835622515,162.12432172970512L177.1056470489502,161.25437972356738L177.5830207606724,166.78338632276987L177.66258304595948,164.0223745687536L178.06039447239468,155.11239230849966L178.37864361354283,165.00595616010594L178.77645503997803,158.4975029534107L179.41295332227432,168.96495887511293L180.68594988686698,159.99156145052473L180.76551217215402,167.06046544152497L181.16332359858922,167.98108429416814L182.19763330732073,164.05790188626125L182.27719559260777,153.9520996868377L182.67500701904297,163.95725737300594L182.83413158961704,158.85949107723837L182.99325616019112,162.34325639089337L183.0728184454782,166.32189251449154L183.1523807307652,162.04057536531212L183.47062987191336,168.03077450080923L183.62975444248747,165.6502992859507L183.78887901306155,165.18586315816083L183.9480035836356,160.37821039446635L184.18669043949674,127.23152339653983L184.26625272478375,160.69175688214233L184.42537729535783,152.1066027618222L184.5845018659319,155.450690722594L184.66406415121895,166.3667592634957L184.74362643650602,156.11956836208532L184.82318872179303,164.0491339397648L184.9823132923671,166.43221500198803L185.06187557765415,167.86640733944245L185.1414378629412,166.65280717673642L185.3801247188023,168.11340791887045L186.01662300109865,165.26353335323185L186.33487214224678,166.63439749146073L186.41443442753385,164.6782788775628L186.65312128339494,164.5142368000548L187.1304949951172,164.49973950937235L187.21005728040421,165.1939364190865L187.3691818509783,160.64427496808324L187.7669932774135,157.66613514948233L187.92611784798757,157.66613514948233L188.00568013327464,162.43246499235272L188.32392927442277,161.85963099774614L188.40349155970983,167.13965234950393L188.80130298614503,167.84794071272654L188.9604275567191,168.02376242126968L189.03998984200612,162.07449279300963L189.1991144125802,168.2992347561114L189.91517498016358,159.66322468257383L189.99473726545062,162.91026682911286L190.15386183602467,164.07740484718934L190.31298640659875,164.22023364996454L190.5516732624599,166.58314812465628L190.63123554774694,166.6317419497482L191.3472961153303,163.9070081049517L191.82466982705253,164.4277168698732L192.3816058240618,166.045474951742L192.69985496520994,155.04926599256223L192.779417250497,162.40809509123338L193.09766639164516,165.70184060704872L193.8137269592285,160.7384716397067L194.13197610037668,158.9959144856372L194.21153838566372,164.69060721702198L194.29110067095075,162.8303945532533L194.68891209738595,165.40042471673948L195.1662858091082,169.45584171364214L195.4049726649693,169.0639872867646L195.48453495025635,162.89171323728823L195.5640972355434,161.93096205757124L195.8027840914045,167.6456081049114L195.96190866197858,159.60593538190938L196.12103323255266,167.20554498413762L196.20059551783973,166.9915010750156L196.28015780312674,165.50541230893592L196.5984069442749,168.11812059952362L196.75753151484898,168.54910518412697L196.9962183707101,166.29077660565332L197.07578065599714,160.7579052356076L197.15534294128418,168.99820542911462L197.47359208243236,165.1096900053184L197.95096579415457,156.81271961989708L198.50790179116385,166.02656521709122L198.5874640764509,167.2233283135708L198.66702636173792,163.83132464849524L199.06483778817312,128.08501553824468L199.1444000734602,147.0042625154558L199.30352464403427,160.96623015353273L199.94002292633056,167.93163531217382L200.09914749690464,162.24916428446014L200.25827206747874,167.47771057425035L200.33783435276575,168.1909631957621L200.5765212086269,166.32471266873125L201.13345720563618,169.05668635882824L201.3721440614973,166.01621740445313L201.53126863207137,162.8480919528767L201.69039320264545,163.41213418911184L202.08820462908065,157.23737852814034L202.48601605551582,152.64364957889393L202.5655783408029,154.82153336120902L202.64514062608993,148.06393029454185L202.96338976723808,155.15443165617174L203.0429520525251,149.65988498129727L203.52032576424736,149.93337782461683L203.67945033482144,147.73790845496103L203.8385749053955,147.89295482021168L204.07726176125664,147.66644384157613L204.15682404654365,148.19645890842895L204.23638633183072,152.9421966559145L204.31594861711775,148.599778235472L204.55463547297884,155.06454907511983L204.71376004355292,152.49574263494915L205.11157146998812,153.95890160069786L205.35025832584927,158.5977198882148L205.50938289642335,151.660301965096L205.82763203757148,140.34031672967828L205.90719432285854,115.10310843991604L206.30500574929374,147.04058701312664L206.6232548904419,141.86949049533246L206.86194174630302,162.15601119414126L206.94150403159003,159.32459704342511L207.1006286021641,160.0624628613008L207.4188777433123,144.47015929485778L207.49844002859933,141.80670582803637L207.65756459917338,136.5306444946218L207.73712688446045,130.98468073451895L208.21450059618266,159.74074165340568L208.29406288146973,161.17847988963806L208.4531874520438,153.85032152127238L208.61231202261789,158.57934540310217L208.850998878479,156.4496609969931L208.93056116376604,155.10100816164942L209.08968573434012,164.1715932364215L209.32837259020124,165.00373233804024L209.6466217313494,164.23331982822822L209.80574630192348,153.40074503878463L209.88530858721052,158.3041795167388L210.04443315778462,164.45620829596626L210.12399544307164,163.48344247236082L210.6809314400809,-14.215610860980263L211.31742972237726,-3.744763300038187L211.39699200766427,9.68142369153793L211.87436571938653,64.65133177702687L212.6699885722569,55.01219366865453L212.82911314283098,50.092569186294725L213.22692456926617,80.20753447036431L213.38604913984025,102.31109172706294L213.70429828098844,144.300444814604L213.78386056627545,109.83706465878626L213.86342285156252,95.05068953137486L214.02254742213657,97.0663336915899L214.18167199271065,111.82465221845182L214.26123427799772,112.39254680194321L214.57948341914584,96.26154201076507L215.05685713086808,36.69512209255086L215.2159817014422,-3.8681543657168334L215.69335541316443,-15.183573932927061L216.40941598074775,13.2514159457821L216.48897826603482,10.471596951707454L216.56854055132183,16.59793271780441L216.88678969247,3.1650866836181706L217.2846011189052,-12.610996934114269L217.36416340419225,2.7534187061385467L217.44372568947927,-5.126017698160609L217.76197483062745,26.537680218632545L217.84153711591446,15.71219722674482L218.0802239717756,23.76104166281945L218.2393485423497,33.68682505190546L218.4780353982108,29.524227699708064L218.875846824646,32.67731750516714L219.03497139522008,40.67431417166543L219.19409596579416,36.414067425968824L219.2736582510812,40.46823999357774L219.67146967751637,37.757835721039726L219.83059424809048,32.435306031202174L220.22840567452565,41.56496940316086L220.4670925303868,40.93196280041636L220.62621710096087,46.97076197279888L220.78534167153492,45.841673260382734L221.18315309797015,56.4093336933021L221.42183995383127,47.72479087730848L221.58096452440535,59.677366525307576L221.74008909497942,60.81626987142148L221.81965138026646,62.3522227743597L222.05833823612755,60.184000401503226L222.13790052141462,55.116187373894235L222.21746280670166,60.288557309351745L222.45614966256278,46.538586794445294L222.53571194784982,49.730537579912706L222.61527423313683,46.40895080572183L223.25177251543317,51.96619518278365L223.3313348007202,59.93179330384042L223.41089708600725,53.67233466228012L223.57002165658133,66.12646708060421L223.64958394186837,60.08196134061177L223.96783308301653,47.63748619055062L224.1269576535906,56.3747132976425L224.84301822117396,47.05613686238242L225.24082964760916,54.504888918763086L225.3203919328962,44.53390852031956L225.39995421818324,57.06976329366118L225.55907878875735,60.11156260713986L225.95689021519252,58.29967355544679L226.03645250047956,54.88129047406123L226.11601478576662,52.85345463384357L226.19557707105363,52.074545425850374L226.3547016416277,48.46816034420709L226.5138262122018,44.89366246909239L226.83207535334998,55.68019337466741L227.1503244944981,54.868974558189024L227.22988677978515,57.631425377694725L227.38901135035925,59.0136985099478L227.62769820622034,56.75069245098403L227.78682277679442,59.49492200961626L228.3437587738037,49.8640000334196L228.7415702002389,51.52283877616679L228.98025705610002,48.138057356310185L229.37806848253524,49.10155621934298L229.61675533839636,57.39782053090548L229.69631762368337,54.54267318790163L229.77587990897044,61.64900634051318L230.0941290501186,59.29124144261604L230.41237819126673,60.5853236722415L230.5715027618408,50.60854559988368L231.20800104413715,59.20542758629328L231.28756332942416,53.248168556319555L231.36712561471123,56.50327257549617L231.68537475585936,58.190428814119L232.00362389700754,44.50000869270359L232.3218730381557,52.60597678161656L232.4014353234427,57.430436587868996L232.7196844645909,44.12034387523083L232.7992467498779,60.38732482567728L232.87880903516498,43.41999314877623L232.958371320452,55.035077915833355L233.27662046160017,46.38816200354346L233.51530731746126,58.753606575761566L233.7539941733224,50.75899523795944L233.91311874389646,61.27839417673802L234.07224331447054,43.585467044681295L234.39049245561873,53.39086587613278L234.78830388205392,46.29015646721808L234.86786616734096,46.09986852695987L234.947428452628,57.535573263108944L235.10655302320208,56.8366553903503L235.1861153084891,62.98326645036465L235.3452398790632,55.01597872148143L235.50436444963728,47.45533155855502L235.58392673492432,56.53844789137328L235.66348902021136,56.184657264340856L236.29998730250767,56.29051450762444L236.45911187308172,50.356454455699165L236.69779872894287,47.11961310935256L236.7773610142299,48.80413554754004L236.85692329951695,57.36646339742049L236.936485584804,54.22366860435493L237.09561015537807,52.135222224559044L237.25473472595215,39.39551295399977L237.49342158181327,54.063039907363944L237.5729838671003,56.75621680598522L237.89123300824846,51.64494607119299L237.9707952935355,56.67844515162071L238.05035757882254,56.758361945333505L238.2890444346837,45.283804511567396L238.92554271697998,53.53521967420723L240.3576638521467,51.2122325374045L240.43722613743373,56.68213909814324L240.83503756386895,50.08475060890174L240.91459984915596,50.20183049240512L241.07372441973007,54.77692406121275L241.23284899030415,38.5332000655539L241.31241127559116,52.13552867303737L241.55109813145228,49.806735579929054L241.86934727260044,61.898886086218965L241.9489095578875,52.27603944154578L242.10803412846155,55.15881684194686L242.26715869903563,47.26256718329627L242.3467209843227,48.836552827112214L242.74453241075787,54.551717559207916L242.8240946960449,47.98602578149496L243.06278155190606,48.4749353402955L243.14234383719307,58.263537482178165L243.46059297834125,61.89876185034937L243.54015526362826,57.127632361717076L243.61971754891533,50.57123342704959L244.09709126063754,44.27751053265585L244.25621583121162,65.25337880106908L244.3357781164987,58.99829326211841L244.4153404017857,49.288879063513605L245.44965011051724,52.29497298807158L245.52921239580425,58.82756833012526L245.68833696637836,41.5909926766447L246.08614839281353,64.4708501880751L246.48395981924872,50.58213305400845L246.6430843898228,45.99324930367612L247.12045810154507,62.5581727165778L247.27958267211915,60.96045802166981L247.43870724269323,54.3575037654706L247.5978318132673,58.496115312445454L247.67739409855434,66.7472902857374L247.83651866912842,59.711862685097586L248.23433009556362,49.49487870007954L248.31389238085066,47.26933389699337L248.3934546661377,42.34743175702438L248.4730169514247,51.94224250712634L248.71170380728586,51.546004624650024L248.7912660925729,62.43989188633503L249.029952948434,53.7195028807685L249.10951523372105,53.33708830938211L249.1890775190081,51.86871143711056L249.26863980429513,63.76353397053205L249.58688894544326,45.76935970188896L249.66645123073033,42.548859513589335L250.06426265716553,48.24016267633209L250.2233872277396,51.925255322557476L250.6211986541748,52.846364906885526L250.70076093946184,64.13638237995987L250.85988551003595,65.17068740626873L251.01901008061,56.873387795792965L251.09857236589704,56.64828896487511L251.25769693647112,46.524755200964066L251.4168215070452,56.46702054874926L251.8146329334804,46.490068546174015L252.05331978934151,51.64398531380148L252.2124443599156,57.13231191280504L252.29200664520263,57.42024924656246L252.6102557863508,50.831797457540276L253.008067212786,44.51404734596747L253.56500320979526,38.40384567813484L253.6445654950823,45.22384828090236L254.0423769215175,47.71671554578501L254.20150149209158,54.696709101412935L254.59931291852678,53.573906723998135L254.67887520381382,62.27411154195164L254.75843748910086,47.4653201224702L254.8379997743879,62.7976663435857L255.55406034197125,49.04243651019986L255.95187176840645,47.62032507576433L256.19055862426757,57.13557517497965L256.27012090955463,51.0782151636801L256.98618147713796,54.76645511860181L257.14530604771204,54.7515633790334L257.3839929035732,48.78701584471028L257.54311747414727,55.25622604609819L258.0204911858695,53.88877011189177L258.57742718287875,62.08840376408571L258.73655175345283,46.14382317762147L258.8161140387399,61.73617022661884L258.975238609314,59.480568625482746L259.21392546517507,57.77768412576958L259.5321746063233,49.170349761531654L259.77086146218437,59.96120407536847L259.8504237474714,59.798695275551L260.00954831804546,53.66111202206032L260.16867288861954,60.43321755590452L260.2482351739066,58.743261869020216L260.72560888562884,52.44774169571305L260.8051711709159,55.575114676166606L260.96429574148993,54.439640240053436L261.123420312064,57.14255723085071L261.36210716792516,58.59820406768475L261.91904316493446,52.576110478566676L262.23729230608257,63.19843469410647L262.31685459136963,62.607618592675365L262.5555414472307,51.73331918642934" fill="none"></path></g></g></g></g></g></g><g transform="translate(51, 177)" clip-path="url(#clip_1)"><clipPath id="clip_1"><rect width="278" height="22"></rect></clipPath><g><g><line x1="0" y1="0" x2="0" y2="5" style="visibility: inherit;" fill="rgb(0, 0, 0)" stroke="rgb(204, 204, 204)" stroke-width="1px"></line><line x1="39.78114264351981" y1="0" x2="39.78114264351981" y2="5" style="visibility: inherit;" fill="rgb(0, 0, 0)" stroke="rgb(204, 204, 204)" stroke-width="1px"></line><line x1="79.56228528703961" y1="0" x2="79.56228528703961" y2="5" style="visibility: inherit;" fill="rgb(0, 0, 0)" stroke="rgb(204, 204, 204)" stroke-width="1px"></line><line x1="119.34342793055943" y1="0" x2="119.34342793055943" y2="5" style="visibility: inherit;" fill="rgb(0, 0, 0)" stroke="rgb(204, 204, 204)" stroke-width="1px"></line><line x1="159.12457057407923" y1="0" x2="159.12457057407923" y2="5" style="visibility: inherit;" fill="rgb(0, 0, 0)" stroke="rgb(204, 204, 204)" stroke-width="1px"></line><line x1="198.90571321759904" y1="0" x2="198.90571321759904" y2="5" style="visibility: inherit;" fill="rgb(0, 0, 0)" stroke="rgb(204, 204, 204)" stroke-width="1px"></line><line x1="238.68685586111886" y1="0" x2="238.68685586111886" y2="5" style="visibility: inherit;" fill="rgb(0, 0, 0)" stroke="rgb(204, 204, 204)" stroke-width="1px"></line><line x1="278.4679985046387" y1="0" x2="278.4679985046387" y2="5" style="visibility: inherit;" fill="rgb(0, 0, 0)" stroke="rgb(204, 204, 204)" stroke-width="1px"></line></g><g transform="translate(0, 8)"><text style="text-anchor: middle; visibility: hidden; font-family: Roboto, sans-serif; font-size: 12px; font-weight: 200;" x="0" y="0" dx="0em" dy="0.95em" fill="rgb(50, 49, 63)" stroke="none" stroke-width="1px">-500</text><text style="text-anchor: middle; visibility: inherit; font-family: Roboto, sans-serif; font-size: 12px; font-weight: 200;" x="39.78114264351981" y="0" dx="0em" dy="0.95em" fill="rgb(50, 49, 63)" stroke="none" stroke-width="1px">0</text><text style="text-anchor: middle; visibility: inherit; font-family: Roboto, sans-serif; font-size: 12px; font-weight: 200;" x="79.56228528703961" y="0" dx="0em" dy="0.95em" fill="rgb(50, 49, 63)" stroke="none" stroke-width="1px">500</text><text style="text-anchor: middle; visibility: inherit; font-family: Roboto, sans-serif; font-size: 12px; font-weight: 200;" x="119.34342793055943" y="0" dx="0em" dy="0.95em" fill="rgb(50, 49, 63)" stroke="none" stroke-width="1px">1k</text><text style="text-anchor: middle; visibility: inherit; font-family: Roboto, sans-serif; font-size: 12px; font-weight: 200;" x="159.12457057407923" y="0" dx="0em" dy="0.95em" fill="rgb(50, 49, 63)" stroke="none" stroke-width="1px">1.5k</text><text style="text-anchor: middle; visibility: inherit; font-family: Roboto, sans-serif; font-size: 12px; font-weight: 200;" x="198.90571321759904" y="0" dx="0em" dy="0.95em" fill="rgb(50, 49, 63)" stroke="none" stroke-width="1px">2k</text><text style="text-anchor: middle; visibility: inherit; font-family: Roboto, sans-serif; font-size: 12px; font-weight: 200;" x="238.68685586111886" y="0" dx="0em" dy="0.95em" fill="rgb(50, 49, 63)" stroke="none" stroke-width="1px">2.5k</text><text style="text-anchor: middle; visibility: hidden; font-family: Roboto, sans-serif; font-size: 12px; font-weight: 200;" x="278.4679985046387" y="0" dx="0em" dy="0.95em" fill="rgb(50, 49, 63)" stroke="none" stroke-width="1px">3k</text></g><line x1="0" y1="0" x2="278.4679985046387" y2="0" fill="rgb(0, 0, 0)" stroke="rgb(204, 204, 204)" stroke-width="1px"></line></g></g></g></g></svg>