<svg viewBox="0 0 330 200" xmlns="http://www.w3.org/2000/svg"><g><g><g><g><g><line x1="41.149001121520996" y1="177.86299896240234" x2="36.149001121520996" y2="177.86299896240234" style="visibility: inherit;" fill="rgb(0, 0, 0)" stroke="rgb(204, 204, 204)" stroke-width="1px"></line><line x1="41.149001121520996" y1="163.04108238220215" x2="36.149001121520996" y2="163.04108238220215" style="visibility: inherit;" fill="rgb(0, 0, 0)" stroke="rgb(204, 204, 204)" stroke-width="1px"></line><line x1="41.149001121520996" y1="148.21916580200195" x2="36.149001121520996" y2="148.21916580200195" style="visibility: inherit;" fill="rgb(0, 0, 0)" stroke="rgb(204, 204, 204)" stroke-width="1px"></line><line x1="41.149001121520996" y1="133.39724922180176" x2="36.149001121520996" y2="133.39724922180176" style="visibility: inherit;" fill="rgb(0, 0, 0)" stroke="rgb(204, 204, 204)" stroke-width="1px"></line><line x1="41.149001121520996" y1="118.57533264160158" x2="36.149001121520996" y2="118.57533264160158" style="visibility: inherit;" fill="rgb(0, 0, 0)" stroke="rgb(204, 204, 204)" stroke-width="1px"></line><line x1="41.149001121520996" y1="103.75341606140135" x2="36.149001121520996" y2="103.75341606140135" style="visibility: inherit;" fill="rgb(0, 0, 0)" stroke="rgb(204, 204, 204)" stroke-width="1px"></line><line x1="41.149001121520996" y1="88.93149948120119" x2="36.149001121520996" y2="88.93149948120119" style="visibility: inherit;" fill="rgb(0, 0, 0)" stroke="rgb(204, 204, 204)" stroke-width="1px"></line><line x1="41.149001121520996" y1="74.10958290100098" x2="36.149001121520996" y2="74.10958290100098" style="visibility: inherit;" fill="rgb(0, 0, 0)" stroke="rgb(204, 204, 204)" stroke-width="1px"></line><line x1="41.149001121520996" y1="59.28766632080077" x2="36.149001121520996" y2="59.28766632080077" style="visibility: inherit;" fill="rgb(0, 0, 0)" stroke="rgb(204, 204, 204)" stroke-width="1px"></line><line x1="41.149001121520996" y1="44.465749740600586" x2="36.149001121520996" y2="44.465749740600586" style="visibility: inherit;" fill="rgb(0, 0, 0)" stroke="rgb(204, 204, 204)" stroke-width="1px"></line><line x1="41.149001121520996" y1="29.643833160400384" x2="36.149001121520996" y2="29.643833160400384" style="visibility: inherit;" fill="rgb(0, 0, 0)" stroke="rgb(204, 204, 204)" stroke-width="1px"></line><line x1="41.149001121520996" y1="14.821916580200202" x2="36.149001121520996" y2="14.821916580200202" style="visibility: inherit;" fill="rgb(0, 0, 0)" stroke="rgb(204, 204, 204)" stroke-width="1px"></line><line x1="41.149001121520996" y1="0" x2="36.149001121520996" y2="0" style="visibility: inherit;" fill="rgb(0, 0, 0)" stroke="rgb(204, 204, 204)" stroke-width="1px"></line></g><g transform="translate(31.149001121520996, 0)"><text style="text-anchor: end; visibility: hidden; font-family: Roboto, sans-serif; font-size: 12px; font-weight: 200;" x="0" y="177.86299896240234" dx="0em" dy="0.3em" fill="rgb(50, 49, 63)" stroke="none" stroke-width="1px">0.8</text><text style="text-anchor: end; visibility: inherit; font-family: Roboto, sans-serif; font-size: 12px; font-weight: 200;" x="0" y="163.04108238220215" dx="0em" dy="0.3em" fill="rgb(50, 49, 63)" stroke="none" stroke-width="1px">0.9</text><text style="text-anchor: end; visibility: hidden; font-family: Roboto, sans-serif; font-size: 12px; font-weight: 200;" x="0" y="148.21916580200195" dx="0em" dy="0.3em" fill="rgb(50, 49, 63)" stroke="none" stroke-width="1px">1</text><text style="text-anchor: end; visibility: inherit; font-family: Roboto, sans-serif; font-size: 12px; font-weight: 200;" x="0" y="133.39724922180176" dx="0em" dy="0.3em" fill="rgb(50, 49, 63)" stroke="none" stroke-width="1px">1.1</text><text style="text-anchor: end; visibility: hidden; font-family: Roboto, sans-serif; font-size: 12px; font-weight: 200;" x="0" y="118.57533264160158" dx="0em" dy="0.3em" fill="rgb(50, 49, 63)" stroke="none" stroke-width="1px">1.2</text><text style="text-anchor: end; visibility: inherit; font-family: Roboto, sans-serif; font-size: 12px; font-weight: 200;" x="0" y="103.75341606140135" dx="0em" dy="0.3em" fill="rgb(50, 49, 63)" stroke="none" stroke-width="1px">1.3</text><text style="text-anchor: end; visibility: hidden; font-family: Roboto, sans-serif; font-size: 12px; font-weight: 200;" x="0" y="88.93149948120119" dx="0em" dy="0.3em" fill="rgb(50, 49, 63)" stroke="none" stroke-width="1px">1.4</text><text style="text-anchor: end; visibility: inherit; font-family: Roboto, sans-serif; font-size: 12px; font-weight: 200;" x="0" y="74.10958290100098" dx="0em" dy="0.3em" fill="rgb(50, 49, 63)" stroke="none" stroke-width="1px">1.5</text><text style="text-anchor: end; visibility: hidden; font-family: Roboto, sans-serif; font-size: 12px; font-weight: 200;" x="0" y="59.28766632080077" dx="0em" dy="0.3em" fill="rgb(50, 49, 63)" stroke="none" stroke-width="1px">1.6</text><text style="text-anchor: end; visibility: inherit; font-family: Roboto, sans-serif; font-size: 12px; font-weight: 200;" x="0" y="44.465749740600586" dx="0em" dy="0.3em" fill="rgb(50, 49, 63)" stroke="none" stroke-width="1px">1.7</text><text style="text-anchor: end; visibility: hidden; font-family: Roboto, sans-serif; font-size: 12px; font-weight: 200;" x="0" y="29.643833160400384" dx="0em" dy="0.3em" fill="rgb(50, 49, 63)" stroke="none" stroke-width="1px">1.8</text><text style="text-anchor: end; visibility: inherit; font-family: Roboto, sans-serif; font-size: 12px; font-weight: 200;" x="0" y="14.821916580200202" dx="0em" dy="0.3em" fill="rgb(50, 49, 63)" stroke="none" stroke-width="1px">1.9</text><text style="text-anchor: end; visibility: hidden; font-family: Roboto, sans-serif; font-size: 12px; font-weight: 200;" x="0" y="0" dx="0em" dy="0.3em" fill="rgb(50, 49, 63)" stroke="none" stroke-width="1px">2</text></g><line x1="41.149001121520996" y1="0" x2="41.149001121520996" y2="177.86299896240234" fill="rgb(0, 0, 0)" stroke="rgb(204, 204, 204)" stroke-width="1px"></line></g></g><g transform="translate(41, 0)" clip-path="url(#clip_0)"><clipPath id="clip_0"><rect width="288" height="177"></rect></clipPath><g><g><g><line x1="0" y1="0" x2="0" y2="177.86299896240234" fill="rgb(0, 0, 0)" stroke="rgb(60, 60, 60)" stroke-width="1px" opacity="0.25"></line><line x1="41.264428411211284" y1="0" x2="41.264428411211284" y2="177.86299896240234" fill="rgb(0, 0, 0)" stroke="rgb(60, 60, 60)" stroke-width="1px" opacity="0.25"></line><line x1="82.52885682242257" y1="0" x2="82.52885682242257" y2="177.86299896240234" fill="rgb(0, 0, 0)" stroke="rgb(60, 60, 60)" stroke-width="1px" opacity="0.25"></line><line x1="123.79328523363385" y1="0" x2="123.79328523363385" y2="177.86299896240234" fill="rgb(0, 0, 0)" stroke="rgb(60, 60, 60)" stroke-width="1px" opacity="0.25"></line><line x1="165.05771364484514" y1="0" x2="165.05771364484514" y2="177.86299896240234" fill="rgb(0, 0, 0)" stroke="rgb(60, 60, 60)" stroke-width="1px" opacity="0.25"></line><line x1="206.32214205605644" y1="0" x2="206.32214205605644" y2="177.86299896240234" fill="rgb(0, 0, 0)" stroke="rgb(60, 60, 60)" stroke-width="1px" opacity="0.25"></line><line x1="247.5865704672677" y1="0" x2="247.5865704672677" y2="177.86299896240234" fill="rgb(0, 0, 0)" stroke="rgb(60, 60, 60)" stroke-width="1px" opacity="0.25"></line><line x1="288.850998878479" y1="0" x2="288.850998878479" y2="177.86299896240234" fill="rgb(0, 0, 0)" stroke="rgb(60, 60, 60)" stroke-width="1px" opacity="0.25"></line></g><g><line x1="0" y1="177.86299896240234" x2="288.850998878479" y2="177.86299896240234" fill="rgb(0, 0, 0)" stroke="rgb(60, 60, 60)" stroke-width="1px" opacity="0.25"></line><line x1="0" y1="163.04108238220215" x2="288.850998878479" y2="163.04108238220215" fill="rgb(0, 0, 0)" stroke="rgb(60, 60, 60)" stroke-width="1px" opacity="0.25"></line><line x1="0" y1="148.21916580200195" x2="288.850998878479" y2="148.21916580200195" fill="rgb(0, 0, 0)" stroke="rgb(60, 60, 60)" stroke-width="1px" opacity="0.25"></line><line x1="0" y1="133.39724922180176" x2="288.850998878479" y2="133.39724922180176" fill="rgb(0, 0, 0)" stroke="rgb(60, 60, 60)" stroke-width="1px" opacity="0.25"></line><line x1="0" y1="118.57533264160158" x2="288.850998878479" y2="118.57533264160158" fill="rgb(0, 0, 0)" stroke="rgb(60, 60, 60)" stroke-width="1px" opacity="0.25"></line><line x1="0" y1="103.75341606140135" x2="288.850998878479" y2="103.75341606140135" fill="rgb(0, 0, 0)" stroke="rgb(60, 60, 60)" stroke-width="1px" opacity="0.25"></line><line x1="0" y1="88.93149948120119" x2="288.850998878479" y2="88.93149948120119" fill="rgb(0, 0, 0)" stroke="rgb(60, 60, 60)" stroke-width="1px" opacity="0.25"></line><line x1="0" y1="74.10958290100098" x2="288.850998878479" y2="74.10958290100098" fill="rgb(0, 0, 0)" stroke="rgb(60, 60, 60)" stroke-width="1px" opacity="0.25"></line><line x1="0" y1="59.28766632080077" x2="288.850998878479" y2="59.28766632080077" fill="rgb(0, 0, 0)" stroke="rgb(60, 60, 60)" stroke-width="1px" opacity="0.25"></line><line x1="0" y1="44.465749740600586" x2="288.850998878479" y2="44.465749740600586" fill="rgb(0, 0, 0)" stroke="rgb(60, 60, 60)" stroke-width="1px" opacity="0.25"></line><line x1="0" y1="29.643833160400384" x2="288.850998878479" y2="29.643833160400384" fill="rgb(0, 0, 0)" stroke="rgb(60, 60, 60)" stroke-width="1px" opacity="0.25"></line><line x1="0" y1="14.821916580200202" x2="288.850998878479" y2="14.821916580200202" fill="rgb(0, 0, 0)" stroke="rgb(60, 60, 60)" stroke-width="1px" opacity="0.25"></line><line x1="0" y1="0" x2="288.850998878479" y2="0" fill="rgb(0, 0, 0)" stroke="rgb(60, 60, 60)" stroke-width="1px" opacity="0.25"></line></g></g></g><g><g><line x1="0" y1="296.4383316040039" x2="288.850998878479" y2="296.4383316040039" fill="rgb(0, 0, 0)" stroke="rgb(153, 153, 153)" stroke-width="1.5px"></line></g></g><g><g><line x1="41.264428411211284" y1="0" x2="41.264428411211284" y2="177.86299896240234" fill="rgb(0, 0, 0)" stroke="rgb(153, 153, 153)" stroke-width="1.5px"></line></g></g><g><g><g><g><g><path style="fill: none;" stroke="rgb(255, 112, 67)" stroke-width="2px" d="M43.74029411588397,189.10047984238275L43.987880686351225,175.43336347669515L44.152938399996074,137.72985858708225L44.730640397753035,92.71409683379062L45.060755825042726,40.973006239559986L45.14328468186515,27.89118186768248L45.225813538687575,41.53258984057185L45.47340010915484,64.1276231985976L46.21615982055664,82.14064713929156L46.29868867737906,94.58343602754186L46.38121753420148,101.51138601564045L46.62880410466875,109.87172790349658L46.87639067513602,119.29784112681668L47.20650610242571,121.14148174028432L47.5366215297154,72.10570384810394L47.619150386537825,69.46164595125164L47.701679243360246,22.968043796347125L47.86673695700509,24.06697255750011L48.03179467064994,18.66016239065077L48.11432352747236,57.19717907294758L48.27938124111721,91.98055133811415L48.36191009793963,109.02005649313925L48.52696781158448,112.7387012309537L48.69202552522932,53.93746555692813L49.26972752298627,21.58501914962776L49.51731409345354,-10.688988769215337L51.99317979812622,-3.1548929718433465L52.24076636859349,5.711407290113562L52.40582408223834,10.345336536590663L52.570881795883174,27.592949393264604L53.313641507284984,44.03823349554857L53.80881464821952,58.638532177472875L54.221458932331636,77.07889824098429L54.30398778915405,131.8778827574917L54.55157435962132,160.01070259386265L54.71663207326616,140.35347734093983L54.88168978691101,118.43109308641773L55.37686292784555,152.4034354231931L55.45939178466797,172.5460003709692L56.20215149606977,166.46196765553628L56.367209209714616,187.0694008700733L56.53226692335946,154.6567284832785L56.77985349382673,125.24578024452111L57.52261320522854,121.95121459450452L57.7701997756958,137.94165439907457L57.85272863251822,108.28134490333014L58.017786346163064,115.8549286041153L58.265372916630334,97.73552314018772L58.843074914387294,112.5094497984638L59.00813262803214,101.04315104736324L59.090661484854564,124.99389714889422L59.42077691214425,113.89258229035383L59.50330576896667,148.6193912825901L59.5858346257891,181.58388362824402L59.66836348261152,147.6584759915349L59.91595005307879,167.69595642427393L59.99847890990121,181.33589896767305L60.3285943371909,158.14293631436638L60.41112319401332,125.43510106028695L60.49365205083575,138.04532905228547L60.90629633494786,135.8399580090983L61.07135404859271,167.19104560728582L61.153882905415124,155.9647699043107L61.483998332704815,143.3926034316735L61.896642616816926,167.95467930686314L61.979171473639354,166.17953463935612L62.144229187284196,173.73117741649185L62.309286900929045,169.20972053094127L62.391815757751466,172.20448917435434L62.47434461457389,174.00135036040214L62.72193118504115,125.60388744801338L62.886988898686,99.0425046420507L63.13457546915327,97.0471826191105L63.29963318279811,123.3342131068255L63.54721975326538,155.506679338973L63.6297486100878,140.5084468662879L63.95986403737749,122.80708619680978L64.04239289419992,179.63505466077027L64.12492175102234,171.68063143741762L64.20745060784476,150.00500828934486L64.45503717831203,154.18964170148772L64.53756603513445,166.68151340095534L64.95021031924657,187.2975839421524L66.02308545793805,186.01762424518984L66.18814317158291,173.09320266502328L66.27067202840533,173.04092803110913L66.51825859887259,166.73508509994207L66.60078745569501,153.19339753917149L66.68331631251743,116.26478122516725L66.84837402616229,143.70991739022384L67.34354716709682,129.93038099896575L67.42607602391924,143.8907492418377L67.50860488074166,155.15167009663196L67.92124916485378,162.26402883928918L68.08630687849862,125.8682970062002L68.16883573532104,87.19939201204589L68.3338934489659,104.25816389009222L69.15918201719012,90.64199884475364L69.32423973083496,92.98009324876715L69.57182630130222,131.695254360073L69.8194128717695,107.05931706792663L69.98447058541434,104.16682659612864L70.2320571558816,106.07340058680516L70.39711486952646,102.94109731810232L70.56217258317129,84.0268498342926L70.72723029681615,111.88711881736941L70.97481686728341,92.62216230797142L71.05734572410583,73.62710464996628L71.22240343775069,81.9090530014373L71.80010543550765,103.86460352052072L71.88263429233007,110.37410289535269L71.96516314915249,106.83354136544858L72.04769200597491,106.12316368982682L72.87298057419913,136.1587895671862L73.12056714466641,145.26339650418734L73.20309600148883,145.02009044167397L73.53321142877851,89.0633804025807L73.94585571289063,99.47740229284022L74.11091342653546,93.4588226463468L74.2759711401803,101.98871521630186L74.52355771064758,121.78636640998081L74.77114428111484,133.33485237138115L75.26631742204938,147.15427509636626L75.3488462788718,138.6999247469646L75.51390399251666,149.1314068540644L75.59643284933908,159.66665686368233L76.0916059902736,157.11952582824608L76.17413484709604,153.67306481649746L76.4217214175633,151.52037652247355L76.751836844853,147.5923003771226L76.83436570167542,132.2331304479109L76.91689455849784,140.57537219845216L76.99942341532027,106.82037690849603L77.41206769943238,131.12480030728176L77.65965426989963,129.16033730193647L77.74218312672205,141.40016175635594L77.82471198354447,149.66555661090968L78.2373562676566,141.5880286690885L78.65000055176871,154.90059167563658L78.81505826541355,170.13020649797713L78.89758712223598,175.75848545346906L78.9801159790584,182.80477038878044L79.06264483588082,148.50310082747507L79.22770254952567,135.03326927025805L79.88793340410506,122.93066028567391L80.21804883139474,85.1814985313739L80.30057768821717,94.05567861334833L81.12586625644138,112.04028867995056L81.5385105405535,137.34977658681802L81.70356825419834,134.20879459819508L81.78609711102077,126.52868358729101L81.86862596784319,123.0565635131662L81.95115482466561,125.12591196275322L82.2812702519553,110.44371687984854L82.69391453606742,88.02346692237403L82.77644339288985,82.97698910867241L83.02402996335711,72.00005638234023L83.43667424746923,69.1043924935588L83.51920310429165,82.54774192043959L83.84931853158133,101.71628696269495L83.93184738840377,120.46179859110961L84.01437624522619,106.74132589708586L84.17943395887103,106.25813063145873L84.42702052933828,108.43156892026313L84.75713595662798,103.5090688120476L84.8396648134504,106.66562177363494L85.1697802407401,108.16413319534887L85.25230909756252,103.25753376056933L85.66495338167464,96.73289535203487L85.83001109531948,106.42758221304557L86.2426553794316,97.46958357392566L86.32518423625402,101.88745981238073L86.40771309307644,114.93625386664691L86.6552996635437,111.25722753203037L86.73782852036612,119.53924343224708L86.82035737718854,114.36387972591086L87.06794394765582,113.31321048379047L87.15047280447824,91.40974086207022L87.23300166130066,83.66289801481007L87.31553051812308,86.19872384580393L87.72817480223519,74.75380578419234L87.89323251588003,78.39317124156058L87.97576137270245,70.66802909750787L88.05829022952489,71.63407017461992L88.1408190863473,86.01011795567311L88.38840565681457,102.52673906268205L88.55346337045941,97.76290462270742L88.80104994092669,86.72701869477687L88.88357879774911,85.08527601514491L89.29622308186123,82.07299785653079L89.37875193868365,91.50491105745478L89.62633850915091,117.35490165809743L89.79139622279575,111.59261951778015L90.20404050690787,127.63452074898476L90.36909822055271,114.85144198840729L90.61668479101999,103.73043049804504L90.78174250466483,110.7554481909287L90.86427136148725,106.47711963210627L90.94680021830968,102.43872453948846L91.02932907513211,85.36839109955795L91.19438678877695,65.7987995960565L91.27691564559936,60.34910360072003L91.4419733592442,73.48435407391305L91.60703107288904,89.37514127864293L91.68955992971148,90.0702710146337L91.7720887865339,82.60577051510539L92.01967535700116,103.35571296649374L92.26726192746844,77.90795776526568L92.67990621158054,70.3053694214083L93.01002163887024,104.58256515998292L93.09255049569266,111.69832152782462L93.2576082093375,122.84027130566783L93.50519477980478,100.07942420420127L93.83531020709447,91.32563926755002L93.91783906391689,83.07478043616229L94.08289677756174,87.54355710735051L94.16542563438416,79.70294387116834L94.24795449120658,79.0012564285903L94.330483348029,87.56612700970175L94.6605987753187,80.00869741240992L94.74312763214111,82.10347449000777L94.90818534578595,93.26862862312122L94.99071420260837,106.77911730730278L95.32082962989807,68.13415543661645L95.98106048447745,86.91518853519692L96.31117591176714,103.458430965958L96.39370476858957,160.36595884451148L96.64129133905683,135.3087800308728L96.72382019587926,95.49603162896784L96.80634905270168,114.7909951132632L96.97140676634652,159.25031942844862L97.05393562316895,75.97568257386673L97.2189933368138,115.5000968591225L97.38405105045864,93.98645027826538L97.46657990728106,74.4720467991512L97.63163762092591,122.48652250397402L97.79669533457076,128.19590393007425L98.044281905038,150.28532337274146L98.29186847550528,173.08232176966456L98.62198390279497,135.67183349900273L98.70451275961739,105.7574262371252L99.28221475737435,68.68966915000696L99.4472724710192,77.4169351828263L99.52980132784162,75.93406063138359L99.94244561195373,88.47517119095883L100.27256103924343,91.67405277076145L100.43761875288827,81.23278510613609L100.76773418017797,83.4595048924406L101.18037846429009,90.57712826236805L101.59302274840218,115.16057484668829L101.6755516052246,94.19763584348517L101.75808046204703,84.31159749220456L102.0056670325143,95.8420223360347L102.17072474615914,64.17103034524224L102.33578245980398,77.85418081732698L102.41831131662641,92.93000121961607L102.58336903027126,151.99729215350675L102.83095560073852,136.77979450429473L102.91348445756094,130.80848884873225L102.99601331438338,97.95642897523703L103.16107102802822,86.26617353508685L103.32612874167306,71.73426286407368L103.40865759849548,88.44286171538486L103.57371531214034,78.44562142405567L103.73877302578518,110.38168604357635L104.06888845307486,103.61352971268224L104.23394616671972,130.2349069036849L104.5640615940094,93.43296483567143L104.64659045083182,144.6230225039395L104.8941770212991,145.50745454564273L105.05923473494393,148.2183395371614L105.30682130541119,142.82104225480916L105.47187901905605,187.33900283291888L105.63693673270089,145.01566510718854L105.88452330316815,160.91503812870224L106.13210987363543,119.99857087065804L106.21463873045785,104.15480807772254L106.62728301456997,105.6059093829091L107.03992729868207,101.57513315237817L107.37004272597177,140.49570002916622L107.45257158279419,171.88212404482357L107.53510043961661,175.7112680941297L107.70015815326146,185.4060121925468L107.78268701008389,204.95731448067696L107.86521586690631,138.51981963490653L108.2778601510184,120.33298481432067L108.52544672148568,99.35972296964249L108.6079755783081,79.80955299159037L108.69050443513052,119.5610991298909L108.77303329195294,87.86000432712122L108.9380910055978,83.75113614329045L109.18567757606506,104.15790165273958L109.43326414653232,77.14175467038034L110.17602385793414,104.63210804099529L110.4236104284014,144.29180898038058L111.00131242615836,129.38614498067102L111.08384128298079,123.37824162277366L111.1663701398032,128.80969718799122L111.4964855670929,133.49867226053007L111.66154328073775,111.77347070873662L111.82660099438257,116.94609025470311L111.90912985120502,85.9615268010335L112.23924527849469,107.2960458602727L112.73441841942923,108.00737432297326L112.89947613307407,124.00045188680859L113.14706270354135,113.27620980171257L113.22959156036377,140.80207333132054L113.47717813083104,158.46867686762798L113.72476470129831,175.28665022580734L113.88982241494315,127.20720430164954L114.054880128588,132.7983470511231L114.46752441270012,119.7838046357997L114.55005326952254,97.86485987765383L114.7976398399898,105.85386614730177L115.1277552672795,74.2727671350954L115.29281298092432,76.74509445394409L115.62292840821402,89.81790185573972L115.70545726503644,133.8183668688872L115.9530438355037,132.2360156953288L116.11810154914856,97.93351856567298L116.20063040597098,107.23305053382639L116.44821697643825,77.78494224471078L116.53074583326067,115.65950197222443L116.77833240372794,70.20566692922438L116.86086126055037,51.88505570495064L116.94339011737279,70.7254330958824L117.43856325830733,86.41501742884316L117.85120754241943,101.33559086388802L118.01626525606429,130.094997653802L118.09879411288671,94.2786684572339L119.25419810840062,99.04744561409755L119.33672696522304,95.1997399512054L119.50178467886788,70.52106584712878L120.07948667662484,36.21285576352512L120.16201553344726,28.995106765088728L120.24454439026968,61.1023992818791L120.57465981755938,115.49945424380378L120.6571886743818,125.55171656104048L120.9873041016715,125.55805877633918L121.31741952896118,141.97749829858225L121.3999483857836,140.36745619910383L121.56500609942846,127.89955265752889L121.7300638130733,141.55423277489226L121.81259266989572,125.72800711058039L121.89512152671814,124.34542836440058L121.97765038354055,128.45182235165305L122.63788123811993,144.4389776452711L122.96799666540963,164.34456985150382L123.13305437905447,142.36770653274297L123.38064094952175,135.95698218467922L123.79328523363385,81.76749634834466L124.28845837456839,82.29554050153997L124.37098723139081,96.88890908820703L124.45351608821325,121.12893278859586L124.61857380185809,113.03220213440657L124.86616037232535,126.45926661273765L125.69144894054958,99.37550023842341L125.85650665419442,61.37500765118596L126.02156436783926,65.2427858689243L126.26915093830654,82.17540391338042L126.5167375087738,46.499629337061116L126.68179522241864,92.11495346278447L126.76432407924106,40.70443069687641L127.17696836335318,42.63974938365736L127.2594972201756,93.4883126712207L127.50708379064288,118.63459211330958L127.5896126474653,110.59269673165284L127.67214150428772,111.62656993573025L127.91972807475499,122.95494181762184L128.0022569315774,92.63011572242162L128.3323723588671,105.43794848025432L128.49743007251195,163.29406171093513L128.99260321344647,133.0402953282518L129.1576609270913,129.83089354446795L129.4052474975586,110.91649623876161L129.7353629248483,99.83133949620589L130.06547835213797,98.80892147720178L130.23053606578281,92.3064298278982L130.56065149307253,84.72502641688887L130.64318034989495,103.6636361201571L131.05582463400705,114.32343035147436L131.2208823476519,107.77060483735333L132.21122862952097,139.38562903508085L132.54134405681066,135.37800552685172L132.62387291363308,124.09267246126117L132.7064017704555,131.53368505208633L132.95398834092276,156.7614834223983L133.1190460545676,149.98835295907335L133.36663262503487,153.81292983648672L133.69674805232458,128.1252896150879L133.86180576596942,119.04544572819853L133.9443346227918,128.20849397255608L134.27445005008153,118.11400524505441L134.35697890690395,104.70388431278447L134.6045654773712,83.0627032929522L134.9346809046609,89.70028808222493L135.01720976148331,101.24741241392164L135.18226747512819,59.1243601839118L135.34732518877303,39.8783357389788L135.5949117592403,42.233957458909074L136.0075560433524,40.57594592348366L136.17261375699724,70.38701242407231L136.33767147064208,88.38021114146866L136.58525804110937,51.745109619608826L136.99790232522147,50.6051355229758L137.0804311820439,63.55337170615832L137.24548889568874,31.259011128794388L137.41054660933358,33.011318329169896L137.493075466156,41.249814627006664L137.57560432297845,29.73796092809156L137.82319089344568,67.74191634708497L138.23583517755782,53.37030945721872L138.40089289120266,102.86472344609798L138.48342174802508,57.731186440043864L138.81353717531476,78.32863256274454L139.22618145942687,66.12381223721685L139.55629688671658,63.4142800254523L139.88641231400626,39.88198465844731L139.96894117082869,55.23722714784901L140.3815854549408,83.78216481185196L140.54664316858566,123.72281038205836L140.7117008822305,124.73023954251497L140.87675859587534,134.39655722169536L141.12434516634258,137.40491957288302L141.20687402316503,130.98037629081554L141.5369894504547,111.75997067797704L142.03216259138924,123.07366345987096L142.19722030503408,147.24763887117206L142.36227801867895,122.40711215755802L142.5273357323238,132.51754380594468L142.6098645891462,134.34415137479755L143.02250887325832,150.93918667421704L143.43515315737042,156.4520507196515L143.6827397278377,128.49092992879508L143.84779744148256,120.3615015701306L144.0128551551274,127.53393851378382L144.09538401194982,122.53374237750437L144.26044172559466,132.0664526415675L144.4254994392395,119.73352250720487L144.6730860097068,116.33233862654077L144.8381437233516,148.895648234517L144.92067258017403,158.5983230355695L145.00320143699645,154.4048338451828L145.0857302938189,119.33964042738793L145.66343229157584,109.9330833329458L145.8284900052207,99.33804068463282L146.07607657568795,112.04989103638533L146.15860543251037,98.72097339218152L146.24113428933282,104.99418567647737L146.73630743026735,119.39574610338926L147.14895171437945,138.6998720042125L147.3965382848467,117.9118469186312L147.47906714166913,136.6011285097013L148.13929799624853,70.53405506084178L148.22182685307092,72.59737130489054L148.30435570989337,85.43718283866686L148.38688456671576,100.92126986355836L148.5519422803606,90.07211272497828L148.96458656447274,90.63983567604421L149.12964427811758,106.93380220168905L149.21217313494,102.38095076179303L149.8724039895194,121.93796326402855L149.95493284634182,91.865295681989L150.2850482736315,96.56536959079254L150.45010598727637,110.41318782013333L150.61516370092122,103.89993390697529L150.6976925577436,75.1978008097843L150.86275027138845,53.19866870103012L151.19286569867816,37.910369464917935L151.27539455550055,43.12187609259754L151.4404522691454,57.034148016609045L151.6055099827903,55.157985311616805L151.6880388396127,58.53166783252005L151.85309655325753,41.077431632639666L151.93562541007995,34.33159318242687L152.01815426690237,35.136103115357564L152.1006831237248,54.98321133911968L152.43079855101448,74.30814521706667L152.51332740783693,62.09194878770031L152.76091397830416,19.1987045745782L152.8434428351266,63.028236774209326L152.92597169194903,79.84363490526381L153.2560871192387,35.46471638712098L153.33861597606113,9.489934666381055L153.503673689706,11.199568000917047L153.91631797381808,96.49004023430238L154.57654882839748,132.15880536110555L154.82413539886477,104.70652552982524L154.98919311250958,89.3893033379713L155.15425082615442,74.64915472993495L155.23677968297687,60.4208380233667L155.56689511026656,54.49785020659526L155.7319528239114,76.08978270833877L155.97953939437866,39.347965210340256L156.06206825120108,39.57017605911259L156.22712596484592,31.058470624028498L156.80482796260287,26.01115479060826L156.96988567624774,30.076414789121475L157.05241453307016,32.70766219158654L157.38252996035985,71.06162742509451L157.46505881718227,42.13241759396295L157.71264538764956,51.7929832975095L157.79517424447195,59.5079114994577L157.8777031012944,63.68094199437231L158.04276081493924,61.61566494072923L158.12528967176164,70.75947760709559L158.2903473854065,97.39424491519755L158.45540509905135,65.53465612889065L158.53793395587374,59.848246875384746L158.86804938316345,86.83617518496841L159.11563595363071,90.3188972725947L159.44575138092043,18.861475273310457L159.52828023774282,50.21214676296281L159.7758668082101,65.07149120442826L159.94092452185495,48.83692713157559L160.1059822354998,78.57216297519692L160.18851109232222,79.27913154097492L160.27103994914464,63.621765857652434L161.01379966054643,77.91801406716476L161.1788573741913,107.91524784542112L161.42644394465853,81.99192301281859L161.59150165830337,81.01160088568227L161.75655937194827,96.29241634463115L162.33426136970522,73.55653709317886L162.4167902265276,125.13451833236931L162.6643767969949,89.93125859161633L162.7469056538173,121.378038805376L162.82943451063974,102.41280073782808L163.24207879475185,68.32626163837548L163.4896653652191,60.80984494665012L163.65472307886398,85.7037262061899L163.90230964933122,102.05701795148151L163.98483850615366,131.2610332711531L164.06736736297606,142.54899189456924L164.39748279026577,118.98551362665549L164.4800116470882,104.0331708621847L164.64506936073303,72.51649355187116L164.8101270743779,122.97016708549192L164.8926559312003,116.82089335854612L165.22277135848998,109.12358112495072L165.3053002153124,94.00457400876674L165.63541564260208,103.79072322641802L165.71794449942453,81.94049723514244L165.88300221306937,51.24435443762447L166.04805992671422,68.03329340054523L166.46070421082632,70.17207113281565L166.54323306764877,70.06510459928835L166.7082907812936,70.57832971173643L166.95587735176085,50.214963892405216L167.53357934951782,39.06750819020719L167.69863706316266,61.402682468286145L168.02875249045238,73.08177761043945L168.11128134727477,69.21428440396062L168.44139677456448,54.00042605291294L168.52392563138687,83.55626221709961L169.01909877232143,78.40166928994758L169.2666853427887,73.81941534880345L169.3492141996111,109.48249871678702L169.43174305643353,98.69318270817895L169.5968007700784,81.92074739794081L169.6793296269008,72.84028193439723L169.76185848372324,26.23612794682699L169.84438734054564,33.079503771839065L170.17450276783535,35.52623101702943L170.25703162465777,71.14589822837495L170.4220893383026,106.02599165257307L170.50461819512503,133.29861211573427L170.66967590876988,152.74656635204346L170.91726247923717,82.98489245103704L170.99979133605956,117.97070431520898L171.32990676334927,38.747323914472844L171.4124356201717,43.25036140187932L172.0726664747511,100.28859340302404L172.4853107588632,85.69763609236871L172.98048389979772,138.5471260243515L173.0630127566201,176.02790720087214L173.14554161344256,143.9370604258576L173.55818589755467,126.44164569567268L173.88830132484435,103.13950008755654L174.3834744657789,94.98102270070132L174.7135898930686,110.62307213423482L175.04370532035827,123.14557797487724L175.2087630340031,111.2320811226311L175.37382074764795,126.4564296477817L175.62140731811522,124.44013951224788L176.03405160222735,119.394756887496L176.44669588633946,113.19075715655465L177.02439788409643,85.58133650785639L177.51957102503096,117.26353329582916L177.6846287386758,94.45933977072615L177.84968645232067,122.56046740445477L178.0147441659655,135.3173926914289L178.0972730227879,138.08181132895268L178.3448595932552,109.25377787355245L179.08761930465698,99.24557523195138L179.9954367297036,69.15139936926609L180.07796558652606,70.38806136624042L180.32555215699333,47.45795056908557L180.40808101381575,54.678245690284655L180.73819644110543,66.60768405882534L180.82072529792785,36.059173602921106L180.9857830115727,59.20585878973188L181.39842729568483,101.49330358508217L181.6460138661521,74.96691244601008L182.05865815026422,80.35752630548002L182.14118700708661,80.12578232731688L182.22371586390906,70.11360249811533L182.3887735775539,79.21248582025265L182.4713024343763,84.87202086827946L182.8839467184884,89.2916309880978L182.96647557531085,87.71891279649698L183.2140621457781,99.68128125005609L183.29659100260054,96.17334148901216L183.70923528671264,110.15751720722304L184.20440842764717,50.357786617861976L184.28693728446962,22.46736466535652L184.69958156858172,32.19440023580853L185.0296969958714,15.478572059131238L185.44234127998354,65.00391242317718L186.10257213456288,61.77851185568547L187.42303384372167,69.96438726256763L187.5055627005441,81.20776929757423L187.9182069846562,56.187602365119574L188.99108212334767,60.35191936547106L189.07361098017012,56.22721154779719L189.48625526428222,50.601519603832834L189.65131297792706,54.55931161352025L189.8163706915719,60.115117709661526L189.89889954839435,78.33059996012751L189.98142840521675,75.7934825849209L190.31154383250643,131.82060288110594L190.4766015461513,95.27212755261016L190.64165925979614,64.73618273794442L190.80671697344098,61.09861449104313L191.05430354390828,16.74124295558164L191.13683240073067,-4.643903376051618L191.3018901143755,-1.2745100965413958L191.46694782802035,8.459695723068666L191.5494766848428,30.95263350265078L191.63200554166522,37.10890586185732L191.71453439848764,85.07019290260018L191.87959211213249,127.41702940311664L191.9621209689549,125.36367600607987L192.04464982577733,69.34892588881192L192.2922363962446,96.74588556454806L192.952467250824,77.79986932659547L193.28258267811367,98.87440488247108L193.3651115349361,126.35671528918553L193.61269810540335,115.77738088768508L194.1078712463379,123.80330450559023L194.1904001031603,87.17412242869395L194.35545781680514,72.00056716133761L194.76810210091728,103.50304348877764L194.93315981456212,122.40452928524168L195.01568867138454,125.55703261054593L195.34580409867422,89.21980098704573L195.42833295549667,97.3362193243151L195.84097723960878,68.84530137584413L196.00603495325362,52.84742226046931L196.088563810076,49.14923468037117L196.25362152372085,79.49964255557802L196.9963812351227,68.78293903973666L197.0789100919451,109.61006665659072L197.24396780558993,129.24739686823463L197.40902551923477,164.08050896301847L197.65661208970207,118.38548336979856L197.7391409465245,108.27378387093583L198.4819006579263,89.80600922532876L198.97707379886083,102.65550612620574L199.55477579661778,91.72931319091927L199.88489122390746,80.49622582545118L199.96742008072988,108.94675307572587L200.29753550801956,130.53541911710934L201.04029521942138,145.23601866542157L201.3704106467111,81.3888627423202L201.45293950353349,112.6407825237307L201.53546836035594,132.92315285978088L201.94811264446804,132.1439931583895L202.44328578540257,133.81439500461045L202.69087235586986,127.54928521121285L202.77340121269225,101.75174698670124L202.8559300695147,96.54439994419201L203.10351663998196,86.95415366531091L203.2685743536268,88.7053595956852L203.43363206727165,118.86793147394097L203.51616092409407,130.85677856136937L203.5986897809165,142.41763072414312L203.92880520820617,155.34688634995683L204.093862921851,165.14916468671854L204.34144949231828,148.0926031293733L204.42397834914073,108.05355654414272L204.50650720596312,126.33271031765103L204.83662263325283,139.97404650172678L205.33179577418736,109.92425198562728L205.90949777194433,77.69649602088678L205.99202662876675,95.17063066911673L206.07455548558917,97.50996666437679L206.48719976970128,53.77075975617246L206.56972862652373,58.75609318659906L206.73478634016854,129.88444421673697L207.3950171947479,152.4297329681934L207.56007490839275,129.58134329898493L207.72513262203762,86.48650175939886L207.80766147886004,86.46891907117345L208.0552480493273,94.87149091219386L208.63295004708428,109.23213511394748L208.88053661755154,113.04082273838557L209.04559433119638,137.76861414703433L209.21065204484123,72.29558305313877L209.62329632895336,65.60369420228649L210.03594061306543,49.381798544159174L210.11846946988786,33.243237287595555L210.2009983267103,32.70535887542228L210.531113754,51.70822567769054L210.61364261082238,59.01906110546659L211.10881575175694,64.47691772727798L211.27387346540178,76.20580201081626L211.43893117904662,81.963472644943L211.6865177495139,86.6802566862579L211.7690466063363,111.07627114554032L211.85157546315875,114.20645344136558L211.93410431998117,109.1439418741601L212.18169089044844,109.79625218735886L212.34674860409328,96.69800031520144L212.75939288820538,101.17225869716164L213.00697945867267,93.41131447920404L213.1720371723175,83.96064012465307L213.50215259960717,67.40970885173313L213.58468145642962,47.21547296244006L213.99732574054173,80.26035609951553L214.3274411678314,101.45971576802626L214.5750277382987,80.20382630818558L214.6575565951211,78.22993579081417L214.82261430876594,75.87859973525977L215.15272973605565,92.26572143986726L215.23525859287807,102.19757751842123L215.4003163065229,93.41757199476248L215.48284516334533,102.52709322394165L215.97801830427986,106.8723870353885L216.0605471611023,110.27655288003918L216.22560487474715,114.30468480520341L216.39066258839196,102.72448344177435L216.63824915885925,122.03066844361044L216.7207780156817,132.19145843413432L216.88583572932654,142.17847420829784L217.13342229979378,106.99391348397344L217.4635377270835,75.81759175404832L217.62859544072833,60.64448111657289L217.71112429755073,72.3981126120001L217.8761820111956,99.59836082854711L217.95871086801802,103.46664870314305L218.53641286577496,67.23565633487598L218.7014705794198,11.112558360173644L218.9490571498871,27.21928676247282L219.11411486353194,43.73739442199525L219.19664372035436,45.32193525773109L219.27917257717678,69.90528791422533L219.77434571811133,66.05746767683914L220.59963428633552,-5.697422623007571L221.67250942502704,-58.96377008186932L221.75503828184944,10.288845237475865L221.8375671386719,10.09745201947814L222.00262485231673,45.04644611980791L222.16768256596157,68.71392850717015L222.250211422784,85.2418979975941L222.58032685007367,28.093421225796437L223.0754999910082,38.93278929005771L223.24055770465307,61.79681071053606L223.4056154182979,79.24375028380848L223.7357308455876,81.64435072475413L224.47849055698939,82.99724893712884L224.56101941381183,50.21157310413986L224.64354827063423,37.190195438909406L224.9736636979239,31.222086640236448L225.38630798203604,29.595169546680907L225.46883683885846,16.129296884621663L225.5513656956809,31.4203969384522L225.8814811229706,23.312145534323804L225.964009979793,23.590762004161878L226.21159655026028,40.4960625188499L226.37665426390512,28.893363731611842L226.6242408343724,33.25724977045241L227.03688511848452,49.34646193573085L227.20194283212933,33.32171025765556L227.36700054577418,60.919732618191155L227.44952940259662,34.635434692033954L227.8621736867087,47.13230143174913L228.02723140035357,57.18393174701299L228.43987568446568,54.278394358972925L228.68746225493294,55.59661127020282L228.85251996857778,49.12084780638464L229.01757768222262,45.211790876193014L229.43022196633476,65.01101329864348L229.67780853680202,39.1536573091191L229.84286625044686,52.06332932901561L230.0079239640917,42.97059193843082L230.09045282091415,50.03636321037208L230.3380393913814,40.55090615851114L230.4205682482038,45.189963971257235L230.50309710502626,61.44433574200365L230.7506836754935,43.85080852936725L230.83321253231594,22.67911725170507L230.91574138913833,18.601451050436474L231.57597224371773,27.771946288318404L231.65850110054018,52.24015798380059L231.74102995736257,59.002578237930194L231.9060876710074,63.005114823091766L231.98861652782986,67.64458396131236L232.31873195511955,62.6379444783067L232.4837896687644,66.38265995322077L233.22654938016618,68.46506058004694L233.63919366427828,45.80381061770269L233.72172252110073,59.984739846348326L233.80425137792312,88.45056161005505L233.96930909156802,92.18770623791517L234.3819533756801,95.01149021109222L234.46448223250252,79.41148439251708L234.54701108932497,83.44839151702301L234.62953994614736,82.6866626568522L234.7945976597922,57.91810790202666L234.95965537343704,60.82693880093211L235.28977080072676,81.14639257561103L235.61988622801644,82.45092993628556L235.70241508483886,95.84057744237465L235.86747279848373,97.94411369589787L236.11505936895097,112.35720630671729L236.2801170825958,90.35112858858021L236.85781908035278,72.56236426590847L237.2704633644649,55.1539339716605L237.51804993493215,27.7130095132509L237.93069421904428,37.996541367306016L238.17828078951155,67.81736765939866L238.26080964633397,84.57204397748258L238.3433385031564,62.34902018784324L238.67345393044607,67.03912412722504L239.00356935773576,69.76248039163467L239.1686270713806,69.4781386025993L239.82885792596,56.1436854293336L239.91138678278242,57.77692146928455L239.99391563960484,67.32454677908166L240.32403106689452,51.50803453782165L240.65414649418423,65.94427446145674L240.98426192147392,74.49105617394362L241.0667907782963,46.81019055954468L241.39690620558602,48.99213156622939L241.47943506240844,43.985398111795355L241.56196391923086,33.34374051559489L241.64449277605328,52.13529313025569L241.974608203343,62.28902833252763L242.22219477381023,56.44171339372924L242.46978134427752,53.73225052175202L242.63483905792236,31.609552860858113L242.7998967715672,27.230835573777917L243.13001219885692,51.04986107196883L243.54265648296902,49.98596495601803L243.62518533979144,55.24691620319143L243.70771419661386,77.32926437338772L243.8727719102587,57.43203969900288L243.9553007670811,74.87329310872147L244.120358480726,72.07233821865152L244.28541619437084,83.11488238544929L244.36794505119323,73.69534522341901L244.45047390801565,59.17265971539327L245.11070476259502,49.06180413823169L245.27576247623986,37.93353141934737L245.52334904670715,59.66261678286462L245.60587790352957,53.8835209642656L245.688406760352,44.59586145446622L245.77093561717442,56.66559497913103L245.93599333081926,80.39501786811066L246.1010510444641,30.153519365241824L246.3486376149314,34.560293719930385L246.43116647175378,25.043344822609843L246.7612818990435,31.112211291498202L246.84381075586592,61.549479763948206L246.92633961268834,50.3141028854723L247.17392618315563,31.89557256963221L247.83415703773497,40.22778378560844L249.31967646053857,30.164420623313344L249.40220531736102,26.37002522844663L249.81484960147313,38.841051939780435L249.89737845829555,19.82265908455893L250.06243617194042,30.701703724590764L250.22749388558526,20.37903431373685L250.31002274240765,12.675452459967218L250.55760931287494,-6.417436307294788L250.8877247401646,9.801569453334645L250.97025359698705,8.15239654312L251.1353113106319,26.373729366446067L251.30036902427673,44.16411936359406L251.38289788109915,30.340511714516957L251.79554216521126,22.56753614445207L251.87807102203368,25.34999782193527L252.12565759250097,47.68751753291729L252.20818644932336,44.44884555257402L252.53830187661308,39.39679930190393L252.6208307334355,5.590689733606708L252.70335959025792,2.8024028402079084L253.19853273119244,7.967874768986489L253.36359044483729,22.318113764586254L253.44611930165973,31.859079561774806L253.52864815848213,33.48644178054226L254.60152329717366,24.89495586328044L254.68405215399605,6.465091700220262L254.84910986764092,-3.019004592988366L255.261754151753,7.643715084334018L255.67439843586513,29.944117745014623L255.83945614950997,35.61646826758382L256.3346292904445,30.72109741649277L256.49968700408937,36.024510591408955L256.6647447177342,63.47916857368209L256.82980243137905,44.61740735945366L256.9123312882015,41.928179938089386L257.0773890018463,75.66095297514968L257.4900332859584,41.084561860640065L257.57256214278084,49.26980293499917L257.65509099960326,55.10321106669945L257.7376198564257,30.614600600677228L257.98520642689294,33.88469097512061L258.0677352837154,29.062658358679027L258.3153218541826,25.604451600750824L258.39785071100505,29.96867112089426L258.4803795678275,45.65305809616602L258.5629084246499,47.03465975476016L258.8930238519396,37.442412983460606L258.97555270876205,10.854826790205706L259.38819699287416,10.922955376356494L259.553254706519,15.868372235904989L259.9658989906311,16.08982985054648L260.0484278474535,39.78976607271208L260.21348556109837,51.520773363645596L260.3785432747432,28.161724168692885L260.46107213156563,22.45587517116195L260.62612984521047,30.229360175138318L260.7911875588553,12.631189057687155L261.2038318429674,6.1165034100435065L261.4514184134347,21.99529046818375L261.6164761270795,24.604699561038792L261.699004983902,36.98030128573765L262.0291204111917,20.936374406976935L262.4417646953038,36.18524366356162L263.01946669306074,19.419294116300353L263.10199554988316,14.348708265466094L263.51463983399526,7.890672076667537L263.6796975476401,18.391848296397264L264.0923418317522,32.55729018185284L264.1748706885747,34.63519392192825L264.25739954539705,44.19276059015648L264.3399284022195,37.34287886901966L265.0826881136213,19.61675153637283L265.4953323977334,26.310908639030266L265.7429189682007,34.440967612834754L265.8254478250231,32.18518809712904L266.5682075364249,26.88830205484796L266.73326525006973,17.145929616291333L266.980851820537,22.577237676689723L267.14590953418184,-9.88588260035824L267.6410826751164,8.763275504131869L268.21878467287337,9.17793320388824L268.3838423865182,8.614182389040186L268.46637124334063,17.77633211346232L268.6314289569855,9.76251239595317L268.87901552745274,18.521885377541086L269.2091309547424,-5.582247248384698L269.4567175252097,13.121151937865088L269.5392463820321,9.96956117620081L269.70430409567695,27.155999166842946L269.8693618093218,40.014735718157226L269.95189066614427,48.78520465828526L270.4470638070788,39.27555179635232L270.5295926639012,45.07144046714416L270.69465037754605,36.3699588789252L270.8597080911909,9.919573853729107L271.10729466165816,14.574612135722207L271.6849966594151,23.74166450714352L272.0151120867048,36.86953394503563L272.0976409435272,56.69197465051927L272.3452275139945,65.71739759358833" fill="none"></path></g></g></g></g><g opacity="0.2"><g><g><g><path style="fill: none;" stroke="rgb(255, 112, 67)" stroke-width="2px" d="M42.74994783401489,183.87439656095583L42.91500554765974,157.28031392011985L43.16259211812701,239.163718380122L43.32764983177185,174.76108042079773L43.41017868859427,207.82580887751465L43.74029411588397,183.8738311497093L43.987880686351225,155.05664866770076L44.152938399996074,81.37978206128537L44.730640397753035,25.337438476392435L45.060755825042726,-36.537263468940196L45.14328468186515,8.283822503342435L45.225813538687575,61.98508082210993L45.47340010915484,98.0106117747664L46.21615982055664,109.15560954550529L46.29868867737906,113.24572382626685L46.38121753420148,111.90267775571785L46.62880410466875,122.41178223426232L46.87639067513602,133.43670079152616L47.20650610242571,123.90690626101787L47.5366215297154,-1.4473821146293762L47.619150386537825,65.4955778988051L47.701679243360246,-46.772161162034536L47.86673695700509,25.715362887372073L48.03179467064994,10.549955441103968L48.11432352747236,115.00266859835392L48.27938124111721,144.1555905116229L48.36191009793963,134.5793085751916L48.52696781158448,118.31666759778956L48.69202552522932,-34.264380934423556L51.66306437083653,-14.406325178742918L51.99317979812622,25.98273173055987L52.24076636859349,19.01085767920904L52.40582408223834,17.29623040510205L52.570881795883174,53.464368675586236L53.313641507284984,68.70615964743592L53.80881464821952,80.53898019953976L54.221458932331636,104.7394473356303L54.30398778915405,214.0763595311455L54.55157435962132,202.20993234807793L54.71663207326616,110.86763946169867L54.88168978691101,85.54751670473024L55.37686292784555,203.36194892826714L55.45939178466797,202.7598477926017L56.20215149606977,157.33591858239265L56.367209209714616,217.98055069186717L56.53226692335946,106.03771990309724L56.77985349382673,81.12935788639106L57.52261320522854,117.00936611948009L57.7701997756958,161.92731410592842L57.85272863251822,63.79088065971474L58.017786346163064,127.21530415529287L58.265372916630334,70.55641494429665L58.843074914387294,134.6703397858778L59.00813262803214,83.84370292071253L59.090661484854564,160.92001630119057L59.42077691214425,97.24061000254324L59.50330576896667,200.70960477094445L59.5858346257891,231.03062214672494L59.66836348261152,96.77036453647135L59.91595005307879,197.75217707338243L59.99847890990121,201.7958127827717L60.3285943371909,123.35349233440638L60.41112319401332,76.3733481791678L60.49365205083575,156.96067104028316L60.90629633494786,132.53190144431755L61.07135404859271,214.21767700456712L61.153882905415124,139.12535634984806L61.483998332704815,124.5343537227177L61.896642616816926,204.79779311964762L61.979171473639354,163.51681763809552L62.144229187284196,185.05864158219538L62.309286900929045,162.42753520261545L62.391815757751466,176.69664213947385L62.47434461457389,176.69664213947385L62.72193118504115,53.007693079430275L62.886988898686,59.200430433106696L63.13457546915327,94.0541995847002L63.29963318279811,162.76475883839794L63.54721975326538,203.76537868719424L63.6297486100878,118.01109815726022L63.95986403737749,96.25504519259266L64.04239289419992,264.877007356711L64.12492175102234,159.74899660238862L64.20745060784476,117.49157356723572L64.45503717831203,160.466591819702L64.53756603513445,185.41932095015684L65.85802774429321,186.90148469099657L66.02308545793805,168.0706309828406L66.18814317158291,153.70657029477343L66.27067202840533,172.96251608023795L66.51825859887259,157.27632070319146L66.60078745569501,132.8808661980156L66.68331631251743,60.87185675416094L66.84837402616229,184.87762163780872L67.34354716709682,109.26107641207864L67.42607602391924,164.83130160614564L67.50860488074166,172.0430513788233L67.92124916485378,172.932566953275L68.08630687849862,71.27469925656669L68.16883573532104,29.19603452081447L68.3338934489659,129.84632170716168L69.15918201719012,70.21775127674573L69.32423973083496,96.4872348547874L69.57182630130222,189.7679960270318L69.8194128717695,70.10541112970714L69.98447058541434,99.8280908884317L70.2320571558816,108.93326157281992L70.39711486952646,98.24264241504808L70.56217258317129,55.65547860857806L70.72723029681615,153.6775222919846L70.97481686728341,63.72472754387446L71.05734572410583,45.13451816295855L71.22240343775069,94.33197552864387L71.80010543550765,136.79792929914584L71.88263429233007,120.13835195760066L71.96516314915249,101.52269907059235L72.04769200597491,105.05759717639421L72.87298057419913,181.21222838322524L73.12056714466641,158.9203069096891L73.20309600148883,144.655131347904L73.53321142877851,5.128315343940806L73.94585571289063,115.09843512822955L74.11091342653546,84.43095317660664L74.2759711401803,114.78355407123445L74.52355771064758,151.48284320049925L74.77114428111484,150.65758131348161L75.26631742204938,167.88340918384392L75.3488462788718,126.01839922286217L75.51390399251666,164.77863001471405L75.59643284933908,175.46953187810914L76.0916059902736,153.29882927509175L76.17413484709604,148.50337329887452L76.4217214175633,148.29134408143773L76.751836844853,141.70018615909612L76.83436570167542,109.19437555409333L76.91689455849784,153.08873482426407L76.99942341532027,56.187883973561846L77.41206769943238,167.5814354054603L77.65965426989963,126.21364279391857L77.74218312672205,159.75989843798516L77.82471198354447,162.06364889274028L78.2373562676566,129.47173675635668L78.65000055176871,174.86943618545865L78.81505826541355,192.97462873148788L78.9801159790584,193.37419779174752L79.06264483588082,97.05059648551696L79.22770254952567,114.82852193443252L79.88793340410506,104.77674680879774L80.21804883139474,28.557755899923897L80.30057768821717,107.36694873630996L81.12586625644138,139.01720377985384L81.5385105405535,175.31400844711925L81.70356825419834,129.49732161526072L81.78609711102077,115.00851707093489L81.86862596784319,117.84838340197894L81.95115482466561,128.22993463713374L82.2812702519553,88.42042425549153L82.69391453606742,54.39309198616228L82.77644339288985,75.40727238811996L83.02402996335711,55.53465729284198L83.43667424746923,64.7608966603866L83.51920310429165,102.71276606076071L83.84931853158133,130.4691045260779L83.93184738840377,148.58006603373155L84.01437624522619,86.16061685605018L84.17943395887103,105.53333773301802L84.42702052933828,111.69172635346968L84.75713595662798,96.12531864972426L84.8396648134504,111.40045121601588L85.1697802407401,110.41190032791975L85.25230909756252,95.89763460840004L85.66495338167464,86.94593773923316L85.83001109531948,120.96961250456161L86.2426553794316,84.03258561524581L86.32518423625402,108.51427417006335L86.40771309307644,134.50944494804617L86.6552996635437,105.73868803010555L86.73782852036612,131.96226728257216L86.82035737718854,106.60083416640647L87.06794394765582,111.73720662060987L87.15047280447824,58.554536429489865L87.23300166130066,72.04263374391985L87.31553051812308,90.0024625922947L87.72817480223519,57.586428691774934L87.89323251588003,83.85221942761291L87.97576137270245,59.08031588142875L88.05829022952489,73.08313179028801L88.1408190863473,107.57418962725296L88.38840565681457,127.30167072319547L88.55346337045941,90.61715296274542L88.80104994092669,70.1731898028811L88.88357879774911,82.62266199569694L89.29622308186123,77.55458061860963L89.37875193868365,105.65278085884074L89.62633850915091,156.12988755906144L89.79139622279575,102.94919630730419L90.20404050690787,151.69737259579165L90.36909822055271,95.67682384754109L90.61668479101999,87.04891326250163L90.78174250466483,121.29297473025419L90.86427136148725,100.05962679387268L90.94680021830968,96.38113190056175L91.02932907513211,59.76289093966215L91.19438678877695,36.44441234080433L91.27691564559936,52.17455960771531L91.4419733592442,93.18722978370262L91.60703107288904,113.21132208573773L91.68955992971148,91.11296561861991L91.7720887865339,71.4090197658129L92.01967535700116,134.48062664357622L92.26726192746844,39.73632496342362L92.67990621158054,58.901486905622285L93.01002163887024,155.99835876784482L93.09255049569266,122.37195607958711L93.2576082093375,139.5531959724326L93.50519477980478,65.9381535520015L93.83531020709447,78.19496186257311L93.91783906391689,70.69849218908075L94.08289677756174,94.24672211413281L94.16542563438416,67.94202401689518L94.24795449120658,77.94872526472318L94.330483348029,100.41343288136886L94.6605987753187,68.6725530164722L94.74312763214111,85.24564010640461L94.90818534578595,110.01635982279142L94.99071420260837,127.04485033357516L95.32082962989807,10.166712630586964L95.98106048447745,115.08673818306761L96.31117591176714,128.27329461209956L96.39370476858957,245.7272506623417L96.64129133905683,97.72301181041486L96.72382019587926,35.77690902611039L96.80634905270168,143.73344033970625L96.97140676634652,225.93930590122682L97.05393562316895,-48.93627270800606L97.2189933368138,174.78671828700612L97.38405105045864,61.715980406979725L97.46657990728106,45.200441580479946L97.63163762092591,194.5082360612082L97.79669533457076,136.75997606922465L98.044281905038,183.41945253674226L98.29186847550528,207.27781936504925L98.62198390279497,79.55610109301006L98.70451275961739,60.885815344308874L99.28221475737435,13.088033519329656L99.4472724710192,90.5078342320553L99.52980132784162,73.70974880421954L99.94244561195373,107.28683703032175L100.27256103924343,96.47237514046537L100.43761875288827,65.57088360919806L100.76773418017797,86.79958457189741L101.18037846429009,101.25356331725926L101.59302274840218,152.0357447231686L101.6755516052246,62.75322733868052L101.75808046204703,69.48253996528365L102.0056670325143,113.13765960177989L102.17072474615914,16.664542359053485L102.33578245980398,98.37890652545411L102.41831131662641,115.54373182304971L102.58336903027126,240.5982285543428L102.83095560073852,113.95354803047667L102.91348445756094,121.8515303653885L102.99601331438338,48.67833916499422L103.16107102802822,68.7307903748615L103.32612874167306,49.936396857553966L103.40865759849548,113.50575999235161L103.57371531214034,63.44976098706183L103.73877302578518,158.2857829728573L104.06888845307486,93.46129521634111L104.23394616671972,170.1669726901889L104.5640615940094,38.23005173365117L104.64659045083182,221.40810900634165L104.8941770212991,146.83410260819755L105.05923473494393,152.2846670244394L105.30682130541119,134.72509633128084L105.47187901905605,254.11594370008345L105.63693673270089,81.5306585185931L105.88452330316815,184.7640976609728L106.13210987363543,58.623869983591696L106.21463873045785,80.38916388831922L106.62728301456997,107.78256134068897L107.03992729868207,95.52896880658182L107.37004272597177,198.87655034434832L107.78268701008389,234.28426791287222L107.86521586690631,38.863577366250865L108.2778601510184,93.05273258344187L108.52544672148568,67.89983020262525L108.6079755783081,50.48429802451211L108.69050443513052,179.1884183373418L108.77303329195294,40.30836212296662L108.9380910055978,77.5878338675443L109.18567757606506,134.76804991691324L109.43326414653232,36.61753419684147L110.17602385793414,145.86763809691774L110.4236104284014,203.78136038945854L111.00131242615836,107.02764898110674L111.08384128298079,114.36638658592756L111.1663701398032,136.95688053581762L111.4964855670929,140.53213486933828L111.66154328073775,79.18566838104653L111.82660099438257,124.70501957365286L111.90912985120502,39.48468162052904L112.23924527849469,139.29782444913144L112.73441841942923,109.0743670170241L112.89947613307407,147.9900682325615L113.14706270354135,97.18984667406858L113.22959156036377,182.09086862573258L113.72476470129831,200.51361026307632L113.88982241494315,55.08803541541284L114.054880128588,141.18506117533343L114.46752441270012,100.26199101281463L114.55005326952254,64.986442740435L114.7976398399898,117.83737555177369L115.1277552672795,26.901118616785872L115.29281298092432,80.4535854322171L115.62292840821402,109.4271129584331L115.70545726503644,199.81906438860847L115.9530438355037,129.86248893499123L116.11810154914856,46.4797728711892L116.20063040597098,121.18234848605654L116.44821697643825,33.6127798110374L116.53074583326067,172.4713415634949L116.77833240372794,2.0249143647242884L116.86086126055037,24.40413886854003L116.94339011737279,98.98599918228001L117.43856325830733,109.94939392828428L117.85120754241943,123.71645101645527L118.01626525606429,173.23410783867303L118.09879411288671,40.55417466238169L119.25419810840062,106.20061134939306L119.33672696522304,89.42818145686715L119.50178467886788,33.50305469101386L120.07948667662484,-15.249459361880326L120.16201553344726,18.168483267434105L120.24454439026968,109.26333805706464L120.57465981755938,197.09503668669072L120.6571886743818,140.63011003689553L120.9873041016715,125.56757209928719L121.31741952896118,166.60665758194682L121.3999483857836,137.95239304988627L121.56500609942846,109.19769734516649L121.7300638130733,162.0362529509373L121.81259266989572,101.98866861411263L121.89512152671814,122.27156024513079L121.97765038354055,134.6114133325318L122.63788123811993,168.4197105856981L122.96799666540963,194.20295816085286L123.13305437905447,109.40241155460171L123.38064094952175,126.34089566258353L123.79328523363385,0.48326759384281104L124.28845837456839,83.08760673133293L124.37098723139081,118.77896196820757L124.45351608821325,157.4889683391791L124.61857380185809,100.88710615312266L124.86616037232535,146.59986333023426L125.69144894054958,58.749850676952065L125.85650665419442,4.374268770329763L126.02156436783926,71.04445319553179L126.26915093830654,107.57433098006459L126.5167375087738,-7.0140325274178394L126.68179522241864,160.53793965136947L126.76432407924106,-36.41135345198563L127.17696836335318,45.542727413828736L127.2594972201756,169.76115760256562L127.50708379064288,156.35401127644286L127.5896126474653,98.52985365916766L127.67214150428772,113.17737974184638L127.91972807475499,139.94749964045923L128.0022569315774,47.14287657962132L128.3323723588671,124.64969761700331L128.49743007251195,250.07823155695633L128.99260321344647,87.65964575422686L129.1576609270913,125.01679086879223L129.4052474975586,82.544900280202L129.7353629248483,83.2036043823723L130.06547835213797,97.2752944486956L130.23053606578281,82.5526923539428L130.56065149307253,73.35292130037487L130.64318034989495,132.07155067505937L131.05582463400705,130.31312169845023L131.2208823476519,97.94136656617184L132.21122862952097,186.8081653316722L132.54134405681066,129.36657026450803L132.62387291363308,107.16467286287526L132.7064017704555,142.69520393832408L132.95398834092276,194.6031809778663L133.1190460545676,139.8286572640859L133.36663262503487,159.54979515260675L133.69674805232458,89.59382928298965L133.86180576596942,105.42567989786448L133.9443346227918,141.9530663390924L134.27445005008153,102.97227215380191L134.35697890690395,84.58870291437961L134.6045654773712,50.60093176320379L134.9346809046609,99.65666526613406L135.01720976148331,118.56809891146668L135.18226747512819,-4.06021816110298L135.34732518877303,11.009299071579335L135.5949117592403,45.767390038804486L136.0075560433524,38.08892862034554L136.17261375699724,115.10361217495529L136.33767147064208,115.37000921756317L136.58525804110937,-3.2075426631809156L136.99790232522147,48.89517437802623L137.0804311820439,82.97572598093211L137.24548889568874,-17.18252973725157L137.41054660933358,35.63977912973314L137.493075466156,53.60755907376188L137.57560432297845,12.47018037971884L137.82319089344568,124.7478494755751L138.23583517755782,31.812899122419374L138.40089289120266,177.10634442941682L138.48342174802508,-9.96911906903732L138.81353717531476,109.2248017467955L139.22618145942687,47.816581748925266L139.55629688671658,59.34998170780546L139.88641231400626,4.583541607939878L139.96894117082869,78.27009088195155L140.3815854549408,126.59957130785642L140.54664316858566,183.63377873736795L140.7117008822305,126.24138328319987L140.87675859587534,148.896033740466L141.12434516634258,141.91746309966447L141.20687402316503,121.3435613677143L141.5369894504547,82.92936225871927L142.03216259138924,140.04420263271186L142.19722030503408,183.5086019881237L142.36227801867895,85.14632208713692L142.5273357323238,147.68319127852465L142.6098645891462,137.0840627280768L143.02250887325832,175.83173962334627L143.43515315737042,164.7213467878032L143.6827397278377,86.54924874251037L143.84779744148256,108.16735903213386L144.0128551551274,138.2925939292636L144.09538401194982,115.03344817308518L144.26044172559466,146.36551803766224L144.4254994392395,101.23412730566088L144.6730860097068,111.23056280554465L144.8381437233516,197.7406126464814L144.92067258017403,173.15233523714824L145.00320143699645,148.1146000596027L145.0857302938189,66.74185030069566L145.66343229157584,95.82324769128263L145.8284900052207,83.44547671216333L146.07607657568795,131.11766656401414L146.15860543251037,78.72759692587579L146.24113428933282,114.40400410292114L146.73630743026735,140.99808674375709L147.14895171437945,167.65606085544732L147.3965382848467,86.72980929025925L147.47906714166913,164.63505089630644L148.13929799624853,-28.566555112447546L148.22182685307092,75.69234567096373L148.30435570989337,104.69690013933132L148.38688456671576,124.14740040089555L148.5519422803606,73.79837701710812L148.96458656447274,91.49142010264315L149.12964427811758,131.37475199015626L149.21217313494,95.55167360194902L149.8724039895194,151.27348201738187L149.95493284634182,46.75629430892969L150.2850482736315,103.61548045399786L150.45010598727637,131.1849151641445L150.61516370092122,94.13005303723821L150.6976925577436,32.14460116399777L150.86275027138845,20.199970537898935L151.19286569867816,14.9779206107496L151.27539455550055,50.93913603411692L151.4404522691454,77.90255590262632L151.6055099827903,52.343741254128425L151.6880388396127,63.592191613874995L151.85309655325753,14.896077332818997L151.93562541007995,24.212835507107684L152.01815426690237,36.34286801475355L152.1006831237248,84.75387367476287L152.43079855101448,103.2955460339872L152.51332740783693,43.767654143650816L152.76091397830416,-45.141161745104895L152.8434428351266,128.77253507365594L152.92597169194903,105.06673210184545L153.2560871192387,-31.10366139009328L153.33861597606113,-29.472237914728808L153.503673689706,13.764018002721066L153.91631797381808,224.42574858438036L154.57654882839748,185.66195305131032L154.82413539886477,63.528105782904724L154.98919311250958,66.41347005019043L155.15425082615442,52.53893181788044L155.23677968297687,39.07836296351434L155.56689511026656,45.6133684814381L155.7319528239114,108.47768146095405L155.97953939437866,-15.764761036657559L156.06206825120108,39.903492332271064L156.22712596484592,18.290912471402407L156.80482796260287,18.44018104047791L156.96988567624774,36.1743047868913L157.05241453307016,36.65453329528419L157.38252996035985,128.59257527535647L157.46505881718227,-1.2613971527343761L157.71264538764956,66.28383185282928L157.79517424447195,71.08030380238006L157.8777031012944,69.94048773674422L158.04276081493924,58.51774936026458L158.12528967176164,84.47519660664511L158.2903473854065,137.34639587735046L158.45540509905135,17.745272949430266L158.53793395587374,51.31863299512589L158.86804938316345,127.3180676493439L159.11563595363071,95.54298040403411L159.44575138092043,-88.32465772561592L159.52828023774282,97.23815399744127L159.7758668082101,87.36050786662645L159.94092452185495,24.485081022296526L160.1059822354998,123.17501674062896L160.18851109232222,80.33958438964191L160.27103994914464,40.13571733266871L161.01379966054643,99.36238638143323L161.1788573741913,152.91109851280567L161.42644394465853,43.106935763914855L161.59150165830337,79.54111769497786L161.75655937194827,119.21363953305445L162.33426136970522,39.45271821600044L162.4167902265276,202.50149019115497L162.6643767969949,37.12636898048686L162.7469056538173,168.54820912601554L162.82943451063974,73.96494363650618L163.24207879475185,17.196452989196594L163.4896653652191,49.53521990906211L163.65472307886398,123.04454809549954L163.90230964933122,126.58695556941893L163.98483850615366,175.06705625066047L164.06736736297606,159.48092982969342L164.39748279026577,83.64029622478483L164.4800116470882,81.60465671547854L164.64506936073303,25.24147758640084L164.8101270743779,198.65067738592302L164.8926559312003,107.59698276812742L165.22277135848998,97.57761277455758L165.3053002153124,71.32606333449075L165.63541564260208,118.4699470528949L165.71794449942453,49.1651582482291L165.88300221306937,5.20014024134752L166.04805992671422,93.21670184492633L166.46070421082632,73.38023773122131L166.54323306764877,69.9046547989974L166.7082907812936,71.34816738040854L166.95587735176085,19.669915163408398L167.53357934951782,22.346324636910147L167.69863706316266,94.90544388540457L168.02875249045238,90.60042032366938L168.11128134727477,63.41304459424237L168.44139677456448,31.179638526341478L168.52392563138687,127.89001646337965L169.01909877232143,70.66977989921952L169.2666853427887,66.94603443708729L169.3492141996111,162.97712376876234L169.43174305643353,82.5092086952668L169.5968007700784,56.762094432583574L169.6793296269008,59.219583739081834L169.76185848372324,-43.670103034528424L169.84438734054564,43.34456750935714L170.17450276783535,39.196321884815L170.25703162465777,124.57539904539318L170.4220893383026,158.34613178887025L170.50461819512503,174.20754281047607L170.66967590876988,181.9184977065072L170.91726247923717,-21.65761840047253L170.99979133605956,170.4494221114669L171.32990676334927,-80.08774668663138L171.4124356201717,50.00491763298896L172.0726664747511,185.8459414047411L172.4853107588632,63.81120012638576L172.98048389979772,217.8213609223258L173.0630127566201,232.24907896565298L173.14554161344256,95.80079026333578L173.55818589755467,100.19852360039522L173.88830132484435,68.18628167538236L174.3834744657789,82.74330662041848L174.7135898930686,134.08614628453506L175.04370532035827,141.92933673584093L175.2087630340031,93.36183584426182L175.37382074764795,149.2929524355077L175.62140731811522,121.41570430894717L176.03405160222735,111.8266829503682L176.44669588633946,103.88475756014259L177.02439788409643,44.16720553480901L177.51957102503096,164.78682847778828L177.6846287386758,60.253049483071656L177.84968645232067,164.71215885504762L178.0147441659655,154.45278062189004L178.0972730227879,142.22843928523844L178.3448595932552,66.01172769045206L179.08761930465698,84.23327126954973L179.9954367297036,24.01013557523811L180.07796558652606,72.24305436170198L180.32555215699333,13.062784373353232L180.40808101381575,65.50868837208327L180.73819644110543,84.50184161163634L180.82072529792785,-9.76359208093528L180.9857830115727,93.92588656994805L181.39842729568483,164.92447077810766L181.6460138661521,35.17732573740205L182.05865815026422,88.44344709468487L182.14118700708661,79.77816636007219L182.22371586390906,55.09533275431294L182.3887735775539,92.86081080345868L182.4713024343763,93.36132344031967L182.8839467184884,95.92104616782535L182.96647557531085,85.35983550909577L183.2140621457781,117.62483393039474L183.29659100260054,90.91143184744624L183.70923528671264,131.13378078453934L184.20440842764717,-39.34180926617955L184.28693728446962,-19.368268263401646L184.69958156858172,46.78495359148655L185.0296969958714,-9.595170205884642L185.44234127998354,139.29192296924612L186.10257213456288,56.94041100444792L187.42303384372167,82.2432003728909L187.5055627005441,98.0728423500841L187.9182069846562,18.657351966437545L188.99108212334767,66.59839486599822L189.07361098017012,50.040149821286384L189.48625526428222,42.16298168788625L189.65131297792706,60.49599962805133L189.8163706915719,68.44882685387347L189.89889954839435,105.65382333582647L189.98142840521675,71.98780652211099L190.31154383250643,215.86128332538354L190.4766015461513,40.44941455986645L190.64165925979614,18.932265515945794L190.80671697344098,55.64226212069115L191.05430354390828,-49.79481434761057L191.13683240073067,-36.72162287350149L191.3018901143755,3.7795798227239175L191.46694782802035,23.06100445248375L191.5494766848428,64.69204017202401L191.63200554166522,46.343314400667175L191.71453439848764,157.0121234637145L191.87959211213249,190.93728415389137L191.9621209689549,122.28364591052468L192.04464982577733,-14.673199287090016L192.2922363962446,137.8413250781523L192.952467250824,49.380844969666676L193.28258267811367,130.48620821628447L193.3651115349361,167.58018089925713L193.61269810540335,99.90837928543442L194.1078712463379,135.84218993244804L194.1904001031603,32.23034931334951L194.35545781680514,49.24023426030317L194.76810210091728,150.75675797993767L194.93315981456212,150.75675797993767L195.01568867138454,130.28578759850234L195.34580409867422,34.713953551795385L195.42833295549667,109.51084683021918L195.84097723960878,26.108924453137654L196.00603495325362,28.850603587407022L196.088563810076,43.60195331022396L196.25362152372085,125.02525436838823L196.9963812351227,52.70788376597465L197.0789100919451,170.85075808187185L197.24396780558993,158.70339218570052L197.40902551923477,216.33017710519425L197.65661208970207,49.8429449799687L197.7391409465245,93.10623462264176L198.4819006579263,62.104347256918125L198.97707379886083,121.92975147752124L199.55477579661778,75.3400237879896L199.88489122390746,63.646594777249L199.96742008072988,151.6225439511379L200.29753550801956,162.91841817918453L201.04029521942138,167.28691798788986L201.3704106467111,-14.381871142331862L201.45293950353349,159.51866219584645L201.53546836035594,163.34670836385612L201.94811264446804,130.97525360630243L202.44328578540257,136.31999777394185L202.69087235586986,118.15162052111646L202.77340121269225,63.05543964993375L202.8559300695147,88.73337938042823L203.10351663998196,72.56878424698925L203.2685743536268,91.33216849124665L203.43363206727165,164.1117892913246L203.51616092409407,148.84004919251197L203.5986897809165,159.75890896830379L203.92880520820617,174.74076978867743L204.093862921851,179.85258219186107L204.34144949231828,122.50776079335537L204.42397834914073,47.99498666629688L204.50650720596312,153.7514409779135L204.83662263325283,160.43605077784036L205.33179577418736,64.84956021147809L205.90949777194433,29.354862073776076L205.99202662876675,121.38183264146164L206.07455548558917,101.01897065726689L206.48719976970128,-11.838050606133935L206.56972862652373,66.2340933322389L206.73478634016854,236.5769707619438L207.3950171947479,186.24766609537804L207.56007490839275,95.30875879517225L207.72513262203762,21.84423945001982L207.80766147886004,86.4425450388353L208.0552480493273,107.47534867372453L208.63295004708428,130.7731014165779L208.88053661755154,118.75385417504276L209.04559433119638,174.86030126000742L209.21065204484123,-25.913963587704544L209.62329632895336,55.5658609260081L210.03594061306543,25.048955056968232L210.11846946988786,9.035395402750062L210.2009983267103,31.89854125716237L210.531113754,80.21252588109292L210.61364261082238,69.98531424713065L211.10881575175694,72.66370265999512L211.27387346540178,93.79912843612374L211.43893117904662,90.59997859613304L211.6865177495139,93.7554327482303L211.7690466063363,147.6702928344639L211.85157546315875,118.90172688510347L211.93410431998117,101.55017452335187L212.18169089044844,110.774717657157L212.34674860409328,77.05062250696528L212.75939288820538,107.88364627010196L213.00697945867267,81.76989815226761L213.1720371723175,69.78462859282672L213.50215259960717,42.58331194235325L213.58468145642962,16.92411912850048L213.99732574054173,129.8276808051287L214.3274411678314,133.25875527079234L214.5750277382987,48.31999211842457L214.6575565951211,75.26910001475699L214.82261430876594,72.35159565192816L215.15272973605565,116.84640399677848L215.23525859287807,117.09536163625216L215.4003163065229,80.24756370927435L215.48284516334533,116.1913750677104L215.97801830427986,113.39032775255875L216.0605471611023,115.38280164701519L216.22560487474715,120.34688269294975L216.39066258839196,85.35418139663079L216.63824915885925,150.98994594636451L216.7207780156817,147.43264341992017L216.88583572932654,157.1589978695431L217.13342229979378,54.21707239748685L217.4635377270835,29.053109159160606L217.62859544072833,37.884815160359715L217.71112429755073,90.02855985514088L217.8761820111956,140.39873315336763L217.95871086801802,109.26908051503688L218.53641286577496,12.88916778247539L218.7014705794198,-73.07208860187983L218.9490571498871,51.37937936592153L219.11411486353194,68.51455591127888L219.19664372035436,47.69874651133477L219.27917257717678,106.78031689896672L219.77434571811133,60.285737320759836L220.59963428633552,-113.32975807277761L221.67250942502704,-44.682189165760064L221.75503828184944,114.16776821649364L221.8375671386719,9.810362192481541L222.00262485231673,97.46993727030258L222.16768256596157,104.21515208821347L222.250211422784,110.03385223322995L222.58032685007367,-57.62929393190008L223.0754999910082,55.191841386449596L223.24055770465307,96.09284284125351L223.4056154182979,105.4141596437171L223.7357308455876,85.24525138617264L224.47849055698939,85.02659625569095L224.56101941381183,1.033059354656416L224.64354827063423,17.658128941063744L224.9736636979239,22.269923442227075L225.38630798203604,27.15479390634755L225.46883683885846,-4.069512108467266L225.5513656956809,54.35704701919803L225.8814811229706,11.14976842813121L225.964009979793,24.008686708918965L226.21159655026028,65.854013290882L226.37665426390512,11.489315550754789L226.6242408343724,39.803078828713296L227.03688511848452,73.48028018364857L227.20194283212933,9.284582740542653L227.36700054577418,102.3167661589946L227.44952940259662,-4.7910121972017805L227.8621736867087,65.87760154132184L228.02723140035357,72.26137721990881L228.43987568446568,49.9200882769128L228.68746225493294,57.57393663704761L228.85251996857778,39.40720261065736L229.01757768222262,39.34820548090557L229.43022196633476,94.70984693231912L229.67780853680202,0.3676233248324868L229.84286625044686,71.42783735886042L230.0079239640917,29.33148585255367L230.09045282091415,60.63502011828404L230.3380393913814,26.322720580719768L230.4205682482038,52.14855069037639L230.50309710502626,85.8258933981233L230.7506836754935,17.460517710412653L230.83321253231594,-9.078419664788283L230.91574138913833,12.48495174853361L231.57597224371773,41.52768914514126L231.65850110054018,88.94247552702382L231.74102995736257,69.14620861912454L231.9060876710074,69.00891970083421L231.98861652782986,74.60378766864324L232.31873195511955,55.12798525379821L232.4837896687644,71.9997331655918L233.22654938016618,71.58866152028622L233.63919366427828,11.811935674186316L233.72172252110073,81.25613368931681L233.80425137792312,131.14929425561513L233.96930909156802,97.79342317970531L234.3819533756801,99.24716617085778L234.46448223250252,56.011475664654434L234.54701108932497,89.50375220378193L234.62953994614736,81.54406936659598L234.7945976597922,20.76527576978834L234.95965537343704,65.1901851492903L235.28977080072676,111.6255732376294L235.61988622801644,84.4077359772973L235.70241508483886,115.92504870150833L235.86747279848373,101.09941807618272L236.11505936895097,133.9768452229464L236.2801170825958,57.34201201137467L236.85781908035278,45.87921778190093L237.2704633644649,29.041288530288504L237.51804993493215,-13.448377174363486L237.93069421904428,53.42183914838869L238.17828078951155,112.54860709753757L238.26080964633397,109.70405845460846L238.3433385031564,29.014484503384217L238.67345393044607,74.07428003629775L239.00356935773576,73.8475147882491L239.1686270713806,69.05162591904627L239.82885792596,36.1420056694351L239.91138678278242,60.22677552921096L239.99391563960484,81.64598474377726L240.32403106689452,27.78326617593165L240.65414649418423,87.59863434690942L240.98426192147392,87.31122874267385L241.0667907782963,5.288892137946283L241.39690620558602,52.26504307625646L241.47943506240844,36.47529793014427L241.56196391923086,17.381254121294205L241.64449277605328,80.32262205224697L241.974608203343,77.51963113593547L242.22219477381023,47.670740985531666L242.46978134427752,49.66805621378626L242.63483905792236,-1.5744936304827337L242.7998967715672,20.66275964315765L243.13001219885692,86.77839931925519L243.54265648296902,48.39012078209179L243.62518533979144,63.13834307395154L243.70771419661386,110.45278662868213L243.8727719102587,27.58620268742562L243.9553007670811,101.03517322329937L244.120358480726,67.87090588354658L244.28541619437084,99.67869863564601L244.36794505119323,59.566039480373554L244.45047390801565,37.388631453354726L245.11070476259502,33.89552077248936L245.27576247623986,21.241122341020862L245.52334904670715,92.25624482814055L245.60587790352957,45.214877236367094L245.688406760352,30.664372189767157L245.77093561717442,74.77019526612821L245.93599333081926,115.98915220158005L246.1010510444641,-45.20872838906145L246.3486376149314,41.170455251963176L246.43116647175378,10.767921476628992L246.7612818990435,40.21551099483077L246.84381075586592,107.20538247262313L246.92633961268834,33.46103756775846L247.17392618315563,4.267777095872134L247.83415703773497,52.72610060957277L249.31967646053857,15.069375879870684L249.40220531736102,20.678432136146505L249.81484960147313,57.54759200678109L249.89737845829555,-8.704930198273372L250.06243617194042,47.0202706846385L250.22749388558526,4.8950301974559745L250.31002274240765,1.1200796793127732L250.55760931287494,-35.05676945818779L250.8877247401646,34.130078094278815L250.97025359698705,5.678637177798003L251.1353113106319,53.70572860143511L251.30036902427673,70.84970435931609L251.38289788109915,9.605100240901258L251.79554216521126,10.908072789354712L251.87807102203368,29.523690338160122L252.12565759250097,81.1937970993904L252.20818644932336,39.590837582059066L252.53830187661308,31.818729925898886L252.6208307334355,-45.11847461883916L252.70335959025792,-1.380027499890262L253.19853273119244,15.71608266215435L253.36359044483729,43.843472257985916L253.44611930165973,46.170528257557635L253.52864815848213,35.927485108693425L254.60152329717366,12.007726987387748L254.68405215399605,-21.179704544369997L254.84910986764092,-17.24514903280125L255.261754151753,23.637794600317655L255.67439843586513,63.394721736035535L255.83945614950997,44.12499405143762L256.3346292904445,23.378041139856116L256.49968700408937,43.97963035378325L256.6647447177342,104.66115554709177L256.82980243137905,16.324765538111023L256.9123312882015,37.894338806042924L257.0773890018463,126.26011253074012L257.4900332859584,-10.780024811124337L257.57256214278084,61.547664546537824L257.65509099960326,63.85332326424987L257.7376198564257,-6.118315098356106L257.98520642689294,38.789826536785775L258.0677352837154,21.82960943401668L258.3153218541826,20.41714146385857L258.39785071100505,36.51500040110931L258.4803795678275,69.17963855907374L258.5629084246499,49.107062242651416L258.8930238519396,23.05404282651125L258.97555270876205,-29.02655249967667L259.38819699287416,11.025148255582735L259.553254706519,23.28649752522778L259.9658989906311,16.422016272508706L260.0484278474535,75.33967040596053L260.21348556109837,69.11728430004587L260.3785432747432,-6.876849623736234L260.46107213156563,13.897101674865546L260.62612984521047,41.889587681102974L260.7911875588553,-13.766067618489627L261.2038318429674,-3.655525061421927L261.4514184134347,45.813471055394075L261.6164761270795,28.518813200321354L261.699004983902,55.543703872785954L262.0291204111917,-3.1295159111641757L262.4417646953038,59.05854754843859L263.01946669306074,-5.7296302045915715L263.10199554988316,6.742829489214734L263.51463983399526,-1.7963822065303379L263.6796975476401,34.14361262599186L264.0923418317522,53.80545301003621L264.1748706885747,37.75204953204139L264.25739954539705,58.52911059249892L264.3399284022195,27.068056287314455L265.0826881136213,-6.972439462597335L265.4953323977334,36.35214429301641L265.7429189682007,46.63605607354156L265.8254478250231,28.801518823570404L266.5682075364249,18.942972991426352L266.73326525006973,2.5323709584563403L266.980851820537,30.724199767287246L267.14590953418184,-58.58056301593025L267.6410826751164,36.7370126608671L268.21878467287337,9.79991975352278L268.3838423865182,7.768556166768115L268.46637124334063,31.51955670009557L268.6314289569855,-2.2582171803105666L268.87901552745274,31.660944849923L269.2091309547424,-41.73844618727345L269.4567175252097,41.176250717239775L269.5392463820321,5.242175033704364L269.70430409567695,52.935656152806125L269.8693618093218,59.30284054512867L269.95189066614427,61.94090806847725L270.4470638070788,25.01107250345285L270.5295926639012,53.76527347333194L270.69465037754605,23.317736496596815L270.8597080911909,-29.75600368406502L271.10729466165816,21.55716955871185L271.6849966594151,37.49224306427549L272.0151120867048,56.561338101873844L272.0976409435272,86.42563570874472L272.3452275139945,79.25553200819195" fill="none"></path></g></g></g></g></g></g><g transform="translate(41, 177)" clip-path="url(#clip_1)"><clipPath id="clip_1"><rect width="288" height="22"></rect></clipPath><g><g><line x1="0" y1="0" x2="0" y2="5" style="visibility: inherit;" fill="rgb(0, 0, 0)" stroke="rgb(204, 204, 204)" stroke-width="1px"></line><line x1="41.264428411211284" y1="0" x2="41.264428411211284" y2="5" style="visibility: inherit;" fill="rgb(0, 0, 0)" stroke="rgb(204, 204, 204)" stroke-width="1px"></line><line x1="82.52885682242257" y1="0" x2="82.52885682242257" y2="5" style="visibility: inherit;" fill="rgb(0, 0, 0)" stroke="rgb(204, 204, 204)" stroke-width="1px"></line><line x1="123.79328523363385" y1="0" x2="123.79328523363385" y2="5" style="visibility: inherit;" fill="rgb(0, 0, 0)" stroke="rgb(204, 204, 204)" stroke-width="1px"></line><line x1="165.05771364484514" y1="0" x2="165.05771364484514" y2="5" style="visibility: inherit;" fill="rgb(0, 0, 0)" stroke="rgb(204, 204, 204)" stroke-width="1px"></line><line x1="206.32214205605644" y1="0" x2="206.32214205605644" y2="5" style="visibility: inherit;" fill="rgb(0, 0, 0)" stroke="rgb(204, 204, 204)" stroke-width="1px"></line><line x1="247.5865704672677" y1="0" x2="247.5865704672677" y2="5" style="visibility: inherit;" fill="rgb(0, 0, 0)" stroke="rgb(204, 204, 204)" stroke-width="1px"></line><line x1="288.850998878479" y1="0" x2="288.850998878479" y2="5" style="visibility: inherit;" fill="rgb(0, 0, 0)" stroke="rgb(204, 204, 204)" stroke-width="1px"></line></g><g transform="translate(0, 8)"><text style="text-anchor: middle; visibility: hidden; font-family: Roboto, sans-serif; font-size: 12px; font-weight: 200;" x="0" y="0" dx="0em" dy="0.95em" fill="rgb(50, 49, 63)" stroke="none" stroke-width="1px">-500</text><text style="text-anchor: middle; visibility: hidden; font-family: Roboto, sans-serif; font-size: 12px; font-weight: 200;" x="41.264428411211284" y="0" dx="0em" dy="0.95em" fill="rgb(50, 49, 63)" stroke="none" stroke-width="1px">0</text><text style="text-anchor: middle; visibility: hidden; font-family: Roboto, sans-serif; font-size: 12px; font-weight: 200;" x="82.52885682242257" y="0" dx="0em" dy="0.95em" fill="rgb(50, 49, 63)" stroke="none" stroke-width="1px">500</text><text style="text-anchor: middle; visibility: hidden; font-family: Roboto, sans-serif; font-size: 12px; font-weight: 200;" x="123.79328523363385" y="0" dx="0em" dy="0.95em" fill="rgb(50, 49, 63)" stroke="none" stroke-width="1px">1k</text><text style="text-anchor: middle; visibility: hidden; font-family: Roboto, sans-serif; font-size: 12px; font-weight: 200;" x="165.05771364484514" y="0" dx="0em" dy="0.95em" fill="rgb(50, 49, 63)" stroke="none" stroke-width="1px">1.5k</text><text style="text-anchor: middle; visibility: hidden; font-family: Roboto, sans-serif; font-size: 12px; font-weight: 200;" x="206.32214205605644" y="0" dx="0em" dy="0.95em" fill="rgb(50, 49, 63)" stroke="none" stroke-width="1px">2k</text><text style="text-anchor: middle; visibility: hidden; font-family: Roboto, sans-serif; font-size: 12px; font-weight: 200;" x="247.5865704672677" y="0" dx="0em" dy="0.95em" fill="rgb(50, 49, 63)" stroke="none" stroke-width="1px">2.5k</text><text style="text-anchor: middle; visibility: hidden; font-family: Roboto, sans-serif; font-size: 12px; font-weight: 200;" x="288.850998878479" y="0" dx="0em" dy="0.95em" fill="rgb(50, 49, 63)" stroke="none" stroke-width="1px">3k</text></g><line x1="0" y1="0" x2="288.850998878479" y2="0" fill="rgb(0, 0, 0)" stroke="rgb(204, 204, 204)" stroke-width="1px"></line></g></g></g></g></svg>