<svg viewBox="0 0 330 200" xmlns="http://www.w3.org/2000/svg"><g><g><g><g><g><line x1="51.53200149536133" y1="177.86299896240234" x2="46.53200149536133" y2="177.86299896240234" style="visibility: inherit;" fill="rgb(0, 0, 0)" stroke="rgb(204, 204, 204)" stroke-width="1px"></line><line x1="51.53200149536133" y1="160.07669906616212" x2="46.53200149536133" y2="160.07669906616212" style="visibility: inherit;" fill="rgb(0, 0, 0)" stroke="rgb(204, 204, 204)" stroke-width="1px"></line><line x1="51.53200149536133" y1="142.29039916992187" x2="46.53200149536133" y2="142.29039916992187" style="visibility: inherit;" fill="rgb(0, 0, 0)" stroke="rgb(204, 204, 204)" stroke-width="1px"></line><line x1="51.53200149536133" y1="124.50409927368163" x2="46.53200149536133" y2="124.50409927368163" style="visibility: inherit;" fill="rgb(0, 0, 0)" stroke="rgb(204, 204, 204)" stroke-width="1px"></line><line x1="51.53200149536133" y1="106.71779937744141" x2="46.53200149536133" y2="106.71779937744141" style="visibility: inherit;" fill="rgb(0, 0, 0)" stroke="rgb(204, 204, 204)" stroke-width="1px"></line><line x1="51.53200149536133" y1="88.93149948120117" x2="46.53200149536133" y2="88.93149948120117" style="visibility: inherit;" fill="rgb(0, 0, 0)" stroke="rgb(204, 204, 204)" stroke-width="1px"></line><line x1="51.53200149536133" y1="71.14519958496093" x2="46.53200149536133" y2="71.14519958496093" style="visibility: inherit;" fill="rgb(0, 0, 0)" stroke="rgb(204, 204, 204)" stroke-width="1px"></line><line x1="51.53200149536133" y1="53.35889968872069" x2="46.53200149536133" y2="53.35889968872069" style="visibility: inherit;" fill="rgb(0, 0, 0)" stroke="rgb(204, 204, 204)" stroke-width="1px"></line><line x1="51.53200149536133" y1="35.57259979248046" x2="46.53200149536133" y2="35.57259979248046" style="visibility: inherit;" fill="rgb(0, 0, 0)" stroke="rgb(204, 204, 204)" stroke-width="1px"></line><line x1="51.53200149536133" y1="17.78629989624023" x2="46.53200149536133" y2="17.78629989624023" style="visibility: inherit;" fill="rgb(0, 0, 0)" stroke="rgb(204, 204, 204)" stroke-width="1px"></line><line x1="51.53200149536133" y1="0" x2="46.53200149536133" y2="0" style="visibility: inherit;" fill="rgb(0, 0, 0)" stroke="rgb(204, 204, 204)" stroke-width="1px"></line></g><g transform="translate(41.53200149536133, 0)"><text style="text-anchor: end; visibility: hidden; font-family: Roboto, sans-serif; font-size: 12px; font-weight: 200;" x="0" y="177.86299896240234" dx="0em" dy="0.3em" fill="rgb(50, 49, 63)" stroke="none" stroke-width="1px">0.05</text><text style="text-anchor: end; visibility: inherit; font-family: Roboto, sans-serif; font-size: 12px; font-weight: 200;" x="0" y="160.07669906616212" dx="0em" dy="0.3em" fill="rgb(50, 49, 63)" stroke="none" stroke-width="1px">0.1</text><text style="text-anchor: end; visibility: hidden; font-family: Roboto, sans-serif; font-size: 12px; font-weight: 200;" x="0" y="142.29039916992187" dx="0em" dy="0.3em" fill="rgb(50, 49, 63)" stroke="none" stroke-width="1px">0.15</text><text style="text-anchor: end; visibility: inherit; font-family: Roboto, sans-serif; font-size: 12px; font-weight: 200;" x="0" y="124.50409927368163" dx="0em" dy="0.3em" fill="rgb(50, 49, 63)" stroke="none" stroke-width="1px">0.2</text><text style="text-anchor: end; visibility: hidden; font-family: Roboto, sans-serif; font-size: 12px; font-weight: 200;" x="0" y="106.71779937744141" dx="0em" dy="0.3em" fill="rgb(50, 49, 63)" stroke="none" stroke-width="1px">0.25</text><text style="text-anchor: end; visibility: inherit; font-family: Roboto, sans-serif; font-size: 12px; font-weight: 200;" x="0" y="88.93149948120117" dx="0em" dy="0.3em" fill="rgb(50, 49, 63)" stroke="none" stroke-width="1px">0.3</text><text style="text-anchor: end; visibility: hidden; font-family: Roboto, sans-serif; font-size: 12px; font-weight: 200;" x="0" y="71.14519958496093" dx="0em" dy="0.3em" fill="rgb(50, 49, 63)" stroke="none" stroke-width="1px">0.35</text><text style="text-anchor: end; visibility: inherit; font-family: Roboto, sans-serif; font-size: 12px; font-weight: 200;" x="0" y="53.35889968872069" dx="0em" dy="0.3em" fill="rgb(50, 49, 63)" stroke="none" stroke-width="1px">0.4</text><text style="text-anchor: end; visibility: hidden; font-family: Roboto, sans-serif; font-size: 12px; font-weight: 200;" x="0" y="35.57259979248046" dx="0em" dy="0.3em" fill="rgb(50, 49, 63)" stroke="none" stroke-width="1px">0.45</text><text style="text-anchor: end; visibility: inherit; font-family: Roboto, sans-serif; font-size: 12px; font-weight: 200;" x="0" y="17.78629989624023" dx="0em" dy="0.3em" fill="rgb(50, 49, 63)" stroke="none" stroke-width="1px">0.5</text><text style="text-anchor: end; visibility: hidden; font-family: Roboto, sans-serif; font-size: 12px; font-weight: 200;" x="0" y="0" dx="0em" dy="0.3em" fill="rgb(50, 49, 63)" stroke="none" stroke-width="1px">0.55</text></g><line x1="51.53200149536133" y1="0" x2="51.53200149536133" y2="177.86299896240234" fill="rgb(0, 0, 0)" stroke="rgb(204, 204, 204)" stroke-width="1px"></line></g></g><g transform="translate(51, 0)" clip-path="url(#clip_0)"><clipPath id="clip_0"><rect width="278" height="177"></rect></clipPath><g><g><g><line x1="0" y1="0" x2="0" y2="177.86299896240234" fill="rgb(0, 0, 0)" stroke="rgb(60, 60, 60)" stroke-width="1px" opacity="0.25"></line><line x1="39.78114264351981" y1="0" x2="39.78114264351981" y2="177.86299896240234" fill="rgb(0, 0, 0)" stroke="rgb(60, 60, 60)" stroke-width="1px" opacity="0.25"></line><line x1="79.56228528703961" y1="0" x2="79.56228528703961" y2="177.86299896240234" fill="rgb(0, 0, 0)" stroke="rgb(60, 60, 60)" stroke-width="1px" opacity="0.25"></line><line x1="119.34342793055943" y1="0" x2="119.34342793055943" y2="177.86299896240234" fill="rgb(0, 0, 0)" stroke="rgb(60, 60, 60)" stroke-width="1px" opacity="0.25"></line><line x1="159.12457057407923" y1="0" x2="159.12457057407923" y2="177.86299896240234" fill="rgb(0, 0, 0)" stroke="rgb(60, 60, 60)" stroke-width="1px" opacity="0.25"></line><line x1="198.90571321759904" y1="0" x2="198.90571321759904" y2="177.86299896240234" fill="rgb(0, 0, 0)" stroke="rgb(60, 60, 60)" stroke-width="1px" opacity="0.25"></line><line x1="238.68685586111886" y1="0" x2="238.68685586111886" y2="177.86299896240234" fill="rgb(0, 0, 0)" stroke="rgb(60, 60, 60)" stroke-width="1px" opacity="0.25"></line><line x1="278.4679985046387" y1="0" x2="278.4679985046387" y2="177.86299896240234" fill="rgb(0, 0, 0)" stroke="rgb(60, 60, 60)" stroke-width="1px" opacity="0.25"></line></g><g><line x1="0" y1="177.86299896240234" x2="278.4679985046387" y2="177.86299896240234" fill="rgb(0, 0, 0)" stroke="rgb(60, 60, 60)" stroke-width="1px" opacity="0.25"></line><line x1="0" y1="160.07669906616212" x2="278.4679985046387" y2="160.07669906616212" fill="rgb(0, 0, 0)" stroke="rgb(60, 60, 60)" stroke-width="1px" opacity="0.25"></line><line x1="0" y1="142.29039916992187" x2="278.4679985046387" y2="142.29039916992187" fill="rgb(0, 0, 0)" stroke="rgb(60, 60, 60)" stroke-width="1px" opacity="0.25"></line><line x1="0" y1="124.50409927368163" x2="278.4679985046387" y2="124.50409927368163" fill="rgb(0, 0, 0)" stroke="rgb(60, 60, 60)" stroke-width="1px" opacity="0.25"></line><line x1="0" y1="106.71779937744141" x2="278.4679985046387" y2="106.71779937744141" fill="rgb(0, 0, 0)" stroke="rgb(60, 60, 60)" stroke-width="1px" opacity="0.25"></line><line x1="0" y1="88.93149948120117" x2="278.4679985046387" y2="88.93149948120117" fill="rgb(0, 0, 0)" stroke="rgb(60, 60, 60)" stroke-width="1px" opacity="0.25"></line><line x1="0" y1="71.14519958496093" x2="278.4679985046387" y2="71.14519958496093" fill="rgb(0, 0, 0)" stroke="rgb(60, 60, 60)" stroke-width="1px" opacity="0.25"></line><line x1="0" y1="53.35889968872069" x2="278.4679985046387" y2="53.35889968872069" fill="rgb(0, 0, 0)" stroke="rgb(60, 60, 60)" stroke-width="1px" opacity="0.25"></line><line x1="0" y1="35.57259979248046" x2="278.4679985046387" y2="35.57259979248046" fill="rgb(0, 0, 0)" stroke="rgb(60, 60, 60)" stroke-width="1px" opacity="0.25"></line><line x1="0" y1="17.78629989624023" x2="278.4679985046387" y2="17.78629989624023" fill="rgb(0, 0, 0)" stroke="rgb(60, 60, 60)" stroke-width="1px" opacity="0.25"></line><line x1="0" y1="0" x2="278.4679985046387" y2="0" fill="rgb(0, 0, 0)" stroke="rgb(60, 60, 60)" stroke-width="1px" opacity="0.25"></line></g></g></g><g><g><line x1="0" y1="195.6492988586426" x2="278.4679985046387" y2="195.6492988586426" fill="rgb(0, 0, 0)" stroke="rgb(153, 153, 153)" stroke-width="1.5px"></line></g></g><g><g><line x1="39.78114264351981" y1="0" x2="39.78114264351981" y2="177.86299896240234" fill="rgb(0, 0, 0)" stroke="rgb(153, 153, 153)" stroke-width="1.5px"></line></g></g><g><g><g><g><g><path style="fill: none;" stroke="rgb(255, 112, 67)" stroke-width="2px" d="M41.213263778686525,-41.24400385336537L41.3723883492606,43.72629667943832L41.61107520512172,71.71047394398614L41.7701997756958,40.842201920201944L41.84976206098284,62.34567445862353L42.00888663155692,-3.780125466360842L42.168011202131005,41.69489847217761L42.406698057992116,76.89805300759052L42.565822628566195,98.10487770349671L43.12275862557547,105.23907182615793L43.44100776672363,135.49108917445812L43.52057005201067,142.99342430342853L43.600132337297715,103.5169492766719L43.83881919315883,93.35988447795127L44.55487976074219,63.699077546378426L44.63444204602923,59.23988542176079L44.71400433131626,52.120579947221614L44.952691187177386,-2.5810060302471087L45.191378043038505,18.691797192683467L45.50962718418666,-10.405543481592003L45.82787632533482,48.4308198542338L45.90743861062187,25.011421961067693L45.9870008959089,82.02585408191055L46.14612546648298,114.64217048607499L46.30525003705706,134.21947342663816L46.3848123223441,69.10171453063329L46.54393689291818,45.111622048027385L46.623499178205215,8.280796329690421L46.7826237487793,-29.570195908592062L46.94174831935337,54.29241969779364L47.498684316362656,102.66393351856631L47.737371172223774,135.21059271447032L47.81693345751081,154.2310694331107L47.97605802808489,161.55431354712735L48.29430716923305,166.8086909863497L48.69211859566825,156.30223036697026L48.771680880955294,167.267504596932L49.72642830439976,158.62042642067183L49.8059905896868,162.0157095662587L50.12423973083496,119.22648708279104L50.36292658669608,101.63177565648081L50.52205115727016,82.45959105314685L50.681175727844234,91.0977032037662L51.3972362954276,-65.54719731413262L51.87461000714983,12.106668892572904L52.27242143358503,42.41659075537826L52.35198371887207,91.17101242071148L52.59067057473319,29.36079735732959L52.74979514530727,68.00343919670391L52.908919715881346,63.97817834993986L53.38629342760359,59.559778276709736L53.46585571289063,75.17345237408203L54.18191628047398,-68.85168623323308L54.341040851048064,-100.21733531472455L54.500165421622135,0.5469163553438096L54.738852277483254,43.52135362211754L55.454912845066616,71.44795845994005L55.693599700927734,49.815045609839046L55.773161986214774,-148.1223852637732L55.93228655678885,-54.48244644728536L56.17097341264997,18.02558480459247L56.72790940965925,28.275802581405156L56.88703398023333,16.260592959824994L56.966596265520366,63.10335680899166L57.28484540666852,83.73833950606449L57.36440769195556,86.39034515900698L57.44396997724261,-8.45470811926664L57.52353226252965,8.328166317057006L57.76221911839077,37.81780390550798L57.84178140367781,55.005553287659545L58.160030544825965,84.20678970734028L58.239592830113,112.05589667863761L58.319155115400044,123.55597261236792L58.71696654183524,115.06806132589608L58.87609111240932,48.559694736454226L58.95565339769636,79.08376264819468L59.27390253884452,101.91149972344199L59.671713965279714,50.85292203711863L59.751276250566754,81.9354372239986L59.91040082114083,103.5024747289334L60.06952539171491,83.84147489257302L60.14908767700195,84.21658184108985L60.22864996228899,105.13881870211165L60.46733681815011,120.32300238634306L60.626461388724195,132.37466104451119L60.86514824458531,143.9697751711031L61.024272815159385,116.92461281001731L61.26295967102051,84.54804289047851L61.34252195630754,90.2237904891562L61.6607710974557,110.13664443408173L61.74033338274275,-26.222008843692006L61.81989566802979,5.948162910960835L61.899457953316826,47.9118193855744L62.138144809177945,63.94924500063885L62.217707094464984,37.49947068864462L62.61551852090018,78.13571695305617L63.2520168031965,53.53552444408146L63.411141373770576,-78.62226819636122L63.49070365905762,-18.804735362552066L63.649828229631694,19.41255480462565L63.80895280020578,48.87836060158309L63.88851508549281,55.91100047421774L64.12720194135393,63.63414670555539L64.20676422664097,89.88396366009809L64.28632651192801,122.04547289927336L64.44545108250209,88.97674870577005L64.92282479422433,98.09271546614143L65.00238707951137,81.81519867184123L65.0819493647984,96.19625302807304L65.47976079123362,92.46924980622917L65.63888536180768,125.87911896988344L65.71844764709472,136.1776046601274L65.8775722176688,125.97756624481192L66.67319507053921,114.63388962082546L66.83231964111327,118.89857296509393L67.0710064969744,1.03155119959269L67.30969335283552,58.1558050736537L67.4688179234096,73.83547135940181L67.70750477927072,83.03975700678616L67.8666293498448,-97.1397639072465L68.02575392041888,7.280215310444523L68.18487849099296,24.144101081531385L68.42356534685408,68.13433750243475L68.50312763214112,104.31707957534465L68.6622522027152,113.47805334336883L69.21918819972447,79.7341761836464L69.29875048501151,77.58449694961539L69.37831277029855,83.68367440472984L69.45787505558559,90.39823354132702L70.25349790845598,35.34400560369483L70.49218476431712,29.721545925256965L70.57174704960416,30.108111448531364L70.8899961907523,84.17554336529462L71.2878076171875,88.08012025626348L71.44693218776158,109.72364434080822L71.60605675833565,118.72300734074582L71.84474361419677,106.25460918406802L72.08343047005789,80.09285906473876L72.56080418178013,54.60908735163983L72.64036646706717,67.20766762147855L72.79949103764126,48.06803311497553L72.8790533229283,37.434981480779705L73.35642703465052,20.952730075750505L73.43598931993758,41.04129128223925L73.6746761757987,42.358540610437906L73.99292531694685,57.672035003739L74.07248760223389,85.82761238162547L74.15204988752093,83.64348154902966L74.23161217280797,114.57800676218484L74.62942359924317,70.30331732744936L74.86811045510429,70.0029487236794L74.94767274039131,48.60964961822286L75.02723502567835,53.10265271326844L75.42504645211356,69.73805255444816L75.82285787854876,32.75189055312129L75.98198244912284,-24.15874288607993L76.22066930498394,-12.47541479548027L76.37979387555804,38.54022849638722L77.01629215785435,72.78460733027715L77.33454129900251,111.3744831941482L77.41410358428956,103.72968385569281L78.20972643715994,53.65349194601156L78.60753786359516,-2.9163574018007385L78.76666243416922,24.0642110125718L78.84622471945626,41.6101921027805L78.9257870047433,63.40121380792046L79.00534929003034,67.58878756493083L79.32359843117851,77.12782318337149L79.72140985761371,98.35145178914914L79.80097214290075,105.00353268518217L80.03965899876185,110.18760035221268L80.43747042519706,121.17102928319137L80.5170327104841,120.01877191772451L80.83528185163225,92.26696387210316L80.9148441369193,51.97518953883062L80.99440642220634,77.82265371865637L81.15353099278042,97.86022261116176L81.39221784864152,39.77192345546336L81.7104669897897,74.12320688766711L81.79002927507673,81.4952924280865L82.10827841622489,81.29252421097698L82.18784070151193,47.149401393648795L82.58565212794713,78.09713424829694L82.7447766985212,75.63029593100067L83.1425881249564,98.57606056336586L83.22215041024344,107.547361196476L83.30171269553048,69.5456963185335L83.5403995513916,92.38745100245066L83.61996183667864,59.63504913703915L83.69952412196568,80.56377392841138L83.9382109778268,69.8315244930973L84.01777326311384,101.48849479077425L84.09733554840088,101.42751790548014L84.17689783368792,110.05953429998954L84.57470926012311,121.8163526852785L84.7338338306972,129.40632636060164L84.81339611598423,141.38873087547964L84.89295840127129,127.31903229372377L84.97252068655833,122.7668573341656L85.21120754241943,77.49985157685288L85.37033211299351,99.0166246463554L85.60901896885464,112.63026504027742L85.68858125414167,122.65903322343675L86.08639268057688,128.82120550198954L86.16595496586392,113.42194473963988L86.40464182172502,68.88259800265683L86.5637663922991,68.66430444913085L86.9615778187343,46.400751747731285L87.12070238930838,83.82193631130927L87.35938924516951,105.07707422499043L87.51851381574357,101.94586093139128L87.59807610103061,101.23076626286232L87.67763838631765,78.81235438825514L87.7572006716047,104.91229819471701L87.91632524217879,129.8620808069872L87.99588752746583,138.89605461321491L88.15501209803989,140.8780183256678L88.31413666861397,132.38333452560107L88.39369895390102,127.85626795573543L88.47326123918806,141.1966317194661L88.71194809504918,69.00503482600179L88.9506349509103,101.86692043095495L89.3484463773455,115.38338030693394L89.66669551849365,76.73147602097252L89.7462578037807,91.07877909367875L89.90538237435477,35.44248191791242L90.14406923021589,62.74388970129774L90.46231837136405,86.0034413710099L90.54188065665109,102.88969179579635L90.70100522722517,107.84078588087505L90.7805675125122,117.13984658037559L90.86012979779925,122.23652003577061L90.93969208308629,122.71516959625947L91.25794122423446,128.17559235944353L91.33750350952148,135.40571809739527L91.49662808009556,126.29268118889787L91.5761903653826,111.21904285090731L91.89443950653077,131.01572917414748L92.53093778882707,128.47374414540832L92.84918692997523,119.23905416609342L92.92874921526229,-88.13184606711974L93.16743607112339,-17.155892469126698L93.24699835641043,52.67631511169548L93.32656064169747,81.39098972720365L93.48568521227155,-22.62711617949341L93.5652474975586,61.04113852351519L93.72437206813268,25.88881946568687L93.88349663870675,82.35269173706169L93.96305892399378,6.297244544489162L94.12218349456788,73.6703856812388L94.28130806514196,92.96210117924878L94.51999492100306,67.1000644837969L94.7586817768642,20.93117365393931L95.07693091801234,51.781911099243956L95.15649320329938,99.77461763608406L95.71342920030865,129.2963939213352L95.87255377088275,125.38718126182967L95.95211605616979,139.33543537469333L96.34992748260497,-83.39087423830524L96.66817662375314,12.14154908843195L96.82730119432722,65.31072834032129L97.14555033547538,29.47404686950663L97.54336176191059,74.9888887692009L97.94117318834577,91.39652372372217L98.02073547363281,122.4537426790033L98.10029775891987,141.23642771517424L98.33898461478097,146.003596666167L98.49810918535505,118.58468822869433L98.65723375592913,100.78280186282534L98.73679604121618,93.40355015943496L98.89592061179025,-24.221218058029063L99.13460746765136,39.271884377104264L99.2141697529384,70.90021013754108L99.29373203822546,113.21662119442782L99.45285660879952,131.88998385306672L99.6119811793736,146.4532683322264L99.69154346466064,140.30870788022324L99.85066803523473,151.45795491427035L100.00979260580881,131.69512810104436L100.32804174695696,136.45528977906702L100.48716631753105,100.56121536686798L100.80541545867919,130.68073601543088L100.88497774396623,32.72882290259854L101.12366459982736,46.67539355156442L101.28278917040144,67.88677255503852L101.52147602626255,82.53008116652197L101.68060059683664,-59.237497333197425L101.83972516741072,29.429548334093038L102.07841202327182,40.3943242269713L102.31709887913296,89.67573421518492L102.39666116442,122.13045369890268L102.7944725908552,122.80697265402597L103.19228401729038,122.5121571475618L103.51053315843855,69.69523625434461L103.59009544372559,12.585011095110245L103.66965772901263,32.48354184214667L103.82878229958669,15.406050547461522L103.90834458487375,-47.18324053993227L103.98790687016078,40.28055592971538L104.38571829659598,87.13842798460078L104.6244051524571,108.54538535338685L104.70396743774414,113.80352330560837L104.78352972303118,61.37670232780631L104.86309200831822,104.9172511513297L105.02221657889231,118.09660621955695L105.26090343475342,103.55186234576328L105.49959029061453,128.42452704409732L106.2156508581979,115.46590211756804L106.45433771405901,115.45053429614308L107.01127371106828,122.43580763831915L107.09083599635532,114.94097496371938L107.17039828164236,44.576872437224864L107.48864742279054,42.233566962216905L107.6477719933646,89.45012063937932L107.80689656393868,93.69642900382114L107.88645884922573,128.01136271720418L108.20470799037388,116.19572113004537L108.68208170209613,124.75745096738966L108.84120627267019,115.96404206666841L109.07989312853132,129.52594669891718L109.15945541381836,88.32897716165098L109.39814226967948,74.38200690261081L109.6368291255406,24.89441340902924L109.79595369611468,85.42606765848404L109.95507826668876,98.44022445260406L110.35288969312396,89.88136268205852L110.432451978411,122.93405125280059L110.67113883427211,126.38780038021211L110.98938797542027,146.94486410755349L111.14851254599435,152.2514755632645L111.46676168714251,150.368567505851L111.54632397242955,73.32966157680076L111.78501082829067,79.42278878231639L111.94413539886476,109.87889845384508L112.02369768415178,109.55949848890548L112.2623845400129,135.62395650679562L112.34194682529994,71.54178864661064L112.58063368116107,114.30899901319002L112.6601959664481,140.83069074853637L112.73975825173514,-114.12330674266352L113.21713196345739,-9.825334490070189L113.61494338989257,51.42321995713084L113.77406796046667,93.13835783653427L113.85363024575369,124.01215952122853L114.96750223977226,127.78851614123583L115.0470645250593,137.53281476174553L115.20618909563336,152.62347343995108L115.76312509264264,165.395465438392L115.84268737792968,169.98748368201504L115.92224966321672,158.85105765302072L116.24049880436489,102.82770898194967L116.32006108965193,109.67005758928049L116.63831023080009,107.52804282424127L116.95655937194823,75.36401825199123L117.03612165723527,84.364133900855L117.19524622780936,95.76698790853241L117.35437079838344,87.74511292407175L117.43393308367048,106.50926162065191L117.51349536895752,96.39865967692327L117.59305765424455,73.00234061796637L118.22955593654086,81.38345424768724L118.54780507768903,48.40587671880587L118.70692964826311,86.1787195139163L118.94561650412423,103.44451752412711L119.34342793055943,136.59195468056166L119.82080164228167,143.66800182505796L119.9003639275687,123.42768931098252L119.97992621285576,119.94661277149147L120.13905078342982,129.62527673258924L120.37773763929094,122.99362416669753L121.17336049216135,137.20908028579987L121.33248506273543,152.65810027212322L121.4916096333095,158.15922935789834L121.73029648917063,146.65665127397187L121.96898334503175,162.7486269554847L122.12810791560581,130.66100411769773L122.20767020089285,153.98011202472935L122.60548162732806,162.22360250322816L122.68504391261509,129.5811915778806L122.92373076847622,108.59824348820875L123.00329305376326,126.01218957952787L123.0828553390503,126.2541841852288L123.3215421949114,120.3330596549931L123.40110448019844,138.67748821812688L123.71935362134661,130.90840899630595L123.87847819192068,141.0039257197081L124.35585190364293,146.76566808478856L124.514976474217,143.96895096094383L124.75366333007813,152.7165489088946L125.07191247122628,141.19558435232818L125.39016161237444,148.03095251319172L125.54928618294852,151.25270165928816L125.86753532409668,155.61622828452482L125.94709760938372,125.43566017029276L126.34490903581893,122.45172171089747L126.504033606393,122.24332770918579L127.45878102983748,77.85778160945266L127.77703017098563,98.2003545511619L127.85659245627267,110.38159764757701L127.9361547415597,107.3188707257401L128.17484159742082,77.35877324258365L128.3339661679949,83.10517120600184L128.57265302385602,54.22768854362896L128.89090216500418,89.09033980320368L129.05002673557826,99.1489665634084L129.1295890208653,48.40723865287372L129.44783816201345,79.16334993009002L129.5274004473005,94.35957578397138L129.76608730316164,122.6947734254179L130.08433644430977,135.06627327295868L130.1638987295968,139.72096000417966L130.32302330017092,155.95701492977554L130.48214787074497,160.35080985782918L130.72083472660609,165.58559710705887L131.11864615304128,164.62165377666213L131.27777072361536,153.77323599446072L131.43689529418944,149.51809619204428L131.6755821500506,161.74767291802334L132.07339357648578,163.27306042579679L132.15295586177282,162.34893628875844L132.3120804323469,171.40398321000228L132.47120500292095,172.45926637339895L132.550767288208,166.5873152115648L132.63032957349506,173.33075506422867L132.86901642935618,133.4159023207747L133.26682785579138,148.34128399760243L133.42595242636546,104.41048511629027L133.5055147116525,98.34576744973508L133.82376385280065,107.06095066187153L134.22157527923582,116.28884893861652L134.539824420384,84.74164597058575L134.85807356153214,121.66631932261267L134.9376358468192,121.17768356805259L135.3354472732544,115.36882918051235L135.49457184382848,88.058514283955L135.65369641440256,100.86110281348627L135.81282098497664,75.00476059918195L136.05150784083776,66.21217968932135L136.1310701261248,78.80301023448675L136.44931926727295,108.79145603951203L136.9266929789952,92.1570556283782L137.08581754956927,30.977788096584998L137.24494212014335,72.86555290314315L137.40406669071743,67.30464600112607L137.48362897600447,69.63345470047736L137.88144040243967,15.259388757708985L138.27925182887486,31.15649981838827L138.51793868473598,80.41628506458379L138.67706325531006,82.48881985309698L138.83618782588414,69.29655620799132L138.91575011117118,83.72046491195363L139.07487468174526,76.45299340220558L139.23399925231934,101.86931283312423L139.47268610818045,102.08501168711435L139.63181067875453,36.24533955762664L139.71137296404157,19.79657564376723L139.7909352493286,-45.51823825258285L139.87049753461568,39.10133344482294L140.42743353162496,73.99002821340322L140.586558102199,74.20594656932059L140.82524495806013,87.57893155624444L140.90480724334716,86.44457424374178L140.98436952863423,102.60704777871284L141.46174324035644,81.76414874217288L141.85955466679164,33.43617480832705L142.09824152265276,74.4376561465153L142.1778038079398,24.211856618606188L142.81430209023614,88.11318903058502L142.89386437552315,107.89354552531036L142.97342666081022,87.04374502898358L143.05298894609723,83.88475183507889L143.2121135166713,76.3234518022092L143.6099249431065,101.77993898792042L143.76904951368059,89.27632030314079L143.84861179896762,96.43022772681907L144.48511008126397,65.69830962892757L144.56467236655098,96.64678938158137L144.88292150769914,106.68963748495138L145.04204607827324,100.90815376638113L145.20117064884732,62.070101536304776L145.28073293413433,90.35225076250865L145.4398575047084,112.76608379146165L145.7581066458566,135.4050762780748L145.8376689311436,141.22127117673804L145.9967935017177,137.96445588982075L146.1559180722918,148.39297691029566L146.2354803575788,156.03668215380677L146.3946049281529,164.319331504143L146.47416721343996,163.40079765619106L146.55372949872697,161.5805573838224L146.63329178401403,154.2469451916813L146.95154092516216,152.62369485307585L147.03110321044923,160.24014549947734L147.26979006631032,169.5057448045691L147.3493523515974,150.58877434120433L147.42891463688443,130.535691691287L147.7471637780326,151.80476403863756L147.8267260633196,164.74218215620564L147.9858506338937,172.5319286080532L148.38366206032887,66.3575832771403L149.02016034262522,62.029443062712076L149.25884719848634,104.50026068310488L149.41797176906041,131.2279956689086L149.5770963396345,148.61769899117155L149.65665862492153,155.9376747392978L149.9749077660697,158.45521377113138L150.13403233664377,107.96519844243532L150.3727191925049,137.60711917283115L150.45228147779193,153.33478726156292L150.61140604836598,162.47451222556955L151.16834204537525,169.69168287608107L151.32746661594936,172.3538681913449L151.4070289012364,175.36673997348862L151.72527804238456,146.96442246616485L151.8048403276716,160.22779500105136L152.04352718353272,162.80902313438102L152.12308946881976,155.58196187723343L152.2026517541068,160.53877489690385L152.36177632468087,163.9852426022335L152.4413386099679,148.49212345534724L152.600463180542,125.67630008992187L152.75958775111607,148.0084530014417L152.8391500364031,158.09996915983177L153.15739917755127,140.5547229744635L153.3960860334124,146.6743834985496L153.71433517456055,165.05851987032113L153.79389745984759,158.73774175526148L154.0325843157087,127.67960242091176L154.19170888628278,149.7178924072958L154.35083345685686,144.39416293995419L154.4303957421439,148.8958151262994L154.50995802743094,160.32567720870273L155.2260185950143,159.53625822204143L155.3851431655884,136.45884197143525L155.6238300214495,152.63818364831326L155.78295459202357,157.8845921455456L155.94207916259768,148.04077206402644L156.49901515960696,146.03271562850085L156.57857744489397,77.2050154366011L156.8172643007551,99.75315543238291L156.89682658604212,64.3869505702768L156.97638887132916,102.15467403044049L157.3742002977644,132.9652627830142L157.61288715362548,150.606986515365L157.7720117241996,143.62180778512078L158.01069858006068,133.0159898055632L158.09026086534772,116.46760346831839L158.16982315063476,104.78263473943129L158.48807229178294,128.47419130438686L158.56763457706995,132.59625143436355L158.72675914764403,149.85254832492637L158.88588371821814,95.4293078039476L158.96544600350515,106.16298706713832L159.2836951446533,126.87299207039595L159.36325742994035,144.7675858592768L159.6815065710885,137.20873003359844L159.76106885637557,152.714270810011L159.92019342694965,162.94015401362861L160.0793179975237,161.98834071623347L160.47712942395893,156.87616574006384L160.55669170924597,152.6259115850231L160.71581627982005,160.05368444120015L160.95450313568114,168.7101147589935L161.5114391326904,173.4897797042102L161.6705637032645,160.21493403932743L161.98881284441268,148.9161619168164L162.0683751296997,154.8258539500182L162.38662427084788,163.18394471721172L162.4661865561349,148.3530743343692L162.94356026785715,156.4717573603494L163.18224712371824,160.72942565046327L163.2618094090053,115.86064104435384L163.34137169429232,133.0447731858167L163.50049626486643,116.7771896973819L163.58005855015347,135.69487191912063L163.6596208354405,157.00810021215864L163.73918312072752,163.98146984579486L164.0574322618757,169.5076514143967L164.13699454716274,115.21316566218242L164.2961191177368,100.71762617744605L164.37568140302386,92.85366636340211L164.53480597359794,75.24885857616938L164.77349282945906,119.84086442848358L164.8530551147461,82.10594654874241L165.17130425589426,125.50995820772793L165.2508665411813,140.8579364103831L165.8873648234776,103.84598125499912L166.2851762499128,131.04379972548114L166.76254996163505,40.47639535928067L166.84211224692206,-37.76367532784183L166.92167453220912,37.90698917698702L167.31948595864432,81.20718603834813L167.63773509979248,110.49085930211355L168.11510881151474,127.3070916037519L168.43335795266287,108.91637104279164L168.75160709381103,60.76540152054117L168.9107316643851,88.58610497163605L169.0698562349592,97.03862639134258L169.3085430908203,96.63821641708817L169.7063545172555,111.53261173258949L170.1041659436907,107.75495082296777L170.66110194069998,132.62727355603278L171.13847565242222,115.44173217330314L171.2976002229963,135.4584729240154L171.4567247935704,102.70971781183844L171.61584936414448,100.20057591654344L171.6954116494315,97.40686062240137L171.9340985052926,124.77361444303399L172.65015907287597,110.46885102324966L173.5253442110334,138.91817963362658L173.60490649632047,148.70368371833175L173.84359335218159,160.34193704983556L173.9231556374686,162.19791973694572L174.24140477861675,120.68160504647295L174.32096706390382,146.11324596624522L174.48009163447787,145.07894442783734L174.8779030609131,109.97548363474421L175.11658991677422,119.35881606904445L175.5144013432094,121.6900374009447L175.59396362849645,139.6811918809733L175.6735259137835,151.55645119010578L175.83265048435757,147.24794288691314L175.91221276964458,152.20452210234424L176.31002419607978,152.17936723797166L176.38958648136685,156.93491156890028L176.62827333722794,145.84834652283897L176.707835622515,150.2285866396351L177.1056470489502,123.07546939850265L177.5830207606724,148.35940487273243L177.66258304595948,163.38037779168693L178.06039447239468,167.668003338039L178.37864361354283,174.7495644400628L178.77645503997803,138.20004581057634L179.41295332227432,145.63760253617275L180.68594988686698,151.01737496616218L180.76551217215402,150.06977036838697L181.16332359858922,161.6981395760534L182.19763330732073,162.81575700000135L182.27719559260777,155.08471848015722L182.67500701904297,160.12960436714215L182.83413158961704,158.42492686783453L182.99325616019112,161.64987342482735L183.0728184454782,150.51131275845822L183.1523807307652,154.02017170649293L183.47062987191336,42.43393118045268L183.62975444248747,96.0916677435738L183.78887901306155,129.71289897417685L183.9480035836356,93.41021013905892L184.18669043949674,49.20633323008898L184.26625272478375,103.96158364216524L184.42537729535783,133.12430705188882L184.5845018659319,151.73953279086012L184.66406415121895,159.3247325411053L184.74362643650602,154.1685961200081L184.82318872179303,132.9726145066104L184.9823132923671,98.76220048647548L185.06187557765415,96.41515059171384L185.1414378629412,132.33586924063243L185.3801247188023,126.20380612139367L186.01662300109865,123.15417628927592L186.33487214224678,36.959168616691585L186.41443442753385,13.264021720105823L186.65312128339494,69.83399249565069L187.1304949951172,82.70902543414832L187.21005728040421,118.78496800908931L187.3691818509783,141.25510563935083L187.7669932774135,97.2793492386137L187.92611784798757,112.70701120818553L188.00568013327464,118.84482186393083L188.32392927442277,11.951712171435855L188.40349155970983,65.81516487664237L188.80130298614503,111.8162632286288L188.9604275567191,133.88443432792764L189.03998984200612,146.5746228995975L189.1991144125802,111.37450095924355L189.91517498016358,134.90367822186246L189.99473726545062,94.57643874208362L190.15386183602467,91.55290016785092L190.31298640659875,-0.3630982946348572L190.5516732624599,70.475328665338L190.63123554774694,101.83135371038762L191.3472961153303,122.41232237717047L191.82466982705253,128.47580947688655L192.3816058240618,143.8640722397171L192.69985496520994,152.57958001328353L192.779417250497,130.13652957160483L193.09766639164516,116.51160954417041L193.8137269592285,78.55964316172486L194.13197610037668,120.67978004774459L194.21153838566372,112.50967312557302L194.29110067095075,98.98792582763122L194.68891209738595,109.06905371010518L195.1662858091082,116.93631775929799L195.4049726649693,127.19226502801172L195.48453495025635,140.06372894924817L195.5640972355434,148.94294150381032L195.8027840914045,156.04602078599288L195.96190866197858,157.97730998644064L196.12103323255266,131.2094587227562L196.20059551783973,125.68166403097221L196.28015780312674,74.58785845022906L196.5984069442749,63.77992698694581L196.75753151484898,66.0339438244646L196.9962183707101,88.25626682233332L197.07578065599714,120.09265425705202L197.15534294128418,112.23486040545582L197.47359208243236,86.86190180164868L197.95096579415457,117.86121906021677L198.50790179116385,142.15136192841152L198.5874640764509,128.2422186058054L198.66702636173792,130.8190488176598L199.06483778817312,145.95112684066802L199.1444000734602,77.74672467666812L199.30352464403427,-44.288541869046796L199.94002292633056,-19.359044723592355L200.09914749690464,38.28123122476092L200.25827206747874,92.40569778979814L200.33783435276575,113.00130936380931L200.5765212086269,126.87332398531314L201.13345720563618,118.11294433498858L201.3721440614973,121.45938646502555L201.53126863207137,83.75685088527604L201.69039320264545,125.31590549847223L202.08820462908065,142.7588875183686L202.48601605551582,156.76056342233457L202.5655783408029,167.01635868308077L202.64514062608993,167.24801033726322L202.96338976723808,165.77912546591472L203.0429520525251,160.74174836365395L203.52032576424736,160.4519631377916L203.67945033482144,148.9925867097243L203.8385749053955,141.7189926132159L204.07726176125664,106.07675670389786L204.15682404654365,50.51541365582358L204.23638633183072,77.43350337777048L204.31594861711775,101.31503577153977L204.55463547297884,116.71805281749266L204.71376004355292,133.87130711499128L205.11157146998812,115.91009295234727L205.35025832584927,121.97620218275695L205.50938289642335,122.86902284823258L205.82763203757148,143.47116144588213L205.90719432285854,146.90006819097985L206.30500574929374,123.6678923647868L206.6232548904419,40.4491511046981L206.86194174630302,90.6368444288932L206.94150403159003,103.51949232919546L207.1006286021641,94.26734512133005L207.4188777433123,94.66143238405678L207.49844002859933,102.4685533330631L207.65756459917338,123.71948391314463L207.73712688446045,126.21673018394681L208.21450059618266,126.23485321278184L208.29406288146973,123.27747912817303L208.4531874520438,110.78249699413382L208.61231202261789,123.13440239366957L208.850998878479,110.52231204968653L208.93056116376604,92.5556014474934L209.08968573434012,105.77478055525678L209.32837259020124,132.13200230688702L209.6466217313494,151.02517451915176L209.80574630192348,160.84252141079006L209.88530858721052,150.55375599010716L210.04443315778462,138.8174416336726L210.12399544307164,137.61486133750287L210.6809314400809,138.2408542497597L210.840056010655,154.59973611966635L211.0787428665161,143.77116489057966L211.2378674370902,140.64463366038294L211.31742972237726,133.0812728778308L211.39699200766427,102.44263784637292L211.87436571938653,121.83221171938632L212.6699885722569,147.84067800204184L212.82911314283098,148.89489042010987L213.22692456926617,154.19945729381047L213.38604913984025,150.83426129828163L213.70429828098844,165.54036988219434L213.78386056627545,26.91155239212825L213.86342285156252,80.82944061127156L214.02254742213657,96.27165764436823L214.18167199271065,86.03278908305396L214.26123427799772,30.853962737442675L214.57948341914584,91.36465350501294L215.05685713086808,98.17410709069117L215.2159817014422,64.74607952778204L215.37510627201627,61.73095019931358L215.69335541316443,69.27286996131694L216.40941598074775,40.33743657975769L216.48897826603482,80.72412980720448L216.56854055132183,117.16460361826393L216.88678969247,122.66596558881864L217.2846011189052,132.83723759368982L217.36416340419225,142.97719929896041L217.44372568947927,80.37768153788474L217.76197483062745,109.31452846748469L217.84153711591446,122.47354858346642L218.0802239717756,128.11242698473131L218.2393485423497,145.23826979188902L218.4780353982108,151.0716573562741L218.875846824646,138.96907784890038L219.03497139522008,142.45482047148448L219.19409596579416,64.4461566414989L219.2736582510812,110.51442552433706L219.67146967751637,104.4766479338962L219.83059424809048,118.62147428428528L220.22840567452565,129.1548973041404L220.4670925303868,118.79309869168847L220.62621710096087,126.91833520250823L220.78534167153492,140.99161518421172L221.18315309797015,81.82102308724251L221.42183995383127,98.91039916266755L221.58096452440535,105.62552432571644L221.74008909497942,77.43210367241015L221.81965138026646,98.82270210269687L222.05833823612755,128.42640744180923L222.13790052141462,140.12980670474894L222.21746280670166,101.12773690134831L222.45614966256278,125.37127514745664L222.53571194784982,144.87622929763245L222.61527423313683,150.63385058365196L223.25177251543317,154.70720200240862L223.3313348007202,95.55930134326601L223.41089708600725,114.06956836277413L223.57002165658133,116.33879181248575L223.64958394186837,120.4452921762164L223.96783308301653,130.29509448516632L224.1269576535906,132.39245942917574L224.84301822117396,124.90850666456491L225.24082964760916,142.0194575287493L225.3203919328962,102.64155584332917L225.39995421818324,38.12691819643888L225.55907878875735,63.045372824765785L225.95689021519252,27.392772300776684L226.03645250047956,78.94604135872156L226.11601478576662,97.75118252848678L226.19557707105363,115.8164818534636L226.3547016416277,134.82953620109026L226.5138262122018,127.8069453537748L226.83207535334998,110.03883792009837L227.1503244944981,115.60167315122011L227.22988677978515,114.77169406728078L227.38901135035925,65.61163998759717L227.62769820622034,-5.409076444579127L227.78682277679442,57.72202518031096L228.3437587738037,97.54193661782497L228.7415702002389,124.33245858139351L228.98025705610002,139.58873971544958L229.37806848253524,133.88791528621977L229.61675533839636,123.482838959566L229.69631762368337,101.80570299973381L229.77587990897044,122.5007446360735L230.0941290501186,130.1377384138466L230.41237819126673,130.7286352030072L230.5715027618408,136.28132821761182L231.20800104413715,137.82920794913625L231.28756332942416,92.53402917500354L231.36712561471123,52.01966076785037L231.68537475585936,93.84756957830398L232.00362389700754,112.068937783755L232.3218730381557,59.84335625557645L232.4014353234427,57.54427219003269L232.7196844645909,82.17456459003962L232.7992467498779,110.54644733076888L232.87880903516498,129.85225702647878L232.958371320452,114.81617429113285L233.27662046160017,124.71291002653363L233.51530731746126,128.6647868560645L233.7539941733224,138.65491890599847L233.91311874389646,152.75330504221236L234.07224331447054,157.2851580622286L234.39049245561873,132.6141839648629L234.78830388205392,135.61361288798795L234.86786616734096,139.74161608584077L234.947428452628,107.62312448400343L235.10655302320208,121.50587421308865L235.1861153084891,77.78965133576337L235.3452398790632,96.58129627513843L235.50436444963728,99.8305087742103L235.58392673492432,121.07157611061312L235.66348902021136,135.95115566516327L236.29998730250767,82.64771531575616L236.45911187308172,118.24632150213418L236.69779872894287,85.46628832098243L236.7773610142299,103.14413003866883L236.85692329951695,116.16009762350885L236.936485584804,119.2389670866501L237.09561015537807,15.906852532160903L237.25473472595215,72.15419941749L237.49342158181327,94.6357788497555L237.5729838671003,120.53918136990688L237.89123300824846,122.63224778524106L237.9707952935355,40.1416693728015L238.05035757882254,79.23154551217574L238.2890444346837,112.42041318211143L238.92554271697998,74.83463285931954L240.3576638521467,90.20232361188047L240.43722613743373,118.26921336332121L240.83503756386895,110.75321918149594L240.91459984915596,131.0940130740035L241.07372441973007,121.57314887698618L241.23284899030415,109.13416669809095L241.31241127559116,129.20939294738199L241.55109813145228,132.5890705645653L241.86934727260044,143.1215853160669L241.9489095578875,150.06054918731638L242.10803412846155,92.11732673594864L242.26715869903563,89.4086504065308L242.3467209843227,94.27871797174838L242.74453241075787,113.57800976147426L242.8240946960449,95.04158239707125L243.06278155190606,97.5987315731833L243.14234383719307,110.72841979443736L243.46059297834125,128.76400443905948L243.54015526362826,143.3462043874883L243.61971754891533,92.00352555278037L244.09709126063754,118.57656537828306L244.25621583121162,126.63837697933018L244.3357781164987,126.7456794198759L244.4153404017857,124.03288311158664L245.44965011051724,145.32572911432004L245.52921239580425,154.61104248275214L245.68833696637836,156.48087568042249L246.08614839281353,155.06953214033862L246.48395981924872,132.64064196438153L246.6430843898228,145.48665603669392L247.12045810154507,148.37146062201708L247.27958267211915,112.4680478008934L247.43870724269323,57.024046369272796L247.5978318132673,103.44639066821084L247.67739409855434,112.59074619704852L247.83651866912842,55.70649082435087L248.23433009556362,91.19676160810013L248.31389238085066,95.86528484011149L248.3934546661377,110.01467532169036L248.4730169514247,130.43864339117374L248.71170380728586,132.29857596717633L248.7912660925729,144.43056015113433L249.029952948434,149.14388756786647L249.10951523372105,150.6828841948814L249.1890775190081,122.17720139004268L249.26863980429513,104.44189375216564L249.58688894544326,126.51376843978987L249.66645123073033,136.43211398075024L250.06426265716553,144.27841443502697L250.2233872277396,148.2569032518818L250.6211986541748,152.63559758283932L250.70076093946184,121.1383569816893L250.85988551003595,125.44741830077474L251.01901008061,136.6699129710877L251.09857236589704,141.05216371366842L251.25769693647112,147.84806002551596L251.4168215070452,157.7289329070174L251.8146329334804,153.70209119545197L252.05331978934151,141.9538466880271L252.2124443599156,135.28851808580407L252.29200664520263,145.4331115261829L252.6102557863508,152.97224016605398L253.008067212786,134.9970574947428L253.56500320979526,147.56373168690686L253.6445654950823,151.92846191224407L254.0423769215175,156.13038969578605L254.20150149209158,141.34962615675926L254.59931291852678,131.38550493194637L254.67887520381382,115.1115697715316L254.75843748910086,117.80875734555973L254.8379997743879,125.04860265217047L255.55406034197125,145.49141284059255L255.95187176840645,145.13185365611974L256.19055862426757,131.9841211678025L256.27012090955463,119.39783442321648L256.98618147713796,132.40214128577935L257.14530604771204,145.91581930695625L257.3839929035732,147.63666608715462L257.54311747414727,153.24146019220592L258.0204911858695,150.31592853821454L258.57742718287875,154.97526515963415L258.73655175345283,155.57649300969166L258.8161140387399,150.3634766815356L258.975238609314,156.7604921570576L259.21392546517507,160.31484944781946L259.5321746063233,170.40097130850467L259.77086146218437,155.52303576353512L259.8504237474714,154.51896135573483L260.00954831804546,140.93082227395914L260.16867288861954,87.83027211656541L260.2482351739066,103.03594175485631L260.72560888562884,116.56235498887635L260.8051711709159,127.69334533321873L260.96429574148993,120.11720252979549L261.123420312064,139.5243981733952L261.36210716792516,133.909013548033L261.91904316493446,125.83647434111444L262.23729230608257,136.20328548749612L262.31685459136963,114.00485974969426L262.5555414472307,119.75037534787546" fill="none"></path></g></g></g></g><g opacity="0.2"><g><g><g><path style="fill: none;" stroke="rgb(255, 112, 67)" stroke-width="2px" d="M40.81545235225133,-142.6218814078782L41.213263778686525,15.545659938055174L41.3723883492606,154.66352105506684L41.61107520512172,110.42266540467104L41.7701997756958,-3.299920966161865L41.84976206098284,93.69794385297855L42.00888663155692,-101.30283608033531L42.168011202131005,109.22000917971737L42.406698057992116,129.38349479002585L42.565822628566195,129.79970814385428L43.12275862557547,115.91706862852807L43.44100776672363,180.80984834561545L43.52057005201067,154.23810828356687L43.600132337297715,44.3300786052393L43.83881919315883,78.12858540929047L44.55487976074219,19.21539802468596L44.63444204602923,52.551776547872755L44.71400433131626,41.44227246813279L44.952691187177386,-84.63038503147143L45.191378043038505,50.600302036428L45.50962718418666,-54.050980016771774L45.82787632533482,136.68466788515747L45.90743861062187,-10.117508423624516L45.9870008959089,167.5472591226657L46.14612546648298,163.56656163610734L46.30525003705706,163.58539778171138L46.3848123223441,-28.574863830714804L46.54393689291818,9.126496583078001L46.623499178205215,-46.965430034312504L46.94174831935337,180.08633309586023L47.498684316362656,175.22120078497295L47.737371172223774,184.030580109576L47.81693345751081,182.76178402060813L47.97605802808489,172.53917960484972L48.29430716923305,174.69025709640687L48.69211859566825,140.54253949641992L48.771680880955294,183.71541590523012L49.72642830439976,145.64980917361999L49.8059905896868,167.1086342805542L50.12423973083496,55.042653388476715L50.36292658669608,75.2397085246359L50.52205115727016,53.701314153128074L50.681175727844234,104.05487142834836L51.3972362954276,-300.51454807632655L51.87461000714983,128.58746819827246L52.27242143358503,87.88147354856547L52.35198371887207,164.30264491772613L52.59067057473319,-63.35452523699385L52.74979514530727,125.96740195548428L52.908919715881346,57.94028707981142L53.38629342760359,52.932178166876106L53.46585571289063,98.5939635201159L54.18191628047398,-284.88939414406997L54.341040851048064,-147.26580893694407L54.500165421622135,151.6932938604122L54.738852277483254,107.98300952226937L55.454912845066616,113.33786571667038L55.693599700927734,17.36567633468912L55.773161986214774,-445.02853157418286L55.93228655678885,85.97746177744393L56.17097341264997,126.78763168240808L56.72790940965925,43.65112924662407L56.88703398023333,-1.7622214725450092L56.966596265520366,133.36750258274145L57.28484540666852,114.69081355167368L57.36440769195556,90.36835363842074L57.44396997724261,-150.72228803667693L57.52353226252965,33.502477971542426L57.76221911839077,82.05226028818443L57.84178140367781,80.78717736088693L58.160030544825965,128.00864433686132L58.239592830113,153.82955713558357L58.319155115400044,140.80608651296342L58.71696654183524,102.33619439618833L58.87609111240932,-51.20285514770856L58.95565339769636,124.86986451580533L59.27390253884452,136.153105336313L59.671713965279714,-25.734944492366395L59.751276250566754,128.55921000431857L59.91040082114083,135.85303098633557L60.06952539171491,54.349975138032455L60.14908767700195,84.77924226386513L60.22864996228899,136.52217399364434L60.46733681815011,143.09927791269018L60.626461388724195,150.45214903176333L60.86514824458531,161.362446360991L61.024272815159385,76.35686926838862L61.26295967102051,35.98318801117029L61.34252195630754,98.73741188717277L61.6607710974557,140.00592535147L61.74033338274275,-230.75998876035263L61.81989566802979,54.203420542940144L61.899457953316826,110.85730409749472L62.138144809177945,88.00538342323553L62.217707094464984,-2.1751907793466514L62.61551852090018,139.09008634967353L63.2520168031965,16.635235680619367L63.411141373770576,-276.8589571570254L63.49070365905762,70.92156388816166L63.649828229631694,76.73849005539223L63.80895280020578,93.07706929701926L63.88851508549281,66.45996028316968L64.12720194135393,75.21886605256186L64.20676422664097,129.25868909191212L64.28632651192801,170.28773675803626L64.44545108250209,39.37366241551508L64.92282479422433,111.76666560669851L65.00238707951137,57.39892348039093L65.0819493647984,117.76783456242079L65.47976079123362,86.87874497346338L65.63888536180768,175.99392271536482L65.71844764709472,151.62533319549328L65.8775722176688,110.67750862183875L66.67319507053921,97.61837468484573L66.83231964111327,125.29559798149667L67.0710064969744,-175.76898144865916L67.30969335283552,143.84218588474522L67.4688179234096,97.354970788024L67.70750477927072,96.84618547786268L67.8666293498448,-367.40904527829554L68.02575392041888,163.91018413698106L68.18487849099296,49.43992973816166L68.42356534685408,134.11969213378978L68.50312763214112,158.59119268470948L68.6622522027152,127.21951399540508L69.21918819972447,29.118360444062724L69.29875048501151,74.3599780985689L69.37831277029855,92.83244058740156L69.45787505558559,100.47007224622276L70.25349790845598,-47.23733630275345L70.49218476431712,21.287856407600152L70.57174704960416,30.687959733442945L70.8899961907523,165.27669124043945L71.2878076171875,93.9369855927168L71.44693218776158,142.1889304676253L71.60605675833565,132.22205184065223L71.84474361419677,87.5520119490513L72.08343047005789,40.850233885744906L72.56080418178013,16.38342978199143L72.64036646706717,86.10553802623663L72.79949103764126,19.358581355221027L72.8790533229283,21.485404029486013L73.35642703465052,-3.7706470317932896L73.43598931993758,71.17413309197237L73.6746761757987,44.33441460273588L73.99292531694685,80.64227659369062L74.07248760223389,128.06097844845516L74.15204988752093,80.36728530013598L74.23161217280797,160.9797945819176L74.62942359924317,3.8912831753461394L74.86811045510429,69.55239581802444L74.94767274039131,16.519700960038058L75.02723502567835,59.84215735583684L75.42504645211356,94.69115231621772L75.82285787854876,-22.72735244886897L76.14110701969692,-151.6014671867786L76.22066930498394,127.59218184870242L76.37979387555804,115.06369343418847L77.01629215785435,124.15117558111201L77.33454129900251,169.25929698995475L77.41410358428956,92.26248484800972L78.20972643715994,-21.460795918510286L78.60753786359516,-87.77113142351917L78.76666243416922,64.53506363413062L78.84622471945626,67.92916373809358L78.9257870047433,96.0877463656304L79.00534929003034,73.87014820044642L79.32359843117851,91.43637661103249L79.72140985761371,130.1868946978156L79.80097214290075,114.98165402923173L80.03965899876185,117.96370185275846L80.43747042519706,137.6461726796594L80.5170327104841,118.2903858695242L80.83528185163225,50.63925180367114L80.9148441369193,-8.462471961078139L80.99440642220634,116.59384998839501L81.15353099278042,127.91657594991985L81.39221784864152,-47.360525278084225L81.7104669897897,125.65013203597273L81.79002927507673,92.55342073871562L82.10827841622489,80.9883718853127L82.18784070151193,-4.065282832343457L82.58565212794713,124.51873353026913L82.7447766985212,71.93003845505628L83.1425881249564,132.99470751191365L83.22215041024344,121.00431214614123L83.30171269553048,12.543199001619719L83.5403995513916,126.65008302832639L83.61996183667864,10.506446338921883L83.69952412196568,111.95686111546975L83.9382109778268,53.73315034012621L84.01777326311384,148.97395023728967L84.09733554840088,101.33605257753898L84.17689783368792,123.00755889175362L84.57470926012311,139.45158026321195L84.7338338306972,140.79128687358633L84.81339611598423,159.36233764779666L84.89295840127129,106.21448442108995L84.97252068655833,115.93859489482834L85.21120754241943,9.599342940883794L85.37033211299351,131.29178425060917L85.60901896885464,133.05072563116045L85.68858125414167,137.70218549817577L86.08639268057688,138.0644639198187L86.16595496586392,90.32305359611537L86.40464182172502,2.0735778971822545L86.5637663922991,68.33686411884192L86.9615778187343,13.005422695631928L87.12070238930838,139.9537131566762L87.35938924516951,136.95978109551214L87.51851381574357,97.24904099099258L87.59807610103061,100.15812426006887L87.67763838631765,45.1847365763444L87.7572006716047,144.06221390440982L87.91632524217879,167.28675472539243L87.99588752746583,152.44701532255652L88.15501209803989,143.8509638943471L88.31413666861397,119.64130882550099L88.39369895390102,121.065668100937L88.47326123918806,161.20717736506202L88.71194809504918,-39.28236051419461L88.9506349509103,151.1597488383847L89.3484463773455,135.65807012090244L89.66669551849365,18.75361959203037L89.7462578037807,112.5997337027381L89.90538237435477,-48.01196384573703L90.14406923021589,103.69600137637572L90.46231837136405,120.89276887557817L90.54188065665109,128.21906743297603L90.70100522722517,115.26742700849304L90.7805675125122,131.0884376296264L90.86012979779925,129.88153021886313L90.93969208308629,123.43314393699275L91.25794122423446,136.36622650421958L91.33750350952148,146.25090670432286L91.49662808009556,112.62312582615182L91.5761903653826,88.60858534392146L91.89443950653077,160.7107586590077L92.53093778882707,124.6607666022996L92.84918692997523,105.38701919712112L92.92874921526229,-399.18819641693955L93.16743607112339,89.30803792786283L93.24699835641043,157.42462648292877L93.32656064169747,124.46300165046587L93.48568521227155,-178.65427503953904L93.72437206813268,-26.839659121055575L93.88349663870675,167.04850014412392L93.96305892399378,-107.78592624436968L94.12218349456788,174.73009738636324L94.28130806514196,121.89967442626376L94.51999492100306,28.30700944061909L94.7586817768642,-48.32216259084706L95.07693091801234,98.05801726720092L95.15649320329938,171.7636774413442L95.71342920030865,173.57905834921195L95.87255377088275,119.52336227257133L95.95211605616979,160.25781654398878L96.34992748260497,-417.4803386578031L96.66817662375314,155.4401840785378L96.82730119432722,145.06449721815528L97.14555033547538,-24.28097533671533L97.54336176191059,143.2611516187423L97.94117318834577,116.0079761555041L98.02073547363281,169.039571111925L98.10029775891987,169.41045526943066L98.33898461478097,153.1543500926561L98.49810918535505,77.45632557248537L98.65723375592913,74.07997231402187L98.73679604121618,82.33467260434936L98.89592061179025,-200.65837038422504L99.13460746765136,134.51153802980429L99.2141697529384,118.3426987781963L99.29373203822546,176.6912377797579L99.45285660879952,159.90002784102506L99.6119811793736,168.29819505096594L99.69154346466064,131.09186720221845L99.85066803523473,168.18182546534098L100.00979260580881,102.05088788120538L100.32804174695696,143.595532296101L100.48716631753105,46.72010374856945L100.80541545867919,175.86001698827522L100.88497774396623,-114.1990467666499L101.12366459982736,67.59524952501324L101.28278917040144,99.70384106024967L101.52147602626255,104.49504408374715L101.68060059683664,-271.8888650827765L101.83972516741072,162.43011683502874L102.07841202327182,56.841488066288726L102.31709887913296,163.59784919750535L102.39666116442,170.81253292447929L102.7944725908552,123.8217510867109L103.19228401729038,122.0699338878655L103.51053315843855,-9.530145085481111L103.59009544372559,-73.0803266437413L103.66965772901263,62.331337962701305L103.82878229958669,-10.210186394566138L103.90834458487375,-141.0671771710229L103.98790687016078,171.4762506341869L104.38571829659598,157.4252360669289L104.6244051524571,140.65582140656596L104.70396743774414,121.69073023394067L104.78352972303118,-17.263529138896757L104.86309200831822,170.22807438661476L105.02221657889231,137.8656388218978L105.26090343475342,81.73474653507283L105.49959029061453,165.73352409159833L106.2156508581979,96.02796472777409L106.45433771405901,115.42748256400564L107.01127371106828,132.91371765158323L107.09083599635532,103.69872595181978L107.17039828164236,-60.9692813525169L107.48864742279054,38.71860874970498L107.6477719933646,160.2749511551229L107.80689656393868,100.06589155048387L107.88645884922573,179.48376328727878L108.20470799037388,98.47225874930719L108.68208170209613,137.60004572340603L108.84120627267019,102.77392871558659L109.07989312853132,149.86880364729035L109.15945541381836,26.53352285575165L109.39814226967948,53.46155151405055L109.6368291255406,-49.33697683134304L109.79595369611468,176.22354903266626L109.95507826668876,117.96145964378407L110.35288969312396,77.04307002624019L110.432451978411,172.5130841089137L110.67113883427211,131.5684240713294L110.98938797542027,177.7804596985655L111.14851254599435,160.211392746831L111.46676168714251,147.54420541973076L111.54632397242955,-42.22869731677454L111.78501082829067,88.56247959058983L111.94413539886476,155.5630629611381L112.02369768415178,109.08039854149611L112.2623845400129,174.72064353363078L112.34194682529994,-24.581463143666753L112.73975825173514,-496.55430297946333L113.21713196345739,146.62162388881978L113.61494338989257,143.2960516279324L113.77406796046667,155.7110646556394L113.85363024575369,170.32286204826988L114.96750223977226,133.45305107124676L115.0470645250593,152.14926269251004L115.20618909563336,175.25946145725942L115.76312509264264,184.5534534360534L115.84268737792968,176.8755110474496L115.92224966321672,142.14641860952923L116.24049880436489,18.792685975343097L116.32006108965193,119.93358050027673L116.63831023080009,104.31502067668244L116.95655937194823,27.11798139361617L117.03612165723527,97.86430737415067L117.19524622780936,112.87126892004854L117.35437079838344,75.71230044738077L117.43393308367048,134.65548466552212L117.51349536895752,81.23275676133035L117.59305765424455,37.90786202953104L118.22955593654086,93.95512469226851L118.54780507768903,-1.0604895745161982L118.70692964826311,142.83798370658195L118.94561650412423,129.3432145394433L119.34342793055943,186.31311041521352L119.82080164228167,154.2820725418024L119.9003639275687,93.06722053986933L119.97992621285576,114.72499796225493L120.13905078342982,144.1432726742359L120.37773763929094,113.04614531785997L121.17336049216135,158.53226446445336L121.33248506273543,175.83163025160826L121.4916096333095,166.41092298656105L121.73029648917063,129.40278414808216L121.96898334503175,186.88659047775394L122.12810791560581,82.52956986101726L122.20767020089285,188.95877388527677L122.60548162732806,174.5888382209764L122.68504391261509,80.61757518985924L122.92373076847622,77.12382135370099L123.00329305376326,152.13310871650657L123.0828553390503,126.6171760937802L123.3215421949114,111.45137285963956L123.40110448019844,166.19413106282758L123.71935362134661,119.25479016357458L123.87847819192068,156.14720080481123L124.35585190364293,155.40828163240923L124.514976474217,139.77387527517675L124.75366333007813,165.83794583082073L125.07191247122628,123.91413751747855L125.39016161237444,158.28400475448706L125.54928618294852,156.08532537843274L125.86753532409668,162.1615182223798L125.94709760938372,80.16480799894471L126.34490903581893,117.97581402180454L126.504033606393,121.93073670661825L127.45878102983748,11.279462459852944L127.77703017098563,128.71421396372574L127.85659245627267,128.65346229219966L127.9361547415597,102.72478034298474L128.17484159742082,32.418627017849026L128.3339661679949,91.72476815112914L128.57265302385602,10.911464550069645L128.89090216500418,141.38431669256573L129.05002673557826,114.23690670371543L129.1295890208653,-27.70535321292826L129.44783816201345,125.29751684591447L129.5274004473005,117.15391456479342L129.76608730316164,165.1975698875877L130.08433644430977,153.6235230442698L130.1638987295968,146.70299010101115L130.32302330017092,180.31109731816932L130.48214787074497,166.94150224990966L130.72083472660609,173.43777798090338L131.11864615304128,163.17573878106697L131.27777072361536,137.5006093211586L131.43689529418944,143.13538648841967L131.6755821500506,180.09203800699188L132.07339357648578,165.561141687457L132.15295586177282,160.9627500832009L132.3120804323469,184.98655359186805L132.47120500292095,174.04219111849392L132.550767288208,157.77938846881358L132.63032957349506,183.44591484322447L132.86901642935618,73.54362320559376L133.26682785579138,170.72935651284405L133.42595242636546,38.51428679432201L133.5055147116525,89.24869094990227L133.82376385280065,120.1337254800762L134.22157527923582,130.13069635373398L134.539824420384,37.420841518539596L134.85807356153214,177.05332935065297L134.9376358468192,120.44472993621248L135.3354472732544,106.65554759920197L135.49457184382848,47.093041939119026L135.65369641440256,120.06498560778319L135.81282098497664,36.2202472777255L136.05150784083776,53.02330832453044L136.1310701261248,97.68925605223485L136.44931926727295,153.77412474704994L136.9266929789952,67.20545501167744L137.08581754956927,-60.791113201104764L137.24494212014335,135.6972001129804L137.40406669071743,58.96328564810046L137.48362897600447,73.1266677495043L137.88144040243967,-66.30171015644353L138.27925182887486,55.00216640940716L138.51793868473598,154.30596293387708L138.67706325531006,85.59762203586679L138.83618782588414,49.50816074033282L138.91575011117118,105.35632796789714L139.07487468174526,65.55178613758353L139.23399925231934,139.9937919795022L139.47268610818045,102.40855996809951L139.63181067875453,-62.514168636604865L139.7909352493286,-143.49045909710802L139.87049753461568,166.03069099093165L140.42743353162496,126.32307036627363L140.586558102199,74.52982410319665L140.82524495806013,107.63840903663022L140.90480724334716,84.7430382749878L140.98436952863423,126.85075808116945L141.46174324035644,50.49980018736296L141.85955466679164,-39.05578609244165L142.09824152265276,135.93987815379768L142.1778038079398,-51.12684267325747L142.81430209023614,183.96518764855327L142.89386437552315,137.5640802673983L142.97342666081022,55.769044284493425L143.05298894609723,79.14626204422184L143.2121135166713,64.98150175290466L143.6099249431065,139.96466976648725L143.76904951368059,70.52089227597135L143.84861179896762,107.16108886233651L144.48511008126397,19.600432482090305L144.56467236655098,143.06950901056206L144.88292150769914,121.7539096400064L145.04204607827324,92.23592818852576L145.20117064884732,3.813023191190219L145.28073293413433,132.77547460181444L145.4398575047084,146.38683333489115L145.7581066458566,169.3635650079945L145.8376689311436,149.9455635247329L145.9967935017177,133.07923295944482L146.1559180722918,164.035758441008L146.2354803575788,167.50224001907344L146.3946049281529,176.74330552964733L146.47416721343996,162.02299688426314L146.55372949872697,158.8501969752694L146.63329178401403,143.2465269034696L146.95154092516216,150.1888193451677L147.03110321044923,171.66482146907953L147.26979006631032,183.40414376220681L147.3493523515974,122.21331864615713L147.42891463688443,100.45606771641106L147.7471637780326,183.7083725596634L148.38366206032887,-92.90393471922906L149.02016034262522,55.53723274106978L149.25884719848634,168.2064871136941L149.41797176906041,171.31959814761416L149.5770963396345,174.70225397456596L149.65665862492153,166.91763836148715L149.9749077660697,162.2315223188818L150.13403233664377,32.230175449391204L150.3727191925049,182.07000026842493L150.45228147779193,176.9262893946605L150.61140604836598,176.18409967157953L151.16834204537525,180.51743885184837L151.32746661594936,176.3471461642406L151.4070289012364,179.8860476467042L151.72527804238456,104.36094620517925L151.8048403276716,180.1228538033811L152.04352718353272,166.68086533437548L152.12308946881976,144.74136999151204L152.2026517541068,167.97399442640943L152.36177632468087,169.154944160228L152.4413386099679,125.25244473501785L152.600463180542,91.45256504178379L152.75958775111607,181.50668236872147L152.8391500364031,173.23724339741688L153.15739917755127,114.23685369641107L153.3960860334124,155.85387428467874L153.71433517456055,192.63472442797845L153.79389745984759,149.25657458267204L154.0325843157087,81.0923934193872L154.19170888628278,182.7753273868719L154.35083345685686,136.4085687389417L154.4303957421439,155.64829340581724L154.50995802743094,177.47047033230768L155.2260185950143,158.3521297420495L155.3851431655884,101.84271759552594L155.6238300214495,176.90719616363032L155.78295459202357,165.75420489139407L155.94207916259768,133.2750419417477L156.49901515960696,143.02063097521244L156.57857744489397,-26.03653485124849L156.8172643007551,133.5753654260556L156.89682658604212,11.3376432771176L156.97638887132916,158.80625922068606L157.3742002977644,179.18114591187472L157.61288715362548,177.06957211389124L157.7720117241996,133.14403968975438L158.01069858006068,117.1072628362269L158.09026086534772,91.64502396245116L158.16982315063476,87.25518164610067L158.48807229178294,164.0115261518202L158.56763457706995,138.7793416293286L158.72675914764403,175.73699366077057L158.88588371821814,13.794447022479467L158.96544600350515,122.26350596192442L159.2836951446533,157.9379995752824L159.36325742994035,171.6094765425981L159.6815065710885,125.87044629508087L159.76106885637557,175.9725819746298L159.92019342694965,178.27897881905508L160.0793179975237,160.5606207701407L160.47712942395893,149.20790327580943L160.55669170924597,146.2505303524619L160.71581627982005,171.19534372546576L160.95450313568114,181.69476023568356L161.5114391326904,180.65927712203532L161.6705637032645,140.30266554200324L161.98881284441268,131.9680037330499L162.0683751296997,163.69039199982086L162.38662427084788,175.72108086800193L162.4661865561349,126.10676876010548L162.94356026785715,168.64978189931963L163.18224712371824,167.11592808563404L163.2618094090053,48.557464135189726L163.34137169429232,158.82097139801095L163.50049626486643,92.37581446472969L163.58005855015347,164.0713952517287L163.6596208354405,188.97794265171567L163.73918312072752,174.44152429624916L164.0574322618757,177.79692376729946L164.13699454716274,33.771437033861L164.2961191177368,78.97431695034147L164.37568140302386,81.05772664233628L164.53480597359794,48.84164689532026L164.77349282945906,186.7288732069549L164.8530551147461,25.50356972913068L165.17130425589426,190.61597569620622L165.2508665411813,163.87990371436587L165.8873648234776,48.328048521923115L166.2851762499128,171.84052743120418L166.76254996163505,-95.37471119002001L166.84211224692206,-155.12378135852558L166.92167453220912,151.41298593423033L167.31948595864432,146.15748133038977L167.63773509979248,154.41636919776164L168.11510881151474,152.53144005620942L168.43335795266287,81.33029020135127L168.75160709381103,-11.4610527628345L168.9107316643851,130.31716014827833L169.0698562349592,109.71740852090234L169.3085430908203,96.0376014557066L169.7063545172555,133.87420470584146L170.1041659436907,102.08845945853518L170.66110194069998,169.9357576556303L171.13847565242222,89.66342009920864L171.2976002229963,165.48358405008383L171.4567247935704,53.586585143573025L171.61584936414448,96.43686307360095L171.6954116494315,93.21628768118826L171.9340985052926,165.8237451739829L172.65015907287597,89.01170589357316L173.5253442110334,181.592172549192L173.60490649632047,163.38193984538947L173.84359335218159,177.79931704709128L173.9231556374686,164.98189376761098L174.24140477861675,58.40713301076375L174.32096706390382,184.26070734590363L174.48009163447787,143.52749212022553L174.8779030609131,57.32029244510449L175.11658991677422,133.4338147204948L175.5144013432094,125.18686939879508L175.59396362849645,166.66792360101618L175.6735259137835,169.36934015380444L175.83265048435757,140.78518043212415L175.91221276964458,159.6393909254909L176.31002419607978,152.14163494141275L176.38958648136685,164.06822806529323L176.62827333722794,129.21849895374697L176.707835622515,156.79894681482932L177.1056470489502,82.34579353680392L177.5830207606724,186.28530808407712L177.66258304595948,185.91183717011873L178.06039447239468,174.09944165756707L178.37864361354283,185.37190609309854L178.77645503997803,83.37576786634664L179.41295332227432,156.79393762456738L180.68594988686698,159.0870336111463L180.76551217215402,148.64836347172417L181.16332359858922,179.140693387553L182.19763330732073,164.4921831359233L182.27719559260777,143.488160700391L182.67500701904297,167.69693319761956L182.83413158961704,155.86791061887305L182.99325616019112,166.48729326031656L183.0728184454782,133.80347175890455L183.1523807307652,159.28346012854496L183.47062987191336,-124.94542960860761L183.62975444248747,176.5782725882554L183.78887901306155,180.14474582008145L183.9480035836356,38.95617688638203L184.18669043949674,-17.09948213336591L184.26625272478375,186.09445926027965L184.42537729535783,176.86839216647417L184.5845018659319,179.6623713993171L184.66406415121895,170.70253216647308L184.74362643650602,146.43439148836222L184.82318872179303,101.1786420865139L184.9823132923671,47.446579456273135L185.06187557765415,92.89457574957142L185.1414378629412,186.21694721401028L185.3801247188023,117.00571144253554L186.01662300109865,118.57973154109932L186.33487214224678,-92.3333428921849L186.41443442753385,-22.278698624772716L186.65312128339494,154.68894865896794L187.1304949951172,102.02157484189475L187.21005728040421,172.8988818715008L187.3691818509783,174.96031208474307L187.7669932774135,31.31571463750806L187.92611784798757,135.8485041625433L188.00568013327464,128.0515378475488L188.32392927442277,-148.38795236730655L188.40349155970983,146.61034393445215L188.80130298614503,180.81791075660848L188.9604275567191,166.98669097687588L189.03998984200612,165.60990575710224L189.1991144125802,58.57431804871266L189.91517498016358,170.1974441157908L189.99473726545062,34.08557952241535L190.15386183602467,87.01759230650187L190.31298640659875,-138.23709598836356L190.5516732624599,176.7329691052973L190.63123554774694,148.86539127796203L191.3472961153303,153.28377537734474L191.82466982705253,137.57104012646067L192.3816058240618,166.9464663839629L192.69985496520994,165.6528416736332L192.779417250497,96.47195390908674L193.09766639164516,96.0742295030188L193.8137269592285,21.631693588056528L194.13197610037668,183.85998537677418L194.21153838566372,100.25451274231564L194.29110067095075,78.70530488071854L194.68891209738595,124.19074553381616L195.1662858091082,128.7372138330872L195.4049726649693,142.5761859310823L195.48453495025635,159.37092483110285L195.5640972355434,162.2617603356535L195.8027840914045,166.70063970926668L195.96190866197858,160.87424378711233L196.12103323255266,91.0576818272295L196.20059551783973,117.38997199329624L196.28015780312674,-2.0528499208856217L196.5984069442749,47.56802979202093L196.75753151484898,69.41496908074278L196.9962183707101,121.5897513191364L197.07578065599714,167.84723540913006L197.15534294128418,100.44816962806154L197.47359208243236,48.80246389593794L197.95096579415457,164.3601949480689L198.50790179116385,178.58657623070368L198.5874640764509,107.3785036218962L198.66702636173792,134.68429413544135L199.06483778817312,168.6492438751804L199.1444000734602,-24.559878569331687L199.30352464403427,-227.3414416876192L199.94002292633056,18.03520099458928L200.09914749690464,124.74164514729087L200.25827206747874,173.59239763735394L200.33783435276575,143.89472672482606L200.5765212086269,147.68134591756888L201.13345720563618,104.97237485950173L201.3721440614973,126.479049660081L201.53126863207137,27.20304751565181L201.69039320264545,187.6544874182665L202.08820462908065,168.9233605482131L202.48601605551582,177.7630772782835L202.5655783408029,182.4000515742001L202.64514062608993,167.59548781853692L202.96338976723808,163.57579815889193L203.0429520525251,153.18568271026282L203.52032576424736,160.01728529899805L203.67945033482144,131.8035220676233L203.8385749053955,130.80860146845333L204.07726176125664,52.61340283992076L204.15682404654365,-32.826600916287845L204.23638633183072,117.81063796069084L204.31594861711775,137.1373343621937L204.55463547297884,139.82257838642198L204.71376004355292,159.6011885612392L205.11157146998812,88.96827170838124L205.35025832584927,131.07536602837143L205.50938289642335,124.208253846446L205.82763203757148,174.3743693423565L205.90719432285854,152.04342830862646L206.30500574929374,88.81962862549717L206.6232548904419,-84.37896078543488L206.86194174630302,165.9183844151858L206.94150403159003,122.84346417964885L207.1006286021641,80.38912430953197L207.4188777433123,95.25256327814687L207.49844002859933,114.17923475657263L207.65756459917338,155.59587978326687L207.73712688446045,129.9625995901501L208.21450059618266,126.26203775603445L208.29406288146973,118.84141800125981L208.4531874520438,92.04002379307504L208.61231202261789,141.6622604929732L208.850998878479,91.60417653371196L208.93056116376604,65.60553554420376L209.08968573434012,125.60354921690187L209.32837259020124,171.66783493433235L209.6466217313494,179.36493283754893L209.80574630192348,175.56854174824747L209.88530858721052,135.12060785908278L210.04443315778462,121.21297009902078L210.12399544307164,135.8109908932483L210.6809314400809,139.17984361814496L210.840056010655,179.13805892452635L211.0787428665161,127.52830804694959L211.2378674370902,135.95483681508784L211.31742972237726,121.7362317040026L211.39699200766427,56.48468529918609L211.87436571938653,150.91657252890644L212.6699885722569,186.85337742602508L212.82911314283098,150.47620904721197L213.22692456926617,162.1563076043613L213.38604913984025,145.78646730498843L213.70429828098844,187.59953275806342L213.78386056627545,-181.03167384297083L213.86342285156252,161.7062729399865L214.02254742213657,119.43498319401324L214.18167199271065,70.67448624108256L214.26123427799772,-51.914276780974234L214.57948341914584,182.1306896563684L215.05685713086808,108.38828746920849L215.2159817014422,14.604038183418375L215.37510627201627,57.20825620661089L215.69335541316443,80.58574960432198L216.40941598074775,-3.065713492581183L216.48897826603482,141.30416964837463L216.56854055132183,171.8253143348531L216.88678969247,130.91800854465072L217.2846011189052,148.09414560099657L217.36416340419225,158.18714185686628L217.44372568947927,-13.521595103728744L217.76197483062745,152.7197988618846L217.84153711591446,142.21207875743897L218.0802239717756,136.57074458662868L218.2393485423497,170.9270340026256L218.4780353982108,159.82173870285175L218.875846824646,120.81520858783979L219.03497139522008,147.68343440536063L219.19409596579416,-52.56683910347945L219.2736582510812,179.61682884859428L219.67146967751637,95.41998154823496L219.83059424809048,139.83871380986892L220.22840567452565,144.9550318339231L220.4670925303868,103.25040077301055L220.62621710096087,139.10618996873785L220.78534167153492,162.10153515676694L221.18315309797015,-6.934865058211273L221.42183995383127,124.54446327580509L221.58096452440535,115.69821207028981L221.74008909497942,35.141972692450686L221.81965138026646,130.90859974812696L222.05833823612755,172.83196545047775L222.13790052141462,157.68490559915853L222.21746280670166,42.624632196247326L222.45614966256278,161.73658251661908L222.53571194784982,174.13366052289615L222.61527423313683,159.27028251268126L223.25177251543317,160.81722913054358L223.3313348007202,6.837450354552125L223.41089708600725,141.83496889203633L223.57002165658133,119.74262698705316L223.64958394186837,126.60504272181238L223.96783308301653,145.0697979485912L224.1269576535906,135.53850684518983L224.84301822117396,113.68257751764868L225.24082964760916,167.68588382502588L225.3203919328962,43.57470331519898L225.39995421818324,-58.64503827389652L225.55907878875735,100.42305476725615L225.95689021519252,-26.086128485206956L226.03645250047956,156.27594494563886L226.11601478576662,125.95889428313463L226.19557707105363,142.9144308409288L226.3547016416277,163.34911772253025L226.5138262122018,117.2730590828016L226.83207535334998,83.38667676958376L227.1503244944981,123.94592599790276L227.22988677978515,113.52672544137177L227.38901135035925,-8.128441131928215L227.62769820622034,-111.94015109284354L227.78682277679442,152.4186776176461L228.3437587738037,157.27180377409599L228.7415702002389,164.5182415267463L228.98025705610002,162.47316141653363L229.37806848253524,125.33667864237505L229.61675533839636,107.87522446958538L229.69631762368337,69.28999905998553L229.77587990897044,153.54330709058303L230.0941290501186,141.5932290805062L230.41237819126673,131.61498038674807L230.5715027618408,144.61036773951872L231.20800104413715,140.15102754642288L231.28756332942416,24.59126101380452L231.36712561471123,-8.751891842879362L231.68537475585936,156.58943279398437L232.00362389700754,139.40099009193153L232.3218730381557,-18.495016036691396L232.4014353234427,54.09564609171702L232.7196844645909,119.12000319005001L232.7992467498779,153.10427144186275L232.87880903516498,158.8109715700436L232.958371320452,92.26205018811397L233.27662046160017,139.5580136296348L233.51530731746126,134.5926021003608L233.7539941733224,153.64011698089945L233.91311874389646,173.90088424653317L234.07224331447054,164.0829375922529L234.39049245561873,95.60772281881437L234.78830388205392,140.11275627267554L234.86786616734096,145.93362088262L234.947428452628,59.44538708124737L235.10655302320208,142.32999880671645L235.1861153084891,12.215317019775462L235.3452398790632,124.76876368420103L235.50436444963728,104.70432752281813L235.58392673492432,152.93317711521735L235.66348902021136,158.2705249969885L236.29998730250767,2.692554791645485L236.45911187308172,171.6442307817012L236.69779872894287,36.296238549254845L236.7773610142299,129.6608926151984L236.85692329951695,135.68404900076888L236.936485584804,123.857271281362L237.09561015537807,-139.09131929957292L237.25473472595215,156.52521974548364L237.49342158181327,128.3581479981537L237.5729838671003,159.39428515013395L237.89123300824846,125.77184740824232L237.9707952935355,-83.59419824585783L238.05035757882254,137.86635972123707L238.2890444346837,162.20371468701495L238.92554271697998,18.455962375131726L240.3576638521467,113.25385974072192L240.43722613743373,160.36954799048232L240.83503756386895,99.479227908758L240.91459984915596,161.6052039127648L241.07372441973007,107.29185258146022L241.23284899030415,90.47569342974812L241.31241127559116,159.3222323213185L241.55109813145228,137.65858699034032L241.86934727260044,158.92035744331923L241.9489095578875,160.4689949941906L242.10803412846155,5.202493058897012L242.26715869903563,85.34563591240403L242.3467209843227,101.58381931957474L242.74453241075787,142.52694744606305L242.8240946960449,67.23694135046681L243.06278155190606,101.4344553373514L243.14234383719307,130.42295212631842L243.46059297834125,155.81738140599265L243.54015526362826,165.21950431013153L243.61971754891533,14.989507300718465L244.09709126063754,158.43612511653708L244.25621583121162,138.73109438090086L244.3357781164987,126.90663308069448L244.4153404017857,119.96368864915276L245.44965011051724,177.26499811842012L245.52921239580425,168.53901253540022L245.68833696637836,159.28562547692803L246.08614839281353,152.9525168302128L246.48395981924872,98.99730670044592L246.6430843898228,164.75567714516245L247.12045810154507,152.69866750000182L247.27958267211915,58.6129285692079L247.43870724269323,-26.141955778158064L247.5978318132673,173.0799071166179L247.67739409855434,126.30727949030502L247.83651866912842,-29.619892234695527L248.23433009556362,144.43216778372397L248.31389238085066,102.86806968812853L248.3934546661377,131.23876104405866L248.4730169514247,161.0745954953988L248.71170380728586,135.08847483118024L248.7912660925729,162.6285364270713L249.029952948434,156.21387869296467L249.10951523372105,152.99137913540375L249.1890775190081,79.41867718278463L249.26863980429513,77.83893229535006L249.58688894544326,159.6215804712262L249.66645123073033,151.30963229219077L250.06426265716553,156.0478651164421L250.2233872277396,154.22463647716398L250.6211986541748,159.20363907927566L250.70076093946184,73.89249607996426L250.85988551003595,131.9110102794029L251.01901008061,153.50365497655713L251.09857236589704,147.6255398275395L251.25769693647112,158.0419044932873L251.4168215070452,172.5502422292695L251.8146329334804,147.66182862810382L252.05331978934151,124.33147992688983L252.2124443599156,125.2905251824695L252.29200664520263,160.65000168675118L252.6102557863508,164.2809331258606L253.008067212786,108.03428348777602L253.56500320979526,166.41374297515296L253.6445654950823,158.4755572502499L254.0423769215175,162.43328137109899L254.20150149209158,119.17848084821908L254.59931291852678,116.43932309472707L254.67887520381382,90.70066703090943L254.75843748910086,121.8545387066019L254.8379997743879,135.90837061208657L255.55406034197125,176.1556281232256L255.95187176840645,144.59251487941054L256.19055862426757,112.26252243532663L256.27012090955463,100.51840430633747L256.98618147713796,151.90860157962362L257.14530604771204,166.18633633872156L257.3839929035732,150.2179362574522L257.54311747414727,161.64865134978282L258.0204911858695,145.92763105722742L258.57742718287875,161.96427009176358L258.73655175345283,156.47833478477793L258.8161140387399,142.54395218930148L258.975238609314,166.35601537034057L259.21392546517507,165.64638538396224L259.5321746063233,185.5301540995325L259.77086146218437,133.20613244608074L259.8504237474714,153.01284974403444L260.00954831804546,120.54861365129564L260.16867288861954,8.17944688047482L260.2482351739066,125.84444621229268L260.72560888562884,136.8519748399064L260.8051711709159,144.38983084973228L260.96429574148993,108.75298832466065L261.123420312064,168.63519163879477L261.36210716792516,125.48593660998968L261.91904316493446,113.72766553073662L262.23729230608257,151.7535022070686L262.31685459136963,80.70722114299151L262.5555414472307,128.36864874514725" fill="none"></path></g></g></g></g></g></g><g transform="translate(51, 177)" clip-path="url(#clip_1)"><clipPath id="clip_1"><rect width="278" height="22"></rect></clipPath><g><g><line x1="0" y1="0" x2="0" y2="5" style="visibility: inherit;" fill="rgb(0, 0, 0)" stroke="rgb(204, 204, 204)" stroke-width="1px"></line><line x1="39.78114264351981" y1="0" x2="39.78114264351981" y2="5" style="visibility: inherit;" fill="rgb(0, 0, 0)" stroke="rgb(204, 204, 204)" stroke-width="1px"></line><line x1="79.56228528703961" y1="0" x2="79.56228528703961" y2="5" style="visibility: inherit;" fill="rgb(0, 0, 0)" stroke="rgb(204, 204, 204)" stroke-width="1px"></line><line x1="119.34342793055943" y1="0" x2="119.34342793055943" y2="5" style="visibility: inherit;" fill="rgb(0, 0, 0)" stroke="rgb(204, 204, 204)" stroke-width="1px"></line><line x1="159.12457057407923" y1="0" x2="159.12457057407923" y2="5" style="visibility: inherit;" fill="rgb(0, 0, 0)" stroke="rgb(204, 204, 204)" stroke-width="1px"></line><line x1="198.90571321759904" y1="0" x2="198.90571321759904" y2="5" style="visibility: inherit;" fill="rgb(0, 0, 0)" stroke="rgb(204, 204, 204)" stroke-width="1px"></line><line x1="238.68685586111886" y1="0" x2="238.68685586111886" y2="5" style="visibility: inherit;" fill="rgb(0, 0, 0)" stroke="rgb(204, 204, 204)" stroke-width="1px"></line><line x1="278.4679985046387" y1="0" x2="278.4679985046387" y2="5" style="visibility: inherit;" fill="rgb(0, 0, 0)" stroke="rgb(204, 204, 204)" stroke-width="1px"></line></g><g transform="translate(0, 8)"><text style="text-anchor: middle; visibility: hidden; font-family: Roboto, sans-serif; font-size: 12px; font-weight: 200;" x="0" y="0" dx="0em" dy="0.95em" fill="rgb(50, 49, 63)" stroke="none" stroke-width="1px">-500</text><text style="text-anchor: middle; visibility: inherit; font-family: Roboto, sans-serif; font-size: 12px; font-weight: 200;" x="39.78114264351981" y="0" dx="0em" dy="0.95em" fill="rgb(50, 49, 63)" stroke="none" stroke-width="1px">0</text><text style="text-anchor: middle; visibility: inherit; font-family: Roboto, sans-serif; font-size: 12px; font-weight: 200;" x="79.56228528703961" y="0" dx="0em" dy="0.95em" fill="rgb(50, 49, 63)" stroke="none" stroke-width="1px">500</text><text style="text-anchor: middle; visibility: inherit; font-family: Roboto, sans-serif; font-size: 12px; font-weight: 200;" x="119.34342793055943" y="0" dx="0em" dy="0.95em" fill="rgb(50, 49, 63)" stroke="none" stroke-width="1px">1k</text><text style="text-anchor: middle; visibility: inherit; font-family: Roboto, sans-serif; font-size: 12px; font-weight: 200;" x="159.12457057407923" y="0" dx="0em" dy="0.95em" fill="rgb(50, 49, 63)" stroke="none" stroke-width="1px">1.5k</text><text style="text-anchor: middle; visibility: inherit; font-family: Roboto, sans-serif; font-size: 12px; font-weight: 200;" x="198.90571321759904" y="0" dx="0em" dy="0.95em" fill="rgb(50, 49, 63)" stroke="none" stroke-width="1px">2k</text><text style="text-anchor: middle; visibility: inherit; font-family: Roboto, sans-serif; font-size: 12px; font-weight: 200;" x="238.68685586111886" y="0" dx="0em" dy="0.95em" fill="rgb(50, 49, 63)" stroke="none" stroke-width="1px">2.5k</text><text style="text-anchor: middle; visibility: hidden; font-family: Roboto, sans-serif; font-size: 12px; font-weight: 200;" x="278.4679985046387" y="0" dx="0em" dy="0.95em" fill="rgb(50, 49, 63)" stroke="none" stroke-width="1px">3k</text></g><line x1="0" y1="0" x2="278.4679985046387" y2="0" fill="rgb(0, 0, 0)" stroke="rgb(204, 204, 204)" stroke-width="1px"></line></g></g></g></g></svg>