<svg viewBox="0 0 330 200" xmlns="http://www.w3.org/2000/svg"><g><g><g><g><g><line x1="61.91500186920166" y1="177.86299896240234" x2="56.91500186920166" y2="177.86299896240234" style="visibility: inherit;" fill="rgb(0, 0, 0)" stroke="rgb(204, 204, 204)" stroke-width="1px"></line><line x1="61.91500186920166" y1="163.04108238220215" x2="56.91500186920166" y2="163.04108238220215" style="visibility: inherit;" fill="rgb(0, 0, 0)" stroke="rgb(204, 204, 204)" stroke-width="1px"></line><line x1="61.91500186920166" y1="148.21916580200195" x2="56.91500186920166" y2="148.21916580200195" style="visibility: inherit;" fill="rgb(0, 0, 0)" stroke="rgb(204, 204, 204)" stroke-width="1px"></line><line x1="61.91500186920166" y1="133.39724922180176" x2="56.91500186920166" y2="133.39724922180176" style="visibility: inherit;" fill="rgb(0, 0, 0)" stroke="rgb(204, 204, 204)" stroke-width="1px"></line><line x1="61.91500186920166" y1="118.57533264160158" x2="56.91500186920166" y2="118.57533264160158" style="visibility: inherit;" fill="rgb(0, 0, 0)" stroke="rgb(204, 204, 204)" stroke-width="1px"></line><line x1="61.91500186920166" y1="103.75341606140135" x2="56.91500186920166" y2="103.75341606140135" style="visibility: inherit;" fill="rgb(0, 0, 0)" stroke="rgb(204, 204, 204)" stroke-width="1px"></line><line x1="61.91500186920166" y1="88.93149948120117" x2="56.91500186920166" y2="88.93149948120117" style="visibility: inherit;" fill="rgb(0, 0, 0)" stroke="rgb(204, 204, 204)" stroke-width="1px"></line><line x1="61.91500186920166" y1="74.10958290100098" x2="56.91500186920166" y2="74.10958290100098" style="visibility: inherit;" fill="rgb(0, 0, 0)" stroke="rgb(204, 204, 204)" stroke-width="1px"></line><line x1="61.91500186920166" y1="59.28766632080079" x2="56.91500186920166" y2="59.28766632080079" style="visibility: inherit;" fill="rgb(0, 0, 0)" stroke="rgb(204, 204, 204)" stroke-width="1px"></line><line x1="61.91500186920166" y1="44.465749740600565" x2="56.91500186920166" y2="44.465749740600565" style="visibility: inherit;" fill="rgb(0, 0, 0)" stroke="rgb(204, 204, 204)" stroke-width="1px"></line><line x1="61.91500186920166" y1="29.643833160400423" x2="56.91500186920166" y2="29.643833160400423" style="visibility: inherit;" fill="rgb(0, 0, 0)" stroke="rgb(204, 204, 204)" stroke-width="1px"></line><line x1="61.91500186920166" y1="14.821916580200202" x2="56.91500186920166" y2="14.821916580200202" style="visibility: inherit;" fill="rgb(0, 0, 0)" stroke="rgb(204, 204, 204)" stroke-width="1px"></line><line x1="61.91500186920166" y1="0" x2="56.91500186920166" y2="0" style="visibility: inherit;" fill="rgb(0, 0, 0)" stroke="rgb(204, 204, 204)" stroke-width="1px"></line></g><g transform="translate(51.91500186920166, 0)"><text style="text-anchor: end; visibility: hidden; font-family: Roboto, sans-serif; font-size: 12px; font-weight: 200;" x="0" y="177.86299896240234" dx="0em" dy="0.3em" fill="rgb(50, 49, 63)" stroke="none" stroke-width="1px">6e-3</text><text style="text-anchor: end; visibility: inherit; font-family: Roboto, sans-serif; font-size: 12px; font-weight: 200;" x="0" y="163.04108238220215" dx="0em" dy="0.3em" fill="rgb(50, 49, 63)" stroke="none" stroke-width="1px">8e-3</text><text style="text-anchor: end; visibility: hidden; font-family: Roboto, sans-serif; font-size: 12px; font-weight: 200;" x="0" y="148.21916580200195" dx="0em" dy="0.3em" fill="rgb(50, 49, 63)" stroke="none" stroke-width="1px">0.01</text><text style="text-anchor: end; visibility: inherit; font-family: Roboto, sans-serif; font-size: 12px; font-weight: 200;" x="0" y="133.39724922180176" dx="0em" dy="0.3em" fill="rgb(50, 49, 63)" stroke="none" stroke-width="1px">0.012</text><text style="text-anchor: end; visibility: hidden; font-family: Roboto, sans-serif; font-size: 12px; font-weight: 200;" x="0" y="118.57533264160158" dx="0em" dy="0.3em" fill="rgb(50, 49, 63)" stroke="none" stroke-width="1px">0.014</text><text style="text-anchor: end; visibility: inherit; font-family: Roboto, sans-serif; font-size: 12px; font-weight: 200;" x="0" y="103.75341606140135" dx="0em" dy="0.3em" fill="rgb(50, 49, 63)" stroke="none" stroke-width="1px">0.016</text><text style="text-anchor: end; visibility: hidden; font-family: Roboto, sans-serif; font-size: 12px; font-weight: 200;" x="0" y="88.93149948120117" dx="0em" dy="0.3em" fill="rgb(50, 49, 63)" stroke="none" stroke-width="1px">0.018</text><text style="text-anchor: end; visibility: inherit; font-family: Roboto, sans-serif; font-size: 12px; font-weight: 200;" x="0" y="74.10958290100098" dx="0em" dy="0.3em" fill="rgb(50, 49, 63)" stroke="none" stroke-width="1px">0.02</text><text style="text-anchor: end; visibility: hidden; font-family: Roboto, sans-serif; font-size: 12px; font-weight: 200;" x="0" y="59.28766632080079" dx="0em" dy="0.3em" fill="rgb(50, 49, 63)" stroke="none" stroke-width="1px">0.022</text><text style="text-anchor: end; visibility: inherit; font-family: Roboto, sans-serif; font-size: 12px; font-weight: 200;" x="0" y="44.465749740600565" dx="0em" dy="0.3em" fill="rgb(50, 49, 63)" stroke="none" stroke-width="1px">0.024</text><text style="text-anchor: end; visibility: hidden; font-family: Roboto, sans-serif; font-size: 12px; font-weight: 200;" x="0" y="29.643833160400423" dx="0em" dy="0.3em" fill="rgb(50, 49, 63)" stroke="none" stroke-width="1px">0.026</text><text style="text-anchor: end; visibility: inherit; font-family: Roboto, sans-serif; font-size: 12px; font-weight: 200;" x="0" y="14.821916580200202" dx="0em" dy="0.3em" fill="rgb(50, 49, 63)" stroke="none" stroke-width="1px">0.028</text><text style="text-anchor: end; visibility: hidden; font-family: Roboto, sans-serif; font-size: 12px; font-weight: 200;" x="0" y="0" dx="0em" dy="0.3em" fill="rgb(50, 49, 63)" stroke="none" stroke-width="1px">0.03</text></g><line x1="61.91500186920166" y1="0" x2="61.91500186920166" y2="177.86299896240234" fill="rgb(0, 0, 0)" stroke="rgb(204, 204, 204)" stroke-width="1px"></line></g></g><g transform="translate(61, 0)" clip-path="url(#clip_0)"><clipPath id="clip_0"><rect width="268" height="177"></rect></clipPath><g><g><g><line x1="0" y1="0" x2="0" y2="177.86299896240234" fill="rgb(0, 0, 0)" stroke="rgb(60, 60, 60)" stroke-width="1px" opacity="0.25"></line><line x1="26.808499813079834" y1="0" x2="26.808499813079834" y2="177.86299896240234" fill="rgb(0, 0, 0)" stroke="rgb(60, 60, 60)" stroke-width="1px" opacity="0.25"></line><line x1="53.61699962615967" y1="0" x2="53.61699962615967" y2="177.86299896240234" fill="rgb(0, 0, 0)" stroke="rgb(60, 60, 60)" stroke-width="1px" opacity="0.25"></line><line x1="80.4254994392395" y1="0" x2="80.4254994392395" y2="177.86299896240234" fill="rgb(0, 0, 0)" stroke="rgb(60, 60, 60)" stroke-width="1px" opacity="0.25"></line><line x1="107.23399925231934" y1="0" x2="107.23399925231934" y2="177.86299896240234" fill="rgb(0, 0, 0)" stroke="rgb(60, 60, 60)" stroke-width="1px" opacity="0.25"></line><line x1="134.04249906539917" y1="0" x2="134.04249906539917" y2="177.86299896240234" fill="rgb(0, 0, 0)" stroke="rgb(60, 60, 60)" stroke-width="1px" opacity="0.25"></line><line x1="160.850998878479" y1="0" x2="160.850998878479" y2="177.86299896240234" fill="rgb(0, 0, 0)" stroke="rgb(60, 60, 60)" stroke-width="1px" opacity="0.25"></line><line x1="187.65949869155884" y1="0" x2="187.65949869155884" y2="177.86299896240234" fill="rgb(0, 0, 0)" stroke="rgb(60, 60, 60)" stroke-width="1px" opacity="0.25"></line><line x1="214.46799850463867" y1="0" x2="214.46799850463867" y2="177.86299896240234" fill="rgb(0, 0, 0)" stroke="rgb(60, 60, 60)" stroke-width="1px" opacity="0.25"></line><line x1="241.2764983177185" y1="0" x2="241.2764983177185" y2="177.86299896240234" fill="rgb(0, 0, 0)" stroke="rgb(60, 60, 60)" stroke-width="1px" opacity="0.25"></line><line x1="268.08499813079834" y1="0" x2="268.08499813079834" y2="177.86299896240234" fill="rgb(0, 0, 0)" stroke="rgb(60, 60, 60)" stroke-width="1px" opacity="0.25"></line></g><g><line x1="0" y1="177.86299896240234" x2="268.08499813079834" y2="177.86299896240234" fill="rgb(0, 0, 0)" stroke="rgb(60, 60, 60)" stroke-width="1px" opacity="0.25"></line><line x1="0" y1="163.04108238220215" x2="268.08499813079834" y2="163.04108238220215" fill="rgb(0, 0, 0)" stroke="rgb(60, 60, 60)" stroke-width="1px" opacity="0.25"></line><line x1="0" y1="148.21916580200195" x2="268.08499813079834" y2="148.21916580200195" fill="rgb(0, 0, 0)" stroke="rgb(60, 60, 60)" stroke-width="1px" opacity="0.25"></line><line x1="0" y1="133.39724922180176" x2="268.08499813079834" y2="133.39724922180176" fill="rgb(0, 0, 0)" stroke="rgb(60, 60, 60)" stroke-width="1px" opacity="0.25"></line><line x1="0" y1="118.57533264160158" x2="268.08499813079834" y2="118.57533264160158" fill="rgb(0, 0, 0)" stroke="rgb(60, 60, 60)" stroke-width="1px" opacity="0.25"></line><line x1="0" y1="103.75341606140135" x2="268.08499813079834" y2="103.75341606140135" fill="rgb(0, 0, 0)" stroke="rgb(60, 60, 60)" stroke-width="1px" opacity="0.25"></line><line x1="0" y1="88.93149948120117" x2="268.08499813079834" y2="88.93149948120117" fill="rgb(0, 0, 0)" stroke="rgb(60, 60, 60)" stroke-width="1px" opacity="0.25"></line><line x1="0" y1="74.10958290100098" x2="268.08499813079834" y2="74.10958290100098" fill="rgb(0, 0, 0)" stroke="rgb(60, 60, 60)" stroke-width="1px" opacity="0.25"></line><line x1="0" y1="59.28766632080079" x2="268.08499813079834" y2="59.28766632080079" fill="rgb(0, 0, 0)" stroke="rgb(60, 60, 60)" stroke-width="1px" opacity="0.25"></line><line x1="0" y1="44.465749740600565" x2="268.08499813079834" y2="44.465749740600565" fill="rgb(0, 0, 0)" stroke="rgb(60, 60, 60)" stroke-width="1px" opacity="0.25"></line><line x1="0" y1="29.643833160400423" x2="268.08499813079834" y2="29.643833160400423" fill="rgb(0, 0, 0)" stroke="rgb(60, 60, 60)" stroke-width="1px" opacity="0.25"></line><line x1="0" y1="14.821916580200202" x2="268.08499813079834" y2="14.821916580200202" fill="rgb(0, 0, 0)" stroke="rgb(60, 60, 60)" stroke-width="1px" opacity="0.25"></line><line x1="0" y1="0" x2="268.08499813079834" y2="0" fill="rgb(0, 0, 0)" stroke="rgb(60, 60, 60)" stroke-width="1px" opacity="0.25"></line></g></g></g><g><g><line x1="0" y1="222.32874870300293" x2="268.08499813079834" y2="222.32874870300293" fill="rgb(0, 0, 0)" stroke="rgb(153, 153, 153)" stroke-width="1.5px"></line></g></g><g><g><line x1="26.808499813079834" y1="0" x2="26.808499813079834" y2="177.86299896240234" fill="rgb(0, 0, 0)" stroke="rgb(153, 153, 153)" stroke-width="1.5px"></line></g></g><g><g><g><g><g><path style="fill: none;" stroke="rgb(255, 112, 67)" stroke-width="2px" d="M30.159562289714813,173.12186100657647L33.51062476634979,179.40743894559483L36.86168724298477,163.8741827001245L40.21274971961975,166.42251602406935L43.56381219625473,149.06511257860762L46.91487467288971,138.4739802991668L50.26593714952469,149.60335525533077L53.61699962615967,150.7587521712423L56.96806210279465,154.41806740229492L60.31912457942963,143.99082843445862L63.670187056064606,155.4429920636111L67.02124953269958,155.77986945237686L70.37231200933456,154.6097550234774L73.72337448596954,166.16114437096775L77.07443696260452,170.96969559013166L80.4254994392395,170.89071582816646L83.77656191587448,163.3302218192237L87.12762439250946,149.25524379759648L90.47868686914444,156.7294181879995L93.82974934577942,152.68521450464715L97.1808118224144,156.71341263315918L100.53187429904938,154.3554218020162L103.88293677568436,144.8918302729947L107.23399925231934,152.22909070043278L110.58506172895432,162.09147555990234L113.9361242055893,158.66705438943944L117.28718668222427,164.2120690494473L120.63824915885925,153.70755092090815L123.98931163549423,139.81041033699222L127.34037411212921,123.16141586367893L130.6914365887642,141.99822570860852L134.04249906539917,151.88502592062457L137.39356154203415,128.05312173526704L140.74462401866913,140.02241849310673L144.0956864953041,131.23095164915824L147.4467489719391,122.62983564869438L150.79781144857407,141.8238319164678L154.14887392520905,140.46205664527383L157.49993640184402,145.44319272524532L160.850998878479,133.8478338976321L164.20206135511398,148.85082977816387L167.55312383174896,135.8412502859306L170.90418630838394,153.53441789221313L174.25524878501892,139.77091742630262L177.6063112616539,147.2452442830755L180.95737373828888,147.78404291902766L184.30843621492386,154.20724256023033L187.65949869155884,155.49021697701485L191.01056116819382,160.3795222621369L194.3616236448288,164.59911233128034L197.71268612146378,140.76638321413438L201.06374859809875,141.50564960190115L204.41481107473373,153.26768796497888L207.7658735513687,165.59716793782584L211.1169360280037,152.29336257109316L214.46799850463867,139.94492566772922L217.81906098127365,133.71078699161836L221.17012345790863,142.84295648016544L224.5211859345436,151.94624333646203L227.8722484111786,155.2447112796303L231.22331088781357,154.20294718205687L234.57437336444855,166.23749898775083L237.92543584108353,166.20754174008243L241.2764983177185,158.28188113083553L244.62756079435349,135.1005908498125L247.97862327098846,148.76242721483123L251.32968574762344,160.06196097327617L254.68074822425842,149.70010598354236L258.0318107008934,120.0338922453959L261.3828731775284,146.31195173645727" fill="none"></path></g></g></g></g><g opacity="0.2"><g><g><g><path style="fill: none;" stroke="rgb(255, 112, 67)" stroke-width="2px" d="M30.159562289714813,173.12186100657647L33.51062476634979,183.17878570900584L36.86168724298477,148.962256704473L40.21274971961975,169.41935601302853L43.56381219625473,126.40328664021287L46.91487467288971,123.8226315490795L50.26593714952469,165.51853951264454L53.61699962615967,152.4433319664517L56.96806210279465,159.8148465827071L60.31912457942963,128.50759379935997L63.670187056064606,172.51736722610258L67.02124953269958,156.28335226365235L70.37231200933456,152.85840400675812L73.72337448596954,183.46559801794416L77.07443696260452,178.1768701474255L80.4254994392395,170.7723018878659L83.77656191587448,151.9926801534927L87.12762439250946,128.1463504005506L90.47868686914444,167.93954115836323L93.82974934577942,146.61927863585436L97.1808118224144,162.75548890996842L100.53187429904938,150.81851314599442L103.88293677568436,130.69662982156873L107.23399925231934,163.2348944247452L110.58506172895432,176.88498275149612L113.9361242055893,153.53043723733708L117.28718668222427,172.52957685128638L120.63824915885925,137.9507898550091L123.98931163549423,118.96471226234887L127.34037411212921,98.18793335535517L130.6914365887642,170.2534342295118L134.04249906539917,166.71522427150634L137.39356154203415,92.3052683022815L140.74462401866913,157.97636277253005L144.0956864953041,118.04375176106433L147.4467489719391,109.72816186978754L150.79781144857407,170.61482602116544L154.14887392520905,138.41939375112415L157.49993640184402,152.91489681745867L160.850998878479,116.45479569496257L164.20206135511398,171.35532356887865L167.55312383174896,116.32688106323224L170.90418630838394,180.07416928886514L174.25524878501892,119.1256667333979L177.6063112616539,158.45673456629254L180.95737373828888,148.59224087287186L184.30843621492386,163.8420420214334L187.65949869155884,157.4146786021197L191.01056116819382,167.7134801896553L194.3616236448288,170.92849743491027L197.71268612146378,105.0172895387044L201.06374859809875,142.61454918354593L204.41481107473373,170.91074550954414L207.7658735513687,184.09138789706395L211.1169360280037,132.33765452101503L214.46799850463867,121.42227031269496L217.81906098127365,124.35957897745557L221.17012345790863,156.54121071298303L224.5211859345436,165.60117362090503L227.8722484111786,160.19241319438228L231.22331088781357,152.64030103569687L234.57437336444855,184.2893266962912L237.92543584108353,166.16260586857982L241.2764983177185,146.39339021696534L244.62756079435349,100.32865542827822L247.97862327098846,169.25518176235923L251.32968574762344,177.01126161094354L254.68074822425842,134.15732349894165L258.0318107008934,75.53457163817626L261.3828731775284,185.72904097304934" fill="none"></path></g></g></g></g></g></g><g transform="translate(61, 177)" clip-path="url(#clip_1)"><clipPath id="clip_1"><rect width="268" height="22"></rect></clipPath><g><g><line x1="0" y1="0" x2="0" y2="5" style="visibility: inherit;" fill="rgb(0, 0, 0)" stroke="rgb(204, 204, 204)" stroke-width="1px"></line><line x1="26.808499813079834" y1="0" x2="26.808499813079834" y2="5" style="visibility: inherit;" fill="rgb(0, 0, 0)" stroke="rgb(204, 204, 204)" stroke-width="1px"></line><line x1="53.61699962615967" y1="0" x2="53.61699962615967" y2="5" style="visibility: inherit;" fill="rgb(0, 0, 0)" stroke="rgb(204, 204, 204)" stroke-width="1px"></line><line x1="80.4254994392395" y1="0" x2="80.4254994392395" y2="5" style="visibility: inherit;" fill="rgb(0, 0, 0)" stroke="rgb(204, 204, 204)" stroke-width="1px"></line><line x1="107.23399925231934" y1="0" x2="107.23399925231934" y2="5" style="visibility: inherit;" fill="rgb(0, 0, 0)" stroke="rgb(204, 204, 204)" stroke-width="1px"></line><line x1="134.04249906539917" y1="0" x2="134.04249906539917" y2="5" style="visibility: inherit;" fill="rgb(0, 0, 0)" stroke="rgb(204, 204, 204)" stroke-width="1px"></line><line x1="160.850998878479" y1="0" x2="160.850998878479" y2="5" style="visibility: inherit;" fill="rgb(0, 0, 0)" stroke="rgb(204, 204, 204)" stroke-width="1px"></line><line x1="187.65949869155884" y1="0" x2="187.65949869155884" y2="5" style="visibility: inherit;" fill="rgb(0, 0, 0)" stroke="rgb(204, 204, 204)" stroke-width="1px"></line><line x1="214.46799850463867" y1="0" x2="214.46799850463867" y2="5" style="visibility: inherit;" fill="rgb(0, 0, 0)" stroke="rgb(204, 204, 204)" stroke-width="1px"></line><line x1="241.2764983177185" y1="0" x2="241.2764983177185" y2="5" style="visibility: inherit;" fill="rgb(0, 0, 0)" stroke="rgb(204, 204, 204)" stroke-width="1px"></line><line x1="268.08499813079834" y1="0" x2="268.08499813079834" y2="5" style="visibility: inherit;" fill="rgb(0, 0, 0)" stroke="rgb(204, 204, 204)" stroke-width="1px"></line></g><g transform="translate(0, 8)"><text style="text-anchor: middle; visibility: hidden; font-family: Roboto, sans-serif; font-size: 12px; font-weight: 200;" x="0" y="0" dx="0em" dy="0.95em" fill="rgb(50, 49, 63)" stroke="none" stroke-width="1px">-200</text><text style="text-anchor: middle; visibility: inherit; font-family: Roboto, sans-serif; font-size: 12px; font-weight: 200;" x="26.808499813079834" y="0" dx="0em" dy="0.95em" fill="rgb(50, 49, 63)" stroke="none" stroke-width="1px">0</text><text style="text-anchor: middle; visibility: hidden; font-family: Roboto, sans-serif; font-size: 12px; font-weight: 200;" x="53.61699962615967" y="0" dx="0em" dy="0.95em" fill="rgb(50, 49, 63)" stroke="none" stroke-width="1px">200</text><text style="text-anchor: middle; visibility: inherit; font-family: Roboto, sans-serif; font-size: 12px; font-weight: 200;" x="80.4254994392395" y="0" dx="0em" dy="0.95em" fill="rgb(50, 49, 63)" stroke="none" stroke-width="1px">400</text><text style="text-anchor: middle; visibility: hidden; font-family: Roboto, sans-serif; font-size: 12px; font-weight: 200;" x="107.23399925231934" y="0" dx="0em" dy="0.95em" fill="rgb(50, 49, 63)" stroke="none" stroke-width="1px">600</text><text style="text-anchor: middle; visibility: inherit; font-family: Roboto, sans-serif; font-size: 12px; font-weight: 200;" x="134.04249906539917" y="0" dx="0em" dy="0.95em" fill="rgb(50, 49, 63)" stroke="none" stroke-width="1px">800</text><text style="text-anchor: middle; visibility: hidden; font-family: Roboto, sans-serif; font-size: 12px; font-weight: 200;" x="160.850998878479" y="0" dx="0em" dy="0.95em" fill="rgb(50, 49, 63)" stroke="none" stroke-width="1px">1k</text><text style="text-anchor: middle; visibility: inherit; font-family: Roboto, sans-serif; font-size: 12px; font-weight: 200;" x="187.65949869155884" y="0" dx="0em" dy="0.95em" fill="rgb(50, 49, 63)" stroke="none" stroke-width="1px">1.2k</text><text style="text-anchor: middle; visibility: hidden; font-family: Roboto, sans-serif; font-size: 12px; font-weight: 200;" x="214.46799850463867" y="0" dx="0em" dy="0.95em" fill="rgb(50, 49, 63)" stroke="none" stroke-width="1px">1.4k</text><text style="text-anchor: middle; visibility: inherit; font-family: Roboto, sans-serif; font-size: 12px; font-weight: 200;" x="241.2764983177185" y="0" dx="0em" dy="0.95em" fill="rgb(50, 49, 63)" stroke="none" stroke-width="1px">1.6k</text><text style="text-anchor: middle; visibility: hidden; font-family: Roboto, sans-serif; font-size: 12px; font-weight: 200;" x="268.08499813079834" y="0" dx="0em" dy="0.95em" fill="rgb(50, 49, 63)" stroke="none" stroke-width="1px">1.8k</text></g><line x1="0" y1="0" x2="268.08499813079834" y2="0" fill="rgb(0, 0, 0)" stroke="rgb(204, 204, 204)" stroke-width="1px"></line></g></g></g></g></svg>