<svg viewBox="0 0 330 200" xmlns="http://www.w3.org/2000/svg"><g><g><g><g><g><line x1="51.53200149536133" y1="168.36002994455367" x2="46.53200149536133" y2="168.36002994455367" style="visibility: inherit;" fill="rgb(0, 0, 0)" stroke="rgb(204, 204, 204)" stroke-width="1px"></line><line x1="51.53200149536133" y1="160.02852708886937" x2="46.53200149536133" y2="160.02852708886937" style="visibility: inherit;" fill="rgb(0, 0, 0)" stroke="rgb(204, 204, 204)" stroke-width="1px"></line><line x1="51.53200149536133" y1="152.81145104209875" x2="46.53200149536133" y2="152.81145104209875" style="visibility: inherit;" fill="rgb(0, 0, 0)" stroke="rgb(204, 204, 204)" stroke-width="1px"></line><line x1="51.53200149536133" y1="146.44553881244147" x2="46.53200149536133" y2="146.44553881244147" style="visibility: inherit;" fill="rgb(0, 0, 0)" stroke="rgb(204, 204, 204)" stroke-width="1px"></line><line x1="51.53200149536133" y1="140.75103627723868" x2="46.53200149536133" y2="140.75103627723868" style="visibility: inherit;" fill="rgb(0, 0, 0)" stroke="rgb(204, 204, 204)" stroke-width="1px"></line><line x1="51.53200149536133" y1="103.28796624267154" x2="46.53200149536133" y2="103.28796624267154" style="visibility: inherit;" fill="rgb(0, 0, 0)" stroke="rgb(204, 204, 204)" stroke-width="1px"></line><line x1="51.53200149536133" y1="81.37347511055933" x2="46.53200149536133" y2="81.37347511055933" style="visibility: inherit;" fill="rgb(0, 0, 0)" stroke="rgb(204, 204, 204)" stroke-width="1px"></line><line x1="51.53200149536133" y1="65.82489620810439" x2="46.53200149536133" y2="65.82489620810439" style="visibility: inherit;" fill="rgb(0, 0, 0)" stroke="rgb(204, 204, 204)" stroke-width="1px"></line><line x1="51.53200149536133" y1="53.76448144324436" x2="46.53200149536133" y2="53.76448144324436" style="visibility: inherit;" fill="rgb(0, 0, 0)" stroke="rgb(204, 204, 204)" stroke-width="1px"></line><line x1="51.53200149536133" y1="43.910405075992166" x2="46.53200149536133" y2="43.910405075992166" style="visibility: inherit;" fill="rgb(0, 0, 0)" stroke="rgb(204, 204, 204)" stroke-width="1px"></line><line x1="51.53200149536133" y1="35.57890222030788" x2="46.53200149536133" y2="35.57890222030788" style="visibility: inherit;" fill="rgb(0, 0, 0)" stroke="rgb(204, 204, 204)" stroke-width="1px"></line><line x1="51.53200149536133" y1="28.36182617353723" x2="46.53200149536133" y2="28.36182617353723" style="visibility: inherit;" fill="rgb(0, 0, 0)" stroke="rgb(204, 204, 204)" stroke-width="1px"></line><line x1="51.53200149536133" y1="21.99591394387998" x2="46.53200149536133" y2="21.99591394387998" style="visibility: inherit;" fill="rgb(0, 0, 0)" stroke="rgb(204, 204, 204)" stroke-width="1px"></line><line x1="51.53200149536133" y1="16.301411408677218" x2="46.53200149536133" y2="16.301411408677218" style="visibility: inherit;" fill="rgb(0, 0, 0)" stroke="rgb(204, 204, 204)" stroke-width="1px"></line></g><g transform="translate(41.53200149536133, 0)"><text style="text-anchor: end; visibility: inherit; font-family: Roboto, sans-serif; font-size: 12px; font-weight: 200;" x="0" y="168.36002994455367" dx="0em" dy="0.3em" fill="rgb(50, 49, 63)" stroke="none" stroke-width="1px">0.06</text><text style="text-anchor: end; visibility: hidden; font-family: Roboto, sans-serif; font-size: 12px; font-weight: 200;" x="0" y="160.02852708886937" dx="0em" dy="0.3em" fill="rgb(50, 49, 63)" stroke="none" stroke-width="1px">0.07</text><text style="text-anchor: end; visibility: hidden; font-family: Roboto, sans-serif; font-size: 12px; font-weight: 200;" x="0" y="152.81145104209875" dx="0em" dy="0.3em" fill="rgb(50, 49, 63)" stroke="none" stroke-width="1px">0.08</text><text style="text-anchor: end; visibility: hidden; font-family: Roboto, sans-serif; font-size: 12px; font-weight: 200;" x="0" y="146.44553881244147" dx="0em" dy="0.3em" fill="rgb(50, 49, 63)" stroke="none" stroke-width="1px">0.09</text><text style="text-anchor: end; visibility: inherit; font-family: Roboto, sans-serif; font-size: 12px; font-weight: 200;" x="0" y="140.75103627723868" dx="0em" dy="0.3em" fill="rgb(50, 49, 63)" stroke="none" stroke-width="1px">0.1</text><text style="text-anchor: end; visibility: hidden; font-family: Roboto, sans-serif; font-size: 12px; font-weight: 200;" x="0" y="103.28796624267154" dx="0em" dy="0.3em" fill="rgb(50, 49, 63)" stroke="none" stroke-width="1px">0.2</text><text style="text-anchor: end; visibility: hidden; font-family: Roboto, sans-serif; font-size: 12px; font-weight: 200;" x="0" y="81.37347511055933" dx="0em" dy="0.3em" fill="rgb(50, 49, 63)" stroke="none" stroke-width="1px">0.3</text><text style="text-anchor: end; visibility: hidden; font-family: Roboto, sans-serif; font-size: 12px; font-weight: 200;" x="0" y="65.82489620810439" dx="0em" dy="0.3em" fill="rgb(50, 49, 63)" stroke="none" stroke-width="1px">0.4</text><text style="text-anchor: end; visibility: inherit; font-family: Roboto, sans-serif; font-size: 12px; font-weight: 200;" x="0" y="53.76448144324436" dx="0em" dy="0.3em" fill="rgb(50, 49, 63)" stroke="none" stroke-width="1px">0.5</text><text style="text-anchor: end; visibility: hidden; font-family: Roboto, sans-serif; font-size: 12px; font-weight: 200;" x="0" y="43.910405075992166" dx="0em" dy="0.3em" fill="rgb(50, 49, 63)" stroke="none" stroke-width="1px">0.6</text><text style="text-anchor: end; visibility: hidden; font-family: Roboto, sans-serif; font-size: 12px; font-weight: 200;" x="0" y="35.57890222030788" dx="0em" dy="0.3em" fill="rgb(50, 49, 63)" stroke="none" stroke-width="1px">0.7</text><text style="text-anchor: end; visibility: hidden; font-family: Roboto, sans-serif; font-size: 12px; font-weight: 200;" x="0" y="28.36182617353723" dx="0em" dy="0.3em" fill="rgb(50, 49, 63)" stroke="none" stroke-width="1px">0.8</text><text style="text-anchor: end; visibility: inherit; font-family: Roboto, sans-serif; font-size: 12px; font-weight: 200;" x="0" y="21.99591394387998" dx="0em" dy="0.3em" fill="rgb(50, 49, 63)" stroke="none" stroke-width="1px">0.9</text><text style="text-anchor: end; visibility: hidden; font-family: Roboto, sans-serif; font-size: 12px; font-weight: 200;" x="0" y="16.301411408677218" dx="0em" dy="0.3em" fill="rgb(50, 49, 63)" stroke="none" stroke-width="1px">1</text></g><line x1="51.53200149536133" y1="0" x2="51.53200149536133" y2="177.86299896240234" fill="rgb(0, 0, 0)" stroke="rgb(204, 204, 204)" stroke-width="1px"></line></g></g><g transform="translate(51, 0)" clip-path="url(#clip_0)"><clipPath id="clip_0"><rect width="278" height="177"></rect></clipPath><g><g><g><line x1="0" y1="0" x2="0" y2="177.86299896240234" fill="rgb(0, 0, 0)" stroke="rgb(60, 60, 60)" stroke-width="1px" opacity="0.25"></line><line x1="27.846799850463867" y1="0" x2="27.846799850463867" y2="177.86299896240234" fill="rgb(0, 0, 0)" stroke="rgb(60, 60, 60)" stroke-width="1px" opacity="0.25"></line><line x1="55.693599700927734" y1="0" x2="55.693599700927734" y2="177.86299896240234" fill="rgb(0, 0, 0)" stroke="rgb(60, 60, 60)" stroke-width="1px" opacity="0.25"></line><line x1="83.5403995513916" y1="0" x2="83.5403995513916" y2="177.86299896240234" fill="rgb(0, 0, 0)" stroke="rgb(60, 60, 60)" stroke-width="1px" opacity="0.25"></line><line x1="111.38719940185547" y1="0" x2="111.38719940185547" y2="177.86299896240234" fill="rgb(0, 0, 0)" stroke="rgb(60, 60, 60)" stroke-width="1px" opacity="0.25"></line><line x1="139.23399925231934" y1="0" x2="139.23399925231934" y2="177.86299896240234" fill="rgb(0, 0, 0)" stroke="rgb(60, 60, 60)" stroke-width="1px" opacity="0.25"></line><line x1="167.0807991027832" y1="0" x2="167.0807991027832" y2="177.86299896240234" fill="rgb(0, 0, 0)" stroke="rgb(60, 60, 60)" stroke-width="1px" opacity="0.25"></line><line x1="194.92759895324707" y1="0" x2="194.92759895324707" y2="177.86299896240234" fill="rgb(0, 0, 0)" stroke="rgb(60, 60, 60)" stroke-width="1px" opacity="0.25"></line><line x1="222.77439880371094" y1="0" x2="222.77439880371094" y2="177.86299896240234" fill="rgb(0, 0, 0)" stroke="rgb(60, 60, 60)" stroke-width="1px" opacity="0.25"></line><line x1="250.6211986541748" y1="0" x2="250.6211986541748" y2="177.86299896240234" fill="rgb(0, 0, 0)" stroke="rgb(60, 60, 60)" stroke-width="1px" opacity="0.25"></line><line x1="278.4679985046387" y1="0" x2="278.4679985046387" y2="177.86299896240234" fill="rgb(0, 0, 0)" stroke="rgb(60, 60, 60)" stroke-width="1px" opacity="0.25"></line></g><g><line x1="0" y1="168.36002994455367" x2="278.4679985046387" y2="168.36002994455367" fill="rgb(0, 0, 0)" stroke="rgb(60, 60, 60)" stroke-width="1px" opacity="0.25"></line><line x1="0" y1="160.02852708886937" x2="278.4679985046387" y2="160.02852708886937" fill="rgb(0, 0, 0)" stroke="rgb(60, 60, 60)" stroke-width="1px" opacity="0.25"></line><line x1="0" y1="152.81145104209875" x2="278.4679985046387" y2="152.81145104209875" fill="rgb(0, 0, 0)" stroke="rgb(60, 60, 60)" stroke-width="1px" opacity="0.25"></line><line x1="0" y1="146.44553881244147" x2="278.4679985046387" y2="146.44553881244147" fill="rgb(0, 0, 0)" stroke="rgb(60, 60, 60)" stroke-width="1px" opacity="0.25"></line><line x1="0" y1="140.75103627723868" x2="278.4679985046387" y2="140.75103627723868" fill="rgb(0, 0, 0)" stroke="rgb(60, 60, 60)" stroke-width="1px" opacity="0.25"></line><line x1="0" y1="103.28796624267154" x2="278.4679985046387" y2="103.28796624267154" fill="rgb(0, 0, 0)" stroke="rgb(60, 60, 60)" stroke-width="1px" opacity="0.25"></line><line x1="0" y1="81.37347511055933" x2="278.4679985046387" y2="81.37347511055933" fill="rgb(0, 0, 0)" stroke="rgb(60, 60, 60)" stroke-width="1px" opacity="0.25"></line><line x1="0" y1="65.82489620810439" x2="278.4679985046387" y2="65.82489620810439" fill="rgb(0, 0, 0)" stroke="rgb(60, 60, 60)" stroke-width="1px" opacity="0.25"></line><line x1="0" y1="53.76448144324436" x2="278.4679985046387" y2="53.76448144324436" fill="rgb(0, 0, 0)" stroke="rgb(60, 60, 60)" stroke-width="1px" opacity="0.25"></line><line x1="0" y1="43.910405075992166" x2="278.4679985046387" y2="43.910405075992166" fill="rgb(0, 0, 0)" stroke="rgb(60, 60, 60)" stroke-width="1px" opacity="0.25"></line><line x1="0" y1="35.57890222030788" x2="278.4679985046387" y2="35.57890222030788" fill="rgb(0, 0, 0)" stroke="rgb(60, 60, 60)" stroke-width="1px" opacity="0.25"></line><line x1="0" y1="28.36182617353723" x2="278.4679985046387" y2="28.36182617353723" fill="rgb(0, 0, 0)" stroke="rgb(60, 60, 60)" stroke-width="1px" opacity="0.25"></line><line x1="0" y1="21.99591394387998" x2="278.4679985046387" y2="21.99591394387998" fill="rgb(0, 0, 0)" stroke="rgb(60, 60, 60)" stroke-width="1px" opacity="0.25"></line><line x1="0" y1="16.301411408677218" x2="278.4679985046387" y2="16.301411408677218" fill="rgb(0, 0, 0)" stroke="rgb(60, 60, 60)" stroke-width="1px" opacity="0.25"></line></g></g></g><g><g><line x1="27.846799850463867" y1="0" x2="27.846799850463867" y2="177.86299896240234" fill="rgb(0, 0, 0)" stroke="rgb(153, 153, 153)" stroke-width="1.5px"></line></g></g><g><g><g><g><g><path style="fill: none;" stroke="rgb(255, 112, 67)" stroke-width="2px" d="M31.32764983177185,121.26183139774028L34.808499813079834,118.53587940820557L38.28934979438782,119.73329959076531L41.7701997756958,112.49717059018901L45.251049757003784,132.52963364823873L48.73189973831177,73.34799891178218L52.21274971961975,91.7807772940574L55.693599700927734,109.73025807973157L59.17444968223572,62.917986327745616L62.6552996635437,81.92039738432365L66.13614964485168,68.56495561391397L69.61699962615967,91.29814751005922L73.09784960746765,90.75965841060925L76.57869958877563,71.38477933354105L80.05954957008362,94.55688854472496L83.5403995513916,114.63292656990936L87.02124953269958,130.27472836557084L90.50209951400757,67.40475401794481L93.98294949531555,70.7109982872344L97.46379947662354,81.44574148248827L100.94464945793152,94.71038380656019L104.4254994392395,83.46392672380398L107.90634942054749,82.33851860598207L111.38719940185547,75.45526006010132L114.86804938316345,75.24047614544239L118.34889936447144,97.48209356205453L121.82974934577942,120.44729191884339L125.3105993270874,59.08762955917874L128.79144930839539,82.94345473839559L132.27229928970337,108.74735477042896L135.75314927101135,59.47069118700744L139.23399925231934,54.27929798885223L142.71484923362732,67.85945116797639L146.1956992149353,77.19646262081487L149.6765491962433,45.954477518376756L153.15739917755127,67.26461224643515L156.63824915885925,49.78249435008404L160.11909914016724,50.64155890488517L163.59994912147522,72.93165043817204L167.0807991027832,88.66060608537636L170.5616490840912,88.29397555060201L174.04249906539917,96.6745341606987L177.52334904670715,82.5333394732044L181.00419902801514,104.7714673774416L184.48504900932312,94.15221850918802L187.9658989906311,81.04966335406348L191.4467489719391,104.6154364570102L194.92759895324707,127.16612743354091L198.40844893455505,133.80323859786336L201.88929891586304,151.4038357886389L205.37014889717102,155.4292940655399L208.850998878479,99.03061762113315L212.331848859787,102.72249145887834L215.81269884109497,91.15419384112785L219.29354882240295,82.24603735167642L222.77439880371094,65.1177948163785L226.25524878501892,77.7850904192572L229.7360987663269,75.98465377914333L233.2169487476349,72.9180628482439L236.69779872894287,63.81429201009634L240.17864871025085,68.39615216893407L243.65949869155884,67.35075632180659L247.14034867286682,73.74772310241624L250.6211986541748,87.36947240415984L254.1020486354828,92.08650224983558L257.58289861679077,55.852418370605484L261.06374859809875,76.80069402990834L264.54459857940674,68.88493376082734L268.0254485607147,60.69596078101971L271.5062985420227,55.095928958380924" fill="none"></path></g></g></g></g><g opacity="0.2"><g><g><g><path style="fill: none;" stroke="rgb(255, 112, 67)" stroke-width="2px" d="M31.32764983177185,121.26183139774028L34.808499813079834,116.9639514872349L38.28934979438782,120.90833219005496L41.7701997756958,105.06743844851009L45.251049757003784,180.1649691771611L48.73189973831177,38.07535425745692L52.21274971961975,138.81984687595644L55.693599700927734,155.88900738237376L59.17444968223572,29.536200930718596L62.6552996635437,135.0199993941414L66.13614964485168,53.297122641663925L69.61699962615967,173.50223935016342L73.09784960746765,89.96357649477322L76.57869958877563,51.25415397816578L80.05954957008362,182.1792696546805L83.5403995513916,175.2850295195608L87.02124953269958,168.09684896902974L90.50209951400757,29.107381432876085L93.98294949531555,76.0830182755935L97.46379947662354,103.0543606484165L100.94464945793152,123.89418165395726L104.4254994392395,70.04636340163154L107.90634942054749,80.69318233885687L111.38719940185547,66.53857006761955L114.86804938316345,74.91989375117869L118.34889936447144,175.4445407899512L121.82974934577942,205.88018205461606L125.3105993270874,21.140215251737683L128.79144930839539,179.44546725485066L132.27229928970337,243.84594650715886L135.75314927101135,24.85809406866542L139.23399925231934,47.32212057841018L142.71484923362732,98.09587457538962L146.1956992149353,95.16663572875986L149.6765491962433,18.610712160719267L153.15739917755127,137.03568965509626L156.63824915885925,31.03867420997877L160.11909914016724,51.95631335977175L163.59994912147522,151.3610923150751L167.0807991027832,126.85126374592568L170.5616490840912,87.748651151904L174.04249906539917,112.33774992498233L177.52334904670715,66.50101488224311L181.00419902801514,182.70100005666737L184.48504900932312,81.33731299807206L187.9658989906311,65.92499545101188L191.4467489719391,197.23751828534435L194.92759895324707,208.1824952562508L198.40844893455505,145.59333174306482L201.88929891586304,197.95592259541385L205.37014889717102,162.09237703183777L208.850998878479,62.33864859440631L212.331848859787,108.78105128283757L215.81269884109497,77.43226012446087L219.29354882240295,71.14839287218945L222.77439880371094,46.64710604818805L226.25524878501892,105.0503783290519L229.7360987663269,73.39169138480452L233.2169487476349,68.6216239029089L236.69779872894287,52.51474551926384L240.17864871025085,76.09138788960402L243.65949869155884,65.81962448201979L247.14034867286682,85.03472590488398L250.6211986541748,117.74649046038118L254.1020486354828,100.03712010942388L257.58289861679077,26.1418097332948L261.06374859809875,143.73004504145726L264.54459857940674,58.83494295799235L268.0254485607147,50.35358298113769L271.5062985420227,47.653217009630765" fill="none"></path></g></g></g></g></g></g><g transform="translate(51, 177)" clip-path="url(#clip_1)"><clipPath id="clip_1"><rect width="278" height="22"></rect></clipPath><g><g><line x1="0" y1="0" x2="0" y2="5" style="visibility: inherit;" fill="rgb(0, 0, 0)" stroke="rgb(204, 204, 204)" stroke-width="1px"></line><line x1="27.846799850463867" y1="0" x2="27.846799850463867" y2="5" style="visibility: inherit;" fill="rgb(0, 0, 0)" stroke="rgb(204, 204, 204)" stroke-width="1px"></line><line x1="55.693599700927734" y1="0" x2="55.693599700927734" y2="5" style="visibility: inherit;" fill="rgb(0, 0, 0)" stroke="rgb(204, 204, 204)" stroke-width="1px"></line><line x1="83.5403995513916" y1="0" x2="83.5403995513916" y2="5" style="visibility: inherit;" fill="rgb(0, 0, 0)" stroke="rgb(204, 204, 204)" stroke-width="1px"></line><line x1="111.38719940185547" y1="0" x2="111.38719940185547" y2="5" style="visibility: inherit;" fill="rgb(0, 0, 0)" stroke="rgb(204, 204, 204)" stroke-width="1px"></line><line x1="139.23399925231934" y1="0" x2="139.23399925231934" y2="5" style="visibility: inherit;" fill="rgb(0, 0, 0)" stroke="rgb(204, 204, 204)" stroke-width="1px"></line><line x1="167.0807991027832" y1="0" x2="167.0807991027832" y2="5" style="visibility: inherit;" fill="rgb(0, 0, 0)" stroke="rgb(204, 204, 204)" stroke-width="1px"></line><line x1="194.92759895324707" y1="0" x2="194.92759895324707" y2="5" style="visibility: inherit;" fill="rgb(0, 0, 0)" stroke="rgb(204, 204, 204)" stroke-width="1px"></line><line x1="222.77439880371094" y1="0" x2="222.77439880371094" y2="5" style="visibility: inherit;" fill="rgb(0, 0, 0)" stroke="rgb(204, 204, 204)" stroke-width="1px"></line><line x1="250.6211986541748" y1="0" x2="250.6211986541748" y2="5" style="visibility: inherit;" fill="rgb(0, 0, 0)" stroke="rgb(204, 204, 204)" stroke-width="1px"></line><line x1="278.4679985046387" y1="0" x2="278.4679985046387" y2="5" style="visibility: inherit;" fill="rgb(0, 0, 0)" stroke="rgb(204, 204, 204)" stroke-width="1px"></line></g><g transform="translate(0, 8)"><text style="text-anchor: middle; visibility: hidden; font-family: Roboto, sans-serif; font-size: 12px; font-weight: 200;" x="0" y="0" dx="0em" dy="0.95em" fill="rgb(50, 49, 63)" stroke="none" stroke-width="1px">-200</text><text style="text-anchor: middle; visibility: inherit; font-family: Roboto, sans-serif; font-size: 12px; font-weight: 200;" x="27.846799850463867" y="0" dx="0em" dy="0.95em" fill="rgb(50, 49, 63)" stroke="none" stroke-width="1px">0</text><text style="text-anchor: middle; visibility: hidden; font-family: Roboto, sans-serif; font-size: 12px; font-weight: 200;" x="55.693599700927734" y="0" dx="0em" dy="0.95em" fill="rgb(50, 49, 63)" stroke="none" stroke-width="1px">200</text><text style="text-anchor: middle; visibility: inherit; font-family: Roboto, sans-serif; font-size: 12px; font-weight: 200;" x="83.5403995513916" y="0" dx="0em" dy="0.95em" fill="rgb(50, 49, 63)" stroke="none" stroke-width="1px">400</text><text style="text-anchor: middle; visibility: hidden; font-family: Roboto, sans-serif; font-size: 12px; font-weight: 200;" x="111.38719940185547" y="0" dx="0em" dy="0.95em" fill="rgb(50, 49, 63)" stroke="none" stroke-width="1px">600</text><text style="text-anchor: middle; visibility: inherit; font-family: Roboto, sans-serif; font-size: 12px; font-weight: 200;" x="139.23399925231934" y="0" dx="0em" dy="0.95em" fill="rgb(50, 49, 63)" stroke="none" stroke-width="1px">800</text><text style="text-anchor: middle; visibility: hidden; font-family: Roboto, sans-serif; font-size: 12px; font-weight: 200;" x="167.0807991027832" y="0" dx="0em" dy="0.95em" fill="rgb(50, 49, 63)" stroke="none" stroke-width="1px">1k</text><text style="text-anchor: middle; visibility: inherit; font-family: Roboto, sans-serif; font-size: 12px; font-weight: 200;" x="194.92759895324707" y="0" dx="0em" dy="0.95em" fill="rgb(50, 49, 63)" stroke="none" stroke-width="1px">1.2k</text><text style="text-anchor: middle; visibility: hidden; font-family: Roboto, sans-serif; font-size: 12px; font-weight: 200;" x="222.77439880371094" y="0" dx="0em" dy="0.95em" fill="rgb(50, 49, 63)" stroke="none" stroke-width="1px">1.4k</text><text style="text-anchor: middle; visibility: inherit; font-family: Roboto, sans-serif; font-size: 12px; font-weight: 200;" x="250.6211986541748" y="0" dx="0em" dy="0.95em" fill="rgb(50, 49, 63)" stroke="none" stroke-width="1px">1.6k</text><text style="text-anchor: middle; visibility: hidden; font-family: Roboto, sans-serif; font-size: 12px; font-weight: 200;" x="278.4679985046387" y="0" dx="0em" dy="0.95em" fill="rgb(50, 49, 63)" stroke="none" stroke-width="1px">1.8k</text></g><line x1="0" y1="0" x2="278.4679985046387" y2="0" fill="rgb(0, 0, 0)" stroke="rgb(204, 204, 204)" stroke-width="1px"></line></g></g></g></g></svg>