<svg viewBox="0 0 330 200" xmlns="http://www.w3.org/2000/svg"><g><g><g><g><g><line x1="61.91500186920166" y1="177.86299896240234" x2="56.91500186920166" y2="177.86299896240234" style="visibility: inherit;" fill="rgb(0, 0, 0)" stroke="rgb(204, 204, 204)" stroke-width="1px"></line><line x1="61.91500186920166" y1="163.04108238220212" x2="56.91500186920166" y2="163.04108238220212" style="visibility: inherit;" fill="rgb(0, 0, 0)" stroke="rgb(204, 204, 204)" stroke-width="1px"></line><line x1="61.91500186920166" y1="148.219165802002" x2="56.91500186920166" y2="148.219165802002" style="visibility: inherit;" fill="rgb(0, 0, 0)" stroke="rgb(204, 204, 204)" stroke-width="1px"></line><line x1="61.91500186920166" y1="133.3972492218018" x2="56.91500186920166" y2="133.3972492218018" style="visibility: inherit;" fill="rgb(0, 0, 0)" stroke="rgb(204, 204, 204)" stroke-width="1px"></line><line x1="61.91500186920166" y1="118.57533264160159" x2="56.91500186920166" y2="118.57533264160159" style="visibility: inherit;" fill="rgb(0, 0, 0)" stroke="rgb(204, 204, 204)" stroke-width="1px"></line><line x1="61.91500186920166" y1="103.7534160614014" x2="56.91500186920166" y2="103.7534160614014" style="visibility: inherit;" fill="rgb(0, 0, 0)" stroke="rgb(204, 204, 204)" stroke-width="1px"></line><line x1="61.91500186920166" y1="88.93149948120117" x2="56.91500186920166" y2="88.93149948120117" style="visibility: inherit;" fill="rgb(0, 0, 0)" stroke="rgb(204, 204, 204)" stroke-width="1px"></line><line x1="61.91500186920166" y1="74.10958290100095" x2="56.91500186920166" y2="74.10958290100095" style="visibility: inherit;" fill="rgb(0, 0, 0)" stroke="rgb(204, 204, 204)" stroke-width="1px"></line><line x1="61.91500186920166" y1="59.287666320800746" x2="56.91500186920166" y2="59.287666320800746" style="visibility: inherit;" fill="rgb(0, 0, 0)" stroke="rgb(204, 204, 204)" stroke-width="1px"></line><line x1="61.91500186920166" y1="44.46574974060053" x2="56.91500186920166" y2="44.46574974060053" style="visibility: inherit;" fill="rgb(0, 0, 0)" stroke="rgb(204, 204, 204)" stroke-width="1px"></line><line x1="61.91500186920166" y1="29.643833160400423" x2="56.91500186920166" y2="29.643833160400423" style="visibility: inherit;" fill="rgb(0, 0, 0)" stroke="rgb(204, 204, 204)" stroke-width="1px"></line><line x1="61.91500186920166" y1="14.821916580200222" x2="56.91500186920166" y2="14.821916580200222" style="visibility: inherit;" fill="rgb(0, 0, 0)" stroke="rgb(204, 204, 204)" stroke-width="1px"></line><line x1="61.91500186920166" y1="0" x2="56.91500186920166" y2="0" style="visibility: inherit;" fill="rgb(0, 0, 0)" stroke="rgb(204, 204, 204)" stroke-width="1px"></line></g><g transform="translate(51.91500186920166, 0)"><text style="text-anchor: end; visibility: hidden; font-family: Roboto, sans-serif; font-size: 12px; font-weight: 200;" x="0" y="177.86299896240234" dx="0em" dy="0.3em" fill="rgb(50, 49, 63)" stroke="none" stroke-width="1px">0.082</text><text style="text-anchor: end; visibility: inherit; font-family: Roboto, sans-serif; font-size: 12px; font-weight: 200;" x="0" y="163.04108238220212" dx="0em" dy="0.3em" fill="rgb(50, 49, 63)" stroke="none" stroke-width="1px">0.084</text><text style="text-anchor: end; visibility: hidden; font-family: Roboto, sans-serif; font-size: 12px; font-weight: 200;" x="0" y="148.219165802002" dx="0em" dy="0.3em" fill="rgb(50, 49, 63)" stroke="none" stroke-width="1px">0.086</text><text style="text-anchor: end; visibility: inherit; font-family: Roboto, sans-serif; font-size: 12px; font-weight: 200;" x="0" y="133.3972492218018" dx="0em" dy="0.3em" fill="rgb(50, 49, 63)" stroke="none" stroke-width="1px">0.088</text><text style="text-anchor: end; visibility: hidden; font-family: Roboto, sans-serif; font-size: 12px; font-weight: 200;" x="0" y="118.57533264160159" dx="0em" dy="0.3em" fill="rgb(50, 49, 63)" stroke="none" stroke-width="1px">0.09</text><text style="text-anchor: end; visibility: inherit; font-family: Roboto, sans-serif; font-size: 12px; font-weight: 200;" x="0" y="103.7534160614014" dx="0em" dy="0.3em" fill="rgb(50, 49, 63)" stroke="none" stroke-width="1px">0.092</text><text style="text-anchor: end; visibility: hidden; font-family: Roboto, sans-serif; font-size: 12px; font-weight: 200;" x="0" y="88.93149948120117" dx="0em" dy="0.3em" fill="rgb(50, 49, 63)" stroke="none" stroke-width="1px">0.094</text><text style="text-anchor: end; visibility: inherit; font-family: Roboto, sans-serif; font-size: 12px; font-weight: 200;" x="0" y="74.10958290100095" dx="0em" dy="0.3em" fill="rgb(50, 49, 63)" stroke="none" stroke-width="1px">0.096</text><text style="text-anchor: end; visibility: hidden; font-family: Roboto, sans-serif; font-size: 12px; font-weight: 200;" x="0" y="59.287666320800746" dx="0em" dy="0.3em" fill="rgb(50, 49, 63)" stroke="none" stroke-width="1px">0.098</text><text style="text-anchor: end; visibility: inherit; font-family: Roboto, sans-serif; font-size: 12px; font-weight: 200;" x="0" y="44.46574974060053" dx="0em" dy="0.3em" fill="rgb(50, 49, 63)" stroke="none" stroke-width="1px">0.1</text><text style="text-anchor: end; visibility: hidden; font-family: Roboto, sans-serif; font-size: 12px; font-weight: 200;" x="0" y="29.643833160400423" dx="0em" dy="0.3em" fill="rgb(50, 49, 63)" stroke="none" stroke-width="1px">0.102</text><text style="text-anchor: end; visibility: inherit; font-family: Roboto, sans-serif; font-size: 12px; font-weight: 200;" x="0" y="14.821916580200222" dx="0em" dy="0.3em" fill="rgb(50, 49, 63)" stroke="none" stroke-width="1px">0.104</text><text style="text-anchor: end; visibility: hidden; font-family: Roboto, sans-serif; font-size: 12px; font-weight: 200;" x="0" y="0" dx="0em" dy="0.3em" fill="rgb(50, 49, 63)" stroke="none" stroke-width="1px">0.106</text></g><line x1="61.91500186920166" y1="0" x2="61.91500186920166" y2="177.86299896240234" fill="rgb(0, 0, 0)" stroke="rgb(204, 204, 204)" stroke-width="1px"></line></g></g><g transform="translate(61, 0)" clip-path="url(#clip_0)"><clipPath id="clip_0"><rect width="268" height="177"></rect></clipPath><g><g><g><line x1="0" y1="0" x2="0" y2="177.86299896240234" fill="rgb(0, 0, 0)" stroke="rgb(60, 60, 60)" stroke-width="1px" opacity="0.25"></line><line x1="26.808499813079834" y1="0" x2="26.808499813079834" y2="177.86299896240234" fill="rgb(0, 0, 0)" stroke="rgb(60, 60, 60)" stroke-width="1px" opacity="0.25"></line><line x1="53.61699962615967" y1="0" x2="53.61699962615967" y2="177.86299896240234" fill="rgb(0, 0, 0)" stroke="rgb(60, 60, 60)" stroke-width="1px" opacity="0.25"></line><line x1="80.4254994392395" y1="0" x2="80.4254994392395" y2="177.86299896240234" fill="rgb(0, 0, 0)" stroke="rgb(60, 60, 60)" stroke-width="1px" opacity="0.25"></line><line x1="107.23399925231934" y1="0" x2="107.23399925231934" y2="177.86299896240234" fill="rgb(0, 0, 0)" stroke="rgb(60, 60, 60)" stroke-width="1px" opacity="0.25"></line><line x1="134.04249906539917" y1="0" x2="134.04249906539917" y2="177.86299896240234" fill="rgb(0, 0, 0)" stroke="rgb(60, 60, 60)" stroke-width="1px" opacity="0.25"></line><line x1="160.850998878479" y1="0" x2="160.850998878479" y2="177.86299896240234" fill="rgb(0, 0, 0)" stroke="rgb(60, 60, 60)" stroke-width="1px" opacity="0.25"></line><line x1="187.65949869155884" y1="0" x2="187.65949869155884" y2="177.86299896240234" fill="rgb(0, 0, 0)" stroke="rgb(60, 60, 60)" stroke-width="1px" opacity="0.25"></line><line x1="214.46799850463867" y1="0" x2="214.46799850463867" y2="177.86299896240234" fill="rgb(0, 0, 0)" stroke="rgb(60, 60, 60)" stroke-width="1px" opacity="0.25"></line><line x1="241.2764983177185" y1="0" x2="241.2764983177185" y2="177.86299896240234" fill="rgb(0, 0, 0)" stroke="rgb(60, 60, 60)" stroke-width="1px" opacity="0.25"></line><line x1="268.08499813079834" y1="0" x2="268.08499813079834" y2="177.86299896240234" fill="rgb(0, 0, 0)" stroke="rgb(60, 60, 60)" stroke-width="1px" opacity="0.25"></line></g><g><line x1="0" y1="177.86299896240234" x2="268.08499813079834" y2="177.86299896240234" fill="rgb(0, 0, 0)" stroke="rgb(60, 60, 60)" stroke-width="1px" opacity="0.25"></line><line x1="0" y1="163.04108238220212" x2="268.08499813079834" y2="163.04108238220212" fill="rgb(0, 0, 0)" stroke="rgb(60, 60, 60)" stroke-width="1px" opacity="0.25"></line><line x1="0" y1="148.219165802002" x2="268.08499813079834" y2="148.219165802002" fill="rgb(0, 0, 0)" stroke="rgb(60, 60, 60)" stroke-width="1px" opacity="0.25"></line><line x1="0" y1="133.3972492218018" x2="268.08499813079834" y2="133.3972492218018" fill="rgb(0, 0, 0)" stroke="rgb(60, 60, 60)" stroke-width="1px" opacity="0.25"></line><line x1="0" y1="118.57533264160159" x2="268.08499813079834" y2="118.57533264160159" fill="rgb(0, 0, 0)" stroke="rgb(60, 60, 60)" stroke-width="1px" opacity="0.25"></line><line x1="0" y1="103.7534160614014" x2="268.08499813079834" y2="103.7534160614014" fill="rgb(0, 0, 0)" stroke="rgb(60, 60, 60)" stroke-width="1px" opacity="0.25"></line><line x1="0" y1="88.93149948120117" x2="268.08499813079834" y2="88.93149948120117" fill="rgb(0, 0, 0)" stroke="rgb(60, 60, 60)" stroke-width="1px" opacity="0.25"></line><line x1="0" y1="74.10958290100095" x2="268.08499813079834" y2="74.10958290100095" fill="rgb(0, 0, 0)" stroke="rgb(60, 60, 60)" stroke-width="1px" opacity="0.25"></line><line x1="0" y1="59.287666320800746" x2="268.08499813079834" y2="59.287666320800746" fill="rgb(0, 0, 0)" stroke="rgb(60, 60, 60)" stroke-width="1px" opacity="0.25"></line><line x1="0" y1="44.46574974060053" x2="268.08499813079834" y2="44.46574974060053" fill="rgb(0, 0, 0)" stroke="rgb(60, 60, 60)" stroke-width="1px" opacity="0.25"></line><line x1="0" y1="29.643833160400423" x2="268.08499813079834" y2="29.643833160400423" fill="rgb(0, 0, 0)" stroke="rgb(60, 60, 60)" stroke-width="1px" opacity="0.25"></line><line x1="0" y1="14.821916580200222" x2="268.08499813079834" y2="14.821916580200222" fill="rgb(0, 0, 0)" stroke="rgb(60, 60, 60)" stroke-width="1px" opacity="0.25"></line><line x1="0" y1="0" x2="268.08499813079834" y2="0" fill="rgb(0, 0, 0)" stroke="rgb(60, 60, 60)" stroke-width="1px" opacity="0.25"></line></g></g></g><g><g><line x1="0" y1="785.5615787506106" x2="268.08499813079834" y2="785.5615787506106" fill="rgb(0, 0, 0)" stroke="rgb(153, 153, 153)" stroke-width="1.5px"></line></g></g><g><g><line x1="26.808499813079834" y1="0" x2="26.808499813079834" y2="177.86299896240234" fill="rgb(0, 0, 0)" stroke="rgb(153, 153, 153)" stroke-width="1.5px"></line></g></g><g><g><g><g><g><path style="fill: none;" stroke="rgb(255, 112, 67)" stroke-width="2px" d="M36.86168724298477,196.29512456487197L40.21274971961975,176.5326077467259L43.56381219625473,89.22005309008864L46.91487467288971,82.50065364725342L50.26593714952469,83.30924662075158L53.61699962615967,81.52409010601306L56.96806210279465,86.09115020684442L60.31912457942963,5.900891403955112L63.670187056064606,115.42084848726762L67.02124953269958,111.68489955418643L70.37231200933456,112.43184616586713L73.72337448596954,133.71320791185966L77.07443696260452,125.53660505000875L80.4254994392395,123.24864854239702L83.77656191587448,85.16291273874869L87.12762439250946,37.309667064202834L90.47868686914444,97.65028965254245L93.82974934577942,96.06471558013577L97.1808118224144,91.66852047663372L100.53187429904938,32.15769625998265L103.88293677568436,-40.622472660010644L107.23399925231934,42.48842821593322L110.58506172895432,80.99192820259539L113.9361242055893,41.893535051858116L117.28718668222427,85.56356877914483L120.63824915885925,71.56380220950952L123.98931163549423,-51.64960656662956L130.6914365887642,-11.198285626435366L134.04249906539917,48.69577861997122L137.39356154203415,-59.61617256896313L140.74462401866913,55.65977570487413L144.0956864953041,-11.975115776960768L147.4467489719391,-83.98229200412925L150.79781144857407,24.06652204891629L154.14887392520905,-49.65892318011144L160.850998878479,-99.55152362267323L164.20206135511398,4.942837855461847L167.55312383174896,-33.061215988896215L170.90418630838394,62.93208169598117L174.25524878501892,-61.469206303146066L177.6063112616539,16.13046660777319L180.95737373828888,48.63390381019768L184.30843621492386,64.39837692709435L187.65949869155884,41.95894359741106L191.01056116819382,69.7330669635292L194.3616236448288,62.74435659508609L197.71268612146378,-7.107316884985949L201.06374859809875,-18.317042447295815L204.41481107473373,31.627496342378667L207.7658735513687,125.46055617366473L211.1169360280037,49.14583457137499L214.46799850463867,9.84922581606468L217.81906098127365,-16.182734678798415L221.17012345790863,44.16197344639228L224.5211859345436,117.75822930170004L227.8722484111786,120.72380781995443L231.22331088781357,129.58917137764482L234.57437336444855,142.06784316191101L237.92543584108353,147.3948660615723L241.2764983177185,103.18708924047395L244.62756079435349,54.04327874991878L247.97862327098846,123.6734735348216L251.32968574762344,171.37305846210614L254.68074822425842,72.19381091395724L258.0318107008934,107.19382460940166L261.3828731775284,178.339449514528" fill="none"></path></g></g></g></g><g opacity="0.2"><g><g><g><path style="fill: none;" stroke="rgb(255, 112, 67)" stroke-width="2px" d="M33.51062476634979,337.86114071760386L36.86168724298477,83.9469593826941L40.21274971961975,153.29188796858594L43.56381219625473,-24.775218269616758L46.91487467288971,73.20530523401277L50.26593714952469,84.4655475103416L53.61699962615967,78.9213147700217L56.96806210279465,92.82667674981657L60.31912457942963,-113.17229722481348L63.670187056064606,278.7074461621594L67.02124953269958,106.101307023679L70.37231200933456,113.5498271731031L73.72337448596954,165.5935581277469L77.07443696260452,113.28131204695853L80.4254994392395,119.8183274251726L83.77656191587448,28.05042564026723L87.12762439250946,-34.458051513723134L90.47868686914444,188.1520312485286L93.82974934577942,93.68649939927639L97.1808118224144,85.07446891916788L100.53187429904938,-57.10658183597347L103.88293677568436,-149.7912891225248L107.23399925231934,167.15379500199467L110.58506172895432,138.74690451619006L113.9361242055893,-16.753887937461073L117.28718668222427,151.06850763042777L120.63824915885925,50.5641738479959L123.98931163549423,-236.46960623387452L127.34037411212921,-159.03256047813062L130.6914365887642,113.9084547166583L134.04249906539917,138.53686307266673L137.39356154203415,-222.08408642209258L160.850998878479,-179.20228151434193L164.20206135511398,161.6843798631401L167.55312383174896,-90.06729670971157L174.25524878501892,-248.07113824795766L177.6063112616539,132.5299759539867L180.95737373828888,97.38905960876639L184.30843621492386,88.04508660096462L187.65949869155884,8.299793604145842L191.01056116819382,111.39425201177107L194.3616236448288,52.26129104256289L197.71268612146378,-111.88482710424738L201.06374859809875,-35.131630790679225L204.41481107473373,106.5443045266726L207.7658735513687,266.21014592034777L217.81906098127365,-55.230675421078246L221.17012345790863,134.6790356341579L224.5211859345436,228.15261308464662L227.8722484111786,125.1721755973357L231.22331088781357,142.8872167141798L234.57437336444855,160.7858508383096L237.92543584108353,155.38540041106404L241.2764983177185,36.87542400882721L244.62756079435349,-19.672436985913308L254.68074822425842,-76.57506040826618L258.0318107008934,159.69384515256812L261.3828731775284,285.05788687221747" fill="none"></path></g></g></g></g></g></g><g transform="translate(61, 177)" clip-path="url(#clip_1)"><clipPath id="clip_1"><rect width="268" height="22"></rect></clipPath><g><g><line x1="0" y1="0" x2="0" y2="5" style="visibility: inherit;" fill="rgb(0, 0, 0)" stroke="rgb(204, 204, 204)" stroke-width="1px"></line><line x1="26.808499813079834" y1="0" x2="26.808499813079834" y2="5" style="visibility: inherit;" fill="rgb(0, 0, 0)" stroke="rgb(204, 204, 204)" stroke-width="1px"></line><line x1="53.61699962615967" y1="0" x2="53.61699962615967" y2="5" style="visibility: inherit;" fill="rgb(0, 0, 0)" stroke="rgb(204, 204, 204)" stroke-width="1px"></line><line x1="80.4254994392395" y1="0" x2="80.4254994392395" y2="5" style="visibility: inherit;" fill="rgb(0, 0, 0)" stroke="rgb(204, 204, 204)" stroke-width="1px"></line><line x1="107.23399925231934" y1="0" x2="107.23399925231934" y2="5" style="visibility: inherit;" fill="rgb(0, 0, 0)" stroke="rgb(204, 204, 204)" stroke-width="1px"></line><line x1="134.04249906539917" y1="0" x2="134.04249906539917" y2="5" style="visibility: inherit;" fill="rgb(0, 0, 0)" stroke="rgb(204, 204, 204)" stroke-width="1px"></line><line x1="160.850998878479" y1="0" x2="160.850998878479" y2="5" style="visibility: inherit;" fill="rgb(0, 0, 0)" stroke="rgb(204, 204, 204)" stroke-width="1px"></line><line x1="187.65949869155884" y1="0" x2="187.65949869155884" y2="5" style="visibility: inherit;" fill="rgb(0, 0, 0)" stroke="rgb(204, 204, 204)" stroke-width="1px"></line><line x1="214.46799850463867" y1="0" x2="214.46799850463867" y2="5" style="visibility: inherit;" fill="rgb(0, 0, 0)" stroke="rgb(204, 204, 204)" stroke-width="1px"></line><line x1="241.2764983177185" y1="0" x2="241.2764983177185" y2="5" style="visibility: inherit;" fill="rgb(0, 0, 0)" stroke="rgb(204, 204, 204)" stroke-width="1px"></line><line x1="268.08499813079834" y1="0" x2="268.08499813079834" y2="5" style="visibility: inherit;" fill="rgb(0, 0, 0)" stroke="rgb(204, 204, 204)" stroke-width="1px"></line></g><g transform="translate(0, 8)"><text style="text-anchor: middle; visibility: hidden; font-family: Roboto, sans-serif; font-size: 12px; font-weight: 200;" x="0" y="0" dx="0em" dy="0.95em" fill="rgb(50, 49, 63)" stroke="none" stroke-width="1px">-200</text><text style="text-anchor: middle; visibility: hidden; font-family: Roboto, sans-serif; font-size: 12px; font-weight: 200;" x="26.808499813079834" y="0" dx="0em" dy="0.95em" fill="rgb(50, 49, 63)" stroke="none" stroke-width="1px">0</text><text style="text-anchor: middle; visibility: hidden; font-family: Roboto, sans-serif; font-size: 12px; font-weight: 200;" x="53.61699962615967" y="0" dx="0em" dy="0.95em" fill="rgb(50, 49, 63)" stroke="none" stroke-width="1px">200</text><text style="text-anchor: middle; visibility: hidden; font-family: Roboto, sans-serif; font-size: 12px; font-weight: 200;" x="80.4254994392395" y="0" dx="0em" dy="0.95em" fill="rgb(50, 49, 63)" stroke="none" stroke-width="1px">400</text><text style="text-anchor: middle; visibility: hidden; font-family: Roboto, sans-serif; font-size: 12px; font-weight: 200;" x="107.23399925231934" y="0" dx="0em" dy="0.95em" fill="rgb(50, 49, 63)" stroke="none" stroke-width="1px">600</text><text style="text-anchor: middle; visibility: hidden; font-family: Roboto, sans-serif; font-size: 12px; font-weight: 200;" x="134.04249906539917" y="0" dx="0em" dy="0.95em" fill="rgb(50, 49, 63)" stroke="none" stroke-width="1px">800</text><text style="text-anchor: middle; visibility: hidden; font-family: Roboto, sans-serif; font-size: 12px; font-weight: 200;" x="160.850998878479" y="0" dx="0em" dy="0.95em" fill="rgb(50, 49, 63)" stroke="none" stroke-width="1px">1k</text><text style="text-anchor: middle; visibility: hidden; font-family: Roboto, sans-serif; font-size: 12px; font-weight: 200;" x="187.65949869155884" y="0" dx="0em" dy="0.95em" fill="rgb(50, 49, 63)" stroke="none" stroke-width="1px">1.2k</text><text style="text-anchor: middle; visibility: hidden; font-family: Roboto, sans-serif; font-size: 12px; font-weight: 200;" x="214.46799850463867" y="0" dx="0em" dy="0.95em" fill="rgb(50, 49, 63)" stroke="none" stroke-width="1px">1.4k</text><text style="text-anchor: middle; visibility: hidden; font-family: Roboto, sans-serif; font-size: 12px; font-weight: 200;" x="241.2764983177185" y="0" dx="0em" dy="0.95em" fill="rgb(50, 49, 63)" stroke="none" stroke-width="1px">1.6k</text><text style="text-anchor: middle; visibility: hidden; font-family: Roboto, sans-serif; font-size: 12px; font-weight: 200;" x="268.08499813079834" y="0" dx="0em" dy="0.95em" fill="rgb(50, 49, 63)" stroke="none" stroke-width="1px">1.8k</text></g><line x1="0" y1="0" x2="268.08499813079834" y2="0" fill="rgb(0, 0, 0)" stroke="rgb(204, 204, 204)" stroke-width="1px"></line></g></g></g></g></svg>