<svg viewBox="0 0 330 200" xmlns="http://www.w3.org/2000/svg"><g><g><g><g><g><line x1="41.149001121520996" y1="177.86299896240234" x2="36.149001121520996" y2="177.86299896240234" style="visibility: inherit;" fill="rgb(0, 0, 0)" stroke="rgb(204, 204, 204)" stroke-width="1px"></line><line x1="41.149001121520996" y1="163.04108238220215" x2="36.149001121520996" y2="163.04108238220215" style="visibility: inherit;" fill="rgb(0, 0, 0)" stroke="rgb(204, 204, 204)" stroke-width="1px"></line><line x1="41.149001121520996" y1="148.21916580200195" x2="36.149001121520996" y2="148.21916580200195" style="visibility: inherit;" fill="rgb(0, 0, 0)" stroke="rgb(204, 204, 204)" stroke-width="1px"></line><line x1="41.149001121520996" y1="133.39724922180176" x2="36.149001121520996" y2="133.39724922180176" style="visibility: inherit;" fill="rgb(0, 0, 0)" stroke="rgb(204, 204, 204)" stroke-width="1px"></line><line x1="41.149001121520996" y1="118.57533264160158" x2="36.149001121520996" y2="118.57533264160158" style="visibility: inherit;" fill="rgb(0, 0, 0)" stroke="rgb(204, 204, 204)" stroke-width="1px"></line><line x1="41.149001121520996" y1="103.75341606140135" x2="36.149001121520996" y2="103.75341606140135" style="visibility: inherit;" fill="rgb(0, 0, 0)" stroke="rgb(204, 204, 204)" stroke-width="1px"></line><line x1="41.149001121520996" y1="88.93149948120119" x2="36.149001121520996" y2="88.93149948120119" style="visibility: inherit;" fill="rgb(0, 0, 0)" stroke="rgb(204, 204, 204)" stroke-width="1px"></line><line x1="41.149001121520996" y1="74.10958290100099" x2="36.149001121520996" y2="74.10958290100099" style="visibility: inherit;" fill="rgb(0, 0, 0)" stroke="rgb(204, 204, 204)" stroke-width="1px"></line><line x1="41.149001121520996" y1="59.28766632080081" x2="36.149001121520996" y2="59.28766632080081" style="visibility: inherit;" fill="rgb(0, 0, 0)" stroke="rgb(204, 204, 204)" stroke-width="1px"></line><line x1="41.149001121520996" y1="44.46574974060061" x2="36.149001121520996" y2="44.46574974060061" style="visibility: inherit;" fill="rgb(0, 0, 0)" stroke="rgb(204, 204, 204)" stroke-width="1px"></line><line x1="41.149001121520996" y1="29.643833160400405" x2="36.149001121520996" y2="29.643833160400405" style="visibility: inherit;" fill="rgb(0, 0, 0)" stroke="rgb(204, 204, 204)" stroke-width="1px"></line><line x1="41.149001121520996" y1="14.821916580200202" x2="36.149001121520996" y2="14.821916580200202" style="visibility: inherit;" fill="rgb(0, 0, 0)" stroke="rgb(204, 204, 204)" stroke-width="1px"></line><line x1="41.149001121520996" y1="0" x2="36.149001121520996" y2="0" style="visibility: inherit;" fill="rgb(0, 0, 0)" stroke="rgb(204, 204, 204)" stroke-width="1px"></line></g><g transform="translate(31.149001121520996, 0)"><text style="text-anchor: end; visibility: hidden; font-family: Roboto, sans-serif; font-size: 12px; font-weight: 200;" x="0" y="177.86299896240234" dx="0em" dy="0.3em" fill="rgb(50, 49, 63)" stroke="none" stroke-width="1px">1.2</text><text style="text-anchor: end; visibility: inherit; font-family: Roboto, sans-serif; font-size: 12px; font-weight: 200;" x="0" y="163.04108238220215" dx="0em" dy="0.3em" fill="rgb(50, 49, 63)" stroke="none" stroke-width="1px">1.4</text><text style="text-anchor: end; visibility: hidden; font-family: Roboto, sans-serif; font-size: 12px; font-weight: 200;" x="0" y="148.21916580200195" dx="0em" dy="0.3em" fill="rgb(50, 49, 63)" stroke="none" stroke-width="1px">1.6</text><text style="text-anchor: end; visibility: inherit; font-family: Roboto, sans-serif; font-size: 12px; font-weight: 200;" x="0" y="133.39724922180176" dx="0em" dy="0.3em" fill="rgb(50, 49, 63)" stroke="none" stroke-width="1px">1.8</text><text style="text-anchor: end; visibility: hidden; font-family: Roboto, sans-serif; font-size: 12px; font-weight: 200;" x="0" y="118.57533264160158" dx="0em" dy="0.3em" fill="rgb(50, 49, 63)" stroke="none" stroke-width="1px">2</text><text style="text-anchor: end; visibility: inherit; font-family: Roboto, sans-serif; font-size: 12px; font-weight: 200;" x="0" y="103.75341606140135" dx="0em" dy="0.3em" fill="rgb(50, 49, 63)" stroke="none" stroke-width="1px">2.2</text><text style="text-anchor: end; visibility: hidden; font-family: Roboto, sans-serif; font-size: 12px; font-weight: 200;" x="0" y="88.93149948120119" dx="0em" dy="0.3em" fill="rgb(50, 49, 63)" stroke="none" stroke-width="1px">2.4</text><text style="text-anchor: end; visibility: inherit; font-family: Roboto, sans-serif; font-size: 12px; font-weight: 200;" x="0" y="74.10958290100099" dx="0em" dy="0.3em" fill="rgb(50, 49, 63)" stroke="none" stroke-width="1px">2.6</text><text style="text-anchor: end; visibility: hidden; font-family: Roboto, sans-serif; font-size: 12px; font-weight: 200;" x="0" y="59.28766632080081" dx="0em" dy="0.3em" fill="rgb(50, 49, 63)" stroke="none" stroke-width="1px">2.8</text><text style="text-anchor: end; visibility: inherit; font-family: Roboto, sans-serif; font-size: 12px; font-weight: 200;" x="0" y="44.46574974060061" dx="0em" dy="0.3em" fill="rgb(50, 49, 63)" stroke="none" stroke-width="1px">3</text><text style="text-anchor: end; visibility: hidden; font-family: Roboto, sans-serif; font-size: 12px; font-weight: 200;" x="0" y="29.643833160400405" dx="0em" dy="0.3em" fill="rgb(50, 49, 63)" stroke="none" stroke-width="1px">3.2</text><text style="text-anchor: end; visibility: inherit; font-family: Roboto, sans-serif; font-size: 12px; font-weight: 200;" x="0" y="14.821916580200202" dx="0em" dy="0.3em" fill="rgb(50, 49, 63)" stroke="none" stroke-width="1px">3.4</text><text style="text-anchor: end; visibility: hidden; font-family: Roboto, sans-serif; font-size: 12px; font-weight: 200;" x="0" y="0" dx="0em" dy="0.3em" fill="rgb(50, 49, 63)" stroke="none" stroke-width="1px">3.6</text></g><line x1="41.149001121520996" y1="0" x2="41.149001121520996" y2="177.86299896240234" fill="rgb(0, 0, 0)" stroke="rgb(204, 204, 204)" stroke-width="1px"></line></g></g><g transform="translate(41, 0)" clip-path="url(#clip_0)"><clipPath id="clip_0"><rect width="288" height="177"></rect></clipPath><g><g><g><line x1="0" y1="0" x2="0" y2="177.86299896240234" fill="rgb(0, 0, 0)" stroke="rgb(60, 60, 60)" stroke-width="1px" opacity="0.25"></line><line x1="41.264428411211284" y1="0" x2="41.264428411211284" y2="177.86299896240234" fill="rgb(0, 0, 0)" stroke="rgb(60, 60, 60)" stroke-width="1px" opacity="0.25"></line><line x1="82.52885682242257" y1="0" x2="82.52885682242257" y2="177.86299896240234" fill="rgb(0, 0, 0)" stroke="rgb(60, 60, 60)" stroke-width="1px" opacity="0.25"></line><line x1="123.79328523363385" y1="0" x2="123.79328523363385" y2="177.86299896240234" fill="rgb(0, 0, 0)" stroke="rgb(60, 60, 60)" stroke-width="1px" opacity="0.25"></line><line x1="165.05771364484514" y1="0" x2="165.05771364484514" y2="177.86299896240234" fill="rgb(0, 0, 0)" stroke="rgb(60, 60, 60)" stroke-width="1px" opacity="0.25"></line><line x1="206.32214205605644" y1="0" x2="206.32214205605644" y2="177.86299896240234" fill="rgb(0, 0, 0)" stroke="rgb(60, 60, 60)" stroke-width="1px" opacity="0.25"></line><line x1="247.5865704672677" y1="0" x2="247.5865704672677" y2="177.86299896240234" fill="rgb(0, 0, 0)" stroke="rgb(60, 60, 60)" stroke-width="1px" opacity="0.25"></line><line x1="288.850998878479" y1="0" x2="288.850998878479" y2="177.86299896240234" fill="rgb(0, 0, 0)" stroke="rgb(60, 60, 60)" stroke-width="1px" opacity="0.25"></line></g><g><line x1="0" y1="177.86299896240234" x2="288.850998878479" y2="177.86299896240234" fill="rgb(0, 0, 0)" stroke="rgb(60, 60, 60)" stroke-width="1px" opacity="0.25"></line><line x1="0" y1="163.04108238220215" x2="288.850998878479" y2="163.04108238220215" fill="rgb(0, 0, 0)" stroke="rgb(60, 60, 60)" stroke-width="1px" opacity="0.25"></line><line x1="0" y1="148.21916580200195" x2="288.850998878479" y2="148.21916580200195" fill="rgb(0, 0, 0)" stroke="rgb(60, 60, 60)" stroke-width="1px" opacity="0.25"></line><line x1="0" y1="133.39724922180176" x2="288.850998878479" y2="133.39724922180176" fill="rgb(0, 0, 0)" stroke="rgb(60, 60, 60)" stroke-width="1px" opacity="0.25"></line><line x1="0" y1="118.57533264160158" x2="288.850998878479" y2="118.57533264160158" fill="rgb(0, 0, 0)" stroke="rgb(60, 60, 60)" stroke-width="1px" opacity="0.25"></line><line x1="0" y1="103.75341606140135" x2="288.850998878479" y2="103.75341606140135" fill="rgb(0, 0, 0)" stroke="rgb(60, 60, 60)" stroke-width="1px" opacity="0.25"></line><line x1="0" y1="88.93149948120119" x2="288.850998878479" y2="88.93149948120119" fill="rgb(0, 0, 0)" stroke="rgb(60, 60, 60)" stroke-width="1px" opacity="0.25"></line><line x1="0" y1="74.10958290100099" x2="288.850998878479" y2="74.10958290100099" fill="rgb(0, 0, 0)" stroke="rgb(60, 60, 60)" stroke-width="1px" opacity="0.25"></line><line x1="0" y1="59.28766632080081" x2="288.850998878479" y2="59.28766632080081" fill="rgb(0, 0, 0)" stroke="rgb(60, 60, 60)" stroke-width="1px" opacity="0.25"></line><line x1="0" y1="44.46574974060061" x2="288.850998878479" y2="44.46574974060061" fill="rgb(0, 0, 0)" stroke="rgb(60, 60, 60)" stroke-width="1px" opacity="0.25"></line><line x1="0" y1="29.643833160400405" x2="288.850998878479" y2="29.643833160400405" fill="rgb(0, 0, 0)" stroke="rgb(60, 60, 60)" stroke-width="1px" opacity="0.25"></line><line x1="0" y1="14.821916580200202" x2="288.850998878479" y2="14.821916580200202" fill="rgb(0, 0, 0)" stroke="rgb(60, 60, 60)" stroke-width="1px" opacity="0.25"></line><line x1="0" y1="0" x2="288.850998878479" y2="0" fill="rgb(0, 0, 0)" stroke="rgb(60, 60, 60)" stroke-width="1px" opacity="0.25"></line></g></g></g><g><g><line x1="0" y1="266.7944984436035" x2="288.850998878479" y2="266.7944984436035" fill="rgb(0, 0, 0)" stroke="rgb(153, 153, 153)" stroke-width="1.5px"></line></g></g><g><g><line x1="41.264428411211284" y1="0" x2="41.264428411211284" y2="177.86299896240234" fill="rgb(0, 0, 0)" stroke="rgb(153, 153, 153)" stroke-width="1.5px"></line></g></g><g><g><g><g><g><path style="fill: none;" stroke="rgb(255, 112, 67)" stroke-width="2px" d="M42.33730354990278,207.14686170049256L42.74994783401489,158.32612000816425L42.91500554765974,133.48835300271242L43.16259211812701,126.44650476672832L43.32764983177185,174.00597457229244L43.41017868859427,160.0976450919694L43.57523640223912,136.06385552277058L43.74029411588397,119.22209416062911L43.987880686351225,155.29338146202142L44.152938399996074,176.8522171672138L44.730640397753035,174.01982887152016L45.060755825042726,171.52549728429824L45.14328468186515,105.32468740468514L45.225813538687575,114.52252056741216L45.47340010915484,134.40061955962312L46.21615982055664,81.72925151104006L46.29868867737906,66.03584205454827L46.38121753420148,82.56935144224589L46.62880410466875,81.76938697108174L46.87639067513602,52.126339210126226L47.20650610242571,82.1377958000681L47.5366215297154,66.57028863613073L47.619150386537825,69.1458721067566L47.701679243360246,68.56986863130294L47.86673695700509,93.73015716516375L48.03179467064994,106.51627526499634L48.11432352747236,101.7169009404247L48.27938124111721,118.85062785639406L48.36191009793963,131.06229252072023L48.52696781158448,152.46101327326517L48.69202552522932,149.16130073222328L49.26972752298627,184.56938228329946L49.76490066392081,181.79098216276955L50.0950160912105,150.33639651439654L50.507660375322615,108.69615981025336L50.59018923214504,145.00191325523951L51.58053551401411,150.2037175082852L51.66306437083653,177.69275615175349L51.99317979812622,143.3994816864634L52.24076636859349,179.12778030057342L52.40582408223834,151.96979371714897L52.570881795883174,134.45308445637718L53.313641507284984,134.69309571315372L53.80881464821952,130.9129328533912L54.221458932331636,125.44403853729872L54.30398778915405,151.66346839386375L54.55157435962132,135.21286168685594L54.71663207326616,136.7402908017837L54.88168978691101,152.045630512551L55.37686292784555,116.32925161654931L55.45939178466797,127.38596849577105L56.20215149606977,170.66533515129126L56.367209209714616,184.65660671447304L57.52261320522854,183.56247567511812L57.7701997756958,148.55538018332481L57.85272863251822,161.93021869694752L58.017786346163064,152.84039901160554L58.265372916630334,118.59443781228696L58.843074914387294,135.99041541392637L59.00813262803214,146.42800197490996L59.090661484854564,144.2285385200035L59.42077691214425,148.17645778393467L59.50330576896667,148.92500928017185L59.5858346257891,155.01993756375148L59.66836348261152,158.57438194108886L59.91595005307879,153.16959011244813L59.99847890990121,130.2070189254214L60.3285943371909,135.5752374820086L60.41112319401332,137.5942915983813L60.49365205083575,152.36462500597762L60.90629633494786,173.68379247618765L61.07135404859271,150.824831089842L61.153882905415124,158.7858725824532L61.483998332704815,108.62868858155034L61.896642616816926,135.07054134713215L61.979171473639354,137.76288554422322L62.144229187284196,100.95305683271526L62.309286900929045,76.66562490296135L62.391815757751466,89.71826165865312L62.47434461457389,105.57080652691363L62.72193118504115,123.41844942387287L62.886988898686,131.86756700935496L63.13457546915327,118.39362656183694L63.29963318279811,143.39911444539916L63.54721975326538,163.43124547829652L63.6297486100878,166.9926291409972L63.95986403737749,174.94956241028942L64.04239289419992,144.82793963083617L64.12492175102234,150.38377759230312L64.20745060784476,132.42204817187258L64.45503717831203,153.49856271065684L64.53756603513445,142.58576726553395L64.95021031924657,133.59819558318895L65.61044117382595,171.01420668763856L65.77549888747079,155.5263089294156L65.85802774429321,144.2612568247833L66.02308545793805,137.81800774317313L66.18814317158291,130.572962791198L66.27067202840533,153.42196234151135L66.51825859887259,134.71082255030905L66.60078745569501,145.61972747328738L66.68331631251743,136.77868966421397L66.84837402616229,145.2649844215431L67.34354716709682,157.1435338204691L67.42607602391924,164.75062693169576L67.50860488074166,154.34012849066258L67.92124916485378,139.29894936609205L68.08630687849862,119.14171850623669L68.16883573532104,87.39249063079076L68.3338934489659,136.35986840892718L69.15918201719012,125.96061897197035L69.32423973083496,133.47615381482262L69.57182630130222,160.88916586205067L69.8194128717695,125.99209971269366L69.98447058541434,117.22138989782903L70.2320571558816,156.26512819209688L70.39711486952646,154.09942872184533L70.56217258317129,159.12435646245413L70.72723029681615,174.5107779836301L70.97481686728341,148.06101663509213L71.05734572410583,130.11880039002332L71.22240343775069,142.87691081869542L71.80010543550765,128.4533442875793L71.88263429233007,168.02317022166727L71.96516314915249,197.45634343509758L72.04769200597491,137.92546824273433L72.87298057419913,142.29044473137103L73.12056714466641,129.4660846786079L73.20309600148883,138.26223185939233L73.53321142877851,156.94480308208958L73.94585571289063,146.87619610568206L74.11091342653546,145.70189403575705L74.2759711401803,159.0024857607951L74.52355771064758,143.78375938311908L74.77114428111484,156.5681956498877L75.26631742204938,136.473232064908L75.3488462788718,142.8730969170683L75.51390399251666,110.23639624943154L75.59643284933908,103.33380786325665L76.0916059902736,95.84996053304918L76.17413484709604,92.22526848275099L76.4217214175633,110.90089055754387L76.751836844853,134.76065870006784L76.83436570167542,138.63671332293666L76.91689455849784,156.00587561492307L76.99942341532027,148.8508081551788L77.41206769943238,116.25130880791444L77.65965426989963,122.79396074695293L77.74218312672205,117.09358799447897L77.82471198354447,137.722219987157L78.2373562676566,151.40821313615763L78.65000055176871,125.33617583819117L78.81505826541355,147.12682134630614L78.89758712223598,133.26301319190014L78.9801159790584,129.6738986413726L79.06264483588082,134.24638540838313L79.22770254952567,159.82203525287335L79.88793340410506,148.96194966844973L80.21804883139474,117.88431715384783L80.30057768821717,134.53243215580085L81.12586625644138,101.86189899612195L81.5385105405535,96.40680457534975L81.70356825419834,95.65021669003501L81.78609711102077,119.64359317897807L81.86862596784319,117.78401746496078L81.95115482466561,107.58927989287506L82.2812702519553,162.85704347685686L82.69391453606742,170.00116978906146L82.77644339288985,143.18523162485351L83.02402996335711,144.90044060799207L83.43667424746923,130.80955047324L83.51920310429165,109.81056217780186L83.84931853158133,120.23457733895088L83.93184738840377,125.93861866211932L84.01437624522619,118.83818181508454L84.17943395887103,129.36565010957247L84.42702052933828,101.81090179445353L84.75713595662798,141.62978058980818L84.8396648134504,85.08192098557797L85.1697802407401,99.4595037878383L85.25230909756252,140.11309680049456L85.66495338167464,140.0573208715969L85.83001109531948,136.53143372834958L86.2426553794316,123.29871130352916L86.32518423625402,127.71905250877266L86.40771309307644,107.92474172212918L86.6552996635437,121.68454432166052L86.73782852036612,128.16612298402478L86.82035737718854,108.14501593065567L87.06794394765582,132.3612893472184L87.15047280447824,159.71882281899212L87.23300166130066,188.58209066171264L87.31553051812308,136.63946535378432L87.72817480223519,148.22251775839572L87.89323251588003,181.81503688973066L87.97576137270245,150.369869691096L88.05829022952489,135.46548236355954L88.1408190863473,126.87035171913543L88.38840565681457,136.78011192938294L88.55346337045941,174.7619007117726L88.80104994092669,157.51567015209545L88.88357879774911,127.18638671055302L89.29622308186123,104.68631976540017L89.37875193868365,89.67106933702108L89.62633850915091,143.49961532508064L89.79139622279575,115.33741374302076L90.20404050690787,127.57798183553754L90.36909822055271,132.00596681981324L90.61668479101999,88.33696762453266L90.78174250466483,113.69932808076888L90.86427136148725,116.39508328079808L90.94680021830968,97.06926563680939L91.02932907513211,128.7899659828397L91.19438678877695,140.62023073986924L91.27691564559936,125.46485247654748L91.4419733592442,138.32161100695052L91.60703107288904,135.18960481429733L91.68955992971148,136.66151934647363L91.7720887865339,127.92394127155305L92.01967535700116,144.86420213102357L92.26726192746844,148.42936977860032L92.67990621158054,105.46551982084382L93.01002163887024,90.76476112286217L93.09255049569266,87.73236429334975L93.2576082093375,123.66961916754552L93.50519477980478,153.0536945851034L93.83531020709447,159.58087648253138L93.91783906391689,152.7066653636007L94.08289677756174,131.05824191491746L94.16542563438416,128.7601038443838L94.24795449120658,86.79682864237687L94.330483348029,134.14954435087844L94.6605987753187,152.04310576226774L94.74312763214111,159.64141868643392L94.90818534578595,97.22897797123802L94.99071420260837,118.90529541312375L95.32082962989807,122.60975989717564L95.98106048447745,141.86162879480804L96.31117591176714,135.49709050482502L96.39370476858957,158.03324941001983L96.64129133905683,162.08278329774802L96.72382019587926,127.72874559471363L96.80634905270168,148.65169110952573L96.97140676634652,150.03400293515833L97.05393562316895,171.97063889057927L97.2189933368138,130.2721436391229L97.38405105045864,104.50538906172346L97.46657990728106,123.33640466054209L97.63163762092591,139.46066825734388L97.79669533457076,143.9043949448535L98.044281905038,107.17586032648428L98.29186847550528,52.076762177842085L98.62198390279497,64.9880788204672L98.70451275961739,62.35704221747379L99.28221475737435,104.30360132008812L99.4472724710192,135.99221972594262L99.52980132784162,137.64246657400852L99.94244561195373,109.77839246346345L100.27256103924343,120.2187457218732L100.43761875288827,128.36357555771676L100.76773418017797,153.10423208943016L101.18037846429009,154.84546067064412L101.59302274840218,135.393750360552L101.6755516052246,123.69823479988275L101.75808046204703,72.08484136292223L102.0056670325143,95.55433507706266L102.17072474615914,114.25490051493206L102.33578245980398,147.6562629028298L102.41831131662641,131.16558052752228L102.58336903027126,130.29608166028558L102.83095560073852,145.84933858789083L102.91348445756094,155.56729193479765L102.99601331438338,164.54106491233492L103.16107102802822,154.0618291894597L103.32612874167306,153.35113677388173L103.40865759849548,175.5506524242993L103.57371531214034,172.6796340800618L103.73877302578518,162.58150500127599L104.06888845307486,132.1720896716325L104.23394616671972,143.52742959704347L104.5640615940094,139.80685240665616L104.64659045083182,58.171571372269774L104.8941770212991,30.783034196966128L105.05923473494393,66.10358290142632L105.30682130541119,70.05612389668207L105.47187901905605,55.01092541828439L105.63693673270089,77.41059318107217L105.88452330316815,92.09364835810725L106.13210987363543,122.15986990900457L106.21463873045785,128.63068445292186L106.62728301456997,90.81607622321924L107.03992729868207,138.11679190665095L107.37004272597177,98.33551736144882L107.45257158279419,129.58439792995543L107.53510043961661,153.0994645855427L107.70015815326146,88.83830056811045L107.78268701008389,127.3064984529007L107.86521586690631,152.1245089534693L108.2778601510184,151.3201280710345L108.52544672148568,137.8796413602893L108.6079755783081,175.35074053674757L108.69050443513052,123.27780308128241L108.77303329195294,126.01184285213932L108.9380910055978,29.40507980671169L109.18567757606506,95.33945767323635L109.43326414653232,112.8167678651902L110.17602385793414,113.80670811193673L110.4236104284014,116.15267675130545L111.00131242615836,126.36076383677994L111.08384128298079,122.34303591624229L111.1663701398032,135.73811011010486L111.4964855670929,144.30413925336487L111.66154328073775,136.63900838976795L111.82660099438257,165.95066374045024L111.90912985120502,165.32105365252824L112.23924527849469,187.7341738968849L112.73441841942923,172.0575855188505L112.89947613307407,160.88702639755275L113.14706270354135,160.96133200652937L113.22959156036377,128.5390616017963L113.47717813083104,152.3553710810743L113.72476470129831,132.7589299435161L113.88982241494315,104.66349315813697L114.054880128588,112.01380473560445L114.46752441270012,119.66673119536034L114.55005326952254,121.89029033581883L114.7976398399898,108.66305780992064L115.1277552672795,128.20278593863011L115.29281298092432,146.832205932375L115.62292840821402,138.44316212208201L115.70545726503644,138.9367933261587L115.9530438355037,109.52555132589502L116.11810154914856,125.92199111288974L116.20063040597098,157.6052994678255L116.44821697643825,155.39633686208967L116.53074583326067,170.8856254112875L116.77833240372794,116.35284185919399L116.86086126055037,99.2713018483016L116.94339011737279,52.61687639618182L117.43856325830733,107.59292540492461L117.85120754241943,69.67241887463337L118.01626525606429,58.949126143456716L118.09879411288671,62.59515378686696L119.25419810840062,106.12168990577035L119.33672696522304,121.28378641645511L119.50178467886788,130.62978639930196L120.07948667662484,124.76895571617278L120.16201553344726,143.11072602286885L120.24454439026968,138.40348319862278L120.57465981755938,136.7353469620392L120.6571886743818,95.34417854132505L120.9873041016715,93.03025269827317L121.31741952896118,76.77329884620285L121.3999483857836,99.86479877259289L121.56500609942846,126.26753127521168L121.7300638130733,133.59541318859118L121.81259266989572,140.38370469177545L121.89512152671814,69.85171869670629L121.97765038354055,121.41244750218267L122.63788123811993,93.36477539454154L122.96799666540963,135.42274984777305L123.13305437905447,116.64586655117402L123.38064094952175,107.52791058967547L123.79328523363385,131.26726087508948L124.28845837456839,116.08365753593179L124.37098723139081,102.10797626822813L124.45351608821325,72.1827384050601L124.61857380185809,128.5619348593737L124.86616037232535,104.7605846254068L125.69144894054958,91.89591762828702L125.85650665419442,31.991864482100425L126.02156436783926,45.322966043290116L126.26915093830654,69.30019827952472L126.5167375087738,103.86721703419795L126.68179522241864,120.5931179852943L126.76432407924106,138.57609317201076L127.17696836335318,161.80610600297624L127.2594972201756,173.97147523355784L127.50708379064288,135.2557414188231L127.5896126474653,128.86431519328167L127.67214150428772,162.3895853499373L127.91972807475499,111.29406157501832L128.0022569315774,93.41722538186393L128.3323723588671,98.03956533419169L128.49743007251195,133.1233384455985L128.99260321344647,143.0287105563124L129.1576609270913,134.38124217179598L129.4052474975586,144.1900859590515L129.7353629248483,118.8128184766629L130.06547835213797,101.45517563175798L130.23053606578281,112.44079778767875L130.56065149307253,132.64695231925938L130.64318034989495,130.14413811861758L131.05582463400705,147.93893890389123L131.2208823476519,166.71070617656025L132.21122862952097,146.5273175142383L132.54134405681066,114.30875844660639L132.62387291363308,104.18690003617692L132.7064017704555,78.06886788491154L132.95398834092276,86.50811707338869L133.1190460545676,119.19490724436648L133.36663262503487,162.82749221856452L133.69674805232458,156.0526812547727L133.86180576596942,141.05111207807005L133.9443346227918,146.0315785975872L134.27445005008153,157.59038338663765L134.35697890690395,102.23956402414271L134.6045654773712,86.45259455243595L134.9346809046609,114.68109832352923L135.01720976148331,103.81810635802965L135.18226747512819,112.65376380412239L135.34732518877303,121.30084503775959L135.5949117592403,74.36331502551826L136.0075560433524,103.71945410441498L136.17261375699724,114.99018456516318L136.33767147064208,116.17734990731455L136.58525804110937,123.71343842467805L136.99790232522147,70.16177661750083L137.0804311820439,97.96096859305487L137.24548889568874,73.61501763912769L137.41054660933358,115.39919713289866L137.493075466156,156.42219653493734L137.57560432297845,147.79408373698243L137.82319089344568,72.47333576081874L138.23583517755782,127.16593421208619L138.40089289120266,147.52737234943848L138.48342174802508,99.42730841320508L138.81353717531476,119.0666954289658L139.22618145942687,132.76014547628122L139.55629688671658,127.0926554291586L139.88641231400626,113.47942429483307L139.96894117082869,131.4180494754213L140.3815854549408,153.28947062349073L140.54664316858566,119.07339391680814L140.7117008822305,101.95951031514302L140.87675859587534,73.12045979213075L141.12434516634258,87.70555235496191L141.20687402316503,87.27365782367596L141.5369894504547,100.14363528511248L142.03216259138924,109.78271573581172L142.19722030503408,113.46730798574622L142.36227801867895,124.20223155847482L142.5273357323238,126.08856487943049L142.6098645891462,117.48008186970549L143.02250887325832,129.21741000196633L143.43515315737042,153.58342085985683L143.6827397278377,156.11764822013748L143.84779744148256,178.88208809389542L144.4254994392395,187.21143964126745L144.6730860097068,122.28326392780782L144.8381437233516,101.5017645211155L144.92067258017403,120.48448741592892L145.00320143699645,95.76706496605603L145.0857302938189,117.07716123160765L145.66343229157584,88.07705209446074L145.8284900052207,100.88723462403362L146.07607657568795,80.79651305259493L146.15860543251037,103.90333049863173L146.24113428933282,105.30362973362043L146.73630743026735,76.22183618677967L147.14895171437945,125.39389682515366L147.3965382848467,143.78238670603696L147.47906714166913,119.08881546534849L148.13929799624853,102.93028747478071L148.22182685307092,104.3420950713679L148.30435570989337,87.34983284993355L148.38688456671576,56.061512125556305L148.5519422803606,83.71992162998126L148.96458656447274,95.41324054572952L149.12964427811758,113.08579209298938L149.21217313494,124.42807522073859L149.8724039895194,84.58982311460433L149.95493284634182,89.92639356423452L150.2850482736315,110.30867106886373L150.45010598727637,95.93506737277441L150.61516370092122,103.65104281149601L150.6976925577436,140.65240087610883L150.86275027138845,162.0087934542432L151.19286569867816,145.50433313280485L151.27539455550055,125.41981602469073L151.4404522691454,96.89218805527862L151.6055099827903,109.20783220738925L151.6880388396127,101.14080468527582L151.85309655325753,107.57987111378993L151.93562541007995,114.23902221741125L152.01815426690237,112.837266743887L152.1006831237248,108.19402778864948L152.43079855101448,105.17618099275575L152.51332740783693,115.65877852175257L152.76091397830416,110.30560068047893L152.8434428351266,102.17705446718163L152.92597169194903,66.53795043300939L153.2560871192387,96.27186287444091L153.33861597606113,67.76604414565814L153.503673689706,97.81563869482935L153.91631797381808,43.8860856290446L154.57654882839748,54.086434255052055L154.82413539886477,68.17929538830896L154.98919311250958,70.89177665555272L155.15425082615442,111.24247237256607L155.23677968297687,83.59435974364834L155.56689511026656,90.3512377225179L155.7319528239114,90.22717329215483L155.97953939437866,101.80720680979388L156.06206825120108,148.8721337276391L156.22712596484592,152.41490903334935L156.80482796260287,107.24626990388109L156.96988567624774,116.69597630618091L157.05241453307016,101.00998413518784L157.38252996035985,82.55445218619953L157.46505881718227,124.47381796146256L157.71264538764956,66.91627104402953L157.79517424447195,74.47047548332992L157.8777031012944,102.2171159649456L158.04276081493924,93.59679390386783L158.12528967176164,43.27124017447305L158.2903473854065,94.643042548469L158.45540509905135,138.3164974761916L158.53793395587374,131.14377914079495L158.86804938316345,95.52776518781883L159.11563595363071,119.47191034413164L159.44575138092043,143.74031738031036L159.52828023774282,170.6111577809368L159.7758668082101,135.9630379746638L159.94092452185495,130.74672617577136L160.1059822354998,70.71288756895811L160.18851109232222,28.558338844643995L160.27103994914464,14.753310204937462L161.01379966054643,97.03218763597464L161.1788573741913,51.605304270480005L161.42644394465853,42.04103350692091L161.59150165830337,107.10913171005173L161.75655937194827,111.50208594827653L162.33426136970522,127.96349571833986L162.4167902265276,88.87141283906622L162.6643767969949,76.93684838497664L162.7469056538173,95.35069933479807L162.82943451063974,89.8123741477643L163.24207879475185,114.00369675061802L163.4896653652191,122.91642748640953L163.65472307886398,43.31278245022705L163.90230964933122,28.97948936691257L163.98483850615366,45.85871119427431L164.06736736297606,69.88598926313426L164.39748279026577,72.1462616721611L164.4800116470882,84.34396667232056L164.64506936073303,107.68008246861783L164.8101270743779,76.07538396295381L164.8926559312003,114.38636707168062L165.22277135848998,92.38774621505691L165.3053002153124,46.66432362180339L165.63541564260208,87.56598639986284L165.71794449942453,89.2408627356015L165.88300221306937,88.80341031194679L166.04805992671422,60.70155914942769L166.46070421082632,99.72461470678103L166.54323306764877,82.21702110510937L166.7082907812936,73.40223179246888L166.95587735176085,104.96850647806691L167.53357934951782,64.23925275196342L167.69863706316266,65.03018071167327L168.02875249045238,64.27100307999972L168.11128134727477,67.20854352651195L168.44139677456448,28.40879008211123L168.52392563138687,36.24390056285345L169.01909877232143,65.94854058809497L169.2666853427887,38.20107226316754L169.3492141996111,37.74342501730787L169.43174305643353,14.127996056135245L169.5968007700784,72.60699501093649L169.6793296269008,91.76528950072446L169.76185848372324,76.32861890432076L169.84438734054564,114.1133873494763L170.17450276783535,128.10232692220848L170.25703162465777,116.33995295652643L170.4220893383026,148.75623061800334L170.50461819512503,152.66683173176438L170.66967590876988,141.19501153370572L170.91726247923717,151.72784031321564L170.99979133605956,126.5358188942306L171.32990676334927,64.98578336574697L171.4124356201717,51.4709047677441L172.0726664747511,-5.096847707239535L172.4853107588632,44.717483636266664L172.98048389979772,-10.290748398428931L173.14554161344256,-23.111398090645356L173.55818589755467,38.67989139811058L173.88830132484435,35.22846768422323L174.3834744657789,28.224131759852668L174.7135898930686,-34.33549747439686L175.04370532035827,23.496272414580304L175.2087630340031,76.06212477573017L175.37382074764795,101.71494181119192L175.62140731811522,128.29096122304244L176.03405160222735,141.20354438820345L176.44669588633946,94.77735359421669L177.02439788409643,78.99914138685055L177.51957102503096,73.7594900439523L177.6846287386758,45.03856526532889L177.84968645232067,66.59413363356055L178.0147441659655,79.78649661416091L178.0972730227879,79.71846309006055L178.3448595932552,76.70930460789103L179.08761930465698,88.41387305994576L179.9954367297036,91.58575361937268L180.07796558652606,100.15306627367598L180.32555215699333,108.08300566400425L180.40808101381575,112.66375881208782L180.73819644110543,99.84418450749948L180.82072529792785,85.17724408232245L180.9857830115727,95.81136692128712L181.39842729568483,75.33684896413345L181.6460138661521,69.04838100007838L182.05865815026422,43.50579400313141L182.14118700708661,29.652791787702366L182.22371586390906,42.40729470968915L182.3887735775539,62.15988901726844L182.4713024343763,118.89934021360281L182.8839467184884,123.33212534448259L182.96647557531085,136.73197034271755L183.2140621457781,126.21711217825747L183.29659100260054,108.03575553437926L183.70923528671264,82.70854483919666L184.20440842764717,111.7736144029221L184.28693728446962,136.83164689794557L184.69958156858172,124.96129802012072L185.0296969958714,112.40938088453919L185.44234127998354,100.28972044392181L186.10257213456288,82.56349850236354L187.42303384372167,79.17799134543044L187.5055627005441,119.09737095137795L187.9182069846562,124.26927055184495L188.99108212334767,131.4803385809717L189.07361098017012,150.61135762854565L189.48625526428222,115.45487771648777L189.65131297792706,54.14041834376611L189.8163706915719,62.45143155030742L189.89889954839435,42.81941184933309L189.98142840521675,44.88869047169638L190.31154383250643,8.580038725151066L190.4766015461513,54.789617495776724L190.64165925979614,53.39989780614335L190.80671697344098,74.06136189160681L191.05430354390828,41.57974039234068L191.13683240073067,76.77130395520209L191.3018901143755,93.8970395843761L191.46694782802035,63.940576574721604L191.5494766848428,19.849773746653298L191.63200554166522,14.791103840234506L191.71453439848764,40.92493096253679L191.87959211213249,74.49632327964062L191.9621209689549,17.67251033450347L192.04464982577733,13.438113500389624L192.2922363962446,34.907176315263705L192.952467250824,38.45380154203473L193.28258267811367,59.46509171537756L193.3651115349361,56.92570709223816L193.61269810540335,72.27538971253685L194.1078712463379,13.822499025051801L194.1904001031603,0.3026511099381957L194.35545781680514,15.255528001064715L194.76810210091728,41.19118174981484L194.93315981456212,93.28194998111648L195.01568867138454,38.89742834458531L195.34580409867422,-6.232760387261477L195.42833295549667,19.393059328520298L195.84097723960878,33.1661474148513L196.00603495325362,-14.813760473347077L196.088563810076,18.905617713671777L196.25362152372085,10.40566717350448L196.9963812351227,10.409946877165867L197.0789100919451,35.42015232949307L197.24396780558993,34.66227786941464L197.40902551923477,40.823712894265256L197.65661208970207,38.28143042744289L197.7391409465245,27.70201757492587L198.4819006579263,51.40699535503412L198.97707379886083,93.12593094030247L199.55477579661778,89.91332549806485L199.88489122390746,60.249223762493386L199.96742008072988,88.06849193682723L200.29753550801956,104.93180004137162L201.04029521942138,29.85100325474721L201.3704106467111,36.019370018247606L201.45293950353349,61.336019624127296L201.53546836035594,72.70406966110762L201.94811264446804,115.19323561479739L202.44328578540257,141.97120818624336L202.69087235586986,158.63902741795874L202.77340121269225,174.43065034216076L202.8559300695147,90.50404337561167L203.10351663998196,61.54995502172305L203.2685743536268,34.34710658968084L203.43363206727165,29.189923192120325L203.51616092409407,19.01252271004706L203.5986897809165,19.251106226083223L203.92880520820617,9.918670608454619L204.093862921851,9.821579459579658L204.34144949231828,33.194786671444L204.42397834914073,55.063968734738495L204.50650720596312,83.15901664630442L204.83662263325283,115.38332585743366L205.33179577418736,115.19092158235664L205.90949777194433,108.18964642239544L205.99202662876675,139.52668147020535L206.07455548558917,162.3344807306608L206.48719976970128,99.72024849836772L206.56972862652373,79.79754393926464L206.73478634016854,55.80364419771819L207.3950171947479,31.724255103918715L207.56007490839275,74.74137383916757L207.72513262203762,109.57362963506404L207.80766147886004,125.23230995252105L208.0552480493273,62.55901683454817L208.63295004708428,112.32669803340775L208.88053661755154,32.12418388602637L209.04559433119638,6.436158178155397L209.21065204484123,30.253356080898506L209.62329632895336,22.44832917031421L210.03594061306543,6.955625325319819L210.11846946988786,-24.210634069267464L211.43893117904662,-20.26635945697791L211.6865177495139,10.673571172794295L211.7690466063363,39.153280865666076L211.85157546315875,44.78624941228815L211.93410431998117,42.51377686475308L212.18169089044844,36.65817872685093L212.34674860409328,-16.807101085980946L212.75939288820538,-6.538691115273147L213.00697945867267,34.06343388374638L213.1720371723175,28.623316811280446L213.50215259960717,21.29854073949782L213.58468145642962,-6.726528857905223L214.82261430876594,-2.1287791923902466L215.15272973605565,24.479309611223275L215.23525859287807,31.379617007064077L215.4003163065229,33.94937877506062L215.48284516334533,29.150593967738835L215.97801830427986,32.999568496221116L216.0605471611023,36.44362050278289L216.22560487474715,10.596334554760341L216.39066258839196,42.45591918133811L216.63824915885925,43.27946410765603L216.7207780156817,60.23276899013155L216.88583572932654,62.371042614983146L217.13342229979378,68.56635624059439L217.4635377270835,88.09932674997452L217.62859544072833,67.39189768150369L217.71112429755073,71.47542729295989L217.8761820111956,104.16332506557882L217.95871086801802,91.9977642411962L218.53641286577496,105.33708320152199L218.7014705794198,128.66523468841393L218.9490571498871,112.57635992224519L219.11411486353194,115.38757193125865L219.19664372035436,130.17286697428273L219.27917257717678,127.56204345734393L219.77434571811133,56.38836093878623L220.59963428633552,115.18897643521403L220.76469199998036,153.2266567213956L221.1773362840925,69.9323538442048L221.34239399773733,23.461265305053974L221.67250942502704,9.03887712738464L221.75503828184944,14.649215089002615L221.8375671386719,20.34336438825832L222.00262485231673,7.915454757084925L222.16768256596157,26.241348736445655L222.250211422784,36.98246419841914L222.58032685007367,45.028554816700414L223.0754999910082,89.74917426929447L223.24055770465307,96.44891941623018L223.4056154182979,125.19299881485541L223.7357308455876,3.846463664783666L224.47849055698939,8.010095852703392L224.56101941381183,10.694924485564844L224.64354827063423,58.53010639710017L224.9736636979239,64.48932919906113L225.38630798203604,-19.520109717428195L225.5513656956809,-6.494922902856037L225.8814811229706,101.58440145065671L225.964009979793,71.46069170601237L226.21159655026028,50.25000952501083L226.37665426390512,35.313909456330016L226.6242408343724,30.108855872136175L227.03688511848452,64.38400355739985L227.20194283212933,88.6633775937723L227.36700054577418,112.40040695140642L227.44952940259662,134.45302823263648L227.8621736867087,146.46300880039362L228.02723140035357,58.657496241081404L228.43987568446568,41.88092675526135L228.68746225493294,35.90625136994559L228.85251996857778,64.21941138321115L229.01757768222262,59.90880287627068L229.43022196633476,94.81144385699568L229.67780853680202,114.6900482343736L229.84286625044686,116.62723518440788L230.0079239640917,141.32308012089177L230.09045282091415,152.5379209052672L230.3380393913814,147.20458921052202L230.4205682482038,149.72215946961458L230.50309710502626,125.73135042831788L230.7506836754935,143.66715782234849L230.83321253231594,159.993914481642L230.91574138913833,95.9503199729359L231.57597224371773,104.13380403458147L231.65850110054018,96.9014335179609L231.74102995736257,101.903877175442L231.9060876710074,100.83134330969433L231.98861652782986,103.87891241907238L232.31873195511955,131.9780223455701L232.4837896687644,152.13077558018108L233.22654938016618,138.9215499492819L233.63919366427828,123.9146309624058L233.72172252110073,105.15272536046494L233.80425137792312,106.65405850596808L233.96930909156802,117.1467492139249L234.3819533756801,111.47985894957023L234.46448223250252,99.24974682788044L234.54701108932497,116.035720759532L234.62953994614736,129.64299833389018L234.7945976597922,125.98361564308728L234.95965537343704,145.79183753969147L235.28977080072676,165.12212894137303L235.61988622801644,157.38622346338187L235.70241508483886,144.12044829847022L235.86747279848373,108.09150585061428L236.11505936895097,114.32158426813015L236.2801170825958,93.89655553504414L236.85781908035278,136.16266412430403L237.2704633644649,100.49122091230255L237.51804993493215,85.34611463212538L237.93069421904428,105.70349174834189L238.17828078951155,117.79149206335481L238.26080964633397,126.19794322443616L238.3433385031564,131.18389460652182L238.67345393044607,139.78164162851218L239.00356935773576,91.11276812395533L239.1686270713806,66.26113860525001L239.82885792596,74.39937652202113L239.91138678278242,75.54684506040701L239.99391563960484,107.02097201793896L240.32403106689452,94.77134647438153L240.65414649418423,25.59286894163736L240.98426192147392,59.36431066928317L241.0667907782963,89.33978889529357L241.39690620558602,49.01533066676101L241.47943506240844,53.3635978549071L241.56196391923086,118.54751310736457L241.64449277605328,42.265227756865244L241.974608203343,45.25261825144915L242.22219477381023,50.88673219489037L242.46978134427752,71.71088668532356L242.63483905792236,71.63951021403541L242.7998967715672,70.13677835752323L243.13001219885692,45.369568722646484L243.54265648296902,32.11376697703282L243.62518533979144,11.252024916159035L243.70771419661386,34.405708007473116L243.8727719102587,24.31325052985786L243.9553007670811,22.824645087097473L244.120358480726,37.777888242093134L244.28541619437084,52.23811854911437L244.36794505119323,46.391817287475234L244.45047390801565,65.05813690171854L245.11070476259502,61.366063651231926L245.27576247623986,71.44501583018628L245.52334904670715,68.52974956077227L245.60587790352957,101.05848406233872L245.688406760352,62.78972710441159L245.77093561717442,81.07783132106728L245.93599333081926,88.00902824648344L246.1010510444641,117.45253095579547L246.3486376149314,132.14325130983417L246.43116647175378,111.93895490070418L246.7612818990435,97.44487973167969L246.84381075586592,77.161143911953L246.92633961268834,86.32590423097825L247.17392618315563,78.52743993017248L247.83415703773497,90.8369691646729L249.31967646053857,84.77752530747412L249.40220531736102,69.75869587010979L249.81484960147313,71.74489431949988L249.89737845829555,65.49167388311932L250.06243617194042,83.579606201791L250.22749388558526,63.33099411844901L250.31002274240765,46.5056921012493L250.55760931287494,43.11875488095999L250.8877247401646,63.80274561439037L250.97025359698705,80.60949520159471L251.1353113106319,52.791668509194494L251.30036902427673,44.35635834521825L251.38289788109915,62.18901286428908L251.79554216521126,67.48865960133249L251.87807102203368,43.64506944617829L252.12565759250097,50.18032021339482L252.20818644932336,66.09027405345623L252.53830187661308,39.54228650872917L252.6208307334355,45.994520734056884L252.70335959025792,31.00566448431445L253.19853273119244,41.61773833937084L253.36359044483729,36.959046354897126L253.44611930165973,21.49972179458576L253.52864815848213,42.04565483829256L254.60152329717366,65.5448008991221L254.68405215399605,66.06990239733364L254.84910986764092,56.467862061901066L255.261754151753,92.1455786430043L255.67439843586513,87.27260768613256L255.83945614950997,112.79256936789737L256.3346292904445,107.12886694706478L256.49968700408937,63.3149930537553L256.6647447177342,87.96129913101603L256.82980243137905,80.51293205566276L256.9123312882015,88.86391919601859L257.0773890018463,93.95908993506764L257.4900332859584,94.48134774583731L257.57256214278084,130.04506163364726L257.65509099960326,125.09318654689582L257.7376198564257,103.56643054547271L257.98520642689294,103.26975521700739L258.0677352837154,66.21738129818524L258.3153218541826,61.24162262887808L258.39785071100505,102.41507555206042L258.4803795678275,90.12307381341815L258.5629084246499,107.44470383816316L258.8930238519396,117.73348362792115L258.97555270876205,136.92333470864966L259.38819699287416,110.06765012779985L259.553254706519,104.99082661115342L259.9658989906311,101.07949780593067L260.0484278474535,130.3750574779914L260.21348556109837,88.9335305346528L260.3785432747432,40.6663983641855L260.46107213156563,-17.468648928400448L261.4514184134347,-0.1414100066503423L261.6164761270795,4.778103466103526L261.699004983902,18.742128503863377L262.0291204111917,-5.211947328510131L262.4417646953038,-6.855770035081645L263.01946669306074,4.162853941232139L263.10199554988316,54.74996937242025L263.51463983399526,4.498723805446159L263.6796975476401,6.450790204322984L264.0923418317522,27.986326758881873L264.1748706885747,21.03959222451408L264.25739954539705,43.095424063444135L264.3399284022195,54.95494556724941L265.0826881136213,55.64213049078527L265.4953323977334,87.82099098039448L265.7429189682007,96.69227866540513L265.8254478250231,118.1357528280208L266.5682075364249,136.64030910196507L266.73326525006973,93.09733927051516L266.980851820537,124.13284274571733L267.14590953418184,121.20756259771746L267.6410826751164,115.55978544419835L268.21878467287337,80.77078648095603L268.3838423865182,94.3852468326126L268.46637124334063,78.73971306674092L268.6314289569855,0.6066331696053219L268.87901552745274,22.893210836331175L269.2091309547424,83.93903998813666L269.4567175252097,50.19953530250016L269.5392463820321,63.97163037101893L269.70430409567695,34.11920070454415L269.8693618093218,19.740927107620234L269.95189066614427,18.493328886167816L270.4470638070788,24.75172070485188L270.5295926639012,17.29361183483923L270.69465037754605,51.07847880310364L270.8597080911909,42.62036588229295L271.10729466165816,56.097701273496895L271.6849966594151,82.31709208465448L272.0151120867048,59.844570672787434L272.0976409435272,33.57702473065785L272.3452275139945,22.001996323425907" fill="none"></path></g></g></g></g><g opacity="0.2"><g><g><g><path style="fill: none;" stroke="rgb(255, 112, 67)" stroke-width="2px" d="M42.33730354990278,230.4797905592908L42.74994783401489,100.91292777798618L42.91500554765974,101.06016440039457L43.16259211812701,116.70509359099742L43.32764983177185,242.01677734576595L43.41017868859427,139.81916718969546L43.57523640223912,100.61868423148827L43.74029411588397,94.21404134408522L43.987880686351225,209.07314849313298L44.152938399996074,209.07314849313298L44.730640397753035,169.78049466719585L45.060755825042726,167.7888865587106L45.14328468186515,6.101289152195971L45.225813538687575,128.31278328693702L45.47340010915484,164.2093563026383L46.21615982055664,2.735572692807228L46.29868867737906,42.498118602787166L46.38121753420148,107.368104295545L46.62880410466875,80.56948413628834L46.87639067513602,7.6627429858063225L47.20650610242571,127.15438816112328L47.5366215297154,43.219212302188254L47.619150386537825,73.00922900655043L47.701679243360246,67.70586587451409L47.86673695700509,131.47052558767246L48.03179467064994,125.69543278504217L48.11432352747236,94.51784387446924L48.27938124111721,144.55120876079764L48.36191009793963,149.37978546768863L48.52696781158448,184.55909014445342L48.69202552522932,144.21173231457988L49.26972752298627,237.68150207370542L49.59984295027596,237.68150207370542L49.76490066392081,126.63574702617143L50.0950160912105,103.1545183338294L50.507660375322615,46.23580498596585L50.59018923214504,199.4605433013895L51.58053551401411,158.00642387742346L51.66306437083653,218.92631408388456L51.99317979812622,91.95957001328271L52.24076636859349,232.72022820626418L52.40582408223834,111.23281384906979L52.570881795883174,108.17802056795063L53.313641507284984,135.05311259829614L53.80881464821952,125.24268856395952L54.221458932331636,117.24069706334421L54.30398778915405,190.9926131781815L54.55157435962132,110.53695162654367L54.71663207326616,139.03143447416414L54.88168978691101,175.00364007863527L55.37686292784555,62.75468327264026L55.45939178466797,143.9710438145862L56.20215149606977,235.58438513453083L57.52261320522854,180.5079450669466L57.7701997756958,96.04473694563741L57.85272863251822,181.99247646738104L58.017786346163064,139.20566948359283L58.265372916630334,67.22549601330958L58.843074914387294,162.0843818163853L59.00813262803214,162.0843818163853L59.090661484854564,140.9293433376438L59.42077691214425,154.0983366798314L59.50330576896667,150.0478365245276L59.5858346257891,164.16232998912096L59.66836348261152,163.90604850709497L59.91595005307879,145.06240236948702L59.99847890990121,95.76316214488135L60.3285943371909,143.62756531688933L60.41112319401332,140.62287277294035L60.49365205083575,174.52012511737212L60.90629633494786,205.66254368150268L61.07135404859271,116.53638901032355L61.153882905415124,170.72743482137003L61.483998332704815,33.39291258019604L61.896642616816926,174.7333204955048L61.979171473639354,141.80140183985986L62.144229187284196,45.73831376545333L62.309286900929045,40.234477008330515L62.391815757751466,109.29721679219074L62.47434461457389,129.3496238293044L62.72193118504115,150.18991376931172L62.886988898686,144.5412433875781L63.13457546915327,98.18271589055985L63.29963318279811,180.90734627074244L63.54721975326538,193.47944202764256L63.6297486100878,172.33470463504818L63.95986403737749,186.88496231422778L64.04239289419992,99.64550546165628L64.12492175102234,158.71753453450356L64.20745060784476,105.47945404122676L64.45503717831203,185.1133345188332L64.53756603513445,126.21657409784963L64.95021031924657,120.11683805967142L65.61044117382595,227.13822334431302L65.77549888747079,132.2944622920811L65.85802774429321,127.36367866783486L66.02308545793805,128.15313412075784L66.18814317158291,119.70539536323533L66.27067202840533,187.69546166698137L66.51825859887259,106.6441128635056L66.60078745569501,161.98308485775487L66.68331631251743,123.51713295060381L66.84837402616229,157.99442655753683L67.34354716709682,174.96135791885808L67.42607602391924,176.1612665985358L67.50860488074166,138.72438082911276L67.92124916485378,116.73718067923619L68.08630687849862,88.90587221645366L68.16883573532104,39.76864881762188L68.3338934489659,209.8109350761318L69.15918201719012,110.36174481653508L69.32423973083496,144.74945607910104L69.57182630130222,202.0086839328927L69.8194128717695,73.64650048865816L69.98447058541434,104.06532517553207L70.2320571558816,214.83073563349865L70.39711486952646,150.850879516468L70.56217258317129,166.66174807336733L70.72723029681615,197.5904102653941L70.97481686728341,108.3863746122852L71.05734572410583,103.20547602242004L71.22240343775069,162.01407646170355L71.80010543550765,106.81799449090524L71.88263429233007,227.37790912279922L71.96516314915249,241.60610325524306L72.04769200597491,48.62915545418948L72.87298057419913,148.837909464326L73.12056714466641,110.22954459946324L73.20309600148883,151.45645263056895L73.53321142877851,184.9686599161355L73.94585571289063,131.77328564107074L74.11091342653546,143.9404409308695L74.2759711401803,178.95337334835222L74.52355771064758,120.955669816605L74.77114428111484,175.74485005004067L75.26631742204938,106.33078668743838L75.3488462788718,152.47289419530875L75.51390399251666,61.28134524797634L75.59643284933908,92.97992528399436L76.0916059902736,84.62418953773796L76.17413484709604,86.78823040730369L76.4217214175633,138.91432366973322L76.751836844853,170.55031091385376L76.83436570167542,144.45079525723986L76.91689455849784,182.0596190529027L76.99942341532027,138.11820696556242L77.41206769943238,67.35205978701788L77.65965426989963,132.60793865551068L77.74218312672205,108.54302886576806L77.82471198354447,168.66516797617396L78.2373562676566,171.93720285965856L78.65000055176871,86.22811989124148L78.81505826541355,179.81278960847862L78.89758712223598,112.46730096029115L78.9801159790584,124.29022681558126L79.06264483588082,141.1051155588989L79.22770254952567,198.18551001960873L79.88793340410506,132.67182129181424L80.21804883139474,71.26786838194494L80.30057768821717,159.5046046587304L81.12586625644138,52.856099256603564L81.5385105405535,88.22416294419145L81.70356825419834,94.5153348620629L81.78609711102077,155.63365791239266L81.86862596784319,114.99465389393481L81.95115482466561,92.29717353474645L82.2812702519553,245.7586888528296L82.69391453606742,180.71735925736834L82.77644339288985,102.96132437854158L83.02402996335711,147.4732540826999L83.43667424746923,109.67321527111199L83.51920310429165,78.31207973464463L83.84931853158133,135.87060008067442L83.93184738840377,134.49468064687198L84.01437624522619,108.18752654453237L84.17943395887103,145.15685255130438L84.42702052933828,60.478779321775185L84.75713595662798,201.35809878284007L84.8396648134504,0.2601315792326665L85.1697802407401,121.02587799122875L85.25230909756252,201.09348631947896L85.66495338167464,139.97365697825035L85.83001109531948,131.24260301347863L86.2426553794316,103.44962766629851L86.32518423625402,134.34956431663795L86.40771309307644,78.23327554216395L86.6552996635437,142.32424822095754L86.73782852036612,137.8884909775711L86.82035737718854,78.11335535060199L87.06794394765582,168.68569947206242L87.15047280447824,200.75512302665277L87.23300166130066,231.87699242579345L87.31553051812308,58.72552739189179L87.72817480223519,165.59709636531284L87.89323251588003,232.20381558673313L87.97576137270245,103.20211889314396L88.05829022952489,113.10890137225489L88.1408190863473,113.97765575249923L88.38840565681457,151.64475224475427L88.55346337045941,231.73458388535707L88.80104994092669,131.64632431257974L88.88357879774911,81.69246154823942L89.29622308186123,70.9362193476709L89.37875193868365,67.1481936944524L89.62633850915091,224.24243430717002L89.79139622279575,73.09411136993096L90.20404050690787,145.93883397431273L90.36909822055271,138.6479442962268L90.61668479101999,22.833468831611793L90.78174250466483,151.74286876512315L90.86427136148725,120.43871608084191L90.94680021830968,68.08053917082634L91.02932907513211,176.37101650188515L91.19438678877695,158.36562787541357L91.27691564559936,102.7317850815648L91.4419733592442,157.6067488025551L91.60703107288904,130.4915955253175L91.68955992971148,138.86939114473807L91.7720887865339,114.81757415917218L92.01967535700116,170.2745934202294L92.26726192746844,153.77712124996538L92.67990621158054,41.019744884209125L93.01002163887024,68.71362307588971L93.09255049569266,83.1837690490811L93.2576082093375,177.57550147883921L93.50519477980478,197.1298077114402L93.83531020709447,169.37164932867336L93.91783906391689,142.39534868520468L94.08289677756174,98.58560674189266L94.16542563438416,125.31289673858328L94.24795449120658,23.851915839366516L94.330483348029,205.17861791363077L94.6605987753187,178.8834478793517L94.74312763214111,171.03888807268322L94.90818534578595,3.610316898444165L94.99071420260837,151.41977157595238L95.32082962989807,128.16645662325345L95.98106048447745,170.73943214125666L96.31117591176714,125.95028306985046L96.39370476858957,191.83748776781204L96.64129133905683,168.15708412934032L96.72382019587926,76.19768904016202L96.80634905270168,180.03610938174393L96.97140676634652,152.10747067360717L97.05393562316895,204.8755928237107L97.2189933368138,67.72440076193836L97.38405105045864,65.8552571956243L97.46657990728106,151.58292805877L97.63163762092591,163.64706365254665L97.79669533457076,150.5699849761179L98.044281905038,52.08305839893048L98.29186847550528,-30.57188504512121L98.62198390279497,84.35505378440484L98.70451275961739,58.410487312983626L99.28221475737435,167.22343997400958L99.4472724710192,183.52514733472435L99.52980132784162,140.11783684610737L99.94244561195373,67.98228129764586L100.27256103924343,135.87927560948788L100.43761875288827,140.58082031148206L100.76773418017797,190.21521688700022L101.18037846429009,157.45730354246507L101.59302274840218,106.21618489541379L101.6755516052246,106.15496145887892L101.75808046204703,-5.335248792518502L102.0056670325143,130.75857564827334L102.17072474615914,142.30574867173618L102.33578245980398,197.75830648467647L102.41831131662641,106.42955696456103L102.58336903027126,128.99183335943053L102.83095560073852,169.17922397929874L102.91348445756094,170.14422195515795L102.99601331438338,178.0017243786408L103.16107102802822,138.34297560514688L103.32612874167306,152.28509815051484L103.40865759849548,208.84992589992564L103.57371531214034,168.3731065637055L103.73877302578518,147.43431138309734L104.06888845307486,86.55796667716733L104.23394616671972,160.5604394851598L104.5640615940094,134.2259866210752L104.64659045083182,-64.28135017930974L104.8941770212991,-10.299771565989404L105.05923473494393,119.08440595811658L105.30682130541119,75.98493538956563L105.47187901905605,32.443127700687924L105.63693673270089,111.01009482525387L105.88452330316815,114.11823112365983L106.13210987363543,167.25920223535059L106.21463873045785,138.33690626879775L106.62728301456997,34.09416387866534L107.03992729868207,209.06786543179848L107.37004272597177,38.66360554364567L107.45257158279419,176.45771878271535L107.53510043961661,188.37206456892363L107.86521586690631,189.35152470432217L108.2778601510184,150.1135567473823L108.52544672148568,117.71891129417145L108.6079755783081,231.55738930143502L108.69050443513052,45.16839689808467L108.77303329195294,130.11290250842467L108.9380910055978,-115.50506476142975L109.18567757606506,194.24102447302334L109.43326414653232,139.03273315312094L110.17602385793414,115.29161848205649L110.4236104284014,119.67162971035852L111.00131242615836,141.6728944649917L111.08384128298079,116.31644403543578L111.1663701398032,155.8307214008987L111.4964855670929,157.1531829682549L111.66154328073775,125.14131209437255L111.82660099438257,209.91814676647368L111.90912985120502,164.3766385206452L112.23924527849469,221.35385426341986L112.73441841942923,148.5427029517989L112.89947613307407,144.13118771560607L113.14706270354135,161.07279041999436L113.22959156036377,79.90565599469666L113.47717813083104,188.07983529999137L113.72476470129831,103.36426823717875L113.88982241494315,62.52033798006824L114.054880128588,123.03927210180564L114.46752441270012,131.14612088499416L114.55005326952254,125.2256290465066L114.7976398399898,88.82220902107339L115.1277552672795,157.51237813169428L115.29281298092432,174.7763359229923L115.62292840821402,125.85959640664261L115.70545726503644,139.6772401322737L115.9530438355037,65.40868832549951L116.11810154914856,150.5166507933818L116.20063040597098,205.1302620002291L116.44821697643825,152.08289295348595L116.53074583326067,194.11955823508424L116.77833240372794,34.553666531053764L116.86086126055037,73.64899183196304L116.94339011737279,-17.36476178199786L117.43856325830733,190.05699891803874L117.85120754241943,12.791659079196545L118.01626525606429,42.86418704669179L118.09879411288671,68.06419525198227L119.25419810840062,171.41149408412548L119.33672696522304,144.02693118248226L119.50178467886788,144.6487863735722L120.07948667662484,115.97770969147906L120.16201553344726,170.62338148291292L120.24454439026968,131.3426189622537L120.57465981755938,134.2331426071637L120.6571886743818,33.25742591025393L120.9873041016715,89.5593639336953L121.31741952896118,52.38786806809732L121.3999483857836,134.5020486621779L121.56500609942846,165.87163002913985L121.7300638130733,144.58723605866044L121.81259266989572,150.56614194655185L121.89512152671814,-35.946260295897396L121.97765038354055,198.75354071039726L122.63788123811993,51.293267233079874L122.96799666540963,198.50971152762028L123.13305437905447,88.48054160627545L123.38064094952175,93.85097664742763L123.79328523363385,166.87628630321046L124.28845837456839,93.30825252719524L124.37098723139081,81.14445436667256L124.45351608821325,27.294881610308078L124.61857380185809,213.13072954084404L124.86616037232535,69.05855927445647L125.69144894054958,72.59891713260733L125.85650665419442,-57.86421523717941L126.02156436783926,65.3196183850746L126.26915093830654,105.26604663387663L126.5167375087738,155.7177451662078L126.68179522241864,145.68196941193878L126.76432407924106,165.55055595208546L127.17696836335318,196.65112524942447L127.2594972201756,192.21952907943023L127.50708379064288,77.18214069672105L127.5896126474653,119.27717585496954L127.67214150428772,212.67749058492072L127.91972807475499,34.650775912639816L128.0022569315774,66.60197109213233L128.3323723588671,104.97307526268334L128.49743007251195,185.7489981127087L128.99260321344647,157.8867687223833L129.1576609270913,121.41003959502132L129.4052474975586,158.90335163993473L129.7353629248483,80.74691725308004L130.06547835213797,75.41871136440068L130.23053606578281,128.91923102155988L130.56065149307253,162.9561841166303L130.64318034989495,126.38991681765492L131.05582463400705,174.63114008180173L131.2208823476519,194.86835708556373L132.21122862952097,116.25223452075535L132.54134405681066,65.9809198451585L132.62387291363308,89.00411242053269L132.7064017704555,38.89181965801347L132.95398834092276,99.16699085610435L133.1190460545676,168.22509250083317L133.36663262503487,228.27636967986155L133.69674805232458,145.89046480908496L133.86180576596942,118.54875831301615L133.9443346227918,153.50227837686293L134.27445005008153,174.92859057021337L134.35697890690395,19.213334980400344L134.6045654773712,62.7721403448759L134.9346809046609,157.02385398016918L135.01720976148331,87.52361840978028L135.18226747512819,125.90724997326153L135.34732518877303,134.2714668882154L135.5949117592403,3.9570200071562347L136.0075560433524,147.75366272276005L136.17261375699724,131.89628025628554L136.33767147064208,117.9580979205416L136.58525804110937,135.0175712007233L136.99790232522147,-10.165716093264992L137.0804311820439,139.6597565563859L137.24548889568874,37.096091208236906L137.41054660933358,178.07546637355517L137.493075466156,217.95669563799538L137.57560432297845,134.85191454005007L137.82319089344568,-40.507786203426775L138.40089289120266,178.06952955546694L138.48342174802508,27.277212508854998L138.81353717531476,148.52577595260686L139.22618145942687,153.3003205472544L139.55629688671658,118.5914203584746L139.88641231400626,93.0595775933448L139.96894117082869,158.3259872463036L140.3815854549408,186.09660234559487L140.54664316858566,67.74927885678427L140.7117008822305,76.28868491264531L140.87675859587534,29.861884007612403L141.12434516634258,109.58319119920861L141.20687402316503,86.6258160267471L141.5369894504547,119.44860147726719L142.03216259138924,124.24133641186064L142.19722030503408,118.99419636064796L142.36227801867895,140.30461691756773L142.5273357323238,128.91806486086398L142.6098645891462,104.56735735511803L143.02250887325832,146.82340220035758L143.43515315737042,190.1324371466926L143.6827397278377,159.91898926055842L143.84779744148256,213.02874790453234L144.4254994392395,187.11087061085595L144.6730860097068,24.891000357618434L144.8381437233516,70.32951541107697L144.92067258017403,148.958571758149L145.00320143699645,58.69093129124668L145.0857302938189,149.04230562993507L145.66343229157584,44.57688838874038L145.8284900052207,120.10250841839297L146.07607657568795,50.66043069543685L146.15860543251037,138.56355666768695L146.24113428933282,107.40407858610342L146.73630743026735,32.59914586651851L147.14895171437945,199.1519877827146L147.3965382848467,171.3651215273619L147.47906714166913,82.0484586043158L148.13929799624853,78.69249548892913L148.22182685307092,106.45980646624866L148.30435570989337,61.86143951778196L148.38688456671576,9.129031038990467L148.5519422803606,125.20753588661864L148.96458656447274,112.95321891935193L149.12964427811758,139.59461941387917L149.21217313494,141.44149991236236L149.8724039895194,24.832444955402966L149.95493284634182,97.93124923867981L150.2850482736315,140.88208732580756L150.45010598727637,74.37466182864047L150.61516370092122,115.22500596957845L150.6976925577436,196.15443797302802L150.86275027138845,194.04338232144468L151.19286569867816,120.74764265064732L151.27539455550055,95.29304036251962L151.4404522691454,54.10074610116045L151.6055099827903,127.68129843555518L151.6880388396127,89.04026340210567L151.85309655325753,117.23847075656113L151.93562541007995,124.22774887284322L152.01815426690237,110.73463353360057L152.1006831237248,101.22916935579316L152.43079855101448,100.64941079891514L152.51332740783693,131.3826748152478L152.76091397830416,102.27583391856842L152.8434428351266,89.98423514723572L152.92597169194903,13.079294381751003L153.2560871192387,140.87273153658816L153.33861597606113,25.00731605248396L153.503673689706,142.89003051858617L153.91631797381808,-37.0082439696325L154.57654882839748,69.38695719406314L154.82413539886477,89.31858708819438L154.98919311250958,74.96049855641833L155.15425082615442,171.76851594808613L155.23677968297687,42.12219080027173L155.56689511026656,100.48655469082223L155.7319528239114,90.04107664661025L155.97953939437866,119.17725708625245L156.06206825120108,219.4695241044069L156.22712596484592,157.72907199191468L156.80482796260287,39.49331120967874L156.96988567624774,130.8705359096307L157.05241453307016,77.48099587869821L157.38252996035985,54.87115426271704L157.46505881718227,187.35286662435715L157.71264538764956,-19.42004933211999L157.79517424447195,85.80178214228044L157.8777031012944,143.83707668736906L158.04276081493924,80.66631081225115L158.12528967176164,-32.217090419619076L158.2903473854065,171.7007461094629L158.45540509905135,203.8266798677755L158.53793395587374,120.38470163769989L158.86804938316345,42.10374425835473L159.11563595363071,155.38812807860086L159.44575138092043,180.14292793457844L159.52828023774282,210.91741838187647L159.7758668082101,83.99085826525426L159.94092452185495,122.9222584774327L160.1059822354998,-19.337870341261766L161.1788573741913,-16.535020777761904L161.42644394465853,27.69462736158224L161.59150165830337,204.7112790147479L161.75655937194827,118.0915173056137L162.33426136970522,152.6556103734349L162.4167902265276,30.23328852015586L162.6643767969949,59.035001703842234L162.7469056538173,122.97147575953022L162.82943451063974,81.50488636721367L163.24207879475185,150.29068065489855L163.4896653652191,136.28552359009677L163.65472307886398,-76.09268510404668L163.90230964933122,7.479549741940933L163.98483850615366,71.17754393531686L164.06736736297606,105.92690636642419L164.39748279026577,75.53667028570136L164.4800116470882,102.64052417255971L164.64506936073303,142.68425616306376L164.8101270743779,28.6683362044578L164.8926559312003,171.8528417347709L165.22277135848998,59.38981493012126L165.3053002153124,-21.92081026807678L165.63541564260208,148.91848056695198L165.71794449942453,91.75317723920944L165.88300221306937,88.14723167646481L166.04805992671422,18.548782405649074L166.46070421082632,158.25919804281102L166.54323306764877,55.95563070260188L166.7082907812936,60.18004782350819L166.95587735176085,152.3179185064639L167.53357934951782,3.14537216280819L167.69863706316266,66.21657265123805L168.02875249045238,63.13223663248938L168.11128134727477,71.61485419628025L168.44139677456448,-29.790840084489847L168.52392563138687,47.99656628396681L169.01909877232143,110.50550062595723L169.2666853427887,-3.4201302242235596L169.3492141996111,37.05695414851837L169.43174305643353,-21.295147385623697L169.5968007700784,160.32549344313838L169.6793296269008,120.50273123540639L169.76185848372324,53.17361300971516L169.84438734054564,170.79054001720965L170.17450276783535,149.0857362813067L170.25703162465777,98.69639200800339L170.4220893383026,197.38064711021866L170.50461819512503,158.53273340240594L170.66967590876988,123.98728123661772L170.91726247923717,167.52708348248052L170.99979133605956,88.74778676575308L171.32990676334927,-27.339269926978393L171.4124356201717,31.19858687073977L172.0726664747511,-89.94847641971496L172.4853107588632,119.438980651526L172.98048389979772,-92.8030964504723L173.14554161344256,-24.50108216057237L173.55818589755467,131.3668256312444L173.88830132484435,30.051332113392178L174.3834744657789,17.717627873296845L174.7135898930686,-128.17494132577116L175.04370532035827,110.24392724804602L175.2087630340031,154.910903317455L175.37382074764795,140.1941673643846L175.62140731811522,168.15499034081813L176.03405160222735,160.57241913594498L176.44669588633946,25.138067403236658L177.02439788409643,55.33182307580139L177.51957102503096,65.90001302960492L177.6846287386758,1.957178097393847L177.84968645232067,98.92748618590805L178.0147441659655,99.57504108506146L178.0972730227879,79.61641280390995L178.3448595932552,72.19556688463673L179.08761930465698,105.97072573802781L179.9954367297036,96.3435744585131L180.07796558652606,113.00403525513093L180.32555215699333,119.97791474949668L180.40808101381575,119.53488853421322L180.73819644110543,80.61482305061692L180.82072529792785,63.17683344455691L180.9857830115727,111.76255117973415L181.39842729568483,44.62507202840289L181.6460138661521,59.615679053995805L182.05865815026422,5.1919135077110115L182.14118700708661,8.8732884645588L182.22371586390906,61.539049092669316L182.3887735775539,91.78878047863738L182.4713024343763,204.00851700810435L182.8839467184884,129.98130304080223L182.96647557531085,156.83173784007L183.2140621457781,110.44482493156738L183.29659100260054,80.76372056856191L183.70923528671264,44.71772879642277L184.20440842764717,155.37121874851027L184.28693728446962,174.4186956404808L184.69958156858172,107.15577470338349L185.0296969958714,93.5815051811669L185.44234127998354,82.11022978299572L186.10257213456288,55.97416559002615L187.42303384372167,74.09973061003075L187.5055627005441,178.9764403602992L187.9182069846562,132.0271199525455L188.99108212334767,142.29694062466183L189.07361098017012,179.30788619990653L189.48625526428222,62.72015784840097L189.65131297792706,-37.83127071531631L189.8163706915719,74.91795136011933L189.89889954839435,13.371382297871651L189.98142840521675,47.99260840524131L190.31154383250643,-45.882938894666886L190.4766015461513,124.10398565171522L190.64165925979614,51.3153182716933L190.80671697344098,105.05355801980204L191.05430354390828,-7.1426918565584465L191.13683240073067,129.55864929949416L191.3018901143755,119.58564302813716L191.46694782802035,19.005882060239887L191.5494766848428,-46.2864304954491L191.63200554166522,7.203098980606267L191.71453439848764,80.12567164599024L191.87959211213249,124.8534117552963L191.9621209689549,-67.56320908320225L192.04464982577733,7.086518249218944L192.2922363962446,67.11077053757481L192.952467250824,43.77373938219127L193.28258267811367,90.98202697539182L193.3651115349361,53.11663015752902L193.61269810540335,95.29991364298485L194.1078712463379,-73.8568370061757L194.1904001031603,-19.97712076273223L194.35545781680514,37.68484333775452L194.76810210091728,80.0946623729401L194.93315981456212,171.41810232806893L195.01568867138454,-42.679354110211484L195.34580409867422,-73.92804348503152L195.42833295549667,57.83178890219279L195.84097723960878,53.825779544347846L196.00603495325362,-86.78362230564467L196.088563810076,69.48468499420007L196.25362152372085,-2.344258636746378L196.9963812351227,10.416366432657957L197.0789100919451,72.93546050798388L197.24396780558993,33.52546617929695L197.40902551923477,50.06586543154119L197.65661208970207,34.4680067272093L197.7391409465245,11.83289829615028L198.4819006579263,86.96446202519657L198.97707379886083,155.70433431820493L199.55477579661778,85.09441733470841L199.88489122390746,15.753071159136237L199.96742008072988,129.797394198328L200.29753550801956,130.22676219818823L201.04029521942138,-82.7701919251894L201.3704106467111,45.27192016349819L201.45293950353349,99.31099403294685L201.53546836035594,89.75614471657809L201.94811264446804,178.92698454533206L202.8559300695147,-35.38586707421195L203.10351663998196,18.11882249089017L203.2685743536268,-6.4571660583824L203.43363206727165,21.454148095779647L203.51616092409407,3.74642198693714L203.5986897809165,19.6089815001374L203.92880520820617,-4.079982817988327L204.093862921851,9.675942736267228L204.34144949231828,68.25459748924051L204.42397834914073,87.8677418296802L204.50650720596312,125.30158851365333L204.83662263325283,163.71978967412747L205.33179577418736,114.90231516974109L205.90949777194433,97.68773368245365L205.99202662876675,186.53223404192022L206.07455548558917,196.54617962134398L206.48719976970128,5.798900149928191L206.56972862652373,49.91348710060994L206.73478634016854,19.812794585398517L207.3950171947479,-4.394828536780499L207.56007490839275,139.26705194204078L207.72513262203762,161.82201332890872L207.80766147886004,148.72033042870657L208.0552480493273,-31.45092284241122L209.04559433119638,-32.09588038365105L209.21065204484123,65.9791529350132L209.62329632895336,10.740788804437717L210.03594061306543,-16.28343044217168L210.61364261082238,-61.46556683354624L211.10881575175694,40.53964005952642L211.27387346540178,-18.02558617634256L211.43893117904662,-32.5036479069849L211.6865177495139,57.08346711745254L211.7690466063363,81.87284540497377L211.85157546315875,53.23570223222125L211.93410431998117,39.10506804345052L212.18169089044844,27.874781519997708L212.34674860409328,-97.00502080522888L212.75939288820538,8.863923840788669L213.00697945867267,94.96662138227568L213.1720371723175,20.46314120258152L213.50215259960717,10.311376631823851L213.58468145642962,-48.76413325400968L214.3274411678314,-55.48164292084216L214.5750277382987,28.441040883365556L214.6575565951211,-3.235735481459375L214.82261430876594,1.131748353912411L215.15272973605565,64.39144281664358L215.23525859287807,41.730078100825295L215.4003163065229,37.804021427055446L215.48284516334533,21.95241675675611L215.97801830427986,38.773030288944504L216.0605471611023,41.609698512625556L216.22560487474715,-28.17459436727353L216.39066258839196,90.24529612120477L216.63824915885925,44.514781497132866L216.7207780156817,85.66272631384483L216.88583572932654,65.57845305226057L217.13342229979378,77.85932667901125L217.4635377270835,117.39878251404481L217.62859544072833,36.330754078797355L217.71112429755073,77.60072171014419L217.8761820111956,153.1951717245072L217.95871086801802,73.74942300462227L218.53641286577496,125.3460616420107L218.7014705794198,163.65746191875178L218.9490571498871,88.44304777299205L219.11411486353194,119.60438994477887L219.19664372035436,152.3508095388188L219.27917257717678,123.64580818193576L219.77434571811133,-50.37216283905032L221.67250942502704,-12.59470513911943L221.75503828184944,23.064722031429508L221.8375671386719,28.88458833714188L222.00262485231673,-10.726409689675126L222.16768256596157,53.730189705486744L222.250211422784,53.09413739137928L222.58032685007367,57.097690744122254L223.0754999910082,156.83010344818558L223.24055770465307,106.49853713663379L223.4056154182979,168.30911791279323L223.7357308455876,-178.17333906032394L224.47849055698939,14.25554413458308L224.56101941381183,14.722167434857102L224.64354827063423,130.28287926440316L224.9736636979239,73.42816340200262L225.38630798203604,-145.53426809216208L225.46883683885846,-64.56469189021112L225.5513656956809,40.06960662267194L225.8814811229706,263.70338798092587L225.964009979793,26.27512708904582L226.21159655026028,18.433986253508497L226.37665426390512,12.90975935330884L226.6242408343724,22.30127549584544L227.03688511848452,115.7967250852953L227.20194283212933,125.08243864833094L227.36700054577418,148.00595098785766L227.44952940259662,167.53196015448157L227.8621736867087,164.47797965202926L228.02723140035357,-73.05077259788679L228.43987568446568,16.71607252653124L228.68746225493294,26.94423829197198L228.85251996857778,106.68915140310946L229.01757768222262,53.44289011585989L229.43022196633476,147.16540532808312L229.67780853680202,144.50795480044053L229.84286625044686,119.53301560945921L230.0079239640917,178.3668475256177L230.09045282091415,169.36018208183032L230.3380393913814,139.2045916684042L230.4205682482038,153.49851485825343L230.50309710502626,89.74513686637285L230.7506836754935,170.5708689133944L230.83321253231594,184.48404947058225L230.91574138913833,-0.11507179012318566L231.57597224371773,116.40903012704986L231.65850110054018,86.05287774302997L231.74102995736257,109.40754266166368L231.9060876710074,99.22254251107279L231.98861652782986,108.45026608313947L232.31873195511955,174.1266872353167L232.4837896687644,182.35990543209755L233.22654938016618,119.10771150293318L233.63919366427828,101.4042524820916L233.72172252110073,77.00986695755365L233.80425137792312,108.90605822422278L233.96930909156802,132.88578527586014L234.3819533756801,102.97952355303825L234.46448223250252,80.90457864534575L234.54701108932497,141.21468165700935L234.62953994614736,150.05391469542747L234.7945976597922,120.49454160688289L234.95965537343704,175.50417038459773L235.28977080072676,194.11756604389538L235.61988622801644,145.7823652463951L235.70241508483886,124.22178555110281L235.86747279848373,54.04809217883032L236.11505936895097,123.66670189440401L236.2801170825958,63.25901243541514L236.85781908035278,199.56182700819383L237.2704633644649,46.98405609430029L237.51804993493215,62.62845521185956L237.93069421904428,136.23955742266662L238.17828078951155,135.92349253587417L238.26080964633397,138.80761996605816L238.3433385031564,138.66282167965028L238.67345393044607,152.67826216149774L239.00356935773576,18.10945786712004L239.1686270713806,28.983694327192136L239.82885792596,86.60673339717779L239.91138678278242,77.26804786798586L239.99391563960484,154.2321624542369L240.32403106689452,76.39690815904532L240.65414649418423,-78.17484735747888L240.98426192147392,110.02147326075192L241.0667907782963,134.30300623430912L241.39690620558602,-11.471356676037832L241.47943506240844,59.88599863712627L241.56196391923086,216.32338598605074L241.64449277605328,-72.15820026888372L241.974608203343,49.73370399332499L242.22219477381023,59.33790311005216L242.46978134427752,102.94711842097331L242.63483905792236,71.53244550710316L242.7998967715672,67.88268057275492L243.13001219885692,8.21875427033142L243.54265648296902,12.230064358612287L243.62518533979144,-20.040588175151658L243.70771419661386,69.13623264444414L243.8727719102587,9.174564313435019L243.9553007670811,20.591736922956937L244.120358480726,60.207752974586604L244.28541619437084,73.92846400964618L244.36794505119323,37.62236539501647L244.45047390801565,93.05761632308351L245.11070476259502,55.82795377550202L245.27576247623986,86.56344409861777L245.52334904670715,64.15685015665123L245.60587790352957,149.8515858146884L245.688406760352,5.3865916675209L245.77093561717442,108.50998764605085L245.93599333081926,98.40582363460771L246.1010510444641,161.61778501976346L246.3486376149314,154.17933184089225L246.43116647175378,81.63251028700917L246.7612818990435,75.70376697814301L246.84381075586592,46.735540182362925L246.92633961268834,100.07304470951613L247.17392618315563,66.8297434789638L247.83415703773497,109.30126301642349L249.31967646053857,75.68835952167592L249.40220531736102,47.230451714063314L249.81484960147313,74.72419199358502L249.89737845829555,56.11184322854844L250.06243617194042,110.71150467979851L250.22749388558526,32.95807599343609L250.31002274240765,21.267739075449793L250.55760931287494,38.038349050526016L250.8877247401646,94.82873171453593L250.97025359698705,105.81961958240117L251.1353113106319,11.064928470594214L251.30036902427673,31.703393099253866L251.38289788109915,88.93799464289533L251.79554216521126,75.43812970689761L251.87807102203368,7.879684213447074L252.12565759250097,59.98319636421957L252.20818644932336,89.95520481354835L252.53830187661308,-0.2796948083614289L252.6208307334355,55.67287207204847L252.70335959025792,8.522380109700908L253.19853273119244,57.53584912195539L253.36359044483729,29.971008378186546L253.44611930165973,-1.6892650458812304L253.52864815848213,72.86455440385271L254.60152329717366,100.79351999036635L254.68405215399605,66.85755464465092L254.84910986764092,42.064801558752166L255.261754151753,145.66215351465917L255.67439843586513,79.96315125082494L255.83945614950997,151.07251189054455L256.3346292904445,98.63331331581594L256.49968700408937,-2.4058177862088734L256.6647447177342,124.93075824690709L256.82980243137905,69.34038144263288L256.9123312882015,101.39039990655237L257.0773890018463,101.60184604364122L257.4900332859584,95.26473446199181L257.57256214278084,183.39063246536216L257.65509099960326,117.66537391676866L257.7376198564257,71.27629654333805L257.98520642689294,102.82474222430939L258.0677352837154,10.638820419952065L258.3153218541826,53.777984624917295L258.39785071100505,164.17525493683388L258.4803795678275,71.68507120545475L258.5629084246499,133.42714887528064L258.8930238519396,133.16665331255808L258.97555270876205,165.70811132974245L259.38819699287416,69.78412325652518L259.553254706519,97.3755913361838L259.9658989906311,95.21250459809653L260.0484278474535,174.31839698608246L260.21348556109837,26.771240119645004L260.3785432747432,-31.734299891515494L261.2038318429674,-31.26670479066158L261.4514184134347,34.37549131200105L261.6164761270795,12.157373675234378L261.699004983902,39.68816606050315L262.0291204111917,-41.1430610770703L262.4417646953038,-9.321504094938934L263.01946669306074,20.690789905702832L263.10199554988316,130.6306425192024L263.51463983399526,-70.8781445450149L263.6796975476401,9.37888980263828L264.0923418317522,60.2896315907201L264.1748706885747,10.619490422962405L264.25739954539705,76.1791718218392L264.3399284022195,72.74422782295733L265.0826881136213,56.672907876089106L265.4953323977334,136.0892817148083L265.7429189682007,109.99921019292105L265.8254478250231,150.30096407194424L266.5682075364249,164.39714351288148L266.73326525006973,27.782884523340304L266.980851820537,170.68609795852058L267.14590953418184,116.81964237571765L267.6410826751164,107.08811971391971L268.21878467287337,28.587288036092584L268.3838423865182,114.80693736009745L268.46637124334063,55.27141241793335L268.6314289569855,-116.59298667609794L268.87901552745274,56.32307733641984L269.2091309547424,175.50778371584488L269.4567175252097,-0.40972172595454237L269.5392463820321,84.62977297379713L269.70430409567695,-10.659443795167991L269.8693618093218,-1.8264832877657287L269.95189066614427,16.621931553989302L270.4470638070788,34.13930843287791L270.5295926639012,6.10644852982026L270.69465037754605,101.75577925550033L270.8597080911909,29.93319650107699L271.10729466165816,76.31370436030285L271.6849966594151,121.64617830139083L272.0151120867048,26.135788554986934L272.0976409435272,-5.824294182536466L272.3452275139945,4.639453712578" fill="none"></path></g></g></g></g></g></g><g transform="translate(41, 177)" clip-path="url(#clip_1)"><clipPath id="clip_1"><rect width="288" height="22"></rect></clipPath><g><g><line x1="0" y1="0" x2="0" y2="5" style="visibility: inherit;" fill="rgb(0, 0, 0)" stroke="rgb(204, 204, 204)" stroke-width="1px"></line><line x1="41.264428411211284" y1="0" x2="41.264428411211284" y2="5" style="visibility: inherit;" fill="rgb(0, 0, 0)" stroke="rgb(204, 204, 204)" stroke-width="1px"></line><line x1="82.52885682242257" y1="0" x2="82.52885682242257" y2="5" style="visibility: inherit;" fill="rgb(0, 0, 0)" stroke="rgb(204, 204, 204)" stroke-width="1px"></line><line x1="123.79328523363385" y1="0" x2="123.79328523363385" y2="5" style="visibility: inherit;" fill="rgb(0, 0, 0)" stroke="rgb(204, 204, 204)" stroke-width="1px"></line><line x1="165.05771364484514" y1="0" x2="165.05771364484514" y2="5" style="visibility: inherit;" fill="rgb(0, 0, 0)" stroke="rgb(204, 204, 204)" stroke-width="1px"></line><line x1="206.32214205605644" y1="0" x2="206.32214205605644" y2="5" style="visibility: inherit;" fill="rgb(0, 0, 0)" stroke="rgb(204, 204, 204)" stroke-width="1px"></line><line x1="247.5865704672677" y1="0" x2="247.5865704672677" y2="5" style="visibility: inherit;" fill="rgb(0, 0, 0)" stroke="rgb(204, 204, 204)" stroke-width="1px"></line><line x1="288.850998878479" y1="0" x2="288.850998878479" y2="5" style="visibility: inherit;" fill="rgb(0, 0, 0)" stroke="rgb(204, 204, 204)" stroke-width="1px"></line></g><g transform="translate(0, 8)"><text style="text-anchor: middle; visibility: hidden; font-family: Roboto, sans-serif; font-size: 12px; font-weight: 200;" x="0" y="0" dx="0em" dy="0.95em" fill="rgb(50, 49, 63)" stroke="none" stroke-width="1px">-500</text><text style="text-anchor: middle; visibility: inherit; font-family: Roboto, sans-serif; font-size: 12px; font-weight: 200;" x="41.264428411211284" y="0" dx="0em" dy="0.95em" fill="rgb(50, 49, 63)" stroke="none" stroke-width="1px">0</text><text style="text-anchor: middle; visibility: inherit; font-family: Roboto, sans-serif; font-size: 12px; font-weight: 200;" x="82.52885682242257" y="0" dx="0em" dy="0.95em" fill="rgb(50, 49, 63)" stroke="none" stroke-width="1px">500</text><text style="text-anchor: middle; visibility: inherit; font-family: Roboto, sans-serif; font-size: 12px; font-weight: 200;" x="123.79328523363385" y="0" dx="0em" dy="0.95em" fill="rgb(50, 49, 63)" stroke="none" stroke-width="1px">1k</text><text style="text-anchor: middle; visibility: inherit; font-family: Roboto, sans-serif; font-size: 12px; font-weight: 200;" x="165.05771364484514" y="0" dx="0em" dy="0.95em" fill="rgb(50, 49, 63)" stroke="none" stroke-width="1px">1.5k</text><text style="text-anchor: middle; visibility: inherit; font-family: Roboto, sans-serif; font-size: 12px; font-weight: 200;" x="206.32214205605644" y="0" dx="0em" dy="0.95em" fill="rgb(50, 49, 63)" stroke="none" stroke-width="1px">2k</text><text style="text-anchor: middle; visibility: inherit; font-family: Roboto, sans-serif; font-size: 12px; font-weight: 200;" x="247.5865704672677" y="0" dx="0em" dy="0.95em" fill="rgb(50, 49, 63)" stroke="none" stroke-width="1px">2.5k</text><text style="text-anchor: middle; visibility: hidden; font-family: Roboto, sans-serif; font-size: 12px; font-weight: 200;" x="288.850998878479" y="0" dx="0em" dy="0.95em" fill="rgb(50, 49, 63)" stroke="none" stroke-width="1px">3k</text></g><line x1="0" y1="0" x2="288.850998878479" y2="0" fill="rgb(0, 0, 0)" stroke="rgb(204, 204, 204)" stroke-width="1px"></line></g></g></g></g></svg>