<svg viewBox="0 0 330 200" xmlns="http://www.w3.org/2000/svg"><g><g><g><g><g><line x1="51.53200149536133" y1="174.68349434647644" x2="46.53200149536133" y2="174.68349434647644" style="visibility: inherit;" fill="rgb(0, 0, 0)" stroke="rgb(204, 204, 204)" stroke-width="1px"></line><line x1="51.53200149536133" y1="161.73906918327367" x2="46.53200149536133" y2="161.73906918327367" style="visibility: inherit;" fill="rgb(0, 0, 0)" stroke="rgb(204, 204, 204)" stroke-width="1px"></line><line x1="51.53200149536133" y1="151.16270372857687" x2="46.53200149536133" y2="151.16270372857687" style="visibility: inherit;" fill="rgb(0, 0, 0)" stroke="rgb(204, 204, 204)" stroke-width="1px"></line><line x1="51.53200149536133" y1="142.22051415093114" x2="46.53200149536133" y2="142.22051415093114" style="visibility: inherit;" fill="rgb(0, 0, 0)" stroke="rgb(204, 204, 204)" stroke-width="1px"></line><line x1="51.53200149536133" y1="134.47443720366377" x2="46.53200149536133" y2="134.47443720366377" style="visibility: inherit;" fill="rgb(0, 0, 0)" stroke="rgb(204, 204, 204)" stroke-width="1px"></line><line x1="51.53200149536133" y1="127.64191311067725" x2="46.53200149536133" y2="127.64191311067725" style="visibility: inherit;" fill="rgb(0, 0, 0)" stroke="rgb(204, 204, 204)" stroke-width="1px"></line><line x1="51.53200149536133" y1="121.53001204046096" x2="46.53200149536133" y2="121.53001204046096" style="visibility: inherit;" fill="rgb(0, 0, 0)" stroke="rgb(204, 204, 204)" stroke-width="1px"></line><line x1="51.53200149536133" y1="81.32095489764826" x2="46.53200149536133" y2="81.32095489764826" style="visibility: inherit;" fill="rgb(0, 0, 0)" stroke="rgb(204, 204, 204)" stroke-width="1px"></line><line x1="51.53200149536133" y1="57.800164279748685" x2="46.53200149536133" y2="57.800164279748685" style="visibility: inherit;" fill="rgb(0, 0, 0)" stroke="rgb(204, 204, 204)" stroke-width="1px"></line><line x1="51.53200149536133" y1="41.11189775483558" x2="46.53200149536133" y2="41.11189775483558" style="visibility: inherit;" fill="rgb(0, 0, 0)" stroke="rgb(204, 204, 204)" stroke-width="1px"></line><line x1="51.53200149536133" y1="28.167472591632794" x2="46.53200149536133" y2="28.167472591632794" style="visibility: inherit;" fill="rgb(0, 0, 0)" stroke="rgb(204, 204, 204)" stroke-width="1px"></line><line x1="51.53200149536133" y1="17.591107136935975" x2="46.53200149536133" y2="17.591107136935975" style="visibility: inherit;" fill="rgb(0, 0, 0)" stroke="rgb(204, 204, 204)" stroke-width="1px"></line><line x1="51.53200149536133" y1="8.64891755929028" x2="46.53200149536133" y2="8.64891755929028" style="visibility: inherit;" fill="rgb(0, 0, 0)" stroke="rgb(204, 204, 204)" stroke-width="1px"></line><line x1="51.53200149536133" y1="0.9028406120228708" x2="46.53200149536133" y2="0.9028406120228708" style="visibility: inherit;" fill="rgb(0, 0, 0)" stroke="rgb(204, 204, 204)" stroke-width="1px"></line></g><g transform="translate(41.53200149536133, 0)"><text style="text-anchor: end; visibility: hidden; font-family: Roboto, sans-serif; font-size: 12px; font-weight: 200;" x="0" y="174.68349434647644" dx="0em" dy="0.3em" fill="rgb(50, 49, 63)" stroke="none" stroke-width="1px">0.04</text><text style="text-anchor: end; visibility: inherit; font-family: Roboto, sans-serif; font-size: 12px; font-weight: 200;" x="0" y="161.73906918327367" dx="0em" dy="0.3em" fill="rgb(50, 49, 63)" stroke="none" stroke-width="1px">0.05</text><text style="text-anchor: end; visibility: hidden; font-family: Roboto, sans-serif; font-size: 12px; font-weight: 200;" x="0" y="151.16270372857687" dx="0em" dy="0.3em" fill="rgb(50, 49, 63)" stroke="none" stroke-width="1px">0.06</text><text style="text-anchor: end; visibility: hidden; font-family: Roboto, sans-serif; font-size: 12px; font-weight: 200;" x="0" y="142.22051415093114" dx="0em" dy="0.3em" fill="rgb(50, 49, 63)" stroke="none" stroke-width="1px">0.07</text><text style="text-anchor: end; visibility: inherit; font-family: Roboto, sans-serif; font-size: 12px; font-weight: 200;" x="0" y="134.47443720366377" dx="0em" dy="0.3em" fill="rgb(50, 49, 63)" stroke="none" stroke-width="1px">0.08</text><text style="text-anchor: end; visibility: hidden; font-family: Roboto, sans-serif; font-size: 12px; font-weight: 200;" x="0" y="127.64191311067725" dx="0em" dy="0.3em" fill="rgb(50, 49, 63)" stroke="none" stroke-width="1px">0.09</text><text style="text-anchor: end; visibility: hidden; font-family: Roboto, sans-serif; font-size: 12px; font-weight: 200;" x="0" y="121.53001204046096" dx="0em" dy="0.3em" fill="rgb(50, 49, 63)" stroke="none" stroke-width="1px">0.1</text><text style="text-anchor: end; visibility: inherit; font-family: Roboto, sans-serif; font-size: 12px; font-weight: 200;" x="0" y="81.32095489764826" dx="0em" dy="0.3em" fill="rgb(50, 49, 63)" stroke="none" stroke-width="1px">0.2</text><text style="text-anchor: end; visibility: hidden; font-family: Roboto, sans-serif; font-size: 12px; font-weight: 200;" x="0" y="57.800164279748685" dx="0em" dy="0.3em" fill="rgb(50, 49, 63)" stroke="none" stroke-width="1px">0.3</text><text style="text-anchor: end; visibility: hidden; font-family: Roboto, sans-serif; font-size: 12px; font-weight: 200;" x="0" y="41.11189775483558" dx="0em" dy="0.3em" fill="rgb(50, 49, 63)" stroke="none" stroke-width="1px">0.4</text><text style="text-anchor: end; visibility: inherit; font-family: Roboto, sans-serif; font-size: 12px; font-weight: 200;" x="0" y="28.167472591632794" dx="0em" dy="0.3em" fill="rgb(50, 49, 63)" stroke="none" stroke-width="1px">0.5</text><text style="text-anchor: end; visibility: hidden; font-family: Roboto, sans-serif; font-size: 12px; font-weight: 200;" x="0" y="17.591107136935975" dx="0em" dy="0.3em" fill="rgb(50, 49, 63)" stroke="none" stroke-width="1px">0.6</text><text style="text-anchor: end; visibility: hidden; font-family: Roboto, sans-serif; font-size: 12px; font-weight: 200;" x="0" y="8.64891755929028" dx="0em" dy="0.3em" fill="rgb(50, 49, 63)" stroke="none" stroke-width="1px">0.7</text><text style="text-anchor: end; visibility: hidden; font-family: Roboto, sans-serif; font-size: 12px; font-weight: 200;" x="0" y="0.9028406120228708" dx="0em" dy="0.3em" fill="rgb(50, 49, 63)" stroke="none" stroke-width="1px">0.8</text></g><line x1="51.53200149536133" y1="0" x2="51.53200149536133" y2="177.86299896240234" fill="rgb(0, 0, 0)" stroke="rgb(204, 204, 204)" stroke-width="1px"></line></g></g><g transform="translate(51, 0)" clip-path="url(#clip_0)"><clipPath id="clip_0"><rect width="278" height="177"></rect></clipPath><g><g><g><line x1="0" y1="0" x2="0" y2="177.86299896240234" fill="rgb(0, 0, 0)" stroke="rgb(60, 60, 60)" stroke-width="1px" opacity="0.25"></line><line x1="39.78114264351981" y1="0" x2="39.78114264351981" y2="177.86299896240234" fill="rgb(0, 0, 0)" stroke="rgb(60, 60, 60)" stroke-width="1px" opacity="0.25"></line><line x1="79.56228528703961" y1="0" x2="79.56228528703961" y2="177.86299896240234" fill="rgb(0, 0, 0)" stroke="rgb(60, 60, 60)" stroke-width="1px" opacity="0.25"></line><line x1="119.34342793055943" y1="0" x2="119.34342793055943" y2="177.86299896240234" fill="rgb(0, 0, 0)" stroke="rgb(60, 60, 60)" stroke-width="1px" opacity="0.25"></line><line x1="159.12457057407923" y1="0" x2="159.12457057407923" y2="177.86299896240234" fill="rgb(0, 0, 0)" stroke="rgb(60, 60, 60)" stroke-width="1px" opacity="0.25"></line><line x1="198.90571321759904" y1="0" x2="198.90571321759904" y2="177.86299896240234" fill="rgb(0, 0, 0)" stroke="rgb(60, 60, 60)" stroke-width="1px" opacity="0.25"></line><line x1="238.68685586111886" y1="0" x2="238.68685586111886" y2="177.86299896240234" fill="rgb(0, 0, 0)" stroke="rgb(60, 60, 60)" stroke-width="1px" opacity="0.25"></line><line x1="278.4679985046387" y1="0" x2="278.4679985046387" y2="177.86299896240234" fill="rgb(0, 0, 0)" stroke="rgb(60, 60, 60)" stroke-width="1px" opacity="0.25"></line></g><g><line x1="0" y1="174.68349434647644" x2="278.4679985046387" y2="174.68349434647644" fill="rgb(0, 0, 0)" stroke="rgb(60, 60, 60)" stroke-width="1px" opacity="0.25"></line><line x1="0" y1="161.73906918327367" x2="278.4679985046387" y2="161.73906918327367" fill="rgb(0, 0, 0)" stroke="rgb(60, 60, 60)" stroke-width="1px" opacity="0.25"></line><line x1="0" y1="151.16270372857687" x2="278.4679985046387" y2="151.16270372857687" fill="rgb(0, 0, 0)" stroke="rgb(60, 60, 60)" stroke-width="1px" opacity="0.25"></line><line x1="0" y1="142.22051415093114" x2="278.4679985046387" y2="142.22051415093114" fill="rgb(0, 0, 0)" stroke="rgb(60, 60, 60)" stroke-width="1px" opacity="0.25"></line><line x1="0" y1="134.47443720366377" x2="278.4679985046387" y2="134.47443720366377" fill="rgb(0, 0, 0)" stroke="rgb(60, 60, 60)" stroke-width="1px" opacity="0.25"></line><line x1="0" y1="127.64191311067725" x2="278.4679985046387" y2="127.64191311067725" fill="rgb(0, 0, 0)" stroke="rgb(60, 60, 60)" stroke-width="1px" opacity="0.25"></line><line x1="0" y1="121.53001204046096" x2="278.4679985046387" y2="121.53001204046096" fill="rgb(0, 0, 0)" stroke="rgb(60, 60, 60)" stroke-width="1px" opacity="0.25"></line><line x1="0" y1="81.32095489764826" x2="278.4679985046387" y2="81.32095489764826" fill="rgb(0, 0, 0)" stroke="rgb(60, 60, 60)" stroke-width="1px" opacity="0.25"></line><line x1="0" y1="57.800164279748685" x2="278.4679985046387" y2="57.800164279748685" fill="rgb(0, 0, 0)" stroke="rgb(60, 60, 60)" stroke-width="1px" opacity="0.25"></line><line x1="0" y1="41.11189775483558" x2="278.4679985046387" y2="41.11189775483558" fill="rgb(0, 0, 0)" stroke="rgb(60, 60, 60)" stroke-width="1px" opacity="0.25"></line><line x1="0" y1="28.167472591632794" x2="278.4679985046387" y2="28.167472591632794" fill="rgb(0, 0, 0)" stroke="rgb(60, 60, 60)" stroke-width="1px" opacity="0.25"></line><line x1="0" y1="17.591107136935975" x2="278.4679985046387" y2="17.591107136935975" fill="rgb(0, 0, 0)" stroke="rgb(60, 60, 60)" stroke-width="1px" opacity="0.25"></line><line x1="0" y1="8.64891755929028" x2="278.4679985046387" y2="8.64891755929028" fill="rgb(0, 0, 0)" stroke="rgb(60, 60, 60)" stroke-width="1px" opacity="0.25"></line><line x1="0" y1="0.9028406120228708" x2="278.4679985046387" y2="0.9028406120228708" fill="rgb(0, 0, 0)" stroke="rgb(60, 60, 60)" stroke-width="1px" opacity="0.25"></line></g></g></g><g><g><line x1="39.78114264351981" y1="0" x2="39.78114264351981" y2="177.86299896240234" fill="rgb(0, 0, 0)" stroke="rgb(153, 153, 153)" stroke-width="1.5px"></line></g></g><g><g><g><g><g><path style="fill: none;" stroke="rgb(255, 112, 67)" stroke-width="2px" d="M40.17895406995501,34.13373071182945L40.25851635524205,36.10919617399498L40.81545235225133,61.429697344940706L41.213263778686525,62.51593798259727L41.3723883492606,60.0942625682869L41.61107520512172,64.42511552827202L41.7701997756958,59.601932156198046L41.84976206098284,34.30876304510927L42.00888663155692,29.21550346473393L42.168011202131005,21.77367341731896L42.406698057992116,4.789311681370087L42.565822628566195,24.71884677752546L43.12275862557547,22.453880365972985L43.44100776672363,20.241779531741958L43.52057005201067,44.48540449942587L43.600132337297715,36.65309269444791L43.83881919315883,28.917444303044416L44.55487976074219,53.738464236492284L44.63444204602923,68.23932114596488L44.71400433131626,64.04574685658893L44.952691187177386,71.01760759729424L45.191378043038505,88.93639945337387L45.50962718418666,83.13843443952686L45.82787632533482,98.01339268864378L45.90743861062187,103.49023230063288L45.9870008959089,100.31217999890389L46.14612546648298,84.98962751405793L46.30525003705706,78.29974749759087L46.3848123223441,84.56430789964344L46.54393689291818,72.18693333395338L46.623499178205215,64.68307828029673L46.7826237487793,43.55309083474813L46.94174831935337,45.913512563972425L47.498684316362656,13.707220113706466L47.737371172223774,16.28835811588757L47.81693345751081,29.053611069519693L47.97605802808489,44.92971340298426L48.29430716923305,50.707490378184694L48.69211859566825,70.96289555485588L48.771680880955294,30.08737893999449L49.72642830439976,40.65221262255882L49.8059905896868,49.93186408265172L50.12423973083496,63.1535878806259L50.36292658669608,76.64986304453265L50.52205115727016,78.36872843369709L50.681175727844234,79.2522842807654L51.3972362954276,64.2036776623617L51.87461000714983,68.17909390152867L52.27242143358503,76.32607232673344L52.35198371887207,49.11891363576636L52.59067057473319,9.130261263741875L52.74979514530727,25.408999851771753L52.908919715881346,32.75639643182134L53.38629342760359,42.98253374354954L53.46585571289063,54.99014221174652L54.18191628047398,7.483447168020758L54.341040851048064,15.610817938710587L54.500165421622135,25.171148150734638L54.738852277483254,35.947838363470126L55.454912845066616,52.56427564584608L55.693599700927734,61.1331605787651L55.773161986214774,42.41678205036181L55.93228655678885,63.62815683627118L56.17097341264997,-7.43732814265446L56.72790940965925,10.911960796853501L56.88703398023333,33.12169868933843L56.966596265520366,37.863944677287705L57.28484540666852,39.876622719208385L57.36440769195556,38.940243085996705L57.44396997724261,30.195244854344228L57.52353226252965,38.88985324653979L57.76221911839077,43.59792426361041L57.84178140367781,30.697404103651106L58.160030544825965,39.74204256576332L58.239592830113,51.20381504819923L58.319155115400044,44.14486714882119L58.71696654183524,23.355628423717576L58.87609111240932,42.36418650515272L58.95565339769636,41.12402781352335L59.27390253884452,63.29670555811212L59.671713965279714,60.25927384191562L59.751276250566754,63.53601044291887L59.91040082114083,84.62918150006254L60.06952539171491,61.083819781361555L60.14908767700195,70.89718068658823L60.22864996228899,80.27635685721681L60.46733681815011,74.98960438815503L60.626461388724195,71.39748996063298L60.86514824458531,36.109237394753016L61.024272815159385,31.105663498124045L61.26295967102051,22.214392384047667L61.34252195630754,19.435921732578517L61.6607710974557,15.22535398787835L61.74033338274275,39.85137339427243L61.81989566802979,40.920290771560225L61.899457953316826,58.50299598604606L62.138144809177945,61.98034781094668L62.217707094464984,69.37340066409273L62.61551852090018,61.6251116230406L63.2520168031965,66.2553000940943L63.411141373770576,72.17896141455783L63.49070365905762,74.74292302658293L63.649828229631694,62.19066654003435L63.80895280020578,71.96104114701498L63.88851508549281,46.13844616315558L64.12720194135393,64.58602634848835L64.20676422664097,60.10033712930063L64.28632651192801,65.8375354129516L64.44545108250209,55.95475493117705L64.92282479422433,49.05601900549815L65.00238707951137,42.83399168473289L65.0819493647984,58.37716154773L65.47976079123362,59.05980270051732L65.63888536180768,65.6571773859582L65.71844764709472,89.85694065750663L65.8775722176688,43.710226851553756L66.67319507053921,61.64280121730052L66.83231964111327,53.04195095087665L67.0710064969744,33.45126874416509L67.30969335283552,58.666412582488036L67.4688179234096,69.80651534555349L67.70750477927072,34.31720868718099L67.8666293498448,41.95737226907997L68.02575392041888,36.65249760056313L68.18487849099296,27.870223948008963L68.42356534685408,46.3910433392815L68.50312763214112,60.197433577278964L68.6622522027152,54.26682476981098L69.21918819972447,47.98028100331758L69.29875048501151,46.90987431201786L69.37831277029855,-0.26143578806412576L69.45787505558559,9.184239390500226L70.25349790845598,22.09446623226994L70.49218476431712,32.72815467406702L70.57174704960416,43.192877653961844L70.8899961907523,37.72260865489963L71.2878076171875,56.8962410058044L71.44693218776158,61.59790007053731L71.60605675833565,45.458293713475584L71.84474361419677,48.45689021784826L72.08343047005789,37.291592928424954L72.56080418178013,40.68840161603522L72.64036646706717,46.15236145481512L72.79949103764126,29.821479866859768L72.8790533229283,48.11940390538036L73.35642703465052,66.9068297594933L73.43598931993758,32.92891744513234L73.6746761757987,42.31881827710892L73.99292531694685,44.46849917431449L74.07248760223389,50.23678372847294L74.15204988752093,43.37127812891698L74.23161217280797,64.02622808617834L74.62942359924317,-1.3674359817143849L74.86811045510429,15.775671788205369L74.94767274039131,34.78124376811633L75.02723502567835,46.2536350051965L75.42504645211356,45.67870668668313L75.82285787854876,65.54347943950283L75.98198244912284,70.52934284721442L76.06154473440988,77.24708400578072L76.14110701969692,76.89990056194948L76.22066930498394,53.144548816772065L76.37979387555804,34.414429844904866L77.01629215785435,49.080054118914184L77.33454129900251,70.39901560601479L77.41410358428956,63.69841584245001L78.20972643715994,85.2638076433987L78.60753786359516,63.70951037974393L78.76666243416922,35.16149516726849L78.84622471945626,35.026393528915705L78.9257870047433,52.99707286597982L79.00534929003034,58.60855820230237L79.32359843117851,1.7167011730006954L79.72140985761371,10.734831924435346L79.80097214290075,28.017112924249883L80.03965899876185,36.054402695625086L80.43747042519706,46.84766881540415L80.5170327104841,59.84568465744783L80.83528185163225,56.452092728816986L80.9148441369193,64.21889986758825L80.99440642220634,76.56908060837486L81.15353099278042,71.52238114931535L81.39221784864152,82.05559678013593L81.7104669897897,41.552039967883424L81.79002927507673,67.47180549402255L82.10827841622489,35.27680117541398L82.18784070151193,18.176828457233178L82.58565212794713,34.96240672588947L82.7447766985212,54.76440945876875L83.1425881249564,40.006290818508965L83.22215041024344,52.52662796635758L83.30171269553048,59.916575818246734L83.5403995513916,54.26761404909347L83.61996183667864,60.24635727102025L83.69952412196568,77.87584564071554L83.9382109778268,64.45417525413438L84.01777326311384,38.91181632867428L84.09733554840088,-0.0188330029578707L84.17689783368792,26.583515649723154L84.57470926012311,34.172837251643806L84.7338338306972,-1.080966649455698L84.81339611598423,21.295134210931728L84.89295840127129,40.73486427628433L84.97252068655833,54.67631327937869L85.21120754241943,33.566488009888104L85.37033211299351,9.11760311594645L85.60901896885464,25.048638038644384L85.68858125414167,44.52884998137153L86.08639268057688,70.19871274914368L86.16595496586392,87.4226325586977L86.40464182172502,29.48432386356955L86.5637663922991,52.394822604638264L86.9615778187343,56.69250891733142L87.12070238930838,57.79894596194717L87.35938924516951,82.17636696164425L87.51851381574357,64.83559339083592L87.59807610103061,41.991827692966964L87.67763838631765,65.0557486770785L87.7572006716047,44.77699105888039L87.91632524217879,60.08914163217396L87.99588752746583,74.9794430434027L88.15501209803989,62.60106707668886L88.31413666861397,71.6158885967575L88.39369895390102,71.23769588818348L88.47326123918806,78.93810959713653L88.71194809504918,64.71658882223157L88.9506349509103,63.306710008977454L89.3484463773455,85.53230954448611L89.66669551849365,102.25701367244389L89.7462578037807,97.14842067259717L89.90538237435477,57.24361219663042L90.14406923021589,70.71691058603405L90.46231837136405,60.609256465138984L90.54188065665109,61.36274084460566L90.70100522722517,71.81203767780937L90.7805675125122,57.680584573276164L90.86012979779925,43.857830124930864L90.93969208308629,28.214399406339165L91.25794122423446,29.704541753613608L91.33750350952148,30.46849853092242L91.49662808009556,7.747617818462443L91.5761903653826,22.871295240706722L91.89443950653077,40.83717240113477L92.53093778882707,41.13546438004494L92.84918692997523,42.38568110334567L92.92874921526229,28.769983219376662L93.16743607112339,29.604536846643775L93.24699835641043,51.3927862735017L93.32656064169747,38.374702550266456L93.48568521227155,41.14767260662442L93.5652474975586,24.85735680849102L93.72437206813268,36.348073189855235L93.88349663870675,59.44581010723472L93.96305892399378,61.82171329944895L94.12218349456788,69.13713826293079L94.28130806514196,68.4382380409731L94.51999492100306,82.49271254455623L94.7586817768642,108.18002080516158L95.07693091801234,112.6338443333941L95.15649320329938,122.36414610992075L95.71342920030865,70.93179592661687L95.87255377088275,46.569423236020995L95.95211605616979,53.76796813986733L96.34992748260497,70.06887388000052L96.66817662375314,67.42675571190533L96.82730119432722,58.45321138881831L97.14555033547538,25.717524825540778L97.54336176191059,29.314583577066593L97.94117318834577,49.696965174544566L98.02073547363281,65.35365590845781L98.10029775891987,90.10651874438165L98.33898461478097,86.20888499195814L98.49810918535505,68.20178498979556L98.65723375592913,39.99190747346284L98.73679604121618,54.67875107542543L98.89592061179025,58.87902889049747L99.13460746765136,41.151736771551555L99.2141697529384,39.79060424012193L99.29373203822546,34.41151071856177L99.45285660879952,43.351699017473685L99.6119811793736,45.96288761599617L99.69154346466064,18.773140057836006L99.85066803523473,26.644627099436196L100.00979260580881,35.19452426381794L100.32804174695696,51.17961320995099L100.48716631753105,50.58899771477208L100.80541545867919,59.08962167061137L100.88497774396623,32.32277367558119L101.12366459982736,54.81027578724991L101.28278917040144,65.60320950464703L101.52147602626255,81.53570757258498L101.68060059683664,102.89860567938635L101.83972516741072,82.50849342078658L102.07841202327182,84.92390391879755L102.31709887913296,55.60331606403287L102.39666116442,62.52706296470407L102.7944725908552,78.21988823563319L103.19228401729038,41.689395449993306L103.51053315843855,64.4828325119184L103.59009544372559,40.51268045171591L103.66965772901263,30.553500243643633L103.82878229958669,48.50115612746648L103.90834458487375,36.1312911891199L103.98790687016078,37.61004602085977L104.38571829659598,43.301137453494526L104.6244051524571,53.663699318830844L104.70396743774414,16.264342514725005L104.78352972303118,39.35510049302481L104.86309200831822,39.83884414472938L105.02221657889231,21.3756318414718L105.26090343475342,20.331362837674288L105.49959029061453,37.6695399431857L106.2156508581979,50.965993725315286L106.45433771405901,63.54019247603387L107.01127371106828,63.568892497713456L107.09083599635532,73.34943734163357L107.17039828164236,52.05319173733621L107.48864742279054,41.14597869924541L107.6477719933646,49.62152341207326L107.80689656393868,19.627365724532055L107.88645884922573,20.015759526060048L108.20470799037388,10.261309618480967L108.68208170209613,26.710314015092937L108.84120627267019,40.96865034306868L109.07989312853132,45.71895492802931L109.15945541381836,65.7935598371572L109.39814226967948,50.51930352279809L109.6368291255406,56.99396729507378L109.79595369611468,78.54730784652794L109.95507826668876,81.7433283534473L110.35288969312396,79.66824417612818L110.432451978411,74.38335635291448L110.67113883427211,87.30340788732609L110.98938797542027,64.07844325375035L111.14851254599435,49.497982007738344L111.46676168714251,62.574600356778035L111.54632397242955,65.198988236674L111.78501082829067,86.73735836079736L111.94413539886476,75.73241021692819L112.02369768415178,35.74388639534376L112.2623845400129,36.221975225871574L112.34194682529994,19.959594633650127L112.58063368116107,45.63063751930234L112.6601959664481,64.3363617136721L112.73975825173514,90.29208878139981L113.21713196345739,52.43998638506224L113.61494338989257,77.84462438547148L113.77406796046667,97.35661090311882L113.85363024575369,109.33272241408095L114.96750223977226,57.451086888262395L115.0470645250593,61.20251486182967L115.20618909563336,63.66282586038321L115.76312509264264,73.99824098812591L115.84268737792968,61.60934381599764L115.92224966321672,64.7870555811679L116.24049880436489,69.9779923677283L116.32006108965193,92.65043095880803L116.63831023080009,100.67690805020497L116.95655937194823,112.65072643412942L117.03612165723527,93.85572733267216L117.19524622780936,59.266636794829L117.35437079838344,56.793469493079634L117.43393308367048,54.71360201371835L117.51349536895752,76.75570782895849L117.59305765424455,42.49713675108628L118.22955593654086,54.980612460325176L118.54780507768903,40.222602474419205L118.70692964826311,54.686634655937084L118.94561650412423,64.85685819930451L119.34342793055943,47.13824067961002L119.82080164228167,65.38848027989576L119.9003639275687,79.45178784156705L119.97992621285576,99.45380073517545L120.13905078342982,32.13662824003227L120.37773763929094,55.203153256464546L121.17336049216135,70.42620964284305L121.33248506273543,41.03959599721438L121.4916096333095,62.31461459019L121.73029648917063,76.29892893563323L121.96898334503175,70.76868530383305L122.12810791560581,68.1541910596447L122.20767020089285,60.31123065103448L122.60548162732806,43.17903748848219L122.68504391261509,37.46411013151695L122.92373076847622,59.19844566013323L123.00329305376326,68.99033523298415L123.0828553390503,37.2412046511765L123.3215421949114,56.38894697401989L123.40110448019844,74.68791537469257L123.71935362134661,82.60744652228702L123.87847819192068,51.77330798224876L124.35585190364293,47.350074430056544L124.514976474217,60.02836562549658L124.75366333007813,55.368824318043664L125.07191247122628,73.22341985534501L125.39016161237444,87.94942076733551L125.54928618294852,78.46277897969486L125.86753532409668,66.72204466896952L125.94709760938372,69.16214425902213L126.34490903581893,49.177162963388945L126.504033606393,36.33296335768855L127.45878102983748,51.485868195139155L127.77703017098563,71.97052836334052L127.85659245627267,85.3110233781001L127.9361547415597,105.1932651179522L128.17484159742082,102.9907059286053L128.3339661679949,67.58982766246733L128.57265302385602,20.510095965206364L128.89090216500418,33.67472460915342L129.05002673557826,51.04545690173409L129.1295890208653,56.051840924987914L129.44783816201345,82.5715475989864L129.5274004473005,104.51835686943326L129.76608730316164,111.39560252349696L130.08433644430977,60.68275135804161L130.1638987295968,77.04905349274777L130.32302330017092,79.14470181514035L130.48214787074497,73.47898704856065L130.72083472660609,97.49262049516994L131.11864615304128,80.17546655932696L131.27777072361536,80.9696815314905L131.43689529418944,83.10942828301157L131.6755821500506,77.44888443791524L132.07339357648578,101.76208964685965L132.15295586177282,119.67712874000185L132.3120804323469,109.83217762758788L132.47120500292095,73.53317167654595L132.550767288208,28.91996753932573L132.63032957349506,45.192318652319514L132.86901642935618,72.63646455693166L133.26682785579138,32.21907722731866L133.42595242636546,34.65649611829916L133.5055147116525,17.32341229684409L133.82376385280065,31.999986264801407L134.22157527923582,42.241288651112555L134.539824420384,57.36286154352183L134.85807356153214,73.54723029591887L134.9376358468192,65.62301305891893L135.3354472732544,48.92167385777687L135.49457184382848,69.39133761169563L135.65369641440256,85.16362977109776L135.81282098497664,104.66431049425587L136.05150784083776,103.62348291627868L136.1310701261248,107.86346341753612L136.44931926727295,101.77525011287048L136.9266929789952,95.72826472963932L137.08581754956927,90.73390191756967L137.24494212014335,79.40902959000249L137.40406669071743,79.40235758163602L137.48362897600447,89.164809954222L137.88144040243967,63.556420344511544L138.27925182887486,47.542090346672104L138.51793868473598,45.30673190659339L138.67706325531006,24.148469799653874L138.83618782588414,19.081598140428017L138.91575011117118,13.304079937099061L139.07487468174526,20.29910366203632L139.23399925231934,24.343642555777784L139.47268610818045,50.73121357708084L139.63181067875453,71.85330558544834L139.71137296404157,68.27193753202721L139.7909352493286,85.54585816431009L139.87049753461568,69.26775099996941L140.42743353162496,88.37685113134121L140.586558102199,85.81893717295979L140.82524495806013,103.66024114088948L140.90480724334716,90.24832697279747L140.98436952863423,95.50851507919003L141.46174324035644,114.27719594641735L141.85955466679164,130.61610798233443L142.09824152265276,74.63367543564146L142.1778038079398,89.17816154069425L142.81430209023614,101.17183319646476L142.89386437552315,96.04753990435017L142.97342666081022,105.95167900968669L143.05298894609723,124.22018086391517L143.2121135166713,105.64307793328486L143.6099249431065,99.19130276930396L143.76904951368059,86.72725410010844L143.84861179896762,76.1672928907239L144.48511008126397,97.66489470663913L144.56467236655098,103.00000087924417L144.88292150769914,91.23654500951918L145.04204607827324,103.02303353587487L145.20117064884732,95.35286698771766L145.28073293413433,54.52906576008851L145.4398575047084,41.358123629677515L145.7581066458566,57.221097686708355L145.8376689311436,74.52543553065757L145.9967935017177,93.07645709815615L146.1559180722918,85.9810261213091L146.2354803575788,91.65683662782317L146.3946049281529,91.64122320663319L146.47416721343996,87.0816670623219L146.55372949872697,90.15295208821513L146.63329178401403,97.58425075916882L146.95154092516216,97.26991473831413L147.03110321044923,90.51172458730387L147.26979006631032,96.57608370171309L147.3493523515974,85.03454745630884L147.42891463688443,106.57282293185779L147.7471637780326,93.0705031077291L147.8267260633196,112.19492237182497L147.9858506338937,85.65346398890203L148.38366206032887,111.31930807811112L149.02016034262522,118.3743489739304L149.25884719848634,119.3196049434785L149.41797176906041,139.13908540909597L149.5770963396345,76.02832422084707L149.65665862492153,95.91958043678099L149.9749077660697,96.89819654183106L150.13403233664377,101.85317503751202L150.3727191925049,88.89057780495035L150.45228147779193,29.80194424766392L150.61140604836598,34.89916906242959L151.16834204537525,59.99692812690247L151.32746661594936,65.02143149035959L151.4070289012364,81.52229474356793L151.72527804238456,93.19700089939393L151.8048403276716,59.46000753267795L152.04352718353272,33.15239541127005L152.12308946881976,54.26798627988472L152.2026517541068,61.22857300059905L152.36177632468087,88.20448056500136L152.4413386099679,90.5417676011649L152.600463180542,64.68284918399523L152.75958775111607,38.30556339893043L152.8391500364031,53.3783407259261L153.15739917755127,76.46445994252115L153.3960860334124,63.30504408157221L153.71433517456055,54.7735298299833L153.79389745984759,29.85303799148143L154.0325843157087,51.955249218188285L154.19170888628278,62.3116840958809L154.35083345685686,40.2439082345681L154.4303957421439,68.12288957819376L154.50995802743094,83.55990396400435L155.2260185950143,31.305501887643757L155.3851431655884,-1.8711148552885224L155.6238300214495,25.698993980871144L155.78295459202357,17.316447453598997L155.94207916259768,39.49347766278787L156.49901515960696,45.98752763947824L156.57857744489397,70.74034224294212L156.8172643007551,88.62592624292279L156.89682658604212,86.96075296922544L156.97638887132916,95.83298010231732L157.3742002977644,72.39025513763195L157.61288715362548,73.35347171578339L157.7720117241996,101.09211905151781L158.01069858006068,122.32614030506335L158.09026086534772,126.08307739324252L158.16982315063476,113.75779737538187L158.48807229178294,117.12065360100753L158.56763457706995,112.12945315933757L158.72675914764403,90.11593604749541L158.88588371821814,108.84146312251877L158.96544600350515,57.8441854190498L159.2836951446533,79.15500074146297L159.36325742994035,104.34221088734384L159.6815065710885,87.47787915862055L159.76106885637557,98.4830890455104L159.92019342694965,103.49025577407075L160.0793179975237,121.81487067772419L160.47712942395893,87.49844074346471L160.55669170924597,101.37880838482278L160.71581627982005,109.62936436582076L160.95450313568114,87.72821877239771L161.5114391326904,104.57128781738307L161.6705637032645,109.1276015180924L161.98881284441268,110.92983963449961L162.0683751296997,111.14070951436358L162.38662427084788,134.11202017933377L162.4661865561349,141.35925607490654L162.94356026785715,139.08218745210417L163.18224712371824,154.3447558183663L163.2618094090053,152.4539991106306L163.34137169429232,168.79033649653923L163.50049626486643,96.25840359053949L163.58005855015347,93.17624178769627L163.6596208354405,109.36425667706014L163.73918312072752,75.68298660547525L164.0574322618757,69.79116969630964L164.13699454716274,83.93229963990652L164.2961191177368,45.21604193249648L164.37568140302386,49.36724726448674L164.53480597359794,59.23346757705151L164.77349282945906,55.280950120584365L164.8530551147461,73.04778044120536L165.17130425589426,99.42708458382678L165.2508665411813,116.92405272850503L165.8873648234776,143.4691747978514L166.2851762499128,111.93303881782451L166.76254996163505,138.6746987141011L166.84211224692206,158.7048040670636L166.92167453220912,173.0540073057374L167.31948595864432,112.75332754050866L167.63773509979248,128.21218706891696L168.11510881151474,136.95608493759087L168.43335795266287,164.025621970686L168.75160709381103,127.17070680893104L168.9107316643851,83.5419836832795L169.0698562349592,74.44551648919088L169.3085430908203,60.46040652885707L169.7063545172555,52.361915726526455L170.1041659436907,72.17172402499571L170.66110194069998,91.01969787093908L171.13847565242222,105.70899193764362L171.2976002229963,127.2727238489358L171.4567247935704,119.8996328429516L171.61584936414448,117.41315331424302L171.6954116494315,122.2835329487268L171.9340985052926,125.86507632747292L172.65015907287597,116.54919881230832L173.5253442110334,112.77709822860815L173.60490649632047,104.55995318146617L173.84359335218159,94.54187304824173L173.9231556374686,95.57887015087937L174.24140477861675,105.69885839407793L174.32096706390382,117.56144867693234L174.48009163447787,110.95330290335727L174.8779030609131,91.6868023989371L175.11658991677422,107.1683172319767L175.5144013432094,127.80762602598301L175.59396362849645,144.84042707409233L175.6735259137835,144.77459088399655L175.83265048435757,131.72327106451323L175.91221276964458,113.56679465122L176.31002419607978,98.6251243130118L176.38958648136685,79.2756608206634L176.62827333722794,86.229799105939L176.707835622515,99.12135766973202L177.1056470489502,115.64797795108886L177.5830207606724,90.39192455153236L177.66258304595948,69.06155093975033L178.06039447239468,79.77682226654139L178.37864361354283,89.77173409812701L178.77645503997803,98.33115149646561L179.41295332227432,110.940564222328L180.68594988686698,115.85628217194338L180.76551217215402,54.39129329013082L181.16332359858922,63.20913117664327L182.19763330732073,61.525139592273256L182.27719559260777,44.33102800342694L182.67500701904297,63.80304830398005L182.83413158961704,90.73107367585916L182.99325616019112,103.69002548592175L183.0728184454782,123.34872981010886L183.1523807307652,132.54532045121195L183.47062987191336,155.11792352269072L183.62975444248747,106.700031309245L183.78887901306155,118.16783795826962L183.9480035836356,111.87824169262079L184.18669043949674,129.99740635691012L184.26625272478375,99.15346811587142L184.42537729535783,93.04638574443841L184.5845018659319,112.9574733872294L184.66406415121895,136.12562258591285L184.74362643650602,146.90049948059936L184.82318872179303,124.77110389356234L184.9823132923671,104.20883075525643L185.06187557765415,129.8658038479782L185.1414378629412,144.4876923742885L185.3801247188023,132.61994110034834L186.01662300109865,127.9690337968726L186.33487214224678,110.42858381058261L186.41443442753385,105.09470755505211L186.65312128339494,95.8885093043072L187.1304949951172,122.58328135445764L187.21005728040421,139.95354154213902L187.3691818509783,139.75774495018138L187.7669932774135,125.66272735643376L187.92611784798757,69.68118566991092L188.00568013327464,96.12488520103571L188.32392927442277,123.04330475865463L188.40349155970983,124.01497699596219L188.80130298614503,128.26850518308024L188.9604275567191,153.926601219604L189.03998984200612,134.81359325025835L189.1991144125802,151.48223213603265L189.91517498016358,161.06426820506738L189.99473726545062,147.65720506048223L190.15386183602467,149.94811809027232L190.31298640659875,143.43658823956918L190.5516732624599,135.49847779703668L190.63123554774694,142.55270764579421L191.3472961153303,132.35111652029747L191.82466982705253,93.75991819627822L192.3816058240618,100.07503646166546L192.69985496520994,120.00996917223588L192.779417250497,94.81522949779722L193.09766639164516,77.17362637753078L193.8137269592285,104.98033440724309L194.13197610037668,117.66715091448044L194.21153838566372,107.25522686796344L194.29110067095075,106.20127387916814L194.68891209738595,70.06876207328236L195.1662858091082,56.5010104807808L195.4049726649693,47.34496059383178L195.48453495025635,36.41112049888975L195.5640972355434,64.04702357788258L195.8027840914045,87.06781553379166L195.96190866197858,110.22979737454551L196.12103323255266,126.77855952908686L196.20059551783973,143.8824489031591L196.28015780312674,152.13112809466062L196.5984069442749,164.68107596986235L196.75753151484898,171.49305047108848L196.9962183707101,125.56682892412397L197.07578065599714,122.16128188946648L197.15534294128418,99.5256941335825L197.47359208243236,71.0252456806111L197.95096579415457,81.10292182298306L198.50790179116385,89.53201964535357L198.5874640764509,60.542142936340525L198.66702636173792,43.48091421214441L199.06483778817312,69.90412545920091L199.1444000734602,89.86087293460157L199.30352464403427,108.80209675476979L199.94002292633056,126.84881544005617L200.09914749690464,99.7975593973778L200.25827206747874,70.06537299383753L200.33783435276575,60.2310609195036L200.5765212086269,87.04594937150631L201.13345720563618,58.70993251486831L201.3721440614973,87.19684743470584L201.53126863207137,112.69408352968125L201.69039320264545,133.74768716646113L202.08820462908065,148.3964515790336L202.48601605551582,162.85293337623173L202.5655783408029,183.3555896240371L203.0429520525251,211.87838607228818L203.52032576424736,175.12387766103734L203.67945033482144,184.64423707385154L203.8385749053955,195.7995860201082L204.07726176125664,171.03868915079835L204.15682404654365,140.71701820331054L204.23638633183072,133.84190359045095L204.31594861711775,142.69562156013689L204.55463547297884,151.79692328847966L204.71376004355292,176.3405779434643L205.11157146998812,179.6260348935314L205.35025832584927,139.81180307475856L205.50938289642335,148.7452956373585L205.82763203757148,157.22517691833553L205.90719432285854,176.61510576598207L206.30500574929374,184.88596548923203L207.1006286021641,186.68935119732078L207.4188777433123,139.1177808165983L207.49844002859933,142.0374551031227L207.65756459917338,149.31034408543943L207.73712688446045,158.4040183645718L208.21450059618266,157.93463028009796L208.29406288146973,155.95919750734214L208.4531874520438,171.9198141220693L208.61231202261789,138.8003250509364L208.850998878479,140.17716297592085L208.93056116376604,118.05489971347514L209.08968573434012,123.15242134896468L209.32837259020124,118.17200777134455L209.6466217313494,86.37755790146808L209.80574630192348,106.85990779363391L209.88530858721052,113.36191144394705L210.04443315778462,83.49960378328188L210.12399544307164,97.91203939777472L210.6809314400809,91.27200847654777L210.840056010655,62.825457632500466L211.0787428665161,79.11121226329998L211.2378674370902,79.11619658822406L211.31742972237726,70.07327705355412L211.39699200766427,71.64361424417895L211.87436571938653,98.6915036711493L212.6699885722569,54.99973278243233L212.82911314283098,33.20656220288661L213.22692456926617,61.66573164667607L213.38604913984025,89.20800751934084L213.70429828098844,113.57313156439588L213.78386056627545,130.950630356994L213.86342285156252,142.23258861147158L214.02254742213657,159.15935527683962L214.18167199271065,154.89458163756447L214.26123427799772,148.68532402260936L214.57948341914584,148.8553526737416L215.05685713086808,96.63348599897593L215.2159817014422,95.22380122788135L215.37510627201627,60.57838303031693L215.69335541316443,89.69437091507295L216.40941598074775,108.24434175610052L216.48897826603482,120.87321539888286L216.56854055132183,91.0119514201085L216.88678969247,101.45995474022193L217.2846011189052,39.295810567406924L217.36416340419225,68.37393596789981L217.44372568947927,90.14410967240578L217.76197483062745,105.35880454752292L217.84153711591446,123.77430595022324L218.0802239717756,139.1723620192423L218.2393485423497,151.9983676900467L218.4780353982108,160.45816405168443L218.875846824646,126.08530113669735L219.03497139522008,99.3715793522072L219.19409596579416,71.90804215920913L219.2736582510812,62.587102933804665L219.67146967751637,58.65212277809188L219.83059424809048,86.55008570983718L220.22840567452565,109.05991779243696L220.4670925303868,126.98608855747747L220.62621710096087,110.73641652424278L220.78534167153492,120.13891259344916L221.18315309797015,93.2794859069574L221.42183995383127,82.21283775058711L221.58096452440535,86.07911545615218L221.74008909497942,52.1111927263189L221.81965138026646,47.01557173669792L222.05833823612755,50.57646940333152L222.13790052141462,53.65524136522024L222.21746280670166,67.4560285834451L222.45614966256278,57.66944741438084L222.53571194784982,43.39813626956694L222.61527423313683,69.93144299174897L223.25177251543317,78.4023510648041L223.3313348007202,89.92917970073827L223.41089708600725,93.08254023957804L223.57002165658133,100.01779973052301L223.64958394186837,99.05114281558L223.96783308301653,68.52851904167572L224.1269576535906,55.113296033453906L224.84301822117396,66.80879728336812L225.24082964760916,80.24675463767589L225.3203919328962,89.15486727893195L225.39995421818324,90.65489812940318L225.55907878875735,86.74679276693563L225.95689021519252,94.30682253634083L226.03645250047956,105.57186774750934L226.11601478576662,91.67809602138792L226.19557707105363,81.5506308082662L226.3547016416277,86.65489091343387L226.5138262122018,60.6704328930896L226.83207535334998,36.72326794953681L227.1503244944981,48.20863146997807L227.22988677978515,56.670232765196225L227.38901135035925,77.66385200472939L227.62769820622034,76.40001485651523L227.78682277679442,93.4312846510555L228.3437587738037,40.081657290121356L228.7415702002389,63.93858946327863L228.98025705610002,82.70201328839875L229.37806848253524,69.63244581860829L229.61675533839636,67.31966670663014L229.69631762368337,68.41203009775582L229.77587990897044,71.90767143505198L230.0941290501186,59.04433060748429L230.41237819126673,83.85580893218764L230.5715027618408,104.4817330020144L231.20800104413715,108.63647576881955L231.28756332942416,114.06073779847749L231.36712561471123,80.41303504663809L231.68537475585936,95.53942890520143L232.00362389700754,122.70780236204466L232.3218730381557,96.24762728883017L232.4014353234427,77.44055373239514L232.7196844645909,99.86381431772818L232.7992467498779,107.06691554617994L232.87880903516498,33.28317156847197L232.958371320452,62.00703561797813L233.27662046160017,76.85317356693247L233.51530731746126,89.43127207997098L233.7539941733224,81.65624850813994L233.91311874389646,84.14115428902444L234.07224331447054,93.19855902579002L234.39049245561873,114.59547702820919L234.78830388205392,132.754816442121L234.86786616734096,152.51271921193634L234.947428452628,140.58790432996648L235.10655302320208,154.0936032888717L235.1861153084891,133.81042108454318L235.3452398790632,134.11396289185402L235.50436444963728,124.96163572506987L235.58392673492432,136.48162734074546L235.66348902021136,112.09397121090393L236.29998730250767,120.15294597356463L236.45911187308172,120.33306818881984L236.69779872894287,117.36066701243008L236.7773610142299,87.09692896440217L236.85692329951695,108.00255685375849L236.936485584804,104.35420404655643L237.09561015537807,95.56478616099423L237.25473472595215,72.28350673772078L237.49342158181327,58.730878955604126L237.5729838671003,77.4555360181038L237.89123300824846,93.34823750872211L237.9707952935355,110.23597683881029L238.05035757882254,107.65978901771173L238.2890444346837,105.83312737056312L238.92554271697998,103.29619657128549L240.3576638521467,110.78049869121021L240.43722613743373,124.85616743375297L240.83503756386895,126.20429158352705L240.91459984915596,132.86603223304328L241.07372441973007,112.17230754901125L241.23284899030415,127.40141025186168L241.31241127559116,130.8118091388267L241.55109813145228,140.01776257062153L241.86934727260044,118.15308979043745L241.9489095578875,108.06900142957679L242.10803412846155,127.74660611227195L242.26715869903563,139.1870190297385L242.3467209843227,129.91595322720815L242.74453241075787,125.01227457228366L242.8240946960449,140.8089262675077L243.06278155190606,141.04810961320126L243.14234383719307,132.36976633745857L243.46059297834125,146.21249114023848L243.54015526362826,144.6282567114681L243.61971754891533,155.79786197135633L244.09709126063754,148.51995049006598L244.25621583121162,152.63979253293405L244.3357781164987,163.09784527496063L244.4153404017857,142.60734206044376L245.44965011051724,126.2070839138411L245.52921239580425,124.75657306452892L245.68833696637836,132.07571064806953L246.08614839281353,98.39054893078034L246.48395981924872,93.96342348547658L246.6430843898228,67.28291638368789L247.12045810154507,78.30550394127019L247.27958267211915,101.58457344525112L247.43870724269323,92.64158101754212L247.5978318132673,103.16439797486238L247.67739409855434,90.21783875575366L247.83651866912842,93.7656289550023L248.23433009556362,96.4353960277194L248.31389238085066,56.687881971413844L248.3934546661377,67.11274641078641L248.4730169514247,83.54244875503423L248.71170380728586,79.37517531638474L248.7912660925729,102.77289788263738L249.029952948434,116.80592759120739L249.10951523372105,75.75498621782343L249.1890775190081,90.42285173223014L249.26863980429513,81.52886808602172L249.58688894544326,74.36376084174643L249.66645123073033,39.38857556811166L250.06426265716553,60.95929203032952L250.2233872277396,70.33327382916087L250.6211986541748,69.44893553848851L250.70076093946184,39.590498831826814L250.85988551003595,64.48292664894774L251.01901008061,91.26194938736538L251.09857236589704,118.45277740846007L251.25769693647112,139.76120063151325L251.4168215070452,154.92299519224687L251.8146329334804,172.25698785094247L252.05331978934151,167.2807234538021L252.2124443599156,168.5039807790731L252.29200664520263,161.1829909388788L252.6102557863508,174.41265765781654L253.008067212786,181.2727685939525L253.56500320979526,166.02674318863046L253.6445654950823,112.42305454297603L254.0423769215175,137.92907083924334L254.20150149209158,136.29756672807758L254.59931291852678,132.12067485246752L254.67887520381382,144.53121254320888L254.75843748910086,129.0223673894707L254.8379997743879,130.8207997697203L255.55406034197125,133.65753821672703L255.95187176840645,98.88868332842752L256.19055862426757,93.98259064897287L256.27012090955463,72.48542951548046L256.98618147713796,48.97470154968446L257.14530604771204,73.18244343266652L257.3839929035732,41.455808688074L257.54311747414727,44.623156034828284L258.0204911858695,54.19265689235441L258.57742718287875,77.17443667114273L258.73655175345283,81.93117593075488L258.8161140387399,96.71403639896455L258.975238609314,124.11829065329827L259.21392546517507,130.72189314403403L259.5321746063233,71.83388377764093L259.77086146218437,95.4091943354125L259.8504237474714,103.78758226680475L260.00954831804546,125.59701995894315L260.16867288861954,141.45087371664238L260.2482351739066,138.8875582504363L260.72560888562884,146.83756503582185L260.8051711709159,156.05645339663337L260.96429574148993,125.72695887741916L261.123420312064,137.3004781472447L261.36210716792516,130.9599068280387L261.91904316493446,107.47122523577632L262.23729230608257,119.64698964349958L262.31685459136963,139.8930465240325L262.5555414472307,153.98737557437587" fill="none"></path></g></g></g></g><g opacity="0.2"><g><g><g><path style="fill: none;" stroke="rgb(255, 112, 67)" stroke-width="2px" d="M40.17895406995501,34.13373071182945L40.25851635524205,37.327594570963036L40.81545235225133,104.66011904028737L41.213263778686525,63.819939170758936L41.3723883492606,57.07743381990157L41.61107520512172,71.00501172580016L41.7701997756958,53.33472860814405L41.84976206098284,10.201107623246381L42.00888663155692,22.436270084237535L42.168011202131005,12.232378192582845L42.406698057992116,-13.828340163325347L42.565822628566195,79.74396684449191L43.12275862557547,19.220940393108517L43.44100776672363,17.078203644287296L43.52057005201067,131.69017685405996L43.600132337297715,26.59334225056861L43.83881919315883,18.96262250807004L44.55487976074219,147.3526149543904L44.63444204602923,100.43630946452835L44.71400433131626,58.274581813749876L44.952691187177386,83.35260687514074L45.191378043038505,134.3449651839965L45.50962718418666,75.40173700298915L45.82787632533482,131.48754825818986L45.90743861062187,112.81691100123886L45.9870008959089,95.8494910593353L46.14612546648298,67.65816471614842L46.30525003705706,69.52101872098326L46.3848123223441,95.44719520785765L46.54393689291818,57.49573986131428L46.623499178205215,54.98304963141238L46.7826237487793,21.6827293031195L46.94174831935337,49.644625887921634L47.498684316362656,-14.956412063080034L47.737371172223774,20.389078399681335L47.81693345751081,55.784022526154196L47.97605802808489,81.99925889365352L48.29430716923305,60.62132622604789L48.69211859566825,128.14630850842195L48.771680880955294,-2.6588993106970467L49.72642830439976,61.31307209363498L49.8059905896868,67.41526100883212L50.12423973083496,91.25815889484808L50.36292658669608,105.60226088289981L50.52205115727016,81.04646786852729L50.681175727844234,80.60337535220765L51.3972362954276,47.10725706708736L51.87461000714983,74.70498017106688L52.27242143358503,91.20017195966601L52.35198371887207,23.264574634920912L52.59067057473319,-23.238002786528067L52.74979514530727,64.0082584703845L52.908919715881346,45.88561181580687L53.38629342760359,62.782040149261306L53.46585571289063,79.53181552594762L54.18191628047398,-27.846343502061348L54.341040851048064,30.44120262453641L54.500165421622135,43.32788567279567L54.738852277483254,57.156660482094445L55.454912845066616,92.48690194266068L55.693599700927734,76.95961318943782L55.773161986214774,22.335276903639006L55.93228655678885,126.583218141243L56.17097341264997,-49.343993400153266L56.72790940965925,58.2859589862205L56.88703398023333,102.90909484159253L56.966596265520366,45.794357995982516L57.28484540666852,43.032957051937096L57.36440769195556,37.5634182356364L57.44396997724261,19.14189357058923L57.52353226252965,55.00450675408014L57.76221911839077,51.46461280413256L57.84178140367781,15.518365825551717L58.160030544825965,56.670062469259626L58.239592830113,74.2351422823686L58.319155115400044,34.944985085410806L58.71696654183524,1.7300525641148785L58.87609111240932,92.91135659131923L58.95565339769636,39.31212737115621L59.27390253884452,132.81333612530156L59.671713965279714,55.98199292449026L59.751276250566754,68.8266780018854L59.91040082114083,146.83333196964654L60.06952539171491,37.546654209692925L60.14908767700195,89.67054923948272L60.22864996228899,97.9972454281346L60.46733681815011,67.86596820459005L60.626461388724195,66.39480418071724L60.86514824458531,5.890044877539952L61.024272815159385,24.326845643461503L61.26295967102051,11.00547948210464L61.34252195630754,15.502848702574184L61.6607710974557,9.432394450527761L61.74033338274275,131.29662534243857L61.81989566802979,42.561530480555696L61.899457953316826,102.43444944531718L62.138144809177945,67.6214915617199L62.217707094464984,82.60021127019509L62.61551852090018,51.653735220086986L63.2520168031965,73.97716477199045L63.411141373770576,82.38067002450192L63.49070365905762,78.81474493714539L63.649828229631694,47.33544126712243L63.80895280020578,90.62899922068758L63.88851508549281,21.132344441320047L64.12720194135393,112.42000584342291L64.20676422664097,53.961915931797634L64.28632651192801,75.67167905191822L64.44545108250209,43.71230799018171L64.92282479422433,40.0382511860644L65.00238707951137,34.597471799793055L65.0819493647984,94.21931592520166L65.47976079123362,60.09906710008909L65.63888536180768,77.21685136316255L65.71844764709472,176.77236104874078L65.8775722176688,8.877507718652426L66.67319507053921,107.11451231919014L66.83231964111327,42.142696399972344L67.0710064969744,12.706730045021471L67.30969335283552,157.08309732003738L67.4688179234096,91.97229562769051L67.70750477927072,4.000773187263391L67.8666293498448,55.71662559151696L68.02575392041888,29.506921230518135L68.18487849099296,16.777153248891782L68.42356534685408,94.57066541045714L68.50312763214112,90.12758078894522L68.6622522027152,46.372864156925296L69.21918819972447,39.66842686157592L69.29875048501151,45.34041111412474L69.37831277029855,-35.470116814839294L69.45787505558559,27.064583666105865L70.25349790845598,49.25662404718317L70.49218476431712,53.56631938201159L70.57174704960416,63.597281857134156L70.8899961907523,30.377490466484854L71.2878076171875,108.27177902651141L71.44693218776158,69.45264445971124L71.60605675833565,27.437777456865252L71.84474361419677,53.26709994163952L72.08343047005789,23.764154931449543L72.56080418178013,46.188435708711346L72.64036646706717,55.454160145392514L72.79949103764126,11.642220123739278L72.8790533229283,95.25477636023629L73.35642703465052,116.36613577037055L73.43598931993758,3.3559396810360225L73.6746761757987,60.065381172541855L73.99292531694685,47.850192855996234L74.07248760223389,60.13196271903567L74.15204988752093,34.391418347983794L74.23161217280797,123.54098369538882L74.62942359924317,-41.98509623056284L74.86811045510429,57.84061882440668L74.94767274039131,85.31355906622305L75.02723502567835,69.31383906635836L75.42504645211356,44.8268589596823L75.82285787854876,120.5493016137657L75.98198244912284,78.91715845295926L76.06154473440988,89.05444842407897L76.14110701969692,76.38299059412311L76.22066930498394,29.467909378093402L76.37979387555804,14.322367808515068L77.01629215785435,81.83770529519461L77.33454129900251,134.04745135758728L77.41410358428956,54.907365216941656L78.20972643715994,150.53740371488053L78.60753786359516,41.53775497646141L78.76666243416922,8.516026213652667L78.84622471945626,34.824329207680904L78.9257870047433,98.63960396613845L79.00534929003034,68.19685936323376L79.32359843117851,-36.64904561173468L79.72140985761371,27.600682097868805L79.80097214290075,70.66499022284655L80.03965899876185,50.6845645434557L80.43747042519706,68.09966825135773L80.5170327104841,87.27138636666825L80.83528185163225,51.707195094572L80.9148441369193,78.25382309545492L80.99440642220634,102.08665336381965L81.15353099278042,64.6908091227803L81.39221784864152,102.6352893590895L81.7104669897897,8.9633018791588L81.79002927507673,175.62026780319925L82.10827841622489,6.619098095907811L82.18784070151193,-0.6311743676276259L82.58565212794713,75.5623515261682L82.7447766985212,109.42914948438472L83.1425881249564,23.16140082149556L83.22215041024344,78.53728672828485L83.30171269553048,73.13674150586974L83.5403995513916,46.708313570796L83.61996183667864,70.55732050846687L83.69952412196568,122.01037064381951L83.9382109778268,48.797503631955294L84.01777326311384,14.081420790572793L84.09733554840088,-31.925180287691173L84.17689783368792,146.17828218536417L84.57470926012311,47.82195682645694L84.7338338306972,-31.283447271064315L84.81339611598423,92.31599759410557L84.89295840127129,93.47626367540384L84.97252068655833,85.03915092365524L85.21120754241943,11.710539595551825L85.37033211299351,-15.013769112653511L85.60901896885464,62.32390612413022L85.68858125414167,97.48144581694882L86.08639268057688,174.6921403626739L86.16595496586392,129.82517870592076L86.40464182172502,-9.181765380841345L86.5637663922991,127.59132181205236L86.9615778187343,63.80227200180942L87.12070238930838,59.49920598642861L87.35938924516951,170.93294808202288L87.51851381574357,45.83381758559237L87.59807610103061,18.926816990838642L87.67763838631765,141.51630635110808L87.7572006716047,23.52280420140478L87.91632524217879,95.09865665186615L87.99588752746583,108.50695145277068L88.15501209803989,47.90892684601341L88.31413666861397,88.47398414974181L88.39369895390102,70.67499007544032L88.47326123918806,92.82827329352953L88.71194809504918,48.34258083567684L88.9506349509103,61.25413035916081L89.3484463773455,155.43603306811295L89.66669551849365,142.61205053612565L89.7462578037807,90.24128830303036L89.90538237435477,24.91151436639318L90.14406923021589,99.59772319717756L90.46231837136405,48.13736065575598L90.54188065665109,62.51164205732585L90.70100522722517,92.1770642997779L90.7805675125122,41.38641999761891L90.86012979779925,27.839105942685276L90.93969208308629,10.610175882211196L91.25794122423446,32.014082715541825L91.33750350952148,31.633635772321043L91.49662808009556,-15.233705160255688L91.5761903653826,57.21266449745835L91.89443950653077,86.45814201300043L92.53093778882707,41.5857981976477L92.84918692997523,44.3130267011215L92.92874921526229,12.937571089137391L93.16743607112339,30.879320303747328L93.24699835641043,118.1825492617709L93.32656064169747,23.08719745904773L93.48568521227155,45.57270926810998L93.5652474975586,6.71168353865205L93.72437206813268,59.45815725013372L93.88349663870675,136.18918090934542L93.96305892399378,65.57862949118169L94.12218349456788,82.19815409696852L94.28130806514196,67.40542671109486L94.51999492100306,113.22093232156284L94.7586817768642,212.92076233366444L95.07693091801234,120.029798706379L95.15649320329938,140.93408042923576L95.71342920030865,34.25253099120857L95.87255377088275,22.494285269097755L95.95211605616979,66.58066205094431L96.34992748260497,108.75384728745922L96.66817662375314,63.67636718084615L96.82730119432722,47.15715537953594L97.14555033547538,-3.2222590107788442L97.54336176191059,35.16645133180568L97.94117318834577,107.60945173227358L98.02073547363281,101.61061749153009L98.10029775891987,182.9778482265596L98.33898461478097,80.81340092941831L98.49810918535505,48.67129269895044L98.65723375592913,13.543215765447528L98.73679604121618,87.50854828740918L98.89592061179025,65.81134754024883L99.13460746765136,21.84194083438096L99.2141697529384,37.80697727953492L99.29373203822546,27.17623690223432L99.45285660879952,60.03529616048919L99.6119811793736,50.11422204279144L99.69154346466064,-7.070733170898365L99.85066803523473,40.90886185371178L100.00979260580881,50.97762873141537L100.32804174695696,88.65821905438274L100.48716631753105,49.714198561642355L100.80541545867919,74.76045469344983L100.88497774396623,6.734657062079979L101.12366459982736,126.67404209565504L101.28278917040144,86.85434265384133L101.52147602626255,118.81646778025747L101.68060059683664,166.832978883305L101.83972516741072,61.17281056750975L102.07841202327182,88.74674925459536L102.31709887913296,28.514983239313818L102.39666116442,74.762021821423L102.7944725908552,114.60968222260122L103.19228401729038,10.877271896804864L103.51053315843855,138.73522955595237L103.59009544372559,16.694237801919822L103.66965772901263,18.232897485999093L103.82878229958669,94.04040231382102L103.90834458487375,21.447157932437275L103.98790687016078,39.90135406586903L104.38571829659598,53.04493224075599L104.6244051524571,73.8080121029099L104.70396743774414,-14.951532190416087L104.78352972303118,116.03997772115409L104.86309200831822,40.57210844903438L105.02221657889231,1.489430566856943L105.26090343475342,18.799382511886627L105.49959029061453,80.55359569323538L106.2156508581979,79.29971363825207L106.45433771405901,89.70811465501569L107.01127371106828,63.61196917143974L107.09083599635532,92.04231040419346L107.17039828164236,30.064283445645682L107.48864742279054,27.872582194309544L107.6477719933646,65.23533201435367L107.80689656393868,-7.839605424885307L107.88645884922573,20.60327000535814L108.20470799037388,-1.8493869809100436L108.68208170209613,65.97207066672699L108.84120627267019,72.36360781515144L109.07989312853132,53.66441048885465L109.15945541381836,121.9571014241274L109.39814226967948,33.22910763882841L109.6368291255406,68.30273554261944L109.79595369611468,143.74019775043453L109.95507826668876,86.89391926345014L110.35288969312396,76.68848919896644L110.432451978411,67.26197851892056L110.67113883427211,114.49498036632954L110.98938797542027,40.75571140829497L111.14851254599435,32.80808785171857L111.46676168714251,90.23762903156485L111.54632397242955,69.3725763879514L111.78501082829067,151.8301720313832L111.94413539886476,62.362545592865466L112.02369768415178,3.3756777380997454L112.2623845400129,36.94657853445542L112.34194682529994,1.8370753175031034L112.58063368116107,150.14075938073964L112.6601959664481,113.39987175581663L112.73975825173514,198.98734982651365L113.21713196345739,21.017202007523185L113.61494338989257,178.7110445971655L113.77406796046667,150.47562070409052L113.85363024575369,133.78577387596323L114.96750223977226,20.625022368114145L115.0470645250593,67.32790569236616L115.20618909563336,67.5607461352291L115.76312509264264,94.07371343330344L115.84268737792968,46.90730863487512L115.92224966321672,69.9059471322136L116.24049880436489,78.75516567677046L116.32006108965193,165.9448122806813L116.63831023080009,115.28310381547024L116.95655937194823,137.09733296870934L117.03612165723527,73.71387705806232L117.19524622780936,29.389533479326722L117.35437079838344,53.270841401258096L117.43393308367048,51.72727147456429L117.51349536895752,145.3296632604488L117.59305765424455,12.783905678948388L118.22955593654086,80.88397341706148L118.54780507768903,23.377807000816844L118.70692964826311,86.76460701722198L118.94561650412423,84.51586815825688L119.34342793055943,27.835317265629236L119.82080164228167,112.30338844817899L119.9003639275687,110.20868991100618L119.97992621285576,155.2137314606037L120.13905078342982,-8.935638302593604L120.37773763929094,131.68543448080456L121.17336049216135,105.11865186157448L121.33248506273543,13.913843032088016L121.4916096333095,125.67868982103053L121.73029648917063,106.79998462416698L121.96898334503175,63.3515193207039L122.12810791560581,64.44093558963277L122.20767020089285,50.23540529290938L122.60548162732806,24.345022565774645L122.68504391261509,29.826108355902665L122.92373076847622,125.61722837309975L123.00329305376326,87.71101833806753L123.0828553390503,8.819155072619282L123.3215421949114,107.63362350357181L123.40110448019844,121.82812775576484L123.71935362134661,96.9773699800733L123.87847819192068,23.8436392509452L124.35585190364293,41.289753144944754L124.514976474217,86.50184397975136L124.75366333007813,49.0139960104684L125.07191247122628,118.34746838996644L125.39016161237444,120.91265895834367L125.54928618294852,66.62894081000047L125.86753532409668,52.6361628021307L125.94709760938372,73.02625125584999L126.34490903581893,28.139285924684856L126.504033606393,21.206037716854905L127.45878102983748,85.93020551689435L127.77703017098563,130.47819572959142L127.85659245627267,113.78035353116199L127.9361547415597,160.29443473599207L128.17484159742082,99.83615109686959L128.3339661679949,37.31610035732333L128.57265302385602,-14.66534944347203L128.89090216500418,61.605027247149394L129.05002673557826,94.06761824350772L129.1295890208653,64.47843827144276L129.44783816201345,200.6464547808284L129.5274004473005,172.41516576126844L129.76608730316164,123.53363256755694L130.08433644430977,24.241746243643L130.1638987295968,115.98783067501901L130.32302330017092,82.43734781661163L130.48214787074497,65.89968054014392L130.72083472660609,182.54553601219197L131.11864615304128,61.19263340911582L131.27777072361536,82.18177202637757L131.43689529418944,86.47473364006879L131.6755821500506,69.87575156814981L132.07339357648578,189.8457517220151L132.15295586177282,165.0704375932911L132.3120804323469,97.62850676747186L132.47120500292095,42.83012279672902L132.550767288208,-5.332738476446759L132.63032957349506,83.76690807402274L132.86901642935618,210.69198408607335L133.26682785579138,-0.332958807407091L133.42595242636546,38.51612072432246L133.5055147116525,-1.6721979503218256L133.82376385280065,64.79485206590388L134.22157527923582,62.078982989928726L134.539824420384,91.69682559955355L134.85807356153214,111.78335899654161L134.9376358468192,55.45782397561809L135.3354472732544,30.437668015564256L135.49457184382848,127.8112887740159L135.65369641440256,121.84691557777336L135.81282098497664,157.72404292905333L136.05150784083776,102.09644084689586L136.1310701261248,114.86800508660758L136.44931926727295,93.69556239210206L136.9266929789952,87.697055464972L137.08581754956927,83.9663630063782L137.24494212014335,65.72563278203951L137.40406669071743,79.39235100771732L137.48362897600447,107.81337061926463L137.88144040243967,38.68449951355699L138.27925182887486,29.62606453656279L138.51793868473598,42.1073481931637L138.67706325531006,2.2579045262883333L138.83618782588414,12.2253799896102L138.91575011117118,5.591584281299774L139.07487468174526,32.683100924789436L139.23399925231934,30.993996207802617L139.47268610818045,166.4601075708496L139.63181067875453,134.24014459443913L139.71137296404157,63.283154462182786L139.7909352493286,128.15851233712164L139.87049753461568,51.13219428582628L140.42743353162496,139.42686579353537L140.586558102199,82.18186853279629L140.82524495806013,148.72528395072658L140.90480724334716,74.60052168168096L140.98436952863423,104.41807619826956L141.46174324035644,163.64540525778887L141.85955466679164,169.44841402123942L142.09824152265276,36.53468030689921L142.1778038079398,121.52615172488198L142.81430209023614,125.67427036791373L142.89386437552315,89.12126888068074L142.97342666081022,124.94854217031313L143.05298894609723,171.21940238800568L143.2121135166713,85.66882940621997L143.6099249431065,90.68733708611441L143.76904951368059,71.95464181524108L143.84861179896762,63.239276613035706L144.48511008126397,162.48617737697325L144.56467236655098,112.05330271150882L144.88292150769914,77.12883541528075L145.04204607827324,126.94639755478542L145.20117064884732,85.46795213221232L145.28073293413433,21.804605094520525L145.4398575047084,25.930217727746083L145.7581066458566,94.24161501904503L145.8376689311436,117.26636787060345L145.9967935017177,141.399344035236L146.1559180722918,76.73982334829395L146.2354803575788,101.37073445929498L146.3946049281529,91.61781095152769L146.47416721343996,80.85112007868094L146.55372949872697,95.08811819990889L146.63329178401403,110.89300178651025L146.95154092516216,96.80158149312615L147.03110321044923,81.65460488573031L147.26979006631032,107.0574819752548L147.3493523515974,71.14074772303142L147.42891463688443,171.6650045144992L147.7471637780326,77.34064713601364L147.8267260633196,163.32201425000923L147.9858506338937,60.20288517370903L148.38366206032887,215.75592499565187L149.02016034262522,130.8842811612318L149.25884719848634,120.76701207656266L149.41797176906041,193.89855829937824L149.5770963396345,35.975076601977875L149.65665862492153,151.07002456978825L149.9749077660697,98.39778946279091L150.13403233664377,110.18269615924379L150.3727191925049,73.65421314955124L150.45228147779193,-9.186374662894789L150.61140604836598,43.4979232098213L151.16834204537525,156.95022656197014L151.32746661594936,73.4823054115589L151.4070289012364,120.98773494208632L151.72527804238456,116.81116851995048L151.8048403276716,30.008239235883135L152.04352718353272,7.845428390143163L152.12308946881976,116.61370063642491L152.2026517541068,73.54049250348456L152.36177632468087,215.24567699002935L152.4413386099679,94.23435742387251L152.600463180542,39.65407377804757L152.75958775111607,12.955709961938272L152.8391500364031,87.5409476204033L153.15739917755127,153.11049415194418L153.3960860334124,47.88770036921482L153.71433517456055,43.94867962283086L153.79389745984759,5.417530831339951L154.0325843157087,120.96097543878308L154.19170888628278,82.44044973828623L154.35083345685686,17.71241575601007L154.4303957421439,218.8115127254768L154.50995802743094,119.01755623270061L155.2260185950143,-5.641221941383329L155.3851431655884,-31.038000343364477L155.6238300214495,167.13061503878242L155.78295459202357,6.652079870126689L155.94207916259768,109.0418334547151L156.49901515960696,57.335827306919725L156.57857744489397,163.61112213837194L156.8172643007551,133.88782913610325L156.89682658604212,84.54932471326799L156.97638887132916,112.35832831603135L157.3742002977644,48.921566714238274L157.61288715362548,74.82896534979517L157.7720117241996,247.3849383935819L158.01069858006068,185.42635996017913L158.09026086534772,132.21826705717464L158.16982315063476,99.11564584136715L158.48807229178294,122.56136502833901L158.56763457706995,105.36578747937035L158.72675914764403,67.62220145299699L158.88588371821814,158.0006076032246L158.96544600350515,21.308522857190024L159.2836951446533,142.75059988807408L159.36325742994035,202.40702586850674L159.6815065710885,68.86091001722446L159.76106885637557,120.29111565764433L159.92019342694965,111.91833313395372L160.0793179975237,169.0740918971307L160.47712942395893,57.75642216158301L160.55669170924597,131.54543379529272L160.71581627982005,124.73518313826013L160.95450313568114,65.31287273411424L161.5114391326904,145.40371943494236L161.6705637032645,116.71260710943159L161.98881284441268,113.7427393115237L162.0683751296997,111.45845858638536L162.38662427084788,209.80586468654445L162.4661865561349,154.27520834074784L162.94356026785715,135.82588224650402L163.18224712371824,189.1775413285369L163.2618094090053,149.72862222122498L163.34137169429232,207.6126469453595L163.50049626486643,54.042749202081055L163.58005855015347,88.83986735018001L163.6596208354405,147.61436243923401L163.73918312072752,46.25936139038699L164.0574322618757,61.94309188545335L164.13699454716274,114.94270738006995L164.2961191177368,13.404783140527154L164.37568140302386,56.21049053704453L164.53480597359794,78.13682793303794L164.77349282945906,49.81540238693336L164.8530551147461,117.78356395433804L165.17130425589426,215.01248356141775L165.2508665411813,160.48560406009918L165.8873648234776,262.0070385659469L166.2851762499128,83.62454352955818L166.76254996163505,260.9304620951551L166.92167453220912,204.74939960835994L167.31948595864432,73.43419961949117L167.63773509979248,163.74869850553455L168.11510881151474,153.18428985430603L168.43335795266287,293.1015946579349L168.75160709381103,96.20679044791947L168.9107316643851,49.672971927369204L169.0698562349592,63.01973437640411L169.3085430908203,44.29647280484385L169.7063545172555,42.00594890210024L170.1041659436907,126.8787491598514L170.66110194069998,140.77443794082507L171.13847565242222,138.54712825026377L171.2976002229963,192.5351961180084L171.4567247935704,110.3457584075017L171.61584936414448,113.87252256990467L171.6954116494315,130.4538335613488L171.9340985052926,131.6895640826102L172.65015907287597,104.89326027452509L173.5253442110334,107.54243694378717L173.60490649632047,94.07477961888316L173.84359335218159,82.16115842610577L173.9231556374686,97.16997490448489L174.24140477861675,125.23204497792541L174.32096706390382,141.69660469947422L174.48009163447787,102.26861293288327L174.8779030609131,71.18606251716226L175.11658991677422,142.78675729389678L175.5144013432094,187.2290234301255L175.59396362849645,186.44845724606947L175.6735259137835,144.67597648529826L175.83265048435757,116.4051781112748L175.91221276964458,93.9192591337951L176.31002419607978,81.62102558367053L176.38958648136685,58.71230160850662L176.62827333722794,98.5282365266585L176.707835622515,126.22767831620664L177.1056470489502,155.21491717099286L177.5830207606724,65.74247483950361L177.66258304595948,47.048380790088956L178.06039447239468,100.82604575215728L178.37864361354283,108.99329472840056L178.77645503997803,114.1359843680393L179.41295332227432,137.21161324214614L180.68594988686698,124.11182918806533L180.76551217215402,14.76254242093959L181.16332359858922,79.60827622296789L182.19763330732073,59.08740968474479L182.27719559260777,25.44709853070016L182.67500701904297,116.7128338337798L182.83413158961704,216.75985516468606L182.99325616019112,130.9982592453468L183.0728184454782,177.24360299680592L183.1523807307652,149.83156448667017L183.47062987191336,227.6350611041055L183.62975444248747,71.04596275529764L183.78887901306155,141.2155721986783L183.9480035836356,103.56282771989795L184.18669043949674,176.31150584354168L184.26625272478375,71.21846228832969L184.42537729535783,84.9445355428946L184.5845018659319,168.2164937218938L184.66406415121895,213.46287112091878L184.74362643650602,168.10460092303111L184.82318872179303,102.19680367695454L184.9823132923671,82.74768178489734L185.06187557765415,234.17722500475776L185.1414378629412,177.0970067738875L185.3801247188023,118.4122535737921L186.01662300109865,121.62491859791184L186.33487214224678,91.26722362985672L186.41443442753385,97.91405104424645L186.65312128339494,84.34739885407043L187.1304949951172,243.9290216431778L187.21005728040421,182.9736972150458L187.3691818509783,139.46528363252392L187.7669932774135,109.40092874737714L187.92611784798757,31.58245451025899L188.00568013327464,212.83809962266494L188.32392927442277,248.87119223414027L188.40349155970983,125.5037011710566L188.80130298614503,135.29772331695642L188.9604275567191,258.2538544184607L189.03998984200612,114.42912294606256L189.1991144125802,191.61284506560142L189.91517498016358,179.27354127807652L189.99473726545062,132.01380937936057L190.15386183602467,153.56360921113784L190.31298640659875,134.86343745331982L190.5516732624599,125.31803568543823L190.63123554774694,155.06093530781112L191.3472961153303,119.78390269830321L191.82466982705253,62.00436148621443L192.3816058240618,111.05998457487287L192.69985496520994,175.39985918391892L192.779417250497,70.20472020641274L193.09766639164516,57.931799125208805L193.8137269592285,253.3621931099386L194.13197610037668,144.1657505601065L194.21153838566372,94.47571058654854L194.29110067095075,104.65540139551649L194.68891209738595,39.444561015398925L195.1662858091082,40.71192160527413L195.4049726649693,35.856501017673686L195.48453495025635,23.11141009658055L195.5640972355434,207.3265355626382L195.8027840914045,163.16989807614738L195.96190866197858,187.51475605227807L196.12103323255266,166.43293006194705L196.20059551783973,185.78443166034873L196.28015780312674,167.23273626332116L196.5984069442749,190.77812035996956L196.75753151484898,183.49543028686045L196.9962183707101,90.81621206122227L197.07578065599714,117.40080266350142L197.15534294128418,76.60263333278317L197.47359208243236,44.40734841586308L197.95096579415457,100.53042570538678L198.50790179116385,105.04043147082372L198.5874640764509,33.64224945657095L198.66702636173792,24.704224660787194L199.06483778817312,186.25598955595382L199.1444000734602,145.37079608019926L199.30352464403427,159.01540836113512L199.94002292633056,172.83407063740268L200.09914749690464,74.03711238524166L200.25827206747874,42.744850137674675L200.33783435276575,48.038304578722816L200.5765212086269,210.75368070791362L201.13345720563618,32.18762245492568L201.3721440614973,262.2745282414708L203.0429520525251,241.24646764249047L203.52032576424736,144.20680719032777L203.67945033482144,202.70440728389693L203.8385749053955,218.0059928647733L204.07726176125664,146.70564847275048L204.15682404654365,113.06840145565148L204.23638633183072,124.85107739194572L204.31594861711775,159.17797755519675L204.55463547297884,168.8581575455802L204.71376004355292,266.87986713623934L205.11157146998812,184.93186790777844L205.35025832584927,107.51885984753486L205.50938289642335,165.4132741964251L205.82763203757148,172.84884010764117L205.90719432285854,229.09794038503497L206.6232548904419,232.233652708422L206.86194174630302,160.15994445768482L206.94150403159003,185.24562173120432L207.1006286021641,193.88162402568662L207.4188777433123,103.76467300272355L207.49844002859933,146.71247296254504L207.65756459917338,162.2808074726094L207.73712688446045,175.44729520677348L208.21450059618266,157.237593649557L208.29406288146973,153.11672588637612L208.4531874520438,209.3062493731483L208.61231202261789,109.66271605400709L208.850998878479,142.30570204198824L208.93056116376604,95.48555043997435L209.08968573434012,131.75173929666911L209.32837259020124,111.42155724074931L209.6466217313494,57.93142947464522L209.80574630192348,165.35405189586885L209.88530858721052,124.7264414833313L210.04443315778462,56.106211111959276L210.12399544307164,129.81769951565948L210.6809314400809,82.55059609431707L210.840056010655,36.23884488328385L211.0787428665161,117.73758291205108L211.2378674370902,79.1236738787022L211.31742972237726,58.703936780311544L211.39699200766427,74.08182193883437L211.87436571938653,227.29034804698074L212.6699885722569,21.105876213395515L212.82911314283098,10.866781184937008L213.22692456926617,235.36925458555697L213.70429828098844,202.20018895983154L213.78386056627545,174.00154760477673L213.86342285156252,164.77789090294425L214.02254742213657,200.33234132908623L214.18167199271065,149.03326457215L214.26123427799772,140.46373655698022L214.57948341914584,149.11133374867745L215.05685713086808,59.69725260306416L215.2159817014422,93.17149577777703L215.37510627201627,30.67349127859803L215.69335541316443,310.65511895466256L216.40941598074775,156.56223734388473L216.48897826603482,147.20136288361044L216.56854055132183,63.61914221234274L216.88678969247,121.8216811636268L217.2846011189052,-0.5151274105185232L217.36416340419225,285.2513610558281L217.44372568947927,156.8091910181966L217.76197483062745,140.02160307929577L217.84153711591446,171.45767672376726L218.0802239717756,174.48971694467252L218.2393485423497,178.90918475839658L218.4780353982108,176.0362057474351L218.875846824646,96.31524586729236L219.03497139522008,73.8158040951201L219.19409596579416,45.9001752509559L219.2736582510812,50.92587578356376L219.67146967751637,53.20894648284042L219.83059424809048,237.86056318261143L220.22840567452565,181.09432135075554L220.4670925303868,172.4291533822315L220.62621710096087,92.62443738405935L220.78534167153492,137.91564846416327L221.18315309797015,67.63512435780612L221.42183995383127,68.78223894226153L221.58096452440535,92.40932125840042L221.74008909497942,22.543225834932695L221.81965138026646,40.12426092103278L222.05833823612755,56.36455501396106L222.13790052141462,58.603302227428586L222.21746280670166,97.36831649268004L222.45614966256278,45.52570785156107L222.53571194784982,26.980090216878857L222.61527423313683,188.2535982794475L223.25177251543317,94.00562585176657L223.3313348007202,113.13773121092068L223.41089708600725,98.15931291187704L223.57002165658133,112.27679288009573L223.64958394186837,97.63070521684729L223.96783308301653,40.769235473643576L224.1269576535906,39.46248339024895L224.84301822117396,90.48031565398286L225.24082964760916,109.01768790345069L225.3203919328962,105.76369871412663L225.39995421818324,92.98027944663649L225.55907878875735,81.33792915827846L225.95689021519252,107.89262875917788L226.03645250047956,128.0717412097155L226.11601478576662,75.59575977803304L226.19557707105363,69.05860676698842L226.3547016416277,95.26701059331043L226.5138262122018,35.56347084821792L226.83207535334998,12.91995893744553L227.1503244944981,71.30413928332592L227.22988677978515,72.25237212902799L227.38901135035925,139.24420127573444L227.62769820622034,74.55443377519354L227.78682277679442,135.03300335003337L228.3437587738037,2.7862907462709554L228.7415702002389,147.47298460710877L228.98025705610002,132.04470542268922L229.37806848253524,54.29757348058127L229.61675533839636,64.01470454198791L229.69631762368337,70.09014004761411L229.77587990897044,77.58093320843533L230.0941290501186,43.89968292734201L230.41237819126673,177.39925469276014L230.5715027618408,163.82337938950465L231.20800104413715,115.48613303069556L231.28756332942416,123.28580606564145L231.36712561471123,51.00638267652558L231.68537475585936,129.8903582706194L232.00362389700754,254.01585231058434L232.3218730381557,70.84686101324786L232.4014353234427,57.28944852016691L232.7196844645909,171.23981436130686L232.7992467498779,119.88926053182084L232.87880903516498,-9.188884370121759L232.958371320452,250.4063633951883L233.27662046160017,110.22831025049526L233.51530731746126,115.6106029101039L233.7539941733224,71.65534011120548L233.91311874389646,88.0802636501194L234.07224331447054,110.15655418513425L234.39049245561873,178.75237209394552L234.86786616734096,206.9392400678916L234.947428452628,126.32566416864904L235.10655302320208,183.0753951959224L235.1861153084891,112.5529908774198L235.3452398790632,134.572274645687L235.50436444963728,113.47708836288831L235.58392673492432,159.6715187783806L235.66348902021136,88.00238430536227L236.29998730250767,134.8312154987512L236.45911187308172,120.60430453967079L236.69779872894287,113.1694878196108L236.7773610142299,59.48032707850823L236.85692329951695,169.0379513931895L236.936485584804,99.27885824489844L237.09561015537807,84.4641088287544L237.25473472595215,48.922941409778275L237.49342158181327,42.95546978558922L237.5729838671003,126.61047493126901L237.89123300824846,130.4798498238199L237.9707952935355,151.2498559171791L238.05035757882254,103.9980950769773L238.2890444346837,103.1966561154394L238.92554271697998,99.68742667234093L240.3576638521467,124.20308916719847L240.43722613743373,155.65323931542275L240.83503756386895,128.28710642651677L240.91459984915596,144.55796314073606L241.07372441973007,90.61579237568138L241.23284899030415,162.11530030761497L241.31241127559116,136.33561515028484L241.55109813145228,157.32618252335487L241.86934727260044,95.76324207991586L241.9489095578875,95.62106668266573L242.10803412846155,181.74232962683644L242.26715869903563,162.160320179323L242.3467209843227,118.30687637560331L242.74453241075787,118.35599120804862L242.8240946960449,177.5825571870748L243.06278155190606,141.40874397775812L243.14234383719307,121.38757192144477L243.46059297834125,176.25862827491946L243.54015526362826,142.3301873419977L243.61971754891533,178.04229309935718L244.09709126063754,139.0728991483678L244.25621583121162,159.42621674726317L244.3357781164987,183.48521811804343L244.4153404017857,121.19841881198158L245.44965011051724,107.97048316473794L245.52921239580425,122.64662526088966L245.68833696637836,145.1446399343789L246.08614839281353,68.96495691590637L246.48395981924872,87.89822991240337L246.6430843898228,41.74738527621557L247.12045810154507,100.159448243404L247.27958267211915,179.87136150102245L247.43870724269323,81.37785562414038L247.5978318132673,123.71743049848492L247.67739409855434,74.99627343904541L247.83651866912842,99.5306222845004L248.23433009556362,100.68559648444138L248.31389238085066,24.42383566266342L248.3934546661377,87.41548167356636L248.4730169514247,122.7286222680857L248.71170380728586,73.63691690171693L248.7912660925729,182.09499328905804L249.029952948434,147.46458993116585L249.10951523372105,42.93490545314205L249.1890775190081,123.188117677156L249.26863980429513,70.31707803241986L249.58688894544326,65.04379651313064L249.66645123073033,9.321803195427792L250.06426265716553,126.2685880386315L250.2233872277396,88.04173311212958L250.6211986541748,68.14720335884333L250.70076093946184,12.199270274323775L250.85988551003595,158.96871688161966L251.01901008061,214.25376855574615L251.8146329334804,215.1233217787096L252.05331978934151,160.5353576030136L252.2124443599156,170.38863600577085L252.29200664520263,151.68754526200587L252.6102557863508,202.5415275841908L253.008067212786,193.3751427895359L253.56500320979526,148.7607138477833L253.6445654950823,75.0480434371608L254.0423769215175,240.15327957503425L254.20150149209158,133.93324769855505L254.59931291852678,126.37025583041164L254.67887520381382,170.2230454900507L254.75843748910086,111.53219717550962L254.8379997743879,133.62751865169508L255.55406034197125,138.19102501255782L255.95187176840645,68.92303652992962L256.19055862426757,87.32334062501765L256.27012090955463,50.35403927025457L256.98618147713796,25.460620336388526L257.14530604771204,160.1791899654838L257.3839929035732,13.045722204618144L257.54311747414727,49.724114963623755L258.0204911858695,72.3715822911972L258.57742718287875,152.95438676540675L258.73655175345283,89.88864680953462L258.8161140387399,129.87175087708596L258.975238609314,261.145785798883L259.21392546517507,142.29434422373686L259.5321746063233,32.901176916287156L259.77086146218437,176.32030771434484L259.8504237474714,119.18123804909187L260.00954831804546,192.5333257447702L260.16867288861954,178.43736139675568L260.2482351739066,135.24320880687364L260.72560888562884,161.27467504274037L260.8051711709159,173.3955297781025L260.96429574148993,98.07402247275284L261.123420312064,160.63668065568768L261.36210716792516,122.5851055473514L261.91904316493446,83.97185051299807L262.23729230608257,144.6649242649765L262.31685459136963,197.02320678769274" fill="none"></path></g></g></g></g></g></g><g transform="translate(51, 177)" clip-path="url(#clip_1)"><clipPath id="clip_1"><rect width="278" height="22"></rect></clipPath><g><g><line x1="0" y1="0" x2="0" y2="5" style="visibility: inherit;" fill="rgb(0, 0, 0)" stroke="rgb(204, 204, 204)" stroke-width="1px"></line><line x1="39.78114264351981" y1="0" x2="39.78114264351981" y2="5" style="visibility: inherit;" fill="rgb(0, 0, 0)" stroke="rgb(204, 204, 204)" stroke-width="1px"></line><line x1="79.56228528703961" y1="0" x2="79.56228528703961" y2="5" style="visibility: inherit;" fill="rgb(0, 0, 0)" stroke="rgb(204, 204, 204)" stroke-width="1px"></line><line x1="119.34342793055943" y1="0" x2="119.34342793055943" y2="5" style="visibility: inherit;" fill="rgb(0, 0, 0)" stroke="rgb(204, 204, 204)" stroke-width="1px"></line><line x1="159.12457057407923" y1="0" x2="159.12457057407923" y2="5" style="visibility: inherit;" fill="rgb(0, 0, 0)" stroke="rgb(204, 204, 204)" stroke-width="1px"></line><line x1="198.90571321759904" y1="0" x2="198.90571321759904" y2="5" style="visibility: inherit;" fill="rgb(0, 0, 0)" stroke="rgb(204, 204, 204)" stroke-width="1px"></line><line x1="238.68685586111886" y1="0" x2="238.68685586111886" y2="5" style="visibility: inherit;" fill="rgb(0, 0, 0)" stroke="rgb(204, 204, 204)" stroke-width="1px"></line><line x1="278.4679985046387" y1="0" x2="278.4679985046387" y2="5" style="visibility: inherit;" fill="rgb(0, 0, 0)" stroke="rgb(204, 204, 204)" stroke-width="1px"></line></g><g transform="translate(0, 8)"><text style="text-anchor: middle; visibility: hidden; font-family: Roboto, sans-serif; font-size: 12px; font-weight: 200;" x="0" y="0" dx="0em" dy="0.95em" fill="rgb(50, 49, 63)" stroke="none" stroke-width="1px">-500</text><text style="text-anchor: middle; visibility: inherit; font-family: Roboto, sans-serif; font-size: 12px; font-weight: 200;" x="39.78114264351981" y="0" dx="0em" dy="0.95em" fill="rgb(50, 49, 63)" stroke="none" stroke-width="1px">0</text><text style="text-anchor: middle; visibility: inherit; font-family: Roboto, sans-serif; font-size: 12px; font-weight: 200;" x="79.56228528703961" y="0" dx="0em" dy="0.95em" fill="rgb(50, 49, 63)" stroke="none" stroke-width="1px">500</text><text style="text-anchor: middle; visibility: inherit; font-family: Roboto, sans-serif; font-size: 12px; font-weight: 200;" x="119.34342793055943" y="0" dx="0em" dy="0.95em" fill="rgb(50, 49, 63)" stroke="none" stroke-width="1px">1k</text><text style="text-anchor: middle; visibility: inherit; font-family: Roboto, sans-serif; font-size: 12px; font-weight: 200;" x="159.12457057407923" y="0" dx="0em" dy="0.95em" fill="rgb(50, 49, 63)" stroke="none" stroke-width="1px">1.5k</text><text style="text-anchor: middle; visibility: inherit; font-family: Roboto, sans-serif; font-size: 12px; font-weight: 200;" x="198.90571321759904" y="0" dx="0em" dy="0.95em" fill="rgb(50, 49, 63)" stroke="none" stroke-width="1px">2k</text><text style="text-anchor: middle; visibility: inherit; font-family: Roboto, sans-serif; font-size: 12px; font-weight: 200;" x="238.68685586111886" y="0" dx="0em" dy="0.95em" fill="rgb(50, 49, 63)" stroke="none" stroke-width="1px">2.5k</text><text style="text-anchor: middle; visibility: hidden; font-family: Roboto, sans-serif; font-size: 12px; font-weight: 200;" x="278.4679985046387" y="0" dx="0em" dy="0.95em" fill="rgb(50, 49, 63)" stroke="none" stroke-width="1px">3k</text></g><line x1="0" y1="0" x2="278.4679985046387" y2="0" fill="rgb(0, 0, 0)" stroke="rgb(204, 204, 204)" stroke-width="1px"></line></g></g></g></g></svg>