<svg viewBox="0 0 330 200" xmlns="http://www.w3.org/2000/svg"><g><g><g><g><g><line x1="41.149001121520996" y1="133.68116767661252" x2="36.149001121520996" y2="133.68116767661252" style="visibility: inherit;" fill="rgb(0, 0, 0)" stroke="rgb(204, 204, 204)" stroke-width="1px"></line><line x1="41.149001121520996" y1="72.9127656425824" x2="36.149001121520996" y2="72.9127656425824" style="visibility: inherit;" fill="rgb(0, 0, 0)" stroke="rgb(204, 204, 204)" stroke-width="1px"></line><line x1="41.149001121520996" y1="29.79689824205335" x2="36.149001121520996" y2="29.79689824205335" style="visibility: inherit;" fill="rgb(0, 0, 0)" stroke="rgb(204, 204, 204)" stroke-width="1px"></line></g><g transform="translate(31.149001121520996, 0)"><text style="text-anchor: end; visibility: inherit; font-family: Roboto, sans-serif; font-size: 12px; font-weight: 200;" x="0" y="133.68116767661252" dx="0em" dy="0.3em" fill="rgb(50, 49, 63)" stroke="none" stroke-width="1px">0.2</text><text style="text-anchor: end; visibility: inherit; font-family: Roboto, sans-serif; font-size: 12px; font-weight: 200;" x="0" y="72.9127656425824" dx="0em" dy="0.3em" fill="rgb(50, 49, 63)" stroke="none" stroke-width="1px">0.3</text><text style="text-anchor: end; visibility: inherit; font-family: Roboto, sans-serif; font-size: 12px; font-weight: 200;" x="0" y="29.79689824205335" dx="0em" dy="0.3em" fill="rgb(50, 49, 63)" stroke="none" stroke-width="1px">0.4</text></g><line x1="41.149001121520996" y1="0" x2="41.149001121520996" y2="177.86299896240234" fill="rgb(0, 0, 0)" stroke="rgb(204, 204, 204)" stroke-width="1px"></line></g></g><g transform="translate(41, 0)" clip-path="url(#clip_0)"><clipPath id="clip_0"><rect width="288" height="177"></rect></clipPath><g><g><g><line x1="0" y1="0" x2="0" y2="177.86299896240234" fill="rgb(0, 0, 0)" stroke="rgb(60, 60, 60)" stroke-width="1px" opacity="0.25"></line><line x1="32.09455543094211" y1="0" x2="32.09455543094211" y2="177.86299896240234" fill="rgb(0, 0, 0)" stroke="rgb(60, 60, 60)" stroke-width="1px" opacity="0.25"></line><line x1="64.18911086188422" y1="0" x2="64.18911086188422" y2="177.86299896240234" fill="rgb(0, 0, 0)" stroke="rgb(60, 60, 60)" stroke-width="1px" opacity="0.25"></line><line x1="96.28366629282633" y1="0" x2="96.28366629282633" y2="177.86299896240234" fill="rgb(0, 0, 0)" stroke="rgb(60, 60, 60)" stroke-width="1px" opacity="0.25"></line><line x1="128.37822172376843" y1="0" x2="128.37822172376843" y2="177.86299896240234" fill="rgb(0, 0, 0)" stroke="rgb(60, 60, 60)" stroke-width="1px" opacity="0.25"></line><line x1="160.47277715471057" y1="0" x2="160.47277715471057" y2="177.86299896240234" fill="rgb(0, 0, 0)" stroke="rgb(60, 60, 60)" stroke-width="1px" opacity="0.25"></line><line x1="192.56733258565265" y1="0" x2="192.56733258565265" y2="177.86299896240234" fill="rgb(0, 0, 0)" stroke="rgb(60, 60, 60)" stroke-width="1px" opacity="0.25"></line><line x1="224.6618880165948" y1="0" x2="224.6618880165948" y2="177.86299896240234" fill="rgb(0, 0, 0)" stroke="rgb(60, 60, 60)" stroke-width="1px" opacity="0.25"></line><line x1="256.75644344753687" y1="0" x2="256.75644344753687" y2="177.86299896240234" fill="rgb(0, 0, 0)" stroke="rgb(60, 60, 60)" stroke-width="1px" opacity="0.25"></line><line x1="288.850998878479" y1="0" x2="288.850998878479" y2="177.86299896240234" fill="rgb(0, 0, 0)" stroke="rgb(60, 60, 60)" stroke-width="1px" opacity="0.25"></line></g><g><line x1="0" y1="133.68116767661252" x2="288.850998878479" y2="133.68116767661252" fill="rgb(0, 0, 0)" stroke="rgb(60, 60, 60)" stroke-width="1px" opacity="0.25"></line><line x1="0" y1="72.9127656425824" x2="288.850998878479" y2="72.9127656425824" fill="rgb(0, 0, 0)" stroke="rgb(60, 60, 60)" stroke-width="1px" opacity="0.25"></line><line x1="0" y1="29.79689824205335" x2="288.850998878479" y2="29.79689824205335" fill="rgb(0, 0, 0)" stroke="rgb(60, 60, 60)" stroke-width="1px" opacity="0.25"></line></g></g></g><g><g><line x1="32.09455543094211" y1="0" x2="32.09455543094211" y2="177.86299896240234" fill="rgb(0, 0, 0)" stroke="rgb(153, 153, 153)" stroke-width="1.5px"></line></g></g><g><g><g><g><g><path style="fill: none;" stroke="rgb(255, 112, 67)" stroke-width="2px" d="M33.85975597964393,196.89151222580224L34.02022875679864,163.9373601658793L34.180701533953346,147.33425600531461L34.50164708826277,115.3804348192274L34.66211986541748,143.46180487969926L34.82259264257219,164.17878521139437L35.30401097403632,170.25122654333202L35.46448375119103,174.9423135109709L35.62495652834574,185.9685317520093L36.266847636964584,183.8166422699835L36.4273204141193,162.6619463349217L36.58779319127401,153.55751919801307L36.90873874558343,150.77590851998568L37.06921152273814,149.13141301183646L37.229684299892845,169.82111725329483L37.71110263135699,173.71194622867986L37.871575408511696,176.09586247940928L38.0320481856664,160.1659080418123L38.19252096282111,172.27893476895323L38.51346651713053,156.77481228535254L38.67393929428525,130.38080666045417L38.83441207143996,116.52151820902588L38.994884848594666,108.78216034910024L39.31583040290408,101.48209555275817L39.47630318005879,107.12691172234906L39.79724873436822,93.7709140241228L40.11819428867764,84.55262549902902L40.27866706583235,86.45201633315968L40.43913984298707,79.8680502651205L40.59961262014177,97.7830372558329L40.920558174451195,114.97829588919303L41.081030951605904,131.88721613407162L41.24150372876061,147.28175944471917L41.40197650591533,147.4889422861694L41.883394837379456,160.59618603590476L42.043867614534165,172.60423713346032L42.20434039168887,184.81284448899174L42.5252859459983,159.37820472322974L42.68575872315301,122.21749507437931L42.846231500307724,108.34407558348795L43.006704277462426,87.56824719247318L43.32764983177185,92.62162750689392L43.48812260892656,94.45107504039217L43.648595386081276,104.41203710451076L43.809068163235985,87.10750624312698L44.13001371754541,83.02973107174866L44.29048649470011,86.17454809382821L44.45095927185482,99.51483774893217L44.61143204900954,116.29545112874857L44.932377603318955,120.0882140897249L45.09285038047367,94.63969500041148L45.25332315762838,64.55715968727934L45.41379593478309,55.102294511693394L45.73474148909251,55.5426548608976L45.895214266247216,71.21467313366159L46.21615982055664,87.25549766307586L46.537105374866066,97.38646662865415L46.69757815202077,91.36936280791863L46.85805092917548,84.59283736312533L47.01852370633019,86.9656591062976L47.33946926063962,78.94597289666198L47.49994203779433,68.66429228388795L47.660414814949036,70.05097617045809L47.82088759210375,75.78724842488904L48.14183314641316,111.98785850891745L48.46277870072259,141.40586389809175L48.6232514778773,160.70506624747267L48.94419703218672,167.78252440085703L49.10466980934143,183.66948283610552L49.42561536365085,192.04511301281724L49.746560917960274,174.7354288140252L49.90703369511498,167.61398933045857L50.0675064722697,163.90910029891228L50.22797924942441,163.72283666088595L50.548924803733826,165.15777395897445L50.709397580888535,172.479783433563L50.869870358043244,168.47874501674877L51.03034313519796,161.4302964660279L51.35128868950738,157.25792138580172L51.511761466662094,141.14151216381075L51.672234243816796,131.5983385649037L51.832707020971505,122.40463064390805L52.31412535243564,119.53147982870324L52.635070906745064,104.81375679115922L52.95601646105448,106.51884091230016L53.11648923820919,98.77962463959855L53.27696201536391,85.49708506888557L53.437434792518616,88.71203017469355L53.75838034682804,93.15632281014885L53.91885312398275,94.7684799438857L54.07932590113746,98.68401133867572L54.23979867829217,104.69100411863366L54.560744232601586,112.08281428370586L54.7212170097563,138.7658396455725L54.88168978691101,146.38348715618923L55.363108118375145,145.73545274844398L55.52358089552985,146.90955076890415L55.68405367268456,147.61845004645016L56.1654720041487,142.47827390913923L56.325944781303406,146.18138433602238L56.48641755845812,156.46560759047424L56.64689033561283,142.27076483962801L56.96783588992225,135.99875394513393L57.12830866707696,140.57142465512453L57.28878144423167,136.95603552969374L57.44925422138638,134.82793763273423L57.7701997756958,136.44889050041294L57.93067255285051,154.9824743068563L58.09114533000522,162.70232296493356L58.25161810715993,167.77195360077474L58.57256366146935,152.45399911063055L58.73303643862407,150.72710811342088L58.89350921577878,143.83995634789093L59.05398199293349,130.67254349476232L59.374927547242905,123.29386053994789L59.535400324397614,117.51779487653354L59.69587310155233,113.91524426055214L59.85634587870704,118.24271198380603L60.177291433016464,116.3313486741667L60.33776421017117,119.6010638923995L60.498236987325875,131.0875156850378L60.65870976448059,132.66976168515643L60.97965531879001,147.00379981185216L61.140128095944725,155.3951909642118L61.300600873099434,159.64771155955145L61.46107365025415,162.25837342861524L61.78201920456356,166.8830728276621L61.94249198171827,157.95719287772062L62.102964758872986,149.74847218876127L62.263437536027695,131.73676255127177L62.58438309033712,122.74000030002787L62.74485586749183,126.23700445235134L62.90532864464654,132.95444707330975L63.38674697611067,119.85474904494166L63.54721975326538,115.67005193167185L63.70769253042009,121.73620210568316L63.868165307574806,131.04894911535342L64.18911086188422,128.13589098331164L64.51005641619365,119.24205321274601L64.67052919334836,104.2676007039222L64.99147474765778,104.10635686462591L65.15194752481248,110.26987759166872L65.3124203019672,109.22998285954513L65.4728930791219,106.71840381117435L65.79383863343132,100.49756046633973L65.95431141058604,85.78946318199671L66.11478418774075,84.99302017131551L66.27525696489546,84.89146591352564L66.9171480735143,79.82157687244309L67.077620850669,80.7779298055438L67.39856640497844,74.18446082106948L67.55903918213315,69.83617621832255L67.71951195928786,66.44083364648776L67.87998473644257,72.38414049665762L68.20093029075198,75.53899514916363L68.36140306790669,79.72974182910686L68.5218758450614,74.90592421799002L68.68234862221613,69.02874086443396L69.00329417652554,63.48900949512988L69.16376695368025,58.05059802035813L69.32423973083496,61.42318759398214L69.80565806229909,61.17756918732924L70.12660361660852,63.6418071424841L70.28707639376323,65.71015923132497L70.76849472522736,70.95184926622714L70.92896750238206,71.59653051313532L71.08944027953677,71.70023316091151L71.57085861100092,76.47909235895905L71.73133138815561,76.22668260212532L72.21274971961975,76.6886108930078L72.37322249677446,82.76068373497431L72.53369527392917,82.86350904615136L72.69416805108388,76.78383843280693L73.17558638254802,76.41040391163403L73.33605915970273,76.8433340476086L73.49653193685742,81.82256154446843L73.81747749116685,78.03582010843267L73.97795026832156,79.3345697210797L74.13842304547627,69.89822608554506L74.298895822631,70.07499339253023L74.61984137694041,78.74373131027204L74.78031415409512,79.72825604047792L74.94078693124982,64.27604988589655L75.42220526271397,53.95455610357461L75.58267803986867,49.76457606747212L75.74315081702339,43.36153377872341L75.9036235941781,58.154835320826336L76.22456914848752,72.63496966903703L76.54551470279694,79.80478757679326L76.70598747995165,83.184446449568L77.02693303426106,79.01111790620892L77.18740581141579,64.8647425753944L77.3478785885705,64.04907652351353L77.50835136572519,61.01360401002559L77.82929692003462,62.31424433849688L77.98976969718933,65.25940515165672L78.15024247434404,68.37573730374919L78.31071525149876,69.5068260324798L78.63166080580817,78.10358570860589L78.79213358296289,79.26566301848347L78.95260636011758,85.48508578429114L79.11307913727231,89.81482713526587L79.43402469158173,91.37086174991248L79.59449746873644,94.88852672052323L79.75497024589114,86.23606315521138L79.91544302304585,89.44387400899635L80.23638857735529,75.22310940450929L80.39686135450998,77.43864340200838L80.71780690881941,71.97008838044314L81.03875246312883,64.93826043600295L81.19922524028354,63.505518377090475L81.35969801743826,62.73367529084755L81.52017079459296,63.68947802001629L81.84111634890239,63.08050978244868L82.0015891260571,64.92332683942101L82.16206190321181,62.625214829585246L82.64348023467593,66.8253851794021L82.80395301183066,67.24525059485418L82.96442578898535,60.80425906489124L83.12489856614008,56.38878833957178L83.44584412044948,56.49185976907747L83.6063168976042,53.677129199110226L83.76678967475891,54.76474906182999L83.92726245191362,54.45075130249228L84.24820800622305,53.02674359007852L84.40868078337775,55.83968481348326L84.56915356053247,50.27099575324594L84.72962633768718,46.703483617560344L85.0505718919966,44.92926594482022L85.2110446691513,42.88520612265905L85.37151744630602,42.92170276106181L85.53199022346072,41.00937769271984L85.85293577777014,23.89722545346426L86.01340855492485,22.85494334812204L86.17388133207957,25.408999851771792L86.33435410923427,35.38181382164054L86.6552996635437,48.68727565665258L86.81577244069842,58.16831707904852L86.97624521785312,64.4879845915614L87.13671799500784,69.6123144388605L87.45766354931725,75.79992205075767L87.61813632647197,75.71207177868098L87.77860910362666,72.26375455493583L87.93908188078139,75.14980691566053L88.42050021224551,78.10043063274256L88.58097298940022,79.09704788272491L88.74144576655495,75.39318412154165L89.06239132086436,63.29941722391712L89.22286409801907,62.42091824444128L89.38333687517378,59.30912138086149L89.54380965232849,65.97654872597901L89.86475520663791,61.18123592080536L90.02522798379262,66.49029574861531L90.18570076094734,71.68389980438965L90.34617353810204,80.64156200220214L90.66711909241147,88.03347633549787L90.82759186956618,96.37243412359257L90.98806464672089,97.50685899904855L91.1485374238756,95.73949647409704L91.46948297818501,97.54525847541743L91.62995575533974,93.22690501367151L91.79042853249443,94.6866725689908L91.95090130964915,84.43597102827128L92.27184686395856,75.24743927548073L92.43231964111328,65.86576287951895L92.59279241826799,53.958256156108156L92.75326519542271,42.86310699101857L93.07421074973213,46.11922875630471L93.23468352688683,50.88698789556277L93.39515630404154,57.996620087557645L93.55562908119626,65.52513241432277L93.87657463550568,67.49480753171169L94.03704741266039,66.16970638769881L94.3579929669698,66.68459256942951L94.83941129843393,72.87110086293805L94.99988407558865,70.7594386768043L95.16035685274336,64.13786950270894L95.48130240705278,54.52704906876742L95.6417751842075,45.84396962980565L95.8022479613622,45.26333013426362L95.96272073851691,47.27903008198056L96.28366629282633,46.53360616112149L96.44413906998105,53.14326887247031L96.60461184713576,57.18123790174026L96.76508462429047,58.691070918978184L97.0860301785999,60.23345364790307L97.2465029557546,63.498964653112566L97.4069757329093,65.50282940337418L97.56744851006403,59.92328526986414L97.88839406437344,59.71872631618448L98.04886684152815,60.114614534047995L98.20933961868286,47.6998045141194L98.36981239583757,49.14218305560943L98.69075795014699,55.58812984182983L98.8512307273017,62.461690903407515L99.01170350445642,68.55258259252886L99.17217628161112,67.41160357082768L99.49312183592055,75.28809023483782L99.65359461307524,80.20219153754795L99.81406739022997,87.2379634245875L100.29548572169409,95.36178392054207L100.61643127600352,97.60915050288932L100.77690405315823,96.86887395863675L101.09784960746765,96.50973636433451L101.90021349324121,85.20723791642322L102.06068627039592,81.48742765067979L102.22115904755061,74.39096315961591L102.38163182470534,69.65627349922764L102.70257737901476,65.60294659597272L103.02352293332419,55.18245459159236L103.18399571047888,50.47868321870105L103.50494126478831,42.992984716019684L103.66541404194301,35.19296470904987L103.82588681909773,34.07426883318443L103.98635959625244,40.20821548683014L104.30730515056186,44.65124107862273L104.46777792771658,49.40889934292291L104.62825070487128,53.727377102911134L104.78872348202599,56.961728341367014L105.1096690363354,57.557965958545246L105.27014181349013,57.73003294886312L105.43061459064484,61.35803963491566L105.59108736779956,59.62422962005902L105.91203292210896,63.93207006812128L106.07250569926369,65.94855597779159L106.23297847641838,61.580559218259L106.3934512535731,57.618668017940934L106.71439680788252,47.48155617599906L106.87486958503723,44.19516684897595L107.03534236219195,44.27926613794411L107.19581513934665,47.185835626598944L107.51676069365608,44.45480595247795L107.67723347081078,45.34889469936844L107.8377062479655,35.89857969163932L107.99817902512021,29.317073526135573L108.31912457942963,22.214462538696374L108.47959735658434,15.53652943375413L108.64007013373904,7.792968187558886L108.80054291089375,2.7353100116895486L109.2819612423579,1.536931002550229L109.4424340195126,16.50516500471744L109.6029067966673,26.277802979346703L109.92385235097673,31.518802899509335L110.08432512813144,42.138608862624324L110.24479790528615,50.93326146579815L110.40527068244087,58.67016869784323L110.72621623675029,63.77393983986425L110.886689013905,63.70274504077355L111.0471617910597,65.92378456706614L111.68905289967854,61.417069315277075L111.84952567683327,65.1112122820073L112.00999845398798,65.91770032149317L112.3309440082974,68.96568173275831L112.4914167854521,70.41944971914639L112.65188956260681,65.30550503032178L112.81236233976152,61.71089764326644L113.13330789407094,57.66988096863537L113.29378067122566,55.99295617536833L113.45425344838037,48.9045804174969L113.61472622553507,42.912825154748234L113.9356717798445,38.809101067900194L114.0961445569992,36.559019505762485L114.41709011130864,35.67690403200663L114.73803566561804,41.38104549386241L114.89850844277277,43.141127248371205L115.05898121992746,46.542914985931056L115.21945399708218,50.19991234618682L115.5403995513916,53.916114133400534L115.70087232854631,55.48028716791703L115.86134510570102,51.86468489229248L116.02181788285573,55.83212763322527L116.34276343716516,57.57020077702988L116.50323621431986,57.365929308177975L116.82418176862929,59.871814803402586L117.1451273229387,56.08495932199999L117.46607287724814,53.42325706731474L117.62654565440283,52.73008142712485L117.94749120871226,55.64355947817951L118.10796398586697,59.4799551373461L118.26843676302168,54.48740841416383L118.42890954017639,57.77608587430921L118.74985509448581,52.94801692891137L118.91032787164053,54.53080893370795L119.07080064879523,54.52391437090909L119.23127342594995,54.43398216954085L119.55221898025935,53.365543621762654L119.71269175741408,51.13126741477833L119.87316453456879,50.85869583326148L120.0336373117235,45.718324081316524L120.51505564318762,44.773046369963325L120.67552842034235,45.21810335042043L120.83600119749705,45.051584754788095L121.15694675180647,46.94308541818372L121.31741952896118,44.43990580850375L121.47789230611589,40.621949130046524L121.6383650832706,40.56421695300201L121.95931063758002,41.71181370602605L122.11978341473473,37.2885397498863L122.28025619188945,34.7963069947403L122.44072896904414,33.461969396146685L122.76167452335358,40.62723718818041L122.9221473005083,38.47790453614349L123.082620077663,41.40325318986385L123.24309285481772,43.1591842650397L123.56403840912712,46.70375649602727L123.72451118628184,51.087876218286404L123.88498396343654,51.65485014742443L124.04545674059126,49.98315175182899L124.3664022949007,48.84615694650843L124.52687507205539,48.9996000613488L124.6873478492101,50.56343517471763L124.84782062636482,48.4655388263121L125.16876618067424,53.35912292517408L125.32923895782895,56.16406908999691L125.48971173498366,55.06896024286706L125.65018451213837,50.541296711653594L125.97113006644778,50.6163025965622L126.1316028436025,50.859196262837635L126.29207562075722,51.78569063577117L126.77349395222134,50.41492171351741L126.93396672937605,55.86259103823867L127.09443950653076,59.95058078215123L127.25491228368547,61.416685752781085L127.57585783799489,65.45889110800941L127.73633061514961,69.77142270699647L128.05727616945904,68.70448285666701L128.37822172376843,72.16703519246285L128.53869450092316,73.09909128229728L128.69916727807785,73.02954318030584L128.85964005523257,71.94568827965985L129.180585609542,74.31716658246735L129.34105838669672,71.10092856639054L129.5015311638514,72.34907422607856L129.98294949531555,69.35005280878381L130.14342227247025,68.65721334957117L130.30389504962497,70.55378629821953L130.4643678267797,71.61258040971254L130.7853133810891,70.33172693457722L130.9457861582438,68.52241052373465L131.10625893539853,70.74060570583868L131.26673171255322,65.76188181720325L131.58767726686264,62.725496303975945L131.74815004401736,57.0140060019L131.9086228211721,56.06225658243257L132.06909559832678,56.538440378309254L132.3900411526362,55.96261132732689L132.55051392979092,58.015557019374974L132.71098670694562,54.2607065927208L132.87145948410034,49.26110992984755L133.19240503840976,48.55758278539866L133.35287781556448,46.97405329274505L133.99476892418332,42.188791370649994L134.155241701338,38.318516776030506L134.31571447849274,32.2667871397821L134.47618725564746,32.94104562726968L134.79713280995688,27.108394467005073L134.95760558711157,20.418055603849524L135.1180783642663,15.916077446928735L135.278551141421,14.342260936855546L135.5994966957304,18.326613780718194L135.75996947288513,19.170933374937288L135.92044225003986,24.168345460313724L136.40186058150397,30.425565846905894L136.72280613581339,35.695284421579736L136.8832789129681,40.11716691673639L137.20422446727753,44.88849107446706L137.52517002158694,42.61225748982529L137.68564279874167,36.57181388710008L138.16706113020578,33.13703391014594L138.3275339073605,28.0412648249174L138.48800668451523,22.239566978317413L138.80895223882465,18.76774743185535L138.96942501597934,16.938552393092966L139.12989779313406,17.997559231742937L139.29037057028876,17.69653361257477L139.61131612459818,11.75989017022879L139.7717889017529,10.465348603696036L140.41368001037173,7.337725794604092L140.57415278752646,7.228224444254761L140.73462556468115,11.84587921313166L140.89509834183588,13.696038749665862L141.2160438961453,18.41592394997521L141.37651667330002,19.483763154515156L141.5369894504547,20.898145465128476L141.69746222760944,17.374223782973637L142.01840778191882,17.58403577514383L142.17888055907355,21.018037920184614L142.49982611338297,20.42094001644654L142.8207716676924,20.559222678614365L142.9812444448471,14.677869615424015L143.14171722200183,11.433988430624176L143.62313555346594,0.621488516747364L143.78360833062067,-5.267639473847177L144.4254994392395,-2.5681021820749996L144.5859722163942,11.536389359386417L144.90691777070364,-10.341120334839914L145.22786332501306,-16.65552561556562L145.54880887932248,15.076424316640766L145.7092816564772,38.55489757041749L146.0302272107866,54.922686277722306L146.51164554225073,50.84047197461984L146.83259109656015,46.82182797596344L146.99306387371485,37.62228580131558L147.1535366508696,26.94825303494744L147.3140094280243,32.36223718574514L147.79542775948843,38.13487099324451L147.95590053664313,50.02584138761438L148.11637331379785,44.942497022191276L148.43731886810724,77.51799732222655L148.597791645262,96.24057580142095L148.7582644224167,112.42834244182156L148.91873719957138,121.88778323833502L149.23968275388083,124.74163575126654L149.40015553103555,128.10073616324425L149.56062830819025,128.91252277710382L150.0420466396544,116.2325637056151L150.20251941680908,106.15597374102038L150.36299219396378,98.17802126667154L150.5234649711185,91.80199679937058L150.84441052542795,88.49943896954919L151.00488330258264,88.35399225517895L151.16535607973734,91.40708966674711L151.32582885689203,93.24971844035527L151.64677441120148,94.40118233019479L151.8072471883562,94.0669350850739L152.1281927426656,100.62322736514082L152.44913829697504,102.73157250573942L152.60961107412973,103.60643819807693L152.77008385128445,108.31113390295536L152.93055662843918,109.67500708530233L153.2515021827486,99.48368397893253L153.4119749599033,94.87955162233915L153.73292051421274,92.66328179450873L154.05386606852213,94.54080387746106L154.21433884567685,83.55036068585284L154.37481162283157,74.80715360878564L154.53528439998627,76.81845342981549L154.85622995429569,67.33572070918639L155.01670273145038,64.57336691444672L155.17717550860513,75.15855388540032L155.33764828575983,84.70528180119034L155.65859384006924,94.49632914280495L155.81906661722394,101.50606599304163L155.97953939437866,108.61422607232882L156.14001217153339,106.84148367908735L156.46095772584277,113.10168157931949L156.62143050299753,109.65641326549287L157.26332161161633,115.41564951984509L157.42379438877106,119.40386228827826L157.58426716592578,117.77901157554867L157.74473994308048,118.22765983894728L158.22615827454462,121.17253801575013L158.3866310516993,123.14213557525088L158.54710382885403,119.97136514729819L158.86804938316345,118.98605791546316L159.02852216031818,113.82721402413678L159.18899493747287,108.09573702938745L159.34946771462756,103.86138682242735L159.670413268937,104.76092243522216L159.8308860460917,98.65638550401405L159.99135882324643,84.71504435367385L160.15183160040112,73.15658222355346L160.47277715471057,65.68098892222031L160.79372270901996,61.63700003804685L160.95419548617468,56.74403327316674L161.2751410404841,57.64863954303327L161.43561381763882,61.19830396672225L161.59608659479352,63.99700226643544L162.07750492625766,70.69931904221394L162.23797770341235,74.16658492169199L162.39845048056708,76.41068216943087L162.5589232577218,78.91072516102206L162.87986881203122,71.37576500514392L163.0403415891859,66.52199492992176L163.2008143663406,63.399909962476855L163.68223269780478,52.26751230823982L163.84270547495947,55.23486039036836L164.0031782521142,59.85627927684296L164.16365102926892,67.69916881466003L164.4845965835783,62.07510237814007L164.64506936073303,70.61404577331562L164.80554213788776,86.86673265818165L164.96601491504245,92.81644385477513L165.28696046935187,104.04152098732624L165.60790602366131,110.5392377637699L166.24979713228015,114.49856087458569L166.41026990943485,115.53353748703135L166.57074268658957,114.25640857524282L167.0521610180537,119.04913429329096L167.2126337952084,118.68627715051848L167.3731065723631,123.23666206120602L167.69405212667255,119.48790114610108L167.85452490382724,125.71652834884318L168.17547045813666,115.99268061430817L168.4964160124461,113.66115538729935L168.6568887896008,111.3032715706554L168.8173615667555,110.10908034923465L168.97783434391022,110.745964196903L169.29877989821964,113.17005687043543L169.45925267537436,109.8040690863738L169.61972545252905,110.84416952593072L169.78019822968375,109.56992154268224L170.1011437839932,109.43596083238118L170.2616165611479,102.1414341794125L170.5825621154573,101.03033545118632L170.90350766976675,104.0659787665772L171.06398044692145,99.68588674329813L171.22445322407614,94.38107298943045L171.3849260012309,97.58576228758344L171.70587155554028,87.47397302935943L171.866344332695,81.53546877917411L172.18728988700443,82.62174779275131L172.50823544131384,85.22324419025853L172.66870821846854,79.7933746475198L172.8291809956233,76.3063548500512L172.98965377277798,75.48097522252155L173.3105993270874,79.79014141980693L173.4710721042421,79.30536126247186L174.11296321286093,76.00691288829276L174.27343599001568,69.60558649664785L174.43390876717038,67.99800261812962L174.5943815443251,72.7406094326899L174.9153270986345,68.80257677565484L175.07579987578924,66.99392537691823L175.23627265294394,59.22096522575592L175.39674543009863,59.18967951791244L175.71769098440805,62.11095062561558L175.87816376156277,61.53857660154454L176.0386365387175,62.33963998689285L176.84100042449103,68.52558294535872L177.00147320164575,71.653844226696L177.32241875595517,73.22300184281306L177.4828915331099,80.44950161885833L177.6433643102646,85.47632647134077L177.80383708741928,90.4698464103754L178.12478264172873,85.85760124486073L178.28525541888342,86.43663127763227L178.44572819603815,85.39471269800036L178.60620097319284,86.29209372071375L178.9271465275023,81.0330561158515L179.08761930465698,82.25457786777434L179.24809208181168,79.3141237351528L179.4085648589664,77.22384395486374L179.72951041327582,72.86443592987474L179.88998319043054,69.60039358665627L180.05045596758524,66.9854649010683L180.21092874473996,62.02141074134607L180.69234707620407,66.19330010246492L180.8528198533588,69.51722290792894L181.01329263051352,67.64951615238812L181.33423818482294,67.54292423045077L181.49471096197763,71.86592866239L181.65518373913235,74.81954805365656L181.81565651628708,75.98321495611621L182.13660207059647,69.37903736526101L182.2970748477512,65.41987173763236L182.4575476249059,61.50789397191327L182.6180204020606,51.18775313688755L182.93896595637003,30.942865674592152L183.09943873352472,22.222253820032826L183.25991151067947,22.97688998352617L183.42038428783417,24.67072238952264L183.74132984214359,26.279383022886226L183.9018026192983,29.014232424940353L184.062275396453,31.47874265178996L184.22274817360773,34.817743561434575L184.54369372791712,31.39949170586807L184.86463928222656,29.703157092102504L185.02511205938126,19.34649844041995L185.3460576136907,13.934695288535993L185.50653039084543,24.98017507580371L185.66700316800012,38.23521489772832L185.82747594515482,60.56791472998271L186.14842149946426,82.71090829604042L186.30889427661896,100.32458651907808L186.46936705377365,114.47523386886031L186.62983983092838,124.67800923348037L186.95078538523782,131.4590228789423L187.11125816239252,134.1266487261018L187.2717309395472,135.24824602681142L187.75314927101135,131.03624436452722L187.91362204816608,124.1955227481538L188.07409482532077,129.06127555877856L188.23456760247547,136.3113819002272L188.5555131567849,136.81768585328624L188.7159859339396,133.4039998700806L188.87645871109433,137.0893990530891L189.03693148824905,125.29838793894932L189.35787704255847,131.4114568168605L189.51834981971317,128.05171760859022L189.67882259686786,128.76472384573722L189.8392953740226,125.40656500095874L190.160240928332,125.02823525705881L190.32071370548672,125.82963840055554L190.48118648264145,123.473620787039L190.64165925979614,114.87861694237624L191.12307759126026,116.99389223244103L191.283550368415,109.41770771588743L191.76496869987912,102.40577431721404L191.92544147703381,106.85285223691616L192.08591425418854,98.8856570618805L192.24638703134326,103.79003423904133L192.56733258565265,101.17626239864263L192.7278053628074,98.52450697658469L192.8882781399621,98.07481518942042L193.0487509171168,99.09663545324902L193.3696964714262,95.79846382246582L193.53016924858093,94.86861893288501L193.69064202573566,99.58920047158597L193.85111480289035,93.4959881414453L194.1720603571998,97.93561692074614L194.3325331343545,95.70510737098887L194.4930059115092,94.90846308721358L194.6534786886639,96.29277890897501L194.97442424297333,99.19797335351532L195.13489702012805,99.68335298543253L195.29536979728275,93.8331554535336L195.7767881287469,93.0372607522198L195.93726090590158,90.99786472041706L196.258206460211,93.42547224093845L196.57915201452045,95.45126112801893L196.90009756882984,91.58820012283758L197.06057034598456,93.79405257827014L197.38151590029398,93.74409178420049L197.5419886774487,93.32562582616572L197.7024614546034,92.76433310641785L197.86293423175815,92.77252405930608L198.18387978606754,92.01046472646092L198.34435256322223,88.77021992530493L198.50482534037695,89.3161667217172L198.66529811753168,87.5647954921342L198.9862436718411,87.11243136605906L199.30718922615048,84.59506230106358L199.46766200330524,83.41118366825702L199.78860755761465,85.34964415214053L199.94908033476935,85.6443067315242L200.10955311192407,86.7880470052632L200.2700258890788,88.63189897905879L200.59097144338818,89.90431053503839L200.91191699769763,90.82830915879127L201.07238977485233,82.76796049261205L201.39333532916174,83.61482186691586L201.55380810631647,83.27568520866109L201.7142808834712,84.20821674933556L201.87475366062588,85.80935274339733L202.35617199209003,87.81554500224033L202.51664476924472,83.00421399303546L203.15853587786359,80.30496462950795L203.31900865501828,78.17171126864574L203.47948143217297,75.01572228034036L203.80042698648242,74.94469921254694L203.96089976363712,75.31275438058216L204.12137254079184,77.98947805048513L204.28184531794653,75.47873410703295L204.76326364941067,73.88642037304376L205.0842092037201,75.64451498536239L205.4051547580295,77.02030671993536L205.56562753518423,78.70550579882708L205.72610031233893,81.16682785102927L205.88657308949362,85.77099007449675L206.20751864380307,80.94971818651187L206.36799142095776,81.15124783250809L206.5284641981125,82.2509344218745L206.68893697526718,82.79429315178729L207.00988252957663,85.93260636554213L207.17035530673132,82.51121344891892L207.49130086104077,82.13352762468061L207.81224641535016,82.69211817773056L207.97271919250488,83.18209835440192L208.13319196965958,81.40428454923853L208.61461030112372,76.69497989500216L208.7750830782784,76.71411988993263L208.93555585543317,76.52165832557812L209.09602863258786,80.06360443788144L209.41697418689728,75.16467370854743L209.57744696405197,77.64617601161174L210.37981084982556,78.95057928395848L210.54028362698025,81.1253981563953L210.70075640413498,81.55102771839807L211.02170195844437,81.43744565351342L211.18217473559912,82.78547448163731L211.3426475127538,87.38698675494652L211.98453862137265,84.06680253571656L212.14501139852737,84.59346891399879L212.30548417568207,86.53955185345654L212.62642972999151,83.95022296897905L212.7869025071462,84.11706324795583L212.9473752843009,77.10580615199348L213.10784806145563,79.0101007545535L213.58926639291977,77.90882837026568L213.74973917007446,77.50768496921738L213.91021194722916,75.47528879363851L214.2311575015386,75.57125771044775L214.3916302786933,76.42734920374811L214.71257583300272,74.56796934819458L215.03352138731216,74.34303707523567L215.19399416446686,75.32953989630822L215.35446694162155,76.8203548601079L215.51493971877628,75.7438086851017L215.99635805024042,72.54837105735191L216.1568308273951,70.69931598977931L216.79872193601395,69.76226913669699L216.95919471316867,70.76041435049854L217.1196674903234,69.28791781757779L217.4406130446328,65.94980032976353L217.6010858217875,66.70759635101584L217.76155859894223,68.10285309221717L217.92203137609695,67.1899311000574L218.24297693040634,67.27840150251731L218.40344970756107,71.87403815148637L218.72439526187048,70.59247930819451L219.0453408161799,64.13487683621484L219.2058135933346,65.60349454164626L219.36628637048935,61.79668171451426L219.52675914764404,68.59853751999299L219.84770470195346,68.8623894046016L220.00817747910818,66.14242506965995L220.16865025626288,66.30462599132913L220.3291230334176,68.04610329474497L220.650068587727,69.0731121591813L220.81054136488174,66.99764974730483L220.97101414203644,66.44216853339601L221.13148691919113,66.60640330073728L221.45243247350058,62.119915623778695L221.6129052506553,61.10608568801177L221.77337802781,61.918338132460875L221.9338508049647,63.64458778995835L222.25479635927414,61.81111262338488L222.41526913642883,58.49898234929401L222.57574191358353,57.70588656361664L222.73621469073825,57.73892043276906L223.0571602450477,55.18351202440875L223.3781057993571,48.77786968287637L223.85952413082123,49.81248705444182L224.01999690797595,48.21433923371441L224.18046968513065,46.732050180661105L224.34094246228534,46.35192858852768L224.6618880165948,45.196087992251535L224.82236079374948,40.49385105935788L225.14330634805893,37.97414072473171L225.46425190236835,36.025336337821166L225.62472467952304,39.01604677479555L225.78519745667774,38.265642023948864L225.9456702338325,38.25462731484323L226.26661578814188,37.58820063619876L226.4270885652966,36.01968309692667L226.58756134245132,36.47619072127906L226.74803411960602,36.909123519745826L227.06897967391544,37.397740336168205L227.22945245107013,36.238825002394755L227.38992522822488,35.405027033617934L227.55039800537958,33.463191625667164L227.871343559689,32.41867613726247L228.0318163368437,32.1511208877087L228.1922891139984,29.0119803044748L228.35276189115314,28.493586529273312L228.67370744546253,30.145257574012998L228.83418022261728,28.93243421141824L228.99465299977197,29.800314250799662L229.15512577692667,30.20708699606017L229.6365441083908,31.10025652651184L229.79701688554553,30.97286460545421L229.95748966270023,30.803717671205376L230.27843521700967,31.811549687916784L230.43890799416437,29.000957112449974L230.59938077131906,32.58181480814266L230.75985354847379,32.12313237207641L231.24127187993793,35.037798346052504L231.40174465709262,32.281716642905764L231.56221743424732,32.38622260348913L231.88316298855676,30.782071028296333L232.04363576571146,29.695943979024957L232.20410854286618,31.577907514812445L232.36458132002087,32.93261659554967L232.68552687433032,35.169367258895264L232.84599965148502,35.04163749185297L233.0064724286397,34.908991167943334L233.16694520579443,34.71116961949446L233.48789076010385,34.43581792166422L233.64836353725858,38.78449354420968L233.80883631441327,39.9140621939728L233.96930909156802,39.044809533608415L234.2902546458774,39.44894141967426L234.4507274230321,39.55552503839271L234.61120020018683,40.5699802275403L234.77167297734155,39.54140163061565L235.09261853165097,41.7178753129328L235.25309130880566,41.78376154582269L235.41356408596036,42.55762030531512L235.5740368631151,45.781858404541474L235.89498241742453,47.63551114955313L236.05545519457922,49.411108913505025L236.21592797173395,50.33008203948013L236.37640074888867,48.34150142480574L236.69734630319806,44.117146190236134L236.85781908035278,41.82679364154153L237.0182918575075,41.64908739243191L237.1787646346622,39.51261951944539L237.49971018897162,35.284201146558964L237.66018296612634,32.49362396861333L237.82065574328107,33.86168326567574L237.98112852043576,35.69235531559795L238.30207407474518,34.84288840040751L238.4625468518999,36.6227176803102L238.6230196290546,40.97356744546414L238.78349240620932,45.874074890779085L239.42538351482816,50.672772969632966L239.58585629198285,54.63776723195078L239.9068018462923,56.49053379669504L240.067274623447,62.093184116592695L240.22774740060171,64.32554923914464L240.3882201777564,64.78329635316163L240.70916573206586,66.5500523845369L240.86963850922055,68.3840901874294L241.03011128637525,65.96201098728804L241.19058406352997,65.99244390857858L241.5115296178394,66.79674212688901L241.6720023949941,69.52002762407918L241.8324751721488,66.56681715416676L241.9929479493035,68.07255587306597L242.31389350361295,70.23709783476413L242.47436628076764,65.23251568044402L242.63483905792236,58.99162361046167L242.79531183507706,61.9543210490108L243.1162573893865,68.06529827154688L243.2767301665412,69.11080488425097L243.4372029436959,71.47468765084231L243.59767572085065,72.76125414689037L243.91862127516004,71.68988554381534L244.07909405231476,72.29021955038196L244.23956682946945,76.24033743678142L244.40003960662418,73.03892369711035L244.7209851609336,71.64739120418115L244.8814579380883,74.40211138988167L245.04193071524304,75.11226429244469L245.20240349239774,75.6424627467933L245.52334904670715,77.80718518167326L245.68382182386185,74.58306613962812L245.8442946010166,77.10260379007313L246.0047673781713,71.81327470051072L246.32571293248068,70.03199973430557L246.48618570963544,68.86844744949413L246.64665848679013,66.95923344113153L246.80713126394485,64.25795221327186L247.12807681825424,63.12903322663957L247.4490223725637,58.57968640696215L247.9304407040278,65.61666439321284L248.09091348118253,63.45793628014662L248.25138625833725,60.68092980651295L248.41185903549194,59.6088402016144L248.7328045898014,61.221838292245955L248.89327736695608,63.845162954487755L249.2142229212655,65.47312631761751L249.53516847557492,61.566884235345604L249.69564125272964,57.27404877294655L249.85611402988434,55.15482869086422L250.01658680703903,58.09521391958967L250.33753236134848,56.99822978976693L250.49800513850317,59.951065381332334L250.6584779156579,62.23031138401752L250.8189506928126,57.252290028370574L251.13989624712204,59.04148525292297L251.30036902427673,55.96616819409806L251.46084180143143,61.62213888181088L251.62131457858615,62.144670361982016L251.94226013289557,60.28512384987655L252.1027329100503,60.694726461613385L252.263205687205,61.587536053468135L252.4236784643597,61.333712450889124L252.74462401866913,59.42348033107233L252.90509679582382,59.07470412355758L253.22604235013327,54.020823156123136L253.5469879044427,50.74397475691503L253.70746068159738,49.029925543114416L253.8679334587521,48.19823398909002L254.02840623590683,51.35402958697003L254.34935179021622,46.49950913924339L254.50982456737094,43.320808465975155L254.67029734452566,44.40546700889398L254.83077012168036,45.84752712076873L255.15171567598978,40.16319959266934L255.31218845314447,43.499828503409425L255.47266123029922,50.07664960629083L255.63313400745392,51.19400256193197L255.95407956176334,54.209035062502075L256.1145523389181,57.20084681279226L256.27502511607275,62.81690400134511L256.4354978932275,65.05390561392335L256.75644344753687,66.95573075840952" fill="none"></path></g></g></g></g><g opacity="0.2"><g><g><g><path style="fill: none;" stroke="rgb(255, 112, 67)" stroke-width="2px" d="M33.69928320248922,207.66834101684373L33.85975597964393,156.5130162260403L34.02022875679864,125.64502677180893L34.180701533953346,125.64502677180893L34.50164708826277,77.64994545178743L34.66211986541748,198.63709718682537L35.78542930550046,218.4649718587839L36.106374859809875,168.9140869159702L36.266847636964584,180.9553798756504L36.4273204141193,135.6556210924837L36.58779319127401,140.86118302588957L36.90873874558343,146.698047521816L37.06921152273814,146.698047521816L37.229684299892845,207.45213308678174L37.871575408511696,179.74436860830454L38.0320481856664,139.05608311048724L38.19252096282111,192.50878807783306L38.51346651713053,136.16539127431568L38.67393929428525,97.87450504960245L38.83441207143996,97.87450504960245L38.994884848594666,97.87450504960245L39.31583040290408,91.15827932583592L39.47630318005879,116.01396752004457L39.79724873436822,75.73389515418822L40.11819428867764,71.70830278126485L40.27866706583235,89.3470138905424L40.43913984298707,70.50456944989169L40.59961262014177,129.4492044803774L40.920558174451195,145.1526045328548L41.081030951605904,161.47407672937544L41.24150372876061,173.81765066117154L41.40197650591533,147.80025455266698L41.883394837379456,182.6943298549417L42.20434039168887,205.22078515981033L42.5252859459983,127.84958874340491L42.68575872315301,79.54456662396659L42.846231500307724,89.67999673320314L43.006704277462426,60.973619073299574L43.32764983177185,100.53628971479861L43.48812260892656,97.23781161392647L43.648595386081276,120.71678064540598L43.809068163235985,64.40314260601745L44.13001371754541,77.11383963939213L44.29048649470011,91.01907346333729L44.45095927185482,122.05610887067397L44.61143204900954,145.62018686331726L44.932377603318955,125.96363105968845L45.09285038047367,63.09684413571006L45.25332315762838,28.406312511853844L45.41379593478309,41.95223629157273L45.73474148909251,56.20563094442669L45.895214266247216,98.30266785407979L46.21615982055664,115.08207867193126L46.537105374866066,113.99554825904632L46.69757815202077,82.77375746275754L46.85805092917548,74.97006419414453L47.01852370633019,90.59685211886465L47.33946926063962,67.66782235141365L47.49994203779433,54.45433964721767L47.660414814949036,72.15535933413182L47.82088759210375,84.82557896995218L48.14183314641316,191.0190004589836L49.42561536365085,205.55746878307357L49.746560917960274,152.02514645040472L49.90703369511498,157.5287166804655L50.0675064722697,158.518027158644L50.22797924942441,163.44387452926256L50.548924803733826,167.33627326308368L50.709397580888535,184.18059754003704L50.869870358043244,162.670600014348L51.03034313519796,151.44269057764666L51.35128868950738,151.20938411329067L51.511761466662094,119.81350793298384L51.672234243816796,118.33443973286667L51.832707020971505,109.59213750260979L52.31412535243564,115.32246066003827L52.635070906745064,85.13666899858138L52.95601646105448,109.11340032907671L53.11648923820919,87.87215547931157L53.27696201536391,67.54947819792949L53.437434792518616,93.66757440098488L53.75838034682804,100.08008356204049L53.91885312398275,97.21970508354397L54.07932590113746,104.75606141298994L54.23979867829217,114.17856437181246L54.560744232601586,123.9025738057572L54.7212170097563,190.58327591987174L54.88168978691101,158.58911882925705L55.363108118375145,144.7686248332596L55.52358089552985,148.6881259273619L55.68405367268456,148.6881259273619L56.1654720041487,135.08416358967025L56.325944781303406,151.91347293414273L56.48641755845812,173.34986513000703L56.64689033561283,123.21955620337899L56.96783588992225,127.05700335709143L57.12830866707696,147.7031604073575L57.28878144423167,131.6913978594129L57.44925422138638,131.6913978594129L57.7701997756958,138.91367285154038L57.93067255285051,187.94866516131103L58.09114533000522,175.08309717408406L58.25161810715993,175.7131981566561L58.57256366146935,132.06432016150706L58.73303643862407,148.1735163869116L58.89350921577878,134.06857142783264L59.05398199293349,112.86526339519267L59.374927547242905,112.86526339519267L59.535400324397614,109.25078264158118L59.69587310155233,108.66875834950976L59.85634587870704,124.97761902544883L60.177291433016464,113.50924577392168L60.33776421017117,124.64340737182874L60.498236987325875,150.15808687005966L60.65870976448059,135.07489874030668L60.97965531879001,171.45735151866756L61.140128095944725,168.93490966531246L61.300600873099434,166.26166512922822L61.46107365025415,166.26166512922822L61.78201920456356,174.09922913573732L61.94249198171827,145.49229230602108L62.102964758872986,138.221391481229L62.263437536027695,108.22425386140826L62.58438309033712,110.18296828430117L62.74485586749183,131.6404318786421L62.90532864464654,143.63126407310443L63.38674697611067,102.13011766876957L63.54721975326538,109.60425178208385L63.70769253042009,131.32221511766824L63.868165307574806,146.2020620946863L64.18911086188422,123.86979221069342L64.51005641619365,106.81883335213773L64.67052919334836,84.28496104516523L64.99147474765778,103.86481590921827L65.15194752481248,120.01816538532431L65.3124203019672,107.68354555345319L65.4728930791219,103.02823122239933L65.79383863343132,91.62518039646761L65.95431141058604,66.12385399702279L66.11478418774075,83.80623558250234L66.27525696489546,84.73926343519341L66.9171480735143,72.52449255168784L67.077620850669,82.22399977908566L67.39856640497844,64.80816537432203L67.55903918213315,63.541516325977504L67.71951195928786,61.48782943837046L67.87998473644257,81.76582699360476L68.20093029075198,80.39940273408885L68.36140306790669,86.24412027225365L68.5218758450614,67.94937823333184L68.68234862221613,60.62372875228384L69.00329417652554,55.54539404866657L69.16376695368025,50.24599797319305L69.32423973083496,66.62878745959691L69.80565806229909,60.80989467453105L70.12660361660852,67.41584085691264L70.28707639376323,68.86721381111788L70.76849472522736,79.1750162096732L70.92896750238206,72.56878195954496L71.08944027953677,71.85592179844159L71.57085861100092,83.94583683263775L71.73133138815561,75.84886323817466L72.21274971961975,77.3841838257251L72.37322249677446,92.3565592573447L72.53369527392917,83.01787940880861L72.69416805108388,68.10314332231039L73.17558638254802,75.85199099509177L73.33605915970273,77.49508315781782L73.49653193685742,89.61602059662681L73.81747749116685,72.52927434572959L73.97795026832156,81.30404330849052L74.13842304547627,56.77206393837679L74.298895822631,70.34053588247195L74.61984137694041,92.7662489752421L74.78031415409512,81.21727673551335L74.94078693124982,43.727839588115096L75.42220526271397,39.69390248265484L75.58267803986867,43.69137571144537L75.74315081702339,34.242391137263596L75.9036235941781,83.50481076266821L76.22456914848752,97.37280396096781L76.54551470279694,91.24677468991393L76.70598747995165,88.4012755852382L77.02693303426106,72.9612447327381L77.18740581141579,45.87179216485423L77.3478785885705,62.83384094382023L77.50835136572519,56.57264558140438L77.82929692003462,64.28661657024405L77.98976969718933,69.78859061406692L78.15024247434404,73.17520694478002L78.31071525149876,71.2196275284321L78.63166080580817,92.00056983849889L78.79213358296289,81.02585022195446L78.95260636011758,95.32666536418739L79.11307913727231,96.55340594426565L79.43402469158173,93.73563062365554L79.59449746873644,100.32484745392868L79.75497024589114,74.12748501478488L79.91544302304585,94.38811796109496L80.23638857735529,56.140759514229906L80.39686135450998,80.82459094362005L80.71780690881941,64.12410674790394L81.03875246312883,54.972909584879716L81.19922524028354,61.3817635408803L81.35969801743826,61.58331293429043L81.52017079459296,65.13470935554764L81.84111634890239,62.17167188744584L82.0015891260571,67.7307473422788L82.16206190321181,59.2427979670305L82.64348023467593,73.35494697539724L82.80395301183066,67.8772624397352L82.96442578898535,51.633808348828225L83.12489856614008,50.000308101375026L83.44584412044948,56.64659994407225L83.6063168976042,49.5517354142095L83.76678967475891,56.411122553272364L83.92726245191362,53.98098470252324L84.24820800622305,50.915783953098085L84.40868078337775,60.16063585966596L84.56915356053247,42.287690001395625L84.72962633768718,41.5065560577121L85.0505718919966,42.3067098087398L85.2110446691513,39.87045589050654L85.37151744630602,42.976464388209635L85.53199022346072,38.185877016431085L85.85293577777014,1.4141263720498698L86.01340855492485,21.3049863189945L86.17388133207957,29.323595585286544L86.33435410923427,51.70774285681757L86.6552996635437,71.16219592341297L86.81577244069842,73.61909783359134L86.97624521785312,74.49708989492382L87.13671799500784,77.64309206496927L87.45766354931725,85.58839571320419L87.61813632647197,75.58039284759046L87.77860910362666,67.23562570765142L87.93908188078139,79.5858432095881L88.42050021224551,82.6382298787584L88.58097298940022,80.60451108690341L88.74144576655495,70.00355833764515L89.06239132086436,46.81240979442527L89.22286409801907,61.11275011905525L89.38333687517378,54.75931474097314L89.54380965232849,76.56914799313518L89.86475520663791,54.26422399927807L90.02522798379262,74.82408228463883L90.18570076094734,79.8281910029262L90.34617353810204,95.1696478363083L90.66711909241147,99.85341347970295L90.82759186956618,109.82115271849236L90.98806464672089,99.22476072181658L91.1485374238756,93.12692634252558L91.46948297818501,100.29536280426414L91.62995575533974,86.9740741689272L91.79042853249443,96.90333417462692L91.95090130964915,70.26549058502339L92.27184686395856,62.441650358248545L92.43231964111328,52.810170631033614L92.59279241826799,37.702453257471774L92.75326519542271,27.623265308180933L93.07421074973213,51.14002178567151L93.23468352688683,58.33566649835703L93.39515630404154,69.3364470071073L93.55562908119626,77.5782769837156L93.87657463550568,70.49872371288556L94.03704741266039,64.20376624024789L94.3579929669698,67.46025375971657L94.83941129843393,82.65774007871265L94.99988407558865,67.64670468722768L95.16035685274336,54.72369242888936L95.48130240705278,41.17604876843174L95.6417751842075,33.69541768704923L95.8022479613622,44.39656706639017L95.96272073851691,50.35434093008238L96.28366629282633,45.422376095053L96.44413906998105,63.638695515951134L96.60461184713576,63.44980933253377L96.76508462429047,60.98472830568162L97.0860301785999,62.57720433934916L97.2465029557546,68.53464242216924L97.4069757329093,68.5597759059061L97.56744851006403,51.92510590313866L97.88839406437344,59.412410431569526L98.04886684152815,60.71041454289517L98.20933961868286,30.815793464639764L98.36981239583757,51.33211732715254L98.69075795014699,65.8086956442392L98.8512307273017,73.40187245053721L99.01170350445642,78.17980242053405L99.17217628161112,65.71625821413822L99.49312183592055,87.93792597261537L99.65359461307524,87.88933167763467L99.81406739022997,98.45256976444672L100.29548572169409,108.43803309817979L100.61643127600352,101.04467875876577L100.77690405315823,95.76527022273766L101.09784960746765,95.97263844581036L101.90021349324121,69.70689854728018L102.06068627039592,76.07529316533433L102.22115904755061,64.3390962089803L102.38163182470534,62.82340111978658L102.70257737901476,59.72136869464769L103.02352293332419,40.79586204641272L103.18399571047888,43.6887539869219L103.50494126478831,32.4219659932007L103.66541404194301,24.204997850068704L103.82588681909773,32.411727614802196L103.98635959625244,49.90718630374777L104.30730515056186,51.57295151952378L104.46777792771658,56.841141348572584L104.62825070487128,60.44776733947506L104.78872348202599,61.94801787946722L105.1096690363354,58.45679361144308L105.27014181349013,57.98850440322859L105.43061459064484,66.97023047056952L105.59108736779956,57.060552164021225L105.91203292210896,70.6352863358851L106.07250569926369,69.02508651215838L106.23297847641838,55.258362338926524L106.3934512535731,51.86554092426012L106.71439680788252,33.455965720647434L106.87486958503723,39.396873951163755L107.03534236219195,44.40550362100955L107.19581513934665,51.654194195407335L107.51676069365608,40.44936367868182L107.67723347081078,46.70010895165961L107.8377062479655,22.7543913687575L107.99817902512021,19.956910116409546L108.31912457942963,12.154373036619017L108.47959735658434,6.046418869353131L108.64007013373904,-3.120255775450814L109.2819612423579,-0.24286025935454664L109.4424340195126,42.19872829268746L109.6029067966673,42.24653925410159L109.92385235097673,39.740837370553514L110.08432512813144,59.6281810252991L110.24479790528615,65.17577891159475L110.40527068244087,71.08020784128351L110.72621623675029,71.771056343618L110.886689013905,63.59601621429805L111.0471617910597,69.31830529680565L111.68905289967854,54.90133420607924L111.84952567683327,70.82897676650485L112.00999845398798,67.13562838796227L112.3309440082974,73.65712820777571L112.4914167854521,72.62688895351862L112.65188956260681,57.947592565579946L112.81236233976152,56.47564416636142L113.13330789407094,51.8055857614999L113.29378067122566,53.51223328668725L113.45425344838037,38.86353547105461L113.61472622553507,34.35171728702215L113.9356717798445,32.85680463500415L114.0961445569992,33.24599590576154L114.41709011130864,34.36338989799597L114.73803566561804,50.366201698298504L114.89850844277277,45.8206237340847L115.05898121992746,51.79490371279837L115.21945399708218,55.858366239300835L115.5403995513916,59.669118127741214L115.70087232854631,57.85758811083975L115.86134510570102,46.599745890740934L116.02181788285573,61.98744814759858L116.34276343716516,60.215698156604354L116.50323621431986,57.060043184406396L116.82418176862929,63.7109981938193L117.1451273229387,50.57825277673585L117.46607287724814,49.51729124741131L117.62654565440283,51.6962923794891L117.94749120871226,60.12280422364987L118.10796398586697,65.42520879575454L118.26843676302168,47.29721457843175L118.42890954017639,62.84849968412355L118.74985509448581,45.98557619497338L118.91032787164053,56.936787081913025L119.07080064879523,54.51357312136401L119.23127342594995,54.29918496956871L119.55221898025935,51.777033028611754L119.71269175741408,47.84109091395729L119.87316453456879,50.45076568890724L120.0336373117235,38.32394388180156L120.51505564318762,43.36621547150269L120.67552842034235,45.88817671489189L120.83600119749705,44.80215324677587L121.15694675180647,49.8258638434161L121.31741952896118,40.761822490968726L121.47789230611589,35.07140673525757L121.6383650832706,40.47766036379943L121.95931063758002,43.44985510667323L122.11978341473473,30.88916941974139L122.28025619188945,31.133981912542744L122.44072896904414,31.48247651374666L122.76167452335358,52.06149699451047L122.9221473005083,35.31061741729124L123.082620077663,45.90120607263332L123.24309285481772,45.832267770591L123.56403840912712,52.18293288800862L123.72451118628184,57.91431613888796L123.88498396343654,52.50935307912985L124.04545674059126,47.5100542965715L124.3664022949007,47.15667606974311L124.52687507205539,49.230059694947165L124.6873478492101,52.940215730244994L124.84782062636482,45.37274844723718L125.16876618067424,61.01279378436642L125.32923895782895,60.47244376647153L125.48971173498366,53.44115581470648L125.65018451213837,43.99637209701757L125.97113006644778,50.72888185390021L126.1316028436025,51.224276450984576L126.29207562075722,53.18626048947395L126.77349395222134,48.38199290129963L126.93396672937605,64.42438493838374L127.09443950653076,66.29955957885005L127.25491228368547,63.643090075145615L127.57585783799489,71.73426964211494L127.73633061514961,76.48221245776934L128.05727616945904,67.11818083489892L128.37822172376843,77.51563931475062L128.53869450092316,74.50813465307752L128.69916727807785,72.92528150273931L128.85964005523257,70.33446238553549L129.180585609542,77.94626209120271L129.34105838669672,66.40239324392091L129.5015311638514,74.2410016172382L129.98294949531555,64.96112575120294L130.14342227247025,67.62392279750458L130.30389504962497,73.44441976155042L130.4643678267797,73.214929976675L130.7853133810891,68.43074039467122L130.9457861582438,65.8487430638746L131.10625893539853,74.13069713326041L131.26673171255322,58.59080559308755L131.58767726686264,58.283235026844L131.74815004401736,48.83523798833062L131.9086228211721,54.645869793780136L132.06909559832678,57.255564929359664L132.3900411526362,55.102994861431846L132.55051392979092,61.148685205763904L132.71098670694562,48.79913273898526L132.87145948410034,42.061167323292814L133.19240503840976,47.50844568839177L133.35287781556448,44.629694918451094L133.99476892418332,35.28572356327459L134.155241701338,32.69428386237504L134.31571447849274,23.624080920137658L134.47618725564746,33.95815531223088L134.79713280995688,18.76413032033793L134.95760558711157,10.91124099845365L135.1180783642663,9.40694439874061L135.278551141421,12.012096291069332L135.5994966957304,24.509075836562573L135.75996947288513,20.4463987924485L135.92044225003986,31.991512696147144L136.40186058150397,40.33027642013991L136.72280613581339,43.964457601031434L136.8832789129681,47.0046706125242L137.20422446727753,52.342971530267704L137.52517002158694,39.26144331988978L137.68564279874167,27.944457034666616L138.16706113020578,28.128096453963206L138.3275339073605,20.708442468774717L138.48800668451523,13.937552509382618L138.80895223882465,13.706309924432482L138.96942501597934,14.235950405322548L139.12989779313406,19.60023360638306L139.29037057028876,17.246125819456836L139.61131612459818,3.2738328964319976L139.7717889017529,8.544263499025469L140.41368001037173,2.765366173668622L140.57415278752646,7.064122281262369L140.73462556468115,19.05060056649798L140.89509834183588,16.514820768983125L141.2160438961453,25.786725711609055L141.37651667330002,21.099924472055562L141.5369894504547,23.04506537809351L141.69746222760944,12.238989535303856L142.01840778191882,17.899305521999846L142.17888055907355,26.321234751619787L142.49982611338297,19.529729945919264L142.8207716676924,20.766886194787272L142.9812444448471,6.267171636891292L143.14171722200183,6.69613006931173L143.62313555346594,-14.261940669432544L144.10455388493008,-19.721989960411015L144.4254994392395,11.717188422431498L144.5859722163942,35.544919443711485L144.90691777070364,-38.13125316157773L145.22786332501306,-25.65471024656094L145.54880887932248,80.49769316804235L145.7092816564772,82.55037013065542L146.0302272107866,83.40864878800427L146.51164554225073,44.91835159362641L146.83259109656015,40.98895116935792L146.99306387371485,24.802236714237594L147.1535366508696,12.239982737255412L147.3140094280243,40.86856893303685L147.79542775948843,47.233414032641456L147.95590053664313,69.84328095471325L148.11637331379785,37.62683026349602L148.43731886810724,145.38545272213392L148.597791645262,129.6072901621311L148.7582644224167,140.5507216024854L148.91873719957138,137.3003064653678L149.23968275388083,129.1269680131405L149.40015553103555,133.28491289361395L149.56062830819025,130.1385071482541L150.0420466396544,99.02209739472744L150.20251941680908,92.20768444652207L150.36299219396378,86.95492594915675L150.5234649711185,82.71940137968247L150.84441052542795,83.67816993475599L151.00488330258264,88.13608649950213L151.16535607973734,96.10661719225796L151.32582885689203,96.05684761824291L151.64677441120148,96.14513739704935L151.8072471883562,93.56695777043255L152.1281927426656,111.0289625978425L152.44913829697504,105.95076628709832L152.60961107412973,104.9283873702912L152.77008385128445,115.65724046551502L152.93055662843918,111.7443745833401L153.2515021827486,85.3889128645177L153.4119749599033,88.22815753672003L153.73292051421274,89.39914121873646L154.05386606852213,97.40193831123426L154.21433884567685,68.44237303114217L154.37481162283157,62.58015041234642L154.53528439998627,79.88693629200266L154.85622995429569,54.149721150847874L155.01670273145038,60.52301504723228L155.17717550860513,92.58550525479987L155.33764828575983,100.27249586218358L155.65859384006924,110.49785955468266L155.81906661722394,112.67657292503335L155.97953939437866,119.95155559034063L156.14001217153339,104.22107651172387L156.46095772584277,123.01136711349848L156.62143050299753,104.63260641024927L157.26332161161633,124.4920025212552L157.42379438877106,125.59252083011137L157.58426716592578,115.37429517064972L157.74473994308048,118.90316052194102L158.22615827454462,125.70127784554275L158.3866310516993,126.1459314942257L158.54710382885403,115.3375467436916L158.86804938316345,117.52013725701255L159.02852216031818,106.40735248400584L159.18899493747287,99.88964696848433L159.34946771462756,97.72605837829052L159.670413268937,106.12043069005568L159.8308860460917,89.94189589630047L159.99135882324643,65.96900642693338L160.15183160040112,57.33578813991099L160.47277715471057,55.12340856963414L160.79372270901996,55.768531745489405L160.95419548617468,49.69165703968529L161.2751410404841,59.015869626587765L161.43561381763882,66.68559302725076L161.59608659479352,68.29555014115482L162.07750492625766,81.35065857849933L162.23797770341235,79.52268779550218L162.39845048056708,79.84111704520274L162.5589232577218,82.74076626291819L162.87986881203122,60.739266043660756L163.0403415891859,59.523926417770724L163.2008143663406,58.83544146199568L163.68223269780478,36.98081453946608L163.84270547495947,59.79903526837255L164.0031782521142,67.06711042979995L164.16365102926892,80.29122941007988L164.4845965835783,54.01594528059198L164.64506936073303,84.41031521308642L164.80554213788776,115.12007664083241L164.96601491504245,102.20877174946224L165.28696046935187,122.63254919163012L165.60790602366131,120.84663269300387L166.24979713228015,120.64085182036604L166.41026990943485,117.09952808669259L166.57074268658957,112.36089168850172L167.0521610180537,126.53845212447641L167.2126337952084,118.14363334525216L167.3731065723631,130.3322608881775L167.69405212667255,114.0349171931956L167.85452490382724,135.5734776064137L168.17547045813666,102.49634779387159L168.4964160124461,110.23049594476346L168.6568887896008,107.83457368008739L168.8173615667555,108.33544738863596L168.97783434391022,111.70639344988436L169.29877989821964,116.88133482556927L169.45925267537436,104.89272127676585L169.61972545252905,112.41798074979667L169.78019822968375,107.67863563167622L170.1011437839932,109.23524400772163L170.2616165611479,91.82500307997232L170.5825621154573,99.3789811320986L170.90350766976675,108.73793935504553L171.06398044692145,93.34679762717701L171.22445322407614,86.76011624003166L171.3849260012309,102.5250622993738L171.70587155554028,73.48071702501827L171.866344332695,73.04687641687437L172.18728988700443,84.26607300723539L172.50823544131384,89.21216851281648L172.66870821846854,72.00050470503466L172.8291809956233,71.22338151333408L172.98965377277798,74.25136654257979L173.3105993270874,86.49549793943126L173.4710721042421,78.5811185367577L174.11296321286093,71.19148299771388L174.27343599001568,60.48876450192137L174.43390876717038,65.6185029496004L174.5943815443251,80.14836444218457L174.9153270986345,63.08299768883672L175.07579987578924,64.32122604473955L175.23627265294394,48.26881337557509L175.39674543009863,59.14276319802547L175.71769098440805,66.60247684228405L175.87816376156277,60.68409342309146L176.0386365387175,63.549320792278785L176.84100042449103,78.31127879329001L177.00147320164575,76.47217998747072L177.32241875595517,75.607979222823L177.4828915331099,91.987802710807L177.6433643102646,93.34756548249774L177.80383708741928,98.2866542435971L178.12478264172873,79.1949191133807L178.28525541888342,87.30939254676417L178.44572819603815,83.84529160872124L178.60620097319284,87.64832106665749L178.9271465275023,73.47511271556206L179.08761930465698,84.10573302220463L179.24809208181168,75.0088617209124L179.4085648589664,74.14209020203137L179.72951041327582,66.55423605507544L179.88998319043054,64.83386659422091L180.05045596758524,63.1466768304364L180.21092874473996,54.8706280191479L180.69234707620407,72.67730324529633L180.8528198533588,74.64555494722646L181.01329263051352,64.89088486775738L181.33423818482294,67.38317835591029L181.49471096197763,78.5936281897622L181.65518373913235,79.36207115459885L181.81565651628708,77.74583352864903L182.13660207059647,59.98830377034449L182.2970748477512,59.67057647978974L182.4575476249059,55.82496590740039L182.6180204020606,36.92882195488389L182.93896595637003,4.930989283069134L183.09943873352472,10.024723126843599L183.25991151067947,24.116016879294214L183.42038428783417,27.247914686984195L183.74132984214359,28.72521943029716L183.9018026192983,33.21241750704892L184.062275396453,35.253202132905315L184.22274817360773,39.970008041276586L184.54369372791712,26.41399140659006L184.86463928222656,27.19412055500849L185.02511205938126,5.041088773984445L185.3460576136907,6.16664002602166L185.50653039084543,43.243066506747155L185.66700316800012,60.6141549544214L185.82747594515482,101.90149341588454L186.14842149946426,123.61021949347227L186.30889427661896,131.36351795073807L186.46936705377365,138.57308538496818L186.62983983092838,141.4159249899266L186.95078538523782,142.24299228485296L187.11125816239252,138.21928518772066L187.2717309395472,136.94653880910545L187.75314927101135,124.93220332552856L187.91362204816608,114.48647925831354L188.07409482532077,136.66956508778352L188.23456760247547,147.8898243455319L188.5555131567849,137.58036330476392L188.7159859339396,128.4249751572096L188.87645871109433,142.79319885527056L189.03693148824905,109.18751879139884L189.35787704255847,141.07562800947724L189.51834981971317,123.1492394923796L189.67882259686786,129.84063392373756L189.8392953740226,120.50633031203955L190.160240928332,124.46252531616796L190.32071370548672,127.03983572815373L190.48118648264145,120.00761550263812L190.64165925979614,102.84511229296503L191.12307759126026,120.22385803876696L191.283550368415,98.72645046308186L191.76496869987912,92.46706990943083L191.92544147703381,113.7811202534046L192.08591425418854,87.67675856025241L192.24638703134326,111.46131011576168L192.56733258565265,97.33913647478363L192.7278053628074,94.6328228516777L192.8882781399621,97.4027973521608L193.0487509171168,100.64254828561577L193.3696964714262,90.98342717176735L193.53016924858093,93.48457970577361L193.69064202573566,106.96113450311768L193.85111480289035,84.7968875597401L194.1720603571998,104.85183091469351L194.3325331343545,92.42037655193313L194.4930059115092,93.72138055801649L194.6534786886639,98.39352633646807L194.97442424297333,103.66416534890212L195.13489702012805,100.41438262796335L195.29536979728275,85.46495057598729L195.7767881287469,91.85128781941805L195.93726090590158,87.98987824066349L196.258206460211,97.14224294142987L196.57915201452045,98.54222962389416L196.90009756882984,85.97412396934008L197.06057034598456,97.16492601313823L197.38151590029398,93.66918180660743L197.5419886774487,92.70010953866806L197.7024614546034,91.92631590050391L197.86293423175815,92.78481132805483L198.18387978606754,90.87459215241999L198.34435256322223,84.037533399227L198.50482534037695,90.13883399774065L198.66529811753168,84.975524501478L198.9862436718411,86.43643499793998L199.30718922615048,80.89655713173765L199.46766200330524,81.65271757453053L199.78860755761465,88.30517136575442L199.94908033476935,86.08738969917664L200.10955311192407,88.52019142162521L200.2700258890788,91.44092079304689L200.59097144338818,91.833415046416L200.91191699769763,92.22507688822458L201.07238977485233,71.43620213334363L201.39333532916174,84.89415434621311L201.55380810631647,82.76841478049481L201.7142808834712,85.6179845269234L201.87475366062588,88.2435934196948L202.35617199209003,90.87610274258127L202.51664476924472,76.0649837951615L203.15853587786359,76.34510934606907L203.31900865501828,75.02770554404484L203.47948143217297,70.40295349426813L203.80042698648242,74.8382276777581L203.96089976363712,75.86653744076794L204.12137254079184,82.09639201003517L204.28184531794653,71.78976340671629L204.76326364941067,71.52922740335224L205.0842092037201,78.32094119353359L205.4051547580295,79.1079681553721L205.56562753518423,81.26937472969081L205.72610031233893,84.93630192701552L205.88657308949362,92.95381405121306L206.20751864380307,73.996702202261L206.36799142095776,81.45405132087339L206.5284641981125,83.91574309147737L206.68893697526718,83.61304280015145L207.00988252957663,90.76684243745103L207.17035530673132,77.5212585906784L207.49130086104077,81.56877750354344L207.81224641535016,83.53392710207422L207.97271919250488,83.92008531898516L208.13319196965958,78.77649031767007L208.61461030112372,69.89736380168642L208.7750830782784,76.74283446622202L208.93555585543317,76.2334285966186L209.09602863258786,85.53859728670287L209.41697418689728,68.10403726384098L209.57744696405197,81.44721088999754L210.37981084982556,80.92872073653132L210.54028362698025,84.44796925319069L210.70075640413498,82.19174709993634L211.02170195844437,81.26723379065366L211.18217473559912,84.83052798767743L211.3426475127538,94.56551067121308L211.98453862137265,79.2204924800117L212.14501139852737,85.38695497403997L212.30548417568207,89.50689303653901L212.62642972999151,80.14822381722853L212.7869025071462,84.36767242423593L212.9473752843009,67.16800771892021L213.10784806145563,81.91269341995478L213.58926639291977,76.27194555099253L213.74973917007446,76.90797586189423L213.91021194722916,72.47745495908276L214.2311575015386,75.71532640685045L214.3916302786933,77.7207257679187L214.71257583300272,71.82144957316555L215.03352138731216,74.00627036811423L215.19399416446686,76.8215771545825L215.35446694162155,79.08475665281166L215.51493971877628,74.14335114824878L215.99635805024042,67.8794363503419L216.1568308273951,67.96781595441367L216.79872193601395,68.36759310242712L216.95919471316867,72.2702081458852L217.1196674903234,67.10594870432774L217.4406130446328,61.078020598172294L217.6010858217875,67.8515234316739L217.76155859894223,70.22039954528097L217.92203137609695,65.83089081770132L218.24297693040634,67.4112051036923L218.40344970756107,79.04302843362882L218.72439526187048,68.69045694796239L219.0453408161799,54.9419774318908L219.2058135933346,67.83376206316764L219.36628637048935,56.26184359711994L219.52675914764404,79.41766409845951L219.84770470195346,69.25904023950797L220.00817747910818,62.152852705198555L220.16865025626288,66.54825699175106L220.3291230334176,70.69685862112743L220.650068587727,70.62694272948404L220.81054136488174,63.93737072350292L220.97101414203644,65.6127879915865L221.13148691919113,66.85309339380973L221.45243247350058,55.632375053433016L221.6129052506553,59.598084942715616L221.77337802781,63.14503081773571L221.9338508049647,66.27182538329531L222.25479635927414,59.10228188727694L222.41526913642883,53.66411328774284L222.57574191358353,56.52405694799927L222.73621469073825,57.788484892496975L223.0571602450477,51.43028285230883L223.3781057993571,39.65521074687031L223.85952413082123,51.37792936118982L224.01999690797595,45.848623142503655L224.18046968513065,44.535747276303255L224.34094246228534,45.78354779189895L224.6618880165948,43.478870866043685L224.82236079374948,33.70605359922735L225.14330634805893,34.27226638942976L225.46425190236835,33.14883453266591L225.62472467952304,43.61707861594341L225.78519745667774,37.14703300118199L225.9456702338325,38.238106768865656L226.26661578814188,36.594084138899184L226.4270885652966,33.69726287200871L226.58756134245132,37.163569985923175L226.74803411960602,37.56087665270215L227.06897967391544,38.1336654593412L227.22945245107013,34.51708345624503L227.38992522822488,34.16296366966603L227.55039800537958,30.596812667567214L227.871343559689,30.86542653958131L228.0318163368437,31.750681466212875L228.1922891139984,24.423210751704094L228.35276189115314,27.719342430487007L228.67370744546253,32.65740292925897L228.83418022261728,27.131405239188645L228.99465299977197,31.111630845797503L229.15512577692667,30.819323684112373L229.6365441083908,32.45007115282527L229.79701688554553,30.781979524289184L229.95748966270023,30.5503546679568L230.27843521700967,33.336120083790625L230.43890799416437,24.881489646863933L230.59938077131906,38.11881529067717L230.75985354847379,31.437730118046062L231.24127187993793,39.518915092931756L231.40174465709262,28.240355284874052L231.56221743424732,32.54311830561601L231.88316298855676,28.407584797327278L232.04363576571146,28.081370664956342L232.20410854286618,34.44591839596943L232.36458132002087,34.98792050501354L232.68552687433032,38.58835773949889L232.84599965148502,34.850246718187016L233.0064724286397,34.71024154664542L233.16694520579443,34.4149260174041L233.48789076010385,34.02373659064128L233.64836353725858,45.55365568251362L233.80883631441327,41.62453992225617L233.96930909156802,37.75031104384244L234.2902546458774,40.057189882017525L234.4507274230321,39.71554272224455L234.61120020018683,42.104655239344986L234.77167297734155,38.011649678688315L235.09261853165097,45.043021399571344L235.25309130880566,41.88264523532207L235.41356408596036,43.72595246284048L235.5740368631151,50.75212432079784L235.89498241742453,50.459698944976566L236.05545519457922,52.11458231260503L236.21592797173395,51.71919420904124L236.37640074888867,45.4072444265938L236.69734630319806,37.99580907413502L236.85781908035278,38.455583784467734L237.0182918575075,41.38292247279923L237.1787646346622,36.36395897603213L237.49971018897162,29.157176030663745L237.66018296612634,28.40282761130016L237.82065574328107,35.937475664273386L237.98112852043576,38.480986137467305L238.30207407474518,33.5776479171199L238.4625468518999,39.33273114416763L238.6230196290546,47.746241985403486L238.78349240620932,53.53903831100037L239.42538351482816,58.17181491955589L239.58585629198285,60.78915847962072L239.9068018462923,59.31335018863969L240.067274623447,70.91057774328856L240.22774740060171,67.73770867623978L240.3882201777564,65.47254911639448L240.70916573206586,69.23986186626657L240.86963850922055,71.17792781622002L241.03011128637525,62.4007401741098L241.19058406352997,66.03810488047152L241.5115296178394,68.01134085332639L241.6720023949941,73.70004739455666L241.8324751721488,62.24332558232024L241.9929479493035,70.35991417828802L242.31389350361295,73.5436790291292L242.47436628076764,58.025679715082646L242.63483905792236,50.09205578939044L242.79531183507706,66.51116073691092L243.1162573893865,77.72598375050342L243.2767301665412,70.6928684164395L243.4372029436959,75.09192520895311L243.59767572085065,74.71205209735682L243.91862127516004,70.09705720142233L244.07909405231476,73.19525360289012L244.23956682946945,82.36785898459615L244.40003960662418,68.36148348589977L244.7209851609336,69.58402159162128L244.8814579380883,78.63151917074097L245.04193071524304,76.18384307936658L245.20240349239774,76.44129395357535L245.52334904670715,81.11404715108995L245.68382182386185,69.87331808707214L245.8442946010166,80.96315349404301L246.0047673781713,64.21362831147138L246.32571293248068,67.39916429697897L246.48618570963544,67.13988314860161L246.64665848679013,64.14025431645183L246.80713126394485,60.29518163542984L247.12807681825424,61.45144055642046L247.4490223725637,52.00455840127551L247.9304407040278,76.83331418262486L248.09091348118253,60.27704819282715L248.25138625833725,56.609578139234074L248.41185903549194,58.01494941808417L248.7328045898014,63.67435954450157L248.89327736695608,67.86830798809618L249.2142229212655,67.9487156699509L249.53516847557492,55.89202652990499L249.69564125272964,51.056895390949585L249.85611402988434,52.0311469129138L250.01658680703903,62.616870010962124L250.33753236134848,55.36766312433885L250.49800513850317,64.49235249122324L250.6584779156579,65.71552030681158L250.8189506928126,50.082185551681434L251.13989624712204,61.765976024499615L251.30036902427673,51.46836960855877L251.46084180143143,70.52763230070885L251.62131457858615,62.93189941736225L251.94226013289557,57.53836165602263L252.1027329100503,61.31123700998341L252.263205687205,62.936802632590314L252.4236784643597,60.95378124243573L252.74462401866913,56.60302147846252L252.90509679582382,58.553056952085164L253.22604235013327,46.74585191577411L253.5469879044427,45.95924274316382L253.70746068159738,46.495056090300444L253.8679334587521,46.959286840035524L254.02840623590683,56.21592613990617L254.34935179021622,39.500400654280604L254.50982456737094,38.675699012302644L254.67029734452566,46.04731685927949L254.83077012168036,48.036972031652546L255.15171567598978,32.02157724458959L255.31218845314447,48.64832765916497L255.47266123029922,60.51687431759618L255.63313400745392,52.885808137846745L255.95407956176334,58.84845366379527L256.1145523389181,61.803616475523675L256.27502511607275,71.65644160978769L256.4354978932275,68.47328699567846L256.75644344753687,69.85449858687795" fill="none"></path></g></g></g></g></g></g><g transform="translate(41, 177)" clip-path="url(#clip_1)"><clipPath id="clip_1"><rect width="288" height="22"></rect></clipPath><g><g><line x1="0" y1="0" x2="0" y2="5" style="visibility: inherit;" fill="rgb(0, 0, 0)" stroke="rgb(204, 204, 204)" stroke-width="1px"></line><line x1="32.09455543094211" y1="0" x2="32.09455543094211" y2="5" style="visibility: inherit;" fill="rgb(0, 0, 0)" stroke="rgb(204, 204, 204)" stroke-width="1px"></line><line x1="64.18911086188422" y1="0" x2="64.18911086188422" y2="5" style="visibility: inherit;" fill="rgb(0, 0, 0)" stroke="rgb(204, 204, 204)" stroke-width="1px"></line><line x1="96.28366629282633" y1="0" x2="96.28366629282633" y2="5" style="visibility: inherit;" fill="rgb(0, 0, 0)" stroke="rgb(204, 204, 204)" stroke-width="1px"></line><line x1="128.37822172376843" y1="0" x2="128.37822172376843" y2="5" style="visibility: inherit;" fill="rgb(0, 0, 0)" stroke="rgb(204, 204, 204)" stroke-width="1px"></line><line x1="160.47277715471057" y1="0" x2="160.47277715471057" y2="5" style="visibility: inherit;" fill="rgb(0, 0, 0)" stroke="rgb(204, 204, 204)" stroke-width="1px"></line><line x1="192.56733258565265" y1="0" x2="192.56733258565265" y2="5" style="visibility: inherit;" fill="rgb(0, 0, 0)" stroke="rgb(204, 204, 204)" stroke-width="1px"></line><line x1="224.6618880165948" y1="0" x2="224.6618880165948" y2="5" style="visibility: inherit;" fill="rgb(0, 0, 0)" stroke="rgb(204, 204, 204)" stroke-width="1px"></line><line x1="256.75644344753687" y1="0" x2="256.75644344753687" y2="5" style="visibility: inherit;" fill="rgb(0, 0, 0)" stroke="rgb(204, 204, 204)" stroke-width="1px"></line><line x1="288.850998878479" y1="0" x2="288.850998878479" y2="5" style="visibility: inherit;" fill="rgb(0, 0, 0)" stroke="rgb(204, 204, 204)" stroke-width="1px"></line></g><g transform="translate(0, 8)"><text style="text-anchor: middle; visibility: hidden; font-family: Roboto, sans-serif; font-size: 12px; font-weight: 200;" x="0" y="0" dx="0em" dy="0.95em" fill="rgb(50, 49, 63)" stroke="none" stroke-width="1px">-200</text><text style="text-anchor: middle; visibility: hidden; font-family: Roboto, sans-serif; font-size: 12px; font-weight: 200;" x="32.09455543094211" y="0" dx="0em" dy="0.95em" fill="rgb(50, 49, 63)" stroke="none" stroke-width="1px">0</text><text style="text-anchor: middle; visibility: hidden; font-family: Roboto, sans-serif; font-size: 12px; font-weight: 200;" x="64.18911086188422" y="0" dx="0em" dy="0.95em" fill="rgb(50, 49, 63)" stroke="none" stroke-width="1px">200</text><text style="text-anchor: middle; visibility: hidden; font-family: Roboto, sans-serif; font-size: 12px; font-weight: 200;" x="96.28366629282633" y="0" dx="0em" dy="0.95em" fill="rgb(50, 49, 63)" stroke="none" stroke-width="1px">400</text><text style="text-anchor: middle; visibility: hidden; font-family: Roboto, sans-serif; font-size: 12px; font-weight: 200;" x="128.37822172376843" y="0" dx="0em" dy="0.95em" fill="rgb(50, 49, 63)" stroke="none" stroke-width="1px">600</text><text style="text-anchor: middle; visibility: hidden; font-family: Roboto, sans-serif; font-size: 12px; font-weight: 200;" x="160.47277715471057" y="0" dx="0em" dy="0.95em" fill="rgb(50, 49, 63)" stroke="none" stroke-width="1px">800</text><text style="text-anchor: middle; visibility: hidden; font-family: Roboto, sans-serif; font-size: 12px; font-weight: 200;" x="192.56733258565265" y="0" dx="0em" dy="0.95em" fill="rgb(50, 49, 63)" stroke="none" stroke-width="1px">1k</text><text style="text-anchor: middle; visibility: hidden; font-family: Roboto, sans-serif; font-size: 12px; font-weight: 200;" x="224.6618880165948" y="0" dx="0em" dy="0.95em" fill="rgb(50, 49, 63)" stroke="none" stroke-width="1px">1.2k</text><text style="text-anchor: middle; visibility: hidden; font-family: Roboto, sans-serif; font-size: 12px; font-weight: 200;" x="256.75644344753687" y="0" dx="0em" dy="0.95em" fill="rgb(50, 49, 63)" stroke="none" stroke-width="1px">1.4k</text><text style="text-anchor: middle; visibility: hidden; font-family: Roboto, sans-serif; font-size: 12px; font-weight: 200;" x="288.850998878479" y="0" dx="0em" dy="0.95em" fill="rgb(50, 49, 63)" stroke="none" stroke-width="1px">1.6k</text></g><line x1="0" y1="0" x2="288.850998878479" y2="0" fill="rgb(0, 0, 0)" stroke="rgb(204, 204, 204)" stroke-width="1px"></line></g></g></g></g></svg>