<svg viewBox="0 0 330 200" xmlns="http://www.w3.org/2000/svg"><g><g><g><g><g><line x1="41.149001121520996" y1="177.4686383306284" x2="36.149001121520996" y2="177.4686383306284" style="visibility: inherit;" fill="rgb(0, 0, 0)" stroke="rgb(204, 204, 204)" stroke-width="1px"></line><line x1="41.149001121520996" y1="160.79511250306055" x2="36.149001121520996" y2="160.79511250306055" style="visibility: inherit;" fill="rgb(0, 0, 0)" stroke="rgb(204, 204, 204)" stroke-width="1px"></line><line x1="41.149001121520996" y1="145.88013540778798" x2="36.149001121520996" y2="145.88013540778798" style="visibility: inherit;" fill="rgb(0, 0, 0)" stroke="rgb(204, 204, 204)" stroke-width="1px"></line><line x1="41.149001121520996" y1="47.757283055020196" x2="36.149001121520996" y2="47.757283055020196" style="visibility: inherit;" fill="rgb(0, 0, 0)" stroke="rgb(204, 204, 204)" stroke-width="1px"></line></g><g transform="translate(31.149001121520996, 0)"><text style="text-anchor: end; visibility: hidden; font-family: Roboto, sans-serif; font-size: 12px; font-weight: 200;" x="0" y="177.4686383306284" dx="0em" dy="0.3em" fill="rgb(50, 49, 63)" stroke="none" stroke-width="1px">0.8</text><text style="text-anchor: end; visibility: inherit; font-family: Roboto, sans-serif; font-size: 12px; font-weight: 200;" x="0" y="160.79511250306055" dx="0em" dy="0.3em" fill="rgb(50, 49, 63)" stroke="none" stroke-width="1px">0.9</text><text style="text-anchor: end; visibility: hidden; font-family: Roboto, sans-serif; font-size: 12px; font-weight: 200;" x="0" y="145.88013540778798" dx="0em" dy="0.3em" fill="rgb(50, 49, 63)" stroke="none" stroke-width="1px">1</text><text style="text-anchor: end; visibility: inherit; font-family: Roboto, sans-serif; font-size: 12px; font-weight: 200;" x="0" y="47.757283055020196" dx="0em" dy="0.3em" fill="rgb(50, 49, 63)" stroke="none" stroke-width="1px">2</text></g><line x1="41.149001121520996" y1="0" x2="41.149001121520996" y2="177.86299896240234" fill="rgb(0, 0, 0)" stroke="rgb(204, 204, 204)" stroke-width="1px"></line></g></g><g transform="translate(41, 0)" clip-path="url(#clip_0)"><clipPath id="clip_0"><rect width="288" height="177"></rect></clipPath><g><g><g><line x1="0" y1="0" x2="0" y2="177.86299896240234" fill="rgb(0, 0, 0)" stroke="rgb(60, 60, 60)" stroke-width="1px" opacity="0.25"></line><line x1="32.09455543094211" y1="0" x2="32.09455543094211" y2="177.86299896240234" fill="rgb(0, 0, 0)" stroke="rgb(60, 60, 60)" stroke-width="1px" opacity="0.25"></line><line x1="64.18911086188422" y1="0" x2="64.18911086188422" y2="177.86299896240234" fill="rgb(0, 0, 0)" stroke="rgb(60, 60, 60)" stroke-width="1px" opacity="0.25"></line><line x1="96.28366629282633" y1="0" x2="96.28366629282633" y2="177.86299896240234" fill="rgb(0, 0, 0)" stroke="rgb(60, 60, 60)" stroke-width="1px" opacity="0.25"></line><line x1="128.37822172376843" y1="0" x2="128.37822172376843" y2="177.86299896240234" fill="rgb(0, 0, 0)" stroke="rgb(60, 60, 60)" stroke-width="1px" opacity="0.25"></line><line x1="160.47277715471057" y1="0" x2="160.47277715471057" y2="177.86299896240234" fill="rgb(0, 0, 0)" stroke="rgb(60, 60, 60)" stroke-width="1px" opacity="0.25"></line><line x1="192.56733258565265" y1="0" x2="192.56733258565265" y2="177.86299896240234" fill="rgb(0, 0, 0)" stroke="rgb(60, 60, 60)" stroke-width="1px" opacity="0.25"></line><line x1="224.6618880165948" y1="0" x2="224.6618880165948" y2="177.86299896240234" fill="rgb(0, 0, 0)" stroke="rgb(60, 60, 60)" stroke-width="1px" opacity="0.25"></line><line x1="256.75644344753687" y1="0" x2="256.75644344753687" y2="177.86299896240234" fill="rgb(0, 0, 0)" stroke="rgb(60, 60, 60)" stroke-width="1px" opacity="0.25"></line><line x1="288.850998878479" y1="0" x2="288.850998878479" y2="177.86299896240234" fill="rgb(0, 0, 0)" stroke="rgb(60, 60, 60)" stroke-width="1px" opacity="0.25"></line></g><g><line x1="0" y1="177.4686383306284" x2="288.850998878479" y2="177.4686383306284" fill="rgb(0, 0, 0)" stroke="rgb(60, 60, 60)" stroke-width="1px" opacity="0.25"></line><line x1="0" y1="160.79511250306055" x2="288.850998878479" y2="160.79511250306055" fill="rgb(0, 0, 0)" stroke="rgb(60, 60, 60)" stroke-width="1px" opacity="0.25"></line><line x1="0" y1="145.88013540778798" x2="288.850998878479" y2="145.88013540778798" fill="rgb(0, 0, 0)" stroke="rgb(60, 60, 60)" stroke-width="1px" opacity="0.25"></line><line x1="0" y1="47.757283055020196" x2="288.850998878479" y2="47.757283055020196" fill="rgb(0, 0, 0)" stroke="rgb(60, 60, 60)" stroke-width="1px" opacity="0.25"></line></g></g></g><g><g><line x1="32.09455543094211" y1="0" x2="32.09455543094211" y2="177.86299896240234" fill="rgb(0, 0, 0)" stroke="rgb(153, 153, 153)" stroke-width="1.5px"></line></g></g><g><g><g><g><g><path style="fill: none;" stroke="rgb(255, 112, 67)" stroke-width="2px" d="M33.217864871025085,190.36398720969297L33.378337648179794,169.79633040238102L33.69928320248922,151.97558551853479L33.85975597964393,137.28657446131453L34.02022875679864,123.78341929089365L34.180701533953346,116.3387426472946L34.50164708826277,92.55433327520085L34.66211986541748,111.96365411161207L34.82259264257219,106.0720569179005L35.30401097403632,99.28261946543282L35.46448375119103,87.6584832512651L35.62495652834574,89.51196649075537L35.78542930550046,107.72185148139067L36.106374859809875,142.67263337635575L36.266847636964584,127.71111912270894L36.4273204141193,168.4482032284042L36.58779319127401,136.43783840352035L36.90873874558343,119.14423424135094L37.06921152273814,109.69917859364307L37.229684299892845,117.82952903896499L37.71110263135699,120.85020018344028L37.871575408511696,122.69402824740449L38.0320481856664,138.48872319846686L38.19252096282111,137.3892195368744L38.51346651713053,166.61400219509702L38.67393929428525,188.0923477720338L39.31583040290408,214.27192494995782L39.47630318005879,169.10121275143834L39.79724873436822,169.37364003359755L40.11819428867764,121.22918826345114L40.27866706583235,106.06335994686017L40.43913984298707,92.107240255751L40.59961262014177,92.79139019000695L40.920558174451195,141.84073082859967L41.081030951605904,157.40305927511125L41.24150372876061,176.33103445194013L41.40197650591533,144.88092055900657L41.883394837379456,113.32708084128842L42.043867614534165,100.94972761156838L42.20434039168887,120.07503563503525L42.5252859459983,109.05909629207265L42.68575872315301,84.48143432612626L42.846231500307724,80.74427671543653L43.006704277462426,81.90141013228981L43.32764983177185,82.00855994285425L43.48812260892656,86.74160990432672L43.648595386081276,107.6934059409428L43.809068163235985,113.26084864978742L44.13001371754541,97.45161821053439L44.29048649470011,113.74826846112262L44.45095927185482,88.76453717532094L44.61143204900954,85.2048671026954L44.932377603318955,72.35848792553122L45.09285038047367,97.2485908104727L45.25332315762838,69.46908992912643L45.41379593478309,91.48742326568706L45.73474148909251,81.0303528073628L45.895214266247216,81.65315412328574L46.21615982055664,74.1431371757182L46.537105374866066,70.02390046779546L46.69757815202077,76.46670914024105L46.85805092917548,86.20307213969514L47.01852370633019,88.6451379727537L47.33946926063962,120.55645561562031L47.49994203779433,91.80446640207488L47.660414814949036,112.91142379089491L47.82088759210375,81.03074191812094L48.14183314641316,112.47590403268651L48.46277870072259,102.94497985011836L48.6232514778773,107.4514496976404L48.94419703218672,124.56354985530923L49.10466980934143,109.29421786104609L49.42561536365085,105.44998428295817L49.746560917960274,108.02669881175007L49.90703369511498,101.85784700041098L50.0675064722697,131.26518524983388L50.22797924942441,112.18066491104562L50.548924803733826,111.49742834016882L50.709397580888535,94.46588852554301L50.869870358043244,124.46241810584677L51.03034313519796,118.89405875492348L51.35128868950738,113.03968901492726L51.511761466662094,143.86776318247314L51.672234243816796,165.9301629180796L51.832707020971505,163.1776432262163L52.31412535243564,143.8281094174031L52.635070906745064,133.2000093473307L52.95601646105448,134.21976589737508L53.11648923820919,106.62096253722903L53.27696201536391,88.63378247017745L53.437434792518616,118.55092354563585L53.75838034682804,142.9783924734073L53.91885312398275,146.33555321253243L54.07932590113746,162.23232873175675L54.23979867829217,177.41479828561168L54.560744232601586,167.30354681112868L54.7212170097563,156.19203757087567L54.88168978691101,155.23437898844043L55.363108118375145,146.31973466727655L55.52358089552985,133.51850623373156L55.68405367268456,126.35895420131789L56.1654720041487,143.0271555237435L56.325944781303406,147.0930035106801L56.48641755845812,171.54914967288994L56.64689033561283,174.3935565297321L56.96783588992225,179.32688306175248L57.12830866707696,169.30961521756615L57.28878144423167,195.04975014076896L57.44925422138638,213.08913494724595L57.7701997756958,149.73804024927307L57.93067255285051,169.558380248204L58.09114533000522,176.2592054671316L58.25161810715993,174.06206729652138L58.57256366146935,136.32894641231937L58.73303643862407,132.7710003174478L58.89350921577878,152.86153216933468L59.05398199293349,189.52732886230223L60.177291433016464,191.4851905957L60.33776421017117,168.9756158209738L60.498236987325875,180.10704845280782L61.46107365025415,188.14864052367426L61.78201920456356,165.7759612702945L61.94249198171827,115.50290209383273L62.102964758872986,111.07377795770816L62.263437536027695,78.40668170188269L62.58438309033712,93.33242833719699L62.74485586749183,108.79319749211528L62.90532864464654,117.9396833492073L63.38674697611067,133.6718387662183L63.54721975326538,149.80379780641994L63.70769253042009,164.69132580201284L63.868165307574806,143.40619320357507L64.18911086188422,160.88407667672956L64.51005641619365,174.8199142868329L64.67052919334836,152.45399911063058L64.99147474765778,105.28809044936912L65.15194752481248,83.9078404543552L65.3124203019672,85.9543453728596L65.4728930791219,100.60149255785997L65.79383863343132,88.66071224124283L65.95431141058604,75.35534727661084L66.11478418774075,82.68322685556791L66.27525696489546,74.97347455906053L66.9171480735143,101.02733198865693L67.077620850669,87.6534111564393L67.39856640497844,89.9482375305396L67.55903918213315,91.19783257309682L67.71951195928786,119.40583749187074L67.87998473644257,91.60419849369708L68.20093029075198,87.11657744194666L68.36140306790669,83.28081966867568L68.5218758450614,100.17276333150946L68.68234862221613,104.3746967956893L69.00329417652554,95.86952525972099L69.16376695368025,76.94345286783086L69.32423973083496,79.5957284475218L69.80565806229909,86.65799285527217L70.12660361660852,101.98795727626089L70.28707639376323,103.08387169594602L70.76849472522736,113.9278393846024L70.92896750238206,114.06298960006893L71.08944027953677,104.79444109011474L71.57085861100092,99.84721966057411L71.73133138815561,64.78345478165225L72.21274971961975,56.124184105626256L72.37322249677446,64.34370513505775L72.53369527392917,73.92335900874913L72.69416805108388,87.18706448038829L73.17558638254802,108.94541328375513L73.33605915970273,85.06882016405513L73.49653193685742,100.26329210072703L73.81747749116685,134.0698354012303L73.97795026832156,99.02148509885004L74.13842304547627,58.61129453874702L74.298895822631,47.050972366602636L74.61984137694041,54.02725404662817L74.78031415409512,70.62014441059546L74.94078693124982,59.34884218759026L75.42220526271397,57.461105422645474L75.58267803986867,82.55383404964809L75.74315081702339,64.5149684116345L75.9036235941781,43.45196816739193L76.22456914848752,59.43249373041579L76.54551470279694,91.85532686241619L76.70598747995165,67.4050592881742L77.02693303426106,65.79417041375665L77.18740581141579,44.13778537220481L77.3478785885705,64.73287527570726L77.50835136572519,85.9494375517863L77.82929692003462,70.58453245421506L77.98976969718933,82.4825119267784L78.15024247434404,100.93735447865399L78.31071525149876,86.07686039889981L78.63166080580817,76.40331697242405L78.79213358296289,74.2765520477743L78.95260636011758,63.764752668071786L79.11307913727231,63.80324218837355L79.43402469158173,70.67489800287231L79.59449746873644,74.47991518874784L79.75497024589114,72.2239147509384L79.91544302304585,80.87176224025282L80.23638857735529,73.10315411263146L80.39686135450998,97.02837315288768L80.71780690881941,110.74750112535932L81.03875246312883,125.76592647062459L81.19922524028354,116.17076416686577L81.35969801743826,122.99566715327911L81.52017079459296,115.24435507756779L81.84111634890239,132.85263536745032L82.0015891260571,128.92451874983382L82.16206190321181,133.82060901976706L82.64348023467593,110.79933771792953L82.80395301183066,97.29560017435739L82.96442578898535,88.53585786027084L83.12489856614008,83.89654176592272L83.44584412044948,93.12227099158792L83.6063168976042,102.21948308623672L83.76678967475891,88.03087821754063L83.92726245191362,78.43214836064845L84.24820800622305,69.85876757895227L84.40868078337775,62.054385038118546L84.56915356053247,64.08643673050157L84.72962633768718,68.7385049366704L85.0505718919966,64.33213464086059L85.2110446691513,57.64658674501177L85.37151744630602,61.42789638023533L85.53199022346072,66.12558354830294L85.85293577777014,94.82317986104835L86.01340855492485,96.90991629517991L86.17388133207957,55.090913384368605L86.33435410923427,60.31910015643197L86.6552996635437,59.3200195003524L86.81577244069842,75.91288980165564L86.97624521785312,62.84945491451731L87.13671799500784,59.83019037482957L87.45766354931725,57.08540602931554L87.61813632647197,58.378962691876986L87.77860910362666,55.24936078180633L87.93908188078139,59.73009167381265L88.42050021224551,70.66329747472413L88.58097298940022,89.5658395668818L88.74144576655495,86.58845221356594L89.06239132086436,100.8705545574896L89.22286409801907,97.54012582845121L89.38333687517378,96.69480134363894L89.54380965232849,100.36867070494476L89.86475520663791,126.63314955022598L90.02522798379262,74.92607953810607L90.18570076094734,61.917868805601806L90.34617353810204,39.67045187890835L90.66711909241147,34.007838414082926L90.82759186956618,34.64707661861458L90.98806464672089,37.617736787795515L91.1485374238756,45.45281652181986L91.46948297818501,42.8581462345716L91.62995575533974,44.284401239052144L91.79042853249443,47.51791211173253L91.95090130964915,50.79558257409869L92.27184686395856,48.0915995367747L92.43231964111328,80.47042150705042L92.59279241826799,79.4147610332751L92.75326519542271,61.31715951565122L93.07421074973213,46.040610806485915L93.23468352688683,52.380980997087995L93.39515630404154,47.560885406926204L93.55562908119626,60.9720720306544L93.87657463550568,74.72549200829121L94.03704741266039,101.29206718559061L94.3579929669698,80.50610858447223L94.83941129843393,74.83750150585453L94.99988407558865,77.71978801846625L95.16035685274336,82.95745140454498L95.48130240705278,97.59670391897053L95.6417751842075,55.6090385849054L95.8022479613622,52.53433881280669L95.96272073851691,50.84942261581068L96.28366629282633,49.19112716685935L96.44413906998105,54.07289350443157L96.60461184713576,60.53013349622249L96.76508462429047,58.057298537130215L97.0860301785999,59.13136667289953L97.2465029557546,62.100241785501645L97.4069757329093,67.80405769202044L97.56744851006403,75.18686867892384L97.88839406437344,78.46108250370536L98.04886684152815,85.25761295248783L98.20933961868286,105.69454415702559L98.36981239583757,77.96371071442259L98.69075795014699,87.21819090618091L98.8512307273017,96.29832692622605L99.01170350445642,87.0816744344627L99.17217628161112,117.94364385609346L99.49312183592055,78.71431493066295L99.65359461307524,67.89289829291083L99.81406739022997,64.0637382978342L100.29548572169409,56.384868272229035L100.61643127600352,61.523015473804655L100.77690405315823,60.856179855573934L101.09784960746765,58.43118163462592L101.90021349324121,68.03686369592768L102.06068627039592,78.38782439760334L102.22115904755061,84.79890195747232L102.38163182470534,85.84547248562566L102.70257737901476,80.51191438753263L103.02352293332419,85.13258130987755L103.18399571047888,97.30587906903237L103.50494126478831,99.84366419086119L103.66541404194301,103.13897343132196L103.82588681909773,72.79682957999337L103.98635959625244,59.51693913482807L104.30730515056186,48.67173809995886L104.46777792771658,46.38682805565557L104.62825070487128,56.103482597677086L104.78872348202599,57.23392861162385L105.1096690363354,51.11099056193392L105.27014181349013,56.59082208032239L105.43061459064484,62.065198638600286L105.59108736779956,70.03175677519489L105.91203292210896,70.7227898563882L106.07250569926369,74.67806906513373L106.23297847641838,67.61410692072884L106.3934512535731,63.490400299295764L106.71439680788252,31.81675211875982L106.87486958503723,24.853088790895395L107.03534236219195,20.006255550978704L107.19581513934665,26.190093478894433L107.51676069365608,26.140540355970323L107.67723347081078,29.79745656593874L107.8377062479655,38.77957906842192L107.99817902512021,50.25474518767477L108.31912457942963,65.0206262064467L108.47959735658434,61.92723552897146L108.64007013373904,65.59769651690449L108.80054291089375,65.93977840451082L109.2819612423579,54.01495133238743L109.4424340195126,53.811881489904046L109.6029067966673,70.96797763717348L109.92385235097673,100.01371513893193L110.08432512813144,68.49359432375097L110.24479790528615,56.71278227135844L110.40527068244087,47.852780757913976L110.72621623675029,54.745838428569165L110.886689013905,56.58512961328294L111.0471617910597,51.546894890266906L111.68905289967854,66.38385863386412L111.84952567683327,52.225550448101124L112.00999845398798,59.757318900756005L112.3309440082974,60.00850359766316L112.4914167854521,68.48978885386568L112.65188956260681,71.57293550194346L112.81236233976152,79.32944624641712L113.13330789407094,77.05448681553911L113.29378067122566,77.19138247224859L113.45425344838037,73.82314907302487L113.61472622553507,82.4785639567431L113.9356717798445,67.28740933940836L114.0961445569992,63.322550287955714L114.41709011130864,70.8361247287474L114.73803566561804,69.54770812393002L114.89850844277277,62.71855742007574L115.05898121992746,58.02092883652276L115.21945399708218,49.884364601166844L115.5403995513916,47.58210130005004L115.70087232854631,53.01611674911839L115.86134510570102,50.72196658630513L116.02181788285573,51.34441806655837L116.34276343716516,60.85785498957302L116.50323621431986,62.46174234909629L116.82418176862929,66.64818114659172L117.1451273229387,63.9251425614589L117.46607287724814,76.05854227140037L117.62654565440283,68.1754937439674L117.94749120871226,65.1052383457109L118.10796398586697,64.22221739517772L118.26843676302168,69.23635740978695L118.42890954017639,67.45487642964065L118.74985509448581,64.40938464494995L118.91032787164053,66.13991486281145L119.07080064879523,68.1237189581739L119.23127342594995,62.99325310697451L119.55221898025935,63.50030485722236L119.71269175741408,61.636991616698324L119.87316453456879,69.43503712656182L120.0336373117235,74.93065663680053L120.51505564318762,71.3879097648899L120.67552842034235,85.90187712461542L120.83600119749705,88.9853253784479L121.15694675180647,86.70549745342527L121.31741952896118,87.50187740666732L121.47789230611589,92.38830467252922L121.6383650832706,92.04158806806201L121.95931063758002,64.47842957957198L122.11978341473473,78.1882843716228L122.28025619188945,78.43924292756856L122.44072896904414,94.09907448607935L122.76167452335358,88.30853394373291L122.9221473005083,86.84114628289184L123.082620077663,64.94740823519155L123.24309285481772,58.11779757435744L123.56403840912712,51.376203572587116L123.72451118628184,49.27179009756206L123.88498396343654,51.01326045515306L124.04545674059126,59.77410051656714L124.3664022949007,59.3181582865818L124.52687507205539,60.701172709310995L124.6873478492101,59.90983090664627L124.84782062636482,63.631776583203255L125.16876618067424,65.2924612433287L125.32923895782895,73.68702607224355L125.48971173498366,68.05806519743545L125.65018451213837,67.872491059943L125.97113006644778,65.82303315140848L126.1316028436025,69.06088502211462L126.29207562075722,71.91707598727052L126.77349395222134,63.371353695617266L126.93396672937605,60.243516643602035L127.09443950653076,52.035179247556634L127.25491228368547,56.00852469336598L127.57585783799489,53.114139636278566L127.73633061514961,51.897954968780006L128.05727616945904,48.1796209197012L128.37822172376843,42.25436606321156L128.53869450092316,45.42671868028552L128.69916727807785,58.89874232343163L128.85964005523257,54.38217455870425L129.180585609542,64.13416877216086L129.34105838669672,58.00017201754686L129.5015311638514,58.68545109059458L129.98294949531555,58.668626087836216L130.14342227247025,50.81135854120667L130.30389504962497,45.91603034954591L130.4643678267797,51.93043398560032L130.7853133810891,58.1971107195954L130.9457861582438,52.39628453787209L131.10625893539853,52.12931985394493L131.26673171255322,49.04925649519662L131.58767726686264,37.97033318742358L131.74815004401736,43.66112654271268L131.9086228211721,54.436100553464726L132.06909559832678,60.025113797511395L132.3900411526362,54.28033029883785L132.55051392979092,46.74486872574601L132.71098670694562,51.471560194760045L132.87145948410034,61.073168953076085L133.19240503840976,58.31089450316581L133.35287781556448,45.89148250977941L133.99476892418332,47.84566041805761L134.155241701338,62.73099218202734L134.31571447849274,62.55900510728274L134.47618725564746,56.11587791055176L134.79713280995688,69.30861274902817L134.95760558711157,70.0625149697365L135.1180783642663,76.5557929939374L135.278551141421,90.49283478694434L135.5994966957304,55.18343175608628L135.75996947288513,41.99309826059647L135.92044225003986,43.60635438806316L136.40186058150397,40.04417726965584L136.72280613581339,47.4744132822561L136.8832789129681,44.55692182371053L137.20422446727753,47.886896470358685L137.52517002158694,53.81402829456912L137.68564279874167,45.069660634746405L138.16706113020578,41.06900908970271L138.3275339073605,49.43838616584333L138.48800668451523,43.38087513842413L138.80895223882465,54.71844694556509L138.96942501597934,52.92759890175178L139.12989779313406,51.97050386397473L139.29037057028876,73.30627379964558L139.61131612459818,77.74257743826021L139.7717889017529,69.61957309221805L140.41368001037173,86.13348377808857L140.57415278752646,52.61047880018407L140.73462556468115,60.8035660676819L140.89509834183588,69.57739218856835L141.2160438961453,70.43120763882551L141.37651667330002,60.10245822092086L141.5369894504547,63.22376041581921L141.69746222760944,68.61532908276114L142.01840778191882,66.81061790879117L142.17888055907355,75.3017272478315L142.49982611338297,45.378367899567436L142.8207716676924,32.75420970043766L142.9812444448471,32.42560660435574L143.14171722200183,42.1530129058291L143.62313555346594,64.01299197242423L143.78360833062067,76.58553014842357L143.9440811077754,95.73905792022425L144.10455388493008,26.30726433524641L144.4254994392395,11.338862130982301L144.5859722163942,23.648684512507945L144.90691777070364,11.563379681927575L145.22786332501306,9.788530372891765L145.54880887932248,18.058628481884853L145.7092816564772,34.92041472904149L146.0302272107866,52.952338490048724L146.51164554225073,73.13703415773652L146.83259109656015,41.36473182377897L146.99306387371485,49.3800579462954L147.1535366508696,8.709012987317909L147.3140094280243,-2.326590524122794L147.95590053664313,-7.962207783331491L148.11637331379785,18.29873936322153L148.43731886810724,25.26291285084733L148.597791645262,29.53464025959788L148.7582644224167,43.629065374637335L148.91873719957138,53.32405392045701L149.23968275388083,57.93461334893665L149.40015553103555,54.398343346243706L149.56062830819025,67.87284154557264L150.0420466396544,85.21061201487657L150.20251941680908,103.66394905487583L150.36299219396378,117.47387382545884L150.5234649711185,106.54581578956073L150.84441052542795,72.48076262525952L151.00488330258264,72.81712587854524L151.16535607973734,72.75535326464279L151.32582885689203,68.69785624124681L151.64677441120148,78.44611665808762L151.8072471883562,77.98654347407805L152.1281927426656,73.77399375704978L152.44913829697504,67.3767290830284L152.60961107412973,90.1435832735131L152.77008385128445,83.74592050921797L152.93055662843918,69.50653174568606L153.2515021827486,82.71360607558952L153.4119749599033,66.0945891825456L153.73292051421274,68.63869792831777L154.05386606852213,79.10548496010166L154.21433884567685,77.47396261776825L154.37481162283157,87.60352306844761L154.53528439998627,83.3382159447843L154.85622995429569,108.82342034249098L155.01670273145038,59.48140641210529L155.17717550860513,39.122965365454846L155.33764828575983,37.07571771598707L155.65859384006924,33.207101437267674L155.81906661722394,25.522308292659506L155.97953939437866,25.95141556639251L156.14001217153339,20.79917497724883L156.46095772584277,18.457723096928184L156.62143050299753,20.672882366956348L157.26332161161633,24.187199056273435L157.42379438877106,23.210220592947906L157.58426716592578,24.239703770917167L157.74473994308048,26.611925496732926L158.22615827454462,33.215015811973295L158.3866310516993,36.18894195510444L158.54710382885403,33.538427874188585L158.86804938316345,37.73529657636789L159.02852216031818,48.647110917736754L159.18899493747287,41.90082329032641L159.34946771462756,38.944502530673724L159.670413268937,35.584356006059465L159.8308860460917,49.570576313893035L159.99135882324643,57.31128588961019L160.15183160040112,71.87663855272164L160.47277715471057,89.80342903564349L160.79372270901996,104.17936857553862L160.95419548617468,58.14405315887621L161.2751410404841,36.230816277678365L161.43561381763882,31.8987069941383L161.59608659479352,29.146269897952276L162.07750492625766,30.05698342647506L162.23797770341235,32.64173020449741L162.39845048056708,33.54408300607867L162.5589232577218,38.974435037879964L162.87986881203122,46.30276711037386L163.0403415891859,65.45167144288816L163.2008143663406,69.12525677886356L163.68223269780478,84.8027624266907L163.84270547495947,31.388756386145708L164.0031782521142,19.288397012900237L164.16365102926892,40.44485699877403L164.4845965835783,23.528010480334835L164.64506936073303,26.661303813782563L164.80554213788776,46.66330575241346L164.96601491504245,52.8872840368123L165.28696046935187,34.328426229791226L165.60790602366131,31.57894800007646L166.24979713228015,32.63401588450403L166.41026990943485,32.74060843309882L166.57074268658957,37.990488463954286L167.0521610180537,37.201672568312624L167.2126337952084,35.504959685530416L167.3731065723631,31.22544630031836L167.69405212667255,39.74142194421849L167.85452490382724,44.45707864758156L168.17547045813666,51.63000831238088L168.4964160124461,52.06543047218878L168.6568887896008,52.9759721388979L168.8173615667555,43.6975177731942L168.97783434391022,44.633866211877056L169.29877989821964,50.00834355280358L169.45925267537436,48.44701715741662L169.61972545252905,43.8573053249945L169.78019822968375,37.52041312437349L170.1011437839932,45.64615473734922L170.2616165611479,47.494228367814486L170.5825621154573,52.078553189748156L170.90350766976675,49.566978316816034L171.06398044692145,51.18211867636629L171.22445322407614,55.319596775898695L171.3849260012309,57.34547310393118L171.70587155554028,48.399132196795L171.866344332695,46.24301560373436L172.18728988700443,50.61099973509002L172.50823544131384,59.33153274615973L172.66870821846854,66.38433046233283L172.8291809956233,76.39897333415294L172.98965377277798,68.53296327318655L173.3105993270874,72.60105489911336L173.4710721042421,61.46856369650268L174.11296321286093,65.735319626067L174.27343599001568,83.51637349993361L174.43390876717038,102.45875451081244L174.5943815443251,89.92544987385904L174.9153270986345,88.81012064508596L175.07579987578924,95.19018215244863L175.23627265294394,99.4879949364809L175.39674543009863,88.89895641038619L175.71769098440805,77.42389205033027L175.87816376156277,82.0366902905624L176.0386365387175,81.15781181145246L176.84100042449103,56.98769013970212L177.00147320164575,49.612132075091765L177.32241875595517,41.67090977112302L177.4828915331099,34.895867091898324L177.6433643102646,29.956385858751936L177.80383708741928,38.172424818891976L178.12478264172873,47.18821159919509L178.28525541888342,66.71604185970813L178.44572819603815,63.364498513253125L178.60620097319284,38.521771977602384L178.9271465275023,29.60721612424534L179.08761930465698,31.246220097281345L179.24809208181168,36.995553270076634L179.4085648589664,48.283919102778576L179.72951041327582,55.620281733634606L179.88998319043054,45.60435658937157L180.05045596758524,38.260764135442905L180.21092874473996,38.403612980480474L180.69234707620407,33.76939409263261L180.8528198533588,24.797629632948414L181.01329263051352,23.30564133527971L181.33423818482294,24.937318371147718L181.49471096197763,23.038302503391186L181.65518373913235,26.114023158416L181.81565651628708,31.478245929310336L182.13660207059647,30.94549698973554L182.2970748477512,35.208910543104516L182.4575476249059,36.68576210894464L182.6180204020606,62.907751333792646L182.93896595637003,49.21709268421922L183.09943873352472,64.87195122577185L183.25991151067947,37.28869728940884L183.42038428783417,20.194976945884L183.74132984214359,20.635635381395193L183.9018026192983,17.543068802798814L184.062275396453,29.338507661162783L184.22274817360773,26.381030808536046L184.54369372791712,33.59772721717572L184.86463928222656,48.09491087485804L185.02511205938126,66.7655854227747L185.3460576136907,15.643355955770753L185.50653039084543,49.04689058678802L185.66700316800012,31.083471173793146L185.82747594515482,25.24077198593128L186.14842149946426,20.154019584953726L186.30889427661896,21.962101849414374L186.46936705377365,12.398860774170238L186.62983983092838,14.1520146536258L186.95078538523782,20.97464744127898L187.11125816239252,26.083716366779722L187.2717309395472,47.73488575906844L187.75314927101135,36.13485181096044L187.91362204816608,25.89721837235677L188.07409482532077,21.04973649286802L188.23456760247547,24.22546743214671L188.5555131567849,22.121035905870865L188.7159859339396,28.895030885243553L188.87645871109433,30.86244776010034L189.03693148824905,35.9729395488865L189.35787704255847,42.579985314105954L189.51834981971317,39.22983718695255L189.67882259686786,38.964020132893545L189.8392953740226,47.05965195104904L190.160240928332,40.00049092509775L190.32071370548672,47.927978437992294L190.48118648264145,57.77801053690449L190.64165925979614,62.846583634352534L191.12307759126026,60.95950325827236L191.283550368415,67.99902752261336L191.76496869987912,50.95305713326211L191.92544147703381,57.79498605720795L192.08591425418854,57.867678236109974L192.24638703134326,56.917882627122154L192.56733258565265,63.36496254050726L192.7278053628074,61.901285983687494L192.8882781399621,66.97531584151294L193.0487509171168,67.91333139595417L193.3696964714262,68.26119142350814L193.53016924858093,71.70294441445887L193.69064202573566,54.76951587567018L193.85111480289035,49.25716513036802L194.1720603571998,46.99945293814684L194.3325331343545,50.7421734218395L194.4930059115092,46.519867201299185L194.6534786886639,43.25607276691841L194.97442424297333,46.06207468317881L195.13489702012805,50.148366643346485L195.29536979728275,48.7205045465519L195.7767881287469,52.33057677419272L195.93726090590158,47.84740989044391L196.258206460211,47.7602094284339L196.57915201452045,54.54932712090092L196.90009756882984,56.49221833588975L197.06057034598456,58.433666980862625L197.38151590029398,46.260349216943204L197.5419886774487,40.31425282692973L197.7024614546034,37.43062256265847L197.86293423175815,38.466141736650165L198.18387978606754,36.43718192415335L198.34435256322223,38.62431444436786L198.50482534037695,41.43396369053637L198.66529811753168,40.798458656411384L198.9862436718411,39.42473438618126L199.30718922615048,44.53286410545246L199.46766200330524,44.38558752826119L199.78860755761465,48.73208751331956L199.94908033476935,44.10692636395025L200.10955311192407,36.529807349961395L200.2700258890788,39.18129572309496L200.59097144338818,43.804364806026335L200.91191699769763,48.589073460539126L201.07238977485233,46.04097675346214L201.39333532916174,55.98572935604242L201.55380810631647,52.55329995635199L201.7142808834712,56.699328085171786L201.87475366062588,56.34523340671227L202.35617199209003,54.87778077868418L202.51664476924472,61.73333333082391L203.15853587786359,62.05175363579855L203.31900865501828,68.87292855584627L203.47948143217297,61.05505437531453L203.80042698648242,58.53160429667725L203.96089976363712,56.433560444382195L204.12137254079184,62.66558197015619L204.28184531794653,63.16000389203489L204.76326364941067,56.09936739552844L205.0842092037201,51.541125812939605L205.4051547580295,51.47424550758243L205.56562753518423,44.77705334200003L205.72610031233893,39.973254670822705L205.88657308949362,37.92630863637385L206.20751864380307,36.236350642938675L206.36799142095776,31.238495462201225L206.5284641981125,31.352615056055942L206.68893697526718,31.220690424831314L207.00988252957663,44.97214853941559L207.17035530673132,39.202890799678286L207.49130086104077,40.82521134107752L207.81224641535016,42.5267184255462L207.97271919250488,48.36258486228771L208.13319196965958,40.977649879422444L208.61461030112372,36.259124318223286L208.7750830782784,45.888858818290004L208.93555585543317,42.364136844282754L209.09602863258786,41.227499426577744L209.41697418689728,34.26158437536138L209.57744696405197,43.86408496343584L210.37981084982556,48.16059421373856L210.54028362698025,55.36693383084525L210.70075640413498,49.057866614796744L211.02170195844437,62.72856824719817L211.18217473559912,70.19101303510791L211.3426475127538,58.2798219337108L211.98453862137265,55.883879912876225L212.14501139852737,46.84974299317482L212.30548417568207,45.8066843571457L212.62642972999151,51.128208417213735L212.7869025071462,53.984014180972906L212.9473752843009,50.587148048657006L213.10784806145563,45.873697581189056L213.58926639291977,50.46582245069082L213.74973917007446,50.601646404377725L213.91021194722916,44.4132776120223L214.2311575015386,46.5056308926158L214.3916302786933,42.05421303775182L214.71257583300272,43.91930571683042L215.03352138731216,38.347637153600594L215.19399416446686,38.79270829970753L215.35446694162155,46.36094173814627L215.51493971877628,55.21049558925215L215.99635805024042,43.6228562518172L216.1568308273951,40.22420304011275L216.79872193601395,44.50753633350819L216.95919471316867,51.036042146601275L217.1196674903234,43.29861846990261L217.4406130446328,34.78101636538573L217.6010858217875,31.65848416795623L217.76155859894223,26.112830850778064L217.92203137609695,22.505773109848153L218.24297693040634,30.8382739380417L218.40344970756107,26.6038208316825L218.72439526187048,28.92376979894738L219.0453408161799,20.011667490829414L219.2058135933346,38.067113904985355L219.36628637048935,33.56033755870632L219.52675914764404,27.032679080303357L219.84770470195346,27.534746327448282L220.00817747910818,38.592080014178464L220.16865025626288,45.24777267105512L220.3291230334176,44.15451377571504L220.650068587727,41.88234266283988L220.81054136488174,49.411105193871826L220.97101414203644,44.93620031365018L221.13148691919113,34.901377023899165L221.45243247350058,37.02989779527402L221.6129052506553,40.306776679282805L221.77337802781,40.23773890104086L221.9338508049647,39.5348316088476L222.25479635927414,37.08664917326117L222.41526913642883,34.677649866185114L222.57574191358353,47.4834177272334L222.73621469073825,37.93849247654876L223.0571602450477,47.1339330765785L223.3781057993571,51.270740183936155L223.85952413082123,40.11749257223666L224.01999690797595,51.73824904965616L224.18046968513065,55.70463330138369L224.34094246228534,47.89616757948747L224.6618880165948,49.471798649165336L224.82236079374948,60.78561025009838L225.14330634805893,57.232493942096795L225.46425190236835,49.32112666881175L225.62472467952304,47.16139730254874L225.78519745667774,53.40683532054398L225.9456702338325,52.712559210559924L226.26661578814188,54.133223098549884L226.4270885652966,56.080572648568L226.58756134245132,62.636699741605476L226.74803411960602,57.279521765653435L227.06897967391544,62.76328583835766L227.22945245107013,56.36523629303471L227.38992522822488,64.31053585758957L227.55039800537958,64.29006510346831L227.871343559689,53.96994062546749L228.0318163368437,52.74131324960306L228.1922891139984,52.67068810360535L228.35276189115314,46.56551983944504L228.67370744546253,39.96156144515661L228.83418022261728,24.414175195035078L228.99465299977197,25.408999851771753L229.15512577692667,41.61557342413646L229.6365441083908,38.77892347030545L229.79701688554553,34.96368050101809L229.95748966270023,40.102119124413484L230.27843521700967,46.562115369498684L230.43890799416437,42.11905963431165L230.59938077131906,41.89912882735654L230.75985354847379,44.9376080524824L231.24127187993793,41.07053334470742L231.40174465709262,41.63193265834481L231.56221743424732,45.40061156328956L231.88316298855676,47.10396581675417L232.04363576571146,45.63521637663509L232.20410854286618,43.04500777521382L232.36458132002087,36.978260825886196L232.68552687433032,30.40714452891132L232.84599965148502,35.332818403837216L233.0064724286397,36.540155096008135L233.16694520579443,37.740525177162695L233.48789076010385,40.808259957070156L233.64836353725858,39.892156118241104L233.80883631441327,39.23808003935414L233.96930909156802,40.748623454625374L234.2902546458774,34.209216702353956L234.4507274230321,33.94791600520431L234.61120020018683,32.279763497350906L234.77167297734155,29.505474703843376L235.09261853165097,31.177040369221142L235.25309130880566,29.87270346130876L235.41356408596036,29.13883289163588L235.5740368631151,29.037501582207344L235.89498241742453,31.447537020220878L236.05545519457922,27.363362912977053L236.21592797173395,33.623792636324175L236.37640074888867,36.242253861756566L236.69734630319806,38.594359699252074L236.85781908035278,40.39631025469518L237.0182918575075,50.455790860983754L237.1787646346622,43.42906344437667L237.49971018897162,55.7466502569167L237.66018296612634,65.94048930988639L237.82065574328107,58.31318554501776L237.98112852043576,64.93727417909034L238.30207407474518,71.97464491097894L238.4625468518999,56.119442555420044L238.6230196290546,50.945206400690104L238.78349240620932,54.61633341356227L239.42538351482816,59.5348935292097L239.58585629198285,50.55370601136051L239.9068018462923,39.906143149448454L240.067274623447,35.87186339127899L240.22774740060171,35.30557366219495L240.3882201777564,38.328458297102266L240.70916573206586,38.24559206845551L240.86963850922055,31.23869371632682L241.03011128637525,41.53538008603957L241.19058406352997,38.626233540299914L241.5115296178394,43.33488608820988L241.6720023949941,55.73900215566285L241.8324751721488,62.31380157016099L241.9929479493035,53.56524881599888L242.31389350361295,59.23957124089215L242.47436628076764,52.745851672438015L242.63483905792236,56.22601868953727L242.79531183507706,52.717835262664146L243.1162573893865,44.56414360374651L243.2767301665412,56.2400666377605L243.4372029436959,56.423817131246246L243.59767572085065,56.45248956620065L243.91862127516004,54.72648193510774L244.07909405231476,48.3967669543256L244.23956682946945,48.3877968851048L244.40003960662418,51.33290595059553L244.7209851609336,60.07917988525356L244.8814579380883,57.78436533816175L245.04193071524304,54.48271853029668L245.20240349239774,55.60480982927168L245.52334904670715,59.20795244957237L245.68382182386185,53.14510861306547L245.8442946010166,62.447883317736164L246.0047673781713,67.28068816300465L246.32571293248068,56.46892320958698L246.48618570963544,71.39260218222581L246.64665848679013,59.94389172536048L246.80713126394485,53.78804580469798L247.12807681825424,54.341236454264276L247.4490223725637,47.78780200242135L247.9304407040278,60.020615794781584L248.09091348118253,54.299298956888336L248.25138625833725,45.40005294316782L248.41185903549194,44.14431011474548L248.7328045898014,52.36163843296665L248.89327736695608,65.53749477730862L249.2142229212655,66.31164831098351L249.53516847557492,52.32985411439687L249.69564125272964,39.60739446100639L249.85611402988434,37.006391946116835L250.01658680703903,44.04986926200158L250.33753236134848,35.80719671528672L250.49800513850317,32.35864374652686L250.6584779156579,38.807387987104846L250.8189506928126,39.4477029715151L251.13989624712204,42.79829051182055L251.30036902427673,42.4064709517601L251.46084180143143,34.599642464681935L251.62131457858615,28.461548079781572L251.94226013289557,21.24050841322895L252.1027329100503,20.868068304052645L252.263205687205,19.39019963455438L252.4236784643597,28.617968043849082L252.74462401866913,28.973674035752317L252.90509679582382,31.33258375625521L253.22604235013327,32.77238031809647L253.5469879044427,32.36497747047062L253.70746068159738,45.54300868002799L253.8679334587521,56.771210035019564L254.02840623590683,50.244078207777065L254.34935179021622,43.495105011986354L254.50982456737094,56.91845823810025L254.67029734452566,50.54213974905523L254.83077012168036,43.53591030399553L255.15171567598978,47.690659423723325L255.31218845314447,33.79342792976845L255.47266123029922,26.704451214571588L255.63313400745392,19.142682852260638L255.95407956176334,7.909149341650174L256.1145523389181,8.256663944795582L256.27502511607275,14.235230307727988L256.4354978932275,17.058345783650005L256.75644344753687,16.335754800980546" fill="none"></path></g></g></g></g><g opacity="0.2"><g><g><g><path style="fill: none;" stroke="rgb(255, 112, 67)" stroke-width="2px" d="M33.05739209387038,196.63763556715057L33.217864871025085,168.87586007737656L33.378337648179794,145.52006707283846L33.69928320248922,129.85276840019807L33.85975597964393,118.27874688262833L34.02022875679864,105.95985916733866L34.180701533953346,105.95985916733866L34.50164708826277,63.18177702647595L34.66211986541748,147.06901789702854L34.82259264257219,97.6881217453461L35.30401097403632,89.68466775105215L35.46448375119103,71.84870724432065L35.62495652834574,92.33716131609441L35.78542930550046,140.35039756796434L36.106374859809875,219.78393291783794L36.266847636964584,107.87349856121111L36.4273204141193,266.61211788157516L36.58779319127401,98.91010529056827L36.90873874558343,96.61756141138041L37.06921152273814,96.61756141138041L37.229684299892845,130.9737481661068L37.71110263135699,125.5055890808134L37.871575408511696,125.5055890808134L38.0320481856664,166.0743657053737L38.19252096282111,135.75581391444217L38.51346651713053,226.28511209781763L39.31583040290408,217.25522616425872L39.47630318005879,120.48387595633075L39.79724873436822,169.78326648417843L40.11819428867764,70.35427764016956L40.27866706583235,85.98455911068265L40.43913984298707,73.45631642083427L40.59961262014177,93.82385485759579L40.920558174451195,279.23827490343376L41.24150372876061,210.52502000256092L41.40197650591533,107.86814436166742L41.883394837379456,76.21844506836901L42.043867614534165,84.20301894799836L42.20434039168887,154.70076663742725L42.5252859459983,93.9927272090229L42.68575872315301,54.13577225678543L42.846231500307724,75.3172575891419L43.006704277462426,83.65504057782923L43.32764983177185,82.1694368808835L43.48812260892656,94.15181224420131L43.648595386081276,146.40866359034843L43.809068163235985,122.04541877089996L44.13001371754541,76.62411069306935L44.29048649470011,142.36242755865285L44.45095927185482,58.00683655290364L44.61143204900954,80.0277674169228L44.932377603318955,55.04116332081289L45.09285038047367,145.40240589719684L45.25332315762838,35.93780635730855L45.41379593478309,132.67177807355077L45.73474148909251,66.66433347574994L45.895214266247216,82.59252397488082L46.21615982055664,63.576103571100056L46.537105374866066,64.06142718853613L46.69757815202077,86.71649091186764L46.85805092917548,102.19140035100834L47.01852370633019,92.38909075429397L47.33946926063962,188.0636897035654L47.49994203779433,57.33357204067549L47.660414814949036,151.982075176405L47.82088759210375,43.62093235507497L48.14183314641316,178.58109984145923L48.46277870072259,89.75342018644677L48.6232514778773,114.49211947258583L48.94419703218672,154.87250914488112L49.10466980934143,89.09447510977813L49.42561536365085,99.87255622939753L49.746560917960274,111.98190416101217L49.90703369511498,93.08107832438931L50.0675064722697,191.45071363908116L50.22797924942441,87.65282553046322L50.548924803733826,110.47871696803679L50.709397580888535,72.23605658913364L50.869870358043244,186.3255272299574L51.03034313519796,110.93183987535951L51.35128868950738,104.68849011163897L51.511761466662094,208.14503227852865L51.672234243816796,207.21787088697002L51.832707020971505,159.1466841992648L52.31412535243564,119.00872369632185L52.635070906745064,118.61900116176425L52.95601646105448,135.76330809902373L53.11648923820919,73.26567218363788L53.27696201536391,65.32546156917755L53.437434792518616,180.18642176051856L53.75838034682804,189.97626683769604L53.91885312398275,151.52546508994865L54.07932590113746,190.02627872869266L54.23979867829217,203.76099051295117L54.560744232601586,153.37402882132844L54.7212170097563,141.00652634690644L54.88168978691101,153.80992987456887L55.363108118375145,133.919432877449L55.52358089552985,116.25592991376371L55.68405367268456,116.25592991376371L56.1654720041487,172.40980688360696L56.325944781303406,153.4194879252995L56.48641755845812,218.61829405103012L56.96783588992225,187.06501886548907L57.12830866707696,155.49914351088765L57.28878144423167,245.36244829937124L57.44925422138638,245.36244829937124L57.7701997756958,88.50592270636972L57.93067255285051,205.72020948094772L58.09114533000522,186.94551826153076L58.25161810715993,170.82900610259207L58.57256366146935,93.74374428479717L58.73303643862407,127.59633186059119L58.89350921577878,189.62710269157066L59.374927547242905,272.48712691274676L59.535400324397614,157.96869555882895L59.69587310155233,185.11024040724058L59.85634587870704,166.75878724896052L60.177291433016464,212.02084962646293L60.33776421017117,140.7659972872571L60.498236987325875,198.6401378164782L61.140128095944725,201.78982502811527L61.300600873099434,176.98858577350242L61.46107365025415,176.98858577350242L61.78201920456356,137.70999418121704L61.94249198171827,63.062172771243546L62.102964758872986,104.67955905229081L62.263437536027695,40.277658806638144L62.58438309033712,119.16365604285708L62.74485586749183,135.7008215663603L62.90532864464654,132.87301877956253L63.38674697611067,161.1301709545702L63.54721975326538,178.0792914895277L63.70769253042009,190.44612973216928L63.868165307574806,116.49164492257937L64.18911086188422,191.96312268443668L64.51005641619365,198.6914075110725L64.67052919334836,124.39513729721759L64.99147474765778,55.14687769595622L65.15194752481248,56.89185936344301L65.3124203019672,89.08066831908835L65.4728930791219,125.8770343067123L65.79383863343132,72.44892352252629L65.95431141058604,57.48365602219251L66.11478418774075,94.43943327920411L66.27525696489546,64.1431853760756L66.9171480735143,152.14852915403364L67.077620850669,69.69925740253707L67.39856640497844,93.46177350360296L67.55903918213315,93.09315388327241L67.71951195928786,176.25763979747546L67.87998473644257,58.05138362043482L68.20093029075198,80.64111196330552L68.36140306790669,77.71528755731654L68.5218758450614,130.021189352945L68.68234862221613,110.92113511551347L69.00329417652554,83.99933296429863L69.16376695368025,52.5904738111502L69.32423973083496,83.66970920885296L69.80565806229909,97.95943447739094L70.12660361660852,128.63128563165228L70.28707639376323,104.74381720833334L70.76849472522736,131.93074160772423L70.92896750238206,114.26595716184869L71.08944027953677,91.93879106676103L71.57085861100092,92.73619204915285L71.73133138815561,24.508884285899832L72.21274971961975,44.0540797124582L72.37322249677446,77.64361406720265L72.53369527392917,89.6302160980351L72.69416805108388,109.75089249019055L73.17558638254802,149.52218383388495L73.33605915970273,55.44017355606058L73.49653193685742,126.63362889917427L73.81747749116685,207.47477386962595L73.97795026832156,58.76049578929522L74.13842304547627,13.78837013201584L74.298895822631,31.30835600076833L74.61984137694041,65.18197769441858L74.78031415409512,99.84652668186476L74.94078693124982,43.964528139075526L75.42220526271397,54.67587687955059L75.58267803986867,131.21811904126162L75.74315081702339,41.14875765175716L75.9036235941781,16.774850523030377L76.22456914848752,87.39764447137038L76.54551470279694,160.9225831104942L76.70598747995165,37.18915618451519L77.02693303426106,63.41169482300089L77.18740581141579,16.828130975220127L77.3478785885705,102.63593811698463L77.50835136572519,125.27191098470924L77.82929692003462,50.273284759390975L77.98976969718933,102.4445077542762L78.15024247434404,134.10392974731587L78.31071525149876,66.35595590037008L78.63166080580817,63.0297615014795L78.79213358296289,71.14513993625134L78.95260636011758,49.329873800687245L79.11307913727231,63.86099609786538L79.43402469158173,81.65141645403067L79.59449746873644,80.38636202897287L79.75497024589114,68.90592603972856L79.91544302304585,94.92276501466696L80.23638857735529,62.19545566431858L80.39686135450998,142.78613165685738L80.71780690881941,134.1953749683889L81.03875246312883,151.782736203978L81.19922524028354,102.89717885446179L81.35969801743826,133.8926682973962L81.52017079459296,104.3593972765289L81.84111634890239,164.2077066697503L82.0015891260571,123.22945160034485L82.16206190321181,141.49768139483828L82.64348023467593,82.05528017488338L82.80395301183066,79.18553694178365L82.96442578898535,76.33568091031017L83.12489856614008,77.21075957104988L83.44584412044948,108.19662172761217L83.6063168976042,117.06524530497934L83.76678967475891,69.10346964423833L83.92726245191362,65.15401012342586L84.24820800622305,57.900026072740246L84.40868078337775,51.09967120973413L84.56915356053247,67.19027591070343L84.72962633768718,76.01645428879239L85.0505718919966,57.96954030081348L85.2110446691513,48.175406476529275L85.37151744630602,67.29626498099492L85.53199022346072,73.47800967175816L85.85293577777014,153.0230024602976L86.01340855492485,100.09885520577207L86.17388133207957,9.121053666470452L86.33435410923427,68.54227679374945L86.6552996635437,57.834496180609875L86.81577244069842,105.13923047724789L86.97624521785312,45.26947407446088L87.13671799500784,55.41870616967483L87.45766354931725,53.065507862409866L87.61813632647197,60.34173433502564L87.77860910362666,50.68098224693397L87.93908188078139,66.7288817263944L88.42050021224551,88.83045880394698L88.58097298940022,123.70431934367194L88.74144576655495,82.23659291892318L89.06239132086436,125.4229166258578L89.22286409801907,92.68693977647132L89.38333687517378,95.43620454086414L89.54380965232849,106.0646805727601L89.86475520663791,178.300757528251L90.02522798379262,21.453189939868317L90.18570076094734,44.4046295991311L90.34617353810204,11.736178712026932L90.66711909241147,25.917227012235337L90.82759186956618,35.61137903156955L90.98806464672089,42.1939877428829L91.1485374238756,58.08388188226201L91.46948297818501,39.053189077276016L91.62995575533974,46.45109444132097L91.79042853249443,52.51102864824236L91.95090130964915,55.85893031766731L92.27184686395856,44.13006793957766L92.43231964111328,149.40255154564406L92.59279241826799,77.84588578294776L92.75326519542271,37.88521663570756L93.07421074973213,25.832442633692263L93.23468352688683,62.458042499016734L93.39515630404154,40.625163329340694L93.55562908119626,83.82126890141171L93.87657463550568,98.2402716247281L94.03704741266039,153.74852921811882L94.3579929669698,54.12619572287406L94.83941129843393,66.73873245636027L94.99988407558865,82.15633225419914L95.16035685274336,91.1962613272035L95.48130240705278,122.85654683195088L95.6417751842075,9.503248681081397L95.8022479613622,48.04399140461987L95.96272073851691,48.35906401448775L96.28366629282633,46.739548096778584L96.44413906998105,61.72648747406609L96.60461184713576,70.80427473641343L96.76508462429047,54.42719967857259L97.0860301785999,60.75790508752068L97.2465029557546,66.67366858084303L97.4069757329093,76.81530485220544L97.56744851006403,87.03741356830369L97.88839406437344,83.51893077920676L98.04886684152815,96.10639258969663L98.20933961868286,143.239627341507L98.36981239583757,44.479783945988245L98.69075795014699,102.34375889840945L98.8512307273017,111.11375994415056L99.01170350445642,74.29263334684997L99.17217628161112,182.320501067681L99.49312183592055,34.8688882511771L99.65359461307524,53.06959013526528L99.81406739022997,58.5074674701223L100.29548572169409,45.595226363170106L100.61643127600352,69.59779474297913L100.77690405315823,59.86177940355654L101.09784960746765,54.86983844943141L101.90021349324121,83.79041068420408L102.06068627039592,95.48852700799388L102.22115904755061,94.99514639140693L102.38163182470534,87.42998038860489L102.70257737901476,72.87042098818254L103.02352293332419,92.35930213375501L103.18399571047888,117.78653988047013L103.50494126478831,103.73773948845715L103.66541404194301,108.23038967355785L103.82588681909773,36.81649656322433L103.98635959625244,41.67591236243638L104.30730515056186,33.818670409441076L104.46777792771658,43.02715962569297L104.62825070487128,72.05636378513866L104.78872348202599,58.94670606536935L105.1096690363354,42.3962156713607L105.27014181349013,65.23007269822678L105.43061459064484,70.6954090910974L105.59108736779956,82.8910061441464L105.91203292210896,71.76570585088699L106.07250569926369,80.82624863007409L106.23297847641838,57.63810640915602L106.3934512535731,57.521683286217225L106.71439680788252,-5.402438197074702L106.87486958503723,15.010584502634702L107.03534236219195,13.033631352459864L107.19581513934665,36.00387492157694L107.51676069365608,26.066243180013497L107.67723347081078,35.46630080452328L107.8377062479655,53.421124298618224L107.99817902512021,69.42584271108056L108.31912457942963,90.53259049095861L108.47959735658434,57.410314946140055L108.64007013373904,71.2882441474275L108.80054291089375,66.45445619419858L109.2819612423579,37.82277931104436L109.4424340195126,53.507821878324734L109.6029067966673,101.36923570398748L109.92385235097673,159.1828382123279L110.08432512813144,31.416105479100818L110.24479790528615,40.69791979128527L110.40527068244087,35.52301717262897L110.72621623675029,65.75878087776526L110.886689013905,59.38966596763442L111.0471617910597,44.31059039592423L111.68905289967854,92.03764695713674L111.84952567683327,33.33411612502552L112.00999845398798,71.86418288612296L112.3309440082974,60.386118310905644L112.4914167854521,82.24797170508867L112.65188956260681,76.3273383622633L112.81236233976152,91.8244295047376L113.13330789407094,73.70916209374856L113.29378067122566,77.39697449732581L113.45425344838037,68.91645853109495L113.61472622553507,96.54289295873507L113.9356717798445,47.178997373457904L114.0961445569992,57.57600758795922L114.41709011130864,82.91164193823025L114.73803566561804,67.63680707566486L114.89850844277277,53.055434087604056L115.05898121992746,51.254442568995366L115.21945399708218,38.494400687099535L115.5403995513916,44.19742421521872L115.70087232854631,61.579468000424455L115.86134510570102,47.348980823337186L116.02181788285573,52.28325734342005L116.34276343716516,76.44603877888365L116.50323621431986,64.90216935338499L116.82418176862929,73.1695476338286L117.1451273229387,59.93634677500568L117.46607287724814,96.46385974511969L117.62654565440283,57.117492283483735L117.94749120871226,60.62121082914186L118.10796398586697,62.90792843493635L118.26843676302168,77.1071645739635L118.42890954017639,64.82399817610023L118.74985509448581,59.9605797431301L118.91032787164053,68.77603423751307L119.07080064879523,71.15254553957811L119.23127342594995,55.63019045013416L119.55221898025935,64.26430417707562L119.71269175741408,58.88721626236627L119.87316453456879,82.00193321335061L120.0336373117235,83.59607692711995L120.51505564318762,66.2346790062835L120.67552842034235,110.91293571149924L120.83600119749705,93.7402064026939L121.15694675180647,83.35315453921916L121.31741952896118,88.70491121873408L121.47789230611589,100.04953769719489L121.6383650832706,91.52310021051528L121.95931063758002,31.157908525959L122.11978341473473,101.61807389268013L122.28025619188945,78.81651691996122L122.44072896904414,121.41033132215746L122.76167452335358,80.0439834032137L122.9221473005083,84.66819631359584L123.082620077663,37.386267860006065L123.24309285481772,48.454060182515235L123.56403840912712,41.83005655316673L123.72451118628184,46.172688904278345L123.88498396343654,53.666305788212654L124.04545674059126,74.02428870871806L124.3664022949007,58.63698661657145L124.52687507205539,62.80136352811818L124.6873478492101,58.731051280206344L124.84782062636482,69.40486972727193L125.16876618067424,67.8205980480784L125.32923895782895,87.29312806326871L125.48971173498366,60.01327202397103L125.65018451213837,67.59458519094643L125.97113006644778,62.80342797741148L126.1316028436025,74.06090294703644L126.29207562075722,76.31240973234787L126.77349395222134,51.44850660981122L126.93396672937605,55.677645320662236L127.09443950653076,40.55148196305404L127.25491228368547,62.18581328035893L127.57585783799489,48.88058581601333L127.73633061514961,50.093047303525374L128.05727616945904,42.77907142270018L128.37822172376843,33.8070482065081L128.53869450092316,50.32266305797774L128.69916727807785,81.86591047192948L128.85964005523257,47.8665345361446L129.180585609542,80.1506206264479L129.34105838669672,49.27046109612834L129.5015311638514,59.71963015087302L129.98294949531555,58.64339233254847L130.14342227247025,39.787192620426474L130.30389504962497,38.876517872849135L130.4643678267797,61.460112480609006L130.7853133810891,68.15012595143656L130.9457861582438,44.117764978892716L131.10625893539853,51.729814444033565L131.26673171255322,44.551282716317175L131.58767726686264,22.825424890800257L131.74815004401736,52.65070273583756L131.9086228211721,72.31220862969366L132.06909559832678,68.84549938288326L132.3900411526362,46.07795182670557L132.55051392979092,36.144250659193986L132.71098670694562,58.87137113919984L132.87145948410034,76.81940758341422L133.19240503840976,54.265989129863776L133.35287781556448,29.093433932634976L133.99476892418332,50.828458251493196L134.155241701338,88.48140630494588L134.31571447849274,62.301415646987095L134.47618725564746,46.96975825965132L134.79713280995688,91.73542649664756L134.95760558711157,71.20095029975138L135.1180783642663,86.89079409858351L135.278551141421,114.36668728239059L135.5994966957304,14.692813752782463L135.75996947288513,24.25997061333917L135.92044225003986,46.061243040868845L136.40186058150397,34.86354216548658L136.72280613581339,59.40648535375433L136.8832789129681,40.2904169077373L137.20422446727753,53.03350201742673L137.52517002158694,63.197726252273746L137.68564279874167,32.889374290636965L138.16706113020578,35.272352520177186L138.3275339073605,63.00036465646259L138.48800668451523,34.754522985136354L138.80895223882465,73.63362260267748L138.96942501597934,50.28310234982927L139.12989779313406,50.5468859657209L139.29037057028876,112.90336364967418L139.61131612459818,84.66912717224153L139.7717889017529,58.24733025751194L140.41368001037173,115.19625865946175L140.57415278752646,13.707308258883968L140.73462556468115,74.05732644427738L140.89509834183588,83.85050061219651L141.2160438961453,71.72166487716824L141.37651667330002,45.89812752744905L141.5369894504547,68.03867576564505L141.69746222760944,77.10842076090988L142.01840778191882,64.14597051290028L142.17888055907355,89.07715469451531L142.49982611338297,9.79236429351011L142.8207716676924,15.706716308608966L142.9812444448471,31.934127758917548L143.14171722200183,58.12523016425859L143.62313555346594,104.8268294782162L143.78360833062067,97.82350881098444L143.9440811077754,130.4266880985218L144.10455388493008,-38.58016264628959L144.4254994392395,-8.508718173709138L144.5859722163942,44.38762278972341L144.90691777070364,-4.825897392933779L145.22786332501306,7.167294906393581L145.54880887932248,31.446901817229875L145.7092816564772,64.705928261237L146.0302272107866,85.20968537728955L146.51164554225073,110.11389131043703L146.83259109656015,4.054642256800482L146.99306387371485,62.32409293502752L147.1535366508696,-36.327843262626665L147.95590053664313,-14.212824504335433L148.11637331379785,69.95716100427097L148.43731886810724,36.396994856564575L148.597791645262,36.19410090392373L148.7582644224167,67.81178003808843L148.91873719957138,69.23798324649702L149.23968275388083,65.14485101470704L149.40015553103555,49.25424955440928L149.56062830819025,90.84481135098426L150.0420466396544,115.99394641713259L150.20251941680908,136.82727242553955L150.36299219396378,141.09900212973866L150.5234649711185,91.58916353441934L150.84441052542795,33.09190420250291L151.00488330258264,73.32317408107568L151.16535607973734,72.66274485594826L151.32582885689203,62.82167151059863L151.64677441120148,94.45584988416144L151.8072471883562,77.2999691194931L152.1281927426656,67.68127550903323L152.44913829697504,58.29225303736842L152.60961107412973,133.09827301974545L152.77008385128445,74.66090919080638L152.93055662843918,50.518860181972116L153.2515021827486,105.16808708987129L153.4119749599033,44.335132096142054L153.73292051421274,72.54270014435748L154.05386606852213,96.41735102612925L154.21433884567685,75.06140310251644L154.37481162283157,104.30194310456673L154.53528439998627,77.17195059965458L154.85622995429569,158.48382541421077L155.01670273145038,7.720536278920037L155.17717550860513,13.204060529810901L155.33764828575983,34.05931137386869L155.65859384006924,27.595461374977422L155.81906661722394,14.724868776827135L155.97953939437866,26.597525246310617L156.14001217153339,13.406214730706239L156.46095772584277,15.016596892558253L156.62143050299753,24.06200222423431L157.26332161161633,29.627877279533987L157.42379438877106,21.75728004417683L157.58426716592578,25.798103795847677L157.74473994308048,30.24650175217618L158.22615827454462,43.735721569886486L158.3866310516993,40.77036028538014L158.54710382885403,29.65344595143311L158.86804938316345,44.273538842990945L159.02852216031818,66.7748705332194L159.18899493747287,32.348401268396394L159.34946771462756,34.62265410798147L159.670413268937,30.689107818106862L159.8308860460917,73.54083159712594L159.99135882324643,69.7789263079866L160.15183160040112,96.98965572019176L160.47277715471057,121.83607370024187L160.79372270901996,128.91709847118585L160.95419548617468,8.861700491691655L161.2751410404841,8.649054591013298L161.43561381763882,25.63940936598686L161.59608659479352,25.11542896774574L162.07750492625766,31.43413435818896L162.23797770341235,36.609553809199205L162.39845048056708,34.908489466065305L162.5589232577218,47.53172025174412L162.87986881203122,58.059750234140004L163.0403415891859,100.12915754625274L163.2008143663406,74.82081145643416L163.68223269780478,112.14993965195927L163.84270547495947,-23.289618501409016L164.0031782521142,2.880654885025514L164.16365102926892,79.6291631673397L164.4845965835783,1.4286621217356694L164.64506936073303,31.49524512849696L164.80554213788776,83.23064617798667L164.96601491504245,62.768505302239646L165.28696046935187,10.382286749995771L165.60790602366131,27.552337819369235L166.24979713228015,34.23150992199341L166.41026990943485,32.90064789815417L166.57074268658957,46.24945591063567L167.0521610180537,36.026629520388404L167.2126337952084,32.99742209744514L167.3731065723631,25.039387755425103L167.69405212667255,53.5605129256251L167.85452490382724,51.838858893627496L168.17547045813666,63.12064086138554L168.4964160124461,52.72108523607653L168.6568887896008,54.35286107808851L168.8173615667555,30.82915984394257L168.97783434391022,46.0501049458623L169.29877989821964,58.473160790320804L169.45925267537436,46.13684851293414L169.61972545252905,37.24023750525874L169.78019822968375,28.517154866969847L170.1011437839932,58.78244865417389L170.2616165611479,50.31237878767789L170.5825621154573,59.24602227299171L170.90350766976675,45.88124011264546L171.06398044692145,53.6399161275633L171.22445322407614,61.76178742726025L171.3849260012309,60.439707535985754L171.70587155554028,35.957941968932026L171.866344332695,43.06919210596089L172.18728988700443,57.42657555050165L172.50823544131384,73.51061650989257L172.66870821846854,77.66960662784865L172.8291809956233,92.88928600217396L172.98965377277798,57.49732188294789L173.3105993270874,78.93116120789045L173.4710721042421,46.25691950329467L174.11296321286093,72.38672476911597L174.27343599001568,115.23839787885876L174.43390876717038,136.68419383141313L174.5943815443251,72.9885457264712L174.9153270986345,87.15343211081824L175.07579987578924,105.33412686258059L175.23627265294394,106.18973498747087L175.39674543009863,74.36699800686007L175.71769098440805,61.786800769621884L175.87816376156277,89.25057871194805L176.0386365387175,79.84964107582861L176.84100042449103,27.057963891843823L177.00147320164575,39.2228041092651L177.32241875595517,30.53661205736818L177.4828915331099,25.305012473784736L177.6433643102646,22.856021215237163L177.80383708741928,51.4662533361016L178.12478264172873,61.8894436628673L178.28525541888342,102.22843941742731L178.44572819603815,58.48142494530745L178.60620097319284,7.906879126729717L178.9271465275023,17.207028486791742L179.08761930465698,33.740865717539904L179.24809208181168,46.082587947137434L179.4085648589664,67.10774539123399L179.72951041327582,67.39105034367479L179.88998319043054,31.79558693945523L180.05045596758524,27.913740760194962L180.21092874473996,38.61815688981282L180.69234707620407,27.09067016327399L180.8528198533588,12.323658295772647L181.01329263051352,21.096734935937143L181.33423818482294,27.420648674877302L181.49471096197763,20.236706274935173L181.65518373913235,30.856653725306973L181.81565651628708,39.92610322395767L182.13660207059647,30.150114075443835L182.2970748477512,41.85490030713088L182.4575476249059,38.93033641557764L182.6180204020606,114.46489386599137L182.93896595637003,30.883089425156335L183.09943873352472,92.17310347432677L183.25991151067947,3.9485722808269372L183.42038428783417,-2.105501774931357L183.74132984214359,21.299205697916314L183.9018026192983,13.027319676166881L184.062275396453,49.10807138043326L184.22274817360773,22.057535167737683L184.54369372791712,45.16329314312952L184.86463928222656,73.07269120179598L185.02511205938126,100.39949065885197L185.3460576136907,-37.410751679544894L185.50653039084543,121.17028599711986L185.66700316800012,7.801778174198467L185.82747594515482,16.905409019122303L186.14842149946426,12.851010211903537L186.30889427661896,24.71827726842736L186.46936705377365,-0.8339749190057577L186.62983983092838,16.823139743100533L186.95078538523782,31.86778923181271L187.11125816239252,34.11062406659495L187.2717309395472,88.06225839226181L187.75314927101135,20.343132001281123L187.91362204816608,11.807898109004839L188.07409482532077,14.076217276799664L188.23456760247547,29.126776669625592L188.5555131567849,19.021908612936965L188.7159859339396,39.70552818701734L188.87645871109433,33.865811283837175L189.03693148824905,44.002189103274375L189.35787704255847,53.10738741047884L189.51834981971317,34.34873820483267L189.67882259686786,38.5662280995936L189.8392953740226,60.14347696996106L190.160240928332,30.03087560800303L190.32071370548672,60.71935921762035L190.48118648264145,73.97105038065459L190.64165925979614,70.80686637774099L191.12307759126026,58.17522733320138L191.283550368415,79.26164268210954L191.76496869987912,28.706823904436494L191.92544147703381,68.72093674007118L192.08591425418854,57.97678654176595L192.24638703134326,55.50503196124166L192.56733258565265,73.6219532942837L192.7278053628074,59.73376152042632L192.8882781399621,74.94457327290024L193.0487509171168,69.33211274695475L193.3696964714262,68.78458948453256L193.53016924858093,77.0277463608321L193.69064202573566,32.651288605075166L193.85111480289035,41.37133665380687L194.1720603571998,43.6789957679035L194.3325331343545,56.54859700049923L194.4930059115092,40.41354283595922L194.6534786886639,38.49727750989385L194.97442424297333,50.37820415556389L195.13489702012805,56.50785919961926L195.29536979728275,46.60535759060866L195.7767881287469,57.92440248624559L195.93726090590158,41.378128001152476L196.258206460211,47.62950936777058L196.57915201452045,65.3855124550044L196.90009756882984,59.45748705906173L197.06057034598456,61.39669553804377L197.38151590029398,29.76318233972085L197.5419886774487,31.838695783269554L197.7024614546034,33.21241016430897L197.86293423175815,40.03376329078307L198.18387978606754,33.44724762946287L198.34435256322223,41.969707548192524L198.50482534037695,45.755846643269926L198.66529811753168,39.850518566376344L198.9862436718411,37.38882426235455L199.30718922615048,52.55822602369161L199.46766200330524,44.164959556825906L199.78860755761465,55.51279486321151L199.94908033476935,37.44074647146875L200.10955311192407,25.874235680162386L200.2700258890788,43.254038223235895L200.59097144338818,51.035003494823364L200.91191699769763,56.08374485418272L201.07238977485233,42.30281882418374L201.39333532916174,72.3497077409846L201.55380810631647,47.555832595229674L201.7142808834712,63.15534008525345L201.87475366062588,55.815746586575614L202.35617199209003,52.70473583272109L202.51664476924472,72.6824553115955L203.15853587786359,62.530731078811016L203.31900865501828,79.76359204948541L203.47948143217297,50.08261672859859L203.80042698648242,54.828818016756976L203.96089976363712,53.3436693663187L204.12137254079184,72.56032285286992L204.28184531794653,63.904889745439505L204.76326364941067,46.127789738954895L205.0842092037201,44.96768199333544L205.4051547580295,51.373984257437726L205.56562753518423,35.29029209569772L205.72610031233893,33.060033019073664L205.88657308949362,34.91033882076985L206.20751864380307,33.73864946831644L206.36799142095776,24.057748492900107L206.5284641981125,31.523967127662644L206.68893697526718,31.023033711809074L207.00988252957663,68.4830991524256L207.17035530673132,30.96725222458556L207.49130086104077,43.29409415838742L207.81224641535016,45.11795100728512L207.97271919250488,57.59387912542232L208.13319196965958,30.57591632765544L208.61461030112372,29.4637360625268L208.7750830782784,61.68557289731246L208.93555585543317,37.2363364415737L209.09602863258786,39.53947422542237L209.41697418689728,24.416080656739943L209.57744696405197,59.61192367274401L210.37981084982556,54.86022100101662L210.54028362698025,66.91476213912287L210.70075640413498,40.09206807151274L211.02170195844437,86.08204077653491L211.18217473559912,82.17849678196613L211.3426475127538,42.104421112314945L211.98453862137265,52.364326819071806L212.14501139852737,34.29540571290907L212.30548417568207,44.25636667887951L212.62642972999151,59.50548172670767L212.7869025071462,58.378739756797835L212.9473752843009,45.639956905493946L213.10784806145563,39.08532760193182L213.58926639291977,57.64600526948078L213.74973917007446,50.80562699623318L213.91021194722916,35.610170980566735L214.2311575015386,49.70331543175885L214.3916302786933,35.62902084829136L214.71257583300272,46.763844264448764L215.03352138731216,30.380907058421624L215.19399416446686,39.46294977623986L215.35446694162155,58.53066491674136L215.51493971877628,69.61737840433521L215.99635805024042,27.84645901911707L216.1568308273951,35.274484753774004L216.79872193601395,51.185805376918516L216.95919471316867,61.430575088585066L217.1196674903234,32.43192563043452L217.4406130446328,22.894679403794555L217.6010858217875,27.100149541044335L217.76155859894223,18.181572227699462L217.92203137609695,17.261873187378235L218.24297693040634,44.3356921577471L218.40344970756107,20.48055993360054L218.72439526187048,32.476576948281526L219.0453408161799,7.614645793427698L219.2058135933346,70.37480769534815L219.36628637048935,27.058284647827804L219.52675914764404,17.773063869834218L219.84770470195346,28.291201791903077L220.00817747910818,56.98821151309994L220.16865025626288,55.85757225045369L220.3291230334176,42.53029503836647L220.650068587727,38.54103771469443L220.81054136488174,61.51278946864663L220.97101414203644,38.47838954930159L221.13148691919113,21.068654744148496L221.45243247350058,40.28391765609892L221.6129052506553,45.368865000662694L221.77337802781,40.13424532184253L221.9338508049647,38.48697179975223L222.25479635927414,33.49197627854709L222.41526913642883,31.139314537699583L222.57574191358353,69.16668611123819L222.73621469073825,24.72904762679822L223.0571602450477,62.15435863457941L223.3781057993571,57.711846251110636L223.85952413082123,24.88000489140959L224.01999690797595,71.18091736312572L224.18046968513065,61.87070459360571L224.34094246228534,36.936089308727034L224.6618880165948,51.86862392807469L224.82236079374948,79.65666449542096L225.14330634805893,52.064637042201134L225.46425190236835,38.22597546520697L225.62472467952304,43.982355051714116L225.78519745667774,63.324132122693456L225.9456702338325,51.67748800847781L226.26661578814188,56.29131447202976L226.4270885652966,59.05276508555357L226.58756134245132,73.07793808087472L226.74803411960602,49.60570793987126L227.06897967391544,71.40905420767304L227.22945245107013,47.27970491168001L227.38992522822488,77.1328511415852L227.55039800537958,64.25936452161608L227.871343559689,39.776489521137286L228.0318163368437,50.91813759720142L228.1922891139984,52.56481640627914L228.35276189115314,37.87475079807975L228.67370744546253,30.59963867148064L228.83418022261728,3.890479329499254L228.99465299977197,26.91446934367625L229.15512577692667,70.04435271293524L229.6365441083908,34.62776039401935L229.79701688554553,29.426948368252926L229.95748966270023,48.17737829308707L230.27843521700967,56.84090981019948L230.43890799416437,35.70548380461837L230.59938077131906,41.569871954444075L230.75985354847379,49.62122451969596L231.24127187993793,35.461055881852765L231.40174465709262,42.47822829161004L231.56221743424732,51.24869991071555L231.88316298855676,49.69805450732275L232.04363576571146,43.4602756208401L232.20410854286618,39.24644757675828L232.36458132002087,28.33942076348518L232.68552687433032,21.08924261272876L232.84599965148502,43.058401218376595L233.0064724286397,38.370689409406104L233.16694520579443,39.56038356323301L233.48789076010385,45.53823244097581L233.64836353725858,38.52902128230788L233.80883631441327,38.26259772400591L233.96930909156802,43.04509739846169L234.2902546458774,24.933840283050138L234.4507274230321,33.55686709218872L234.61120020018683,29.813823158062487L234.77167297734155,25.443395670413047L235.09261853165097,33.72199049861324L235.25309130880566,27.938458846455237L235.41356408596036,28.0451114849864L235.5740368631151,28.885640489955122L235.89498241742453,35.14131271210407L236.05545519457922,21.449882715179996L236.21592797173395,43.56630040163287L236.37640074888867,40.26306123571008L236.69734630319806,42.19745995566397L236.85781908035278,43.14298725182918L237.0182918575075,67.02724491388652L237.1787646346622,33.50259606926751L237.49971018897162,76.50029896153477L237.66018296612634,82.75552058502802L237.82065574328107,47.59146100258997L237.98112852043576,75.49353458919177L238.30207407474518,83.23358400984861L238.4625468518999,35.23872001152588L238.6230196290546,43.52205643571956L238.78349240620932,60.30794838447124L239.42538351482816,67.2488089390295L239.58585629198285,38.067588013146114L239.9068018462923,25.30070682780583L240.067274623447,30.028150905648438L240.22774740060171,34.46036405110233L240.3882201777564,42.987374935286404L240.70916573206586,38.121383606446216L240.86963850922055,21.338617220908674L241.03011128637525,58.53730256224711L241.19058406352997,34.371627458532316L241.5115296178394,50.7052235336676L241.6720023949941,76.65674668169909L241.8324751721488,72.78662722329916L241.9929479493035,41.379547611364046L242.31389350361295,68.20174558728453L242.47436628076764,43.53178531842254L242.63483905792236,61.612144412423746L242.79531183507706,47.61337507267282L243.1162573893865,33.15180188484757L243.2767301665412,75.78584691336894L243.4372029436959,56.69989085909788L243.59767572085065,56.49550911051671L243.91862127516004,52.17629891638972L244.07909405231476,39.4031694606626L244.23956682946945,48.37434284691587L244.40003960662418,55.8687409533584L244.7209851609336,74.3036659631869L244.8814579380883,54.410422112247694L245.04193071524304,49.6702903303277L245.20240349239774,57.30480191707981L245.52334904670715,64.79068618932597L245.68382182386185,44.51154572377556L245.8442946010166,77.6595487959297L246.0047673781713,74.85407650208802L246.32571293248068,41.657694651574005L246.48618570963544,97.21969370918191L246.64665848679013,44.339447922231976L246.80713126394485,45.02883317577609L247.12807681825424,55.17509694615454L247.4490223725637,38.49361036140377L247.9304407040278,80.61378056632256L248.09091348118253,46.12882404479009L248.25138625833725,33.019622461736276L248.41185903549194,42.28133814509001L248.7328045898014,65.6577183888282L248.89327736695608,87.93175290729822L249.2142229212655,67.48087495493014L249.53516847557492,33.648347721752124L249.69564125272964,22.44042310613063L249.85611402988434,33.19235677593951L250.01658680703903,55.319232639111796L250.33753236134848,24.27869759062749L250.49800513850317,27.338392343350638L250.6584779156579,49.06718794347589L250.8189506928126,40.41363896982857L251.13989624712204,47.97772957626074L251.30036902427673,41.82076756574132L251.46084180143143,23.641715133627887L251.62131457858615,19.72630354190108L251.94226013289557,11.055882298301338L252.1027329100503,20.311238975225404L252.263205687205,17.201928683025585L252.4236784643597,43.695950448681344L252.74462401866913,29.50891452369266L252.90509679582382,34.946328990753116L253.22604235013327,34.95991052905079L253.5469879044427,31.756063188541336L253.70746068159738,67.94146110074745L253.8679334587521,75.4834659656275L254.02840623590683,40.9851696118921L254.34935179021622,33.9390928183561L254.50982456737094,79.79123589237491L254.67029734452566,41.485832952818214L254.83077012168036,33.636724219991336L255.15171567598978,54.160771386981985L255.31218845314447,15.212695197575357L255.47266123029922,16.69519101163793L255.63313400745392,8.507357069642755L255.95407956176334,-7.428221050173248L256.1145523389181,8.77954067202926L256.27502511607275,23.70493428583615L256.4354978932275,21.401474349671663L256.75644344753687,15.258737396348192" fill="none"></path></g></g></g></g></g></g><g transform="translate(41, 177)" clip-path="url(#clip_1)"><clipPath id="clip_1"><rect width="288" height="22"></rect></clipPath><g><g><line x1="0" y1="0" x2="0" y2="5" style="visibility: inherit;" fill="rgb(0, 0, 0)" stroke="rgb(204, 204, 204)" stroke-width="1px"></line><line x1="32.09455543094211" y1="0" x2="32.09455543094211" y2="5" style="visibility: inherit;" fill="rgb(0, 0, 0)" stroke="rgb(204, 204, 204)" stroke-width="1px"></line><line x1="64.18911086188422" y1="0" x2="64.18911086188422" y2="5" style="visibility: inherit;" fill="rgb(0, 0, 0)" stroke="rgb(204, 204, 204)" stroke-width="1px"></line><line x1="96.28366629282633" y1="0" x2="96.28366629282633" y2="5" style="visibility: inherit;" fill="rgb(0, 0, 0)" stroke="rgb(204, 204, 204)" stroke-width="1px"></line><line x1="128.37822172376843" y1="0" x2="128.37822172376843" y2="5" style="visibility: inherit;" fill="rgb(0, 0, 0)" stroke="rgb(204, 204, 204)" stroke-width="1px"></line><line x1="160.47277715471057" y1="0" x2="160.47277715471057" y2="5" style="visibility: inherit;" fill="rgb(0, 0, 0)" stroke="rgb(204, 204, 204)" stroke-width="1px"></line><line x1="192.56733258565265" y1="0" x2="192.56733258565265" y2="5" style="visibility: inherit;" fill="rgb(0, 0, 0)" stroke="rgb(204, 204, 204)" stroke-width="1px"></line><line x1="224.6618880165948" y1="0" x2="224.6618880165948" y2="5" style="visibility: inherit;" fill="rgb(0, 0, 0)" stroke="rgb(204, 204, 204)" stroke-width="1px"></line><line x1="256.75644344753687" y1="0" x2="256.75644344753687" y2="5" style="visibility: inherit;" fill="rgb(0, 0, 0)" stroke="rgb(204, 204, 204)" stroke-width="1px"></line><line x1="288.850998878479" y1="0" x2="288.850998878479" y2="5" style="visibility: inherit;" fill="rgb(0, 0, 0)" stroke="rgb(204, 204, 204)" stroke-width="1px"></line></g><g transform="translate(0, 8)"><text style="text-anchor: middle; visibility: hidden; font-family: Roboto, sans-serif; font-size: 12px; font-weight: 200;" x="0" y="0" dx="0em" dy="0.95em" fill="rgb(50, 49, 63)" stroke="none" stroke-width="1px">-200</text><text style="text-anchor: middle; visibility: hidden; font-family: Roboto, sans-serif; font-size: 12px; font-weight: 200;" x="32.09455543094211" y="0" dx="0em" dy="0.95em" fill="rgb(50, 49, 63)" stroke="none" stroke-width="1px">0</text><text style="text-anchor: middle; visibility: hidden; font-family: Roboto, sans-serif; font-size: 12px; font-weight: 200;" x="64.18911086188422" y="0" dx="0em" dy="0.95em" fill="rgb(50, 49, 63)" stroke="none" stroke-width="1px">200</text><text style="text-anchor: middle; visibility: hidden; font-family: Roboto, sans-serif; font-size: 12px; font-weight: 200;" x="96.28366629282633" y="0" dx="0em" dy="0.95em" fill="rgb(50, 49, 63)" stroke="none" stroke-width="1px">400</text><text style="text-anchor: middle; visibility: hidden; font-family: Roboto, sans-serif; font-size: 12px; font-weight: 200;" x="128.37822172376843" y="0" dx="0em" dy="0.95em" fill="rgb(50, 49, 63)" stroke="none" stroke-width="1px">600</text><text style="text-anchor: middle; visibility: hidden; font-family: Roboto, sans-serif; font-size: 12px; font-weight: 200;" x="160.47277715471057" y="0" dx="0em" dy="0.95em" fill="rgb(50, 49, 63)" stroke="none" stroke-width="1px">800</text><text style="text-anchor: middle; visibility: hidden; font-family: Roboto, sans-serif; font-size: 12px; font-weight: 200;" x="192.56733258565265" y="0" dx="0em" dy="0.95em" fill="rgb(50, 49, 63)" stroke="none" stroke-width="1px">1k</text><text style="text-anchor: middle; visibility: hidden; font-family: Roboto, sans-serif; font-size: 12px; font-weight: 200;" x="224.6618880165948" y="0" dx="0em" dy="0.95em" fill="rgb(50, 49, 63)" stroke="none" stroke-width="1px">1.2k</text><text style="text-anchor: middle; visibility: hidden; font-family: Roboto, sans-serif; font-size: 12px; font-weight: 200;" x="256.75644344753687" y="0" dx="0em" dy="0.95em" fill="rgb(50, 49, 63)" stroke="none" stroke-width="1px">1.4k</text><text style="text-anchor: middle; visibility: hidden; font-family: Roboto, sans-serif; font-size: 12px; font-weight: 200;" x="288.850998878479" y="0" dx="0em" dy="0.95em" fill="rgb(50, 49, 63)" stroke="none" stroke-width="1px">1.6k</text></g><line x1="0" y1="0" x2="288.850998878479" y2="0" fill="rgb(0, 0, 0)" stroke="rgb(204, 204, 204)" stroke-width="1px"></line></g></g></g></g></svg>