<svg viewBox="0 0 330 200" xmlns="http://www.w3.org/2000/svg"><g><g><g><g><g><line x1="51.53200149536133" y1="177.86299896240234" x2="46.53200149536133" y2="177.86299896240234" style="visibility: inherit;" fill="rgb(0, 0, 0)" stroke="rgb(204, 204, 204)" stroke-width="1px"></line><line x1="51.53200149536133" y1="160.07669906616212" x2="46.53200149536133" y2="160.07669906616212" style="visibility: inherit;" fill="rgb(0, 0, 0)" stroke="rgb(204, 204, 204)" stroke-width="1px"></line><line x1="51.53200149536133" y1="142.29039916992187" x2="46.53200149536133" y2="142.29039916992187" style="visibility: inherit;" fill="rgb(0, 0, 0)" stroke="rgb(204, 204, 204)" stroke-width="1px"></line><line x1="51.53200149536133" y1="124.50409927368163" x2="46.53200149536133" y2="124.50409927368163" style="visibility: inherit;" fill="rgb(0, 0, 0)" stroke="rgb(204, 204, 204)" stroke-width="1px"></line><line x1="51.53200149536133" y1="106.71779937744141" x2="46.53200149536133" y2="106.71779937744141" style="visibility: inherit;" fill="rgb(0, 0, 0)" stroke="rgb(204, 204, 204)" stroke-width="1px"></line><line x1="51.53200149536133" y1="88.93149948120117" x2="46.53200149536133" y2="88.93149948120117" style="visibility: inherit;" fill="rgb(0, 0, 0)" stroke="rgb(204, 204, 204)" stroke-width="1px"></line><line x1="51.53200149536133" y1="71.14519958496093" x2="46.53200149536133" y2="71.14519958496093" style="visibility: inherit;" fill="rgb(0, 0, 0)" stroke="rgb(204, 204, 204)" stroke-width="1px"></line><line x1="51.53200149536133" y1="53.35889968872071" x2="46.53200149536133" y2="53.35889968872071" style="visibility: inherit;" fill="rgb(0, 0, 0)" stroke="rgb(204, 204, 204)" stroke-width="1px"></line><line x1="51.53200149536133" y1="35.57259979248046" x2="46.53200149536133" y2="35.57259979248046" style="visibility: inherit;" fill="rgb(0, 0, 0)" stroke="rgb(204, 204, 204)" stroke-width="1px"></line><line x1="51.53200149536133" y1="17.78629989624023" x2="46.53200149536133" y2="17.78629989624023" style="visibility: inherit;" fill="rgb(0, 0, 0)" stroke="rgb(204, 204, 204)" stroke-width="1px"></line><line x1="51.53200149536133" y1="0" x2="46.53200149536133" y2="0" style="visibility: inherit;" fill="rgb(0, 0, 0)" stroke="rgb(204, 204, 204)" stroke-width="1px"></line></g><g transform="translate(41.53200149536133, 0)"><text style="text-anchor: end; visibility: hidden; font-family: Roboto, sans-serif; font-size: 12px; font-weight: 200;" x="0" y="177.86299896240234" dx="0em" dy="0.3em" fill="rgb(50, 49, 63)" stroke="none" stroke-width="1px">0</text><text style="text-anchor: end; visibility: inherit; font-family: Roboto, sans-serif; font-size: 12px; font-weight: 200;" x="0" y="160.07669906616212" dx="0em" dy="0.3em" fill="rgb(50, 49, 63)" stroke="none" stroke-width="1px">0.05</text><text style="text-anchor: end; visibility: hidden; font-family: Roboto, sans-serif; font-size: 12px; font-weight: 200;" x="0" y="142.29039916992187" dx="0em" dy="0.3em" fill="rgb(50, 49, 63)" stroke="none" stroke-width="1px">0.1</text><text style="text-anchor: end; visibility: inherit; font-family: Roboto, sans-serif; font-size: 12px; font-weight: 200;" x="0" y="124.50409927368163" dx="0em" dy="0.3em" fill="rgb(50, 49, 63)" stroke="none" stroke-width="1px">0.15</text><text style="text-anchor: end; visibility: hidden; font-family: Roboto, sans-serif; font-size: 12px; font-weight: 200;" x="0" y="106.71779937744141" dx="0em" dy="0.3em" fill="rgb(50, 49, 63)" stroke="none" stroke-width="1px">0.2</text><text style="text-anchor: end; visibility: inherit; font-family: Roboto, sans-serif; font-size: 12px; font-weight: 200;" x="0" y="88.93149948120117" dx="0em" dy="0.3em" fill="rgb(50, 49, 63)" stroke="none" stroke-width="1px">0.25</text><text style="text-anchor: end; visibility: hidden; font-family: Roboto, sans-serif; font-size: 12px; font-weight: 200;" x="0" y="71.14519958496093" dx="0em" dy="0.3em" fill="rgb(50, 49, 63)" stroke="none" stroke-width="1px">0.3</text><text style="text-anchor: end; visibility: inherit; font-family: Roboto, sans-serif; font-size: 12px; font-weight: 200;" x="0" y="53.35889968872071" dx="0em" dy="0.3em" fill="rgb(50, 49, 63)" stroke="none" stroke-width="1px">0.35</text><text style="text-anchor: end; visibility: hidden; font-family: Roboto, sans-serif; font-size: 12px; font-weight: 200;" x="0" y="35.57259979248046" dx="0em" dy="0.3em" fill="rgb(50, 49, 63)" stroke="none" stroke-width="1px">0.4</text><text style="text-anchor: end; visibility: inherit; font-family: Roboto, sans-serif; font-size: 12px; font-weight: 200;" x="0" y="17.78629989624023" dx="0em" dy="0.3em" fill="rgb(50, 49, 63)" stroke="none" stroke-width="1px">0.45</text><text style="text-anchor: end; visibility: hidden; font-family: Roboto, sans-serif; font-size: 12px; font-weight: 200;" x="0" y="0" dx="0em" dy="0.3em" fill="rgb(50, 49, 63)" stroke="none" stroke-width="1px">0.5</text></g><line x1="51.53200149536133" y1="0" x2="51.53200149536133" y2="177.86299896240234" fill="rgb(0, 0, 0)" stroke="rgb(204, 204, 204)" stroke-width="1px"></line></g></g><g transform="translate(51, 0)" clip-path="url(#clip_0)"><clipPath id="clip_0"><rect width="278" height="177"></rect></clipPath><g><g><g><line x1="0" y1="0" x2="0" y2="177.86299896240234" fill="rgb(0, 0, 0)" stroke="rgb(60, 60, 60)" stroke-width="1px" opacity="0.25"></line><line x1="30.94088872273763" y1="0" x2="30.94088872273763" y2="177.86299896240234" fill="rgb(0, 0, 0)" stroke="rgb(60, 60, 60)" stroke-width="1px" opacity="0.25"></line><line x1="61.88177744547526" y1="0" x2="61.88177744547526" y2="177.86299896240234" fill="rgb(0, 0, 0)" stroke="rgb(60, 60, 60)" stroke-width="1px" opacity="0.25"></line><line x1="92.82266616821289" y1="0" x2="92.82266616821289" y2="177.86299896240234" fill="rgb(0, 0, 0)" stroke="rgb(60, 60, 60)" stroke-width="1px" opacity="0.25"></line><line x1="123.76355489095052" y1="0" x2="123.76355489095052" y2="177.86299896240234" fill="rgb(0, 0, 0)" stroke="rgb(60, 60, 60)" stroke-width="1px" opacity="0.25"></line><line x1="154.70444361368817" y1="0" x2="154.70444361368817" y2="177.86299896240234" fill="rgb(0, 0, 0)" stroke="rgb(60, 60, 60)" stroke-width="1px" opacity="0.25"></line><line x1="185.64533233642578" y1="0" x2="185.64533233642578" y2="177.86299896240234" fill="rgb(0, 0, 0)" stroke="rgb(60, 60, 60)" stroke-width="1px" opacity="0.25"></line><line x1="216.58622105916342" y1="0" x2="216.58622105916342" y2="177.86299896240234" fill="rgb(0, 0, 0)" stroke="rgb(60, 60, 60)" stroke-width="1px" opacity="0.25"></line><line x1="247.52710978190103" y1="0" x2="247.52710978190103" y2="177.86299896240234" fill="rgb(0, 0, 0)" stroke="rgb(60, 60, 60)" stroke-width="1px" opacity="0.25"></line><line x1="278.4679985046387" y1="0" x2="278.4679985046387" y2="177.86299896240234" fill="rgb(0, 0, 0)" stroke="rgb(60, 60, 60)" stroke-width="1px" opacity="0.25"></line></g><g><line x1="0" y1="177.86299896240234" x2="278.4679985046387" y2="177.86299896240234" fill="rgb(0, 0, 0)" stroke="rgb(60, 60, 60)" stroke-width="1px" opacity="0.25"></line><line x1="0" y1="160.07669906616212" x2="278.4679985046387" y2="160.07669906616212" fill="rgb(0, 0, 0)" stroke="rgb(60, 60, 60)" stroke-width="1px" opacity="0.25"></line><line x1="0" y1="142.29039916992187" x2="278.4679985046387" y2="142.29039916992187" fill="rgb(0, 0, 0)" stroke="rgb(60, 60, 60)" stroke-width="1px" opacity="0.25"></line><line x1="0" y1="124.50409927368163" x2="278.4679985046387" y2="124.50409927368163" fill="rgb(0, 0, 0)" stroke="rgb(60, 60, 60)" stroke-width="1px" opacity="0.25"></line><line x1="0" y1="106.71779937744141" x2="278.4679985046387" y2="106.71779937744141" fill="rgb(0, 0, 0)" stroke="rgb(60, 60, 60)" stroke-width="1px" opacity="0.25"></line><line x1="0" y1="88.93149948120117" x2="278.4679985046387" y2="88.93149948120117" fill="rgb(0, 0, 0)" stroke="rgb(60, 60, 60)" stroke-width="1px" opacity="0.25"></line><line x1="0" y1="71.14519958496093" x2="278.4679985046387" y2="71.14519958496093" fill="rgb(0, 0, 0)" stroke="rgb(60, 60, 60)" stroke-width="1px" opacity="0.25"></line><line x1="0" y1="53.35889968872071" x2="278.4679985046387" y2="53.35889968872071" fill="rgb(0, 0, 0)" stroke="rgb(60, 60, 60)" stroke-width="1px" opacity="0.25"></line><line x1="0" y1="35.57259979248046" x2="278.4679985046387" y2="35.57259979248046" fill="rgb(0, 0, 0)" stroke="rgb(60, 60, 60)" stroke-width="1px" opacity="0.25"></line><line x1="0" y1="17.78629989624023" x2="278.4679985046387" y2="17.78629989624023" fill="rgb(0, 0, 0)" stroke="rgb(60, 60, 60)" stroke-width="1px" opacity="0.25"></line><line x1="0" y1="0" x2="278.4679985046387" y2="0" fill="rgb(0, 0, 0)" stroke="rgb(60, 60, 60)" stroke-width="1px" opacity="0.25"></line></g></g></g><g><g><line x1="0" y1="177.86299896240234" x2="278.4679985046387" y2="177.86299896240234" fill="rgb(0, 0, 0)" stroke="rgb(153, 153, 153)" stroke-width="1.5px"></line></g></g><g><g><line x1="30.94088872273763" y1="0" x2="30.94088872273763" y2="177.86299896240234" fill="rgb(0, 0, 0)" stroke="rgb(153, 153, 153)" stroke-width="1.5px"></line></g></g><g><g><g><g><g><path style="fill: none;" stroke="rgb(255, 112, 67)" stroke-width="2px" d="M31.71441094080607,-2.324693099816558L31.86911538441976,16.15016703888789L32.023819828033446,35.822467402695466L32.178524271647134,61.2827279106775L32.48793315887451,82.24088074445591L32.6426376024882,96.21142299098094L32.79734204610189,98.84432531838974L32.95204648971558,101.62523222496324L33.261455376942955,91.52981756217258L33.416159820556636,100.30829196892752L33.570864264170325,116.0473930182835L34.03497759501139,41.508465946206215L34.18968203862508,79.14636298357227L34.34438648223877,107.0781245122687L34.49909092585246,121.47522777613182L34.808499813079834,120.76732822457006L34.96320425669352,126.0880392339846L35.11790870030721,124.9136325836296L35.2726131439209,126.38028529786895L35.58202203114827,73.10284360088113L35.73672647476196,65.68668002281979L35.89143091837565,13.208883340967368L36.35554424921672,-29.109831944406352L36.51024869283041,8.51010190699458L36.66495313644409,61.36352854047763L36.81965758005778,45.90667218839898L37.129066467285156,86.87486306544064L37.283770910898845,76.73507053499101L37.43847535451253,46.34161938928208L37.59317979812622,79.44812080787264L37.90258868535359,97.86425896343499L38.05729312896728,100.30594919373355L38.36670201619466,97.91660281345911L38.67611090342204,110.91974229134965L38.83081534703573,116.60235992617629L38.98551979064942,41.36087934795756L39.1402242342631,-20.632121872628638L39.44963312149048,46.06173164382508L39.60433756510417,-56.96100743156232L39.759042008717856,7.360655009268421L39.913746452331544,49.8784616902971L40.3778597831726,72.42420332413369L40.53256422678629,97.64159296708507L40.68726867039998,110.18876878037598L40.996677557627365,90.96042246412722L41.15138200124105,114.73508919284187L41.30608644485474,122.51714467323175L41.46079088846842,-14.263210866752313L41.7701997756958,51.81872680917365L41.92490421930949,88.21162950480733L42.07960866292318,90.89929873481309L42.23431310653687,98.38838756752045L42.543721993764244,98.63381005228494L42.698426437377925,62.515458975210244L42.853130880991614,76.07192392365639L43.0078353246053,99.20743614438783L43.31724421183268,114.02607376010064L43.471948655446376,128.78005077736648L43.626653099060064,134.66336641245198L43.78135754267375,125.30491385771522L44.09076642990112,130.34653468756318L44.24547087351481,117.01394920859198L44.55487976074219,130.08327055304085L44.864288647969566,-81.10395165537841L45.328401978810625,-3.985635323295572L45.637810866038,55.55049292452661L45.79251530965169,91.5511780602989L45.94721975326539,109.01690172552914L46.101924196879075,121.57651323124222L46.411333084106445,122.5802557475435L46.72074197133382,134.00402089306505L46.87544641494751,78.68860581480354L47.18485530217489,107.27352859355187L47.33955974578858,110.17757124918782L47.64896863301595,114.03640252138167L47.958377520243324,97.12031837730947L48.11308196385701,-74.07466545223423L48.73189973831177,-12.623028136373714L48.886604181925456,31.133162065304333L49.041308625539145,-57.86142896720734L49.19601306915283,16.991589917530924L49.50542195638021,23.448798558468134L49.6601263999939,11.730995481681822L49.81483084360758,27.08250796199802L49.96953528722127,0.5885094260267123L50.433648618062335,1.6764987380008107L50.74305750528971,3.8169402017339964L51.05246639251708,-4.529060201980872L51.20717083613078,26.80970181204713L51.36187527974447,60.340330359080944L51.516579723358156,61.886589145981084L51.82598861058553,63.55835918269124L51.98069305419922,98.32843424895651L52.13539749781291,74.91360623515388L52.29010194142659,74.52452637744811L52.59951082865397,87.42941803428336L52.75421527226766,73.65302432410859L52.908919715881346,52.66102484407345L53.37303304672242,45.25460416516557L53.527737490336094,62.14673031661045L53.68244193394979,95.30139689898293L54.146555264790855,-36.26649353945502L54.301259708404544,19.826571054362017L54.45596415201823,36.43492360227835L54.61066859563192,16.97205231505902L54.92007748285929,51.04837940993483L55.07478192647298,63.07919188961148L55.22948637008667,62.10869118215798L55.38419081370036,92.33988875018882L55.693599700927734,60.2158557687387L55.848304144541416,92.75847722187243L56.003008588155105,56.8993628333139L56.1577130317688,15.100004618310532L56.46712191899618,18.398537052669816L56.621826362609866,49.02535238018976L56.776530806223555,83.85798539374187L56.93123524983724,-70.92785765248637L57.24064413706461,2.9090221864293895L57.3953485806783,60.96316370497269L57.55005302429199,-7.465048295710621L57.70475746790568,-4.522825732580109L58.01416635513306,32.902894054674L58.168870798746745,-165.61941288802052L58.478279685974115,-50.24460219441132L58.7876885732015,9.330761490737537L58.94239301681519,56.50826222014735L59.09709746042888,-5.314952096402373L59.251801904042566,42.51255261133037L59.561210791269936,65.7388882118121L59.715915234883624,-6.2145298856299345L59.87061967849731,-96.00301916767543L60.025324122111,7.285445385440936L60.33473300933838,55.48687871687443L60.48943745295207,84.48419221095789L60.64414189656575,78.88284876494315L61.10825522740682,93.66444566425962L61.26295967102051,100.43076306183318L61.4176641146342,116.04209503248345L61.57236855824789,70.77116468454285L61.88177744547526,88.90781338603269L62.191186332702635,90.19326693288166L62.345890776316324,31.826990839663637L62.6552996635437,-2.3264403961578535L62.81000410715739,60.944316403519814L62.96470855077108,83.0033801503423L63.11941299438476,102.9575917594042L63.42882188161214,111.01730610275665L63.58352632522583,115.46934486287016L63.73823076883952,132.38185717585097L63.89293521245321,97.37916436637725L64.51175298690795,99.64500739572308L64.66645743052165,92.00296120750376L64.97586631774902,116.3650520892208L65.13057076136272,124.67558659786492L65.2852752049764,101.81940935170066L65.43997964859008,103.30393610694969L65.74938853581746,122.58737258054597L65.90409297943116,76.95709966965627L66.05879742304484,88.41010462348812L66.21350186665853,109.97165222947793L66.52291075388591,110.89277902631999L66.67761519749959,77.57163552234053L66.83231964111327,71.34336886465893L67.29643297195435,94.58291588862362L67.60584185918172,109.48214316992048L67.76054630279542,103.58155318254086L68.22465963363648,94.22071305232174L68.37936407725016,104.44442838227732L68.53406852086385,58.03777933415419L68.99818185170491,63.731651312628586L69.1528862953186,87.64199775781438L69.61699962615967,102.34746581065858L69.77170406977335,109.98176948237436L69.92640851338705,120.26550509485L70.08111295700073,113.10644489648438L70.5452262878418,117.9651030834846L70.69993073145548,138.55544528519505L70.85463517506916,123.86447421506945L71.16404406229654,129.96484940086177L71.31874850591024,125.99301074076588L71.47345294952392,130.6563126930444L71.62815739313761,125.36971945727882L71.937566280365,56.799647673865415L72.09227072397869,82.25316181212223L72.24697516759235,111.36808966322182L72.71108849843344,114.11804382847679L72.86579294204712,43.56148965274375L73.02049738566082,52.01845224728586L73.1752018292745,49.198815963514114L73.48461071650188,42.75646020839881L73.79401960372925,74.34123147912297L73.94872404734294,76.45218039646983L74.25813293457031,-4.860439191603883L74.41283737818401,58.120580947690826L74.56754182179769,96.31119300650519L74.72224626541137,120.51267512507519L75.03165515263875,-1.047481750403832L75.18635959625244,29.567677394524708L75.34106403986613,83.75831935859311L75.49576848347982,77.79349479629879L75.80517737070718,110.05819015362428L75.95988181432088,123.72269345664834L76.11458625793456,126.67614668786963L76.26929070154826,123.75169512985916L76.57869958877563,99.5887884401793L76.73340403238932,108.19285531527899L76.888108476003,126.53340533211211L77.04281291961671,132.4784542377944L77.35222180684408,143.13437620427592L77.50692625045777,134.4296850195761L77.81633513768514,143.63783805322268L78.12574402491252,135.3467486335352L78.2804484685262,141.36029184543668L78.4351529121399,140.64207078582675L78.58985735575358,149.28538755352415L78.89926624298096,149.11358269478788L79.05397068659465,141.25422717210816L79.20867513020833,147.5551653894621L79.6727884610494,138.29079291942708L79.82749290466309,114.66465943066379L79.98219734827677,131.07134640027306L80.13690179189047,142.8034013726489L80.44631067911783,132.98541574640566L80.60101512273152,121.07742600609922L80.7557195663452,114.880173772303L80.9104240099589,112.05061074626116L81.21983289718628,113.63391481527736L81.37453734079996,127.53719893008872L81.52924178441366,77.7071979932709L81.68394622802734,35.37677097391818L81.99335511525473,77.95853900893277L82.1480595588684,110.15460554139192L82.3027640024821,112.36950125799123L82.45746844609579,89.48635588456503L82.76687733332317,91.06363389420724L82.92158177693685,40.38849386245503L83.07628622055054,87.81363409879364L83.23099066416422,113.2521488800331L83.5403995513916,118.06594480278541L83.6951039950053,119.00806765805754L83.84980843861898,122.83201417342254L84.00451288223267,137.58035918956384L84.31392176946004,144.61072375194368L84.46862621307373,137.73559291570814L84.62333065668741,122.35207677131488L84.77803510030111,131.17654436930368L85.24214843114217,139.58661262573926L85.39685287475585,147.49235047327846L85.55155731836955,154.19436537130042L85.86096620559692,119.27136912342112L86.0156706492106,123.72874725203395L86.1703750928243,136.3542003917331L86.32507953643798,116.00728632326647L86.63448842366536,128.8396951686161L86.78919286727904,112.30253437315135L86.94389731089275,86.89719442631076L87.09860175450642,113.33429752729462L87.40801064173381,123.65577371256751L87.5627150853475,127.70665015676735L87.71741952896119,139.605288780769L87.87212397257487,145.02119282884547L88.18153285980225,141.52139894517552L88.33623730341594,144.67051580154666L88.49094174702962,121.47311508697499L88.64564619064332,117.04137919764464L88.95505507787068,133.1724496046899L89.10975952148438,91.88630522683864L89.26446396509806,118.19594496127826L89.41916840871176,119.67844346199684L89.72857729593913,115.55240838629804L89.88328173955281,91.275570032605L90.0379861831665,115.70942051914929L90.19269062678019,104.48556545620788L90.50209951400757,111.21508864304984L90.65680395762125,119.2681546270843L90.96621284484863,137.00389838397425L91.43032617568969,144.42588345923315L91.58503061930338,132.8469474515994L91.73973506291706,142.12086045417232L92.04914395014444,140.26854443606575L92.20384839375815,132.5716460679768L92.35855283737183,101.99634321313019L92.51325728098551,127.12196413800065L92.82266616821289,137.8960186951445L92.97737061182659,137.58850114072922L93.13207505544027,82.67428810395572L93.28677949905396,113.75082791902932L93.59618838628134,111.95588639507594L93.75089282989502,109.20850229843248L93.9055972735087,124.8843409892623L94.0603017171224,140.34226380177518L94.36971060434978,121.66909543058435L94.52441504796346,133.60005853148365L94.67911949157715,148.0557281897557L94.83382393519084,124.7157732277499L95.14323282241821,119.50386314896139L95.2979372660319,135.051143781006L95.45264170964559,116.435782979309L95.60734615325927,135.82013628291884L95.91675504048665,137.38509741738787L96.07145948410033,123.59497896191449L96.22616392771403,133.279298118765L96.69027725855508,113.80154756192647L96.99968614578246,131.56817213279965L97.15439058939617,131.71940903063424L97.46379947662354,139.81368376897902L98.23732169469199,140.61116869439854L98.39202613830567,128.21091699041418L98.54673058191935,141.54656651478345L98.70143502553304,126.85231593044195L99.01084391276042,134.03426479874068L99.3202527999878,143.1160750453769L99.47495724360148,139.13701382307156L99.78436613082886,123.99602814203392L99.93907057444254,136.09635295594595L100.09377501805623,89.66113870487068L100.24847946166992,88.15405451800129L100.5578883488973,100.01536652899405L100.71259279251099,107.78570411424816L100.86729723612467,96.0237884765831L101.02200167973835,107.51762236291007L101.33141056696573,118.68474559028687L101.48611501057943,129.07454948064537L101.6408194541931,134.59408629868636L101.79552389780682,124.61064564795944L102.10493278503417,117.98893773761041L102.25963722864788,131.10121037012038L102.41434167226156,143.44617886958525L102.56904611587525,46.664129703947914L102.87845500310263,90.61528662269653L103.03315944671631,51.146141282867326L103.18786389033001,87.20177322063454L103.34256833394369,94.3538038464002L103.65197722117107,119.5082137910243L103.80668166478475,134.16309840467528L103.96138610839844,145.5233414862097L104.11609055201212,150.2935087511088L104.4254994392395,119.00615472573396L104.58020388285318,128.84878143734383L104.73490832646688,129.01043507693484L104.88961277008056,135.96822945310396L105.35372610092163,147.79008700350693L105.50843054453532,139.9452719303909L105.663134988149,138.9281428921546L105.97254387537637,136.00834569945127L106.12724831899007,110.32875816686969L106.28195276260375,115.52004061594182L106.43665720621745,135.0341786337243L106.74606609344484,143.79224944025472L106.90077053705852,127.23389655533316L107.05547498067219,138.63838836890972L107.67429275512696,131.32528458061344L107.82899719874065,95.27180009317601L107.98370164235433,119.49359746553544L108.29311052958171,115.69478665098684L108.44781497319539,100.27141459900646L108.60251941680909,94.4232675745176L108.75722386042277,117.72033219618396L109.06663274765015,135.653986091855L109.22133719126384,128.8386933531113L109.37604163487752,140.0294011441554L109.5307460784912,144.1843501053145L109.84015496571858,149.9387136792175L109.99485940933228,121.07562802843842L110.30426829655966,134.25929802037567L110.61367718378702,113.12412744913964L110.76838162740071,125.66739900259229L110.9230860710144,131.17647959007812L111.07779051462809,137.63847793233901L111.38719940185547,130.99573917966813L111.54190384546915,98.2590061335704L111.69660828908283,118.8382918486487L111.85131273269654,132.3665755387907L112.16072161992392,108.34155749560102L112.3154260635376,124.85577869023585L112.62483495076498,121.61132273692532L112.93424383799235,119.65990819163711L113.24365272521973,116.98741765956464L113.39835716883341,128.6179114120578L113.70776605606079,127.09073617717931L113.86247049967449,131.678801753621L114.01717494328817,128.79409907122957L114.17187938690185,136.832451565261L114.48128827412923,137.50061272701458L114.63599271774292,141.0844464499461L114.7906971613566,91.63394767968848L114.9454016049703,110.6766275025448L115.25481049219766,131.8988577420682L115.40951493581136,135.54826946883512L115.56421937942504,96.19509766156177L115.71892382303874,117.61299504348456L116.1830371538798,134.57192465771442L116.33774159749349,141.7251886444283L116.49244604110717,142.27250432803586L116.80185492833456,145.5473079314447L116.95655937194823,112.06204247480973L117.11126381556194,119.42472947632567L117.26596825917562,131.94380739197507L117.575377146403,141.4034008542418L117.73008159001668,143.24614786637602L117.88478603363038,148.65378514390818L118.03949047724406,142.4953350009458L118.34889936447144,136.19727550555254L118.50360380808513,128.56191670287703L118.65830825169881,121.63503915110587L118.81301269531251,91.66932960255467L119.12242158253987,112.74092884978806L119.27712602615357,123.49043144145058L119.43183046976725,135.37101332690713L119.58653491338094,122.00724216230643L119.89594380060832,136.74885825451588L120.050648244222,134.67707429094293L120.20535268783568,144.0446827548669L120.36005713144938,138.21865440286984L120.66946601867676,142.62721522031697L120.82417046229044,148.1128127837842L120.97887490590414,112.03003078046414L121.13357934951782,125.62658055596776L121.4429882367452,134.58682049888205L121.59769268035888,-134.40209655573446L121.75239712397259,-20.22913953748157L122.21651045481364,48.61605366070169L122.37121489842734,61.927531405675005L122.52591934204102,94.53621975494312L122.6806237856547,98.1467196992932L122.99003267288208,106.8682379291253L123.14473711649578,113.87984500976441L123.45414600372315,130.56005664049692L123.76355489095052,119.4317701400366L123.91825933456421,124.32483190006526L124.0729637781779,109.12045201038892L124.22766822179159,124.24776257645003L124.53707710901897,103.35552374630419L124.69178155263265,104.97336818484615L124.84648599624633,117.57512097573971L125.3105993270874,114.75307960932824L125.46530377070108,128.58880576505643L125.62000821431478,126.23458697882292L125.77471265792846,137.1012507691955L126.08412154515584,129.4739366364047L126.23882598876952,-12.586619358762254L126.39353043238322,53.383012951193095L126.5482348759969,93.05983549402843L126.85764376322427,114.63535302835021L127.01234820683798,126.20385394580961L127.16705265045167,116.1968198784718L127.32175709406535,109.37160110523212L127.63116598129272,-113.57531349899304L127.78587042490642,-22.023388396589493L127.9405748685201,18.573701043412143L128.09527931213378,40.03862944977674L128.40468819936117,67.66617983658578L128.55939264297484,-1.3137104496632686L129.17821041742963,54.56336535009113L129.3329148610433,83.63697288041111L129.487619304657,109.18525347856088L129.64232374827068,106.18867121294178L129.95173263549805,109.21079053472964L130.10643707911174,124.98361524175377L130.26114152272544,116.59151865385918L130.4158459663391,121.59121342864577L130.7252548535665,123.62531353861141L130.87995929718016,123.18344545725677L131.03466374079386,138.67780594089635L131.49877707163492,138.43323837446616L131.8081859588623,109.55059357266563L131.962890402476,124.80094553806026L132.27229928970337,104.02369489978767L132.58170817693073,102.96628261830485L132.73641262054443,121.16224440297853L133.2005259513855,90.36420199867649L133.35523039499918,107.1812421748538L133.50993483861288,129.72210922803828L133.81934372584024,141.70723797317697L133.97404816945394,147.38831045295188L134.12875261306763,148.8714079522994L134.2834570566813,110.72380180414491L134.5928659439087,128.38787097184112L134.7475703875224,139.13210694280664L135.36638816197714,144.84073384140157L135.52109260559084,140.69121601449518L135.6757970492045,130.88771542463616L135.8305014928182,118.32854573652997L136.13991038004556,132.76510907462017L136.29461482365926,145.16302945250885L136.44931926727295,151.5726120005795L136.60402371088665,152.3849284250494L136.913432598114,159.5681776431713L137.0681370417277,160.7533047062993L137.37754592895507,163.38479211512026L137.68695481618246,153.19425385337303L137.84165925979613,153.3347779686649L137.99636370340983,159.8445477598446L138.46047703425089,149.18067671836923L138.61518147786458,157.49812001288464L138.76988592147828,149.5762769849454L138.92459036509194,132.57680458980494L139.23399925231934,148.63041532821046L139.388703695933,158.64195557862558L139.69811258316042,60.16085566748034L140.0075214703878,84.78639190225938L140.31693035761518,110.10759847663803L140.47163480122884,122.25687517695314L140.7810436884562,55.286521806573916L141.2451570192973,95.40874750414191L141.55456590652466,101.29734620220394L141.70927035013833,112.54732151140631L141.86397479375205,128.423052696576L142.01867923736572,123.52130467423129L142.4827925682068,109.84391260231239L142.63749701182047,105.19820486423104L142.79220145543417,128.19833499339822L143.10161034266153,110.59847671771324L143.25631478627523,106.84868366101897L143.41101922988892,127.96610845015825L143.5657236735026,121.99298318494984L143.87513256073,110.53406937253177L144.02983700434368,130.6381668286083L144.18454144795737,120.13831427594582L144.64865477879843,128.08010419808897L144.80335922241213,123.93552384896948L144.9580636660258,135.32458781402252L145.1127681096395,121.98627144326582L145.42217699686688,134.33804832948482L145.57688144048055,143.2692881497928L145.73158588409424,107.3933886549467L145.8862903277079,103.67733000862165L146.1956992149353,117.02316288641516L146.350403658549,97.87567470000975L146.65981254577636,114.5426157818244L146.96922143300375,134.44372115170168L147.12392587661742,93.94269657588674L147.27863032023112,97.98719716197462L147.4333347638448,57.70976496230209L147.74274365107217,84.53884498227397L147.89744809468587,104.86346119425964L148.20685698191326,31.37182695151306L148.51626586914062,53.13915569326134L148.6709703127543,78.96115475564297L148.82567475636802,77.82215901143061L148.9803791999817,98.62966351199736L149.28978808720905,98.42722412304859L149.44449253082274,71.73885787422658L149.59919697443647,27.096156260342465L149.75390141805013,17.69129114464522L150.0633103052775,62.4797419529543L150.2180147488912,92.31648686962947L150.3727191925049,92.04603118500192L150.52742363611858,115.41203362962447L150.83683252334595,129.76199145920975L150.99153696695964,126.10697069154L151.61035474141437,134.65014882841365L151.7650591850281,146.52212995354344L151.91976362864176,144.47802232337804L152.07446807225546,152.8542231839998L152.53858140309652,129.64750387538024L152.6932858467102,133.7191139335545L152.84799029032388,148.8790204815039L153.15739917755127,141.73446617412142L153.31210362116497,148.9821558827822L153.46680806477863,155.50835111675195L153.62151250839233,159.5023027977836L153.93092139561972,161.6529478455847L154.08562583923342,144.90618427102171L154.24033028284708,154.4060384411421L154.39503472646075,151.5991866086867L154.70444361368817,152.4472100550923L155.01385250091553,155.91582531089594L155.1685569445292,144.6066905024514L155.4779658317566,142.43857518623616L155.6326702753703,124.76521798228143L155.78737471898395,84.2563844425293L156.25148804982504,103.24315056674158L156.4061924934387,120.18662918184083L156.5608969370524,6.243608426673915L156.7156013806661,-1.6794251454796534L157.02501026789346,58.254532389217665L157.17971471150716,94.47307156489492L157.33441915512083,112.85237783287955L157.7985324859619,109.18086011061419L157.95323692957558,111.80429846383477L158.1079413731893,131.4999961808445L158.26264581680297,138.25395673104924L158.57205470403034,123.76810016923663L158.72675914764403,128.1382411965374L158.88146359125776,67.87220336581186L159.03616803487142,26.03669421529274L159.3455769220988,57.86435580580008L159.65498580932618,77.18638646466763L160.27380358378093,97.16828217222962L160.42850802739463,113.86812148728006L160.5832124710083,59.51232260200519L161.04732580184938,87.97388055643033L161.20203024546305,91.45487854113895L161.35673468907675,-41.92969058958041L161.66614357630414,39.358179372566106L161.8208480199178,67.14066187360119L162.13025690714517,99.38591946115343L162.43966579437256,119.80294588107259L162.59437023798625,136.2032297486901L162.74907468159992,144.8043670516174L162.90377912521362,153.02657640905667L163.213188012441,149.87155243617102L163.36789245605468,155.91586346879296L163.52259689966837,149.840777606563L163.67730134328204,155.36137810788705L163.98671023050946,107.70528368114148L164.14141467412313,122.84920164381327L164.4508235613505,140.382538828599L164.76023244857788,147.95341827297338L164.91493689219158,148.74996214637696L165.06964133580524,144.2403357901143L165.22434577941897,135.47019783266953L165.53375466664633,150.84844960786916L165.68845911026,155.70707614177L165.9978679974874,159.2921763970855L166.30727688471475,146.52306227358517L166.46198132832845,155.31254455080565L166.61668577194214,144.80390246095894L166.77139021555584,138.36895108539528L167.0807991027832,147.68881260698228L167.23550354639687,155.7891745714222L167.85432132085162,147.55019754282367L168.00902576446535,152.01736239119654L168.16373020807902,132.47291881055475L168.3184346516927,146.14447090395953L168.62784353892008,155.495909833334L168.7825479825338,130.7588044279678L168.93725242614747,146.36002751997512L169.09195686976113,155.41225250293243L169.4013657569885,153.27341663992445L169.55607020060222,159.26080795709865L169.71077464421592,163.74102604314842L170.48429686228434,159.62942547786207L170.63900130589803,157.3001431305946L170.94841019312543,162.19467856866228L171.1031146367391,161.0947181503725L171.2578190803528,161.38532029825302L171.41252352396646,160.1878954860818L171.72193241119385,151.02275156257386L171.87663685480754,152.11919552665628L172.0313412984212,145.64286499914385L172.1860457420349,126.635795945034L172.4954546292623,123.8789519962181L172.65015907287597,118.54036090822505L172.80486351648966,130.71355874306894L172.95956796010333,131.93181696539662L173.26897684733072,144.3445444266142L173.42368129094442,154.5325339715501L173.57838573455808,156.6922062019L173.7330901781718,136.43049649406586L174.19720350901284,101.5578561579737L174.35190795262653,113.50105664989489L174.50661239624026,133.83242021137127L174.81602128346762,118.03992345006397L174.9707257270813,136.97121843398966L175.125430170695,146.53962230252793L175.28013461430868,152.8678853721456L175.58954350153604,148.3434708662387L175.74424794514974,156.5722519725485L175.89895238876343,153.16157652209122L176.05365683237713,126.76964574014504L176.3630657196045,140.0174324748516L176.51777016321816,147.85555937265354L176.67247460683188,151.48249589781696L176.82717905044555,156.70004678359876L177.1365879376729,149.07414375813062L177.29129238128664,150.96551639788584L177.4459968249003,155.79751994983653L177.600701268514,146.26464017122322L177.91011015574136,156.6463175183131L178.21951904296876,150.05027475124513L178.37422348658242,152.96120201146226L178.68363237380984,153.62246879565885L178.8383368174235,143.00068214027894L178.9930412610372,140.34767866917082L179.14774570465087,56.87442809603472L179.45715459187826,74.37489682473962L179.61185903549196,92.36908571574423L179.76656347910563,80.39789108052325L179.92126792271932,100.74030055720552L180.23067680994671,101.50621656624236L180.38538125356038,120.94336282753419L180.54008569717408,137.31344184374018L181.00419902801514,136.42164388514087L181.15890347162883,146.36346199701507L181.3136079152425,154.44752568670205L181.4683123588562,158.1764581480232L181.7777212460836,163.06104905094205L181.93242568969725,149.22706682694016L182.08713013331095,155.87093775825645L182.24183457692465,162.07564012280218L182.551243464152,143.0243749377358L182.7059479077657,150.02195079479569L182.86065235137937,152.07302941001092L183.0153567949931,151.8058057138726L183.32476568222046,158.84268852126763L183.47947012583413,159.5438941505145L183.63417456944785,160.9464495636402L183.78887901306155,141.90667734537897L184.25299234390258,99.58677940844768L184.4076967875163,109.35749890919273L184.87181011835733,113.37745819858708L185.02651456197103,134.10782788057114L185.18121900558472,145.77806449208725L185.33592344919842,149.09810706898955L185.64533233642578,106.0525082707207L185.80003678003948,131.40739754989832L185.95474122365317,-9.760586843421727L186.10944566726684,24.076686079874914L186.4188545544942,-67.59833783015691L186.57355899810793,22.57958615305861L186.7282634417216,73.38573101194241L186.8829678853353,66.6881174772784L187.19237677256268,96.78729795176487L187.34708121617635,109.24149370939678L187.50178565979004,130.9319176387897L187.6564901034037,127.72811122213561L187.9658989906311,83.44961568400211L188.1206034342448,111.70968645591772L188.27530787785847,133.31194742382735L188.73942120869955,132.237742656755L188.89412565231325,144.7618291891246L189.20353453954058,144.63072962838086L189.512943426768,124.28313261048002L189.82235231399537,130.0201145991513L189.97705675760903,146.02441792046133L190.28646564483643,154.53880289066953L190.44117008845012,153.77957669731646L190.5958745320638,149.64069273920651L190.7505789756775,155.17811703717092L191.05998786290488,156.79015842253912L191.21469230651854,159.69922633800275L191.36939675013224,156.06011090024745L191.52410119374593,152.84786739342226L191.8335100809733,152.44738927037122L192.14291896820066,150.32724923445383L192.29762341181439,154.9495064278584L192.60703229904175,136.32844057190943L192.76173674265542,142.22162037299964L192.91644118626914,153.5216939137473L193.0711456298828,156.61987797616774L193.38055451711017,137.23221833523914L193.6899634043376,138.07422585987655L193.84466784795126,148.6290947494342L194.15407673517862,137.55125703612214L194.30878117879234,148.734737461435L194.463485622406,139.82135370613346L194.6181900660197,125.95324315349679L195.08230339686077,138.84791324388553L195.23700784047446,116.83611390741648L195.85582561492922,136.59055683390054L196.01053005854288,133.58938960487208L196.16523450215658,141.69819702877402L196.47464338938397,151.99925385769353L196.62934783299764,159.24869702598068L196.78405227661133,138.68578859646036L196.938756720225,145.9268585819747L197.4028700510661,154.27449187190905L197.71227893829345,148.47116296448226L198.02168782552084,152.02693905892042L198.1763922691345,149.45600539355837L198.3310967127482,149.13351113833855L198.48580115636187,138.0628913473392L198.7952100435893,108.85120088079489L198.94991448720296,131.46439930632874L199.10461893081663,132.1481223109405L199.25932337443032,146.73952110557784L199.56873226165771,105.9784414929614L199.7234367052714,129.3778429462325L200.0328455924988,131.25005889790825L200.34225447972617,135.96774592816135L200.49695892333983,131.55671013368482L200.65166336695353,146.32807047933747L201.1157766977946,156.5048889950736L201.27048114140828,139.93049035328417L201.42518558502198,147.58817755306518L201.57989002863567,145.17930155849908L201.88929891586304,155.24545298301172L202.0440033594767,158.17096152617813L202.81752557754518,163.6260556396961L202.97223002115885,164.41175601235844L203.12693446477255,142.77724166791583L203.4363433519999,125.83652061507199L203.59104779561363,144.64772838073344L203.7457522392273,153.8254100758935L204.36457001368206,159.00570930779256L204.51927445729575,159.80621797194647L204.67397890090942,157.0545183430602L204.9833877881368,153.34876582539195L205.1380922317505,155.23856080648392L205.29279667536417,158.1680597002339L205.44750111897787,164.81537104815203L205.91161444981893,163.72341708298165L206.06631889343262,158.64018412108598L206.2210233370463,158.92062966807177L206.53043222427368,143.5440766939091L206.68513666788738,153.16438124894697L206.99454555511474,157.89548859771153L207.30395444234213,163.0688321636729L207.4586588859558,163.08133039622126L207.6133633295695,150.0525055019691L207.76806777318316,142.76851069369917L208.23218110402425,147.6647670052714L208.38688554763792,154.79569010720127L209.00570332209267,158.30873156143323L209.16040776570637,149.26024054360676L209.3151122093201,143.16334613069455L209.62452109654745,152.5791886455991L209.77922554016112,156.0005830028151L209.93392998377485,148.9933814719801L210.0886344273885,156.93670447296176L210.39804331461588,161.0092601633985L210.55274775822957,152.28566896786302L210.86215664545696,154.91928666255316L211.17156553268433,159.7593937757049L211.326269976298,143.57450788331278L211.48097441991172,152.4049652947145L211.63567886352538,154.06236625244048L211.94508775075275,156.13921227157962L212.09979219436647,138.77374979532757L212.25449663798014,144.84831312610967L212.40920108159384,142.95206720194324L212.7186099688212,153.38014664807432L212.8733144124349,152.69982662024026L213.0280188560486,160.2892160731235L213.18272329966226,158.50942093401986L213.49213218688968,141.8273995354165L213.64683663050334,142.47108903668257L213.80154107411704,152.13240635843735L213.9562455177307,159.60542235388112L214.2656544049581,160.4646216330828L214.4203588485718,162.25769939698222L214.57506329218546,140.37429195061185L214.72976773579916,151.4937155428304L215.03917662302655,152.4305929260442L215.3485855102539,158.9057247078289L215.81269884109497,153.35910889276843L215.96740328470867,155.82861613084722L216.12210772832233,155.55295234993662L216.27681217193603,159.22653706981734L216.58622105916342,12.384508851390164L216.7409255027771,45.97367117710663L217.05033439000448,95.41535063786695L217.35974327723184,126.19508376999535L217.51444772084554,141.03786237156598L217.6691521644592,149.99125571913422L217.82385660807293,156.55959873771272L218.1332654953003,159.58005319770578L218.28796993891396,163.68361855178625L218.44267438252768,156.6049364775824L218.59737882614138,150.90778133180993L218.90678771336871,155.31592237998026L219.0614921569824,153.98132603995919L219.21619660059613,157.5220445675075L219.3709010442098,135.84732826277758L219.68030993143717,149.80155257851646L219.83501437505086,155.93224102856405L219.98971881866456,161.7344914014761L220.14442326227825,160.1646478452318L220.45383214950562,161.3020862733087L220.6085365931193,163.56987005593498L220.763241036733,165.34939079273104L220.91794548034667,142.58836342574514L221.38205881118776,152.1576183098756L221.53676325480143,156.37119964723303L221.69146769841512,139.7997629038177L222.00087658564252,121.93372521124081L222.15558102925618,141.05142734739687L222.31028547286988,147.73362080301277L222.46498991648355,107.50050637897397L222.92910324732463,93.96357431974371L223.0838076909383,113.3339164063334L223.238512134552,121.08878506275836L223.5479210217794,119.64796746485034L223.70262546539308,118.09448372346031L223.85732990900675,138.806212487555L224.01203435262042,135.20939448306797L224.32144323984784,139.31149706943359L224.4761476834615,138.5293232987623L224.6308521270752,133.93824101903004L224.78555657068887,128.82964115891525L225.09496545791626,126.49357763167755L225.24966990152996,118.28390397411782L225.40437434514362,131.4337156633069L225.55907878875735,136.87291597438153L225.8684876759847,142.10127911463047L226.02319211959838,144.2353977401577L226.17789656321207,154.9040864134604L226.33260100682577,146.27011963306848L226.64200989405313,150.81177215224085L226.79671433766683,154.80339122389083L226.9514187812805,150.03287978974L227.10612322489422,146.69036067643L227.41553211212158,149.92339889591221L227.57023655573525,114.00932229405427L227.72494099934897,111.87896156774198L227.87964544296264,134.13424909778263L228.18905433019,145.18534884223487L228.3437587738037,154.3254126425298L228.49846321741742,124.27781517503509L228.6531676610311,142.82961757559667L228.96257654825845,149.4067354838262L229.11728099187218,145.08965302607277L229.27198543548585,153.06529546188932L229.42668987909954,152.03142243475685L229.7360987663269,-86.52054094895132L229.8908032099406,-17.205334057076026L230.0455076535543,53.58355277927021L230.20021209716796,88.4087196107345L230.81902987162272,120.24876420318903L230.9737343152364,108.80806279240083L231.2831432024638,127.39100909039264L231.43784764607747,134.9542072430965L231.59255208969117,148.41869294765306L231.74725653330484,157.1101726620663L232.05666542053223,160.56557684543938L232.21136986414592,159.7797543088533L232.3660743077596,144.14375676179088L232.52077875137329,155.2770213133634L232.83018763860068,156.32249176685457L232.98489208221434,127.56380409853699L233.13959652582804,109.58094962914686L233.2943009694417,123.53991481321889L233.60370985666913,107.13101635234835L233.7584143002828,133.45986067599034L233.91311874389646,146.06545541513253L234.06782318751016,142.92784660510813L234.37723207473755,151.54370553257365L234.53193651835124,135.3155704519336L234.6866409619649,129.18909535426502L234.84134540557864,142.07617369722774L235.150754292806,124.66761388227945L235.30545873641967,141.14883003057253L235.46016318003336,136.52190538534546L235.61486762364706,141.00798028697423L235.92427651087442,149.78660929892L236.07898095448812,154.70879131603084L236.2336853981018,152.6130710345428L236.3883898417155,157.39563408159626L236.69779872894287,144.46631675169795L236.85250317255654,155.00681283373336L237.00720761617026,153.91012815821813L237.16191205978393,153.4788465559907L237.4713209470113,158.01851028439327L237.62602539062502,156.67309731776527L237.78072983423868,161.6887358463212L237.93543427785238,165.1171973620838L238.24484316507974,163.34800137455352L238.55425205230713,161.2809967068144L239.01836538314816,144.20326143834183L239.1730698267619,153.58457044126058L239.32777427037558,160.1863141908032L239.48247871398925,157.11052602603124L239.79188760121664,159.7019171630695L239.94659204483034,28.006285149991772L240.2560009320577,52.88864619355587L240.5654098192851,95.77563909873584L240.72011426289876,118.92224720017609L240.87481870651246,140.2806312506325L241.02952315012612,140.30620757305292L241.33893203735352,141.67863153066415L241.4936364809672,143.2895168325094L241.64834092458088,141.82475032296622L241.80304536819457,130.29234880872167L242.11245425542197,142.02078216059303L242.26715869903563,151.62076866069702L242.42186314264933,152.75880031876608L242.576567586263,158.51015098774533L242.8859764734904,117.63656119137309L243.04068091710408,134.45968698175955L243.19538536071775,146.1895433226937L243.35008980433147,108.26901297380354L243.65949869155884,123.00418130663381L243.8142031351725,121.72583805595222L244.12361202239993,85.60230916826048L244.4330209096273,103.10211212687418L244.58772535324096,124.40236468348995L244.74242979685468,99.02692455100565L244.89713424046835,117.58868801373421L245.2065431276957,107.83877332517893L245.3612475713094,61.864523539207894L245.5159520149231,99.84109121106819L245.6706564585368,110.1247841356204L245.98006534576416,81.60115943012241L246.13476978937783,90.24340341833201L246.28947423299155,115.6996441223893L246.44417867660522,136.13407871832044L246.75358756383258,149.73766389466462L246.9082920074463,157.11735456812238L247.06299645105997,82.66166890634113L247.21770089467367,105.23206224550765L247.52710978190103,124.56670853797199" fill="none"></path></g></g></g></g><g opacity="0.2"><g><g><g><path style="fill: none;" stroke="rgb(255, 112, 67)" stroke-width="2px" d="M31.405002053578695,-14.684189468193836L31.71441094080607,19.12802502476461L31.86911538441976,37.87660256200434L32.023819828033446,61.506622757682635L32.178524271647134,96.50343388699957L32.48793315887451,112.21137462720435L32.6426376024882,116.58060770361999L32.79734204610189,102.72734483636964L32.95204648971558,105.7545548832104L33.261455376942955,76.47826023595553L33.416159820556636,113.42823150899585L33.570864264170325,139.60465369659437L34.03497759501139,-70.15389514409435L34.18968203862508,135.5589666045264L34.34438648223877,148.95606716301802L34.49909092585246,143.064790300328L34.808499813079834,119.70565863284696L34.96320425669352,134.06829519133703L35.11790870030721,123.1521299535168L35.2726131439209,128.58018393450743L35.58202203114827,-6.811565827687446L35.73672647476196,54.56258107494068L35.89143091837565,-65.50719003228005L36.35554424921672,-92.58760408915077L36.51024869283041,64.93984225226268L36.66495313644409,140.64353325326942L36.81965758005778,22.72141139019641L37.129066467285156,148.32711164350917L37.283770910898845,61.52538734342579L37.43847535451253,0.751452749517739L37.59317979812622,129.10786634867281L37.90258868535359,125.48846399826152L38.05729312896728,103.96848436428809L38.36670201619466,94.33258334573384L38.67611090342204,130.4244511728857L38.83081534703573,125.12628629049686L38.98551979064942,-71.50134082090517L39.1402242342631,-113.62162335821995L39.44963312149048,146.1025116956232L39.60433756510417,-211.49511583806998L39.759042008717856,103.84314859313076L39.913746452331544,113.65517168114889L40.3778597831726,106.24281576512385L40.53256422678629,135.467677424959L40.68726867039998,129.00953249835607L40.996677557627365,62.11790299155291L41.15138200124105,150.39708928457935L41.30608644485474,134.1902278935545L41.46079088846842,-219.43374417396444L41.7701997756958,150.9416333222614L41.92490421930949,142.80098354799316L42.07960866292318,94.93080257981L42.23431310653687,109.62202081656187L42.543721993764244,99.00194377943126L42.698426437377925,8.337932359632305L42.853130880991614,96.40662134631793L43.0078353246053,133.91070447547713L43.31724421183268,136.25403018366683L43.471948655446376,150.91101630326352L43.626653099060064,143.48833986507975L43.78135754267375,111.26723502561049L44.09076642990112,137.90896593233492L44.24547087351481,97.01507099013543L44.55487976074219,149.68725256971402L44.864288647969566,-397.884784968006L45.01899309158325,-97.20755111372455L45.173697535196936,41.499439785738105L45.328401978810625,43.927100115163284L45.637810866038,144.85468529625985L45.79251530965169,145.55220576395732L45.94721975326539,135.21548722337445L46.101924196879075,140.4159304898119L46.411333084106445,124.08586952199539L46.72074197133382,151.13966861134736L46.87544641494751,-4.284516802588769L47.18485530217489,150.15091276167436L47.33955974578858,114.5336352326417L47.64896863301595,119.82464942967249L47.958377520243324,71.74619216120118L48.11308196385701,-330.8671411965497L48.2677864074707,-139.36754672346524L48.4224908510844,21.130322939628968L48.73189973831177,45.93687205994229L48.886604181925456,96.76744736782143L49.041308625539145,-191.35331551597483L49.19601306915283,129.27111824463827L49.50542195638021,33.13461151987394L49.6601263999939,-5.845709133497621L49.81483084360758,50.10977668247233L49.96953528722127,-39.15248837793024L50.433648618062335,3.3084827059619784L50.74305750528971,7.027602397333794L51.05246639251708,-17.048060807553156L51.20717083613078,73.81784483308911L51.36187527974447,110.63627317963164L51.516579723358156,64.20597732633132L51.82598861058553,66.06601423775646L51.98069305419922,150.48354684835442L52.13539749781291,39.791364214449914L52.29010194142659,73.94090659088943L52.59951082865397,106.7867555195362L52.75421527226766,52.98843375884644L52.908919715881346,21.173025624020738L53.37303304672242,34.14497314680375L53.527737490336094,87.48491954377778L53.68244193394979,145.03339677254166L54.146555264790855,-233.61832919711196L54.301259708404544,103.96616794508759L54.45596415201823,61.347452424152834L54.61066859563192,-12.222254615769998L54.92007748285929,102.16287005224854L55.07478192647298,81.12541060912645L55.22948637008667,60.652940120977746L55.38419081370036,137.68668510223506L55.693599700927734,12.029806296563493L55.848304144541416,141.57240940157305L56.003008588155105,3.1106912504760658L56.1577130317688,-47.59903270419454L56.46712191899618,23.34633570420874L56.621826362609866,94.96557537146964L56.776530806223555,136.10693491407005L56.93123524983724,-303.10662222182873L57.24064413706461,113.66434194480303L57.3953485806783,148.04437598278764L57.55005302429199,-110.10736629673556L57.70475746790568,-0.10949188788436004L58.01416635513306,89.0414737355552L58.168870798746745,-463.4028733020623L58.32357524236043,-100.29312750339523L58.478279685974115,83.62184261522725L58.7876885732015,98.6938070184608L58.94239301681519,127.2745133142621L59.09709746042888,-98.04977357122698L59.251801904042566,114.25380967292949L59.561210791269936,100.57839161253469L59.715915234883624,-114.14465703179303L59.87061967849731,-230.68575309074367L60.025324122111,162.21814221511545L60.33473300933838,127.78902871402465L60.48943745295207,127.98016245208305L60.64414189656575,70.48083359592101L61.10825522740682,115.83684101323433L61.26295967102051,110.58023915819354L61.4176641146342,139.4590929884588L61.57236855824789,2.864769162632001L61.88177744547526,116.11278643826745L62.191186332702635,92.12144725315511L62.345890776316324,-55.72242330016343L62.6552996635437,-53.55658724989007L62.81000410715739,155.85045160303628L62.96470855077108,116.09197577057603L63.11941299438476,132.88890917299705L63.42882188161214,123.10687761778536L63.58352632522583,122.14740300304038L63.73823076883952,157.7506256453222L63.89293521245321,44.875125152166675L64.51175298690795,103.04377193974187L64.66645743052165,80.53989192517474L64.97586631774902,152.90818841179635L65.13057076136272,137.14138836083112L65.2852752049764,67.53514348245426L65.43997964859008,105.53072623982325L65.74938853581746,151.5125272909404L65.90409297943116,8.511690303321757L66.05879742304484,105.58961205423589L66.21350186665853,142.31397363846258L66.52291075388591,112.2744692215831L66.67761519749959,27.589920266371337L66.83231964111327,62.00096887813652L67.29643297195435,129.44223642457064L67.60584185918172,131.83098409186573L67.76054630279542,94.73066820147142L68.22465963363648,80.17945285699307L68.37936407725016,119.78000137721074L68.53406852086385,-11.572194238030534L68.99818185170491,72.27245928034017L69.1528862953186,123.50751742559305L69.61699962615967,124.40566788992487L69.77170406977335,121.43322498994803L69.92640851338705,135.69110851356345L70.08111295700073,102.36785459893599L70.5452262878418,125.25309036398494L70.69993073145548,169.4409585877607L70.85463517506916,101.82801760988104L71.16404406229654,139.11541217955028L71.31874850591024,120.03525275062202L71.47345294952392,137.65126562146224L71.62815739313761,117.43982960363041L71.937566280365,-46.05546000125469L72.09227072397869,120.43343301950745L72.24697516759235,155.0404814398712L72.71108849843344,118.24297507635924L72.86579294204712,-62.27334161085582L73.02049738566082,64.70389613909902L73.1752018292745,44.96936153785646L73.48461071650188,33.09292657572587L73.79401960372925,121.71838838520921L73.94872404734294,79.61860377249013L74.25813293457031,-126.82936857371442L74.41283737818401,152.59211115663288L74.56754182179769,153.59711109472676L74.72224626541137,156.81489830293015L75.03165515263875,-183.3877170636224L75.18635959625244,75.49041611191751L75.34106403986613,165.04428230469568L75.49576848347982,68.84625795285729L75.80517737070718,158.4552331896125L75.95988181432088,144.21944841118443L76.11458625793456,131.10632653470157L76.26929070154826,119.36501779284345L76.57869958877563,63.34442840565953L76.73340403238932,121.09895562792849L76.888108476003,154.0442303573618L77.04281291961671,141.39602759631782L77.35222180684408,159.11825915399822L77.50692625045777,121.37264824252634L77.81633513768514,157.4500676036925L78.12574402491252,122.91011450400401L78.2804484685262,150.38060666328886L78.4351529121399,139.5647391964119L78.58985735575358,162.2503627050702L78.89926624298096,148.85587540668348L79.05397068659465,129.4651938880886L79.20867513020833,157.006572715493L79.6727884610494,124.39423421437459L79.82749290466309,79.22545919751883L79.98219734827677,155.68137685468696L80.13690179189047,160.40148383121266L80.44631067911783,118.25843730704082L80.60101512273152,103.21544139563957L80.7557195663452,105.58429542160866L80.9104240099589,107.8062662071984L81.21983289718628,116.00887091880168L81.37453734079996,148.39212510230573L81.52924178441366,2.9621965880442076L81.68394622802734,-28.118869555110905L81.99335511525473,141.83119106145466L82.1480595588684,158.44870534008066L82.3027640024821,115.69184483289018L82.45746844609579,55.161637824425725L82.76687733332317,93.42955090867054L82.92158177693685,-35.62421618517328L83.07628622055054,158.95134445330154L83.23099066416422,151.4099210518923L83.5403995513916,125.28663868691388L83.6951039950053,120.4212519409657L83.84980843861898,128.56793394647002L84.00451288223267,159.70287671377582L84.31392176946004,155.15627059551343L84.46862621307373,127.4228966613548L84.62333065668741,99.27680255472501L84.77803510030111,144.41324576628688L85.24214843114217,152.2017150103926L85.39685287475585,159.35095724458728L85.55155731836955,164.2473877183334L85.86096620559692,66.88687475160214L86.0156706492106,130.4148144449532L86.1703750928243,155.29238010128176L86.32507953643798,85.48691522056652L86.63448842366536,148.08830843664055L86.78919286727904,87.49679317995424L86.94389731089275,48.78918450604988L87.09860175450642,152.9899521787704L87.40801064173381,139.13798799047686L87.5627150853475,133.78296482306712L87.71741952896119,157.45324671677145L87.87212397257487,153.1450489009602L88.18153285980225,136.27170811967062L88.33623730341594,149.39419108610332L88.49094174702962,86.67701401511749L88.64564619064332,110.39377536364918L88.95505507787068,157.36905521525773L89.10975952148438,29.9570886600618L89.26446396509806,157.66040456293763L89.41916840871176,121.90219121307473L89.72857729593913,109.36335577274986L89.88328173955281,54.860312502065426L90.0379861831665,152.36019624896574L90.19269062678019,87.64978286179576L90.50209951400757,121.30937342331276L90.65680395762125,131.34775360313597L90.96621284484863,163.60751401930918L91.43032617568969,155.55886107212154L91.58503061930338,115.47854344014877L91.73973506291706,156.0317299580317L92.04914395014444,137.49007040890592L92.20384839375815,121.02629851584334L92.35855283737183,56.13338893086029L92.51325728098551,164.81039552530638L92.82266616821289,154.05710053086023L92.97737061182659,137.12722480910634L93.13207505544027,0.3029685487954339L93.28677949905396,160.36563764163975L93.59618838628134,109.26347410914582L93.75089282989502,105.08742615346728L93.9055972735087,148.398099025507L94.0603017171224,163.52914802054454L94.36971060434978,93.6593428737981L94.52441504796346,151.4965031828326L94.67911949157715,169.7392326771638L94.83382393519084,89.70584078474121L95.14323282241821,111.68599803077859L95.2979372660319,158.37206472907292L95.45264170964559,88.5127417767635L95.60734615325927,164.89666623833358L95.91675504048665,139.73253911909137L96.07145948410033,102.90980127870444L96.22616392771403,147.8057768540408L96.69027725855508,84.58492172666865L96.99968614578246,158.21810898910945L97.15439058939617,131.94626437738611L97.46379947662354,151.95509587649622L98.23732169469199,141.80739608252782L98.39202613830567,109.61053943443767L98.54673058191935,161.55004080133733L98.70143502553304,104.8109400539297L99.01084391276042,144.80718810118879L99.3202527999878,156.7387904153312L99.47495724360148,133.16842198961353L99.78436613082886,101.28454962047749L99.93907057444254,154.24684017681398L100.09377501805623,20.008317328257817L100.24847946166992,85.89342823769721L100.5578883488973,117.80733454548317L100.71259279251099,119.44121049212936L100.86729723612467,78.38091502008547L101.02200167973835,124.75837319240054L101.33141056696573,135.43543043135207L101.48611501057943,144.65925531618313L101.6408194541931,142.87339152574782L101.79552389780682,109.63548467186911L102.10493278503417,108.05637587208685L102.25963722864788,150.76961931888536L102.41434167226156,161.96363161878259L102.56904611587525,-98.5089440445081L102.87845500310263,156.54202200081943L103.03315944671631,-8.057576726876505L103.18786389033001,141.28522112728535L103.34256833394369,105.08184978504869L103.65197722117107,157.23982870796044L103.80668166478475,156.14542532515173L103.96138610839844,162.56370610851133L104.11609055201212,157.44875964845744L104.4254994392395,72.07512368767175L104.58020388285318,143.6127215047586L104.73490832646688,129.25291553632132L104.88961277008056,146.40492101735765L105.35372610092163,165.5228733291114L105.50843054453532,128.1780493207168L105.663134988149,137.40244933480017L105.97254387537637,131.62864991039623L106.12724831899007,71.80937686799734L106.28195276260375,123.30696428955002L106.43665720621745,164.30538566039803L106.74606609344484,156.92935565005035L106.90077053705852,102.3963672279508L107.05547498067219,155.74512608927455L107.67429275512696,120.35562889816902L107.82899719874065,41.19157336201988L107.98370164235433,155.82629352407457L108.29311052958171,109.99657042916397L108.44781497319539,77.13635652103585L108.60251941680909,85.65104703778434L108.75722386042277,152.6659291286835L109.06663274765015,162.55446693536152L109.22133719126384,118.61575424499574L109.37604163487752,156.81546283072157L109.5307460784912,150.41677354705314L109.84015496571858,158.57025904007196L109.99485940933228,77.7809995522698L110.30426829655966,154.03480300828153L110.61367718378702,81.4213715922856L110.76838162740071,144.48230633277126L110.9230860710144,139.4401004713069L111.07779051462809,147.33147544573035L111.38719940185547,121.03163105066187L111.54190384546915,49.15390656442378L111.69660828908283,149.70722042126613L111.85131273269654,152.65900107400375L112.16072161992392,72.30403043081651L112.3154260635376,149.62711048218807L112.62483495076498,116.74463880695953L112.93424383799235,116.73278637370481L113.24365272521973,112.97868186145593L113.39835716883341,146.06365204079748L113.70776605606079,124.79997332486164L113.86247049967449,138.56090011828348L114.01717494328817,124.46704504764239L114.17187938690185,148.8899803063082L114.48128827412923,138.50285446964494L114.63599271774292,146.46019703434342L114.7906971613566,17.458199524302017L114.9454016049703,139.24064723682932L115.25481049219766,163.73220310135332L115.40951493581136,141.0223870589855L115.56421937942504,37.16533995065174L115.71892382303874,149.73984111636878L116.1830371538798,160.01031907905917L116.33774159749349,152.45508462449914L116.49244604110717,143.0934778534472L116.80185492833456,150.45951333655796L116.95655937194823,61.83414428985725L117.11126381556194,130.46875997859956L117.26596825917562,150.72242426544915L117.575377146403,155.59279104764187L117.73008159001668,146.01026838457733L117.88478603363038,156.76524106020645L118.03949047724406,133.25765978650224L118.34889936447144,126.75018626246265L118.50360380808513,117.10887849886376L118.65830825169881,111.24472282344914L118.81301269531251,46.72076527972786L119.12242158253987,144.34832772063817L119.27712602615357,139.61468532894435L119.43183046976725,153.191886155092L119.58653491338094,101.96158541540535L119.89594380060832,158.86128239283005L120.050648244222,131.56939834558352L120.20535268783568,158.09609545075284L120.36005713144938,129.4796118748743L120.66946601867676,149.24005644648764L120.82417046229044,156.34120912898504L120.97887490590414,57.90585777548404L121.13357934951782,146.0214052192232L121.4429882367452,148.02718041325352L121.59769268035888,-537.8854721376592L121.75239712397259,151.0302959898978L122.21651045481364,151.88384345797658L122.37121489842734,81.89474802313498L122.52591934204102,143.44925227884528L122.6806237856547,103.56246961581837L122.99003267288208,119.9505152738734L123.14473711649578,124.39725563072307L123.45414600372315,155.58037408659573L123.76355489095052,102.73934038934613L123.91825933456421,131.66442454010826L124.0729637781779,86.31388217587437L124.22766822179159,146.93872842554174L124.53707710901897,72.0171655010854L124.69178155263265,107.4001348426591L124.84648599624633,136.47775016208004L125.3105993270874,110.52001755971105L125.46530377070108,149.34239499864873L125.62000821431478,122.70325879947268L125.77471265792846,153.4012464547543L126.08412154515584,118.03296543721854L126.23882598876952,-225.67745335151267L126.39353043238322,152.33746141612608L126.5482348759969,152.5750693082814L126.85764376322427,146.99862932983285L127.01234820683798,143.55660532199875L127.16705265045167,101.1862687774651L127.32175709406535,99.13377294537258L127.63116598129272,-447.99568540533073L127.78587042490642,115.30449925701578L127.9405748685201,79.46933520341463L128.09527931213378,72.23602205932366L128.40468819936117,109.10750541679931L128.55939264297484,-104.78354587903686L129.17821041742963,138.37897904972272L129.3329148610433,127.24738417589106L129.487619304657,147.50767437578554L129.64232374827068,101.69379781451312L129.95173263549805,113.74396951741141L130.10643707911174,148.64285230228995L130.26114152272544,104.00337377201731L130.4158459663391,129.09075559082567L130.7252548535665,126.67646370355988L130.87995929718016,122.5206433352248L131.03466374079386,161.9193466663557L131.49877707163492,138.06638702482087L131.8081859588623,66.22662636996483L131.962890402476,147.6764734861522L132.27229928970337,72.8578189423788L132.58170817693073,101.38016419608061L132.73641262054443,148.45618707998904L133.2005259513855,44.16713839222348L133.35523039499918,132.4068024391197L133.50993483861288,163.53340980781502L133.81934372584024,159.68493109088502L133.97404816945394,155.90991917261425L134.12875261306763,151.0960542013206L134.2834570566813,53.50239258191323L134.5928659439087,154.88397472338545L134.7475703875224,155.24846089925495L135.36638816197714,153.40367418929395L135.52109260559084,134.4669392741356L135.6757970492045,116.18246453984762L135.8305014928182,99.4897912043707L136.13991038004556,154.41995408175546L136.29461482365926,163.75991001934187L136.44931926727295,161.18698582268553L136.60402371088665,153.6034030617542L136.913432598114,170.34305147035423L137.0681370417277,162.53099530099126L137.37754592895507,167.33202322835172L137.68695481618246,137.9084464607522L137.84165925979613,153.54556414160265L137.99636370340983,169.60920244661418L138.46047703425089,133.1848701561562L138.61518147786458,169.97428495465772L138.76988592147828,137.69351244303652L138.92459036509194,107.07759599709425L139.23399925231934,172.71083143581873L139.388703695933,173.6592659542483L139.69811258316042,-87.56079419923753L140.0075214703878,121.72469625442795L140.31693035761518,148.089408338206L140.47163480122884,140.4807902274258L140.7810436884562,-45.16900824899494L141.2451570192973,155.5920860504939L141.55456590652466,110.130244249297L141.70927035013833,129.42228447520984L141.86397479375205,152.23664947433053L142.01867923736572,116.16868264071422L142.4827925682068,89.32782449443403L142.63749701182047,98.22964325710905L142.79220145543417,162.69853018714895L143.10161034266153,84.19868930418579L143.25631478627523,101.22399407597754L143.41101922988892,159.64224563386716L143.5657236735026,113.03329528713721L143.87513256073,93.34569865390472L144.02983700434368,160.79431301272302L144.18454144795737,104.38853544695212L144.64865477879843,139.99278908130373L144.80335922241213,117.71865332529023L144.9580636660258,152.40818376160212L145.1127681096395,101.97879688713078L145.42217699686688,152.86571365881332L145.57688144048055,156.66614788025475L145.73158588409424,53.579539412677605L145.8862903277079,98.1032420391341L146.1956992149353,137.04191220310543L146.350403658549,69.15444242040167L146.65981254577636,139.54302740454636L146.96922143300375,164.29537920651762L147.12392587661742,33.191159712164335L147.27863032023112,104.05394804110642L147.4333347638448,-2.7063833372067165L147.74274365107217,124.7824650122318L147.89744809468587,135.35038551223818L148.20685698191326,-78.86562441260685L148.51626586914062,85.79014880588375L148.6709703127543,117.69415334921541L148.82567475636802,76.1136653951121L148.9803791999817,129.84092026284748L149.28978808720905,98.12356503962542L149.44449253082274,31.7063085009936L149.59919697443647,-39.867896160483724L149.75390141805013,3.5839934710993475L150.0633103052775,129.66241816541788L150.2180147488912,137.07160424464223L150.3727191925049,91.64034765806059L150.52742363611858,150.4610372965583L150.83683252334595,151.28692820358765L150.99153696695964,120.62443954003538L151.61035474141437,147.4649160337242L151.7650591850281,164.33010164123812L151.91976362864176,141.41186087812991L152.07446807225546,165.4185244749325L152.53858140309652,94.83742491245084L152.6932858467102,139.82652902081588L152.84799029032388,171.61888030342794L153.15739917755127,131.01763471304776L153.31210362116497,159.8536904457734L153.46680806477863,165.29764396770656L153.62151250839233,165.49323031933113L153.93092139561972,164.8789154172863L154.08562583923342,119.78603890917725L154.24033028284708,168.65581969632268L154.39503472646075,147.38890886000354L154.70444361368817,153.71924522470079L155.01385250091553,161.11874819460132L155.1685569445292,127.64298828978463L155.4779658317566,139.18640221191333L155.6326702753703,98.25518217634931L155.78737471898395,23.493134132901105L156.25148804982504,131.72329975306002L156.4061924934387,145.6018471044897L156.5608969370524,-164.67092270607645L156.7156013806661,-13.563975503710026L157.02501026789346,148.15546869126365L157.17971471150716,148.8008803284108L157.33441915512083,140.42133723485654L157.7985324859619,103.67358352721612L157.95323692957558,115.73945599366562L158.1079413731893,161.0435427563591L158.26264581680297,148.38489755635635L158.57205470403034,102.03931532651768L158.72675914764403,134.69345273748854L158.88146359125776,-22.526853380276407L159.03616803487142,-36.7165695104859L159.3455769220988,105.60584819156111L159.65498580932618,106.16943245296898L160.27380358378093,127.14112573357261L160.42850802739463,138.91788045985572L160.5832124710083,-22.02137572590709L161.04732580184938,130.666217488068L161.20203024546305,96.6763755182019L161.35673468907675,-242.0065442856594L161.66614357630414,161.2899843157859L161.8208480199178,108.81438562515382L162.13025690714517,147.75380584248182L162.43966579437256,150.4284855109513L162.59437023798625,160.80365555011633L162.74907468159992,157.7060730060083L162.90377912521362,165.35989044521557L163.213188012441,145.13901647684258L163.36789245605468,164.98233001772587L163.52259689966837,140.728148813218L163.67730134328204,163.64227885987316L163.98671023050946,36.221142041023086L164.14141467412313,145.56507858782095L164.4508235613505,166.6825446057776L164.76023244857788,159.30973743953496L164.91493689219158,149.9447779564823L165.06964133580524,137.47589625572027L165.22434577941897,122.31499089650242L165.53375466664633,173.91582727066856L165.68845911026,162.99501594262125L165.9978679974874,164.66982678005883L166.30727688471475,127.36939108833462L166.46198132832845,168.49676796663638L166.61668577194214,129.0409393261889L166.77139021555584,128.71652402204973L167.0807991027832,161.66860488936277L167.23550354639687,167.9397175180821L167.85432132085162,135.19173199992588L168.00902576446535,158.71810966375585L168.16373020807902,103.15625343959209L168.3184346516927,166.65179904406665L168.62784353892008,169.5230682273957L168.7825479825338,93.6531463199185L168.93725242614747,169.76186215798606L169.09195686976113,168.99058997736842L169.4013657569885,150.0651628454125L169.55607020060222,168.24189493285996L169.71077464421592,170.46135317222308L170.48429686228434,153.46202462993256L170.63900130589803,153.80621960969336L170.94841019312543,169.5364817257638L171.1031146367391,159.44477752293784L171.2578190803528,161.82122352007377L171.41252352396646,158.39175826782497L171.72193241119385,137.27503567731196L171.87663685480754,153.76386147277992L172.0313412984212,135.92836920787522L172.1860457420349,98.12519236386925L172.4954546292623,119.74368607299425L172.65015907287597,110.53247427623546L172.80486351648966,148.97335549533477L172.95956796010333,133.7592042988881L173.26897684733072,162.9636356184406L173.42368129094442,169.81451828895388L173.57838573455808,159.93171454742492L173.7330901781718,106.03793193231468L174.19720350901284,49.24889565383546L174.35190795262653,131.41585738777667L174.50661239624026,164.3294655535858L174.81602128346762,94.35117830810304L174.9707257270813,165.3681609098782L175.125430170695,160.89222810533533L175.28013461430868,162.36027997657203L175.58954350153604,141.5568491073784L175.74424794514974,168.91542363201316L175.89895238876343,148.0455633464053L176.05365683237713,87.18174956722578L176.3630657196045,159.88911257691143L176.51777016321816,159.6127497193565L176.67247460683188,156.922900685562L176.82717905044555,164.52637311227153L177.1365879376729,137.63528921992838L177.29129238128664,153.80257535751866L177.4459968249003,163.04552527776252L177.600701268514,131.96532050330325L177.91011015574136,172.21883353894796L178.21951904296876,140.15621060064313L178.37422348658242,157.32759290178797L178.68363237380984,154.6143689719537L178.8383368174235,127.0680021572091L178.9930412610372,136.3681734625087L179.14774570465087,-68.33544776366944L179.45715459187826,100.62559991779699L179.61185903549196,119.36036905225114L179.76656347910563,62.441099127691814L179.92126792271932,131.25391477222888L180.23067680994671,102.65509057979762L180.38538125356038,150.09908221947194L180.54008569717408,161.86856036804915L181.00419902801514,135.08394694724188L181.15890347162883,161.2761891648264L181.3136079152425,166.5736212212325L181.4683123588562,163.76985684000488L181.7777212460836,170.38793540532038L181.93242568969725,128.47609349093727L182.08713013331095,165.83674415523092L182.24183457692465,171.38269366962075L182.551243464152,114.44747716013626L182.7059479077657,160.51831458038555L182.86065235137937,155.14964733283375L183.0153567949931,151.40497016966515L183.32476568222046,169.39801273236017L183.47947012583413,160.59570259438476L183.63417456944785,163.05028268332876L183.78887901306155,113.34701901798712L184.25299234390258,36.10693250305076L184.4076967875163,124.01357816031032L184.87181011835733,119.40739713267862L185.02651456197103,165.2033824035472L185.18121900558472,163.2834194093614L185.33592344919842,154.078170934343L185.64533233642578,41.484110073317424L185.80003678003948,169.43973146866477L185.95474122365317,-221.51256343340174L186.10944566726684,74.83259546481986L186.4188545544942,-205.11087369520465L186.57355899810793,157.8464721278819L186.7282634417216,149.59494830026813L186.8829678853353,56.64169717528239L187.19237677256268,141.93606866349455L187.34708121617635,127.92278734584465L187.50178565979004,163.46755353287915L187.6564901034037,122.92240159715448L187.9658989906311,17.031872376801857L188.1206034342448,154.09979261379112L188.27530787785847,165.71533887569183L188.73942120869955,130.62643550614644L188.89412565231325,163.547958987679L189.20353453954058,144.43408028726526L189.512943426768,93.76173708362876L189.82235231399537,138.62558758215823L189.97705675760903,170.03087290242638L190.28646564483643,167.31038034598186L190.44117008845012,152.6407374072868L190.5958745320638,143.43236680204166L190.7505789756775,163.48425348411752L191.05998786290488,159.20822050059144L191.21469230651854,164.06282821119817L191.36939675013224,150.6014377436145L191.52410119374593,148.02950213318445L191.8335100809733,151.8466720857947L192.14291896820066,147.14703918057774L192.29762341181439,161.88289221796526L192.60703229904175,108.39684178798598L192.76173674265542,151.06139007463491L192.91644118626914,170.4718042248688L193.0711456298828,161.26715406979838L193.38055451711017,108.15072887384622L193.6899634043376,139.33723714683265L193.84466784795126,164.46139808377063L194.15407673517862,120.93450046615408L194.30878117879234,165.5099580994043L194.463485622406,126.45127807318113L194.6181900660197,105.1510773245418L195.08230339686077,158.18991837946862L195.23700784047446,83.8184149027129L195.85582561492922,166.22222122362666L196.01053005854288,129.08763876132934L196.16523450215658,153.86140816462694L196.47464338938397,167.45083910107286L196.62934783299764,170.12286177841133L196.78405227661133,107.84142595217986L196.938756720225,156.7884635602462L197.4028700510661,166.79594180681062L197.71227893829345,139.76616960334206L198.02168782552084,157.36060320057766L198.1763922691345,145.5996048955153L198.3310967127482,148.64976975550883L198.48580115636187,121.45696166084008L198.7952100435893,65.03366518097846L198.94991448720296,165.38419694462948L199.10461893081663,133.17370681785815L199.25932337443032,168.6266192975338L199.56873226165771,44.83682207403672L199.7234367052714,164.47694512613919L200.0328455924988,134.05838282542186L200.34225447972617,143.044276473541L200.49695892333983,124.94015644196998L200.65166336695353,168.4851109978165L201.1157766977946,171.77011676867778L201.27048114140828,115.06889239060001L201.42518558502198,159.0747083527367L201.57989002863567,141.56598756664994L201.88929891586304,170.34468011978066L202.0440033594767,162.55922434092776L202.81752557754518,171.80869680997301L202.97223002115885,165.59030657135196L203.12693446477255,110.32547015125192L203.4363433519999,100.42543903580622L203.59104779561363,172.86454002922562L203.7457522392273,167.59193261863356L204.36457001368206,166.77615815564116L204.51927445729575,161.00698096817734L204.67397890090942,152.9269688997308L204.9833877881368,147.79013704888962L205.1380922317505,158.07325327812185L205.29279667536417,162.56230804085885L205.44750111897787,174.78633807002922L205.91161444981893,162.08548613522612L206.06631889343262,151.01533467824243L206.2210233370463,159.34129798855042L206.53043222427368,120.4792472326651L206.68513666788738,167.59483808150375L206.99454555511474,164.9921496208584L207.30395444234213,170.82884751261497L207.4586588859558,163.1000777450438L207.6133633295695,130.50926816059086L207.76806777318316,131.8425184812943L208.23218110402425,155.0091514726297L208.38688554763792,165.4920747600961L209.00570332209267,163.57829374278117L209.16040776570637,135.68750401686702L209.3151122093201,134.01800451132624L209.62452109654745,166.70295241795588L209.77922554016112,161.1326745386391L209.93392998377485,138.48257917572755L210.0886344273885,168.85168897443427L210.39804331461588,167.11809369905365L210.55274775822957,139.2002821745598L210.86215664545696,158.86971320458838L211.17156553268433,167.0195544454325L211.326269976298,119.29717904472454L211.48097441991172,165.65065141181708L211.63567886352538,156.5484676890295L211.94508775075275,159.25448130028832L212.09979219436647,112.72555608094945L212.25449663798014,153.9601581222829L212.40920108159384,140.1076983156936L212.7186099688212,169.02226581727086L212.8733144124349,151.67934657848923L213.0280188560486,171.6733002524483L213.18272329966226,155.8397282253644L213.49213218688968,116.80436743751147L213.64683663050334,143.4366232885817L213.80154107411704,166.62438234106946L213.9562455177307,170.81494634704677L214.2656544049581,161.7534205518853L214.4203588485718,164.9473160428314L214.57506329218546,107.5491807810563L214.72976773579916,168.1728509311582L215.03917662302655,153.83590900086494L215.3485855102539,168.61842238050596L215.81269884109497,145.0391851701777L215.96740328470867,159.53287698796544L216.12210772832233,155.1394566785707L216.27681217193603,164.73691414963844L216.58622105916342,-207.8785334762506L216.7409255027771,96.35741466568129L217.05033439000448,169.57786982900745L217.35974327723184,172.36468346818793L217.51444772084554,163.3020302739219L217.6691521644592,163.42134574048663L217.82385660807293,166.41211326558044L218.1332654953003,164.1107348876954L218.28796993891396,169.83896658290695L218.44267438252768,145.98691336627667L218.59737882614138,142.36204861315116L218.90678771336871,161.92813395223584L219.0614921569824,151.97943152992752L219.21619660059613,162.83312235883L219.3709010442098,103.33525380568267L219.68030993143717,170.73288905212482L219.83501437505086,165.12827370363544L219.98971881866456,170.43786696084413L220.14442326227825,157.80988251086535L220.45383214950562,163.0082439154241L220.6085365931193,166.97154572987438L220.763241036733,168.01867189792512L220.91794548034667,108.44682237526627L221.38205881118776,166.51150063607133L221.53676325480143,162.6915716532692L221.69146769841512,114.94260778869466L222.00087658564252,95.13466867237548L222.15558102925618,169.72798055163096L222.31028547286988,157.7569109864366L222.46498991648355,47.15083474291578L222.92910324732463,73.65817623089833L223.0838076909383,142.3894295362179L223.238512134552,132.72108804739582L223.5479210217794,117.4867410679883L223.70262546539308,115.76425811137528L223.85732990900675,169.87380563369703L224.01203435262042,129.8141674763374L224.32144323984784,145.464650948982L224.4761476834615,137.35606264275543L224.6308521270752,127.05161759943167L224.78555657068887,121.16674136874303L225.09496545791626,122.98948234082104L225.24966990152996,105.96939348777823L225.40437434514362,151.15843319709052L225.55907878875735,145.03171644099348L225.8684876759847,149.94382382500385L226.02319211959838,147.43657567844855L226.17789656321207,170.90711942341437L226.33260100682577,133.31916946248066L226.64200989405313,157.62425093099944L226.79671433766683,160.79081983136575L226.9514187812805,142.87711263851384L227.10612322489422,141.67658200646497L227.41553211212158,154.77295622513554L227.57023655573525,60.138207391267315L227.72494099934897,108.68342047827355L227.87964544296264,167.5171803928436L228.18905433019,161.76199845891324L228.3437587738037,168.0355083429722L228.49846321741742,79.206418973793L228.6531676610311,170.65732117643904L228.96257654825845,159.27241234617043L229.11728099187218,138.6140293394427L229.27198543548585,165.0287591156141L229.42668987909954,150.48061289405814L229.7360987663269,-444.3484860245135L229.8908032099406,86.7674762807369L230.0455076535543,159.76688303378955L230.20021209716796,140.64646985793092L230.81902987162272,168.00883109187083L230.9737343152364,91.64701067621854L231.2831432024638,155.26542853738033L231.43784764607747,146.29900447215232L231.59255208969117,168.61542150448793L231.74725653330484,170.14739223368616L232.05666542053223,165.74868312049898L232.21136986414592,158.6010205039742L232.3660743077596,120.68976044119722L232.52077875137329,171.97691814072215L232.83018763860068,157.89069744709138L232.98489208221434,84.4257725960606L233.13959652582804,82.60666792506163L233.2943009694417,144.47836258932693L233.60370985666913,82.51766866104253L233.7584143002828,172.95312716145332L233.91311874389646,164.9738475238458L234.06782318751016,138.22143339007152L234.37723207473755,164.46749392377194L234.53193651835124,110.97336783097353L234.6866409619649,119.99938270776215L234.84134540557864,161.40679121167182L235.150754292806,98.55477415985706L235.30545873641967,165.8706542530121L235.46016318003336,129.58151841750487L235.61486762364706,147.73709263941737L235.92427651087442,162.95455281683866L236.07898095448812,162.0920643416971L236.2336853981018,149.46949061231078L236.3883898417155,164.56947865217643L236.69779872894287,125.07234075685051L236.85250317255654,170.81755695678646L237.00720761617026,152.26510114494533L237.16191205978393,152.83192415264955L237.4713209470113,164.8280058769971L237.62602539062502,154.65497786782328L237.78072983423868,169.2121936391551L237.93543427785238,170.2598896357277L238.24484316507974,160.69420739325807L238.55425205230713,158.18048970520573L239.01836538314816,118.58665853563298L239.1730698267619,167.65653394563873L239.32777427037558,170.0889298151171L239.48247871398925,152.4968437788733L239.79188760121664,163.58900386862695L239.94659204483034,-169.5371628696248L240.2560009320577,90.21218775890202L240.5654098192851,160.10612845650581L240.72011426289876,153.64215935233642L240.87481870651246,172.31820732631712L241.02952315012612,140.34457205668355L241.33893203735352,143.73726746708098L241.4936364809672,145.70584478527724L241.64834092458088,139.62760055865147L241.80304536819457,112.99374653735481L242.11245425542197,159.6134321884001L242.26715869903563,166.020748410853L242.42186314264933,154.46584780586966L242.576567586263,167.13717699121426L242.8859764734904,56.326176496814696L243.04068091710408,159.69437566733922L243.19538536071775,163.78432783409494L243.35008980433147,51.388217450468346L243.65949869155884,145.10693380587918L243.8142031351725,119.80832317992986L244.12361202239993,31.41701583672284L244.4330209096273,129.35181656479472L244.58772535324096,156.3527435184136L244.74242979685468,60.96376435227921L244.89713424046835,145.43133320782704L245.2065431276957,93.21390129234601L245.3612475713094,-7.096851139748651L245.5159520149231,156.80594271885866L245.6706564585368,125.5503235224487L245.98006534576416,38.81572237187538L246.13476978937783,103.20676940064641L246.28947423299155,153.88400517847526L246.44417867660522,166.78573061221712L246.75358756383258,170.14304165918088L246.9082920074463,168.18689057830903L247.06299645105997,-29.02185958633072L247.21770089467367,139.08765225425736L247.52710978190103,153.56867797666848" fill="none"></path></g></g></g></g></g></g><g transform="translate(51, 177)" clip-path="url(#clip_1)"><clipPath id="clip_1"><rect width="278" height="22"></rect></clipPath><g><g><line x1="0" y1="0" x2="0" y2="5" style="visibility: inherit;" fill="rgb(0, 0, 0)" stroke="rgb(204, 204, 204)" stroke-width="1px"></line><line x1="30.94088872273763" y1="0" x2="30.94088872273763" y2="5" style="visibility: inherit;" fill="rgb(0, 0, 0)" stroke="rgb(204, 204, 204)" stroke-width="1px"></line><line x1="61.88177744547526" y1="0" x2="61.88177744547526" y2="5" style="visibility: inherit;" fill="rgb(0, 0, 0)" stroke="rgb(204, 204, 204)" stroke-width="1px"></line><line x1="92.82266616821289" y1="0" x2="92.82266616821289" y2="5" style="visibility: inherit;" fill="rgb(0, 0, 0)" stroke="rgb(204, 204, 204)" stroke-width="1px"></line><line x1="123.76355489095052" y1="0" x2="123.76355489095052" y2="5" style="visibility: inherit;" fill="rgb(0, 0, 0)" stroke="rgb(204, 204, 204)" stroke-width="1px"></line><line x1="154.70444361368817" y1="0" x2="154.70444361368817" y2="5" style="visibility: inherit;" fill="rgb(0, 0, 0)" stroke="rgb(204, 204, 204)" stroke-width="1px"></line><line x1="185.64533233642578" y1="0" x2="185.64533233642578" y2="5" style="visibility: inherit;" fill="rgb(0, 0, 0)" stroke="rgb(204, 204, 204)" stroke-width="1px"></line><line x1="216.58622105916342" y1="0" x2="216.58622105916342" y2="5" style="visibility: inherit;" fill="rgb(0, 0, 0)" stroke="rgb(204, 204, 204)" stroke-width="1px"></line><line x1="247.52710978190103" y1="0" x2="247.52710978190103" y2="5" style="visibility: inherit;" fill="rgb(0, 0, 0)" stroke="rgb(204, 204, 204)" stroke-width="1px"></line><line x1="278.4679985046387" y1="0" x2="278.4679985046387" y2="5" style="visibility: inherit;" fill="rgb(0, 0, 0)" stroke="rgb(204, 204, 204)" stroke-width="1px"></line></g><g transform="translate(0, 8)"><text style="text-anchor: middle; visibility: hidden; font-family: Roboto, sans-serif; font-size: 12px; font-weight: 200;" x="0" y="0" dx="0em" dy="0.95em" fill="rgb(50, 49, 63)" stroke="none" stroke-width="1px">-200</text><text style="text-anchor: middle; visibility: inherit; font-family: Roboto, sans-serif; font-size: 12px; font-weight: 200;" x="30.94088872273763" y="0" dx="0em" dy="0.95em" fill="rgb(50, 49, 63)" stroke="none" stroke-width="1px">0</text><text style="text-anchor: middle; visibility: inherit; font-family: Roboto, sans-serif; font-size: 12px; font-weight: 200;" x="61.88177744547526" y="0" dx="0em" dy="0.95em" fill="rgb(50, 49, 63)" stroke="none" stroke-width="1px">200</text><text style="text-anchor: middle; visibility: inherit; font-family: Roboto, sans-serif; font-size: 12px; font-weight: 200;" x="92.82266616821289" y="0" dx="0em" dy="0.95em" fill="rgb(50, 49, 63)" stroke="none" stroke-width="1px">400</text><text style="text-anchor: middle; visibility: inherit; font-family: Roboto, sans-serif; font-size: 12px; font-weight: 200;" x="123.76355489095052" y="0" dx="0em" dy="0.95em" fill="rgb(50, 49, 63)" stroke="none" stroke-width="1px">600</text><text style="text-anchor: middle; visibility: inherit; font-family: Roboto, sans-serif; font-size: 12px; font-weight: 200;" x="154.70444361368817" y="0" dx="0em" dy="0.95em" fill="rgb(50, 49, 63)" stroke="none" stroke-width="1px">800</text><text style="text-anchor: middle; visibility: inherit; font-family: Roboto, sans-serif; font-size: 12px; font-weight: 200;" x="185.64533233642578" y="0" dx="0em" dy="0.95em" fill="rgb(50, 49, 63)" stroke="none" stroke-width="1px">1k</text><text style="text-anchor: middle; visibility: inherit; font-family: Roboto, sans-serif; font-size: 12px; font-weight: 200;" x="216.58622105916342" y="0" dx="0em" dy="0.95em" fill="rgb(50, 49, 63)" stroke="none" stroke-width="1px">1.2k</text><text style="text-anchor: middle; visibility: inherit; font-family: Roboto, sans-serif; font-size: 12px; font-weight: 200;" x="247.52710978190103" y="0" dx="0em" dy="0.95em" fill="rgb(50, 49, 63)" stroke="none" stroke-width="1px">1.4k</text><text style="text-anchor: middle; visibility: hidden; font-family: Roboto, sans-serif; font-size: 12px; font-weight: 200;" x="278.4679985046387" y="0" dx="0em" dy="0.95em" fill="rgb(50, 49, 63)" stroke="none" stroke-width="1px">1.6k</text></g><line x1="0" y1="0" x2="278.4679985046387" y2="0" fill="rgb(0, 0, 0)" stroke="rgb(204, 204, 204)" stroke-width="1px"></line></g></g></g></g></svg>