<svg viewBox="0 0 330 200" xmlns="http://www.w3.org/2000/svg"><g><g><g><g><g><line x1="51.53200149536133" y1="157.8926304017519" x2="46.53200149536133" y2="157.8926304017519" style="visibility: inherit;" fill="rgb(0, 0, 0)" stroke="rgb(204, 204, 204)" stroke-width="1px"></line><line x1="51.53200149536133" y1="126.68233365488545" x2="46.53200149536133" y2="126.68233365488545" style="visibility: inherit;" fill="rgb(0, 0, 0)" stroke="rgb(204, 204, 204)" stroke-width="1px"></line><line x1="51.53200149536133" y1="102.47374674395304" x2="46.53200149536133" y2="102.47374674395304" style="visibility: inherit;" fill="rgb(0, 0, 0)" stroke="rgb(204, 204, 204)" stroke-width="1px"></line><line x1="51.53200149536133" y1="82.69389100809121" x2="46.53200149536133" y2="82.69389100809121" style="visibility: inherit;" fill="rgb(0, 0, 0)" stroke="rgb(204, 204, 204)" stroke-width="1px"></line><line x1="51.53200149536133" y1="65.97026127288648" x2="46.53200149536133" y2="65.97026127288648" style="visibility: inherit;" fill="rgb(0, 0, 0)" stroke="rgb(204, 204, 204)" stroke-width="1px"></line><line x1="51.53200149536133" y1="51.483594261224816" x2="46.53200149536133" y2="51.483594261224816" style="visibility: inherit;" fill="rgb(0, 0, 0)" stroke="rgb(204, 204, 204)" stroke-width="1px"></line><line x1="51.53200149536133" y1="38.70544836129693" x2="46.53200149536133" y2="38.70544836129693" style="visibility: inherit;" fill="rgb(0, 0, 0)" stroke="rgb(204, 204, 204)" stroke-width="1px"></line><line x1="51.53200149536133" y1="27.27500735029235" x2="46.53200149536133" y2="27.27500735029235" style="visibility: inherit;" fill="rgb(0, 0, 0)" stroke="rgb(204, 204, 204)" stroke-width="1px"></line></g><g transform="translate(41.53200149536133, 0)"><text style="text-anchor: end; visibility: inherit; font-family: Roboto, sans-serif; font-size: 12px; font-weight: 200;" x="0" y="157.8926304017519" dx="0em" dy="0.3em" fill="rgb(50, 49, 63)" stroke="none" stroke-width="1px">0.03</text><text style="text-anchor: end; visibility: hidden; font-family: Roboto, sans-serif; font-size: 12px; font-weight: 200;" x="0" y="126.68233365488545" dx="0em" dy="0.3em" fill="rgb(50, 49, 63)" stroke="none" stroke-width="1px">0.04</text><text style="text-anchor: end; visibility: inherit; font-family: Roboto, sans-serif; font-size: 12px; font-weight: 200;" x="0" y="102.47374674395304" dx="0em" dy="0.3em" fill="rgb(50, 49, 63)" stroke="none" stroke-width="1px">0.05</text><text style="text-anchor: end; visibility: hidden; font-family: Roboto, sans-serif; font-size: 12px; font-weight: 200;" x="0" y="82.69389100809121" dx="0em" dy="0.3em" fill="rgb(50, 49, 63)" stroke="none" stroke-width="1px">0.06</text><text style="text-anchor: end; visibility: inherit; font-family: Roboto, sans-serif; font-size: 12px; font-weight: 200;" x="0" y="65.97026127288648" dx="0em" dy="0.3em" fill="rgb(50, 49, 63)" stroke="none" stroke-width="1px">0.07</text><text style="text-anchor: end; visibility: hidden; font-family: Roboto, sans-serif; font-size: 12px; font-weight: 200;" x="0" y="51.483594261224816" dx="0em" dy="0.3em" fill="rgb(50, 49, 63)" stroke="none" stroke-width="1px">0.08</text><text style="text-anchor: end; visibility: inherit; font-family: Roboto, sans-serif; font-size: 12px; font-weight: 200;" x="0" y="38.70544836129693" dx="0em" dy="0.3em" fill="rgb(50, 49, 63)" stroke="none" stroke-width="1px">0.09</text><text style="text-anchor: end; visibility: hidden; font-family: Roboto, sans-serif; font-size: 12px; font-weight: 200;" x="0" y="27.27500735029235" dx="0em" dy="0.3em" fill="rgb(50, 49, 63)" stroke="none" stroke-width="1px">0.1</text></g><line x1="51.53200149536133" y1="0" x2="51.53200149536133" y2="177.86299896240234" fill="rgb(0, 0, 0)" stroke="rgb(204, 204, 204)" stroke-width="1px"></line></g></g><g transform="translate(51, 0)" clip-path="url(#clip_0)"><clipPath id="clip_0"><rect width="278" height="177"></rect></clipPath><g><g><g><line x1="0" y1="0" x2="0" y2="177.86299896240234" fill="rgb(0, 0, 0)" stroke="rgb(60, 60, 60)" stroke-width="1px" opacity="0.25"></line><line x1="30.94088872273763" y1="0" x2="30.94088872273763" y2="177.86299896240234" fill="rgb(0, 0, 0)" stroke="rgb(60, 60, 60)" stroke-width="1px" opacity="0.25"></line><line x1="61.88177744547526" y1="0" x2="61.88177744547526" y2="177.86299896240234" fill="rgb(0, 0, 0)" stroke="rgb(60, 60, 60)" stroke-width="1px" opacity="0.25"></line><line x1="92.82266616821289" y1="0" x2="92.82266616821289" y2="177.86299896240234" fill="rgb(0, 0, 0)" stroke="rgb(60, 60, 60)" stroke-width="1px" opacity="0.25"></line><line x1="123.76355489095052" y1="0" x2="123.76355489095052" y2="177.86299896240234" fill="rgb(0, 0, 0)" stroke="rgb(60, 60, 60)" stroke-width="1px" opacity="0.25"></line><line x1="154.70444361368817" y1="0" x2="154.70444361368817" y2="177.86299896240234" fill="rgb(0, 0, 0)" stroke="rgb(60, 60, 60)" stroke-width="1px" opacity="0.25"></line><line x1="185.64533233642578" y1="0" x2="185.64533233642578" y2="177.86299896240234" fill="rgb(0, 0, 0)" stroke="rgb(60, 60, 60)" stroke-width="1px" opacity="0.25"></line><line x1="216.58622105916342" y1="0" x2="216.58622105916342" y2="177.86299896240234" fill="rgb(0, 0, 0)" stroke="rgb(60, 60, 60)" stroke-width="1px" opacity="0.25"></line><line x1="247.52710978190103" y1="0" x2="247.52710978190103" y2="177.86299896240234" fill="rgb(0, 0, 0)" stroke="rgb(60, 60, 60)" stroke-width="1px" opacity="0.25"></line><line x1="278.4679985046387" y1="0" x2="278.4679985046387" y2="177.86299896240234" fill="rgb(0, 0, 0)" stroke="rgb(60, 60, 60)" stroke-width="1px" opacity="0.25"></line></g><g><line x1="0" y1="157.8926304017519" x2="278.4679985046387" y2="157.8926304017519" fill="rgb(0, 0, 0)" stroke="rgb(60, 60, 60)" stroke-width="1px" opacity="0.25"></line><line x1="0" y1="126.68233365488545" x2="278.4679985046387" y2="126.68233365488545" fill="rgb(0, 0, 0)" stroke="rgb(60, 60, 60)" stroke-width="1px" opacity="0.25"></line><line x1="0" y1="102.47374674395304" x2="278.4679985046387" y2="102.47374674395304" fill="rgb(0, 0, 0)" stroke="rgb(60, 60, 60)" stroke-width="1px" opacity="0.25"></line><line x1="0" y1="82.69389100809121" x2="278.4679985046387" y2="82.69389100809121" fill="rgb(0, 0, 0)" stroke="rgb(60, 60, 60)" stroke-width="1px" opacity="0.25"></line><line x1="0" y1="65.97026127288648" x2="278.4679985046387" y2="65.97026127288648" fill="rgb(0, 0, 0)" stroke="rgb(60, 60, 60)" stroke-width="1px" opacity="0.25"></line><line x1="0" y1="51.483594261224816" x2="278.4679985046387" y2="51.483594261224816" fill="rgb(0, 0, 0)" stroke="rgb(60, 60, 60)" stroke-width="1px" opacity="0.25"></line><line x1="0" y1="38.70544836129693" x2="278.4679985046387" y2="38.70544836129693" fill="rgb(0, 0, 0)" stroke="rgb(60, 60, 60)" stroke-width="1px" opacity="0.25"></line><line x1="0" y1="27.27500735029235" x2="278.4679985046387" y2="27.27500735029235" fill="rgb(0, 0, 0)" stroke="rgb(60, 60, 60)" stroke-width="1px" opacity="0.25"></line></g></g></g><g><g><line x1="30.94088872273763" y1="0" x2="30.94088872273763" y2="177.86299896240234" fill="rgb(0, 0, 0)" stroke="rgb(153, 153, 153)" stroke-width="1.5px"></line></g></g><g><g><g><g><g><path style="fill: none;" stroke="rgb(255, 112, 67)" stroke-width="2px" d="M31.250297609965006,110.71706385473438L31.405002053578695,119.79020641045808L31.71441094080607,117.61400635764038L31.86911538441976,118.71504691201076L32.023819828033446,124.24543015845593L32.178524271647134,120.61784936896223L32.48793315887451,122.43891979881013L32.6426376024882,97.40060528896989L32.79734204610189,77.85157694363252L32.95204648971558,67.7222508392722L33.261455376942955,62.005587740035736L33.416159820556636,77.16015485229059L33.570864264170325,75.9439890132267L34.03497759501139,51.443204793920025L34.18968203862508,46.44834306223065L34.34438648223877,64.30110968775855L34.49909092585246,75.66148312760549L34.808499813079834,72.33217721625296L34.96320425669352,85.20260041552122L35.11790870030721,92.96495296887431L35.2726131439209,103.57626388996383L35.58202203114827,111.67817564796556L35.73672647476196,116.8465482615353L35.89143091837565,121.53825701457582L36.35554424921672,121.96782430661331L36.51024869283041,122.22638270391846L36.66495313644409,117.27712046559837L36.81965758005778,113.95964908850958L37.129066467285156,110.73417771551699L37.283770910898845,97.7637125281824L37.43847535451253,90.66597236518145L37.59317979812622,86.62003825677556L37.90258868535359,76.86849457474744L38.05729312896728,78.27536298216894L38.36670201619466,78.59010781866456L38.67611090342204,77.14234930254176L38.83081534703573,86.44058627920678L38.98551979064942,84.40610454226349L39.1402242342631,92.08945106887364L39.44963312149048,114.09424811005505L39.60433756510417,76.44149274738805L39.759042008717856,89.25081252984089L39.913746452331544,89.97133570191505L40.3778597831726,40.72657802972246L40.53256422678629,31.086403667641594L40.68726867039998,44.30977024838902L40.996677557627365,62.342577826199445L41.15138200124105,59.94314031339429L41.30608644485474,65.70749584532342L41.46079088846842,59.33046006732814L41.7701997756958,61.18459348798235L41.92490421930949,47.41395453060793L42.07960866292318,24.636165911851748L42.23431310653687,-2.0239305451722744L42.698426437377925,-3.480352110211046L42.853130880991614,2.9098864496967454L43.0078353246053,17.449278238058724L43.31724421183268,18.2795326420361L43.471948655446376,6.052688710968686L43.626653099060064,-2.35760833218982L43.78135754267375,4.89054139038593L44.09076642990112,13.906624916834213L44.24547087351481,34.96922726620881L44.55487976074219,53.80753734356703L44.864288647969566,71.82639388262142L45.01899309158325,83.45493006146403L45.173697535196936,91.31069547914052L45.328401978810625,90.75320423576692L45.637810866038,75.06773421206921L45.79251530965169,62.30243671609693L45.94721975326539,48.498924680376085L46.101924196879075,42.61427985251533L46.411333084106445,75.50348231908056L46.72074197133382,104.46535305407888L46.87544641494751,120.9457706865116L47.18485530217489,131.27572467267174L47.33955974578858,139.35973819863545L47.64896863301595,148.71894971265002L47.958377520243324,149.03584511621105L48.11308196385701,138.97356684073767L48.2677864074707,146.33286632576463L48.4224908510844,147.82505162997936L48.73189973831177,133.98891582325825L48.886604181925456,143.17296465128638L49.041308625539145,139.25338963472444L49.19601306915283,145.4583659951835L49.50542195638021,129.78508113976275L49.6601263999939,121.64159562552061L49.81483084360758,131.77357716341675L49.96953528722127,127.96929440142335L50.433648618062335,118.46825892618264L50.74305750528971,81.30602608748714L51.05246639251708,70.44983386112136L51.20717083613078,43.9375481195889L51.36187527974447,19.53272002010128L51.516579723358156,18.311417733240464L51.82598861058553,25.734897207154145L51.98069305419922,46.12146834895154L52.13539749781291,70.92970218972064L52.29010194142659,84.31904520522934L52.59951082865397,108.2102743215145L52.75421527226766,130.46300714634967L52.908919715881346,131.0778435777586L53.37303304672242,121.41081806076662L53.527737490336094,136.84120713586412L53.68244193394979,147.27634525512468L54.146555264790855,152.2713825996235L54.301259708404544,161.875886365232L54.45596415201823,174.27868989031654L54.61066859563192,161.45011877632803L54.92007748285929,156.2953546048286L55.07478192647298,168.86502028651307L55.22948637008667,169.3366164878029L55.38419081370036,169.62056135957042L55.693599700927734,154.13262821477173L55.848304144541416,169.35577213230616L56.003008588155105,164.4955285041764L56.1577130317688,169.46208926089852L56.46712191899618,159.33581957838325L56.621826362609866,152.45399911063058L56.776530806223555,149.01548744792217L56.93123524983724,142.6513582885173L57.24064413706461,139.0047019009343L57.3953485806783,139.83346996329837L57.55005302429199,147.94711563743866L57.70475746790568,143.18125581360448L58.01416635513306,148.43965187384916L58.168870798746745,154.5223444764545L58.32357524236043,154.09998212374893L58.478279685974115,157.11849101163756L58.7876885732015,164.48140056812747L58.94239301681519,180.91268064064215L59.715915234883624,182.51881193830158L59.87061967849731,171.0830455636341L60.025324122111,140.2933992084527L60.33473300933838,144.77445691907963L60.48943745295207,147.87892188933628L60.64414189656575,159.79473530720705L61.10825522740682,155.90278461795472L61.26295967102051,148.36680482556991L61.4176641146342,153.18434934411198L61.57236855824789,158.64518642202538L61.88177744547526,160.86713227789903L62.191186332702635,157.48111133055286L62.345890776316324,136.73691987476306L62.6552996635437,129.98688039121902L62.81000410715739,146.31884208307847L62.96470855077108,141.73364153993626L63.11941299438476,150.31963562481434L63.42882188161214,137.14031574705038L63.58352632522583,125.01337602024182L63.73823076883952,114.72489113343964L63.89293521245321,102.30733875614503L64.51175298690795,108.98039703488297L64.66645743052165,116.93865955130428L64.97586631774902,118.41373728510544L65.13057076136272,118.96728326301367L65.2852752049764,108.92115719757936L65.43997964859008,120.03616095863445L65.74938853581746,122.78039448528821L65.90409297943116,122.38054727099582L66.05879742304484,121.05155956440184L66.21350186665853,116.39968017540393L66.52291075388591,99.03920996783785L66.67761519749959,95.00032598542128L66.83231964111327,98.11826945254022L67.29643297195435,101.84363965622613L67.60584185918172,109.15924983253989L67.76054630279542,112.40276253298572L68.22465963363648,108.90594561371135L68.37936407725016,111.68829659896241L68.53406852086385,107.50201894582725L68.99818185170491,115.60119816074295L69.1528862953186,101.51888704605707L69.61699962615967,108.298580603535L69.77170406977335,109.41907771999236L69.92640851338705,114.80294432033037L70.08111295700073,98.46543447849055L70.5452262878418,98.94084437154687L70.69993073145548,106.38380993302941L70.85463517506916,113.22958286078804L71.16404406229654,117.28548507694222L71.31874850591024,121.18226280935718L71.47345294952392,102.91574549980511L71.62815739313761,107.86206476932902L71.937566280365,109.56791717073978L72.09227072397869,109.63517269382952L72.24697516759235,87.34443620826569L72.71108849843344,79.03481278075849L72.86579294204712,71.31842922009236L73.02049738566082,60.62964823751143L73.1752018292745,79.18820249071608L73.48461071650188,97.02463393964264L73.79401960372925,110.23020324951017L73.94872404734294,119.86131977721087L74.25813293457031,121.1356804039302L74.41283737818401,102.63290415560232L74.56754182179769,97.66605337806077L74.72224626541137,99.06752797294082L75.03165515263875,99.51694215783938L75.18635959625244,106.10021858958676L75.34106403986613,114.00311274409819L75.49576848347982,117.8594803950785L75.80517737070718,124.24443644405547L75.95988181432088,126.36546739138882L76.11458625793456,130.3883356352829L76.26929070154826,135.05838150452976L76.57869958877563,136.26091000827404L76.73340403238932,137.8824837873812L76.888108476003,124.52842778129082L77.04281291961671,124.64112043751994L77.35222180684408,114.46985149423432L77.50692625045777,117.30849221658512L77.81633513768514,113.77791534019897L78.12574402491252,108.04150685975883L78.2804484685262,97.44240410091038L78.4351529121399,99.8327464750453L78.58985735575358,102.83395233118854L78.89926624298096,108.72775135556441L79.05397068659465,111.55115498654119L79.20867513020833,110.8978988752199L79.6727884610494,112.4522877318776L79.82749290466309,110.76900394950032L79.98219734827677,105.8975720510661L80.13690179189047,102.6573027457613L80.44631067911783,103.65568325891282L80.60101512273152,99.3904736399656L80.7557195663452,101.81093089442021L80.9104240099589,100.75689442231408L81.21983289718628,99.30226036589414L81.37453734079996,96.8306157614433L81.52924178441366,89.9865456326682L81.68394622802734,87.51872704126656L81.99335511525473,82.75282215009629L82.1480595588684,80.19333850996072L82.3027640024821,80.09481776959755L82.45746844609579,77.69916285324378L82.76687733332317,53.962868333342676L82.92158177693685,50.31907140317453L83.07628622055054,56.38730619196188L83.23099066416422,68.36981729625776L83.5403995513916,81.92842657448857L83.6951039950053,93.38869911047135L83.84980843861898,97.39127762586762L84.00451288223267,102.72250196588546L84.31392176946004,114.7827783037453L84.46862621307373,111.57085502139492L84.62333065668741,109.42432474992452L84.77803510030111,107.04127162896796L85.24214843114217,114.84374912738599L85.39685287475585,120.98732719798248L85.55155731836955,117.23002608013385L85.86096620559692,100.90585421727296L86.0156706492106,99.1027312893167L86.1703750928243,96.15763118217228L86.32507953643798,102.4332893913138L86.63448842366536,89.72670049913754L86.78919286727904,90.48843433333467L86.94389731089275,77.68349846579244L87.09860175450642,79.8081782579784L87.40801064173381,71.77601168187635L87.5627150853475,73.27258549556608L87.71741952896119,72.91996304157223L87.87212397257487,79.30571990754525L88.18153285980225,89.45113940501813L88.33623730341594,94.00411433532055L88.49094174702962,104.20350695734821L88.64564619064332,101.79633720168606L88.95505507787068,100.03796540775672L89.10975952148438,92.89644844876878L89.26446396509806,74.97677395264111L89.41916840871176,65.75025113384687L89.72857729593913,61.08150475142854L89.88328173955281,62.28592702309679L90.0379861831665,71.16037416700368L90.19269062678019,76.90694331672604L90.50209951400757,70.76210219256194L90.65680395762125,67.40231329090487L90.96621284484863,63.51174925835852L91.43032617568969,63.51811281460878L91.58503061930338,61.62677424046094L91.73973506291706,59.50367542922403L92.04914395014444,63.15198059003418L92.20384839375815,57.33006592469962L92.35855283737183,54.252337053786526L92.51325728098551,52.31552591162883L92.82266616821289,46.87575186786337L92.97737061182659,59.34177403391375L93.13207505544027,67.47419707626095L93.28677949905396,72.62422888036127L93.59618838628134,76.33616558927297L93.75089282989502,78.01271529428224L93.9055972735087,84.72925271815379L94.0603017171224,84.16221596087995L94.36971060434978,84.58440695975081L94.52441504796346,89.54232160197984L94.67911949157715,82.09096293405092L94.83382393519084,84.62452643455863L95.14323282241821,91.29397764090247L95.2979372660319,100.85394077556167L95.45264170964559,108.48879636924202L95.60734615325927,107.70553461364135L95.91675504048665,115.46268943138293L96.07145948410033,123.25737687044855L96.22616392771403,132.87985343743608L96.69027725855508,143.1967262038379L96.99968614578246,142.99634438287546L97.15439058939617,133.48734581609443L97.46379947662354,139.68366978132238L98.23732169469199,127.51470455183349L98.39202613830567,127.27017158246542L98.54673058191935,121.60165708409383L98.70143502553304,112.01632990176597L99.01084391276042,102.94823474383877L99.3202527999878,89.72078822864167L99.47495724360148,84.00810596937065L99.78436613082886,76.6439721298837L99.93907057444254,64.87378041495688L100.09377501805623,64.65511264343525L100.24847946166992,72.04872002681843L100.5578883488973,76.87739875606752L100.71259279251099,80.54914670729613L100.86729723612467,87.33970357889062L101.02200167973835,93.5765953450748L101.33141056696573,97.71554713265618L101.48611501057943,94.43494261587836L101.6408194541931,96.07862623093078L101.79552389780682,91.61489585953612L102.10493278503417,96.24915750492846L102.25963722864788,99.35401472277604L102.41434167226156,94.63954323879592L102.56904611587525,92.54838060496593L102.87845500310263,66.55185786068984L103.03315944671631,53.60014367356782L103.18786389033001,50.54798737923655L103.34256833394369,46.707027190743496L103.65197722117107,38.48043613009029L103.80668166478475,25.40899985177177L103.96138610839844,15.903560893717039L104.11609055201212,13.734373785615535L104.4254994392395,11.516012002494945L104.58020388285318,11.3216672340129L104.73490832646688,10.579909121469898L104.88961277008056,5.510782404454565L105.35372610092163,14.811117101086973L105.50843054453532,32.913085080271436L105.663134988149,47.47459949433938L105.97254387537637,57.17390407219106L106.12724831899007,69.2804978045506L106.28195276260375,73.81311979230419L106.43665720621745,74.71192631701483L106.74606609344484,80.23841217167131L106.90077053705852,75.14761761892063L107.05547498067219,79.34339008823446L107.67429275512696,67.46439318365488L107.82899719874065,71.330560491076L107.98370164235433,74.80186288050653L108.29311052958171,81.21495684433077L108.44781497319539,83.79153408093129L108.60251941680909,83.80354618856147L108.75722386042277,78.04414153544505L109.06663274765015,77.96997000766368L109.22133719126384,76.99923556287783L109.37604163487752,72.91407064554228L109.5307460784912,64.56119355670668L109.84015496571858,61.636524492126924L109.99485940933228,62.1587253380233L110.30426829655966,61.03062140496063L110.61367718378702,67.06164740605341L110.76838162740071,66.55350975932718L110.9230860710144,66.92235372896285L111.07779051462809,71.61839975981746L111.38719940185547,73.91183535739464L111.54190384546915,77.8639161756156L111.69660828908283,73.68978846277564L111.85131273269654,73.32536743141314L112.16072161992392,76.28238827939467L112.3154260635376,77.55389106343713L112.62483495076498,78.23016946501339L112.93424383799235,76.38813393563298L113.24365272521973,74.75820700341981L113.39835716883341,73.19499992425503L113.70776605606079,75.40420859480227L113.86247049967449,79.95639787170349L114.01717494328817,75.64443648663193L114.17187938690185,77.14292101999918L114.48128827412923,71.33104204506498L114.63599271774292,71.71740706495954L114.7906971613566,69.26907836108138L114.9454016049703,68.87494780414043L115.25481049219766,69.95053424274626L115.40951493581136,67.24150664259037L115.56421937942504,66.10285282260749L115.71892382303874,55.3941894467998L116.1830371538798,57.78035257230688L116.33774159749349,59.54502225878257L116.49244604110717,58.471476823141124L116.80185492833456,62.86752296446917L116.95655937194823,57.3572831583026L117.11126381556194,56.871825934676195L117.26596825917562,58.48721931376383L117.575377146403,50.38616189796319L117.73008159001668,47.49902593011985L117.88478603363038,47.28351004542898L118.03949047724406,45.602943539146374L118.34889936447144,54.48001269277399L118.50360380808513,52.98445030699556L118.65830825169881,55.881772419302095L118.81301269531251,56.243036133245525L119.12242158253987,62.921494631054145L119.27712602615357,64.68405260276872L119.43183046976725,65.51085813746037L119.58653491338094,62.33656776901823L119.89594380060832,61.49947548815475L120.050648244222,61.207413103487724L120.20535268783568,62.751403379549096L120.36005713144938,62.114237871190745L120.66946601867676,67.18808549622217L120.82417046229044,70.74201213583439L120.97887490590414,65.13519396734425L121.13357934951782,60.930805264554316L121.4429882367452,61.48538481792634L121.59769268035888,62.669694349139256L121.75239712397259,61.860043173913745L122.21651045481364,62.86453844702027L122.37121489842734,63.07243712136611L122.52591934204102,65.42198723212742L122.6806237856547,67.22595296178751L122.99003267288208,75.81384818014575L123.14473711649578,81.73078984450053L123.45414600372315,83.47091330434853L123.76355489095052,84.08508725932182L123.91825933456421,86.17563595696289L124.0729637781779,88.44620414545561L124.22766822179159,85.1724885508228L124.53707710901897,90.63181664712133L124.69178155263265,87.2216822930493L124.84648599624633,91.32500091057473L125.3105993270874,87.81490680339238L125.46530377070108,85.8566239741359L125.62000821431478,92.52797271378019L125.77471265792846,96.7383056719016L126.08412154515584,91.6106930687279L126.23882598876952,88.37283970179884L126.39353043238322,90.82563721866089L126.5482348759969,88.56379095841736L126.85764376322427,86.2729606931519L127.01234820683798,84.48054392382554L127.16705265045167,78.87739701323434L127.32175709406535,83.29204765253236L127.63116598129272,88.08237673041658L127.78587042490642,87.1993355178859L127.9405748685201,85.30048418181626L128.09527931213378,76.75211419316518L128.40468819936117,79.58548561026328L128.55939264297484,78.78856142781656L129.17821041742963,76.38258028950011L129.3329148610433,73.03554774022263L129.487619304657,70.42867749092541L129.64232374827068,69.65979424141385L129.95173263549805,63.99072944017802L130.10643707911174,56.50831162700125L130.26114152272544,52.08665294084433L130.4158459663391,48.257426154090545L130.7252548535665,53.94021870198627L130.87995929718016,54.03564227868465L131.03466374079386,55.28484439578781L131.49877707163492,61.212785906424386L131.8081859588623,59.62195865124446L131.962890402476,56.863221461143176L132.27229928970337,65.23098638934357L132.58170817693073,68.05688827261572L132.73641262054443,64.72801908065382L133.2005259513855,65.9716259726896L133.35523039499918,67.27844965520413L133.50993483861288,61.94264172615108L133.81934372584024,62.92855367258441L133.97404816945394,59.2406993959629L134.12875261306763,62.1998267763891L134.2834570566813,61.25935200585669L134.5928659439087,58.41705567889483L134.7475703875224,58.843898798978095L135.36638816197714,55.79657752013897L135.52109260559084,44.9053260896748L135.6757970492045,51.9241621991579L135.8305014928182,51.80468638912439L136.13991038004556,58.21610909492185L136.29461482365926,62.88774841636013L136.44931926727295,63.11545289814198L136.60402371088665,60.10846254876139L136.913432598114,52.69581539969096L137.0681370417277,52.1367490079483L137.37754592895507,13.045439750879039L137.68695481618246,-5.993489525092158L140.31693035761518,-2.1463363381643057L140.47163480122884,28.59839094620409L140.7810436884562,52.14769550167053L141.2451570192973,57.95334554132373L141.55456590652466,44.00574931976337L141.70927035013833,12.478819828811787L141.86397479375205,-4.199029152814949L142.63749701182047,-7.88522247280855L142.79220145543417,9.209443075007647L143.10161034266153,44.49493619205789L143.25631478627523,72.39758225616362L143.41101922988892,95.69215361522015L143.5657236735026,111.26705449610651L143.87513256073,116.83284136861965L144.02983700434368,125.14681018961602L144.18454144795737,125.16285592717757L144.64865477879843,110.13565389001248L144.80335922241213,95.73740229268475L144.9580636660258,94.3101487257749L145.1127681096395,90.45716159923118L145.42217699686688,84.24627805251998L145.57688144048055,88.02609113245451L145.73158588409424,88.04206561467032L145.8862903277079,90.86667483925179L146.1956992149353,100.78837592445757L146.350403658549,110.35815832416202L146.65981254577636,117.79724248823906L146.96922143300375,124.42434341697859L147.12392587661742,129.59566480157392L147.27863032023112,142.89961046524314L147.4333347638448,153.23684812036433L147.74274365107217,145.01444381799044L147.89744809468587,134.9119853536681L148.20685698191326,133.512676738049L148.51626586914062,141.3670488360733L148.6709703127543,131.01145170538467L148.82567475636802,122.22825042316252L148.9803791999817,129.7078709713166L149.28978808720905,124.83000851167738L149.44449253082274,128.30105070282715L149.59919697443647,135.413138972429L149.75390141805013,139.57011602450618L150.0633103052775,145.55851374265083L150.2180147488912,155.201248897956L150.3727191925049,161.4209090970831L150.52742363611858,150.7222602557755L150.83683252334595,152.2147754806602L150.99153696695964,138.36594392088313L151.61035474141437,148.30101481860436L151.7650591850281,141.9918689241454L151.91976362864176,142.14921233278133L152.07446807225546,150.34095184935327L152.53858140309652,156.4430672756058L152.6932858467102,149.540601177765L152.84799029032388,143.5126707788641L153.15739917755127,135.79820452614925L153.31210362116497,131.8497040302664L153.46680806477863,132.5996164980376L153.62151250839233,133.0783063881162L153.93092139561972,131.88812559957475L154.08562583923342,135.53583944075825L154.24033028284708,120.49623678796017L154.39503472646075,110.19303963854537L154.70444361368817,107.42722138746497L155.01385250091553,104.80335163649646L155.1685569445292,100.53358255654734L155.4779658317566,99.1442473513395L155.6326702753703,102.1750434301376L155.78737471898395,97.2771405946608L156.25148804982504,100.54565330606782L156.4061924934387,108.04067427229236L156.5608969370524,114.08445783217877L156.7156013806661,114.84303960425898L157.02501026789346,108.86332558706994L157.17971471150716,101.67765368728763L157.33441915512083,90.61577115728447L157.7985324859619,73.46798215008278L157.95323692957558,68.75054864876954L158.1079413731893,68.49830930871508L158.26264581680297,64.32149354624585L158.57205470403034,46.48865745931072L158.72675914764403,51.795644401809795L158.88146359125776,71.01840322868644L159.03616803487142,85.19049838611495L159.3455769220988,98.74220000242482L159.65498580932618,117.81768021843118L160.27380358378093,125.48056030892094L160.42850802739463,133.44838640394656L160.5832124710083,134.58420215811037L161.04732580184938,139.3119805788821L161.20203024546305,134.9821327899084L161.35673468907675,146.4689678815965L161.66614357630414,142.69070124137932L161.8208480199178,150.8580343493156L162.13025690714517,144.59861964962826L162.43966579437256,140.58094227238456L162.59437023798625,140.41317207219075L162.74907468159992,142.27252573592085L162.90377912521362,140.5252400276412L163.213188012441,142.82108599860814L163.36789245605468,143.25172611288917L163.52259689966837,141.6887999806472L163.67730134328204,133.23992375229943L163.98671023050946,138.25790087208622L164.14141467412313,131.6714141077468L164.4508235613505,134.55712418119367L164.76023244857788,143.14429497975317L164.91493689219158,137.79771262709855L165.06964133580524,132.89154216054877L165.22434577941897,135.9141150426805L165.53375466664633,128.55159675977134L165.68845911026,115.45786132028597L165.9978679974874,119.86285536304999L166.30727688471475,126.54051902811305L166.46198132832845,120.26570340755005L166.61668577194214,115.85413901981593L166.77139021555584,113.2123433147737L167.0807991027832,114.23835247538243L167.23550354639687,114.42331259634648L167.85432132085162,109.72017365074315L168.00902576446535,105.51710065892182L168.16373020807902,102.81355896135346L168.3184346516927,105.26760047491184L168.62784353892008,102.24477002582485L168.7825479825338,91.07034242805642L168.93725242614747,86.71734836271625L169.09195686976113,84.77562876230046L169.4013657569885,87.74387281888373L169.55607020060222,89.65362730278513L169.71077464421592,89.03076792899887L170.48429686228434,97.42294601943172L170.63900130589803,99.54669427863506L170.94841019312543,100.75088662189943L171.1031146367391,108.8279772878836L171.2578190803528,115.23979044473118L171.41252352396646,120.8942203578804L171.72193241119385,114.53181130728649L171.87663685480754,114.64966946774322L172.0313412984212,111.44460630443373L172.1860457420349,97.04524892509939L172.4954546292623,86.722239974629L172.65015907287597,89.45496135756652L172.80486351648966,82.75369694523727L172.95956796010333,81.11327792505818L173.26897684733072,80.88444795582605L173.42368129094442,78.00181518419186L173.57838573455808,74.21815098833883L173.7330901781718,68.45372951481845L174.19720350901284,72.9849702892568L174.35190795262653,72.86081211716937L174.50661239624026,75.90680230090963L174.81602128346762,75.69916978248519L174.9707257270813,79.5576221771018L175.125430170695,85.09761684490697L175.28013461430868,92.9975903509763L175.58954350153604,91.61330324723049L175.74424794514974,98.94987596770528L175.89895238876343,99.04331346982585L176.05365683237713,94.41848984948967L176.3630657196045,70.46508611438745L176.51777016321816,49.21778137882016L176.67247460683188,40.79062233169403L176.82717905044555,30.144440849793924L177.1365879376729,26.62615437454758L177.29129238128664,22.414059840900862L177.4459968249003,19.023690332226487L177.600701268514,18.05816431057315L177.91011015574136,13.584872887870397L178.21951904296876,17.145962128546863L178.37422348658242,22.939101825261695L178.68363237380984,26.45498203764744L178.8383368174235,37.99467735753845L178.9930412610372,53.486764568324894L179.14774570465087,78.46979951172521L179.45715459187826,103.05728927805384L179.61185903549196,121.54393220506219L179.76656347910563,138.42407527288222L179.92126792271932,151.34787175260368L180.23067680994671,155.9966932288212L180.38538125356038,157.47493746743226L180.54008569717408,159.4816140372841L181.00419902801514,160.1852645849727L181.15890347162883,150.64658741462733L181.3136079152425,154.73399448874022L181.4683123588562,172.6610942620493L181.7777212460836,173.97660010157784L181.93242568969725,171.74256070213207L182.08713013331095,179.0900048649231L182.24183457692465,170.0115569061095L182.551243464152,172.66341219627256L182.7059479077657,178.99092069341594L182.86065235137937,170.39385865397168L183.0153567949931,159.96136172798063L183.32476568222046,168.3879679828266L183.47947012583413,166.25266207618154L183.63417456944785,158.64338396441454L183.78887901306155,153.51130552778378L184.25299234390258,143.39139239583554L184.4076967875163,141.57085764578767L184.87181011835733,136.15303206813934L185.02651456197103,141.48208348361862L185.18121900558472,140.95235700819194L185.33592344919842,138.26897590926365L185.64533233642578,137.52712432433202L185.80003678003948,130.39509407173324L185.95474122365317,130.0846629353961L186.10944566726684,134.466470520721L186.4188545544942,123.80836697601492L186.57355899810793,127.01411979831929L186.7282634417216,130.743235743048L186.8829678853353,119.1727298126446L187.19237677256268,130.8245958740728L187.34708121617635,129.3304777171632L187.50178565979004,123.39956593065871L187.6564901034037,127.73972117498398L187.9658989906311,130.01019414359183L188.1206034342448,133.42253444238852L188.27530787785847,127.80578355149393L188.73942120869955,127.93161594727543L188.89412565231325,126.14429406837162L189.20353453954058,129.85559678520733L189.512943426768,129.54741510904904L189.82235231399537,123.67519502274548L189.97705675760903,125.14329304521331L190.28646564483643,126.04651548788534L190.44117008845012,121.2334561387839L190.5958745320638,123.78941995260455L190.7505789756775,127.70663778161969L191.05998786290488,120.89471653411715L191.21469230651854,114.67483975225716L191.36939675013224,117.65854012038908L191.52410119374593,117.75712550980539L191.8335100809733,118.63208250561284L192.14291896820066,114.50376705553072L192.29762341181439,105.46194039226063L192.60703229904175,109.16258821445987L192.76173674265542,109.31445693789026L192.91644118626914,108.68092583251084L193.0711456298828,108.02731543989381L193.38055451711017,107.7286557071474L193.6899634043376,107.55999814896175L193.84466784795126,101.47788130925684L194.15407673517862,98.96678452648794L194.30878117879234,95.29917693020786L194.463485622406,98.75223972550268L194.6181900660197,97.34747268649734L195.08230339686077,98.59505397482656L195.23700784047446,93.32275303005957L195.85582561492922,86.1925197995405L196.01053005854288,78.77726668487924L196.16523450215658,74.3134901769996L196.47464338938397,72.9298756171095L196.62934783299764,70.99167761341269L196.78405227661133,67.85205041941944L196.938756720225,65.81801111326664L197.4028700510661,62.415587652985586L197.71227893829345,56.60251365503584L198.02168782552084,57.47578248414922L198.1763922691345,54.960433157820454L198.3310967127482,58.597083127094216L198.48580115636187,61.294313683513344L198.7952100435893,57.07242348383366L198.94991448720296,59.232349697230056L199.10461893081663,58.498015112136606L199.25932337443032,58.48535849010288L199.56873226165771,61.09024422265415L199.7234367052714,59.56080675733339L200.0328455924988,59.47700113601089L200.34225447972617,55.59201955807634L200.49695892333983,58.84597210207478L200.65166336695353,59.334046682094815L201.1157766977946,56.17426116237505L201.27048114140828,59.387778570604986L201.42518558502198,64.01207911230537L201.57989002863567,62.99598040257122L201.88929891586304,52.14819644060533L202.0440033594767,57.695808272576436L202.81752557754518,65.74858309278834L202.97223002115885,73.99259783733874L203.12693446477255,83.10472302763313L203.4363433519999,88.65260871011334L203.59104779561363,94.32434784544513L203.7457522392273,97.19743300973225L204.36457001368206,96.52962702308912L204.51927445729575,99.69452316421969L204.67397890090942,106.45443563812924L204.9833877881368,100.94252958973007L205.1380922317505,102.9699493071815L205.29279667536417,99.67060122182644L205.44750111897787,105.15377242070119L205.91161444981893,98.51635588099344L206.06631889343262,100.16699689082589L206.2210233370463,95.5794617562144L206.53043222427368,96.34327357130653L206.68513666788738,99.81751084506777L206.99454555511474,95.79553220288251L207.30395444234213,101.37199037573444L207.4586588859558,107.39607229157757L207.6133633295695,106.79959004838325L207.76806777318316,98.99136769833291L208.23218110402425,100.36780114651022L208.38688554763792,101.66379839849999L209.00570332209267,101.79835601990683L209.16040776570637,98.38833500102977L209.3151122093201,98.20479440049792L209.62452109654745,96.07329214565293L209.77922554016112,92.80619361963429L209.93392998377485,101.554106184546L210.0886344273885,103.75732444504976L210.39804331461588,101.59332230055041L210.55274775822957,106.00223301043933L210.86215664545696,106.59790029657421L211.17156553268433,102.65909165747911L211.326269976298,105.92372878621102L211.48097441991172,102.70365718408887L211.63567886352538,111.27508588357753L211.94508775075275,104.37017598467476L212.09979219436647,103.60749684805918L212.25449663798014,108.56660703110283L212.40920108159384,110.12806196492566L212.7186099688212,112.21896358300411L212.8733144124349,109.51296705206614L213.0280188560486,108.09280219119631L213.18272329966226,108.91229221799226L213.49213218688968,107.09039415806492L213.64683663050334,104.73819110252616L213.80154107411704,107.52733310321696L213.9562455177307,113.44369378647606L214.2656544049581,114.06255544147365L214.4203588485718,107.94693970440916L214.57506329218546,107.4266905655464L214.72976773579916,108.81439637405691L215.03917662302655,106.42861007220829L215.3485855102539,98.64645383294841L215.81269884109497,96.63728750912003L215.96740328470867,96.54695021857601L216.12210772832233,97.1531940636072L216.27681217193603,95.72468073544327L216.58622105916342,93.51431463768064L216.7409255027771,84.63807959215171L217.05033439000448,84.46660396778262L217.35974327723184,83.10515363766989L217.51444772084554,86.49163543956615L217.6691521644592,85.05113287651838L217.82385660807293,84.5190597382532L218.1332654953003,80.89295498328333L218.28796993891396,79.25448137196807L218.44267438252768,81.43375668838857L218.59737882614138,80.96899147382538L218.90678771336871,84.21467725279722L219.0614921569824,83.43369757753645L219.21619660059613,81.4303879333811L219.3709010442098,78.87042472653874L219.68030993143717,80.44828394173354L219.83501437505086,80.49930758523661L219.98971881866456,77.31759137700685L220.14442326227825,74.13473598251228L220.45383214950562,74.09021709745984L220.6085365931193,66.96857184293823L220.763241036733,69.9434074487333L220.91794548034667,72.11792199663425L221.38205881118776,74.6914166410265L221.53676325480143,76.52299958899003L221.69146769841512,74.58118370374348L222.00087658564252,76.0170790764116L222.15558102925618,71.56887021364575L222.31028547286988,77.09587648107987L222.46498991648355,76.25954877517846L222.92910324732463,78.04606701300742L223.0838076909383,74.41624514324027L223.238512134552,75.88978337260914L223.5479210217794,75.01875429540779L223.70262546539308,68.88279097769637L223.85732990900675,72.30968555445656L224.01203435262042,75.8534684906091L224.32144323984784,77.86789684229548L224.4761476834615,76.99621046035824L224.6308521270752,76.89616030858153L224.78555657068887,74.92698196847404L225.09496545791626,73.24578092347943L225.24966990152996,76.77068344982722L225.40437434514362,79.47637680602733L225.55907878875735,77.61858851329315L225.8684876759847,79.19095440723333L226.02319211959838,79.09778141902522L226.17789656321207,76.138682793524L226.33260100682577,69.76440394103747L226.64200989405313,73.1484204158191L226.79671433766683,72.90858352514257L226.9514187812805,73.01899114047797L227.10612322489422,71.30028932781912L227.41553211212158,71.28300803205244L227.57023655573525,74.6313747105904L227.72494099934897,78.1191361280406L227.87964544296264,73.80217503570577L228.18905433019,67.16739830296329L228.3437587738037,65.73639596959676L228.49846321741742,63.65861465546032L228.6531676610311,59.12735706129411L228.96257654825845,50.050460814672405L229.11728099187218,30.60442326299891L229.27198543548585,23.816721427060102L229.42668987909954,21.266508039535875L229.7360987663269,20.491670407090794L229.8908032099406,15.021607971476278L230.0455076535543,22.890849964054063L230.20021209716796,30.292553722946888L230.81902987162272,29.439102049005758L230.9737343152364,37.621190199077695L231.2831432024638,37.52200455354071L231.43784764607747,44.12066559548364L231.59255208969117,47.34588959110572L231.74725653330484,50.04272999076152L232.05666542053223,51.83137635354269L232.21136986414592,48.51253435912969L232.3660743077596,48.768714649397936L232.52077875137329,49.747287956258454L232.83018763860068,53.489239288054684L232.98489208221434,55.659195026034006L233.13959652582804,51.19554530693689L233.2943009694417,54.1216889503632L233.60370985666913,59.89718448563428L233.7584143002828,53.848745982596974L233.91311874389646,45.918318977716396L234.06782318751016,48.862709649934864L234.37723207473755,58.2402883535851L234.53193651835124,63.99028722678075L234.6866409619649,65.09095768136055L234.84134540557864,58.81768585936339L235.150754292806,59.43018217022152L235.30545873641967,61.35108379826301L235.46016318003336,68.19659751112111L235.61486762364706,68.57688156456386L235.92427651087442,68.14851025887837L236.07898095448812,65.7461490733065L236.2336853981018,71.52527235059603L236.3883898417155,75.71214388888176L236.69779872894287,76.43703043702196L236.85250317255654,70.94731427208058L237.00720761617026,73.95187555978858L237.16191205978393,67.87902480557628L237.4713209470113,69.3042418446957L237.62602539062502,68.40484412123652L237.78072983423868,64.85878487131902L237.93543427785238,58.63712155702206L238.24484316507974,60.4910440777239L238.55425205230713,59.313067586611936L239.01836538314816,66.75103375416603L239.1730698267619,68.82493001430126L239.32777427037558,68.1701476397773L239.48247871398925,69.03138218742741L239.79188760121664,69.38575773608449L239.94659204483034,74.10675202445434L240.2560009320577,75.5077880128751L240.5654098192851,74.94693402172238L240.72011426289876,70.48121039145995L240.87481870651246,68.59394112547815L241.02952315012612,72.52505463280198L241.33893203735352,66.21720385997455L241.4936364809672,71.93236492311826L241.64834092458088,72.51009595357792L241.80304536819457,68.04184258536738L242.11245425542197,70.83069782299359L242.26715869903563,69.06108924308407L242.42186314264933,70.43695829424728L242.576567586263,75.00726441178881L242.8859764734904,76.90570034949809L243.04068091710408,77.34995930139054L243.19538536071775,80.99091380382933L243.35008980433147,81.89027335199556L243.65949869155884,78.54196151560868L243.8142031351725,74.34320611226903L244.12361202239993,74.28196559115577L244.4330209096273,70.86543283324542L244.58772535324096,63.99794344647311L244.74242979685468,63.45414197906104L244.89713424046835,53.16057804692871L245.2065431276957,52.78276271658124L245.3612475713094,47.24311858078372L245.5159520149231,52.32410441732976L245.6706564585368,54.29327572719188L245.98006534576416,46.88803418153756L246.13476978937783,56.36158885311231L246.28947423299155,62.85035332990977L246.44417867660522,66.3917139946513L246.75358756383258,73.6224614989512L246.9082920074463,75.30001570442522L247.06299645105997,63.90670454620212L247.21770089467367,62.208514869628566L247.52710978190103,73.64672275425474" fill="none"></path></g></g></g></g><g opacity="0.2"><g><g><g><path style="fill: none;" stroke="rgb(255, 112, 67)" stroke-width="2px" d="M31.250297609965006,110.71706385473433L31.405002053578695,125.62219697483053L31.71441094080607,115.5651376183498L31.86911538441976,120.02433218841591L32.023819828033446,131.91813871490587L32.178524271647134,115.7915337143302L32.48793315887451,125.09736618538986L32.6426376024882,68.89623823530034L32.79734204610189,54.23624031323025L32.95204648971558,54.23624031323025L33.261455376942955,54.005463880398096L33.416159820556636,104.68109139242239L33.570864264170325,74.14881071540084L34.03497759501139,22.743557578723323L34.18968203862508,39.367811106834274L34.34438648223877,98.17397608049562L34.49909092585246,95.29526568934409L34.808499813079834,67.52308166179525L34.96320425669352,107.91849337214086L35.11790870030721,105.76013003400153L35.2726131439209,121.73546060367214L35.58202203114827,125.09219848388817L35.73672647476196,125.09219848388817L35.89143091837565,128.97962353927912L36.35554424921672,122.61537827931771L36.51024869283041,122.61537827931771L36.66495313644409,110.25244616310728L36.81965758005778,109.16623284237969L37.129066467285156,106.06894851427214L37.283770910898845,80.82071175340404L37.43847535451253,80.82071175340404L37.59317979812622,80.82071175340404L37.90258868535359,63.7104985083281L38.05729312896728,80.42047609670688L38.36670201619466,79.0639438278612L38.67611090342204,75.00630439023308L38.83081534703573,102.07777682601755L38.98551979064942,81.42417699690756L39.1402242342631,104.74236720520629L39.44963312149048,158.7295382747495L39.60433756510417,36.89220623489935L39.759042008717856,111.84214247029524L39.913746452331544,91.06117316759658L40.3778597831726,-6.629719322605249L40.53256422678629,18.063813577134383L40.68726867039998,67.76689451962731L40.996677557627365,96.67049790942951L41.15138200124105,56.44064466289709L41.30608644485474,74.97244931587755L41.46079088846842,50.417014192345135L41.7701997756958,64.0265977380489L41.92490421930949,29.56705477875604L42.07960866292318,-2.4897331746388858L42.543721993764244,-15.278552037774306L42.698426437377925,2.8785778974581118L42.853130880991614,13.261704921301417L43.0078353246053,43.727796957023045L43.31724421183268,19.53695067202575L43.471948655446376,-10.037431987462641L43.626653099060064,-13.864104226221121L43.78135754267375,16.76048477658398L44.09076642990112,29.0132132738188L44.24547087351481,77.0343493705724L44.55487976074219,90.11854184582681L44.864288647969566,106.12041327415587L45.01899309158325,103.63206458190406L45.173697535196936,104.27625955863552L45.328401978810625,89.92230230229741L45.637810866038,55.1141367749122L45.79251530965169,45.59349273460738L45.94721975326539,30.615193112018158L46.101924196879075,34.34569721961795L46.411333084106445,157.6903882226859L46.72074197133382,171.10928001088897L46.87544641494751,151.59068395609793L47.18485530217489,148.88753989064583L47.33955974578858,152.74134530298355L47.64896863301595,164.47132969843662L47.958377520243324,149.5129306038843L48.11308196385701,125.4393894231056L48.2677864074707,158.40194716235408L48.4224908510844,150.10253224575007L48.73189973831177,116.06865515340566L48.886604181925456,158.59494035721713L49.041308625539145,133.62739718565405L49.19601306915283,155.48668006466116L49.50542195638021,109.84464521694623L49.6601263999939,110.46911703234596L49.81483084360758,149.00222628662328L49.96953528722127,122.50187428867652L50.433648618062335,105.61527273786358L50.74305750528971,42.11932338384922L51.05246639251708,55.96524137345146L51.20717083613078,13.390021980764443L51.36187527974447,-9.111708081894728L51.516579723358156,16.50486244285253L51.82598861058553,37.91922361895501L51.98069305419922,86.3926084621978L52.13539749781291,123.73894214575574L52.29010194142659,108.12612013811041L52.59951082865397,158.25388580772537L52.75421527226766,175.78865888028696L52.908919715881346,132.00668134932903L53.37303304672242,108.35555314901706L53.527737490336094,165.09257678053888L53.68244193394979,165.09257678053888L54.146555264790855,160.223555084454L54.301259708404544,178.09355448110978L54.45596415201823,196.0298130401839L54.61066859563192,144.66888890937375L54.92007748285929,148.99523867158825L55.07478192647298,190.95985439056753L55.22948637008667,170.0478769756616L55.38419081370036,170.0478769756616L55.693599700927734,134.3927752931948L55.848304144541416,197.1435920675276L56.003008588155105,157.5905322448609L56.1577130317688,177.3661495458997L56.46712191899618,145.72446820006203L56.621826362609866,142.88641761732708L56.776530806223555,144.05380937578582L56.93123524983724,133.75472960653187L57.24064413706461,133.75472960653187L57.3953485806783,141.0886152018393L57.55005302429199,161.38291680962325L57.70475746790568,136.40341484001715L58.01416635513306,156.83839382691573L58.168870798746745,164.3379556553531L58.32357524236043,153.46950577439614L58.478279685974115,161.80981695754176L58.7876885732015,176.55695881631578L58.94239301681519,211.44387636369495L59.561210791269936,199.67603930580609L59.715915234883624,168.02353960024408L59.87061967849731,155.91418220426704L60.025324122111,106.09010645080278L60.33473300933838,151.863433771663L60.48943745295207,152.70882149965854L60.64414189656575,180.55189941731584L61.10825522740682,150.31475006483717L61.26295967102051,137.96180998744404L61.4176641146342,160.83719413886934L61.57236855824789,167.3891970389878L61.88177744547526,164.2877798957698L62.191186332702635,152.5923450438853L62.345890776316324,111.5724935649895L62.6552996635437,120.58939689364763L62.81000410715739,176.62070842379265L62.96470855077108,135.19991351629952L63.11941299438476,164.6250056413477L63.42882188161214,119.96001064197812L63.58352632522583,109.03879998432633L63.73823076883952,100.91835640607866L63.89293521245321,85.99728886173024L64.51175298690795,119.82901563926188L64.66645743052165,130.09074632580368L64.97586631774902,120.6646545639681L65.13057076136272,119.80293423168108L65.2852752049764,95.40647530735706L65.43997964859008,139.1878803856535L65.74938853581746,127.03145851640619L65.90409297943116,121.7835260932445L66.05879742304484,119.0881133993872L66.21350186665853,109.7757421196741L66.52291075388591,77.30519581780469L66.67761519749959,89.21065723475624L66.83231964111327,102.9699243841192L67.29643297195435,107.68312076783903L67.60584185918172,121.14998835111315L67.76054630279542,117.45743588966222L68.22465963363648,103.86337781949702L68.37936407725016,116.00037282674572L68.53406852086385,101.51073346463872L68.99818185170491,129.01053647626543L69.1528862953186,83.32373068841939L69.61699962615967,119.33544437053453L69.77170406977335,111.12182571394727L69.92640851338705,123.41547424456569L70.08111295700073,77.81200831427L70.5452262878418,99.65788836528579L70.69993073145548,118.60316452140341L70.85463517506916,124.38335492033592L71.16404406229654,123.66864648252468L71.31874850591024,127.30313912410196L71.47345294952392,80.24190594688288L71.62815739313761,115.73194698991529L71.937566280365,112.17806713040463L72.09227072397869,109.73613421889578L72.24697516759235,60.68176860491416L72.71108849843344,67.65413142383217L72.86579294204712,60.684507097090275L73.02049738566082,46.34419973994582L73.1752018292745,114.80467970085178L73.48461071650188,130.8767361061335L73.79401960372925,133.64990175332053L73.94872404734294,136.1296525702504L74.25813293457031,123.07573597392623L74.41283737818401,79.71660916007848L74.56754182179769,90.61774608907778L74.72224626541137,101.20428172353824L75.03165515263875,100.19457351088197L75.18635959625244,116.79073966032054L75.34106403986613,127.05437928934373L75.49576848347982,123.91391068131999L75.80517737070718,134.58700957025133L75.95988181432088,129.6268524042092L76.11458625793456,136.71696325280863L76.26929070154826,142.4634791497657L76.57869958877563,138.09007058931854L76.73340403238932,140.36121587208783L76.888108476003,107.15033695378284L77.04281291961671,124.81037921260945L77.35222180684408,100.80429086732401L77.50692625045777,121.71076990413204L77.81633513768514,108.68855812295709L78.12574402491252,99.96839270857276L78.2804484685262,83.26390955782966L78.4351529121399,103.52000813077669L78.58985735575358,107.49741793129964L78.89926624298096,118.21608356630426L79.05397068659465,115.9290039804837L79.20867513020833,109.92533137209709L79.6727884610494,114.82644350559367L79.82749290466309,108.29205782426338L79.98219734827677,98.9775199879211L80.13690179189047,97.97143434236888L80.44631067911783,105.17069525351077L80.60101512273152,93.29148497417982L80.7557195663452,105.54598482981537L80.9104240099589,99.1947956347783L81.21983289718628,97.15623800436884L81.37453734079996,93.22562686411757L81.52924178441366,80.4676425157523L81.68394622802734,83.91916478003131L81.99335511525473,75.97492039911823L82.1480595588684,76.46389002705452L82.3027640024821,79.94720420967093L82.45746844609579,74.20204090261772L82.76687733332317,25.937066106347515L82.92158177693685,45.073050719932034L83.07628622055054,66.1778125223399L83.23099066416422,89.26231337948494L83.5403995513916,106.09410954199937L83.6951039950053,113.22824251618215L83.84980843861898,103.68643196717746L84.00451288223267,111.24525386477865L84.31392176946004,135.83338157168737L84.46862621307373,106.9245223639687L84.62333065668741,106.28212025206562L84.77803510030111,103.5620555398126L85.24214843114217,127.71253667723295L85.39685287475585,130.90876172073732L85.55155731836955,111.82733919784104L85.86096620559692,80.26665648700245L86.0156706492106,96.45302231588646L86.1703750928243,91.88466773590837L86.32507953643798,112.58484899766256L86.63448842366536,73.0849080360358L86.78919286727904,91.64115813752838L86.94389731089275,60.92925972310145L87.09860175450642,83.07531517918068L87.40801064173381,60.7434399190412L87.5627150853475,75.5568819793459L87.71741952896119,72.39316909003789L87.87212397257487,89.64969452808218L88.18153285980225,106.7057322007227L88.33623730341594,101.21321381311918L88.49094174702962,121.56239662520098L88.64564619064332,98.28285824450974L88.95505507787068,97.45271618897536L89.10975952148438,82.99504086280311L89.26446396509806,52.66082073627195L89.41916840871176,53.23330393942066L89.72857729593913,54.43476794615093L89.88328173955281,64.11800882158255L90.0379861831665,86.00210125104152L90.19269062678019,86.14125979239209L90.50209951400757,62.151909544661855L90.65680395762125,62.55001600852717L90.96621284484863,57.92562068039307L91.43032617568969,63.52765884890651L91.58503061930338,58.85018879312287L91.73973506291706,56.394954602088255L92.04914395014444,68.86532796730012L92.20384839375815,49.144125419986686L92.35855283737183,49.79350901862695L92.51325728098551,49.47363752538919L92.82266616821289,39.195655184196234L92.97737061182659,81.22292780936642L93.13207505544027,80.94436175597967L93.28677949905396,80.83886687604868L93.59618838628134,82.15364285269493L93.75089282989502,80.57714315331572L93.9055972735087,95.65456406245956L94.0603017171224,83.31717937074822L94.36971060434978,85.22079012589286L94.52441504796346,97.4317806912705L94.67911949157715,71.79364807757537L94.83382393519084,88.53938686896235L95.14323282241821,102.13623755542051L95.2979372660319,116.98689428458982L95.45264170964559,121.05403511677505L95.60734615325927,106.54114401288595L95.91675504048665,128.24927140945215L96.07145948410033,136.11202805341907L96.22616392771403,149.13173374371922L96.69027725855508,160.78315994282647L96.99968614578246,142.69646390444325L97.15439058939617,120.62463995557121L97.46379947662354,149.6969120889726L98.23732169469199,111.49149576671938L98.39202613830567,126.90440248647742L98.54673058191935,113.61827688268468L98.70143502553304,99.06053837643591L99.01084391276042,90.62608685964712L99.3202527999878,72.48594026607654L99.47495724360148,75.96633541307772L99.78436613082886,66.45785050525788L99.93907057444254,49.31368336368029L100.09377501805623,64.32793516312101L100.24847946166992,84.17938254510402L100.5578883488973,84.54898188675378L100.71259279251099,86.30083832186448L100.86729723612467,98.39577329163446L101.02200167973835,103.66053194445092L101.33141056696573,104.23600475005104L101.48611501057943,89.69285910841913L101.6408194541931,98.59180948977124L101.79552389780682,85.24584112218889L102.10493278503417,103.59428577604595L102.25963722864788,104.18454735079834L102.41434167226156,87.93104270724433L102.56904611587525,89.48532503237178L102.87845500310263,36.463609612227536L103.03315944671631,36.678489611882284L103.18786389033001,46.12495404951247L103.34256833394369,41.189117719569104L103.65197722117107,27.203720500658946L103.80668166478475,8.351149127607922L103.96138610839844,3.0451996612343306L104.11609055201212,10.559809255760998L104.4254994392395,8.271269284297665L104.58020388285318,11.030801298776327L104.73490832646688,9.476695256366982L104.88961277008056,-1.67470376476509L105.35372610092163,30.452267596700683L105.50843054453532,67.4092844073838L105.663134988149,73.80147620095326L105.97254387537637,73.57221637794257L106.12724831899007,90.42543412735479L106.28195276260375,80.98820237266108L106.43665720621745,76.074254266581L106.74606609344484,89.09476369690668L106.90077053705852,67.9331080303271L107.05547498067219,85.9579436084917L107.67429275512696,51.77757096994182L107.82899719874065,77.4010982770377L107.98370164235433,80.2263985736979L108.29311052958171,91.60679065990772L108.44781497319539,87.77490160016856L108.60251941680909,83.82156684413467L108.75722386042277,69.94066339963645L109.06663274765015,77.85880770972318L109.22133719126384,75.55922821301647L109.37604163487752,67.06102529108844L109.5307460784912,53.126424746113344L109.84015496571858,57.392241450347015L109.99485940933228,62.94677000287643L110.30426829655966,59.3601596615996L110.61367718378702,76.7875856977604L110.76838162740071,65.79573811810249L110.9230860710144,67.4779816602978L111.07779051462809,79.06710327358016L111.38719940185547,77.44553864956133L111.54190384546915,84.07583316324985L111.69660828908283,67.71509811983275L111.85131273269654,72.78102086835817L112.16072161992392,80.87476230993776L112.3154260635376,79.48953110455037L112.62483495076498,79.25255774096206L112.93424383799235,73.68242776254225L113.24365272521973,72.35833144873742L113.39835716883341,70.89162746152014L113.70776605606079,78.80473347963905L113.86247049967449,87.16418393105008L114.01717494328817,69.48174201655786L114.17187938690185,79.43018529467612L114.48128827412923,63.15833306473962L114.63599271774292,72.29954686287896L114.7906971613566,65.69716682076054L114.9454016049703,68.28642373718937L115.25481049219766,71.58417644314835L115.40951493581136,63.30072755114776L115.56421937942504,64.41697108991028L115.71892382303874,41.08505462140624L116.1830371538798,61.46098447662299L116.33774159749349,62.24704256098317L116.49244604110717,56.880818145985806L116.80185492833456,69.81477961731483L116.95655937194823,49.58359839101414L117.11126381556194,56.14768899160202L117.26596825917562,60.95632441460551L117.575377146403,39.26696918856818L117.73008159001668,43.307464428639264L117.88478603363038,46.961036838063485L118.03949047724406,43.12992010758073L118.34889936447144,69.32663395101761L118.50360380808513,50.77906702058942L118.65830825169881,60.3782138854798L118.81301269531251,56.78719738260646L119.12242158253987,73.77963404711606L119.27712602615357,67.38277227831546L119.43183046976725,66.763002560598L119.58653491338094,57.742762036831294L119.89594380060832,60.255824391638L120.050648244222,60.77078849301144L120.20535268783568,65.10938808919951L120.36005713144938,61.16545163607444L120.66946601867676,75.27358802843955L120.82417046229044,76.30120976123011L120.97887490590414,57.23346960850044L121.13357934951782,54.91479075403499L121.4429882367452,62.32260614864527L121.59769268035888,64.47075801326321L121.75239712397259,60.656784430972735L122.21651045481364,64.38893822644654L122.37121489842734,63.385034045216386L122.52591934204102,69.04456630468164L122.6806237856547,69.98942334341456L122.99003267288208,90.12273989157578L123.14473711649578,91.25913561323686L123.45414600372315,86.1345778268212L123.76355489095052,85.01291708348457L123.91825933456421,89.38898930832285L124.0729637781779,91.94372341948417L124.22766822179159,80.44000257841297L124.53707710901897,99.37324719810616L124.69178155263265,82.29941101653552L124.84648599624633,97.78651618820139L125.3105993270874,82.75393342033306L125.46530377070108,82.98392336405388L125.62000821431478,103.37357760222451L125.77471265792846,103.37699266122047L126.08412154515584,84.34689788260897L126.23882598876952,83.69033997535902L126.39353043238322,94.61205335385795L126.5482348759969,85.25705492030559L126.85764376322427,82.92493728047283L127.01234820683798,81.84625025005045L127.16705265045167,70.9805350113862L127.32175709406535,90.27029398915676L127.63116598129272,95.68944096992924L127.78587042490642,85.8881057010167L127.9405748685201,82.51310509375807L128.09527931213378,65.07349109102896L128.40468819936117,83.97931433371183L128.55939264297484,77.60404495155288L129.17821041742963,72.87078958707569L129.3329148610433,68.20099254870057L129.487619304657,66.63218770154388L129.64232374827068,68.5165911308747L129.95173263549805,56.006621391552535L130.10643707911174,46.17145198076033L130.26114152272544,45.774734848842044L130.4158459663391,42.755664219408246L130.7252548535665,63.06479246818886L130.87995929718016,54.17893520056344L131.03466374079386,57.18603880758164L131.49877707163492,70.76015854731428L131.8081859588623,57.27861896163109L131.962890402476,52.85234985629023L132.27229928970337,79.13327082665948L132.58170817693073,72.43874194904565L132.73641262054443,59.91873488744652L133.2005259513855,67.86418082178507L133.35523039499918,69.26868327497735L133.50993483861288,54.400884975659956L133.81934372584024,64.42442725275475L133.97404816945394,53.93382143194022L134.12875261306763,66.79558840271848L134.2834570566813,59.86375196478778L134.5928659439087,54.288536528252074L134.7475703875224,59.4873289493999L135.36638816197714,51.380314183646604L135.52109260559084,30.37911404142412L135.6757970492045,63.38505659582292L135.8305014928182,51.62571901637906L136.13991038004556,68.60501607847823L136.29461482365926,70.29551769674976L136.44931926727295,63.457908242209186L136.60402371088665,55.74869884614509L136.913432598114,42.44782445459336L137.0681370417277,51.30351443837619L137.37754592895507,-27.550961377749797L140.0075214703878,-4.439896300151331L140.31693035761518,113.93860472942494L140.47163480122884,101.95457838980232L140.7810436884562,101.18370396538138L141.2451570192973,67.28948145489093L141.55456590652466,25.960860966660867L141.70927035013833,-22.328236283564397L142.4827925682068,-33.932055939181495L142.63749701182047,10.694361167202892L142.79220145543417,41.29045699054563L143.10161034266153,137.7229346061837L143.25631478627523,135.2904546997647L143.41101922988892,143.985573993583L143.5657236735026,139.84336000653852L143.87513256073,125.75653470756458L144.02983700434368,138.95008303382525L144.18454144795737,125.18692898414686L144.64865477879843,90.89750067761284L144.80335922241213,77.19137202656597L144.9580636660258,92.20386865870073L145.1127681096395,84.92270493211527L145.42217699686688,75.54967961122537L145.57688144048055,93.95482244941691L145.73158588409424,88.0660317491765L145.8862903277079,95.24645636208031L146.1956992149353,117.61227491847137L146.350403658549,126.50977903532748L146.65981254577636,130.00961847559287L146.96922143300375,135.19199024879964L147.12392587661742,137.8464332782141L147.27863032023112,166.52642271960426L147.4333347638448,170.86279973562554L147.74274365107217,133.74297522214002L147.89744809468587,121.32933869500376L148.20685698191326,131.44698363876267L148.51626586914062,154.3300807939504L148.6709703127543,117.12435278837707L148.82567475636802,110.25800399523656L148.9803791999817,141.99316426329787L149.28978808720905,117.90130463489592L149.44449253082274,133.72516274771687L149.59919697443647,147.04008602533438L149.75390141805013,146.1204095771338L150.0633103052775,155.21055398666496L150.2180147488912,171.491712250264L150.3727191925049,171.4748087523215L150.52742363611858,136.4250547743377L150.83683252334595,154.49276847731235L150.99153696695964,120.43147400510121L151.61035474141437,165.15057996117858L151.7650591850281,133.1669345380872L151.91976362864176,142.38565614632472L152.07446807225546,163.9197792728486L152.53858140309652,166.29241906535916L152.6932858467102,139.94641391630572L152.84799029032388,135.05573505450806L153.15739917755127,125.16671087600024L153.31210362116497,126.18399038520081L153.46680806477863,133.7342950493514L153.62151250839233,133.8003249429971L153.93092139561972,130.1269837125883L154.08562583923342,141.2482199074611L154.24033028284708,101.2445218790654L154.39503472646075,96.36883434267286L154.70444361368817,103.40637149876326L155.01385250091553,100.98282863246403L155.1685569445292,94.42837813401313L155.4779658317566,97.0930457433672L155.6326702753703,106.88616054782932L155.78737471898395,90.32148168357526L156.25148804982504,105.64081978138194L156.4061924934387,120.35369000820424L156.5608969370524,123.83252736530086L156.7156013806661,115.99095131669421L157.02501026789346,100.46970745288857L157.17971471150716,91.71966857247898L157.33441915512083,75.88741829687159L157.7985324859619,51.956910133539104L157.95323692957558,62.03804924680392L158.1079413731893,68.12104651931685L158.26264581680297,58.34313132043307L158.57205470403034,24.262672381885796L158.72675914764403,60.27710055804597L158.88146359125776,108.29412171234485L159.03616803487142,110.67070335451166L159.3455769220988,122.8932141821867L159.65498580932618,154.72240724550227L160.27380358378093,138.09645729469574L160.42850802739463,146.617902203599L160.5832124710083,136.31053815006638L161.04732580184938,146.81394163339547L161.20203024546305,128.79508274525207L161.35673468907675,166.36169979847818L161.66614357630414,137.25911896884028L161.8208480199178,164.39213093159444L162.13025690714517,135.8386033939385L162.43966579437256,134.82033502618768L162.59437023798625,140.16200222966657L162.74907468159992,145.12270725021156L162.90377912521362,137.95596929386966L163.213188012441,146.358604468841L163.36789245605468,143.90090847346156L163.52259689966837,139.38583418451876L163.67730134328204,121.68528395429993L163.98671023050946,146.2488556303524L164.14141467412313,122.48569828377478L164.4508235613505,139.03492172250864L164.76023244857788,157.45184474176185L164.91493689219158,130.24160479921903L165.06964133580524,125.92476638649084L165.22434577941897,140.61198628041817L165.53375466664633,118.36753654768918L165.68845911026,98.37467838323099L165.9978679974874,126.82501484957061L166.30727688471475,137.39725703867586L166.46198132832845,111.48557575665409L166.61668577194214,109.55593755081452L166.77139021555584,109.3664871581634L167.0807991027832,115.79579246711486L167.23550354639687,114.70134537684383L167.85432132085162,103.02697497751163L168.00902576446535,99.50288230594184L168.16373020807902,98.88051995637433L168.3184346516927,109.05599309403927L168.62784353892008,97.86280990005059L168.7825479825338,76.20904065298483L168.93725242614747,80.49879454686437L169.09195686976113,81.92669534842264L169.4013657569885,92.35429730063579L169.55607020060222,92.58281129743558L169.71077464421592,88.10313293084812L170.48429686228434,111.37020885540213L170.63900130589803,102.81236271721654L170.94841019312543,102.58261373914328L171.1031146367391,122.19692924522049L171.2578190803528,125.62938120425648L171.41252352396646,129.9700458512592L171.72193241119385,105.63742425761967L171.87663685480754,114.82669712539116L172.0313412984212,106.80784554838807L172.1860457420349,78.4979943923355L172.4954546292623,72.87424750036482L172.65015907287597,93.6876095876925L172.80486351648966,73.41929065920341L172.95956796010333,78.69823989783411L173.26897684733072,80.5421054509577L173.42368129094442,73.8165821260281L173.57838573455808,68.77913177171973L173.7330901781718,60.34362918871437L174.19720350901284,80.1577449958878L174.35190795262653,72.67484087316839L174.50661239624026,80.64240089718409L174.81602128346762,75.38846419573406L174.9707257270813,85.61547879276203L175.125430170695,93.97710809077722L175.28013461430868,106.04354271700069L175.58954350153604,89.5694378402506L175.74424794514974,110.9781928754134L175.89895238876343,99.18362078585889L176.05365683237713,87.83113990654903L176.3630657196045,42.23757684243517L176.51777016321816,23.561329962927122L176.67247460683188,29.263079198046814L176.82717905044555,15.909774106383356L177.1365879376729,21.553826948553212L177.29129238128664,16.387526663629796L177.4459968249003,14.128880510501979L177.600701268514,16.625798357222465L177.91011015574136,7.202840777246611L178.21951904296876,22.716846153479125L178.37422348658242,32.253664928541845L178.68363237380984,31.95213766394245L178.8383368174235,57.993372341725305L178.9930412610372,81.87669095542482L179.14774570465087,131.81702948633145L179.45715459187826,155.1921556531596L179.61185903549196,156.98288474766017L179.76656347910563,170.0004502942394L179.92126792271932,174.17755862363805L180.23067680994671,163.36621536165114L180.38538125356038,159.73077064827103L180.54008569717408,162.5629871079241L181.00419902801514,161.24937229169814L181.15890347162883,137.74767008903308L181.3136079152425,161.16920639435844L181.4683123588562,206.73251880515596L181.7777212460836,175.98026018624668L181.93242568969725,168.47546035894572L182.08713013331095,191.13781839108492L182.24183457692465,157.6766600533003L182.551243464152,176.76684318736392L182.7059479077657,189.2330301344736L182.86065235137937,158.65465134770278L183.0153567949931,145.9820839237419L183.32476568222046,182.39870961420206L183.47947012583413,163.12649505840204L183.63417456944785,148.14527143391157L183.78887901306155,146.24153492048657L184.25299234390258,129.7877025587919L184.4076967875163,138.89608612449936L184.87181011835733,128.50211484639286L185.02651456197103,150.00113212981103L185.18121900558472,140.16258569811893L185.33592344919842,134.36438969825264L185.64533233642578,136.42377261503378L185.80003678003948,120.50584904823927L185.95474122365317,129.62067541120297L186.10944566726684,141.39001944645045L186.4188545544942,109.55948384724846L186.57355899810793,132.00767888655565L186.7282634417216,136.58885359983648L186.8829678853353,103.84592400527761L187.19237677256268,151.0486621215319L187.34708121617635,127.1271881527364L187.50178565979004,115.0701010614673L187.6564901034037,134.59396497704347L187.9658989906311,133.50756278854942L188.1206034342448,138.75113774874032L188.27530787785847,119.8909058250689L188.73942120869955,128.12063861843225L188.89412565231325,123.51733759384393L189.20353453954058,135.67203575740726L189.512943426768,129.08677786159146L189.82235231399537,115.42297223129441L189.97705675760903,127.38337582866359L190.28646564483643,127.41560716705804L190.44117008845012,114.39199479525938L190.5958745320638,127.73994811354132L190.7505789756775,133.86114854885045L191.05998786290488,111.41729940843071L191.21469230651854,105.96648451033448L191.36939675013224,122.29383118975667L191.52410119374593,117.90517177142084L191.8335100809733,119.95789288778421L192.14291896820066,108.59168949820656L192.29762341181439,93.17215306336941L192.60703229904175,114.96158001972461L192.76173674265542,109.54265938285646L192.91644118626914,107.7375123099139L193.0711456298828,107.05422442150514L193.38055451711017,107.28220206457374L193.6899634043376,107.30750241298945L193.84466784795126,92.94986574919085L194.15407673517862,95.30586550241848L194.30878117879234,90.02025879644242L194.463485622406,104.14708463578164L194.6181900660197,95.27384981259509L195.08230339686077,100.49374555532874L195.23700784047446,85.8656524842125L195.85582561492922,76.30557894637082L196.01053005854288,68.52595411692832L196.16523450215658,67.94437281136348L196.47464338938397,70.88698765404186L196.62934783299764,68.14779860943841L196.78405227661133,63.30666518205057L196.938756720225,62.836717211381774L197.4028700510661,57.50402853988457L197.71227893829345,48.428228951539396L198.02168782552084,58.79900877424762L198.1763922691345,51.29348836996508L198.3310967127482,64.29137479701375L198.48580115636187,65.47021973477327L198.7952100435893,51.03252150885666L198.94991448720296,62.55507348723089L199.10461893081663,57.405749698458834L199.25932337443032,58.466376325168135L199.56873226165771,65.11873654465481L199.7234367052714,57.30633379428351L200.0328455924988,59.35141396343352L200.34225447972617,50.01356471166449L200.49695892333983,63.91755215172177L200.65166336695353,60.07030048541309L201.1157766977946,51.60071253506858L201.27048114140828,64.39390007337492L201.42518558502198,71.34052337540574L201.57989002863567,61.48945635274526L201.88929891586304,37.673589965153134L202.0440033594767,66.58835067370377L202.81752557754518,79.07310321655844L202.97223002115885,87.66732867899319L203.12693446477255,98.39147613629702L203.4363433519999,97.54562036963421L203.59104779561363,103.42991944041557L203.7457522392273,101.6549662916368L204.36457001368206,95.53556290859157L204.51927445729575,104.62201850465371L204.67397890090942,117.45634083292677L204.9833877881368,93.16663353897981L205.1380922317505,106.0839391380054L205.29279667536417,94.90241185815596L205.44750111897787,113.93598142867697L205.91161444981893,89.26461773070763L206.06631889343262,102.691024761153L206.2210233370463,89.04257305142266L206.53043222427368,97.49916991569363L206.68513666788738,105.24682522810984L206.99454555511474,90.02902942004745L207.30395444234213,110.31398028930722L207.4586588859558,117.1099672860576L207.6133633295695,105.91097106187094L207.76806777318316,88.24123586954099L208.23218110402425,102.46575936888142L208.38688554763792,103.63729338813181L209.00570332209267,102.0005058900497L209.16040776570637,93.4662211593863L209.3151122093201,97.93006440073236L209.62452109654745,92.95256073636529L209.77922554016112,88.08292781377439L209.93392998377485,116.16004942511066L210.0886344273885,107.14838753892354L210.39804331461588,98.42616183974108L210.55274775822957,112.97091678254156L210.86215664545696,107.49757878813702L211.17156553268433,97.00668431432116L211.326269976298,111.01261628589087L211.48097441991172,98.04595708652579L211.63567886352538,125.55348054958067L211.94508775075275,94.77284019390832L212.09979219436647,102.47343797191726L212.25449663798014,116.45808491320662L212.40920108159384,112.51320861277355L212.7186099688212,115.4328728412745L212.8733144124349,105.57646439417712L213.0280188560486,105.9968152631338L213.18272329966226,110.1532520268611L213.49213218688968,104.41366070496142L213.64683663050334,101.30283105961314L213.80154107411704,111.85028513121064L213.9562455177307,122.9710347554789L214.2656544049581,114.99751786064472L214.4203588485718,99.37502251350412L214.57506329218546,106.6509649277242L214.72976773579916,110.92981571493085L215.03917662302655,102.94550998511643L215.3485855102539,87.92928253661451L215.81269884109497,93.69162749592458L215.96740328470867,96.41158516895533L216.12210772832233,98.0689595557198L216.27681217193603,93.61657160755875L216.58622105916342,90.28097747109615L216.7409255027771,72.55269043862202L217.05033439000448,84.20989764670618L217.35974327723184,81.09448645368612L217.51444772084554,91.77820967908048L217.6691521644592,82.92561905632658L217.82385660807293,83.72581107996295L218.1332654953003,75.67138941982154L218.28796993891396,76.84225445038115L218.44267438252768,84.78701560168805L218.59737882614138,80.27555567962L218.90678771336871,89.27286942705034L219.0614921569824,82.27266927932551L219.21619660059613,78.4931212919712L219.3709010442098,75.14029741120422L219.68030993143717,82.85895355487959L219.83501437505086,80.57588807319256L219.98971881866456,72.7134174164571L220.14442326227825,69.52897159899183L220.45383214950562,74.0234730046335L220.6085365931193,57.09264383228081L220.763241036733,74.56443548653998L220.91794548034667,75.46366656400491L221.38205881118776,78.66987223651468L221.53676325480143,79.32969118828403L221.69146769841512,71.7321121016289L222.00087658564252,78.20719722518625L222.15558102925618,65.2208888193645L222.31028547286988,85.95311929489074L222.46498991648355,75.01702276444294L222.92910324732463,80.78224643949989L223.0838076909383,69.18954078620881L223.238512134552,78.13831075018248L223.5479210217794,73.72518432498457L223.70262546539308,60.28422276109967L223.85732990900675,77.66195620470153L224.01203435262042,81.3961192648137L224.32144323984784,80.9614570251758L224.4761476834615,75.701674017196L224.6308521270752,76.74625787069708L224.78555657068887,72.03865179912916L225.09496545791626,70.77184144242617L225.24966990152996,82.28254651341332L225.40437434514362,83.6658086698703L225.55907878875735,74.89022724191261L225.8684876759847,81.5930760160432L226.02319211959838,78.95817180137993L226.17789656321207,71.84607619516798L226.33260100682577,60.85454992494315L226.64200989405313,78.43098901278462L226.79671433766683,72.54981940963326L226.9514187812805,73.18481352537444L227.10612322489422,68.7722352419009L227.41553211212158,71.2570912487214L227.57023655573525,79.85604651607771L227.72494099934897,83.57047542520868L227.87964544296264,67.63267160477582L228.18905433019,57.91908049266673L228.3437587738037,63.624673181576405L228.49846321741742,60.61470262609193L228.6531676610311,52.666704186369294L228.96257654825845,37.71747464668548L229.11728099187218,6.730684859748213L229.27198543548585,14.37057644476565L229.42668987909954,17.550183134887376L229.7360987663269,19.33969235531591L229.8908032099406,7.301266855322069L230.0455076535543,35.880910157229806L230.20021209716796,42.437756941248L230.81902987162272,28.171382506502987L230.9737343152364,51.18232567474128L231.2831432024638,37.37339590365913L231.43784764607747,54.83825190739882L231.59255208969117,52.37095576922729L231.74725653330484,54.21801253349217L232.05666542053223,54.570883940295275L232.21136986414592,43.717205517522615L232.3660743077596,49.15412291526886L232.52077875137329,51.23189982261571L232.83018763860068,59.35588993454021L232.98489208221434,58.997744813572496L233.13959652582804,44.82660005175664L233.2943009694417,58.66442784027244L233.60370985666913,69.1813335483579L233.7584143002828,45.364898806799765L233.91311874389646,35.013898437008706L234.06782318751016,53.43477620666956L234.37723207473755,74.0274031638358L234.53193651835124,73.23051032770555L234.6866409619649,66.76318867114026L234.84134540557864,50.03957389126078L235.150754292806,60.355459554837786L235.30545873641967,64.29775349458144L235.46016318003336,79.34991057961322L235.61486762364706,69.14981876722106L235.92427651087442,67.50910814292395L236.07898095448812,62.23950025297713L236.2336853981018,80.81567361642514L236.3883898417155,82.31194868506856L236.69779872894287,77.53352343958656L236.85250317255654,63.20087307772948L237.00720761617026,78.62074297625006L237.16191205978393,59.36315834899189L237.4713209470113,71.47780017355134L237.62602539062502,67.06957526381646L237.78072983423868,59.747981560002195L237.93543427785238,49.92643106000745L238.24484316507974,63.33271798422227L238.55425205230713,57.56974331655396L239.01836538314816,78.96139975699643L239.1730698267619,72.01205836940352L239.32777427037558,67.195324834433L239.48247871398925,70.33619044154598L239.79188760121664,69.91950097690423L239.94659204483034,81.59732353380484L240.2560009320577,77.64386204665374L240.5654098192851,74.1110522992333L240.72011426289876,64.10944994839302L240.87481870651246,65.82320284384247L241.02952315012612,78.70244050013184L241.33893203735352,57.39395923057721L241.4936364809672,81.11261443049528L241.64834092458088,73.38250234305069L241.80304536819457,61.66664837351158L242.11245425542197,75.15319056458871L242.26715869903563,66.4596484003794L242.42186314264933,72.53404237557253L242.576567586263,82.24534381929632L242.8859764734904,79.81713449761605L243.04068091710408,78.01977751983391L243.19538536071775,86.6922425612175L243.35008980433147,83.25344831288865L243.65949869155884,73.7056268107899L243.8142031351725,68.33488232543685L244.12361202239993,74.19016957848781L244.4330209096273,65.93427411748844L244.58772535324096,54.44883705543943L244.74242979685468,62.643516764158555L244.89713424046835,39.34794239603549L245.2065431276957,52.2184953590605L245.3612475713094,39.430422696554906L245.5159520149231,60.42169615302084L245.6706564585368,57.315715803115886L245.98006534576416,36.64948357732155L246.13476978937783,72.33048408136678L246.28947423299155,73.37483710485644L246.44417867660522,71.93041405621875L246.75358756383258,85.46127834400403L246.9082920074463,77.86601040007928L247.06299645105997,48.787695806566106L247.21770089467367,59.710054679540555L247.52710978190103,93.44211390568395" fill="none"></path></g></g></g></g></g></g><g transform="translate(51, 177)" clip-path="url(#clip_1)"><clipPath id="clip_1"><rect width="278" height="22"></rect></clipPath><g><g><line x1="0" y1="0" x2="0" y2="5" style="visibility: inherit;" fill="rgb(0, 0, 0)" stroke="rgb(204, 204, 204)" stroke-width="1px"></line><line x1="30.94088872273763" y1="0" x2="30.94088872273763" y2="5" style="visibility: inherit;" fill="rgb(0, 0, 0)" stroke="rgb(204, 204, 204)" stroke-width="1px"></line><line x1="61.88177744547526" y1="0" x2="61.88177744547526" y2="5" style="visibility: inherit;" fill="rgb(0, 0, 0)" stroke="rgb(204, 204, 204)" stroke-width="1px"></line><line x1="92.82266616821289" y1="0" x2="92.82266616821289" y2="5" style="visibility: inherit;" fill="rgb(0, 0, 0)" stroke="rgb(204, 204, 204)" stroke-width="1px"></line><line x1="123.76355489095052" y1="0" x2="123.76355489095052" y2="5" style="visibility: inherit;" fill="rgb(0, 0, 0)" stroke="rgb(204, 204, 204)" stroke-width="1px"></line><line x1="154.70444361368817" y1="0" x2="154.70444361368817" y2="5" style="visibility: inherit;" fill="rgb(0, 0, 0)" stroke="rgb(204, 204, 204)" stroke-width="1px"></line><line x1="185.64533233642578" y1="0" x2="185.64533233642578" y2="5" style="visibility: inherit;" fill="rgb(0, 0, 0)" stroke="rgb(204, 204, 204)" stroke-width="1px"></line><line x1="216.58622105916342" y1="0" x2="216.58622105916342" y2="5" style="visibility: inherit;" fill="rgb(0, 0, 0)" stroke="rgb(204, 204, 204)" stroke-width="1px"></line><line x1="247.52710978190103" y1="0" x2="247.52710978190103" y2="5" style="visibility: inherit;" fill="rgb(0, 0, 0)" stroke="rgb(204, 204, 204)" stroke-width="1px"></line><line x1="278.4679985046387" y1="0" x2="278.4679985046387" y2="5" style="visibility: inherit;" fill="rgb(0, 0, 0)" stroke="rgb(204, 204, 204)" stroke-width="1px"></line></g><g transform="translate(0, 8)"><text style="text-anchor: middle; visibility: hidden; font-family: Roboto, sans-serif; font-size: 12px; font-weight: 200;" x="0" y="0" dx="0em" dy="0.95em" fill="rgb(50, 49, 63)" stroke="none" stroke-width="1px">-200</text><text style="text-anchor: middle; visibility: inherit; font-family: Roboto, sans-serif; font-size: 12px; font-weight: 200;" x="30.94088872273763" y="0" dx="0em" dy="0.95em" fill="rgb(50, 49, 63)" stroke="none" stroke-width="1px">0</text><text style="text-anchor: middle; visibility: inherit; font-family: Roboto, sans-serif; font-size: 12px; font-weight: 200;" x="61.88177744547526" y="0" dx="0em" dy="0.95em" fill="rgb(50, 49, 63)" stroke="none" stroke-width="1px">200</text><text style="text-anchor: middle; visibility: inherit; font-family: Roboto, sans-serif; font-size: 12px; font-weight: 200;" x="92.82266616821289" y="0" dx="0em" dy="0.95em" fill="rgb(50, 49, 63)" stroke="none" stroke-width="1px">400</text><text style="text-anchor: middle; visibility: inherit; font-family: Roboto, sans-serif; font-size: 12px; font-weight: 200;" x="123.76355489095052" y="0" dx="0em" dy="0.95em" fill="rgb(50, 49, 63)" stroke="none" stroke-width="1px">600</text><text style="text-anchor: middle; visibility: inherit; font-family: Roboto, sans-serif; font-size: 12px; font-weight: 200;" x="154.70444361368817" y="0" dx="0em" dy="0.95em" fill="rgb(50, 49, 63)" stroke="none" stroke-width="1px">800</text><text style="text-anchor: middle; visibility: inherit; font-family: Roboto, sans-serif; font-size: 12px; font-weight: 200;" x="185.64533233642578" y="0" dx="0em" dy="0.95em" fill="rgb(50, 49, 63)" stroke="none" stroke-width="1px">1k</text><text style="text-anchor: middle; visibility: inherit; font-family: Roboto, sans-serif; font-size: 12px; font-weight: 200;" x="216.58622105916342" y="0" dx="0em" dy="0.95em" fill="rgb(50, 49, 63)" stroke="none" stroke-width="1px">1.2k</text><text style="text-anchor: middle; visibility: inherit; font-family: Roboto, sans-serif; font-size: 12px; font-weight: 200;" x="247.52710978190103" y="0" dx="0em" dy="0.95em" fill="rgb(50, 49, 63)" stroke="none" stroke-width="1px">1.4k</text><text style="text-anchor: middle; visibility: hidden; font-family: Roboto, sans-serif; font-size: 12px; font-weight: 200;" x="278.4679985046387" y="0" dx="0em" dy="0.95em" fill="rgb(50, 49, 63)" stroke="none" stroke-width="1px">1.6k</text></g><line x1="0" y1="0" x2="278.4679985046387" y2="0" fill="rgb(0, 0, 0)" stroke="rgb(204, 204, 204)" stroke-width="1px"></line></g></g></g></g></svg>