<svg viewBox="0 0 330 200" xmlns="http://www.w3.org/2000/svg"><g><g><g><g><g><line x1="51.53200149536133" y1="177.86299896240234" x2="46.53200149536133" y2="177.86299896240234" style="visibility: inherit;" fill="rgb(0, 0, 0)" stroke="rgb(204, 204, 204)" stroke-width="1px"></line><line x1="51.53200149536133" y1="163.04108238220215" x2="46.53200149536133" y2="163.04108238220215" style="visibility: inherit;" fill="rgb(0, 0, 0)" stroke="rgb(204, 204, 204)" stroke-width="1px"></line><line x1="51.53200149536133" y1="148.21916580200195" x2="46.53200149536133" y2="148.21916580200195" style="visibility: inherit;" fill="rgb(0, 0, 0)" stroke="rgb(204, 204, 204)" stroke-width="1px"></line><line x1="51.53200149536133" y1="133.39724922180176" x2="46.53200149536133" y2="133.39724922180176" style="visibility: inherit;" fill="rgb(0, 0, 0)" stroke="rgb(204, 204, 204)" stroke-width="1px"></line><line x1="51.53200149536133" y1="118.57533264160156" x2="46.53200149536133" y2="118.57533264160156" style="visibility: inherit;" fill="rgb(0, 0, 0)" stroke="rgb(204, 204, 204)" stroke-width="1px"></line><line x1="51.53200149536133" y1="103.75341606140135" x2="46.53200149536133" y2="103.75341606140135" style="visibility: inherit;" fill="rgb(0, 0, 0)" stroke="rgb(204, 204, 204)" stroke-width="1px"></line><line x1="51.53200149536133" y1="88.93149948120117" x2="46.53200149536133" y2="88.93149948120117" style="visibility: inherit;" fill="rgb(0, 0, 0)" stroke="rgb(204, 204, 204)" stroke-width="1px"></line><line x1="51.53200149536133" y1="74.10958290100098" x2="46.53200149536133" y2="74.10958290100098" style="visibility: inherit;" fill="rgb(0, 0, 0)" stroke="rgb(204, 204, 204)" stroke-width="1px"></line><line x1="51.53200149536133" y1="59.28766632080077" x2="46.53200149536133" y2="59.28766632080077" style="visibility: inherit;" fill="rgb(0, 0, 0)" stroke="rgb(204, 204, 204)" stroke-width="1px"></line><line x1="51.53200149536133" y1="44.465749740600586" x2="46.53200149536133" y2="44.465749740600586" style="visibility: inherit;" fill="rgb(0, 0, 0)" stroke="rgb(204, 204, 204)" stroke-width="1px"></line><line x1="51.53200149536133" y1="29.643833160400384" x2="46.53200149536133" y2="29.643833160400384" style="visibility: inherit;" fill="rgb(0, 0, 0)" stroke="rgb(204, 204, 204)" stroke-width="1px"></line><line x1="51.53200149536133" y1="14.821916580200183" x2="46.53200149536133" y2="14.821916580200183" style="visibility: inherit;" fill="rgb(0, 0, 0)" stroke="rgb(204, 204, 204)" stroke-width="1px"></line><line x1="51.53200149536133" y1="0" x2="46.53200149536133" y2="0" style="visibility: inherit;" fill="rgb(0, 0, 0)" stroke="rgb(204, 204, 204)" stroke-width="1px"></line></g><g transform="translate(41.53200149536133, 0)"><text style="text-anchor: end; visibility: hidden; font-family: Roboto, sans-serif; font-size: 12px; font-weight: 200;" x="0" y="177.86299896240234" dx="0em" dy="0.3em" fill="rgb(50, 49, 63)" stroke="none" stroke-width="1px">0</text><text style="text-anchor: end; visibility: inherit; font-family: Roboto, sans-serif; font-size: 12px; font-weight: 200;" x="0" y="163.04108238220215" dx="0em" dy="0.3em" fill="rgb(50, 49, 63)" stroke="none" stroke-width="1px">0.05</text><text style="text-anchor: end; visibility: hidden; font-family: Roboto, sans-serif; font-size: 12px; font-weight: 200;" x="0" y="148.21916580200195" dx="0em" dy="0.3em" fill="rgb(50, 49, 63)" stroke="none" stroke-width="1px">0.1</text><text style="text-anchor: end; visibility: inherit; font-family: Roboto, sans-serif; font-size: 12px; font-weight: 200;" x="0" y="133.39724922180176" dx="0em" dy="0.3em" fill="rgb(50, 49, 63)" stroke="none" stroke-width="1px">0.15</text><text style="text-anchor: end; visibility: hidden; font-family: Roboto, sans-serif; font-size: 12px; font-weight: 200;" x="0" y="118.57533264160156" dx="0em" dy="0.3em" fill="rgb(50, 49, 63)" stroke="none" stroke-width="1px">0.2</text><text style="text-anchor: end; visibility: inherit; font-family: Roboto, sans-serif; font-size: 12px; font-weight: 200;" x="0" y="103.75341606140135" dx="0em" dy="0.3em" fill="rgb(50, 49, 63)" stroke="none" stroke-width="1px">0.25</text><text style="text-anchor: end; visibility: hidden; font-family: Roboto, sans-serif; font-size: 12px; font-weight: 200;" x="0" y="88.93149948120117" dx="0em" dy="0.3em" fill="rgb(50, 49, 63)" stroke="none" stroke-width="1px">0.3</text><text style="text-anchor: end; visibility: inherit; font-family: Roboto, sans-serif; font-size: 12px; font-weight: 200;" x="0" y="74.10958290100098" dx="0em" dy="0.3em" fill="rgb(50, 49, 63)" stroke="none" stroke-width="1px">0.35</text><text style="text-anchor: end; visibility: hidden; font-family: Roboto, sans-serif; font-size: 12px; font-weight: 200;" x="0" y="59.28766632080077" dx="0em" dy="0.3em" fill="rgb(50, 49, 63)" stroke="none" stroke-width="1px">0.4</text><text style="text-anchor: end; visibility: inherit; font-family: Roboto, sans-serif; font-size: 12px; font-weight: 200;" x="0" y="44.465749740600586" dx="0em" dy="0.3em" fill="rgb(50, 49, 63)" stroke="none" stroke-width="1px">0.45</text><text style="text-anchor: end; visibility: hidden; font-family: Roboto, sans-serif; font-size: 12px; font-weight: 200;" x="0" y="29.643833160400384" dx="0em" dy="0.3em" fill="rgb(50, 49, 63)" stroke="none" stroke-width="1px">0.5</text><text style="text-anchor: end; visibility: inherit; font-family: Roboto, sans-serif; font-size: 12px; font-weight: 200;" x="0" y="14.821916580200183" dx="0em" dy="0.3em" fill="rgb(50, 49, 63)" stroke="none" stroke-width="1px">0.55</text><text style="text-anchor: end; visibility: hidden; font-family: Roboto, sans-serif; font-size: 12px; font-weight: 200;" x="0" y="0" dx="0em" dy="0.3em" fill="rgb(50, 49, 63)" stroke="none" stroke-width="1px">0.6</text></g><line x1="51.53200149536133" y1="0" x2="51.53200149536133" y2="177.86299896240234" fill="rgb(0, 0, 0)" stroke="rgb(204, 204, 204)" stroke-width="1px"></line></g></g><g transform="translate(51, 0)" clip-path="url(#clip_0)"><clipPath id="clip_0"><rect width="278" height="177"></rect></clipPath><g><g><g><line x1="0" y1="0" x2="0" y2="177.86299896240234" fill="rgb(0, 0, 0)" stroke="rgb(60, 60, 60)" stroke-width="1px" opacity="0.25"></line><line x1="34.808499813079834" y1="0" x2="34.808499813079834" y2="177.86299896240234" fill="rgb(0, 0, 0)" stroke="rgb(60, 60, 60)" stroke-width="1px" opacity="0.25"></line><line x1="69.61699962615967" y1="0" x2="69.61699962615967" y2="177.86299896240234" fill="rgb(0, 0, 0)" stroke="rgb(60, 60, 60)" stroke-width="1px" opacity="0.25"></line><line x1="104.4254994392395" y1="0" x2="104.4254994392395" y2="177.86299896240234" fill="rgb(0, 0, 0)" stroke="rgb(60, 60, 60)" stroke-width="1px" opacity="0.25"></line><line x1="139.23399925231934" y1="0" x2="139.23399925231934" y2="177.86299896240234" fill="rgb(0, 0, 0)" stroke="rgb(60, 60, 60)" stroke-width="1px" opacity="0.25"></line><line x1="174.04249906539917" y1="0" x2="174.04249906539917" y2="177.86299896240234" fill="rgb(0, 0, 0)" stroke="rgb(60, 60, 60)" stroke-width="1px" opacity="0.25"></line><line x1="208.850998878479" y1="0" x2="208.850998878479" y2="177.86299896240234" fill="rgb(0, 0, 0)" stroke="rgb(60, 60, 60)" stroke-width="1px" opacity="0.25"></line><line x1="243.65949869155884" y1="0" x2="243.65949869155884" y2="177.86299896240234" fill="rgb(0, 0, 0)" stroke="rgb(60, 60, 60)" stroke-width="1px" opacity="0.25"></line><line x1="278.4679985046387" y1="0" x2="278.4679985046387" y2="177.86299896240234" fill="rgb(0, 0, 0)" stroke="rgb(60, 60, 60)" stroke-width="1px" opacity="0.25"></line></g><g><line x1="0" y1="177.86299896240234" x2="278.4679985046387" y2="177.86299896240234" fill="rgb(0, 0, 0)" stroke="rgb(60, 60, 60)" stroke-width="1px" opacity="0.25"></line><line x1="0" y1="163.04108238220215" x2="278.4679985046387" y2="163.04108238220215" fill="rgb(0, 0, 0)" stroke="rgb(60, 60, 60)" stroke-width="1px" opacity="0.25"></line><line x1="0" y1="148.21916580200195" x2="278.4679985046387" y2="148.21916580200195" fill="rgb(0, 0, 0)" stroke="rgb(60, 60, 60)" stroke-width="1px" opacity="0.25"></line><line x1="0" y1="133.39724922180176" x2="278.4679985046387" y2="133.39724922180176" fill="rgb(0, 0, 0)" stroke="rgb(60, 60, 60)" stroke-width="1px" opacity="0.25"></line><line x1="0" y1="118.57533264160156" x2="278.4679985046387" y2="118.57533264160156" fill="rgb(0, 0, 0)" stroke="rgb(60, 60, 60)" stroke-width="1px" opacity="0.25"></line><line x1="0" y1="103.75341606140135" x2="278.4679985046387" y2="103.75341606140135" fill="rgb(0, 0, 0)" stroke="rgb(60, 60, 60)" stroke-width="1px" opacity="0.25"></line><line x1="0" y1="88.93149948120117" x2="278.4679985046387" y2="88.93149948120117" fill="rgb(0, 0, 0)" stroke="rgb(60, 60, 60)" stroke-width="1px" opacity="0.25"></line><line x1="0" y1="74.10958290100098" x2="278.4679985046387" y2="74.10958290100098" fill="rgb(0, 0, 0)" stroke="rgb(60, 60, 60)" stroke-width="1px" opacity="0.25"></line><line x1="0" y1="59.28766632080077" x2="278.4679985046387" y2="59.28766632080077" fill="rgb(0, 0, 0)" stroke="rgb(60, 60, 60)" stroke-width="1px" opacity="0.25"></line><line x1="0" y1="44.465749740600586" x2="278.4679985046387" y2="44.465749740600586" fill="rgb(0, 0, 0)" stroke="rgb(60, 60, 60)" stroke-width="1px" opacity="0.25"></line><line x1="0" y1="29.643833160400384" x2="278.4679985046387" y2="29.643833160400384" fill="rgb(0, 0, 0)" stroke="rgb(60, 60, 60)" stroke-width="1px" opacity="0.25"></line><line x1="0" y1="14.821916580200183" x2="278.4679985046387" y2="14.821916580200183" fill="rgb(0, 0, 0)" stroke="rgb(60, 60, 60)" stroke-width="1px" opacity="0.25"></line><line x1="0" y1="0" x2="278.4679985046387" y2="0" fill="rgb(0, 0, 0)" stroke="rgb(60, 60, 60)" stroke-width="1px" opacity="0.25"></line></g></g></g><g><g><line x1="0" y1="177.86299896240234" x2="278.4679985046387" y2="177.86299896240234" fill="rgb(0, 0, 0)" stroke="rgb(153, 153, 153)" stroke-width="1.5px"></line></g></g><g><g><line x1="34.808499813079834" y1="0" x2="34.808499813079834" y2="177.86299896240234" fill="rgb(0, 0, 0)" stroke="rgb(153, 153, 153)" stroke-width="1.5px"></line></g></g><g><g><g><g><g><path style="fill: none;" stroke="rgb(255, 112, 67)" stroke-width="2px" d="M35.156584811210635,-10.52121488068043L35.33062731027603,3.2884910011229067L35.67871230840683,19.033023891516418L35.85275480747223,37.1227009659691L36.026797306537624,59.91578202521997L36.20083980560303,76.07820722545982L36.548924803733826,91.90301302932413L36.72296730279922,86.34111069854754L36.89700980186463,84.929080725911L37.07105230093002,112.03826685184652L37.41913729906082,126.1370392580702L37.59317979812622,108.96159935416392L37.767222297191616,125.68087490332299L38.28934979438782,116.4240520527479L38.46339229345322,130.16603297256506L38.63743479251862,124.51426438045036L38.81147729158401,113.99033929240377L39.15956228971481,39.60739773196531L39.33360478878021,75.93190434020336L39.507647287845614,30.77134845201207L39.68168978691101,47.024512584169806L40.02977478504181,53.689138186474715L40.20381728410721,91.58151848717387L40.3778597831726,69.07977154508863L40.899987280368805,58.747867055649905L41.0740297794342,76.0498684784968L41.248072278499606,74.25716136734188L41.422114777565,88.06917361893835L41.7701997756958,-158.91311617589477L42.6404122710228,-30.431322502793417L42.8144547700882,21.930406874260218L43.16253976821899,-27.141481478436667L43.51062476634979,22.802391126951914L43.684667265415186,67.37145289518078L43.858709764480594,90.20920394067645L44.03275226354599,107.40561189146356L44.38083726167679,-64.20283338602185L45.42509225606918,-2.7346038985168977L45.599134755134585,53.22429679618632L45.77317725419998,40.72452209670091L46.12126225233078,58.0368181053719L46.29530475139618,81.4258714964296L46.469347250461574,86.92243299081059L46.64338974952698,92.21993969300796L46.991474747657776,105.57496623006205L47.16551724672318,102.16032823171594L47.33955974578858,101.21468044373583L47.51360224485397,47.38990601736858L47.86168724298477,77.4691622264372L48.035729742050165,10.55799908319555L48.20977224111557,64.77325765727745L48.383814740180966,91.40640680402403L48.73189973831177,118.63885648481516L48.90594223737717,51.26105992874964L49.07998473644256,77.96049991421133L49.25402723550797,51.77616516548772L49.60211223363876,76.0266685207232L49.77615473270416,93.60600226506492L50.12423973083496,99.72496061543858L50.47232472896576,112.45202752525196L50.64636722803116,-10.14832914891723L50.82040972709655,50.59432437844424L50.99445222616196,64.55412345599636L51.342537224292755,-138.29381801801182L51.690622222423556,-27.932617370284657L51.86466472148895,45.66299629177097L52.21274971961975,-97.80801643431049L52.56083471775055,-6.70470154141818L52.734877216815946,41.64987050456978L53.08296221494675,13.150815791105089L53.25700471401215,64.44524124227924L53.60508971214295,89.30995298577916L53.95317471027374,80.34439545168247L54.127217209339136,99.74460636378706L54.301259708404544,122.22172820598928L54.47530220746994,121.8238334187087L54.82338720560074,124.7212648742016L54.99742970466614,129.55380780951768L55.17147220373153,118.39874366077026L55.34551470279694,110.69070010473018L55.693599700927734,122.29435880848925L55.867642199993135,55.55198050634074L56.041684699058536,18.48894236223641L56.21572719812393,54.68652198871638L56.737854695320124,39.77243378675097L57.085939693450925,16.770479372284203L57.434024691581726,29.907866166369082L57.60806719064713,71.34122029658035L57.78210968971252,103.15673993738199L57.95615218877793,57.85424845554974L58.30423718690872,71.60048837175277L58.478279685974115,64.93924594313401L58.65232218503952,79.63960793066968L58.82636468410492,-104.2940105165393L59.17444968223572,-9.649154641914615L59.34849218130112,19.554130583516297L59.52253468036651,68.38376967079016L60.044662177562714,97.8890369642425L60.218704676628114,95.87655630925507L60.392747175693515,97.64788759495387L60.91487467288971,110.34693993172179L61.0889171719551,74.34145349240003L61.26295967102051,59.50540981622982L61.437002170085904,-87.1446055278018L61.785087168216705,-7.623550059117566L61.959129667282106,17.35807750980757L62.1331721663475,18.867105726322837L62.30721466541291,-8.515786514173241L62.6552996635437,51.60156924565012L62.829342162609095,28.224270543236567L63.0033846616745,48.56720551592146L63.177427160739896,79.77857468869976L63.5255121588707,96.31797026702786L63.6995546579361,100.72246764813339L63.87359715700149,97.71076913928218L64.04763965606689,101.85606569108614L64.39572465419769,1.713100046712469L64.56976715326309,-51.352971497107184L64.7438096523285,-31.6257234852169L64.91785215139389,28.517468095040474L65.26593714952469,5.381827432390876L65.43997964859008,38.690181605296296L65.61402214765549,33.15305344751763L65.78806464672088,-24.18242975207096L66.48423464298249,-29.17176812045355L66.65827714204788,9.85854350570703L67.00636214017868,51.65620225619872L67.18040463924407,81.78846619752576L67.35444713830948,102.83612759182837L67.52848963737488,24.446231961439274L67.87657463550568,20.273449612088253L68.05061713457108,60.151051270445514L68.22465963363648,69.83213068415434L68.74678713083267,-4.657591111212835L69.09487212896347,-14.343936665415848L69.26891462802887,17.07447263682703L69.61699962615967,-2.594034675146349L69.96508462429045,-32.46156206595128L70.13912712335588,7.219867196236804L70.48721212148666,62.175296439976776L70.66125462055206,26.962785598235598L70.83529711961747,71.93490879646183L71.00933961868286,55.104569471957156L71.35742461681366,91.78552577037446L71.53146711587907,107.41728726372052L71.70550961494446,115.04586274495261L71.87955211400985,104.1607844197543L72.57572211027146,82.28232409811949L72.74976460933685,114.12450077802112L73.09784960746765,112.26261470895363L73.27189210653304,116.10894922871712L73.44593460559844,64.98251061678678L73.61997710466386,101.85302671369682L73.96806210279465,120.19626895306108L74.14210460186004,127.35144566420131L74.31614710092543,106.086593993808L74.49018959999086,106.85869148579093L74.83827459812164,-1.6586965881160751L75.01231709718704,62.47157233748167L75.18635959625244,90.70997081266083L75.70848709344864,99.41620840721278L76.05657209157944,97.99589881949248L76.23061459064483,109.25053367592723L76.75274208784104,92.22097790503364L76.92678458690644,98.31318383757925L77.10082708597183,80.85655502225839L77.62295458316802,93.68296317203578L77.79699708223342,-63.04294850930341L78.31912457942963,26.964114422502366L78.49316707849502,76.47251469252855L78.66720957756041,95.62254605042469L78.84125207662584,93.82411072805061L79.36337957382202,71.98624772361022L79.53742207288742,107.0245605453032L79.71146457195282,95.82391141661148L80.05954957008362,-10.691071866500499L80.23359206914903,27.321725694924783L80.40763456821442,85.16141530328414L80.58167706727981,115.76529827649841L80.92976206541061,127.52817891222853L81.10380456447602,129.72435385927866L81.27784706354142,119.6755877046064L81.79997456073761,123.9592277201721L81.974017059803,51.44848941213984L82.1480595588684,89.33523580278843L82.32210205793382,122.48585870751714L82.6701870560646,123.90188113457637L83.01827205419539,34.54181407740607L83.19231455326081,84.59871068120685L83.5403995513916,104.14243807428016L83.714442050457,131.1748969647413L83.8884845495224,125.66433244810095L84.0625270485878,104.4117771655013L84.4106120467186,127.47395555174097L84.584654545784,116.65740851274624L84.7586970448494,92.31580754478905L84.93273954391479,118.20006647563464L85.2808245420456,122.58555868772777L85.454867041111,134.64484625055994L85.6289095401764,146.85937280034193L85.80295203924179,151.32347417221683L86.15103703737259,132.48643801240698L86.32507953643798,139.2948014723138L86.49912203550338,145.50700620601276L86.6731645345688,137.37848388802485L87.02124953269958,142.248663715532L87.19529203176498,114.43566735878724L87.5433770298958,63.48713551285673L87.89146202802658,28.528396719626247L88.06550452709197,62.94188516144936L88.23954702615738,63.23891566829882L88.41358952522278,69.66289629954561L88.76167452335358,43.238487620435286L88.93571702241898,59.323951998209985L89.10975952148438,39.825708246725384L89.63188701868057,82.00015446786801L89.80592951774598,97.8950114703725L89.97997201681137,108.46088756190464L90.15401451587677,118.04794989114383L90.50209951400757,117.10903462049241L90.67614201307296,110.65414267543467L90.85018451213836,124.50839171521773L91.02422701120378,135.2411830962677L91.37231200933456,141.16429644318683L91.54635450839996,147.5175473371331L91.72039700746535,147.2758084453848L91.89443950653077,141.473617093725L92.24252450466156,141.54254335277778L92.41656700372695,146.66888009738156L92.59060950279236,145.80792064525863L92.76465200185775,137.51280311453056L93.11273699998856,28.234291684024033L93.28677949905396,52.85710598297101L93.46082199811936,100.9416933577756L93.63486449718475,23.839814087973537L93.98294949531555,78.23235336981996L94.15699199438096,84.20219777382144L94.33103449344635,115.63512541204098L94.50507699251175,134.17846107578598L94.85316199064255,143.32819202906407L95.02720448970794,148.85869515457006L95.20124698877333,150.88641228844898L95.37528948783876,153.10320028961698L95.89741698503494,148.43565650744262L96.07145948410033,130.1251708962598L96.24550198316575,121.1933030606111L96.59358698129654,110.33373630266792L96.76762948036193,115.82680811811899L96.94167197942734,121.5460020429704L97.11571447849273,63.50550057539443L97.46379947662354,8.94687712282373L97.63784197568894,74.02187565570907L97.81188447475434,92.92187192870674L97.98592697381973,124.12115389246452L98.33401197195053,142.7137873624253L98.50805447101594,151.18346524614435L98.68209697008133,156.27042340290444L98.85613946914673,156.42040288535816L99.20422446727753,160.5587134551076L99.37826696634292,159.108919588357L99.55230946540831,159.23669330192357L99.72635196447374,158.58909531904436L100.07443696260452,160.5701706461151L100.24847946166992,97.02386537399966L100.42252196073531,103.38953180167896L100.59656445980073,45.56098259263154L100.94464945793152,94.68896765145949L101.11869195699691,117.61864144151396L101.29273445606232,136.414529375642L101.46677695512771,129.77620196325486L101.81486195325851,125.82909146087373L101.98890445232392,32.18796124031546L102.33698945045471,81.76129230052501L102.85911694765092,109.77009152772193L103.03315944671631,114.43438724731362L103.2072019457817,114.19275900810914L103.5552869439125,95.18296657652756L103.7293294429779,126.3384695208431L103.9033719420433,136.8950396364114L104.07741444110871,144.74668331034468L104.4254994392395,149.07519177628055L104.5995419383049,149.45174224873378L104.77358443737029,127.41216194806657L104.94762693643571,139.574739113959L105.2957119345665,122.57354980276256L105.46975443363189,110.21271435318123L105.6437969326973,101.54495446111183L105.81783943176269,104.64060778320953L106.1659244298935,90.67912711661057L106.3399669289589,99.90671896497301L106.5140094280243,39.24038614182782L106.68805192708969,88.47693058467841L107.03613692522049,102.85840642880581L107.2101794242859,108.77846496134458L107.38422192335129,120.78585245420649L107.55826442241668,63.010199552191445L107.90634942054749,103.2544873812565L108.08039191961288,120.65276641985643L108.25443441867827,137.5702097212063L108.77656191587448,148.56255007822003L109.12464691400527,149.29270224926847L109.29868941307069,124.80459104345421L109.64677441120148,140.36273627406152L110.51698690652847,140.34168798121289L110.69102940559388,134.67201346968133L110.86507190465927,130.12212532455666L111.03911440372467,119.93459655409642L111.38719940185547,128.28863402014133L111.73528439998627,127.07766943925627L111.90932689905166,112.06157064095811L112.25741189718246,84.53721618685343L112.43145439624786,79.27928414159403L112.60549689531325,100.8656400513406L112.77953939437867,118.35389468138499L113.12762439250946,137.37144680825497L113.30166689157485,148.38481378882508L113.47570939064025,137.92891515105987L113.64975188970567,146.02022734875794L113.99783688783646,153.25659088811966L114.17187938690185,149.88144176220857L114.34592188596726,147.507073022958L114.51996438503265,140.11563155691016L114.86804938316345,141.6266613829281L115.04209188222886,139.83589304779204L115.21613438129425,141.25502992893814L115.39017688035965,133.4588880560952L115.73826187849045,149.2829250597212L115.91230437755586,155.20305236058505L116.08634687662125,162.13125097606533L116.26038937568664,163.19741096649912L116.60847437381744,165.42346539286785L116.78251687288284,163.37224890223493L116.95655937194823,149.85871061449538L117.13060187101365,130.33794008921188L117.47868686914444,64.84675811450403L117.65272936820983,94.12293393639058L117.82677186727523,99.620067124371L118.00081436634065,92.08860137454596L118.52294186353683,118.13621966073913L118.69698436260224,131.19304408141053L118.87102686166763,108.83225577257593L119.21911185979843,-74.5170690079302L119.39315435886384,21.990484769069578L119.56719685792923,78.16385589947777L119.74123935699463,114.21201706457923L120.08932435512543,127.13223859931375L120.26336685419083,136.40285056521068L120.43740935325623,146.03822745184874L121.13357934951782,84.96380455177236L121.30762184858321,118.09336700306699L121.48166434764863,129.50448893178384L121.82974934577942,138.22964377544596L122.00379184484481,135.84876115701798L122.1778343439102,129.09853322734696L122.35187684297563,126.56303248503455L122.69996184110641,132.17550630070227L122.87400434017181,124.5651813911332L123.04804683923722,134.08301042798436L123.22208933830261,116.38110506434167L123.57017433643341,130.50544655184757L123.74421683549882,137.7473718822084L124.0923018336296,135.71119327165871L124.4403868317604,135.56910177540402L124.61442933082581,144.02075540602186L124.78847182989121,148.3740419351951L124.9625143289566,155.7405667425075L125.3105993270874,157.2664034005001L125.4846418261528,151.7775306365072L125.65868432521819,156.39264279517045L125.83272682428361,157.25526307533912L126.1808118224144,150.99208874596235L126.35485432147979,152.48320242503345L126.7029393196106,142.20679503490265L127.0510243177414,138.10084625260524L127.3991093158722,132.1756102353073L127.57315181493759,142.13589473857596L127.92123681306839,148.2655975637933L128.09527931213378,152.19866179778427L128.26932181119918,147.8871671010838L128.4433643102646,151.00651984915729L128.79144930839539,150.76880035071989L128.96549180746078,151.11988221827932L129.13953430652617,150.20299706559913L129.31357680559157,151.57635086182398L129.66166180372238,149.879197041789L129.83570430278778,150.6447516122725L130.00974680185317,134.56597325095652L130.1837893009186,132.61271822881469L130.70591679811477,138.00900808019674L130.87995929718016,124.46143951915815L131.0540017962456,125.41732377490716L131.40208679437637,127.97877136154827L131.57612929344177,114.78670521281936L131.7501717925072,116.09316216514307L131.92421429157258,115.97505874483072L132.27229928970337,135.63160269490464L132.44634178876876,127.04573566428685L132.62038428783416,129.22490830884541L132.79442678689958,108.61575386634519L133.14251178503036,114.74813185756724L133.31655428409576,122.18356789368602L133.49059678316115,133.37145997235982L133.66463928222655,140.84245145659636L134.01272428035736,150.04654785749614L134.18676677942275,149.9853288973598L134.36080927848815,150.24524583248373L134.53485177755357,135.86526972256704L134.88293677568436,143.101068038548L135.05697927474975,146.54465894996133L135.23102177381514,149.5274052023277L135.40506427288057,145.66067442650504L135.75314927101135,145.76379243647622L135.92719177007675,136.44026237593525L136.10123426914217,142.71106258141413L136.27527676820756,145.98136104917558L136.62336176633835,143.89643597582796L136.79740426540374,133.83094576341236L136.97144676446914,136.38816246081018L137.49357426166534,144.71862964754752L137.66761676073074,148.62110850912873L137.84165925979613,155.4085516748226L138.01570175886152,140.94678479018143L138.36378675699234,149.44768074973715L138.53782925605773,147.5204189176556L138.88591425418855,153.32518731361606L139.23399925231934,159.6982932660269L139.40804175138473,160.90937379830416L139.58208425045012,140.9342561661451L139.75612674951552,144.8459409955471L140.10421174764633,137.341990522843L140.27825424671175,147.58046656467872L140.45229674577715,152.40646202926564L140.97442424297333,146.19295636510125L141.14846674203872,152.19191903928655L141.32250924110411,157.14226774807597L141.49655174016954,153.5226707372692L141.84463673830032,140.6223949173066L142.01867923736572,150.64254098873354L142.1927217364311,154.78205946823147L142.3667642354965,154.00672687928898L142.71484923362732,160.65776014478357L142.88889173269274,160.05203325658985L143.06293423175813,131.7185544101019L143.23697673082353,123.25511677824346L143.58506172895432,136.06079282900578L143.7591042280197,148.2541853649641L143.9331467270851,149.514797187895L144.1071892261505,127.98878235599193L144.4552742242813,131.8428505033696L144.62931672334673,146.91683348756595L145.3254867196083,141.62263436667132L145.4995292186737,131.81516085459018L145.6735717177391,71.87906841732205L145.84761421680452,106.2680314573586L146.1956992149353,52.660195991829546L146.3697417140007,78.86503918360869L146.5437842130661,78.52426527127622L146.71782671213148,76.91360901855478L147.0659117102623,113.8805564057848L147.23995420932772,134.292425901442L147.4139967083931,144.38632861218306L147.9361242055893,151.43165667007466L148.28420920372008,139.38399787757308L148.45825170278547,149.1459292814738L148.8063367009163,152.3291911965391L149.1544216990471,131.2020325182591L149.3284641981125,138.4957692305204L149.85059169530868,149.032456561738L150.02463419437407,143.66538478177526L150.1986766934395,151.48058575479703L150.54676169157028,143.87960237326035L150.72080419063568,145.5529213547656L150.89484668970107,150.16567741155023L151.06888918876646,87.72857772218265L151.41697418689728,88.90375551295577L151.5910166859627,108.84654518962226L152.28718668222427,56.496555421290495L152.46122918128967,97.5501033382958L152.63527168035506,105.45968383628522L152.80931417942045,103.23711310694038L153.15739917755127,101.24474641727332L153.3314416766167,120.63011908498994L153.50548417568208,121.37615314955707L153.67952667474748,113.43441530888589L154.02761167287827,126.16441573913514L154.20165417194366,108.16547564980189L154.54973917007447,130.7411373032695L154.89782416820526,145.68056809196221L155.07186666727065,152.53005408409814L155.24590916633605,138.10022144116456L155.76803666353226,97.78920618433524L155.94207916259768,89.33691773891186L156.11612166166307,22.218155530183818L156.29016416072847,83.98423967196861L156.63824915885925,119.73088409889404L156.81229165792465,123.48011292994492L157.16037665605543,139.1471431387816L157.50846165418625,149.95510451651313L157.85654665231706,151.50950278305663L158.03058915138246,140.97987581964244L158.37867414951324,42.398850781637364L158.90080164670945,30.097971201603904L159.24888664484024,83.80902343540933L159.42292914390563,63.81681905010108L159.59697164297103,108.96914080493897L159.77101414203642,134.3327000347174L160.29314163923266,147.33900397999977L160.46718413829805,158.59079267102777L160.64122663736345,127.86341443850827L160.98931163549423,143.41467781403324L161.16335413455963,145.49659994790318L161.33739663362502,149.53479792275976L161.5114391326904,130.10141279518174L161.85952413082123,126.54297041032086L162.03356662988665,137.9368179181909L162.20760912895204,131.18251828258272L162.72973662614822,82.75104652954016L162.90377912521362,49.36650593930255L163.077821624279,55.65376684669034L163.25186412334443,55.84649772190286L163.59994912147522,99.0324572154591L163.7739916205406,116.06768857593781L163.948034119606,113.71864873283256L164.1220766186714,122.78573511406341L164.47016161680222,109.4806852569716L164.64420411586764,118.76862953420155L164.99228911399842,127.3157119252704L165.3403741121292,140.72757404267438L165.5144166111946,75.161422428744L165.68845911026,105.64326462196244L165.8625016093254,123.32652206926498L166.2105866074562,111.08922403999122L166.38462910652163,130.96188369708887L166.73271410465242,120.44278404129201L167.0807991027832,121.03039453353753L167.2548416018486,127.04660047336947L167.428884100914,126.09397121579127L167.6029265999794,134.98677011053283L167.9510115981102,70.66135967809058L168.1250540971756,112.1297817581152L168.299096596241,136.81544632757792L168.47313909530638,138.30760870704728L168.8212240934372,149.76994097102497L168.99526659250262,159.38632028757021L169.169309091568,164.4995890251072L169.3433515906334,168.11484527397582L169.6914365887642,170.31992660116848L169.86547908782958,170.64353062488703L170.5616490840912,169.81745836002392L170.7356915831566,170.02535488994104L170.909734082222,170.70467974197553L171.0837765812874,171.20168141086756L171.60590407848358,167.41797366215604L171.77994657754897,165.41421319812252L171.9539890766144,167.64702151020168L172.30207407474518,166.2674750731209L172.47611657381057,162.11075244503354L172.65015907287597,165.18529609648309L172.82420157194136,166.43565624257602L173.17228657007217,167.97118636663794L173.3463290691376,158.64203960700928L173.520371568203,151.82497097745158L173.69441406726838,127.16521353874747L174.04249906539917,95.53344056765792L174.39058406352996,81.97363155347118L174.56462656259535,118.56535958889418L174.91271156072617,140.7828098434014L175.0867540597916,147.54716228261583L175.26079655885698,155.23310996483576L175.78292405605316,160.2359528747502L175.95696655511856,162.93029797500978L176.13100905418395,165.37226432310487L176.30505155324937,146.33371236520364L176.65313655138016,147.36862289748348L176.82717905044555,136.25084546453584L177.00122154951094,122.30366137380327L177.52334904670715,97.75044338689429L177.69739154577258,129.34457397369425L177.87143404483797,147.09305188783028L178.04547654390336,118.96932059744863L178.39356154203415,141.04908898811598L178.56760404109954,151.6304725718052L178.74164654016494,134.0168335234981L178.91568903923033,143.36401734766764L179.26377403736115,155.7462560751241L179.61185903549196,162.1680422127963L180.30802903175353,164.05684518759273L180.48207153081893,166.20466778362157L180.65611402988435,164.58452588131044L181.17824152708053,165.2669753999889L181.35228402614592,167.32357862638992L181.52632652521132,169.41135704237894L181.87441152334213,166.2357903519846L182.04845402240755,163.17820847651532L182.39653902053834,161.38632139669218L182.74462401866913,160.93436201312906L182.91866651773452,158.83994228324934L183.09270901679992,162.38391640062386L183.2667515158653,164.1840329616221L183.61483651399612,156.44284375325603L183.78887901306155,158.98198755736024L183.96292151212694,161.9668004093189L184.13696401119233,165.13867593604832L184.48504900932312,161.8600377597047L184.6590915083885,159.52195037692624L185.00717650651933,155.38868463207623L185.35526150465012,159.25807482820963L185.5293040037155,134.30561282480343L185.7033465027809,145.24087475660764L185.8773890018463,132.7082226641619L186.2254739999771,146.38393026027936L186.39951649904253,151.07598342017582L186.74760149717332,151.12876968690654L187.0956864953041,125.07702764248523L187.2697289943695,132.99895384425943L187.4437714934349,109.32513770399042L187.6178139925003,129.3172152820293L187.9658989906311,130.93522008754223L188.13994148969653,143.62383224950307L188.8361114859581,143.18994167762563L189.0101539850235,120.76502089094973L189.1841964840889,57.265787561738094L189.3582389831543,67.71258440606975L189.7063239812851,90.9890985933033L189.8803664803505,51.830411717179324L190.05440897941588,78.97957790827171L190.22845147848128,106.4824247788169L190.5765364766121,122.86616956256799L190.7505789756775,124.07175077826103L190.9246214747429,127.7994863761707L191.79483397006987,143.89188327065435L191.96887646913527,153.01641261525384L192.31696146726608,159.97169336312535L192.4910039663315,164.41816482275908L192.6650464653969,167.14984883611243L192.8390889644623,164.68375670632778L193.18717396259308,160.32057386426735L193.36121646165847,144.0094374112817L193.53525896072387,123.31568105436772L193.7093014597893,143.557304095649L194.05738645792007,152.07574100770347L194.23142895698547,145.7107120431639L194.40547145605086,152.45277810563928L194.57951395511625,144.2822476875878L194.92759895324707,146.18373499508616L195.1016414523125,155.19407676601554L195.27568395137789,160.43571358454943L195.44972645044328,152.82567794383195L195.97185394763946,157.5064353739302L196.14589644670485,163.8792232251973L196.31993894577025,166.28954616720512L196.66802394390106,167.16430860218284L196.84206644296648,168.00620738868096L197.01610894203188,166.95785783704076L197.19015144109727,166.56356179939394L197.53823643922806,167.8184791909867L197.71227893829345,161.2314602638865L197.88632143735884,158.32262083334584L198.06036393642427,125.10069727491194L198.40844893455505,126.87599907902487L198.58249143362045,83.72608782792553L198.75653393268584,119.47618829988733L198.93057643175123,140.7936028837722L199.27866142988205,148.72332378848057L199.45270392894747,155.253839855512L199.62674642801286,147.48282325034768L199.80078892707826,154.64393027655674L200.14887392520905,150.14660186295202L200.49695892333983,141.69795476880194L200.67100142240523,75.82568496864683L201.01908642053604,115.88821202276009L201.19312891960146,41.02860691711056L201.36717141866686,94.01455267384071L201.54121391773225,125.32670583376724L201.88929891586304,144.6367875696962L202.06334141492843,155.25010818264488L202.23738391399382,163.52006927646414L202.41142641305925,166.70356854453505L202.75951141119003,154.52745558370623L202.93355391025543,160.34804423112072L203.10759640932082,127.15482370944379L203.62972390651703,143.41189308709676L203.80376640558245,153.84542111041398L203.97780890464784,162.00589948002943L204.15185140371324,164.82854958981758L204.49993640184402,168.52896527780217L204.67397890090942,166.58291588250486L204.8480213999748,168.59171715466886L205.0220638990402,167.79987042391556L205.37014889717102,144.18634297360092L205.54419139623644,154.49049058037838L205.71823389530184,159.9134014794877L205.89227639436723,159.98235388216565L206.24036139249802,161.65377237613376L206.4144038915634,160.32948001089068L206.5884463906288,146.3089937730465L206.76248888969423,120.60601795618402L207.2846163868904,136.89657584866146L207.4586588859558,129.7793635607211L207.980786383152,129.72518416938314L208.15482888221743,141.06481943904916L208.32887138128282,143.09799444891513L208.50291388034822,151.00567997501733L208.850998878479,115.56048088736642L209.0250413775444,132.62318351669197L209.1990838766098,109.05291599736454L209.37312637567518,108.43037447719036L209.721211373806,127.71668008883992L209.89525387287142,131.1581863275694L210.06929637193682,146.1050188224172L210.2433388710022,154.75132952711772L210.591423869133,159.7795030054168L210.7654663681984,148.717421454083L210.93950886726378,156.38762229374936L211.1135513663292,160.6462024579972L211.46163636446,149.92083779708219L211.63567886352538,151.62271728540935L211.80972136259078,156.81778633546347L212.331848859787,132.37910295289424L212.5058913588524,146.44156977930106L212.8539763569832,153.78276826685195L213.20206135511398,146.72583057831483L213.55014635324477,152.22894280296853L213.72418885231016,155.51776724879565L214.07227385044098,161.03379759377083L214.2463163495064,164.23271512546842L214.4203588485718,161.84222570655942L214.5944013476372,161.1180704699867L214.94248634576797,164.23896518648115L215.11652884483337,162.43150856239996L215.29057134389876,161.92609433186675L215.46461384296418,159.53580863502373L215.81269884109497,150.13197840505157L216.16078383922576,153.83907813074364L216.33482633829115,155.6499203059079L216.68291133642197,119.08502811539246L216.8569538354874,137.2558171186043L217.03099633455278,150.68732201881312L217.20503883361818,157.16168291045935L217.55312383174896,156.65709056638366L217.90120882987975,132.65686758673823L218.07525132894514,144.78683397306017L218.42333632707596,133.46476361788314L218.59737882614138,144.9844319074884L218.77142132520677,129.17986601951998L218.94546382427217,131.6130236200548L219.46759132146835,137.7191091213377L219.64163382053374,111.3708993144513L220.33780381679534,129.11935177375076L220.51184631586074,122.07530241974904L220.68588881492613,132.33735577402737L221.03397381305695,135.95597698495993L221.20801631212237,143.42060401146088L221.38205881118776,127.94429548450638L221.55610131025315,137.00909846298367L222.07822880744934,148.30168686061285L222.42631380558012,150.27095585587517L222.77439880371094,144.987421301918L222.94844130277636,148.9112221722714L223.12248380184175,156.1902094730125L223.29652630090715,158.3367658659082L223.64461129903793,158.73521151430117L223.81865379810333,164.08799206010943L223.99269629716872,165.5942161872401L224.16673879623414,167.42557230561894L224.51482379436493,141.29955705286918L224.68886629343032,152.30094500926145L225.0369512915611,151.66321117341633L225.38503628969193,140.19779484193734L225.55907878875735,139.62916357398066L225.73312128782274,151.23226912491702L226.25524878501892,155.73970608771745L226.42929128408431,128.75297219509733L226.6033337831497,142.12785539684825L226.7773762822151,149.82448060280228L227.12546128034592,158.43330035703383L227.29950377941134,148.74919598020145L228.1697162747383,149.5537330784893L228.3437587738037,150.4901934455014L228.51780127286912,135.74302479299814L228.8658862709999,131.4855554806956L229.0399287700653,130.51718672491234L229.2139712691307,135.0828239930567L229.91014126539233,146.33011988682946L230.08418376445772,152.975775009703L230.2582262635231,141.70896942680952L230.6063112616539,147.26203938526874L230.7803537607193,145.95533318921576L230.9543962597847,151.82869295308186L231.12843875885008,157.61735401082066L231.65056625604632,154.0460009294715L231.8246087551117,157.95000881035344L231.9986512541771,162.56333480313793L232.3467362523079,144.9730137909627L232.52077875137329,152.29859089162105L232.8688637495041,157.22299024672662L233.2169487476349,159.62584016532958L233.39099124670028,163.01030404291396L233.56503374576567,160.1582617932634L233.73907624483107,120.29686671749118L234.2612037420273,137.7091132578338L234.4352462410927,149.32361443971584L235.13141623735427,152.5777911907612L235.30545873641967,154.715912919063L235.47950123548506,158.62239662058377L235.82758623361588,163.93353723428356L236.0016287326813,165.5435864769246L236.1756712317467,166.5598020130939L236.34971373081208,169.21979688455707L236.69779872894287,167.38059934904004L236.87184122800826,168.52388067640894L237.21992622613908,168.5186761881023L237.56801122426987,170.35057184234097L237.74205372333526,160.75506152198105L237.91609622240065,164.12613283286552L238.09013872146605,165.94536318101055L238.43822371959686,167.455227747396L238.61226621866228,139.05404443640637L238.78630871772768,146.39040425492652L238.96035121679307,149.29903795353275L239.30843621492386,155.4918746724565L239.48247871398925,150.67511902209614L239.65652121305465,156.1562172274266L239.83056371212004,161.64568200303904L240.17864871025085,162.647382010767L240.35269120931628,159.86901408876568L240.52673370838167,163.04965532239044L240.70077620744706,164.99299661288003L241.04886120557785,166.14650800726386L241.22290370464324,166.95519601700903L241.39694620370864,143.26126475839914L241.57098870277406,154.62212611298725L241.91907370090485,154.92517825112532L242.26715869903563,155.21217779276694L242.78928619623184,160.54295208138618L242.96332869529726,143.19124717622424L243.13737119436266,146.51251471382392L243.31141369342805,154.45481728629784L243.65949869155884,149.23733982572742L243.83354119062423,121.11490499789004L244.18162618875502,137.53173984087465L244.52971118688583,147.53692068320888L244.70375368595126,154.55544064473446L244.87779618501665,153.90401148449067L245.05183868408204,156.06462347856137L245.39992368221283,157.2905987417249L245.57396618127822,156.3730901547814L245.74800868034362,145.0650953634842L245.92205117940904,146.3587600934999L246.27013617753983,144.8108280516832L246.44417867660522,148.27517639289218L246.6182211756706,142.82229114776987L246.792263674736,123.77336698425655L247.14034867286682,137.94949299849415L247.31439117193224,132.61496320576018L247.48843367099764,140.79042650772567L247.66247617006303,145.9812018301836L248.01056116819382,151.27139512038025L248.1846036672592,160.35970257313517L248.3586461663246,162.7924779376706L248.53268866539,137.94796718110214L249.05481616258623,149.62810257022159L249.22885866165163,156.35973392581363L249.40290116071702,140.0389843701168L249.7509861588478,144.4543456937063L249.9250286579132,152.06314807265736L250.0990711569786,146.0311089403863L250.27311365604402,133.94474249628541L250.7952411532402,141.6851181076384L250.9692836523056,149.13429654447805L251.14332615137099,144.2496832338156L251.4914111495018,148.93513548909849L251.66545364856722,149.86257760228145L251.83949614763262,154.3515240292494L252.013538646698,159.17638494493673L252.3616236448288,162.796812910841L252.5356661438942,160.03295176440864L252.70970864295958,151.69642149134836L252.88375114202498,146.24266376442395L253.2318361401558,131.86025305868571L253.4058786392212,136.6850358160075L253.5799211382866,148.45673968189345L253.753963637352,147.79963551655715L254.1020486354828,157.0078862809401L254.27609113454818,155.5197090910102L254.45013363361358,160.51755354224653L254.624176132679,164.4451683865383L254.97226113080978,164.8247368933907L255.14630362987518,165.83870398040705L255.32034612894057,155.25561849196654L255.49438862800596,157.5004996286882L255.84247362613678,159.3734109573268L256.0165161252022,162.6387275025752L256.19055862426757,154.07250392881105L256.364601123333,156.03334733779764L256.7126861214638,157.44724747921737L256.8867286205292,154.77636901889676L257.06077111959456,122.32504850652087L257.23481361866,140.38989855208737L257.58289861679077,127.83469164934164L257.7569411158562,116.65405715069136L257.93098361492156,134.34567279920557L258.105026113987,123.6075198304576L258.45311111211777,124.78515601782345L258.62715361118313,130.85572001554448L258.80119611024855,132.088602559979L258.975238609314,141.05793341835314L259.67140860557555,133.89507771879067L259.845451104641,144.18541706969594L260.19353610277176,153.553142911417L260.3675786018372,156.99794607202924L260.54162110090255,161.29059672734365L260.71566359996797,160.07805898652538L261.06374859809875,159.18634444987165L261.2377910971642,160.08846213203705L261.41183359622954,133.81676792206497L261.58587609529496,147.26164806815666L261.93396109342575,149.60263260923833L262.1080035924912,133.65407015154406L262.28204609155654,126.25713843827471L262.45608859062196,138.6099459571734L262.80417358875275,116.4976326879872L262.9782160878181,133.8231321490389L263.15225858688353,139.06399889941628L263.32630108594896,124.86708214847297L263.67438608407974,139.08868224850156L263.84842858314516,133.14172532222375L264.02247108221053,113.62128739208971L264.19651358127595,128.16221553360114L264.54459857940674,110.17110338984303L264.71864107847216,132.1008925627944L264.8926835775375,136.8159583135307L265.06672607660295,134.7349267439046L265.41481107473373,137.31070706759868L265.58885357379916,144.0449109816298L265.7628960728645,150.90276669773695L265.93693857192994,140.57332584417483L266.28502357006073,139.30548729098507L266.45906606912615,149.56717117582437L266.6331085681915,138.18280424560808L266.80715106725694,139.24748601969972L267.1552360653877,148.29165229320438L267.3292785644531,125.22400183052153L267.5033210635185,137.70748381989276L267.67736356258393,147.8983649635674L268.0254485607147,119.70492922624939L268.3735335588455,135.3654890798447L268.8956610560417,121.10193694722734L269.06970355510714,138.06493963212355L269.2437460541725,149.30902380917988L269.4177885532379,155.11919613878385L269.7658735513687,152.75152445823525L269.93991605043414,142.66032496612127L270.2880010485649,134.49813202958916L270.6360860466957,146.28871806229938L270.81012854576113,155.68456963254533L270.9841710448265,160.19749350759946L271.1582135438919,157.19066905211315L271.5062985420227,162.72073811586733L271.68034104108807,162.78470067412314L271.8543835401535,160.76703751350507L272.0284260392189,160.16451732636617L272.3765110373497,153.61597232981052L272.5505535364151,156.0421074979942L272.7245960354805,162.0296977794419L272.8986385345459,165.28651627173417L273.2467235326767,168.75438952327198L273.4207660317421,169.1433800548404L273.5948085308075,170.0724495246959L273.7688510298729,163.1541683711793L274.1169360280037,159.58579412673058L274.2909785270691,160.01807807967427L274.6390635251999,161.72613322057447L274.9871485233307,162.63875779288182L275.1611910223961,157.72439231078138L275.3352335214615,126.36460705489243L275.5092760205269,135.16553087104052L275.8573610186577,146.85928519396612L276.03140351772305,122.16315641655848L276.20544601678847,137.40153907332734L276.3794885158539,147.30981612613837L276.7275735139847,143.39207545228874L276.9016160130501,153.6416882605025L277.07565851211547,160.2448384628034L277.2497010111809,165.54898252682844L277.5977860093117,169.6190173061121L277.7718285083771,170.83728758152705L277.94587100744246,167.62293066032956L278.1199135065079,168.43213185112018L278.4679985046387,169.73380603081313" fill="none"></path></g></g></g></g><g opacity="0.2"><g><g><g><path style="fill: none;" stroke="rgb(255, 112, 67)" stroke-width="2px" d="M35.156584811210635,-10.52121488068043L35.33062731027603,11.574314530204902L35.67871230840683,34.14777546629419L35.85275480747223,58.39616120552545L36.026797306537624,89.67442865617795L36.20083980560303,98.4366597504636L36.548924803733826,114.53273852574296L36.72296730279922,78.23180370601288L36.89700980186463,82.84661078897398L37.07105230093002,152.2922488358729L37.41913729906082,147.15732303935096L37.59317979812622,83.29190748379413L37.767222297191616,150.7051968915324L38.28934979438782,102.556952856507L38.46339229345322,150.76285116957376L38.63743479251862,116.0405975573708L38.81147729158401,98.20890503273357L39.15956228971481,-71.94812878788798L39.33360478878021,130.41313057958473L39.507647287845614,-36.96535752658568L39.68168978691101,71.40336742025806L40.02977478504181,63.68585728758784L40.20381728410721,148.41934081927388L40.3778597831726,35.32741768660526L40.899987280368805,43.25008375624701L41.0740297794342,102.00279682763447L41.248072278499606,71.56810528765573L41.422114777565,108.78717079164073L41.7701997756958,-529.3863233625489L41.9442422747612,-337.2968282683524L42.118284773826595,84.69610631447222L42.292327272892,129.59474197303234L42.6404122710228,-59.98180050520479L42.8144547700882,100.4729971892773L43.16253976821899,-100.7493118985308L43.51062476634979,97.71819874717903L43.684667265415186,134.22504485796776L43.858709764480594,124.46583029691749L44.03275226354599,133.20022372186384L44.38083726167679,-321.61550072875616L44.72892225980758,-299.1415345029491L44.90296475887299,72.81553501569147L45.42509225606918,126.15403784707676L45.599134755134585,137.16264782369944L45.77317725419998,21.974860049421736L46.12126225233078,84.00526211675879L46.29530475139618,116.50945158170326L46.469347250461574,95.16727523219697L46.64338974952698,100.16619974619697L46.991474747657776,125.60750603548125L47.16551724672318,97.03837123422157L47.33955974578858,99.79620876176976L47.51360224485397,-33.3472556220413L47.86168724298477,122.58804653999289L48.035729742050165,-89.80874563160388L48.20977224111557,146.09614551836967L48.383814740180966,131.35613052413487L48.73189973831177,159.4875310059963L48.90594223737717,-49.80563490534044L49.07998473644256,118.00965989240194L49.25402723550797,12.499663042403427L49.60211223363876,112.40242355357577L49.77615473270416,119.9750028815772L50.12423973083496,108.903398140999L50.47232472896576,131.54262788997198L50.64636722803116,-194.04886416017052L50.82040972709655,141.70830466948627L50.99445222616196,85.49382207232452L51.342537224292755,-442.5657302290238L51.516579723358156,76.63139833824926L51.690622222423556,8.654053787549394L51.86466472148895,156.05641678485438L52.21274971961975,-313.01453552343264L52.56083471775055,129.9502707979202L52.734877216815946,114.1817285735517L53.08296221494675,-29.59776627909198L53.25700471401215,141.3868794190405L53.60508971214295,126.60702060102903L53.95317471027374,66.89605915053743L54.127217209339136,128.84492273194394L54.301259708404544,155.9374109692926L54.47530220746994,121.22699123778784L54.82338720560074,129.06741205744095L54.99742970466614,136.80262221249177L55.17147220373153,101.6661474376492L55.34551470279694,99.12863477067002L55.693599700927734,139.69984686412784L55.867642199993135,-44.56158694688202L56.041684699058536,-37.105614853920116L56.21572719812393,108.98289142843633L56.737854695320124,17.401301483802854L57.085939693450925,-17.732452249415953L57.434024691581726,49.61394635749639L57.60806719064713,133.4912514918973L57.78210968971252,150.8800193985844L57.95615218877793,-10.099488767198649L58.30423718690872,92.21984824605737L58.478279685974115,54.947382300205845L58.65232218503952,101.6901509119732L58.82636468410492,-380.1944381873527L59.17444968223572,132.31812917002242L59.34849218130112,63.35905842166267L59.52253468036651,141.62822830170097L60.044662177562714,142.14693790442095L60.218704676628114,92.85783532677397L60.392747175693515,100.3048845235021L60.91487467288971,129.39551843687366L61.0889171719551,20.333223833417364L61.26295967102051,37.25134430197454L61.437002170085904,-307.1196285438491L61.785087168216705,111.65803314390882L61.959129667282106,54.83051886319526L62.1331721663475,21.130648051095697L62.30721466541291,-49.590124874917365L62.6552996635437,141.7776028853852L62.829342162609095,-6.8416775103837875L63.0033846616745,79.08160797494884L63.177427160739896,126.59562844786716L63.5255121588707,121.12706363452001L63.6995546579361,107.32921371979171L63.87359715700149,93.19322137600533L64.04763965606689,108.07401051879208L64.39572465419769,-148.501348419848L64.7438096523285,-2.0348514673814995L64.91785215139389,118.73225546542653L65.26593714952469,-29.321633561583454L65.43997964859008,88.6527128646544L65.61402214765549,24.847361210849606L65.78806464672088,-110.18565455145382L66.13614964485168,26.170476534959555L66.31019214391708,-250.3654145305136L66.48423464298249,80.92696893070706L66.65827714204788,68.4040109449479L67.00636214017868,114.3526903819362L67.18040463924407,126.98686210951631L67.35444713830948,134.4076196832823L67.52848963737488,-93.13861148414436L67.87657463550568,14.014276088061694L68.05061713457108,119.96745375798139L68.22465963363648,84.3537498047176L68.74678713083267,-116.39217380426363L69.09487212896347,-14.66260489385877L69.26891462802887,64.20208659019136L69.61699962615967,-32.09679564310639L69.96508462429045,-77.26285315215864L70.13912712335588,66.74201108951888L70.48721212148666,144.60844030558673L70.66125462055206,-25.855980664376172L70.83529711961747,139.39309359380115L71.00933961868286,29.859060485200175L71.35742461681366,146.80696021800043L71.53146711587907,130.86492950373963L71.70550961494446,126.48872596680074L71.87955211400985,87.83316693195684L72.57572211027146,49.46463361566724L72.74976460933685,161.88776579787356L73.09784960746765,109.4697856053524L73.27189210653304,121.87845100836239L73.44593460559844,-11.707147301108774L73.61997710466386,157.1588008590619L73.96806210279465,147.71113231210745L74.14210460186004,138.08421073091165L74.31614710092543,74.18931648821808L74.49018959999086,108.01683772376532L74.83827459812164,-164.43477869897654L75.01231709718704,158.66697572587822L75.18635959625244,133.06756852542958L75.70848709344864,112.47556479904074L76.05657209157944,95.86543443791197L76.23061459064483,126.1324859605794L76.75274208784104,66.67664424869326L76.92678458690644,107.45149273639765L77.10082708597183,54.671611799277116L77.62295458316802,112.92257539670186L77.79699708223342,-298.13181603131216L78.31912457942963,161.97470882021105L78.49316707849502,150.7351150975678L78.66720957756041,124.34759308726893L78.84125207662584,91.12645774448947L79.36337957382202,39.229453216949636L79.53742207288742,159.58202977784265L79.71146457195282,79.02293772357392L80.05954957008362,-170.46354679116848L80.23359206914903,84.34092203706267L80.40763456821442,171.92094971582318L80.58167706727981,161.67112273631983L80.92976206541061,145.17249986582368L81.10380456447602,133.01861627985386L81.27784706354142,104.60243847259801L81.79997456073761,130.38468774352066L81.974017059803,-57.31761804990859L82.1480595588684,146.16535538876133L82.32210205793382,172.21179306461022L82.6701870560646,126.02591477516523L83.01827205419539,-99.49828650834937L83.19231455326081,159.68405558690802L83.5403995513916,133.45802916389016L83.714442050457,171.723585300433L83.8884845495224,117.39848567314039L84.0625270485878,72.53294424160185L84.4106120467186,162.06722313110046L84.584654545784,100.43258795425412L84.7586970448494,55.80340609285325L84.93273954391479,157.02645487190307L85.2808245420456,129.16379700586742L85.454867041111,152.7337775948082L85.6289095401764,165.1811626250149L85.80295203924179,158.0196262300292L86.15103703737259,104.23088377269221L86.32507953643798,149.50734666217397L86.49912203550338,154.82531330656127L86.6731645345688,125.18570041104293L87.02124953269958,149.55393345679266L87.19529203176498,72.71617282367015L87.5433770298958,-12.935662256039022L87.89146202802658,-23.909711470219488L88.06550452709197,114.56211782418404L88.23954702615738,63.68446142857305L88.41358952522278,79.29886724641572L88.76167452335358,3.6018746017698438L88.93571702241898,83.45214856487199L89.10975952148438,10.578342619498459L89.63188701868057,145.26182379958198L89.80592951774598,121.7372969741292L89.97997201681137,124.30970169920282L90.15401451587677,132.42854338500263L90.50209951400757,115.70066171451526L90.67614201307296,100.97180475784806L90.85018451213836,145.28976527489232L91.02422701120378,151.3403701678426L91.37231200933456,150.04896646356553L91.54635450839996,157.0474236780525L91.72039700746535,146.91320010776235L91.89443950653077,132.77033006623537L92.24252450466156,141.64593274135694L92.41656700372695,154.35838521428718L92.59060950279236,144.51648146707424L92.76465200185775,125.07012681843844L93.11273699998856,-135.68347546173572L93.28677949905396,89.79132743139144L93.46082199811936,173.06857441998244L93.63486449718475,-91.81300481672953L93.98294949531555,159.8211622925896L94.15699199438096,93.15696437982363L94.33103449344635,162.7845168693703L94.50507699251175,161.99346457140348L94.85316199064255,157.05278845898118L95.02720448970794,157.15444984282908L95.20124698877333,153.9279879892673L95.37528948783876,156.42838229136896L95.89741698503494,141.4343408341811L96.07145948410033,102.6594424794855L96.24550198316575,107.79550130713811L96.59358698129654,94.04438616575315L96.76762948036193,124.06641584129557L96.94167197942734,130.1247929302475L97.11571447849273,-23.55525162596953L97.46379947662354,-72.89105805603234L97.63784197568894,171.63437345503706L97.81188447475434,121.27186633820325L97.98592697381973,170.9200768381012L98.33401197195053,170.60273756736646L98.50805447101594,163.88798207172297L98.68209697008133,163.90086063804458L98.85613946914673,156.6453721090387L99.20422446727753,166.76617930973177L99.37826696634292,156.9342287882311L99.55230946540831,159.42835387227345L99.72635196447374,157.61769834472557L100.07443696260452,163.54178363672116L100.24847946166992,1.7044074658265345L100.42252196073531,112.93803144319791L100.59656445980073,-41.18184122093953L100.94464945793152,168.3809452397014L101.11869195699691,152.01315212659563L101.29273445606232,164.60836127683405L101.46677695512771,119.8187108446741L101.81486195325851,119.90842570730204L101.98890445232392,-108.2737340905219L102.33698945045471,156.1212888908393L102.85911694765092,151.78329036851733L103.03315944671631,121.43083082670114L103.2072019457817,113.83031664930239L103.5552869439125,66.66827792915524L103.7293294429779,173.07172393731645L103.9033719420433,152.7298948097639L104.07741444110871,156.52414882124458L104.4254994392395,155.56795447518437L104.5995419383049,150.01656795741366L104.77358443737029,94.35279149706571L104.94762693643571,157.81860486279766L105.2957119345665,97.07176583596787L105.46975443363189,91.67146117880928L105.6437969326973,88.54331462300773L105.81783943176269,109.28408776635604L106.1659244298935,69.73690611671212L106.3399669289589,113.74810673751665L106.5140094280243,-51.759113092889976L106.68805192708969,162.33174724895431L107.03613692522049,124.43062019499689L107.2101794242859,117.6585527601527L107.38422192335129,138.79693369349934L107.55826442241668,-23.653279800831115L107.90634942054749,163.62091912485408L108.08039191961288,146.75018497775636L108.25443441867827,162.9463746732311L108.77656191587448,165.05106061374062L109.12464691400527,150.38793050584115L109.29868941307069,88.0724242347328L109.64677441120148,163.6999541199725L110.51698690652847,140.31011554193992L110.69102940559388,126.167501702384L110.86507190465927,123.29729310686969L111.03911440372467,104.65330339840602L111.38719940185547,140.81969021920867L111.73528439998627,125.2612225679287L111.90932689905166,89.53742244351088L112.25741189718246,43.25068450569643L112.43145439624786,71.39238607370498L112.60549689531325,133.24517391596044L112.77953939437867,144.58627662645154L113.12762439250946,165.89777499855995L113.30166689157485,164.90486425968027L113.47570939064025,122.24506719441204L113.64975188970567,158.15719564530508L113.99783688783646,164.11113619716215L114.17187938690185,144.81871807334198L114.34592188596726,143.94551991408218L114.51996438503265,129.0284693578384L114.86804938316345,143.89320612195502L115.04209188222886,137.14974054508798L115.21613438129425,143.3837352506573L115.39017688035965,121.76467524683072L115.73826187849045,173.0189805651602L115.91230437755586,164.0832433118808L116.08634687662125,172.5235488992858L116.26038937568664,164.7966509521498L116.60847437381744,168.76254703242094L116.78251687288284,160.29542416628556L116.95655937194823,129.58840318288605L117.13060187101365,101.0567843012866L117.47868686914444,-33.39001484755775L117.65272936820983,138.0371976692204L117.82677186727523,107.8657669063416L118.00081436634065,80.79140274980841L118.52294186353683,157.2076470900289L118.69698436260224,150.77828071241765L118.87102686166763,75.29107330932402L119.21911185979843,-349.54105617868936L119.39315435886384,166.75181543456927L119.56719685792923,162.42391259509003L119.74123935699463,168.28425881223137L120.08932435512543,146.51257090141553L120.26336685419083,150.30876851405606L120.43740935325623,160.49129278180584L121.13357934951782,-6.647829798342199L121.30762184858321,167.7877106800089L121.48166434764863,146.62117182485912L121.82974934577942,151.3173760409391L122.00379184484481,132.277437229376L122.1778343439102,118.97319133284053L122.35187684297563,122.75978137156595L122.69996184110641,140.59421702420377L122.87400434017181,113.14969402677957L123.04804683923722,148.3597539832611L123.22208933830261,89.82824701887762L123.57017433643341,151.69195878310643L123.74421683549882,148.61025987774963L124.0923018336296,132.65692535583423L124.4403868317604,135.35596453102198L124.61442933082581,156.6982358519486L124.78847182989121,154.90397172895496L124.9625143289566,166.79035395347609L125.3105993270874,159.55515838748906L125.4846418261528,143.54422149051783L125.65868432521819,163.31531103316533L125.83272682428361,158.54919349559208L126.1808118224144,141.59732725189724L126.35485432147979,154.7198729436401L126.7029393196106,126.79218394970644L127.0510243177414,131.9419230791591L127.3991093158722,123.2877562093604L127.57315181493759,157.07632149347899L127.92123681306839,157.4601518016193L128.09527931213378,158.0982581487707L128.26932181119918,141.4199250560331L128.4433643102646,155.68554897126756L128.79144930839539,150.41222110306376L128.96549180746078,151.64650501961842L129.13953430652617,148.82766933657888L129.31357680559157,153.63638155616127L129.66166180372238,147.33346631173657L129.83570430278778,151.7930834679977L130.00974680185317,110.44780570898251L130.1837893009186,129.68283569560197L130.70591679811477,146.10344285726978L130.87995929718016,104.14008667760027L131.0540017962456,126.85115015853067L131.40208679437637,131.82094274150995L131.57612929344177,94.998605989726L131.7501717925072,118.0528475936286L131.92421429157258,115.79790361436221L132.27229928970337,165.1164186200155L132.44634178876876,114.16693511836013L132.62038428783416,132.49366727568326L132.79442678689958,77.70202220259488L133.14251178503036,123.94669884440032L133.31655428409576,133.33672194786413L133.49059678316115,150.15329809037053L133.66463928222655,152.04893868295113L134.01272428035736,163.85269245884584L134.18676677942275,149.89350045715537L134.36080927848815,150.63512123516955L134.53485177755357,114.29530555769202L134.88293677568436,153.95476551251943L135.05697927474975,151.71004531708132L135.23102177381514,154.0015245808773L135.40506427288057,139.860578262771L135.75314927101135,145.918469451433L135.92719177007675,122.45496728512376L136.10123426914217,152.11726288963246L136.27527676820756,150.88680875081775L136.62336176633835,140.7690483658065L136.79740426540374,118.73271044478894L136.97144676446914,140.22398750690695L137.49357426166534,157.21433042765352L137.66761676073074,154.47482680150057L137.84165925979613,165.58971642336343L138.01570175886152,119.25413446321966L138.36378675699234,162.19902468907077L138.53782925605773,144.62952616953328L138.88591425418855,162.03233990755675L139.23399925231934,169.25795219464317L139.40804175138473,162.72599459672006L139.58208425045012,110.97157971790647L139.75612674951552,150.71346823965013L140.10421174764633,126.08606481378683L140.27825424671175,162.93818062743225L140.45229674577715,159.6454552261461L140.97442424297333,136.87269786885463L141.14846674203872,161.1903630505645L141.32250924110411,164.56779081126012L141.49655174016954,148.093275221059L141.84463673830032,121.27198118736271L142.01867923736572,165.672760095874L142.1927217364311,160.99133718747834L142.3667642354965,152.84372799587527L142.71484923362732,170.6343100430254L142.88889173269274,159.14344292429928L143.06293423175813,89.21833614036994L143.23697673082353,110.55996033045585L143.58506172895432,155.26930690514928L143.7591042280197,166.54427416890155L143.9331467270851,151.4057149222914L144.1071892261505,95.6997601081373L144.4552742242813,137.6239527244361L144.62931672334673,169.52780796386048L145.3254867196083,133.68133568532937L145.4995292186737,117.1039505864685L145.6735717177391,-18.025070238580156L145.84761421680452,157.8514760174134L146.1956992149353,-27.751557206464L146.3697417140007,118.1723039712774L146.5437842130661,78.01310440277757L146.71782671213148,74.49762463947262L147.0659117102623,169.33097748662985L147.23995420932772,164.9102301449278L147.4139967083931,159.52718267829465L147.9361242055893,161.99964875691205L148.28420920372008,121.31250968882067L148.45825170278547,163.7888263873249L148.8063367009163,157.10408406913712L149.1544216990471,99.51129450083907L149.3284641981125,149.43637429891237L149.85059169530868,164.83748755856436L150.02463419437407,135.61477711183113L150.1986766934395,163.20338721432972L150.54676169157028,132.4781273009553L150.72080419063568,148.0628998270235L150.89484668970107,157.08481149672718L151.06888918876646,-5.927071811868713L151.41697418689728,90.66652219911542L151.5910166859627,138.760729704622L152.28718668222427,-22.02842923120718L152.46122918128967,159.13042521380373L152.63527168035506,117.32405458326933L152.80931417942045,99.90325701292316L153.15739917755127,98.25619638277271L153.3314416766167,149.70817808656489L153.50548417568208,122.49520424640775L153.67952667474748,101.5218085478791L154.02761167287827,145.259416384509L154.20165417194366,81.16706551580205L154.54973917007447,164.60462978347093L154.89782416820526,168.08971427500123L155.07186666727065,162.80428307230207L155.24590916633605,116.45547247676416L155.76803666353226,37.32268329909129L155.94207916259768,76.6584850707768L156.11612166166307,-78.45998778290824L156.29016416072847,176.6333658846458L156.63824915885925,173.35085073928212L156.81229165792465,129.10395617652125L157.16037665605543,162.6476884520366L157.50846165418625,166.16704658311048L157.85654665231706,153.84110018287186L158.03058915138246,125.18543537452113L158.37867414951324,-105.47268677537025L158.90080164670945,11.646651831553742L159.24888664484024,164.37560178611744L159.42292914390563,33.82851247213874L159.59697164297103,176.6976234371958L159.77101414203642,172.37803887938503L160.29314163923266,166.84845989792333L160.46718413829805,175.46847570756978L160.64122663736345,81.772347089729L160.98931163549423,166.7415728773207L161.16335413455963,148.61948314870813L161.33739663362502,155.59209488504462L161.5114391326904,100.9513351038147L161.85952413082123,121.20530683302957L162.03356662988665,155.02758917999597L162.20760912895204,121.05106882917039L162.72973662614822,10.103838899976381L162.90377912521362,-0.7103049460538519L163.077821624279,65.08465820777201L163.25186412334443,56.135594034721635L163.59994912147522,163.8113964557935L163.7739916205406,141.62053561665584L163.948034119606,110.19508896817466L164.1220766186714,136.3863646859097L164.47016161680222,89.5231104713339L164.64420411586764,132.7005459500465L164.99228911399842,140.13633551187365L165.3403741121292,160.84536721878035L165.5144166111946,-23.187804992151566L165.68845911026,151.36602791179013L165.8625016093254,149.8514082402188L166.2105866074562,92.73327699608056L166.38462910652163,160.7708731827354L166.73271410465242,104.66413455759674L167.0807991027832,121.91181027190576L167.2548416018486,136.0709093831174L167.428884100914,124.66502732942399L167.6029265999794,148.32596845264516L167.9510115981102,-25.82675597057279L168.1250540971756,174.33241487815215L168.299096596241,173.84394318177198L168.47313909530638,140.54585227625137L168.8212240934372,166.96343936699148L168.99526659250262,173.8108892623881L169.169309091568,172.16949213141274L169.3433515906334,173.53772964727875L169.6914365887642,173.62754859195744L169.86547908782958,171.12893666046486L170.5616490840912,168.57834996272925L170.7356915831566,170.33719968481674L170.909734082222,171.72366702002725L171.0837765812874,171.94718391420562L171.60590407848358,161.74241203908875L171.77994657754897,162.40857250207225L171.9539890766144,170.99623397832045L172.30207407474518,164.19815541749966L172.47611657381057,155.87566850290256L172.65015907287597,169.7971115736574L172.82420157194136,168.3111964617154L173.17228657007217,170.27448155273083L173.3463290691376,144.6483194675663L173.520371568203,141.59936803311507L173.69441406726838,90.17557738069127L174.04249906539917,48.08578111102359L174.39058406352996,61.63391803219109L174.56462656259535,173.45295164202867L174.91271156072617,174.10898522516217L175.0867540597916,157.69369094143752L175.26079655885698,166.76203148816566L175.78292405605316,167.7402172396219L175.95696655511856,166.97181562539907L176.13100905418395,169.03521384524754L176.30505155324937,117.77588442835179L176.65313655138016,148.92098869590325L176.82717905044555,119.5741793151144L177.00122154951094,101.38288523770439L177.52334904670715,60.920616406530826L177.69739154577258,176.7357698538942L177.87143404483797,173.71576875903435L178.04547654390336,76.78372366187612L178.39356154203415,174.16874157411704L178.56760404109954,167.50254794733902L178.74164654016494,107.59637495103743L178.91568903923033,157.38479308392198L179.26377403736115,174.3196141663088L179.61185903549196,171.80072141930464L180.30802903175353,166.89004964978733L180.48207153081893,169.4264016776648L180.65611402988435,162.15431302784378L181.17824152708053,166.29064967800656L181.35228402614592,170.40848346599145L181.52632652521132,172.54302466636244L181.87441152334213,161.47244031639315L182.04845402240755,158.59183566331137L182.39653902053834,158.69849077695744L182.74462401866913,160.25642293778444L182.91866651773452,155.69831268842972L183.09270901679992,167.6998775766857L183.2667515158653,166.8842078031194L183.61483651399612,144.83105994070695L183.78887901306155,162.79070326351655L183.96292151212694,166.44401968725685L184.13696401119233,169.89648922614248L184.48504900932312,156.94208049518932L184.6590915083885,156.0148193027585L185.00717650651933,149.18878601480128L185.35526150465012,165.06216012240967L185.5293040037155,96.8769198196942L185.7033465027809,161.64376765431396L185.8773890018463,113.90924452549324L186.2254739999771,166.8974916544556L186.39951649904253,158.11406316002046L186.74760149717332,151.2079490870026L187.0956864953041,85.99941457585327L187.2697289943695,144.88184314692074L187.4437714934349,73.81441349358691L187.6178139925003,159.30533164908763L187.9658989906311,133.36222729581164L188.13994148969653,162.65675049244433L188.8361114859581,142.53910581980944L189.0101539850235,87.12763971093591L189.1841964840889,-37.98306243207935L189.3582389831543,83.38277967256727L189.7063239812851,125.90386987415353L189.8803664803505,-6.90761859700663L190.05440897941588,119.70332719491022L190.22845147848128,147.73669508463468L190.5765364766121,147.4417867381946L190.7505789756775,125.88012260180061L190.9246214747429,133.39108977303522L191.79483397006987,168.03047861237982L191.96887646913527,166.70320663215304L192.31696146726608,170.40461448493267L192.4910039663315,171.0878720122097L192.6650464653969,171.24737485614244L192.8390889644623,160.9846185116508L193.18717396259308,153.7757996011767L193.36121646165847,119.54273273180331L193.53525896072387,92.27504651899676L193.7093014597893,173.91973865757083L194.05738645792007,164.85339637578517L194.23142895698547,136.16316859635458L194.40547145605086,162.56587719935237L194.57951395511625,132.02645206051056L194.92759895324707,149.0359659563337L195.1016414523125,168.70958942240958L195.27568395137789,168.2981688123503L195.44972645044328,141.41062448275574L195.97185394763946,164.52757151907758L196.14589644670485,173.43840500209802L196.31993894577025,169.90503058021676L196.66802394390106,168.47645225464942L196.84206644296648,169.26905556842814L197.01610894203188,165.38533350958045L197.19015144109727,165.97211774292373L197.53823643922806,169.70085527837588L197.71227893829345,151.35093187323616L197.88632143735884,153.9593616875349L198.06036393642427,75.26781193726106L198.40844893455505,129.53895178519429L198.58249143362045,19.001220951276537L198.75653393268584,173.10133900783003L198.93057643175123,172.76972475959948L199.27866142988205,160.61790514554315L199.45270392894747,165.04961395605915L199.62674642801286,135.82629834260115L199.80078892707826,165.38559081587036L200.14887392520905,143.400609242545L200.49695892333983,129.02498412757677L200.67100142240523,-22.982719731585828L201.01908642053604,175.98200260392997L201.19312891960146,-71.26080074136372L201.36717141866686,173.4934713089359L201.54121391773225,172.29493557365703L201.88929891586304,173.6019101735896L202.06334141492843,171.1700891020679L202.23738391399382,175.92501091719308L202.41142641305925,171.47881744664136L202.75951141119003,136.26328614246302L202.93355391025543,169.07892720224245L203.10759640932082,77.36499292692838L203.62972390651703,167.79749715357622L203.80376640558245,169.49571314538983L203.97780890464784,174.24661703445258L204.15185140371324,169.0625247544998L204.49993640184402,174.07958880977904L204.67397890090942,163.66384178955894L204.8480213999748,171.6049190629148L205.0220638990402,166.61210032778567L205.37014889717102,108.76605179812894L205.54419139623644,169.94671199054454L205.71823389530184,168.04776782815165L205.89227639436723,160.0857824861826L206.24036139249802,164.16090011708587L206.4144038915634,158.3430414630261L206.5884463906288,125.27826441628018L206.76248888969423,82.05155423089036L207.2846163868904,161.3324126873776L207.4586588859558,119.10354512881054L207.980786383152,129.64391508237622L208.15482888221743,158.07427234354816L208.32887138128282,146.14775696371407L208.50291388034822,162.86720826417064L208.850998878479,62.39268225589012L209.0250413775444,158.21723746068028L209.1990838766098,73.69751471837344L209.37312637567518,107.49656219692906L209.721211373806,156.64613850631423L209.89525387287142,136.32044568566369L210.06929637193682,168.52526756468887L210.2433388710022,167.72079558416846L210.591423869133,167.32176322286546L210.7654663681984,132.12429912708228L210.93950886726378,167.89292355324886L211.1135513663292,167.03407270436895L211.46163636446,133.8327908057097L211.63567886352538,154.17553651790013L211.80972136259078,164.61038991054463L212.331848859787,95.72107787904042L212.5058913588524,167.53527001891126L212.8539763569832,164.79456599817834L213.20206135511398,136.14042404550912L213.55014635324477,160.48361113994912L213.72418885231016,160.45100391753633L214.07227385044098,169.30784311123358L214.2463163495064,169.0310914230148L214.4203588485718,158.25649157819595L214.5944013476372,160.03183761512756L214.94248634576797,168.9203072612229L215.11652884483337,159.72032362627812L215.29057134389876,161.16797298606696L215.46461384296418,155.95038008975916L215.81269884109497,136.02623306009332L216.16078383922576,159.3997277192818L216.33482633829115,158.36618356865426L216.68291133642197,64.23768982961927L216.8569538354874,164.51200062342207L217.03099633455278,170.83457936912635L217.20503883361818,166.87322424792865L217.55312383174896,155.90020205027014L217.90120882987975,96.65653311727009L218.07525132894514,162.98178355254305L218.42333632707596,116.4816580851176L218.59737882614138,162.2639343418963L218.77142132520677,105.4730171875674L218.94546382427217,135.26276002085706L219.46759132146835,146.8782373732621L219.64163382053374,71.84858460412168L220.33780381679534,155.74203046269997L220.51184631586074,111.50922838874646L220.68588881492613,147.73043580544493L221.03397381305695,141.3839088013587L221.20801631212237,154.61754455121235L221.38205881118776,104.72983269407462L221.55610131025315,150.6063029306996L222.07822880744934,165.24056945705664L222.42631380558012,153.22485934876863L222.77439880371094,137.06211947098222L222.94844130277636,154.79692347780156L223.12248380184175,167.1086904241241L223.29652630090715,161.55660045525178L223.64461129903793,159.33287998689065L223.81865379810333,172.1171628788218L223.99269629716872,167.85355237793607L224.16673879623414,170.17260648318722L224.51482379436493,102.11053417374454L224.68886629343032,168.80302694384991L225.0369512915611,150.70661041964865L225.38503628969193,122.99967034471888L225.55907878875735,138.77621667204562L225.73312128782274,168.63692745132153L226.25524878501892,162.50086153191813L226.42929128408431,88.2728713561671L226.6033337831497,162.19018019947467L226.7773762822151,161.36941841173336L227.12546128034592,171.34652998838112L227.29950377941134,134.22303941495284L228.1697162747383,150.7605387259211L228.3437587738037,151.89488399601953L228.51780127286912,113.62227181424328L228.8658862709999,125.0993515122418L229.0399287700653,129.06463359123745L229.2139712691307,141.93127989527324L229.91014126539233,163.20106372748864L230.08418376445772,162.94425769401326L230.2582262635231,124.80876105246932L230.6063112616539,155.59164432295756L230.7803537607193,143.99527389513634L230.9543962597847,160.63873259888095L231.12843875885008,166.30034559742893L231.65056625604632,148.68897130744767L231.8246087551117,163.8060206316764L231.9986512541771,169.4833237923147L232.3467362523079,118.58753227269983L232.52077875137329,163.28695654260852L232.8688637495041,164.60958927938503L233.2169487476349,163.230115043234L233.39099124670028,168.0869998592905L233.56503374576567,155.8801984187876L233.73907624483107,60.504774103832915L234.2612037420273,163.82748306834768L234.4352462410927,166.7453662125389L235.13141623735427,157.4590563173292L235.30545873641967,157.92309551151573L235.47950123548506,164.48212217286493L235.82758623361588,171.90024815483324L236.0016287326813,167.95866034088615L236.1756712317467,168.08412531734785L236.34971373081208,173.20978919175187L236.69779872894287,164.62180304576447L236.87184122800826,170.2388026674623L237.21992622613908,168.5108694556423L237.56801122426987,173.098415323699L237.74205372333526,146.36179604144115L237.91609622240065,169.18273979919223L238.09013872146605,168.67420870322806L238.43822371959686,169.72002459697418L238.61226621866228,96.45226946992192L238.78630871772768,157.39494398270676L238.96035121679307,153.66198850144212L239.30843621492386,164.78112975084213L239.48247871398925,143.44998554655558L239.65652121305465,164.37786453542228L239.83056371212004,169.87987916645775L240.17864871025085,164.14993202235888L240.35269120931628,155.70146220576373L240.52673370838167,167.82061717282755L240.70077620744706,167.90800854861442L241.04886120557785,167.8767750988396L241.22290370464324,168.16822803162677L241.39694620370864,107.72036787048432L241.57098870277406,171.66341814486938L241.91907370090485,155.3797564583324L242.26715869903563,155.64267710522938L242.78928619623184,168.53911351431503L242.96332869529726,117.16368981848132L243.13737119436266,151.49441602022347L243.31141369342805,166.36827114500872L243.65949869155884,141.41112363487179L243.83354119062423,78.93125275613397L244.18162618875502,162.1569921053516L244.52971118688583,162.54469194671015L244.70375368595126,165.08322058702288L244.87779618501665,152.926867744125L245.05183868408204,159.3055414696674L245.39992368221283,159.1295616364702L245.57396618127822,154.99682727436618L245.74800868034362,128.1031031765384L245.92205117940904,148.29925718852348L246.27013617753983,142.4889299889581L246.44417867660522,153.47169890470565L246.6182211756706,134.6429632800864L246.792263674736,95.1999807389866L247.14034867286682,159.21368201985058L247.31439117193224,124.61316851665923L247.48843367099764,153.05362146067392L247.66247617006303,153.76736481387053L248.01056116819382,159.20668505567517L248.1846036672592,173.99216375226754L248.3586461663246,166.44164098447374L248.53268866539,100.6812010462495L249.05481616258623,167.1483056539007L249.22885866165163,166.4571809592017L249.40290116071702,115.55786003657158L249.7509861588478,151.07738767909052L249.9250286579132,163.47635164108394L250.0990711569786,136.98305024197975L250.27311365604402,115.81519283013404L250.7952411532402,153.29568152466788L250.9692836523056,160.30806419973754L251.14332615137099,136.9227632678219L251.4914111495018,155.9633138720228L251.66545364856722,151.2537407720559L251.83949614763262,161.08494366970132L252.013538646698,166.41367631846774L252.3616236448288,168.22745485969745L252.5356661438942,155.8871600447601L252.70970864295958,139.19162608175793L252.88375114202498,138.06202717403733L253.2318361401558,110.28663700007837L253.4058786392212,143.92220995199023L253.5799211382866,166.11429548072235L253.753963637352,146.81397926855266L254.1020486354828,170.82026242751456L254.27609113454818,153.2874433061154L254.45013363361358,168.014320219101L254.624176132679,170.336590652976L254.97226113080978,165.39408965366928L255.14630362987518,167.35965461093156L255.32034612894057,139.3809902593058L255.49438862800596,160.86782133377068L255.84247362613678,162.18277795028467L256.0165161252022,167.5367023204478L256.19055862426757,141.2231685681648L256.364601123333,158.97461245127755L256.7126861214638,159.5680976913469L256.8867286205292,150.7700513284159L257.06077111959456,73.64806773795704L257.23481361866,167.48717362043718L257.58289861679077,109.00188129522301L257.7569411158562,99.88310540271596L257.93098361492156,160.88309627197685L258.105026113987,107.50029037733565L258.45311111211777,126.55161029887222L258.62715361118313,139.961566012126L258.80119611024855,133.9379263766308L258.975238609314,154.51192970591433L259.67140860557555,123.15079416944695L259.845451104641,159.6209260960539L260.19353610277176,167.60473167399863L260.3675786018372,162.16515081294756L260.54162110090255,167.72957271031527L260.71566359996797,158.259252375298L261.06374859809875,157.84877264489108L261.2377910971642,161.4416386552851L261.41183359622954,94.4092266071068L261.58587609529496,167.42896828729425L261.93396109342575,153.1141094208608L262.1080035924912,109.73122646500269L262.28204609155654,115.16174086837064L262.45608859062196,157.13915723552145L262.80417358875275,83.32916278420794L262.9782160878181,159.8113813406165L263.15225858688353,146.92529902498234L263.32630108594896,103.57170702205802L263.67438608407974,160.4210823985444L263.84842858314516,124.22128993280705L264.02247108221053,84.34063049688869L264.19651358127595,149.9736077458682L264.54459857940674,83.18443517420586L264.71864107847216,164.99557632222147L264.8926835775375,143.88855693963518L265.06672607660295,131.61337938946542L265.41481107473373,141.17437755313983L265.58885357379916,154.14621685267645L265.7628960728645,161.18955027189767L265.93693857192994,125.07916456383168L266.28502357006073,137.40372946120044L266.45906606912615,164.95969700308333L266.6331085681915,121.10625385028368L266.80715106725694,140.84450868083718L267.1552360653877,161.85790170346135L267.3292785644531,90.62252613649729L267.5033210635185,156.4327068039496L267.67736356258393,163.18468667907933L268.0254485607147,77.41477562027238L268.3735335588455,158.85632886023768L268.8956610560417,99.70660874830128L269.06970355510714,163.50944365946785L269.2437460541725,166.1751500747644L269.4177885532379,163.83445463318975L269.7658735513687,149.20001693741239L269.93991605043414,127.5235257279503L270.2880010485649,122.25484262479097L270.6360860466957,163.97459711136474L270.81012854576113,169.77834698791423L270.9841710448265,166.96687932018062L271.1582135438919,152.68043236888371L271.5062985420227,171.01584171149858L271.68034104108807,162.88064451150686L271.8543835401535,157.740542772578L272.0284260392189,159.26073704565778L272.3765110373497,143.79315483497703L272.5505535364151,159.68131025026975L272.7245960354805,171.0110832016135L272.8986385345459,170.17174401017255L273.2467235326767,173.95619940057867L273.4207660317421,169.72686585219304L273.5948085308075,171.4660537294792L273.7688510298729,152.77674664090438L274.1169360280037,154.23323276005743L274.2909785270691,160.6665040090898L274.6390635251999,164.28821593192478L274.9871485233307,164.00769465134286L275.1611910223961,150.35284408763073L275.3352335214615,79.32492917105901L275.5092760205269,148.36691659526264L275.8573610186577,164.39991667835454L276.03140351772305,85.11896325044698L276.20544601678847,160.25911305848066L276.3794885158539,162.17223170535487L276.7275735139847,137.51546444151427L276.9016160130501,169.01610747282317L277.07565851211547,170.14956376625474L277.2497010111809,173.50519862286598L277.5977860093117,175.72406947503765L277.7718285083771,172.6646929946494L277.94587100744246,162.80139527853333L278.1199135065079,169.64593363730611L278.4679985046387,171.68631730035256" fill="none"></path></g></g></g></g></g></g><g transform="translate(51, 177)" clip-path="url(#clip_1)"><clipPath id="clip_1"><rect width="278" height="22"></rect></clipPath><g><g><line x1="0" y1="0" x2="0" y2="5" style="visibility: inherit;" fill="rgb(0, 0, 0)" stroke="rgb(204, 204, 204)" stroke-width="1px"></line><line x1="34.808499813079834" y1="0" x2="34.808499813079834" y2="5" style="visibility: inherit;" fill="rgb(0, 0, 0)" stroke="rgb(204, 204, 204)" stroke-width="1px"></line><line x1="69.61699962615967" y1="0" x2="69.61699962615967" y2="5" style="visibility: inherit;" fill="rgb(0, 0, 0)" stroke="rgb(204, 204, 204)" stroke-width="1px"></line><line x1="104.4254994392395" y1="0" x2="104.4254994392395" y2="5" style="visibility: inherit;" fill="rgb(0, 0, 0)" stroke="rgb(204, 204, 204)" stroke-width="1px"></line><line x1="139.23399925231934" y1="0" x2="139.23399925231934" y2="5" style="visibility: inherit;" fill="rgb(0, 0, 0)" stroke="rgb(204, 204, 204)" stroke-width="1px"></line><line x1="174.04249906539917" y1="0" x2="174.04249906539917" y2="5" style="visibility: inherit;" fill="rgb(0, 0, 0)" stroke="rgb(204, 204, 204)" stroke-width="1px"></line><line x1="208.850998878479" y1="0" x2="208.850998878479" y2="5" style="visibility: inherit;" fill="rgb(0, 0, 0)" stroke="rgb(204, 204, 204)" stroke-width="1px"></line><line x1="243.65949869155884" y1="0" x2="243.65949869155884" y2="5" style="visibility: inherit;" fill="rgb(0, 0, 0)" stroke="rgb(204, 204, 204)" stroke-width="1px"></line><line x1="278.4679985046387" y1="0" x2="278.4679985046387" y2="5" style="visibility: inherit;" fill="rgb(0, 0, 0)" stroke="rgb(204, 204, 204)" stroke-width="1px"></line></g><g transform="translate(0, 8)"><text style="text-anchor: middle; visibility: hidden; font-family: Roboto, sans-serif; font-size: 12px; font-weight: 200;" x="0" y="0" dx="0em" dy="0.95em" fill="rgb(50, 49, 63)" stroke="none" stroke-width="1px">-200</text><text style="text-anchor: middle; visibility: inherit; font-family: Roboto, sans-serif; font-size: 12px; font-weight: 200;" x="34.808499813079834" y="0" dx="0em" dy="0.95em" fill="rgb(50, 49, 63)" stroke="none" stroke-width="1px">0</text><text style="text-anchor: middle; visibility: inherit; font-family: Roboto, sans-serif; font-size: 12px; font-weight: 200;" x="69.61699962615967" y="0" dx="0em" dy="0.95em" fill="rgb(50, 49, 63)" stroke="none" stroke-width="1px">200</text><text style="text-anchor: middle; visibility: inherit; font-family: Roboto, sans-serif; font-size: 12px; font-weight: 200;" x="104.4254994392395" y="0" dx="0em" dy="0.95em" fill="rgb(50, 49, 63)" stroke="none" stroke-width="1px">400</text><text style="text-anchor: middle; visibility: inherit; font-family: Roboto, sans-serif; font-size: 12px; font-weight: 200;" x="139.23399925231934" y="0" dx="0em" dy="0.95em" fill="rgb(50, 49, 63)" stroke="none" stroke-width="1px">600</text><text style="text-anchor: middle; visibility: inherit; font-family: Roboto, sans-serif; font-size: 12px; font-weight: 200;" x="174.04249906539917" y="0" dx="0em" dy="0.95em" fill="rgb(50, 49, 63)" stroke="none" stroke-width="1px">800</text><text style="text-anchor: middle; visibility: inherit; font-family: Roboto, sans-serif; font-size: 12px; font-weight: 200;" x="208.850998878479" y="0" dx="0em" dy="0.95em" fill="rgb(50, 49, 63)" stroke="none" stroke-width="1px">1k</text><text style="text-anchor: middle; visibility: inherit; font-family: Roboto, sans-serif; font-size: 12px; font-weight: 200;" x="243.65949869155884" y="0" dx="0em" dy="0.95em" fill="rgb(50, 49, 63)" stroke="none" stroke-width="1px">1.2k</text><text style="text-anchor: middle; visibility: hidden; font-family: Roboto, sans-serif; font-size: 12px; font-weight: 200;" x="278.4679985046387" y="0" dx="0em" dy="0.95em" fill="rgb(50, 49, 63)" stroke="none" stroke-width="1px">1.4k</text></g><line x1="0" y1="0" x2="278.4679985046387" y2="0" fill="rgb(0, 0, 0)" stroke="rgb(204, 204, 204)" stroke-width="1px"></line></g></g></g></g></svg>