<svg viewBox="0 0 330 200" xmlns="http://www.w3.org/2000/svg"><g><g><g><g><g><line x1="51.53200149536133" y1="177.86299896240234" x2="46.53200149536133" y2="177.86299896240234" style="visibility: inherit;" fill="rgb(0, 0, 0)" stroke="rgb(204, 204, 204)" stroke-width="1px"></line><line x1="51.53200149536133" y1="158.1004435221354" x2="46.53200149536133" y2="158.1004435221354" style="visibility: inherit;" fill="rgb(0, 0, 0)" stroke="rgb(204, 204, 204)" stroke-width="1px"></line><line x1="51.53200149536133" y1="138.33788808186847" x2="46.53200149536133" y2="138.33788808186847" style="visibility: inherit;" fill="rgb(0, 0, 0)" stroke="rgb(204, 204, 204)" stroke-width="1px"></line><line x1="51.53200149536133" y1="118.57533264160158" x2="46.53200149536133" y2="118.57533264160158" style="visibility: inherit;" fill="rgb(0, 0, 0)" stroke="rgb(204, 204, 204)" stroke-width="1px"></line><line x1="51.53200149536133" y1="98.81277720133463" x2="46.53200149536133" y2="98.81277720133463" style="visibility: inherit;" fill="rgb(0, 0, 0)" stroke="rgb(204, 204, 204)" stroke-width="1px"></line><line x1="51.53200149536133" y1="79.0502217610677" x2="46.53200149536133" y2="79.0502217610677" style="visibility: inherit;" fill="rgb(0, 0, 0)" stroke="rgb(204, 204, 204)" stroke-width="1px"></line><line x1="51.53200149536133" y1="59.28766632080079" x2="46.53200149536133" y2="59.28766632080079" style="visibility: inherit;" fill="rgb(0, 0, 0)" stroke="rgb(204, 204, 204)" stroke-width="1px"></line><line x1="51.53200149536133" y1="39.52511088053383" x2="46.53200149536133" y2="39.52511088053383" style="visibility: inherit;" fill="rgb(0, 0, 0)" stroke="rgb(204, 204, 204)" stroke-width="1px"></line><line x1="51.53200149536133" y1="19.762555440266897" x2="46.53200149536133" y2="19.762555440266897" style="visibility: inherit;" fill="rgb(0, 0, 0)" stroke="rgb(204, 204, 204)" stroke-width="1px"></line><line x1="51.53200149536133" y1="0" x2="46.53200149536133" y2="0" style="visibility: inherit;" fill="rgb(0, 0, 0)" stroke="rgb(204, 204, 204)" stroke-width="1px"></line></g><g transform="translate(41.53200149536133, 0)"><text style="text-anchor: end; visibility: hidden; font-family: Roboto, sans-serif; font-size: 12px; font-weight: 200;" x="0" y="177.86299896240234" dx="0em" dy="0.3em" fill="rgb(50, 49, 63)" stroke="none" stroke-width="1px">0.12</text><text style="text-anchor: end; visibility: inherit; font-family: Roboto, sans-serif; font-size: 12px; font-weight: 200;" x="0" y="158.1004435221354" dx="0em" dy="0.3em" fill="rgb(50, 49, 63)" stroke="none" stroke-width="1px">0.14</text><text style="text-anchor: end; visibility: hidden; font-family: Roboto, sans-serif; font-size: 12px; font-weight: 200;" x="0" y="138.33788808186847" dx="0em" dy="0.3em" fill="rgb(50, 49, 63)" stroke="none" stroke-width="1px">0.16</text><text style="text-anchor: end; visibility: inherit; font-family: Roboto, sans-serif; font-size: 12px; font-weight: 200;" x="0" y="118.57533264160158" dx="0em" dy="0.3em" fill="rgb(50, 49, 63)" stroke="none" stroke-width="1px">0.18</text><text style="text-anchor: end; visibility: hidden; font-family: Roboto, sans-serif; font-size: 12px; font-weight: 200;" x="0" y="98.81277720133463" dx="0em" dy="0.3em" fill="rgb(50, 49, 63)" stroke="none" stroke-width="1px">0.2</text><text style="text-anchor: end; visibility: inherit; font-family: Roboto, sans-serif; font-size: 12px; font-weight: 200;" x="0" y="79.0502217610677" dx="0em" dy="0.3em" fill="rgb(50, 49, 63)" stroke="none" stroke-width="1px">0.22</text><text style="text-anchor: end; visibility: hidden; font-family: Roboto, sans-serif; font-size: 12px; font-weight: 200;" x="0" y="59.28766632080079" dx="0em" dy="0.3em" fill="rgb(50, 49, 63)" stroke="none" stroke-width="1px">0.24</text><text style="text-anchor: end; visibility: inherit; font-family: Roboto, sans-serif; font-size: 12px; font-weight: 200;" x="0" y="39.52511088053383" dx="0em" dy="0.3em" fill="rgb(50, 49, 63)" stroke="none" stroke-width="1px">0.26</text><text style="text-anchor: end; visibility: hidden; font-family: Roboto, sans-serif; font-size: 12px; font-weight: 200;" x="0" y="19.762555440266897" dx="0em" dy="0.3em" fill="rgb(50, 49, 63)" stroke="none" stroke-width="1px">0.28</text><text style="text-anchor: end; visibility: hidden; font-family: Roboto, sans-serif; font-size: 12px; font-weight: 200;" x="0" y="0" dx="0em" dy="0.3em" fill="rgb(50, 49, 63)" stroke="none" stroke-width="1px">0.3</text></g><line x1="51.53200149536133" y1="0" x2="51.53200149536133" y2="177.86299896240234" fill="rgb(0, 0, 0)" stroke="rgb(204, 204, 204)" stroke-width="1px"></line></g></g><g transform="translate(51, 0)" clip-path="url(#clip_0)"><clipPath id="clip_0"><rect width="278" height="177"></rect></clipPath><g><g><g><line x1="0" y1="0" x2="0" y2="177.86299896240234" fill="rgb(0, 0, 0)" stroke="rgb(60, 60, 60)" stroke-width="1px" opacity="0.25"></line><line x1="30.94088872273763" y1="0" x2="30.94088872273763" y2="177.86299896240234" fill="rgb(0, 0, 0)" stroke="rgb(60, 60, 60)" stroke-width="1px" opacity="0.25"></line><line x1="61.88177744547526" y1="0" x2="61.88177744547526" y2="177.86299896240234" fill="rgb(0, 0, 0)" stroke="rgb(60, 60, 60)" stroke-width="1px" opacity="0.25"></line><line x1="92.82266616821289" y1="0" x2="92.82266616821289" y2="177.86299896240234" fill="rgb(0, 0, 0)" stroke="rgb(60, 60, 60)" stroke-width="1px" opacity="0.25"></line><line x1="123.76355489095052" y1="0" x2="123.76355489095052" y2="177.86299896240234" fill="rgb(0, 0, 0)" stroke="rgb(60, 60, 60)" stroke-width="1px" opacity="0.25"></line><line x1="154.70444361368817" y1="0" x2="154.70444361368817" y2="177.86299896240234" fill="rgb(0, 0, 0)" stroke="rgb(60, 60, 60)" stroke-width="1px" opacity="0.25"></line><line x1="185.64533233642578" y1="0" x2="185.64533233642578" y2="177.86299896240234" fill="rgb(0, 0, 0)" stroke="rgb(60, 60, 60)" stroke-width="1px" opacity="0.25"></line><line x1="216.58622105916342" y1="0" x2="216.58622105916342" y2="177.86299896240234" fill="rgb(0, 0, 0)" stroke="rgb(60, 60, 60)" stroke-width="1px" opacity="0.25"></line><line x1="247.52710978190103" y1="0" x2="247.52710978190103" y2="177.86299896240234" fill="rgb(0, 0, 0)" stroke="rgb(60, 60, 60)" stroke-width="1px" opacity="0.25"></line><line x1="278.4679985046387" y1="0" x2="278.4679985046387" y2="177.86299896240234" fill="rgb(0, 0, 0)" stroke="rgb(60, 60, 60)" stroke-width="1px" opacity="0.25"></line></g><g><line x1="0" y1="177.86299896240234" x2="278.4679985046387" y2="177.86299896240234" fill="rgb(0, 0, 0)" stroke="rgb(60, 60, 60)" stroke-width="1px" opacity="0.25"></line><line x1="0" y1="158.1004435221354" x2="278.4679985046387" y2="158.1004435221354" fill="rgb(0, 0, 0)" stroke="rgb(60, 60, 60)" stroke-width="1px" opacity="0.25"></line><line x1="0" y1="138.33788808186847" x2="278.4679985046387" y2="138.33788808186847" fill="rgb(0, 0, 0)" stroke="rgb(60, 60, 60)" stroke-width="1px" opacity="0.25"></line><line x1="0" y1="118.57533264160158" x2="278.4679985046387" y2="118.57533264160158" fill="rgb(0, 0, 0)" stroke="rgb(60, 60, 60)" stroke-width="1px" opacity="0.25"></line><line x1="0" y1="98.81277720133463" x2="278.4679985046387" y2="98.81277720133463" fill="rgb(0, 0, 0)" stroke="rgb(60, 60, 60)" stroke-width="1px" opacity="0.25"></line><line x1="0" y1="79.0502217610677" x2="278.4679985046387" y2="79.0502217610677" fill="rgb(0, 0, 0)" stroke="rgb(60, 60, 60)" stroke-width="1px" opacity="0.25"></line><line x1="0" y1="59.28766632080079" x2="278.4679985046387" y2="59.28766632080079" fill="rgb(0, 0, 0)" stroke="rgb(60, 60, 60)" stroke-width="1px" opacity="0.25"></line><line x1="0" y1="39.52511088053383" x2="278.4679985046387" y2="39.52511088053383" fill="rgb(0, 0, 0)" stroke="rgb(60, 60, 60)" stroke-width="1px" opacity="0.25"></line><line x1="0" y1="19.762555440266897" x2="278.4679985046387" y2="19.762555440266897" fill="rgb(0, 0, 0)" stroke="rgb(60, 60, 60)" stroke-width="1px" opacity="0.25"></line><line x1="0" y1="0" x2="278.4679985046387" y2="0" fill="rgb(0, 0, 0)" stroke="rgb(60, 60, 60)" stroke-width="1px" opacity="0.25"></line></g></g></g><g><g><line x1="0" y1="296.4383316040039" x2="278.4679985046387" y2="296.4383316040039" fill="rgb(0, 0, 0)" stroke="rgb(153, 153, 153)" stroke-width="1.5px"></line></g></g><g><g><line x1="30.94088872273763" y1="0" x2="30.94088872273763" y2="177.86299896240234" fill="rgb(0, 0, 0)" stroke="rgb(153, 153, 153)" stroke-width="1.5px"></line></g></g><g><g><g><g><g><path style="fill: none;" stroke="rgb(255, 112, 67)" stroke-width="2px" d="M33.72556870778402,184.62776828158252L34.03497759501139,176.87661250864736L34.18968203862508,172.232403196462L34.34438648223877,169.44820791814314L34.49909092585246,167.77852880313642L34.808499813079834,179.0164197498605L34.96320425669352,155.62161947427384L35.11790870030721,140.48425347186205L35.2726131439209,131.4024242344899L35.58202203114827,147.59680801788397L35.89143091837565,154.87322313778193L36.04613536198934,148.6510716343734L36.35554424921672,144.066328257553L36.51024869283041,125.26751856392092L36.66495313644409,119.30100377132158L36.81965758005778,124.88094966885083L37.129066467285156,127.300725634486L37.283770910898845,151.67653216243315L37.43847535451253,155.29253802428752L37.59317979812622,161.03608832385817L37.90258868535359,169.0671146199645L38.05729312896728,172.23663438814913L38.21199757258097,168.6965837374145L38.36670201619466,170.0642800731636L38.67611090342204,178.534387920242L42.23431310653687,182.1395018419717L42.698426437377925,175.21083620550627L42.853130880991614,143.0736605411968L43.0078353246053,123.7913551426327L43.31724421183268,112.22197190350197L43.626653099060064,103.50455014638891L43.78135754267375,105.8052335426666L44.09076642990112,114.23411907628397L44.24547087351481,111.12677653390962L44.4001753171285,124.21291040168339L44.55487976074219,113.80848049110675L44.864288647969566,119.89564547223713L45.01899309158325,122.0368593458472L45.173697535196936,130.39441118766592L45.328401978810625,135.40894229275716L45.637810866038,145.32883575397094L45.79251530965169,151.2807718306992L45.94721975326539,151.10097170866572L46.101924196879075,141.32164980828856L46.411333084106445,134.09685764724938L46.566037527720134,138.60686361180848L46.72074197133382,132.50398377872168L46.87544641494751,127.00356206405971L47.18485530217489,121.75465451240967L47.33955974578858,116.58148521128496L47.49426418940226,121.49315383569211L47.64896863301595,123.22474463898385L47.958377520243324,123.86041954939415L48.11308196385701,113.20642227151431L48.2677864074707,120.26470984173976L48.4224908510844,132.9312480238675L48.886604181925456,146.50644287583677L49.041308625539145,153.8527573794266L49.19601306915283,150.70170447995883L49.50542195638021,153.50169499272417L49.6601263999939,154.25265383568157L49.96953528722127,154.49899199776004L50.27894417444865,148.67735964549453L50.433648618062335,143.0404644711246L50.588353061676024,135.87597938455104L51.05246639251708,140.70531694457492L51.20717083613078,152.08669142567507L51.36187527974447,154.0318059212101L51.516579723358156,152.51887831743443L51.82598861058553,156.34916198621448L51.98069305419922,163.9119322557811L52.13539749781291,166.91988901437162L52.29010194142659,163.6780378713031L52.59951082865397,163.67662258050706L52.75421527226766,163.90795717852365L53.063624159495035,169.13113611566115L53.37303304672242,165.261471058586L53.527737490336094,162.37613370259683L53.68244193394979,158.2128560400951L53.83714637756348,157.8737827139364L54.146555264790855,153.14217796395576L54.301259708404544,150.30321511396735L54.45596415201823,154.64128602130907L54.61066859563192,151.61419332122122L54.92007748285929,150.92257011895572L55.22948637008667,154.72244255521565L55.38419081370036,159.56812568747375L55.693599700927734,158.52858812544076L55.848304144541416,162.49190567824857L56.003008588155105,159.12186658102857L56.1577130317688,158.98089566338996L56.46712191899618,158.89631311280684L56.621826362609866,159.63097870084766L56.93123524983724,162.35747068674223L57.3953485806783,162.00732942645192L57.55005302429199,163.89874870010058L57.70475746790568,161.14681022364914L58.01416635513306,157.08956902680796L58.168870798746745,156.05014686111846L58.32357524236043,150.67072533220139L58.478279685974115,147.44307241485114L58.7876885732015,149.22182152398202L58.94239301681519,154.354012690352L59.09709746042888,158.67628978039232L59.251801904042566,160.89660829543791L59.561210791269936,161.24791690639978L59.715915234883624,163.61622304410645L60.025324122111,162.81885103929798L60.48943745295207,164.67996411131097L60.64414189656575,160.83833459445984L60.79884634017944,163.91478799630565L61.26295967102051,161.79504813519034L61.4176641146342,161.70576773027247L61.57236855824789,159.62487034539885L61.88177744547526,159.8616554796243L62.03648188908895,154.95969871985034L62.191186332702635,152.53128787785445L62.345890776316324,152.3173333362859L62.6552996635437,149.50581921018943L62.81000410715739,146.82289759592172L62.96470855077108,144.91587966451473L63.11941299438476,143.1500110195468L63.58352632522583,142.0994598464037L63.73823076883952,138.00792296917626L63.89293521245321,133.51223729411214L64.20234409968059,129.48006073740564L64.35704854329427,130.4295515761238L64.51175298690795,130.35920643801933L64.66645743052165,131.28508353406963L64.97586631774902,132.14044855365788L65.13057076136272,137.56388730041596L65.2852752049764,139.7701316044006L65.43997964859008,144.0225612011395L65.74938853581746,147.82671113460134L65.90409297943116,150.4002347544124L66.05879742304484,152.36983266868984L66.21350186665853,156.34030569959373L66.52291075388591,155.49032189232184L66.67761519749959,157.11708549518042L66.83231964111327,152.60029708087652L66.98702408472697,154.68346253627902L67.60584185918172,142.66506811716675L67.76054630279542,129.66334862588695L68.06995519002278,128.40625712467764L68.22465963363648,131.8494032887366L68.37936407725016,132.5630334250654L68.53406852086385,138.7896981998169L68.84347740809123,138.64511476833766L69.1528862953186,144.8547607916512L69.30759073893229,154.2596862079785L69.61699962615967,160.62372337777498L69.77170406977335,164.75386396748786L70.08111295700073,171.49717517687802L70.3905218442281,173.97089457881245L70.5452262878418,174.2295296116329L70.69993073145548,171.49849530231947L70.85463517506916,173.61974760163469L71.16404406229654,176.19358093582179L71.31874850591024,173.31009245770295L71.47345294952392,172.18885893780285L71.62815739313761,175.4638967150189L71.937566280365,175.69259445065723L72.09227072397869,174.13478674114512L72.24697516759235,167.25508556413345L72.40167961120606,159.62662125014162L72.71108849843344,155.26249656215933L72.86579294204712,150.34153169051848L73.1752018292745,141.5196659850574L73.48461071650188,138.20607489457257L73.63931516011556,134.15883972304766L73.79401960372925,129.54409455782792L73.94872404734294,118.36242873534525L74.25813293457031,92.88376068718145L74.41283737818401,68.10320490467159L74.56754182179769,65.0762497220733L74.72224626541137,74.49405008847033L75.18635959625244,90.77380209601888L75.34106403986613,93.48845426490921L75.49576848347982,94.66508737035895L75.80517737070718,90.07574943245412L75.95988181432088,95.8393603341472L76.11458625793456,104.93235646075843L76.26929070154826,102.69512159926789L76.57869958877563,101.05207613444433L76.73340403238932,102.18063366033232L76.888108476003,99.82350639063446L77.04281291961671,97.90248019914179L77.35222180684408,99.8720536080078L77.66163069407146,97.76088967132627L77.81633513768514,95.09610598774205L78.12574402491252,100.92090875309721L78.2804484685262,102.34225068038722L78.4351529121399,109.25501578271832L78.58985735575358,109.45805972412097L78.89926624298096,114.85196902172643L79.05397068659465,112.01482601232007L79.20867513020833,118.22195445022818L79.36337957382202,117.92133388567478L79.6727884610494,122.1330819994406L79.82749290466309,117.01593572665912L79.98219734827677,127.6486840068963L80.13690179189047,127.99098358924091L80.44631067911783,126.19392996067218L80.7557195663452,121.97487364743684L80.9104240099589,116.02169467939919L81.21983289718628,104.02087202380208L81.37453734079996,101.99654759082004L81.52924178441366,92.02311430422411L81.68394622802734,83.09714305063056L81.99335511525473,69.22663183782639L82.3027640024821,63.36427631144458L82.76687733332317,29.550773777135067L82.92158177693685,3.25377601379166L83.07628622055054,-0.7884052092714732L83.23099066416422,13.545511240930642L83.5403995513916,38.49307818740933L83.84980843861898,55.99822989810157L84.00451288223267,75.46530370889421L84.31392176946004,83.58624886046123L84.46862621307373,83.04585138305173L84.77803510030111,91.25164254929597L85.08744398752849,93.92240104898431L85.24214843114217,95.67044954477062L85.39685287475585,96.4859758266561L85.55155731836955,86.0398847064848L85.86096620559692,82.32451407017597L86.0156706492106,61.49819135790808L86.1703750928243,42.473782537649086L86.32507953643798,56.63685194284589L86.63448842366536,75.74945929119778L86.78919286727904,88.23702558889153L86.94389731089275,102.90012257499787L87.09860175450642,108.72353477955008L87.40801064173381,119.66150975775285L87.5627150853475,129.62306420318143L87.87212397257487,130.38912559480855L88.18153285980225,129.13180283428605L88.33623730341594,127.65715181604027L88.49094174702962,132.51498997865332L88.64564619064332,129.41176183292038L88.95505507787068,133.51266962015123L89.10975952148438,134.0159549172292L89.26446396509806,138.23799883355375L89.41916840871176,138.5256178517749L89.72857729593913,132.4571092474556L89.88328173955281,126.36280248031838L90.0379861831665,121.94555182308055L90.19269062678019,112.58351078598393L90.50209951400757,100.63649547977862L90.65680395762125,102.8887856546755L90.81150840123495,111.77528942708533L91.275621732076,123.23342843603876L91.43032617568969,130.11043213358522L91.58503061930338,131.95141878478222L91.73973506291706,128.63389996813623L92.04914395014444,123.96943520974887L92.20384839375815,123.6390944895069L92.51325728098551,122.14396623130568L92.82266616821289,123.62649318367808L92.97737061182659,120.00008739842255L93.13207505544027,117.11377524754192L93.28677949905396,118.15188464630346L93.75089282989502,123.00685346559877L93.9055972735087,124.70982524116755L94.0603017171224,125.30137746552766L94.36971060434978,124.31598377121848L94.52441504796346,125.0251404142743L94.67911949157715,123.01485452959486L94.83382393519084,125.69590887726366L95.14323282241821,121.36055563214529L95.2979372660319,112.8250169401489L95.45264170964559,102.29169506748082L95.60734615325927,86.46359329055507L95.91675504048665,84.13018645310554L96.07145948410033,79.28518586093057L96.22616392771403,77.13359848974902L96.38086837132771,77.95677172500088L96.8449817021688,82.7533315682925L96.99968614578246,77.32042891480327L97.15439058939617,71.91456292201744L97.46379947662354,74.21102517534123L97.61850392023723,82.54979817698351L97.77320836385091,92.81512064050845L97.92791280746461,98.91428629128686L98.23732169469199,100.23773610954255L98.39202613830567,116.83861360891136L98.54673058191935,124.62255417693521L98.70143502553304,124.71590269794635L99.01084391276042,124.34033222816093L99.1655483563741,126.25431174292251L99.3202527999878,134.31661885036425L99.47495724360148,136.66081044399488L99.78436613082886,134.6132280953163L100.09377501805623,136.27250484819723L100.24847946166992,132.19844642131164L100.71259279251099,132.43364250484697L100.86729723612467,129.80768463221028L101.02200167973835,129.20544181067282L101.33141056696573,134.82915674264788L101.48611501057943,136.0244733385442L101.6408194541931,137.04043602225238L101.79552389780682,125.6573348298271L102.10493278503417,120.26140415309497L102.25963722864788,117.81206436287704L102.41434167226156,117.49869114963201L103.03315944671631,122.34315124904485L103.18786389033001,126.05724045839233L103.34256833394369,126.19459116523338L103.65197722117107,126.52224871750653L103.80668166478475,126.85218017813574L103.96138610839844,125.98035152763642L104.11609055201212,131.3013096429384L104.4254994392395,132.41661659978996L104.73490832646688,136.69320109266513L104.88961277008056,132.27291864725854L105.19902165730794,123.20685946285111L105.35372610092163,115.42709870726014L105.50843054453532,117.17684837207467L105.663134988149,112.40191985504708L106.28195276260375,115.58953111667978L106.43665720621745,123.70879970718423L106.74606609344484,125.60864769540005L106.90077053705852,132.16468971553988L107.05547498067219,135.30358230306675L107.2101794242859,139.44525871960363L107.51958831151327,139.43194196956946L107.67429275512696,138.30898450025663L107.82899719874065,142.66195747775703L107.98370164235433,140.28574214465576L108.29311052958171,145.19707740884053L108.44781497319539,150.46444411698934L108.60251941680909,152.89398764997304L108.75722386042277,147.5819094523302L109.06663274765015,145.07309124283688L109.22133719126384,149.78692941868772L109.37604163487752,146.06275795463787L109.5307460784912,144.02735640108156L109.84015496571858,135.87745415005068L109.99485940933228,121.87381382874261L110.14956385294596,113.32430466804207L110.30426829655966,105.30223794016068L110.61367718378702,96.56070903317841L110.76838162740071,95.98831489184656L110.9230860710144,93.10073982702338L111.07779051462809,86.11157820883744L111.38719940185547,83.06421695218144L111.85131273269654,90.49227139831866L112.16072161992392,90.57516511889838L112.3154260635376,86.12601240836791L112.4701305071513,85.49869196919313L112.62483495076498,91.82303550554126L112.93424383799235,97.2334691758321L113.08894828160604,105.68221372014692L113.24365272521973,107.11000587977097L113.39835716883341,104.95513596508287L113.70776605606079,99.2585320817214L114.01717494328817,102.1084361247594L114.17187938690185,103.93165515999775L114.48128827412923,104.64760916285681L114.63599271774292,102.26123919689562L114.9454016049703,95.29971289566882L115.25481049219766,91.65661600803277L115.40951493581136,86.22114508171045L115.56421937942504,88.4591818827684L115.71892382303874,88.45207283298795L116.02833271026611,88.94282494942877L116.1830371538798,93.41387486196709L116.33774159749349,102.70430113570002L116.80185492833456,114.2113464330387L116.95655937194823,125.51062124508043L117.11126381556194,126.93369201219977L117.26596825917562,129.5008247845684L117.575377146403,122.69842027800654L117.88478603363038,114.51635017794327L118.03949047724406,105.8697221094513L118.34889936447144,100.29204145640779L118.50360380808513,100.93270139548544L118.65830825169881,98.17891769835535L118.81301269531251,83.78784964066801L119.12242158253987,76.4778436728905L119.27712602615357,61.717132689032034L119.58653491338094,52.686924596225566L119.89594380060832,55.223234854596036L120.050648244222,59.96209320818294L120.20535268783568,53.15041632663081L120.36005713144938,50.64080156082056L120.66946601867676,47.12088470909555L120.82417046229044,46.85871282918205L120.97887490590414,44.19484741030004L121.13357934951782,35.19765082250422L121.4429882367452,29.71452118285204L121.59769268035888,20.555486189994777L121.75239712397259,11.974250860710171L121.90710156758625,14.192924219618524L122.21651045481364,21.616528651188514L122.52591934204102,39.90440213868295L122.6806237856547,57.05015075733491L122.99003267288208,65.3153948260246L123.29944156010946,80.87662644732943L123.45414600372315,83.50476098041217L123.76355489095052,90.82209717434365L123.91825933456421,96.33558231726231L124.0729637781779,100.59387056155549L124.22766822179159,101.12247438738751L124.53707710901897,100.12183386861366L124.69178155263265,98.92460497936622L124.84648599624633,96.43777317108085L125.00119043986003,98.06069544438182L125.3105993270874,96.47927881933109L125.46530377070108,92.55057022244395L125.62000821431478,89.89466657334906L125.77471265792846,83.20754060370756L126.08412154515584,79.66458580501852L126.39353043238322,73.20053022543472L126.5482348759969,68.21704771400775L126.85764376322427,54.75727349394886L127.01234820683798,51.97866447454761L127.16705265045167,55.66809919762126L127.32175709406535,53.34729729766173L127.63116598129272,47.202151800337894L127.9405748685201,43.72380726651012L128.09527931213378,48.61105403655994L128.40468819936117,43.58305961494963L128.86880153020223,72.5528081237831L129.17821041742963,93.4829131755835L129.3329148610433,101.67219663718544L129.487619304657,110.16311189133923L129.64232374827068,117.0687557221717L129.95173263549805,120.0005128370296L130.10643707911174,120.25490176440415L130.26114152272544,124.40291945900007L130.4158459663391,125.1148898954344L130.87995929718016,115.36309717029957L131.03466374079386,112.6802975652704L131.18936818440756,101.87203057848228L131.49877707163492,89.3571420232221L131.65348151524861,76.93916709515767L131.8081859588623,65.93665715823336L131.962890402476,60.42541132183927L132.27229928970337,64.04575847857106L132.73641262054443,70.96086011685475L133.04582150777182,72.43222767161762L133.2005259513855,69.26936582416779L133.35523039499918,49.95674673553654L133.50993483861288,37.882662463548115L133.81934372584024,25.30252020236009L133.97404816945394,13.680847064444848L134.12875261306763,8.307297362831102L134.2834570566813,10.020279649279566L134.5928659439087,6.898704353514444L134.7475703875224,-4.094606935582458L134.90227483113608,36.590732059866475L135.05697927474975,71.50914934182481L135.36638816197714,103.0495984762475L135.52109260559084,118.04192747234744L135.6757970492045,130.20592483358573L135.8305014928182,133.65407291149302L136.13991038004556,137.8337361766226L136.29461482365926,142.98106230476907L136.60402371088665,149.58901930739754L136.913432598114,151.65362889020946L137.0681370417277,152.3880419183198L137.22284148534138,157.09752697714535L137.37754592895507,157.65336278397302L137.68695481618246,152.3838920723941L137.84165925979613,150.96928916922255L137.99636370340983,152.93166379940098L138.15106814702352,151.5935798315384L138.46047703425089,148.5719379255526L138.61518147786458,148.91064294961112L138.92459036509194,141.66596276074787L139.23399925231934,141.28764661318957L139.388703695933,139.3203858946387L139.5434081395467,140.10313731134963L139.69811258316042,132.33189568486424L140.0075214703878,127.15340141695894L140.16222591400145,123.88328972620975L140.47163480122884,118.57442397032727L140.7810436884562,124.25505912631341L140.9357481320699,130.07466003939825L141.0904525756836,130.66509523165084L141.2451570192973,134.05117390653209L141.55456590652466,139.1376438410824L141.70927035013833,135.27060015781615L141.86397479375205,138.84340211298542L142.32808812459308,140.8715685904873L142.4827925682068,139.95861731873435L142.63749701182047,140.7781169643238L143.10161034266153,141.8281367987924L143.25631478627523,142.1529031924709L144.02983700434368,134.32180928164206L144.18454144795737,126.54132003910193L144.33924589157104,119.04094045687366L144.80335922241213,125.86614734231429L144.9580636660258,130.69793754106036L145.1127681096395,129.15101811747977L145.42217699686688,129.46423274471852L145.57688144048055,132.8108903466283L145.73158588409424,131.80306377476003L145.8862903277079,131.8554817146786L146.1956992149353,138.60084942816678L146.350403658549,137.08866986476744L146.50510810216267,134.5060191548515L146.65981254577636,133.2169655195279L146.96922143300375,135.3270835778702L147.12392587661742,134.0693588583245L147.27863032023112,136.31458407129864L147.4333347638448,136.37140361697053L147.74274365107217,137.62138867116593L147.89744809468587,137.14502626883072L148.05215253829954,136.97358681083577L148.20685698191326,138.02187098540654L148.51626586914062,138.627323916115L148.6709703127543,137.1065040483967L148.82567475636802,138.24969428782023L148.9803791999817,141.93211134689986L149.44449253082274,142.5101145481812L149.59919697443647,143.78248290006647L149.75390141805013,146.27639214870896L150.0633103052775,143.72392199692922L150.2180147488912,141.61910112251132L150.3727191925049,145.0963809004814L150.52742363611858,145.0481092825156L150.83683252334595,152.51539806631058L150.99153696695964,153.0780544787036L151.14624141057334,151.18146112380498L151.300945854187,156.00864087902482L151.61035474141437,157.51608079183944L151.7650591850281,152.69155651228945L151.91976362864176,153.4004080683084L152.07446807225546,152.7544060426175L152.38387695948285,152.20190499304192L152.53858140309652,154.20061724232795L152.6932858467102,156.12785868936973L152.84799029032388,154.07144850948526L153.31210362116497,147.45238421218667L153.46680806477863,135.90266802058744L153.62151250839233,125.81121174742306L153.93092139561972,102.97075050011645L154.08562583923342,69.4892129072962L154.24033028284708,49.45796229874689L154.39503472646075,74.65375562005546L154.70444361368817,90.98707782202898L154.85914805730184,104.10743690887233L155.01385250091553,117.51162421731487L155.1685569445292,125.35155446452056L155.4779658317566,132.7793871825491L155.6326702753703,139.2992547827364L155.78737471898395,148.71439368142077L155.94207916259768,146.7475229934129L156.4061924934387,143.706779410895L156.5608969370524,138.0822513912743L157.02501026789346,140.04743152364267L157.17971471150716,141.92825029817075L157.33441915512083,149.7458275351826L157.48912359873455,144.4575368025532L157.7985324859619,146.14066164022992L158.1079413731893,140.0216548559732L158.26264581680297,134.88531147364594L158.57205470403034,129.35081035394558L158.72675914764403,126.71491693684234L158.88146359125776,124.08884839538045L159.03616803487142,122.39550160632349L159.3455769220988,121.78744952663868L159.5002813657125,120.06788704251781L159.65498580932618,114.0948145293813L159.80969025293987,111.6048415336568L160.11909914016724,96.66623819076761L160.42850802739463,85.42625344089343L160.5832124710083,79.84586715686109L160.89262135823566,70.46734775152477L161.04732580184938,65.98691956472358L161.20203024546305,61.084029255916505L161.66614357630414,54.42436274287814L161.8208480199178,48.57350743229964L161.9755524635315,50.97452196030288L162.13025690714517,52.6844077832496L162.43966579437256,58.911392421940185L162.59437023798625,59.68173029104971L162.90377912521362,61.912215458034844L163.213188012441,67.11562839078462L163.36789245605468,64.94009081457332L163.52259689966837,69.76073997783229L163.67730134328204,71.93993975443661L163.98671023050946,75.14884929686507L164.14141467412313,76.80871677298983L164.2961191177368,81.36341221023014L164.4508235613505,85.82916782548718L164.76023244857788,85.47636779727586L164.91493689219158,85.07005673814307L165.06964133580524,86.65723663043784L165.22434577941897,84.36559177423952L165.53375466664633,86.88657105451583L165.68845911026,89.18808400256101L165.8431635538737,89.78940745647688L165.9978679974874,89.03061658435433L166.30727688471475,86.70955562404282L166.46198132832845,87.60858383721715L166.77139021555584,88.74098758928763L167.0807991027832,88.17889864752924L167.3902079900106,92.90246465886432L167.54491243362426,96.57735312010658L167.85432132085162,89.53917283741968L168.00902576446535,92.5404004806038L168.16373020807902,85.4479308128575L168.3184346516927,85.1807185921958L168.62784353892008,84.3241049788378L168.7825479825338,79.94525056628365L168.93725242614747,80.13178355305537L169.09195686976113,78.25843844405479L169.4013657569885,80.11537370540024L169.55607020060222,83.94671873216244L169.71077464421592,79.40792508851129L169.86547908782958,80.63289207781499L170.17488797505698,94.56637301301143L170.32959241867067,115.17757454433254L170.48429686228434,121.23038341168368L170.63900130589803,134.83234807212708L170.94841019312543,145.82861665234438L171.1031146367391,150.71187421007792L171.2578190803528,155.4502612784394L171.41252352396646,158.4711565843833L171.72193241119385,161.12149777214873L171.87663685480754,156.4529180299L172.0313412984212,151.4847314574385L172.1860457420349,149.0030423064165L172.4954546292623,148.07740811563434L172.65015907287597,150.76967323494392L172.80486351648966,147.70463457412455L172.95956796010333,143.2014760399406L173.26897684733072,142.73285521818954L173.42368129094442,136.491606209696L173.57838573455808,129.21321320500115L173.7330901781718,125.82203598573665L174.04249906539917,132.59183701854028L174.19720350901284,129.20371770155165L174.35190795262653,125.70573599827121L174.50661239624026,129.73873770936729L174.81602128346762,128.78587831976512L174.9707257270813,135.46499062139515L175.125430170695,134.74259267559995L175.28013461430868,134.50060451206733L175.58954350153604,136.4294578601125L175.89895238876343,139.62826374052736L176.05365683237713,139.07670601127998L176.3630657196045,148.43285624537504L176.51777016321816,142.4799402956211L176.67247460683188,148.27525872159478L177.1365879376729,152.18491281464375L177.29129238128664,152.66905340317518L177.4459968249003,151.75130104013144L177.600701268514,150.3718627495477L177.91011015574136,151.25874459349762L178.21951904296876,145.46100056011346L178.37422348658242,142.19008976586665L178.68363237380984,110.06390165533031L178.8383368174235,82.26936134663984L178.9930412610372,98.6940849558122L179.14774570465087,107.28974238566381L179.45715459187826,119.17196740810931L179.61185903549196,132.5891113204715L179.76656347910563,133.53343869531113L179.92126792271932,134.36416462813634L180.23067680994671,128.18772017310474L180.38538125356038,125.09339877047782L180.54008569717408,128.4162733215491L181.00419902801514,127.86433992944289L181.15890347162883,128.92696573440082L181.3136079152425,124.47228261980001L181.4683123588562,125.01559081812565L181.7777212460836,121.82670850266648L181.93242568969725,114.56577255131616L182.08713013331095,100.69095437324653L182.24183457692465,87.60874035597348L182.551243464152,86.58710612910345L182.86065235137937,64.76605625107877L183.0153567949931,36.86172484058385L183.32476568222046,22.658022740879876L183.47947012583413,36.83105553346281L183.63417456944785,55.18244852915425L183.78887901306155,79.99716971186875L184.09828790028888,96.6946469844362L184.4076967875163,103.02024402668204L184.56240123112997,109.25420917877494L184.87181011835733,104.10446232972721L185.02651456197103,100.01058519932958L185.18121900558472,91.31714856396542L185.33592344919842,88.77078179769649L185.64533233642578,71.75487527123066L185.80003678003948,56.07467128105673L186.10944566726684,49.50168578850747L186.4188545544942,46.64482693796471L186.57355899810793,39.490065467012926L186.7282634417216,50.99706045658518L186.8829678853353,40.354119914892465L187.19237677256268,36.04565295070894L187.34708121617635,39.34141514702572L187.50178565979004,46.287406124316526L187.6564901034037,49.41765954378248L187.9658989906311,61.09624375292698L188.27530787785847,75.19766808523038L188.43001232147216,92.29341256472583L188.73942120869955,98.97510429436124L188.89412565231325,117.77345173338307L189.04883009592692,115.7520440780006L189.20353453954058,119.92624937098972L189.512943426768,124.20195272494094L189.66764787038167,112.15978082391688L189.82235231399537,111.72646261275956L189.97705675760903,111.94695934127942L190.28646564483643,116.51931410313132L190.44117008845012,106.63503243077002L190.5958745320638,102.90023800312869L190.7505789756775,98.14418831350186L191.05998786290488,90.61709883449122L191.21469230651854,82.63041570278475L191.36939675013224,77.71506371621744L191.52410119374593,85.05673771017574L191.8335100809733,87.35883632801261L191.988214524587,86.98356889536204L192.14291896820066,79.62663490597112L192.29762341181439,73.05511256312006L192.60703229904175,69.61227595643462L192.76173674265542,68.75171861583165L192.91644118626914,63.70718811898146L193.0711456298828,56.01127429878751L193.38055451711017,60.25302525463945L193.53525896072387,50.852868011404325L193.84466784795126,36.61888788012195L194.15407673517862,41.69687729049641L194.30878117879234,45.35195920274535L194.463485622406,51.72657789997727L194.92759895324707,67.49937221189428L195.08230339686077,84.36614905075837L195.23700784047446,90.63031659247659L195.39171228408813,97.37600252676678L195.7011211713155,96.26440162447564L196.01053005854288,95.303391896719L196.16523450215658,89.54389675143617L196.47464338938397,89.77928673721294L196.62934783299764,92.95058904716484L196.78405227661133,89.35309105510571L196.938756720225,82.18645036461218L197.2481656074524,76.20168178856335L197.4028700510661,66.08876657637533L197.55757449467976,63.106566746110985L197.71227893829345,50.76686734841356L198.3310967127482,29.287770815876808L198.48580115636187,11.126781097271717L198.7952100435893,-3.590661687909191L199.7234367052714,-22.07244103636028L199.87814114888508,6.39524219666569L200.0328455924988,28.50443129242007L200.49695892333983,45.47124456345905L200.65166336695353,55.969859307677325L200.80636781056722,64.59571899234999L201.1157766977946,69.77748966506796L201.27048114140828,78.48375824760006L201.42518558502198,87.06159780835098L201.57989002863567,84.29400473954803L201.88929891586304,85.44118691316815L202.0440033594767,84.42479308854936L202.19870780309043,82.94450617979426L202.3534122467041,85.88410338662811L202.66282113393146,80.685805790085L202.81752557754518,81.20846437983896L202.97223002115885,77.68587379961228L203.12693446477255,74.87495535532669L203.59104779561363,68.49271689389283L203.7457522392273,48.40766501710056L204.20986557006833,35.15289690603263L204.36457001368206,11.404200942978845L204.51927445729575,15.190023688706702L204.67397890090942,21.140377390884332L204.9833877881368,25.42025140295189L205.1380922317505,30.221055499019315L205.29279667536417,32.12739327594833L205.44750111897787,40.688437364682535L205.91161444981893,44.869194877814635L206.06631889343262,54.32854432391942L206.2210233370463,53.77803970526103L206.53043222427368,57.90369585011376L206.68513666788738,66.2876429526312L206.99454555511474,72.09934477009674L207.30395444234213,84.8630799612716L207.6133633295695,89.65826699412557L207.76806777318316,92.40341458478548L208.23218110402425,98.10125066190554L208.38688554763792,98.64021859455491L208.54158999125164,101.59245538593564L208.850998878479,104.70271485127353L209.00570332209267,105.97336880420356L209.16040776570637,106.26586909191874L209.3151122093201,106.76122122875175L209.62452109654745,104.1883402369218L209.77922554016112,106.46050735773426L210.0886344273885,103.8770486592494L210.39804331461588,105.44611169906922L210.55274775822957,104.31668371505789L210.70745220184327,102.78784152095156L210.86215664545696,100.45234933515934L211.17156553268433,96.5453692981223L211.326269976298,97.6578877180716L211.48097441991172,98.14795387384858L211.63567886352538,95.18787515270355L211.94508775075275,92.03941580285253L212.09979219436647,91.58024756623422L212.25449663798014,88.10378864622379L212.7186099688212,88.97762914041775L212.8733144124349,83.97004992610479L213.0280188560486,77.78544696649661L213.18272329966226,74.38374133394775L213.49213218688968,74.70501203198805L213.64683663050334,71.45752383179396L213.80154107411704,69.06316880561084L213.9562455177307,66.74318317305445L214.2656544049581,66.43036750296952L214.4203588485718,64.7367582531752L214.57506329218546,64.71370221956964L214.72976773579916,64.36537483979832L215.03917662302655,64.36884935690867L215.19388106664022,65.3788326213621L215.3485855102539,63.8043376667161L215.50328995386758,63.49361394376503L215.81269884109497,58.666614021964975L215.96740328470867,60.22547775045909L216.12210772832233,55.429304637610954L216.58622105916342,54.49646821534346L216.7409255027771,53.65914355025191L216.89562994639078,54.0164801102993L217.05033439000448,52.03223329671591L217.35974327723184,52.40262074853366L217.51444772084554,51.21271507269331L217.6691521644592,52.68591194205446L218.1332654953003,48.623765611518294L218.28796993891396,44.178867388495284L218.44267438252768,44.38793987759801L218.59737882614138,44.32172073789778L218.90678771336871,46.704670430713314L219.0614921569824,46.381783176268186L219.21619660059613,44.886839295592445L219.68030993143717,45.6010123140834L219.83501437505086,43.20982201829283L219.98971881866456,41.82348584059701L220.14442326227825,44.1781887870303L220.45383214950562,43.09421338735946L220.6085365931193,43.260623590128326L220.763241036733,40.397314280506556L220.91794548034667,42.493274919783616L221.22735436757404,39.653857852422576L221.69146769841512,39.995889060638085L222.00087658564252,42.470621411406924L222.15558102925618,45.4961770200732L222.31028547286988,43.87281464718254L222.46498991648355,43.886653126887204L222.77439880371094,39.97484224872882L222.92910324732463,39.83236484833573L223.0838076909383,36.124948198240695L223.238512134552,35.83643097799035L223.5479210217794,33.873252198229046L223.70262546539308,35.95035857945706L224.01203435262042,32.92399808882315L224.32144323984784,36.69061660452934L224.4761476834615,34.65084721355234L224.6308521270752,37.863367130603876L224.78555657068887,38.19522964621232L225.09496545791626,36.43866033034616L225.24966990152996,38.13348907447898L225.40437434514362,38.121632337356324L225.55907878875735,37.61079577145777L225.8684876759847,36.12595323541465L226.17789656321207,32.203053463244565L226.33260100682577,31.54967012977591L226.64200989405313,29.595844693456264L226.79671433766683,31.25311467656141L226.9514187812805,26.19370090597597L227.10612322489422,30.11695757450894L227.41553211212158,30.461015947139558L227.57023655573525,28.843528524722718L227.72494099934897,29.733545336676595L228.3437587738037,28.919108497955758L228.49846321741742,30.066569851074316L228.6531676610311,31.196774199272106L228.96257654825845,24.970624738999398L229.27198543548585,27.623469619414063L229.42668987909954,25.736036236346422L229.7360987663269,24.816524217218166L229.8908032099406,28.917809961792653L230.0455076535543,30.624652628935966L230.50962098439533,26.598269387481412L230.66432542800905,30.50606949984942L230.9737343152364,33.73673721113178L231.2831432024638,29.63792391521468L231.43784764607747,28.303309583354988L231.59255208969117,31.74270127454014L231.74725653330484,25.42589324946293L232.05666542053223,23.4480221558489L232.21136986414592,26.110018516390245L232.3660743077596,26.11671449631586L232.52077875137329,31.754960920417176L232.83018763860068,26.17174680132154L232.98489208221434,28.078222879938707L233.13959652582804,27.410601569734894L233.2943009694417,26.358274528013812L233.60370985666913,31.33104610785499L233.7584143002828,34.33259018643022L233.91311874389646,30.467471635412853L234.06782318751016,28.21768694130041L234.37723207473755,30.36595660991192L234.53193651835124,30.264866640964236L234.6866409619649,34.55031688220917L234.84134540557864,28.859856790130493L235.150754292806,23.984181133101163L235.30545873641967,28.364796057513825L235.61486762364706,29.595515528421966L235.92427651087442,27.884102735697233L236.07898095448812,27.138452919987483L236.3883898417155,29.896567857375004L236.69779872894287,24.11545437028944L236.85250317255654,27.294302744314503L237.00720761617026,22.209017751074775L237.16191205978393,19.64500744099392L237.4713209470113,21.924964755358825L237.62602539062502,22.99846589916097L237.78072983423868,27.090738851611935L237.93543427785238,28.473435032668817L238.24484316507974,30.82294884829569L238.39954760869347,27.891947880701892L238.55425205230713,26.284394558767392L238.7089564959208,27.556523442144538L239.01836538314816,25.926297171734657L239.1730698267619,25.90904248470935L239.32777427037558,18.507963681497895L239.48247871398925,24.400006679507626L239.94659204483034,25.178499269606093L240.101296488444,23.994912027716822L240.2560009320577,24.422402448740375L240.5654098192851,23.34763592147469L240.87481870651246,28.20805573885677L241.02952315012612,25.048174565798856L241.33893203735352,21.591192527986685L241.4936364809672,27.66964450975377L242.11245425542197,29.95074102427947L242.26715869903563,24.12250298493877L242.42186314264933,27.593464554558707L242.576567586263,25.98979575718236L243.04068091710408,21.894108909465896L243.19538536071775,24.80981165570856L243.35008980433147,27.53846668538408L243.65949869155884,23.60699501283528L243.8142031351725,27.96463220645711L243.9689075787862,26.216407109442997L244.12361202239993,27.20036107041461L244.4330209096273,29.234463947326653L244.58772535324096,33.00541335062007L244.74242979685468,36.792649756981206L244.89713424046835,32.71687216894318L245.2065431276957,31.581251445039122L245.3612475713094,32.99697754455721L245.5159520149231,32.96684533393446L245.6706564585368,35.6808213712387L245.98006534576416,32.026569717589354L246.13476978937783,33.16048622076077L246.28947423299155,32.8887071423627L246.44417867660522,35.16107796320867L246.75358756383258,33.946790582931364L246.9082920074463,32.04100838075396L247.06299645105997,43.502717263968265L247.21770089467367,47.56476024739921L247.52710978190103,49.380239805826804" fill="none"></path></g></g></g></g><g opacity="0.2"><g><g><g><path style="fill: none;" stroke="rgb(255, 112, 67)" stroke-width="2px" d="M33.570864264170325,191.82002362793583L33.72556870778402,173.49949185279758L34.03497759501139,165.27518771769982L34.18968203862508,165.27518771769982L34.34438648223877,165.27518771769982L34.49909092585246,165.27518771769982L34.808499813079834,195.86850067112323L34.96320425669352,120.53535899814959L35.11790870030721,117.7805104935972L35.2726131439209,117.7805104935972L35.58202203114827,171.88749555448075L35.89143091837565,165.78760638408994L36.04613536198934,139.31796722478794L36.35554424921672,137.18926750297857L36.51024869283041,97.06943763736639L36.66495313644409,110.35125702688256L36.81965758005778,133.25085423759256L37.129066467285156,130.9303858680126L37.283770910898845,188.240219500791L37.43847535451253,160.71654481855754L37.59317979812622,169.65141186859037L37.90258868535359,181.11365246621858L38.05729312896728,176.99091366204905L38.21199757258097,163.38650801487915L38.36670201619466,172.115824518008L38.67611090342204,191.23954947244897L39.44963312149048,186.7240633536058L39.60433756510417,173.44038870843707L39.913746452331544,199.55769126051374L41.46079088846842,181.26347172228938L41.7701997756958,176.00040592096698L42.07960866292318,186.4461283877491L42.23431310653687,178.7343459887999L42.698426437377925,164.8178377508384L42.853130880991614,94.86789704481679L43.0078353246053,94.86789704481679L43.31724421183268,94.86789704481679L43.626653099060064,90.42841751072423L43.78135754267375,109.25625863708242L44.09076642990112,126.8774473767083L44.24547087351481,106.46576272034848L44.4001753171285,143.84211120334308L44.55487976074219,98.20183562524221L44.864288647969566,129.02639294393262L45.01899309158325,125.24868015626225L45.173697535196936,142.93073895039393L45.328401978810625,142.93073895039393L45.637810866038,160.20867594579158L45.79251530965169,160.20867594579158L45.94721975326539,150.8312715256155L46.101924196879075,126.65266695772287L46.411333084106445,123.25966940569059L46.566037527720134,145.3718725586471L46.72074197133382,123.34966402909156L46.87544641494751,118.7529294920667L47.18485530217489,113.88129318493458L47.33955974578858,108.8217312595979L47.49426418940226,128.86065677230286L47.64896863301595,125.82213084392151L47.958377520243324,124.81393191500956L48.11308196385701,97.22542635469456L48.2677864074707,130.85214119707794L48.4224908510844,151.93105529705917L48.886604181925456,166.86923515379058L49.041308625539145,164.87222913481142L49.19601306915283,145.97512513075722L49.50542195638021,157.7016807618721L49.6601263999939,155.37909210011776L49.96953528722127,154.86849924087778L50.27894417444865,139.94491111709635L50.433648618062335,134.58512170956965L50.588353061676024,125.12925175469074L51.05246639251708,147.94932328461073L51.20717083613078,169.15875314732526L51.36187527974447,156.94947766451264L51.516579723358156,150.24948691177087L51.82598861058553,162.0945874893846L51.98069305419922,175.25608766013096L52.13539749781291,171.43182415225738L52.29010194142659,158.81526115670036L52.59951082865397,163.67449964431293L52.75421527226766,164.25495907554856L53.063624159495035,176.96590452136735L53.37303304672242,159.45697347297332L53.527737490336094,158.04812766861306L53.68244193394979,151.96793954634245L53.83714637756348,157.36517272469845L54.146555264790855,146.04477083898473L54.301259708404544,146.04477083898473L54.45596415201823,161.14839238232167L54.61066859563192,147.0735542710895L54.92007748285929,149.88513531555742L55.22948637008667,160.42225120960552L55.38419081370036,166.8366503858609L55.693599700927734,156.96928178239128L55.848304144541416,168.43688200746024L56.003008588155105,154.06680793519854L56.1577130317688,158.76943928693208L56.46712191899618,158.76943928693208L56.621826362609866,160.7329770829089L56.93123524983724,166.4472086655841L57.3953485806783,161.4821175360165L57.55005302429199,166.73587761057357L57.70475746790568,157.018902508972L58.01416635513306,151.0037072315462L58.168870798746745,154.49101361258423L58.32357524236043,142.60159303882574L58.478279685974115,142.60159303882574L58.7876885732015,151.88994518767836L58.94239301681519,162.0522994399069L59.09709746042888,165.1597054154528L59.251801904042566,164.22708606800634L59.561210791269936,161.77487982284256L59.715915234883624,167.16868225066642L60.025324122111,161.6227930320853L60.48943745295207,167.47163371933044L60.64414189656575,155.07589031918315L60.79884634017944,168.5294680990743L61.26295967102051,158.61543834351738L61.4176641146342,161.57184712289563L61.57236855824789,156.50352426808846L61.88177744547526,160.21683318096242L62.03648188908895,147.6067635801894L62.191186332702635,148.88867161486056L62.345890776316324,151.9964015239331L62.6552996635437,145.2885480210447L62.81000410715739,142.79851517452016L62.96470855077108,142.0553527674042L63.11941299438476,140.50120805209494L63.58352632522583,140.5236330866891L63.73823076883952,131.8706176533351L63.89293521245321,126.7687087815159L64.20234409968059,123.43179590234588L64.35704854329427,131.85378783420106L64.51175298690795,130.2536887308626L64.66645743052165,132.67389917814512L64.97586631774902,133.42349608304022L65.13057076136272,145.69904542055306L65.2852752049764,143.07949806037755L65.43997964859008,150.40120559624785L65.74938853581746,153.53293603479415L65.90409297943116,154.26052018412898L66.05879742304484,155.324229540106L66.21350186665853,162.29601524594955L66.52291075388591,154.21534618141396L66.67761519749959,159.55723089946824L66.83231964111327,145.8251144594207L66.98702408472697,157.80821071938286L67.60584185918172,124.63747648849828L67.76054630279542,110.1607693889673L68.06995519002278,126.52061987286362L68.22465963363648,137.01412253482508L68.37936407725016,133.6334786295587L68.53406852086385,148.1296953619441L68.84347740809123,138.4282396211188L69.1528862953186,154.16922982662146L69.30759073893229,168.36707433246943L69.61699962615967,170.1697791324697L69.77170406977335,170.94907485205718L70.08111295700073,181.6121419909632L70.3905218442281,177.68147368171412L70.5452262878418,174.61748216086352L70.69993073145548,167.40194383834933L70.85463517506916,176.8016260506075L71.16404406229654,180.05433093710243L71.31874850591024,168.98485974052466L71.47345294952392,170.5070086579527L71.62815739313761,180.37645338084303L71.937566280365,176.03564105411465L72.09227072397869,171.798075176877L72.24697516759235,156.93553379861592L72.40167961120606,148.1839247791538L72.71108849843344,148.7163095301859L72.86579294204712,142.96008438305725L73.1752018292745,128.28686742686577L73.48461071650188,133.23568825884536L73.63931516011556,128.08798696576028L73.79401960372925,122.62197680999823L73.94872404734294,101.58993000162127L74.25813293457031,54.665758614935754L74.41283737818401,30.932371230906774L74.56754182179769,60.5358169481758L74.72224626541137,88.6207506380659L75.18635959625244,115.19343010734171L75.34106403986613,97.5604325182447L75.49576848347982,96.43003702853356L75.80517737070718,83.19174252559681L75.95988181432088,104.48477668668677L76.11458625793456,118.57185065067522L76.26929070154826,99.33926930703211L76.57869958877563,98.58750793720901L76.73340403238932,103.87346994916432L76.888108476003,96.28781548608761L77.04281291961671,95.02094091190277L77.35222180684408,102.82641372130682L77.66163069407146,94.59414376630396L77.81633513768514,91.09893046236569L78.12574402491252,109.65811290113L78.2804484685262,104.4742635713222L78.4351529121399,119.62416343621497L78.58985735575358,109.76262563622487L78.89926624298096,122.94283296813471L79.05397068659465,107.75911149821052L79.20867513020833,127.53264710709041L79.36337957382202,117.4704030388447L79.6727884610494,128.4507041700893L79.82749290466309,109.3402163174869L79.98219734827677,143.597806427252L80.13690179189047,128.50443296275785L80.44631067911783,123.49834951781911L80.7557195663452,115.64628917758378L80.9104240099589,107.09192622734274L81.21983289718628,86.0196380404064L81.37453734079996,98.9600609413469L81.52924178441366,77.06296437433025L81.68394622802734,69.70818617024025L81.99335511525473,48.42086501862013L82.3027640024821,54.57074302187189L82.76687733332317,-21.16948002432916L83.07628622055054,-6.851677043866104L83.23099066416422,35.04638591623385L83.5403995513916,75.91442860712732L83.84980843861898,82.25595746414001L84.00451288223267,104.66591442508313L84.31392176946004,95.76766658781177L84.46862621307373,82.23525516693749L84.77803510030111,103.56032929866235L85.08744398752849,97.9285387985169L85.24214843114217,98.29252228845007L85.39685287475585,97.70926524948436L85.55155731836955,70.37074802622783L85.86096620559692,76.75145811571268L86.0156706492106,30.258707289506212L86.1703750928243,13.93716930726061L86.32507953643798,77.88145605064112L86.63448842366536,104.41837031372567L86.78919286727904,106.96837503543217L86.94389731089275,124.89476805415734L87.09860175450642,117.45865308637842L87.40801064173381,136.06847222505698L87.5627150853475,144.56539587132434L87.87212397257487,131.5382176822493L88.18153285980225,127.2458186935023L88.33623730341594,125.44517528867156L88.49094174702962,139.80174722257289L88.64564619064332,124.75691961432099L88.95505507787068,139.66403130099744L89.10975952148438,134.7708828628462L89.26446396509806,144.57106470804052L89.41916840871176,138.95704637910663L89.72857729593913,123.3543463409766L89.88328173955281,117.22134232961251L90.0379861831665,115.31967583722387L90.19269062678019,98.540449230339L90.50209951400757,82.71597252047057L90.65680395762125,106.26722091702088L90.81150840123495,125.10504508570003L91.275621732076,140.42063694946896L91.43032617568969,140.42593767990488L91.58503061930338,134.71289876157772L91.73973506291706,123.65762174316727L92.04914395014444,116.97273807216787L92.20384839375815,123.14358340914394L92.51325728098551,119.90127384400391L92.82266616821289,125.85028361223674L92.97737061182659,114.56047872053925L93.13207505544027,112.78430702122097L93.28677949905396,119.70904874444574L93.75089282989502,130.28930669454172L93.9055972735087,127.26428290452077L94.0603017171224,126.18870580206779L94.36971060434978,122.8378932297547L94.52441504796346,126.08887537885795L94.67911949157715,119.99942570257569L94.83382393519084,129.71749039876687L95.14323282241821,114.85752576446771L95.2979372660319,100.02170890215439L95.45264170964559,86.4917122584787L95.60734615325927,62.721440625166444L95.91675504048665,80.63007619693127L96.07145948410033,72.01768497266812L96.22616392771403,73.90621743297666L96.38086837132771,79.1915315778787L96.8449817021688,89.9481713332299L96.99968614578246,69.17107493456948L97.15439058939617,63.805763932838694L97.46379947662354,77.65571855532698L97.61850392023723,95.05795767944694L97.77320836385091,108.21310433579583L97.92791280746461,108.06303476745445L98.23732169469199,102.22291083692615L98.39202613830567,141.73992985796454L98.54673058191935,136.29846502897104L98.70143502553304,124.855925479463L99.01084391276042,123.77697652348274L99.1655483563741,129.12528101506496L99.3202527999878,146.41007951152687L99.47495724360148,140.17709783444084L99.78436613082886,131.54185457229838L100.09377501805623,138.76141997751876L100.24847946166992,126.08735878098325L100.71259279251099,132.78643663014992L100.86729723612467,125.86874782325518L101.02200167973835,128.3020775783666L101.33141056696573,143.2647291406105L101.48611501057943,137.81744823238873L101.6408194541931,138.56438004781467L101.79552389780682,108.58268304118911L102.10493278503417,112.16750813799688L102.25963722864788,114.13805467755007L102.41434167226156,117.02863132976442L103.03315944671631,129.60984139816406L103.18786389033001,131.62837427241357L103.34256833394369,126.40061722549488L103.65197722117107,127.01373504591629L103.80668166478475,127.3470773690796L103.96138610839844,124.67260855188745L104.11609055201212,139.28274681589147L104.4254994392395,134.0895770350672L104.73490832646688,143.10807783197788L104.88961277008056,125.64249497914868L105.19902165730794,109.60777068623996L105.35372610092163,103.75745757387374L105.50843054453532,119.80147286929649L105.663134988149,105.2395270795057L106.28195276260375,120.37094800912882L106.43665720621745,135.88770259294088L106.74606609344484,128.4584196777238L106.90077053705852,141.99875274574953L107.05547498067219,140.0119211843571L107.2101794242859,145.65777334440895L107.51958831151327,139.41196684451825L107.67429275512696,136.62454829628737L107.82899719874065,149.19141694400764L107.98370164235433,136.7214191450038L108.29311052958171,152.5640803051177L108.44781497319539,158.36549417921256L108.60251941680909,156.5383029494486L108.75722386042277,139.6137921558659L109.06663274765015,141.3098639285969L109.22133719126384,156.85768668246396L109.37604163487752,140.47650075856305L109.5307460784912,140.97425407074712L109.84015496571858,123.65260077350437L109.99485940933228,100.86835334678047L110.14956385294596,100.5000409269913L110.30426829655966,93.26913784833852L110.61367718378702,83.44841567270502L110.76838162740071,95.12972367984882L110.9230860710144,88.7693772297886L111.07779051462809,75.62783578155857L111.38719940185547,78.49317506719747L111.85131273269654,101.6343530675245L112.16072161992392,90.69950569976793L112.3154260635376,79.45228334257231L112.4701305071513,84.55771131043092L112.62483495076498,101.30955081006351L112.93424383799235,105.34911968126835L113.08894828160604,118.35533053661909L113.24365272521973,109.25169411920704L113.39835716883341,101.72283109305074L113.70776605606079,90.71362625667916L114.01717494328817,106.38329218931631L114.17187938690185,106.66648371285532L114.48128827412923,105.72154016714533L114.63599271774292,98.68168424795385L114.9454016049703,84.85742344382857L115.25481049219766,86.19197067657865L115.40951493581136,78.06793869222702L115.56421937942504,91.81623708435534L115.71892382303874,88.44140925831728L116.02833271026611,89.67895312409001L116.1830371538798,100.1204497307746L116.33774159749349,116.63994054629939L116.80185492833456,131.47191437904667L116.95655937194823,142.4595334631431L117.11126381556194,129.06829816287882L117.26596825917562,133.3515239431214L117.575377146403,112.4948135181637L117.88478603363038,102.24324502784839L118.03949047724406,92.8997800067134L118.34889936447144,91.92552047684254L118.50360380808513,101.89369130410188L118.65830825169881,94.04824215266028L118.81301269531251,62.20124755413696L119.12242158253987,65.51283472122425L119.27712602615357,39.576066213244296L119.58653491338094,39.14161245701582L119.89594380060832,59.02770024215176L120.050648244222,67.07038073856324L120.20535268783568,42.93290100430263L120.36005713144938,46.87637941210519L120.66946601867676,41.84100943150799L120.82417046229044,46.465455009311725L120.97887490590414,40.199049281976976L121.13357934951782,21.701855940810503L121.4429882367452,21.48982672337371L121.59769268035888,6.816933700708874L121.75239712397259,-0.8976021332167488L121.90710156758625,17.52093425798116L122.21651045481364,32.75193529854353L122.52591934204102,67.33621236992462L122.6806237856547,82.76877368531282L122.99003267288208,77.71326092905913L123.29944156010946,104.21847387928665L123.45414600372315,87.4469627800363L123.76355489095052,101.7981014652408L123.91825933456421,104.60581003164026L124.0729637781779,106.98130292799533L124.22766822179159,101.91538012613553L124.53707710901897,98.62087309045287L124.69178155263265,97.12876164549509L124.84648599624633,92.70752545865281L125.00119043986003,100.49507885433323L125.3105993270874,94.10715388175504L125.46530377070108,86.65750732711331L125.62000821431478,85.91081109970673L125.77471265792846,73.1768516492453L126.08412154515584,74.35015360698495L126.39353043238322,63.504446856059076L126.5482348759969,60.741823946867335L126.85764376322427,34.567612163860595L127.01234820683798,47.810750945445754L127.16705265045167,61.20225128223182L127.32175709406535,49.866094447722446L127.63116598129272,37.984433554352094L127.9405748685201,38.5062904657684L128.09527931213378,55.941924191634655L128.40468819936117,36.04106798253421L128.86880153020223,116.00743088703325L129.17821041742963,124.87807075328419L129.3329148610433,113.95612182958833L129.487619304657,122.89948477256983L129.64232374827068,127.42722146842046L129.95173263549805,124.3981485093165L130.10643707911174,120.63648515546599L130.26114152272544,130.62494600089394L130.4158459663391,126.18284555008586L130.87995929718016,100.73540808259735L131.03466374079386,108.6560981577266L131.18936818440756,85.65963009830018L131.49877707163492,70.58480919033173L131.65348151524861,58.312204703061056L131.8081859588623,49.4328922528469L131.962890402476,52.1585425672481L132.27229928970337,69.47627921366876L132.73641262054443,81.33351257428026L133.04582150777182,74.63927900376196L133.2005259513855,64.52507305299302L133.35523039499918,20.987818102589678L133.50993483861288,19.77153605556547L133.81934372584024,6.4323068105780425L133.97404816945394,-3.7516626424280863L134.12875261306763,0.24697281041046268L134.2834570566813,12.589753078952214L134.5928659439087,2.2163414098667804L134.7475703875224,-20.58457386922785L134.90227483113608,97.61874055303981L135.05697927474975,123.88677526476233L135.36638816197714,150.3602721778816L135.52109260559084,140.53042096649733L135.6757970492045,148.4519208754432L135.8305014928182,138.82629502835394L136.13991038004556,144.10323107431697L136.29461482365926,150.70205149698873L136.60402371088665,159.50095481134022L136.913432598114,154.75054326442734L137.0681370417277,153.48966146048534L137.22284148534138,164.16175456538363L137.37754592895507,158.48711649421452L137.68695481618246,144.47968600502577L137.84165925979613,148.84738481446522L137.99636370340983,155.87522574466863L138.15106814702352,149.58645387974457L138.46047703425089,144.03947506657383L138.61518147786458,149.4187004856989L138.92459036509194,130.798942477453L139.23399925231934,140.72017239185203L139.388703695933,136.36949481681236L139.5434081395467,141.277264436416L139.69811258316042,120.67503324513608L140.0075214703878,119.38566001510101L140.16222591400145,118.97812219008604L140.47163480122884,110.61112533650353L140.7810436884562,132.7760118602926L140.9357481320699,138.8040614090255L141.0904525756836,131.55074802002974L141.2451570192973,139.13029191885394L141.55456590652466,146.76734874290787L141.70927035013833,129.47003463291668L141.86397479375205,144.20260504573926L142.32808812459308,143.91381830674013L142.4827925682068,138.589190411105L142.63749701182047,142.0073664327079L143.10161034266153,143.40316655049529L143.25631478627523,142.6400527829886L144.02983700434368,122.57516841539882L144.18454144795737,114.87058617529176L144.33924589157104,107.79037108353123L144.80335922241213,136.1039576704752L144.9580636660258,137.9456228391795L145.1127681096395,126.83063898210888L145.42217699686688,129.93405468557663L145.57688144048055,137.83087674949303L145.73158588409424,130.29132391695762L145.8862903277079,131.93410862455644L146.1956992149353,148.71890099839902L146.350403658549,134.82040051966842L146.50510810216267,130.6320430899776L146.65981254577636,131.28338506654245L146.96922143300375,138.49226066538372L147.12392587661742,132.18277177900595L147.27863032023112,139.68242189075983L147.4333347638448,136.4566329354784L147.74274365107217,139.49636625245904L147.89744809468587,136.43048266532787L148.05215253829954,136.71642762384332L148.20685698191326,139.59429724726266L148.51626586914062,139.53550331217758L148.6709703127543,134.82527424681922L148.82567475636802,139.96447964695562L148.9803791999817,147.45573693551933L149.44449253082274,143.37711935010324L149.59919697443647,145.69103542789435L149.75390141805013,150.01725602167272L150.0633103052775,139.8952167692596L150.2180147488912,138.46186981088445L150.3727191925049,150.31230056743652L150.52742363611858,144.97570185556697L150.83683252334595,163.71633124200304L150.99153696695964,153.92203909729307L151.14624141057334,148.33657109145707L151.300945854187,163.24941051185456L151.61035474141437,159.77724066106134L151.7650591850281,145.45477009296442L151.91976362864176,154.4636854023368L152.07446807225546,151.78540300408108L152.38387695948285,151.3731534186786L152.53858140309652,157.1986856162569L152.6932858467102,159.01872085993242L152.84799029032388,150.98683323965852L153.31210362116497,137.52378776623877L153.46680806477863,118.57809373318862L153.62151250839233,110.67402733767646L153.93092139561972,68.71005862915655L154.08562583923342,19.266906518065902L154.24033028284708,19.41108638592292L154.39503472646075,112.44744560201826L154.70444361368817,115.48706112498924L154.85914805730184,123.78797553913728L155.01385250091553,137.61790517997875L155.1685569445292,137.11144983532904L155.4779658317566,143.92113625959192L155.6326702753703,149.07905618301734L155.78737471898395,162.83710202944727L155.94207916259768,143.7972169614011L156.4061924934387,139.1456640371181L156.5608969370524,129.64545936184322L157.02501026789346,142.99520172219522L157.17971471150716,144.7494784599629L157.33441915512083,161.47219339070034L157.48912359873455,136.52510070360904L157.7985324859619,148.665348896745L158.1079413731893,130.8431446795881L158.26264581680297,127.18079640015503L158.57205470403034,121.04905867439507L158.72675914764403,122.76107681118748L158.88146359125776,120.14974558318765L159.03616803487142,119.85548142273802L159.3455769220988,120.87537140711144L159.5002813657125,117.48854331633652L159.65498580932618,105.13520575967655L159.80969025293987,107.86988204007002L160.11909914016724,74.25833317643384L160.42850802739463,68.56627631608222L160.5832124710083,71.47528773081262L160.89262135823566,56.39956864352028L161.04732580184938,59.26627728452178L161.20203024546305,53.72969379270594L161.66614357630414,44.43486297332051L161.8208480199178,39.79722446643183L161.9755524635315,54.57604375230781L162.13025690714517,55.24923651766963L162.43966579437256,68.25186937997613L162.59437023798625,60.83723709471389L162.90377912521362,65.25794320851256L163.213188012441,74.9207477899093L163.36789245605468,61.67678445025632L163.52259689966837,76.99171372272075L163.67730134328204,75.20873941934306L163.98671023050946,79.9622136105078L164.14141467412313,79.29851798717701L164.2961191177368,88.1954553660906L164.4508235613505,92.52780124837273L164.76023244857788,84.94716775495893L164.91493689219158,84.46059014944392L165.06964133580524,89.03800646888006L165.22434577941897,80.92812448994209L165.53375466664633,90.66803997493025L165.68845911026,92.64035342462876L165.8431635538737,90.6913926373507L165.9978679974874,87.89243027617051L166.30727688471475,83.22796418357558L166.46198132832845,88.95712615697863L166.77139021555584,90.43959321739331L167.0807991027832,87.33576523489165L167.3902079900106,99.9878136758669L167.54491243362426,102.08968581197001L167.85432132085162,78.98190241338928L168.00902576446535,97.0422419453799L168.16373020807902,74.80922631123804L168.3184346516927,84.77990026120324L168.62784353892008,83.03918455880078L168.7825479825338,73.3769689474525L168.93725242614747,80.4115830332129L169.09195686976113,75.44842078055392L169.4013657569885,82.90077659741843L169.55607020060222,89.69373627230574L169.71077464421592,72.59973462303452L169.86547908782958,82.47034256177054L170.17488797505698,115.4665944158061L170.32959241867067,146.09437684131422L170.48429686228434,130.30959671271034L170.63900130589803,155.2352950627922L170.94841019312543,162.3230195226703L171.1031146367391,158.03676054667827L171.2578190803528,162.55784188098156L171.41252352396646,163.0024995432992L171.72193241119385,165.09700955379685L171.87663685480754,149.4500484165269L172.0313412984212,144.03245159874623L172.1860457420349,145.28050857988356L172.4954546292623,146.6889568294611L172.65015907287597,154.8080709139083L172.80486351648966,143.10707658289553L172.95956796010333,136.4467382386647L173.26897684733072,142.029923985563L173.42368129094442,127.12973269695566L173.57838573455808,118.29562369795894L173.7330901781718,120.73527015683982L174.04249906539917,142.74653856774572L174.19720350901284,124.12153872606875L174.35190795262653,120.45876344335055L174.50661239624026,135.78824027601132L174.81602128346762,127.35658923536182L174.9707257270813,145.4836590738402L175.125430170695,133.6589957569072L175.28013461430868,134.13762226676832L175.58954350153604,139.32273788218026L175.89895238876343,144.4264725611496L176.05365683237713,138.2493694174089L176.3630657196045,162.46708159651763L176.51777016321816,133.5505663709902L176.67247460683188,156.9682363605553L177.1365879376729,158.0493939542172L177.29129238128664,153.39526428597233L177.4459968249003,150.37467249556585L177.600701268514,148.30270531367205L177.91011015574136,152.58906735942256L178.21951904296876,136.7643845100372L178.37422348658242,137.28372357449643L178.68363237380984,61.87461948952583L178.8383368174235,40.577550883604076L178.9930412610372,123.33117036957066L179.14774570465087,120.18322853044121L179.45715459187826,136.99530494177756L179.61185903549196,152.71482718901476L179.76656347910563,134.9499297575706L179.92126792271932,135.6102535273741L180.23067680994671,118.92305349055732L180.38538125356038,120.4519166665375L180.54008569717408,133.4005851481561L181.00419902801514,127.03643984128347L181.15890347162883,130.52090444183779L181.3136079152425,117.79025794789884L181.4683123588562,125.83055311561414L181.7777212460836,117.04338502947773L181.93242568969725,103.6743686242907L182.08713013331095,79.87872710614207L182.24183457692465,67.9854193300639L182.551243464152,85.0546547887984L182.86065235137937,32.03448143404178L183.0153567949931,-4.994772275158539L183.32476568222046,1.3524695913239675L183.47947012583413,58.09060472233718L183.63417456944785,82.70953802269142L183.78887901306155,117.21925148594057L184.09828790028888,121.74086289328746L184.4076967875163,112.50863959005073L184.56240123112997,118.60515690691423L184.87181011835733,96.37984205615567L185.02651456197103,93.86976950373308L185.18121900558472,78.2769936109192L185.33592344919842,84.95123164829312L185.64533233642578,46.23101548153195L185.80003678003948,32.55436529579582L186.10944566726684,39.6422075496836L186.4188545544942,42.35953866215065L186.57355899810793,28.757923260585187L186.7282634417216,68.25755294094354L186.8829678853353,24.38970910235335L187.19237677256268,29.582952504433685L187.34708121617635,44.28505844150095L187.50178565979004,56.70639259025279L187.6564901034037,54.113039672981415L187.9658989906311,78.61412006664371L188.27530787785847,96.34980458368545L188.43001232147216,117.93702928396897L188.73942120869955,108.99764188881439L188.89412565231325,145.97097289191575L189.04883009592692,112.71993259492699L189.20353453954058,126.18755731047334L189.512943426768,130.61550775586775L189.66764787038167,94.09652297238075L189.82235231399537,111.07648529602368L189.97705675760903,112.27770443405916L190.28646564483643,123.3778462459092L190.44117008845012,91.80860992222809L190.5958745320638,97.29804636166666L190.7505789756775,91.01011377906161L191.05998786290488,79.32646461597528L191.21469230651854,70.650391005225L191.36939675013224,70.3420357363666L191.52410119374593,96.06924870111317L191.8335100809733,90.81198425476788L191.988214524587,86.42066774638617L192.14291896820066,68.5912339218847L192.29762341181439,63.197829048843516L192.60703229904175,64.44802104640644L192.76173674265542,67.46088260492722L192.91644118626914,56.14039237370623L193.0711456298828,44.46740356849659L193.38055451711017,66.61565168841737L193.53525896072387,36.7526321465516L193.84466784795126,15.267917683198284L194.15407673517862,49.313861406058095L194.30878117879234,50.834582071118646L194.463485622406,61.28850594582519L194.92759895324707,91.15856367976978L195.08230339686077,109.66631430905447L195.23700784047446,100.02656790505397L195.39171228408813,107.49453142820205L195.7011211713155,94.59700027103888L196.01053005854288,93.86187730508405L196.16523450215658,80.90465403351192L196.47464338938397,90.13237171587811L196.62934783299764,97.70754251209269L196.78405227661133,83.95684406701699L196.938756720225,71.43648932887191L197.2481656074524,67.22452892449002L197.4028700510661,50.91939375809336L197.55757449467976,58.633267000714476L197.71227893829345,32.25731825186736L198.3310967127482,-2.9308739829283046L199.56873226165771,-20.472816802537196L199.7234367052714,14.605149687693782L199.87814114888508,49.096767046204754L200.0328455924988,61.6682149360516L200.49695892333983,70.92146447001748L200.65166336695353,71.71778142400474L200.80636781056722,77.53450851935894L201.1157766977946,77.5501456741449L201.27048114140828,91.54316112139817L201.42518558502198,99.92835714947735L201.57989002863567,80.14261513634362L201.88929891586304,87.16196017359833L202.0440033594767,82.90020235162122L202.19870780309043,80.7240758166616L202.3534122467041,90.29349919687887L202.66282113393146,72.88835939527036L202.81752557754518,81.99245226446995L202.97223002115885,72.40198792927231L203.12693446477255,70.65857768889828L203.59104779561363,58.91935920174205L203.7457522392273,18.280087201912153L204.20986557006833,15.27074473943077L204.36457001368206,-24.21884300160174L204.51927445729575,20.86875780729845L204.67397890090942,30.06590794415083L204.9833877881368,31.840062421053197L205.1380922317505,37.42226164312037L205.29279667536417,34.98689994134185L205.44750111897787,53.53000349778388L205.91161444981893,51.14033114751275L206.06631889343262,68.51756849307661L206.2210233370463,52.95228277727347L206.53043222427368,64.09218006739289L206.68513666788738,78.86356360640737L206.99454555511474,80.81689749629504L207.30395444234213,104.00868274803389L207.6133633295695,96.8510475434065L207.76806777318316,96.52113597077533L208.23218110402425,106.64800477758565L208.38688554763792,99.44867049352901L208.54158999125164,106.02081057300666L208.850998878479,109.36810404928033L209.00570332209267,107.87934973359863L209.16040776570637,106.70461952349152L209.3151122093201,107.50424943400122L209.62452109654745,100.32901874917684L209.77922554016112,109.86875803895296L210.0886344273885,100.00186061152209L210.39804331461588,107.79970625879893L210.55274775822957,102.62254173904086L210.70745220184327,100.49457822979207L210.86215664545696,96.94911105647101L211.17156553268433,90.6848992425667L211.326269976298,99.3266653479956L211.48097441991172,98.88305310751396L211.63567886352538,90.747757070986L211.94508775075275,87.31672677807599L212.09979219436647,90.89149521130668L212.25449663798014,82.8891002662082L212.7186099688212,90.2883898817087L212.8733144124349,76.45868110463539L213.0280188560486,68.50854252708434L213.18272329966226,69.28118288512451L213.49213218688968,75.18691807904852L213.64683663050334,66.58629153150287L213.80154107411704,65.47163626633618L213.9562455177307,63.263204724219875L214.2656544049581,65.96114399784217L214.4203588485718,62.19634437848374L214.57506329218546,64.67911816916131L214.72976773579916,63.842883770141334L215.03917662302655,64.37406113257413L215.19388106664022,66.89380751804227L215.3485855102539,61.44259523474716L215.50328995386758,63.02752835933839L215.81269884109497,51.426114139264875L215.96740328470867,62.56377334320025L216.12210772832233,48.23504496833871L216.58622105916342,53.09721358194223L216.7409255027771,52.403156552614576L216.89562994639078,54.55248495037039L217.05033439000448,49.0558630763409L217.35974327723184,52.95820192626023L217.51444772084554,49.427856558932774L217.6691521644592,54.8957072460962L218.1332654953003,42.53054611571389L218.28796993891396,37.511520053960794L218.44267438252768,44.70154861125213L218.59737882614138,44.2223920283474L218.90678771336871,50.27909496993667L219.0614921569824,45.89745229460049L219.21619660059613,42.644423474578915L219.68030993143717,46.67227184181985L219.83501437505086,39.623036574607035L219.98971881866456,39.74398157405326L220.14442326227825,47.710243206680225L220.45383214950562,41.46825028785315L220.6085365931193,43.51023889428157L220.763241036733,36.10235031607391L220.91794548034667,45.63721587869925L221.22735436757404,35.394732251381036L221.69146769841512,40.50893587296134L222.00087658564252,46.18271993756025L222.15558102925618,50.0345104330726L222.31028547286988,41.43777108784661L222.46498991648355,43.907410846444066L222.77439880371094,34.10712593149128L222.92910324732463,39.61864874774618L223.0838076909383,30.563823223098247L223.238512134552,35.40365514761485L223.5479210217794,30.928484028587107L223.70262546539308,39.06601815129911L224.01203435262042,28.38445735287221L224.32144323984784,42.34054437808859L224.4761476834615,31.59119312708676L224.6308521270752,42.6821470061812L224.78555657068887,38.6930234196249L225.09496545791626,33.80380635654697L225.24966990152996,40.67573219067829L225.40437434514362,38.10384723167241L225.55907878875735,36.84454092260996L225.8684876759847,33.898689431349936L226.17789656321207,26.318703804989426L226.33260100682577,30.56959512957291L226.64200989405313,26.665106538976787L226.79671433766683,33.73901965121905L226.9514187812805,18.60458025009772L227.10612322489422,36.0018425773084L227.41553211212158,30.97710350608545L227.57023655573525,26.417297391097534L227.72494099934897,31.06857055460749L228.3437587738037,27.697453239874598L228.49846321741742,31.787761880752136L228.6531676610311,32.89208072156876L228.96257654825845,15.631400548590285L229.27198543548585,31.60273694003611L229.42668987909954,22.904886161744933L229.7360987663269,23.43725618852583L229.8908032099406,35.069738578654324L230.0455076535543,33.18491662965091L230.50962098439533,20.558694525299565L230.66432542800905,36.367769668401394L230.9737343152364,38.582738778055344L231.2831432024638,23.48970397133901L231.43784764607747,26.301388085565414L231.59255208969117,36.90178881131789L231.74725653330484,15.950681211847183L232.05666542053223,20.481215515427863L232.21136986414592,30.10301305720227L232.3660743077596,26.12675846620428L232.52077875137329,40.2123305565692L232.83018763860068,17.79692562267806L232.98489208221434,30.93793699786449L233.13959652582804,26.40916960442911L233.2943009694417,24.779783965432202L233.60370985666913,38.79020347761676L233.7584143002828,38.83490630429301L233.91311874389646,24.669793808886865L234.06782318751016,24.84300990013177L234.37723207473755,33.588361112829254L234.53193651835124,30.113231687542637L234.6866409619649,40.97849224407656L234.84134540557864,20.324166652012515L235.150754292806,16.670667647557195L235.30545873641967,34.9357184441328L235.61486762364706,31.441594734784147L235.92427651087442,25.316983546610253L236.07898095448812,26.01997819642292L236.3883898417155,34.033740263456195L236.69779872894287,15.443784139661128L236.85250317255654,32.062575305352155L237.00720761617026,14.581090261215175L237.16191205978393,15.798991975872605L237.4713209470113,25.344900726906104L237.62602539062502,24.608717614864112L237.78072983423868,33.22914828028841L237.93543427785238,30.547479304254146L238.24484316507974,34.34721957173603L238.39954760869347,23.49544642931125L238.55425205230713,23.87306457586569L238.7089564959208,29.46471676721027L239.01836538314816,23.480957766119744L239.1730698267619,25.88316045417134L239.32777427037558,7.406345476680735L239.48247871398925,33.238071176522226L239.94659204483034,26.346238154753784L240.101296488444,22.219531164882923L240.2560009320577,25.06363808027571L240.5654098192851,21.73548613057617L240.87481870651246,35.49868546492991L241.02952315012612,20.308352806212028L241.33893203735352,16.405719471268476L241.4936364809672,36.78732248240445L242.11245425542197,33.372385796067945L242.26715869903563,15.380145925927685L242.42186314264933,32.7999069089886L242.576567586263,23.584292561117756L243.04068091710408,15.75057863789121L243.19538536071775,29.183365775072602L243.35008980433147,31.631449229897328L243.65949869155884,17.709787504012027L243.8142031351725,34.5010879968898L243.9689075787862,23.594069463921784L244.12361202239993,28.67629201187202L244.4330209096273,32.28561826269468L244.58772535324096,38.661837455560224L244.74242979685468,42.473504366522924L244.89713424046835,26.6032057868862L245.2065431276957,29.877820359182948L245.3612475713094,35.120566693834306L245.5159520149231,32.921647018000215L245.6706564585368,39.75178542719504L245.98006534576416,26.5451922371153L246.13476978937783,34.861360975517826L246.28947423299155,32.4810385247656L246.44417867660522,38.56963419447764L246.75358756383258,32.12535951251538L246.9082920074463,29.182335077487842L247.06299645105997,60.695280588789714L247.21770089467367,53.6578247225456L247.52710978190103,52.10345914346816" fill="none"></path></g></g></g></g></g></g><g transform="translate(51, 177)" clip-path="url(#clip_1)"><clipPath id="clip_1"><rect width="278" height="22"></rect></clipPath><g><g><line x1="0" y1="0" x2="0" y2="5" style="visibility: inherit;" fill="rgb(0, 0, 0)" stroke="rgb(204, 204, 204)" stroke-width="1px"></line><line x1="30.94088872273763" y1="0" x2="30.94088872273763" y2="5" style="visibility: inherit;" fill="rgb(0, 0, 0)" stroke="rgb(204, 204, 204)" stroke-width="1px"></line><line x1="61.88177744547526" y1="0" x2="61.88177744547526" y2="5" style="visibility: inherit;" fill="rgb(0, 0, 0)" stroke="rgb(204, 204, 204)" stroke-width="1px"></line><line x1="92.82266616821289" y1="0" x2="92.82266616821289" y2="5" style="visibility: inherit;" fill="rgb(0, 0, 0)" stroke="rgb(204, 204, 204)" stroke-width="1px"></line><line x1="123.76355489095052" y1="0" x2="123.76355489095052" y2="5" style="visibility: inherit;" fill="rgb(0, 0, 0)" stroke="rgb(204, 204, 204)" stroke-width="1px"></line><line x1="154.70444361368817" y1="0" x2="154.70444361368817" y2="5" style="visibility: inherit;" fill="rgb(0, 0, 0)" stroke="rgb(204, 204, 204)" stroke-width="1px"></line><line x1="185.64533233642578" y1="0" x2="185.64533233642578" y2="5" style="visibility: inherit;" fill="rgb(0, 0, 0)" stroke="rgb(204, 204, 204)" stroke-width="1px"></line><line x1="216.58622105916342" y1="0" x2="216.58622105916342" y2="5" style="visibility: inherit;" fill="rgb(0, 0, 0)" stroke="rgb(204, 204, 204)" stroke-width="1px"></line><line x1="247.52710978190103" y1="0" x2="247.52710978190103" y2="5" style="visibility: inherit;" fill="rgb(0, 0, 0)" stroke="rgb(204, 204, 204)" stroke-width="1px"></line><line x1="278.4679985046387" y1="0" x2="278.4679985046387" y2="5" style="visibility: inherit;" fill="rgb(0, 0, 0)" stroke="rgb(204, 204, 204)" stroke-width="1px"></line></g><g transform="translate(0, 8)"><text style="text-anchor: middle; visibility: hidden; font-family: Roboto, sans-serif; font-size: 12px; font-weight: 200;" x="0" y="0" dx="0em" dy="0.95em" fill="rgb(50, 49, 63)" stroke="none" stroke-width="1px">-200</text><text style="text-anchor: middle; visibility: hidden; font-family: Roboto, sans-serif; font-size: 12px; font-weight: 200;" x="30.94088872273763" y="0" dx="0em" dy="0.95em" fill="rgb(50, 49, 63)" stroke="none" stroke-width="1px">0</text><text style="text-anchor: middle; visibility: hidden; font-family: Roboto, sans-serif; font-size: 12px; font-weight: 200;" x="61.88177744547526" y="0" dx="0em" dy="0.95em" fill="rgb(50, 49, 63)" stroke="none" stroke-width="1px">200</text><text style="text-anchor: middle; visibility: hidden; font-family: Roboto, sans-serif; font-size: 12px; font-weight: 200;" x="92.82266616821289" y="0" dx="0em" dy="0.95em" fill="rgb(50, 49, 63)" stroke="none" stroke-width="1px">400</text><text style="text-anchor: middle; visibility: hidden; font-family: Roboto, sans-serif; font-size: 12px; font-weight: 200;" x="123.76355489095052" y="0" dx="0em" dy="0.95em" fill="rgb(50, 49, 63)" stroke="none" stroke-width="1px">600</text><text style="text-anchor: middle; visibility: hidden; font-family: Roboto, sans-serif; font-size: 12px; font-weight: 200;" x="154.70444361368817" y="0" dx="0em" dy="0.95em" fill="rgb(50, 49, 63)" stroke="none" stroke-width="1px">800</text><text style="text-anchor: middle; visibility: hidden; font-family: Roboto, sans-serif; font-size: 12px; font-weight: 200;" x="185.64533233642578" y="0" dx="0em" dy="0.95em" fill="rgb(50, 49, 63)" stroke="none" stroke-width="1px">1k</text><text style="text-anchor: middle; visibility: hidden; font-family: Roboto, sans-serif; font-size: 12px; font-weight: 200;" x="216.58622105916342" y="0" dx="0em" dy="0.95em" fill="rgb(50, 49, 63)" stroke="none" stroke-width="1px">1.2k</text><text style="text-anchor: middle; visibility: hidden; font-family: Roboto, sans-serif; font-size: 12px; font-weight: 200;" x="247.52710978190103" y="0" dx="0em" dy="0.95em" fill="rgb(50, 49, 63)" stroke="none" stroke-width="1px">1.4k</text><text style="text-anchor: middle; visibility: hidden; font-family: Roboto, sans-serif; font-size: 12px; font-weight: 200;" x="278.4679985046387" y="0" dx="0em" dy="0.95em" fill="rgb(50, 49, 63)" stroke="none" stroke-width="1px">1.6k</text></g><line x1="0" y1="0" x2="278.4679985046387" y2="0" fill="rgb(0, 0, 0)" stroke="rgb(204, 204, 204)" stroke-width="1px"></line></g></g></g></g></svg>