<svg viewBox="0 0 330 200" xmlns="http://www.w3.org/2000/svg"><g><g><g><g><g><line x1="20.383000373840332" y1="173.25106972318062" x2="15.383000373840332" y2="173.25106972318062" style="visibility: inherit;" fill="rgb(0, 0, 0)" stroke="rgb(204, 204, 204)" stroke-width="1px"></line><line x1="20.383000373840332" y1="100.53350629504438" x2="15.383000373840332" y2="100.53350629504438" style="visibility: inherit;" fill="rgb(0, 0, 0)" stroke="rgb(204, 204, 204)" stroke-width="1px"></line><line x1="20.383000373840332" y1="57.99645854577253" x2="15.383000373840332" y2="57.99645854577253" style="visibility: inherit;" fill="rgb(0, 0, 0)" stroke="rgb(204, 204, 204)" stroke-width="1px"></line><line x1="20.383000373840332" y1="27.815942866908134" x2="15.383000373840332" y2="27.815942866908134" style="visibility: inherit;" fill="rgb(0, 0, 0)" stroke="rgb(204, 204, 204)" stroke-width="1px"></line><line x1="20.383000373840332" y1="4.406116207637317" x2="15.383000373840332" y2="4.406116207637317" style="visibility: inherit;" fill="rgb(0, 0, 0)" stroke="rgb(204, 204, 204)" stroke-width="1px"></line></g><g transform="translate(10.383000373840332, 0)"><text style="text-anchor: end; visibility: hidden; font-family: Roboto, sans-serif; font-size: 12px; font-weight: 200;" x="0" y="173.25106972318062" dx="0em" dy="0.3em" fill="rgb(50, 49, 63)" stroke="none" stroke-width="1px">1</text><text style="text-anchor: end; visibility: inherit; font-family: Roboto, sans-serif; font-size: 12px; font-weight: 200;" x="0" y="100.53350629504438" dx="0em" dy="0.3em" fill="rgb(50, 49, 63)" stroke="none" stroke-width="1px">2</text><text style="text-anchor: end; visibility: inherit; font-family: Roboto, sans-serif; font-size: 12px; font-weight: 200;" x="0" y="57.99645854577253" dx="0em" dy="0.3em" fill="rgb(50, 49, 63)" stroke="none" stroke-width="1px">3</text><text style="text-anchor: end; visibility: inherit; font-family: Roboto, sans-serif; font-size: 12px; font-weight: 200;" x="0" y="27.815942866908134" dx="0em" dy="0.3em" fill="rgb(50, 49, 63)" stroke="none" stroke-width="1px">4</text><text style="text-anchor: end; visibility: hidden; font-family: Roboto, sans-serif; font-size: 12px; font-weight: 200;" x="0" y="4.406116207637317" dx="0em" dy="0.3em" fill="rgb(50, 49, 63)" stroke="none" stroke-width="1px">5</text></g><line x1="20.383000373840332" y1="0" x2="20.383000373840332" y2="177.86299896240234" fill="rgb(0, 0, 0)" stroke="rgb(204, 204, 204)" stroke-width="1px"></line></g></g><g transform="translate(20, 0)" clip-path="url(#clip_0)"><clipPath id="clip_0"><rect width="309" height="177"></rect></clipPath><g><g><g><line x1="0" y1="0" x2="0" y2="177.86299896240234" fill="rgb(0, 0, 0)" stroke="rgb(60, 60, 60)" stroke-width="1px" opacity="0.25"></line><line x1="34.401888847351074" y1="0" x2="34.401888847351074" y2="177.86299896240234" fill="rgb(0, 0, 0)" stroke="rgb(60, 60, 60)" stroke-width="1px" opacity="0.25"></line><line x1="68.80377769470215" y1="0" x2="68.80377769470215" y2="177.86299896240234" fill="rgb(0, 0, 0)" stroke="rgb(60, 60, 60)" stroke-width="1px" opacity="0.25"></line><line x1="103.20566654205322" y1="0" x2="103.20566654205322" y2="177.86299896240234" fill="rgb(0, 0, 0)" stroke="rgb(60, 60, 60)" stroke-width="1px" opacity="0.25"></line><line x1="137.6075553894043" y1="0" x2="137.6075553894043" y2="177.86299896240234" fill="rgb(0, 0, 0)" stroke="rgb(60, 60, 60)" stroke-width="1px" opacity="0.25"></line><line x1="172.00944423675537" y1="0" x2="172.00944423675537" y2="177.86299896240234" fill="rgb(0, 0, 0)" stroke="rgb(60, 60, 60)" stroke-width="1px" opacity="0.25"></line><line x1="206.41133308410645" y1="0" x2="206.41133308410645" y2="177.86299896240234" fill="rgb(0, 0, 0)" stroke="rgb(60, 60, 60)" stroke-width="1px" opacity="0.25"></line><line x1="240.81322193145752" y1="0" x2="240.81322193145752" y2="177.86299896240234" fill="rgb(0, 0, 0)" stroke="rgb(60, 60, 60)" stroke-width="1px" opacity="0.25"></line><line x1="275.2151107788086" y1="0" x2="275.2151107788086" y2="177.86299896240234" fill="rgb(0, 0, 0)" stroke="rgb(60, 60, 60)" stroke-width="1px" opacity="0.25"></line><line x1="309.61699962615967" y1="0" x2="309.61699962615967" y2="177.86299896240234" fill="rgb(0, 0, 0)" stroke="rgb(60, 60, 60)" stroke-width="1px" opacity="0.25"></line></g><g><line x1="0" y1="173.25106972318062" x2="309.61699962615967" y2="173.25106972318062" fill="rgb(0, 0, 0)" stroke="rgb(60, 60, 60)" stroke-width="1px" opacity="0.25"></line><line x1="0" y1="100.53350629504438" x2="309.61699962615967" y2="100.53350629504438" fill="rgb(0, 0, 0)" stroke="rgb(60, 60, 60)" stroke-width="1px" opacity="0.25"></line><line x1="0" y1="57.99645854577253" x2="309.61699962615967" y2="57.99645854577253" fill="rgb(0, 0, 0)" stroke="rgb(60, 60, 60)" stroke-width="1px" opacity="0.25"></line><line x1="0" y1="27.815942866908134" x2="309.61699962615967" y2="27.815942866908134" fill="rgb(0, 0, 0)" stroke="rgb(60, 60, 60)" stroke-width="1px" opacity="0.25"></line><line x1="0" y1="4.406116207637317" x2="309.61699962615967" y2="4.406116207637317" fill="rgb(0, 0, 0)" stroke="rgb(60, 60, 60)" stroke-width="1px" opacity="0.25"></line></g></g></g><g><g><line x1="34.401888847351074" y1="0" x2="34.401888847351074" y2="177.86299896240234" fill="rgb(0, 0, 0)" stroke="rgb(153, 153, 153)" stroke-width="1.5px"></line></g></g><g><g><g><g><g><path style="fill: none;" stroke="rgb(255, 112, 67)" stroke-width="2px" d="M35.26193606853485,189.41641170089048L35.43394551277161,165.92518634273023L35.605954957008365,152.0730367450153L35.777964401245114,177.93093537944605L36.63801162242889,232.67400814509708L36.982030510902405,176.4025301922222L37.32604939937592,153.2051312646855L37.498058843612675,144.42647426057746L37.84207773208618,158.50318928553122L38.01408717632294,167.9416004107446L38.186096620559695,174.03588399154646L38.35810606479645,177.86800436021224L38.70212495326996,169.72992876067545L38.874134397506715,170.02141079670736L39.04614384174347,150.12739912238658L39.21815328598023,139.78242128088618L39.562172174453735,154.49589160940073L39.90619106292724,128.40166713504718L40.078200507164,114.88712157567548L40.42221939563751,113.64200236227559L40.59422883987427,85.95530963482342L40.76623828411102,70.6211529881792L40.938247728347775,69.54420312125181L41.28226661682129,60.508075175672346L41.454276061058046,66.53065519458792L41.6262855052948,63.378109887269495L41.79829494953156,82.52699537827567L42.14231383800506,87.96005157639114L42.314323282241816,120.77984890097385L42.48633272647857,108.32802594432911L42.65834217071533,100.12893402983637L43.00236105918884,108.70920962680812L43.1743705034256,112.7495572417624L43.518389391899106,115.5005236923651L43.86240828037262,117.06312304357112L44.034417724609376,114.5267490183576L44.37843661308289,97.56118673695704L44.72245550155639,92.69249261678334L44.894464945793146,87.34108299929227L45.0664743900299,98.13737952392509L45.23848383426666,98.76027259983508L45.58250272274017,100.86552509862229L45.75451216697693,99.71985584436516L45.92652161121369,99.31667586826195L46.09853105545044,104.82241081445954L46.44254994392395,110.45830424753098L46.786568832397464,117.21590820452026L46.95857827663422,128.94934046733616L47.47460660934448,141.95561332620684L47.64661605358123,113.73302548927862L47.81862549781799,99.84690649875803L48.162644386291504,92.31970660585367L48.50666327476502,134.17136523782207L48.678672719001774,176.3368956647517L49.02269160747528,99.15144569493751L49.19470105171204,111.2207137042511L49.366710495948794,131.16410209255494L49.53871994018555,116.49253050103032L49.88273882865906,127.71874349981175L50.05474827289581,151.79395606302185L50.226757717132564,186.74184302050165L50.39876716136932,215.14604007095593L50.742786049842834,163.0135736031975L50.91479549407959,140.87347315760147L51.08680493831635,97.3064605443915L51.258814382553105,134.2412796284446L51.60283327102661,119.57077993294205L51.77484271526337,145.7461099204221L51.946852159500125,95.68803621598725L52.118861603736875,54.73419684579413L52.46288049221039,93.28575496352411L52.634889936447145,85.9613198363869L52.806899380683895,110.7511171166994L52.97890882492065,123.4137949003674L53.322927713394165,112.20825045287005L53.49493715763092,131.39487678807558L53.66694660186768,156.02262570686435L53.838956046104435,145.83653273838482L54.35498437881469,165.85848830764317L54.52699382305145,142.97593219328758L54.699003267288205,159.9023451022682L55.04302215576172,180.93218088749097L55.215031599998476,153.37491281942317L55.55905048847198,97.78486925313858L55.903069376945496,118.9982538607985L56.07507882118225,112.58777821518439L56.24708826541901,111.54995399344749L56.763116598129265,120.39678169673252L56.93512604236602,78.54049576298516L57.10713548660278,106.84277481558408L57.279144930839536,138.06140299569512L57.62316381931305,161.70804492341685L57.795173263549806,176.01325289130534L57.96718270778656,201.35414966083314L58.13919215202331,166.50686099978415L58.483211040496826,168.05934059945616L58.65522048473358,135.59475768484634L58.9992393732071,153.92431418137255L59.34325826168061,189.80611777554742L59.51526770591735,138.85942800943621L59.68727715015411,130.04497820946906L59.859286594390866,132.8974807111331L60.20330548286438,139.77890352788992L60.37531492710114,144.13539661623557L60.54732437133789,121.79089949486396L60.71933381557465,125.50095868584495L61.06335270404816,128.40636873655242L61.40737159252167,117.9663030250243L61.57938103675843,128.74659415763568L61.923399925231934,122.78127200981952L62.09540936946868,138.4522046019047L62.26741881370544,108.8174447572953L62.4394282579422,101.70783654946302L62.78344714641571,97.66241491524751L62.95545659065247,104.53438541206012L63.29947547912598,130.52064818717287L63.815503811836244,131.22850011054123L63.987513256073,121.82070804203843L64.15952270030975,97.81977728620716L64.50354158878326,107.7040414942932L64.67555103302003,114.12729496790567L64.84756047725678,124.07530326632784L65.01956992149353,130.5308739819112L65.36358880996704,136.5724221197293L65.53559825420379,113.76636518485778L65.70760769844055,116.97326214780132L65.8796171426773,151.3220468134922L66.22363603115082,173.98038767320628L66.39564547538757,128.42869638578495L66.73966436386108,105.91949028603278L67.25569269657136,101.478499509667L67.42770214080811,99.28989231047727L67.59971158504486,113.9473327116783L68.11573991775512,89.31759897012469L68.28774936199189,103.59864756229979L68.45975880622863,92.79185542975921L68.80377769470215,98.83834503206991L68.9757871389389,100.90120719505869L69.14779658317566,108.01106866760419L69.31980602741241,109.60535395954729L69.66382491588593,77.79948199680042L69.83583436012269,90.18859369161886L70.00784380435944,97.67647896179251L70.17985324859619,117.026642818255L70.69588158130645,125.75896682787621L70.86789102554322,112.03257974362705L71.03990046977997,93.28649098322815L71.38391935825348,85.23235100358886L71.55592880249023,87.29191568142292L71.72793824672699,113.8184785220295L71.89994769096374,100.30186530768067L72.24396657943726,104.94753109942971L72.41597602367402,122.6664774953869L72.58798546791077,94.18572496891152L72.75999491214752,89.76281667631254L73.10401380062103,83.78487677610774L73.27602324485778,92.52347030303109L73.44803268909455,76.35133446291663L73.6200421333313,71.27254857740219L73.96406102180481,69.1245432561727L74.13607046604156,61.602938905069806L74.30807991027832,64.56896059740531L74.48008935451507,73.89978936276596L75.1681271314621,84.19342389936932L75.34013657569885,119.50788191433274L75.68415546417236,76.15139737260981L75.85616490840911,47.57307228773626L76.02817435264588,41.42889086361672L76.20018379688263,39.164476054530006L76.54420268535614,41.56774569073515L76.88822157382965,73.7943366607627L77.0602310180664,108.40535147947105L77.40424990653992,135.05932579491676L77.57625935077667,160.7206534901994L77.92027823925018,159.53764573511134L78.2642971277237,165.8054882654446L78.43630657196046,176.0923723245426L78.60831601619721,191.27100025544837L78.78032546043396,208.8633213118676L79.12434434890747,117.42008245019242L79.29635379314423,129.1686148838186L79.46836323738098,103.030953548725L79.64037268161775,99.78667542168216L79.98439157009126,96.02654460972737L80.156401014328,60.368274988664744L80.32841045856475,57.41928472815806L80.50041990280151,64.75586335820583L80.84443879127502,51.126628865111506L81.01644823551177,87.4783710038224L81.36046712398529,63.85141559434011L81.7044860124588,78.47542141754856L81.87649545669555,115.01713304455086L82.04850490093231,110.10349603286753L82.22051434516906,85.09067268455284L82.56453323364258,78.44491257921354L82.73654267787934,106.55510949932446L82.90855212211609,87.6072113649026L83.08056156635284,82.87985975777917L83.59658989906312,83.39987312143187L83.76859934329987,77.98191655468811L83.94060878753663,62.82529732664035L84.28462767601012,57.851381237284734L84.4566371202469,63.39482757646148L84.62864656448363,73.77079017676658L84.80065600872041,86.66868115810806L85.14467489719391,78.76157018754778L85.31668434143066,89.03052736959106L85.48869378566741,94.01326102292367L85.66070322990417,112.20889717475981L86.00472211837769,125.0822241387421L86.3487410068512,101.85019435023763L86.52075045108795,102.28177593937708L86.86476933956146,107.29930773295374L87.03677878379821,94.79310260195163L87.20878822803498,92.87459081122672L87.38079767227173,93.2834904075451L87.72481656074524,92.35315483135672L87.896826004982,91.39158800460032L88.06883544921875,96.34544536667637L88.2408448934555,101.84518383705245L88.58486378192902,96.26598458170406L88.75687322616578,90.82244585998403L88.92888267040253,100.06524998931236L89.1008921146393,100.37139865736492L89.44491100311278,111.08583289696942L89.78892989158629,120.67719791430214L89.96093933582306,128.9907599907098L90.30495822429657,130.53170483631425L90.47696766853332,139.44765789003324L90.64897711277008,156.56941068171676L90.82098655700683,167.30655084538813L91.16500544548035,118.12376793988166L91.50902433395386,103.41457149702374L92.02505266666412,118.99093175437109L92.19706211090087,142.70543445128686L92.36907155513764,124.77899643282923L92.54108099937439,115.61670075915647L92.8850998878479,72.96441176822145L93.22911877632141,58.35475487594005L93.40112822055818,61.752787705160486L93.74514710903168,64.99407361079741L93.91715655326844,58.97515778134907L94.26117544174195,67.43572933827225L94.60519433021547,83.20526696594433L94.7772037744522,67.49474104582589L94.94921321868895,75.1521555494597L95.12122266292572,73.66962503711038L95.46524155139923,82.85612374853994L95.63725099563598,81.81160900525775L95.80926043987274,44.80798676607971L95.9812698841095,78.52138608952183L96.32528877258301,50.71137545694752L96.49729821681976,53.82096956487842L96.66930766105652,73.2373863287484L96.84131710529327,54.521673225332L97.18533599376678,68.91542600861646L97.35734543800355,78.68806894898523L97.70136432647705,94.05827867363216L98.04538321495056,105.66539513806613L98.21739265918733,110.41761662138917L98.38940210342408,92.45160016338824L98.56141154766084,84.3231165980265L98.90543043613432,82.98594488039242L99.0774398803711,76.42344933674515L99.24944932460784,76.22230932702035L99.42145876884462,91.24226774000844L99.76547765731812,106.54331948184424L99.93748710155486,113.57275236028825L100.10949654579161,107.54796339911755L100.28150599002838,99.9703702342301L100.62552487850189,96.10900367675562L100.79753432273864,73.08256220908001L100.9695437669754,90.654968227924L101.48557209968567,89.00011191729055L101.65758154392242,90.61235338799204L101.82959098815918,99.69248235044039L102.00160043239593,73.55092421396134L102.34561932086945,59.249280272625114L102.51762876510621,59.25629755584048L102.86164765357971,62.393372250159786L103.20566654205322,67.6741394828148L103.37767598628999,70.42827623126762L103.54968543052674,75.37157610969912L103.7216948747635,74.06638033783287L104.23772320747375,57.26879051522936L104.4097326517105,52.68966159389126L104.58174209594726,54.785722364082034L104.92576098442078,51.4829510949473L105.09777042865753,44.791847655334514L105.26977987289429,50.43267327849065L105.44178931713104,49.49916298372978L105.78580820560455,47.974207037224375L105.9578176498413,52.77149924880744L106.12982709407807,73.08802281624268L106.30183653831482,70.21723177354092L106.64585542678833,70.13401720590299L106.81786487102508,78.19404973920781L106.98987431526184,98.30483596665223L107.1618837594986,90.5484643727862L107.67791209220887,112.07779678255092L107.84992153644562,69.21341610588114L108.02193098068238,52.0783662734149L108.36594986915588,40.37794311181917L108.53795931339265,54.901164387363714L108.70996875762938,70.13945598814455L108.88197820186616,83.51375856290638L109.22599709033967,125.89650968332234L109.39800653457641,96.59479698268265L109.57001597881316,78.34234938459402L109.74202542304992,104.80689163232287L110.08604431152344,102.04273727570795L110.25805375576019,145.9364159083647L110.43006319999695,105.1855032030485L110.6020726442337,99.21059979279694L110.94609153270721,110.50699953059828L111.29011042118073,106.59807162529114L111.46211986541748,116.79577709936505L111.97814819812776,137.05865939261506L112.1501576423645,152.45399911063058L112.32216708660125,163.987122086375L112.66618597507477,172.39562961604094L112.83819541931153,119.01246899879114L113.01020486354828,107.73760362530066L113.18221430778505,128.3835090324005L113.52623319625853,87.55084482962316L113.69824264049531,73.35399759931501L113.87025208473204,65.90890656531651L114.55828986167907,67.31334715515489L114.73029930591584,65.30606302637382L114.90230875015259,65.73281307239124L115.2463276386261,67.64903464622293L115.41833708286285,67.73361090620683L115.59034652709961,58.63267744556109L115.76235597133636,67.16427486290829L116.10637485980988,56.52779438000336L116.45039374828339,56.591717170866616L116.62240319252014,78.00484395080656L116.96642208099365,101.21062310568037L117.13843152523042,84.90732793879268L117.31044096946717,82.8808039470358L117.48245041370392,64.19203481178194L118.17048819065094,68.69626808870889L118.3424976348877,54.594207863123216L118.68651652336122,48.49499852553772L118.85852596759796,46.55439624255149L119.0305354118347,57.61259420546538L119.20254485607147,57.83967829987899L119.54656374454498,52.52655089569203L119.71857318878173,57.9112165885586L119.8905826330185,57.149940357597885L120.06259207725525,80.12149243375106L120.40661096572876,94.58179776675753L120.57862040996551,99.88572361983218L120.75062985420227,90.88556226238109L120.92263929843902,112.17036642495337L121.26665818691254,72.31309596845504L121.4386676311493,61.49729568264306L121.61067707538605,59.71114742892971L121.7826865196228,70.40566201077202L122.12670540809631,93.06108125580954L122.29871485233308,117.52391694692777L122.47072429656983,115.28678729906301L122.64273374080659,72.05192646547357L122.98675262928008,68.32912112843302L123.15876207351685,66.1289927054916L123.33077151775359,80.13876908600368L123.50278096199037,89.54068054779906L123.84679985046387,101.03347082017955L124.36282818317413,90.10358408205653L124.70684707164764,87.43780004591494L124.8788565158844,63.4738268552018L125.05086596012116,51.18882801786439L125.22287540435791,51.16690165514036L125.56689429283142,54.09391001552085L125.73890373706817,61.01506076125843L125.91091318130493,75.23247525081442L126.08292262554168,95.55095627586786L126.4269415140152,77.07916977590247L126.77096040248871,58.284683850216055L126.94296984672546,58.84359799750945L127.28698873519897,51.43806144210036L127.45899817943574,53.38354364044575L127.80301706790925,65.09575195924575L128.14703595638275,76.99992354921574L128.3190454006195,80.20108243897572L128.49105484485625,74.86051914741876L128.66306428909303,70.2387995207203L129.00708317756653,49.331294624099336L129.17909262180328,33.47091946615575L129.35110206604006,29.975606748534478L129.8671303987503,32.2287568991571L130.03913984298705,33.245948211652106L130.21114928722383,37.879098527292655L130.38315873146058,46.990958719636296L130.72717761993408,54.12946524782102L131.07119650840758,67.52149482689802L131.24320595264433,80.82003759316493L131.58722484111786,98.30212661309228L131.7592342853546,92.80677993579319L131.93124372959136,97.19707139985384L132.10325317382814,98.19241983487572L132.44727206230164,115.30206268631264L132.61928150653839,133.07072014843166L132.9633003950119,91.18070118141148L133.3073192834854,80.51061053373012L133.47932872772216,71.05917028254296L133.6513381719589,82.36620430525264L133.8233476161957,101.63031831117044L134.1673665046692,119.3874208870954L134.33937594890594,135.61526982687556L134.51138539314272,98.75901975013957L134.68339483737947,97.98665933493295L135.02741372585297,93.3904800292151L135.19942317008972,114.86563482199018L135.3714326143265,132.91938893304197L135.54344205856322,151.77197612805253L135.88746094703674,170.15273912961845L136.23147983551024,88.67096809077375L136.403489279747,39.49065620064564L136.74750816822052,27.501754299413175L137.09152705669402,20.76484433918079L137.2635365009308,12.900446206333L137.6075553894043,16.437638201081292L137.77956483364105,10.802229314367008L137.9515742778778,8.938989423970499L138.12358372211457,14.177169948080541L138.46760261058807,17.594548379071764L138.63961205482482,34.308879696108235L138.81162149906157,45.348403748599175L138.98363094329835,52.3056362874167L139.32764983177185,69.89049466831727L139.4996592760086,82.03588112067209L139.67166872024538,91.03496047950495L139.84367816448213,107.12422710993705L140.18769705295563,105.75112245156939L140.53171594142913,138.77915773564806L140.70372538566588,119.49901898639604L141.0477442741394,102.45548116738544L141.21975371837615,104.0062454574023L141.3917631626129,81.34866830375574L141.56377260684965,99.12174099567513L141.90779149532318,102.73360600970707L142.25181038379668,113.70113536797984L142.42381982803346,92.3516465584555L142.76783871650696,58.35160892294178L143.28386704921724,47.149135017792446L143.62788593769073,39.11861610206952L143.79989538192748,38.79244917415152L143.97190482616426,39.22512715971349L144.143914270401,42.46185508038503L144.4879331588745,43.66673676469955L144.65994260311126,43.82291653341589L144.83195204734804,42.03878288165789L145.00396149158476,50.190424891226726L145.51998982429504,54.35789848746749L145.6919992685318,54.71864056202339L145.86400871276854,61.778436269268965L146.20802760124207,72.48300242493373L146.38003704547882,89.07538321546464L146.55204648971556,85.21744867436786L146.72405593395234,68.22836625652937L147.06807482242584,70.12230434585922L147.58410315513612,62.34039203967737L147.92812204360962,70.98605723844004L148.10013148784637,81.2044671372569L148.27214093208312,86.81684031945008L148.4441503763199,92.81565751072915L148.7881692647934,105.09058474542728L148.96017870903015,127.0780579134364L149.13218815326692,147.4300203392315L149.30419759750367,161.17251928214912L149.64821648597717,119.60545687969743L149.82022593021392,120.73280925854054L149.9922353744507,72.50714783457495L150.16424481868742,60.285051194796196L150.50826370716095,58.79213598027132L150.6802731513977,70.63767119704437L150.85228259563445,81.20283957808974L151.0242920398712,92.6378793669124L151.36831092834473,116.63869395569232L151.54032037258148,68.7432534655299L151.884339261055,55.474550282763005L152.2283581495285,43.63734156788284L152.40036759376525,43.6613888349092L152.572377038002,36.224837833870566L152.74438648223878,39.36502917985977L153.08840537071228,43.26541147936279L153.26041481494903,55.217775270150554L153.4324242591858,56.73187428182056L153.60443370342256,40.40615923422914L153.94845259189606,43.26654512268456L154.1204620361328,64.89431826646728L154.46448092460633,67.5086322055576L154.80849981307983,66.44271348180474L154.98050925731658,62.653148131886184L155.15251870155333,64.4768377143239L155.3245281457901,51.592115186909325L155.6685470342636,53.08308915106373L155.84055647850036,42.15816850728624L156.1845753669739,52.19088958958693L156.5285942554474,64.92306726218403L156.70060369968414,71.14648179981977L156.87261314392092,52.189544134257154L157.04462258815767,54.90337924831857L157.38864147663116,45.60103528222504L157.56065092086791,44.812127852870304L157.7326603651047,51.345811552665275L158.24868869781494,54.013539498954685L158.42069814205172,66.31308120752651L158.59270758628847,71.09813147150818L159.1087359189987,90.07438300020134L159.2807453632355,107.35428887460452L160.14079258441927,103.18267021308525L160.312802028656,96.23661070823891L160.48481147289274,75.05417534094092L161.00083980560302,55.253329863056756L161.17284924983977,54.68965940760161L161.34485869407652,46.49149989879413L161.68887758255005,42.32759168840141L161.8608870267868,44.96117416586519L162.03289647102355,34.53327243742823L162.2049059152603,30.566537968242322L162.54892480373383,35.121519894928L162.72093424797058,35.20109330990089L162.89294369220733,36.62654984182856L163.06495313644407,37.568534317490894L163.4089720249176,34.126941227752965L163.58098146915435,38.74787208994514L163.7529909133911,36.60055831336153L163.92500035762788,40.86675510175555L164.26901924610138,35.917708085789094L164.44102869033813,35.11257878150727L164.61303813457488,37.43992577089758L164.78504757881166,43.619142030204024L165.12906646728516,51.14294916789348L165.3010759115219,61.54870156626066L165.47308535575868,59.710760229907L165.64509479999543,56.72538690447259L166.16112313270568,60.97496887250108L166.33313257694246,55.28659611896594L166.5051420211792,60.381775737979716L166.8491609096527,61.812326542196715L167.02117035388946,57.4012250440687L167.19317979812624,47.35370909287519L167.365189242363,48.889746623838086L167.7092081308365,51.21987281871448L167.88121757507326,49.28293996551089L168.05322701931001,41.19279927141281L168.22523646354676,34.410879479817034L168.56925535202024,31.21301580661168L168.74126479625704,36.403186751412626L168.9132742404938,30.58871477345507L169.08528368473054,25.21232303222263L169.42930257320407,21.65062492052129L169.60131201744082,23.79600387992065L169.77332146167754,24.36598905707424L169.9453309059143,28.656959788391628L170.46135923862457,33.31014390483601L170.63336868286132,26.1420819029955L170.80537812709807,35.11684021298898L171.1493970155716,34.834826840317184L171.32140645980834,83.08120522110505L171.4934159040451,55.54857781452782L171.66542534828184,75.66868562734678L172.00944423675537,42.415898916595275L172.18145368099212,28.479572219483654L172.35346312522887,33.5476426665759L172.52547256946562,30.373966156970226L172.86949145793915,37.31362464927975L173.0415009021759,41.078074764681354L173.21351034641265,45.18678982179351L173.38551979064943,55.58221145192243L173.90154812335967,58.8107339406499L174.07355756759642,34.018013034764195L174.5895859003067,21.421307045235245L174.76159534454345,23.758341160567912L174.9336047887802,30.505493843023007L175.10561423301698,41.52960868544525L175.44963312149048,29.254637174376185L175.793652009964,29.11395755259291L175.96566145420076,35.265626492787604L176.30968034267426,36.32340524686842L176.481689786911,43.5086948390091L176.65369923114778,37.266305237907915L176.82570867538453,34.296267576406436L177.16972756385803,40.02437771681005L177.3417370080948,52.39413255381445L177.51374645233156,49.981860473025705L177.6857558965683,44.209578574953376L178.0297747850418,52.94194582494625L178.37379367351534,67.89608251125885L178.5458031177521,89.14719943155488L178.88982200622556,85.3256407617787L179.06183145046236,87.59665754898221L179.23384089469909,87.23004491630695L179.7498692274094,100.03695870585402L179.9218786716461,97.54702150422779L180.09388811588286,99.78144457982843L180.2658975601196,107.47873537844573L180.60991644859314,119.43367393700596L180.7819258928299,120.92430160416865L181.1259447813034,119.68623899156177L181.46996366977692,123.18162584996986L181.64197311401367,122.64164721458569L181.81398255825042,109.69529364880746L181.98599200248717,122.65540301896863L182.3300108909607,123.81632747598087L182.50202033519744,129.04200045946183L182.6740297794342,138.50932722109897L182.84603922367094,151.08251171240394L183.19005811214447,153.67185058368938L183.36206755638122,73.17789293067202L183.53407700061797,41.09530030764376L183.70608644485475,30.84248235244672L184.05010533332825,24.265180787810763L184.222114777565,25.56422162745607L184.39412422180175,22.78848356964919L184.56613366603852,27.564413068148873L184.91015255451202,28.609982838788397L185.08216199874877,31.344098259953263L185.4261808872223,36.89135283035754L185.7701997756958,49.99414858515567L186.11421866416933,55.12833293521538L186.28622810840608,66.77198301184538L186.63024699687958,80.64519435244817L186.80225644111636,99.33402637846791L186.9742658853531,116.42432687255487L187.14627532958986,114.4396895447703L187.49029421806335,133.45343933457806L187.66230366230013,154.8602790980959L187.83431310653688,157.09699871198637L188.00632255077363,170.0246761455966L188.3503414392471,104.28817092098005L188.5223508834839,72.99682117778221L188.69436032772066,46.316108302785125L188.86636977195738,43.91405867096185L189.21038866043094,36.18638871237342L189.38239810466766,27.92812519141867L189.5544075489044,33.61131599284997L189.72641699314116,43.98592901152201L190.07043588161469,36.7539694995002L190.24244532585143,52.40465057147899L190.41445477008818,57.40220171040272L190.58646421432493,61.951289569397794L190.93048310279846,69.9661176048924L191.1024925470352,84.394767463799L191.27450199127196,79.48633813383609L191.4465114355087,86.29832793912254L191.79053032398224,67.03162793382336L191.962539768219,62.848745579297336L192.13454921245574,74.41589827078195L192.3065586566925,68.19507077626356L192.65057754516602,54.35676238873745L192.82258698940277,75.23012749172644L192.99459643363951,60.86636373357255L193.1666058778763,52.557513726646725L193.5106247663498,37.88606808488059L193.68263421058654,36.388477600398645L193.8546436548233,33.69969597971418L194.02665309906007,35.611290232928766L194.37067198753357,41.074026685963766L194.54268143177032,32.4947553772933L194.7146908760071,29.876537756021648L194.88670032024385,33.19948184509113L195.23071920871735,38.19971552014655L195.57473809719087,37.1507164708439L195.74674754142762,35.02175003125807L196.09076642990112,23.613349719648703L196.26277587413787,30.85631425702314L196.43478531837465,27.572188024206444L196.9508136510849,44.18183258340018L197.12282309532168,51.659898651260896L197.29483253955843,59.01841557953931L197.46684198379518,61.48098318772497L197.81086087226865,56.70170500634235L198.1548797607422,55.21490584191919L198.32688920497893,64.27793600098114L198.67090809345248,85.35273872814233L198.84291753768923,40.54832373200046L199.01492698192595,26.641026910752572L199.1869364261627,27.16530301778873L199.53095531463623,24.30646651554767L199.70296475887298,19.129957144394204L199.87497420310973,15.87005753359118L200.04698364734648,17.249722214915806L200.39100253582,17.90306939385769L200.56301198005676,18.064238196328063L200.7350214242935,33.80152438603369L201.25104975700378,39.93707268817239L201.42305920124053,49.48665668095161L201.59506864547728,62.81485547275804L201.76707808971403,93.11328067162107L202.11109697818756,112.29162127710214L202.2831064224243,106.74827264071574L202.45511586666106,129.5697061994434L202.62712531089784,71.71595876764088L202.97114419937134,54.136574335811154L203.31516308784484,55.07763052687684L203.48717253208162,58.93372006265946L203.83119142055511,17.03225121240086L204.00320086479186,21.594869900504275L204.17521030902864,24.49728346113606L204.3472197532654,14.825882671043654L204.6912386417389,16.069861828656293L205.03525753021242,26.40756117564824L205.20726697444917,29.32785185001311L205.55128586292267,34.342240433874224L205.72329530715942,54.182848402665726L205.8953047513962,61.74949552811309L206.06731419563295,72.19205321510968L206.41133308410645,91.75148078988242L206.58334252834322,115.43214388742169L206.92736141681672,88.26136264828506L207.2713803052902,85.76911409382434L207.443389749527,83.09459646707921L207.61539919376375,74.11076317723075L207.7874086380005,80.93398394066186L208.13142752647403,96.0552466703629L208.30343697071078,109.18573380280411L208.4754464149475,70.09981983318684L208.64745585918425,55.559605706822225L208.99147474765778,74.12004658829207L209.33549363613128,79.56221509185511L209.50750308036802,63.20148566846606L209.85152196884155,76.97965880863158L210.0235314130783,74.75785369533749L210.19554085731505,100.83402015195698L210.3675503015518,111.98145754899207L210.71156919002533,67.7497930257577L210.88357863426208,66.04975816348392L211.05558807849883,64.41201457541457L211.22759752273558,60.344835690446786L211.5716164112091,60.471538406609895L211.74362585544586,58.374063591163726L211.9156352996826,73.10845669761669L212.08764474391938,77.42278387881278L212.43166363239288,68.31139143853393L212.60367307662963,78.75926430345378L212.77568252086638,88.59434737386212L212.94769196510316,71.32762072460609L213.29171085357666,65.56653943902725L213.4637202978134,66.799997960857L213.63572974205016,72.36596281337542L213.80773918628694,84.58004795948605L214.15175807476044,76.07782009725355L214.3237675189972,55.079227332373115L214.49577696323396,62.438717167423626L214.66778640747071,78.2047936682455L215.0118052959442,64.86551382479767L215.18381474018096,78.46407558367578L215.5278336286545,115.12205430891616L215.871852517128,60.43627915391249L216.04386196136477,42.5048566783874L216.21587140560152,32.11953773355801L216.73189973831177,35.67212292425153L216.90390918254855,31.042244153071252L217.0759186267853,39.09034176476463L217.24792807102205,49.466329672647014L217.59194695949552,66.45624802895792L217.93596584796904,75.14345458137447L218.1079752922058,93.40461304007898L218.45199418067935,101.8045969200201L218.62400362491607,117.39556423098625L218.79601306915282,120.04341364192585L218.96802251338957,94.11569656279151L219.3120414018631,83.93819099979353L219.48405084609985,69.13672901850254L219.6560602903366,59.08770948559644L219.82806973457335,66.37233800806544L220.51610751152037,67.47380724522587L220.68811695575712,67.05923037000562L221.03213584423065,64.35454331534694L221.2041452884674,65.1935176379623L221.37615473270415,70.4014278033167L221.5481641769409,29.823958463609404L221.89218306541443,23.168063667143944L222.06419250965118,16.7387515689095L222.23620195388793,16.55081026643944L222.4082113981247,12.390766422958386L222.92423973083496,15.334316172028032L223.0962491750717,21.848672700195447L223.26825861930848,21.479070207291514L223.61227750778198,25.045148289303427L223.78428695201873,24.842831461407552L223.9562963962555,28.220050367229565L224.12830584049226,28.991825619381185L224.47232472896576,33.20528378813426L224.6443341732025,28.03518858555734L224.8163436174393,33.38477166828817L224.98835306167604,47.91663923418519L225.33237195014954,47.31491688141605L225.50438139438631,54.979440380217355L225.67639083862306,58.724623392703215L225.8484002828598,48.015670631368025L226.3644286155701,58.858010862099725L226.53643805980684,35.473945727398664L227.05246639251706,44.43935299695321L227.22447583675387,53.300448160198L227.39648528099062,62.15435709663597L227.56849472522734,72.67614004103339L227.9125136137009,71.81512437346898L228.08452305793762,76.3219398004893L228.25653250217437,92.38354386203356L228.42854194641112,95.13517307631598L228.9445702791214,108.62972607785002L229.11657972335814,130.28721972815922L229.2885891675949,113.82972539669235L229.63260805606842,115.06773021305168L229.80461750030517,75.64156708554513L230.14863638877867,83.09679438448866L230.4926552772522,73.3608374725894L230.8366741657257,75.43745990036393L231.00868360996245,81.09371784049212L231.52471194267272,74.67820621822685L231.69672138690947,76.15987159911938L231.86873083114625,80.0234954624135L232.21274971961975,75.34824821433295L232.3847591638565,75.95742982866572L232.55676860809325,70.48712179062248L232.72877805233003,71.58153401781016L233.07279694080353,84.95591392746152L233.24480638504028,96.8812100238534L233.5888252735138,93.02826509539105L233.9328441619873,93.98054888937943L234.10485360622405,78.40553961449957L234.27686305046083,80.97424175811464L234.44887249469758,84.53556274533152L234.79289138317108,85.00365388786217L234.96490082740783,90.87824357055398L235.1369102716446,97.01366780354024L235.30891971588136,90.92803499842009L235.65293860435486,80.86209034546458L235.82494804859164,62.71815738258659L235.9969574928284,60.01111656122464L236.5129858255386,39.40881470624158L236.6849952697754,50.5973656351146L236.85700471401216,55.59024908459498L237.02901415824888,53.19676488443035L237.37303304672244,53.06110945415122L237.5450424909592,48.37624718585488L237.7170519351959,49.2989608812006L237.88906137943266,55.163583233857665L238.2330802679062,53.42911988964987L238.40508971214294,48.120747155097135L238.5770991563797,47.87307536450418L238.74910860061644,56.46064422150229L239.09312748908997,45.488190068496L239.26513693332672,42.746382489922745L239.43714637756347,46.545226994594856L239.60915582180021,47.871059594853136L239.95317471027374,56.78240194551504L240.1251841545105,52.43944695328372L240.29719359874724,50.048974227287694L240.81322193145752,65.69809397615933L240.98523137569427,61.622058085880205L241.15724081993102,66.45019459248587L241.3292502641678,63.85014927484791L241.6732691526413,60.034857676549386L241.84527859687805,64.7072641820585L242.0172880411148,77.35538440175644L242.53331637382507,73.03439910307343L242.70532581806182,70.36680967495167L242.8773352622986,61.62482891515914L243.04934470653535,65.37710839548511L243.39336359500885,59.44872689270516L243.5653730392456,69.54627920063194L243.73738248348238,61.514252376789386L244.25341081619263,59.34875078377864L244.42542026042938,69.61158044619559L244.59742970466615,71.6687126668601L244.7694391489029,61.54930203603449L245.1134580373764,55.53817675978492L245.28546748161318,57.51681898264941L245.45747692584993,55.67716338243484L245.62948637008668,57.21248391253313L245.97350525856015,50.10335436217293L246.48953359127046,48.47223337494039L246.833552479744,44.74747703362606L247.00556192398074,42.129606419895L247.17757136821746,37.091370738537364L247.3495808124542,36.74778689153334L247.69359970092773,37.01821485189134L247.86560914516448,36.443295501180515L248.03761858940123,41.69587475389173L248.20962803363798,42.013642389773096L248.5536469221115,48.53985666721121L248.72565636634826,45.323993836398444L249.06967525482176,53.92859993064287L249.4136941432953,55.075960915407244L249.58570358753204,59.40015916750585L249.7577130317688,47.140928536527944L249.92972247600554,41.927141787830536L250.27374136447906,45.20617984542834L250.44575080871581,43.03659895261963L250.61776025295256,55.01607418584886L250.78976969718934,48.787448291150646L251.13378858566284,42.368039730124885L251.47780747413634,40.59458002460638L251.64981691837312,45.92199243418937L251.99383580684662,50.64468713419634L252.16584525108337,48.56933887670352L252.33785469532012,46.481884820094876L252.5098641395569,52.49260343107803L252.8538830280304,43.93318063348987L253.02589247226715,49.33587116207672L253.19790191650392,57.88153999951841L253.88593969345092,50.310283793407464L254.0579491376877,50.75495863924135L254.22995858192445,46.063770835181245L254.57397747039795,54.45025257714967L254.91799635887148,49.50779360004288L255.09000580310823,44.848820854324416L255.43402469158173,50.49375122481392L255.6060341358185,47.271494438091764L255.77804358005525,40.51555945578117L256.2940719127655,46.432153732843396L256.4660813570023,32.37152581589923L256.8101002454758,23.734203321865834L257.1541191339493,33.092668935744285L257.32612857818606,37.724418207446426L257.4981380224228,32.643489813477345L257.67014746665956,35.87842553355696L258.01416635513306,44.65839681847553L258.18617579936983,38.72955856266385L258.35818524360656,39.35133462033803L258.53019468784333,35.219684423479805L258.87421357631683,33.8061140720816L259.0462230205536,34.82117832002275L259.21823246479033,40.05532024983618L259.3902419090271,43.75675858249644L259.7342607975006,34.520739623980496L259.9062702417374,32.76069647440176L260.0782796859741,35.59884760404518L260.25028913021083,30.99498851164443L260.5943080186844,31.72645268045267L260.76631746292117,33.76908595908082L260.9383269071579,28.153773611606105L261.11033635139466,29.004034679475165L261.45435523986816,41.85319253555983L261.6263646841049,34.93594913785172L261.97038357257844,34.426501980576724L262.31440246105194,34.650074350694766L262.48641190528866,26.411448104571672L262.8304307937622,25.452352163327014L263.1744496822357,25.424360754763985L263.34645912647244,33.84481365486392L263.5184685707092,34.57400746323627L263.690478014946,41.70698793011966L264.0344969034195,42.92443819667605L264.2065063476563,38.83842264718333L264.378515791893,39.113398978118624L264.5505252361298,32.459754481822955L264.89454412460327,32.0085823120796L265.06655356884005,36.10510033018813L265.23856301307677,43.638490405257926L265.41057245731355,41.98136626198961L265.75459134578705,32.823322806234536L265.9266007900238,37.43227644615837L266.09861023426055,37.327485701246104L266.2706196784973,31.89178733040773L266.7866480112076,27.979630332263007L266.9586574554443,27.661088456764148L267.1306668996811,33.979685391298396L267.4746857881546,35.06512104609621L267.8187046766281,28.242649243097194L267.9907141208649,30.34507909642176L268.3347330093384,32.62959257865979L268.50674245357516,32.907926034873746L269.19478023052216,23.236058429323563L269.36678967475893,27.373776607016914L269.53879911899566,27.979514624365397L269.71080856323243,28.522403747067294L270.2268368959427,27.274419976773476L270.39884634017943,35.647954838921414L270.5708557844162,40.64308492840248L270.9148746728897,32.520100626852326L271.08688411712643,22.666367872808262L271.2588935613632,22.825111538295364L271.4309030056,27.363387191110117L271.7749218940735,25.054937076388665L271.9469313383102,27.016232272080284L272.118940782547,25.408999851771792L272.29095022678376,35.12711330920396L272.63496911525726,26.491575778305243L272.806978559494,27.732889124312937L272.97898800373076,24.50412711655523L273.15099744796754,20.440727745536858L273.49501633644104,23.68831617131285L273.66702578067776,16.170083629786L273.83903522491454,20.507955148608737L274.0110446691513,21.46606372254133L274.3550635576248,26.395036896812964L274.5270730018616,29.76838103702044L274.6990824460983,25.156533211198646L274.8710918903351,18.758847191617125L275.2151107788086,18.113414972223215" fill="none"></path></g></g></g></g><g opacity="0.2"><g><g><g><path style="fill: none;" stroke="rgb(255, 112, 67)" stroke-width="2px" d="M35.26193606853485,190.4151036985332L35.43394551277161,143.70294173671752L35.605954957008365,136.36735589566348L35.777964401245114,229.21530407803667L36.63801162242889,283.6501277701791L36.982030510902405,126.02273180429212L37.32604939937592,126.02273180429212L37.498058843612675,132.53978371515942L37.84207773208618,183.88924157828026L38.35810606479645,183.88924157828026L38.70212495326996,158.5994829058249L38.874134397506715,170.46008356514898L39.04614384174347,125.95853833604131L39.21815328598023,125.95853833604131L39.562172174453735,181.34926548257803L39.90619106292724,98.45941319406255L40.078200507164,97.4075196996441L40.42221939563751,111.80161524039292L40.59422883987427,54.63212639040052L40.76623828411102,51.14674317536259L40.938247728347775,67.94923050727593L41.28226661682129,48.26431960504852L41.454276061058046,76.26700329036514L41.6262855052948,58.820104059049406L41.79829494953156,120.00122176612334L42.14231383800506,96.67664469317641L42.314323282241816,204.77328512261576L42.48633272647857,92.04739366957544L42.65834217071533,88.91939268608479L43.00236105918884,123.05869667026563L43.1743705034256,119.11772197275077L43.518389391899106,119.76714873067772L43.86240828037262,119.45154794170892L44.034417724609376,110.83358621245205L44.37843661308289,76.3584987162266L44.72245550155639,85.78855765160162L44.894464945793146,79.79340097739856L45.0664743900299,116.7524855209113L45.23848383426666,99.70160208262573L45.58250272274017,104.10480068201265L45.75451216697693,98.02447457915392L45.92652161121369,98.71479636272873L46.09853105545044,113.66388232575181L46.44254994392395,119.52400413568266L46.786568832397464,128.24594448880072L46.95857827663422,149.45020978414587L47.47460660934448,165.10136520665694L47.64661605358123,81.95385152235495L47.81862549781799,81.95385152235495L48.162644386291504,81.95385152235495L48.50666327476502,273.63152119859916L48.678672719001774,318.4862761344825L49.02269160747528,38.58450738304084L49.19470105171204,132.40988374781548L49.366710495948794,170.71095440527876L49.53871994018555,97.7360173749003L49.88273882865906,147.1926588124991L50.05474827289581,203.12355280141344L50.39876716136932,281.04463656447865L50.742786049842834,114.5348836266143L50.91479549407959,114.5348836266143L51.08680493831635,54.08834469781165L51.258814382553105,239.40168584064784L51.60283327102661,100.81543594490105L51.77484271526337,203.81666390810759L51.946852159500125,48.42074326444752L52.118861603736875,13.266052739868531L52.46288049221039,208.37035881359287L52.634889936447145,75.85248257716253L52.806899380683895,164.31113987890026L52.97890882492065,145.83579881335342L53.322927713394165,97.36748074767752L53.49493715763092,168.96629510806105L53.66694660186768,209.07133446693646L53.838956046104435,132.20146108844958L54.35498437881469,205.61340527203504L54.52699382305145,115.9405638771645L54.699003267288205,191.86494040166556L55.04302215576172,223.4077082055353L55.215031599998476,122.162345413787L55.55905048847198,47.3688280617255L55.903069376945496,161.97979678011697L56.07507882118225,103.65158853847429L56.24708826541901,110.0122175715658L56.763116598129265,135.24559137263506L56.93512604236602,36.459755843182265L57.10713548660278,172.36662100662954L57.279144930839536,215.03729580051314L57.96718270778656,256.67799191549557L58.13919215202331,129.42846052978007L58.483211040496826,170.43200523649796L58.65522048473358,100.35352205659925L58.9992393732071,189.31910703088582L59.34325826168061,289.0471983550332L59.51526770591735,91.06855399767127L59.68727715015411,118.07332016022494L59.859286594390866,137.32715171219328L60.20330548286438,151.02934726078735L60.37531492710114,151.02934726078735L60.54732437133789,95.25953304395675L60.71933381557465,131.3242932399304L61.06335270404816,132.9211615221128L61.40737159252167,104.02846118711399L61.57938103675843,147.32993043128596L61.923399925231934,114.42476627221325L62.09540936946868,167.4731656865114L62.26741881370544,75.85734582855018L62.4394282579422,91.8725400084608L62.78344714641571,91.8725400084608L62.95545659065247,115.76797774490372L63.29947547912598,187.96058728910586L63.815503811836244,132.2993145035161L63.987513256073,109.12358251622449L64.15952270030975,69.75264014877386L64.50354158878326,124.53157105841339L64.67555103302003,124.56575321019507L64.84756047725678,141.0262847518802L65.01956992149353,141.0262847518802L65.36358880996704,146.3418485018209L65.53559825420379,86.80234918618588L65.70760769844055,121.97525740461326L65.8796171426773,242.5970101490114L66.22363603115082,221.06543533823364L66.39564547538757,83.92896205947523L66.73966436386108,79.2333081295319L67.25569269657136,95.15076854639472L67.42770214080811,96.09028057986339L67.59971158504486,140.67702497369373L68.11573991775512,60.679541192249005L68.28774936199189,129.49550566822634L68.45975880622863,78.41964578803722L68.80377769470215,108.6163898397264L68.9757871389389,104.07360885996077L69.14779658317566,119.67005739476576L69.31980602741241,112.04315098436483L69.66382491588593,43.07937593326708L69.83583436012269,112.03958520776308L70.00784380435944,110.01702242542596L70.17985324859619,155.02061656536023L70.69588158130645,140.3928341588021L70.86789102554322,94.31679006873095L71.03990046977997,70.25918634651129L71.38391935825348,74.20379481567805L71.55592880249023,90.45911823613397L71.72793824672699,173.07375724924833L71.89994769096374,82.81974341616673L72.24396657943726,112.32612662451605L72.41597602367402,156.54819738180143L72.58798546791077,62.18847284035741L72.75999491214752,83.45956833948502L73.10401380062103,75.41186188963577L73.27602324485778,107.16908909973607L73.44803268909455,55.98225055137699L73.6200421333313,64.08758640750183L73.96406102180481,65.98281245973406L74.13607046604156,51.244161445536584L74.30807991027832,69.18140791661335L74.48008935451507,89.6646670342619L75.1681271314621,101.81763071304015L75.34013657569885,215.71616920276546L75.68415546417236,33.07159282285934L75.85616490840911,15.493655470075696L76.02817435264588,32.83879166279504L76.20018379688263,35.85694031628582L76.54420268535614,45.27913994169461L76.88822157382965,155.1202476047169L77.0602310180664,200.9927474564845L77.57625935077667,217.08819809514537L77.92027823925018,157.78777696419326L78.2642971277237,175.9707417351753L78.43630657196046,193.7033675099916L78.78032546043396,242.4350708743831L79.12434434890747,51.60739886310567L79.29635379314423,149.700288331504L79.46836323738098,73.04995103842111L79.64037268161775,95.10095284299314L79.98439157009126,90.62756750713997L80.156401014328,22.68116237611718L80.32841045856475,53.14563396904428L80.50041990280151,76.82278315293983L80.84443879127502,33.51893499130786L81.01644823551177,189.31262815875394L81.36046712398529,36.12694416639011L81.7044860124588,105.13074417353475L81.87649545669555,217.9215094113949L82.04850490093231,103.13933295060701L82.22051434516906,56.10796998241297L82.56453323364258,69.20460839363305L82.73654267787934,171.377272714005L82.90855212211609,64.37701470548745L83.08056156635284,76.16573262638154L83.59658989906312,84.18475833867909L83.76859934329987,70.34602804302676L83.94060878753663,43.54228335326641L84.28462767601012,50.806532678568466L84.4566371202469,72.30118785827932L84.62864656448363,91.55632708034011L84.80065600872041,109.58534182979261L85.14467489719391,67.9171687162911L85.31668434143066,106.60644934895778L85.48869378566741,101.9613144896223L85.66070322990417,147.26920888087417L86.00472211837769,147.94706514694425L86.3487410068512,74.49013944489673L86.52075045108795,102.9324956898446L86.86476933956146,115.30643179651034L87.03677878379821,78.45047373726106L87.20878822803498,90.0610444115635L87.38079767227173,93.8998436976368L87.72481656074524,90.97294006733944L87.896826004982,89.9655636776467L88.06883544921875,104.24452080511219L88.2408448934555,110.67634325280639L88.58486378192902,88.41691087256955L88.75687322616578,83.15268337677169L88.92888267040253,115.66261192608727L89.1008921146393,100.83230334950098L89.44491100311278,129.53859930643438L89.78892989158629,136.94029277845812L89.96093933582306,142.84424923027552L90.30495822429657,132.88641025095427L90.47696766853332,154.42655463064727L90.64897711277008,189.000433448643L90.82098655700683,185.8043070959649L91.16500544548035,71.37915843939324L91.50902433395386,84.6170360227997L92.02505266666412,147.79501141823934L92.19706211090087,192.93254459936776L92.36907155513764,102.5838562021148L92.54108099937439,103.21863322927982L92.8850998878479,30.350606792673787L93.22911877632141,39.6658142982748L93.40112822055818,67.06556414922774L93.74514710903168,70.05187465557326L93.91715655326844,50.54856131887363L94.26117544174195,81.56216099466745L94.60519433021547,112.45304503341912L94.7772037744522,47.616641701945404L94.94921321868895,87.80059781764659L95.12122266292572,71.48438624271228L95.46524155139923,98.34654702225427L95.63725099563598,80.26408095258047L95.80926043987274,6.1289875909780545L95.9812698841095,166.69588213530196L96.32528877258301,19.28278056492726L96.49729821681976,58.66532294626716L96.66930766105652,111.40322110716384L96.84131710529327,31.52497505667959L97.18533599376678,95.0606567294467L97.35734543800355,95.29995322423896L97.70136432647705,122.39181768608556L98.04538321495056,125.90910888121874L98.21739265918733,117.97570078531099L98.38940210342408,70.21597510423695L98.56141154766084,73.20166555265L98.90543043613432,81.01161086888071L99.0774398803711,67.29058921126662L99.24944932460784,75.9213205458412L99.42145876884462,118.78325827802266L99.76547765731812,134.71968253003865L99.93748710155486,125.0876176490282L100.10949654579161,99.11369097757405L100.28150599002838,89.5408127935989L100.62552487850189,90.57102754068744L100.79753432273864,45.91326113205408L100.9695437669754,124.17808432954523L101.48557209968567,86.56576626757963L101.65758154392242,93.07814615365051L101.82959098815918,114.9813349357359L102.00160043239593,43.56649821338873L102.34561932086945,40.897743066787896L102.51762876510621,59.26682436082865L102.86164765357971,67.28220855107892L103.20566654205322,76.12983031183259L103.37767598628999,74.69998592519225L103.54968543052674,83.25275372312392L103.7216948747635,72.13853727205839L104.23772320747375,36.24150440705343L104.4097326517105,46.1752268826288L104.58174209594726,58.01049139502006L104.92576098442078,46.715930693696116L105.09777042865753,35.49311478160423L105.26977987289429,59.5068849254002L105.44178931713104,48.11429005052194L105.78580820560455,45.72754693165542L105.9578176498413,60.40565066433503L106.12982709407807,113.62812135825482L106.30183653831482,66.0531739815835L106.64585542678833,70.00931898537034L106.81786487102508,91.57938246761245L106.98987431526184,138.29568419455495L107.1618837594986,79.89346992879041L107.67791209220887,155.93821511822827L107.84992153644562,26.458712436388048L108.02193098068238,30.699274631867144L108.36594986915588,24.96100603946952L108.53795931339265,81.33277058301772L108.70996875762938,98.1734764932749L108.88197820186616,107.44296869296817L109.22599709033967,269.953084758644L109.39800653457641,63.91058589228193L109.57001597881316,55.81465178880223L109.74202542304992,163.85170748910676L110.08604431152344,98.02844310173522L110.25805375576019,304.44192384950287L110.43006319999695,63.856333420792076L110.6020726442337,90.84155745064346L110.94609153270721,130.12212750880408L111.29011042118073,100.994902420729L111.46211986541748,134.23247295801036L111.97814819812776,177.45517224401863L112.1501576423645,180.84473536707404L112.66618597507477,186.42527257145505L112.83819541931153,69.82145200473374L113.01020486354828,92.81577141530177L113.18221430778505,169.81124976583985L113.52623319625853,46.165633049245585L113.69824264049531,55.117731257758216L113.87025208473204,55.64699423580635L114.55828986167907,69.45590277052439L114.73029930591584,62.3653618754405L114.90230875015259,66.37621077805464L115.2463276386261,70.59063585902202L115.41833708286285,67.86060327895062L115.59034652709961,46.30960291868296L115.76235597133636,81.42296766355489L116.10637485980988,42.35689731650136L116.45039374828339,56.687674446136704L116.62240319252014,121.54084708700195L116.96642208099365,149.9085878315803L117.13843152523042,64.3995487622715L117.31044096946717,79.912578692177L117.48245041370392,41.22250024219554L118.17048819065094,75.8373802579823L118.3424976348877,36.46241081024328L118.68651652336122,39.96354730346042L118.85852596759796,43.70918363850741L119.0305354118347,76.74962273116029L119.20254485607147,58.181228748934565L119.54656374454498,45.02967008788799L119.71857318878173,66.54479622291286L119.8905826330185,56.018284756553435L120.06259207725525,128.12528527502215L120.40661096572876,120.87409640264734L120.57862040996551,108.3810239055752L120.75062985420227,78.68585678657861L120.92263929843902,155.34970387943542L121.26665818691254,31.601366820152446L121.4386676311493,47.1144580178636L121.61067707538605,57.0876815586419L121.7826865196228,88.818983221001L122.12670540809631,140.13760953526403L122.29871485233308,170.05562243562994L122.47072429656983,112.01807449258027L122.64273374080659,29.052235372040464L122.98675262928008,62.98147316778423L123.15876207351685,62.9129665241081L123.33077151775359,105.44129464184945L123.50278096199037,105.44113082805254L123.84679985046387,121.04524567357156L124.36282818317413,75.586316555975L124.70684707164764,83.56198513025217L124.8788565158844,35.44044906317316L125.05086596012116,35.0988050495178L125.22287540435791,51.13402070118158L125.56689429283142,58.643484055803754L125.73890373706817,72.33637684978135L125.91091318130493,100.9894760867437L126.08292262554168,136.09629960194133L126.4269415140152,54.3288983792811L126.77096040248871,35.2086510323819L126.94296984672546,59.68759231938121L127.28698873519897,41.226287530246395L127.45899817943574,56.371132438241126L127.80301706790925,85.55334751217347L128.14703595638275,97.84988613650306L128.3190454006195,85.19377071803203L128.49105484485625,67.32722602150062L128.66306428909303,63.66691682046867L129.00708317756653,24.170891696727793L129.17909262180328,13.432946085949196L129.35110206604006,24.941742043775207L129.8671303987503,35.70189870729021L130.03913984298705,34.79047008009592L130.21114928722383,45.2366443395608L130.38315873146058,62.339880085318924L130.72717761993408,65.83985885038459L131.07119650840758,91.48865985037693L131.24320595264433,104.58726678168777L131.58722484111786,131.6050824432741L131.7592342853546,85.0684760048637L131.93124372959136,104.1474829111391L132.10325317382814,99.70337635308002L132.44727206230164,147.70395935708933L132.61928150653839,167.0744827552412L132.9633003950119,49.07723361774546L133.3073192834854,66.29992891494652L133.47932872772216,58.30903579521635L133.6513381719589,102.00275284329605L133.8233476161957,139.40165842603193L134.1673665046692,153.36279794291684L134.33937594890594,165.92660111202372L134.51138539314272,60.18760018235554L134.68339483737947,96.83867689678918L135.02741372585297,86.8530405248727L135.19942317008972,158.57463411090745L135.3714326143265,167.62695702423323L135.54344205856322,188.48756569529306L135.88746094703674,205.6758215650494L136.23147983551024,26.419115844494232L136.403489279747,-7.25246783348199L136.74750816822052,11.751651618592351L137.09152705669402,11.407144561115992L137.2635365009308,2.109651936134603L137.6075553894043,21.977621597463067L137.77956483364105,2.879017246720763L137.9515742778778,6.204745149601742L138.12358372211457,22.560084209949554L138.46760261058807,22.93886318217236L138.63961205482482,65.76623734713532L138.81162149906157,64.44808918728866L138.98363094329835,63.69138503166561L139.32764983177185,103.44401630229346L139.4996592760086,103.38199490087409L139.67166872024538,106.17062041814722L139.84367816448213,137.11233559402305L140.18769705295563,103.72458574806582L140.53171594142913,223.72899168651466L140.70372538566588,95.93649723905392L141.0477442741394,81.17156350099634L141.21975371837615,106.37623909565541L141.3917631626129,54.52342986326488L141.56377260684965,133.1363528404694L141.90779149532318,108.39583676143474L142.25181038379668,132.65703605452995L142.42381982803346,66.76565112578228L142.76783871650696,21.918031241551432L143.28386704921724,32.3119586320122L143.62788593769073,28.119606264066814L143.79989538192748,38.30509230890194L143.97190482616426,39.877508581014L144.143914270401,47.512256746498196L144.4879331588745,45.50040978783965L144.65994260311126,44.05762300401107L144.83195204734804,39.418214596014955L145.00396149158476,63.744548244081365L145.51998982429504,60.936981220615735L145.6919992685318,55.26209023787654L145.86400871276854,73.3476737682153L146.20802760124207,90.9162251195957L146.38003704547882,120.24377844831191L146.55204648971556,79.68417956710923L146.72405593395234,47.00116354371196L147.06807482242584,73.02890573993132L147.58410315513612,51.65326194693069L147.92812204360962,85.45769942313052L148.10013148784637,98.68159074009237L148.27214093208312,95.84196498182085L148.4441503763199,102.51060313540157L148.7881692647934,126.70459413157464L148.96017870903015,172.23090363995328L149.13218815326692,188.06512904307465L149.30419759750367,185.89422770858422L149.64821648597717,77.72008459485946L149.82022593021392,122.44688319532104L149.9922353744507,26.342137824240904L150.16424481868742,44.267067923772885L150.50826370716095,56.59185714006158L150.6802731513977,91.36755087486333L150.85228259563445,99.36056938785322L151.0242920398712,112.53278359965462L151.36831092834473,167.7396363553255L151.54032037258148,22.780194918940072L151.884339261055,38.269854143650996L152.2283581495285,28.062184009643865L152.40036759376525,43.69747007380802L152.572377038002,25.973747040950546L152.74438648223878,44.258912342523864L153.08840537071228,49.402140148131046L153.26041481494903,76.16658523267176L153.4324242591858,59.044801181727486L153.60443370342256,19.874707684914984L153.94845259189606,47.70889243147338L154.1204620361328,109.03062646481966L154.46448092460633,71.55646904483469L154.80849981307983,64.86387086539021L154.98050925731658,57.213723896739864L155.15251870155333,67.27322741280784L155.3245281457901,34.81987238224242L155.6685470342636,55.36004986561693L155.84055647850036,27.64674598279414L156.1845753669739,69.30627416253492L156.5285942554474,87.49087253424182L156.70060369968414,81.23383784779172L156.87261314392092,28.950277744298752L157.04462258815767,59.11048161577554L157.38864147663116,33.03217403096289L157.56065092086791,43.63977984665346L157.7326603651047,61.979080880827L158.24868869781494,58.14680688915102L158.42069814205172,87.97810923698417L158.59270758628847,78.7116130864283L159.1087359189987,127.10567754895615L159.2807453632355,140.16674613613603L160.14079258441927,97.22068472103852L160.312802028656,86.61041829000844L160.48481147289274,49.628624481630624L161.00083980560302,31.17417658938012L161.17284924983977,53.849791918700426L161.34485869407652,35.28312064694132L161.68887758255005,36.37610786981047L161.8608870267868,49.0398161376974L162.03289647102355,20.60989513835459L162.2049059152603,24.884226663135614L162.54892480373383,42.347746921161225L162.72093424797058,35.32056671487735L162.89294369220733,38.80172175666578L163.06495313644407,38.99756240240947L163.4089720249176,29.167409398969873L163.58098146915435,46.084872564363174L163.7529909133911,33.45981383491331L163.92500035762788,47.61010185523517L164.26901924610138,28.90613444174134L164.44102869033813,33.916353197520216L164.61303813457488,41.03071406324979L164.78504757881166,53.62909346447639L165.12906646728516,63.54861697500592L165.3010759115219,79.39270698718917L165.47308535575868,57.012847365129964L165.64509479999543,52.40081359432275L166.16112313270568,67.6906416467534L166.33313257694246,47.29361094400875L166.5051420211792,68.5208994707767L166.8491609096527,63.99540717163545L167.02117035388946,51.113967778814896L167.19317979812624,33.88451965077577L167.365189242363,51.236813046101474L167.7092081308365,54.815072000726914L167.88121757507326,46.442986279608725L168.05322701931001,30.11924046474175L168.22523646354676,24.9952956973271L168.56925535202024,26.591880406617324L168.74126479625704,44.704153154443574L168.9132742404938,22.429937984706747L169.08528368473054,17.631512507129905L169.42930257320407,16.52502667816791L169.60131201744082,27.098646172168486L169.77332146167754,25.22681572605201L169.9453309059143,35.44159222715487L170.46135923862457,40.70138769896067L170.63336868286132,16.23222953854672L170.80537812709807,50.20659735477859L171.1493970155716,34.41322314100123L171.32140645980834,301.9427927268651L171.4934159040451,24.35712331175492L171.66542534828184,115.68433406254407L172.00944423675537,6.558719621672512L172.18145368099212,10.530915820166467L172.35346312522887,41.64065140176531L172.52547256946562,25.786515059364586L172.86949145793915,48.66798302628558L173.0415009021759,46.99081824313583L173.21351034641265,51.66830030089837L173.38551979064943,73.40593507439786L173.90154812335967,63.84781713142798L174.07355756759642,5.233032279679866L174.5895859003067,4.975659154008299L174.76159534454345,27.364505244219384L174.9336047887802,41.516959088248136L175.10561423301698,60.59849461968253L175.44963312149048,13.17609194678653L175.793652009964,28.90329120074458L175.96566145420076,45.22737955656899L176.30968034267426,37.930343828971424L176.481689786911,55.303127227902614L176.65369923114778,28.54833410719619L176.82570867538453,29.99315323783945L177.16972756385803,49.249401863077374L177.3417370080948,74.20489434590293L177.51374645233156,46.46436935767916L177.6857558965683,36.10622074632976L178.0297747850418,67.57589419790193L178.37379367351534,95.28909129840441L178.5458031177521,132.23317772950472L178.88982200622556,79.84228381377883L179.06183145046236,91.09810903042073L179.23384089469909,86.68251699359118L179.7498692274094,122.76188472680663L179.9218786716461,93.9195332707525L180.09388811588286,103.22492672086567L180.2658975601196,120.19980486003196L180.60991644859314,140.38776892491848L180.7819258928299,123.20072387995273L181.1259447813034,117.8561164302005L181.46996366977692,128.65327005502297L181.64197311401367,121.83685499997715L181.81398255825042,92.85341262663817L181.98599200248717,145.70348713623576L182.3300108909607,125.58216314554657L182.50202033519744,137.40355574011434L182.6740297794342,154.5347772897943L182.84603922367094,173.31721063267833L183.19005811214447,157.67978097768653L183.36206755638122,11.304989265730388L183.53407700061797,6.155556535755463L183.70608644485475,17.127709690485144L184.05010533332825,15.1132007852128L184.222114777565,27.543450183564044L184.39412422180175,18.757903184100726L184.56613366603852,35.162499027303724L184.91015255451202,30.198139595986685L185.08216199874877,35.583703799624224L185.4261808872223,45.80426934102664L185.7701997756958,73.3445468185286L186.11421866416933,63.333863532439075L186.28622810840608,87.08997584867507L186.63024699687958,105.6503655836538L186.80225644111636,135.6335881109143L186.9742658853531,148.77972620983297L187.14627532958986,111.53140211113683L187.49029421806335,170.58072564563278L187.66230366230013,198.37876935778937L187.83431310653688,160.5441173408686L188.00632255077363,193.00422425433152L188.3503414392471,48.71949286483926L188.5223508834839,38.68787713255709L188.69436032772066,15.860306202088431L188.86636977195738,40.41106027344128L189.21038866043094,25.567528122740892L189.38239810466766,16.644863880857212L189.5544075489044,42.758684569025604L189.72641699314116,61.76881825195575L190.07043588161469,26.762726063912424L190.24244532585143,81.37911492389239L190.41445477008818,65.37540171878932L190.58646421432493,69.16762549651651L190.93048310279846,83.26831513107004L191.1024925470352,110.61707644445943L191.27450199127196,72.52915079023884L191.4465114355087,97.42508631751673L191.79053032398224,43.4825075529974L191.962539768219,56.8714221566517L192.13454921245574,94.57844858610646L192.3065586566925,59.50515097885414L192.65057754516602,36.51670638046703L192.82258698940277,117.27690222104448L192.99459643363951,42.44661201465688L193.1666058778763,41.21130260673476L193.5106247663498,19.129692333335893L193.68263421058654,34.181428809730676L193.8546436548233,29.79147856877287L194.02665309906007,38.54562191748016L194.37067198753357,49.841589447757364L194.54268143177032,20.813183796317148L194.7146908760071,26.06779597545284L194.88670032024385,38.38998887623733L195.23071920871735,46.177469046257166L195.57473809719087,35.59662646209959L195.74674754142762,31.90717926931298L196.09076642990112,8.535691353779924L196.26277587413787,42.754495474921605L196.43478531837465,22.83107002622582L196.9508136510849,75.39106569097554L197.12282309532168,63.98265136050008L197.29483253955843,71.12494005658817L197.46684198379518,65.28673182529806L197.81086087226865,49.91777641514765L198.1548797607422,53.02348436616499L198.32688920497893,79.53444149221836L198.67090809345248,127.95192561689707L198.84291753768923,-3.473527503386924L199.01492698192595,8.724512171803408L199.1869364261627,27.956662710372978L199.53095531463623,20.159179815271216L199.70296475887298,11.814723341995155L199.87497420310973,11.162612530219539L200.04698364734648,19.353847548198914L200.39100253582,18.890783234834203L200.56301198005676,18.30645660041425L200.7350214242935,62.97503838733622L201.25104975700378,49.87063629262323L201.42305920124053,65.6696117779431L201.59506864547728,86.64544806142727L201.76707808971403,166.30381187247835L202.11109697818756,149.84169328661147L202.2831064224243,98.94653267704392L202.45511586666106,177.13180861116103L202.62712531089784,20.084068422304107L202.97114419937134,32.297763610171216L203.31516308784484,56.50523437287288L203.48717253208162,64.9973799455088L203.83119142055511,-25.07892793450448L204.00320086479186,28.833914731978915L204.17521030902864,29.00725226733379L204.3472197532654,1.8093562181581893L204.6912386417389,17.96393314139804L205.03525753021242,44.118070793580124L205.20726697444917,33.8666059321537L205.55128586292267,42.34402665896198L205.72329530715942,93.45836945547295L205.8953047513962,74.232911928474L206.06731419563295,90.10836445910724L206.41133308410645,130.2896221244069L206.58334252834322,165.55661060284208L206.92736141681672,57.38101332159056L207.2713803052902,82.13835530462087L207.443389749527,79.20647432525244L207.61539919376375,61.931071976446724L207.7874086380005,92.08073329511697L208.13142752647403,123.82458229561534L208.30343697071078,132.59495145374424L208.4754464149475,29.92825869157521L208.64745585918425,36.9465530011724L208.99147474765778,110.09502598813089L209.33549363613128,88.29445335964495L209.50750308036802,42.63308445265821L209.85152196884155,101.77861929381318L210.0235314130783,71.51095627009609L210.19554085731505,158.57320969753488L210.3675503015518,131.29721807883695L210.71156919002533,24.098019658873103L210.88357863426208,63.55026961524205L211.05558807849883,62.00236163640248L211.22759752273558,54.525252783060374L211.5716164112091,60.66187986267674L211.74362585544586,55.30444366712427L211.9156352996826,100.0096079363144L212.08764474391938,84.24636357587131L212.43166363239288,55.97552771791673L212.60367307662963,96.68602369583373L212.77568252086638,105.32677915369842L212.94769196510316,49.81187972183634L213.29171085357666,57.477902887601005L213.4637202978134,68.67781122372193L213.63572974205016,81.31110024895132L213.80773918628694,106.06810702939093L214.15175807476044,64.49159609381253L214.3237675189972,29.83082634413308L214.49577696323396,74.54699854778501L214.66778640747071,107.4445983280552L215.0118052959442,47.58169676745158L215.18381474018096,102.87493202320402L215.5278336286545,218.68776948017137L215.871852517128,10.517351084453463L216.04386196136477,20.3046161404022L216.21587140560152,18.24682577409927L216.73189973831177,41.23728778372944L216.90390918254855,24.459362333758573L217.0759186267853,52.45371519904623L217.24792807102205,67.2519162265999L217.59194695949552,98.57080524401226L217.93596584796904,89.69281408520415L218.1079752922058,128.6283875032754L218.45199418067935,115.81840721164788L218.62400362491607,146.23310002789236L218.79601306915282,124.14487402238194L218.96802251338957,64.31949196112427L219.3120414018631,70.31338483353618L219.48405084609985,50.23872652354673L219.6560602903366,45.616717611076446L219.82806973457335,78.34556608579098L220.51610751152037,69.14800304821L220.68811695575712,66.44042079771138L221.03213584423065,60.423925915743006L221.2041452884674,66.46469497656722L221.37615473270415,78.73266157199343L221.5481641769409,-11.38606889481584L221.89218306541443,13.914695066278082L222.06419250965118,7.778157384495805L222.23620195388793,16.269528103084735L222.4082113981247,6.444546577537755L222.92423973083496,19.91054060097435L223.0962491750717,32.44780582679714L223.26825861930848,20.927096560822424L223.61227750778198,30.632393948618404L223.78428695201873,24.540085906280495L223.9562963962555,33.498911781938055L224.12830584049226,30.160239633992052L224.47232472896576,39.86082832426194L224.6443341732025,20.728496601433594L224.8163436174393,41.95823148717765L224.98835306167604,74.36741092121517L225.33237195014954,46.41875540110022L225.50438139438631,67.64082464980706L225.67639083862306,64.60568119095237L225.8484002828598,33.759022370053806L226.3644286155701,77.56459156472222L226.53643805980684,7.973288240094662L227.05246639251706,59.51146944895833L227.22447583675387,68.1760875581752L227.39648528099062,77.01648160044948L227.56849472522734,90.74834880160506L227.9125136137009,70.53670741138902L228.08452305793762,83.46738005153713L228.25653250217437,122.30730353651738L228.42854194641112,99.40286107083462L228.9445702791214,132.81679761756865L229.11657972335814,174.5070163659108L229.2885891675949,93.15934261198038L229.63260805606842,116.95256857666325L229.80461750030517,35.230902478730634L230.14863638877867,95.37818516235495L230.4926552772522,60.266361729074205L230.8366741657257,78.63156177585581L231.00868360996245,90.19456895480555L231.52471194267272,65.7354909450544L231.69672138690947,78.42236047206534L231.86873083114625,86.09957878906742L232.21274971961975,68.70424300987304L232.3847591638565,76.87788660056681L232.55676860809325,62.781933931075535L232.72877805233003,73.2448614274065L233.07279694080353,108.88528959378617L233.24480638504028,117.77448418690668L233.5888252735138,87.5018399199764L233.9328441619873,95.42538104947748L234.10485360622405,58.672430165748125L234.27686305046083,84.9492163430966L234.44887249469758,90.11502267614183L234.79289138317108,85.70973010289637L234.96490082740783,100.35713020328207L235.1369102716446,106.94701449981916L235.30891971588136,82.41430028443557L235.65293860435486,67.37081324496906L235.82494804859164,40.30092222918436L235.9969574928284,56.07718499245722L236.5129858255386,14.544360460916703L236.6849952697754,69.9956236776497L236.85700471401216,63.55552659081145L237.02901415824888,49.70591262366833L237.37303304672244,52.857954641169535L237.5450424909592,41.71929596114089L237.7170519351959,50.69842894074735L237.88906137943266,64.62516482428165L238.2330802679062,50.880034915536285L238.40508971214294,40.63017889580401L238.5770991563797,47.50266056755233L238.74910860061644,70.82374531522613L239.09312748908997,30.920846176304256L239.26513693332672,38.763519203148206L239.43714637756347,52.51457198483125L239.60915582180021,49.891764920060524L239.95317471027374,71.7526141072614L240.1251841545105,46.24456990027733L240.29719359874724,46.56239293138775L240.81322193145752,94.66897481721158L240.98523137569427,55.79038573163L241.15724081993102,74.13645353210721L241.3292502641678,60.06705151716616L241.6732691526413,54.56010406657892L241.84527859687805,72.1308573491802L242.0172880411148,99.74688638719878L242.53331637382507,66.86933457892604L242.70532581806182,66.48845042946478L242.8773352622986,49.742404771448356L243.04934470653535,71.2698348872648L243.39336359500885,51.140580900354536L243.5653730392456,86.78774663596504L243.73738248348238,50.5133559281223L244.25341081619263,56.182071115109146L244.42542026042938,87.17551824488281L244.59742970466615,74.83208026177276L244.7694391489029,47.9939917101557L245.1134580373764,47.12176378293756L245.28546748161318,60.556563771227594L245.45747692584993,52.97678797853341L245.62948637008668,59.55843428881428L245.97350525856015,40.26866872279384L246.48953359127046,46.07213912341756L246.833552479744,39.397145021793776L247.00556192398074,38.321354222092666L247.17757136821746,29.9605477734386L247.3495808124542,36.23451180828578L247.69359970092773,37.42516834696793L247.86560914516448,35.586781120963174L248.03761858940123,50.10338609679182L248.20962803363798,42.49210587188423L248.5536469221115,59.159931226147066L248.72565636634826,40.67780392747987L249.06967525482176,68.32351374241736L249.4136941432953,56.82087923202755L249.58570358753204,66.24020599053586L249.7577130317688,31.08040579396604L249.92972247600554,34.56228938738031L250.27374136447906,50.325299723939104L250.44575080871581,39.86410384245598L250.61776025295256,76.02055357011278L250.78976969718934,40.08738159359675L251.13378858566284,33.42027531432125L251.47780747413634,37.989366247988045L251.64981691837312,54.45748728005103L251.99383580684662,58.152985624677015L252.16584525108337,45.531321786655965L252.33785469532012,43.42657530126138L252.5098641395569,62.20828507041237L252.8538830280304,32.27615823150439L253.02589247226715,58.00036054004566L253.19790191650392,72.16646640192289L253.88593969345092,39.888733122846496L254.0579491376877,51.42552505480304L254.22995858192445,39.398304192310135L254.57397747039795,68.43899019340037L254.91799635887148,42.505037867526696L255.09000580310823,38.22673459002549L255.43402469158173,59.57504749743364L255.6060341358185,42.61640673027394L255.77804358005525,31.133385996829897L256.2940719127655,55.98401720683161L256.4660813570023,14.285455668605707L256.8101002454758,11.98089203658295L257.1541191339493,48.91022531229225L257.32612857818606,45.07960803046783L257.4981380224228,25.455668506169268L257.67014746665956,40.925917993501606L258.01416635513306,59.381623968448324L258.18617579936983,30.420814385550482L258.35818524360656,40.29096342908272L258.53019468784333,29.312155959393024L258.87421357631683,31.72084204575335L259.0462230205536,36.362430807557416L259.21823246479033,48.43133709757396L259.3902419090271,49.56593323783836L259.7342607975006,22.032700928516448L259.9062702417374,30.174787865237032L260.0782796859741,40.00544829952172L260.25028913021083,24.447190120946118L260.5943080186844,32.83330129778525L260.76631746292117,36.90959958473196L260.9383269071579,20.257057533637347L261.11033635139466,30.29248846897848L261.45435523986816,64.66708377413572L261.6263646841049,25.34667642532831L261.97038357257844,33.6669400104409L262.31440246105194,34.98632880646795L262.48641190528866,15.152641778752233L262.8304307937622,24.0299508715302L263.1744496822357,25.382387640450126L263.34645912647244,47.89665130092177L263.5184685707092,35.67739043386572L263.690478014946,53.40746170648695L264.0344969034195,44.77752108378057L264.2065063476563,32.993131361450516L264.378515791893,39.52721959728448L264.5505252361298,23.20928644564572L264.89454412460327,31.335441405273688L265.06655356884005,42.56637507088207L265.23856301307677,56.06154214679201L265.41057245731355,39.54374899372325L265.75459134578705,20.430448924963418L265.9266007900238,44.74914508681711L266.09861023426055,37.170495583542056L266.2706196784973,24.23240441188119L266.7866480112076,22.372037499905463L266.9586574554443,27.18508184634001L267.1306668996811,44.23403990669595L267.4746857881546,36.71462645650746L267.8187046766281,18.774962928998924L267.9907141208649,33.579899581239395L268.3347330093384,36.15243782829312L268.50674245357516,33.3268157168364L269.19478023052216,10.218967932678414L269.36678967475893,33.903430422455926L269.53879911899566,28.894730351502986L269.71080856323243,29.34204161718266L270.2268368959427,25.429846287286185L270.39884634017943,49.612659517195695L270.5708557844162,48.61217555383512L270.9148746728897,21.4055160299183L271.08688411712643,9.429954218114966L271.2588935613632,23.0636783283787L271.4309030056,34.56158253892022L271.7749218940735,21.68479688103162L271.9469313383102,30.028687369673136L272.118940782547,23.043397261437175L272.29095022678376,51.63389421624101L272.63496911525726,14.740469029823387L272.806978559494,29.622840436234185L272.97898800373076,19.83998810466648L273.15099744796754,14.62630445363218L273.49501633644104,28.75635004192487L273.66702578067776,5.815571478474905L273.83903522491454,27.37081883110453L274.0110446691513,22.91983561916293L274.3550635576248,34.251934586160836L274.5270730018616,35.04093070857144L274.6990824460983,18.597961100914436L274.8710918903351,9.839233489224723L275.2151107788086,17.152651526000966" fill="none"></path></g></g></g></g></g></g><g transform="translate(20, 177)" clip-path="url(#clip_1)"><clipPath id="clip_1"><rect width="309" height="22"></rect></clipPath><g><g><line x1="0" y1="0" x2="0" y2="5" style="visibility: inherit;" fill="rgb(0, 0, 0)" stroke="rgb(204, 204, 204)" stroke-width="1px"></line><line x1="34.401888847351074" y1="0" x2="34.401888847351074" y2="5" style="visibility: inherit;" fill="rgb(0, 0, 0)" stroke="rgb(204, 204, 204)" stroke-width="1px"></line><line x1="68.80377769470215" y1="0" x2="68.80377769470215" y2="5" style="visibility: inherit;" fill="rgb(0, 0, 0)" stroke="rgb(204, 204, 204)" stroke-width="1px"></line><line x1="103.20566654205322" y1="0" x2="103.20566654205322" y2="5" style="visibility: inherit;" fill="rgb(0, 0, 0)" stroke="rgb(204, 204, 204)" stroke-width="1px"></line><line x1="137.6075553894043" y1="0" x2="137.6075553894043" y2="5" style="visibility: inherit;" fill="rgb(0, 0, 0)" stroke="rgb(204, 204, 204)" stroke-width="1px"></line><line x1="172.00944423675537" y1="0" x2="172.00944423675537" y2="5" style="visibility: inherit;" fill="rgb(0, 0, 0)" stroke="rgb(204, 204, 204)" stroke-width="1px"></line><line x1="206.41133308410645" y1="0" x2="206.41133308410645" y2="5" style="visibility: inherit;" fill="rgb(0, 0, 0)" stroke="rgb(204, 204, 204)" stroke-width="1px"></line><line x1="240.81322193145752" y1="0" x2="240.81322193145752" y2="5" style="visibility: inherit;" fill="rgb(0, 0, 0)" stroke="rgb(204, 204, 204)" stroke-width="1px"></line><line x1="275.2151107788086" y1="0" x2="275.2151107788086" y2="5" style="visibility: inherit;" fill="rgb(0, 0, 0)" stroke="rgb(204, 204, 204)" stroke-width="1px"></line><line x1="309.61699962615967" y1="0" x2="309.61699962615967" y2="5" style="visibility: inherit;" fill="rgb(0, 0, 0)" stroke="rgb(204, 204, 204)" stroke-width="1px"></line></g><g transform="translate(0, 8)"><text style="text-anchor: middle; visibility: hidden; font-family: Roboto, sans-serif; font-size: 12px; font-weight: 200;" x="0" y="0" dx="0em" dy="0.95em" fill="rgb(50, 49, 63)" stroke="none" stroke-width="1px">-200</text><text style="text-anchor: middle; visibility: inherit; font-family: Roboto, sans-serif; font-size: 12px; font-weight: 200;" x="34.401888847351074" y="0" dx="0em" dy="0.95em" fill="rgb(50, 49, 63)" stroke="none" stroke-width="1px">0</text><text style="text-anchor: middle; visibility: inherit; font-family: Roboto, sans-serif; font-size: 12px; font-weight: 200;" x="68.80377769470215" y="0" dx="0em" dy="0.95em" fill="rgb(50, 49, 63)" stroke="none" stroke-width="1px">200</text><text style="text-anchor: middle; visibility: inherit; font-family: Roboto, sans-serif; font-size: 12px; font-weight: 200;" x="103.20566654205322" y="0" dx="0em" dy="0.95em" fill="rgb(50, 49, 63)" stroke="none" stroke-width="1px">400</text><text style="text-anchor: middle; visibility: inherit; font-family: Roboto, sans-serif; font-size: 12px; font-weight: 200;" x="137.6075553894043" y="0" dx="0em" dy="0.95em" fill="rgb(50, 49, 63)" stroke="none" stroke-width="1px">600</text><text style="text-anchor: middle; visibility: inherit; font-family: Roboto, sans-serif; font-size: 12px; font-weight: 200;" x="172.00944423675537" y="0" dx="0em" dy="0.95em" fill="rgb(50, 49, 63)" stroke="none" stroke-width="1px">800</text><text style="text-anchor: middle; visibility: inherit; font-family: Roboto, sans-serif; font-size: 12px; font-weight: 200;" x="206.41133308410645" y="0" dx="0em" dy="0.95em" fill="rgb(50, 49, 63)" stroke="none" stroke-width="1px">1k</text><text style="text-anchor: middle; visibility: inherit; font-family: Roboto, sans-serif; font-size: 12px; font-weight: 200;" x="240.81322193145752" y="0" dx="0em" dy="0.95em" fill="rgb(50, 49, 63)" stroke="none" stroke-width="1px">1.2k</text><text style="text-anchor: middle; visibility: inherit; font-family: Roboto, sans-serif; font-size: 12px; font-weight: 200;" x="275.2151107788086" y="0" dx="0em" dy="0.95em" fill="rgb(50, 49, 63)" stroke="none" stroke-width="1px">1.4k</text><text style="text-anchor: middle; visibility: hidden; font-family: Roboto, sans-serif; font-size: 12px; font-weight: 200;" x="309.61699962615967" y="0" dx="0em" dy="0.95em" fill="rgb(50, 49, 63)" stroke="none" stroke-width="1px">1.6k</text></g><line x1="0" y1="0" x2="309.61699962615967" y2="0" fill="rgb(0, 0, 0)" stroke="rgb(204, 204, 204)" stroke-width="1px"></line></g></g></g></g></svg>