<svg viewBox="0 0 330 200" xmlns="http://www.w3.org/2000/svg"><g><g><g><g><g><line x1="51.53200149536133" y1="168.61342548333445" x2="46.53200149536133" y2="168.61342548333445" style="visibility: inherit;" fill="rgb(0, 0, 0)" stroke="rgb(204, 204, 204)" stroke-width="1px"></line><line x1="51.53200149536133" y1="154.36992410858176" x2="46.53200149536133" y2="154.36992410858176" style="visibility: inherit;" fill="rgb(0, 0, 0)" stroke="rgb(204, 204, 204)" stroke-width="1px"></line><line x1="51.53200149536133" y1="143.32180611908183" x2="46.53200149536133" y2="143.32180611908183" style="visibility: inherit;" fill="rgb(0, 0, 0)" stroke="rgb(204, 204, 204)" stroke-width="1px"></line><line x1="51.53200149536133" y1="134.2948364413762" x2="46.53200149536133" y2="134.2948364413762" style="visibility: inherit;" fill="rgb(0, 0, 0)" stroke="rgb(204, 204, 204)" stroke-width="1px"></line><line x1="51.53200149536133" y1="126.66264232748459" x2="46.53200149536133" y2="126.66264232748459" style="visibility: inherit;" fill="rgb(0, 0, 0)" stroke="rgb(204, 204, 204)" stroke-width="1px"></line><line x1="51.53200149536133" y1="120.0513350666235" x2="46.53200149536133" y2="120.0513350666235" style="visibility: inherit;" fill="rgb(0, 0, 0)" stroke="rgb(204, 204, 204)" stroke-width="1px"></line><line x1="51.53200149536133" y1="114.21974877417058" x2="46.53200149536133" y2="114.21974877417058" style="visibility: inherit;" fill="rgb(0, 0, 0)" stroke="rgb(204, 204, 204)" stroke-width="1px"></line><line x1="51.53200149536133" y1="109.00321707712355" x2="46.53200149536133" y2="109.00321707712355" style="visibility: inherit;" fill="rgb(0, 0, 0)" stroke="rgb(204, 204, 204)" stroke-width="1px"></line><line x1="51.53200149536133" y1="74.68462803516529" x2="46.53200149536133" y2="74.68462803516529" style="visibility: inherit;" fill="rgb(0, 0, 0)" stroke="rgb(204, 204, 204)" stroke-width="1px"></line><line x1="51.53200149536133" y1="54.6095403679597" x2="46.53200149536133" y2="54.6095403679597" style="visibility: inherit;" fill="rgb(0, 0, 0)" stroke="rgb(204, 204, 204)" stroke-width="1px"></line><line x1="51.53200149536133" y1="40.36603899320702" x2="46.53200149536133" y2="40.36603899320702" style="visibility: inherit;" fill="rgb(0, 0, 0)" stroke="rgb(204, 204, 204)" stroke-width="1px"></line><line x1="51.53200149536133" y1="29.317921003707095" x2="46.53200149536133" y2="29.317921003707095" style="visibility: inherit;" fill="rgb(0, 0, 0)" stroke="rgb(204, 204, 204)" stroke-width="1px"></line><line x1="51.53200149536133" y1="20.290951326001437" x2="46.53200149536133" y2="20.290951326001437" style="visibility: inherit;" fill="rgb(0, 0, 0)" stroke="rgb(204, 204, 204)" stroke-width="1px"></line><line x1="51.53200149536133" y1="12.658757212109856" x2="46.53200149536133" y2="12.658757212109856" style="visibility: inherit;" fill="rgb(0, 0, 0)" stroke="rgb(204, 204, 204)" stroke-width="1px"></line><line x1="51.53200149536133" y1="6.047449951248755" x2="46.53200149536133" y2="6.047449951248755" style="visibility: inherit;" fill="rgb(0, 0, 0)" stroke="rgb(204, 204, 204)" stroke-width="1px"></line><line x1="51.53200149536133" y1="0.21586365879587113" x2="46.53200149536133" y2="0.21586365879587113" style="visibility: inherit;" fill="rgb(0, 0, 0)" stroke="rgb(204, 204, 204)" stroke-width="1px"></line></g><g transform="translate(41.53200149536133, 0)"><text style="text-anchor: end; visibility: inherit; font-family: Roboto, sans-serif; font-size: 12px; font-weight: 200;" x="0" y="168.61342548333445" dx="0em" dy="0.3em" fill="rgb(50, 49, 63)" stroke="none" stroke-width="1px">0.03</text><text style="text-anchor: end; visibility: hidden; font-family: Roboto, sans-serif; font-size: 12px; font-weight: 200;" x="0" y="154.36992410858176" dx="0em" dy="0.3em" fill="rgb(50, 49, 63)" stroke="none" stroke-width="1px">0.04</text><text style="text-anchor: end; visibility: hidden; font-family: Roboto, sans-serif; font-size: 12px; font-weight: 200;" x="0" y="143.32180611908183" dx="0em" dy="0.3em" fill="rgb(50, 49, 63)" stroke="none" stroke-width="1px">0.05</text><text style="text-anchor: end; visibility: hidden; font-family: Roboto, sans-serif; font-size: 12px; font-weight: 200;" x="0" y="134.2948364413762" dx="0em" dy="0.3em" fill="rgb(50, 49, 63)" stroke="none" stroke-width="1px">0.06</text><text style="text-anchor: end; visibility: inherit; font-family: Roboto, sans-serif; font-size: 12px; font-weight: 200;" x="0" y="126.66264232748459" dx="0em" dy="0.3em" fill="rgb(50, 49, 63)" stroke="none" stroke-width="1px">0.07</text><text style="text-anchor: end; visibility: hidden; font-family: Roboto, sans-serif; font-size: 12px; font-weight: 200;" x="0" y="120.0513350666235" dx="0em" dy="0.3em" fill="rgb(50, 49, 63)" stroke="none" stroke-width="1px">0.08</text><text style="text-anchor: end; visibility: hidden; font-family: Roboto, sans-serif; font-size: 12px; font-weight: 200;" x="0" y="114.21974877417058" dx="0em" dy="0.3em" fill="rgb(50, 49, 63)" stroke="none" stroke-width="1px">0.09</text><text style="text-anchor: end; visibility: hidden; font-family: Roboto, sans-serif; font-size: 12px; font-weight: 200;" x="0" y="109.00321707712355" dx="0em" dy="0.3em" fill="rgb(50, 49, 63)" stroke="none" stroke-width="1px">0.1</text><text style="text-anchor: end; visibility: inherit; font-family: Roboto, sans-serif; font-size: 12px; font-weight: 200;" x="0" y="74.68462803516529" dx="0em" dy="0.3em" fill="rgb(50, 49, 63)" stroke="none" stroke-width="1px">0.2</text><text style="text-anchor: end; visibility: hidden; font-family: Roboto, sans-serif; font-size: 12px; font-weight: 200;" x="0" y="54.6095403679597" dx="0em" dy="0.3em" fill="rgb(50, 49, 63)" stroke="none" stroke-width="1px">0.3</text><text style="text-anchor: end; visibility: hidden; font-family: Roboto, sans-serif; font-size: 12px; font-weight: 200;" x="0" y="40.36603899320702" dx="0em" dy="0.3em" fill="rgb(50, 49, 63)" stroke="none" stroke-width="1px">0.4</text><text style="text-anchor: end; visibility: hidden; font-family: Roboto, sans-serif; font-size: 12px; font-weight: 200;" x="0" y="29.317921003707095" dx="0em" dy="0.3em" fill="rgb(50, 49, 63)" stroke="none" stroke-width="1px">0.5</text><text style="text-anchor: end; visibility: inherit; font-family: Roboto, sans-serif; font-size: 12px; font-weight: 200;" x="0" y="20.290951326001437" dx="0em" dy="0.3em" fill="rgb(50, 49, 63)" stroke="none" stroke-width="1px">0.6</text><text style="text-anchor: end; visibility: hidden; font-family: Roboto, sans-serif; font-size: 12px; font-weight: 200;" x="0" y="12.658757212109856" dx="0em" dy="0.3em" fill="rgb(50, 49, 63)" stroke="none" stroke-width="1px">0.7</text><text style="text-anchor: end; visibility: hidden; font-family: Roboto, sans-serif; font-size: 12px; font-weight: 200;" x="0" y="6.047449951248755" dx="0em" dy="0.3em" fill="rgb(50, 49, 63)" stroke="none" stroke-width="1px">0.8</text><text style="text-anchor: end; visibility: hidden; font-family: Roboto, sans-serif; font-size: 12px; font-weight: 200;" x="0" y="0.21586365879587113" dx="0em" dy="0.3em" fill="rgb(50, 49, 63)" stroke="none" stroke-width="1px">0.9</text></g><line x1="51.53200149536133" y1="0" x2="51.53200149536133" y2="177.86299896240234" fill="rgb(0, 0, 0)" stroke="rgb(204, 204, 204)" stroke-width="1px"></line></g></g><g transform="translate(51, 0)" clip-path="url(#clip_0)"><clipPath id="clip_0"><rect width="278" height="177"></rect></clipPath><g><g><g><line x1="0" y1="0" x2="0" y2="177.86299896240234" fill="rgb(0, 0, 0)" stroke="rgb(60, 60, 60)" stroke-width="1px" opacity="0.25"></line><line x1="30.94088872273763" y1="0" x2="30.94088872273763" y2="177.86299896240234" fill="rgb(0, 0, 0)" stroke="rgb(60, 60, 60)" stroke-width="1px" opacity="0.25"></line><line x1="61.88177744547526" y1="0" x2="61.88177744547526" y2="177.86299896240234" fill="rgb(0, 0, 0)" stroke="rgb(60, 60, 60)" stroke-width="1px" opacity="0.25"></line><line x1="92.82266616821289" y1="0" x2="92.82266616821289" y2="177.86299896240234" fill="rgb(0, 0, 0)" stroke="rgb(60, 60, 60)" stroke-width="1px" opacity="0.25"></line><line x1="123.76355489095052" y1="0" x2="123.76355489095052" y2="177.86299896240234" fill="rgb(0, 0, 0)" stroke="rgb(60, 60, 60)" stroke-width="1px" opacity="0.25"></line><line x1="154.70444361368817" y1="0" x2="154.70444361368817" y2="177.86299896240234" fill="rgb(0, 0, 0)" stroke="rgb(60, 60, 60)" stroke-width="1px" opacity="0.25"></line><line x1="185.64533233642578" y1="0" x2="185.64533233642578" y2="177.86299896240234" fill="rgb(0, 0, 0)" stroke="rgb(60, 60, 60)" stroke-width="1px" opacity="0.25"></line><line x1="216.58622105916342" y1="0" x2="216.58622105916342" y2="177.86299896240234" fill="rgb(0, 0, 0)" stroke="rgb(60, 60, 60)" stroke-width="1px" opacity="0.25"></line><line x1="247.52710978190103" y1="0" x2="247.52710978190103" y2="177.86299896240234" fill="rgb(0, 0, 0)" stroke="rgb(60, 60, 60)" stroke-width="1px" opacity="0.25"></line><line x1="278.4679985046387" y1="0" x2="278.4679985046387" y2="177.86299896240234" fill="rgb(0, 0, 0)" stroke="rgb(60, 60, 60)" stroke-width="1px" opacity="0.25"></line></g><g><line x1="0" y1="168.61342548333445" x2="278.4679985046387" y2="168.61342548333445" fill="rgb(0, 0, 0)" stroke="rgb(60, 60, 60)" stroke-width="1px" opacity="0.25"></line><line x1="0" y1="154.36992410858176" x2="278.4679985046387" y2="154.36992410858176" fill="rgb(0, 0, 0)" stroke="rgb(60, 60, 60)" stroke-width="1px" opacity="0.25"></line><line x1="0" y1="143.32180611908183" x2="278.4679985046387" y2="143.32180611908183" fill="rgb(0, 0, 0)" stroke="rgb(60, 60, 60)" stroke-width="1px" opacity="0.25"></line><line x1="0" y1="134.2948364413762" x2="278.4679985046387" y2="134.2948364413762" fill="rgb(0, 0, 0)" stroke="rgb(60, 60, 60)" stroke-width="1px" opacity="0.25"></line><line x1="0" y1="126.66264232748459" x2="278.4679985046387" y2="126.66264232748459" fill="rgb(0, 0, 0)" stroke="rgb(60, 60, 60)" stroke-width="1px" opacity="0.25"></line><line x1="0" y1="120.0513350666235" x2="278.4679985046387" y2="120.0513350666235" fill="rgb(0, 0, 0)" stroke="rgb(60, 60, 60)" stroke-width="1px" opacity="0.25"></line><line x1="0" y1="114.21974877417058" x2="278.4679985046387" y2="114.21974877417058" fill="rgb(0, 0, 0)" stroke="rgb(60, 60, 60)" stroke-width="1px" opacity="0.25"></line><line x1="0" y1="109.00321707712355" x2="278.4679985046387" y2="109.00321707712355" fill="rgb(0, 0, 0)" stroke="rgb(60, 60, 60)" stroke-width="1px" opacity="0.25"></line><line x1="0" y1="74.68462803516529" x2="278.4679985046387" y2="74.68462803516529" fill="rgb(0, 0, 0)" stroke="rgb(60, 60, 60)" stroke-width="1px" opacity="0.25"></line><line x1="0" y1="54.6095403679597" x2="278.4679985046387" y2="54.6095403679597" fill="rgb(0, 0, 0)" stroke="rgb(60, 60, 60)" stroke-width="1px" opacity="0.25"></line><line x1="0" y1="40.36603899320702" x2="278.4679985046387" y2="40.36603899320702" fill="rgb(0, 0, 0)" stroke="rgb(60, 60, 60)" stroke-width="1px" opacity="0.25"></line><line x1="0" y1="29.317921003707095" x2="278.4679985046387" y2="29.317921003707095" fill="rgb(0, 0, 0)" stroke="rgb(60, 60, 60)" stroke-width="1px" opacity="0.25"></line><line x1="0" y1="20.290951326001437" x2="278.4679985046387" y2="20.290951326001437" fill="rgb(0, 0, 0)" stroke="rgb(60, 60, 60)" stroke-width="1px" opacity="0.25"></line><line x1="0" y1="12.658757212109856" x2="278.4679985046387" y2="12.658757212109856" fill="rgb(0, 0, 0)" stroke="rgb(60, 60, 60)" stroke-width="1px" opacity="0.25"></line><line x1="0" y1="6.047449951248755" x2="278.4679985046387" y2="6.047449951248755" fill="rgb(0, 0, 0)" stroke="rgb(60, 60, 60)" stroke-width="1px" opacity="0.25"></line><line x1="0" y1="0.21586365879587113" x2="278.4679985046387" y2="0.21586365879587113" fill="rgb(0, 0, 0)" stroke="rgb(60, 60, 60)" stroke-width="1px" opacity="0.25"></line></g></g></g><g><g><line x1="30.94088872273763" y1="0" x2="30.94088872273763" y2="177.86299896240234" fill="rgb(0, 0, 0)" stroke="rgb(153, 153, 153)" stroke-width="1.5px"></line></g></g><g><g><g><g><g><path style="fill: none;" stroke="rgb(255, 112, 67)" stroke-width="2px" d="M31.095593166351318,14.462455260588063L31.405002053578695,23.007503560926583L31.71441094080607,30.3938239397696L31.86911538441976,38.03048965540539L32.023819828033446,43.156966277494696L32.178524271647134,15.148733027380377L32.48793315887451,31.859197790450967L32.79734204610189,49.30172229826033L32.95204648971558,44.04634741978432L33.261455376942955,46.07824308755808L33.570864264170325,60.983904598144186L33.72556870778402,35.94378535743978L34.03497759501139,28.553161216092033L34.18968203862508,25.3918922233502L34.34438648223877,29.996525799122466L34.49909092585246,37.385497937391065L34.808499813079834,42.20925977264492L34.96320425669352,33.401119968931624L35.11790870030721,8.349032487375453L35.2726131439209,29.32531348553857L35.58202203114827,18.170996580402132L35.89143091837565,35.75943486185963L36.04613536198934,52.35745789153779L36.35554424921672,42.6559888052421L36.51024869283041,47.155120395474704L36.66495313644409,64.60759465597641L36.81965758005778,67.98281911864397L37.129066467285156,83.0110859250407L37.283770910898845,96.9459552213308L37.43847535451253,88.08224369018815L37.59317979812622,70.561873926898L37.90258868535359,71.76533216846492L38.05729312896728,36.61177403775649L38.21199757258097,49.94978180369074L38.36670201619466,52.96648778377371L38.67611090342204,54.280196056181L38.83081534703573,48.050249069932036L39.1402242342631,44.445134821318504L39.44963312149048,43.350846781395035L39.60433756510417,49.929896842654905L39.913746452331544,60.858306364390046L40.223155339558915,68.23066723114144L40.3778597831726,75.80681244293577L40.53256422678629,64.89012819842804L40.68726867039998,64.64267545866828L40.996677557627365,54.85955943538278L41.15138200124105,52.523110397571294L41.30608644485474,57.197645887982006L41.46079088846842,58.77386160544133L41.7701997756958,60.35574702517357L42.07960866292318,52.16139140749366L42.23431310653687,40.35131908679115L42.698426437377925,33.57964827342475L42.853130880991614,30.841891849520792L43.0078353246053,30.27268118564274L43.31724421183268,41.116931139465486L43.626653099060064,58.83263868065175L43.78135754267375,45.222410737390135L44.09076642990112,65.84549675363486L44.24547087351481,35.26142179074767L44.4001753171285,47.313846088043604L44.55487976074219,54.51658185303853L44.864288647969566,58.46518846699961L45.01899309158325,33.83132203933912L45.173697535196936,17.546268209219104L45.328401978810625,39.06300395219229L45.637810866038,35.522600484415236L45.79251530965169,45.68796038381509L45.94721975326539,54.01693953884457L46.101924196879075,22.435239539760854L46.411333084106445,40.110092414157606L46.566037527720134,26.02891285067343L46.72074197133382,24.074882775790684L46.87544641494751,47.3023527357046L47.18485530217489,57.81757152116906L47.33955974578858,72.85963294141334L47.49426418940226,47.55924950370196L47.64896863301595,46.07626570968667L47.958377520243324,34.038845601533204L48.11308196385701,55.2071077201577L48.2677864074707,25.008636651047965L48.4224908510844,22.870593401558022L48.886604181925456,35.78488149746542L49.041308625539145,39.35954771366115L49.19601306915283,60.8255927251916L49.50542195638021,72.3843530390725L49.6601263999939,56.44227379679041L49.96953528722127,58.29594936750404L50.27894417444865,47.41041487123035L50.433648618062335,56.419934094998844L50.588353061676024,55.75386095886162L51.05246639251708,28.389377745648595L51.20717083613078,13.055486481249176L51.36187527974447,12.227462095582336L51.516579723358156,36.07573058025708L51.82598861058553,-3.2631957625434116L51.98069305419922,-2.083355771425557L52.13539749781291,14.228599541889176L52.29010194142659,32.59115221360341L52.59951082865397,40.66515933163249L52.75421527226766,45.486297136737754L53.063624159495035,36.04910051290539L53.37303304672242,-2.7155116214124693L53.527737490336094,13.773823404950223L53.68244193394979,36.156234572852746L53.83714637756348,35.96696789125963L54.146555264790855,24.00964512673473L54.301259708404544,38.23277921547672L54.45596415201823,48.16778506571854L54.61066859563192,21.066804334117162L54.92007748285929,29.810332757540138L55.22948637008667,25.702356876630258L55.38419081370036,34.3172557785779L55.693599700927734,6.84610807550844L55.848304144541416,11.59854290222041L56.003008588155105,27.0879314482821L56.1577130317688,43.28496946672879L56.46712191899618,55.07806171597522L56.621826362609866,57.54370332610389L56.93123524983724,50.61649489165578L57.3953485806783,28.213675063944834L57.55005302429199,41.51552642639876L57.70475746790568,44.42603521442828L58.01416635513306,51.13826247665194L58.168870798746745,70.86082760241959L58.32357524236043,6.076418700360088L58.478279685974115,11.837365740444493L58.7876885732015,20.62541005757147L58.94239301681519,35.858047092651255L59.09709746042888,45.5904019870248L59.251801904042566,5.780902620610157L59.561210791269936,6.34928442020094L59.715915234883624,21.5400795662427L60.025324122111,40.80022276376129L60.48943745295207,28.00574958601032L60.64414189656575,46.28550369651827L60.79884634017944,43.481591657222005L61.26295967102051,9.070771749499027L61.4176641146342,23.143563929856022L61.57236855824789,26.069185680301786L61.88177744547526,40.06753223044713L62.03648188908895,58.465619985523205L62.191186332702635,60.37695607468029L62.345890776316324,76.23881586279583L62.6552996635437,69.08708892680602L62.81000410715739,67.31892401176427L62.96470855077108,61.828818745279534L63.11941299438476,27.235202053031905L63.58352632522583,30.070124084360568L63.73823076883952,45.873336666212104L63.89293521245321,62.94887766249849L64.20234409968059,59.80176499460266L64.35704854329427,71.18113187931685L64.51175298690795,46.9819089478532L64.66645743052165,48.833412534225545L64.97586631774902,40.910721591708125L65.13057076136272,62.75845064592398L65.2852752049764,49.93832933581175L65.43997964859008,63.32504011678648L65.74938853581746,70.8838955997205L65.90409297943116,60.49443073807674L66.05879742304484,78.88016631725719L66.21350186665853,90.0991443206474L66.52291075388591,99.87998299745014L66.67761519749959,113.76892420355685L66.83231964111327,115.4053530215099L66.98702408472697,102.14888190645169L67.60584185918172,91.22222237588656L67.76054630279542,29.257500505519424L68.06995519002278,51.23525474867571L68.22465963363648,74.66270858846019L68.37936407725016,94.58138390887716L68.53406852086385,111.58962634834444L68.84347740809123,123.02743273509024L69.1528862953186,67.88276045532406L69.30759073893229,34.73728378138517L69.61699962615967,27.078914268589514L69.77170406977335,15.579755626071309L70.08111295700073,22.90092488519152L70.3905218442281,25.26297047800822L70.5452262878418,19.875587447594842L70.69993073145548,12.964061084359646L70.85463517506916,3.2591895065160976L71.16404406229654,26.3873351725451L71.31874850591024,23.342539029912604L71.47345294952392,42.353337122182054L71.62815739313761,56.37400859917542L71.937566280365,61.59126352550706L72.09227072397869,84.4092544296997L72.24697516759235,96.74660452648413L72.40167961120606,92.8129360609608L72.71108849843344,102.700568552444L72.86579294204712,29.516149544958925L73.1752018292745,53.05173897781356L73.48461071650188,49.16831817445917L73.63931516011556,24.04747751107457L73.79401960372925,35.71234440396433L73.94872404734294,56.28442509546172L74.25813293457031,71.43773501254648L74.41283737818401,55.700466853432026L74.56754182179769,73.88352196045469L74.72224626541137,85.17202874981187L75.18635959625244,89.3615094197857L75.34106403986613,99.7822300258828L75.49576848347982,113.26801199807319L75.80517737070718,56.34714064467472L75.95988181432088,72.07841497264147L76.11458625793456,79.46069006688643L76.26929070154826,75.37117523356854L76.57869958877563,84.35943969481957L76.73340403238932,80.75986145203848L76.888108476003,77.93908460995098L77.04281291961671,62.59225819705205L77.35222180684408,52.61540945733989L77.66163069407146,65.80431807117468L77.81633513768514,71.71915192801156L78.12574402491252,69.38783594676083L78.2804484685262,72.26045946244827L78.4351529121399,79.89556696687714L78.58985735575358,77.0045443741383L78.89926624298096,82.14676526841903L79.05397068659465,83.42669706886106L79.20867513020833,74.29543776683914L79.36337957382202,75.29314877835026L79.6727884610494,78.75837248312503L79.82749290466309,86.10765722410595L79.98219734827677,74.59354576747329L80.13690179189047,79.2324788511569L80.44631067911783,71.33709810913018L80.7557195663452,62.81165572546559L80.9104240099589,57.755077727524075L81.21983289718628,54.54349224219802L81.37453734079996,48.96317876248212L81.52924178441366,33.01436521880406L81.68394622802734,24.703274405128745L81.99335511525473,45.4241311740706L82.3027640024821,61.78154718197955L82.76687733332317,54.718127674587556L82.92158177693685,30.540732945053275L83.07628622055054,44.47407277745615L83.23099066416422,55.588597271419374L83.5403995513916,42.41460849346798L83.84980843861898,64.85736981756381L84.00451288223267,81.19815451794669L84.31392176946004,93.18097438730688L84.46862621307373,106.67123096813273L84.77803510030111,102.2436809072971L85.08744398752849,88.52860923684253L85.24214843114217,105.76107842205982L85.39685287475585,97.19223576103782L85.55155731836955,99.48076846229729L85.86096620559692,92.48399106619885L86.0156706492106,82.82436108492294L86.1703750928243,104.68236134120875L86.32507953643798,52.10827981979525L86.63448842366536,75.42545111419251L86.78919286727904,90.3242081737181L86.94389731089275,75.50631760329142L87.09860175450642,20.040972728927557L87.40801064173381,37.77807503205789L87.5627150853475,51.30591656241914L87.87212397257487,51.733644150674756L88.18153285980225,49.15730538936709L88.33623730341594,54.53219044114038L88.49094174702962,70.46690386300752L88.64564619064332,83.83233917672128L88.95505507787068,84.79532095409357L89.10975952148438,95.11112845673087L89.26446396509806,98.99346211100752L89.41916840871176,83.49163064862574L89.72857729593913,66.43074643200087L89.88328173955281,63.92757535092969L90.0379861831665,80.13584208712456L90.19269062678019,83.72261194179389L90.50209951400757,78.99940484784621L90.65680395762125,96.80561974250952L90.81150840123495,64.77291897145075L91.275621732076,71.4120986158725L91.43032617568969,78.5349680253265L91.58503061930338,44.18484028443827L91.73973506291706,64.7987065486733L92.04914395014444,84.85899869249286L92.20384839375815,97.89641122177399L92.51325728098551,105.20947710786756L92.82266616821289,103.51620785080907L92.97737061182659,105.64940480723526L93.13207505544027,101.1442791999832L93.28677949905396,105.08783722031943L93.75089282989502,121.1655176435702L93.9055972735087,127.88206085832823L94.0603017171224,128.46489063729436L94.36971060434978,135.0007810510426L94.52441504796346,135.78745578472376L94.67911949157715,133.4414092973283L94.83382393519084,134.75980316405085L95.14323282241821,132.25214869289854L95.2979372660319,116.48254358727847L95.45264170964559,69.37534899717873L95.60734615325927,82.57796811209835L95.91675504048665,89.70417243398958L96.07145948410033,78.76698622317929L96.22616392771403,61.984509316863L96.38086837132771,72.16103500327466L96.8449817021688,47.351559848105566L96.99968614578246,69.48132996068853L97.15439058939617,90.47268182531722L97.46379947662354,108.35938591145427L97.61850392023723,92.32216126575351L97.77320836385091,63.64048338784638L97.92791280746461,57.00590642806029L98.23732169469199,1.4232835304516809L98.39202613830567,22.921262917476398L98.54673058191935,43.96713614508313L98.70143502553304,26.007448336024066L99.01084391276042,41.91391201245872L99.1655483563741,3.5071295251493937L99.3202527999878,25.219592445414015L99.47495724360148,39.576097717276014L99.78436613082886,38.40586421983937L100.09377501805623,51.67113749603522L100.24847946166992,52.69933681373012L100.71259279251099,41.42775552776929L100.86729723612467,33.6197198625663L101.02200167973835,28.556417850168206L101.33141056696573,25.904353810729734L101.48611501057943,44.48491909772908L101.6408194541931,56.241515219608594L101.79552389780682,27.479913355105055L102.10493278503417,50.44125826588396L102.25963722864788,70.9054098478772L102.41434167226156,88.7048157297424L103.03315944671631,98.93847879377132L103.18786389033001,108.58266719804382L103.34256833394369,115.16454117331483L103.65197722117107,116.65719162425528L103.80668166478475,115.53717591729443L103.96138610839844,21.53566284728606L104.11609055201212,40.56040127971862L104.4254994392395,61.066575338311104L104.73490832646688,72.46824080921041L104.88961277008056,66.76616387876904L105.19902165730794,51.36371806967154L105.35372610092163,66.58414308272262L105.50843054453532,72.26135863074248L105.663134988149,91.15155541440627L106.28195276260375,89.85352035774318L106.43665720621745,106.58451216277344L106.74606609344484,107.88886033632777L106.90077053705852,118.68623517844051L107.05547498067219,111.24675105684045L107.2101794242859,106.8723993332793L107.51958831151327,119.34918973839073L107.67429275512696,119.78700254959602L107.82899719874065,126.9050503316158L107.98370164235433,88.45275056679723L108.29311052958171,73.18604264631401L108.44781497319539,81.22353685217102L108.60251941680909,90.27334596034339L108.75722386042277,61.504897341821405L109.06663274765015,75.12966782847766L109.22133719126384,90.02479500934477L109.37604163487752,100.9901217357978L109.5307460784912,90.24536440463456L109.84015496571858,64.23329817234179L109.99485940933228,46.178768937542046L110.14956385294596,51.506275779173926L110.30426829655966,74.77564665248045L110.61367718378702,90.48715920970567L110.76838162740071,102.8625303508849L110.9230860710144,89.79002634983316L111.07779051462809,80.9374488735692L111.38719940185547,73.60888360635474L111.85131273269654,83.1322532752972L112.16072161992392,90.48925507179355L112.3154260635376,75.892880476786L112.4701305071513,93.46556939434628L112.62483495076498,105.65899446688725L112.93424383799235,104.85294824028757L113.08894828160604,105.13957965842187L113.24365272521973,69.42928427894688L113.39835716883341,52.84325156237618L113.70776605606079,71.96676964628709L114.01717494328817,91.14186980552998L114.17187938690185,100.9115055067517L114.48128827412923,116.3079671109349L114.63599271774292,124.83446546624431L114.9454016049703,114.00298912510738L115.25481049219766,94.50626358581403L115.40951493581136,93.53893222202025L115.56421937942504,98.16442969077953L115.71892382303874,108.12393914079023L116.02833271026611,121.99555125902732L116.1830371538798,137.1341379149028L116.33774159749349,147.0433309889271L116.80185492833456,151.2557527959149L116.95655937194823,152.83654780790772L117.11126381556194,151.05859899344296L117.26596825917562,139.9108462581281L117.575377146403,131.08915207850208L117.88478603363038,109.155357164292L118.03949047724406,91.4376885991928L118.34889936447144,70.68150069706928L118.50360380808513,79.41034516083674L118.65830825169881,76.55333662313096L118.81301269531251,75.7352705832603L119.12242158253987,54.52212373907731L119.27712602615357,43.878161058868976L119.58653491338094,28.970914341434792L119.89594380060832,48.78681468978413L120.050648244222,65.67071805337943L120.20535268783568,67.15794480764318L120.36005713144938,54.97996623806043L120.66946601867676,44.15446746492119L120.82417046229044,38.73301920650698L120.97887490590414,58.23057547375066L121.13357934951782,63.25901856843063L121.4429882367452,68.65580902560822L121.59769268035888,41.50575837646035L121.75239712397259,29.832778385297377L121.90710156758625,21.58657508815791L122.21651045481364,16.95009096820961L122.52591934204102,40.33010519038274L122.6806237856547,64.88913791508945L122.99003267288208,84.23106709545038L123.29944156010946,105.24946877700016L123.45414600372315,124.49031059307492L123.76355489095052,140.88969329093538L123.91825933456421,157.50326361512418L124.0729637781779,159.79497394975226L124.22766822179159,127.38333354078334L124.53707710901897,128.65802635601918L124.69178155263265,113.47460089810743L124.84648599624633,105.63117217181774L125.00119043986003,111.36201622233307L125.3105993270874,94.5024374068964L125.46530377070108,86.4728098168188L125.62000821431478,82.59714138725718L125.77471265792846,43.2437318785672L126.08412154515584,50.027546025626684L126.39353043238322,21.639632120341904L126.5482348759969,30.64632572879859L126.85764376322427,46.28601209158377L127.01234820683798,39.32576142180246L127.16705265045167,53.23833127706165L127.32175709406535,53.61256132450297L127.63116598129272,51.87526694959291L127.9405748685201,54.81217265477485L128.09527931213378,70.21805695543813L128.40468819936117,85.66224137599846L128.86880153020223,105.72428973072935L129.17821041742963,125.336489299157L129.3329148610433,135.48174564674545L129.487619304657,135.17685976941408L129.64232374827068,138.82994247932686L129.95173263549805,143.98670812722833L130.10643707911174,146.28754205099997L130.26114152272544,150.9557813462702L130.4158459663391,137.4834888180375L130.87995929718016,128.6630578488279L131.03466374079386,130.2682529661273L131.18936818440756,119.74821789709142L131.49877707163492,105.83000455678439L131.65348151524861,79.26796141650884L131.8081859588623,87.27910819230944L131.962890402476,102.19699308031947L132.27229928970337,102.47911062093937L132.73641262054443,115.67490476897832L133.04582150777182,91.63959789501584L133.2005259513855,69.3172266509965L133.35523039499918,65.56493416677658L133.50993483861288,57.0062677627254L133.81934372584024,43.63501130160098L133.97404816945394,37.76541004444719L134.12875261306763,31.63741940105227L134.2834570566813,26.26428565849984L134.5928659439087,40.764542477806344L134.7475703875224,46.06913569405921L134.90227483113608,69.48937752007039L135.05697927474975,89.25837670514265L135.36638816197714,93.37002014371463L135.52109260559084,91.5657553415295L135.6757970492045,81.18652795716851L135.8305014928182,68.24595751533516L136.13991038004556,37.41719832158407L136.29461482365926,61.24412638529494L136.60402371088665,79.90783710044936L136.913432598114,100.94742109234556L137.0681370417277,113.3722538574989L137.22284148534138,131.0684933128534L137.37754592895507,139.86074271844785L137.68695481618246,137.28138804014213L137.84165925979613,113.16108137768046L137.99636370340983,113.64342213646911L138.15106814702352,133.40292525088074L138.46047703425089,135.3437838250928L138.61518147786458,84.42292947729183L138.92459036509194,91.54132417444568L139.23399925231934,96.97450078623854L139.388703695933,101.76830660022308L139.5434081395467,106.35232014548285L139.69811258316042,123.53527835875867L140.0075214703878,127.361711169493L140.16222591400145,140.64943030469433L140.47163480122884,102.21430237550516L140.7810436884562,95.34761181711308L140.9357481320699,97.58372583175564L141.0904525756836,113.85261862865023L141.2451570192973,118.17155819349722L141.55456590652466,132.77343590513007L141.70927035013833,136.19216432267473L141.86397479375205,119.12192261163328L142.32808812459308,107.83465312877573L142.4827925682068,100.69314264526017L142.63749701182047,84.64726895987867L143.10161034266153,49.84167265264511L143.25631478627523,42.82373373278648L144.02983700434368,47.28898922483664L144.18454144795737,54.60121571693325L144.33924589157104,58.81142434760312L144.80335922241213,80.44869805067295L144.9580636660258,95.59190182212954L145.1127681096395,112.46391850109126L145.42217699686688,126.15719642830331L145.57688144048055,129.55314416267097L145.73158588409424,144.8466579970641L145.8862903277079,156.8769063260753L146.1956992149353,151.94038790443435L146.350403658549,154.17752397850788L146.50510810216267,157.23488322085572L146.65981254577636,158.8487561196045L146.96922143300375,164.35958223396088L147.12392587661742,147.25762036458897L147.27863032023112,152.45399911063058L147.4333347638448,137.00737337881668L147.74274365107217,146.33683334775355L147.89744809468587,155.4508533396749L148.05215253829954,149.07570028351685L148.20685698191326,145.04796101113524L148.51626586914062,137.17427781774146L148.6709703127543,100.35197689451594L148.82567475636802,104.52686804656427L148.9803791999817,109.99463461406333L149.44449253082274,112.16251324364674L149.59919697443647,120.8768731516829L149.75390141805013,111.76669623739224L150.0633103052775,112.809694328341L150.2180147488912,119.03843077621983L150.3727191925049,130.93219274496366L150.52742363611858,131.08584954465042L150.83683252334595,113.8643348419812L150.99153696695964,125.70645630885795L151.14624141057334,138.5116553969015L151.300945854187,150.3233990249058L151.61035474141437,156.30992508437828L151.7650591850281,155.30614994334206L151.91976362864176,166.1410262921391L152.07446807225546,174.43041113488738L152.38387695948285,182.73505478128214L152.53858140309652,176.69588992263851L152.6932858467102,176.57842952016878L152.84799029032388,175.16701636978496L153.31210362116497,169.1452258285382L153.46680806477863,175.28540484971143L153.62151250839233,148.6719684904014L153.93092139561972,141.4941340666589L154.08562583923342,17.321268185357003L154.24033028284708,40.853472311088225L154.39503472646075,42.34937087061854L154.70444361368817,36.240262930093614L154.85914805730184,60.38940706491606L155.01385250091553,80.0032766717581L155.1685569445292,100.75486937096439L155.4779658317566,108.50876200969034L155.6326702753703,119.09605378940586L155.78737471898395,121.090644076457L155.94207916259768,117.35709987195803L156.4061924934387,115.6951916602869L156.5608969370524,134.66209584623422L157.02501026789346,145.48483447203347L157.17971471150716,133.32150535336172L157.33441915512083,111.91485148866124L157.48912359873455,47.60464355910986L157.7985324859619,71.12772692577042L158.1079413731893,93.04838584880818L158.26264581680297,107.80003893429453L158.57205470403034,124.02298978433245L158.72675914764403,120.16013834549244L158.88146359125776,129.76769708075236L159.03616803487142,140.44873743459326L159.3455769220988,137.8310582202661L159.5002813657125,121.82245011654993L159.65498580932618,131.91241306893588L159.80969025293987,141.56482579557706L160.11909914016724,126.03350482606852L160.42850802739463,108.07320034926849L160.5832124710083,77.85339093870567L160.89262135823566,87.54643825917918L161.04732580184938,88.32136892005828L161.20203024546305,86.64887189097006L161.66614357630414,75.6072726153845L161.8208480199178,78.44508470415637L161.9755524635315,80.2541995369381L162.13025690714517,75.17927451464216L162.43966579437256,54.95892186774447L162.59437023798625,59.23737925253573L162.90377912521362,52.51944163575831L163.213188012441,52.87611446175362L163.36789245605468,59.008072523454715L163.52259689966837,66.6272103636504L163.67730134328204,52.569322774637314L163.98671023050946,57.46629166084201L164.14141467412313,56.94598438020002L164.2961191177368,46.74144476673437L164.4508235613505,37.21009264506061L164.76023244857788,36.05331772064551L164.91493689219158,59.846700061741046L165.06964133580524,83.87007911395347L165.22434577941897,105.48053176718157L165.53375466664633,125.17521673944054L165.68845911026,140.21149289415186L165.8431635538737,154.24498924960236L165.9978679974874,158.97516137164263L166.30727688471475,163.31964452925718L166.46198132832845,165.78367273570444L166.77139021555584,143.8214196369372L167.0807991027832,128.54594914997662L167.3902079900106,125.7007389769026L167.54491243362426,113.33617964483199L167.85432132085162,93.61534058743543L168.00902576446535,72.98279028236668L168.16373020807902,60.243228711743505L168.3184346516927,62.20620658650942L168.62784353892008,46.221693668024926L168.7825479825338,33.023268384162556L168.93725242614747,32.799297200059215L169.09195686976113,25.40899985177177L169.4013657569885,47.862521701202084L169.55607020060222,69.48627684572895L169.71077464421592,91.15790337016539L169.86547908782958,106.38212300059708L170.17488797505698,124.75126807304665L170.32959241867067,144.09788591701417L170.48429686228434,146.63767650284197L170.63900130589803,134.49416822617053L170.94841019312543,146.38449721211722L171.1031146367391,122.99894729304225L171.2578190803528,122.20660757135377L171.41252352396646,118.03494190457556L171.72193241119385,109.1923705457011L171.87663685480754,83.59156017716448L172.0313412984212,94.25641688803036L172.1860457420349,92.1916400710989L172.4954546292623,106.59868842415328L172.65015907287597,116.67965942405634L172.80486351648966,96.77390548636079L172.95956796010333,107.38419030290845L173.26897684733072,122.89453656840848L173.42368129094442,83.0383365685961L173.57838573455808,101.88512041359725L173.7330901781718,114.46431935894636L174.04249906539917,133.10383937847192L174.19720350901284,143.3503641723026L174.35190795262653,153.6573258883062L174.50661239624026,154.0066115804829L174.81602128346762,146.9078589909968L174.9707257270813,161.34933479113684L175.125430170695,165.82867823458847L175.28013461430868,159.29478448830136L175.58954350153604,147.62970636264788L175.89895238876343,154.9781190958355L176.05365683237713,158.58895279057023L176.3630657196045,173.66475252778002L176.51777016321816,164.602223588482L176.67247460683188,173.77315227524366L177.1365879376729,133.90662780428167L177.29129238128664,116.18164336682912L177.4459968249003,116.15696407883307L177.600701268514,120.27021096846556L177.91011015574136,118.35690989987499L178.21951904296876,124.01389121553734L178.37422348658242,113.08497063082349L178.68363237380984,75.36215705639373L178.8383368174235,99.23642683404042L178.9930412610372,120.29163000865333L179.14774570465087,130.06630672561596L179.45715459187826,145.97519960486164L179.61185903549196,162.3859004330919L179.76656347910563,176.17377158687046L179.92126792271932,168.0959710340647L180.23067680994671,176.55791446392024L180.38538125356038,181.61800014621988L180.54008569717408,144.98018217730956L181.00419902801514,141.06001110750125L181.15890347162883,127.7445152737119L181.3136079152425,89.58580702120902L181.4683123588562,51.155376498501894L181.7777212460836,41.663735148593595L181.93242568969725,50.52557443631764L182.08713013331095,37.337571505854605L182.24183457692465,61.099297770323666L182.551243464152,82.44365410550982L182.86065235137937,95.52873557607465L183.0153567949931,101.5790241330516L183.32476568222046,126.3505802216289L183.47947012583413,139.23956666409157L183.63417456944785,17.262328088593634L183.78887901306155,41.937543907783585L184.09828790028888,63.975095312417885L184.4076967875163,79.65150319377449L184.56240123112997,99.84406429122426L184.87181011835733,114.68772552474861L185.02651456197103,89.96631407294151L185.18121900558472,95.79055922801233L185.33592344919842,63.125661441573996L185.64533233642578,45.287033462363844L185.80003678003948,35.05058710377239L186.10944566726684,56.06360087464907L186.4188545544942,70.68060234397377L186.57355899810793,82.80279497736952L186.7282634417216,90.09677124122722L186.8829678853353,91.81325799898114L187.19237677256268,80.62517704948107L187.34708121617635,69.55002185422195L187.50178565979004,91.76316862893044L187.6564901034037,110.10526739520891L187.9658989906311,94.57244378777389L188.27530787785847,84.48716804218914L188.43001232147216,101.77555483230351L188.73942120869955,80.22981949185137L188.89412565231325,88.42687014108837L189.04883009592692,77.65473265902128L189.20353453954058,63.31186604632021L189.512943426768,84.23515096586894L189.66764787038167,66.21648909447258L189.82235231399537,77.82020750228712L189.97705675760903,90.34868742119873L190.28646564483643,98.8094158821714L190.44117008845012,104.18111803269231L190.5958745320638,87.7850197762465L190.7505789756775,90.1329273137886L191.05998786290488,102.33973697641846L191.21469230651854,97.19842673781868L191.36939675013224,67.86105210350719L191.52410119374593,86.09727198991241L191.8335100809733,95.60386389732528L191.988214524587,97.1999380357655L192.14291896820066,98.21197999430031L192.29762341181439,84.55318680763129L192.60703229904175,93.35556401174851L192.76173674265542,110.07752764624027L192.91644118626914,108.57725740127957L193.0711456298828,75.20620949197168L193.38055451711017,92.56246532701142L193.53525896072387,71.19229586733115L193.84466784795126,27.82437861203701L194.15407673517862,52.27656456561853L194.30878117879234,75.45118797126568L194.463485622406,98.18296483430515L194.92759895324707,106.3756268544145L195.08230339686077,125.4874721131045L195.23700784047446,123.85933915309158L195.39171228408813,119.79565561398425L195.7011211713155,103.30949388898928L196.01053005854288,89.24917464159861L196.16523450215658,68.96795092210498L196.47464338938397,66.18436114234403L196.62934783299764,53.20828895785075L196.78405227661133,57.59363354885321L196.938756720225,56.95442083483648L197.2481656074524,72.95986379429822L197.4028700510661,90.98139551038442L197.55757449467976,103.396399010183L197.71227893829345,102.7771256717581L198.3310967127482,101.28769368078166L198.48580115636187,105.60084115472138L198.7952100435893,109.24656190918829L198.94991448720296,103.87432168387555L199.10461893081663,102.4391904814035L199.25932337443032,123.74183161163135L199.56873226165771,135.21715779054287L199.7234367052714,154.2742092021612L199.87814114888508,164.19067015730815L200.0328455924988,180.0088457259156L200.49695892333983,169.2268197286986L200.65166336695353,150.49093834154422L200.80636781056722,154.41531572203615L201.1157766977946,146.55884331082527L201.27048114140828,151.0559580271799L201.42518558502198,148.54870446878263L201.57989002863567,144.62814276439065L201.88929891586304,140.13838917929834L202.0440033594767,146.7629810612227L202.19870780309043,140.012684836415L202.3534122467041,120.45524616572564L202.66282113393146,124.9280897099583L202.81752557754518,118.43407536344763L202.97223002115885,103.4784705647276L203.12693446477255,119.07298365314337L203.59104779561363,110.80755081441204L203.7457522392273,133.19479863005427L204.20986557006833,131.97601167639377L204.36457001368206,125.18789699335052L204.51927445729575,101.5761519548507L204.67397890090942,94.3266414373507L204.9833877881368,93.200233712592L205.1380922317505,93.82586011653274L205.29279667536417,74.6930632821188L205.44750111897787,69.01190360058949L205.91161444981893,64.36755432234497L206.06631889343262,35.85151579168855L206.2210233370463,50.496489590554496L206.53043222427368,56.7435004203909L206.68513666788738,76.42162191725622L206.99454555511474,69.6704164603769L207.30395444234213,83.87912471789025L207.6133633295695,89.44485237884264L207.76806777318316,87.23534916432021L208.23218110402425,94.6479605304533L208.38688554763792,98.98383035875104L208.54158999125164,99.33149353037919L208.850998878479,102.5899867755837L209.00570332209267,104.74832641575135L209.16040776570637,104.98228483249476L209.3151122093201,106.5693281010681L209.62452109654745,75.53679963854249L209.77922554016112,70.13662810214986L210.0886344273885,76.93660835378114L210.39804331461588,79.7956743597648L210.55274775822957,93.95355031357758L210.70745220184327,94.64333448110519L210.86215664545696,75.8667492390362L211.17156553268433,82.28526899943401L211.326269976298,77.78290450967498L211.48097441991172,65.29545458805934L211.63567886352538,73.88116497165791L211.94508775075275,83.60003669918306L212.09979219436647,97.39712720933505L212.25449663798014,109.25850131688382L212.7186099688212,126.92669881088968L212.8733144124349,111.84958800912031L213.0280188560486,113.13387283446374L213.18272329966226,122.79522893154355L213.49213218688968,118.83696264316842L213.64683663050334,121.1162405565774L213.80154107411704,125.87227973626396L213.9562455177307,120.96499613273821L214.2656544049581,123.35237259570373L214.4203588485718,125.88189655080353L214.57506329218546,130.00848709163796L214.72976773579916,113.88591826488461L215.03917662302655,121.18024423752469L215.19388106664022,127.9763918914969L215.3485855102539,120.67852018271324L215.50328995386758,119.21670799004036L215.81269884109497,100.26833615270404L215.96740328470867,108.04662563558803L216.12210772832233,117.65030373482014L216.58622105916342,85.31223634502042L216.7409255027771,91.06911508759698L216.89562994639078,94.97319196971705L217.05033439000448,105.73975423865164L217.35974327723184,110.03092841696518L217.51444772084554,109.0708990125146L217.6691521644592,78.98808501346456L218.1332654953003,88.33911898828124L218.28796993891396,98.03188085564477L218.44267438252768,108.23133845658349L218.59737882614138,107.6955158402848L218.90678771336871,119.84437597592695L219.0614921569824,96.71819098266731L219.21619660059613,106.9494973581115L219.68030993143717,111.79924211402496L219.83501437505086,100.42691356493147L219.98971881866456,80.59012498314667L220.14442326227825,90.34433687770235L220.45383214950562,103.3254399491776L220.6085365931193,103.66398923421151L220.763241036733,112.00922340360589L220.91794548034667,107.98773978188363L221.22735436757404,114.49541899867273L221.69146769841512,121.13558449154785L222.00087658564252,128.5248191783467L222.15558102925618,134.7770949689682L222.31028547286988,137.02861786021612L222.46498991648355,137.20657685350804L222.77439880371094,141.3977895550743L222.92910324732463,123.3304488273805L223.0838076909383,119.36501946330432L223.238512134552,123.19695251629591L223.5479210217794,116.2329616072941L223.70262546539308,120.92908738389285L224.01203435262042,109.11524855015885L224.32144323984784,105.8218094345216L224.4761476834615,104.6271282594954L224.6308521270752,112.27830412860064L224.78555657068887,116.67343148555618L225.09496545791626,119.3523569835604L225.24966990152996,130.3253511707434L225.40437434514362,81.94580612787624L225.55907878875735,98.38195613020805L225.8684876759847,101.93958975399732L226.17789656321207,113.72408774867716L226.33260100682577,107.54360604204273L226.64200989405313,111.90850809648238L226.79671433766683,120.35500833977044L226.9514187812805,126.16140947418143L227.10612322489422,114.82494902669407L227.41553211212158,123.90491963039419L227.57023655573525,107.91848325788195L227.72494099934897,94.12770902952356L228.3437587738037,108.07803739879719L228.49846321741742,106.29322364679761L228.6531676610311,110.70620356906274L228.96257654825845,100.31603120652193L229.27198543548585,110.98567690276121L229.42668987909954,120.25458605503033L229.7360987663269,114.85953168947977L229.8908032099406,117.98667834091927L230.0455076535543,126.3119438640072L230.50962098439533,120.78363768323696L230.66432542800905,137.81689822222975L230.9737343152364,153.97066291989123L231.2831432024638,134.64174255875278L231.43784764607747,124.51191583039407L231.59255208969117,136.5511617107964L231.74725653330484,135.5230606950255L232.05666542053223,118.91210998082285L232.21136986414592,124.77859509845628L232.3660743077596,126.83756671560013L232.52077875137329,130.1398726377597L232.83018763860068,135.35918145415593L232.98489208221434,129.5857157401449L233.13959652582804,126.20185569006335L233.2943009694417,120.44496760798516L233.60370985666913,129.19692800752043L233.7584143002828,127.39432427519436L233.91311874389646,127.99384491841843L234.06782318751016,140.82671449140688L234.37723207473755,137.7081352537107L234.53193651835124,142.03726479102482L234.6866409619649,145.7938878336307L234.84134540557864,151.00594946620848L235.150754292806,117.87069942336753L235.30545873641967,125.71462172151098L235.61486762364706,126.11803558233562L235.92427651087442,131.49417288326887L236.07898095448812,137.630360098367L236.3883898417155,148.62664726353418L236.69779872894287,154.2560149124691L236.85250317255654,131.3290847257327L237.00720761617026,139.83403205420436L237.16191205978393,130.5820103936728L237.4713209470113,120.62501498361281L237.62602539062502,124.67836455861583L237.78072983423868,122.19835477295044L237.93543427785238,129.10863781492196L238.24484316507974,123.67073612527116L238.39954760869347,123.27080237700383L238.55425205230713,116.00900754347968L238.7089564959208,118.0267997620394L239.01836538314816,131.80251862673157L239.1730698267619,120.11077797236334L239.32777427037558,129.11931093152245L239.48247871398925,135.19239973854408L239.94659204483034,136.58987246104593L240.101296488444,143.1516551498702L240.2560009320577,131.9347631674233L240.5654098192851,131.66816726547168L240.87481870651246,133.46683822129015L241.02952315012612,143.46535058618252L241.33893203735352,146.56031868241018L241.4936364809672,142.019468692121L242.11245425542197,158.5361886884319L242.26715869903563,156.3858385933119L242.42186314264933,144.99293043839634L242.576567586263,149.83590298917773L243.04068091710408,150.98059304523008L243.19538536071775,130.430725911837L243.35008980433147,117.26283402683514L243.65949869155884,124.95234629816548L243.8142031351725,145.5026662899583L243.9689075787862,135.10441479699702L244.12361202239993,133.47381625207547L244.4330209096273,148.85525137160124L244.58772535324096,138.48706443511088L244.74242979685468,127.17718383689852L244.89713424046835,118.15727542178126L245.2065431276957,131.89553840161386L245.3612475713094,136.16052390899742L245.5159520149231,142.2003676461676L245.6706564585368,145.6798654811528L245.98006534576416,140.90658193889317L246.13476978937783,151.0970386215438L246.28947423299155,152.04960064615844L246.44417867660522,156.68116577368824L246.75358756383258,143.2522093297065L246.9082920074463,138.54002591993887L247.06299645105997,141.44489276586933L247.21770089467367,156.11620013236353L247.52710978190103,156.04872228591395" fill="none"></path></g></g></g></g><g opacity="0.2"><g><g><g><path style="fill: none;" stroke="rgb(255, 112, 67)" stroke-width="2px" d="M31.095593166351318,14.462455260588063L31.405002053578695,28.945854781595155L31.71441094080607,38.700335767318066L31.86911538441976,48.83929976575522L32.023819828033446,50.76452086001213L32.178524271647134,-8.0492424687577L32.48793315887451,74.11745892866239L32.79734204610189,96.65819147331338L32.95204648971558,37.19025313635708L33.261455376942955,49.25809861771405L33.570864264170325,97.71107288011507L33.72556870778402,12.882428994881487L34.03497759501139,19.21588445139713L34.18968203862508,21.004468014095462L34.34438648223877,37.81528622537896L34.49909092585246,51.05867684495128L34.808499813079834,50.45738267348118L34.96320425669352,22.57444965069899L35.11790870030721,-14.78431380025692L35.2726131439209,106.89784048077996L35.58202203114827,5.083604227932026L35.89143091837565,86.31146096057446L36.04613536198934,97.40344177665362L36.35554424921672,30.942519230769495L36.51024869283041,54.77770194867372L36.66495313644409,114.36124094680588L36.81965758005778,73.52068018496225L37.129066467285156,120.59931516106889L37.283770910898845,130.04887342167305L37.43847535451253,77.19792755537998L37.59317979812622,52.26623783426736L37.90258868535359,73.62721063677829L38.05729312896728,8.55091608068617L38.21199757258097,80.80343513620231L38.36670201619466,57.8669540769634L38.67611090342204,56.318522132936614L38.83081534703573,39.96667609197555L39.1402242342631,39.486461036012805L39.44963312149048,41.75346854696998L39.60433756510417,61.79982719950778L39.913746452331544,83.77137882785443L40.223155339558915,81.87314189402717L40.3778597831726,89.91977926111939L40.53256422678629,52.021777275473774L40.68726867039998,64.27379990783318L40.996677557627365,43.06666963091622L41.15138200124105,49.21300188896724L41.30608644485474,65.1581044199925L41.46079088846842,61.236462258039374L41.7701997756958,62.82757644860759L42.07960866292318,41.960129104709566L42.23431310653687,26.668249966988167L42.698426437377925,24.894484109819846L42.853130880991614,26.99974307434787L43.0078353246053,29.430950192055718L43.31724421183268,63.78078690113214L43.626653099060064,110.14943547984348L43.78135754267375,29.979591880331476L44.09076642990112,139.70837881521857L44.24547087351481,9.245103768895738L44.4001753171285,73.7255760740196L44.55487976074219,67.77226715175196L44.864288647969566,65.04974810351541L45.01899309158325,10.93471353314157L45.173697535196936,0.1692922751656301L45.328401978810625,123.00533524739444L45.637810866038,30.645696280395576L45.79251530965169,66.40083701156287L45.94721975326539,69.9254519838572L46.101924196879075,-4.051134460868375L46.411333084106445,91.18051208009608L46.566037527720134,10.39507366478755L46.72074197133382,21.28124131616722L46.87544641494751,160.2852592679432L47.18485530217489,79.52291840895808L47.33955974578858,110.5078515427262L47.49426418940226,24.283849341580478L47.64896863301595,43.93188929321751L47.958377520243324,20.152878063427035L48.11308196385701,134.94960763935148L48.2677864074707,-0.8222170566486806L48.4224908510844,19.827266614104058L48.886604181925456,65.11709294651968L49.041308625539145,45.25761864179375L49.19601306915283,144.13251153625893L49.50542195638021,97.21913211727693L49.6601263999939,39.327560922140734L49.96953528722127,61.21346424371745L50.27894417444865,34.57098244084696L50.433648618062335,74.03451497118728L50.588353061676024,54.77125695080341L51.05246639251708,3.989960957045797L51.20717083613078,-3.5861728326450666L51.36187527974447,11.010825114109231L51.516579723358156,166.462763532434L51.82598861058553,-32.97541538640858L51.98069305419922,-0.2591438054607875L52.13539749781291,57.8113667537075L52.29010194142659,88.01122947079413L52.59951082865397,55.955153083863905L52.75421527226766,53.73182755734638L53.063624159495035,24.594126612690562L53.37303304672242,-32.212445742135486L53.527737490336094,58.258362718344216L53.68244193394979,132.56771592838547L53.83714637756348,35.6844175737913L54.146555264790855,10.194960087917915L54.301259708404544,72.46998279438193L54.45596415201823,68.24162763622199L54.61066859563192,-3.193107371984369L54.92007748285929,46.74827375116117L55.22948637008667,20.11639976031536L55.38419081370036,50.93255511105132L55.693599700927734,-17.60945787594896L55.848304144541416,19.710169147411378L56.003008588155105,66.72944912356125L56.1577130317688,86.29384788888986L56.46712191899618,80.65316930187386L56.621826362609866,61.488893303451285L56.93123524983724,41.76114761096375L57.3953485806783,6.645423293371734L57.55005302429199,72.23700019828509L57.70475746790568,49.1401353032628L58.01416635513306,63.299405078137994L58.168870798746745,136.43340345076174L58.32357524236043,-30.531620714158134L58.478279685974115,21.971460895525947L58.7876885732015,37.67569834626862L58.94239301681519,74.34348860564928L59.09709746042888,65.1112126141601L59.251801904042566,-24.105177999545706L59.561210791269936,7.2142818561289435L59.715915234883624,59.840210075571235L60.025324122111,102.65015440887328L60.48943745295207,13.456650767865465L60.64414189656575,101.15788360026691L60.79884634017944,39.55269261250908L61.26295967102051,-18.675985011159057L61.4176641146342,56.78514186895255L61.57236855824789,30.80974050446316L61.88177744547526,73.41746343912281L62.03648188908895,114.12291020110176L62.191186332702635,63.38985859482353L62.345890776316324,117.61815864491545L62.6552996635437,59.98804415076753L62.81000410715739,64.77971662772883L62.96470855077108,54.58979455462705L63.11941299438476,-0.5894826488873484L63.58352632522583,34.65224457842401L63.73823076883952,86.97409446506964L63.89293521245321,110.56093527383003L64.20234409968059,55.427085848451675L64.35704854329427,95.45885796227451L64.51175298690795,24.336670948812557L64.66645743052165,51.74734005994063L64.97586631774902,30.99207466342307L65.13057076136272,151.0808359818731L65.2852752049764,35.36709499833725L65.43997964859008,94.35745842609181L65.74938853581746,84.9566947854265L65.90409297943116,48.120309939695375L66.05879742304484,134.45485185252215L66.21350186665853,113.88576191853778L66.52291075388591,119.5323388794517L66.67761519749959,146.69413066006382L66.83231964111327,117.96610671894673L66.98702408472697,87.20430423974972L67.60584185918172,78.34461810506998L67.76054630279542,-6.785842990953416L68.06995519002278,141.3988828250249L68.22465963363648,192.591715090196L68.37936407725016,161.8326514450821L68.53406852086385,158.83050045913402L68.84347740809123,147.485716764604L69.1528862953186,33.378188999695105L69.30759073893229,7.541399979978805L69.61699962615967,17.438305649147836L69.77170406977335,2.1770413013228396L70.08111295700073,36.42621083251459L70.3905218442281,29.031784365416176L70.5452262878418,12.755982618003115L70.69993073145548,4.125821823241349L70.85463517506916,-8.457673864627571L71.16404406229654,137.09267519499124L71.31874850591024,19.100015907146773L71.47345294952392,102.31970865288231L71.62815739313761,89.81117332234778L71.937566280365,70.61967969347614L72.09227072397869,188.6353906710224L72.24697516759235,124.09932909215073L72.40167961120606,87.4427963246851L72.71108849843344,122.64437207787846L72.86579294204712,-8.564872199268905L73.1752018292745,173.88569954063652L73.48461071650188,43.860708975756026L73.63931516011556,0.8733289785353714L73.79401960372925,60.88054314608158L73.94872404734294,129.6344130248614L74.25813293457031,109.5725686912472L74.41283737818401,38.74390600080471L74.56754182179769,128.12496972524085L74.72224626541137,109.17074941932879L75.18635959625244,96.39616357557857L75.34106403986613,121.2168450935916L75.49576848347982,144.6666203079595L75.80517737070718,21.416406309998898L75.95988181432088,112.84002573972475L76.11458625793456,93.12590669447503L76.26929070154826,69.80799513499535L76.57869958877563,101.9194759618599L76.73340403238932,75.80817356912934L76.888108476003,73.98811344664828L77.04281291961671,45.940429757350124L77.35222180684408,40.635293431192615L77.66163069407146,96.11576604755248L77.81633513768514,82.17298546372218L78.12574402491252,66.08459797104668L78.2804484685262,76.90834013904478L78.4351529121399,94.14586691963999L78.58985735575358,72.9618241689147L78.89926624298096,91.0254471022724L79.05397068659465,85.41085769573112L79.20867513020833,63.14324936514926L79.36337957382202,76.82845610851518L79.6727884610494,84.4582818719563L79.82749290466309,99.69725628724812L79.98219734827677,61.177271461012154L80.13690179189047,87.12408135666327L80.44631067911783,61.44703785754004L80.7557195663452,52.2701973132678L80.9104240099589,51.02372160478024L81.21983289718628,50.08585802967742L81.37453734079996,41.619723810620336L81.52924178441366,15.894471869253788L81.68394622802734,14.381538154049876L81.99335511525473,120.28678894770323L82.3027640024821,105.59356272058378L82.76687733332317,45.71465897455227L82.92158177693685,7.908211177029823L83.07628622055054,77.57108797604012L83.23099066416422,79.05882391814053L83.5403995513916,27.54013635446384L83.84980843861898,162.27685918157138L84.00451288223267,124.92615439947288L84.31392176946004,119.36633219495005L84.46862621307373,138.0864599331301L84.77803510030111,96.26642078196238L85.08744398752849,73.19815060323606L85.24214843114217,154.25163986132284L85.39685287475585,86.60652345267833L85.55155731836955,103.12502664186914L85.86096620559692,83.55288541205492L86.0156706492106,71.1515651031908L86.1703750928243,193.14755559956922L86.32507953643798,18.255233801896516L86.63448842366536,190.5635638620625L86.78919286727904,127.35414349852506L86.94389731089275,59.274224301642164L87.09860175450642,-14.541947771822194L87.40801064173381,89.22446689448438L87.5627150853475,82.86103267040937L87.87212397257487,52.38224474742457L88.18153285980225,45.527954305134024L88.33623730341594,63.877394374730414L88.49094174702962,112.1949766430193L88.64564619064332,114.78656549297351L88.95505507787068,86.27584947493304L89.10975952148438,116.247496939007L89.26446396509806,105.45528019560405L89.41916840871176,66.71831120421632L89.72857729593913,48.47215551523955L89.88328173955281,60.39521333122678L90.0379861831665,123.20044517770098L90.19269062678019,89.64267402732425L90.50209951400757,72.66507806544908L90.65680395762125,148.6733687336133L90.81150840123495,38.07856197297439L91.275621732076,83.41320247600612L91.43032617568969,91.61003317144261L91.58503061930338,16.464048065712824L91.73973506291706,138.56844404494882L92.04914395014444,153.36321565175749L92.20384839375815,127.6645930665534L92.51325728098551,118.71624916172075L92.82266616821289,101.08016873440143L92.97737061182659,109.032101285922L93.13207505544027,95.07287439245773L93.28677949905396,111.66303005146442L93.75089282989502,163.58667641799707L93.9055972735087,140.05268281193787L94.0603017171224,129.35220491257695L94.36971060434978,146.7768697346852L94.52441504796346,136.99141249394077L94.67911949157715,130.11845918770362L94.83382393519084,136.80565091218756L95.14323282241821,128.7138340204743L95.2979372660319,99.50093546487983L95.45264170964559,37.05920066871724L95.60734615325927,112.93896008811674L95.91675504048665,102.78676059881028L96.07145948410033,65.87962101564939L96.22616392771403,44.23280036356978L96.38086837132771,92.90517380435111L96.8449817021688,24.354372549166452L96.99968614578246,161.89473586079768L97.15439058939617,168.22243807343392L97.46379947662354,160.72316709781933L97.61850392023723,75.13437162364295L97.77320836385091,38.56039985298124L97.92791280746461,48.47167755856457L98.23732169469199,-33.188133928387465L98.39202613830567,106.62745430026536L98.54673058191935,122.32177046747363L98.70143502553304,7.394568784825443L99.01084391276042,83.50640847496778L99.1655483563741,-25.853920496985054L99.3202527999878,111.70137012582992L99.47495724360148,74.34929933166826L99.78436613082886,36.700795497189766L100.09377501805623,82.25934397816317L100.24847946166992,54.282815429213386L100.71259279251099,28.2323882395073L100.86729723612467,23.821304315873554L101.02200167973835,21.817113758840854L101.33141056696573,22.174973420253778L101.48611501057943,101.38132211194126L101.6408194541931,81.70035806474496L101.79552389780682,2.3594036805800296L102.10493278503417,157.55212077986565L102.25963722864788,143.1889959913153L102.41434167226156,140.5308665554926L103.03315944671631,119.84301232998263L103.18786389033001,127.86548604883886L103.34256833394369,127.04062063416748L103.65197722117107,118.98409150335442L103.80668166478475,113.90327115496075L103.96138610839844,-19.1687896347862L104.11609055201212,100.62996262804435L104.4254994392395,133.7623659911903L104.73490832646688,96.81475904820479L104.88961277008056,59.282396470558176L105.19902165730794,34.668217771354705L105.35372610092163,105.01541160377201L105.50843054453532,82.22275840435374L105.663134988149,150.23526160448876L106.28195276260375,87.96812710129741L106.43665720621745,152.33003542617925L106.74606609344484,109.91216653037635L106.90077053705852,141.21200705771057L107.05547498067219,101.8387092418207L107.2101794242859,100.9598891602058L107.51958831151327,147.17104502918426L107.67429275512696,120.45106743581492L107.82899719874065,139.96924158869624L107.98370164235433,59.074340238987176L108.29311052958171,56.597276770289064L108.44781497319539,96.42584397831543L108.60251941680909,107.99154959907511L108.75722386042277,36.380929095516485L109.06663274765015,107.04787244753147L109.22133719126384,127.03919220884178L109.37604163487752,124.01304641884217L109.5307460784912,77.53706418573222L109.84015496571858,40.56213571623828L109.99485940933228,27.498035496032916L110.14956385294596,60.75594476848799L110.30426829655966,188.75313479960593L110.61367718378702,131.15609581475144L110.76838162740071,130.34260145629793L110.9230860710144,75.00210801040204L111.07779051462809,70.06433951444215L111.38719940185547,64.31950695855035L111.85131273269654,102.09146896365625L112.16072161992392,104.09652762824815L112.3154260635376,59.83898011427786L112.4701305071513,143.9260711434469L112.62483495076498,132.53348109161203L112.93424383799235,103.6679619179513L113.08894828160604,105.57266232937967L113.24365272521973,41.13732746374879L113.39835716883341,35.23874559308978L113.70776605606079,132.77459538477183L114.01717494328817,152.3402271953524L114.17187938690185,120.53342317725055L114.48128827412923,155.52724400027145L114.63599271774292,141.22972404221906L114.9454016049703,101.21382605874224L115.25481049219766,74.82053848869597L115.40951493581136,92.12247401853047L115.56421937942504,106.03008506727951L115.71892382303874,128.2652268935023L116.02833271026611,154.85390267757344L116.1830371538798,175.20423189648423L116.33774159749349,167.0462601670566L116.80185492833456,158.3336036172451L116.95655937194823,155.30660212122663L117.11126381556194,148.50594172168329L117.26596825917562,126.8290684983531L117.575377146403,120.24716421138189L117.88478603363038,87.87879874289366L118.03949047724406,72.99897594785622L118.34889936447144,50.15749643242443L118.50360380808513,96.31130536216276L118.65830825169881,72.55500520630319L118.81301269531251,74.53297032827369L119.12242158253987,33.70260787632424L119.27712602615357,31.264193695879804L119.58653491338094,12.667346504070183L119.89594380060832,115.15041222659464L120.050648244222,112.23434135509044L120.20535268783568,69.47605794193602L120.36005713144938,40.96943396283672L120.66946601867676,31.370869522973248L120.82417046229044,31.573752567633246L120.97887490590414,121.95243560217445L121.13357934951782,71.91194115650632L121.4429882367452,78.04527708972041L121.59769268035888,17.219781637216172L121.75239712397259,16.272914634147455L121.90710156758625,11.331733288972327L122.21651045481364,10.720012816121754L122.52591934204102,157.03847449679313L122.6806237856547,228.49770819100033L122.99003267288208,146.71688938526492L123.29944156010946,183.29831777732923L123.91825933456421,202.6312913484185L124.0729637781779,163.44460582171914L124.22766822179159,100.51634864224928L124.53707710901897,130.63379412135765L124.69178155263265,96.95158172720784L124.84648599624633,95.79558138167252L125.00119043986003,121.43392123837668L125.3105993270874,76.69323148434192L125.46530377070108,76.44253785178364L125.62000821431478,77.29919229715387L125.77471265792846,13.526127369327876L126.08412154515584,62.346260922552524L126.39353043238322,-3.291015243597932L126.5482348759969,48.25365061195895L126.85764376322427,86.61987739154108L127.01234820683798,30.434404476579903L127.16705265045167,86.2548797846096L127.32175709406535,54.17926409328796L127.63116598129272,49.37853858651978L127.9405748685201,59.5724941550434L128.09527931213378,109.47994897062664L128.40468819936117,125.09781204162313L128.86880153020223,174.24426827693048L129.17821041742963,189.99160264106789L129.3329148610433,156.13840344622588L129.487619304657,134.72302254643301L129.64232374827068,144.87075807693793L129.95173263549805,152.89436170662444L130.10643707911174,149.9526079744207L130.26114152272544,158.9040522874914L130.4158459663391,122.35649214336381L130.87995929718016,117.822343764927L131.03466374079386,132.77805359186252L131.18936818440756,107.2507446039648L131.49877707163492,90.33070323973683L131.65348151524861,55.29694682467199L131.8081859588623,102.41827773007401L131.962890402476,139.30890684264236L132.27229928970337,102.90532412336998L132.73641262054443,146.0112262657268L133.04582150777182,69.09006811469754L133.2005259513855,47.79868932050757L133.35523039499918,60.42118049846322L133.50993483861288,46.430924833352314L133.81934372584024,28.59323082869344L133.97404816945394,30.08980596706479L134.12875261306763,23.668636115061307L134.2834570566813,19.161288665811853L134.5928659439087,76.12367894279623L134.7475703875224,55.272699690575955L134.90227483113608,187.23078962783583L135.05697927474975,155.22271801829072L135.36638816197714,100.25854066054839L135.52109260559084,88.97695288007776L135.6757970492045,68.82210550925205L135.8305014928182,53.571055072275286L136.13991038004556,11.284297259905975L136.29461482365926,190.91509593709097L136.60402371088665,137.3808430793347L136.913432598114,179.23186816174598L137.0681370417277,141.01862907250958L137.22284148534138,182.26770807420698L137.37754592895507,156.92166204783126L137.68695481618246,133.64804628519704L137.84165925979613,90.56185880399116L137.99636370340983,114.3758599767261L138.15106814702352,199.28686544474658L138.46047703425089,138.405639641806L138.61518147786458,51.01198843791497L138.92459036509194,104.60629769059904L139.23399925231934,106.43762510252988L139.388703695933,109.96050049694274L139.5434081395467,114.13799097432242L139.69811258316042,171.7466825930433L140.0075214703878,133.7203607823629L140.16222591400145,171.31936101965007L140.47163480122884,72.84243880222225L140.7810436884562,86.55834779156429L140.9357481320699,101.13947254922026L141.0904525756836,157.21939835627938L141.2451570192973,125.45073382794816L141.55456590652466,168.55204793499166L141.70927035013833,141.80825870062432L141.86397479375205,101.15641336057527L142.32808812459308,94.62493367291053L142.4827925682068,91.60513710045502L142.63749701182047,67.4528486911381L143.10161034266153,21.927131030302494L143.25631478627523,33.86962791113959L144.02983700434368,54.84676442451969L144.18454144795737,68.1060705639823L144.33924589157104,65.88510538661889L144.80335922241213,165.93827811751913L144.9580636660258,133.68228655607126L145.1127681096395,158.9633681635835L145.42217699686688,158.3340731889719L145.57688144048055,135.12825320843942L145.73158588409424,183.60323968793855L145.8862903277079,183.21636715970493L146.1956992149353,145.35134306187655L146.350403658549,157.73499408575802L146.50510810216267,162.20698472099897L146.65981254577636,161.3727047534398L146.96922143300375,173.98044116246783L147.12392587661742,129.26867616341502L147.27863032023112,161.4406874786786L147.4333347638448,120.27724573128697L147.74274365107217,164.78268448456453L147.89744809468587,173.3348275815648L148.05215253829954,140.82950758337864L148.20685698191326,139.56113703836928L148.51626586914062,127.30695227921483L148.6709703127543,71.60925766588501L148.82567475636802,111.5340810827905L148.9803791999817,119.52793120566011L149.44449253082274,115.60341763983403L149.59919697443647,137.7413925224528L149.75390141805013,100.63551061248614L150.0633103052775,114.41658250227454L150.2180147488912,130.1540889359202L150.3727191925049,156.8298716403254L150.52742363611858,131.31723259143743L150.83683252334595,95.78729873349364L150.99153696695964,151.43832151347627L151.14624141057334,167.46166984830037L151.300945854187,175.9580625716589L151.61035474141437,166.91376692394726L151.7650591850281,153.8376422119471L151.91976362864176,188.7772281630505L152.38387695948285,198.58406046989012L152.53858140309652,168.82752394673125L152.6932858467102,176.4027597622156L152.84799029032388,173.12258482540008L153.31210362116497,161.29654641216678L153.46680806477863,186.21302675877683L153.62151250839233,124.67319561425313L153.93092139561972,132.36690076001963L154.08562583923342,-25.565225632261157L154.24033028284708,161.59375867487233L154.39503472646075,44.681534106550735L154.70444361368817,28.292794383080086L154.85914805730184,202.20091601613302L155.01385250091553,144.67213192295554L155.1685569445292,175.9364559534678L155.4779658317566,123.03739533946494L155.6326702753703,141.00923538547494L155.78737471898395,124.24179572001752L155.94207916259768,112.23685363489257L156.4061924934387,113.30246257623344L156.5608969370524,194.3051397990713L157.02501026789346,168.08525849060365L157.17971471150716,119.32392450770104L157.33441915512083,90.97154107754068L157.48912359873455,11.088895855565195L157.7985324859619,191.61654460310217L158.1079413731893,182.3944651973704L158.26264581680297,144.2050515641176L158.57205470403034,167.16057948744242L158.72675914764403,114.87816775635426L158.88146359125776,148.95209920097247L159.03616803487142,162.6340275795631L159.3455769220988,134.14705445743164L159.5002813657125,104.65661341193801L159.65498580932618,152.41489064418118L159.80969025293987,160.86977873056932L160.11909914016724,109.23714855289407L160.42850802739463,89.45987888506225L160.5832124710083,52.012218066829774L160.89262135823566,106.96095046959654L161.04732580184938,89.50699239183817L161.20203024546305,84.241512200456L161.66614357630414,62.62330580558389L161.8208480199178,83.03224127167171L161.9755524635315,83.0981992593016L162.13025690714517,68.42623726095398L162.43966579437256,34.78722712191681L162.59437023798625,66.43989366526948L162.90377912521362,43.893331149014145L163.213188012441,53.41598814389195L163.36789245605468,69.9182918446937L163.52259689966837,80.84026048248116L163.67730134328204,36.954662973041145L163.98671023050946,65.86025764621748L164.14141467412313,56.1756341896461L164.2961191177368,34.54311461181687L164.4508235613505,25.662678696588003L164.76023244857788,34.367304122125105L164.91493689219158,188.41319643648757L165.53375466664633,190.51422270419917L165.68845911026,177.83456609345725L165.8431635538737,187.73235395193848L165.9978679974874,167.04351426453164L166.30727688471475,170.6472856086101L166.46198132832845,169.7261081761558L166.77139021555584,122.52703454708502L167.0807991027832,111.95027722889434L167.3902079900106,121.71782101180446L167.54491243362426,99.1613225279748L167.85432132085162,73.77783466310348L168.00902576446535,52.53951762455843L168.16373020807902,45.741593058646394L168.3184346516927,65.30479086177998L168.62784353892008,29.074358779853096L168.7825479825338,18.128004006234818L168.93725242614747,32.46522872653769L169.09195686976113,16.053512006560194L169.4013657569885,145.46404714756653L169.55607020060222,154.79971333462203L169.71077464421592,177.09815132134887L169.86547908782958,144.83021681077543L170.17488797505698,180.21525400487778L170.32959241867067,206.62044361204408L170.48429686228434,150.70972258044347L170.63900130589803,120.51412228274347L170.94841019312543,172.271130440262L171.1031146367391,100.83379216480537L171.2578190803528,121.04137730015242L171.41252352396646,112.37055047468121L171.72193241119385,98.32934021101786L171.87663685480754,60.14801396904033L172.0313412984212,116.39458964285313L172.1860457420349,89.24746572310458L172.4954546292623,141.57692184591104L172.65015907287597,137.15712538509953L172.80486351648966,76.81202957445554L172.95956796010333,129.3639241041707L173.26897684733072,162.63189173099454L173.42368129094442,53.13512465371552L173.57838573455808,160.65542363958377L173.7330901781718,142.63442210869795L174.04249906539917,190.40829206226988L174.19720350901284,164.29110021050295L174.35190795262653,174.76865831001558L174.50661239624026,154.53520421260532L174.81602128346762,137.86610630959382L174.9707257270813,196.46783394314582L175.125430170695,173.41340479384027L175.28013461430868,150.87196540626795L175.58954350153604,134.07696381816368L175.89895238876343,168.56572166867716L176.05365683237713,164.55278160558706L176.3630657196045,211.459926918761L176.51777016321816,153.51857185792164L176.67247460683188,191.804691384273L177.1365879376729,103.99963152120733L177.29129238128664,97.73764441705524L177.4459968249003,116.11996819700407L177.600701268514,127.16173518528349L177.91011015574136,115.61882975988844L178.21951904296876,133.93369198307045L178.37422348658242,100.20526944468364L178.68363237380984,46.264650202730074L178.8383368174235,230.51057554969938L178.9930412610372,198.7505857228116L179.14774570465087,149.7019175450991L179.45715459187826,187.57933669496512L179.76656347910563,208.71064646300613L179.92126792271932,158.015574722003L180.23067680994671,192.79334945957677L180.38538125356038,190.3335530473058L180.54008569717408,116.3112649857442L181.00419902801514,135.7066541732279L181.15890347162883,112.74990217150022L181.3136079152425,60.31976136718702L181.4683123588562,21.78530435570122L181.7777212460836,30.15526599316178L181.93242568969725,67.76289047181056L182.08713013331095,22.45117285121647L182.24183457692465,188.64632227282905L182.551243464152,164.26023464994321L182.86065235137937,125.46703791153223L183.0153567949931,112.31684855157036L183.32476568222046,306.8172109560583L183.47947012583413,168.48279459450302L183.63417456944785,-25.508703924621862L183.78887901306155,214.0377466448806L184.09828790028888,155.0107218891838L184.4076967875163,120.1563313976718L184.56240123112997,169.55123757305668L184.87181011835733,151.48246171817183L185.02651456197103,67.0194945738531L185.18121900558472,106.05580193389781L185.33592344919842,36.14436990468725L185.64533233642578,26.761090489464944L185.80003678003948,22.82183474338644L186.10944566726684,134.05271783160745L186.4188545544942,106.5220219154094L186.57355899810793,109.44279545966027L186.7282634417216,103.55996826657109L186.8829678853353,94.50500145496271L187.19237677256268,67.50634586347299L187.34708121617635,56.53509268529957L187.50178565979004,185.45843819664415L187.6564901034037,165.38939584200975L187.9658989906311,77.77491432712556L188.27530787785847,72.40289273430423L188.43001232147216,150.58363921058495L188.73942120869955,59.19802109651253L188.89412565231325,104.0139844220621L189.04883009592692,64.92087170474464L189.20353453954058,47.46367036892486L189.512943426768,161.2408910453608L189.66764787038167,47.56139059204407L189.82235231399537,102.79589758133947L189.97705675760903,118.34592035086202L190.28646564483643,115.04184982105814L190.44117008845012,113.51989521541289L190.5958745320638,70.32381501956375L190.7505789756775,93.87774782681947L191.05998786290488,129.25844559031756L191.21469230651854,90.36708664184663L191.36939675013224,42.452192176305864L191.52410119374593,140.68445601199974L191.8335100809733,114.51837065119368L191.988214524587,99.69487510497206L192.14291896820066,99.76992057691012L192.29762341181439,69.2697294826581L192.60703229904175,110.4421008876797L192.76173674265542,155.77524708203424L192.91644118626914,106.40879314966624L193.0711456298828,47.910634542563876L193.38055451711017,141.75918110846567L193.53525896072387,50.272265425010126L193.84466784795126,-3.3062776467131867L194.463485622406,200.75560459554947L194.92759895324707,121.95210019185954L195.08230339686077,186.2074039488272L195.23700784047446,121.51332729948183L195.39171228408813,114.26437772426276L195.7011211713155,85.78021805255088L196.01053005854288,73.6325117625747L196.16523450215658,48.755914476062514L196.47464338938397,62.28208230275432L196.62934783299764,38.502920273679635L196.78405227661133,64.99895446236748L196.938756720225,56.01081383929036L197.2481656074524,115.02936176874925L197.4028700510661,144.1892293695997L197.55757449467976,131.00966768108935L197.71227893829345,101.86250101716585L198.3310967127482,99.13432965904889L198.48580115636187,112.86903716547653L198.7952100435893,115.27394909787377L198.94991448720296,96.77236644876818L199.10461893081663,100.36159947886732L199.25932337443032,205.05849508188234L199.56873226165771,159.79182597115542L199.7234367052714,214.58390183013302L200.0328455924988,221.18050033641182L200.49695892333983,156.4837340675783L200.65166336695353,131.32921205627852L200.80636781056722,160.9549469891214L201.1157766977946,136.709565765779L201.27048114140828,158.674714319909L201.42518558502198,145.01092204212478L201.57989002863567,139.27429996676776L201.88929891586304,134.08561373296445L202.0440033594767,158.73221493566137L202.19870780309043,131.35099559017627L202.3534122467041,100.72828922056806L202.66282113393146,132.50037867469902L202.81752557754518,110.05551655828569L202.97223002115885,87.13631854793014L203.12693446477255,159.1975169431279L203.59104779561363,100.53286614522312L203.7457522392273,229.68626780761335L204.20986557006833,130.2023031056321L204.36457001368206,116.48468760183844L204.51927445729575,79.27627503601396L204.67397890090942,85.12217734236437L204.9833877881368,91.55726108504078L205.1380922317505,94.77937688912122L205.29279667536417,55.2562824033926L205.44750111897787,61.55218711190017L205.91161444981893,58.12800496564007L206.06631889343262,10.855527587567321L206.2210233370463,86.45433671142793L206.53043222427368,67.89809208294277L206.68513666788738,141.62244696941931L206.99454555511474,61.007728205166636L207.30395444234213,118.0587852788175L207.6133633295695,99.17769047409304L207.76806777318316,84.09564638414214L208.23218110402425,108.38285792509879L208.38688554763792,106.29512073669896L208.54158999125164,99.85760894631757L208.850998878479,107.9189127901978L209.00570332209267,108.17321017791896L209.16040776570637,105.33530849143915L209.3151122093201,109.04955554663098L209.62452109654745,49.30745643354265L209.77922554016112,63.00212681624362L210.0886344273885,89.29100814199339L210.39804331461588,84.41989175195117L210.55274775822957,127.93111085061253L210.70745220184327,95.69637115905002L210.86215664545696,56.67664376378303L211.17156553268433,93.80746625318291L211.326269976298,71.71484495929504L211.48097441991172,51.01299925628542L211.63567886352538,90.4236585115163L211.94508775075275,103.0843499265933L212.09979219436647,129.96926600014305L212.25449663798014,135.05210015963672L212.7186099688212,177.9571177703842L212.8733144124349,95.41078643402118L213.0280188560486,115.1250087712506L213.18272329966226,142.12426653392842L213.49213218688968,113.43626409621238L213.64683663050334,124.7448532605555L213.80154107411704,133.990917368273L213.9562455177307,114.41071886265247L214.2656544049581,127.16422118847689L214.4203588485718,129.9363474533083L214.57506329218546,136.92501844275836L214.72976773579916,96.63279048230805L215.03917662302655,134.64423903175245L215.19388106664022,140.32232826324105L215.3485855102539,111.42207803739032L215.50328995386758,117.1018606227058L215.81269884109497,80.95889397476567L215.96740328470867,122.63270207195957L216.12210772832233,136.82429505887853L216.58622105916342,58.4786177936898L216.7409255027771,101.19479871899244L216.89562994639078,101.47522820523058L217.05033439000448,128.17503925753607L217.35974327723184,117.25750512370735L217.51444772084554,107.66488076722241L217.6691521644592,53.21327774484455L218.1332654953003,106.84172463041497L218.28796993891396,117.44562226523202L218.44267438252768,129.03976656381917L218.59737882614138,106.90250022781537L218.90678771336871,146.5719922568263L219.0614921569824,74.70872890162121L219.21619660059613,127.8474013021684L219.68030993143717,120.10069026188839L219.83501437505086,87.13953012587879L219.98971881866456,60.67454295667333L220.14442326227825,109.92439028779238L220.45383214950562,132.89362497201202L220.6085365931193,104.17619364988593L220.763241036733,127.95753985630414L220.91794548034667,102.50865983703684L221.22735436757404,126.21030837117168L221.69146769841512,133.13884322071215L222.00087658564252,142.2060091733226L222.15558102925618,145.94291196253448L222.31028547286988,140.61035706713278L222.46498991648355,137.47472044746792L222.77439880371094,148.43570300028864L222.92910324732463,104.64056653558191L223.0838076909383,113.95542835238598L223.238512134552,129.56573847547025L223.5479210217794,107.33753168541803L223.70262546539308,128.93137297140646L224.01203435262042,95.42880358154007L224.32144323984784,101.25921173184301L224.4761476834615,102.88747763437965L224.6308521270752,126.5661245865424L224.78555657068887,124.09737759621682L225.09496545791626,123.66383606646329L225.24966990152996,153.37113231990764L225.40437434514362,49.252258438489356L225.55907878875735,142.59404205027388L225.8684876759847,107.80673971663047L226.17789656321207,139.27178454081331L226.33260100682577,99.51566179225387L226.64200989405313,119.27494337480576L226.79671433766683,136.5523166099031L226.9514187812805,136.3896289436993L227.10612322489422,101.57028417685963L227.41553211212158,141.70089407361522L227.57023655573525,90.76967083458483L227.72494099934897,78.7341813111861L228.3437587738037,141.24099182062156L228.49846321741742,103.73113293944017L228.6531676610311,118.16416635953954L228.96257654825845,87.94124030995667L229.27198543548585,133.13778613326514L229.42668987909954,138.54162501592734L229.7360987663269,107.73099004641055L229.8908032099406,123.08213201227453L230.0455076535543,142.21136897891571L230.50962098439533,113.500339563198L230.66432542800905,185.1953754277986L230.9737343152364,196.7654914406956L231.2831432024638,115.07042126181196L231.43784764607747,112.38497246186667L231.59255208969117,162.9199280018884L231.74725653330484,134.0198621144145L232.05666542053223,101.28887537376976L232.21136986414592,135.1316421759387L232.3660743077596,130.0960532240138L232.52077875137329,135.5470608587357L232.83018763860068,144.3917058379149L232.98489208221434,122.02002879522531L233.13959652582804,121.52376732655169L233.2943009694417,112.89828110343916L233.60370985666913,146.15612194949003L233.7584143002828,124.80780195670576L233.91311874389646,128.90696111272123L234.06782318751016,169.87331495895944L234.37723207473755,133.37024810473758L234.53193651835124,149.3357658081337L234.6866409619649,152.02416318628502L234.84134540557864,160.0239802255166L235.150754292806,90.67935082203498L235.30545873641967,140.4557053309635L235.61486762364706,126.7293872365561L235.92427651087442,140.84190563604793L236.07898095448812,148.54953080371592L236.3883898417155,171.74195060430597L236.69779872894287,164.11912921461L236.85250317255654,109.44012329864248L237.00720761617026,156.17585452668604L237.16191205978393,119.30985876149293L237.4713209470113,108.6640193654288L237.62602539062502,131.4578742452746L237.78072983423868,118.69676428906878L237.93543427785238,141.7075205563708L238.24484316507974,116.4923340546609L238.39954760869347,122.676894502529L238.55425205230713,106.7913304245853L238.7089564959208,121.21659016405377L239.01836538314816,164.29295951740886L239.1730698267619,106.53401565490536L239.32777427037558,146.73135897764337L239.48247871398925,145.97826390025833L239.94659204483034,138.76294339036087L240.101296488444,154.98401004915675L240.2560009320577,118.78949593386595L240.5654098192851,131.27094580141988L240.87481870651246,136.293633241984L241.02952315012612,163.7142512456678L241.33893203735352,151.59883561927637L241.4936364809672,135.90481885230287L242.11245425542197,203.16171600473956L242.26715869903563,153.3258906174377L242.42186314264933,131.68679489898048L242.576567586263,158.12410494718208L243.04068091710408,152.748833560222L243.19538536071775,110.04162922414845L243.35008980433147,102.39355250008374L243.65949869155884,139.32984865721815L243.8142031351725,218.63560106821794L243.9689075787862,122.72197320285663L244.12361202239993,131.1243914816064L244.4330209096273,188.00666196207655L244.58772535324096,126.13310540004017L244.74242979685468,113.94679417161932L244.89713424046835,107.11621970208594L245.2065431276957,164.24320487400226L245.3612475713094,143.33756676866057L245.5159520149231,152.91620794340793L245.6706564585368,151.40555052587948L245.98006534576416,134.51224160480945L246.13476978937783,171.88021927446187L246.28947423299155,153.5137132727337L246.44417867660522,164.55853657882648L246.75358756383258,128.16172407453044L246.9082920074463,132.21892828276464L247.06299645105997,146.14912251490284L247.21770089467367,192.18396497431064L247.52710978190103,155.9476776362683" fill="none"></path></g></g></g></g></g></g><g transform="translate(51, 177)" clip-path="url(#clip_1)"><clipPath id="clip_1"><rect width="278" height="22"></rect></clipPath><g><g><line x1="0" y1="0" x2="0" y2="5" style="visibility: inherit;" fill="rgb(0, 0, 0)" stroke="rgb(204, 204, 204)" stroke-width="1px"></line><line x1="30.94088872273763" y1="0" x2="30.94088872273763" y2="5" style="visibility: inherit;" fill="rgb(0, 0, 0)" stroke="rgb(204, 204, 204)" stroke-width="1px"></line><line x1="61.88177744547526" y1="0" x2="61.88177744547526" y2="5" style="visibility: inherit;" fill="rgb(0, 0, 0)" stroke="rgb(204, 204, 204)" stroke-width="1px"></line><line x1="92.82266616821289" y1="0" x2="92.82266616821289" y2="5" style="visibility: inherit;" fill="rgb(0, 0, 0)" stroke="rgb(204, 204, 204)" stroke-width="1px"></line><line x1="123.76355489095052" y1="0" x2="123.76355489095052" y2="5" style="visibility: inherit;" fill="rgb(0, 0, 0)" stroke="rgb(204, 204, 204)" stroke-width="1px"></line><line x1="154.70444361368817" y1="0" x2="154.70444361368817" y2="5" style="visibility: inherit;" fill="rgb(0, 0, 0)" stroke="rgb(204, 204, 204)" stroke-width="1px"></line><line x1="185.64533233642578" y1="0" x2="185.64533233642578" y2="5" style="visibility: inherit;" fill="rgb(0, 0, 0)" stroke="rgb(204, 204, 204)" stroke-width="1px"></line><line x1="216.58622105916342" y1="0" x2="216.58622105916342" y2="5" style="visibility: inherit;" fill="rgb(0, 0, 0)" stroke="rgb(204, 204, 204)" stroke-width="1px"></line><line x1="247.52710978190103" y1="0" x2="247.52710978190103" y2="5" style="visibility: inherit;" fill="rgb(0, 0, 0)" stroke="rgb(204, 204, 204)" stroke-width="1px"></line><line x1="278.4679985046387" y1="0" x2="278.4679985046387" y2="5" style="visibility: inherit;" fill="rgb(0, 0, 0)" stroke="rgb(204, 204, 204)" stroke-width="1px"></line></g><g transform="translate(0, 8)"><text style="text-anchor: middle; visibility: hidden; font-family: Roboto, sans-serif; font-size: 12px; font-weight: 200;" x="0" y="0" dx="0em" dy="0.95em" fill="rgb(50, 49, 63)" stroke="none" stroke-width="1px">-200</text><text style="text-anchor: middle; visibility: inherit; font-family: Roboto, sans-serif; font-size: 12px; font-weight: 200;" x="30.94088872273763" y="0" dx="0em" dy="0.95em" fill="rgb(50, 49, 63)" stroke="none" stroke-width="1px">0</text><text style="text-anchor: middle; visibility: inherit; font-family: Roboto, sans-serif; font-size: 12px; font-weight: 200;" x="61.88177744547526" y="0" dx="0em" dy="0.95em" fill="rgb(50, 49, 63)" stroke="none" stroke-width="1px">200</text><text style="text-anchor: middle; visibility: inherit; font-family: Roboto, sans-serif; font-size: 12px; font-weight: 200;" x="92.82266616821289" y="0" dx="0em" dy="0.95em" fill="rgb(50, 49, 63)" stroke="none" stroke-width="1px">400</text><text style="text-anchor: middle; visibility: inherit; font-family: Roboto, sans-serif; font-size: 12px; font-weight: 200;" x="123.76355489095052" y="0" dx="0em" dy="0.95em" fill="rgb(50, 49, 63)" stroke="none" stroke-width="1px">600</text><text style="text-anchor: middle; visibility: inherit; font-family: Roboto, sans-serif; font-size: 12px; font-weight: 200;" x="154.70444361368817" y="0" dx="0em" dy="0.95em" fill="rgb(50, 49, 63)" stroke="none" stroke-width="1px">800</text><text style="text-anchor: middle; visibility: inherit; font-family: Roboto, sans-serif; font-size: 12px; font-weight: 200;" x="185.64533233642578" y="0" dx="0em" dy="0.95em" fill="rgb(50, 49, 63)" stroke="none" stroke-width="1px">1k</text><text style="text-anchor: middle; visibility: inherit; font-family: Roboto, sans-serif; font-size: 12px; font-weight: 200;" x="216.58622105916342" y="0" dx="0em" dy="0.95em" fill="rgb(50, 49, 63)" stroke="none" stroke-width="1px">1.2k</text><text style="text-anchor: middle; visibility: inherit; font-family: Roboto, sans-serif; font-size: 12px; font-weight: 200;" x="247.52710978190103" y="0" dx="0em" dy="0.95em" fill="rgb(50, 49, 63)" stroke="none" stroke-width="1px">1.4k</text><text style="text-anchor: middle; visibility: hidden; font-family: Roboto, sans-serif; font-size: 12px; font-weight: 200;" x="278.4679985046387" y="0" dx="0em" dy="0.95em" fill="rgb(50, 49, 63)" stroke="none" stroke-width="1px">1.6k</text></g><line x1="0" y1="0" x2="278.4679985046387" y2="0" fill="rgb(0, 0, 0)" stroke="rgb(204, 204, 204)" stroke-width="1px"></line></g></g></g></g></svg>