<svg viewBox="0 0 330 200" xmlns="http://www.w3.org/2000/svg"><g><g><g><g><g><line x1="51.53200149536133" y1="177.86299896240234" x2="46.53200149536133" y2="177.86299896240234" style="visibility: inherit;" fill="rgb(0, 0, 0)" stroke="rgb(204, 204, 204)" stroke-width="1px"></line><line x1="51.53200149536133" y1="155.63012409210205" x2="46.53200149536133" y2="155.63012409210205" style="visibility: inherit;" fill="rgb(0, 0, 0)" stroke="rgb(204, 204, 204)" stroke-width="1px"></line><line x1="51.53200149536133" y1="133.39724922180176" x2="46.53200149536133" y2="133.39724922180176" style="visibility: inherit;" fill="rgb(0, 0, 0)" stroke="rgb(204, 204, 204)" stroke-width="1px"></line><line x1="51.53200149536133" y1="111.16437435150146" x2="46.53200149536133" y2="111.16437435150146" style="visibility: inherit;" fill="rgb(0, 0, 0)" stroke="rgb(204, 204, 204)" stroke-width="1px"></line><line x1="51.53200149536133" y1="88.93149948120117" x2="46.53200149536133" y2="88.93149948120117" style="visibility: inherit;" fill="rgb(0, 0, 0)" stroke="rgb(204, 204, 204)" stroke-width="1px"></line><line x1="51.53200149536133" y1="66.69862461090088" x2="46.53200149536133" y2="66.69862461090088" style="visibility: inherit;" fill="rgb(0, 0, 0)" stroke="rgb(204, 204, 204)" stroke-width="1px"></line><line x1="51.53200149536133" y1="44.465749740600586" x2="46.53200149536133" y2="44.465749740600586" style="visibility: inherit;" fill="rgb(0, 0, 0)" stroke="rgb(204, 204, 204)" stroke-width="1px"></line><line x1="51.53200149536133" y1="22.23287487030027" x2="46.53200149536133" y2="22.23287487030027" style="visibility: inherit;" fill="rgb(0, 0, 0)" stroke="rgb(204, 204, 204)" stroke-width="1px"></line><line x1="51.53200149536133" y1="0" x2="46.53200149536133" y2="0" style="visibility: inherit;" fill="rgb(0, 0, 0)" stroke="rgb(204, 204, 204)" stroke-width="1px"></line></g><g transform="translate(41.53200149536133, 0)"><text style="text-anchor: end; visibility: hidden; font-family: Roboto, sans-serif; font-size: 12px; font-weight: 200;" x="0" y="177.86299896240234" dx="0em" dy="0.3em" fill="rgb(50, 49, 63)" stroke="none" stroke-width="1px">0</text><text style="text-anchor: end; visibility: inherit; font-family: Roboto, sans-serif; font-size: 12px; font-weight: 200;" x="0" y="155.63012409210205" dx="0em" dy="0.3em" fill="rgb(50, 49, 63)" stroke="none" stroke-width="1px">0.02</text><text style="text-anchor: end; visibility: hidden; font-family: Roboto, sans-serif; font-size: 12px; font-weight: 200;" x="0" y="133.39724922180176" dx="0em" dy="0.3em" fill="rgb(50, 49, 63)" stroke="none" stroke-width="1px">0.04</text><text style="text-anchor: end; visibility: inherit; font-family: Roboto, sans-serif; font-size: 12px; font-weight: 200;" x="0" y="111.16437435150146" dx="0em" dy="0.3em" fill="rgb(50, 49, 63)" stroke="none" stroke-width="1px">0.06</text><text style="text-anchor: end; visibility: hidden; font-family: Roboto, sans-serif; font-size: 12px; font-weight: 200;" x="0" y="88.93149948120117" dx="0em" dy="0.3em" fill="rgb(50, 49, 63)" stroke="none" stroke-width="1px">0.08</text><text style="text-anchor: end; visibility: inherit; font-family: Roboto, sans-serif; font-size: 12px; font-weight: 200;" x="0" y="66.69862461090088" dx="0em" dy="0.3em" fill="rgb(50, 49, 63)" stroke="none" stroke-width="1px">0.1</text><text style="text-anchor: end; visibility: hidden; font-family: Roboto, sans-serif; font-size: 12px; font-weight: 200;" x="0" y="44.465749740600586" dx="0em" dy="0.3em" fill="rgb(50, 49, 63)" stroke="none" stroke-width="1px">0.12</text><text style="text-anchor: end; visibility: inherit; font-family: Roboto, sans-serif; font-size: 12px; font-weight: 200;" x="0" y="22.23287487030027" dx="0em" dy="0.3em" fill="rgb(50, 49, 63)" stroke="none" stroke-width="1px">0.14</text><text style="text-anchor: end; visibility: hidden; font-family: Roboto, sans-serif; font-size: 12px; font-weight: 200;" x="0" y="0" dx="0em" dy="0.3em" fill="rgb(50, 49, 63)" stroke="none" stroke-width="1px">0.16</text></g><line x1="51.53200149536133" y1="0" x2="51.53200149536133" y2="177.86299896240234" fill="rgb(0, 0, 0)" stroke="rgb(204, 204, 204)" stroke-width="1px"></line></g></g><g transform="translate(51, 0)" clip-path="url(#clip_0)"><clipPath id="clip_0"><rect width="278" height="177"></rect></clipPath><g><g><g><line x1="0" y1="0" x2="0" y2="177.86299896240234" fill="rgb(0, 0, 0)" stroke="rgb(60, 60, 60)" stroke-width="1px" opacity="0.25"></line><line x1="30.94088872273763" y1="0" x2="30.94088872273763" y2="177.86299896240234" fill="rgb(0, 0, 0)" stroke="rgb(60, 60, 60)" stroke-width="1px" opacity="0.25"></line><line x1="61.88177744547526" y1="0" x2="61.88177744547526" y2="177.86299896240234" fill="rgb(0, 0, 0)" stroke="rgb(60, 60, 60)" stroke-width="1px" opacity="0.25"></line><line x1="92.82266616821289" y1="0" x2="92.82266616821289" y2="177.86299896240234" fill="rgb(0, 0, 0)" stroke="rgb(60, 60, 60)" stroke-width="1px" opacity="0.25"></line><line x1="123.76355489095052" y1="0" x2="123.76355489095052" y2="177.86299896240234" fill="rgb(0, 0, 0)" stroke="rgb(60, 60, 60)" stroke-width="1px" opacity="0.25"></line><line x1="154.70444361368817" y1="0" x2="154.70444361368817" y2="177.86299896240234" fill="rgb(0, 0, 0)" stroke="rgb(60, 60, 60)" stroke-width="1px" opacity="0.25"></line><line x1="185.64533233642578" y1="0" x2="185.64533233642578" y2="177.86299896240234" fill="rgb(0, 0, 0)" stroke="rgb(60, 60, 60)" stroke-width="1px" opacity="0.25"></line><line x1="216.58622105916342" y1="0" x2="216.58622105916342" y2="177.86299896240234" fill="rgb(0, 0, 0)" stroke="rgb(60, 60, 60)" stroke-width="1px" opacity="0.25"></line><line x1="247.52710978190103" y1="0" x2="247.52710978190103" y2="177.86299896240234" fill="rgb(0, 0, 0)" stroke="rgb(60, 60, 60)" stroke-width="1px" opacity="0.25"></line><line x1="278.4679985046387" y1="0" x2="278.4679985046387" y2="177.86299896240234" fill="rgb(0, 0, 0)" stroke="rgb(60, 60, 60)" stroke-width="1px" opacity="0.25"></line></g><g><line x1="0" y1="177.86299896240234" x2="278.4679985046387" y2="177.86299896240234" fill="rgb(0, 0, 0)" stroke="rgb(60, 60, 60)" stroke-width="1px" opacity="0.25"></line><line x1="0" y1="155.63012409210205" x2="278.4679985046387" y2="155.63012409210205" fill="rgb(0, 0, 0)" stroke="rgb(60, 60, 60)" stroke-width="1px" opacity="0.25"></line><line x1="0" y1="133.39724922180176" x2="278.4679985046387" y2="133.39724922180176" fill="rgb(0, 0, 0)" stroke="rgb(60, 60, 60)" stroke-width="1px" opacity="0.25"></line><line x1="0" y1="111.16437435150146" x2="278.4679985046387" y2="111.16437435150146" fill="rgb(0, 0, 0)" stroke="rgb(60, 60, 60)" stroke-width="1px" opacity="0.25"></line><line x1="0" y1="88.93149948120117" x2="278.4679985046387" y2="88.93149948120117" fill="rgb(0, 0, 0)" stroke="rgb(60, 60, 60)" stroke-width="1px" opacity="0.25"></line><line x1="0" y1="66.69862461090088" x2="278.4679985046387" y2="66.69862461090088" fill="rgb(0, 0, 0)" stroke="rgb(60, 60, 60)" stroke-width="1px" opacity="0.25"></line><line x1="0" y1="44.465749740600586" x2="278.4679985046387" y2="44.465749740600586" fill="rgb(0, 0, 0)" stroke="rgb(60, 60, 60)" stroke-width="1px" opacity="0.25"></line><line x1="0" y1="22.23287487030027" x2="278.4679985046387" y2="22.23287487030027" fill="rgb(0, 0, 0)" stroke="rgb(60, 60, 60)" stroke-width="1px" opacity="0.25"></line><line x1="0" y1="0" x2="278.4679985046387" y2="0" fill="rgb(0, 0, 0)" stroke="rgb(60, 60, 60)" stroke-width="1px" opacity="0.25"></line></g></g></g><g><g><line x1="0" y1="177.86299896240234" x2="278.4679985046387" y2="177.86299896240234" fill="rgb(0, 0, 0)" stroke="rgb(153, 153, 153)" stroke-width="1.5px"></line></g></g><g><g><line x1="30.94088872273763" y1="0" x2="30.94088872273763" y2="177.86299896240234" fill="rgb(0, 0, 0)" stroke="rgb(153, 153, 153)" stroke-width="1.5px"></line></g></g><g><g><g><g><g><path style="fill: none;" stroke="rgb(255, 112, 67)" stroke-width="2px" d="M31.095593166351318,142.77070991693884L31.405002053578695,141.08451598865588L31.71441094080607,142.3250219749122L31.86911538441976,143.48549121058343L32.023819828033446,141.25129022322906L32.178524271647134,134.23454701552717L32.48793315887451,130.24005402296805L32.79734204610189,127.9161457309714L32.95204648971558,134.72573532796L33.261455376942955,135.11964154188666L33.570864264170325,135.35445536764374L33.72556870778402,137.99242713402526L34.03497759501139,137.16545075488492L34.18968203862508,136.6699567261916L34.34438648223877,136.3729089313165L34.49909092585246,136.19476966675984L34.808499813079834,126.5221812525702L34.96320425669352,117.02435050251943L35.11790870030721,110.99556983981486L35.2726131439209,107.37853656734654L35.58202203114827,104.34307777143742L35.89143091837565,77.10841415082318L36.04613536198934,65.77967591208214L36.35554424921672,86.67113262911018L36.51024869283041,90.9158291183498L36.66495313644409,88.772425731708L36.81965758005778,84.57440360367401L37.129066467285156,65.04416709721644L37.283770910898845,91.1404240895007L37.43847535451253,92.98866639099644L37.59317979812622,78.18551235197934L37.90258868535359,68.37313089046827L38.05729312896728,74.1827288491207L38.21199757258097,61.615337502160415L38.36670201619466,86.04308859884364L38.67611090342204,99.79167416071105L38.83081534703573,109.78756849251954L39.1402242342631,111.82405967754252L39.44963312149048,112.39261450886008L39.60433756510417,106.9981980455946L39.913746452331544,113.25995852108025L40.223155339558915,112.53769052286691L40.3778597831726,114.92702003292976L40.53256422678629,123.31301105456981L40.68726867039998,120.0849826533413L40.996677557627365,124.53675170467494L41.15138200124105,124.9914717253477L41.30608644485474,127.48730087731076L41.46079088846842,124.5322444354375L41.7701997756958,121.42172861025867L42.07960866292318,126.3620539383999L42.23431310653687,128.7869925761955L42.698426437377925,130.97172885220013L42.853130880991614,137.96173676432915L43.0078353246053,142.1557415116019L43.31724421183268,144.67214435996382L43.626653099060064,123.8827755389304L43.78135754267375,131.80839746256214L44.09076642990112,132.872287277383L44.24547087351481,126.45908265806665L44.4001753171285,117.24782782410881L44.55487976074219,107.55255069231818L44.864288647969566,114.44788768484094L45.01899309158325,118.03644605897597L45.173697535196936,118.5649303955432L45.328401978810625,118.88202099748354L45.637810866038,128.16164324042387L45.79251530965169,133.72941658618808L45.94721975326539,114.86599829718725L46.101924196879075,121.0216760004921L46.411333084106445,123.17455618305756L46.566037527720134,126.29425277877162L46.72074197133382,131.00126911150394L46.87544641494751,135.0501215720583L47.18485530217489,137.8216945867252L47.33955974578858,136.2529023151798L47.49426418940226,139.97195046879588L47.64896863301595,143.64431832731813L47.958377520243324,144.78542048400794L48.11308196385701,143.34575939204433L48.2677864074707,146.98272018722307L48.4224908510844,150.37266975063292L48.886604181925456,151.74746218588518L49.041308625539145,153.6943010182121L49.19601306915283,148.8263358496393L49.50542195638021,151.83419100587625L49.6601263999939,152.13379233718686L49.96953528722127,148.7148110450272L50.27894417444865,150.14560212663065L50.433648618062335,149.05994195367563L50.588353061676024,148.68916651918022L51.05246639251708,150.74070798957953L51.20717083613078,155.17756019261563L51.36187527974447,156.64694918961618L51.516579723358156,156.86968108865338L51.82598861058553,159.00846438671243L51.98069305419922,158.13983782831446L52.13539749781291,159.56534686347592L52.29010194142659,158.76140356345596L52.59951082865397,159.57411742710224L52.75421527226766,158.71840357925183L53.063624159495035,160.63913280465076L53.37303304672242,160.61958215346476L53.527737490336094,155.82973607705415L53.68244193394979,154.93257019945796L53.83714637756348,152.89544193251348L54.146555264790855,154.67923239325256L54.301259708404544,155.74950666969605L54.45596415201823,156.77633364794897L54.61066859563192,155.57323074464088L54.92007748285929,155.9468386605215L55.22948637008667,157.70929774501033L55.38419081370036,158.9281423384774L55.693599700927734,159.9812535404853L55.848304144541416,162.1692962794805L56.003008588155105,162.66265218818003L56.1577130317688,160.76063876130863L56.46712191899618,159.6194307051858L56.621826362609866,160.1554823121653L56.93123524983724,160.78986258386576L57.3953485806783,161.11974163651644L57.55005302429199,161.5059800015603L57.70475746790568,160.8315672937618L58.01416635513306,158.74199801963422L58.168870798746745,158.97666014960745L58.32357524236043,159.5301076966799L58.478279685974115,159.8621762249234L58.7876885732015,158.1810312575965L58.94239301681519,159.73281034932575L59.09709746042888,160.66056898903653L59.251801904042566,160.71446355696165L59.561210791269936,158.87617169864149L59.715915234883624,157.41237669111544L60.025324122111,155.89615595039774L60.48943745295207,158.49731882764425L60.64414189656575,158.45713425852915L60.79884634017944,159.24060553551598L61.26295967102051,159.7082416833162L61.4176641146342,160.62617491722006L61.57236855824789,161.50072169384924L61.88177744547526,160.86356112136005L62.03648188908895,157.38495324952837L62.191186332702635,158.02802332847162L62.345890776316324,159.3331549046761L62.6552996635437,160.37078942011644L62.81000410715739,160.1275736671514L62.96470855077108,160.11848671277133L63.11941299438476,157.66964462444517L63.58352632522583,156.3374261993919L63.73823076883952,156.47867166121392L63.89293521245321,154.02713869115428L64.20234409968059,152.65260855090008L64.35704854329427,153.42733618143853L64.51175298690795,154.37881294334423L64.66645743052165,155.06510501270807L64.97586631774902,155.54459708564528L65.13057076136272,156.54149196273363L65.2852752049764,157.2720717801238L65.43997964859008,157.90396921651245L65.74938853581746,150.5131686283091L65.90409297943116,142.7301920118426L66.05879742304484,132.68211929385234L66.21350186665853,121.21778740763116L66.52291075388591,122.7570795037914L66.67761519749959,118.43797726271062L66.83231964111327,122.36953515928766L66.98702408472697,118.66892167815126L67.60584185918172,121.1995419589235L67.76054630279542,114.03710832635055L68.06995519002278,108.92039375428317L68.22465963363648,103.9456701082863L68.37936407725016,102.43681437170049L68.53406852086385,107.51968640885978L68.84347740809123,106.89569864706287L69.1528862953186,106.58253936538912L69.30759073893229,103.57847504334593L69.61699962615967,104.54664211210573L69.77170406977335,102.19535054994994L70.08111295700073,106.97590661628908L70.3905218442281,115.0263287495087L70.5452262878418,120.38364525203181L70.69993073145548,125.46410098325036L70.85463517506916,126.3208702471635L71.16404406229654,131.6868659602045L71.31874850591024,138.62047814469545L71.47345294952392,143.71760670843892L71.62815739313761,147.81187848082024L71.937566280365,149.06693657168697L72.09227072397869,153.1887901932993L72.24697516759235,153.4646700896214L72.40167961120606,153.9182314369112L72.71108849843344,154.1292897505981L72.86579294204712,150.89526744011096L73.1752018292745,149.44469372516292L73.48461071650188,148.57930236619515L73.63931516011556,149.1743125615318L73.79401960372925,149.593241977334L73.94872404734294,147.45986726282547L74.25813293457031,139.4243530337145L74.41283737818401,131.3693305808585L74.56754182179769,126.10942278348809L74.72224626541137,125.9179298226149L75.18635959625244,127.89000284727783L75.34106403986613,129.97069676739858L75.49576848347982,132.6153984013358L75.80517737070718,130.36060444809135L75.95988181432088,131.8206136892699L76.11458625793456,133.02807390813507L76.26929070154826,131.96983322641955L76.57869958877563,123.22874348530333L76.73340403238932,114.78421260668621L76.888108476003,103.496129468529L77.04281291961671,94.93367347951163L77.35222180684408,88.98692080566671L77.66163069407146,97.87608101277145L77.81633513768514,106.1077680676561L78.12574402491252,110.10812198555942L78.2804484685262,108.15307862345398L78.4351529121399,102.51366045384121L78.58985735575358,94.20844036423505L78.89926624298096,89.99165810028794L79.05397068659465,83.63409031605504L79.20867513020833,81.15218971962729L79.36337957382202,81.94970827382645L79.6727884610494,73.68023844238216L79.82749290466309,75.09853557392785L79.98219734827677,73.50679812380947L80.13690179189047,78.58014054729264L80.44631067911783,70.93440809004566L80.7557195663452,65.57218072561824L80.9104240099589,63.93339520486565L81.21983289718628,62.78703698168344L81.37453734079996,59.0434900956403L81.52924178441366,54.8319206904623L81.68394622802734,48.6380264945688L81.99335511525473,54.53480646839946L82.3027640024821,65.59757935031219L82.76687733332317,74.25831654467648L82.92158177693685,84.41992655696897L83.07628622055054,97.7944409665145L83.23099066416422,113.49335995532303L83.5403995513916,125.92412422486291L83.84980843861898,134.328239722268L84.00451288223267,140.4147922381959L84.31392176946004,143.03710075724916L84.46862621307373,140.26247476350915L84.77803510030111,143.36768651413632L85.08744398752849,143.296580341402L85.24214843114217,144.44044953155944L85.39685287475585,144.595309873279L85.55155731836955,140.71194277502292L85.86096620559692,141.19892282119534L86.0156706492106,134.4377750617769L86.1703750928243,127.98430813222029L86.32507953643798,131.3539831943878L86.63448842366536,136.33002361956125L86.78919286727904,141.31268481457204L86.94389731089275,145.54533429188868L87.09860175450642,146.4153131573987L87.40801064173381,150.64422550641305L87.5627150853475,151.99130135058803L87.87212397257487,152.66304973541156L88.18153285980225,154.34839266838515L88.33623730341594,155.48972721917548L88.49094174702962,157.13986384707417L88.64564619064332,158.13518609279276L88.95505507787068,159.47605287088348L89.10975952148438,159.40686513533305L89.26446396509806,161.2143661223669L89.41916840871176,161.61153714962452L89.72857729593913,158.87032569160073L89.88328173955281,156.88391870232184L90.0379861831665,156.14462933915595L90.19269062678019,154.1890844823451L90.50209951400757,148.41507141031502L90.65680395762125,151.20010796932905L90.81150840123495,153.33739540570704L91.275621732076,156.36868134281121L91.43032617568969,157.0763572736506L91.58503061930338,158.31354410200245L91.73973506291706,158.3798962867164L92.04914395014444,157.05945734377462L92.20384839375815,156.65592967044083L92.51325728098551,156.94093757872753L92.82266616821289,156.95011102349093L92.97737061182659,156.88956716087827L93.13207505544027,156.50824280288884L93.28677949905396,158.06218073767332L93.75089282989502,156.9985708459201L93.9055972735087,157.3623390389962L94.0603017171224,158.45614147868184L94.36971060434978,159.28731184671557L94.52441504796346,156.0491279013971L94.67911949157715,157.2641334890792L94.83382393519084,159.21421269078738L95.14323282241821,158.86459421725797L95.2979372660319,157.74445581033635L95.45264170964559,152.17267985850174L95.60734615325927,144.40894756097433L95.91675504048665,143.61342664911263L96.07145948410033,143.97853103004596L96.22616392771403,144.36720543720753L96.38086837132771,146.07473868016862L96.8449817021688,148.37876219039367L96.99968614578246,149.03783779300394L97.15439058939617,149.16002801588107L97.46379947662354,150.07513955478794L97.61850392023723,150.93576270717716L97.77320836385091,148.06303011401403L97.92791280746461,147.5364619666121L98.23732169469199,147.99956777385984L98.39202613830567,152.353408877409L98.54673058191935,155.32894112322515L98.70143502553304,153.89872806072063L99.01084391276042,153.95255362395702L99.1655483563741,154.5446491643668L99.3202527999878,156.54778265822705L99.47495724360148,158.3649500093274L99.78436613082886,157.46758914703943L100.09377501805623,156.1780831458316L100.24847946166992,156.2229166825434L100.71259279251099,154.93507000863622L100.86729723612467,154.73009259643544L101.02200167973835,153.47790645265533L101.33141056696573,154.81231375472606L101.48611501057943,155.21646349936168L101.6408194541931,156.14919872696504L101.79552389780682,150.5233827318087L102.10493278503417,139.55059970321543L102.25963722864788,129.50139018153337L102.41434167226156,122.19115333142327L103.03315944671631,118.03545550762402L103.18786389033001,112.89467644695046L103.34256833394369,111.01393200750019L103.65197722117107,113.430580729808L103.80668166478475,118.8501229953052L103.96138610839844,127.7722467616896L104.11609055201212,130.77024746692797L104.4254994392395,137.3697140425792L104.73490832646688,141.4074555260302L104.88961277008056,136.86847223495502L105.19902165730794,129.09669309679208L105.35372610092163,121.45646042569035L105.50843054453532,120.79006584104376L105.663134988149,119.68060871145138L106.28195276260375,126.62339915458915L106.43665720621745,131.2866877725351L106.74606609344484,132.5147634878354L106.90077053705852,136.06482748227134L107.05547498067219,134.5065132834894L107.2101794242859,139.77906192292158L107.51958831151327,135.59934760480982L107.67429275512696,136.9794838657769L107.82899719874065,142.89983737973225L107.98370164235433,145.67196335230764L108.29311052958171,150.7610364139357L108.44781497319539,152.60475748969645L108.60251941680909,154.00046136778025L108.75722386042277,150.61847493574703L109.06663274765015,149.58112511084857L109.22133719126384,151.98136067125364L109.37604163487752,152.37510717459827L109.5307460784912,150.4190077543521L109.84015496571858,148.9936048184547L109.99485940933228,148.35848002946352L110.14956385294596,143.8998646496288L110.30426829655966,136.20098612782408L110.61367718378702,136.5505720077638L110.76838162740071,136.55939437911928L110.9230860710144,138.53700346026878L111.07779051462809,140.4378398504813L111.38719940185547,140.71382319535812L111.85131273269654,145.02235395519477L112.16072161992392,147.71534724490252L112.3154260635376,148.55742044416985L112.4701305071513,146.9606282362793L112.62483495076498,147.31185569167368L112.93424383799235,144.57404098219078L113.08894828160604,143.07495722640138L113.24365272521973,139.7582976961483L113.39835716883341,127.05737770969853L113.70776605606079,116.17987803834731L114.01717494328817,100.52259177131678L114.17187938690185,93.57207871014452L114.48128827412923,80.78893534489768L114.63599271774292,65.89180485541645L114.9454016049703,45.62138981590519L115.25481049219766,26.203898526294072L115.40951493581136,15.930990707779468L115.56421937942504,1.2701751278911966L115.71892382303874,-7.259873004680236L118.81301269531251,-4.962774178527677L119.12242158253987,1.4527869701400131L119.27712602615357,4.580813513446726L119.58653491338094,8.328615009571267L119.89594380060832,8.176104775252599L120.050648244222,11.260120468733968L120.20535268783568,0.23033800588556588L120.36005713144938,-14.820032837980444L124.53707710901897,-5.514109573166659L124.69178155263265,4.1152618291292224L124.84648599624633,11.453095041102353L125.00119043986003,18.101363280594068L125.3105993270874,21.909430172250307L125.46530377070108,22.758275928501156L125.62000821431478,13.186647613306327L125.77471265792846,16.734956580095822L126.08412154515584,13.321511468197803L126.39353043238322,17.210759432767567L126.5482348759969,17.11640802403206L126.85764376322427,18.404433468470558L127.01234820683798,18.214755354405373L127.16705265045167,9.501374722382185L127.32175709406535,11.263406317189652L127.63116598129272,11.858408205974973L127.9405748685201,13.698885010868795L128.09527931213378,11.78407381489649L128.40468819936117,21.423936027279918L128.86880153020223,24.379721515668454L129.17821041742963,24.02019875902656L129.3329148610433,32.65095032754805L129.487619304657,39.909755752150744L129.64232374827068,46.50680735808896L129.95173263549805,50.077203753394755L130.10643707911174,55.302634639326676L130.26114152272544,53.70374124647885L130.4158459663391,53.40732781091237L130.87995929718016,65.93430027499383L131.03466374079386,70.5156150811609L131.18936818440756,83.93377381949799L131.49877707163492,86.66022117083617L131.65348151524861,94.85300036808927L131.8081859588623,99.99219968892389L131.962890402476,100.57583517462746L132.27229928970337,105.4756300862431L132.73641262054443,112.21649518098444L133.04582150777182,110.96682192160647L133.2005259513855,102.13844471455086L133.35523039499918,88.4952824877443L133.50993483861288,83.02276611563379L133.81934372584024,74.36903659338928L133.97404816945394,68.66412879706303L134.12875261306763,66.23023747243596L134.2834570566813,62.476902766819975L134.5928659439087,63.322552734462775L134.7475703875224,72.15266264092098L134.90227483113608,100.69256883649963L135.05697927474975,120.68640586633207L135.36638816197714,136.3109238928795L135.52109260559084,145.14843549573618L135.6757970492045,149.33305153807993L135.8305014928182,153.0079460476055L136.13991038004556,154.7086027327344L136.29461482365926,158.42766859494503L136.60402371088665,159.2098565238844L136.913432598114,158.816037264302L137.0681370417277,158.77019764015864L137.22284148534138,158.05357406182912L137.37754592895507,160.3466952955678L137.68695481618246,159.078131353548L137.84165925979613,156.0629666980265L137.99636370340983,156.7200666978296L138.15106814702352,156.15094544463523L138.46047703425089,153.43985652110155L138.61518147786458,153.1691697679679L138.92459036509194,149.93573895432013L139.23399925231934,147.92769197237777L139.388703695933,146.6314576562797L139.5434081395467,146.61682844143675L139.69811258316042,146.80515360435587L140.0075214703878,145.1790370228212L140.16222591400145,146.36287471462455L140.47163480122884,144.54084943968502L140.7810436884562,145.84116419475657L140.9357481320699,148.1444897784306L141.0904525756836,146.34240013019104L141.2451570192973,148.8309174556436L141.55456590652466,149.85040013231352L141.70927035013833,149.75345827703302L141.86397479375205,150.7804603551845L142.32808812459308,151.69024255726876L142.4827925682068,152.47688761970144L142.63749701182047,153.25459180033533L143.10161034266153,151.81752240354638L143.25631478627523,151.12109258294333L144.02983700434368,148.64231483829155L144.18454144795737,145.06313480270384L144.33924589157104,141.3057866655711L144.80335922241213,141.52440540803937L144.9580636660258,143.6675359778433L145.1127681096395,143.46258222814492L145.42217699686688,143.5313200051714L145.57688144048055,144.30197879365247L145.73158588409424,143.84589414165274L145.8862903277079,144.05732064679611L146.1956992149353,145.95982599841525L146.350403658549,145.42778093967988L146.50510810216267,145.50823229226353L146.65981254577636,145.14541323724725L146.96922143300375,144.75525757007006L147.12392587661742,143.32671910755096L147.27863032023112,143.14245915622735L147.4333347638448,142.92150884819208L147.74274365107217,142.87787663769436L147.89744809468587,143.175911519074L148.05215253829954,143.64189206511554L148.20685698191326,143.63915437909296L148.51626586914062,142.46834125057637L148.6709703127543,143.34328117910923L148.82567475636802,142.8629152276654L148.9803791999817,142.95227331166274L149.44449253082274,142.76654858753153L149.59919697443647,142.4294434371348L149.75390141805013,142.48936772608346L150.0633103052775,142.59837299077267L150.2180147488912,140.5583972490041L150.3727191925049,141.311799598715L150.52742363611858,140.6959906409646L150.83683252334595,142.56910434133897L150.99153696695964,142.6444425281865L151.14624141057334,141.76530903631405L151.300945854187,142.64870448358025L151.61035474141437,141.31563770536636L151.7650591850281,139.3562777638849L151.91976362864176,141.93317890812716L152.07446807225546,141.15766509463097L152.38387695948285,142.0610203133921L152.53858140309652,143.2400934496985L152.6932858467102,144.95227504906745L152.84799029032388,144.43689172394483L153.31210362116497,142.72020847056928L153.46680806477863,138.92479419829849L153.62151250839233,134.01711613284996L153.93092139561972,126.92076684342925L154.08562583923342,116.98021478668807L154.24033028284708,112.05243145051791L154.39503472646075,124.83496937573602L154.70444361368817,130.93415488042126L154.85914805730184,137.3550204141292L155.01385250091553,141.44266108699136L155.1685569445292,142.01213201497856L155.4779658317566,143.4642828120526L155.6326702753703,144.14393117906025L155.78737471898395,141.65483374527378L155.94207916259768,139.1372725083039L156.4061924934387,125.21981629119935L156.5608969370524,111.03887700299008L157.02501026789346,115.18866477082373L157.17971471150716,119.49522198778322L157.33441915512083,123.97181359319106L157.48912359873455,125.62353475869214L157.7985324859619,122.67864590401796L158.1079413731893,110.826489856528L158.26264581680297,98.60575258876393L158.57205470403034,92.06295672818796L158.72675914764403,89.68042785634736L158.88146359125776,85.19679199093558L159.03616803487142,82.7904745254016L159.3455769220988,74.85230531399223L159.5002813657125,72.49398076070597L159.65498580932618,64.96122750707389L159.80969025293987,58.414781639503296L160.11909914016724,46.18899167265892L160.42850802739463,17.956255943547287L160.5832124710083,-4.052387872920282L162.13025690714517,-3.9943720968591983L162.43966579437256,9.426008229944388L162.59437023798625,9.176523957462875L162.90377912521362,17.43578626516933L163.213188012441,28.966846748247416L163.36789245605468,30.981167727824683L163.52259689966837,33.539770220730254L163.67730134328204,42.69952887915287L163.98671023050946,49.914642861531796L164.14141467412313,48.250095836108066L164.2961191177368,49.090522304726655L164.4508235613505,50.48145124365327L164.76023244857788,50.11628766153444L164.91493689219158,54.669910876504495L165.06964133580524,64.16883825806869L165.22434577941897,65.49661272441716L165.53375466664633,69.08033852125897L165.68845911026,71.27431827728647L165.8431635538737,71.72993045428355L165.9978679974874,70.82892424536023L166.30727688471475,72.28680853486979L166.46198132832845,72.93069561104775L166.77139021555584,78.47424764203488L167.0807991027832,84.64072225741045L167.3902079900106,92.38042952306768L167.54491243362426,97.13422747422479L167.85432132085162,98.28729747046751L168.00902576446535,101.55658982607046L168.16373020807902,99.59245753041611L168.3184346516927,98.6119173663703L168.62784353892008,97.3993328704176L168.7825479825338,95.56629827565226L168.93725242614747,93.33146855307129L169.09195686976113,91.57488743873789L169.4013657569885,93.51001403704001L169.55607020060222,96.25433866627397L169.71077464421592,95.80064158797246L169.86547908782958,98.73399369072276L170.17488797505698,106.55011929202004L170.32959241867067,115.16937189503278L170.48429686228434,115.49634075267062L170.63900130589803,117.73815179695306L170.94841019312543,119.33930677201224L171.1031146367391,124.68162494733564L171.2578190803528,121.65046299236556L171.41252352396646,123.3752544214481L171.72193241119385,126.8693236536861L171.87663685480754,128.99467570812203L172.0313412984212,128.77952694550734L172.1860457420349,132.2514624059285L172.4954546292623,131.10875816079343L172.65015907287597,134.87944478288588L172.80486351648966,135.0338241773847L172.95956796010333,136.0953044148571L173.26897684733072,136.32911010668883L173.42368129094442,136.8813099710067L173.57838573455808,136.04792026865186L173.7330901781718,135.23409977021512L174.04249906539917,139.2258597714838L174.19720350901284,137.50303422247026L174.35190795262653,134.1101924922951L174.50661239624026,133.51704479980387L174.81602128346762,133.48731675394433L174.9707257270813,134.77719497214395L175.125430170695,133.39287981173112L175.28013461430868,133.871002961112L175.58954350153604,134.30064208616247L175.89895238876343,136.2196413502448L176.05365683237713,133.27061781155365L176.3630657196045,137.94151331350324L176.51777016321816,134.398087365355L176.67247460683188,134.92241192273033L177.1365879376729,137.0291819610618L177.29129238128664,138.92035186771693L177.4459968249003,140.4143820455697L177.600701268514,141.47180155688113L177.91011015574136,142.16252300196268L178.21951904296876,145.1358155713432L178.37422348658242,146.68702030298678L178.68363237380984,141.2487929438239L178.8383368174235,129.64651881253707L178.9930412610372,134.82062340306416L179.14774570465087,133.19202253919107L179.45715459187826,135.43718930468899L179.61185903549196,138.2295914940804L179.76656347910563,137.65527194892826L179.92126792271932,135.42843888191143L180.23067680994671,131.42460564917243L180.38538125356038,128.07987062406602L180.54008569717408,126.87142562726036L181.00419902801514,127.59015005109543L181.15890347162883,129.45953250587894L181.3136079152425,129.87866611294618L181.4683123588562,132.43210442246294L181.7777212460836,133.38252819630912L181.93242568969725,135.88829614142338L182.08713013331095,135.95264835061795L182.24183457692465,134.56952426226445L182.551243464152,135.35989095203476L182.86065235137937,132.18509144676625L183.0153567949931,125.2519388520916L183.32476568222046,98.04601022821205L183.47947012583413,101.26321812885924L183.63417456944785,117.7490024423268L183.78887901306155,130.93101988670023L184.09828790028888,137.24508899739513L184.4076967875163,136.2738654612257L184.56240123112997,140.4912657625104L184.87181011835733,140.21663725107072L185.02651456197103,143.60663350442607L185.18121900558472,142.36403691654067L185.33592344919842,140.98523714115183L185.64533233642578,133.0140469139511L185.80003678003948,132.4106307436577L186.10944566726684,132.43502085504286L186.4188545544942,131.28582820384162L186.57355899810793,127.7570641484683L186.7282634417216,130.55135983551543L186.8829678853353,124.81745480863209L187.19237677256268,122.38885724137134L187.34708121617635,123.86366356690479L187.50178565979004,122.30351090713506L187.6564901034037,118.89067123635056L187.9658989906311,119.79759623533985L188.27530787785847,119.77383925822026L188.43001232147216,124.0407183520409L188.73942120869955,124.40666476464517L188.89412565231325,136.00712199797547L189.04883009592692,142.17795027176084L189.20353453954058,147.10823720564323L189.512943426768,150.61435995119896L189.66764787038167,149.6795538674892L189.82235231399537,148.3989651988046L189.97705675760903,147.7096649378934L190.28646564483643,147.0384369808349L190.44117008845012,142.8901212566658L190.5958745320638,141.15309012884737L190.7505789756775,138.6942711208959L191.05998786290488,135.8190899375638L191.21469230651854,134.11704934383036L191.36939675013224,134.33671935672606L191.52410119374593,137.48009160615308L191.8335100809733,137.99893068403773L191.988214524587,136.49882380129293L192.14291896820066,133.77235987038466L192.29762341181439,133.862150870036L192.60703229904175,134.09032176895113L192.76173674265542,133.34502871128487L192.91644118626914,132.38994682518486L193.0711456298828,129.38523730039446L193.38055451711017,128.5657037072964L193.53525896072387,125.90780692923367L193.84466784795126,109.59179747184643L194.15407673517862,112.87370525904456L194.30878117879234,117.95804282716219L194.463485622406,124.82642026650402L194.92759895324707,132.96077137203537L195.08230339686077,140.02325461732227L195.23700784047446,142.7575054507371L195.39171228408813,144.50131169496035L195.7011211713155,141.16929563131586L196.01053005854288,139.23652236675207L196.16523450215658,132.03489039271759L196.47464338938397,130.60495940465626L196.62934783299764,129.92627151516226L196.78405227661133,126.97741651418146L196.938756720225,122.939236834541L197.2481656074524,122.11669739983918L197.4028700510661,117.8356643548577L197.55757449467976,112.14812952541708L197.71227893829345,100.22828413853622L198.3310967127482,82.1668110779802L198.48580115636187,70.97931705287573L198.7952100435893,63.396907827104656L198.94991448720296,59.909659098913394L199.10461893081663,51.6079083370143L199.25932337443032,39.38553997023432L199.56873226165771,47.2400335187291L199.7234367052714,54.56648338325628L199.87814114888508,59.843215433987666L200.0328455924988,60.98410728842681L200.49695892333983,64.4158983455058L200.65166336695353,68.86436004765709L200.80636781056722,71.90787072807167L201.1157766977946,73.50474373566256L201.27048114140828,74.1710755815458L201.42518558502198,77.47939541813452L201.57989002863567,79.62369083446973L201.88929891586304,81.08777629474375L202.0440033594767,79.86663143593597L202.19870780309043,81.18674514474388L202.3534122467041,81.27145408405076L202.66282113393146,79.59888609056952L202.81752557754518,77.42403957709907L202.97223002115885,72.65221543105557L203.12693446477255,69.13583573381108L203.59104779561363,65.27586243448019L203.7457522392273,73.40467955164424L204.20986557006833,69.29054287383971L204.36457001368206,58.64995125775161L204.51927445729575,53.29769157240712L204.67397890090942,49.67910051954783L204.9833877881368,44.411597088733195L205.1380922317505,40.02787859711241L205.29279667536417,38.56436477473809L205.44750111897787,38.95177274332412L205.91161444981893,39.63462390257236L206.06631889343262,47.4042199087438L206.2210233370463,40.188528123028874L206.53043222427368,37.683379308860886L206.68513666788738,44.49056979449081L206.99454555511474,48.838986353925414L207.30395444234213,55.86288877731595L207.6133633295695,56.86551103431341L207.76806777318316,58.66875666537838L208.23218110402425,60.58042075323886L208.38688554763792,61.43725059597984L208.54158999125164,62.42219250850806L208.850998878479,61.74124738792603L209.00570332209267,63.78596106297271L209.16040776570637,65.0990023355844L209.3151122093201,66.39283151360783L209.62452109654745,65.99687911043124L209.77922554016112,67.85641246019259L210.0886344273885,65.65855973768635L210.39804331461588,63.461980884863834L210.55274775822957,63.241838037144966L210.70745220184327,64.21612409805536L210.86215664545696,64.3367161736325L211.17156553268433,64.28586587886538L211.326269976298,66.50102009005212L211.48097441991172,66.39418781010828L211.63567886352538,62.790379923469494L211.94508775075275,63.7980346938185L212.09979219436647,66.37908772297367L212.25449663798014,67.79733482356923L212.7186099688212,70.06999862005766L212.8733144124349,71.56389216502218L213.0280188560486,71.14131048380487L213.18272329966226,72.27388923224143L213.49213218688968,74.43385098109921L213.64683663050334,72.38670041291405L213.80154107411704,74.4842407434991L213.9562455177307,73.27474816384237L214.2656544049581,70.59896027006477L214.4203588485718,71.57205435800357L214.57506329218546,71.8226737659997L214.72976773579916,69.91933041070462L215.03917662302655,71.22999556092331L215.19388106664022,73.2195809490518L215.3485855102539,73.28356100046912L215.50328995386758,72.13048066054215L215.81269884109497,70.31763398399764L215.96740328470867,68.92868215444108L216.12210772832233,68.0777755778338L216.58622105916342,65.69437092833721L216.7409255027771,67.25869088415125L216.89562994639078,67.4507279830447L217.05033439000448,67.9653702195969L217.35974327723184,67.95517085572065L217.51444772084554,67.8901203667736L217.6691521644592,66.10059010607327L218.1332654953003,65.4630226758336L218.28796993891396,61.14447452684535L218.44267438252768,63.28872004281618L218.59737882614138,65.9080333188585L218.90678771336871,66.2025825596882L219.0614921569824,66.30861361199695L219.21619660059613,68.38163976294369L219.68030993143717,67.41733680173368L219.83501437505086,68.65896291052861L219.98971881866456,66.09255902066039L220.14442326227825,64.80748635627235L220.45383214950562,62.740394288318L220.6085365931193,62.18723297847539L220.763241036733,61.70532552123331L220.91794548034667,62.448140499979004L221.22735436757404,61.11113752136573L221.69146769841512,60.25058794392437L222.00087658564252,58.90688043554291L222.15558102925618,60.188666656527204L222.31028547286988,60.703690944106775L222.46498991648355,57.66968722671991L222.77439880371094,56.48093991277114L222.92910324732463,57.85712682171969L223.0838076909383,56.394394371467435L223.238512134552,57.43714327911939L223.5479210217794,57.039811282795434L223.70262546539308,56.88591897997573L224.01203435262042,54.7958443115944L224.32144323984784,55.61391798414063L224.4761476834615,55.85078100178779L224.6308521270752,54.4313500073454L224.78555657068887,54.93303746305726L225.09496545791626,53.605102343961015L225.24966990152996,56.02871722493328L225.40437434514362,55.38333308697926L225.55907878875735,55.50742100092523L225.8684876759847,54.86519842957385L226.17789656321207,56.074993819105224L226.33260100682577,56.23969266044278L226.64200989405313,53.147117756473705L226.79671433766683,55.25584002407319L226.9514187812805,54.43968194575153L227.10612322489422,54.47330171104473L227.41553211212158,55.41882208241918L227.57023655573525,54.74779091263036L227.72494099934897,53.92726593614566L228.3437587738037,49.91508372819531L228.49846321741742,50.1991871526982L228.6531676610311,51.20586593731846L228.96257654825845,50.81615852509481L229.27198543548585,50.95295452392708L229.42668987909954,51.437417196530184L229.7360987663269,50.36920617145267L229.8908032099406,51.12427992401L230.0455076535543,50.43754455243031L230.50962098439533,47.91534880207326L230.66432542800905,49.816463732591565L230.9737343152364,51.4197738174366L231.2831432024638,50.976493161346475L231.43784764607747,48.963606106361105L231.59255208969117,50.02250265029094L231.74725653330484,47.50279612684151L232.05666542053223,46.45511742156708L232.21136986414592,48.68058579997127L232.3660743077596,49.18185321318267L232.52077875137329,49.990529651479335L232.83018763860068,50.9761841008256L232.98489208221434,50.80100501252975L233.13959652582804,45.768328607451615L233.2943009694417,44.69911990238838L233.60370985666913,47.73149781492124L233.7584143002828,48.9105300666514L233.91311874389646,47.67825644222987L234.06782318751016,48.45611040138072L234.37723207473755,48.34594428353008L234.53193651835124,46.034740114425L234.6866409619649,48.80734507707169L234.84134540557864,47.5973489557823L235.150754292806,44.52743785633192L235.30545873641967,47.60712664363061L235.61486762364706,46.77692144995702L235.92427651087442,45.04563309218396L236.07898095448812,45.89060053027209L236.3883898417155,44.530388758202626L236.69779872894287,44.633312276810315L236.85250317255654,42.783676000086594L237.00720761617026,44.36680443967356L237.16191205978393,43.86387055737494L237.4713209470113,41.96061048026087L237.62602539062502,44.38718898736672L237.78072983423868,45.214502591495354L237.93543427785238,42.17326939790924L238.24484316507974,45.60748684888582L238.39954760869347,45.08979504274475L238.55425205230713,42.708095127920096L238.7089564959208,42.61469028809445L239.01836538314816,45.66539224086561L239.1730698267619,42.16380535408001L239.32777427037558,41.03898273178329L239.48247871398925,41.83284867715516L239.94659204483034,41.79306925139799L240.101296488444,42.3583678450266L240.2560009320577,40.757834148005L240.5654098192851,42.54376936133778L240.87481870651246,41.60675783481955L241.02952315012612,40.83116670225414L241.33893203735352,39.20420001611784L241.4936364809672,40.48029705370188L242.11245425542197,39.235027109646964L242.26715869903563,36.82330989398734L242.42186314264933,39.65997541655408L242.576567586263,41.76549283452851L243.04068091710408,41.937439208818155L243.19538536071775,41.17157878207505L243.35008980433147,41.25028544266642L243.65949869155884,41.513948201589415L243.8142031351725,42.774489071353635L243.9689075787862,43.29691223681415L244.12361202239993,40.693837991116894L244.4330209096273,41.26286720119919L244.58772535324096,42.1630678520641L244.74242979685468,43.18183426207705L244.89713424046835,40.70617067029211L245.2065431276957,40.7954240632981L245.3612475713094,40.8443412729268L245.5159520149231,43.923745143358374L245.6706564585368,45.45550700007128L245.98006534576416,44.02214964098566L246.13476978937783,47.50566638524873L246.28947423299155,46.099924831578335L246.44417867660522,44.94379974983075L246.75358756383258,46.18857200458937L246.9082920074463,44.17452009328701L247.06299645105997,45.065410106086425L247.21770089467367,46.62151082224608L247.52710978190103,48.853618301785666" fill="none"></path></g></g></g></g><g opacity="0.2"><g><g><g><path style="fill: none;" stroke="rgb(255, 112, 67)" stroke-width="2px" d="M31.095593166351318,142.77070991693884L31.405002053578695,140.0727996316861L31.71441094080607,143.51590772171826L31.86911538441976,144.8502030317328L32.023819828033446,138.3343174141392L32.178524271647134,124.52786513172066L32.48793315887451,124.52786513172066L32.79734204610189,124.52786513172066L32.95204648971558,144.76855728883484L33.261455376942955,135.70454636216198L33.570864264170325,135.70454636216198L33.72556870778402,141.9350290577378L34.03497759501139,135.92768640753593L34.18968203862508,135.92768640753593L34.34438648223877,135.92768640753593L34.49909092585246,135.92768640753593L34.808499813079834,112.01739174653665L34.96320425669352,102.78001587564181L35.11790870030721,101.95331726981227L35.2726131439209,101.95331726981227L35.58202203114827,99.79005604934817L35.89143091837565,36.25731488810911L36.04613536198934,48.78679222014502L36.35554424921672,118.00807022543059L36.51024869283041,97.28284368272331L36.66495313644409,85.55732979238162L36.81965758005778,78.27738115321108L37.129066467285156,35.7488423210435L37.283770910898845,130.28478553958618L37.43847535451253,95.76102882174465L37.59317979812622,55.980786202340596L37.90258868535359,53.65456065053718L38.05729312896728,82.89712509355003L38.21199757258097,42.764251381896415L38.36670201619466,122.68471419404261L38.67611090342204,120.41455214899035L38.83081534703573,124.7814098355794L39.1402242342631,114.87879643617228L39.44963312149048,113.24544675266968L39.60433756510417,98.90657336872384L39.913746452331544,122.65259922175312L40.223155339558915,111.45428852641584L40.3778597831726,118.51101429629935L40.53256422678629,135.89199758339785L40.68726867039998,115.24294005233736L40.996677557627365,131.21440528098128L41.15138200124105,125.67355175631428L41.30608644485474,131.23104460511527L41.46079088846842,120.09965977272714L41.7701997756958,116.75595487255326L42.07960866292318,133.77254193055182L42.23431310653687,132.4244005328713L42.698426437377925,134.2488332661975L42.853130880991614,148.4467486325044L43.0078353246053,148.4467486325044L43.31724421183268,148.4467486325044L43.626653099060064,92.698722307392L43.78135754267375,143.6968303480071L44.09076642990112,134.4681219996141L44.24547087351481,116.83927572909288L44.4001753171285,103.43094557317276L44.55487976074219,93.00963499463262L44.864288647969566,124.79089317362491L45.01899309158325,123.41928362017848L45.173697535196936,119.35765690039403L45.328401978810625,119.35765690039403L45.637810866038,142.08107660483435L45.79251530965169,142.08107660483435L45.94721975326539,86.57087086368603L46.101924196879075,130.2551925554494L46.411333084106445,126.40387645690575L46.566037527720134,130.9737976723427L46.72074197133382,138.06179361060248L46.87544641494751,141.12340026288976L47.18485530217489,141.9790541087255L47.33955974578858,133.89971390786172L47.49426418940226,145.55052269922L47.64896863301595,149.15287011510154L47.958377520243324,146.49707371904265L48.11308196385701,141.1862677540989L48.2677864074707,152.43816137999116L48.4224908510844,155.45759409574765L48.886604181925456,153.80965083876367L49.041308625539145,156.61455926670237L49.19601306915283,141.52438809678014L49.50542195638021,156.34597374023173L49.6601263999939,152.58319433415272L49.96953528722127,143.58633910678773L50.27894417444865,152.29178874903585L50.433648618062335,147.4314516942431L50.588353061676024,148.13300336743708L51.05246639251708,153.8180201951785L51.20717083613078,161.83283849716975L51.36187527974447,158.851032685117L51.516579723358156,157.20377893720922L51.82598861058553,162.216639333801L51.98069305419922,156.8368979907175L52.13539749781291,161.7036104162181L52.29010194142659,157.55548861342598L52.59951082865397,160.7931882225717L52.75421527226766,157.4348328074762L53.063624159495035,163.52022664274915L53.37303304672242,160.59025617668576L53.527737490336094,148.64496696243822L53.68244193394979,153.5868213830637L53.83714637756348,149.83974953209673L54.146555264790855,157.35491808436123L54.301259708404544,157.35491808436123L54.45596415201823,158.3165741153284L54.61066859563192,153.76857638967877L54.92007748285929,156.5072505343424L55.22948637008667,160.35298637174355L55.38419081370036,160.75640922867794L55.693599700927734,161.5609203434973L55.848304144541416,165.45136038797324L56.003008588155105,163.40268605122935L56.1577130317688,157.90761862100155L56.46712191899618,157.90761862100155L56.621826362609866,160.95955972263457L56.93123524983724,161.74143299141645L57.3953485806783,161.61456021549247L57.55005302429199,162.08533754912608L57.70475746790568,159.81994823206398L58.01416635513306,155.60764410844288L58.168870798746745,159.32865334456727L58.32357524236043,160.3602790172886L58.478279685974115,160.3602790172886L58.7876885732015,155.65931380660615L58.94239301681519,162.06047898691966L59.09709746042888,162.05220694860267L59.251801904042566,160.79530540884932L59.561210791269936,156.11873391116123L59.715915234883624,155.2166841798264L60.025324122111,153.6218248393212L60.48943745295207,162.39906314351404L60.64414189656575,158.3968574048565L60.79884634017944,160.41581245099616L61.26295967102051,160.4096959050166L61.4176641146342,162.00307476807583L61.57236855824789,162.81254185879297L61.88177744547526,159.9078202626263L62.03648188908895,152.1670414417808L62.191186332702635,158.9926284468865L62.345890776316324,161.2908522689828L62.6552996635437,161.92724119327696L62.81000410715739,159.76275003770388L62.96470855077108,160.1048562812012L63.11941299438476,153.9963814919559L63.58352632522583,154.33909856181202L63.73823076883952,156.69053985394694L63.89293521245321,150.34983923606487L64.20234409968059,150.59081334051874L64.35704854329427,154.58942762724618L64.51175298690795,155.80602808620284L64.66645743052165,156.09454311675387L64.97586631774902,156.26383519505106L65.13057076136272,158.0368342783662L65.2852752049764,158.36794150620898L65.43997964859008,158.8518153710954L65.74938853581746,139.42696774600407L65.90409297943116,131.05572708714288L66.05879742304484,117.61001021686693L66.21350186665853,104.02128957829942L66.52291075388591,125.06601764803176L66.67761519749959,111.9593239010894L66.83231964111327,128.26687200415324L66.98702408472697,113.11800145644668L67.60584185918172,124.99547238008185L67.76054630279542,103.2934578774911L68.06995519002278,101.24532189618212L68.22465963363648,96.48358463929097L68.37936407725016,100.17353076682174L68.53406852086385,115.14399446459873L68.84347740809123,105.95971700436746L69.1528862953186,106.11280044287857L69.30759073893229,99.07237856028115L69.61699962615967,105.99889271524543L69.77170406977335,98.66841320671622L70.08111295700073,114.14674071579782L70.3905218442281,127.10196194933812L70.5452262878418,128.41962000581645L70.69993073145548,133.0847845800782L70.85463517506916,127.60602414303321L71.16404406229654,139.735859529766L71.31874850591024,149.02089642143193L71.47345294952392,151.36329955405404L71.62815739313761,153.9532861393923L71.937566280365,150.949523707987L72.09227072397869,159.3715706257178L72.24697516759235,153.87848993410452L72.40167961120606,154.59857345784596L72.71108849843344,154.44587722112843L72.86579294204712,146.04423397438026L73.1752018292745,147.26883315274083L73.48461071650188,147.28121532774347L73.63931516011556,150.06682785453677L73.79401960372925,150.22163610103735L73.94872404734294,144.25980519106264L74.25813293457031,127.37108169004803L74.41283737818401,119.28679690157449L74.56754182179769,118.21956108743248L74.72224626541137,125.63069038130507L75.18635959625244,130.84811238427227L75.34106403986613,133.0917376475797L75.49576848347982,136.58245085224164L75.80517737070718,126.97841351822466L75.95988181432088,134.01062755103771L76.11458625793456,134.83926423643288L76.26929070154826,130.38247220384628L76.57869958877563,110.11710887362895L76.73340403238932,102.11741628876052L76.888108476003,86.56400476129325L77.04281291961671,82.08998949598556L77.35222180684408,80.06679179489933L77.66163069407146,111.2098213234286L77.81633513768514,118.45529864998306L78.12574402491252,116.10865286241439L78.2804484685262,105.22051358029583L78.4351529121399,94.05453319942201L78.58985735575358,81.7506102298258L78.89926624298096,83.66648470436726L79.05397068659465,74.09773863970568L79.20867513020833,77.42933882498566L79.36337957382202,83.14598610512516L79.6727884610494,61.27603369521577L79.82749290466309,77.22598127124638L79.98219734827677,71.11919194863188L80.13690179189047,86.19015418251739L80.44631067911783,59.46580940417523L80.7557195663452,57.528839678977064L80.9104240099589,61.47521692373677L81.21983289718628,61.067499646910164L81.37453734079996,53.428169766575564L81.52924178441366,48.51456658269531L81.68394622802734,39.34718520072853L81.99335511525473,63.379976429145415L82.3027640024821,82.1917386731813L82.76687733332317,87.2494223362229L82.92158177693685,99.66234157540772L83.07628622055054,117.85621258083279L83.23099066416422,137.04173843853582L83.5403995513916,144.57027062917274L83.84980843861898,146.9344129683756L84.00451288223267,149.54462101208776L84.31392176946004,146.970563535829L84.46862621307373,136.10053577289912L84.77803510030111,148.02550414007706L85.08744398752849,143.18992108230051L85.24214843114217,146.1562533167956L85.39685287475585,144.82760038585837L85.55155731836955,134.88689212763873L85.86096620559692,141.92939289045398L86.0156706492106,124.29605342264918L86.1703750928243,118.3041077378854L86.32507953643798,136.40849578763908L86.63448842366536,143.79408425732143L86.78919286727904,148.7866766070882L86.94389731089275,151.8943085078636L87.09860175450642,147.72028145566375L87.40801064173381,156.9875940299346L87.5627150853475,154.01191511685053L87.87212397257487,153.6706723126469L88.18153285980225,156.87640706784552L88.33623730341594,157.20172904536096L88.49094174702962,159.6150687889222L88.64564619064332,159.62816946137067L88.95505507787068,161.48735303801953L89.10975952148438,159.30308353200743L89.26446396509806,163.92561760291764L89.41916840871176,162.20729369051094L89.72857729593913,154.75850850456504L89.88328173955281,153.90430821840354L90.0379861831665,155.03569529440713L90.19269062678019,151.2557671971288L90.50209951400757,139.75405180226988L90.65680395762125,155.37766280785007L90.81150840123495,156.54332656027407L91.275621732076,160.91561024846752L91.43032617568969,158.13787116990963L91.58503061930338,160.16932434453025L91.73973506291706,158.47942456378726L92.04914395014444,155.07879892936202L92.20384839375815,156.0506381604401L92.51325728098551,157.3684494411576L92.82266616821289,156.963871190636L92.97737061182659,156.7987513669593L93.13207505544027,155.9362562659047L93.28677949905396,160.39308763985L93.75089282989502,155.40315600829032L93.9055972735087,157.9079913286103L94.0603017171224,160.09684513821034L94.36971060434978,160.5340673987661L94.52441504796346,151.19185198341944L94.67911949157715,159.0866418706023L94.83382393519084,162.13933149334963L95.14323282241821,158.3401665069639L95.2979372660319,156.06424819995388L95.45264170964559,143.81501593074984L95.60734615325927,132.76334911468314L95.91675504048665,142.42014528132015L96.07145948410033,144.52618760144588L96.22616392771403,144.9502170479499L96.38086837132771,148.63603854461024L96.8449817021688,151.8347974557313L96.99968614578246,150.0264511969194L97.15439058939617,149.34331335019675L97.46379947662354,151.44780686314826L97.61850392023723,152.226697435761L97.77320836385091,143.75393122426934L97.92791280746461,146.7466097455092L98.23732169469199,148.69422648473142L98.39202613830567,158.88417053273278L98.54673058191935,159.79223949194935L98.70143502553304,151.7534084669638L99.01084391276042,154.03329196881162L99.1655483563741,155.43279247498145L99.3202527999878,159.55248289901746L99.47495724360148,161.09070103597793L99.78436613082886,156.12154785360747L100.09377501805623,154.24382414401984L100.24847946166992,156.29016698761106L100.71259279251099,153.00329999777546L100.86729723612467,154.4226264781343L101.02200167973835,151.59962723698516L101.33141056696573,156.81392470783211L101.48611501057943,155.8226881163151L101.6408194541931,157.5483015683701L101.79552389780682,142.08465873907426L102.10493278503417,123.09142516032551L102.25963722864788,114.42757589901025L102.41434167226156,111.22579805625813L103.03315944671631,111.8019087719252L103.18786389033001,105.18350785594006L103.34256833394369,108.19281534832481L103.65197722117107,117.05555381326971L103.80668166478475,126.97943639355097L103.96138610839844,141.1554324112662L104.11609055201212,135.26724852478554L104.4254994392395,147.26891390605607L104.73490832646688,147.4640677512066L104.88961277008056,130.0599972983423L105.19902165730794,117.43902438954763L105.35372610092163,109.99611141903779L105.50843054453532,119.79047396407385L105.663134988149,118.0164230170628L106.28195276260375,137.0375848192958L106.43665720621745,138.281620699454L106.74606609344484,134.3568770607859L106.90077053705852,141.3899234739252L107.05547498067219,132.1690419853165L107.2101794242859,147.68788488206985L107.51958831151327,129.32977612764216L107.67429275512696,139.04968825722747L107.82899719874065,151.78036765066526L107.98370164235433,149.83015231117076L108.29311052958171,158.39464600637777L108.44781497319539,155.3703391033376L108.60251941680909,156.0940171849059L108.75722386042277,145.54549528769718L109.06663274765015,148.0251003735009L109.22133719126384,155.58171401186124L109.37604163487752,152.96572692961522L109.5307460784912,147.48485862398283L109.84015496571858,146.85550041460866L109.99485940933228,147.40579284597672L110.14956385294596,137.21194157987668L110.30426829655966,124.652668345117L110.61367718378702,137.07495082767338L110.76838162740071,136.57262793615257L110.9230860710144,141.50341708199304L111.07779051462809,143.28909443580005L111.38719940185547,141.12779821267333L111.85131273269654,151.48515009494974L112.16072161992392,151.75483717946412L112.3154260635376,149.82053024307086L112.4701305071513,144.56543992444344L112.62483495076498,147.83869687476525L112.93424383799235,140.4673189179664L113.08894828160604,140.82633159271734L113.24365272521973,134.7833084007687L113.39835716883341,108.00599773002386L113.70776605606079,99.86362853132047L114.01717494328817,77.03666237077098L114.17187938690185,83.1463091183861L114.48128827412923,61.61422029702746L114.63599271774292,43.54610912119459L114.9454016049703,15.215767256638316L115.25481049219766,-2.922338408122613L115.40951493581136,0.5216289800075629L115.56421937942504,-20.721048241941162L118.03949047724406,-2.656738683717805L118.34889936447144,7.961485748125455L118.50360380808513,-22.47540780362189L118.65830825169881,6.900726763984835L118.81301269531251,-6.998467595084065L119.12242158253987,11.076128693141499L119.27712602615357,9.272853328406796L119.58653491338094,13.95031725375813L119.89594380060832,7.947339423774594L120.050648244222,15.886144008956052L120.20535268783568,-16.314335688387047L124.22766822179159,-4.632271222837289L124.53707710901897,17.384908974929772L124.69178155263265,18.559318932573035L124.84648599624633,22.45984485906203L125.00119043986003,28.073765639831663L125.3105993270874,27.62153050973464L125.46530377070108,24.031544562877485L125.62000821431478,-1.1707948594859658L125.77471265792846,22.057420030280042L126.08412154515584,8.201343800350827L126.39353043238322,23.044631379622274L126.5482348759969,16.97488091092876L126.85764376322427,20.33647163512822L127.01234820683798,17.930238183307637L127.16705265045167,-3.5686962256525874L127.32175709406535,13.906453709400893L127.63116598129272,12.750911039152982L127.9405748685201,16.459600218209516L128.09527931213378,8.911857020938044L128.40468819936117,35.883729345855045L128.86880153020223,28.813399748251214L129.17821041742963,23.4809146240637L129.3329148610433,45.59707768033026L129.487619304657,50.797963889054756L129.64232374827068,56.40238476699626L129.95173263549805,55.432798346353465L130.10643707911174,63.14078096822453L130.26114152272544,51.3054011572071L130.4158459663391,52.96270765756266L130.87995929718016,84.72475897111605L131.03466374079386,77.38758729041149L131.18936818440756,104.06101192700359L131.49877707163492,90.74989219784347L131.65348151524861,107.14216916396897L131.8081859588623,107.70099867017582L131.962890402476,101.45128840318283L132.27229928970337,112.8253224536665L132.73641262054443,122.32779282309647L133.04582150777182,109.09231203253952L133.2005259513855,88.89587890396744L133.35523039499918,68.03053914753445L133.50993483861288,74.81399155746804L133.81934372584024,61.3884423100225L133.97404816945394,60.10676710257361L134.12875261306763,62.5794004854954L134.2834570566813,56.84690070839598L134.5928659439087,64.59102768592697L134.7475703875224,85.39782750060827L134.90227483113608,143.50242812986755L135.05697927474975,150.67716141108073L135.36638816197714,159.74770093270067L135.52109260559084,158.40470290002122L135.6757970492045,155.60997560159555L135.8305014928182,158.52028781189384L136.13991038004556,157.25958776042773L136.29461482365926,164.00626738826102L136.60402371088665,160.3831384172935L136.913432598114,158.22530837492837L137.0681370417277,158.70143820394358L137.22284148534138,156.97863869433485L137.37754592895507,163.78637714617582L137.68695481618246,157.17528544051834L137.84165925979613,151.54021971474415L137.99636370340983,157.7057166975343L138.15106814702352,155.2972635648437L138.46047703425089,149.373223135801L138.61518147786458,152.7631396382674L138.92459036509194,145.0855927338485L139.23399925231934,144.91562149946424L139.388703695933,144.6871061821326L139.5434081395467,146.59488461917232L139.69811258316042,147.08764134873456L140.0075214703878,142.73986215051917L140.16222591400145,148.13863125232962L140.47163480122884,141.80781152727573L140.7810436884562,147.79163632736385L140.9357481320699,151.59947815394167L141.0904525756836,143.6392656578317L141.2451570192973,152.56369344382244L141.55456590652466,151.3796241473184L141.70927035013833,149.60804549411225L141.86397479375205,152.32096347241168L142.32808812459308,153.05491586039523L142.4827925682068,153.65685521335044L142.63749701182047,154.42114807128615L143.10161034266153,149.66191830836294L143.25631478627523,150.07644785203883L144.02983700434368,144.92414822131389L144.18454144795737,139.69436474932232L144.33924589157104,135.6697644598719L144.80335922241213,141.8523335217418L144.9580636660258,146.8822318325492L145.1127681096395,143.1551516035974L145.42217699686688,143.6344266707111L145.57688144048055,145.45796697637405L145.73158588409424,143.16176716365317L145.8862903277079,144.37446040451115L146.1956992149353,148.81358402584397L146.350403658549,144.6297133515768L146.50510810216267,145.628909321139L146.65981254577636,144.60118465472286L146.96922143300375,144.17002406930425L147.12392587661742,141.1839114137723L147.27863032023112,142.8660692292419L147.4333347638448,142.5900833861392L147.74274365107217,142.81242832194778L147.89744809468587,143.62296384114342L148.05215253829954,144.34086288417788L148.20685698191326,143.63504785005904L148.51626586914062,140.71212155780154L148.6709703127543,144.65569107190845L148.82567475636802,142.14236630049967L148.9803791999817,143.0863104376587L149.44449253082274,142.4879615013347L149.59919697443647,141.92378571153975L149.75390141805013,142.57925415950646L150.0633103052775,142.7618808878065L150.2180147488912,137.4984336363512L150.3727191925049,142.44190312328135L150.52742363611858,139.77227720433902L150.83683252334595,145.37877489190055L150.99153696695964,142.75744980845772L151.14624141057334,140.44660879850545L151.300945854187,143.97379765447954L151.61035474141437,139.3160375380455L151.7650591850281,136.41723785166272L151.91976362864176,145.7985306244906L152.07446807225546,139.99439437438667L152.38387695948285,143.4160531415338L152.53858140309652,145.0087031541581L152.6932858467102,147.5205474481209L152.84799029032388,143.66381673626088L153.31210362116497,140.14518359050598L153.46680806477863,133.23167278989231L153.62151250839233,126.65559903467714L153.93092139561972,116.27624290929816L154.08562583923342,102.0693867015763L154.24033028284708,104.6607564462627L154.39503472646075,144.00877626356313L154.70444361368817,140.08293313744915L154.85914805730184,146.9863187146911L155.01385250091553,147.57412209628458L155.1685569445292,142.86633840695936L155.4779658317566,145.64250900766365L155.6326702753703,145.16340372957174L155.78737471898395,137.92118759459407L155.94207916259768,135.36093065284913L156.4061924934387,104.34363196554249L156.5608969370524,89.76746807067617L157.02501026789346,121.4133464225742L157.17971471150716,125.9550578132225L157.33441915512083,130.68670100130285L157.48912359873455,128.10111650694378L157.7985324859619,118.26131262200666L158.1079413731893,93.04825578529308L158.26264581680297,80.27464668711784L158.57205470403034,82.24876293732397L158.72675914764403,86.10663454858643L158.88146359125776,78.47133819281791L159.03616803487142,79.1809983271006L159.3455769220988,62.94505149687819L159.5002813657125,68.95649393077659L159.65498580932618,53.66209762662575L159.80969025293987,48.59511283814737L160.11909914016724,27.850306722392418L160.42850802739463,-24.392847650120217L161.9755524635315,-5.5798596121710204L162.13025690714517,4.5423324043484286L162.43966579437256,29.556578720149787L162.59437023798625,8.802297548740626L162.90377912521362,29.824679726729045L163.213188012441,46.263437472864524L163.36789245605468,34.00264919719061L163.52259689966837,37.3776739600886L163.67730134328204,56.43916686678676L163.98671023050946,60.737313835100196L164.14141467412313,45.753275297972465L164.2961191177368,50.35116200765455L164.4508235613505,52.56784465204316L164.76023244857788,49.56854228835621L164.91493689219158,61.50034569895955L165.06964133580524,78.417229330415L165.22434577941897,67.48827442393986L165.53375466664633,74.45592721652166L165.68845911026,74.56528791132773L165.8431635538737,72.4133487197791L165.9978679974874,69.4774149319753L166.30727688471475,74.47363496913415L166.46198132832845,73.89652622531469L166.77139021555584,86.78957568851555L167.0807991027832,93.89043418047376L167.3902079900106,103.98999042155357L167.54491243362426,104.26492440096038L167.85432132085162,100.01690246483162L168.00902576446535,106.4605283594749L168.16373020807902,96.64625908693456L168.3184346516927,97.1411071203016L168.62784353892008,95.58045612648851L168.7825479825338,92.81674638350428L168.93725242614747,89.97922396919986L169.09195686976113,88.94001576723778L169.4013657569885,96.41270393449315L169.55607020060222,100.37082561012494L169.71077464421592,95.12009597052018L169.86547908782958,103.13402184484819L170.17488797505698,118.27430769396597L170.32959241867067,128.09825079955186L170.48429686228434,115.98679403912737L170.63900130589803,121.10086836337672L170.94841019312543,121.74103923460103L171.1031146367391,132.69510221032067L171.2578190803528,117.10372005991047L171.41252352396646,125.96244156507191L171.72193241119385,132.11042750204308L171.87663685480754,132.18270378977599L172.0313412984212,128.4568038015853L172.1860457420349,137.4593655965602L172.4954546292623,129.39470179309086L172.65015907287597,140.5354747160245L172.80486351648966,135.26539326913297L172.95956796010333,137.68752477106568L173.26897684733072,136.67981864443644L173.42368129094442,137.70960976748347L173.57838573455808,134.79783571511962L173.7330901781718,134.01336902256003L174.04249906539917,145.21349977338681L174.19720350901284,134.91879589894992L174.35190795262653,129.02092989703243L174.50661239624026,132.627323261067L174.81602128346762,133.44272468515499L174.9707257270813,136.71201229944336L175.125430170695,131.31640707111185L175.28013461430868,134.58818768518336L175.58954350153604,134.94510077373818L175.89895238876343,139.0981402463683L176.05365683237713,128.84708250351687L176.3630657196045,144.94785656642767L176.51777016321816,129.0829484431327L176.67247460683188,135.70889875879334L177.1365879376729,140.18933701855894L177.29129238128664,141.75710672769964L177.4459968249003,142.65542731234888L177.600701268514,143.05793082384827L177.91011015574136,143.198605169585L178.21951904296876,149.59575442541396L178.37422348658242,149.01382740045216L178.68363237380984,133.09145190507962L178.8383368174235,112.24310761560682L178.9930412610372,142.58178028885482L179.14774570465087,130.74912124338147L179.45715459187826,138.80493945293586L179.61185903549196,142.41819477816756L179.76656347910563,136.7937926312L179.92126792271932,132.08818928138612L180.23067680994671,125.41885580006398L180.38538125356038,123.06276808640632L180.54008569717408,125.05875813205193L181.00419902801514,128.66823668684805L181.15890347162883,132.2636061880542L181.3136079152425,130.50736652354698L181.4683123588562,136.26226188673814L181.7777212460836,134.80816385707837L181.93242568969725,139.64694805909474L182.08713013331095,136.04917666440983L182.24183457692465,132.49483812973423L182.551243464152,136.5454409866902L182.86065235137937,127.4228921888635L183.0153567949931,114.85220996007962L183.32476568222046,57.23711729239274L183.47947012583413,106.08902997982999L183.63417456944785,142.47767891252815L183.78887901306155,150.7040460532604L184.09828790028888,146.71619266343748L184.4076967875163,134.81703015697158L184.56240123112997,146.81736621443744L184.87181011835733,139.8046944839112L185.02651456197103,148.6916278844591L185.18121900558472,140.50014203471258L185.33592344919842,138.91703747806858L185.64533233642578,121.05726157314999L185.80003678003948,131.50550648821763L186.10944566726684,132.47160602212057L186.4188545544942,129.5620392270398L186.57355899810793,122.46391806540828L186.7282634417216,134.7428033660861L186.8829678853353,116.21659726830711L187.19237677256268,118.7459608904802L187.34708121617635,126.07587305520494L187.50178565979004,119.96328191748049L187.6564901034037,113.77141173017382L187.9658989906311,121.15798373382376L188.27530787785847,119.7382037925409L188.43001232147216,130.44103699277187L188.73942120869955,124.95558438355155L188.89412565231325,153.40780784797093L189.04883009592692,151.4341926824388L189.20353453954058,154.5036676064669L189.512943426768,155.87354406953253L189.66764787038167,148.2773447419246L189.82235231399537,146.4780821957777L189.97705675760903,146.67571454652662L190.28646564483643,146.03159504524712L190.44117008845012,136.6676476704121L190.5958745320638,138.54754343711974L190.7505789756775,135.00604260896864L191.05998786290488,131.50631816256563L191.21469230651854,131.5639884532302L191.36939675013224,134.66622437606966L191.52410119374593,142.19514998029362L191.8335100809733,138.77718930086468L191.988214524587,134.24866347717574L192.14291896820066,129.6826639740222L192.29762341181439,133.996837369513L192.60703229904175,134.43257811732389L192.76173674265542,132.2270891247855L192.91644118626914,130.9573239960348L193.0711456298828,124.87817301320885L193.38055451711017,127.33640331764929L193.53525896072387,121.92096176213963L193.84466784795126,85.11778328576558L194.15407673517862,117.79656693984174L194.30878117879234,125.58454917933867L194.463485622406,135.12898642551676L194.92759895324707,145.16229803033235L195.08230339686077,150.6169794852526L195.23700784047446,146.8588817008594L195.39171228408813,147.11702106129522L195.7011211713155,136.1712715358491L196.01053005854288,136.33736246990645L196.16523450215658,121.23244243166582L196.47464338938397,128.46006292256428L196.62934783299764,128.9082396809213L196.78405227661133,122.55413401271025L196.938756720225,116.88196731508029L197.2481656074524,120.88288824778648L197.4028700510661,111.41411478738547L197.55757449467976,103.61682728125612L197.71227893829345,82.34851605821494L198.3310967127482,55.07460148714618L198.48580115636187,54.198076015219L198.7952100435893,52.023293988448074L198.94991448720296,54.67878600662648L199.10461893081663,39.15528219416562L199.25932337443032,21.051987420064336L199.56873226165771,59.02177384147127L199.7234367052714,65.55615818004708L199.87814114888508,67.75831351008475L200.0328455924988,62.69544507008551L200.49695892333983,69.56358493112423L200.65166336695353,75.53705260088404L200.80636781056722,76.47313674869356L201.1157766977946,75.90005324704887L201.27048114140828,75.17057335037063L201.42518558502198,82.44187517301758L201.57989002863567,82.84013395897259L201.88929891586304,83.28390448515475L202.0440033594767,78.03491414772428L202.19870780309043,83.16691570795574L202.3534122467041,81.39851749301113L202.66282113393146,77.09003410034765L202.81752557754518,74.16176980689333L202.97223002115885,65.49447921199037L203.12693446477255,63.861266187944324L203.59104779561363,59.48590248548389L203.7457522392273,85.59790522739033L204.20986557006833,63.119337857132976L204.36457001368206,42.689063833619414L204.51927445729575,45.26930204439037L204.67397890090942,44.25121394025891L204.9833877881368,36.51034194251122L205.1380922317505,33.45230085968123L205.29279667536417,36.36909404117657L205.44750111897787,39.532884696203155L205.91161444981893,40.65890064144473L206.06631889343262,59.058613918000916L206.2210233370463,29.36499044445651L206.53043222427368,33.92565608760887L206.68513666788738,54.70135552293567L206.99454555511474,55.36161119307732L207.30395444234213,66.39874241240176L207.6133633295695,58.36944441980958L207.76806777318316,61.37362511197584L208.23218110402425,63.44791688502956L208.38688554763792,62.722495360091315L208.54158999125164,63.899605377300375L208.850998878479,60.719829707052966L209.00570332209267,66.8530315755427L209.16040776570637,67.06856424450199L209.3151122093201,68.33357528064295L209.62452109654745,65.40295050566638L209.77922554016112,70.64571248483465L210.0886344273885,62.36178065392697L210.39804331461588,60.16711260563004L210.55274775822957,62.911623765566674L210.70745220184327,65.67755318942095L210.86215664545696,64.51760428699818L211.17156553268433,64.2095904367147L211.326269976298,69.82375140683222L211.48097441991172,66.23393939019249L211.63567886352538,57.38466809351135L211.94508775075275,65.30951684934199L212.09979219436647,70.25066726670642L212.25449663798014,69.92470547446257L212.7186099688212,73.47899431479033L212.8733144124349,73.8047324824689L213.0280188560486,70.5074379619789L213.18272329966226,73.97275735489626L213.49213218688968,77.67379360438593L213.64683663050334,69.31597456063632L213.80154107411704,77.63055123937666L213.9562455177307,71.46050929435728L214.2656544049581,66.5852784293983L214.4203588485718,73.03169548991175L214.57506329218546,72.19860287799389L214.72976773579916,67.06431537776194L215.03917662302655,73.19599328625135L215.19388106664022,76.20395903124451L215.3485855102539,73.37953107759508L215.50328995386758,70.40086015065168L215.81269884109497,67.59836396918087L215.96740328470867,66.84525441010625L216.12210772832233,66.80141571292293L216.58622105916342,62.11926395409233L216.7409255027771,69.60517081787228L216.89562994639078,67.7387836313849L217.05033439000448,68.73733357442522L217.35974327723184,67.93987180990631L217.51444772084554,67.79254463335296L217.6691521644592,63.41629471502277L218.1332654953003,64.5066715304741L218.28796993891396,54.66665230336301L218.44267438252768,66.5050883167724L218.59737882614138,69.83700323292202L218.90678771336871,66.64440642093273L219.0614921569824,66.46766019046002L219.21619660059613,71.49117898936386L219.68030993143717,65.97088235991866L219.83501437505086,70.52140207372102L219.98971881866456,62.242953185858L220.14442326227825,62.8798773596903L220.45383214950562,59.639756186386464L220.6085365931193,61.35749101371151L220.763241036733,60.98246433537018L220.91794548034667,63.56236296809759L221.22735436757404,59.105633053445786L221.69146769841512,58.95976357776232L222.00087658564252,56.891319172970725L222.15558102925618,62.11134598800368L222.31028547286988,61.476227375476114L222.46498991648355,53.1186816506396L222.77439880371094,54.697818941847956L222.92910324732463,59.92140718514254L223.0838076909383,54.20029569608904L223.238512134552,59.00126664059731L223.5479210217794,56.4438132883095L223.70262546539308,56.65508052574613L224.01203435262042,51.660732309022464L224.32144323984784,56.841028492959936L224.4761476834615,56.206075528258495L224.6308521270752,52.302203515681825L224.78555657068887,55.685568646625086L225.09496545791626,51.613199665316614L225.24966990152996,59.664139546391695L225.40437434514362,54.415256880048204L225.55907878875735,55.69355287184419L225.8684876759847,53.90186457254676L226.17789656321207,57.88968690340231L226.33260100682577,56.486740922449144L226.64200989405313,48.50825540052004L226.79671433766683,58.41892342547237L226.9514187812805,53.21544482826906L227.10612322489422,54.52373135898452L227.41553211212158,56.83710263948083L227.57023655573525,53.74124415794708L227.72494099934897,52.69647847141859L228.3437587738037,43.89681041626983L228.49846321741742,50.625342289452504L228.6531676610311,52.71588411424884L228.96257654825845,50.231597406759334L229.27198543548585,51.15814852217551L229.42668987909954,52.16411120543481L229.7360987663269,48.7668896338364L229.8908032099406,52.256890552846016L230.0455076535543,49.40744149506078L230.50962098439533,44.13205517653769L230.66432542800905,52.66813612836903L230.9737343152364,53.82473894470412L231.2831432024638,50.311572177211275L231.43784764607747,45.94427552388301L231.59255208969117,51.610847466185675L231.74725653330484,43.72323634166737L232.05666542053223,44.88359936365545L232.21136986414592,52.01878836757754L232.3660743077596,49.93375433299978L232.52077875137329,51.20354430892438L232.83018763860068,52.45466577484497L232.98489208221434,50.53823638008599L233.13959652582804,38.219313999834384L233.2943009694417,43.09530684479353L233.60370985666913,52.28006468372055L233.7584143002828,50.67907844424664L233.91311874389646,45.82984600559759L234.06782318751016,49.622891340107L234.37723207473755,48.180695106754115L234.53193651835124,42.56793386076734L234.6866409619649,52.96625252104168L234.84134540557864,45.78235477384827L235.150754292806,39.922571207156324L235.30545873641967,52.22665982457866L235.61486762364706,45.53161365944665L235.92427651087442,42.44870055552437L236.07898095448812,47.15805168740428L236.3883898417155,42.49007110009846L236.69779872894287,44.78769755472183L236.85250317255654,40.009221585001L237.00720761617026,46.741497099054044L237.16191205978393,43.109469733927L237.4713209470113,39.10572036458977L237.62602539062502,48.0270567480255L237.78072983423868,46.45547299768833L237.93543427785238,37.61141960753005L238.24484316507974,50.758813025350705L238.39954760869347,44.31325733353309L238.55425205230713,39.13554525568313L238.7089564959208,42.47458302835601L239.01836538314816,50.24144517002232L239.1730698267619,36.911425023901614L239.32777427037558,39.35174879833821L239.48247871398925,43.023647595212935L239.94659204483034,41.73340011276221L240.101296488444,43.206315735469516L240.2560009320577,38.357033602472626L240.5654098192851,45.22267218133689L240.87481870651246,40.2012405450422L241.02952315012612,39.66778000340601L241.33893203735352,36.76374998691341L241.4936364809672,42.394442610077945L242.11245425542197,37.3671221935646L242.26715869903563,33.2057340704979L242.42186314264933,43.91497370040416L242.576567586263,44.923768961490154L243.04068091710408,42.195358770252625L243.19538536071775,40.02278814196043L243.35008980433147,41.36834543355346L243.65949869155884,41.90944233997389L243.8142031351725,44.66530037599992L243.9689075787862,44.0805469850049L244.12361202239993,36.78922662257105L244.4330209096273,42.116411016322644L244.58772535324096,43.51336882836148L244.74242979685468,44.70998387709646L244.89713424046835,36.9926752826147L245.2065431276957,40.92930415280709L245.3612475713094,40.91771708736982L245.5159520149231,48.542850949005725L245.6706564585368,47.75314978514065L245.98006534576416,41.87211360235719L246.13476978937783,52.73094150164337L246.28947423299155,43.99131250107271L246.44417867660522,43.209612127209354L246.75358756383258,48.055730386727305L246.9082920074463,41.15344222633344L247.06299645105997,46.4017451252855L247.21770089467367,48.955661896485594L247.52710978190103,52.20177952109506" fill="none"></path></g></g></g></g></g></g><g transform="translate(51, 177)" clip-path="url(#clip_1)"><clipPath id="clip_1"><rect width="278" height="22"></rect></clipPath><g><g><line x1="0" y1="0" x2="0" y2="5" style="visibility: inherit;" fill="rgb(0, 0, 0)" stroke="rgb(204, 204, 204)" stroke-width="1px"></line><line x1="30.94088872273763" y1="0" x2="30.94088872273763" y2="5" style="visibility: inherit;" fill="rgb(0, 0, 0)" stroke="rgb(204, 204, 204)" stroke-width="1px"></line><line x1="61.88177744547526" y1="0" x2="61.88177744547526" y2="5" style="visibility: inherit;" fill="rgb(0, 0, 0)" stroke="rgb(204, 204, 204)" stroke-width="1px"></line><line x1="92.82266616821289" y1="0" x2="92.82266616821289" y2="5" style="visibility: inherit;" fill="rgb(0, 0, 0)" stroke="rgb(204, 204, 204)" stroke-width="1px"></line><line x1="123.76355489095052" y1="0" x2="123.76355489095052" y2="5" style="visibility: inherit;" fill="rgb(0, 0, 0)" stroke="rgb(204, 204, 204)" stroke-width="1px"></line><line x1="154.70444361368817" y1="0" x2="154.70444361368817" y2="5" style="visibility: inherit;" fill="rgb(0, 0, 0)" stroke="rgb(204, 204, 204)" stroke-width="1px"></line><line x1="185.64533233642578" y1="0" x2="185.64533233642578" y2="5" style="visibility: inherit;" fill="rgb(0, 0, 0)" stroke="rgb(204, 204, 204)" stroke-width="1px"></line><line x1="216.58622105916342" y1="0" x2="216.58622105916342" y2="5" style="visibility: inherit;" fill="rgb(0, 0, 0)" stroke="rgb(204, 204, 204)" stroke-width="1px"></line><line x1="247.52710978190103" y1="0" x2="247.52710978190103" y2="5" style="visibility: inherit;" fill="rgb(0, 0, 0)" stroke="rgb(204, 204, 204)" stroke-width="1px"></line><line x1="278.4679985046387" y1="0" x2="278.4679985046387" y2="5" style="visibility: inherit;" fill="rgb(0, 0, 0)" stroke="rgb(204, 204, 204)" stroke-width="1px"></line></g><g transform="translate(0, 8)"><text style="text-anchor: middle; visibility: hidden; font-family: Roboto, sans-serif; font-size: 12px; font-weight: 200;" x="0" y="0" dx="0em" dy="0.95em" fill="rgb(50, 49, 63)" stroke="none" stroke-width="1px">-200</text><text style="text-anchor: middle; visibility: inherit; font-family: Roboto, sans-serif; font-size: 12px; font-weight: 200;" x="30.94088872273763" y="0" dx="0em" dy="0.95em" fill="rgb(50, 49, 63)" stroke="none" stroke-width="1px">0</text><text style="text-anchor: middle; visibility: inherit; font-family: Roboto, sans-serif; font-size: 12px; font-weight: 200;" x="61.88177744547526" y="0" dx="0em" dy="0.95em" fill="rgb(50, 49, 63)" stroke="none" stroke-width="1px">200</text><text style="text-anchor: middle; visibility: inherit; font-family: Roboto, sans-serif; font-size: 12px; font-weight: 200;" x="92.82266616821289" y="0" dx="0em" dy="0.95em" fill="rgb(50, 49, 63)" stroke="none" stroke-width="1px">400</text><text style="text-anchor: middle; visibility: inherit; font-family: Roboto, sans-serif; font-size: 12px; font-weight: 200;" x="123.76355489095052" y="0" dx="0em" dy="0.95em" fill="rgb(50, 49, 63)" stroke="none" stroke-width="1px">600</text><text style="text-anchor: middle; visibility: inherit; font-family: Roboto, sans-serif; font-size: 12px; font-weight: 200;" x="154.70444361368817" y="0" dx="0em" dy="0.95em" fill="rgb(50, 49, 63)" stroke="none" stroke-width="1px">800</text><text style="text-anchor: middle; visibility: inherit; font-family: Roboto, sans-serif; font-size: 12px; font-weight: 200;" x="185.64533233642578" y="0" dx="0em" dy="0.95em" fill="rgb(50, 49, 63)" stroke="none" stroke-width="1px">1k</text><text style="text-anchor: middle; visibility: inherit; font-family: Roboto, sans-serif; font-size: 12px; font-weight: 200;" x="216.58622105916342" y="0" dx="0em" dy="0.95em" fill="rgb(50, 49, 63)" stroke="none" stroke-width="1px">1.2k</text><text style="text-anchor: middle; visibility: inherit; font-family: Roboto, sans-serif; font-size: 12px; font-weight: 200;" x="247.52710978190103" y="0" dx="0em" dy="0.95em" fill="rgb(50, 49, 63)" stroke="none" stroke-width="1px">1.4k</text><text style="text-anchor: middle; visibility: hidden; font-family: Roboto, sans-serif; font-size: 12px; font-weight: 200;" x="278.4679985046387" y="0" dx="0em" dy="0.95em" fill="rgb(50, 49, 63)" stroke="none" stroke-width="1px">1.6k</text></g><line x1="0" y1="0" x2="278.4679985046387" y2="0" fill="rgb(0, 0, 0)" stroke="rgb(204, 204, 204)" stroke-width="1px"></line></g></g></g></g></svg>