<svg viewBox="0 0 330 200" xmlns="http://www.w3.org/2000/svg"><g><g><g><g><g><line x1="51.53200149536133" y1="173.0862453758101" x2="46.53200149536133" y2="173.0862453758101" style="visibility: inherit;" fill="rgb(0, 0, 0)" stroke="rgb(204, 204, 204)" stroke-width="1px"></line><line x1="51.53200149536133" y1="165.036708447451" x2="46.53200149536133" y2="165.036708447451" style="visibility: inherit;" fill="rgb(0, 0, 0)" stroke="rgb(204, 204, 204)" stroke-width="1px"></line><line x1="51.53200149536133" y1="112.08030640377108" x2="46.53200149536133" y2="112.08030640377108" style="visibility: inherit;" fill="rgb(0, 0, 0)" stroke="rgb(204, 204, 204)" stroke-width="1px"></line><line x1="51.53200149536133" y1="81.10279703510511" x2="46.53200149536133" y2="81.10279703510511" style="visibility: inherit;" fill="rgb(0, 0, 0)" stroke="rgb(204, 204, 204)" stroke-width="1px"></line><line x1="51.53200149536133" y1="59.12390436009113" x2="46.53200149536133" y2="59.12390436009113" style="visibility: inherit;" fill="rgb(0, 0, 0)" stroke="rgb(204, 204, 204)" stroke-width="1px"></line><line x1="51.53200149536133" y1="42.07575073808003" x2="46.53200149536133" y2="42.07575073808003" style="visibility: inherit;" fill="rgb(0, 0, 0)" stroke="rgb(204, 204, 204)" stroke-width="1px"></line><line x1="51.53200149536133" y1="28.14639499142517" x2="46.53200149536133" y2="28.14639499142517" style="visibility: inherit;" fill="rgb(0, 0, 0)" stroke="rgb(204, 204, 204)" stroke-width="1px"></line><line x1="51.53200149536133" y1="16.36929251566477" x2="46.53200149536133" y2="16.36929251566477" style="visibility: inherit;" fill="rgb(0, 0, 0)" stroke="rgb(204, 204, 204)" stroke-width="1px"></line><line x1="51.53200149536133" y1="6.167502316411189" x2="46.53200149536133" y2="6.167502316411189" style="visibility: inherit;" fill="rgb(0, 0, 0)" stroke="rgb(204, 204, 204)" stroke-width="1px"></line></g><g transform="translate(41.53200149536133, 0)"><text style="text-anchor: end; visibility: hidden; font-family: Roboto, sans-serif; font-size: 12px; font-weight: 200;" x="0" y="173.0862453758101" dx="0em" dy="0.3em" fill="rgb(50, 49, 63)" stroke="none" stroke-width="1px">0.09</text><text style="text-anchor: end; visibility: inherit; font-family: Roboto, sans-serif; font-size: 12px; font-weight: 200;" x="0" y="165.036708447451" dx="0em" dy="0.3em" fill="rgb(50, 49, 63)" stroke="none" stroke-width="1px">0.1</text><text style="text-anchor: end; visibility: hidden; font-family: Roboto, sans-serif; font-size: 12px; font-weight: 200;" x="0" y="112.08030640377108" dx="0em" dy="0.3em" fill="rgb(50, 49, 63)" stroke="none" stroke-width="1px">0.2</text><text style="text-anchor: end; visibility: inherit; font-family: Roboto, sans-serif; font-size: 12px; font-weight: 200;" x="0" y="81.10279703510511" dx="0em" dy="0.3em" fill="rgb(50, 49, 63)" stroke="none" stroke-width="1px">0.3</text><text style="text-anchor: end; visibility: hidden; font-family: Roboto, sans-serif; font-size: 12px; font-weight: 200;" x="0" y="59.12390436009113" dx="0em" dy="0.3em" fill="rgb(50, 49, 63)" stroke="none" stroke-width="1px">0.4</text><text style="text-anchor: end; visibility: inherit; font-family: Roboto, sans-serif; font-size: 12px; font-weight: 200;" x="0" y="42.07575073808003" dx="0em" dy="0.3em" fill="rgb(50, 49, 63)" stroke="none" stroke-width="1px">0.5</text><text style="text-anchor: end; visibility: hidden; font-family: Roboto, sans-serif; font-size: 12px; font-weight: 200;" x="0" y="28.14639499142517" dx="0em" dy="0.3em" fill="rgb(50, 49, 63)" stroke="none" stroke-width="1px">0.6</text><text style="text-anchor: end; visibility: inherit; font-family: Roboto, sans-serif; font-size: 12px; font-weight: 200;" x="0" y="16.36929251566477" dx="0em" dy="0.3em" fill="rgb(50, 49, 63)" stroke="none" stroke-width="1px">0.7</text><text style="text-anchor: end; visibility: hidden; font-family: Roboto, sans-serif; font-size: 12px; font-weight: 200;" x="0" y="6.167502316411189" dx="0em" dy="0.3em" fill="rgb(50, 49, 63)" stroke="none" stroke-width="1px">0.8</text></g><line x1="51.53200149536133" y1="0" x2="51.53200149536133" y2="177.86299896240234" fill="rgb(0, 0, 0)" stroke="rgb(204, 204, 204)" stroke-width="1px"></line></g></g><g transform="translate(51, 0)" clip-path="url(#clip_0)"><clipPath id="clip_0"><rect width="278" height="177"></rect></clipPath><g><g><g><line x1="0" y1="0" x2="0" y2="177.86299896240234" fill="rgb(0, 0, 0)" stroke="rgb(60, 60, 60)" stroke-width="1px" opacity="0.25"></line><line x1="30.94088872273763" y1="0" x2="30.94088872273763" y2="177.86299896240234" fill="rgb(0, 0, 0)" stroke="rgb(60, 60, 60)" stroke-width="1px" opacity="0.25"></line><line x1="61.88177744547526" y1="0" x2="61.88177744547526" y2="177.86299896240234" fill="rgb(0, 0, 0)" stroke="rgb(60, 60, 60)" stroke-width="1px" opacity="0.25"></line><line x1="92.82266616821289" y1="0" x2="92.82266616821289" y2="177.86299896240234" fill="rgb(0, 0, 0)" stroke="rgb(60, 60, 60)" stroke-width="1px" opacity="0.25"></line><line x1="123.76355489095052" y1="0" x2="123.76355489095052" y2="177.86299896240234" fill="rgb(0, 0, 0)" stroke="rgb(60, 60, 60)" stroke-width="1px" opacity="0.25"></line><line x1="154.70444361368817" y1="0" x2="154.70444361368817" y2="177.86299896240234" fill="rgb(0, 0, 0)" stroke="rgb(60, 60, 60)" stroke-width="1px" opacity="0.25"></line><line x1="185.64533233642578" y1="0" x2="185.64533233642578" y2="177.86299896240234" fill="rgb(0, 0, 0)" stroke="rgb(60, 60, 60)" stroke-width="1px" opacity="0.25"></line><line x1="216.58622105916342" y1="0" x2="216.58622105916342" y2="177.86299896240234" fill="rgb(0, 0, 0)" stroke="rgb(60, 60, 60)" stroke-width="1px" opacity="0.25"></line><line x1="247.52710978190103" y1="0" x2="247.52710978190103" y2="177.86299896240234" fill="rgb(0, 0, 0)" stroke="rgb(60, 60, 60)" stroke-width="1px" opacity="0.25"></line><line x1="278.4679985046387" y1="0" x2="278.4679985046387" y2="177.86299896240234" fill="rgb(0, 0, 0)" stroke="rgb(60, 60, 60)" stroke-width="1px" opacity="0.25"></line></g><g><line x1="0" y1="173.0862453758101" x2="278.4679985046387" y2="173.0862453758101" fill="rgb(0, 0, 0)" stroke="rgb(60, 60, 60)" stroke-width="1px" opacity="0.25"></line><line x1="0" y1="165.036708447451" x2="278.4679985046387" y2="165.036708447451" fill="rgb(0, 0, 0)" stroke="rgb(60, 60, 60)" stroke-width="1px" opacity="0.25"></line><line x1="0" y1="112.08030640377108" x2="278.4679985046387" y2="112.08030640377108" fill="rgb(0, 0, 0)" stroke="rgb(60, 60, 60)" stroke-width="1px" opacity="0.25"></line><line x1="0" y1="81.10279703510511" x2="278.4679985046387" y2="81.10279703510511" fill="rgb(0, 0, 0)" stroke="rgb(60, 60, 60)" stroke-width="1px" opacity="0.25"></line><line x1="0" y1="59.12390436009113" x2="278.4679985046387" y2="59.12390436009113" fill="rgb(0, 0, 0)" stroke="rgb(60, 60, 60)" stroke-width="1px" opacity="0.25"></line><line x1="0" y1="42.07575073808003" x2="278.4679985046387" y2="42.07575073808003" fill="rgb(0, 0, 0)" stroke="rgb(60, 60, 60)" stroke-width="1px" opacity="0.25"></line><line x1="0" y1="28.14639499142517" x2="278.4679985046387" y2="28.14639499142517" fill="rgb(0, 0, 0)" stroke="rgb(60, 60, 60)" stroke-width="1px" opacity="0.25"></line><line x1="0" y1="16.36929251566477" x2="278.4679985046387" y2="16.36929251566477" fill="rgb(0, 0, 0)" stroke="rgb(60, 60, 60)" stroke-width="1px" opacity="0.25"></line><line x1="0" y1="6.167502316411189" x2="278.4679985046387" y2="6.167502316411189" fill="rgb(0, 0, 0)" stroke="rgb(60, 60, 60)" stroke-width="1px" opacity="0.25"></line></g></g></g><g><g><line x1="30.94088872273763" y1="0" x2="30.94088872273763" y2="177.86299896240234" fill="rgb(0, 0, 0)" stroke="rgb(153, 153, 153)" stroke-width="1.5px"></line></g></g><g><g><g><g><g><path style="fill: none;" stroke="rgb(255, 112, 67)" stroke-width="2px" d="M31.095593166351318,18.697465030178112L31.250297609965006,21.046907532330465L31.405002053578695,26.198728206160848L32.023819828033446,40.317148855303074L32.178524271647134,48.334132894361964L32.48793315887451,47.408440878845695L32.6426376024882,33.80961469985803L32.95204648971558,47.24136283999906L33.261455376942955,74.33955747479301L33.416159820556636,28.56874529041916L33.570864264170325,-13.0601931290601L33.72556870778402,-7.696296246268659L34.03497759501139,7.895681081987609L34.18968203862508,18.210420204302377L34.49909092585246,50.80828556053034L34.808499813079834,55.2340075836959L34.96320425669352,75.23732494397161L35.11790870030721,93.24500903380348L35.2726131439209,27.528955416290582L35.58202203114827,62.528509319995L35.73672647476196,85.09821494971631L35.89143091837565,49.87056193278572L36.04613536198934,80.70737786304353L36.35554424921672,84.45681249367121L36.66495313644409,86.05977844689727L36.81965758005778,59.34318470433147L37.129066467285156,46.10087445441656L37.283770910898845,45.75644418046197L37.43847535451253,67.56763906720555L37.59317979812622,81.61470276727508L38.05729312896728,80.6990735144569L38.21199757258097,23.57690773470142L38.36670201619466,55.303761311479526L38.67611090342204,80.62401686214002L38.83081534703573,92.16584372996873L38.98551979064942,88.83149796353928L39.1402242342631,93.61702964492292L39.44963312149048,101.86283614323453L39.60433756510417,106.07353069752571L39.759042008717856,70.83789312214137L39.913746452331544,86.77328514221642L40.223155339558915,90.49545882139647L40.3778597831726,88.65574486579533L40.53256422678629,75.35016035871153L40.68726867039998,73.9608374785133L40.996677557627365,74.0371850152184L41.15138200124105,75.28532241984638L41.30608644485474,69.06130120955665L41.7701997756958,56.08927163598599L41.92490421930949,50.1191966026353L42.07960866292318,40.45969124431662L42.23431310653687,33.52028716357111L42.698426437377925,47.0265709892192L42.853130880991614,72.38503523608863L43.0078353246053,73.73569469487059L43.31724421183268,78.99453122657377L43.471948655446376,61.564835467834804L43.626653099060064,73.69929046964263L43.78135754267375,59.87303066925465L44.09076642990112,63.518678704979976L44.24547087351481,75.41742207615454L44.4001753171285,78.5846362952245L44.55487976074219,69.15917570628321L44.864288647969566,77.75379158059533L45.01899309158325,94.9584138094941L45.173697535196936,117.09401068281285L45.328401978810625,143.32801894958519L45.79251530965169,93.133384970971L45.94721975326539,114.56886100353584L46.411333084106445,136.40895151432733L46.566037527720134,92.38387537989053L46.72074197133382,114.03461858758986L46.87544641494751,63.000299129996854L47.18485530217489,2.942019787726832L47.49426418940226,31.59190715631634L47.64896863301595,52.3273852846085L47.958377520243324,58.06683312769997L48.11308196385701,78.20345388043363L48.2677864074707,104.48333817132198L48.4224908510844,129.06560946199752L48.73189973831177,129.04197287721047L48.886604181925456,110.06485444713798L49.041308625539145,39.96550222972859L49.19601306915283,59.55067793451659L49.50542195638021,78.98240268048154L49.6601263999939,83.85163194144295L49.81483084360758,89.16996566349304L49.96953528722127,93.59113769188002L50.27894417444865,100.77846766343784L50.433648618062335,100.38177117139632L50.588353061676024,93.26790709244746L50.74305750528971,80.39035663287308L51.05246639251708,66.7089272624281L51.20717083613078,45.78121571654371L51.36187527974447,44.832147481947935L51.516579723358156,50.0957650404266L51.82598861058553,80.94747278669077L51.98069305419922,48.43146105991625L52.13539749781291,50.0684554041084L52.29010194142659,52.09768881705276L52.59951082865397,62.72590535055414L52.75421527226766,42.25522086071571L52.908919715881346,56.82131614074515L53.37303304672242,61.81464932249351L53.527737490336094,90.9911154472468L53.68244193394979,65.59588343117213L53.83714637756348,96.64661069828834L54.146555264790855,-4.7366044964793454L54.301259708404544,21.42954164250897L54.45596415201823,36.258866146142296L54.61066859563192,55.8601098628321L54.92007748285929,63.27998565158939L55.07478192647298,75.87943826287405L55.22948637008667,82.9700537091563L55.38419081370036,55.85983446571195L55.693599700927734,84.43256814600072L55.848304144541416,44.72476381135385L56.003008588155105,5.461349710510677L56.1577130317688,21.207525903445113L56.46712191899618,36.350731698719166L56.621826362609866,20.898674718431764L56.776530806223555,24.929583708759107L56.93123524983724,21.07397589452066L57.24064413706461,39.41938056011617L57.3953485806783,64.63483792843472L57.55005302429199,62.88048054602265L57.70475746790568,73.52271874821957L58.01416635513306,26.08465801489943L58.168870798746745,45.603086859537896L58.32357524236043,60.920547833872185L58.478279685974115,49.76710948189891L58.94239301681519,49.40105347616621L59.09709746042888,46.284145032978L59.251801904042566,50.50148493633746L59.561210791269936,78.03046870148683L59.715915234883624,69.87791851406953L59.87061967849731,88.80664767930749L60.025324122111,77.75149994637414L60.33473300933838,49.83341140147636L60.48943745295207,16.079141018306974L60.64414189656575,29.725934446154813L60.79884634017944,22.387639409431713L61.10825522740682,49.19461099796767L61.26295967102051,74.05685265426646L61.57236855824789,96.05977332963087L61.88177744547526,42.598928563108046L62.03648188908895,67.54971944783352L62.191186332702635,27.283259580276095L62.345890776316324,41.09278084123168L62.6552996635437,59.157126668094044L62.81000410715739,67.70512401846106L62.96470855077108,81.04962883033663L63.11941299438476,92.40492112141041L63.42882188161214,103.85420977914757L63.58352632522583,40.80756355682558L63.89293521245321,47.072804386556285L64.20234409968059,25.823422291874362L64.35704854329427,37.84023141361483L64.51175298690795,52.02365189110173L64.66645743052165,13.316636639725232L64.97586631774902,35.57758053820981L65.13057076136272,15.18024964944925L65.2852752049764,26.387808490096333L65.43997964859008,54.46974459400959L65.74938853581746,69.56224109955392L66.05879742304484,46.162513067546946L66.21350186665853,45.6403694285829L66.52291075388591,50.143148517981636L66.67761519749959,52.2847622752226L66.83231964111327,68.43118814184027L66.98702408472697,82.6811871053581L67.29643297195435,46.559465012494215L67.45113741556804,26.05243504936035L67.60584185918172,47.72745668088897L67.76054630279542,70.35897247676166L68.06995519002278,73.19074945711188L68.22465963363648,103.87792972941061L68.37936407725016,86.9925391401791L68.53406852086385,85.49545206546179L68.84347740809123,29.056512977797926L68.99818185170491,57.27266843129336L69.1528862953186,73.33296784601862L69.30759073893229,96.38452673797354L69.61699962615967,115.42107537289318L69.92640851338705,95.65566157052949L70.3905218442281,111.14757666270671L70.5452262878418,84.70888100046542L70.69993073145548,101.80366325756044L70.85463517506916,108.20820008856062L71.16404406229654,76.61860429425691L71.47345294952392,87.6385626389208L71.62815739313761,87.60463241995645L71.937566280365,90.7419115121683L72.09227072397869,66.37221537776013L72.24697516759235,93.52642397999294L72.71108849843344,107.36610465178747L72.86579294204712,32.450652283404374L73.02049738566082,51.43287612261602L73.1752018292745,77.77263462612632L73.48461071650188,101.98614249239859L73.63931516011556,77.44472234778563L73.79401960372925,100.80932165864742L73.94872404734294,129.1608552490561L74.25813293457031,64.34870657269983L74.41283737818401,60.052267573577154L74.56754182179769,87.02391128633973L74.72224626541137,99.37359853659483L75.03165515263875,89.47623878925249L75.18635959625244,87.75447911390825L75.34106403986613,37.882792084099755L75.49576848347982,36.06735888550854L75.80517737070718,61.938189882201144L75.95988181432088,34.8043380603861L76.11458625793456,47.24942949248567L76.26929070154826,75.58506477970732L76.57869958877563,58.85966823874144L77.04281291961671,37.28657603448452L77.35222180684408,39.99201376129426L77.50692625045777,21.968163558434338L77.66163069407146,28.478967004410066L77.81633513768514,10.271726832167849L78.12574402491252,26.61925038501217L78.2804484685262,51.51904538862066L78.4351529121399,80.77649941653421L78.58985735575358,111.52866947101292L78.89926624298096,67.45924847295481L79.05397068659465,86.12803668633765L79.20867513020833,100.97460779683341L79.36337957382202,116.67131455063115L79.6727884610494,112.53625932904404L79.82749290466309,83.18398311187357L79.98219734827677,84.40360044805156L80.13690179189047,98.70764182817051L80.44631067911783,101.18882075058099L80.60101512273152,111.31478291180703L80.7557195663452,105.75242307609379L80.9104240099589,86.89233513807234L81.21983289718628,81.05098559574944L81.37453734079996,-1.0829724987997473L81.52924178441366,18.501737498347605L81.99335511525473,19.189826753141688L82.3027640024821,43.34179021961756L82.45746844609579,58.526701177486494L82.76687733332317,7.811136830418208L82.92158177693685,31.091018267710698L83.07628622055054,-4.853353315189531L83.23099066416422,25.40899985177177L83.5403995513916,50.73014686793818L83.6951039950053,76.12092566619187L83.84980843861898,27.111051434542333L84.00451288223267,57.11139917045601L84.31392176946004,73.84068169096439L84.46862621307373,91.88983880171081L84.62333065668741,73.30713713587879L84.77803510030111,59.61941233075529L85.08744398752849,60.91090655170286L85.24214843114217,74.58145005059946L85.55155731836955,57.372811320929124L85.86096620559692,75.57403385492137L86.0156706492106,53.97957101526639L86.1703750928243,81.50860390083788L86.32507953643798,33.21501301581672L86.63448842366536,37.734663064331095L86.78919286727904,67.7380358903611L86.94389731089275,88.70414930615688L87.09860175450642,93.03728276318004L87.40801064173381,80.91294595399363L87.5627150853475,97.04530112672711L87.71741952896119,112.4576858339431L87.87212397257487,98.79367774923644L88.18153285980225,19.215022937156952L88.33623730341594,39.41304908762016L88.49094174702962,64.22166668769921L88.64564619064332,49.51341472441212L88.95505507787068,31.73528226438305L89.10975952148438,19.626600794948033L89.41916840871176,51.7627831094578L89.72857729593913,66.3534621592155L90.0379861831665,94.31669462610074L90.65680395762125,49.375735135614036L90.81150840123495,53.71653137086003L90.96621284484863,84.5040430994446L91.275621732076,28.117067987968753L91.43032617568969,23.60470174133501L91.58503061930338,41.91350115204537L91.73973506291706,68.01106320066883L92.04914395014444,89.4009395977228L92.20384839375815,101.879885852293L92.35855283737183,47.02659334199259L92.51325728098551,27.40656609237942L92.82266616821289,26.227956244223023L92.97737061182659,47.46563229903504L93.13207505544027,68.51081307922516L93.28677949905396,98.37134264544297L93.59618838628134,86.01414287532769L93.75089282989502,27.911438379236817L93.9055972735087,50.42082025297429L94.0603017171224,45.85394414643642L94.36971060434978,33.26320336464918L94.52441504796346,64.46038854770826L94.67911949157715,84.51458660744007L94.83382393519084,91.56413685955731L95.2979372660319,95.07828712407282L95.45264170964559,91.00490289765352L95.60734615325927,97.98424026053289L95.91675504048665,94.4490325980954L96.07145948410033,113.38679152755499L96.22616392771403,89.40361957770853L96.38086837132771,102.53748615970616L96.69027725855508,58.31059943925384L96.8449817021688,54.862741776162416L96.99968614578246,68.67438572932154L97.15439058939617,66.86115686944798L97.46379947662354,90.96391662286658L97.61850392023723,73.84080248574536L97.77320836385091,51.198839300800536L97.92791280746461,2.8951395364618127L98.23732169469199,22.96912244390964L98.54673058191935,-2.5173804529883883L98.70143502553304,-9.117589544105636L99.01084391276042,9.239359267263845L99.1655483563741,33.555337290680384L99.3202527999878,20.01279103888541L99.47495724360148,41.890195970356274L99.78436613082886,50.647860042425314L99.93907057444254,68.87504983147139L100.09377501805623,66.32169084275033L100.24847946166992,42.15540904743793L100.86729723612467,70.36661360062475L101.02200167973835,29.99016626135471L101.33141056696573,56.276765039192895L101.48611501057943,50.06829732336929L101.6408194541931,4.50831654745683L101.79552389780682,21.0691072625259L102.10493278503417,47.6748733809202L102.25963722864788,56.61021381395852L102.41434167226156,49.11599822283914L102.56904611587525,69.40647623054674L102.87845500310263,94.43443037024652L103.18786389033001,98.03201460339238L103.34256833394369,57.5014855099477L103.65197722117107,75.39462515579464L103.80668166478475,102.28189039665355L103.96138610839844,97.22107480387383L104.4254994392395,96.6553826105101L104.58020388285318,121.26830163858581L104.88961277008056,112.93344037767689L105.19902165730794,100.36388962984162L105.35372610092163,9.641474705479164L105.50843054453532,35.73457274633538L105.663134988149,29.64788135359841L105.97254387537637,52.84403291538522L106.12724831899007,75.9198045501896L106.28195276260375,83.78483236990598L106.43665720621745,83.05877106717382L106.74606609344484,34.024152676344386L106.90077053705852,37.28232871736236L107.2101794242859,33.8617298379134L107.67429275512696,32.1918034293185L107.98370164235433,15.229496518548183L108.29311052958171,36.39141036512661L108.44781497319539,30.095737940403485L108.60251941680909,51.60954155731535L108.75722386042277,75.32608870373794L109.06663274765015,86.78152696132648L109.22133719126384,102.50614436599675L109.37604163487752,28.707958421310607L109.5307460784912,36.880729120716445L109.84015496571858,61.2850104722142L109.99485940933228,67.30063094523832L110.14956385294596,67.53809065140723L110.30426829655966,82.96332817272604L110.61367718378702,43.28159472394683L110.76838162740071,48.152902130249245L110.9230860710144,46.70803612344258L111.07779051462809,49.65840662158476L111.38719940185547,58.18823799673368L111.54190384546915,83.06250669606405L111.69660828908283,46.97315321149947L111.85131273269654,69.22808496296912L112.4701305071513,83.65688811594116L112.62483495076498,113.2390286056472L112.93424383799235,137.5349522984273L113.08894828160604,100.86107922242068L113.24365272521973,89.74433962545916L113.39835716883341,96.72939139193407L113.70776605606079,41.13766316770208L113.86247049967449,62.29377322928984L114.01717494328817,76.89163983943288L114.17187938690185,83.00958182848998L114.48128827412923,66.3367113014082L114.63599271774292,93.60870561126893L114.7906971613566,100.48189763624538L114.9454016049703,119.11497111279517L115.25481049219766,61.520257103270445L115.40951493581136,92.69303091124428L115.56421937942504,111.47286579948434L115.71892382303874,111.48083544980089L116.02833271026611,112.46919281449225L116.33774159749349,134.61686324435195L116.49244604110717,113.31626659210004L116.95655937194823,87.86091236863943L117.11126381556194,92.06432349719915L117.26596825917562,105.95804987868814L117.575377146403,88.42189122669194L117.73008159001668,96.48835195271197L117.88478603363038,85.75686215783684L118.03949047724406,91.50018546307398L118.34889936447144,59.347326633642L118.50360380808513,64.35004514109158L118.65830825169881,59.6904035668569L118.81301269531251,59.298914925004944L119.12242158253987,60.61406783952805L119.27712602615357,32.915921025197015L119.43183046976725,52.051300747814786L119.58653491338094,51.638167544633966L119.89594380060832,49.7899078354739L120.050648244222,35.88042232529804L120.20535268783568,58.5354251951282L120.36005713144938,71.44942641592812L120.82417046229044,-0.30753685142292114L120.97887490590414,33.448700741235946L121.13357934951782,65.22799829516923L121.4429882367452,44.245757385321326L121.59769268035888,30.921384031032L121.75239712397259,65.27185969251184L121.90710156758625,78.14037584812309L122.21651045481364,30.963882210608006L122.37121489842734,5.664031537135777L122.52591934204102,17.971703178727306L122.6806237856547,30.281881652354112L122.99003267288208,64.07391831581623L123.14473711649578,54.126969070677866L123.29944156010946,35.84949019620889L123.76355489095052,39.252797878693855L123.91825933456421,64.88587766206258L124.0729637781779,64.28080398899357L124.22766822179159,85.14716069636096L124.53707710901897,98.27411073837929L124.69178155263265,74.34116169248115L124.84648599624633,73.10064382868724L125.00119043986003,87.14111984466103L125.3105993270874,108.00895944496258L125.46530377070108,126.3446302591195L125.62000821431478,123.47047882419216L125.77471265792846,20.770524216401977L126.08412154515584,51.415246960508135L126.23882598876952,75.22555179853063L126.39353043238322,77.97702049390193L126.5482348759969,85.75699898603031L126.85764376322427,103.22171418622777L127.01234820683798,120.12924708657715L127.16705265045167,124.6304853091434L127.63116598129272,70.59908233238754L127.78587042490642,77.7166344190851L127.9405748685201,99.96228194324478L128.40468819936117,99.08161161863404L128.55939264297484,81.57010863319974L128.71409708658854,85.96451486021586L128.86880153020223,68.82218480156548L129.3329148610433,95.86462372911825L129.487619304657,79.25679823365681L129.64232374827068,71.06383105916971L129.95173263549805,59.017508911016286L130.10643707911174,65.19905086832789L130.26114152272544,68.69551467566005L130.4158459663391,99.23829176705419L130.7252548535665,56.97176275046277L130.87995929718016,77.65730287023234L131.03466374079386,103.24604973196729L131.18936818440756,114.09968072588273L131.49877707163492,54.07242678582827L131.65348151524861,59.03632134443617L131.8081859588623,85.77407502975804L131.962890402476,114.35834018959022L132.27229928970337,118.24717206400751L132.42700373331706,132.2623729046654L132.58170817693073,100.60464420373144L132.73641262054443,118.43151558434897L133.04582150777182,142.13309488323077L133.2005259513855,122.93323790749942L133.35523039499918,102.20726750440805L133.97404816945394,102.20772731274008L134.12875261306763,95.78009028112074L134.5928659439087,34.72567786302794L134.7475703875224,52.07093925633323L134.90227483113608,66.9962670807818L135.05697927474975,90.77094482936702L135.52109260559084,90.02679894637747L135.6757970492045,107.14119254741696L135.8305014928182,64.36866810239752L136.13991038004556,70.85522014482521L136.29461482365926,64.67913210121945L136.44931926727295,60.227375148912415L136.60402371088665,89.55377554482128L136.913432598114,29.603377706406942L137.0681370417277,30.8761677987236L137.22284148534138,58.27689913776961L137.84165925979613,34.55241641839544L137.99636370340983,64.31232751562344L138.15106814702352,85.61671028765579L138.46047703425089,96.63813969880117L138.61518147786458,79.44925782932832L138.76988592147828,89.16950923746158L138.92459036509194,79.70715233241128L139.23399925231934,83.37418716998675L139.388703695933,95.08310673595399L139.5434081395467,82.07569339686887L139.69811258316042,72.41488824935708L140.0075214703878,68.85325176998943L140.16222591400145,73.29969810770017L140.31693035761518,56.75183350707543L140.47163480122884,53.4718700106346L140.7810436884562,44.29325814114918L140.9357481320699,40.37109119409796L141.0904525756836,47.36307705457425L141.2451570192973,47.8352846680392L141.55456590652466,28.685903542273486L141.70927035013833,39.54332344633801L142.01867923736572,22.98804245351806L142.32808812459308,50.28259427384258L142.4827925682068,73.05154595495583L142.63749701182047,88.48079710190083L142.79220145543417,73.61762908734866L143.10161034266153,73.96511201038521L143.25631478627523,73.62639696927806L143.41101922988892,40.12383998633343L143.5657236735026,49.582749149130564L143.87513256073,43.94568351576993L144.02983700434368,50.20227419508584L144.18454144795737,73.9434805258961L144.33924589157104,96.17999786036482L144.64865477879843,102.684536850094L144.80335922241213,84.57688411470558L145.1127681096395,82.51423197000344L145.42217699686688,32.8802644828107L145.57688144048055,66.38875725323399L145.73158588409424,92.75796524875008L145.8862903277079,97.76872897492868L146.1956992149353,128.81909588789253L146.350403658549,117.02037784255924L146.65981254577636,125.25008598966592L146.96922143300375,116.79756411309853L147.74274365107217,109.3261604668833L147.89744809468587,100.36177226409013L148.05215253829954,88.34793800204322L148.20685698191326,99.46509407771147L148.51626586914062,105.20273139681714L148.6709703127543,53.82106468314719L148.82567475636802,48.876968369915716L148.9803791999817,38.96699619938376L149.28978808720905,38.2065260302415L149.44449253082274,57.265249249925446L149.59919697443647,54.09802596905105L149.75390141805013,79.32146651243195L150.0633103052775,80.76862945638203L150.2180147488912,36.31428736377682L150.3727191925049,35.5323617340937L150.52742363611858,17.957560931900584L150.83683252334595,47.465158315989456L150.99153696695964,73.9323589898776L151.14624141057334,52.75495800594573L151.300945854187,87.29408464432261L151.61035474141437,107.25495116996915L151.7650591850281,113.68258690648092L151.91976362864176,123.91693872904281L152.07446807225546,117.92476823878859L152.38387695948285,113.52689317169784L152.6932858467102,136.93462238982258L152.84799029032388,168.27833519514485L153.15739917755127,181.05772153864828L153.93092139561972,196.17969458853273L154.08562583923342,167.2878437340996L154.24033028284708,133.20142628317984L154.39503472646075,119.07978094565587L154.70444361368817,77.59578497810013L154.85914805730184,89.50632495510827L155.01385250091553,76.08732962421033L155.1685569445292,95.7709553545284L155.4779658317566,102.79862412860612L155.6326702753703,106.59003067662726L155.78737471898395,108.17693861708622L155.94207916259768,97.87507796993691L156.25148804982504,103.361506361601L156.4061924934387,93.22118113990281L156.5608969370524,104.16487951112931L156.7156013806661,102.6082481284942L157.02501026789346,106.42531248169713L157.17971471150716,101.84205818310907L157.33441915512083,105.3875840472129L157.48912359873455,110.54123114506412L157.95323692957558,99.37600647786957L158.1079413731893,100.20840830390436L158.26264581680297,99.95644910850208L158.57205470403034,98.49373620039681L158.72675914764403,106.20653080660233L158.88146359125776,88.7355916085427L159.03616803487142,102.7114722496701L159.3455769220988,100.35004379667707L159.5002813657125,84.5429730788226L159.65498580932618,56.78773933671775L159.80969025293987,54.74169258768924L160.11909914016724,70.72598761883754L160.27380358378093,94.83550583375272L160.42850802739463,119.24218768548033L160.5832124710083,128.14202594337434L160.89262135823566,148.49497493981465L161.20203024546305,143.26155921682667L161.35673468907675,145.21844669628695L161.66614357630414,139.59022375635806L161.8208480199178,146.49713801239272L162.13025690714517,73.44984845153051L162.43966579437256,33.46787789762422L162.74907468159992,55.19201485354428L163.213188012441,48.44624717713379L163.36789245605468,36.515895214946894L163.52259689966837,39.459074877267035L163.67730134328204,39.014817148442184L163.98671023050946,71.40111714244115L164.14141467412313,96.37303697086564L164.2961191177368,123.23255597013387L164.4508235613505,144.44343076731133L164.76023244857788,149.7438041981588L164.91493689219158,131.67312938453148L165.06964133580524,145.6210108437085L165.22434577941897,150.54030655672992L165.68845911026,147.4340992997107L165.8431635538737,164.37859184410834L165.9978679974874,130.5829493219546L166.30727688471475,132.79254677797795L166.46198132832845,137.20218298916973L166.61668577194214,139.35369906590952L167.0807991027832,155.06273033854802L167.3902079900106,149.74469513411034L167.54491243362426,151.03201714051198L167.85432132085162,172.36086657625572L168.00902576446535,136.62997204300973L168.16373020807902,150.02321834090588L168.3184346516927,163.46014199292054L168.62784353892008,167.7007309532502L168.7825479825338,169.94053462117995L168.93725242614747,133.99025253467354L169.09195686976113,128.8098182190862L169.4013657569885,132.6678192421756L169.55607020060222,125.21973661068347L169.71077464421592,115.31846503170347L169.86547908782958,127.17245238604713L170.17488797505698,122.5674129149296L170.32959241867067,116.72147329796903L170.48429686228434,98.60358615961701L171.1031146367391,92.782848919672L171.2578190803528,99.24446650737067L171.41252352396646,106.21232464084943L171.72193241119385,102.538587675874L171.87663685480754,66.0255467775794L172.0313412984212,80.21627599796705L172.1860457420349,75.21463909882165L172.4954546292623,72.74932243617141L172.65015907287597,78.57027407235101L172.80486351648966,82.2525732047407L173.26897684733072,80.42826785727547L173.42368129094442,86.59636272289879L173.57838573455808,88.60605516387342L173.7330901781718,91.96655524246536L174.04249906539917,63.4889926258456L174.19720350901284,73.09195837307098L174.35190795262653,73.8759118254144L174.50661239624026,82.9079830373226L174.81602128346762,84.46467042066122L174.9707257270813,76.26223610086667L175.125430170695,39.02162601107219L175.28013461430868,50.21401323170976L175.58954350153604,67.24851498546174L175.74424794514974,60.00410710669426L175.89895238876343,59.57339884816642L176.05365683237713,68.02306130604954L176.3630657196045,76.24699377938151L176.51777016321816,71.73144906479604L176.67247460683188,81.9879628791503L176.82717905044555,81.64786457720724L177.1365879376729,72.13316827269016L177.29129238128664,65.55085166779173L177.4459968249003,64.91106890000762L177.600701268514,65.07841225009544L177.91011015574136,55.554370131821585L178.06481459935506,70.73031536323853L178.21951904296876,69.05898460963718L178.37422348658242,73.60177003440032L178.68363237380984,69.15404543982179L178.9930412610372,76.11810023796384L179.14774570465087,73.77981758610392L179.45715459187826,74.00428532215045L179.76656347910563,67.99955457865002L179.92126792271932,65.45015915624572L180.23067680994671,71.05521895765352L180.38538125356038,64.31363756890944L180.54008569717408,66.90532507532123L180.69479014078775,45.45982224885406L181.00419902801514,38.77081331150752L181.15890347162883,48.08970718406834L181.3136079152425,61.55149767931441L181.4683123588562,71.65604841766073L181.7777212460836,72.93354924754148L181.93242568969725,49.419693059166875L182.08713013331095,61.617934555903474L182.551243464152,69.42265532202698L182.7059479077657,58.743454859215575L182.86065235137937,43.29977767427312L183.0153567949931,53.863985153319376L183.32476568222046,57.71266030346675L183.47947012583413,57.56037221470774L183.78887901306155,58.79858089066726L184.09828790028888,55.16624960293826L184.4076967875163,85.7297264020379L184.56240123112997,109.13516765433077L184.87181011835733,130.39702184395682L185.02651456197103,143.3187636669314L185.18121900558472,151.5632886804415L185.33592344919842,172.778028543533L185.64533233642578,169.95582667338417L185.80003678003948,153.28488803922895L186.10944566726684,160.020669879785L186.4188545544942,146.08532684197215L186.57355899810793,149.86429430507448L186.7282634417216,146.51281507275226L186.8829678853353,127.2610780849977L187.19237677256268,122.94148940140023L187.34708121617635,124.37605018355457L187.50178565979004,137.97612879196473L187.6564901034037,143.63497584953623L187.9658989906311,122.33108867983816L188.1206034342448,134.76596123745395L188.43001232147216,133.67137093613985L188.73942120869955,107.92679119727867L188.89412565231325,109.23853809362424L189.04883009592692,117.67854403495105L189.512943426768,137.7709797329231L189.66764787038167,141.81280681539954L189.82235231399537,139.96174881607854L189.97705675760903,97.94002615639864L190.5958745320638,122.78203910969137L190.7505789756775,107.63101003336304L191.05998786290488,94.22823068758383L191.21469230651854,111.74068188558428L191.36939675013224,119.69220391250896L191.52410119374593,61.295964897107545L191.8335100809733,71.70491610936908L191.988214524587,74.16656987943247L192.14291896820066,75.24379357593148L192.29762341181439,64.8933105541997L192.76173674265542,74.723626331969L193.38055451711017,100.67293159426943L193.6899634043376,121.83100048104889L193.84466784795126,126.14307465832734L194.15407673517862,114.48071689043572L194.30878117879234,91.07469944221745L194.463485622406,64.61631996277227L194.6181900660197,52.90689344867366L195.08230339686077,65.0204226619179L195.23700784047446,60.882094604534764L195.39171228408813,62.4194906896588L195.7011211713155,69.92241270922138L195.85582561492922,71.4503518293832L196.01053005854288,75.87067677774874L196.16523450215658,80.6511537661658L196.47464338938397,94.2634750551899L196.78405227661133,67.65571450069255L196.938756720225,91.28847826423353L197.2481656074524,120.05707229780572L197.4028700510661,139.34900326192L197.55757449467976,158.29975950700336L198.02168782552084,164.96352997877275L198.1763922691345,166.5959043211684L198.3310967127482,183.05442909046425L198.48580115636187,160.56145617102104L198.7952100435893,154.52971547087068L198.94991448720296,168.55547316710116L199.10461893081663,168.14303071155214L199.25932337443032,152.45399911063055L199.56873226165771,150.05645097189705L199.7234367052714,159.7322491955018L199.87814114888508,162.92599293422867L200.0328455924988,149.94911213158204L200.34225447972617,149.51291860961732L200.49695892333983,169.5674423477472L200.65166336695353,167.42551145497185L200.80636781056722,162.45692514307567L201.1157766977946,171.14314074384777L201.27048114140828,158.1806030539847L201.42518558502198,174.65942545147024L201.57989002863567,171.81004156267247L201.88929891586304,183.77695621209347L202.0440033594767,173.42997418731684L202.19870780309043,171.93328368428266L202.3534122467041,174.62096429896022L202.66282113393146,188.65369506218278L203.90045668284097,182.3634180137546L204.20986557006833,118.44818125001704L204.36457001368206,19.997809151384487L204.51927445729575,45.81466728077039L204.67397890090942,80.5693751982702L204.9833877881368,117.30850291230905L205.1380922317505,128.23856730585717L205.29279667536417,156.44753366228804L205.75691000620526,181.58279760343993L205.91161444981893,167.61376330634332L206.06631889343262,175.84858631448205L206.2210233370463,78.91651535208996L206.53043222427368,71.89632874379548L206.68513666788738,103.38472364329242L206.83984111150104,133.67204168615623L206.99454555511474,78.24343046742287L207.30395444234213,45.93329477429733L207.4586588859558,57.16356191482709L207.6133633295695,15.797686193991245L207.76806777318316,42.93339001021288L208.23218110402425,42.84278384563147L208.38688554763792,62.989985484937904L208.54158999125164,64.3181421881514L208.850998878479,57.87881278745923L209.00570332209267,31.466432185952886L209.16040776570637,53.40256765484263L209.3151122093201,45.00724457446656L209.62452109654745,65.11671513983264L209.77922554016112,73.98379782854553L209.93392998377485,56.65748209540218L210.0886344273885,41.153802395314266L210.39804331461588,67.74017045208039L210.55274775822957,66.23942970003891L210.70745220184327,41.040970628819586L210.86215664545696,65.1769132460366L211.326269976298,74.07134177078456L211.48097441991172,69.87248538084845L211.63567886352538,98.33897736346488L211.94508775075275,107.04753979087971L212.09979219436647,83.71748740950939L212.25449663798014,98.2430154562222L212.40920108159384,109.79210388208946L212.7186099688212,80.43188256606373L212.8733144124349,85.77004049487343L213.0280188560486,102.54744067999347L213.18272329966226,115.75609594287612L213.80154107411704,74.95773412275925L213.9562455177307,102.29970960414315L214.2656544049581,127.11517470522094L214.4203588485718,53.207133549399366L214.57506329218546,71.86366325117808L214.72976773579916,68.75312430973983L215.19388106664022,100.10040073309874L215.3485855102539,130.2700547892629L215.50328995386758,71.5088580808344L215.81269884109497,100.10124335014672L215.96740328470867,99.96313952318596L216.12210772832233,92.12820832775222L216.27681217193603,31.949742190608358L216.58622105916342,31.64709001806087L216.7409255027771,64.8999847520158L216.89562994639078,93.51255373458399L217.05033439000448,55.23650585233187L217.35974327723184,25.162153598725368L217.51444772084554,59.610124896451296L217.6691521644592,87.98225298909779L217.82385660807293,107.88907182957304L218.1332654953003,76.67736209852781L218.28796993891396,58.77820335224094L218.44267438252768,81.23352185869308L218.59737882614138,80.38666677843611L219.0614921569824,94.50295214275687L219.3709010442098,114.91298217327652L219.68030993143717,112.17680848951014L219.83501437505086,111.72968169285942L219.98971881866456,86.13631117973202L220.14442326227825,87.6724037561596L220.45383214950562,81.48469014829284L220.6085365931193,68.28382402693401L221.38205881118776,99.31572818815512L221.53676325480143,65.05407460626002L221.69146769841512,60.83839435647659L222.00087658564252,95.45378012330009L222.15558102925618,101.27138002393067L222.31028547286988,132.66870747229456L222.46498991648355,144.37020293075122L222.77439880371094,54.32621458146886L222.92910324732463,83.0352722948829L223.0838076909383,99.1107904256377L223.238512134552,121.39392142628184L223.5479210217794,145.19602313560918L223.70262546539308,133.7473521729134L223.85732990900675,120.90942105376678L224.01203435262042,141.75230122230064L224.32144323984784,156.40741512608494L224.78555657068887,168.3871307149165L225.09496545791626,52.275501830429754L225.24966990152996,33.777632013427784L225.40437434514362,66.47440114343927L225.55907878875735,87.76539571060611L225.8684876759847,116.31136804501475L226.02319211959838,127.01466470177687L226.33260100682577,114.30072209500884L226.64200989405313,71.28577288408225L226.79671433766683,41.544654702762834L227.10612322489422,74.99086957925839L227.41553211212158,98.00208025536955L227.57023655573525,122.62564411614916L227.72494099934897,100.92358647497677L227.87964544296264,102.87303750629061L228.18905433019,124.59485623934658L228.3437587738037,138.66125272272149L228.49846321741742,156.649218651585L228.6531676610311,88.64595986856968L228.96257654825845,88.83562519160614L229.11728099187218,105.02100778662258L229.27198543548585,78.81781218617107L229.42668987909954,59.37629064247223L229.7360987663269,81.71556535328013L229.8908032099406,104.72065754446051L230.0455076535543,120.7842013541221L230.20021209716796,143.98821758730676L230.66432542800905,137.71908355420578L230.81902987162272,129.28558140388952L230.9737343152364,107.88859888361011L231.2831432024638,124.20282318460177L231.43784764607747,61.53957352202654L231.59255208969117,-0.006484569225646829L231.74725653330484,28.798592432646615L232.05666542053223,29.84269742938778L232.21136986414592,63.76470102375612L232.3660743077596,65.23733797691719L232.83018763860068,98.69941443995968L232.98489208221434,118.65247628174187L233.13959652582804,124.81228666236002L233.2943009694417,91.87504978353616L233.60370985666913,82.51396631493557L233.7584143002828,46.76688354866706L233.91311874389646,49.30891064604036L234.06782318751016,55.191279957392126L234.37723207473755,87.42333274566762L234.53193651835124,79.73863107050964L234.6866409619649,98.70175433299724L235.30545873641967,94.16023950824841L235.46016318003336,98.81868457368616L235.61486762364706,102.3187099683969L235.92427651087442,97.50062438214245L236.07898095448812,100.0997807163163L236.2336853981018,96.94332650208628L236.3883898417155,83.61884647269555L236.69779872894287,71.96926819656038L236.85250317255654,89.40337053696366L237.00720761617026,83.89963064448816L237.16191205978393,49.271257209744086L237.4713209470113,57.12093784417903L237.62602539062502,39.41012003986849L237.78072983423868,49.74845181615505L237.93543427785238,36.49687553161662L238.24484316507974,34.09114913851539L238.55425205230713,48.468878969003995L238.7089564959208,49.62328468423472L239.01836538314816,68.9883007218002L239.1730698267619,68.19953995657399L239.32777427037558,84.92490296236053L239.48247871398925,77.35572442255999L239.79188760121664,70.83794915125556L239.94659204483034,92.19384292380153L240.101296488444,103.7658305932773L240.2560009320577,104.29506773281932L240.5654098192851,115.81585368853462L240.72011426289876,127.26648663899942L240.87481870651246,128.3120370236527L241.02952315012612,126.90843530149942L241.33893203735352,87.34770364146628L241.64834092458088,77.37425630754471L241.80304536819457,83.94925046499213L242.11245425542197,64.68275306339723L242.576567586263,59.9827531483757L242.8859764734904,65.67278285352867L243.04068091710408,68.58855205228612L243.19538536071775,73.85814832744458L243.35008980433147,82.62693445189677L243.8142031351725,94.85763082107357L243.9689075787862,63.750777741586546L244.12361202239993,80.3150271677378L244.4330209096273,79.23431325027099L244.58772535324096,99.28078121414072L244.74242979685468,72.69573630518173L245.2065431276957,85.92795389839719L245.3612475713094,109.3798760918411L245.5159520149231,95.45015661742438L245.98006534576416,116.39806262374238L246.13476978937783,86.2399477636666L246.28947423299155,91.46760775285787L246.44417867660522,126.51076976912925L246.75358756383258,156.2107489243877L246.9082920074463,85.4121606983907L247.21770089467367,66.35825917012848L247.52710978190103,1.7939060559185716" fill="none"></path></g></g></g></g><g opacity="0.2"><g><g><g><path style="fill: none;" stroke="rgb(255, 112, 67)" stroke-width="2px" d="M31.095593166351318,18.697465030178112L31.250297609965006,22.492053966670543L31.405002053578695,31.49440719260714L32.023819828033446,61.15319173491332L32.178524271647134,60.25322707949034L32.48793315887451,46.14608881750335L32.6426376024882,17.79714345120089L32.95204648971558,72.36488426751166L33.261455376942955,149.8636649064519L33.416159820556636,-10.575448517971033L33.570864264170325,-50.21520020029042L33.72556870778402,1.0954809007512205L34.03497759501139,39.509398956436556L34.18968203862508,36.85458170767348L34.49909092585246,172.85943371092682L34.808499813079834,62.39036804451175L34.96320425669352,120.74824287969535L35.11790870030721,132.0977718085822L35.2726131439209,-20.09919273939558L35.58202203114827,219.3298895744135L35.73672647476196,140.46167332728626L35.89143091837565,16.186138863225285L36.04613536198934,185.362514748776L36.35554424921672,90.45027119430279L36.66495313644409,88.52909623273483L36.81965758005778,31.3443751082997L37.129066467285156,29.74602597956948L37.283770910898845,45.24269336831502L37.43847535451253,119.85686075990915L37.59317979812622,109.16814732656789L38.05729312896728,79.34588219348242L38.21199757258097,-20.895763195340805L38.36670201619466,168.31347432464818L38.67611090342204,148.63242506261594L38.83081534703573,113.59856063850144L38.98551979064942,84.08790808610999L39.1402242342631,101.40909953239148L39.44963312149048,116.18625007491846L39.60433756510417,112.8595084333861L39.759042008717856,37.148013261664765L39.913746452331544,119.43730842575962L40.223155339558915,96.44253592568852L40.3778597831726,85.97666118401084L40.53256422678629,58.93091274480367L40.68726867039998,71.92310562913545L40.996677557627365,74.15184956459655L41.15138200124105,77.19661436757765L41.30608644485474,60.58368060179785L41.7701997756958,40.01059230460712L41.92490421930949,41.95698914137295L42.07960866292318,27.93422212654612L42.23431310653687,24.16660537806929L42.698426437377925,73.19925288527148L42.853130880991614,140.58818235689876L43.0078353246053,75.80753873436197L43.31724421183268,87.63085444073583L43.471948655446376,41.16971226115862L43.626653099060064,96.51856389880402L43.78135754267375,42.92811230171168L44.09076642990112,69.33565630175248L44.24547087351481,97.68089894762696L44.4001753171285,83.59613750026227L44.55487976074219,56.897154003287724L44.864288647969566,92.78511247768088L45.01899309158325,131.33799999429715L45.173697535196936,170.68046360047194L45.328401978810625,216.1636073683374L45.79251530965169,51.593649485364104L45.94721975326539,165.38944301222293L46.411333084106445,188.81265297527537L46.566037527720134,53.801569694959426L46.72074197133382,165.6923382532066L46.87544641494751,21.08447409915779L47.18485530217489,-42.66515064044067L47.49426418940226,119.2401199816015L47.64896863301595,100.5031259261313L47.958377520243324,67.5755571374294L48.11308196385701,124.20526660385694L48.2677864074707,177.57109101108577L48.4224908510844,193.42517335915346L48.73189973831177,129.00653170564746L48.886604181925456,88.28187594210637L49.041308625539145,-9.102006604301218L49.19601306915283,103.61837974114452L49.50542195638021,122.52292375298198L49.6601263999939,91.7919402548991L49.81483084360758,97.91345271151621L49.96953528722127,100.74308542607363L50.27894417444865,113.01206280766647L50.433648618062335,99.79056201064661L50.588353061676024,83.7033265810888L50.74305750528971,64.4086909752397L51.05246639251708,49.909507185610465L51.20717083613078,22.322316972455L51.36187527974447,43.430291186045544L51.516579723358156,58.74069100522427L51.82598861058553,185.73728781907474L51.98069305419922,16.445230231894882L52.13539749781291,52.591653150200436L52.29010194142659,55.2463218930463L52.59951082865397,82.08940128449365L52.75421527226766,19.181900896524837L52.908919715881346,85.73338195768432L53.37303304672242,69.97559148462348L53.527737490336094,182.36050904232872L53.68244193394979,38.580194109492346L53.83714637756348,203.2215527460108L54.146555264790855,-61.496743407918515L54.301259708404544,93.89391105073176L54.45596415201823,65.87290177391142L54.61066859563192,99.9832858263085L54.92007748285929,75.96537680966003L55.07478192647298,99.81228681272272L55.22948637008667,95.01693552714202L55.38419081370036,27.57374118935546L55.693599700927734,171.5525528265799L55.848304144541416,8.436237941021115L56.003008588155105,-30.579534940222626L56.1577130317688,53.33789969051225L56.46712191899618,66.81355107641241L56.621826362609866,2.357576206186398L56.776530806223555,31.405131952779L56.93123524983724,15.632534853493357L57.24064413706461,79.35702350459577L57.3953485806783,132.1121682749967L57.55005302429199,60.32224145882671L57.70475746790568,92.91736818363384L58.01416635513306,-14.177217478831587L58.168870798746745,89.44090250861575L58.32357524236043,91.8602084301408L58.478279685974115,35.599548741831654L58.94239301681519,48.855237147299576L59.09709746042888,41.8349708799676L59.251801904042566,57.298975237452304L59.561210791269936,158.38931572771938L59.715915234883624,59.07936305332862L59.87061967849731,130.65141475812695L60.025324122111,63.689924846932726L60.33473300933838,20.965771359551066L60.48943745295207,-16.695013894488234L60.64414189656575,56.25405209258768L60.79884634017944,12.553309202061273L61.10825522740682,125.25225590765203L61.26295967102051,139.77612859936653L61.57236855824789,149.11236301483964L61.88177744547526,-0.37085757911677053L62.03648188908895,133.70518609250576L62.191186332702635,-9.313423383275603L62.345890776316324,68.03543917194513L62.6552996635437,98.19765722916438L62.81000410715739,82.64126439694944L62.96470855077108,106.81591167229172L63.11941299438476,113.40855329688736L63.42882188161214,125.07362960495726L63.58352632522583,-5.894294472768447L63.89293521245321,57.55391778861151L64.20234409968059,2.0956741110477664L64.35704854329427,60.381381821029144L64.51175298690795,79.93081119685935L64.66645743052165,-22.411003445345564L64.97586631774902,89.67271694048837L65.13057076136272,-7.830786833976669L65.2852752049764,47.05404859947881L65.43997964859008,138.3243091667273L65.74938853581746,99.8870572507813L66.05879742304484,20.689504246604507L66.21350186665853,44.863784561696214L66.52291075388591,57.437736988976354L66.67761519749959,55.61413281505571L66.83231964111327,101.6964041783768L66.98702408472697,110.76187494767629L67.29643297195435,12.335359290576893L67.45113741556804,2.9482956021954934L67.60584185918172,99.48031832329478L67.76054630279542,125.98308629394674L68.06995519002278,77.6455036176702L68.22465963363648,207.22625634075044L68.37936407725016,67.09847663158108L68.53406852086385,83.30342948521155L68.84347740809123,-15.143352601587681L68.99818185170491,142.00439594008094L69.1528862953186,106.35205467666455L69.30759073893229,153.78885629943986L69.61699962615967,157.62524588031633L69.92640851338705,73.18579241081443L70.3905218442281,142.56872387998277L70.5452262878418,56.91432816137146L70.69993073145548,137.85196857918675L70.85463517506916,118.95014584301057L71.16404406229654,45.235744775132986L71.47345294952392,107.8794308665941L71.62815739313761,87.55376532889723L71.937566280365,95.70346253145587L72.09227072397869,40.14041961608419L72.24697516759235,171.61737857647853L72.71108849843344,134.3859375872945L72.86579294204712,-18.074389510302986L73.02049738566082,93.45568663903677L73.1752018292745,151.1909812049549L73.48461071650188,164.59825943302442L73.63931516011556,51.08036614868797L73.79401960372925,159.57445083165945L73.94872404734294,214.7892296155811L74.25813293457031,17.026944925258206L74.41283737818401,54.02924818514578L74.56754182179769,164.03792959411348L74.72224626541137,122.70545068635694L75.03165515263875,76.68478283792558L75.18635959625244,85.24247679540504L75.34106403986613,-3.5106942308776263L75.49576848347982,33.42261779316274L75.80517737070718,132.81155288906598L75.95988181432088,6.501082037816412L76.11458625793456,70.81005802807364L76.26929070154826,161.10751058360736L76.57869958877563,39.114199240904455L77.04281291961671,13.290359819842882L77.35222180684408,44.23875067113888L77.50692625045777,1.03383423333002L77.66163069407146,39.4208193891819L77.81633513768514,-10.827426273539725L78.12574402491252,60.463353930852186L78.2804484685262,117.4229421949612L78.4351529121399,172.7369944322814L78.58985735575358,215.44278093336516L78.89926624298096,28.854391890104957L79.05397068659465,127.11526470350127L79.20867513020833,130.63494686477347L79.36337957382202,148.66299773421127L79.6727884610494,106.72524758293646L79.82749290466309,53.30949324021334L79.98219734827677,86.2703274042559L80.13690179189047,126.92958645219143L80.44631067911783,105.06854629415623L80.60101512273152,129.57436702790162L80.7557195663452,98.10157392020062L80.9104240099589,65.21247018531116L81.21983289718628,73.04956251776913L81.37453734079996,-53.58268129828578L81.52924178441366,62.567832242702735L81.99335511525473,20.23372182178666L82.3027640024821,105.6669294710372L82.45746844609579,89.103275365271L82.76687733332317,-33.962624045814074L82.92158177693685,89.48492398961619L83.07628622055054,-38.97132626056914L83.23099066416422,125.16989622025366L83.5403995513916,118.74309697218574L83.6951039950053,144.48923107341236L83.84980843861898,-13.88772168009834L84.00451288223267,154.75038220543476L84.31392176946004,108.80022512989798L84.46862621307373,130.88228051041662L84.62333065668741,51.87286398067125L84.77803510030111,42.81365628444414L85.08744398752849,62.890028901787154L85.24214843114217,101.16987485274792L85.55155731836955,37.18035614069397L85.86096620559692,115.04973358425201L86.0156706492106,29.965704194208527L86.1703750928243,161.86775336855015L86.32507953643798,-7.450712121027522L86.63448842366536,45.05879251749487L86.78919286727904,165.40114412400442L86.94389731089275,137.738579083301L87.09860175450642,100.0358164308561L87.40801064173381,65.71349054890702L87.5627150853475,130.2702332055042L87.71741952896119,143.6588194428458L87.87212397257487,82.01179659158065L88.18153285980225,-32.61263505144116L88.33623730341594,85.63417190364349L88.49094174702962,129.67824199231052L88.64564619064332,31.694225647943544L88.95505507787068,11.022976963153504L89.10975952148438,4.4435710634357894L89.41916840871176,168.97962288660162L89.72857729593913,95.33071271445274L90.0379861831665,177.4050629426435L90.65680395762125,10.331647354940715L90.81150840123495,60.72839877632149L90.96621284484863,188.72780193165318L91.275621732076,-16.061908444760007L91.43032617568969,17.299634752281516L91.58503061930338,81.73351749870645L91.73973506291706,140.10242042681557L92.04914395014444,140.0456637601112L92.20384839375815,125.52193108329011L92.35855283737183,3.473227641730937L92.51325728098551,5.062386736830214L92.82266616821289,24.493447429570132L92.97737061182659,97.52705213894595L93.13207505544027,117.84246075628056L93.28677949905396,194.9045298206606L93.59618838628134,70.57117795182572L93.75089282989502,-16.946858291815317L93.9055972735087,105.53679970572523L94.0603017171224,39.47796539522871L94.36971060434978,17.577537688002117L94.52441504796346,172.3792273306799L94.67911949157715,130.22328737118997L94.83382393519084,103.53194889706292L95.2979372660319,100.67252744497557L95.45264170964559,85.27518173619806L95.60734615325927,109.81714699519242L95.91675504048665,89.43521433525791L96.07145948410033,155.26157405310497L96.22616392771403,63.47213861930894L96.38086837132771,127.77912746447538L96.69027725855508,19.62582537973086L96.8449817021688,49.96623458799695L96.99968614578246,95.62247224944161L97.15439058939617,64.21953488870474L97.46379947662354,153.06056035591044L97.61850392023723,53.727059683648264L97.77320836385091,26.330729567443882L97.92791280746461,-37.77531781012897L98.23732169469199,68.74805086128389L98.54673058191935,-29.601941209502087L98.70143502553304,-18.058165906493194L99.01084391276042,49.214147239626385L99.1655483563741,96.64818813107877L99.3202527999878,3.3534152810136275L99.47495724360148,94.44198982872464L99.78436613082886,66.01346978757933L99.93907057444254,108.43367552264391L100.09377501805623,62.64485941200069L100.24847946166992,16.081322016015505L100.86729723612467,155.06577846830433L101.02200167973835,-6.666775860544723L101.33141056696573,129.4015077127709L101.48611501057943,41.60992743025722L101.6408194541931,-34.843205723187786L101.79552389780682,55.53364747205615L102.10493278503417,122.58272489593459L102.25963722864788,72.3425958266724L102.41434167226156,39.095285950435574L102.56904611587525,115.95931853927095L102.87845500310263,160.9724577345948L103.18786389033001,103.7674596167201L103.34256833394369,20.76035155446001L103.65197722117107,113.89539522673634L103.80668166478475,178.80410734988044L103.96138610839844,90.2077948754092L104.4254994392395,95.81462121696639L104.58020388285318,185.77529506718687L104.88961277008056,101.92204463092294L105.19902165730794,84.70018275693667L105.35372610092163,-44.92182102665168L105.50843054453532,107.80172590342693L105.663134988149,21.340538953624772L105.97254387537637,110.87320964095987L106.12724831899007,133.42833001947642L106.28195276260375,97.34650133460703L106.43665720621745,81.98245506544369L106.74606609344484,-6.986044174065746L106.90077053705852,42.44593125266528L107.2101794242859,29.001895612995785L107.67429275512696,29.75342006281421L107.98370164235433,-4.735788354463146L108.29311052958171,86.16455468385229L108.44781497319539,21.529547031182208L108.60251941680909,102.73339322546143L108.75722386042277,135.6575357884266L109.06663274765015,108.01509497006329L109.22133719126384,134.5760347729721L109.37604163487752,-21.489521609565998L109.5307460784912,51.0571503488709L109.84015496571858,124.79509469929991L109.99485940933228,77.31772415251166L110.14956385294596,67.89566981896219L110.30426829655966,114.19995953432621L110.61367718378702,7.007535307629205L110.76838162740071,56.09689681618277L110.9230860710144,44.590714651575425L111.07779051462809,54.30925588615073L111.38719940185547,73.08733689415473L111.54190384546915,148.84085192077356L111.69660828908283,12.768388639628517L111.85131273269654,123.29872625999009L112.4701305071513,112.20632146037846L112.62483495076498,207.6228390396745L112.93424383799235,200.5334299670081L113.08894828160604,66.30905314390962L113.24365272521973,75.616317584569L113.39835716883341,108.57326410892541L113.70776605606079,-2.7191284906688447L113.86247049967449,112.04489067188719L114.01717494328817,105.88796294393147L114.17187938690185,93.21635691710495L114.48128827412923,46.64015660436705L114.63599271774292,172.40400262440536L114.7906971613566,112.11154496630189L114.9454016049703,159.98535176476472L115.25481049219766,16.860879410256906L115.40951493581136,200.38604294525152L115.56421937942504,152.82490051348594L115.71892382303874,111.49279148427962L116.02833271026611,113.97612416711146L116.33774159749349,188.25212973075472L116.49244604110717,89.54590502189241L116.95655937194823,60.79983964046961L117.11126381556194,98.83768644564037L117.26596825917562,133.11645155697863L117.575377146403,67.92956137652693L117.73008159001668,110.45156654551097L117.88478603363038,72.04629694000147L118.03949047724406,101.01600727653883L118.34889936447144,27.596177687915368L118.50360380808513,72.5277132277563L118.65830825169881,53.1940135394355L118.81301269531251,58.71541783005007L119.12242158253987,62.6302451503395L119.27712602615357,4.205560936863214L119.43183046976725,94.58685361524489L119.58653491338094,51.02262656530301L119.89594380060832,47.09874334532203L120.050648244222,18.85214410899798L120.20535268783568,114.25773848209359L120.36005713144938,96.14878447518993L120.82417046229044,-49.89027827636804L120.97887490590414,170.34240846442836L121.13357934951782,178.76275770613597L121.4429882367452,20.741137018797023L121.59769268035888,14.483041693129323L121.75239712397259,211.01053586196272L121.90710156758625,102.72822065447946L122.21651045481364,-9.173184964847557L122.37121489842734,-21.27953016715895L122.52591934204102,41.20311034701137L122.6806237856547,53.51927654887939L122.99003267288208,201.47060639609734L123.14473711649578,41.28027883294307L123.29944156010946,14.687407841195352L123.76355489095052,44.66008713123075L123.91825933456421,134.50634853726754L124.0729637781779,63.382084827175916L124.22766822179159,133.80867815582562L124.53707710901897,123.49861022600787L124.69178155263265,48.44890077929585L124.84648599624633,71.2768355658354L125.00119043986003,114.67754584889123L125.3105993270874,156.67600341870002L125.46530377070108,166.25097145626177L125.62000821431478,119.35234770820703L125.77471265792846,-36.236325791239686L126.08412154515584,154.3964564995244L126.23882598876952,135.98097257708056L126.39353043238322,82.29944188778649L126.5482348759969,99.15007440327489L126.85764376322427,140.3934507319601L127.01234820683798,155.61717965355223L127.16705265045167,131.9223766226441L127.63116598129272,27.388346237476203L127.78587042490642,89.815449511939L127.9405748685201,153.9951160044424L128.40468819936117,97.77935266668796L128.55939264297484,61.10026775191721L128.71409708658854,93.06976978874538L128.86880153020223,48.690741924304376L129.3329148610433,173.29415255240997L129.487619304657,59.62090615408956L129.64232374827068,60.2179954733953L129.95173263549805,43.89997546163527L130.10643707911174,75.52409271275549L130.26114152272544,74.25987548863579L130.4158459663391,201.34596692767798L130.7252548535665,19.299910253034003L130.87995929718016,125.64871967563592L131.03466374079386,172.63557874923845L131.18936818440756,133.96624901289778L131.49877707163492,8.47693187517399L131.65348151524861,67.14483694468827L131.8081859588623,161.4338745564132L131.962890402476,201.55700887883407L132.27229928970337,124.478803345359L132.42700373331706,159.73350519411954L132.58170817693073,69.17699674209608L132.73641262054443,156.72470405426074L133.04582150777182,202.3971223653013L133.2005259513855,100.95482641325987L133.35523039499918,78.91804706409634L133.97404816945394,102.20841703042689L134.12875261306763,87.0512586528396L134.5928659439087,-11.252916962989977L134.7475703875224,88.87750698378287L134.90227483113608,96.86854174744815L135.05697927474975,151.36492075848867L135.52109260559084,88.92399627115861L135.6757970492045,143.2485061916438L135.8305014928182,26.43157642569057L136.13991038004556,81.75138068008626L136.29461482365926,56.26086700041017L136.44931926727295,54.00129153223978L136.60402371088665,182.02161361298585L136.913432598114,-15.963166496880469L137.0681370417277,32.82601600846861L137.22284148534138,137.85078814936233L137.84165925979613,8.823443052566414L137.99636370340983,160.0607596423473L138.15106814702352,135.93309109834738L138.46047703425089,116.88233022730807L138.61518147786458,59.27497080860478L138.76988592147828,106.55406320981425L138.92459036509194,67.40348505936133L139.23399925231934,89.22748856920829L139.388703695933,116.90314219413395L139.5434081395467,65.96074358858147L139.69811258316042,59.88796083397839L140.0075214703878,63.80400145333853L140.16222591400145,80.4957779907043L140.31693035761518,37.17195097054354L140.47163480122884,48.801730255553586L140.7810436884562,32.310964815734586L140.9357481320699,34.84134017609081L141.0904525756836,59.2202595646498L141.2451570192973,48.54911395379742L141.55456590652466,6.751686386013361L141.70927035013833,59.418388800851716L142.01867923736572,3.401227647382572L142.32808812459308,129.21365087732408L142.4827925682068,129.25251089417353L142.63749701182047,119.72851816480356L142.79220145543417,55.646939204839924L143.10161034266153,74.48931778319867L143.25631478627523,73.12112351191587L143.41101922988892,7.508168409160776L143.5657236735026,66.41132968446618L143.87513256073,36.20067678023677L144.02983700434368,60.66723513019658L144.18454144795737,134.38615863083615L144.33924589157104,150.17567467224748L144.64865477879843,113.61458242208404L144.80335922241213,63.56714311175753L145.1127681096395,79.52105247403685L145.42217699686688,-8.404992785267105L145.57688144048055,199.8956793734904L145.73158588409424,166.33953818972023L145.8862903277079,105.96073928507874L146.1956992149353,235.39076345947495L146.350403658549,102.16398984835757L146.65981254577636,139.54106387965865L146.96922143300375,105.64938741406831L147.74274365107217,99.33266470107876L147.89744809468587,88.62380685031107L148.05215253829954,73.26457019307242L148.20685698191326,119.92592573707743L148.51626586914062,114.70813983036113L148.6709703127543,11.751403988125654L148.82567475636802,42.013434757604195L148.9803791999817,26.16148496124779L149.28978808720905,37.07982807151155L149.44449253082274,99.54360930465258L149.59919697443647,49.58054864186601L149.75390141805013,146.83909779364808L150.0633103052775,82.9921068206391L150.2180147488912,-2.485488312765198L150.3727191925049,34.374276665772996L150.52742363611858,-2.569987361408023L150.83683252334595,141.2848566258896L150.99153696695964,148.06004635578222L151.14624141057334,29.087190721208835L151.300945854187,236.08520709560165L151.61035474141437,152.63347706925404L151.7650591850281,124.46791775902196L151.91976362864176,142.41279681453972L152.07446807225546,109.7350236650775L152.38387695948285,107.37114739844417L152.6932858467102,195.88959572474144L153.31210362116497,213.72629105060304L153.46680806477863,173.5301580009776L153.62151250839233,205.22288299479013L153.93092139561972,202.87022033733376L154.08562583923342,137.73309200852734L154.24033028284708,100.21944188830378L154.39503472646075,101.83982048810273L154.70444361368817,40.33945230917958L154.85914805730184,111.79748113489768L155.01385250091553,59.55296862487871L155.1685569445292,140.17937035057045L155.4779658317566,114.72435477715818L155.6326702753703,112.6551128018432L155.78737471898395,110.62086943967138L155.94207916259768,84.63527699445247L156.25148804982504,112.40902670480054L156.4061924934387,80.15982461641248L156.5608969370524,124.23380487563784L156.7156013806661,100.33119991024034L157.02501026789346,112.534200977955L157.17971471150716,95.44479580417122L157.33441915512083,111.0348761262749L157.48912359873455,118.9886620361795L157.95323692957558,85.19575570206706L158.1079413731893,101.47426700561776L158.26264581680297,99.58006150198918L158.57205470403034,96.35087116151044L158.72675914764403,119.4668221658281L158.88146359125776,68.3027800550874L159.03616803487142,130.08118177239385L159.3455769220988,96.93935947862043L159.5002813657125,65.6621490471535L159.65498580932618,28.03648182024449L159.80969025293987,51.7718323187909L160.11909914016724,103.52875773715104L160.27380358378093,156.9634857999715L160.42850802739463,182.76365290872758L160.5832124710083,143.80091262236496L160.89262135823566,195.27301140372543L161.20203024546305,136.0277937894155L161.35673468907675,148.2510943011424L161.66614357630414,131.85635130717912L161.8208480199178,158.19127140154856L162.13025690714517,23.476029803197573L162.43966579437256,-2.9723162882449756L162.74907468159992,107.1378048174783L163.213188012441,39.3278966427797L163.36789245605468,21.520457827872356L163.52259689966837,44.098011025815005L163.67730134328204,38.35323703007119L163.98671023050946,191.31941147639216L164.14141467412313,162.63302821588158L164.2961191177368,199.5938607053951L164.4508235613505,194.40271463255988L164.76023244857788,158.45491728733612L164.91493689219158,110.69664446131601L165.06964133580524,172.9186128490481L165.22434577941897,158.56950400072023L165.68845911026,142.99946585698285L165.8431635538737,199.9766982681022L165.9978679974874,97.78282704596421L166.30727688471475,136.23159056716833L166.46198132832845,144.33400104318127L166.61668577194214,142.69902845005245L167.0807991027832,187.08893412898684L167.3902079900106,142.40324711427942L167.54491243362426,153.00460789560387L167.85432132085162,222.77103152819313L168.00902576446535,102.64027508849667L168.16373020807902,175.91162500921936L168.3184346516927,189.45821654221746L168.62784353892008,174.5385199396783L168.7825479825338,173.42838986342576L168.93725242614747,99.86873618777717L169.09195686976113,121.64361250817589L169.4013657569885,138.84668274549213L169.55607020060222,115.25408314566384L169.71077464421592,102.52264920958655L169.86547908782958,149.33104457886395L170.17488797505698,116.14185673351388L170.32959241867067,108.71430650911886L170.48429686228434,77.58464625007471L171.1031146367391,84.80722827235998L171.2578190803528,110.09369184318884L171.41252352396646,118.02320988357805L171.72193241119385,97.33936701914295L171.87663685480754,31.568648845586367L172.0313412984212,108.14245800335101L172.1860457420349,68.2772178697375L172.4954546292623,69.19437985616754L172.65015907287597,88.22848514286935L172.80486351648966,88.13181659780804L173.26897684733072,77.77097498306158L173.42368129094442,96.89637566912812L173.57838573455808,91.72333183433142L173.7330901781718,97.30183834913635L174.04249906539917,34.224749079876275L174.19720350901284,90.22626566055531L174.35190795262653,75.06713456218635L174.50661239624026,98.84114706437596L174.81602128346762,86.86083893284861L174.9707257270813,65.40533361201686L175.125430170695,4.136914036382396L175.28013461430868,70.84572560043561L175.58954350153604,103.1158224329281L175.74424794514974,50.282410210332614L175.89895238876343,58.93185527839086L176.05365683237713,82.75901019527919L176.3630657196045,90.52633943911339L176.51777016321816,65.42224401617086L176.67247460683188,100.5322624251964L176.82717905044555,81.14053906986588L177.1365879376729,59.77049789810394L177.29129238128664,56.63217982157837L177.4459968249003,63.961329487728015L177.600701268514,65.33011655536257L177.91011015574136,43.18117310476208L178.06481459935506,101.28241513835572L178.21951904296876,66.61860505360268L178.37422348658242,80.96643863540106L178.68363237380984,62.933221737519126L178.9930412610372,87.92169137815279L179.14774570465087,70.40133722893871L179.45715459187826,74.34222835397337L179.76656347910563,59.7941643924107L179.92126792271932,61.778807829374266L180.23067680994671,80.31844377882365L180.38538125356038,55.200389350517895L180.54008569717408,70.96554878879894L180.69479014078775,21.569173556246806L181.00419902801514,29.72169411253633L181.15890347162883,64.62285420255994L181.3136079152425,87.61210793669487L181.4683123588562,89.8690845468728L181.7777212460836,74.89076857854127L181.93242568969725,23.856509073686343L182.08713013331095,84.58860788110692L182.551243464152,82.86471971779571L182.7059479077657,45.08988958509047L182.86065235137937,24.766735500900545L183.0153567949931,73.0854986417743L183.32476568222046,63.87557370931218L183.47947012583413,57.33250774084191L183.78887901306155,60.69435353211521L184.09828790028888,50.02236241398967L184.4076967875163,188.01386941010026L184.56240123112997,168.08005553734046L184.87181011835733,180.55072939176486L185.02651456197103,168.03712177308955L185.18121900558472,165.88411992505058L185.33592344919842,222.75203102043048L185.64533233642578,165.90886204789757L185.80003678003948,133.59013363597555L186.10944566726684,171.38840592316518L186.4188545544942,129.03118639797677L186.57355899810793,155.90815312120748L186.7282634417216,141.74610962316078L186.8829678853353,105.23729984941701L187.19237677256268,116.88814342777543L187.34708121617635,126.579698135676L187.50178565979004,164.38581955606952L187.6564901034037,152.99631240162316L187.9658989906311,98.55799100288124L188.1206034342448,158.30203875212797L188.43001232147216,132.0583396805677L188.73942120869955,80.64826871642444L188.89412565231325,111.24937898107488L189.04883009592692,132.39487618312089L189.512943426768,183.61548222367904L189.66764787038167,148.3071502307514L189.82235231399537,137.26662919822544L189.97705675760903,60.39746476314875L190.5958745320638,188.40208819810155L190.7505789756775,89.38041118704858L191.05998786290488,77.7103080272963L191.21469230651854,149.0589967412294L191.36939675013224,133.42590628701774L191.52410119374593,16.3235614208945L191.8335100809733,90.58362940007622L191.988214524587,78.01447556524307L192.14291896820066,76.88865454382908L192.29762341181439,51.59995276551108L192.76173674265542,92.3441184819152L193.38055451711017,171.96525499405035L193.6899634043376,171.5895512785695L193.84466784795126,133.10498265977958L194.15407673517862,99.76889183497025L194.30878117879234,65.59671493346009L194.463485622406,36.8072521862328L194.6181900660197,38.14510816649857L195.08230339686077,87.79012063369049L195.23700784047446,55.066773073158124L195.39171228408813,64.78519559964838L195.7011211713155,82.77013307781617L195.85582561492922,73.80113014047738L196.01053005854288,83.02114609700845L196.16523450215658,88.43428567371645L196.47464338938397,120.70417753131127L196.78405227661133,39.73670382273848L196.938756720225,151.24347267419049L197.2481656074524,208.52626062530368L197.55757449467976,200.21777279086174L198.02168782552084,176.19455351215848L198.1763922691345,169.1117848148908L198.3310967127482,217.22061229905975L198.48580115636187,135.81355735344107L198.7952100435893,146.29070003224578L198.94991448720296,196.05386771701797L199.10461893081663,167.52851200794385L199.25932337443032,133.68578843145522L199.56873226165771,146.59555802625442L199.7234367052714,177.02181386323895L199.87814114888508,167.98180536795974L200.0328455924988,133.86545798725763L200.34225447972617,148.86326253631088L200.49695892333983,215.27729845941454L200.65166336695353,164.32116725240238L200.80636781056722,155.56192849205527L201.1157766977946,186.36199565811827L201.27048114140828,142.11165925970263L201.42518558502198,208.8847018862499L201.57989002863567,167.7258255767525L201.88929891586304,206.20058653164534L202.0440033594767,160.1404703016619L202.19870780309043,169.7418279238171L202.3534122467041,178.83853702804356L203.7457522392273,183.47158631824507L203.90045668284097,170.90725357744407L204.20986557006833,71.4389245585241L204.36457001368206,-36.19427228883998L204.51927445729575,116.40145434806529L204.67397890090942,233.01475000354145L204.9833877881368,316.48196685671735L205.1380922317505,148.27681101794025L205.29279667536417,241.13198289873282L205.75691000620526,248.65670002669444L205.91161444981893,150.52595173037508L206.06631889343262,190.14986776850952L206.2210233370463,23.028924440263896L206.53043222427368,62.44485946627998L206.68513666788738,214.0560676305712L206.83984111150104,233.63861783617918L206.99454555511474,34.45330871284887L207.30395444234213,14.080108850291357L207.4586588859558,77.8815238238372L207.6133633295695,-21.395356802602006L207.76806777318316,120.91437442871933L208.23218110402425,42.70707575692913L208.38688554763792,109.02953054651081L208.54158999125164,66.35469897198557L208.850998878479,49.13560102573698L209.00570332209267,3.6912943470679074L209.16040776570637,106.18817976361782L209.3151122093201,33.92550481597129L209.62452109654745,111.02181703418981L209.77922554016112,89.57496799353991L209.93392998377485,36.35699916907317L210.0886344273885,22.563111976632957L210.39804331461588,142.53823892392822L210.55274775822957,64.04218525616581L210.70745220184327,14.174255202822087L210.86215664545696,127.42756257596375L211.326269976298,89.71903861480126L211.48097441991172,63.97753504319292L211.63567886352538,184.7383717335617L211.94508775075275,122.3122499515075L212.09979219436647,58.299649567426066L212.25449663798014,127.04768304423708L212.40920108159384,131.2415953498867L212.7186099688212,50.55190387955282L212.8733144124349,94.54928604319336L213.0280188560486,137.64913875243886L213.18272329966226,141.1834375041208L213.80154107411704,38.07087658390429L213.9562455177307,181.51710015070077L214.2656544049581,192.60523493545654L214.4203588485718,2.9771705578596315L214.57506329218546,112.81075897692925L214.72976773579916,64.31260442036218L215.19388106664022,209.42419855015038L215.3485855102539,229.27261505149244L215.50328995386758,26.395428903382204L215.81269884109497,187.35537467081303L215.96740328470867,99.75645073714382L216.12210772832233,81.70310459583098L216.27681217193603,-13.70259554124676L216.58622105916342,31.19534795187369L216.7409255027771,195.0740828949874L216.89562994639078,180.9047457619552L217.05033439000448,19.7539609173629L217.35974327723184,-5.207264501916721L217.51444772084554,206.91014374251003L217.6691521644592,173.74809772552945L217.82385660807293,153.07722948145292L218.1332654953003,45.544117056389254L218.28796993891396,37.95637203684856L218.44267438252768,136.1259046014048L218.59737882614138,79.13372875506887L219.0614921569824,122.23568285136948L219.3709010442098,161.89752687909424L219.68030993143717,108.24794783761361L219.83501437505086,111.06386001323705L219.98971881866456,58.971293127899976L220.14442326227825,90.03605096278929L220.45383214950562,73.05202148557962L220.6085365931193,51.971173259647L221.38205881118776,205.71983605313267L221.53676325480143,31.963032228556326L221.69146769841512,54.92133710424218L222.00087658564252,245.51649372283686L222.15558102925618,110.92343471918892L222.31028547286988,242.46744516323068L222.46498991648355,166.17296966497923L222.77439880371094,-0.0842952797094069L222.92910324732463,171.09144516217776L223.0838076909383,132.17329098255456L223.238512134552,175.57953879240662L223.5479210217794,205.91423435706378L223.70262546539308,119.26314140706343L223.85732990900675,104.96851003925904L224.01203435262042,190.32639272118337L225.09496545791626,-6.979143459501282L225.24966990152996,12.418803735356658L225.40437434514362,189.89771125922604L225.55907878875735,138.03051904918783L225.8684876759847,203.24910637160053L226.02319211959838,146.54518960806038L226.33260100682577,98.48763008791471L226.64200989405313,33.222548401358466L226.79671433766683,11.402663869769587L227.10612322489422,207.67119497612384L227.41553211212158,155.23316553784687L227.57023655573525,187.1839245250018L227.72494099934897,76.82099085793169L227.87964544296264,105.89377914109375L228.18905433019,176.53152631120713L228.3437587738037,166.26471990969276L228.49846321741742,195.4483261014378L228.6531676610311,40.251399637380096L228.96257654825845,89.12100895344133L229.11728099187218,138.39790544318987L229.27198543548585,51.197423396767405L229.42668987909954,37.187045061811034L229.7360987663269,136.1307393673638L229.8908032099406,161.92551396022066L230.0455076535543,153.81254052599135L230.20021209716796,202.0515620055286L230.66432542800905,129.18567592396906L230.81902987162272,118.15948436644116L230.9737343152364,84.03818058325709L231.2831432024638,157.95066113031467L231.43784764607747,14.97491594732889L231.59255208969117,-46.165965354636555L231.74725653330484,117.52213826413391L232.05666542053223,31.436106923536965L232.21136986414592,203.01782287278087L232.3660743077596,67.50092423350617L232.83018763860068,231.58935505996362L232.98489208221434,164.00347466032977L233.13959652582804,135.0968860765623L233.2943009694417,59.618436827238995L233.60370985666913,70.32471092639577L233.7584143002828,12.767439140624825L233.91311874389646,53.28793692386657L234.06782318751016,64.96243714178975L234.37723207473755,205.6633450438906L234.53193651835124,69.49134707839626L234.6866409619649,140.6609314796844L235.30545873641967,87.81723871438292L235.46016318003336,106.38652663815269L235.61486762364706,107.88908623281563L235.92427651087442,90.79934564038679L236.07898095448812,104.17222840273229L236.2336853981018,92.44045943254196L236.3883898417155,67.18039575010471L236.69779872894287,57.27101864755607L236.85250317255654,126.4813030021861L237.00720761617026,76.32281073845931L237.16191205978393,15.953294650366376L237.4713209470113,70.65214262331253L237.62602539062502,18.758876223571566L237.78072983423868,68.47197679775832L237.93543427785238,20.132568130402923L238.24484316507974,30.618895780257176L238.55425205230713,76.88401488598105L238.7089564959208,51.38827298184543L239.01836538314816,112.30110149933417L239.1730698267619,67.03146035332986L239.32777427037558,119.87288250930423L239.48247871398925,67.24570060159557L239.79188760121664,61.99838565071491L239.94659204483034,142.7078417524052L240.101296488444,125.26825279615768L240.2560009320577,105.09586157502349L240.5654098192851,137.19999758944496L240.72011426289876,148.4889989140329L240.87481870651246,129.90769080835827L241.02952315012612,124.85022937065534L241.33893203735352,51.14088742597064L241.64834092458088,64.49808273922184L241.80304536819457,95.01224620025604L242.11245425542197,42.646078055222134L242.576567586263,53.43408199469096L242.8859764734904,75.09108817386564L243.04068091710408,73.18210436732375L243.19538536071775,82.51383422969693L243.35008980433147,98.01542658197287L243.8142031351725,117.9055010812976L243.9689075787862,32.68716072604944L244.12361202239993,114.78968543094582L244.4330209096273,77.64137628516156L244.58772535324096,144.962065945349L244.74242979685468,44.79342005804127L245.2065431276957,111.41393208308122L245.3612475713094,168.52997506133343L245.5159520149231,78.40163926938307L245.98006534576416,165.36425681688462L246.13476978937783,55.813624745725264L246.28947423299155,100.047870319155L246.44417867660522,284.15387866754173L246.75358756383258,251.49604046497853L246.9082920074463,36.12552093610854L247.21770089467367,44.507789553889594L247.52710978190103,-45.44201169061024" fill="none"></path></g></g></g></g></g></g><g transform="translate(51, 177)" clip-path="url(#clip_1)"><clipPath id="clip_1"><rect width="278" height="22"></rect></clipPath><g><g><line x1="0" y1="0" x2="0" y2="5" style="visibility: inherit;" fill="rgb(0, 0, 0)" stroke="rgb(204, 204, 204)" stroke-width="1px"></line><line x1="30.94088872273763" y1="0" x2="30.94088872273763" y2="5" style="visibility: inherit;" fill="rgb(0, 0, 0)" stroke="rgb(204, 204, 204)" stroke-width="1px"></line><line x1="61.88177744547526" y1="0" x2="61.88177744547526" y2="5" style="visibility: inherit;" fill="rgb(0, 0, 0)" stroke="rgb(204, 204, 204)" stroke-width="1px"></line><line x1="92.82266616821289" y1="0" x2="92.82266616821289" y2="5" style="visibility: inherit;" fill="rgb(0, 0, 0)" stroke="rgb(204, 204, 204)" stroke-width="1px"></line><line x1="123.76355489095052" y1="0" x2="123.76355489095052" y2="5" style="visibility: inherit;" fill="rgb(0, 0, 0)" stroke="rgb(204, 204, 204)" stroke-width="1px"></line><line x1="154.70444361368817" y1="0" x2="154.70444361368817" y2="5" style="visibility: inherit;" fill="rgb(0, 0, 0)" stroke="rgb(204, 204, 204)" stroke-width="1px"></line><line x1="185.64533233642578" y1="0" x2="185.64533233642578" y2="5" style="visibility: inherit;" fill="rgb(0, 0, 0)" stroke="rgb(204, 204, 204)" stroke-width="1px"></line><line x1="216.58622105916342" y1="0" x2="216.58622105916342" y2="5" style="visibility: inherit;" fill="rgb(0, 0, 0)" stroke="rgb(204, 204, 204)" stroke-width="1px"></line><line x1="247.52710978190103" y1="0" x2="247.52710978190103" y2="5" style="visibility: inherit;" fill="rgb(0, 0, 0)" stroke="rgb(204, 204, 204)" stroke-width="1px"></line><line x1="278.4679985046387" y1="0" x2="278.4679985046387" y2="5" style="visibility: inherit;" fill="rgb(0, 0, 0)" stroke="rgb(204, 204, 204)" stroke-width="1px"></line></g><g transform="translate(0, 8)"><text style="text-anchor: middle; visibility: hidden; font-family: Roboto, sans-serif; font-size: 12px; font-weight: 200;" x="0" y="0" dx="0em" dy="0.95em" fill="rgb(50, 49, 63)" stroke="none" stroke-width="1px">-200</text><text style="text-anchor: middle; visibility: inherit; font-family: Roboto, sans-serif; font-size: 12px; font-weight: 200;" x="30.94088872273763" y="0" dx="0em" dy="0.95em" fill="rgb(50, 49, 63)" stroke="none" stroke-width="1px">0</text><text style="text-anchor: middle; visibility: inherit; font-family: Roboto, sans-serif; font-size: 12px; font-weight: 200;" x="61.88177744547526" y="0" dx="0em" dy="0.95em" fill="rgb(50, 49, 63)" stroke="none" stroke-width="1px">200</text><text style="text-anchor: middle; visibility: inherit; font-family: Roboto, sans-serif; font-size: 12px; font-weight: 200;" x="92.82266616821289" y="0" dx="0em" dy="0.95em" fill="rgb(50, 49, 63)" stroke="none" stroke-width="1px">400</text><text style="text-anchor: middle; visibility: inherit; font-family: Roboto, sans-serif; font-size: 12px; font-weight: 200;" x="123.76355489095052" y="0" dx="0em" dy="0.95em" fill="rgb(50, 49, 63)" stroke="none" stroke-width="1px">600</text><text style="text-anchor: middle; visibility: inherit; font-family: Roboto, sans-serif; font-size: 12px; font-weight: 200;" x="154.70444361368817" y="0" dx="0em" dy="0.95em" fill="rgb(50, 49, 63)" stroke="none" stroke-width="1px">800</text><text style="text-anchor: middle; visibility: inherit; font-family: Roboto, sans-serif; font-size: 12px; font-weight: 200;" x="185.64533233642578" y="0" dx="0em" dy="0.95em" fill="rgb(50, 49, 63)" stroke="none" stroke-width="1px">1k</text><text style="text-anchor: middle; visibility: inherit; font-family: Roboto, sans-serif; font-size: 12px; font-weight: 200;" x="216.58622105916342" y="0" dx="0em" dy="0.95em" fill="rgb(50, 49, 63)" stroke="none" stroke-width="1px">1.2k</text><text style="text-anchor: middle; visibility: inherit; font-family: Roboto, sans-serif; font-size: 12px; font-weight: 200;" x="247.52710978190103" y="0" dx="0em" dy="0.95em" fill="rgb(50, 49, 63)" stroke="none" stroke-width="1px">1.4k</text><text style="text-anchor: middle; visibility: hidden; font-family: Roboto, sans-serif; font-size: 12px; font-weight: 200;" x="278.4679985046387" y="0" dx="0em" dy="0.95em" fill="rgb(50, 49, 63)" stroke="none" stroke-width="1px">1.6k</text></g><line x1="0" y1="0" x2="278.4679985046387" y2="0" fill="rgb(0, 0, 0)" stroke="rgb(204, 204, 204)" stroke-width="1px"></line></g></g></g></g></svg>