<svg viewBox="0 0 330 200" xmlns="http://www.w3.org/2000/svg"><g><g><g><g><g><line x1="51.53200149536133" y1="177.86299896240234" x2="46.53200149536133" y2="177.86299896240234" style="visibility: inherit;" fill="rgb(0, 0, 0)" stroke="rgb(204, 204, 204)" stroke-width="1px"></line><line x1="51.53200149536133" y1="163.04108238220215" x2="46.53200149536133" y2="163.04108238220215" style="visibility: inherit;" fill="rgb(0, 0, 0)" stroke="rgb(204, 204, 204)" stroke-width="1px"></line><line x1="51.53200149536133" y1="148.21916580200195" x2="46.53200149536133" y2="148.21916580200195" style="visibility: inherit;" fill="rgb(0, 0, 0)" stroke="rgb(204, 204, 204)" stroke-width="1px"></line><line x1="51.53200149536133" y1="133.39724922180176" x2="46.53200149536133" y2="133.39724922180176" style="visibility: inherit;" fill="rgb(0, 0, 0)" stroke="rgb(204, 204, 204)" stroke-width="1px"></line><line x1="51.53200149536133" y1="118.57533264160156" x2="46.53200149536133" y2="118.57533264160156" style="visibility: inherit;" fill="rgb(0, 0, 0)" stroke="rgb(204, 204, 204)" stroke-width="1px"></line><line x1="51.53200149536133" y1="103.75341606140135" x2="46.53200149536133" y2="103.75341606140135" style="visibility: inherit;" fill="rgb(0, 0, 0)" stroke="rgb(204, 204, 204)" stroke-width="1px"></line><line x1="51.53200149536133" y1="88.93149948120117" x2="46.53200149536133" y2="88.93149948120117" style="visibility: inherit;" fill="rgb(0, 0, 0)" stroke="rgb(204, 204, 204)" stroke-width="1px"></line><line x1="51.53200149536133" y1="74.10958290100098" x2="46.53200149536133" y2="74.10958290100098" style="visibility: inherit;" fill="rgb(0, 0, 0)" stroke="rgb(204, 204, 204)" stroke-width="1px"></line><line x1="51.53200149536133" y1="59.28766632080077" x2="46.53200149536133" y2="59.28766632080077" style="visibility: inherit;" fill="rgb(0, 0, 0)" stroke="rgb(204, 204, 204)" stroke-width="1px"></line><line x1="51.53200149536133" y1="44.465749740600586" x2="46.53200149536133" y2="44.465749740600586" style="visibility: inherit;" fill="rgb(0, 0, 0)" stroke="rgb(204, 204, 204)" stroke-width="1px"></line><line x1="51.53200149536133" y1="29.643833160400384" x2="46.53200149536133" y2="29.643833160400384" style="visibility: inherit;" fill="rgb(0, 0, 0)" stroke="rgb(204, 204, 204)" stroke-width="1px"></line><line x1="51.53200149536133" y1="14.821916580200202" x2="46.53200149536133" y2="14.821916580200202" style="visibility: inherit;" fill="rgb(0, 0, 0)" stroke="rgb(204, 204, 204)" stroke-width="1px"></line><line x1="51.53200149536133" y1="0" x2="46.53200149536133" y2="0" style="visibility: inherit;" fill="rgb(0, 0, 0)" stroke="rgb(204, 204, 204)" stroke-width="1px"></line></g><g transform="translate(41.53200149536133, 0)"><text style="text-anchor: end; visibility: hidden; font-family: Roboto, sans-serif; font-size: 12px; font-weight: 200;" x="0" y="177.86299896240234" dx="0em" dy="0.3em" fill="rgb(50, 49, 63)" stroke="none" stroke-width="1px">0.05</text><text style="text-anchor: end; visibility: inherit; font-family: Roboto, sans-serif; font-size: 12px; font-weight: 200;" x="0" y="163.04108238220215" dx="0em" dy="0.3em" fill="rgb(50, 49, 63)" stroke="none" stroke-width="1px">0.1</text><text style="text-anchor: end; visibility: hidden; font-family: Roboto, sans-serif; font-size: 12px; font-weight: 200;" x="0" y="148.21916580200195" dx="0em" dy="0.3em" fill="rgb(50, 49, 63)" stroke="none" stroke-width="1px">0.15</text><text style="text-anchor: end; visibility: inherit; font-family: Roboto, sans-serif; font-size: 12px; font-weight: 200;" x="0" y="133.39724922180176" dx="0em" dy="0.3em" fill="rgb(50, 49, 63)" stroke="none" stroke-width="1px">0.2</text><text style="text-anchor: end; visibility: hidden; font-family: Roboto, sans-serif; font-size: 12px; font-weight: 200;" x="0" y="118.57533264160156" dx="0em" dy="0.3em" fill="rgb(50, 49, 63)" stroke="none" stroke-width="1px">0.25</text><text style="text-anchor: end; visibility: inherit; font-family: Roboto, sans-serif; font-size: 12px; font-weight: 200;" x="0" y="103.75341606140135" dx="0em" dy="0.3em" fill="rgb(50, 49, 63)" stroke="none" stroke-width="1px">0.3</text><text style="text-anchor: end; visibility: hidden; font-family: Roboto, sans-serif; font-size: 12px; font-weight: 200;" x="0" y="88.93149948120117" dx="0em" dy="0.3em" fill="rgb(50, 49, 63)" stroke="none" stroke-width="1px">0.35</text><text style="text-anchor: end; visibility: inherit; font-family: Roboto, sans-serif; font-size: 12px; font-weight: 200;" x="0" y="74.10958290100098" dx="0em" dy="0.3em" fill="rgb(50, 49, 63)" stroke="none" stroke-width="1px">0.4</text><text style="text-anchor: end; visibility: hidden; font-family: Roboto, sans-serif; font-size: 12px; font-weight: 200;" x="0" y="59.28766632080077" dx="0em" dy="0.3em" fill="rgb(50, 49, 63)" stroke="none" stroke-width="1px">0.45</text><text style="text-anchor: end; visibility: inherit; font-family: Roboto, sans-serif; font-size: 12px; font-weight: 200;" x="0" y="44.465749740600586" dx="0em" dy="0.3em" fill="rgb(50, 49, 63)" stroke="none" stroke-width="1px">0.5</text><text style="text-anchor: end; visibility: hidden; font-family: Roboto, sans-serif; font-size: 12px; font-weight: 200;" x="0" y="29.643833160400384" dx="0em" dy="0.3em" fill="rgb(50, 49, 63)" stroke="none" stroke-width="1px">0.55</text><text style="text-anchor: end; visibility: inherit; font-family: Roboto, sans-serif; font-size: 12px; font-weight: 200;" x="0" y="14.821916580200202" dx="0em" dy="0.3em" fill="rgb(50, 49, 63)" stroke="none" stroke-width="1px">0.6</text><text style="text-anchor: end; visibility: hidden; font-family: Roboto, sans-serif; font-size: 12px; font-weight: 200;" x="0" y="0" dx="0em" dy="0.3em" fill="rgb(50, 49, 63)" stroke="none" stroke-width="1px">0.65</text></g><line x1="51.53200149536133" y1="0" x2="51.53200149536133" y2="177.86299896240234" fill="rgb(0, 0, 0)" stroke="rgb(204, 204, 204)" stroke-width="1px"></line></g></g><g transform="translate(51, 0)" clip-path="url(#clip_0)"><clipPath id="clip_0"><rect width="278" height="177"></rect></clipPath><g><g><g><line x1="0" y1="0" x2="0" y2="177.86299896240234" fill="rgb(0, 0, 0)" stroke="rgb(60, 60, 60)" stroke-width="1px" opacity="0.25"></line><line x1="30.94088872273763" y1="0" x2="30.94088872273763" y2="177.86299896240234" fill="rgb(0, 0, 0)" stroke="rgb(60, 60, 60)" stroke-width="1px" opacity="0.25"></line><line x1="61.88177744547526" y1="0" x2="61.88177744547526" y2="177.86299896240234" fill="rgb(0, 0, 0)" stroke="rgb(60, 60, 60)" stroke-width="1px" opacity="0.25"></line><line x1="92.82266616821289" y1="0" x2="92.82266616821289" y2="177.86299896240234" fill="rgb(0, 0, 0)" stroke="rgb(60, 60, 60)" stroke-width="1px" opacity="0.25"></line><line x1="123.76355489095052" y1="0" x2="123.76355489095052" y2="177.86299896240234" fill="rgb(0, 0, 0)" stroke="rgb(60, 60, 60)" stroke-width="1px" opacity="0.25"></line><line x1="154.70444361368817" y1="0" x2="154.70444361368817" y2="177.86299896240234" fill="rgb(0, 0, 0)" stroke="rgb(60, 60, 60)" stroke-width="1px" opacity="0.25"></line><line x1="185.64533233642578" y1="0" x2="185.64533233642578" y2="177.86299896240234" fill="rgb(0, 0, 0)" stroke="rgb(60, 60, 60)" stroke-width="1px" opacity="0.25"></line><line x1="216.58622105916342" y1="0" x2="216.58622105916342" y2="177.86299896240234" fill="rgb(0, 0, 0)" stroke="rgb(60, 60, 60)" stroke-width="1px" opacity="0.25"></line><line x1="247.52710978190103" y1="0" x2="247.52710978190103" y2="177.86299896240234" fill="rgb(0, 0, 0)" stroke="rgb(60, 60, 60)" stroke-width="1px" opacity="0.25"></line><line x1="278.4679985046387" y1="0" x2="278.4679985046387" y2="177.86299896240234" fill="rgb(0, 0, 0)" stroke="rgb(60, 60, 60)" stroke-width="1px" opacity="0.25"></line></g><g><line x1="0" y1="177.86299896240234" x2="278.4679985046387" y2="177.86299896240234" fill="rgb(0, 0, 0)" stroke="rgb(60, 60, 60)" stroke-width="1px" opacity="0.25"></line><line x1="0" y1="163.04108238220215" x2="278.4679985046387" y2="163.04108238220215" fill="rgb(0, 0, 0)" stroke="rgb(60, 60, 60)" stroke-width="1px" opacity="0.25"></line><line x1="0" y1="148.21916580200195" x2="278.4679985046387" y2="148.21916580200195" fill="rgb(0, 0, 0)" stroke="rgb(60, 60, 60)" stroke-width="1px" opacity="0.25"></line><line x1="0" y1="133.39724922180176" x2="278.4679985046387" y2="133.39724922180176" fill="rgb(0, 0, 0)" stroke="rgb(60, 60, 60)" stroke-width="1px" opacity="0.25"></line><line x1="0" y1="118.57533264160156" x2="278.4679985046387" y2="118.57533264160156" fill="rgb(0, 0, 0)" stroke="rgb(60, 60, 60)" stroke-width="1px" opacity="0.25"></line><line x1="0" y1="103.75341606140135" x2="278.4679985046387" y2="103.75341606140135" fill="rgb(0, 0, 0)" stroke="rgb(60, 60, 60)" stroke-width="1px" opacity="0.25"></line><line x1="0" y1="88.93149948120117" x2="278.4679985046387" y2="88.93149948120117" fill="rgb(0, 0, 0)" stroke="rgb(60, 60, 60)" stroke-width="1px" opacity="0.25"></line><line x1="0" y1="74.10958290100098" x2="278.4679985046387" y2="74.10958290100098" fill="rgb(0, 0, 0)" stroke="rgb(60, 60, 60)" stroke-width="1px" opacity="0.25"></line><line x1="0" y1="59.28766632080077" x2="278.4679985046387" y2="59.28766632080077" fill="rgb(0, 0, 0)" stroke="rgb(60, 60, 60)" stroke-width="1px" opacity="0.25"></line><line x1="0" y1="44.465749740600586" x2="278.4679985046387" y2="44.465749740600586" fill="rgb(0, 0, 0)" stroke="rgb(60, 60, 60)" stroke-width="1px" opacity="0.25"></line><line x1="0" y1="29.643833160400384" x2="278.4679985046387" y2="29.643833160400384" fill="rgb(0, 0, 0)" stroke="rgb(60, 60, 60)" stroke-width="1px" opacity="0.25"></line><line x1="0" y1="14.821916580200202" x2="278.4679985046387" y2="14.821916580200202" fill="rgb(0, 0, 0)" stroke="rgb(60, 60, 60)" stroke-width="1px" opacity="0.25"></line><line x1="0" y1="0" x2="278.4679985046387" y2="0" fill="rgb(0, 0, 0)" stroke="rgb(60, 60, 60)" stroke-width="1px" opacity="0.25"></line></g></g></g><g><g><line x1="0" y1="192.68491554260254" x2="278.4679985046387" y2="192.68491554260254" fill="rgb(0, 0, 0)" stroke="rgb(153, 153, 153)" stroke-width="1.5px"></line></g></g><g><g><line x1="30.94088872273763" y1="0" x2="30.94088872273763" y2="177.86299896240234" fill="rgb(0, 0, 0)" stroke="rgb(153, 153, 153)" stroke-width="1.5px"></line></g></g><g><g><g><g><g><path style="fill: none;" stroke="rgb(255, 112, 67)" stroke-width="2px" d="M31.095593166351318,-4.87185893781043L31.250297609965006,12.904880472670085L31.405002053578695,24.176677530012917L32.023819828033446,56.08687009732228L32.178524271647134,85.32636015367024L32.48793315887451,100.4932480734781L32.6426376024882,70.26408806664374L32.95204648971558,99.78874601370688L33.261455376942955,124.97543113686845L33.416159820556636,136.1833625562345L33.570864264170325,146.33838933703672L33.72556870778402,93.70103957135541L34.03497759501139,79.44641877137778L34.18968203862508,59.60354325639527L34.49909092585246,90.40370328491733L34.808499813079834,68.89367984426367L34.96320425669352,-93.84640610783566L35.11790870030721,-6.550517377930141L35.2726131439209,17.440985489538686L35.58202203114827,73.1579221741646L35.73672647476196,37.40190568601368L35.89143091837565,81.7919631172098L36.04613536198934,107.79842212683575L36.35554424921672,99.08454006411247L36.66495313644409,98.16641124234573L36.81965758005778,124.24792966371011L37.129066467285156,133.2828102373674L37.283770910898845,141.71718916531145L37.43847535451253,134.12381473570088L37.59317979812622,94.37003463546729L38.05729312896728,50.344122413508366L38.21199757258097,83.50650551050407L38.36670201619466,53.110789961342775L38.67611090342204,91.91217872617725L38.83081534703573,112.83216661072136L38.98551979064942,117.51811536302603L39.1402242342631,106.47600994042598L39.44963312149048,126.99763734867005L39.60433756510417,129.43714633452964L39.759042008717856,128.71539943293902L39.913746452331544,137.02582840961816L40.223155339558915,145.64063190351925L40.3778597831726,146.9554465423742L40.53256422678629,139.69919764459695L40.68726867039998,143.2254487979172L40.996677557627365,123.19207085815022L41.15138200124105,124.05815689040604L41.30608644485474,124.68631976249495L41.7701997756958,123.4731043695506L41.92490421930949,132.36825898623243L42.07960866292318,106.00716397407604L42.23431310653687,126.24370949941103L42.698426437377925,126.29792003797733L42.853130880991614,138.99871238687427L43.0078353246053,120.9320698509435L43.31724421183268,84.71618021912695L43.471948655446376,58.1345415576588L43.626653099060064,88.94667633441446L43.78135754267375,100.28763964428794L44.09076642990112,101.59281581755309L44.24547087351481,104.92687684087686L44.4001753171285,129.6489015360824L44.55487976074219,121.72807013262499L44.864288647969566,129.01918245607945L45.01899309158325,99.02149480365885L45.173697535196936,119.61439252119335L45.328401978810625,129.1943683207417L45.79251530965169,137.93333865551236L45.94721975326539,151.46214771412917L46.411333084106445,160.37138259589233L46.566037527720134,154.98833965234127L46.72074197133382,142.565872315079L46.87544641494751,130.92534847520886L47.18485530217489,114.32831148001866L47.49426418940226,118.61170309790197L47.64896863301595,139.84620184840438L47.958377520243324,146.96055209283784L48.11308196385701,149.81642923281802L48.2677864074707,126.12514475657318L48.4224908510844,1.4754933095566496L48.73189973831177,53.8242361177362L48.886604181925456,93.21268016238476L49.041308625539145,102.37906729368761L49.19601306915283,125.75013731306863L49.50542195638021,134.14441957508396L49.6601263999939,145.6457615388511L49.81483084360758,128.62236128297L49.96953528722127,142.77788333334786L50.27894417444865,128.5903587310448L50.433648618062335,142.48362336605257L50.588353061676024,152.57413540626263L50.74305750528971,121.56089143827384L51.05246639251708,135.89386081958543L51.20717083613078,134.79012707928766L51.36187527974447,145.7617029479122L51.516579723358156,141.0564947549202L51.82598861058553,153.4853726681595L51.98069305419922,117.61762534292406L52.13539749781291,137.18282370743793L52.29010194142659,127.56002557304151L52.59951082865397,129.04299718569388L52.75421527226766,143.41400948798045L52.908919715881346,26.622470878712576L53.37303304672242,82.09206340195296L53.527737490336094,90.32796832005427L53.68244193394979,82.34811504738926L53.83714637756348,108.43941034430497L54.146555264790855,92.17998437376403L54.301259708404544,36.204175095540734L54.45596415201823,81.29145569885338L54.61066859563192,110.89899522781238L54.92007748285929,73.43759386203519L55.07478192647298,82.30303211396554L55.22948637008667,104.64512439580194L55.38419081370036,99.52007923937464L55.693599700927734,66.33161667433886L55.848304144541416,84.34713479525753L56.003008588155105,76.59695932049942L56.1577130317688,67.72774117899444L56.46712191899618,-44.809925593675956L56.621826362609866,0.7772273656667124L56.776530806223555,50.914903280189655L56.93123524983724,89.57960343387508L57.24064413706461,116.80063368305365L57.3953485806783,115.89960008407502L57.55005302429199,113.4192058922253L57.70475746790568,-26.574950681631538L58.01416635513306,37.82813330335295L58.168870798746745,62.38370248404043L58.32357524236043,38.03013271765557L58.478279685974115,85.12713685636233L58.94239301681519,-26.581974431242315L59.09709746042888,-32.039980195999256L59.251801904042566,0.1535557173009273L59.561210791269936,45.589196111649926L59.715915234883624,60.00844064621142L59.87061967849731,12.662318338169351L60.025324122111,52.54963047468597L60.33473300933838,76.02510186066027L60.48943745295207,109.44438373337827L60.64414189656575,112.6943141728711L60.79884634017944,106.9494953698261L61.10825522740682,101.05012220485264L61.26295967102051,75.72681086652842L61.57236855824789,94.38283276450044L61.88177744547526,105.83879848856893L62.03648188908895,83.13089372090705L62.191186332702635,47.64956070837442L62.345890776316324,12.385632473972562L62.6552996635437,24.241956260182562L62.81000410715739,60.35113827044228L62.96470855077108,86.89932697213841L63.11941299438476,103.17342199223305L63.42882188161214,102.61888168900931L63.58352632522583,101.49633100302157L63.89293521245321,116.64189764887492L64.20234409968059,115.55306143506171L64.35704854329427,85.47970218245618L64.51175298690795,122.42768517917786L64.66645743052165,143.7969976099437L64.97586631774902,56.99686045039257L65.13057076136272,87.21808160077107L65.2852752049764,110.01973653097956L65.43997964859008,118.15925931279692L65.74938853581746,127.41909877477985L66.05879742304484,136.72094030552685L66.21350186665853,110.60018933654763L66.52291075388591,107.59127917972043L66.67761519749959,127.97979634682619L66.83231964111327,142.39578807953475L66.98702408472697,138.1927338355677L67.29643297195435,119.92742798596056L67.45113741556804,127.56280752371022L67.60584185918172,102.92076910638608L67.76054630279542,68.79003912908178L68.06995519002278,15.73278181049233L68.22465963363648,73.27446647436274L68.37936407725016,112.6010776789325L68.53406852086385,132.1258334091024L68.84347740809123,130.82491906936264L68.99818185170491,128.02323375468515L69.1528862953186,93.96536106328034L69.30759073893229,115.62198859903297L69.61699962615967,-79.14963806073891L69.92640851338705,-6.236859527122177L70.3905218442281,37.07640920000393L70.5452262878418,68.19004248264304L70.69993073145548,80.00311995855871L70.85463517506916,89.21044230598889L71.16404406229654,104.13262085417917L71.47345294952392,124.3176987110682L71.62815739313761,139.10878766596213L71.937566280365,149.26873830171334L72.09227072397869,147.56697994644188L72.24697516759235,-118.07754627804427L72.71108849843344,-1.961177633768392L72.86579294204712,60.941050817895885L73.02049738566082,73.48710793515282L73.1752018292745,103.98413060004644L73.48461071650188,94.5508820616012L73.63931516011556,113.20080185009157L73.79401960372925,128.73800820430392L73.94872404734294,148.98564808229415L74.25813293457031,156.9198209003348L74.41283737818401,130.6498203487222L74.56754182179769,144.36923703068828L74.72224626541137,150.61333399016618L75.03165515263875,146.10704254432582L75.18635959625244,150.0056657980526L75.34106403986613,119.12946011730752L75.49576848347982,111.3770719981747L75.80517737070718,50.06349173339084L75.95988181432088,89.80927208151408L76.11458625793456,77.59563790268625L76.26929070154826,64.04651662197374L76.57869958877563,93.82876198777839L77.04281291961671,47.26114725145421L77.35222180684408,65.00417450173317L77.50692625045777,82.39695844467559L77.66163069407146,86.52892243199878L77.81633513768514,119.82793106947435L78.12574402491252,118.07217699976042L78.2804484685262,70.73481367635006L78.4351529121399,107.69865872830441L78.58985735575358,101.78530131987337L78.89926624298096,113.75691386555306L79.05397068659465,118.6177992454482L79.20867513020833,106.44714590616005L79.36337957382202,122.54344138749121L79.6727884610494,142.1932307166249L79.82749290466309,99.49391096859465L79.98219734827677,119.52536519315314L80.13690179189047,129.5299725306097L80.44631067911783,124.15166406474049L80.60101512273152,140.36595420891456L80.7557195663452,153.58448239130976L80.9104240099589,150.21604548232267L81.21983289718628,110.96761423871753L81.37453734079996,131.69623178346828L81.52924178441366,50.28432685820749L81.99335511525473,29.733634995405804L82.3027640024821,-75.72607645613346L82.45746844609579,-13.859569958620495L82.76687733332317,50.76207478854693L82.92158177693685,63.01288517128485L83.07628622055054,95.65520769337981L83.23099066416422,37.10742289111461L83.5403995513916,86.69029935198755L83.6951039950053,-123.64002335442751L83.84980843861898,-21.376155643604186L84.00451288223267,30.717300959568785L84.31392176946004,81.88094391670009L84.46862621307373,-108.12749390129923L84.77803510030111,-30.486584098576454L85.08744398752849,32.1725327282327L85.24214843114217,-21.506921312040802L85.55155731836955,42.65375456945555L85.86096620559692,5.518149108121417L86.0156706492106,75.28947200926127L86.1703750928243,100.76080995530974L86.32507953643798,45.89579221592399L86.63448842366536,89.48718720452166L86.78919286727904,69.76821492773409L86.94389731089275,112.78763455332493L87.09860175450642,121.19163456981437L87.40801064173381,137.31440584497219L87.5627150853475,142.9269528586101L87.71741952896119,153.67569695841698L87.87212397257487,120.75073078696677L88.18153285980225,136.18600706994204L88.33623730341594,146.73470966115127L88.49094174702962,154.57947365627155L88.64564619064332,152.3082473128321L88.95505507787068,155.67937741259564L89.10975952148438,130.2642511508571L89.41916840871176,145.53746857188688L89.72857729593913,124.01133772813498L90.0379861831665,113.52811847926367L90.65680395762125,112.34605205585991L90.81150840123495,114.44567632745216L90.96621284484863,135.6317226295231L91.275621732076,127.92165120218726L91.43032617568969,144.54472065448368L91.58503061930338,114.76338796500781L91.73973506291706,33.30820633800504L92.04914395014444,86.55620119203715L92.20384839375815,85.00776184855106L92.35855283737183,116.16521930307081L92.51325728098551,73.01852248427754L92.82266616821289,32.27964582462127L92.97737061182659,91.76214608272865L93.13207505544027,-6.761198989276436L93.28677949905396,-39.89190182303254L93.59618838628134,21.545687217034796L93.75089282989502,66.04807740375769L93.9055972735087,-23.424526629573183L94.0603017171224,41.02765401697903L94.36971060434978,91.2357813349217L94.52441504796346,119.96352211831505L94.67911949157715,65.22326808602217L94.83382393519084,48.496184450996964L95.2979372660319,64.61566770668894L95.45264170964559,-46.315673996610734L95.60734615325927,41.62036378276364L95.91675504048665,88.734548488481L96.07145948410033,100.16724681865306L96.22616392771403,123.39385343969957L96.38086837132771,129.15571649518827L96.69027725855508,142.33763124681136L96.8449817021688,147.60250806946138L96.99968614578246,155.5451631566342L97.15439058939617,135.4729645834353L97.46379947662354,62.38597787664564L97.61850392023723,105.83696455262371L97.77320836385091,134.79535562767649L97.92791280746461,140.38442464383755L98.23732169469199,92.76532835003037L98.54673058191935,107.13490230956737L98.70143502553304,128.5597376731262L99.01084391276042,96.25895844549261L99.1655483563741,96.4420380815734L99.3202527999878,126.05350661021204L99.47495724360148,75.52573880243601L99.78436613082886,94.942619555362L99.93907057444254,107.98825717370103L100.09377501805623,116.68625291442167L100.24847946166992,134.40514099351265L100.86729723612467,115.79976151478749L101.02200167973835,124.81715139862982L101.33141056696573,87.83965300971953L101.48611501057943,111.35115922068178L101.6408194541931,126.05927179330116L101.79552389780682,129.80467905844972L102.10493278503417,113.73827964711707L102.25963722864788,110.304347902217L102.41434167226156,134.30055269316864L102.56904611587525,132.86414387186718L102.87845500310263,146.54780150306487L103.18786389033001,97.96286042948269L103.34256833394369,101.80686839642374L103.65197722117107,117.23035646561699L103.80668166478475,108.8768946351583L103.96138610839844,48.943998963801796L104.4254994392395,52.145220506154736L104.58020388285318,80.11191227476601L104.88961277008056,-59.265107030601186L105.19902165730794,0.988538501985762L105.35372610092163,67.9689939460185L105.50843054453532,100.95954935667945L105.663134988149,113.53649992085514L105.97254387537637,125.74580763552619L106.12724831899007,91.63458237560127L106.28195276260375,113.8321772928923L106.43665720621745,94.18398448792753L106.74606609344484,102.58411277050905L106.90077053705852,57.074222733085364L107.2101794242859,-29.418381026263923L107.67429275512696,47.11640313849169L107.98370164235433,88.85796573244843L108.29311052958171,99.12304447081098L108.44781497319539,81.39356196243101L108.60251941680909,23.636474579792548L108.75722386042277,75.36315326536776L109.06663274765015,111.07872835031978L109.22133719126384,55.54521332124307L109.37604163487752,89.16195610885917L109.5307460784912,115.25538958564456L109.84015496571858,137.29694190350898L109.99485940933228,79.27694382324411L110.14956385294596,115.1731366174086L110.30426829655966,67.46221324329412L110.61367718378702,109.78970580640735L110.76838162740071,59.70022106027761L110.9230860710144,82.41487057610622L111.07779051462809,94.54662446207064L111.38719940185547,129.0512628384236L111.54190384546915,15.273038451522853L111.69660828908283,63.38637748381737L111.85131273269654,98.45385195143429L112.4701305071513,63.590614215651385L112.62483495076498,12.21793973933483L112.93424383799235,56.542880555997726L113.08894828160604,49.495262761537205L113.24365272521973,100.79694005343526L113.39835716883341,133.29073258230966L113.70776605606079,111.45444149220445L113.86247049967449,-14.752870337196878L114.01717494328817,48.09954929202894L114.17187938690185,84.61865299839849L114.48128827412923,89.83926710492338L114.63599271774292,123.49143210287595L114.7906971613566,123.32537834328578L114.9454016049703,122.02973344472436L115.25481049219766,142.84838808749612L115.40951493581136,52.24271151664066L115.56421937942504,73.41955561978314L115.71892382303874,5.740092088585003L116.02833271026611,62.95384974301507L116.33774159749349,61.171507260981L116.49244604110717,91.20293257180109L116.95655937194823,101.84809006933726L117.11126381556194,114.62092505052752L117.26596825917562,132.01663636823972L117.575377146403,128.19236310933775L117.73008159001668,-11.444419747770382L117.88478603363038,44.5589085409631L118.03949047724406,59.04138462796796L118.34889936447144,93.72650575552193L118.50360380808513,108.44497187631237L118.65830825169881,84.9810174219276L118.81301269531251,120.7850987235696L119.12242158253987,133.72448659505818L119.27712602615357,142.71638867237138L119.43183046976725,132.10845334243322L119.58653491338094,140.99217617195043L119.89594380060832,111.97967353793345L120.050648244222,128.27585399480623L120.20535268783568,147.51692672043268L120.36005713144938,157.89814086126324L120.82417046229044,150.12301449373692L120.97887490590414,93.47910676994198L121.13357934951782,111.06778086051548L121.4429882367452,137.0026219239799L121.59769268035888,152.37082910852152L121.75239712397259,157.6924698514534L121.90710156758625,134.98279805098292L122.21651045481364,117.61267560683643L122.37121489842734,117.05508125676052L122.52591934204102,119.49605954627856L122.6806237856547,59.11265848914366L122.99003267288208,-190.7875219662362L123.14473711649578,-71.91660672050624L123.29944156010946,16.220689817437755L123.76355489095052,76.67580785702879L123.91825933456421,108.68740238648945L124.0729637781779,132.97910686119877L124.22766822179159,151.7170047448421L124.53707710901897,-9.364766530209248L124.69178155263265,62.472824215133336L124.84648599624633,95.07580489711816L125.00119043986003,123.46999458665039L125.3105993270874,131.0775682175004L125.46530377070108,144.3972846842656L125.62000821431478,152.98720834778055L125.77471265792846,135.77891274783974L126.08412154515584,114.3492019655276L126.23882598876952,127.96863533889906L126.39353043238322,107.95899910546717L126.5482348759969,-58.99953698574866L127.01234820683798,-4.0208936376940585L127.16705265045167,69.66815300697651L127.63116598129272,114.042841140283L127.78587042490642,123.24964286721989L127.9405748685201,128.26474776692498L128.40468819936117,107.40303133467029L128.55939264297484,132.00473210324614L128.71409708658854,134.20590326170867L128.86880153020223,130.1607454460002L129.3329148610433,85.82095719150199L129.487619304657,117.24431460598848L129.64232374827068,55.6262158026796L129.95173263549805,81.16441101257459L130.10643707911174,83.65444351180476L130.26114152272544,62.32088152433529L130.4158459663391,46.18354580221011L130.7252548535665,78.21557648042356L130.87995929718016,40.132073656878156L131.03466374079386,63.13915990896017L131.18936818440756,103.47960679086479L131.49877707163492,123.12403817857714L131.65348151524861,104.85236086599635L131.8081859588623,87.45456810396594L131.962890402476,114.50304857671483L132.27229928970337,39.798920777736456L132.42700373331706,91.22504802000738L132.58170817693073,116.59007847593686L132.73641262054443,98.18528788533018L133.04582150777182,66.24843956001399L133.2005259513855,94.35669677907005L133.35523039499918,108.69447840169484L133.97404816945394,112.65029030918289L134.12875261306763,136.85694014399462L134.5928659439087,127.75745978511202L134.7475703875224,148.83784153438654L134.90227483113608,135.69796577280704L135.05697927474975,151.07368964142918L135.52109260559084,160.00370895467827L135.6757970492045,156.68084152525225L135.8305014928182,73.44917948513589L136.13991038004556,102.85219568632004L136.29461482365926,118.47152761139665L136.44931926727295,130.33103519800247L136.60402371088665,147.95419658479994L136.913432598114,141.26368418003827L137.0681370417277,138.01232323719424L137.22284148534138,141.03082483909304L137.84165925979613,79.88856408321324L137.99636370340983,116.91624111986502L138.15106814702352,140.469246738166L138.46047703425089,155.89753898082185L138.61518147786458,137.85976390918557L138.76988592147828,132.72258812154533L138.92459036509194,147.24592552415862L139.23399925231934,157.72015212304333L139.388703695933,141.039109146108L139.5434081395467,143.56352156808492L139.69811258316042,155.71342646691508L140.0075214703878,144.6795367484385L140.16222591400145,120.38445972019247L140.31693035761518,132.0231035019127L140.47163480122884,71.65729910684932L140.7810436884562,91.86701442955822L140.9357481320699,126.5958287443459L141.0904525756836,124.29806255999999L141.2451570192973,126.49251568781703L141.55456590652466,145.6680065771503L141.70927035013833,123.48401674078627L142.01867923736572,88.78570560307493L142.32808812459308,119.5485208133464L142.4827925682068,114.88646102542455L142.63749701182047,139.54669076691002L142.79220145543417,131.96557244588737L143.10161034266153,149.34030201162366L143.25631478627523,159.46632079074624L143.41101922988892,144.10817322206196L143.5657236735026,157.49790066007782L143.87513256073,164.9484716910984L144.02983700434368,164.2613436231898L144.18454144795737,169.60537202949988L144.33924589157104,173.8335490375631L144.64865477879843,158.95474637327337L144.80335922241213,165.33909242831493L145.1127681096395,160.68471351277165L145.42217699686688,155.24382180164855L145.57688144048055,138.96318770148073L145.73158588409424,134.5151468460925L145.8862903277079,135.9746107073105L146.1956992149353,140.58843303694758L146.350403658549,141.72854700639212L146.65981254577636,155.65465500429113L146.96922143300375,146.93707301653865L147.74274365107217,147.40858846330175L147.89744809468587,146.44796050637402L148.05215253829954,145.84366831883167L148.20685698191326,157.2492048916136L148.51626586914062,152.52580206760703L148.6709703127543,160.39398282989913L148.82567475636802,165.18137658222201L148.9803791999817,163.10424695452485L149.28978808720905,150.59700732742107L149.44449253082274,141.73364814671652L149.59919697443647,154.4381938644676L149.75390141805013,161.7716604352301L150.0633103052775,160.80880587010225L150.2180147488912,165.98132020718094L150.3727191925049,152.72992155114835L150.52742363611858,154.52985727227L150.83683252334595,152.43263509187875L150.99153696695964,157.75044538702588L151.14624141057334,160.11067937854466L151.300945854187,147.00956797579067L151.61035474141437,149.14934221932145L151.7650591850281,67.53666132884943L151.91976362864176,92.7484392477677L152.07446807225546,82.97286523746298L152.38387695948285,72.2072747150752L152.6932858467102,84.75257976006186L152.84799029032388,121.43445779465365L153.15739917755127,143.66842481485406L153.31210362116497,141.55564919590248L153.46680806477863,153.23076407809089L153.62151250839233,161.46151383846106L153.93092139561972,164.0274044581394L154.08562583923342,166.58427886849506L154.24033028284708,155.05936322395317L154.39503472646075,159.68819969394232L154.70444361368817,146.42238504880694L154.85914805730184,142.6872444731364L155.01385250091553,97.6200729645055L155.1685569445292,120.76970438745128L155.4779658317566,139.203181025382L155.6326702753703,152.8765916052692L155.78737471898395,149.4548771837508L155.94207916259768,142.35264305483474L156.25148804982504,154.35379513443493L156.4061924934387,145.38999903027496L156.5608969370524,146.89080436593886L156.7156013806661,154.4891809977365L157.02501026789346,157.24155018778978L157.17971471150716,161.69347215828347L157.33441915512083,152.44819901767528L157.48912359873455,146.06531137132237L157.95323692957558,160.58173855960894L158.1079413731893,152.03680778666455L158.26264581680297,155.23037761759895L158.57205470403034,154.68364290062829L158.72675914764403,159.4103158888289L158.88146359125776,166.83233584734765L159.03616803487142,160.09153773119934L159.3455769220988,149.15825785755126L159.5002813657125,156.52960075555126L159.65498580932618,146.6749986136302L159.80969025293987,142.92762635048416L160.11909914016724,157.3246114816865L160.27380358378093,144.08572155151728L160.42850802739463,133.03497219434905L160.5832124710083,141.06260418393492L160.89262135823566,150.60728827298487L161.20203024546305,137.7682143974694L161.35673468907675,138.04522470501425L161.66614357630414,151.3346338718581L161.8208480199178,159.70234274021124L162.13025690714517,144.45341218452668L162.43966579437256,115.69175409372566L162.74907468159992,134.53056285874564L163.213188012441,140.04099521780176L163.36789245605468,140.10649052550247L163.52259689966837,151.8208991633871L163.67730134328204,148.83953190867757L163.98671023050946,159.80379854484877L164.14141467412313,135.48523700580108L164.2961191177368,152.87072639958637L164.4508235613505,164.26878580531712L164.76023244857788,108.14389945409945L164.91493689219158,110.77920082773862L165.06964133580524,136.75065380964176L165.22434577941897,125.48466511645536L165.68845911026,122.85428436900042L165.8431635538737,145.980640631903L165.9978679974874,141.4994519694395L166.30727688471475,148.98097285446798L166.46198132832845,156.88997762114056L166.61668577194214,162.97489803213296L167.0807991027832,168.8857681100538L167.3902079900106,166.83986052499782L167.54491243362426,165.66375249520422L167.85432132085162,171.9802122114839L168.00902576446535,142.25384910846108L168.16373020807902,157.30460392032322L168.3184346516927,164.68251654720189L168.62784353892008,170.47720242400518L168.7825479825338,173.8829704686922L168.93725242614747,168.4772043820222L169.09195686976113,169.5655723186597L169.4013657569885,171.76459926057967L169.55607020060222,173.77356536176364L169.71077464421592,173.94907184853716L169.86547908782958,173.7347894018892L170.17488797505698,172.67558217618193L170.32959241867067,175.0774320382092L170.48429686228434,173.5109384270122L171.1031146367391,170.0732886054045L171.2578190803528,173.70783278909406L171.41252352396646,173.9033421048181L171.72193241119385,171.66577611171832L171.87663685480754,161.7720045303949L172.0313412984212,167.664067114295L172.1860457420349,141.67958810739174L172.4954546292623,149.88814583463974L172.65015907287597,148.35652698612503L172.80486351648966,114.49760111403043L173.26897684733072,136.89548462029683L173.42368129094442,151.23516839133399L173.57838573455808,158.15973375550908L173.7330901781718,161.5269770244423L174.04249906539917,135.74689481162918L174.19720350901284,147.0062141081334L174.35190795262653,158.45544699895015L174.50661239624026,162.320060073897L174.81602128346762,169.75544896800918L174.9707257270813,154.22662157529507L175.125430170695,118.17170048553605L175.28013461430868,140.92610727850214L175.58954350153604,140.44021863543398L175.74424794514974,109.91303280366283L175.89895238876343,121.90621842623318L176.05365683237713,144.1403691890655L176.3630657196045,148.21346364120564L176.51777016321816,154.7653086562812L176.67247460683188,161.66127675386988L176.82717905044555,162.2004691243699L177.1365879376729,154.78044075991878L177.29129238128664,153.41183566599076L177.4459968249003,160.84476508287148L177.600701268514,159.03660070227545L177.91011015574136,146.75287096832682L178.06481459935506,158.3849036238605L178.21951904296876,157.58030094675712L178.37422348658242,166.46478697218595L178.68363237380984,169.68324838234076L178.9930412610372,168.1999953284896L179.14774570465087,163.96910353430266L179.45715459187826,168.78985390241866L179.76656347910563,170.3466591976104L179.92126792271932,156.05054410033912L180.23067680994671,149.03025438079163L180.38538125356038,161.36307465114024L180.54008569717408,165.197121820654L180.69479014078775,143.87751650282522L181.00419902801514,142.05218360976187L181.15890347162883,154.24812636482173L181.3136079152425,164.4420529944979L181.4683123588562,165.89284827887369L181.7777212460836,168.7230682169689L181.93242568969725,151.3269832137817L182.08713013331095,157.38502863743736L182.551243464152,166.46610197947746L182.7059479077657,165.8740485986635L182.86065235137937,129.93891360799108L183.0153567949931,150.1732788804211L183.32476568222046,153.87341819496106L183.47947012583413,155.39209499712297L183.78887901306155,165.35154854383956L184.09828790028888,168.797018153889L184.4076967875163,154.0054875572989L184.56240123112997,155.86372760231998L184.87181011835733,161.63558859833174L185.02651456197103,116.85594295305539L185.18121900558472,141.42906404380113L185.33592344919842,155.87472511329187L185.64533233642578,165.62747811612348L185.80003678003948,137.60699375937872L186.10944566726684,131.1519063586843L186.4188545544942,137.85347189117985L186.57355899810793,154.44031748133827L186.7282634417216,140.62358027654844L186.8829678853353,151.85732081351537L187.19237677256268,122.7887898851145L187.34708121617635,136.66652293785404L187.50178565979004,153.02978394205095L187.6564901034037,162.92559502284666L187.9658989906311,142.7226434922898L188.1206034342448,155.09530231783103L188.43001232147216,153.36300070540597L188.73942120869955,142.69007931135076L188.89412565231325,150.02417653838674L189.04883009592692,163.501490823918L189.512943426768,169.41803599275386L189.66764787038167,173.03979859292295L189.82235231399537,170.57923589429114L189.97705675760903,158.85138190864606L190.5958745320638,169.10954779437236L190.7505789756775,147.1404046995193L191.05998786290488,157.11394853501866L191.21469230651854,166.13862682166624L191.36939675013224,161.9635342807336L191.52410119374593,142.65536558551977L191.8335100809733,153.39754381999893L191.988214524587,158.03979316762715L192.14291896820066,163.50305412332932L192.29762341181439,150.86553575851872L192.76173674265542,150.8235752874298L193.38055451711017,158.38501731733746L193.6899634043376,155.27129500782038L193.84466784795126,161.04894298439976L194.15407673517862,151.65805352132807L194.30878117879234,139.2820667772735L194.463485622406,151.59846215907626L194.6181900660197,133.58086123253887L195.08230339686077,148.87087471240736L195.23700784047446,142.6706760483692L195.39171228408813,150.00260454558116L195.7011211713155,157.86278346962482L195.85582561492922,162.38986854361625L196.01053005854288,158.90959751280343L196.16523450215658,158.94488453711332L196.47464338938397,162.1486806811009L196.78405227661133,160.2393059358772L196.938756720225,114.38480274523806L197.2481656074524,133.07302436018685L197.4028700510661,151.23094740091858L197.55757449467976,163.77612119342183L198.02168782552084,164.36013438384L198.1763922691345,145.70334830706818L198.3310967127482,160.2861598258164L198.48580115636187,159.97234509463394L198.7952100435893,158.794371011515L198.94991448720296,165.7282908772075L199.10461893081663,103.99371846823661L199.25932337443032,116.4691299714483L199.56873226165771,138.87327385072095L199.7234367052714,150.40617645601984L199.87814114888508,137.24224992433963L200.0328455924988,148.82051714993904L200.34225447972617,25.90277196153016L200.49695892333983,88.03673166760863L200.65166336695353,112.79964945505137L200.80636781056722,139.26848317439067L201.1157766977946,142.22079565302917L201.27048114140828,148.7213305124964L201.42518558502198,156.8088839250751L201.57989002863567,158.90517926566577L201.88929891586304,165.77029882345505L202.0440033594767,155.87987572892013L202.19870780309043,153.25151958861855L202.3534122467041,158.01179241019142L202.66282113393146,164.28795380909787L203.59104779561363,144.68032362485326L203.7457522392273,155.67626569365913L203.90045668284097,161.05328916204314L204.20986557006833,164.79780689818762L204.36457001368206,171.0676226368302L204.51927445729575,148.81579758005793L204.67397890090942,153.2151419406897L204.9833877881368,155.89528324271225L205.1380922317505,144.4738280649565L205.29279667536417,152.55059474933216L205.75691000620526,121.64279154287237L205.91161444981893,124.34585610615214L206.06631889343262,142.1408109017347L206.2210233370463,98.46628220737726L206.53043222427368,95.10975571770526L206.68513666788738,126.2122504023692L206.83984111150104,109.73769472984971L206.99454555511474,106.1767539393121L207.30395444234213,92.36334467287281L207.4586588859558,-11.514158095486994L207.6133633295695,-33.39534442817356L207.76806777318316,20.442944365086042L208.23218110402425,70.4843491143894L208.38688554763792,99.46273236277302L208.54158999125164,117.21525827682072L208.850998878479,137.15212340479508L209.00570332209267,147.17569291784784L209.16040776570637,138.01906637403053L209.3151122093201,75.77074391614373L209.62452109654745,76.19093193422194L209.77922554016112,77.67318172351249L209.93392998377485,87.00214963558152L210.0886344273885,65.6479452784668L210.39804331461588,102.52717490994294L210.55274775822957,101.39127864172754L210.70745220184327,127.68996229787939L210.86215664545696,122.62906984403858L211.326269976298,66.11892122226762L211.48097441991172,89.60001335153434L211.63567886352538,26.05842891806272L211.94508775075275,34.12556281931011L212.09979219436647,72.63040757363457L212.25449663798014,98.88308266147895L212.40920108159384,101.44427588721655L212.7186099688212,107.89266277986358L212.8733144124349,15.61870716427449L213.0280188560486,-5.910757518214231L213.18272329966226,47.772403941931884L213.80154107411704,86.48658330233671L213.9562455177307,109.44701531133371L214.2656544049581,85.83065691408936L214.4203588485718,115.76553943034126L214.57506329218546,137.32777989752586L214.72976773579916,136.74454398729537L215.19388106664022,108.41587713113128L215.3485855102539,122.62807737826185L215.50328995386758,118.63084932165027L215.81269884109497,131.9111260532963L215.96740328470867,44.706080041998725L216.12210772832233,85.36207482813029L216.27681217193603,116.17068104903477L216.58622105916342,129.49063635380267L216.7409255027771,93.052247472453L216.89562994639078,55.49266997387567L217.05033439000448,93.4544179087635L217.35974327723184,51.914803024222316L217.51444772084554,-77.79236336508703L217.6691521644592,-25.816715815184736L217.82385660807293,21.93089684111576L218.1332654953003,61.85346431534373L218.28796993891396,62.49910999279309L218.44267438252768,36.943726108549086L218.59737882614138,25.42313448954531L219.0614921569824,48.93594741243857L219.3709010442098,83.38293540358163L219.68030993143717,87.16503474300411L219.83501437505086,102.19070710227554L219.98971881866456,120.75681466300624L220.14442326227825,129.16045064382L220.45383214950562,111.14159950926216L220.6085365931193,87.79712870358932L221.38205881118776,123.82846161401646L221.53676325480143,139.6058829235413L221.69146769841512,151.74060856153878L222.00087658564252,138.18379553499716L222.15558102925618,67.5892891958516L222.31028547286988,66.58184134957159L222.46498991648355,35.75485873971385L222.77439880371094,77.47096310745921L222.92910324732463,111.18126267879197L223.0838076909383,135.68865333529854L223.238512134552,126.74618647399592L223.5479210217794,130.0114263293848L223.70262546539308,149.42012471730672L223.85732990900675,145.19401108626064L224.01203435262042,159.5530867132402L224.32144323984784,4.180084169434144L224.78555657068887,75.46244362854232L225.09496545791626,84.30997711560495L225.24966990152996,105.65597022396729L225.40437434514362,130.49231754019144L225.55907878875735,141.43885693072374L225.8684876759847,88.06038540533L226.02319211959838,96.3290064687794L226.33260100682577,84.70948370183093L226.64200989405313,120.8798801275669L226.79671433766683,114.58028988110526L227.10612322489422,103.40121431334518L227.41553211212158,85.33004186124245L227.57023655573525,111.43111664296184L227.72494099934897,117.17509670443987L227.87964544296264,121.80748960507098L228.18905433019,88.58393133169653L228.3437587738037,113.97035956747035L228.49846321741742,123.85051071532273L228.6531676610311,139.0295465926855L228.96257654825845,114.99915760841115L229.11728099187218,107.60245904574134L229.27198543548585,131.9983029053748L229.42668987909954,91.21350709408769L229.7360987663269,31.816399470662894L229.8908032099406,63.91413012291988L230.0455076535543,-11.035993302296971L230.20021209716796,62.97280194116541L230.66432542800905,110.31834125274321L230.81902987162272,134.76846195733367L230.9737343152364,152.42161672950473L231.2831432024638,163.90076440572818L231.43784764607747,170.09765176389377L231.59255208969117,170.88783384318526L231.74725653330484,165.88027310486527L232.05666542053223,141.24440281672233L232.21136986414592,147.8287556756668L232.3660743077596,125.4090480179093L232.83018763860068,133.3473263269975L232.98489208221434,117.85288936027824L233.13959652582804,142.1874314468243L233.2943009694417,126.04148625169174L233.60370985666913,133.90992066927726L233.7584143002828,105.13294111980703L233.91311874389646,123.71813237812957L234.06782318751016,138.50013263256875L234.37723207473755,154.87140709770551L234.53193651835124,150.29358022146616L234.6866409619649,157.879852369522L235.30545873641967,163.7074785044495L235.46016318003336,171.13906644324737L235.61486762364706,174.99318333568326L235.92427651087442,173.58269737611997L236.07898095448812,172.3213780432611L236.2336853981018,173.75385348925602L236.3883898417155,174.95481843744798L236.69779872894287,132.14289735840336L236.85250317255654,148.20499025305816L237.00720761617026,160.3914927071052L237.16191205978393,165.52417113454413L237.4713209470113,166.85591091979194L237.62602539062502,171.90262798317946L237.78072983423868,177.80041272081897L237.93543427785238,146.5086173062605L238.24484316507974,157.60959998523364L238.55425205230713,156.18209656062143L238.7089564959208,133.08459891652598L239.01836538314816,139.77255841364197L239.1730698267619,140.45653547309885L239.32777427037558,154.37444885061586L239.48247871398925,129.1051789186784L239.79188760121664,111.85880787468601L239.94659204483034,138.35629757442152L240.101296488444,150.39840442924995L240.2560009320577,156.21875499631517L240.5654098192851,154.39750784685782L240.72011426289876,152.9441703016394L240.87481870651246,108.03075033985384L241.02952315012612,136.0017871308316L241.33893203735352,119.18061766628996L241.64834092458088,116.43613483222558L241.80304536819457,141.2930284018904L242.11245425542197,155.23163136608875L242.576567586263,159.34719327913993L242.8859764734904,160.84962595506465L243.04068091710408,154.42397069073448L243.19538536071775,149.45062521263856L243.35008980433147,157.44434142960864L243.8142031351725,166.3458994203584L243.9689075787862,162.83031726134874L244.12361202239993,167.88988562806068L244.4330209096273,124.73929558791815L244.58772535324096,127.9044095480372L244.74242979685468,142.40951249107982L245.2065431276957,111.25337659506701L245.3612475713094,102.53097682451452L245.5159520149231,47.81756479954434L245.98006534576416,90.59350184606934L246.13476978937783,30.01215309334752L246.28947423299155,80.61654888237524L246.44417867660522,119.1254889173425L246.75358756383258,138.76269412080197L246.9082920074463,146.12223088686792L247.21770089467367,154.99130154730057L247.52710978190103,153.59713193822375" fill="none"></path></g></g></g></g><g opacity="0.2"><g><g><g><path style="fill: none;" stroke="rgb(255, 112, 67)" stroke-width="2px" d="M31.095593166351318,-4.87185893781043L31.250297609965006,23.570924118958388L31.405002053578695,34.99760270506203L32.023819828033446,93.61325655647805L32.178524271647134,123.50143837123811L32.48793315887451,121.47451414622356L32.6426376024882,27.035905590310463L32.95204648971558,142.83598073724124L33.261455376942955,162.12089943181343L33.416159820556636,152.82583449683375L33.570864264170325,161.47882416274814L33.72556870778402,15.031465055792985L34.03497759501139,58.11103138155703L34.18968203862508,29.878104242746296L34.49909092585246,136.5677388957805L34.808499813079834,36.64381521834274L34.96320425669352,-337.8876688856617L35.11790870030721,124.3711513002363L35.2726131439209,53.4245849267545L35.58202203114827,156.7282344523956L35.73672647476196,-16.230158101290726L35.89143091837565,148.3755885902558L36.04613536198934,146.8075971891078L36.35554424921672,86.01382019426796L36.66495313644409,96.78922453536234L36.81965758005778,163.37009606999447L37.129066467285156,146.83510798007023L37.283770910898845,154.36874460846911L37.43847535451253,122.73376008585602L37.59317979812622,34.73938645642693L38.05729312896728,-15.694731319958464L38.21199757258097,133.25007355779337L38.36670201619466,7.517220266238837L38.67611090342204,150.11425909416505L38.83081534703573,144.21214753846402L38.98551979064942,124.54703837065085L39.1402242342631,89.91285197736534L39.44963312149048,157.78007827053432L39.60433756510417,133.09640979973142L39.759042008717856,127.63277908296504L39.913746452331544,149.49147185797347L40.223155339558915,158.5628371340066L40.3778597831726,148.92766849970758L40.53256422678629,128.8148243010737L40.68726867039998,148.51482552698133L40.996677557627365,93.14200395162334L41.15138200124105,125.35728593870874L41.30608644485474,125.62856407059303L41.7701997756958,121.65328128017495L41.92490421930949,145.71099091107544L42.07960866292318,66.46552145616101L42.23431310653687,156.59852778726633L42.698426437377925,126.37923584582654L42.853130880991614,158.0499009101864L43.0078353246053,93.83210604707574L43.31724421183268,30.392345771436325L43.471948655446376,18.2620835654716L43.626653099060064,135.1648784995375L43.78135754267375,117.29908460909587L44.09076642990112,103.5505800774506L44.24547087351481,109.92796837586229L44.4001753171285,166.73193857888964L44.55487976074219,109.84682302743907L44.864288647969566,139.95585094126102L45.01899309158325,54.024963325028224L45.173697535196936,150.503739097495L45.328401978810625,143.56433202006417L45.79251530965169,151.0417941576684L45.94721975326539,171.75536130205433L46.411333084106445,173.73523491853706L46.566037527720134,146.91377523701465L46.72074197133382,123.9321713091856L46.87544641494751,113.46456271540364L47.18485530217489,89.43275598723334L47.49426418940226,125.03679052472694L47.64896863301595,171.69794997415795L47.958377520243324,157.63207745948807L48.11308196385701,154.10024494278832L48.2677864074707,90.58821804220588L48.4224908510844,-185.49898386096808L48.73189973831177,132.3473503300055L48.886604181925456,152.29534622935762L49.041308625539145,116.12864799064187L49.19601306915283,160.80674234214018L49.50542195638021,146.7358429681069L49.6601263999939,162.89777448450184L49.81483084360758,103.0872608991483L49.96953528722127,164.01116640891462L50.27894417444865,107.30907182759027L50.433648618062335,163.3235203185642L50.588353061676024,167.7099034665777L50.74305750528971,75.04102548629066L51.05246639251708,157.3933148915528L51.20717083613078,133.13452646884105L51.36187527974447,162.21906675084898L51.516579723358156,133.99868246543224L51.82598861058553,172.12868953801848L51.98069305419922,63.81600435507084L52.13539749781291,166.53062125420877L52.29010194142659,113.1258283714469L52.59951082865397,131.26745460467237L52.75421527226766,164.9705279414103L52.908919715881346,-148.56483703518916L53.37303304672242,165.29645218681355L53.527737490336094,102.68182569720624L53.68244193394979,70.37833513839178L53.83714637756348,147.57635328967854L54.146555264790855,67.7908454179526L54.301259708404544,-47.759538821794195L54.45596415201823,148.92237660382239L54.61066859563192,155.31030452125083L54.92007748285929,17.245491813369426L55.07478192647298,95.60118949186106L55.22948637008667,138.15826281855652L55.38419081370036,91.8325115047337L55.693599700927734,16.5489228267852L55.848304144541416,111.37041197663551L56.003008588155105,64.97169610836227L56.1577130317688,54.42391396673702L56.46712191899618,-213.6164257526816L56.621826362609866,69.15795680468068L56.776530806223555,126.12141715197411L56.93123524983724,147.57665366440324L57.24064413706461,157.63217905682143L57.3953485806783,114.54804968560711L57.55005302429199,109.69861460445075L57.70475746790568,-236.5661855424169L58.01416635513306,134.4327592808297L58.168870798746745,99.2170562550716L58.32357524236043,1.4997780680782853L58.478279685974115,155.77264306442248L58.94239301681519,-194.14564136264923L59.09709746042888,-40.22698884313468L59.251801904042566,48.44385958725115L59.561210791269936,113.74265670317345L59.715915234883624,81.63730744805366L59.87061967849731,-58.35686512389384L60.025324122111,112.38059867946093L60.33473300933838,111.23830893962167L60.48943745295207,159.57330654245527L60.64414189656575,117.56920983211035L60.79884634017944,98.3322671652586L61.10825522740682,92.20106245739247L61.26295967102051,37.741843859042085L61.57236855824789,122.36686561145848L61.88177744547526,123.02274707467166L62.03648188908895,49.069036569414266L62.191186332702635,-5.5724388104244875L62.345890776316324,-40.51025987763023L62.6552996635437,42.02644193949753L62.81000410715739,114.51491128583187L62.96470855077108,126.7216100246826L63.11941299438476,127.58456452237498L63.42882188161214,101.78707123417371L63.58352632522583,99.81250497403994L63.89293521245321,139.36024761765498L64.20234409968059,113.91980711434189L64.35704854329427,40.369663303547895L64.51175298690795,177.84965967426035L64.66645743052165,175.85096625609242L64.97586631774902,-73.20334528893407L65.13057076136272,132.5499133263388L65.2852752049764,144.22221892629227L65.43997964859008,130.368543485523L65.74938853581746,141.3088579677542L66.05879742304484,150.6737026016474L66.21350186665853,71.41906288307882L66.52291075388591,103.07791394447963L66.67761519749959,158.5625720974848L66.83231964111327,164.01977567859763L66.98702408472697,131.88815246961713L67.29643297195435,92.52946921154988L67.45113741556804,139.01587683033472L67.60584185918172,65.9577114803999L67.76054630279542,17.59394416312535L68.06995519002278,-63.85310416739186L68.22465963363648,159.58699347016835L68.37936407725016,171.59099448578718L68.53406852086385,161.4129670043572L68.84347740809123,128.87354755975298L68.99818185170491,123.82070578266894L69.1528862953186,42.87855202617311L69.30759073893229,148.10692990266193L69.61699962615967,-371.30707805039674L69.92640851338705,103.13230827330288L70.3905218442281,102.0463122906931L70.5452262878418,114.86049240660167L70.69993073145548,97.72273617243218L70.85463517506916,103.02142582713418L71.16404406229654,126.51588867646456L71.47345294952392,154.59531549640178L71.62815739313761,161.295421098303L71.937566280365,164.5086642553402L72.09227072397869,145.01434241353468L72.24697516759235,-516.5443356147734L72.71108849843344,172.21337533264534L72.86579294204712,155.29439349539234L73.02049738566082,92.30619361103822L73.1752018292745,149.7296645973869L73.48461071650188,80.40100925393335L73.63931516011556,141.17568153282707L73.79401960372925,152.0438177356225L73.94872404734294,179.3571078992794L74.25813293457031,168.82108012739582L74.41283737818401,91.24481952130327L74.56754182179769,164.94836205363742L74.72224626541137,159.979479429383L75.03165515263875,139.3476053755653L75.18635959625244,155.85360067864275L75.34106403986613,72.81515159618992L75.49576848347982,99.74848981947548L75.80517737070718,-41.90687866378492L75.95988181432088,149.42794260369897L76.11458625793456,59.275186634444474L76.26929070154826,43.722834700904954L76.57869958877563,138.50213003648537L77.04281291961671,-22.590274853032028L77.35222180684408,91.6187153771516L77.50692625045777,108.48613435908919L77.66163069407146,92.72686841298353L77.81633513768514,169.77644402568774L78.12574402491252,115.43854589518946L78.2804484685262,-0.2712313087654234L78.4351529121399,163.1444263062359L78.58985735575358,92.91526520722687L78.89926624298096,131.7143326840726L79.05397068659465,125.9091273152909L79.20867513020833,88.19116589722783L79.36337957382202,146.68788460948792L79.6727884610494,171.66791471032542L79.82749290466309,35.4449313465493L79.98219734827677,149.57254652999086L80.13690179189047,144.53688353679456L80.44631067911783,116.08420136593668L80.60101512273152,164.68738942517564L80.7557195663452,173.41227466490255L80.9104240099589,145.16339011884202L81.21983289718628,52.094967373309814L81.37453734079996,162.78915810059448L81.52924178441366,-71.83353052968367L82.3027640024821,-233.9156436334424L82.45746844609579,78.94018978764893L82.76687733332317,147.6945419092981L82.92158177693685,81.38910074539172L83.07628622055054,144.61869147652226L83.23099066416422,-50.71425431228316L83.5403995513916,161.06461404329696L83.6951039950053,-439.13550741405027L83.84980843861898,132.01964592263084L84.00451288223267,108.85748586432828L84.31392176946004,158.62640835239705L84.46862621307373,-393.1401506282982L84.62333065668741,50.554142215645925L84.77803510030111,-9.234201064659374L85.08744398752849,126.16120796844643L85.24214843114217,-102.02610237245109L85.55155731836955,138.89476839170004L85.86096620559692,-50.18525908387983L86.0156706492106,179.94645636097107L86.1703750928243,138.96781687438238L86.32507953643798,-36.4017343931546L86.63448842366536,154.87427968741815L86.78919286727904,40.189756512552776L86.94389731089275,177.31676399171124L87.09860175450642,133.79763459454853L87.40801064173381,161.4985627577089L87.5627150853475,151.34577337906694L87.71741952896119,169.79881310812732L87.87212397257487,71.36328152979148L88.18153285980225,159.33892149440499L88.33623730341594,162.55776354796512L88.49094174702962,166.3466196489519L88.64564619064332,148.90140779767296L88.95505507787068,160.73607256224096L89.10975952148438,92.14156175824927L89.41916840871176,168.44729470343157L89.72857729593913,91.72214146250711L90.0379861831665,97.8032896059567L90.65680395762125,110.57295242075429L90.81150840123495,117.59511273484053L90.96621284484863,167.41079208262948L91.275621732076,116.3565440611835L91.43032617568969,169.47932483292834L91.58503061930338,70.09138893079398L91.73973506291706,-88.87456610249912L92.04914395014444,166.42819347308534L92.20384839375815,82.68510283332193L92.35855283737183,162.90140548485044L92.51325728098551,8.298477256087615L92.82266616821289,-28.828669164863186L93.28677949905396,-89.58795607366663L93.59618838628134,113.70207077713575L93.75089282989502,132.8016626838421L93.9055972735087,-157.63343267956952L94.0603017171224,137.7059249868073L94.36971060434978,166.54797231183568L94.52441504796346,163.05513329340516L94.67911949157715,-16.887112962417163L94.83382393519084,23.405558998459135L95.2979372660319,88.79489259022692L95.45264170964559,-212.7126865515602L95.60734615325927,173.52442045182516L95.91675504048665,159.40582554705702L96.07145948410033,117.31629431391114L96.22616392771403,158.23376337126933L96.38086837132771,137.79851107842137L96.69027725855508,162.11050337424598L96.8449817021688,155.49982330343641L96.99968614578246,167.45914578739348L97.15439058939617,105.3646667236369L97.46379947662354,-47.244502183538756L97.61850392023723,171.0134445665908L97.77320836385091,178.23294224025562L97.92791280746461,148.76802816807913L98.23732169469199,21.336683909319625L98.54673058191935,128.68926324887286L98.70143502553304,160.69699071846446L99.01084391276042,47.80778960404221L99.1655483563741,96.7166575356946L99.3202527999878,170.47070940317002L99.47495724360148,-0.2659129092280768L99.78436613082886,124.06794068475095L99.93907057444254,127.5567136012096L100.09377501805623,129.73324652550264L100.24847946166992,160.9834731121491L100.86729723612467,87.89169229669983L101.02200167973835,138.3432362243933L101.33141056696573,32.37340542635411L101.48611501057943,146.6184185371252L101.6408194541931,148.12144065223026L101.79552389780682,135.42278995617255L102.10493278503417,89.63868053011811L102.25963722864788,105.15345028486693L102.41434167226156,170.29485987959606L102.56904611587525,130.709530639915L102.87845500310263,167.07328794986142L103.18786389033001,25.085448819109402L103.34256833394369,107.57288034683529L103.65197722117107,140.3655885694069L103.80668166478475,96.3467018894703L103.96138610839844,-40.955344543232954L104.4254994392395,56.947052819684124L104.58020388285318,122.06194992768292L104.88961277008056,-268.3306359886519L105.19902165730794,91.36900680086613L105.35372610092163,168.4396771120676L105.50843054453532,150.44538247267087L105.663134988149,132.40192576711866L105.97254387537637,144.05976920753278L106.12724831899007,40.46774448571386L106.28195276260375,147.12856966882885L106.43665720621745,64.7116952804804L106.74606609344484,115.1843051943813L106.90077053705852,-11.19061232305013L107.2101794242859,-159.15728666528776L107.67429275512696,161.9185793856251L107.98370164235433,151.4703096233835L108.29311052958171,114.52066257835484L108.44781497319539,54.79933819986104L108.60251941680909,-62.99915649416518L108.75722386042277,152.95317129373063L109.06663274765015,164.65209097774778L109.22133719126384,-27.755059222371983L109.37604163487752,139.58707029028335L109.5307460784912,154.3955398008227L109.84015496571858,170.35927038030553L109.99485940933228,-7.753053297153188L110.14956385294596,169.01742580865533L110.30426829655966,-4.104171817877627L110.61367718378702,173.28094465107728L110.76838162740071,-15.434006058917033L110.9230860710144,116.48684484984915L111.07779051462809,112.74425529101721L111.38719940185547,180.80822040295305L111.54190384546915,-155.39429812882827L111.69660828908283,135.55638603225918L111.85131273269654,151.05506365285964L112.4701305071513,11.295757611977036L112.62483495076498,-64.84107197514003L112.93424383799235,123.03029178099212L113.08894828160604,38.9238360698464L113.24365272521973,177.74945599128233L113.39835716883341,182.03142137562128L113.70776605606079,78.70000485704668L113.86247049967449,-204.06383808129883L114.01717494328817,142.37817873586766L114.17187938690185,139.39730855795278L114.48128827412923,97.67018826471076L114.63599271774292,173.96967959980475L114.7906971613566,123.07629770390054L114.9454016049703,120.08626609688224L115.25481049219766,174.07637005165373L115.40951493581136,-83.6658033396425L115.56421937942504,105.18482177449687L115.71892382303874,-95.77910320821228L116.02833271026611,148.77448622466022L116.33774159749349,58.49799353792991L116.49244604110717,136.2500705380312L116.95655937194823,117.81582631564152L117.11126381556194,133.7801775223129L117.26596825917562,158.11020334480804L117.575377146403,122.45595322098484L117.73008159001668,-220.89959403343252L117.88478603363038,128.56390097406336L118.03949047724406,80.76509875847523L118.34889936447144,145.75418744685282L118.50360380808513,130.5226710574981L118.65830825169881,49.785085740350496L118.81301269531251,174.49122067603258L119.12242158253987,153.13356840229108L119.27712602615357,156.20424178834116L119.43183046976725,116.196550347526L119.58653491338094,154.3177604162263L119.89594380060832,68.46091958690793L120.050648244222,152.72012468011542L120.20535268783568,176.37853580887227L120.36005713144938,173.46996207250913L120.82417046229044,138.46032494244741L120.97887490590414,8.513245184249639L121.13357934951782,137.45079199637576L121.4429882367452,175.90488351917645L121.59769268035888,175.42313988533397L121.75239712397259,165.67493096585127L121.90710156758625,100.91829035027718L122.21651045481364,91.55749194061673L122.37121489842734,116.21868973164669L122.52591934204102,123.15752698055563L122.6806237856547,-31.462443096558673L122.99003267288208,-565.637792649306L123.14473711649578,106.3897661480887L123.29944156010946,148.4266346243537L123.76355489095052,167.35848491641536L123.91825933456421,156.70479418068044L124.0729637781779,169.41666357326272L124.22766822179159,179.82385157030708L124.53707710901897,-250.98742344278617L124.69178155263265,170.2292103331472L124.84648599624633,143.98027592009544L125.00119043986003,166.06127912094865L125.3105993270874,142.48892866377548L125.46530377070108,164.37685938441336L125.62000821431478,165.872093843053L125.77471265792846,109.96646934792852L126.08412154515584,82.20463579205943L126.23882598876952,148.39778539895622L126.39353043238322,77.94454475531938L126.5482348759969,-309.43734112257243L126.85764376322427,-201.00581135461383L127.01234820683798,163.65083600570688L127.16705265045167,180.20172297398236L127.63116598129272,180.60487334024276L127.78587042490642,137.05984545762522L127.9405748685201,135.78740511648266L128.40468819936117,76.1104566862882L128.55939264297484,168.90728325610996L128.71409708658854,137.50765999940245L128.86880153020223,124.0930087224375L129.3329148610433,19.311274809754657L129.487619304657,164.37935072771825L129.64232374827068,-36.80093240228372L129.95173263549805,119.47170382741704L130.10643707911174,87.38949226065006L130.26114152272544,30.32053854313108L130.4158459663391,21.977542219022332L130.7252548535665,126.26362249774375L130.87995929718016,-16.99318057843992L131.03466374079386,97.64978928708318L131.18936818440756,163.99027711372173L131.49877707163492,152.59068526014562L131.65348151524861,77.44484489712522L131.8081859588623,61.35787896092029L131.962890402476,155.0757692858382L132.27229928970337,-72.2572709207311L132.42700373331706,168.36423888341375L132.58170817693073,154.63762415983115L132.73641262054443,70.57810199942014L133.04582150777182,18.343167072039705L133.2005259513855,136.51908260765413L133.35523039499918,130.201150835632L133.97404816945394,118.58400817041502L134.12875261306763,173.16691489621223L134.5928659439087,114.1082392467881L134.7475703875224,180.4584141582983L134.90227483113608,115.98815213043781L135.05697927474975,174.13727544436244L135.52109260559084,173.39873792455182L135.6757970492045,151.6965403811132L135.8305014928182,-51.398313575038614L136.13991038004556,146.95671998809632L136.29461482365926,141.90052549901156L136.44931926727295,148.12029657791118L136.60402371088665,174.38893866499615L136.913432598114,131.22791557289577L137.0681370417277,133.13528182292816L137.22284148534138,145.5585772419413L137.84165925979613,-11.824827050606473L137.99636370340983,172.4577566748427L138.15106814702352,175.79875516561745L138.46047703425089,179.03997734480558L138.61518147786458,110.80310130173119L138.76988592147828,125.01682444008496L138.92459036509194,169.03093162807852L139.23399925231934,173.43149202137045L139.388703695933,116.01754468070499L139.5434081395467,147.3501402010503L139.69811258316042,173.93828381516033L140.0075214703878,128.1287021707236L140.16222591400145,83.94184417782344L140.31693035761518,149.48106917449297L140.47163480122884,-18.891407485745745L140.7810436884562,122.18158741362163L140.9357481320699,178.6890502165274L141.0904525756836,120.85141328348118L141.2451570192973,129.78419537954255L141.55456590652466,174.43124291115015L141.70927035013833,90.20803198624026L142.01867923736572,36.73823889650794L142.32808812459308,165.69274362875365L142.4827925682068,107.89337134354172L142.63749701182047,176.53703537913816L142.79220145543417,120.59389496435345L143.10161034266153,175.40239636022807L143.25631478627523,174.6553489594301L143.41101922988892,121.07095186903553L143.5657236735026,177.58249181710158L143.87513256073,176.12432823762933L144.02983700434368,163.23065152132688L144.18454144795737,177.621414638965L144.33924589157104,180.17581454965796L144.64865477879843,136.63654237683875L144.80335922241213,174.91561151087726L145.1127681096395,153.70314513945675L145.42217699686688,147.08248423496389L145.57688144048055,114.54223655122904L145.73158588409424,127.84308556301016L145.8862903277079,138.16380649913742L146.1956992149353,147.50916653140325L146.350403658549,143.43871796055896L146.65981254577636,176.54381700113962L146.96922143300375,133.86070003490988L147.74274365107217,148.11586163344646L147.89744809468587,145.00701857098238L148.05215253829954,144.93723003751813L148.20685698191326,174.3575097507865L148.51626586914062,145.44069783159716L148.6709703127543,172.19625397333732L148.82567475636802,172.3624672107063L148.9803791999817,159.98855251297914L149.28978808720905,131.8361478867654L149.44449253082274,128.43860937565967L149.59919697443647,173.49501244109422L149.75390141805013,172.77186029137386L150.0633103052775,159.36452402241048L150.2180147488912,173.74009171279897L150.3727191925049,132.85282356709945L150.52742363611858,157.22976085395248L150.83683252334595,149.28680182129187L150.99153696695964,165.72716082974654L151.14624141057334,163.65103036582286L151.300945854187,127.3579008716597L151.61035474141437,152.35900358461765L151.7650591850281,-54.882360006858576L151.91976362864176,130.5661061261451L152.07446807225546,68.30950422200588L152.38387695948285,56.05888893149358L152.6932858467102,103.57053732754184L152.84799029032388,176.45727484654134L153.15739917755127,177.01937534515469L153.31210362116497,138.38648576747505L153.46680806477863,170.74343640137346L153.62151250839233,173.80763847901636L153.93092139561972,167.87624038765688L154.08562583923342,170.41959048402862L154.24033028284708,137.77198975714032L154.39503472646075,166.63145439892605L154.70444361368817,126.52366308110389L154.85914805730184,137.0845336096305L155.01385250091553,30.0193157015592L155.1685569445292,155.49415152186998L155.4779658317566,166.85339598227802L155.6326702753703,173.38670747509997L155.78737471898395,144.32230555147316L155.94207916259768,131.69929186146067L156.25148804982504,172.35552325383526L156.4061924934387,131.94430487403497L156.5608969370524,149.14201236943472L156.7156013806661,165.88674594543295L157.02501026789346,161.37010397286974L157.17971471150716,168.37135511402397L157.33441915512083,138.580289306763L157.48912359873455,136.49097990179303L157.95323692957558,182.35637934203882L158.1079413731893,139.21941162724795L158.26264581680297,160.02073236400054L158.57205470403034,153.86354082517232L158.72675914764403,166.5003253711298L158.88146359125776,177.96536578512575L159.03616803487142,149.9803405569769L159.3455769220988,132.75833804707918L159.5002813657125,167.58661510255126L159.65498580932618,131.89309540074862L159.80969025293987,137.3065679557651L160.11909914016724,178.92008917849L160.27380358378093,124.22738665626342L160.42850802739463,116.45884815859675L160.5832124710083,153.10405216831373L160.89262135823566,164.9243144065598L161.20203024546305,118.50960358419616L161.35673468907675,138.46074016633156L161.66614357630414,171.26874762212384L161.8208480199178,172.253906042741L162.13025690714517,121.5800163509998L162.43966579437256,72.54926695752418L162.74907468159992,162.78877600627555L163.213188012441,148.30664375638594L163.36789245605468,140.20473348705355L163.52259689966837,169.39251212021406L163.67730134328204,144.3674810266133L163.98671023050946,176.2501984991056L164.14141467412313,99.00739469722953L164.2961191177368,178.9489604902643L164.4508235613505,181.36587491391327L164.76023244857788,23.956569927273L164.91493689219158,114.73215288819733L165.06964133580524,175.7078332824965L165.22434577941897,108.58568207667577L165.68845911026,118.908713247818L165.8431635538737,180.67017502625677L165.9978679974874,134.7776689757443L166.30727688471475,160.2032541820107L166.46198132832845,168.75348477114943L166.61668577194214,172.1022786486215L167.0807991027832,177.75207322693507L167.3902079900106,163.77099914741382L167.54491243362426,163.89959045051387L167.85432132085162,181.4549017859034L168.00902576446535,97.66430445392689L168.16373020807902,179.8807361381164L168.3184346516927,175.7493854875199L168.62784353892008,179.16923123921012L168.7825479825338,178.99162253572274L168.93725242614747,160.3685552520172L169.09195686976113,171.19812422361593L169.4013657569885,175.06313967345963L169.55607020060222,176.78701451353962L169.71077464421592,174.2123315786974L169.86547908782958,173.41336573191728L170.17488797505698,171.08677133762103L170.32959241867067,178.68020683125013L170.48429686228434,171.1611980102167L171.1031146367391,164.91681387299298L171.2578190803528,179.15964906462835L171.41252352396646,174.19660607840416L171.72193241119385,168.30942712206866L171.87663685480754,146.93134715840972L172.0313412984212,176.50216099014517L172.1860457420349,102.70286959703684L172.4954546292623,162.20098242551177L172.65015907287597,146.05909871335302L172.80486351648966,63.7092123058885L173.26897684733072,170.4923098796964L173.42368129094442,172.74469404788977L173.57838573455808,168.5465818017717L173.7330901781718,166.5778419278421L174.04249906539917,97.07677149240953L174.19720350901284,163.89519305288974L174.35190795262653,175.6292963351753L174.50661239624026,168.11697968631722L174.81602128346762,180.90853230917747L174.9707257270813,130.93338048622388L175.125430170695,64.0893188508976L175.28013461430868,175.05771746795122L175.58954350153604,139.71138567083176L175.74424794514974,64.12225405600611L175.89895238876343,139.89599686008876L176.05365683237713,177.49159533331397L176.3630657196045,154.32310531941584L176.51777016321816,164.59307617889453L176.67247460683188,172.00522890025286L176.82717905044555,163.00925768011996L177.1365879376729,143.65039821324206L177.29129238128664,151.35892802509875L177.4459968249003,171.9941592081925L177.600701268514,156.32435413138143L177.91011015574136,128.3272763674039L178.06481459935506,175.83295260716102L178.21951904296876,156.3733969311021L178.37422348658242,179.79151601032913L178.68363237380984,174.51094049757305L178.9930412610372,165.97511574771278L179.14774570465087,157.6227658430223L179.45715459187826,176.02097945459266L179.76656347910563,172.68186714039803L179.92126792271932,134.60637145443218L180.23067680994671,138.49981980147038L180.38538125356038,179.86230505666316L180.54008569717408,170.94819257492463L180.69479014078775,111.89810852608207L181.00419902801514,139.31418427016683L181.15890347162883,172.5420404974115L181.3136079152425,179.73294293901222L181.4683123588562,168.06904120543737L181.7777212460836,172.96839812411167L181.93242568969725,125.23285570900087L182.08713013331095,166.47209677292085L182.551243464152,180.0877119925376L182.7059479077657,164.9859685274426L182.86065235137937,76.03621112198243L183.0153567949931,180.52482678906617L183.32476568222046,159.42362716677098L183.47947012583413,157.6701102003658L183.78887901306155,180.2907288639145L184.09828790028888,173.9652225689632L184.4076967875163,131.8181916624137L184.56240123112997,158.65108766985162L184.87181011835733,170.29338009234937L185.02651456197103,49.68647448514092L185.18121900558472,178.28874567991977L185.33592344919842,177.54321671752794L185.64533233642578,180.25660762037094L185.80003678003948,95.57626722426153L186.10944566726684,121.46927525764272L186.4188545544942,147.90582018992313L186.57355899810793,179.32058586657593L186.7282634417216,119.89847446936369L186.8829678853353,168.70793161896574L187.19237677256268,79.18599349251325L187.34708121617635,157.48312251696336L187.50178565979004,177.57467544834628L187.6564901034037,177.76931164404022L187.9658989906311,112.41821619645452L188.1206034342448,173.65429055614288L188.43001232147216,150.76454828676833L188.73942120869955,126.68069722026802L188.89412565231325,161.0253223789407L189.04883009592692,183.7174622522149L189.66764787038167,178.47244249317657L189.82235231399537,166.8883918463435L189.97705675760903,141.2596009301784L190.5958745320638,184.4967966229618L190.7505789756775,114.18669005723972L191.05998786290488,172.07426428826767L191.21469230651854,179.6756442516376L191.36939675013224,155.70089546933463L191.52410119374593,113.69311254269904L191.8335100809733,169.5108111717177L191.988214524587,165.00316718906947L192.14291896820066,171.6979455568826L192.29762341181439,131.9092582113028L192.76173674265542,150.76063458079648L193.38055451711017,169.7271803621989L193.6899634043376,150.60071154354478L193.84466784795126,169.71541494926885L194.15407673517862,137.57171932672054L194.30878117879234,120.7180866611917L194.463485622406,170.07305523178036L194.6181900660197,106.55445984273273L195.08230339686077,171.8058949322101L195.23700784047446,133.37037805231193L195.39171228408813,161.00049729139914L195.7011211713155,169.65305185569025L195.85582561492922,169.18049615460336L196.01053005854288,153.6891909665842L196.16523450215658,158.99781507357818L196.47464338938397,166.9543748970823L196.78405227661133,157.37524381804167L196.938756720225,45.603047959279365L197.2481656074524,161.10535678261004L197.4028700510661,178.46783196201616L197.55757449467976,182.59388188217673L198.02168782552084,165.23615416946728L198.1763922691345,117.7181691919104L198.3310967127482,182.1603771039388L198.48580115636187,159.50162299786018L198.7952100435893,157.0274098868366L198.94991448720296,176.1291706757463L199.10461893081663,11.391859854780263L199.25932337443032,135.18224722626587L199.56873226165771,172.47948966962997L199.7234367052714,167.70553036396808L199.87814114888508,117.49636012681934L200.0328455924988,166.18791798833814L200.34225447972617,-158.47384582108316L200.49695892333983,181.23767122672635L200.65166336695353,149.94402613621548L200.80636781056722,178.97173375339963L201.1157766977946,146.64926437098688L201.27048114140828,158.47213280169728L201.42518558502198,168.94021404394312L201.57989002863567,162.04962227655176L201.88929891586304,176.06797816013898L202.0440033594767,141.0442410871177L202.19870780309043,149.3089853781662L202.3534122467041,165.15220164255072L202.66282113393146,173.7021959074575L203.59104779561363,115.2688783484864L203.7457522392273,172.17017879686796L203.90045668284097,169.11882436461912L204.20986557006833,170.41458350240435L204.36457001368206,180.47234624479404L204.51927445729575,115.43805999489949L204.67397890090942,159.81415848163738L204.9833877881368,159.91549519574608L205.1380922317505,127.34164529832286L205.29279667536417,164.66574477589563L205.75691000620526,75.28108673318275L205.91161444981893,128.40045295107177L206.06631889343262,168.83324309510857L206.2210233370463,32.95448916584109L206.53043222427368,90.0749659831972L206.68513666788738,172.86599242936506L206.83984111150104,85.02586122107049L206.99454555511474,100.83534275350574L207.30395444234213,71.64323077321387L207.4586588859558,-167.33041224802673L207.6133633295695,-66.21712392720339L207.76806777318316,101.20037755497536L208.23218110402425,145.5464562383445L208.38688554763792,142.93030723534844L208.54158999125164,143.8440471478923L208.850998878479,167.05742109675657L209.00570332209267,162.21104718742697L209.16040776570637,124.28412655830459L209.3151122093201,-17.60173977068645L209.62452109654745,76.82121396133925L209.77922554016112,79.8965564074483L209.93392998377485,100.99560150368507L210.0886344273885,33.61663874279475L210.39804331461588,157.84601935715716L210.55274775822957,99.68743423940441L210.70745220184327,167.1379877821072L210.86215664545696,115.03773116327739L211.326269976298,-18.646301710388812L211.48097441991172,124.82165154543439L211.63567886352538,-69.25394773214475L211.94508775075275,46.22626367118117L212.09979219436647,130.3876747051213L212.25449663798014,138.26209529324547L212.40920108159384,105.28606572582294L212.7186099688212,117.56524311883412L212.8733144124349,-122.79222625910916L213.0280188560486,-38.20495454194723L213.18272329966226,128.29714613215106L213.80154107411704,144.557852342944L213.9562455177307,143.8876633248292L214.2656544049581,50.40611931822286L214.4203588485718,160.66786320471908L214.57506329218546,169.67114059830283L214.72976773579916,135.8696901219496L215.19388106664022,65.92287684688516L215.3485855102539,143.94637774895773L215.50328995386758,112.6350072367329L215.81269884109497,151.83154115076536L215.96740328470867,-86.10148897494766L216.12210772832233,146.34606700732763L216.27681217193603,162.38359038039152L216.58622105916342,149.4705693109545L216.7409255027771,38.394664150428525L216.89562994639078,-0.8466962739903465L217.05033439000448,150.39703981109528L217.35974327723184,-10.394619302589478L217.51444772084554,-272.35311294905114L217.6691521644592,52.14675550966875L217.82385660807293,93.55231582556644L218.1332654953003,121.73731552668572L218.28796993891396,63.467578508967094L218.44267438252768,-1.3893497178169258L218.59737882614138,8.14224706103961L219.0614921569824,84.20516679677849L219.3709010442098,135.0534173902962L219.68030993143717,92.83818375213785L219.83501437505086,124.72921564118269L219.98971881866456,148.60597600410233L220.14442326227825,141.76590461504065L220.45383214950562,84.11332280742545L220.6085365931193,52.780422495080074L221.38205881118776,177.8754609796572L221.53676325480143,163.2720148878285L221.69146769841512,169.942697018535L222.00087658564252,117.84857599518477L222.15558102925618,-38.30247031286673L222.31028547286988,65.07066958015162L222.46498991648355,-10.485615175072793L222.77439880371094,140.04511965907727L222.92910324732463,161.74671203579112L223.0838076909383,172.44973932005837L223.238512134552,113.33248618204198L223.5479210217794,134.90928611246818L223.70262546539308,178.5331722991896L223.85732990900675,138.85484063969147L224.01203435262042,181.09170015370952L224.78555657068887,182.3859828172046L225.09496545791626,97.58127734619892L225.24966990152996,137.6749598865108L225.40437434514362,167.74683851452767L225.55907878875735,157.8586660165222L225.8684876759847,7.992678117239399L226.02319211959838,108.73193806395352L226.33260100682577,67.28019955140826L226.64200989405313,175.1354747661708L226.79671433766683,105.13090451141284L227.10612322489422,86.63260096170507L227.41553211212158,58.22328318308836L227.57023655573525,150.58272881554092L227.72494099934897,125.79106679665688L227.87964544296264,128.75607895601763L228.18905433019,38.74859392163489L228.3437587738037,152.05000192113107L228.49846321741742,138.67073743710125L228.6531676610311,161.79810040872968L228.96257654825845,78.95357413199963L229.11728099187218,96.50741120173666L229.27198543548585,168.59206869482495L229.42668987909954,30.036313377157057L229.7360987663269,-57.27926196447423L229.8908032099406,112.06072610130535L230.0455076535543,-123.46117844012224L230.20021209716796,173.98599480635897L230.66432542800905,181.3366502201099L230.81902987162272,171.44364301421933L230.9737343152364,178.90134888776134L231.43784764607747,179.39298280114218L231.59255208969117,172.0731069621225L231.74725653330484,158.3689319973853L232.05666542053223,104.2905973845079L232.21136986414592,157.7052849640835L232.3660743077596,91.77948653127305L232.83018763860068,145.25474379062973L232.98489208221434,94.61123391019942L233.13959652582804,178.68924457664338L233.2943009694417,101.82256845899292L233.60370985666913,145.7125722956555L233.7584143002828,61.96747179560178L233.91311874389646,151.59591926561336L234.06782318751016,160.67313301422746L234.37723207473755,179.42831879541063L234.53193651835124,143.42683990710714L234.6866409619649,169.25926059160577L235.30545873641967,172.4489177068408L235.46016318003336,182.2864483514441L235.61486762364706,180.7743586743371L235.92427651087442,171.46696843677506L236.07898095448812,170.42939904397275L236.2336853981018,175.90256665824842L236.3883898417155,176.75626585973592L236.69779872894287,67.92501573983644L236.85250317255654,172.29812959504034L237.00720761617026,178.67124638817575L237.16191205978393,173.22318877570257L237.4713209470113,168.85352059766365L237.62602539062502,179.47270357826073L237.78072983423868,186.6470898272782L237.93543427785238,99.57092418442289L238.24484316507974,174.26107400369335L238.55425205230713,154.0408414237031L238.7089564959208,98.4383524503828L239.01836538314816,149.80449765931598L239.1730698267619,141.4825010622842L239.32777427037558,175.2513189168913L239.48247871398925,91.20127402077219L239.79188760121664,85.98925130869748L239.94659204483034,178.10253212402475L240.101296488444,168.4615647114926L240.2560009320577,164.94928084691298L240.5654098192851,151.6656371226718L240.72011426289876,150.76416398381173L240.87481870651246,40.660620397175535L241.02952315012612,177.95834231729816L241.33893203735352,93.9488634694776L241.64834092458088,112.31941058112898L241.80304536819457,178.5783687563877L242.11245425542197,176.1395358123862L242.576567586263,165.5205361487167L242.8859764734904,163.10327496895172L243.04068091710408,144.7854877942392L243.19538536071775,141.99060699549466L243.35008980433147,169.43491575506374L243.8142031351725,179.69823640648303L243.9689075787862,157.55694402283427L244.12361202239993,175.4792381781286L244.4330209096273,60.013410527704295L244.58772535324096,132.6520804882158L244.74242979685468,164.16716690564374L245.2065431276957,64.51917275104779L245.3612475713094,89.44737716868576L245.5159520149231,-34.2525532379109L245.98006534576416,154.75740741585685L246.13476978937783,-60.859870035735185L246.28947423299155,156.52314256591683L246.44417867660522,176.88889896979336L246.75358756383258,168.21850192599118L246.9082920074463,157.16153603596683L247.21770089467367,168.2949075379496L247.52710978190103,151.50587752460854" fill="none"></path></g></g></g></g></g></g><g transform="translate(51, 177)" clip-path="url(#clip_1)"><clipPath id="clip_1"><rect width="278" height="22"></rect></clipPath><g><g><line x1="0" y1="0" x2="0" y2="5" style="visibility: inherit;" fill="rgb(0, 0, 0)" stroke="rgb(204, 204, 204)" stroke-width="1px"></line><line x1="30.94088872273763" y1="0" x2="30.94088872273763" y2="5" style="visibility: inherit;" fill="rgb(0, 0, 0)" stroke="rgb(204, 204, 204)" stroke-width="1px"></line><line x1="61.88177744547526" y1="0" x2="61.88177744547526" y2="5" style="visibility: inherit;" fill="rgb(0, 0, 0)" stroke="rgb(204, 204, 204)" stroke-width="1px"></line><line x1="92.82266616821289" y1="0" x2="92.82266616821289" y2="5" style="visibility: inherit;" fill="rgb(0, 0, 0)" stroke="rgb(204, 204, 204)" stroke-width="1px"></line><line x1="123.76355489095052" y1="0" x2="123.76355489095052" y2="5" style="visibility: inherit;" fill="rgb(0, 0, 0)" stroke="rgb(204, 204, 204)" stroke-width="1px"></line><line x1="154.70444361368817" y1="0" x2="154.70444361368817" y2="5" style="visibility: inherit;" fill="rgb(0, 0, 0)" stroke="rgb(204, 204, 204)" stroke-width="1px"></line><line x1="185.64533233642578" y1="0" x2="185.64533233642578" y2="5" style="visibility: inherit;" fill="rgb(0, 0, 0)" stroke="rgb(204, 204, 204)" stroke-width="1px"></line><line x1="216.58622105916342" y1="0" x2="216.58622105916342" y2="5" style="visibility: inherit;" fill="rgb(0, 0, 0)" stroke="rgb(204, 204, 204)" stroke-width="1px"></line><line x1="247.52710978190103" y1="0" x2="247.52710978190103" y2="5" style="visibility: inherit;" fill="rgb(0, 0, 0)" stroke="rgb(204, 204, 204)" stroke-width="1px"></line><line x1="278.4679985046387" y1="0" x2="278.4679985046387" y2="5" style="visibility: inherit;" fill="rgb(0, 0, 0)" stroke="rgb(204, 204, 204)" stroke-width="1px"></line></g><g transform="translate(0, 8)"><text style="text-anchor: middle; visibility: hidden; font-family: Roboto, sans-serif; font-size: 12px; font-weight: 200;" x="0" y="0" dx="0em" dy="0.95em" fill="rgb(50, 49, 63)" stroke="none" stroke-width="1px">-200</text><text style="text-anchor: middle; visibility: inherit; font-family: Roboto, sans-serif; font-size: 12px; font-weight: 200;" x="30.94088872273763" y="0" dx="0em" dy="0.95em" fill="rgb(50, 49, 63)" stroke="none" stroke-width="1px">0</text><text style="text-anchor: middle; visibility: inherit; font-family: Roboto, sans-serif; font-size: 12px; font-weight: 200;" x="61.88177744547526" y="0" dx="0em" dy="0.95em" fill="rgb(50, 49, 63)" stroke="none" stroke-width="1px">200</text><text style="text-anchor: middle; visibility: inherit; font-family: Roboto, sans-serif; font-size: 12px; font-weight: 200;" x="92.82266616821289" y="0" dx="0em" dy="0.95em" fill="rgb(50, 49, 63)" stroke="none" stroke-width="1px">400</text><text style="text-anchor: middle; visibility: inherit; font-family: Roboto, sans-serif; font-size: 12px; font-weight: 200;" x="123.76355489095052" y="0" dx="0em" dy="0.95em" fill="rgb(50, 49, 63)" stroke="none" stroke-width="1px">600</text><text style="text-anchor: middle; visibility: inherit; font-family: Roboto, sans-serif; font-size: 12px; font-weight: 200;" x="154.70444361368817" y="0" dx="0em" dy="0.95em" fill="rgb(50, 49, 63)" stroke="none" stroke-width="1px">800</text><text style="text-anchor: middle; visibility: inherit; font-family: Roboto, sans-serif; font-size: 12px; font-weight: 200;" x="185.64533233642578" y="0" dx="0em" dy="0.95em" fill="rgb(50, 49, 63)" stroke="none" stroke-width="1px">1k</text><text style="text-anchor: middle; visibility: inherit; font-family: Roboto, sans-serif; font-size: 12px; font-weight: 200;" x="216.58622105916342" y="0" dx="0em" dy="0.95em" fill="rgb(50, 49, 63)" stroke="none" stroke-width="1px">1.2k</text><text style="text-anchor: middle; visibility: inherit; font-family: Roboto, sans-serif; font-size: 12px; font-weight: 200;" x="247.52710978190103" y="0" dx="0em" dy="0.95em" fill="rgb(50, 49, 63)" stroke="none" stroke-width="1px">1.4k</text><text style="text-anchor: middle; visibility: hidden; font-family: Roboto, sans-serif; font-size: 12px; font-weight: 200;" x="278.4679985046387" y="0" dx="0em" dy="0.95em" fill="rgb(50, 49, 63)" stroke="none" stroke-width="1px">1.6k</text></g><line x1="0" y1="0" x2="278.4679985046387" y2="0" fill="rgb(0, 0, 0)" stroke="rgb(204, 204, 204)" stroke-width="1px"></line></g></g></g></g></svg>