<svg viewBox="0 0 330 200" xmlns="http://www.w3.org/2000/svg"><g><g><g><g><g><line x1="61.91500186920166" y1="177.86299896240234" x2="56.91500186920166" y2="177.86299896240234" style="visibility: inherit;" fill="rgb(0, 0, 0)" stroke="rgb(204, 204, 204)" stroke-width="1px"></line><line x1="61.91500186920166" y1="164.18122981144833" x2="56.91500186920166" y2="164.18122981144833" style="visibility: inherit;" fill="rgb(0, 0, 0)" stroke="rgb(204, 204, 204)" stroke-width="1px"></line><line x1="61.91500186920166" y1="150.49946066049432" x2="56.91500186920166" y2="150.49946066049432" style="visibility: inherit;" fill="rgb(0, 0, 0)" stroke="rgb(204, 204, 204)" stroke-width="1px"></line><line x1="61.91500186920166" y1="136.81769150954025" x2="56.91500186920166" y2="136.81769150954025" style="visibility: inherit;" fill="rgb(0, 0, 0)" stroke="rgb(204, 204, 204)" stroke-width="1px"></line><line x1="61.91500186920166" y1="123.13592235858626" x2="56.91500186920166" y2="123.13592235858626" style="visibility: inherit;" fill="rgb(0, 0, 0)" stroke="rgb(204, 204, 204)" stroke-width="1px"></line><line x1="61.91500186920166" y1="109.45415320763222" x2="56.91500186920166" y2="109.45415320763222" style="visibility: inherit;" fill="rgb(0, 0, 0)" stroke="rgb(204, 204, 204)" stroke-width="1px"></line><line x1="61.91500186920166" y1="95.77238405667816" x2="56.91500186920166" y2="95.77238405667816" style="visibility: inherit;" fill="rgb(0, 0, 0)" stroke="rgb(204, 204, 204)" stroke-width="1px"></line><line x1="61.91500186920166" y1="82.09061490572417" x2="56.91500186920166" y2="82.09061490572417" style="visibility: inherit;" fill="rgb(0, 0, 0)" stroke="rgb(204, 204, 204)" stroke-width="1px"></line><line x1="61.91500186920166" y1="68.40884575477013" x2="56.91500186920166" y2="68.40884575477013" style="visibility: inherit;" fill="rgb(0, 0, 0)" stroke="rgb(204, 204, 204)" stroke-width="1px"></line><line x1="61.91500186920166" y1="54.72707660381609" x2="56.91500186920166" y2="54.72707660381609" style="visibility: inherit;" fill="rgb(0, 0, 0)" stroke="rgb(204, 204, 204)" stroke-width="1px"></line><line x1="61.91500186920166" y1="41.045307452862055" x2="56.91500186920166" y2="41.045307452862055" style="visibility: inherit;" fill="rgb(0, 0, 0)" stroke="rgb(204, 204, 204)" stroke-width="1px"></line><line x1="61.91500186920166" y1="27.363538301908015" x2="56.91500186920166" y2="27.363538301908015" style="visibility: inherit;" fill="rgb(0, 0, 0)" stroke="rgb(204, 204, 204)" stroke-width="1px"></line><line x1="61.91500186920166" y1="13.681769150954038" x2="56.91500186920166" y2="13.681769150954038" style="visibility: inherit;" fill="rgb(0, 0, 0)" stroke="rgb(204, 204, 204)" stroke-width="1px"></line><line x1="61.91500186920166" y1="0" x2="56.91500186920166" y2="0" style="visibility: inherit;" fill="rgb(0, 0, 0)" stroke="rgb(204, 204, 204)" stroke-width="1px"></line></g><g transform="translate(51.91500186920166, 0)"><text style="text-anchor: end; visibility: hidden; font-family: Roboto, sans-serif; font-size: 12px; font-weight: 200;" x="0" y="177.86299896240234" dx="0em" dy="0.3em" fill="rgb(50, 49, 63)" stroke="none" stroke-width="1px">0.085</text><text style="text-anchor: end; visibility: inherit; font-family: Roboto, sans-serif; font-size: 12px; font-weight: 200;" x="0" y="164.18122981144833" dx="0em" dy="0.3em" fill="rgb(50, 49, 63)" stroke="none" stroke-width="1px">0.09</text><text style="text-anchor: end; visibility: hidden; font-family: Roboto, sans-serif; font-size: 12px; font-weight: 200;" x="0" y="150.49946066049432" dx="0em" dy="0.3em" fill="rgb(50, 49, 63)" stroke="none" stroke-width="1px">0.095</text><text style="text-anchor: end; visibility: inherit; font-family: Roboto, sans-serif; font-size: 12px; font-weight: 200;" x="0" y="136.81769150954025" dx="0em" dy="0.3em" fill="rgb(50, 49, 63)" stroke="none" stroke-width="1px">0.1</text><text style="text-anchor: end; visibility: hidden; font-family: Roboto, sans-serif; font-size: 12px; font-weight: 200;" x="0" y="123.13592235858626" dx="0em" dy="0.3em" fill="rgb(50, 49, 63)" stroke="none" stroke-width="1px">0.105</text><text style="text-anchor: end; visibility: inherit; font-family: Roboto, sans-serif; font-size: 12px; font-weight: 200;" x="0" y="109.45415320763222" dx="0em" dy="0.3em" fill="rgb(50, 49, 63)" stroke="none" stroke-width="1px">0.11</text><text style="text-anchor: end; visibility: hidden; font-family: Roboto, sans-serif; font-size: 12px; font-weight: 200;" x="0" y="95.77238405667816" dx="0em" dy="0.3em" fill="rgb(50, 49, 63)" stroke="none" stroke-width="1px">0.115</text><text style="text-anchor: end; visibility: inherit; font-family: Roboto, sans-serif; font-size: 12px; font-weight: 200;" x="0" y="82.09061490572417" dx="0em" dy="0.3em" fill="rgb(50, 49, 63)" stroke="none" stroke-width="1px">0.12</text><text style="text-anchor: end; visibility: hidden; font-family: Roboto, sans-serif; font-size: 12px; font-weight: 200;" x="0" y="68.40884575477013" dx="0em" dy="0.3em" fill="rgb(50, 49, 63)" stroke="none" stroke-width="1px">0.125</text><text style="text-anchor: end; visibility: inherit; font-family: Roboto, sans-serif; font-size: 12px; font-weight: 200;" x="0" y="54.72707660381609" dx="0em" dy="0.3em" fill="rgb(50, 49, 63)" stroke="none" stroke-width="1px">0.13</text><text style="text-anchor: end; visibility: hidden; font-family: Roboto, sans-serif; font-size: 12px; font-weight: 200;" x="0" y="41.045307452862055" dx="0em" dy="0.3em" fill="rgb(50, 49, 63)" stroke="none" stroke-width="1px">0.135</text><text style="text-anchor: end; visibility: inherit; font-family: Roboto, sans-serif; font-size: 12px; font-weight: 200;" x="0" y="27.363538301908015" dx="0em" dy="0.3em" fill="rgb(50, 49, 63)" stroke="none" stroke-width="1px">0.14</text><text style="text-anchor: end; visibility: hidden; font-family: Roboto, sans-serif; font-size: 12px; font-weight: 200;" x="0" y="13.681769150954038" dx="0em" dy="0.3em" fill="rgb(50, 49, 63)" stroke="none" stroke-width="1px">0.145</text><text style="text-anchor: end; visibility: hidden; font-family: Roboto, sans-serif; font-size: 12px; font-weight: 200;" x="0" y="0" dx="0em" dy="0.3em" fill="rgb(50, 49, 63)" stroke="none" stroke-width="1px">0.15</text></g><line x1="61.91500186920166" y1="0" x2="61.91500186920166" y2="177.86299896240234" fill="rgb(0, 0, 0)" stroke="rgb(204, 204, 204)" stroke-width="1px"></line></g></g><g transform="translate(61, 0)" clip-path="url(#clip_0)"><clipPath id="clip_0"><rect width="268" height="177"></rect></clipPath><g><g><g><line x1="0" y1="0" x2="0" y2="177.86299896240234" fill="rgb(0, 0, 0)" stroke="rgb(60, 60, 60)" stroke-width="1px" opacity="0.25"></line><line x1="29.787222014533146" y1="0" x2="29.787222014533146" y2="177.86299896240234" fill="rgb(0, 0, 0)" stroke="rgb(60, 60, 60)" stroke-width="1px" opacity="0.25"></line><line x1="59.57444402906629" y1="0" x2="59.57444402906629" y2="177.86299896240234" fill="rgb(0, 0, 0)" stroke="rgb(60, 60, 60)" stroke-width="1px" opacity="0.25"></line><line x1="89.36166604359944" y1="0" x2="89.36166604359944" y2="177.86299896240234" fill="rgb(0, 0, 0)" stroke="rgb(60, 60, 60)" stroke-width="1px" opacity="0.25"></line><line x1="119.14888805813258" y1="0" x2="119.14888805813258" y2="177.86299896240234" fill="rgb(0, 0, 0)" stroke="rgb(60, 60, 60)" stroke-width="1px" opacity="0.25"></line><line x1="148.93611007266574" y1="0" x2="148.93611007266574" y2="177.86299896240234" fill="rgb(0, 0, 0)" stroke="rgb(60, 60, 60)" stroke-width="1px" opacity="0.25"></line><line x1="178.72333208719888" y1="0" x2="178.72333208719888" y2="177.86299896240234" fill="rgb(0, 0, 0)" stroke="rgb(60, 60, 60)" stroke-width="1px" opacity="0.25"></line><line x1="208.51055410173205" y1="0" x2="208.51055410173205" y2="177.86299896240234" fill="rgb(0, 0, 0)" stroke="rgb(60, 60, 60)" stroke-width="1px" opacity="0.25"></line><line x1="238.29777611626517" y1="0" x2="238.29777611626517" y2="177.86299896240234" fill="rgb(0, 0, 0)" stroke="rgb(60, 60, 60)" stroke-width="1px" opacity="0.25"></line><line x1="268.08499813079834" y1="0" x2="268.08499813079834" y2="177.86299896240234" fill="rgb(0, 0, 0)" stroke="rgb(60, 60, 60)" stroke-width="1px" opacity="0.25"></line></g><g><line x1="0" y1="177.86299896240234" x2="268.08499813079834" y2="177.86299896240234" fill="rgb(0, 0, 0)" stroke="rgb(60, 60, 60)" stroke-width="1px" opacity="0.25"></line><line x1="0" y1="164.18122981144833" x2="268.08499813079834" y2="164.18122981144833" fill="rgb(0, 0, 0)" stroke="rgb(60, 60, 60)" stroke-width="1px" opacity="0.25"></line><line x1="0" y1="150.49946066049432" x2="268.08499813079834" y2="150.49946066049432" fill="rgb(0, 0, 0)" stroke="rgb(60, 60, 60)" stroke-width="1px" opacity="0.25"></line><line x1="0" y1="136.81769150954025" x2="268.08499813079834" y2="136.81769150954025" fill="rgb(0, 0, 0)" stroke="rgb(60, 60, 60)" stroke-width="1px" opacity="0.25"></line><line x1="0" y1="123.13592235858626" x2="268.08499813079834" y2="123.13592235858626" fill="rgb(0, 0, 0)" stroke="rgb(60, 60, 60)" stroke-width="1px" opacity="0.25"></line><line x1="0" y1="109.45415320763222" x2="268.08499813079834" y2="109.45415320763222" fill="rgb(0, 0, 0)" stroke="rgb(60, 60, 60)" stroke-width="1px" opacity="0.25"></line><line x1="0" y1="95.77238405667816" x2="268.08499813079834" y2="95.77238405667816" fill="rgb(0, 0, 0)" stroke="rgb(60, 60, 60)" stroke-width="1px" opacity="0.25"></line><line x1="0" y1="82.09061490572417" x2="268.08499813079834" y2="82.09061490572417" fill="rgb(0, 0, 0)" stroke="rgb(60, 60, 60)" stroke-width="1px" opacity="0.25"></line><line x1="0" y1="68.40884575477013" x2="268.08499813079834" y2="68.40884575477013" fill="rgb(0, 0, 0)" stroke="rgb(60, 60, 60)" stroke-width="1px" opacity="0.25"></line><line x1="0" y1="54.72707660381609" x2="268.08499813079834" y2="54.72707660381609" fill="rgb(0, 0, 0)" stroke="rgb(60, 60, 60)" stroke-width="1px" opacity="0.25"></line><line x1="0" y1="41.045307452862055" x2="268.08499813079834" y2="41.045307452862055" fill="rgb(0, 0, 0)" stroke="rgb(60, 60, 60)" stroke-width="1px" opacity="0.25"></line><line x1="0" y1="27.363538301908015" x2="268.08499813079834" y2="27.363538301908015" fill="rgb(0, 0, 0)" stroke="rgb(60, 60, 60)" stroke-width="1px" opacity="0.25"></line><line x1="0" y1="13.681769150954038" x2="268.08499813079834" y2="13.681769150954038" fill="rgb(0, 0, 0)" stroke="rgb(60, 60, 60)" stroke-width="1px" opacity="0.25"></line><line x1="0" y1="0" x2="268.08499813079834" y2="0" fill="rgb(0, 0, 0)" stroke="rgb(60, 60, 60)" stroke-width="1px" opacity="0.25"></line></g></g></g><g><g><line x1="0" y1="410.45307452862085" x2="268.08499813079834" y2="410.45307452862085" fill="rgb(0, 0, 0)" stroke="rgb(153, 153, 153)" stroke-width="1.5px"></line></g></g><g><g><line x1="29.787222014533146" y1="0" x2="29.787222014533146" y2="177.86299896240234" fill="rgb(0, 0, 0)" stroke="rgb(153, 153, 153)" stroke-width="1.5px"></line></g></g><g><g><g><g><g><path style="fill: none;" stroke="rgb(255, 112, 67)" stroke-width="2px" d="M29.936158124605814,161.29917211262534L30.08509423467848,178.76379194279363L30.234030344751147,201.63959680344504L30.82977478504181,166.5402415982471L30.978710895114475,188.18645330366687L31.276583115259807,115.10563333026575L31.425519225332472,75.76885012688732L31.7233914454778,52.88357361317378L32.02126366562314,39.400918370101756L32.1701997756958,96.32074336893668L32.31913588576847,81.61753357392752L32.468071995841136,72.82982157293817L32.765944215986465,67.56945290203997L32.91488032605913,64.41763220812263L33.21275254620446,89.19307387090976L33.51062476634979,74.6616201352001L33.65956087642246,63.320527914733404L33.80849698649513,56.51710129479812L33.95743309656779,21.824122112448343L34.25530531671312,11.851023739202619L34.40424142678579,-19.981846585569006L36.936155298021106,-72.87676517329108L37.234027518166435,15.054568502230847L37.382963628239104,39.912833331586455L37.53189973831177,45.69859663582756L37.68083584838443,86.97315173943036L37.97870806852976,97.93336356695737L38.12764417860243,107.47648072338967L38.2765802886751,110.95973427775488L38.42551639874777,107.34698934548973L38.72338861889309,145.23162080622018L38.87232472896576,130.26037543176162L39.021260839038426,130.02880796227672L39.17019694911109,124.89134391877872L39.468069169256424,110.42255400721989L39.61700527932909,114.68436714564832L39.76594138940175,132.35195370370283L40.21274971961975,148.71316006677912L40.36168582969242,144.16933255168146L40.51062193976508,90.68835455416011L40.65955804983775,121.11743063410348L41.10636638005574,104.40203505566603L41.25530249012841,91.2556990982914L41.404238600201076,106.24045149524504L41.70211082034641,118.14636216443233L41.85104693041907,109.94297284882643L41.99998304049174,82.61923694027368L42.14891915056441,77.49296195702762L42.44679137070973,73.93768473687706L42.5957274807824,74.94448355071812L42.74466359085507,77.2165396078087L42.89359970092774,52.42503960466549L43.19147192107307,69.63877184918267L43.34040803114573,99.82732315991308L43.489344141218396,108.31558334008554L43.638280251291064,115.83847582971379L44.08508858150906,98.4978787390562L44.23402469158173,120.9505303051155L44.68083302179972,121.47855301722497L44.82976913187239,140.6940853325854L44.97870524194506,129.61146727855578L45.12764135201772,120.76620342006154L45.425513572163055,140.9676604770732L45.72338579230838,137.72915451009862L45.872321902381046,146.93953802432014L46.17019412252638,163.13644838921596L46.31913023259905,160.31993288142405L46.46806634267171,144.02994446811834L46.61700245274438,122.83251035708209L46.91487467288971,103.40465441867973L47.06381078296237,119.50886105487844L47.21274689303504,104.94758517245758L47.36168300310771,78.72466406638398L47.65955522325304,96.85116193040554L47.808491333325705,107.25646180071753L47.957427443398366,126.75037504673752L48.106363553471034,116.99377802846271L48.404235773616364,113.20695789804832L48.55317188368903,138.2101901812902L48.7021079937617,140.3570101272599L48.85104410383437,142.00579641358138L49.14891632397969,123.0080687639357L49.29785243405236,147.2131337170376L49.44678854412503,134.24167535633782L49.595724654197696,97.02811743348347L49.893596874343025,98.2956215223448L50.04253298441569,93.53708499548088L50.19146909448836,126.56017721907324L50.340405204561016,118.16873173412064L50.63827742470635,106.78632945080395L50.78721353477902,88.80938673431532L50.93614964485168,105.23935669436817L51.38295797506969,117.4090116784142L51.53189408514235,120.16771986658287L51.68083019521501,123.82688184329861L51.82976630528768,124.68741045646638L52.127638525433014,81.54009419929375L52.276574635505675,93.11674524799781L52.42551074557834,100.0627358772203L52.57444685565101,116.25472735978167L52.87231907579634,93.1398156745694L53.021255185869,82.55730522377254L53.17019129594167,54.54658421109539L53.31912740601434,70.98217386292853L53.61699962615967,80.84352765402843L53.76593573623233,80.24981970789362L53.914871846305,74.13533807294388L54.063807956377666,70.46664909197406L54.361680176522995,74.41677842984903L54.51061628659566,76.78685603257394L54.65955239666833,78.20890259420895L54.808488506741,57.87977562160197L55.10636072688632,100.48894897616394L55.25529683695899,68.88837493901795L55.40423294703166,79.6765615300424L55.55316905710432,66.90756104323123L55.85104127724966,82.8115120355046L55.999977387322325,92.35388263086858L56.148913497394986,85.17016704348468L56.29784960746765,58.38363370720885L56.74465793768565,75.8965872094781L56.89359404775831,67.24259391360494L57.04253015783098,58.567781139079685L57.34040237797631,75.76577826418765L57.48933848804897,77.87504173422691L57.63827459812164,88.86783160471862L57.78721070819431,53.639290802963686L58.085082928339645,50.49454165516216L58.234019038412306,72.1542217803089L58.38295514848497,60.79263527433183L58.531891258557636,54.87149050447619L58.829763478702965,61.48337015690409L58.97869958877563,74.95852414587891L59.27657180892097,106.45996021358526L59.57444402906629,96.20638855318504L59.72338013913896,126.73093726461285L59.87231624921163,111.87724283539035L60.0212523592843,102.96502617785687L60.31912457942963,97.61769618333675L60.468060689502295,94.4092981866247L60.61699679957496,92.48425938859748L60.765932909647624,91.32923610978115L61.063805129792954,90.63622214249132L61.21274123986562,73.26018850437846L61.51061346001095,122.79060836412629L61.80848568015629,129.78679812318038L61.95742179022895,103.28015325309573L62.10635790030161,106.89202052139915L62.25529401037428,101.76866303027528L62.553166230519615,67.85674402297829L62.70210234059228,65.6822743363718L62.851038450664944,54.60146353641083L62.999974560737606,84.75746529742734L63.29784678088294,108.92642107095266L63.59571900102827,139.23072354918736L63.74465511110094,150.7357057919932L64.04252733124628,132.7919697426471L64.19146344131893,137.44879862915093L64.3403995513916,115.34699609751807L64.48933566146427,120.64267906872695L64.7872078816096,103.52648702663018L64.93614399168227,86.6702554160661L65.08508010175493,85.68028862046097L65.2340162118276,82.7206088594867L65.53188843197293,77.89880557514493L65.6808245420456,96.728394199916L65.82976065211825,128.60158495939356L65.97869676219092,147.497780035553L66.27656898233626,137.46720070293856L66.42550509240893,123.21414390625873L66.57444120248158,152.74595402810021L66.72337731255425,157.17522000663487L67.02124953269958,141.25843298845967L67.31912175284492,138.13229152793608L67.76593008306291,114.45992970439045L67.91486619313558,123.84050615581782L68.06380230320825,138.72061645001028L68.2127384132809,155.73368288618676L68.51061063342624,129.77012113028624L68.80848285357158,129.7833731716227L68.95741896364424,137.29213523222776L69.25529118378958,127.47605838616046L69.40422729386223,117.24024553447057L69.5531634039349,105.7933382798435L69.99997173415291,101.53110640409453L70.14890784422556,95.78677242129254L70.29784395429824,77.27844007686159L70.4467800643709,88.65161214215593L70.74465228451623,114.48005295886796L70.89358839458889,131.72408325614626L71.04252450466156,131.55238435506604L71.19146061473423,154.65307600352983L71.48933283487956,125.179563000649L71.63826894495223,114.26916891831354L71.78720505502488,95.87247271691163L71.93614116509755,108.72654330450071L72.23401338524289,114.04361003797166L72.38294949531556,109.9430786470319L72.53188560538821,122.75237010497474L72.6808217154609,60.95125685310026L72.9786939356062,89.73320840442688L73.12763004567888,92.61133657007517L73.27656615575154,103.23658227212238L73.42550226582422,107.38472973782277L73.72337448596954,144.15993330237808L74.17018281618755,116.46114571110377L74.46805503633287,141.5908990578981L74.61699114640554,129.95397487059773L74.76592725647821,138.92999553435024L74.91486336655086,165.05396550590714L75.2127355866962,134.26102725669156L75.36167169676887,143.93732948275382L75.51060780684153,142.9586080738186L75.65954391691419,119.44233178059505L75.95741613705952,115.87381057874856L76.10635224713221,97.73568871483742L76.25528835720486,112.23849479733497L76.40422446727752,125.4302314798236L76.70209668742285,135.42230354835766L76.85103279749553,105.0073350332787L76.99996890756819,76.70846259664378L77.14890501764086,110.37068672546057L77.44677723778618,92.3290085163395L77.59571334785885,97.02243632500556L77.74464945793152,117.70438476028563L77.89358556800418,128.95491200780043L78.19145778814952,60.81522027238951L78.34039389822217,104.48385386766412L78.48933000829486,115.4557174386051L78.93613833851285,148.9788112703742L79.23401055865818,184.97117684460142L79.38294666873084,206.5665961891377L79.68081888887617,172.89405609836388L79.82975499894883,150.62758561787842L79.97869110902151,116.61998824673597L80.12762721909417,145.802066818341L80.4254994392395,163.31131396130402L80.57443554931217,133.0085447435308L80.72337165938484,114.82688321286687L80.8723077694575,115.7378790789174L81.17017998960283,116.28447659854771L81.3191160996755,116.6124351103259L81.46805220974815,116.80921021739283L81.61698831982083,116.92727528163299L81.91486053996617,142.34893102469277L82.06379665003882,119.75404045052916L82.36166887018416,115.09682047872293L82.6595410903295,113.20056271100246L82.80847720040215,143.8966953469925L82.95741331047482,157.2990521292764L83.10634942054749,119.32567340129638L83.40422164069282,108.36806506523965L83.55315775076548,100.3875995625414L83.70209386083815,116.39854652957206L83.85102997091082,139.97201749036552L84.14890219105614,116.85836675369778L84.29783830112882,119.57343808574323L84.44677441120147,128.8495755708653L84.59571052127414,115.54457616036494L84.89358274141946,130.85579135914253L85.04251885149215,140.04252047840905L85.1914549615648,120.0177426919418L85.34039107163748,135.21593718635467L85.63826329178279,142.55470550322244L85.78719940185547,140.18830579399105L86.08507162200081,125.70569654587719L86.38294384214613,129.93594379721208L86.68081606229146,97.11595305879517L87.27656050258213,101.55944015585285L87.4254966126548,101.89262386444985L87.57443272272745,114.22968996346277L87.87230494287279,125.00402598704547L88.02124105294546,141.5030571058496L88.17017716301812,137.13354553128818L88.31911327309078,122.2346944993689L88.61698549323611,130.12195733624196L88.76592160330878,150.9763969545471L88.91485771338145,109.08634315656093L89.0637938234541,92.48252356422805L89.36166604359944,130.26174162316445L89.51060215367211,162.1292691329282L89.65953826374478,153.84060560133415L89.80847437381745,148.8674074823777L90.10634659396278,158.1031238504415L90.25528270403544,146.0532234478402L90.4042188141081,143.58730245310747L90.55315492418077,118.3258351912058L90.85102714432611,111.16108629648848L90.99996325439876,119.4252453617647L91.14889936447145,86.14159660607712L91.2978354745441,86.41673991064015L91.74464380476209,99.46849689590188L91.89357991483477,83.3376317713629L92.04251602490743,115.02433309475822L92.34038824505276,116.62656145033118L92.48932435512542,95.14418989452541L92.6382604651981,106.48284818438034L92.78719657527076,100.6348061368232L93.08506879541609,98.17590066321654L93.23400490548876,126.97399118503907L93.38294101556141,147.21941151905L93.5318771256341,137.2129866548508L93.82974934577942,79.87845656898429L93.97868545585209,99.69479188668818L94.12762156592474,134.98551570354837L94.27655767599742,111.50569975478666L94.57442989614276,132.927615404974L94.87230211628807,126.90140600553765L95.02123822636075,154.03521762464683L95.31911044650607,137.14377817722308L95.46804655657874,135.23690401068123L95.61698266665141,140.54822921980661L95.76591877672408,102.11152789541545L96.0637909968694,120.68252040052208L96.21272710694207,127.69958187021936L96.36166321701474,126.72182262003506L96.5105993270874,140.79395380687544L97.10634376737806,149.39344912241117L97.25527987745072,136.4127745847103L97.55315209759605,108.09263476117653L97.70208820766874,121.74640583850059L97.85102431774139,134.77437807212652L97.99996042781406,132.44827896292864L98.29783264795938,117.15307676822054L98.44676875803206,124.88673712662242L98.59570486810472,143.15930294694274L98.74464097817739,153.78840712347792L99.04251319832272,154.29442177989858L99.34038541846806,118.95923004040596L99.48932152854071,122.08578471248488L99.78719374868605,148.28094683765872L99.9361298587587,163.998044112763L100.08506596883139,132.6059339611344L100.53187429904938,108.67064755345106L100.68081040912203,105.5689121722065L100.97868262926737,89.46645556606323L101.2765548494127,105.587351159106L101.42549095948537,113.89834289516129L101.57442706955804,120.54519194908376L101.7233631796307,136.82515703432185L102.02123539977603,138.32795992080185L102.1701715098487,95.94063123494769L102.31910761992137,120.81809452343282L102.46804372999404,121.01367951570457L102.76591595013937,120.7202809870732L102.91485206021203,134.33544582394342L103.21272428035736,106.58319079557634L103.65953261057535,107.14841451514609L103.95740483072069,137.83342315050874L104.25527705086603,135.90325856746935L104.40421316093868,114.33505609281205L104.55314927101135,136.48191198009394L104.70208538108402,139.18935165890207L104.99995760122935,170.7050502978039L105.14889371130202,165.58060702097873L105.29782982137468,121.92343466790277L105.44676593144735,133.16038601876332L105.74463815159268,124.49883805674413L105.89357426166535,101.30573373030715L106.042510371738,129.99278762444123L106.19144648181069,116.8633290568603L106.489318701956,123.08006780626529L106.63825481202868,141.71115748372057L106.78719092210133,141.87390669299427L106.93612703217401,145.98502465553995L107.23399925231934,127.12388848031776L107.382935362392,118.40005499042965L107.53187147246466,143.15682286964685L107.68080758253734,158.80532445503326L108.276552022828,158.9551054669986L108.42548813290065,152.44719567543785L108.72336035304599,153.16374076411495L108.87229646311866,149.92334420385149L109.02123257319133,143.41529968691492L109.17016868326398,147.37237772482104L109.46804090340932,153.93317406573377L109.616977013482,131.65231252895103L109.76591312355465,113.18910048552083L109.91484923362731,104.29698246201856L110.21272145377264,126.69753900477068L110.36165756384533,120.92651716121674L110.51059367391798,120.20677109663603L110.65952978399065,116.28888585425011L110.95740200413597,113.84487000811626L111.10633811420864,112.70087539045824L111.25527422428131,86.69127464343397L111.40421033435398,71.12656631370311L111.70208255449931,83.79186438744829L111.99995477464465,100.62734583209831L112.1488908847173,103.33927783672776L112.5956992149353,119.18113673550494L112.74463532500798,122.96485567145676L112.89357143508063,150.26018608471117L113.19144365522597,121.11051969445498L113.34037976529862,89.43373890699672L113.4893158753713,102.08837879031762L113.63825198544396,108.23005106611255L113.9361242055893,108.57047293586194L114.08506031566196,96.60654867835179L114.23399642573463,107.74272338808261L114.3829325358073,147.89977231720994L114.68080475595262,166.32665641187853L114.82974086602529,167.33063661442944L114.97867697609794,137.04950132170876L115.12761308617063,137.56845559324285L115.42548530631596,130.6957400413912L115.57442141638862,140.63613918238116L115.72335752646127,141.573394260706L115.87229363653395,146.0742552613486L116.31910196675194,172.71959020554684L116.46803807682461,134.92081766680076L116.61697418689728,113.75042744956242L116.91484640704262,109.96146940685747L117.06378251711527,138.4145206553048L117.21271862718794,149.95744491061183L117.36165473726061,145.1895434730598L117.65952695740593,158.90307760774328L117.80846306747861,84.24403508075068L117.95739917755127,89.04986026490897L118.10633528762393,85.46982409118111L118.40420750776926,114.30717322029435L118.55314361784194,127.41390776827353L118.7020797279146,127.6903361616272L119.14888805813258,122.52714870622182L119.29782416820527,135.44962567448925L119.44676027827792,119.53561141810445L119.5956963883506,112.55689096499879L119.89356860849593,142.42012389375168L120.0425047185686,169.35644914570074L120.19144082864125,153.16482833273844L120.34037693871392,146.22745490332287L120.63824915885925,146.19338649862607L120.78718526893192,147.69057719949146L120.93612137900459,165.96237813247382L121.08505748907724,163.51062290910423L121.38292970922258,154.06947304133246L121.53186581929525,158.0535967185655L121.68080192936792,134.42664251573828L121.82973803944057,125.92674494889187L122.12761025958591,84.52944312608035L122.27654636965858,115.87025824468695L122.42548247973124,102.23884383116636L122.87229080994923,116.11015305973116L123.0212269200219,119.56137160698208L123.17016303009457,104.97082236423971L123.61697136031258,104.37214773748111L123.76590747038523,116.86405829517972L123.9148435804579,96.83989987879785L124.06377969053057,97.6772785749233L124.51058802074856,96.23641723994092L124.65952413082124,152.35824295220746L124.8084602408939,146.7607953953563L125.10633246103923,136.77408149495398L125.25526857111188,122.33912311110863L125.40420468118457,110.83044890116703L125.55314079125722,99.48255540739945L125.85101301140256,141.2725714065419L125.99994912147521,102.01271662620506L126.1488852315479,113.71753173174842L126.29782134162055,111.48254014431231L126.59569356176588,100.47479881514133L126.74462967183855,96.40261468076395L126.8935657819112,119.59946739172537L127.04250189198389,114.66569432235134L127.34037411212921,138.86121929340246L127.48931022220188,165.59198804828551L127.63824633227453,164.46221522620095L127.78718244234722,145.62804499474055L128.08505466249255,136.15182593275068L128.2339907725652,138.88759327825983L128.38292688263786,135.47378784367814L128.97867132292853,151.37422636229823L129.1276074330012,115.00202523844293L129.5744157632192,119.10880140062255L129.72335187329185,132.89430579745624L129.87228798336454,124.9738259916278L130.02122409343718,138.4042178190016L130.4680324236552,131.4440238508526L130.61696853372786,130.09919885015591L130.76590464380052,136.9646544774174L131.06377686394586,147.7434230647281L131.21271297401853,153.65544493640678L131.3616490840912,163.62766526582246L131.51058519416387,168.12423228086533L131.80845741430917,168.48640970078793L131.95739352438184,187.89337154703904L132.1063296344545,162.99350568753815L132.70207407474518,147.95442173783638L132.85101018481785,117.69424727409465L132.99994629489052,113.6722711892231L133.29781851503586,122.55511335161326L133.4467546251085,107.49267216793663L133.59569073518117,80.17938168064585L133.74462684525383,109.13008794103517L134.04249906539917,150.1969948976436L134.19143517547184,145.0896845143236L134.34037128554448,139.27904693027082L134.48930739561717,135.95372503539215L134.78717961576248,124.07040255384186L134.93611572583515,122.544928439599L135.08505183590785,131.39246404817126L135.23398794598052,123.09246094002711L135.53186016612582,116.04108041024136L135.6807962761985,134.86826638922318L135.82973238627116,109.30972464150805L135.97866849634383,111.72803430801896L136.27654071648914,119.77357729355431L136.4254768265618,97.34378877117497L136.72334904670714,82.7736756228331L137.02122126685248,89.41382185073344L137.17015737692518,77.87464711115331L137.31909348699782,99.59369626268737L137.46802959707048,99.47293708606372L137.7659018172158,98.14265902249522L137.9148379272885,103.54367196425271L138.06377403736116,96.05759113966138L138.2127101474338,70.1205736460582L138.51058236757916,72.39276040621749L138.65951847765183,67.31594594170733L138.80845458772447,99.92584847289838L138.95739069779714,99.60601821156074L139.25526291794247,108.2586334361874L139.40419902801514,64.02136424426529L139.70207124816045,108.3852346214614L139.99994346830582,111.4780589013272L140.14887957837846,96.96782979804321L140.29781568845112,131.3215399446153L140.4467517985238,130.69840381861135L140.74462401866913,96.23130043519967L140.8935601287418,48.002065873650274L141.1914323488871,67.47405746550115L141.48930456903247,80.7402299381151L142.23398511939578,69.91856475047021L142.38292122946845,94.09855219418958L142.53185733954112,79.09758219790308L142.6807934496138,86.99988786449332L142.97866566975912,92.90450432615519L143.12760177983176,76.24711202346074L143.27653788990446,49.30304469000694L143.42547399997713,56.21269000008949L143.72334622012244,83.96033011577782L143.8722823301951,77.14034608362071L144.02121844026777,84.46484869302331L144.17015455034044,91.25102780213444L144.46802677048578,41.309132087477856L144.61696288055842,61.63465020456361L144.76589899063111,77.24094849044982L144.91483510070378,63.91638610572941L145.2127073208491,77.84406710303855L145.3616434309218,90.5848609151539L145.51057954099443,90.34907561710705L145.6595156510671,117.04571639844482L145.9573878712124,104.70281137739035L146.1063239812851,114.42034409070554L146.25526009135777,117.99531321354189L146.40419620143044,119.52792984237652L146.70206842157577,117.3361749280399L146.99994064172108,92.6299608521721L147.14887675179375,97.06984522298491L147.4467489719391,107.43877081766743L147.59568508201176,140.35084520864464L147.74462119208442,130.1396172847769L147.89355730215706,132.09390116480537L148.19142952230243,142.82029600130687L148.3403656323751,134.93150421293726L148.48930174244774,153.01992871896553L148.6382378525204,120.21731740310285L148.93611007266574,110.13812165789284L149.0850461827384,108.1645825244168L149.23398229281108,68.94199337773556L149.38291840288372,82.73156790651007L149.68079062302908,113.42293344420973L149.82972673310172,87.09277033282854L149.9786628431744,67.14056341809857L150.1275989532471,74.43281946571449L150.4254711733924,82.90968258632117L150.57440728346506,51.44180842815384L150.72334339353773,40.78641491497801L150.8722795036104,55.13337940357567L151.17015172375574,82.9329831195004L151.31908783382838,56.7341745664514L151.46802394390104,66.2273489197903L151.61696005397374,67.84260445276429L152.06376838419172,80.48510788823037L152.21270449426441,48.96553945956848L152.36164060433705,72.47879791402848L152.6595128244824,68.0911263058669L152.80844893455503,61.46700808296302L152.95738504462773,59.055649160044396L153.1063211547004,3.7612087285734663L153.4041933748457,27.092222869613405L153.5531294849184,51.926144142970095L153.70206559499107,60.546020232138304L153.8510017050637,54.623231659312516L154.14887392520905,72.61193903641268L154.2978100352817,51.54535967170374L154.44674614535438,25.478955437609894L154.59568225542705,51.23161982456239L154.89355447557236,64.30017315214239L155.1914266957177,84.17086434966586L155.34036280579036,70.6126189328939L155.63823502593573,68.19748602198426L155.78717113600837,57.83805782199511L156.0850433561537,46.33760527726906L156.38291557629904,46.29015067787023L156.68078779644435,36.9689429261102L157.12759612666235,25.99765680639522L157.27653223673502,16.09320279432186L157.4254683468077,10.146028843692234L157.57440445688036,14.658891897121816L157.8722766770257,5.618967837696029L158.02121278709836,14.640531366129645L158.170148897171,36.4996788330727L158.31908500724367,31.137506031093725L158.616957227389,-2.0340296241990137L158.91482944753434,-7.352707056151019L159.063765557607,29.317781432900876L159.51057388782502,52.614790167760304L159.65950999789766,34.164170437865785L159.80844610797035,43.972690769545615L160.10631832811566,30.893665111909723L160.25525443818833,25.950136639583242L160.40419054826103,21.385090917556727L160.850998878479,30.507662925226693L161.14887109862434,29.352846593958464L161.297807208697,19.51826815559079L161.59567942884232,5.904403770353533L161.744615538915,3.758253142429637L161.89355164898768,-9.035789876365298L162.04248775906032,3.154448997931148L162.34035997920566,16.52160242189444L162.48929608927833,0.8392134987725597L162.638232199351,21.724025434074367L162.78716830942366,14.417736280845723L163.08504052956897,-0.15232856525003957L163.23397663964167,15.85254109052877L163.38291274971434,29.838074188535014L163.53184885978698,30.05589605430758L163.82972107993234,30.346035145283576L163.97865719000498,40.277866285708484L164.12759330007765,10.034574466731653L164.72333774036832,43.58089852800091L164.872273850441,32.45529273566264L165.02120996051363,17.440950617988968L165.319082180659,42.71322922256558L165.46801829073164,48.750663147554306L165.6169544008043,22.403021957013983L165.76589051087697,33.33774767775179L166.0637627310223,18.136409840615872L166.21269884109498,46.27656166458925L166.36163495116762,29.712684889643512L166.80844328138565,40.50083460683507L166.9573793914583,-12.780936778720017L167.10631550153096,6.0100560033521235L167.25525161160365,11.744572870069018L167.55312383174896,32.26281748987001L167.70205994182163,29.863568594541128L167.85099605189427,17.161647004813876L167.99993216196697,17.49281295034252L168.29780438211228,44.77757633767804L168.44674049218494,44.73070217509225L168.59567660225764,48.32545567612404L168.7446127123303,15.666164297113138L169.04248493247562,25.2279504049252L169.19142104254828,14.648754010138669L169.34035715262095,18.99868104084607L169.48929326269362,6.40069484915834L169.78716548283893,13.74031550667982L169.9361015929116,53.05065368708958L170.0850377029843,41.89451559331327L170.23397381305693,34.46938086670995L170.53184603320227,51.779278609972636L170.68078214327497,54.08060843482449L170.8297182533476,42.8735741992491L170.97865436342028,16.09279234320621L171.27652658356558,-7.178015707830927L171.42546269363828,10.08858157040059L171.57439880371095,12.852952041342004L171.7233349137836,22.02500905311741L172.02120713392895,14.316996300612546L172.31907935407426,17.330590137089505L172.46801546414693,3.3400580092049785L172.76588768429227,32.365813031445555L173.0637599044376,51.875552020142216L173.21269601451024,12.32635759184882L173.5105682346556,12.552815277510671L173.65950434472825,37.39389393626827L173.80844045480092,67.13125706653116L173.95737656487358,77.58165956234043L174.25524878501892,54.387627832367606L174.4041848950916,45.184797707341616L174.55312100516426,9.975453624297986L174.7020571152369,18.268118216716278L174.99992933538226,-20.540055469493698L175.29780155552757,-13.541946821958316L175.74460988574558,13.517740372589351L175.89354599581824,45.645175156085195L176.0424821058909,-8.44091357532247L176.19141821596358,11.634377197958369L176.48929043610892,34.81142808609435L176.63822654618156,42.93911218659237L176.93609876632692,65.93718299871212L177.23397098647223,41.03381866414229L177.53184320661757,4.116015512224132L177.68077931669023,12.347929854160174L177.97865153683557,53.78252596093079L178.1275876469082,50.587871152673095L178.2765237569809,60.10415035022489L178.42545986705358,69.78608953815666L178.72333208719888,72.64188177129878L178.87226819727158,69.98176520335613L179.1701404174169,68.18206566415219L179.4680126375622,50.03298058033899L179.6169487476349,57.33195033973257L179.76588485770756,49.09725737173935L179.91482096778023,16.272055147395893L180.21269318792557,39.91542858789372L180.36162929799823,27.078214720294454L180.51056540807087,23.325909170883335L180.65950151814354,39.29483258323263L180.95737373828888,49.236538440645944L181.10630984836155,42.7815591051785L181.40418206850686,-0.6925494952067274L181.70205428865222,13.556357401054763L181.8509903987249,18.470966213991773L181.99992650879753,32.94115452817229L182.44673483901553,38.466282948565166L182.5956709490882,26.057941943220147L182.74460705916087,3.879434768825418L182.8935431692335,42.442407960694794L183.48928760952418,53.43040395358441L183.63822371959688,43.60449891291275L183.9360959397422,50.81281820441806L184.08503204981486,43.0924136267972L184.23396815988752,35.02753201950167L184.3829042699602,55.66828459402223L184.68077649010553,86.50956147278119L184.82971260017817,79.524199544695L184.97864871025084,87.2169672211086L185.12758482032353,99.9933551371223L185.5743931505415,60.40251549794318L186.17013759083218,74.20081630352246L186.46800981097752,81.21406390847135L186.6169459210502,97.04697099572739L186.9148181411955,71.24634596564474L187.0637542512682,56.173230144471844L187.21269036134086,81.717287298707L187.3616264714135,87.61025628353862L187.8084348016315,92.27974974510222L187.95737091170417,100.22508707274928L188.10630702177684,76.37565196840205L188.40417924192215,64.22490501761479L188.55311535199485,69.89258985091242L188.7020514620675,45.495305918117886L188.85098757214016,44.05774415653749L189.14885979228552,41.93536210945937L189.44673201243083,44.12430476219613L189.5956681225035,54.47163184104726L189.89354034264883,34.56517225377866L190.0424764527215,39.456970903852145L190.19141256279414,38.97183940730297L190.63822089301215,22.596354554136692L190.78715700308481,8.838802395533751L190.93609311315748,10.40378452824465L191.08502922323015,-0.834357728440404L191.3829014433755,20.27566517727672L191.53183755344816,43.70440432234716L191.6807736635208,37.76961677152171L191.82970977359346,60.223530439945485L192.1275819937388,69.87361978329673L192.27651810381147,70.71796956804577L192.42545421388414,64.79790046365693L192.5743903239568,75.69582957867884L192.87226254410214,63.639216929990184L193.0211986541748,57.78345556405598L193.17013476424745,39.582653302949765L193.31907087432015,41.70387708160571L193.61694309446546,35.61481012993562L193.76587920453812,41.5424809967081L193.91481531461082,52.968939360493444L194.06375142468346,23.21289759702369L194.3616236448288,-4.138625185958682L194.51055975490144,-9.167141756209192L194.65949586497413,16.094492779680674L194.8084319750468,-19.81765547145419L195.1063041951921,14.272924888102517L195.99992085562812,49.913653773529376L196.1488569657008,81.93760306618519L196.29779307577346,74.71419630904316L196.59566529591876,95.79156854061108L196.74460140599146,88.46890892698669L196.89353751606413,108.74481474794418L197.04247362613677,100.99761797500241L197.34034584628213,93.24083741403531L197.48928195635477,117.19171235155189L197.63821806642744,133.55990320602214L198.08502639664545,151.72187587829984L198.23396250671811,158.80356109401174L198.38289861679078,168.6051933696736L198.53183472686342,183.03570454522603L198.8297069470088,191.3983854366613L198.97864305708143,138.10163091976077L199.1275791671541,113.06256054903558L199.27651527722676,128.01420255874373L199.5743874973721,92.87126136644885L199.72332360744477,89.29119969054669L199.8722597175174,123.7907493050952L200.02119582759008,79.51697962978452L200.46800415780808,118.1581119927546L200.61694026788075,124.60155155956029L200.76587637795345,121.6242581372926L201.06374859809875,149.35001682974183L201.21268470817142,118.02116845316856L201.36162081824406,116.4382017020616L201.51055692831676,124.86585416091425L201.80842914846207,101.09924274768758L201.95736525853474,112.8101720506612L202.10630136860743,119.97865872860959L202.2552374786801,137.30526010047413L202.5531096988254,129.41215963035805L202.70204580889808,112.21989271273307L202.85098191897075,145.30561673125533L202.9999180290434,162.16951053886487L203.4467263592614,134.84673270211368L203.5956624693341,148.86121175385094L203.74459857940673,127.82335486200058L204.04247079955206,114.76546706804116L204.19140690962476,118.66976463493317L204.3403430196974,92.16235936537386L204.48927912977007,80.42032701089911L204.78715134991538,85.89345938514077L204.93608745998807,90.95100398839409L205.08502357006074,137.07542126800533L205.23395968013338,135.37720746593862L205.82970412042405,123.36531451783182L205.97864023049672,111.54137301879997L206.27651245064206,120.1369092506667L206.42544856071473,111.4069207154495L206.5743846707874,120.99843047118635L206.72332078086004,102.55861708315675L207.17012911107804,122.74075718664793L207.3190652211507,163.73642884407707L207.46800133122338,124.42082099041451L207.7658735513687,137.1985445535778L207.91480966144138,128.08585513105982L208.06374577151405,122.61824147754903L208.2126818815867,116.08804825924706L208.51055410173205,109.95703231569746L208.6594902118047,141.1679935781901L208.80842632187736,145.4991157318213L208.95736243195006,111.18886008347955L209.25523465209537,139.53245270823618L209.40417076216804,136.6722534863732L209.5531068722407,155.74508495982914L209.70204298231337,141.53767668270723L209.9999152024587,165.63119490416773L210.14885131253135,166.27183269256835L210.29778742260405,136.3633074914976L210.4467235326767,102.50129765236342L210.8935318628947,119.97180840094975L211.19140408304003,124.7645472943124L211.48927630318536,124.59114524382966L211.638212413258,92.31337465621603L211.7871485233307,113.46296771514959L211.93608463340337,90.09829682116921L212.23395685354868,84.01778663591551L212.38289296362137,136.93533647996253L213.1275735139847,116.7966899503755L213.27650962405735,135.32066982685527L213.42544573413002,143.73269644669182L213.72331795427536,137.2708278616363L213.87225406434803,116.4192265654763L214.02119017442067,144.1210910791902L214.17012628449334,144.4731426937342L214.46799850463867,176.95919202668253L214.61693461471134,178.82365031029516L214.765870724784,154.3088736291038L214.91480683485665,168.94242113261055L215.212679055002,178.98769535528035L215.51055127514732,181.31160339625697L215.65948738522,165.2270536781278L215.95735960536533,155.34706317841176L216.4041679355833,154.64417827860615L216.70204015572867,132.44415169364913L216.8509762658013,77.65242774758354L216.99991237587398,99.95820924708707L217.14884848594667,132.8025189101884L217.44672070609198,107.30968657629192L217.59565681616465,89.86269796099083L217.89352903630999,121.64740997363772L218.19140125645532,161.71194317208435L218.34033736652796,169.81016788976586L218.63820958667333,170.213023291994L218.93608180681863,138.36071385182336L219.0850179168913,128.85906316984955L219.233954026964,159.29002063388862L219.38289013703664,172.41416082262188L219.68076235718198,146.85834073133844L219.82969846725462,133.41678538375692L219.9786345773273,167.29145972336298L220.12757068739998,156.5418983072425L220.4254429075453,168.0706325671397L220.57437901761799,131.25788270791688L220.72331512769065,147.8167819446477L220.8722512377633,164.42888076892132L221.17012345790863,123.7599176680333L221.3190595679813,128.5525002476367L221.46799567805397,102.1134610404808L221.61693178812664,125.5543176108805L222.06374011834464,129.12172167613917L222.21267622841728,140.63406755521805L222.36161233848995,152.1775265418005L222.6594845586353,164.1864152639642L222.80842066870795,146.38610720376388L222.95735677878062,142.7796003449205L223.1062928888533,137.58449391725847L223.40416510899863,158.593484455563L223.5531012190713,151.66898173002136L223.70203732914393,181.27575762691615L224.14884565936194,137.21905139484008L224.2977817694346,108.51233540370886L224.44671787950728,105.87374674668773L224.59565398957994,135.73322170316732L224.89352620972528,140.90505366241462L225.04246231979795,133.94302802659956L225.1913984298706,117.79975619475739L225.34033453994326,138.99774872330806L225.6382067600886,161.19654996137535L225.78714287016126,149.71761107015968L225.93607898023393,143.8918535622266L226.5318234205246,151.65204345982806L226.68075953059724,140.48362586900058L226.82969564066994,132.59315664444296L227.12756786081525,137.05998901498666L227.27650397088792,122.08351029969208L227.4254400809606,128.65080613140398L227.57437619103325,136.10584517842258L227.8722484111786,133.4677837824192L228.02118452125123,123.95493188813259L228.17012063132393,137.75474871764547L228.3190567413966,101.40901252082931L228.6169289615419,102.40107255371798L228.7658650716146,126.16924270615519L228.91480118168727,129.61159047203225L229.0637372917599,136.94306279042738L229.36160951190524,125.90458815808564L229.65948173205058,101.59944096011785L229.80841784212325,85.9959049476333L230.10629006226856,98.19385199065438L230.25522617234125,95.01333296252221L230.40416228241392,105.78156343871706L230.55309839248656,101.96968613962132L230.85097061263193,106.70293685416502L230.99990672270457,104.98109497967845L231.14884283277723,84.44740992325767L231.2977789428499,88.88593930578995L231.59565116299524,70.31568453401812L231.7445872730679,81.46506034677421L231.89352338314058,88.57889105875967L232.04245949321322,94.03421874983106L232.34033171335858,112.6364346127124L232.6382039335039,119.65070097653482L232.78714004357656,65.98316213550838L233.0850122637219,96.32179820966094L233.53182059393987,123.62706795991794L233.82969281408523,104.94196728096996L233.97862892415787,121.45295233132128L234.12756503423054,131.80300246980119L234.27650114430324,129.96205482765677L234.72330947452122,122.83713679743974L234.87224558459386,154.42758050633523L235.02118169466655,135.00567560648943L235.31905391481186,134.72302351006485L235.46799002488453,155.35656475144248L235.61692613495723,158.30324865346927L236.0637344651752,131.0701554377477L236.21267057524787,135.29105814710715L236.36160668532054,119.93302292875077L236.80841501553851,125.07028827166559L236.95735112561118,117.13944217525236L237.10628723568388,138.24864583415143L237.25522334575652,144.6891043751252L237.55309556590186,145.11793532934033L237.70203167597455,157.6037906783792L237.99990389611986,163.19749560228502L238.29777611626517,178.94987627455217" fill="none"></path></g></g></g></g><g opacity="0.2"><g><g><g><path style="fill: none;" stroke="rgb(255, 112, 67)" stroke-width="2px" d="M29.936158124605814,161.29917211262534L30.08509423467848,189.24256384089458L30.234030344751147,223.60036946967043L30.82977478504181,125.26339987693432L30.978710895114475,216.44774730626298L31.276583115259807,14.008550211861586L31.425519225332472,19.516620757524894L31.7233914454778,19.516620757524894L32.02126366562314,19.516620757524894L32.1701997756958,180.840049828122L32.31913588576847,59.6960759120982L32.468071995841136,59.6960759120982L32.765944215986465,59.6960759120982L32.91488032605913,59.6960759120982L33.21275254620446,126.32711376345014L33.51062476634979,52.87468823866149L33.65956087642246,46.31368875417697L33.80849698649513,46.31368875417697L33.95743309656779,-30.21006153488266L35.446794197294444,-51.008945294796355L35.74466641743978,53.39383362258559L35.89360252751244,30.869602880629472L36.04253863758511,-19.98564569643492L36.936155298021106,-73.56257470324707L37.234027518166435,146.9515627171726L37.382963628239104,77.20022950729168L37.53189973831177,54.37724144299723L37.68083584838443,148.8849837562496L37.97870806852976,114.37368120650436L38.12764417860243,121.79115640488503L38.2765802886751,116.18461459766213L38.42551639874777,101.92787195433593L38.72338861889309,202.0585679517378L38.87232472896576,107.80350738088076L39.021260839038426,129.68145675814975L39.17019694911109,117.18514785486676L39.468069169256424,88.71936914213761L39.61700527932909,121.07708685289235L39.76594138940175,158.8533335397929L40.21274971961975,173.25496961084252L40.36168582969242,137.35359127912682L40.51062193976508,10.466887558526492L40.65955804983775,166.76104475379714L41.10636638005574,79.32894168808284L41.25530249012841,71.53619516226381L41.404238600201076,128.71758009065198L41.70211082034641,136.0052281682021L41.85104693041907,97.63788887542223L41.99998304049174,41.63363307745385L42.14891915056441,69.80354948215964L42.44679137070973,68.60476890665163L42.5957274807824,76.45468177147956L42.74466359085507,80.62462369344443L42.89359970092774,15.237789599951395L43.19147192107307,95.45937021595819L43.34040803114573,145.1101501260083L43.489344141218396,121.04797361034433L43.638280251291064,127.12281456415597L44.08508858150906,72.48698310306982L44.23402469158173,154.62950765420445L44.68083302179972,122.27058708538924L44.82976913187239,169.51738380562594L44.97870524194506,112.98754019751132L45.12764135201772,107.4983076323203L45.425513572163055,171.26984606259055L45.72338579230838,132.87139555963677L45.872321902381046,160.75511329565242L46.17019412252638,187.4318139365596L46.31913023259905,156.09515961973628L46.46806634267171,119.59496184815968L46.61700245274438,91.03635919052768L46.91487467288971,74.26287051107623L47.06381078296237,143.66517100917656L47.21274689303504,83.10567134882622L47.36168300310771,39.390282407273546L47.65955522325304,124.04090872643792L47.808491333325705,122.86441160618551L47.957427443398366,155.99124491576748L48.106363553471034,102.35888250105045L48.404235773616364,107.52672770242671L48.55317188368903,175.71503860615292L48.7021079937617,143.57724004621457L48.85104410383437,144.47897584306355L49.14891632397969,94.51147728946721L49.29785243405236,183.52073114669042L49.44678854412503,114.78448781528814L49.595724654197696,41.20778054920194L49.893596874343025,100.19687765563677L50.04253298441569,86.39928020518501L50.19146909448836,176.0948155544618L50.340405204561016,105.5815635066917L50.63827742470635,89.71272602582899L50.78721353477902,61.84397265958243L50.93614964485168,129.8843116344474L51.38295797506969,135.6634941544833L51.53189408514235,124.30578214883589L51.68083019521501,129.31562480837226L51.82976630528768,125.9782033762181L52.127638525433014,16.819119813534797L52.276574635505675,110.481721821054L52.42551074557834,110.481721821054L52.57444685565101,140.54271458362373L52.87231907579634,58.467448146750996L53.021255185869,66.68353954757723L53.17019129594167,12.530502692079589L53.31912740601434,95.63555834067827L53.61699962615967,95.63555834067827L53.76593573623233,79.35925778869135L53.914871846305,64.96361562051929L54.063807956377666,64.96361562051929L54.361680176522995,80.34197243666137L54.51061628659566,80.34197243666137L54.65955239666833,80.34197243666137L54.808488506741,27.386085162691476L55.10636072688632,164.4027090080069L55.25529683695899,21.4875138832989L55.40423294703166,95.858841416579L55.55316905710432,47.75406031301441L55.85104127724966,106.66743852391463L55.999977387322325,106.66743852391463L56.148913497394986,74.39459366240884L56.29784960746765,18.203833702795077L56.74465793768565,102.16601746288198L56.89359404775831,54.26160396979517L57.04253015783098,45.5555619772919L57.34040237797631,101.56277395184956L57.48933848804897,81.03893693928582L57.63827459812164,105.35701641045624L57.78721070819431,0.7964796003314049L58.085082928339645,45.77741793345991L58.234019038412306,104.64374196802895L58.38295514848497,43.75025551536614L58.531891258557636,45.98977334969277L58.829763478702965,71.40118963554588L58.97869958877563,95.17125512934118L59.27657180892097,153.71211431514476L59.57444402906629,80.82603106258462L59.72338013913896,172.51776033175457L59.87231624921163,89.5967011915566L60.0212523592843,89.5967011915566L60.31912457942963,89.5967011915566L60.468060689502295,89.5967011915566L60.61699679957496,89.5967011915566L60.765932909647624,89.5967011915566L61.063805129792954,89.5967011915566L61.21274123986562,47.19613804720911L61.51061346001095,197.08623815374793L61.80848568015629,140.28108276176158L61.95742179022895,63.52018594796879L62.10635790030161,112.30982142385423L62.25529401037428,94.08362679358945L62.553166230519615,16.98886551203275L62.70210234059228,62.420569806461984L62.851038450664944,37.98024733646937L62.999974560737606,129.99146793895204L63.29784678088294,145.17985473124065L63.59571900102827,184.68717726653935L63.74465511110094,167.99317915620193L64.04252733124628,105.87636566862784L64.19146344131893,144.43404195890673L64.3403995513916,82.19429230006881L64.48933566146427,128.58620352554016L64.7872078816096,77.85219896348508L64.93614399168227,61.38590800021994L65.08508010175493,84.19533842705331L65.2340162118276,78.28108921802526L65.53188843197293,70.66610064863234L65.6808245420456,124.97277713707263L65.82976065211825,176.41137109861L65.97869676219092,175.84207264979221L66.27656898233626,122.42133170401688L66.42550509240893,101.83455871123897L66.57444120248158,197.04366921086256L66.72337731255425,163.81911897443686L67.02124953269958,117.38325246119688L67.31912175284492,133.44307933715072L67.76593008306291,78.95138696907206L67.91486619313558,137.91137083295888L68.06380230320825,161.040781891299L68.2127384132809,181.25328254045144L68.51061063342624,90.82477849643546L68.80848285357158,129.80325123362735L68.95741896364424,148.55527832313538L69.25529118378958,112.75194311705945L69.40422729386223,101.88652625693575L69.5531634039349,88.62297739790287L69.99997173415291,95.13775859047114L70.14890784422556,87.17027144708955L70.29784395429824,49.515941560215154L70.4467800643709,105.71137024009748L70.74465228451623,153.2227141839361L70.89358839458889,157.5901287020637L71.04252450466156,131.29483600344568L71.19146061473423,189.30411347622552L71.48933283487956,80.96929349632774L71.63826894495223,97.90357779481033L71.78720505502488,68.27742841480882L71.93614116509755,128.00764918588428L72.23401338524289,122.0192101381781L72.38294949531556,103.79228156062219L72.53188560538821,141.966307291889L72.6808217154609,-31.750413024711435L72.9786939356062,132.9061357314168L73.12763004567888,96.92852881854762L73.27656615575154,119.1744508251932L73.42550226582422,113.60695093637332L73.72337448596954,199.32273864921103L74.17018281618755,74.91296432419227L74.46805503633287,179.2855290780895L74.61699114640554,112.49858858964726L74.76592725647821,152.39402652997904L74.91486336655086,204.23992046324256L75.2127355866962,88.0716198828682L75.36167169676887,158.45178282184722L75.51060780684153,141.49052596041568L75.65954391691419,84.16791734075979L75.95741613705952,110.52102877597882L76.10635224713221,70.5285059189707L76.25528835720486,133.99270392108136L76.40422446727752,145.2178365035565L76.70209668742285,150.41041165115882L76.85103279749553,59.384882260660206L76.99996890756819,34.26015394169132L77.14890501764086,160.86402291868583L77.44677723778618,65.26649120265783L77.59571334785885,104.06257803800462L77.74464945793152,148.72730741320575L77.89358556800418,145.8307028790726L78.19145778814952,-41.39431733072694L78.34039389822217,169.98680426057615L78.48933000829486,131.91351279501657L78.93613833851285,199.26345201802775L79.38294666873084,238.95972520594222L79.68081888887617,122.38524596220313L79.82975499894883,117.22787989715016L79.97869110902151,65.6085921900222L80.12762721909417,189.57518467574855L80.4254994392395,189.57518467574855L80.57443554931217,87.55439091687094L80.72337165938484,87.55439091687094L80.8723077694575,117.10437287799323L81.17017998960283,117.10437287799323L81.3191160996755,117.10437287799323L81.46805220974815,117.10437287799323L81.61698831982083,117.10437287799323L81.91486053996617,180.4814146392825L82.06379665003882,85.86170458928372L82.36166887018416,108.11099052101362L82.6595410903295,110.35617605942171L82.80847720040215,189.94089430097753L82.95741331047482,177.40258730270224L83.10634942054749,62.36560530932644L83.40422164069282,91.93165256115454L83.55315775076548,88.4169013084941L83.70209386083815,140.41496698011807L83.85102997091082,175.33222393155572L84.14890219105614,82.1878906486962L84.29783830112882,123.64604508381142L84.44677441120147,142.7637817985484L84.59571052127414,95.58707704461435L84.89358274141946,153.82261415730892L85.04251885149215,153.82261415730892L85.1914549615648,89.98057601224096L85.34039107163748,158.01322892797387L85.63826329178279,153.5628579785241L85.78719940185547,136.638706230144L86.08507162200081,103.98178267370632L86.38294384214613,136.2813146742145L86.68081606229146,47.885966951169806L87.27656050258213,108.22467080143933L87.4254966126548,102.39239942734528L87.57443272272745,132.73528911198215L87.87230494287279,141.16553002241955L88.02124105294546,166.25160378405573L88.17017716301812,130.579278169446L88.31911327309078,99.88641795148992L88.61698549323611,141.95285159155168L88.76592160330878,182.2580563820048L88.91485771338145,46.25126245958164L89.0637938234541,67.57679417572874L89.36166604359944,186.93056871156912L89.51060215367211,209.9305603975738L89.65953826374478,141.40761030394304L89.80847437381745,141.40761030394304L90.10634659396278,171.95669840253723L90.25528270403544,127.97837284393817L90.4042188141081,139.88842096100842L90.55315492418077,80.43363429835327L90.85102714432611,100.41396295441245L90.99996325439876,131.82148395967906L91.14889936447145,36.21612347254574L91.2978354745441,86.82945486748464L91.74464380476209,119.04613237379444L91.89357991483477,59.14133408455445L92.04251602490743,162.55438507985116L92.34038824505276,119.02990398369063L92.48932435512542,62.920632560816756L92.6382604651981,123.49083561916272L92.78719657527076,91.86274306548758L93.08506879541609,94.48754245280654L93.23400490548876,170.17112696777286L93.38294101556141,177.58754202006634L93.5318771256341,122.20334935855206L93.82974934577942,-6.123338559815396L93.97868545585209,129.41929486324398L94.12762156592474,187.92160142883858L94.27655767599742,76.28597583164405L94.57442989614276,165.06048888025504L94.87230211628807,117.86209190638323L95.02123822636075,194.7359350533106L95.31911044650607,111.80661900608742L95.46804655657874,132.37659276086842L95.61698266665141,148.5152170334947L95.76591877672408,44.456475908828686L96.0637909968694,148.53900915818207L96.21272710694207,138.22517407476533L96.36166321701474,125.25518374475864L96.5105993270874,161.90215058713596L97.10634376737806,162.29269209571473L97.25527987745072,116.94176277815903L97.55315209759605,65.61242502587588L97.70208820766874,142.22706245448674L97.85102431774139,154.31633642256537L97.99996042781406,128.95913029913189L98.29783264795938,94.21027347615845L98.44676875803206,136.48722766422523L98.59570486810472,170.56815167742326L98.74464097817739,169.7320633882807L99.04251319832272,155.0534437645295L99.34038541846806,65.95644243116708L99.48932152854071,126.77561672060322L99.78719374868605,187.5736900254195L99.9361298587587,187.5736900254195L100.08506596883139,85.51776873369154L100.53187429904938,72.76771794192601L100.68081040912203,100.91630910033963L100.97868262926737,65.31277065684836L101.2765548494127,129.7686945486701L101.42549095948537,126.36483049924418L101.57442706955804,130.51546552996746L101.7233631796307,161.24510466217896L102.02123539977603,140.58216425052183L102.1701715098487,32.35963820616654L102.31910761992137,158.13428945616036L102.46804372999404,121.30705700411227L102.76591595013937,120.28018319412608L102.91485206021203,154.75819307924877L103.21272428035736,64.95480825302575L103.65953261057535,107.99625009450072L103.95740483072069,183.86093610355272L104.25527705086603,133.00801169291023L104.40421316093868,81.9827523808261L104.55314927101135,169.70219581101676L104.70208538108402,143.25051117711436L104.99995760122935,217.97859825615663L105.14889371130202,157.8939421057409L105.29782982137468,56.43767613828878L105.44676593144735,150.01581304505407L105.74463815159268,111.50651611371532L105.89357426166535,66.51607724065167L106.042510371738,173.02336846564233L106.19144648181069,97.1691412054889L106.489318701956,132.40517593037288L106.63825481202868,169.65779199990354L106.78719092210133,142.11803050690486L106.93612703217401,152.1517015993585L107.23399925231934,98.83218421748447L107.382935362392,105.31430475559755L107.53187147246466,180.29197468847266L107.68080758253734,182.2780768331128L108.276552022828,159.17977698494656L108.42548813290065,142.68533098809678L108.72336035304599,154.2385583971306L108.87229646311866,145.06274936345633L109.02123257319133,133.6532329115102L109.17016868326398,153.30799478168012L109.46804090340932,163.77436857710285L109.616977013482,98.2310202237769L109.76591312355465,85.49428242037547L109.91484923362731,90.95880542676522L110.21272145377264,160.2983738188989L110.36165756384533,112.26998439588583L110.51059367391798,119.127151999765L110.65952978399065,110.41205799067119L110.95740200413597,110.17884623891545L111.10633811420864,110.98488346397133L111.25527422428131,47.676873522897516L111.40421033435398,47.77950381910683L111.70208255449931,102.78981149806599L111.99995477464465,125.88056799907342L112.1488908847173,107.40717584367198L112.5956992149353,142.94392508367065L112.74463532500798,128.64043407538458L112.89357143508063,191.20318170459282L113.19144365522597,77.38602010907067L113.34037976529862,41.91856772580928L113.4893158753713,121.07033861529897L113.63825198544396,117.44255947980491L113.9361242055893,109.08110574048597L114.08506031566196,78.66066229208663L114.23399642573463,124.4469854526789L114.3829325358073,208.13534571090102L114.68080475595262,193.96698255388142L114.82974086602529,168.8366069182558L114.97867697609794,91.62779838262779L115.12761308617063,138.34688700054394L115.42548530631596,120.38666671361379L115.57442141638862,155.54673789386612L115.72335752646127,142.97927687819328L115.87229363653395,152.8255467623124L116.31910196675194,212.68759262184426L116.46803807682461,78.22265885868161L116.61697418689728,81.99484212370494L116.91484640704262,104.27803234279999L117.06378251711527,181.09409752797583L117.21271862718794,167.27183129357226L117.36165473726061,138.03769131673178L117.65952695740593,179.4733788097686L117.80846306747861,-27.744528709738322L117.95739917755127,96.25859804114639L118.10633528762393,80.09976983058935L118.40420750776926,157.56319691396428L118.55314361784194,147.07400959024235L118.7020797279146,128.10497875165765L119.14888805813258,114.78236752311378L119.29782416820527,154.83334112689033L119.44676027827792,95.66459003352729L119.5956963883506,102.08881028534033L119.89356860849593,187.214973286881L120.0425047185686,209.76093702362436L120.19144082864125,128.87739711329496L120.34037693871392,135.82139475919942L120.63824915885925,146.14228389158092L120.78718526893192,149.93636325078955L120.93612137900459,193.3700795319473L121.08505748907724,159.83299007404992L121.38292970922258,139.9077482396748L121.53186581929525,164.02978223441517L121.68080192936792,98.98621121149745L121.82973803944057,113.1768985986222L122.12761025958591,22.43349039186306L122.27654636965858,162.88148092259692L122.42548247973124,81.79172221088547L122.87229080994923,136.91711690257833L123.0212269200219,124.73819942785843L123.17016303009457,83.08499850012613L123.61697136031258,103.47413579734324L123.76590747038523,135.6019241317276L123.9148435804579,66.80366225422509L124.06377969053057,98.93334661911153L124.51058802074856,94.07512523746723L124.65952413082124,236.54098152060726L124.8084602408939,138.3646240600795L125.10633246103923,121.79401064435051L125.25526857111188,100.68668553534053L125.40420468118457,93.56743758625463L125.55314079125722,82.46071516674805L125.85101301140256,203.95759540525557L125.99994912147521,43.12293445569978L126.1488852315479,131.27475439006346L126.29782134162055,108.13005276315816L126.59569356176588,83.96318682138477L126.74462967183855,90.2943384791979L126.8935657819112,154.39474645816748L127.04250189198389,107.26503471829032L127.34037411212921,175.15450674997913L127.48931022220188,205.68814118061013L127.63824633227453,162.76755599307415L127.78718244234722,117.37678964755L128.08505466249255,121.93749733976593L128.2339907725652,142.99124429652363L128.38292688263786,130.35307969180553L128.97867132292853,175.22488414022834L129.1276074330012,60.443723552659954L129.5744157632192,125.26896564389203L129.72335187329185,153.5725623927068L129.87228798336454,113.09310628288516L130.02122409343718,158.54980556006223L130.4680324236552,121.00373289862914L130.61696853372786,128.08196134911094L130.76590464380052,147.26283791830963L131.06377686394586,163.91157594569415L131.21271297401853,162.5234777439248L131.3616490840912,178.58599575994612L131.51058519416387,174.86908280342962L131.80845741430917,169.0296758306718L131.95739352438184,217.0038143164157L132.1063296344545,125.64370689828682L132.70207407474518,125.3957958132838L132.85101018481785,72.30398557848206L132.99994629489052,107.63930706191577L133.29781851503586,135.8793765951985L133.4467546251085,84.89901039242167L133.59569073518117,39.20944594970967L133.74462684525383,152.55614733161917L134.04249906539917,211.79735533255624L134.19143517547184,137.4287189393436L134.34037128554448,130.5630905541917L134.48930739561717,130.9657421930741L134.78717961576248,106.2454188315164L134.93611572583515,120.25671726823475L135.08505183590785,144.6637674610296L135.23398794598052,110.64245627781091L135.53186016612582,105.4640096155628L135.6807962761985,163.1090453576959L135.82973238627116,70.97191201993539L135.97866849634383,115.35549880778525L136.27654071648914,131.84189177185735L136.4254768265618,63.69910598760585L136.72334904670714,60.918505900320326L137.02122126685248,99.37404119258399L137.17015737692518,60.565885001783144L137.31909348699782,132.17226998998848L137.46802959707048,99.29179832112823L137.7659018172158,96.14724192714256L137.9148379272885,111.64519137688892L138.06377403736116,84.8284699027744L138.2127101474338,31.215047405653422L138.51058236757916,75.80104054645639L138.65951847765183,59.700724244942016L138.80845458772447,148.84070226968493L138.95739069779714,99.12627281955427L139.25526291794247,121.23755627312747L139.40419902801514,-2.334539543617923L139.70207124816045,174.9310401872556L139.99994346830582,116.11729532112595L140.14887957837846,75.20248614311727L140.29781568845112,182.8521051644734L140.4467517985238,129.7636996296055L140.74462401866913,44.53064536008206L140.8935601287418,-24.341785968673836L141.1914323488871,96.68204485327735L141.48930456903247,100.63948864703607L142.23398511939578,53.686066969002795L142.38292122946845,130.3685333597687L142.53185733954112,56.59612720347327L142.6807934496138,98.85334636437865L142.97866566975912,101.76142901864804L143.12760177983176,51.261023569418974L143.27653788990446,8.886943689826339L143.42547399997713,66.57715796521329L143.72334622012244,125.58179028931033L143.8722823301951,66.9103700353851L144.02121844026777,95.4516026071271L144.17015455034044,101.43029646580108L144.46802677048578,-33.60371148450703L144.61696288055842,92.12292738019222L144.76589899063111,100.65039591927925L144.91483510070378,43.92954252864875L145.2127073208491,98.73558859900221L145.3616434309218,109.6960516333269L145.51057954099443,89.9953976700368L145.6595156510671,157.09067757045153L145.9573878712124,86.18845384580867L146.1063239812851,128.9966431606784L146.25526009135777,123.3577668977964L146.40419620143044,121.82685478562847L146.70206842157577,114.04854255653497L146.99994064172108,55.57063973837032L147.14887675179375,103.72967177920408L147.4467489719391,122.99215920969118L147.59568508201176,189.7189567951105L147.74462119208442,114.82277539897531L147.89355730215706,135.02532698484805L148.19142952230243,158.90988825605922L148.3403656323751,123.09831653038286L148.48930174244774,180.15256547800797L148.6382378525204,71.01340042930885L148.93611007266574,95.01932804007784L149.0850461827384,105.20427382420273L149.23398229281108,10.108109657713731L149.38291840288372,103.41592969967188L149.68079062302908,159.45998175075917L149.82972673310172,47.597525665756756L149.9786628431744,37.212253046003596L150.1275989532471,85.37120353713836L150.4254711733924,95.62497726723117L150.57440728346506,4.239997190902949L150.72334339353773,24.8033246452143L150.8722795036104,76.65382613647212L151.17015172375574,124.63238869338757L151.31908783382838,17.435961736877843L151.46802394390104,80.4671104497986L151.61696005397374,70.26548775222531L152.06376838419172,99.44886304142948L152.21270449426441,1.6861868165757858L152.36164060433705,107.7486855957185L152.6595128244824,61.5096188936244L152.80844893455503,51.53083074860729L152.95738504462773,55.438610775666405L153.1063211547004,-79.18045191863297L153.4041933748457,62.0887440811734L153.5531294849184,89.17702605300501L153.70206559499107,73.47583436589066L153.8510017050637,45.73904880007376L154.14887392520905,99.59500010206284L154.2978100352817,19.945490624640314L154.44674614535438,-13.62065091353088L154.59568225542705,89.86061640499115L154.89355447557236,83.90300314351234L155.1914266957177,113.97690114595102L155.34036280579036,50.27525080773591L155.63823502593573,64.5747866556198L155.78717113600837,42.29891552201129L156.0850433561537,29.086926460180127L156.38291557629904,46.21896877877203L156.68078779644435,22.987131298470125L157.12759612666235,9.54072762682278L157.27653223673502,1.236521776211762L157.4254683468077,1.2252679177478136L157.57440445688036,21.428186477266102L157.8722766770257,-7.940918251442781L158.02121278709836,28.17287665878L158.170148897171,69.28840003348725L158.31908500724367,23.09424682812521L158.616957227389,-51.79133310713812L158.76589333746168,-30.100336414859118L158.91482944753434,1.5090608703170525L159.063765557607,84.3235141664788L159.51057388782502,87.56030327004946L159.65950999789766,6.488240843024078L159.80844610797035,58.685471267065346L160.10631832811566,11.27512662545575L160.25525443818833,18.53484393109353L160.40419054826103,14.53752233451688L160.850998878479,44.191520936731706L161.14887109862434,27.620622097056163L161.297807208697,4.766400498039294L161.59567942884232,-14.51639280750232L161.744615538915,0.5390272005437233L161.89355164898768,-28.226854404557503L162.04248775906032,21.43980730937562L162.34035997920566,36.57233255783955L162.48929608927833,-22.6843698859102L162.638232199351,53.051243337027124L162.78716830942366,3.458302551002797L163.08504052956897,-22.007425834393754L163.23397663964167,39.85984557419703L163.38291274971434,50.81637383554431L163.53184885978698,30.382628852966462L163.82972107993234,30.781243781747634L163.97865719000498,55.17561299634577L164.12759330007765,-35.330363261733666L164.72333774036832,93.90038461990466L164.872273850441,15.766884047155203L165.02120996051363,-5.080562558521429L165.319082180659,80.6216471294304L165.46801829073164,57.80681403503736L165.6169544008043,-17.118439828796355L165.76589051087697,49.7398362588585L166.0637627310223,-4.665596915087917L166.21269884109498,88.48678940054924L166.36163495116762,4.866869727224738L166.80844328138565,56.68305918262236L166.9573793914583,-92.70359385705262L167.10631550153096,34.19654517646028L167.25525161160365,20.34634817014437L167.55312383174896,63.04018441957151L167.70205994182163,26.26469525154787L167.85099605189427,-1.8912353797770027L167.99993216196697,17.989561868635402L168.29780438211228,85.70472141868149L168.44674049218494,44.66039093121358L168.59567660225764,53.717585927671756L168.7446127123303,-33.32277277140328L169.04248493247562,39.570629566643355L169.19142104254828,-1.2200405820410156L169.34035715262095,25.52357158690727L169.48929326269362,-12.496284438373273L169.78716548283893,24.749746492961982L169.9361015929116,112.01616095770427L170.0850377029843,25.16030845264874L170.23397381305693,23.331678776804914L170.53184603320227,77.74412522486658L170.68078214327497,57.53260317210229L170.8297182533476,26.063022845885886L170.97865436342028,-24.078380440858105L171.27652658356558,-42.08422778438667L171.42546269363828,35.988477487747744L171.57439880371095,16.99950774775409L171.7233349137836,35.7830945707806L172.02120713392895,2.7549771718552463L172.31907935407426,21.850980891804976L172.46801546414693,-17.645740182621882L172.76588768429227,75.90444556480634L173.0637599044376,81.14016050318715L173.21269601451024,-46.99743405059124L173.5105682346556,12.892501806003407L173.65950434472825,74.65551192440462L173.80844045480092,111.7373017619254L173.95737656487358,93.2572633060543L174.25524878501892,19.596580237408272L174.4041848950916,31.380552519802638L174.55312100516426,-42.83856250026755L174.7020571152369,30.707115105343767L174.99992933538226,-78.75231599880867L175.29780155552757,-3.08732481521755L175.74460988574558,54.107271164410896L175.89354599581824,93.83632733132904L176.0424821058909,-89.57004667243386L176.19141821596358,41.74731335787957L176.48929043610892,69.57700441829834L176.63822654618156,55.13063833733946L176.93609876632692,100.43428921689174L177.23397098647223,3.678772162287556L177.53184320661757,-51.260689215653066L177.68077931669023,24.69580136706414L177.97865153683557,115.93442012108672L178.1275876469082,45.795888940286616L178.2765237569809,74.37856914655255L178.42545986705358,84.30899832005426L178.72333208719888,76.92557012101203L178.87226819727158,65.99159035144217L179.1701404174169,65.48251635534633L179.4680126375622,22.809352954619282L179.6169487476349,68.28040497882284L179.76588485770756,36.74521791974955L179.91482096778023,-32.96574818911936L180.21269318792557,75.3804887486404L180.36162929799823,7.822393918895594L180.51056540807087,17.697450846766714L180.65950151814354,63.2482177017566L180.95737373828888,64.14909722676593L181.10630984836155,33.09909010197735L181.40418206850686,-65.90371239578457L181.70205428865222,34.92971774544701L181.8509903987249,25.84287943339719L181.99992650879753,54.64643699944295L182.44673483901553,46.753975579154364L182.5956709490882,7.445430435202683L182.74460705916087,-29.388325992766546L182.8935431692335,100.28686774849892L183.48928760952418,69.91239794291879L183.63822371959688,28.865641351905218L183.9360959397422,61.62529714167599L184.08503204981486,31.511806760365904L184.23396815988752,22.930209608558254L184.3829042699602,86.62941345580293L184.68077649010553,132.77147679091968L184.82971260017817,69.04615665256571L184.97864871025084,98.75611873572902L185.12758482032353,119.15793701114283L185.5743931505415,1.0162560391745303L186.17013759083218,94.8982675118913L186.46800981097752,91.73393531589473L186.6169459210502,120.79633162661139L186.9148181411955,32.545408420520765L187.0637542512682,33.563556412712444L187.21269036134086,120.03337303005974L187.3616264714135,96.44970976078604L187.8084348016315,99.28398993744763L187.95737091170417,112.14309306421981L188.10630702177684,40.60149931188123L188.40417924192215,45.99878459143383L188.55311535199485,78.39411710085888L188.7020514620675,8.899380018925987L188.85098757214016,41.901401514166814L189.14885979228552,38.75178903884226L189.44673201243083,47.40771874130132L189.5956681225035,69.99262245932395L189.89354034264883,4.705482872875722L190.0424764527215,46.79466887896243L190.19141256279414,38.244142162479164L190.63822089301215,-1.9668727256126342L190.78715700308481,-11.797525842370543L190.93609311315748,12.751257727310906L191.08502922323015,-17.691571113467827L191.3829014433755,51.94069953585242L191.53183755344816,78.8475130399528L191.6807736635208,28.86743544528354L191.82970977359346,93.9044009425811L192.1275819937388,84.34875379832366L192.27651810381147,71.98449424516936L192.42545421388414,55.91779680707356L192.5743903239568,92.04272325121181L192.87226254410214,45.55429795695719L193.0211986541748,48.999813515154585L193.17013476424745,12.281449911290368L193.31907087432015,44.88571274958968L193.61694309446546,26.481209702430455L193.76587920453812,50.43398729686697L193.91481531461082,70.1086269061716L194.06375142468346,-21.42116504818102L194.51055975490144,-16.70991661158496L194.65949586497413,53.986944583515516L194.8084319750468,-73.6858778481565L195.1063041951921,65.40879542743752L195.99992085562812,103.37474710166974L196.1488569657008,129.97352700516893L196.29779307577346,63.879086173330094L196.59566529591876,127.40762688796292L196.74460140599146,77.4849195065501L196.89353751606413,139.1586734793803L197.04247362613677,89.37682281558969L197.34034584628213,81.60566657258468L197.48928195635477,153.11802475782667L197.63821806642744,158.11218948772756L198.08502639664545,178.96483488671635L198.23396250671811,169.4260889175796L198.38289861679078,183.30764178316645L198.8297069470088,203.94240677381418L198.97864305708143,58.156499144410056L199.1275791671541,75.50395499294783L199.27651527722676,150.44166557330598L199.5743874973721,40.156849578006586L199.72332360744477,83.92110717669347L199.8722597175174,175.54007372691805L200.02119582759008,13.106325116818525L200.46800415780808,176.11981053720964L200.61694026788075,134.2667109097689L200.76587637795345,117.1583180038911L201.06374859809875,190.93865486841565L201.21268470817142,71.0278958883086L201.36162081824406,114.0637515754011L201.51055692831676,137.50733284919323L201.80842914846207,65.44932562784757L201.95736525853474,130.37656600512162L202.10630136860743,130.73138874553214L202.2552374786801,163.29516215827095L202.5531096988254,117.57250892518395L202.70204580889808,86.43149233629559L202.85098191897075,194.93420275903873L202.9999180290434,187.46535125027918L203.4467263592614,93.86256594698685L203.5956624693341,169.88293033145686L203.74459857940673,96.266569524225L204.04247079955206,95.17863537710198L204.19140690962476,124.52621098527115L204.3403430196974,52.40125146103484L204.48927912977007,62.807278479187104L204.78715134991538,94.10315794650333L204.93608745998807,98.53732089327404L205.08502357006074,206.26204718742224L205.23395968013338,132.82988676283858L205.82970412042405,105.34747509567158L205.97864023049672,93.8054607702522L206.27651245064206,133.03021359846684L206.42544856071473,98.31193791262368L206.5743846707874,135.38569510479158L206.72332078086004,74.89889700111235L207.17012911107804,153.0139673418846L207.3190652211507,225.22993633022068L207.46800133122338,65.44740920992072L207.7658735513687,156.36512989832264L207.91480966144138,114.41682099728287L208.06374577151405,114.41682099728287L208.2126818815867,106.29275843179411L208.51055410173205,100.7605084003731L208.6594902118047,187.984435471929L208.80842632187736,151.99579896226817L208.95736243195006,59.72347661096696L209.25523465209537,182.0478416453711L209.40417076216804,132.3819546535786L209.5531068722407,184.35433217001307L209.70204298231337,120.22656426702427L209.9999152024587,201.77147223635845L210.14885131253135,167.23278937516923L210.29778742260405,91.50051968989146L210.4467235326767,51.708282893662094L210.8935318628947,146.1775745238293L211.19140408304003,131.95365563435627L211.48927630318536,124.33104216810553L211.638212413258,43.89671877479555L211.7871485233307,145.18735730354996L211.93608463340337,55.05129048019871L212.23395685354868,74.897021358035L212.38289296362137,216.3116612460331L213.1275735139847,86.58872015599486L213.27650962405735,163.106639641575L213.42544573413002,156.35073637644663L213.72331795427536,127.57802498405297L213.87225406434803,85.1418246212363L214.02119017442067,185.67388784976106L214.17012628449334,145.00122011555015L214.46799850463867,225.688266026105L214.61693461471134,181.62033773571417L214.765870724784,117.53670860731675L214.91480683485665,190.8927423878707L215.51055127514732,183.98134423414712L215.65948738522,141.10022910093397L215.95735960536533,140.52707742883777L216.4041679355833,153.5898509288978L216.70204015572867,99.14411181621361L216.8509762658013,-4.535158171514803L216.99991237587398,133.41688149634246L217.14884848594667,182.06898340484048L217.44672070609198,69.07043807544719L217.59565681616465,63.69221503803915L217.89352903630999,169.32447799260797L218.19140125645532,221.80874296975426L218.34033736652796,181.95750496628816L218.63820958667333,170.81730639533626L218.93608180681863,90.58224969156736L219.0850179168913,114.6065871468888L219.233954026964,204.9364568299472L219.38289013703664,192.10037110572173L219.68076235718198,108.52461059441339L219.82969846725462,113.25445236238465L219.9786345773273,218.10347123277205L220.12757068739998,140.41755618306178L220.4254429075453,185.36373395698547L220.57437901761799,76.03875791908264L220.72331512769065,172.65513079974392L220.8722512377633,189.3470290053317L221.17012345790863,62.756473016701285L221.3190595679813,135.7413741170418L221.46799567805397,62.45490222974695L221.61693178812664,160.71560246648008L222.06374011834464,134.47282777402717L222.21267622841728,157.9025863738364L222.36161233848995,169.49271502167414L222.6594845586353,182.1997483472097L222.80842066870795,119.6856451134634L222.95735677878062,137.3698400566554L223.1062928888533,129.79183427576535L223.40416510899863,190.10697026301983L223.5531012190713,141.2822276417088L223.70203732914393,225.68592147225831L224.14884565936194,71.13399204672602L224.2977817694346,65.45226141701207L224.44671787950728,101.91586376115609L224.59565398957994,180.52243413788662L224.89352620972528,148.66280160128554L225.04246231979795,123.49998957287707L225.1913984298706,93.58484844699414L225.34033453994326,170.7947375161341L225.6382067600886,194.49475181847626L225.78714287016126,132.49920273333618L225.93607898023393,135.153217300327L226.5318234205246,163.29232830623022L226.68075953059724,123.7309994827594L226.82969564066994,120.75745280760638L227.12756786081525,143.7602375708023L227.27650397088792,99.61879222675023L227.4254400809606,138.5017498789718L227.57437619103325,147.28840374895054L227.8722484111786,129.5106916884141L228.02118452125123,109.68565404670262L228.17012063132393,158.4544739619147L228.3190567413966,46.89040822560505L228.6169289615419,103.88916260305102L228.7658650716146,161.82149793481096L228.91480118168727,134.7751121208479L229.0637372917599,147.94027126802018L229.36160951190524,109.3468762095731L229.65948173205058,65.1417201631662L229.80841784212325,62.5906009289065L230.10629006226856,116.490772555186L230.25522617234125,90.24255442032391L230.40416228241392,121.93390915300931L230.55309839248656,96.25187019097771L230.85097061263193,113.80281292598056L230.99990672270457,102.39833216794855L231.14884283277723,53.64688233862649L231.2977789428499,95.54373337958832L231.59565116299524,42.46030237636029L231.7445872730679,98.18912406590839L231.89352338314058,99.2496371267379L232.04245949321322,102.21721028643813L232.34033171335858,140.53975840703447L232.6382039335039,130.17210052226838L232.78714004357656,-14.518146126031159L233.0850122637219,141.8297523208898L233.53182059393987,164.58497258530352L233.82969281408523,76.91431626254807L233.97862892415787,146.2194299068483L234.12756503423054,147.32807767752092L234.27650114430324,127.20063336444025L234.72330947452122,112.14975975211419L234.87224558459386,201.81324606967846L235.02118169466655,105.87281825672072L235.31905391481186,134.29904536542801L235.46799002488453,186.3068766135089L235.61692613495723,162.72327450650945L236.0637344651752,90.22051561416536L236.21267057524787,141.62241221114635L236.36160668532054,96.89597010121624L236.80841501553851,132.77618628603776L236.95735112561118,105.24317303063245L237.10628723568388,169.91245132249998L237.25522334575652,154.34979218658592L237.55309556590186,145.76118176066302L237.70203167597455,176.33257370193758L237.99990389611986,171.58805298814374L238.29777611626517,202.578447282953" fill="none"></path></g></g></g></g></g></g><g transform="translate(61, 177)" clip-path="url(#clip_1)"><clipPath id="clip_1"><rect width="268" height="22"></rect></clipPath><g><g><line x1="0" y1="0" x2="0" y2="5" style="visibility: inherit;" fill="rgb(0, 0, 0)" stroke="rgb(204, 204, 204)" stroke-width="1px"></line><line x1="29.787222014533146" y1="0" x2="29.787222014533146" y2="5" style="visibility: inherit;" fill="rgb(0, 0, 0)" stroke="rgb(204, 204, 204)" stroke-width="1px"></line><line x1="59.57444402906629" y1="0" x2="59.57444402906629" y2="5" style="visibility: inherit;" fill="rgb(0, 0, 0)" stroke="rgb(204, 204, 204)" stroke-width="1px"></line><line x1="89.36166604359944" y1="0" x2="89.36166604359944" y2="5" style="visibility: inherit;" fill="rgb(0, 0, 0)" stroke="rgb(204, 204, 204)" stroke-width="1px"></line><line x1="119.14888805813258" y1="0" x2="119.14888805813258" y2="5" style="visibility: inherit;" fill="rgb(0, 0, 0)" stroke="rgb(204, 204, 204)" stroke-width="1px"></line><line x1="148.93611007266574" y1="0" x2="148.93611007266574" y2="5" style="visibility: inherit;" fill="rgb(0, 0, 0)" stroke="rgb(204, 204, 204)" stroke-width="1px"></line><line x1="178.72333208719888" y1="0" x2="178.72333208719888" y2="5" style="visibility: inherit;" fill="rgb(0, 0, 0)" stroke="rgb(204, 204, 204)" stroke-width="1px"></line><line x1="208.51055410173205" y1="0" x2="208.51055410173205" y2="5" style="visibility: inherit;" fill="rgb(0, 0, 0)" stroke="rgb(204, 204, 204)" stroke-width="1px"></line><line x1="238.29777611626517" y1="0" x2="238.29777611626517" y2="5" style="visibility: inherit;" fill="rgb(0, 0, 0)" stroke="rgb(204, 204, 204)" stroke-width="1px"></line><line x1="268.08499813079834" y1="0" x2="268.08499813079834" y2="5" style="visibility: inherit;" fill="rgb(0, 0, 0)" stroke="rgb(204, 204, 204)" stroke-width="1px"></line></g><g transform="translate(0, 8)"><text style="text-anchor: middle; visibility: hidden; font-family: Roboto, sans-serif; font-size: 12px; font-weight: 200;" x="0" y="0" dx="0em" dy="0.95em" fill="rgb(50, 49, 63)" stroke="none" stroke-width="1px">-200</text><text style="text-anchor: middle; visibility: hidden; font-family: Roboto, sans-serif; font-size: 12px; font-weight: 200;" x="29.787222014533146" y="0" dx="0em" dy="0.95em" fill="rgb(50, 49, 63)" stroke="none" stroke-width="1px">0</text><text style="text-anchor: middle; visibility: hidden; font-family: Roboto, sans-serif; font-size: 12px; font-weight: 200;" x="59.57444402906629" y="0" dx="0em" dy="0.95em" fill="rgb(50, 49, 63)" stroke="none" stroke-width="1px">200</text><text style="text-anchor: middle; visibility: hidden; font-family: Roboto, sans-serif; font-size: 12px; font-weight: 200;" x="89.36166604359944" y="0" dx="0em" dy="0.95em" fill="rgb(50, 49, 63)" stroke="none" stroke-width="1px">400</text><text style="text-anchor: middle; visibility: hidden; font-family: Roboto, sans-serif; font-size: 12px; font-weight: 200;" x="119.14888805813258" y="0" dx="0em" dy="0.95em" fill="rgb(50, 49, 63)" stroke="none" stroke-width="1px">600</text><text style="text-anchor: middle; visibility: hidden; font-family: Roboto, sans-serif; font-size: 12px; font-weight: 200;" x="148.93611007266574" y="0" dx="0em" dy="0.95em" fill="rgb(50, 49, 63)" stroke="none" stroke-width="1px">800</text><text style="text-anchor: middle; visibility: hidden; font-family: Roboto, sans-serif; font-size: 12px; font-weight: 200;" x="178.72333208719888" y="0" dx="0em" dy="0.95em" fill="rgb(50, 49, 63)" stroke="none" stroke-width="1px">1k</text><text style="text-anchor: middle; visibility: hidden; font-family: Roboto, sans-serif; font-size: 12px; font-weight: 200;" x="208.51055410173205" y="0" dx="0em" dy="0.95em" fill="rgb(50, 49, 63)" stroke="none" stroke-width="1px">1.2k</text><text style="text-anchor: middle; visibility: hidden; font-family: Roboto, sans-serif; font-size: 12px; font-weight: 200;" x="238.29777611626517" y="0" dx="0em" dy="0.95em" fill="rgb(50, 49, 63)" stroke="none" stroke-width="1px">1.4k</text><text style="text-anchor: middle; visibility: hidden; font-family: Roboto, sans-serif; font-size: 12px; font-weight: 200;" x="268.08499813079834" y="0" dx="0em" dy="0.95em" fill="rgb(50, 49, 63)" stroke="none" stroke-width="1px">1.6k</text></g><line x1="0" y1="0" x2="268.08499813079834" y2="0" fill="rgb(0, 0, 0)" stroke="rgb(204, 204, 204)" stroke-width="1px"></line></g></g></g></g></svg>