<svg viewBox="0 0 330 200" xmlns="http://www.w3.org/2000/svg"><g><g><g><g><g><line x1="61.91500186920166" y1="177.86299896240234" x2="56.91500186920166" y2="177.86299896240234" style="visibility: inherit;" fill="rgb(0, 0, 0)" stroke="rgb(204, 204, 204)" stroke-width="1px"></line><line x1="61.91500186920166" y1="165.15849903651645" x2="56.91500186920166" y2="165.15849903651645" style="visibility: inherit;" fill="rgb(0, 0, 0)" stroke="rgb(204, 204, 204)" stroke-width="1px"></line><line x1="61.91500186920166" y1="152.4539991106306" x2="56.91500186920166" y2="152.4539991106306" style="visibility: inherit;" fill="rgb(0, 0, 0)" stroke="rgb(204, 204, 204)" stroke-width="1px"></line><line x1="61.91500186920166" y1="139.7494991847447" x2="56.91500186920166" y2="139.7494991847447" style="visibility: inherit;" fill="rgb(0, 0, 0)" stroke="rgb(204, 204, 204)" stroke-width="1px"></line><line x1="61.91500186920166" y1="127.0449992588588" x2="56.91500186920166" y2="127.0449992588588" style="visibility: inherit;" fill="rgb(0, 0, 0)" stroke="rgb(204, 204, 204)" stroke-width="1px"></line><line x1="61.91500186920166" y1="114.34049933297297" x2="56.91500186920166" y2="114.34049933297297" style="visibility: inherit;" fill="rgb(0, 0, 0)" stroke="rgb(204, 204, 204)" stroke-width="1px"></line><line x1="61.91500186920166" y1="101.63599940708707" x2="56.91500186920166" y2="101.63599940708707" style="visibility: inherit;" fill="rgb(0, 0, 0)" stroke="rgb(204, 204, 204)" stroke-width="1px"></line><line x1="61.91500186920166" y1="88.93149948120117" x2="56.91500186920166" y2="88.93149948120117" style="visibility: inherit;" fill="rgb(0, 0, 0)" stroke="rgb(204, 204, 204)" stroke-width="1px"></line><line x1="61.91500186920166" y1="76.22699955531527" x2="56.91500186920166" y2="76.22699955531527" style="visibility: inherit;" fill="rgb(0, 0, 0)" stroke="rgb(204, 204, 204)" stroke-width="1px"></line><line x1="61.91500186920166" y1="63.52249962942938" x2="56.91500186920166" y2="63.52249962942938" style="visibility: inherit;" fill="rgb(0, 0, 0)" stroke="rgb(204, 204, 204)" stroke-width="1px"></line><line x1="61.91500186920166" y1="50.81799970354356" x2="56.91500186920166" y2="50.81799970354356" style="visibility: inherit;" fill="rgb(0, 0, 0)" stroke="rgb(204, 204, 204)" stroke-width="1px"></line><line x1="61.91500186920166" y1="38.113499777657665" x2="56.91500186920166" y2="38.113499777657665" style="visibility: inherit;" fill="rgb(0, 0, 0)" stroke="rgb(204, 204, 204)" stroke-width="1px"></line><line x1="61.91500186920166" y1="25.408999851771792" x2="56.91500186920166" y2="25.408999851771792" style="visibility: inherit;" fill="rgb(0, 0, 0)" stroke="rgb(204, 204, 204)" stroke-width="1px"></line><line x1="61.91500186920166" y1="12.704499925885896" x2="56.91500186920166" y2="12.704499925885896" style="visibility: inherit;" fill="rgb(0, 0, 0)" stroke="rgb(204, 204, 204)" stroke-width="1px"></line><line x1="61.91500186920166" y1="0" x2="56.91500186920166" y2="0" style="visibility: inherit;" fill="rgb(0, 0, 0)" stroke="rgb(204, 204, 204)" stroke-width="1px"></line></g><g transform="translate(51.91500186920166, 0)"><text style="text-anchor: end; visibility: hidden; font-family: Roboto, sans-serif; font-size: 12px; font-weight: 200;" x="0" y="177.86299896240234" dx="0em" dy="0.3em" fill="rgb(50, 49, 63)" stroke="none" stroke-width="1px">0.095</text><text style="text-anchor: end; visibility: inherit; font-family: Roboto, sans-serif; font-size: 12px; font-weight: 200;" x="0" y="165.15849903651645" dx="0em" dy="0.3em" fill="rgb(50, 49, 63)" stroke="none" stroke-width="1px">0.1</text><text style="text-anchor: end; visibility: hidden; font-family: Roboto, sans-serif; font-size: 12px; font-weight: 200;" x="0" y="152.4539991106306" dx="0em" dy="0.3em" fill="rgb(50, 49, 63)" stroke="none" stroke-width="1px">0.105</text><text style="text-anchor: end; visibility: inherit; font-family: Roboto, sans-serif; font-size: 12px; font-weight: 200;" x="0" y="139.7494991847447" dx="0em" dy="0.3em" fill="rgb(50, 49, 63)" stroke="none" stroke-width="1px">0.11</text><text style="text-anchor: end; visibility: hidden; font-family: Roboto, sans-serif; font-size: 12px; font-weight: 200;" x="0" y="127.0449992588588" dx="0em" dy="0.3em" fill="rgb(50, 49, 63)" stroke="none" stroke-width="1px">0.115</text><text style="text-anchor: end; visibility: inherit; font-family: Roboto, sans-serif; font-size: 12px; font-weight: 200;" x="0" y="114.34049933297297" dx="0em" dy="0.3em" fill="rgb(50, 49, 63)" stroke="none" stroke-width="1px">0.12</text><text style="text-anchor: end; visibility: hidden; font-family: Roboto, sans-serif; font-size: 12px; font-weight: 200;" x="0" y="101.63599940708707" dx="0em" dy="0.3em" fill="rgb(50, 49, 63)" stroke="none" stroke-width="1px">0.125</text><text style="text-anchor: end; visibility: inherit; font-family: Roboto, sans-serif; font-size: 12px; font-weight: 200;" x="0" y="88.93149948120117" dx="0em" dy="0.3em" fill="rgb(50, 49, 63)" stroke="none" stroke-width="1px">0.13</text><text style="text-anchor: end; visibility: hidden; font-family: Roboto, sans-serif; font-size: 12px; font-weight: 200;" x="0" y="76.22699955531527" dx="0em" dy="0.3em" fill="rgb(50, 49, 63)" stroke="none" stroke-width="1px">0.135</text><text style="text-anchor: end; visibility: inherit; font-family: Roboto, sans-serif; font-size: 12px; font-weight: 200;" x="0" y="63.52249962942938" dx="0em" dy="0.3em" fill="rgb(50, 49, 63)" stroke="none" stroke-width="1px">0.14</text><text style="text-anchor: end; visibility: hidden; font-family: Roboto, sans-serif; font-size: 12px; font-weight: 200;" x="0" y="50.81799970354356" dx="0em" dy="0.3em" fill="rgb(50, 49, 63)" stroke="none" stroke-width="1px">0.145</text><text style="text-anchor: end; visibility: inherit; font-family: Roboto, sans-serif; font-size: 12px; font-weight: 200;" x="0" y="38.113499777657665" dx="0em" dy="0.3em" fill="rgb(50, 49, 63)" stroke="none" stroke-width="1px">0.15</text><text style="text-anchor: end; visibility: hidden; font-family: Roboto, sans-serif; font-size: 12px; font-weight: 200;" x="0" y="25.408999851771792" dx="0em" dy="0.3em" fill="rgb(50, 49, 63)" stroke="none" stroke-width="1px">0.155</text><text style="text-anchor: end; visibility: inherit; font-family: Roboto, sans-serif; font-size: 12px; font-weight: 200;" x="0" y="12.704499925885896" dx="0em" dy="0.3em" fill="rgb(50, 49, 63)" stroke="none" stroke-width="1px">0.16</text><text style="text-anchor: end; visibility: hidden; font-family: Roboto, sans-serif; font-size: 12px; font-weight: 200;" x="0" y="0" dx="0em" dy="0.3em" fill="rgb(50, 49, 63)" stroke="none" stroke-width="1px">0.165</text></g><line x1="61.91500186920166" y1="0" x2="61.91500186920166" y2="177.86299896240234" fill="rgb(0, 0, 0)" stroke="rgb(204, 204, 204)" stroke-width="1px"></line></g></g><g transform="translate(61, 0)" clip-path="url(#clip_0)"><clipPath id="clip_0"><rect width="268" height="177"></rect></clipPath><g><g><g><line x1="0" y1="0" x2="0" y2="177.86299896240234" fill="rgb(0, 0, 0)" stroke="rgb(60, 60, 60)" stroke-width="1px" opacity="0.25"></line><line x1="29.787222014533146" y1="0" x2="29.787222014533146" y2="177.86299896240234" fill="rgb(0, 0, 0)" stroke="rgb(60, 60, 60)" stroke-width="1px" opacity="0.25"></line><line x1="59.57444402906629" y1="0" x2="59.57444402906629" y2="177.86299896240234" fill="rgb(0, 0, 0)" stroke="rgb(60, 60, 60)" stroke-width="1px" opacity="0.25"></line><line x1="89.36166604359944" y1="0" x2="89.36166604359944" y2="177.86299896240234" fill="rgb(0, 0, 0)" stroke="rgb(60, 60, 60)" stroke-width="1px" opacity="0.25"></line><line x1="119.14888805813258" y1="0" x2="119.14888805813258" y2="177.86299896240234" fill="rgb(0, 0, 0)" stroke="rgb(60, 60, 60)" stroke-width="1px" opacity="0.25"></line><line x1="148.93611007266574" y1="0" x2="148.93611007266574" y2="177.86299896240234" fill="rgb(0, 0, 0)" stroke="rgb(60, 60, 60)" stroke-width="1px" opacity="0.25"></line><line x1="178.72333208719888" y1="0" x2="178.72333208719888" y2="177.86299896240234" fill="rgb(0, 0, 0)" stroke="rgb(60, 60, 60)" stroke-width="1px" opacity="0.25"></line><line x1="208.51055410173205" y1="0" x2="208.51055410173205" y2="177.86299896240234" fill="rgb(0, 0, 0)" stroke="rgb(60, 60, 60)" stroke-width="1px" opacity="0.25"></line><line x1="238.29777611626517" y1="0" x2="238.29777611626517" y2="177.86299896240234" fill="rgb(0, 0, 0)" stroke="rgb(60, 60, 60)" stroke-width="1px" opacity="0.25"></line><line x1="268.08499813079834" y1="0" x2="268.08499813079834" y2="177.86299896240234" fill="rgb(0, 0, 0)" stroke="rgb(60, 60, 60)" stroke-width="1px" opacity="0.25"></line></g><g><line x1="0" y1="177.86299896240234" x2="268.08499813079834" y2="177.86299896240234" fill="rgb(0, 0, 0)" stroke="rgb(60, 60, 60)" stroke-width="1px" opacity="0.25"></line><line x1="0" y1="165.15849903651645" x2="268.08499813079834" y2="165.15849903651645" fill="rgb(0, 0, 0)" stroke="rgb(60, 60, 60)" stroke-width="1px" opacity="0.25"></line><line x1="0" y1="152.4539991106306" x2="268.08499813079834" y2="152.4539991106306" fill="rgb(0, 0, 0)" stroke="rgb(60, 60, 60)" stroke-width="1px" opacity="0.25"></line><line x1="0" y1="139.7494991847447" x2="268.08499813079834" y2="139.7494991847447" fill="rgb(0, 0, 0)" stroke="rgb(60, 60, 60)" stroke-width="1px" opacity="0.25"></line><line x1="0" y1="127.0449992588588" x2="268.08499813079834" y2="127.0449992588588" fill="rgb(0, 0, 0)" stroke="rgb(60, 60, 60)" stroke-width="1px" opacity="0.25"></line><line x1="0" y1="114.34049933297297" x2="268.08499813079834" y2="114.34049933297297" fill="rgb(0, 0, 0)" stroke="rgb(60, 60, 60)" stroke-width="1px" opacity="0.25"></line><line x1="0" y1="101.63599940708707" x2="268.08499813079834" y2="101.63599940708707" fill="rgb(0, 0, 0)" stroke="rgb(60, 60, 60)" stroke-width="1px" opacity="0.25"></line><line x1="0" y1="88.93149948120117" x2="268.08499813079834" y2="88.93149948120117" fill="rgb(0, 0, 0)" stroke="rgb(60, 60, 60)" stroke-width="1px" opacity="0.25"></line><line x1="0" y1="76.22699955531527" x2="268.08499813079834" y2="76.22699955531527" fill="rgb(0, 0, 0)" stroke="rgb(60, 60, 60)" stroke-width="1px" opacity="0.25"></line><line x1="0" y1="63.52249962942938" x2="268.08499813079834" y2="63.52249962942938" fill="rgb(0, 0, 0)" stroke="rgb(60, 60, 60)" stroke-width="1px" opacity="0.25"></line><line x1="0" y1="50.81799970354356" x2="268.08499813079834" y2="50.81799970354356" fill="rgb(0, 0, 0)" stroke="rgb(60, 60, 60)" stroke-width="1px" opacity="0.25"></line><line x1="0" y1="38.113499777657665" x2="268.08499813079834" y2="38.113499777657665" fill="rgb(0, 0, 0)" stroke="rgb(60, 60, 60)" stroke-width="1px" opacity="0.25"></line><line x1="0" y1="25.408999851771792" x2="268.08499813079834" y2="25.408999851771792" fill="rgb(0, 0, 0)" stroke="rgb(60, 60, 60)" stroke-width="1px" opacity="0.25"></line><line x1="0" y1="12.704499925885896" x2="268.08499813079834" y2="12.704499925885896" fill="rgb(0, 0, 0)" stroke="rgb(60, 60, 60)" stroke-width="1px" opacity="0.25"></line><line x1="0" y1="0" x2="268.08499813079834" y2="0" fill="rgb(0, 0, 0)" stroke="rgb(60, 60, 60)" stroke-width="1px" opacity="0.25"></line></g></g></g><g><g><line x1="0" y1="419.248497554234" x2="268.08499813079834" y2="419.248497554234" fill="rgb(0, 0, 0)" stroke="rgb(153, 153, 153)" stroke-width="1.5px"></line></g></g><g><g><line x1="29.787222014533146" y1="0" x2="29.787222014533146" y2="177.86299896240234" fill="rgb(0, 0, 0)" stroke="rgb(153, 153, 153)" stroke-width="1.5px"></line></g></g><g><g><g><g><g><path style="fill: none;" stroke="rgb(255, 112, 67)" stroke-width="2px" d="M32.91488032605913,197.38680949810305L33.063816436131795,130.24074954063514L33.21275254620446,89.97332475221795L33.51062476634979,120.72416272493379L33.65956087642246,74.5893685379124L33.80849698649513,46.9114908949656L33.95743309656779,83.17815577392534L34.25530531671312,10.176235019107924L34.55317753685845,0.49278459342219005L34.70211364693112,6.508637165449134L34.999985867076454,28.637292252918208L35.14892197714912,1.4806646678927256L35.297858087221776,22.541957329242077L35.446794197294444,60.52927473202931L35.74466641743978,65.64238339252121L35.89360252751244,-14.220393169526302L38.72338861889309,-37.07120018902996L38.87232472896576,10.282267437345515L39.021260839038426,23.980474443236186L39.17019694911109,5.2768827438077475L39.468069169256424,-51.803890411229126L39.914877499474414,-14.269214207192693L40.21274971961975,17.466853500880053L40.51062193976508,13.273166318027211L40.65955804983775,9.439843654551428L41.10636638005574,-1.4828178537646197L42.74466359085507,-2.4127901020641094L42.89359970092774,21.167825100062093L43.19147192107307,23.962862599522804L43.34040803114573,-7.423481574627388L46.17019412252638,-10.877573696311204L46.31913023259905,1.8654898198656735L46.46806634267171,3.3056870835198726L46.61700245274438,18.559834660600917L47.06381078296237,26.92945075629653L47.21274689303504,35.71492076254619L47.36168300310771,40.945371996995235L47.65955522325304,35.933057880065135L47.808491333325705,39.8054571527992L48.106363553471034,36.45647906235314L48.404235773616364,48.27695537945009L48.55317188368903,53.26636568105832L48.7021079937617,66.3589331986496L49.14891632397969,65.7870695632969L49.29785243405236,79.53598868081048L49.44678854412503,85.71885796334735L49.595724654197696,81.00523423198155L49.893596874343025,82.06582729039388L50.04253298441569,92.03401304326943L50.19146909448836,80.4463349876231L50.340405204561016,79.71449879944565L50.63827742470635,88.57302972058365L50.78721353477902,91.36356181607879L51.08508575492435,92.07782792176624L51.38295797506969,86.26586793285847L51.53189408514235,93.65359477712641L51.68083019521501,97.08393848297524L51.82976630528768,87.89675110128934L52.127638525433014,86.53848481041129L52.276574635505675,69.94553741471063L52.42551074557834,78.18470793791425L52.57444685565101,71.57142145094713L52.87231907579634,85.76220724792968L53.17019129594167,90.09344828069999L53.31912740601434,82.61580724056067L53.61699962615967,72.12110213141173L53.76593573623233,67.28522095383822L53.914871846305,67.95711151842103L54.063807956377666,60.05266850900331L54.361680176522995,67.00765462934056L54.51061628659566,64.31099052625547L54.808488506741,68.94685441247894L55.25529683695899,80.43748799537346L55.40423294703166,82.63083206082213L55.55316905710432,96.18783801317713L55.85104127724966,94.86280482449861L55.999977387322325,88.04306556748962L56.148913497394986,95.38562452088024L56.29784960746765,99.35837797023794L56.595721827612984,85.37349561328489L56.74465793768565,88.87837457373976L56.89359404775831,94.86245134036088L57.04253015783098,91.39606526088163L57.34040237797631,101.12008188722966L57.48933848804897,87.16107977710251L57.78721070819431,100.96323041501405L58.234019038412306,99.85074048608098L58.38295514848497,94.81483885175913L58.531891258557636,87.68297518665683L58.97869958877563,98.97615355043949L59.1276356988483,91.85555207082086L59.27657180892097,104.97520578712881L59.57444402906629,105.10576585346398L59.72338013913896,104.22078500620123L59.87231624921163,103.68979649784359L60.0212523592843,108.3418119096718L60.31912457942963,96.3334120695688L60.468060689502295,85.98891612269679L60.61699679957496,87.07263116692029L60.765932909647624,94.61667215458553L61.21274123986562,80.26218268837614L61.36167734993829,72.4284843535134L61.51061346001095,91.5626514239949L61.80848568015629,104.49279542589909L61.95742179022895,116.66286150818694L62.10635790030161,102.8598157527833L62.25529401037428,99.74314119585426L62.553166230519615,117.60422710265041L62.70210234059228,115.22933150036664L62.851038450664944,108.05234436881825L62.999974560737606,105.4387056079666L63.29784678088294,113.63443752453173L63.4467828909556,121.80002040863353L63.59571900102827,115.54179449227844L63.74465511110094,131.3688778986169L64.04252733124628,128.22944361354757L64.19146344131893,124.2549780743059L64.3403995513916,109.23046470720436L64.48933566146427,106.8599193894869L65.08508010175493,94.62690392423899L65.2340162118276,106.07822947525833L65.53188843197293,110.58142326677815L65.6808245420456,109.55411665810738L65.82976065211825,117.13812169918596L65.97869676219092,102.67185895856072L66.27656898233626,112.80531747285532L66.57444120248158,107.45221681430836L66.72337731255425,115.15869495647915L67.02124953269958,107.88309324573805L67.17018564277224,129.8034335083116L67.46805786291758,125.46895201619108L67.76593008306291,122.8001563072892L67.91486619313558,110.27470954116968L68.06380230320825,108.47588548809081L68.2127384132809,115.65478074169219L68.51061063342624,122.09217098469512L68.65954674349891,125.94631327360074L68.80848285357158,123.46472717103354L68.95741896364424,124.86331055210032L69.25529118378958,134.06640741085778L69.40422729386223,133.49266784391008L69.5531634039349,119.20473153250151L69.70209951400757,114.93984308104025L69.99997173415291,130.0773985704818L70.14890784422556,127.47192726755225L70.4467800643709,115.474853290115L70.74465228451623,119.39276312834814L70.89358839458889,112.50778135626311L71.04252450466156,124.92052343295887L71.19146061473423,127.77722876584235L71.48933283487956,110.99381546391452L71.63826894495223,120.6617036384458L71.78720505502488,123.92087260363796L71.93614116509755,116.98747310015058L72.38294949531556,115.7613119696193L72.53188560538821,125.15295611553536L72.6808217154609,122.72512269656015L72.9786939356062,101.66567783301915L73.12763004567888,89.25524652358882L73.27656615575154,87.27823596688032L73.42550226582422,72.41861373407083L73.72337448596954,63.11194938709628L73.87231059604221,58.67390811938106L74.02124670611487,46.6638510327714L74.17018281618755,38.87020809456777L74.46805503633287,26.02858028388135L74.76592725647821,31.408123489767284L74.91486336655086,54.26639277035511L75.2127355866962,74.19591555683617L75.36167169676887,87.49159417052734L75.51060780684153,109.4343966148811L75.65954391691419,121.2185184180913L75.95741613705952,130.0365968899079L76.10635224713221,138.94993286301727L76.25528835720486,136.02728047243767L76.40422446727752,139.00815758648454L76.70209668742285,127.66849351629492L76.85103279749553,125.19177219868708L76.99996890756819,124.2909627656641L77.14890501764086,132.09423572547888L77.44677723778618,135.5792945689371L77.74464945793152,111.92231953646936L77.89358556800418,113.73086553617351L78.19145778814952,124.21990541528064L78.34039389822217,137.43532604485102L78.48933000829486,135.33240085462737L78.63826611836751,136.53597003140715L78.93613833851285,146.15943127424185L79.23401055865818,146.531866821467L79.68081888887617,151.49596826291855L79.82975499894883,149.3170304428569L79.97869110902151,140.44382161255075L80.12762721909417,136.41055602326512L80.4254994392395,142.76803076370106L80.72337165938484,134.39868068639214L80.8723077694575,140.22475801306703L81.17017998960283,147.86085795987327L81.3191160996755,136.80879347183276L81.61698831982083,125.49454117820255L81.91486053996617,104.03805085885267L82.06379665003882,106.30975200246729L82.21273276011148,125.42059503699025L82.36166887018416,133.82746624278673L82.6595410903295,119.10007646950112L82.80847720040215,113.77421793110275L82.95741331047482,122.1958517836741L83.10634942054749,117.38971580351166L83.40422164069282,120.63611693533804L83.55315775076548,121.60689669059691L83.70209386083815,116.14609264342471L83.85102997091082,131.58820076303792L84.14890219105614,132.74286342963717L84.29783830112882,134.61064365543885L84.59571052127414,143.94655798736565L84.89358274141946,154.96658896283947L85.04251885149215,161.0105888470826L85.1914549615648,157.5119513824105L85.34039107163748,137.6632351765694L85.63826329178279,134.72605965126291L85.78719940185547,137.3969672288562L85.93613551192813,127.89459509924089L86.08507162200081,137.26538990251893L86.38294384214613,136.80951919361655L86.5318799522188,140.56060664163542L86.68081606229146,139.28323680926746L86.82975217236412,138.82842970723036L87.12762439250946,139.6015613003443L87.27656050258213,137.79413784419742L87.4254966126548,141.19411686424158L87.87230494287279,137.55466694058995L88.02124105294546,139.38820855456518L88.17017716301812,140.2738508245689L88.31911327309078,146.1471684429222L88.61698549323611,145.84079062116206L88.76592160330878,139.39958038052754L89.0637938234541,140.3240263226401L89.36166604359944,135.85335911554998L89.51060215367211,133.17095879129596L89.65953826374478,133.4573475545664L89.80847437381745,139.48738906839415L90.25528270403544,138.86248216161903L90.4042188141081,144.5914502740685L90.55315492418077,141.96989179653642L90.85102714432611,147.81526837531055L90.99996325439876,145.25076507227865L91.14889936447145,140.8614059867423L91.2978354745441,129.4896651438315L91.59570769468944,130.71322788194803L91.74464380476209,127.466350373057L91.89357991483477,137.10572661525185L92.04251602490743,146.67128722210066L92.34038824505276,143.6406105148129L92.48932435512542,144.18148388274764L92.6382604651981,139.7850183553652L92.78719657527076,143.481080278953L93.23400490548876,146.4110447340287L93.38294101556141,149.68695571964824L93.5318771256341,159.6757181887164L93.82974934577942,151.10043299513111L93.97868545585209,152.3719020862696L94.12762156592474,148.7560318671686L94.27655767599742,152.0553944859993L94.57442989614276,157.3771983218657L94.72336600621541,151.26593877910364L94.87230211628807,160.1792172852137L95.02123822636075,147.31180732618915L95.31911044650607,146.68326918076798L95.46804655657874,137.62967596936812L95.61698266665141,148.0249559061971L95.76591877672408,141.73350672175565L96.0637909968694,137.4539622387589L96.36166321701474,132.5769874794965L96.5105993270874,144.58711754908143L96.95740765730541,144.3226944481613L97.10634376737806,132.99120640960973L97.25527987745072,129.42523665181832L97.55315209759605,141.77526202350674L97.70208820766874,144.19870595859285L97.85102431774139,144.9432922682128L97.99996042781406,139.23103449082484L98.29783264795938,132.1621083048034L98.44676875803206,141.08257228018817L98.59570486810472,155.8386190677347L99.19144930839539,147.7907621307235L99.34038541846806,139.78993942622128L99.48932152854071,138.0816950555623L99.78719374868605,135.9967765128401L99.9361298587587,129.40502900166345L100.08506596883139,131.5101844427918L100.23400207890404,127.71948558514231L100.53187429904938,120.28273033384264L100.82974651919471,91.93961439393931L100.97868262926737,74.29423442031978L101.2765548494127,63.80490335482746L101.42549095948537,54.34504212166025L101.57442706955804,44.137530932092034L101.7233631796307,32.30642442542491L102.31910761992137,23.036475320263186L102.46804372999404,14.02404838720846L102.76591595013937,38.3878872566696L102.91485206021203,58.29007983642403L103.0637881702847,62.70747802375567L103.21272428035736,65.53998945415647L103.5105965005027,68.04189059589825L103.65953261057535,79.43987362840825L103.80846872064804,91.73833249971912L103.95740483072069,103.64434520186192L104.25527705086603,100.7306497929154L104.40421316093868,110.3518178101109L104.55314927101135,120.81281780672595L104.70208538108402,123.6070802274013L104.99995760122935,134.01001816724386L105.14889371130202,139.14326946497366L105.29782982137468,137.57276070015425L105.44676593144735,144.04641964022005L105.74463815159268,147.89850015028995L105.89357426166535,137.67976826482382L106.042510371738,144.71675513189717L106.19144648181069,145.0565408314325L106.489318701956,137.8552766872296L106.63825481202868,148.1401129814811L106.78719092210133,153.72192943974412L106.93612703217401,158.2194755709483L107.23399925231934,164.79270089383132L107.68080758253734,167.66262480405118L107.97867980268266,156.31297032273275L108.12761591275533,150.7877566477825L108.276552022828,150.74941883874519L108.42548813290065,137.74847123267514L108.72336035304599,141.9544811648264L108.87229646311866,153.6261028553717L109.02123257319133,161.47028664493524L109.17016868326398,156.63695119359562L109.46804090340932,167.32366101658877L109.76591312355465,167.1772748813503L109.91484923362731,165.88968344581315L110.21272145377264,168.27375142144135L110.36165756384533,149.09799640572658L110.65952978399065,146.9392305042906L110.95740200413597,142.16081555915375L111.10633811420864,146.77714093722997L111.25527422428131,153.2711536436324L111.40421033435398,149.54971496362836L111.70208255449931,155.6547038470545L111.85101866457197,153.91027060998735L111.99995477464465,151.97958513553255L112.44676310486264,156.47398637480535L112.5956992149353,152.25733118664982L112.74463532500798,159.0624544444549L112.89357143508063,154.0722984018622L113.19144365522597,150.15119789272885L113.4893158753713,141.65529391089973L113.63825198544396,144.1405145626341L113.9361242055893,147.91628448897234L114.08506031566196,153.5332619949104L114.23399642573463,161.87136878773782L114.3829325358073,163.95301546514298L114.68080475595262,164.18664855658562L114.82974086602529,161.66271915671817L115.12761308617063,162.62103867807352L115.42548530631596,157.37976605771345L115.57442141638862,156.26579561269088L115.72335752646127,143.13132210086616L115.87229363653395,136.23419609862833L116.17016585667929,137.24811689391896L116.31910196675194,159.3328255080735L116.46803807682461,154.14236405516885L116.61697418689728,164.79895322503884L116.91484640704262,168.0768571952613L117.06378251711527,152.69225672070326L117.21271862718794,147.1308967903457L117.36165473726061,145.85984363525762L117.65952695740593,136.04148172783957L117.95739917755127,138.43942879525403L118.10633528762393,143.50856129665547L118.40420750776926,146.59022033420064L118.7020797279146,144.47964584581612L118.85101583798728,157.11891933455132L119.14888805813258,161.30385195655398L119.29782416820527,149.336078373258L119.44676027827792,149.04516733939212L119.5956963883506,143.64629652615048L119.89356860849593,147.82623226250527L120.0425047185686,149.3216103140885L120.19144082864125,144.49242019275397L120.34037693871392,148.98318536109116L120.63824915885925,149.88018948868927L120.78718526893192,144.6113509030333L120.93612137900459,148.880596531768L121.08505748907724,151.99373791817067L121.38292970922258,145.28087604506575L121.68080192936792,150.45345499949966L121.82973803944057,155.16301767963495L122.12761025958591,155.81169986285158L122.27654636965858,153.03384389687224L122.42548247973124,145.6766598898278L122.5744185898039,139.36798201488415L122.87229080994923,140.02407558284597L123.17016303009457,142.94291640610268L123.31909914016724,125.28479372689885L123.61697136031258,137.8096162785727L124.06377969053057,142.74346300077477L124.3616519106759,153.87075786615873L124.51058802074856,161.2098926842642L124.65952413082124,153.99441477869686L124.8084602408939,161.54598835015386L125.10633246103923,159.07184305510282L125.25526857111188,161.05717615906502L125.40420468118457,155.359402869952L125.55314079125722,165.92245284989377L125.99994912147521,161.97595709552814L126.1488852315479,154.89415035613354L126.29782134162055,163.42256789794612L126.59569356176588,164.79434947117426L126.74462967183855,152.661835004431L126.8935657819112,154.02248664504617L127.04250189198389,159.68546419900167L127.34037411212921,155.00889794991593L127.78718244234722,142.89268711056647L128.08505466249255,143.49136486603615L128.2339907725652,135.56269017095607L128.38292688263786,134.69721348771188L128.53186299271053,120.62754910487072L128.82973521285587,114.2640684369535L128.97867132292853,108.96924954406023L129.1276074330012,103.43683476215436L129.27654354307387,104.73113409196336L129.5744157632192,107.94704925668269L129.72335187329185,100.22697450310868L129.87228798336454,96.29945730567438L130.02122409343718,98.37155581698386L130.31909631358252,90.87369840572029L130.4680324236552,97.55343691122368L130.61696853372786,103.82987148154665L130.76590464380052,102.93105915024269L131.06377686394586,113.58317363092965L131.21271297401853,130.19517444138557L131.51058519416387,131.3472829301406L131.80845741430917,139.72345613972558L131.95739352438184,137.34327482681934L132.1063296344545,152.156164891355L132.25526574452718,142.39312744185142L132.55313796467252,153.69486740166926L132.70207407474518,153.27873104110904L132.85101018481785,152.95303675032176L132.99994629489052,148.1482791556307L133.29781851503586,149.75297755103352L133.4467546251085,145.35898442434333L133.74462684525383,158.7538905045636L134.04249906539917,149.4594068974992L134.19143517547184,144.10483248346975L134.34037128554448,145.114975316604L134.48930739561717,147.59573248739608L134.78717961576248,148.17447543245873L134.93611572583515,153.7838774627868L135.23398794598052,162.03735250583347L135.53186016612582,160.5575236482443L135.6807962761985,157.2729767918102L135.82973238627116,151.51636098600702L135.97866849634383,162.30678693892278L136.27654071648914,153.94735729924133L136.4254768265618,149.36952470449532L136.5744129366345,140.47372795040306L137.02122126685248,145.74895589078355L137.17015737692518,156.5255175025579L137.31909348699782,163.10005129131036L137.7659018172158,162.15009979744963L137.9148379272885,162.4146456110762L138.65951847765183,163.86858386385302L138.80845458772447,152.33999397529337L138.95739069779714,146.17410499436843L139.40419902801514,147.23853493284795L139.5531351380878,138.90452532750135L139.70207124816045,152.48136234890006L139.99994346830582,141.79672570274283L140.14887957837846,128.37637137366886L140.29781568845112,141.07548857665165L140.4467517985238,151.65578789803308L140.74462401866913,159.10452028891171L140.8935601287418,146.53907493051716L141.04249623881446,151.49994479463427L141.1914323488871,157.2868155480926L141.48930456903247,155.47194402854882L141.6382406791051,151.87601036726605L141.78717678917778,144.95107923103882L141.93611289925047,134.15303313779035L142.23398511939578,135.58341022033312L142.38292122946845,143.43005889679904L142.53185733954112,150.5695991682438L142.6807934496138,145.69948436884863L142.97866566975912,139.57179875808902L143.12760177983176,155.51961219127205L143.27653788990446,153.1690172131961L143.42547399997713,153.227356325647L143.8722823301951,145.8454717525698L144.02121844026777,157.34686850689897L144.17015455034044,132.52454627919994L144.46802677048578,147.70166663251007L144.61696288055842,150.44951580233703L144.76589899063111,141.56848331519151L144.91483510070378,140.33910040833024L145.2127073208491,146.5158267420199L145.3616434309218,161.36221081513304L145.51057954099443,162.50607653445323L145.6595156510671,159.6066487104189L145.9573878712124,158.43984195420816L146.1063239812851,156.90096274382972L146.25526009135777,156.86827909039005L146.40419620143044,149.9622022350848L146.70206842157577,168.2468552929246L146.85100453164844,149.48406300915008L146.99994064172108,149.2696416751428L147.14887675179375,158.65486859315217L147.59568508201176,155.40117027884668L147.74462119208442,148.47318591995366L147.89355730215706,149.33470282291188L148.19142952230243,164.21566103196722L148.3403656323751,149.06991610905538L148.48930174244774,143.96920909593996L148.6382378525204,144.6457241206737L148.93611007266574,149.6486613161772L149.0850461827384,147.43345231091908L149.23398229281108,150.75374145007848L149.38291840288372,158.845753200125L149.68079062302908,158.97771410533832L149.82972673310172,163.03299883833802L149.9786628431744,161.8956960986389L150.1275989532471,151.67235557635016L150.57440728346506,161.717180119715L150.72334339353773,154.91704929306897L151.17015172375574,160.09239447191172L151.31908783382838,162.15572029462115L151.46802394390104,156.26480885981053L151.61696005397374,156.43642670511062L151.91483227411905,163.1700432522225L152.21270449426441,163.27432996215455L152.36164060433705,154.5870846996776L152.6595128244824,159.5282639747797L152.80844893455503,152.64960599000244L152.95738504462773,148.1873520282816L153.1063211547004,150.40776855943028L153.4041933748457,166.44510796917498L153.5531294849184,161.14146496198103L153.70206559499107,158.75024658084058L153.8510017050637,163.74805795075372L154.14887392520905,155.2479383903092L154.44674614535438,150.40337700599792L154.59568225542705,141.62327940297092L154.89355447557236,157.11710666762144L155.04249058564506,148.34002495962744L155.1914266957177,149.82472563824217L155.63823502593573,144.87218740723807L155.78717113600837,149.72022628298402L155.93610724608104,144.55696856858802L156.0850433561537,146.26187705591252L156.38291557629904,154.6627876825112L156.5318516863717,152.4148221366086L156.82972390651702,162.1502412017059L157.12759612666235,150.03329944635252L157.27653223673502,164.6268906277939L157.4254683468077,150.81818420466234L157.57440445688036,155.52476289528497L157.8722766770257,140.86983925115086L158.02121278709836,141.3800228858961L158.170148897171,149.452324098074L158.31908500724367,144.16283609654843L158.616957227389,143.84838758265647L158.76589333746168,132.51144939565623L158.91482944753434,150.328559282974L159.063765557607,144.31172556338277L159.36163777775235,151.80635269599804L159.51057388782502,159.86983903645663L159.65950999789766,152.34764217542158L159.80844610797035,149.266566277642L160.10631832811566,141.02445229616157L160.25525443818833,152.82803059767411L160.55312665833367,149.11492957447678L160.850998878479,155.79762711322783L161.14887109862434,149.236513856223L161.297807208697,152.0248826060716L161.59567942884232,155.16353310409647L161.744615538915,164.75799129445394L161.89355164898768,161.7666133062202L162.04248775906032,161.02799491499724L162.34035997920566,156.3925821931032L162.48929608927833,147.54267973332318L162.638232199351,146.24065082994235L162.78716830942366,148.99609597970365L163.08504052956897,153.39143092406175L163.23397663964167,155.96729486706096L163.38291274971434,149.30092921400558L163.53184885978698,149.51504664175965L163.82972107993234,150.9305950280298L163.97865719000498,148.4595237973156L164.12759330007765,158.68643691093962L164.27652941015032,145.69121120720834L164.57440163029565,158.7097488804167L164.72333774036832,159.28198954430425L164.872273850441,149.91666752564703L165.02120996051363,156.04560433913466L165.319082180659,158.85725870490484L165.46801829073164,145.92464747029877L165.6169544008043,143.04631135875627L165.76589051087697,152.1329285131321L166.0637627310223,150.25223937183662L166.21269884109498,145.8367369291367L166.36163495116762,153.17422363400718L166.51057106124028,162.12236461472455L166.80844328138565,159.4404998170799L166.9573793914583,154.11106328204283L167.10631550153096,154.72139309888104L167.25525161160365,145.26827561038036L167.55312383174896,155.5597214194377L167.70205994182163,155.38198152124835L167.85099605189427,168.19238468274574L167.99993216196697,156.98097735760223L168.29780438211228,163.10376234425433L168.44674049218494,158.21838176372603L168.59567660225764,153.86421019224665L168.7446127123303,157.17940808123947L169.04248493247562,153.82996430834692L169.34035715262095,149.7191793694774L169.48929326269362,161.09861007332495L169.78716548283893,144.1820402764773L169.9361015929116,135.02089665388516L170.0850377029843,140.6749557573557L170.53184603320227,142.31348553280088L170.68078214327497,150.22999667061143L170.8297182533476,153.1010821677021L170.97865436342028,154.83382757120089L171.27652658356558,143.51495053397792L171.57439880371095,145.95542944614652L171.7233349137836,154.16328333660874L172.02120713392895,155.1440780597045L172.17014324400162,144.3417773974536L172.31907935407426,153.17452527330158L172.46801546414693,140.58573841693533L172.76588768429227,139.21214871497554L172.91482379436493,157.874812731322L173.0637599044376,156.87046286641268L173.21269601451024,151.28330350957782L173.5105682346556,157.15299153372868L173.65950434472825,167.9938711948081L173.80844045480092,170.47653792545003L174.25524878501892,177.8082622890637L174.4041848950916,164.06354028520266L174.55312100516426,160.09199607103312L174.7020571152369,160.44142191539086L174.99992933538226,163.5082014168545L175.1488654454549,153.9904848823519L175.29780155552757,152.6974231271695L175.44673766560027,159.114487963802L175.74460988574558,160.7672181939063L176.0424821058909,164.51505441931798L176.19141821596358,163.317978472335L176.48929043610892,168.02242557492357L176.63822654618156,168.10291996736663L176.78716265625425,165.67800179604103L176.93609876632692,165.83387472047318L177.23397098647223,156.2446223400862L177.53184320661757,153.76922435275605L177.68077931669023,158.08027371225987L177.97865153683557,157.6690979473439L178.1275876469082,148.61338118593298L178.2765237569809,164.58442178888356L178.42545986705358,169.18387490267793L178.72333208719888,152.9223981022278L178.87226819727158,139.7903324966622L179.1701404174169,159.70956230897613L179.4680126375622,162.3576821936729L179.6169487476349,170.24112608231346L179.76588485770756,172.87810813321022L179.91482096778023,171.4466276541825L180.21269318792557,165.54463200250376L180.36162929799823,161.5199246985481L180.51056540807087,158.8509681541326L180.65950151814354,158.69735244155788L180.95737373828888,152.94731965120914L181.25524595843422,148.4902596363118L181.40418206850686,153.08824716185282L181.70205428865222,151.45179515926552L181.8509903987249,165.7164906352699L181.99992650879753,176.3667262593088L182.1488626188702,178.14838987532727L182.44673483901553,167.05087893942127L182.5956709490882,151.033160401112L182.74460705916087,157.82687392502473L182.8935431692335,165.5509208484034L183.19141538937888,158.36844578657863L183.34035149945151,157.3974516476907L183.48928760952418,164.10317777441844L183.63822371959688,162.63638947392323L183.9360959397422,159.05221701399L184.08503204981486,158.3871145106718L184.23396815988752,155.60409492995822L184.3829042699602,156.82826239785277L184.68077649010553,160.55860698894654L184.82971260017817,166.47875411169707L184.97864871025084,164.67558257818607L185.12758482032353,147.61363576516038L185.42545704046884,150.81720422740872L185.5743931505415,148.59596877974457L185.7233292606142,136.78037426904615L185.87226537068685,144.76652966901668L186.17013759083218,157.57832650068238L186.31907370090482,148.3096173930627L186.6169459210502,160.66560290416095L186.9148181411955,152.9248148080159L187.0637542512682,155.6482512416487L187.21269036134086,144.44224017981898L187.65949869155884,149.42428957166732L187.8084348016315,142.32132979780363L187.95737091170417,143.9433798623006L188.10630702177684,158.64569104183238L188.40417924192215,134.99596925980245L188.7020514620675,151.3010036417977L188.85098757214016,142.03170730730488L189.14885979228552,151.09972145131306L189.29779590235816,149.9159042130669L189.44673201243083,156.63854797894368L189.5956681225035,150.1591577025497L189.89354034264883,153.3706100702115L190.0424764527215,149.17883320368222L190.19141256279414,154.33109949246548L190.3403486728668,148.62799468208468L190.93609311315748,161.93120849648793L191.08502922323015,156.54879890559184L191.3829014433755,151.21784827984564L191.53183755344816,153.3580145775432L191.6807736635208,160.84813382581623L191.82970977359346,168.08023710167802L192.1275819937388,163.30675591075556L192.27651810381147,162.7267443685679L192.42545421388414,163.16382862811938L192.5743903239568,150.92163336809924L193.0211986541748,150.13813585354458L193.17013476424745,147.47262624769485L193.31907087432015,168.37943437800726L193.61694309446546,157.26535975437375L193.76587920453812,162.30583474459388L193.91481531461082,162.71142259888464L194.06375142468346,161.86592955520064L194.3616236448288,170.36627097335753L194.51055975490144,167.86055616388697L194.65949586497413,162.393127471143L194.8084319750468,153.44323615539832L195.1063041951921,151.1957496365344L195.2552403052648,154.93256647622013L195.40417641533747,161.84305530977844L195.5531125254101,157.56932005178405L195.99992085562812,155.35945544404484L196.1488569657008,143.15809619627302L196.59566529591876,142.07156058295982L196.74460140599146,134.30767190651446L196.89353751606413,128.3886432636563L197.04247362613677,137.35175842646473L197.34034584628213,142.1704307530485L197.48928195635477,141.7012739515076L197.63821806642744,141.7385657989993L197.7871541765001,147.4488821292861L198.23396250671811,160.0039671667831L198.38289861679078,146.30230720793054L198.53183472686342,145.27317569368992L198.8297069470088,153.7877043104836L198.97864305708143,165.41797828812045L199.27651527722676,162.91281788101585L199.5743874973721,158.76919305998783L199.8722597175174,163.11780270886217L200.02119582759008,151.2913681424935L200.46800415780808,155.1400315483247L200.61694026788075,158.52572464616617L200.76587637795345,139.6512262599884L201.06374859809875,149.12047490141367L201.21268470817142,152.70355577635274L201.36162081824406,156.6375771587425L201.51055692831676,156.64931962921278L201.80842914846207,157.3616878757705L201.95736525853474,152.16770691382834L202.2552374786801,159.05123717369042L202.5531096988254,154.97512037490299L202.70204580889808,151.33501398908857L202.85098191897075,150.52325626015516L202.9999180290434,153.79139051304176L203.29779024918872,149.65656736796288L203.4467263592614,150.63237066784347L203.5956624693341,155.11837242162727L203.74459857940673,157.05478598116412L204.04247079955206,151.48750827792702L204.19140690962476,162.912704908842L204.3403430196974,158.36316505001255L204.78715134991538,150.1930667416968L204.93608745998807,154.59016245763405L205.08502357006074,141.35646546033783L205.23395968013338,135.47214313400366L205.53183190027875,140.47845940244457L205.68076801035141,159.64158647718716L205.82970412042405,164.26031106679287L205.97864023049672,172.40282140610617L206.27651245064206,161.61783880176074L206.42544856071473,159.7712216163941L206.5743846707874,149.99375522778618L206.72332078086004,138.471555041408L207.0211930010054,126.39875381483446L207.17012911107804,145.61603166106423L207.3190652211507,147.51397917289697L207.46800133122338,151.3129041043189L207.7658735513687,151.4142192169408L207.91480966144138,147.84510594435628L208.06374577151405,154.98873060113303L208.51055410173205,147.18350006748696L208.6594902118047,154.76675933164523L208.80842632187736,151.48991379251072L208.95736243195006,143.3599808136455L209.25523465209537,125.48402419968686L209.40417076216804,143.2076900825829L209.5531068722407,147.99045114646887L209.9999152024587,143.8972197336172L210.14885131253135,110.26676135067139L210.29778742260405,104.15330815507667L210.4467235326767,110.07179654288215L210.74459575282202,123.90714716564759L210.8935318628947,115.69449222913042L211.04246797296736,122.62134679950252L211.48927630318536,144.19949142501628L211.638212413258,146.14673403061065L211.7871485233307,150.40967631234545L211.93608463340337,153.52204953442458L212.23395685354868,146.1673459524513L212.38289296362137,147.2616495374178L212.531829073694,145.15412794022706L212.68076518376668,160.37349330276578L212.978637403912,154.47227129390865L213.42544573413002,152.43077396767376L213.72331795427536,136.25055374194167L213.87225406434803,146.04097677570428L214.02119017442067,162.30590413578116L214.17012628449334,165.35480976996536L214.46799850463867,160.51890868574156L214.61693461471134,151.6662909821044L214.765870724784,142.86629451509918L214.91480683485665,149.11752077014017L215.212679055002,154.73944465693268L215.36161516507468,159.30600543935117L215.65948738522,168.01813858645622L215.95735960536533,162.47053284796036L216.106295715438,153.9875239840303L216.25523182551066,149.44333042191354L216.4041679355833,149.05900260753108L216.70204015572867,149.26201324103192L216.8509762658013,146.72014199730626L216.99991237587398,164.0439547604067L217.14884848594667,166.01638889437314L217.44672070609198,169.4083229861585L217.74459292623732,162.94460273163L217.89352903630999,151.627037731205L218.19140125645532,151.58854644280854L218.34033736652796,144.4125627223479L218.48927347660063,153.39631260641326L218.63820958667333,154.34166531970018L218.93608180681863,156.4878963922843L219.0850179168913,149.49796895227013L219.233954026964,161.39228215173804L219.82969846725462,149.07984644190455L219.9786345773273,151.262452477039L220.12757068739998,147.29813764809384L220.4254429075453,147.02474141582434L220.72331512769065,141.2973069024989L220.8722512377633,137.88572933766415L221.17012345790863,140.1861011410625L221.3190595679813,136.69075023050274L221.46799567805397,138.0761347255103L221.91480400827194,132.37206457818104L222.06374011834464,116.777585479669L222.36161233848995,105.41561655170916L222.6594845586353,87.888112464884L222.80842066870795,67.48483905315219L222.95735677878062,73.78134673381706L223.1062928888533,80.8660590173602L223.40416510899863,97.8347471830593L223.5531012190713,105.02649956606102L223.70203732914393,110.99680251661472L223.8509734392166,118.97162387447315L224.14884565936194,127.94101930991205L224.2977817694346,121.09282645436525L224.44671787950728,131.0369195188099L224.59565398957994,133.90211486369336L224.89352620972528,146.24086687538622L225.04246231979795,148.23101973371266L225.1913984298706,142.340147575586L225.34033453994326,135.2036567899497L225.6382067600886,140.35971285972315L225.78714287016126,147.7836797890753L225.93607898023393,135.1946365210176L226.0850150903066,140.09164950526406L226.38288731045193,144.87980464547593L226.5318234205246,139.79204561599457L226.82969564066994,137.92749591821277L227.12756786081525,143.17721509469885L227.27650397088792,148.60664844197393L227.57437619103325,143.73824325724158L227.8722484111786,145.61446720551837L228.02118452125123,139.76445546575798L228.17012063132393,145.0701992244888L228.3190567413966,132.03927143918028L228.6169289615419,127.17038194378331L228.7658650716146,135.80700320813034L228.91480118168727,118.41773124080296L229.0637372917599,109.64814306896226L229.36160951190524,103.00359618951151L229.5105456219779,94.84645023913264L229.65948173205058,90.85932967570864L229.80841784212325,87.43533831055092L230.10629006226856,80.59768550563506L230.25522617234125,69.96606298521024L230.40416228241392,61.318316266605265L230.55309839248656,63.7211471916051L230.99990672270457,59.20491560629576L231.14884283277723,50.294700234997286L231.2977789428499,51.10998862149039L231.59565116299524,60.060884242630216L231.89352338314058,66.34213253903748L232.04245949321322,70.0526643517513L232.34033171335858,64.05904988273404L232.48926782343122,57.55765686400481L233.0850122637219,56.0249753823188L233.23394837379456,49.35221114220957L233.3828844838672,51.15710815476906L233.53182059393987,61.24736556284593L233.97862892415787,51.47025247316513L234.12756503423054,67.33685824707511L234.27650114430324,54.65687800757755L234.57437336444855,60.063773303193024L234.72330947452122,48.48113136364224L234.87224558459386,62.41107795216767L235.02118169466655,54.97611022427976L235.31905391481186,51.20257374530945L235.46799002488453,51.15074956771863L235.61692613495723,57.98079937786598L235.7658622450299,62.262991784242296L236.0637344651752,55.954189545666495L236.21267057524787,44.984177010122494L236.36160668532054,54.8481854493927L236.5105427953932,43.61009493461572L236.80841501553851,47.360657466360976L236.95735112561118,56.732602050787L237.10628723568388,61.42147719975144L237.25522334575652,71.0052132457131L237.55309556590186,70.0587240697664L237.70203167597455,68.30145266898668L237.8509677860472,74.74532136384181L237.99990389611986,74.03512822687864L238.29777611626517,65.69356788923858" fill="none"></path></g></g></g></g><g opacity="0.2"><g><g><g><path style="fill: none;" stroke="rgb(255, 112, 67)" stroke-width="2px" d="M30.680838674969145,211.19009514934865L30.82977478504181,173.31330933352066L30.978710895114475,168.91684564760848L31.276583115259807,205.5908957275263L32.91488032605913,194.65086963027233L33.063816436131795,29.600587277346833L33.21275254620446,29.600587277346833L33.51062476634979,166.8374069599574L33.65956087642246,5.398890876626633L33.80849698649513,5.398890876626633L33.95743309656779,137.57483817554277L34.25530531671312,-99.32264251428761L34.55317753685845,-14.032072407045195L34.70211364693112,15.532297250974555L34.999985867076454,61.83001274910607L35.14892197714912,-39.25408369195948L35.297858087221776,54.13380650447355L35.446794197294444,117.51015363707657L35.74466641743978,73.31203853343278L35.89360252751244,-134.01448444769318L37.68083584838443,-236.22604625247885L37.97870806852976,19.380324648570305L38.12764417860243,19.380324648570305L38.42551639874777,-59.66973337882392L38.72338861889309,-18.256678839752798L38.87232472896576,81.31246884272684L39.021260839038426,44.52778494613938L39.17019694911109,-22.77850480047446L39.76594138940175,-44.024173148883484L39.914877499474414,35.798958550229415L40.21274971961975,65.07095506234796L40.51062193976508,6.982635543798707L40.65955804983775,3.689859659365558L41.10636638005574,-17.866810116190894L42.44679137070973,-30.166057084295428L42.5957274807824,8.729339809515064L42.74466359085507,15.646565854228898L42.89359970092774,56.538747903250375L43.19147192107307,28.15541884871379L43.34040803114573,-54.502997835852106L45.425513572163055,-14.977949890974838L45.57444968223572,7.841997534542084L45.72338579230838,-27.859974308148505L45.872321902381046,-27.859974308148505L46.17019412252638,12.31134626394814L46.31913023259905,20.98008509413091L46.46806634267171,5.465982979001271L46.61700245274438,41.44105602622248L47.06381078296237,39.48387489983986L47.21274689303504,48.89312577192063L47.36168300310771,48.79104884866892L47.65955522325304,28.414586704670022L47.808491333325705,45.61405606190037L48.106363553471034,31.433011926684046L48.404235773616364,66.00766985509551L48.55317188368903,60.75048113347074L48.7021079937617,85.99778447503638L49.14891632397969,64.92927411026787L49.29785243405236,100.15936735708082L49.44678854412503,94.99316188715258L49.595724654197696,73.93479863493285L49.893596874343025,83.65671687801239L50.04253298441569,106.98629167258275L50.19146909448836,63.06481790415359L50.340405204561016,78.61674451717955L50.63827742470635,101.86082610229059L50.78721353477902,95.5493599593216L51.08508575492435,93.14922708029735L51.38295797506969,77.54792794949682L51.53189408514235,104.73518504352838L51.68083019521501,102.22945404174854L51.82976630528768,74.11597002876053L52.127638525433014,84.50108537409416L52.276574635505675,45.05611632115956L52.42551074557834,90.54346372271968L52.57444685565101,61.651491720496345L52.87231907579634,107.04838594340353L53.17019129594167,96.5903098298555L53.31912740601434,71.39934568035162L53.61699962615967,56.37904446768816L53.76593573623233,60.03139918747795L53.914871846305,68.96494736529519L54.063807956377666,48.19600399487667L54.361680176522995,77.44013380984639L54.51061628659566,60.26599437162767L54.808488506741,75.90065024181423L55.25529683695899,97.6734383697152L55.40423294703166,85.92084815899503L55.55316905710432,116.52334694170959L55.85104127724966,92.87525504148081L55.999977387322325,77.81345668197616L56.148913497394986,106.39946295096615L56.29784960746765,105.31750814427441L56.595721827612984,64.39617207785537L56.74465793768565,94.13569301442203L56.89359404775831,103.83856649029254L57.04253015783098,86.19648614166286L57.34040237797631,115.70610682675165L57.48933848804897,66.2225766119118L57.78721070819431,121.66645637188131L58.234019038412306,98.18200559268143L58.38295514848497,87.26098640027632L58.531891258557636,76.98517968900343L58.97869958877563,115.91592109611342L59.1276356988483,81.17464985139293L59.27657180892097,124.6546863615907L59.57444402906629,105.30160595296665L59.72338013913896,102.89331373530713L59.87231624921163,102.89331373530713L60.0212523592843,115.31983502741409L60.31912457942963,78.3208123094142L60.468060689502295,70.47217220238873L60.61699679957496,88.69820373325548L60.765932909647624,105.93273363608341L61.21274123986562,58.7304484890622L61.36167734993829,60.677936851219144L61.51061346001095,120.26390202971706L61.80848568015629,123.88801142875545L61.95742179022895,134.9179606316187L62.10635790030161,82.15524711967784L62.25529401037428,95.0681293604606L62.553166230519615,144.39585596284465L62.70210234059228,111.66698809694098L62.851038450664944,97.28686367149562L62.999974560737606,101.51824746668913L63.29784678088294,125.92803539937945L63.4467828909556,134.0483947347862L63.59571900102827,106.15445561774591L63.74465511110094,155.1095030081245L64.04252733124628,123.52029218594362L64.19146344131893,118.29327976544332L64.3403995513916,86.69369465655214L64.48933566146427,103.30410141291077L65.08508010175493,76.2773807263671L65.2340162118276,123.25521780178738L65.53188843197293,117.3362139540579L65.6808245420456,108.0131567451012L65.82976065211825,128.51412926080383L65.97869676219092,80.97246484762283L66.27656898233626,128.00550524429718L66.57444120248158,99.42256582648797L66.72337731255425,126.71841216973534L67.02124953269958,96.96969067962632L67.17018564277224,162.6839439021719L67.46805786291758,118.96722977801028L67.76593008306291,118.7969627439365L67.91486619313558,91.48653939199035L68.06380230320825,105.77764940847251L68.2127384132809,126.42312362209437L68.51061063342624,131.74825634919952L68.65954674349891,131.72752670695905L68.80848285357158,119.7423480171828L68.95741896364424,126.96118562370047L69.25529118378958,147.87105269899394L69.40422729386223,132.63205849348853L69.5531634039349,97.7728270653887L69.70209951400757,108.5425104038483L69.99997173415291,152.7837318046442L70.14890784422556,123.56372031315792L70.4467800643709,97.47924232395926L70.74465228451623,125.26962788569782L70.89358839458889,102.18030869813552L71.04252450466156,143.53963654800256L71.19146061473423,132.06228676516753L71.48933283487956,85.8186955110228L71.63826894495223,135.16353590024283L71.78720505502488,128.80962605142622L71.93614116509755,106.58737384491951L72.38294949531556,113.9220702738223L72.53188560538821,139.2404223344094L72.6808217154609,119.08337256809732L72.9786939356062,70.07651053770758L73.12763004567888,70.63959955944328L73.27656615575154,84.31272013181771L73.42550226582422,50.12918038485663L73.72337448596954,49.15195286663456L73.87231059604221,52.01684621780819L74.02124670611487,28.648765402856903L74.17018281618755,27.179743687262246L74.46805503633287,6.766138567851632L74.76592725647821,39.477438298596255L74.91486336655086,88.55379669123693L75.2127355866962,104.09019973655768L75.36167169676887,107.43511209106414L75.51060780684153,142.34860028141162L75.65954391691419,138.89470112290664L75.95741613705952,143.26371459763283L76.10635224713221,152.3199368226813L76.25528835720486,131.6433018865683L76.40422446727752,143.47947325755487L76.70209668742285,110.65899741101043L76.85103279749553,121.47669022227538L76.99996890756819,122.93974861612965L77.14890501764086,143.79914516520108L77.44677723778618,140.80688283412434L77.74464945793152,76.43685698776778L77.89358556800418,116.44368453572974L78.19145778814952,139.95346523394124L78.34039389822217,157.25845698920668L78.48933000829486,132.17801306929172L78.63826611836751,138.34132379657677L78.93613833851285,160.59462313849386L79.23401055865818,147.09052014230474L79.68081888887617,158.94212042509585L79.82975499894883,146.04862371276445L79.97869110902151,127.13400836709158L80.12762721909417,130.3606576393366L80.4254994392395,152.304242874355L80.72337165938484,121.84465557042886L80.8723077694575,148.96387400307933L81.17017998960283,159.31500788008267L81.3191160996755,120.23069673977201L81.61698831982083,108.52316273775719L81.91486053996617,71.8533153798279L82.06379665003882,109.71730371788917L82.21273276011148,154.08685958877467L82.36166887018416,146.43777305148146L82.6595410903295,97.00899180957265L82.80847720040215,105.78543012350524L82.95741331047482,134.82830256253115L83.10634942054749,110.18051183326804L83.40422164069282,125.50571863307763L83.55315775076548,123.06306632348529L83.70209386083815,107.95488657266633L83.85102997091082,154.75136294245763L84.14890219105614,134.47485742953606L84.29783830112882,137.4123139941414L84.59571052127414,157.95042948525574L84.89358274141946,171.49663542605018L85.04251885149215,170.07658867344736L85.1914549615648,152.26399518540225L85.34039107163748,107.89016086780771L85.63826329178279,130.32029636330313L85.78719940185547,141.4033285952461L85.93613551192813,113.64103690481792L86.08507162200081,151.3215821074361L86.38294384214613,136.1257131302629L86.5318799522188,146.18723781366376L86.68081606229146,137.3671820607156L86.82975217236412,138.14621905417465L87.12762439250946,140.76125869001518L87.27656050258213,135.0830026599771L87.4254966126548,146.29408539430779L87.87230494287279,132.09549205511254L88.02124105294546,142.13852097552805L88.17017716301812,141.6023142295745L88.31911327309078,154.95714487045208L88.61698549323611,145.3812238885219L88.76592160330878,129.73776501957565L89.0637938234541,141.71069523580894L89.36166604359944,129.14735830491483L89.51060215367211,129.14735830491483L89.65953826374478,133.88693069947203L89.80847437381745,148.53245133913583L90.25528270403544,137.9251218014564L90.4042188141081,153.18490244274267L90.55315492418077,138.0375540802383L90.85102714432611,156.58333324347177L90.99996325439876,141.4040101177307L91.14889936447145,134.2773673584378L91.2978354745441,112.43205387946537L91.59570769468944,132.5485719891228L91.74464380476209,122.59603410972049L91.89357991483477,151.56479097854418L92.04251602490743,161.01962813237384L92.34038824505276,139.09459545388123L92.48932435512542,144.9927939346497L92.6382604651981,133.1903200642915L92.78719657527076,149.02517316433472L93.23400490548876,150.80599141664226L93.38294101556141,154.6008221980775L93.5318771256341,174.65886189231864L93.82974934577942,138.23750520475323L93.97868545585209,154.27910572297742L94.12762156592474,143.3322265385171L94.27655767599742,157.00443841424536L94.57442989614276,165.35990407566527L94.72336600621541,142.0990494649606L94.87230211628807,173.54913504437872L95.02123822636075,128.01069238765234L95.31911044650607,145.7404619626362L95.46804655657874,124.04928615226831L95.61698266665141,163.6178758114406L95.76591877672408,132.29633294509352L96.0637909968694,131.03464551426381L96.36166321701474,125.2615253406029L96.5105993270874,162.60231265345874L96.95740765730541,143.92605979678112L97.10634376737806,115.99397435178234L97.25527987745072,124.07628201513123L97.55315209759605,160.3003000810394L97.70208820766874,147.833871861222L97.85102431774139,146.0601717326427L97.99996042781406,130.66264782474303L98.29783264795938,121.55871902577124L98.44676875803206,154.4632682432654L98.59570486810472,177.97268924905444L99.19144930839539,135.7189767252067L99.34038541846806,127.78870536946806L99.48932152854071,135.51932849957382L99.78719374868605,132.86939869875684L99.9361298587587,119.51740773489851L100.08506596883139,134.66791760448433L100.23400207890404,122.0334372986681L100.53187429904938,109.12759745689308L100.82974651919471,49.42494048408443L100.97868262926737,47.82616445989049L101.2765548494127,48.07090675658896L101.42549095948537,40.15525027190936L101.57442706955804,28.826264147739696L101.7233631796307,14.559764665424309L102.31910761992137,9.131551662520605L102.46804372999404,0.5054079876264684L102.76591595013937,74.93364556086142L102.91485206021203,88.14336870605571L103.0637881702847,69.33357530475315L103.21272428035736,69.78875659975765L103.5105965005027,71.79474230851099L103.65953261057535,96.53684817717321L103.80846872064804,110.18602080668538L103.95740483072069,121.50336425507612L104.25527705086603,96.36010667949554L104.40421316093868,124.7835698359041L104.55314927101135,136.50431780164848L104.70208538108402,127.79847385841427L104.99995760122935,149.61442507700772L105.14889371130202,146.84314641156843L105.29782982137468,135.21699755292508L105.44676593144735,153.75690805031883L105.74463815159268,153.67662091539475L105.89357426166535,122.35167043662459L106.042510371738,155.27223543250724L106.19144648181069,145.5662193807355L106.489318701956,127.05338047092523L106.63825481202868,163.56736742285835L106.78719092210133,162.09465412713865L106.93612703217401,164.96579476775463L107.23399925231934,174.6525388781558L107.68080758253734,171.967510669381L107.97867980268266,139.2884886007551L108.12761591275533,142.49993613535713L108.276552022828,150.6919121251892L108.42548813290065,118.24704982357007L108.72336035304599,148.2634960630533L108.87229646311866,171.13353539118967L109.02123257319133,173.23656232928062L109.17016868326398,149.38694801658625L109.46804090340932,183.35372575107846L109.76591312355465,166.9576956784925L109.91484923362731,163.95829629250744L110.21272145377264,171.84985338488372L110.36165756384533,120.33436388215452L110.65952978399065,143.70108165213657L110.95740200413597,134.9931931414485L111.10633811420864,153.7016290043442L111.25527422428131,163.0121727032361L111.40421033435398,143.96755694362233L111.70208255449931,164.81218717219372L111.85101866457197,151.2936207543866L111.99995477464465,149.08355692385035L112.44676310486264,163.21558823371453L112.5956992149353,145.9323484044165L112.74463532500798,169.27013933116254L112.89357143508063,146.58706433797312L113.19144365522597,144.26954712902872L113.4893158753713,128.91143793815613L113.63825198544396,147.8683455402356L113.9361242055893,153.5799393784796L114.08506031566196,161.95872825381758L114.23399642573463,174.378528976979L114.3829325358073,167.07548548125072L114.68080475595262,164.5370981937496L114.82974086602529,157.87682505691697L115.12761308617063,164.05851796010657L115.42548530631596,149.51785712717333L115.57442141638862,154.59483994515696L115.72335752646127,123.42961183312914L115.87229363653395,125.88850709527159L116.17016585667929,138.76899808685485L116.31910196675194,192.4598884293054L116.46803807682461,146.35667187581188L116.61697418689728,180.7838369798439L116.91484640704262,172.99371315059494L117.06378251711527,129.61535600886617L117.21271862718794,138.7888568948094L117.36165473726061,143.95326390262545L117.65952695740593,121.3139388667125L117.95739917755127,142.0363493963757L118.10633528762393,151.11226004875763L118.40420750776926,151.21270889051831L118.7020797279146,141.3137841132393L118.85101583798728,176.07782956765413L119.14888805813258,167.581250889558L119.29782416820527,131.38441799831404L119.44676027827792,148.60880078859321L119.5956963883506,135.54799030628803L119.89356860849593,154.09613586703753L120.0425047185686,151.5646773914634L120.19144082864125,137.24863501075225L120.34037693871392,155.71933311359697L120.63824915885925,151.22569568008632L120.78718526893192,136.70809302454933L120.93612137900459,155.28446497487013L121.08505748907724,156.66344999777468L121.38292970922258,135.2115832354084L121.68080192936792,158.21232343115045L121.82973803944057,162.22736169983793L122.12761025958591,156.78472313767648L122.27654636965858,148.86705994790327L122.42548247973124,134.64088387926114L122.5744185898039,129.90496520246867L122.87229080994923,141.00821593478867L123.17016303009457,147.32117764098777L123.31909914016724,98.79760970809302L123.61697136031258,156.59685010608337L124.06377969053057,150.1442330840779L124.3616519106759,170.56170016423468L124.51058802074856,172.21859491142246L124.65952413082124,143.17119792034586L124.8084602408939,172.87334870733932L125.10633246103923,155.3606251125262L125.25526857111188,164.0351758150084L125.40420468118457,146.8127429362824L125.55314079125722,181.7670278198064L125.99994912147521,156.0562134639798L126.1488852315479,144.27144024704154L126.29782134162055,176.21519421066498L126.59569356176588,166.85202183101643L126.74462967183855,134.46306330431614L126.8935657819112,156.06346410596893L127.04250189198389,168.1799305299349L127.34037411212921,147.9940485762874L127.78718244234722,124.71837085154229L128.08505466249255,144.38938149924076L128.2339907725652,123.6696781283359L128.38292688263786,133.3989984628456L128.53186299271053,99.52305253060891L128.82973521285587,104.71884743507766L128.97867132292853,101.0270212047204L129.1276074330012,95.13821258929552L129.27654354307387,106.67258308667692L129.5744157632192,112.77092200376168L129.72335187329185,88.64686237274756L129.87228798336454,90.40818150952296L130.02122409343718,101.47970358394795L130.31909631358252,79.62691228882484L130.4680324236552,107.5730446694788L130.61696853372786,113.24452333703098L130.76590464380052,101.58284065328685L131.06377686394586,129.56134535196017L131.21271297401853,155.1131756570694L131.51058519416387,133.07544566327311L131.80845741430917,152.287715954103L131.95739352438184,133.77300285746003L132.1063296344545,174.37549998815848L132.25526574452718,127.74857126759612L132.55313796467252,170.64747734139593L132.70207407474518,152.65452650026864L132.85101018481785,152.46449531414092L132.99994629489052,140.94114276359414L133.29781851503586,152.1600251441377L133.4467546251085,138.76799473430805L133.74462684525383,178.84624962489403L134.04249906539917,135.51768148690263L134.19143517547184,136.0729708624255L134.34037128554448,146.63018956630535L134.48930739561717,151.31686824358414L134.78717961576248,149.04258985005274L134.93611572583515,162.19798050827882L135.23398794598052,174.41756507040355L135.53186016612582,158.33778036186058L135.6807962761985,152.346156507159L135.82973238627116,142.88143727730235L135.97866849634383,178.49242586829638L136.27654071648914,141.4082128397192L136.4254768265618,142.50277581237637L136.5744129366345,127.13003281926464L137.02122126685248,153.6617978013543L137.17015737692518,172.69035992021932L137.31909348699782,172.96185197443907L137.7659018172158,160.7251725566585L137.9148379272885,162.81146433151602L138.65951847765183,166.04949124301817L138.80845458772447,135.04710914245385L138.95739069779714,136.92527152298103L139.40419902801514,148.83517984056726L139.5531351380878,126.40351091948146L139.70207124816045,172.84661788099817L139.99994346830582,125.76977073350699L140.14887957837846,108.24583988005793L140.29781568845112,160.12416438112584L140.4467517985238,167.5262368801052L140.74462401866913,170.27761887522962L140.8935601287418,127.69090689292534L141.04249623881446,158.94124959080995L141.1914323488871,165.96712167828L141.48930456903247,152.74963674923316L141.6382406791051,146.4821098753419L141.78717678917778,134.56368252669796L141.93611289925047,117.95596399791756L142.23398511939578,137.72897584414724L142.38292122946845,155.200031911498L142.53185733954112,161.27890957541086L142.6807934496138,138.3943121697558L142.97866566975912,130.3802703419495L143.12760177983176,179.44133234104658L143.27653788990446,149.64312474608218L143.42547399997713,153.31486499432336L143.8722823301951,134.772644892954L144.02121844026777,174.59896363839275L144.17015455034044,95.29106293765128L144.46802677048578,170.4673471624753L144.61696288055842,154.57128955707736L144.76589899063111,128.2469345844732L144.91483510070378,138.49502604803828L145.2127073208491,155.78091624255427L145.3616434309218,183.63178692480273L145.51057954099443,164.22187511343355L145.6595156510671,155.25750697436746L145.9573878712124,156.6896318198921L146.1063239812851,154.59264392826208L146.25526009135777,156.81925361023045L146.40419620143044,139.60308695212694L146.70206842157577,195.67383487968436L146.85100453164844,121.33987458348824L146.99994064172108,148.9480096741318L147.14887675179375,172.73270897016627L147.59568508201176,150.52062280738846L147.74462119208442,138.08120938161412L147.89355730215706,150.62697817734917L148.19142952230243,186.53709834555025L148.3403656323751,126.35129872468765L148.48930174244774,136.31814857626694L148.6382378525204,145.66049665777433L148.93611007266574,157.1530671094325L149.0850461827384,144.11063880303192L149.23398229281108,155.73417515881755L149.38291840288372,170.9837708251948L149.68079062302908,159.17565546315836L149.82972673310172,169.11592593783755L149.9786628431744,160.18974198909024L150.1275989532471,136.337344792917L150.57440728346506,176.78441693476225L150.72334339353773,144.71685305309984L151.17015172375574,167.8554122401758L151.31908783382838,165.25070902868532L151.46802394390104,147.42844170759463L151.61696005397374,156.6938534730607L151.91483227411905,173.27046807289034L152.21270449426441,163.43076002705263L152.36164060433705,141.55621680596215L152.6595128244824,166.94003288743284L152.80844893455503,142.33161901283657L152.95738504462773,141.49397108570034L153.1063211547004,153.73839335615335L153.4041933748457,190.501117083792L153.5531294849184,153.1860004511901L153.70206559499107,155.16341900912988L153.8510017050637,171.24477500562347L154.14887392520905,142.4977590496424L154.44674614535438,143.136534929531L154.59568225542705,128.45313299843048L154.89355447557236,180.3578475645972L155.04249058564506,135.17440239763647L155.1914266957177,152.05177665616415L155.63823502593573,137.44338006073195L155.78717113600837,156.99228459660299L155.93610724608104,136.812081996994L156.0850433561537,148.81923978689923L156.38291557629904,167.2641536224092L156.5318516863717,149.04287381775467L156.82972390651702,176.75336979935187L157.12759612666235,131.85788681332244L157.27653223673502,186.51727739995596L157.4254683468077,130.10512456996503L157.57440445688036,162.58463093121892L157.8722766770257,118.88745378494968L158.02121278709836,142.145298338014L158.170148897171,161.5607759163409L158.31908500724367,136.22860409426013L158.616957227389,143.37671481181854L158.76589333746168,115.50604211515592L158.91482944753434,177.05422411395057L159.063765557607,135.2864749839959L159.36163777775235,163.0482933949209L159.51057388782502,171.96506854714445L159.65950999789766,141.06434688386904L159.80844610797035,144.64495243097264L160.10631832811566,128.66128132394098L160.25525443818833,170.5333980499429L160.55312665833367,143.5452780396808L160.850998878479,165.8216734213544L161.14887109862434,139.39484397071584L161.297807208697,156.20743573084457L161.59567942884232,159.87150885113374L161.744615538915,179.14967857999017L161.89355164898768,157.2795463238696L162.04248775906032,159.92006732816282L162.34035997920566,149.43946311026212L162.48929608927833,134.26782604365314L162.638232199351,144.2876074748711L162.78716830942366,153.12926370434565L163.08504052956897,159.98443334059897L163.23397663964167,159.83109078155985L163.38291274971434,139.30138073442248L163.53184885978698,149.83622278339072L163.82972107993234,153.05391760743507L163.97865719000498,144.75291695124423L164.12759330007765,174.0268065813756L164.27652941015032,126.19837265161136L164.57440163029565,178.23755539022926L164.72333774036832,160.14035054013553L164.872273850441,135.86868449766118L165.02120996051363,165.23900955936602L165.319082180659,163.0747402535601L165.46801829073164,126.52573061838966L165.6169544008043,138.7288071914425L165.76589051087697,165.7628542446958L166.0637627310223,147.43120565989335L166.21269884109498,139.21348326508684L166.36163495116762,164.18045369131283L166.51057106124028,175.5445760858006L166.80844328138565,155.417702620613L166.9573793914583,146.11690847948717L167.10631550153096,155.63688782413828L167.25525161160365,131.08859937762946L167.55312383174896,170.9968901330237L167.70205994182163,155.1153716739643L167.85099605189427,187.40798942499174L167.99993216196697,140.16386636988702L168.29780438211228,172.28793982423235L168.44674049218494,150.89031089293363L168.59567660225764,147.33295283502758L168.7446127123303,162.15220491472866L169.04248493247562,148.80579864900815L169.34035715262095,143.55300196117315L169.48929326269362,178.1677561290963L169.78716548283893,118.80718558120574L169.9361015929116,121.27918121999696L170.0850377029843,149.15604441256156L170.53184603320227,144.77128019596867L170.68078214327497,162.10476337732717L170.8297182533476,157.40771041333807L170.97865436342028,157.43294567644907L171.27652658356558,126.53663497814355L171.57439880371095,149.6161478143994L171.7233349137836,166.475064172302L172.02120713392895,156.6152701443482L172.17014324400162,128.13832640407722L172.31907935407426,166.4236470870736L172.46801546414693,121.70255813238596L172.76588768429227,137.15176416203582L172.91482379436493,185.86880875584166L173.0637599044376,155.36393806904866L173.21269601451024,142.90256447432552L173.5105682346556,165.95752356995496L173.65950434472825,184.25519068642717L173.80844045480092,174.20053802141288L174.25524878501892,188.80584883448418L174.4041848950916,143.44645727941116L174.55312100516426,154.13467974977874L174.7020571152369,160.96556068192746L174.99992933538226,168.10837066904998L175.1488654454549,139.71391008059794L175.29780155552757,150.75783049439588L175.44673766560027,168.74008521875072L175.74460988574558,163.24631353906275L176.0424821058909,170.13680875743543L176.19141821596358,161.5223645518606L176.48929043610892,175.07909622880635L176.63822654618156,168.22366155603123L176.78716265625425,162.04062453905254L176.93609876632692,166.06768410712147L177.23397098647223,141.86074376950575L177.53184320661757,150.05612737176085L177.68077931669023,164.54684775151568L177.97865153683557,157.0523342999699L178.1275876469082,135.02980604381662L178.2765237569809,188.54098269330933L178.42545986705358,176.08305457336957L178.72333208719888,128.5301829015526L178.87226819727158,120.09223408831376L179.1701404174169,189.5884070274471L179.4680126375622,166.32986202071808L179.6169487476349,182.06629191527432L179.76588485770756,176.8335812095554L179.91482096778023,169.2994069356409L180.21269318792557,156.69163852498568L180.36162929799823,155.48286374261457L180.51056540807087,154.84753333750933L180.65950151814354,158.46692887269575L180.95737373828888,144.32227046568602L181.25524595843422,141.80466961396573L181.40418206850686,159.98522845016436L181.70205428865222,148.99711715538461L181.8509903987249,187.1135338492764L182.1488626188702,180.82088529935496L182.44673483901553,150.40461253556234L182.5956709490882,127.00658259364809L182.74460705916087,168.01744421089379L182.8935431692335,177.13699123347143L183.19141538937888,147.59473319384148L183.34035149945151,155.9409604393588L183.48928760952418,174.16176696451015L183.63822371959688,160.43620702318034L183.9360959397422,153.67595832409026L184.08503204981486,157.38946075569442L184.23396815988752,151.42956555888782L184.3829042699602,158.66451359969466L184.68077649010553,166.15412387558723L184.82971260017817,175.35897479582292L184.97864871025084,161.97082527791954L185.12758482032353,122.0207155456219L185.42545704046884,155.62255692078116L185.5743931505415,145.26411560824832L185.7233292606142,119.05698250299847L185.87226537068685,156.74576276897247L186.17013759083218,176.7960217481809L186.31907370090482,134.4065537316332L186.6169459210502,179.19958117080836L186.9148181411955,141.31363266379827L187.0637542512682,159.7334058920979L187.21269036134086,127.63322358707447L187.65949869155884,156.89736365943978L187.8084348016315,131.66689013700815L187.95737091170417,146.37645495904596L188.10630702177684,180.69915781113008L188.40417924192215,99.52138658675763L188.7020514620675,175.75855521479062L188.85098757214016,128.12776280556565L189.14885979228552,164.7017426673253L189.29779590235816,148.14017835569763L189.44673201243083,166.72251362775884L189.5956681225035,140.44007228795869L189.89354034264883,158.18778862170421L190.0424764527215,142.8911679038883L190.19141256279414,162.0594989256404L190.3403486728668,140.07333746651358L190.93609311315748,181.8860292180928L191.08502922323015,148.47518451924776L191.3829014433755,143.2214223412262L191.53183755344816,156.56826402408964L191.6807736635208,172.0833126982257L191.82970977359346,178.92839201547068L192.1275819937388,156.14653412437184L192.27651810381147,161.85672705528637L192.42545421388414,163.8194550174466L192.5743903239568,132.55834047806897L193.0211986541748,148.96288958171266L193.17013476424745,143.47436183892023L193.31907087432015,199.7396465734759L193.61694309446546,140.59424781892344L193.76587920453812,169.86654722992404L193.91481531461082,163.31980438032073L194.06375142468346,160.59768998967462L194.3616236448288,183.11678310059284L194.51055975490144,164.1019839496811L194.65949586497413,154.19198443202706L194.8084319750468,140.01839918178126L195.1063041951921,147.8245198582386L195.2552403052648,160.53779173574873L195.40417641533747,172.208788560116L195.5531125254101,151.15871716479245L195.99992085562812,152.04465853243593L196.1488569657008,124.8560573246153L196.59566529591876,140.44175716299011L196.74460140599146,122.6618388918464L196.89353751606413,119.51010029936899L197.04247362613677,150.79643117067744L197.34034584628213,149.3984392429241L197.48928195635477,140.9975387491963L197.63821806642744,141.79450357023686L197.7871541765001,156.01435662471619L198.23396250671811,178.8365947230286L198.38289861679078,125.74981726965174L198.53183472686342,143.729478422329L198.8297069470088,166.5594972356742L198.97864305708143,182.86338925457576L199.27651527722676,159.15507727035893L199.5743874973721,152.55375582844576L199.8722597175174,169.64071718217374L200.02119582759008,133.5517162929405L200.46800415780808,160.9130266570715L200.61694026788075,163.60426429292835L200.76587637795345,111.33947868072164L201.06374859809875,163.32434786355154L201.21268470817142,158.0781770887614L201.36162081824406,162.53860923232705L201.51055692831676,156.66693333491827L201.80842914846207,158.43024024560714L201.95736525853474,144.3767354709151L202.2552374786801,169.37653256348352L202.5531096988254,148.86094517672183L202.70204580889808,145.87485441036694L202.85098191897075,149.30561966675515L202.9999180290434,158.6935918923717L203.29779024918872,143.4543326503445L203.4467263592614,152.09607561766435L203.5956624693341,161.847375052303L203.74459857940673,159.95940632046936L204.04247079955206,143.13659172307138L204.19140690962476,180.0504998552145L204.3403430196974,151.53885526176842L204.78715134991538,137.9379192792231L204.93608745998807,161.18580603153993L205.08502357006074,121.50591996439343L205.23395968013338,126.64565964450235L205.53183190027875,147.98793380510597L205.68076801035141,188.38627708930102L205.82970412042405,171.18839795120144L205.97864023049672,184.61658691507608L206.27651245064206,145.44036489524265L206.42544856071473,157.00129583834405L206.5743846707874,135.32755564487428L206.72332078086004,121.18825476184084L207.0211930010054,108.28955197497416L207.17012911107804,174.4419484304088L207.3190652211507,150.36090044064613L207.46800133122338,157.0112915014518L207.7658735513687,151.56619188587365L207.91480966144138,142.49143603547955L208.06374577151405,165.70416758629813L208.51055410173205,135.47565426701786L208.6594902118047,166.14164822788265L208.80842632187736,146.57464548380898L208.95736243195006,131.16508134534772L209.25523465209537,98.6700892787489L209.40417076216804,169.79318890692693L209.5531068722407,155.16459274229783L209.9999152024587,137.75737261433966L210.14885131253135,59.8210737762527L210.29778742260405,94.9831283616846L210.4467235326767,118.94952912459034L210.74459575282202,144.66017309979574L210.8935318628947,103.37550982435468L211.04246797296736,133.01162865506063L211.48927630318536,176.56670836328698L211.638212413258,149.06759793900218L211.7871485233307,156.8040897349477L211.93608463340337,158.19060936754332L212.23395685354868,135.13529057949142L212.38289296362137,148.90310491486753L212.531829073694,141.99284554444088L212.68076518376668,183.20254134657398L212.978637403912,145.6204382806229L213.42544573413002,149.36852797832142L213.72331795427536,111.9802234033436L213.87225406434803,160.72661132634826L214.02119017442067,186.70329517589647L214.17012628449334,169.9281682212416L214.46799850463867,153.26505705940582L214.61693461471134,138.38736442664873L214.765870724784,129.66629981459138L214.91480683485665,158.49436015270163L215.212679055002,163.17233048712143L215.36161516507468,166.1558466129789L215.65948738522,181.08633830711378L215.95735960536533,154.14912424021662L216.106295715438,141.26301068813524L216.25523182551066,142.62704007873845L216.4041679355833,148.48251088595742L216.70204015572867,149.56652919128314L216.8509762658013,142.90733513171784L216.99991237587398,190.02967390505734L217.14884848594667,168.97504009532287L217.44672070609198,174.49622412383656L217.74459292623732,153.24902234983716L217.89352903630999,134.6506902305676L218.19140125645532,151.53080951021389L218.34033736652796,133.64858714165695L218.48927347660063,166.8719374325114L218.63820958667333,155.75969438963048L218.93608180681863,159.70724300116063L219.0850179168913,139.01307779224882L219.233954026964,179.2337519509399L219.82969846725462,130.61119287715434L219.9786345773273,154.53636152974067L220.12757068739998,141.351665404676L220.4254429075453,146.61464706742004L220.72331512769065,132.70615513251064L220.8722512377633,132.7683629904122L221.17012345790863,143.63665884616003L221.3190595679813,131.44772386466303L221.46799567805397,140.1542114680216L221.91480400827194,123.8159593571872L222.06374011834464,93.38586683190093L222.36161233848995,88.37266315976949L222.6594845586353,61.5968563346461L222.80842066870795,36.879928935554496L222.95735677878062,83.2261082548144L223.1062928888533,91.49312744267499L223.40416510899863,123.28777943160803L223.5531012190713,115.81412814056361L223.70203732914393,119.95225694244523L223.8509734392166,130.93385591126085L224.14884565936194,141.39511246307043L224.2977817694346,110.82053717104509L224.44671787950728,145.95305911547686L224.59565398957994,138.19990788101845L224.89352620972528,164.7489948929255L225.04246231979795,151.2162490212023L225.1913984298706,133.50383933839606L225.34033453994326,124.49892061149521L225.6382067600886,148.09379696438333L225.78714287016126,158.91963018310344L225.93607898023393,116.3110716189311L226.0850150903066,147.43716898163376L226.38288731045193,152.0620373557937L226.5318234205246,132.16040707177245L226.82969564066994,135.13067137154013L227.12756786081525,151.05179385942787L227.27650397088792,156.7507984628866L227.57437619103325,136.43563548014305L227.8722484111786,148.42880312793346L228.02118452125123,130.9894378561175L228.17012063132393,153.02881486258497L228.3190567413966,112.49287976121755L228.6169289615419,119.86704770068782L228.7658650716146,148.76193510465092L228.91480118168727,92.33382328981187L229.0637372917599,96.49376081120124L229.36160951190524,93.03677587033535L229.5105456219779,82.61073131356439L229.65948173205058,84.87864883057269L229.80841784212325,82.29935126281434L230.10629006226856,70.34120629826126L230.25522617234125,54.01862920457306L230.40416228241392,48.34669618869782L230.55309839248656,67.32539357910493L230.99990672270457,52.43056822833173L231.14884283277723,36.92937717804959L231.2977789428499,52.33292120123005L231.59565116299524,73.48722767433993L231.89352338314058,75.76400498364826L232.04245949321322,75.618462070822L232.34033171335858,55.068628179208275L232.48926782343122,47.80556733591092L233.0850122637219,53.72595315978978L233.23394837379456,39.34306478204569L233.3828844838672,53.86445367360832L233.53182059393987,76.38275167496114L233.97862892415787,36.80458283864393L234.12756503423054,91.13676690794014L234.27650114430324,35.636907648331295L234.57437336444855,68.1741162466162L234.72330947452122,31.107168454316L234.87224558459386,83.30599783495578L235.02118169466655,43.823658632447945L235.31905391481186,45.54226902685391L235.46799002488453,51.07301330133241L235.61692613495723,68.22587409308694L235.7658622450299,68.68628039380683L236.0637344651752,46.490986187802804L236.21267057524787,28.52915820680639L236.36160668532054,69.64419810829806L236.5105427953932,26.752959162450175L236.80841501553851,52.986501263978965L236.95735112561118,70.79051892742598L237.10628723568388,68.45478992319815L237.25522334575652,85.38081731465556L237.55309556590186,68.63899030584636L237.70203167597455,65.66554556781713L237.8509677860472,84.41112440612456L237.99990389611986,72.9698385214339L238.29777611626517,53.1812273827785" fill="none"></path></g></g></g></g></g></g><g transform="translate(61, 177)" clip-path="url(#clip_1)"><clipPath id="clip_1"><rect width="268" height="22"></rect></clipPath><g><g><line x1="0" y1="0" x2="0" y2="5" style="visibility: inherit;" fill="rgb(0, 0, 0)" stroke="rgb(204, 204, 204)" stroke-width="1px"></line><line x1="29.787222014533146" y1="0" x2="29.787222014533146" y2="5" style="visibility: inherit;" fill="rgb(0, 0, 0)" stroke="rgb(204, 204, 204)" stroke-width="1px"></line><line x1="59.57444402906629" y1="0" x2="59.57444402906629" y2="5" style="visibility: inherit;" fill="rgb(0, 0, 0)" stroke="rgb(204, 204, 204)" stroke-width="1px"></line><line x1="89.36166604359944" y1="0" x2="89.36166604359944" y2="5" style="visibility: inherit;" fill="rgb(0, 0, 0)" stroke="rgb(204, 204, 204)" stroke-width="1px"></line><line x1="119.14888805813258" y1="0" x2="119.14888805813258" y2="5" style="visibility: inherit;" fill="rgb(0, 0, 0)" stroke="rgb(204, 204, 204)" stroke-width="1px"></line><line x1="148.93611007266574" y1="0" x2="148.93611007266574" y2="5" style="visibility: inherit;" fill="rgb(0, 0, 0)" stroke="rgb(204, 204, 204)" stroke-width="1px"></line><line x1="178.72333208719888" y1="0" x2="178.72333208719888" y2="5" style="visibility: inherit;" fill="rgb(0, 0, 0)" stroke="rgb(204, 204, 204)" stroke-width="1px"></line><line x1="208.51055410173205" y1="0" x2="208.51055410173205" y2="5" style="visibility: inherit;" fill="rgb(0, 0, 0)" stroke="rgb(204, 204, 204)" stroke-width="1px"></line><line x1="238.29777611626517" y1="0" x2="238.29777611626517" y2="5" style="visibility: inherit;" fill="rgb(0, 0, 0)" stroke="rgb(204, 204, 204)" stroke-width="1px"></line><line x1="268.08499813079834" y1="0" x2="268.08499813079834" y2="5" style="visibility: inherit;" fill="rgb(0, 0, 0)" stroke="rgb(204, 204, 204)" stroke-width="1px"></line></g><g transform="translate(0, 8)"><text style="text-anchor: middle; visibility: hidden; font-family: Roboto, sans-serif; font-size: 12px; font-weight: 200;" x="0" y="0" dx="0em" dy="0.95em" fill="rgb(50, 49, 63)" stroke="none" stroke-width="1px">-200</text><text style="text-anchor: middle; visibility: hidden; font-family: Roboto, sans-serif; font-size: 12px; font-weight: 200;" x="29.787222014533146" y="0" dx="0em" dy="0.95em" fill="rgb(50, 49, 63)" stroke="none" stroke-width="1px">0</text><text style="text-anchor: middle; visibility: hidden; font-family: Roboto, sans-serif; font-size: 12px; font-weight: 200;" x="59.57444402906629" y="0" dx="0em" dy="0.95em" fill="rgb(50, 49, 63)" stroke="none" stroke-width="1px">200</text><text style="text-anchor: middle; visibility: hidden; font-family: Roboto, sans-serif; font-size: 12px; font-weight: 200;" x="89.36166604359944" y="0" dx="0em" dy="0.95em" fill="rgb(50, 49, 63)" stroke="none" stroke-width="1px">400</text><text style="text-anchor: middle; visibility: hidden; font-family: Roboto, sans-serif; font-size: 12px; font-weight: 200;" x="119.14888805813258" y="0" dx="0em" dy="0.95em" fill="rgb(50, 49, 63)" stroke="none" stroke-width="1px">600</text><text style="text-anchor: middle; visibility: hidden; font-family: Roboto, sans-serif; font-size: 12px; font-weight: 200;" x="148.93611007266574" y="0" dx="0em" dy="0.95em" fill="rgb(50, 49, 63)" stroke="none" stroke-width="1px">800</text><text style="text-anchor: middle; visibility: hidden; font-family: Roboto, sans-serif; font-size: 12px; font-weight: 200;" x="178.72333208719888" y="0" dx="0em" dy="0.95em" fill="rgb(50, 49, 63)" stroke="none" stroke-width="1px">1k</text><text style="text-anchor: middle; visibility: hidden; font-family: Roboto, sans-serif; font-size: 12px; font-weight: 200;" x="208.51055410173205" y="0" dx="0em" dy="0.95em" fill="rgb(50, 49, 63)" stroke="none" stroke-width="1px">1.2k</text><text style="text-anchor: middle; visibility: hidden; font-family: Roboto, sans-serif; font-size: 12px; font-weight: 200;" x="238.29777611626517" y="0" dx="0em" dy="0.95em" fill="rgb(50, 49, 63)" stroke="none" stroke-width="1px">1.4k</text><text style="text-anchor: middle; visibility: hidden; font-family: Roboto, sans-serif; font-size: 12px; font-weight: 200;" x="268.08499813079834" y="0" dx="0em" dy="0.95em" fill="rgb(50, 49, 63)" stroke="none" stroke-width="1px">1.6k</text></g><line x1="0" y1="0" x2="268.08499813079834" y2="0" fill="rgb(0, 0, 0)" stroke="rgb(204, 204, 204)" stroke-width="1px"></line></g></g></g></g></svg>