<svg viewBox="0 0 330 200" xmlns="http://www.w3.org/2000/svg"><g><g><g><g><g><line x1="20.383000373840332" y1="88.93120405667321" x2="15.383000373840332" y2="88.93120405667321" style="visibility: inherit;" fill="rgb(0, 0, 0)" stroke="rgb(204, 204, 204)" stroke-width="1px"></line><line x1="20.383000373840332" y1="27.12277233854301" x2="15.383000373840332" y2="27.12277233854301" style="visibility: inherit;" fill="rgb(0, 0, 0)" stroke="rgb(204, 204, 204)" stroke-width="1px"></line></g><g transform="translate(10.383000373840332, 0)"><text style="text-anchor: end; visibility: inherit; font-family: Roboto, sans-serif; font-size: 12px; font-weight: 200;" x="0" y="88.93120405667321" dx="0em" dy="0.3em" fill="rgb(50, 49, 63)" stroke="none" stroke-width="1px">2</text><text style="text-anchor: end; visibility: inherit; font-family: Roboto, sans-serif; font-size: 12px; font-weight: 200;" x="0" y="27.12277233854301" dx="0em" dy="0.3em" fill="rgb(50, 49, 63)" stroke="none" stroke-width="1px">3</text></g><line x1="20.383000373840332" y1="0" x2="20.383000373840332" y2="177.86299896240234" fill="rgb(0, 0, 0)" stroke="rgb(204, 204, 204)" stroke-width="1px"></line></g></g><g transform="translate(20, 0)" clip-path="url(#clip_0)"><clipPath id="clip_0"><rect width="309" height="177"></rect></clipPath><g><g><g><line x1="0" y1="0" x2="0" y2="177.86299896240234" fill="rgb(0, 0, 0)" stroke="rgb(60, 60, 60)" stroke-width="1px" opacity="0.25"></line><line x1="34.401888847351074" y1="0" x2="34.401888847351074" y2="177.86299896240234" fill="rgb(0, 0, 0)" stroke="rgb(60, 60, 60)" stroke-width="1px" opacity="0.25"></line><line x1="68.80377769470215" y1="0" x2="68.80377769470215" y2="177.86299896240234" fill="rgb(0, 0, 0)" stroke="rgb(60, 60, 60)" stroke-width="1px" opacity="0.25"></line><line x1="103.20566654205322" y1="0" x2="103.20566654205322" y2="177.86299896240234" fill="rgb(0, 0, 0)" stroke="rgb(60, 60, 60)" stroke-width="1px" opacity="0.25"></line><line x1="137.6075553894043" y1="0" x2="137.6075553894043" y2="177.86299896240234" fill="rgb(0, 0, 0)" stroke="rgb(60, 60, 60)" stroke-width="1px" opacity="0.25"></line><line x1="172.00944423675537" y1="0" x2="172.00944423675537" y2="177.86299896240234" fill="rgb(0, 0, 0)" stroke="rgb(60, 60, 60)" stroke-width="1px" opacity="0.25"></line><line x1="206.41133308410645" y1="0" x2="206.41133308410645" y2="177.86299896240234" fill="rgb(0, 0, 0)" stroke="rgb(60, 60, 60)" stroke-width="1px" opacity="0.25"></line><line x1="240.81322193145752" y1="0" x2="240.81322193145752" y2="177.86299896240234" fill="rgb(0, 0, 0)" stroke="rgb(60, 60, 60)" stroke-width="1px" opacity="0.25"></line><line x1="275.2151107788086" y1="0" x2="275.2151107788086" y2="177.86299896240234" fill="rgb(0, 0, 0)" stroke="rgb(60, 60, 60)" stroke-width="1px" opacity="0.25"></line><line x1="309.61699962615967" y1="0" x2="309.61699962615967" y2="177.86299896240234" fill="rgb(0, 0, 0)" stroke="rgb(60, 60, 60)" stroke-width="1px" opacity="0.25"></line></g><g><line x1="0" y1="88.93120405667321" x2="309.61699962615967" y2="88.93120405667321" fill="rgb(0, 0, 0)" stroke="rgb(60, 60, 60)" stroke-width="1px" opacity="0.25"></line><line x1="0" y1="27.12277233854301" x2="309.61699962615967" y2="27.12277233854301" fill="rgb(0, 0, 0)" stroke="rgb(60, 60, 60)" stroke-width="1px" opacity="0.25"></line></g></g></g><g><g><line x1="34.401888847351074" y1="0" x2="34.401888847351074" y2="177.86299896240234" fill="rgb(0, 0, 0)" stroke="rgb(153, 153, 153)" stroke-width="1.5px"></line></g></g><g><g><g><g><g><path style="fill: none;" stroke="rgb(255, 112, 67)" stroke-width="2px" d="M35.26193606853485,197.21312236164724L35.43394551277161,175.9971644041083L35.605954957008365,153.88242173950306L35.777964401245114,136.39938441269356L36.12198328971863,117.45806304773485L36.466002178192134,96.91491506602777L36.63801162242889,88.91681064472006L36.982030510902405,79.79048804456674L37.32604939937592,72.14371057096137L37.498058843612675,69.29030706943956L37.84207773208618,71.1297321917251L38.01408717632294,77.01581900973302L38.186096620559695,140.5029238874447L38.35810606479645,197.02533313308916L38.70212495326996,136.17945773132877L38.874134397506715,123.10262412967465L39.04614384174347,115.76397180560157L39.21815328598023,77.87418567215904L39.562172174453735,117.89378174341081L39.90619106292724,172.27631248640168L40.078200507164,144.46949994455213L40.42221939563751,153.47633191937757L40.59422883987427,170.4767121330912L40.76623828411102,110.64099061994392L40.938247728347775,96.5376394829268L41.28226661682129,104.07221349981795L41.454276061058046,112.12546215685008L41.6262855052948,75.76201917315448L41.79829494953156,55.567615807617564L42.14231383800506,44.62181670217173L42.314323282241816,101.64157027967752L42.48633272647857,141.14008877763425L42.65834217071533,105.33111927677723L43.00236105918884,87.29332147611059L43.1743705034256,77.41361981952164L43.518389391899106,113.61143930177177L43.86240828037262,130.54315712441874L44.034417724609376,141.6853291806198L44.37843661308289,74.64871989071482L44.72245550155639,74.63753528293985L44.894464945793146,133.33570878686697L45.0664743900299,112.9667096866081L45.23848383426666,77.42118123296082L45.58250272274017,79.99669484769038L45.75451216697693,121.32871666475793L45.92652161121369,164.01350167997057L46.09853105545044,127.10418778613908L46.44254994392395,143.18138268424195L46.786568832397464,62.72536226597377L46.95857827663422,84.14636162811708L47.47460660934448,101.44214741029232L47.64661605358123,121.87441900975566L47.81862549781799,127.38140268801129L48.162644386291504,63.1848533622621L48.50666327476502,129.0996390342503L48.678672719001774,188.91811729729127L49.02269160747528,159.7128935741671L49.19470105171204,180.13292400605172L49.366710495948794,152.86433582216216L49.53871994018555,144.72056901734075L49.88273882865906,108.32733556093866L50.05474827289581,69.53826532889325L50.226757717132564,25.578298387348845L50.39876716136932,58.88027375866951L50.742786049842834,88.5131120526278L50.91479549407959,119.07290199011929L51.08680493831635,152.4539991106306L51.258814382553105,76.40963303488635L51.60283327102661,129.2881112446484L51.77484271526337,104.90469351272702L51.946852159500125,107.21173536381309L52.118861603736875,103.42286827679244L52.46288049221039,61.6640279837353L52.634889936447145,40.330302027543595L52.806899380683895,110.16155039521428L52.97890882492065,175.50972739857184L53.322927713394165,168.57898378815767L53.49493715763092,160.84897920376167L53.66694660186768,185.46454662747155L53.838956046104435,122.82473466224211L54.35498437881469,127.06592050616278L54.52699382305145,74.79695402416357L54.699003267288205,66.97086598112074L55.04302215576172,34.408867685643074L55.215031599998476,102.62712770685091L55.55905048847198,52.102432415921484L55.903069376945496,84.83750976447634L56.07507882118225,146.86447131985966L56.24708826541901,120.5913949024706L56.763116598129265,166.961917972028L56.93512604236602,174.34447672258227L57.10713548660278,204.17053232540673L57.279144930839536,99.38643870414658L57.62316381931305,95.11976272891822L57.795173263549806,66.57939867368643L57.96718270778656,118.50308432084161L58.13919215202331,98.64285280386972L58.483211040496826,88.2488166301523L58.65522048473358,111.085329082764L58.9992393732071,86.29212167759171L59.34325826168061,48.36387782682289L59.51526770591735,87.5950535438126L59.68727715015411,53.24138674751062L59.859286594390866,80.24110375060378L60.20330548286438,87.91810322413527L60.37531492710114,114.10968613009233L60.54732437133789,129.44536321575728L60.71933381557465,125.52027615150872L61.06335270404816,70.49214026581151L61.40737159252167,63.57106703819368L61.57938103675843,70.45812224997896L61.923399925231934,66.69017073961504L62.09540936946868,91.50271414013727L62.26741881370544,99.62489376239289L62.4394282579422,76.163346248019L62.78344714641571,84.41548607910164L62.95545659065247,120.44833021879978L63.29947547912598,81.70029921970257L63.815503811836244,49.53079352692655L63.987513256073,82.95566508335241L64.15952270030975,28.00310447725068L64.50354158878326,42.382007542098194L64.67555103302003,36.31562426666048L64.84756047725678,70.83916201665373L65.01956992149353,78.46756512332294L65.36358880996704,54.473673405936715L65.53559825420379,63.77349140486316L65.70760769844055,91.41611560007048L65.8796171426773,85.53737923081312L66.22363603115082,114.92060466870905L66.39564547538757,67.39878140139828L66.73966436386108,63.21096662488023L67.25569269657136,32.50331164146765L67.42770214080811,56.65852319547547L67.59971158504486,41.41299323113896L68.11573991775512,26.007707404110242L68.28774936199189,28.350081320322555L68.45975880622863,60.627386905871994L68.80377769470215,41.17648133074717L68.9757871389389,68.95323718081838L69.14779658317566,88.42682187018838L69.31980602741241,131.1265471518448L69.66382491588593,126.28541153282332L69.83583436012269,99.47062668172408L70.00784380435944,81.59865360254855L70.17985324859619,71.41909837889666L70.69588158130645,76.1710819478832L70.86789102554322,84.3979393382467L71.03990046977997,79.89525053702883L71.38391935825348,107.24190403758553L71.55592880249023,115.19405760416267L71.72793824672699,176.5498867818297L71.89994769096374,168.43824439718765L72.24396657943726,185.9730606026512L72.41597602367402,165.23817559887374L72.58798546791077,184.1423532310857L72.75999491214752,175.56195034505694L73.10401380062103,83.28156548292549L73.27602324485778,68.76225670949226L73.44803268909455,86.26274280084743L73.6200421333313,88.41957220829279L73.96406102180481,128.1208612490981L74.13607046604156,145.87521317576346L74.30807991027832,132.6782896217361L74.48008935451507,127.5444161080831L75.1681271314621,90.97485568618696L75.34013657569885,126.76682069932849L75.68415546417236,161.06127412848602L75.85616490840911,109.52429752470064L76.02817435264588,97.83706052761583L76.20018379688263,107.24051914274791L76.54420268535614,89.94758827843378L76.88822157382965,120.7897532817962L77.0602310180664,101.27884604343396L77.40424990653992,119.27551124625249L77.57625935077667,161.6284423053284L77.92027823925018,129.06637890705056L78.2642971277237,158.59455507489707L78.43630657196046,160.88089101122134L78.60831601619721,79.56102942724351L78.78032546043396,88.10547470391913L79.12434434890747,96.89494031315256L79.29635379314423,40.50381871312863L79.46836323738098,34.8149696190702L79.64037268161775,46.78898121693363L79.98439157009126,63.32222232784308L80.156401014328,68.32039849376929L80.32841045856475,49.40088827482919L80.50041990280151,44.72279685638652L80.84443879127502,42.66832927118388L81.01644823551177,25.72691071699604L81.36046712398529,29.94593804910629L81.7044860124588,57.063675305089525L81.87649545669555,59.562952874521784L82.04850490093231,22.918736635202762L82.22051434516906,13.90000065282034L82.56453323364258,10.861760132018034L82.73654267787934,13.572887774838176L82.90855212211609,24.717975529679748L83.08056156635284,24.965522917406773L83.59658989906312,22.850569759144342L83.76859934329987,37.714954828883876L83.94060878753663,64.90783708598094L84.28462767601012,71.47742410512124L84.4566371202469,105.33022092401282L84.62864656448363,136.779580677665L84.80065600872041,132.11946334777434L85.14467489719391,126.02764553050969L85.31668434143066,135.2248897696085L85.48869378566741,162.01570702976187L85.66070322990417,71.01630719444562L86.00472211837769,56.782866954701205L86.3487410068512,61.78931967630326L86.52075045108795,88.09738155748373L86.86476933956146,98.83521869372399L87.03677878379821,97.58371611721286L87.20878822803498,48.67198555165676L87.38079767227173,32.500175221623195L87.72481656074524,13.027680379717966L87.896826004982,25.995276485432306L88.06883544921875,21.727716906106096L88.2408448934555,53.134833611875905L88.58486378192902,27.38894046325543L88.75687322616578,20.354135597108076L88.92888267040253,16.997007864542542L89.1008921146393,14.58762666564828L89.44491100311278,28.517812351935703L89.78892989158629,22.222825159396468L89.96093933582306,75.99706597328829L90.30495822429657,125.61808572906007L90.47696766853332,115.45381120669332L90.64897711277008,136.64619381500975L90.82098655700683,137.2930535248692L91.16500544548035,144.04518636274392L91.50902433395386,103.42416249579097L92.02505266666412,79.61400526473811L92.19706211090087,129.6094249427964L92.36907155513764,69.3208210056596L92.54108099937439,63.64191350312504L92.8850998878479,121.88487088606512L93.22911877632141,127.2645479958128L93.40112822055818,101.13883163835122L93.74514710903168,114.31668442118945L93.91715655326844,76.95693423919008L94.26117544174195,71.27332824515496L94.60519433021547,76.39137781959343L94.7772037744522,71.26072975322299L94.94921321868895,91.4991260189211L95.12122266292572,90.09789083541355L95.46524155139923,89.77084996809184L95.63725099563598,85.01654900744971L95.80926043987274,104.03254966216664L95.9812698841095,85.06428915906213L96.32528877258301,115.96003220805001L96.49729821681976,91.51790570221661L96.66930766105652,41.920395690756365L96.84131710529327,92.13149795647816L97.18533599376678,45.630166544744505L97.35734543800355,30.374509112924923L97.70136432647705,89.79215917159763L98.04538321495056,61.77733282121461L98.21739265918733,51.62755265257025L98.38940210342408,55.755609541139414L98.56141154766084,23.39861711965893L98.90543043613432,19.247554017230446L99.0774398803711,46.14396635153968L99.24944932460784,50.240312858375866L99.42145876884462,18.6978927819201L99.76547765731812,31.901344125547393L99.93748710155486,28.497997341217204L100.10949654579161,52.902715302675375L100.28150599002838,10.413863312606791L100.62552487850189,9.91983709476744L100.79753432273864,42.827226979145465L100.9695437669754,40.78944821703365L101.48557209968567,44.62735469075999L101.65758154392242,71.03389098803588L101.82959098815918,23.541475754790326L102.00160043239593,12.837766656864776L102.34561932086945,65.41830928155662L102.51762876510621,93.71674248182708L102.86164765357971,113.65378709697245L103.20566654205322,134.39743040455537L103.37767598628999,148.34966423779844L103.54968543052674,165.61619898843935L103.7216948747635,174.42702851420412L104.23772320747375,81.36742479119037L104.4097326517105,122.29755990837685L104.58174209594726,68.93434343730806L104.92576098442078,105.95805928778758L105.09777042865753,123.49692483183212L105.26977987289429,94.92817345152834L105.44178931713104,71.77817498133597L105.78580820560455,57.3090641522329L105.9578176498413,48.18493597484005L106.12982709407807,25.408999851771714L106.30183653831482,68.86697583245531L106.64585542678833,94.1040063339875L106.81786487102508,83.81469201442896L106.98987431526184,52.600408450873L107.1618837594986,73.50906754829059L107.67791209220887,90.17965287566294L107.84992153644562,138.75520319686444L108.02193098068238,172.84053099597185L108.36594986915588,118.59323872830402L108.53795931339265,112.42723679404351L108.70996875762938,67.98703475441333L108.88197820186616,58.37737586965855L109.22599709033967,81.40295521114564L109.39800653457641,82.6842618316992L109.57001597881316,83.81668392747632L109.74202542304992,77.71391529000402L110.08604431152344,72.63938284709104L110.25805375576019,54.77528817675947L110.43006319999695,98.94694091038419L110.6020726442337,88.7152108797321L110.94609153270721,105.73639325255563L111.29011042118073,86.58415770220596L111.46211986541748,100.39717264067014L111.97814819812776,105.68762329728705L112.1501576423645,79.76431143218345L112.32216708660125,55.568334709442354L112.66618597507477,83.64981079431827L112.83819541931153,117.62538000808978L113.01020486354828,109.68538792324067L113.18221430778505,96.43947167517524L113.52623319625853,108.10915548849526L113.69824264049531,98.99990076084278L113.87025208473204,113.84504323118394L114.55828986167907,83.82372953494135L114.73029930591584,59.11001505930576L114.90230875015259,59.93571697034192L115.2463276386261,74.19795053262217L115.41833708286285,56.32170113999661L115.59034652709961,38.62123939559753L115.76235597133636,37.96550116345161L116.10637485980988,35.643381178016554L116.45039374828339,77.4454423796309L116.62240319252014,117.25112847053809L116.96642208099365,153.91091668272836L117.13843152523042,83.01231073475128L117.31044096946717,57.383618348926845L117.48245041370392,58.72169802863253L118.17048819065094,22.60785306493626L118.3424976348877,58.66958849247604L118.68651652336122,10.949482636625863L118.85852596759796,32.65198581026086L119.0305354118347,76.47116507338194L119.20254485607147,80.25644240829622L119.54656374454498,99.80985029281364L119.71857318878173,126.2703633771417L119.8905826330185,150.25298261535806L120.06259207725525,180.11897475865823L120.40661096572876,97.66200340783088L120.57862040996551,67.10779566689575L120.75062985420227,79.63849642916607L120.92263929843902,126.06500933957098L121.26665818691254,114.76831726615018L121.4386676311493,116.71043478308884L121.61067707538605,174.09810063169917L121.7826865196228,72.62437941927276L122.12670540809631,64.15424698229472L122.29871485233308,48.13538905397988L122.47072429656983,62.59032660748787L122.64273374080659,70.01374393596063L122.98675262928008,43.6081798442157L123.15876207351685,40.32976463590489L123.33077151775359,72.67522626325672L123.50278096199037,85.74555396243636L123.84679985046387,93.90776213784122L124.36282818317413,98.74682675122524L124.70684707164764,73.96216444631766L124.8788565158844,49.72583141974847L125.05086596012116,84.70516306193475L125.22287540435791,85.45337453310002L125.56689429283142,53.87448764767277L125.73890373706817,68.61373500524245L125.91091318130493,64.0608590016549L126.08292262554168,90.2400524106634L126.4269415140152,81.35094600709677L126.77096040248871,89.35184113804533L126.94296984672546,35.58866599196346L127.28698873519897,42.82911992791149L127.45899817943574,35.53868127230087L127.80301706790925,36.9142249704261L128.14703595638275,30.848668913603202L128.3190454006195,48.49802611000424L128.49105484485625,67.46764660748572L128.66306428909303,65.5388267645099L129.00708317756653,36.989886662483876L129.17909262180328,27.662595737319954L129.35110206604006,22.65345253635954L129.8671303987503,13.426758542925391L130.03913984298705,50.47665791372825L130.21114928722383,75.12872072327168L130.38315873146058,80.90577438921905L130.72717761993408,90.3560822948588L131.07119650840758,71.87860303340263L131.24320595264433,115.82503152780612L131.58722484111786,85.47966345838148L131.7592342853546,100.18517433251634L131.93124372959136,101.84018165001297L132.10325317382814,123.27465631826023L132.44727206230164,110.55543205562059L132.61928150653839,96.79306278558646L132.9633003950119,72.91632096744144L133.3073192834854,57.014897665514916L133.47932872772216,38.68295851784215L133.6513381719589,35.821178115954815L133.8233476161957,65.2741003904938L134.1673665046692,65.66645662072324L134.33937594890594,50.332997693770025L134.51138539314272,49.75988661530164L134.68339483737947,70.42773871833393L135.02741372585297,98.33223491774359L135.19942317008972,89.3123356462478L135.3714326143265,39.10194709712814L135.54344205856322,54.29029792248964L135.88746094703674,26.870925563852154L136.23147983551024,13.827886772502392L136.403489279747,29.968731222456167L136.74750816822052,86.39301836171833L137.09152705669402,104.84174695577197L137.2635365009308,111.62710086333054L137.6075553894043,62.421969897903125L137.77956483364105,84.87286305797387L137.9515742778778,92.69972084409389L138.12358372211457,48.05220597266126L138.46760261058807,64.63054902443102L138.63961205482482,83.94354620063145L138.81162149906157,49.24756931587124L138.98363094329835,48.70704564997532L139.32764983177185,38.42725621616915L139.4996592760086,31.239566259671303L139.67166872024538,57.24232648301513L139.84367816448213,38.954777837126684L140.18769705295563,70.3225064684026L140.53171594142913,135.3520902873697L140.70372538566588,94.8885096496343L141.0477442741394,105.31484216113707L141.21975371837615,129.96358963895452L141.3917631626129,148.80104296376464L141.56377260684965,58.60992170671003L141.90779149532318,75.3973868345778L142.25181038379668,30.023511787420276L142.42381982803346,61.85192549716168L142.76783871650696,102.20816532715972L143.28386704921724,101.67180789126341L143.62788593769073,76.07790911942308L143.79989538192748,83.46106007243449L143.97190482616426,104.32690206435866L144.143914270401,66.76056367824418L144.4879331588745,25.892992390976477L144.65994260311126,41.31489469296948L144.83195204734804,67.55501970253371L145.00396149158476,90.19127309710936L145.51998982429504,63.833215609491454L145.6919992685318,91.56332326670557L145.86400871276854,93.37008656902132L146.20802760124207,140.60531457357155L146.38003704547882,115.00664058671924L146.55204648971556,122.48629766307373L146.72405593395234,106.66642921035175L147.06807482242584,99.60113605377977L147.58410315513612,93.69133170623826L147.92812204360962,94.05921243628946L148.10013148784637,110.63524053465468L148.27214093208312,96.96237655419397L148.4441503763199,100.27284560673311L148.7881692647934,101.4410574878509L148.96017870903015,111.3650624820147L149.13218815326692,116.70518226299237L149.30419759750367,115.31212748772532L149.64821648597717,115.05540347518479L149.82022593021392,139.62575442248553L149.9922353744507,168.5238902663042L150.16424481868742,183.77315691385664L150.50826370716095,112.02804263519027L150.6802731513977,90.81898523828141L150.85228259563445,83.91911250955576L151.0242920398712,88.71484094009826L151.36831092834473,116.77801626099962L151.54032037258148,60.31801063523677L151.884339261055,68.24882044475963L152.2283581495285,85.78142130589794L152.40036759376525,102.99228032296823L152.572377038002,83.2494419164992L152.74438648223878,109.39688686858936L153.08840537071228,140.20012995936906L153.26041481494903,138.04680366186554L153.4324242591858,149.7340521992252L153.60443370342256,101.03827319840558L153.94845259189606,109.07935945223053L154.1204620361328,38.51773628378593L154.46448092460633,25.339345216161675L154.80849981307983,37.91202707821033L154.98050925731658,39.944842374000466L155.15251870155333,34.49638503868883L155.3245281457901,85.00360071671176L155.6685470342636,87.63483929723343L155.84055647850036,79.83012856023785L156.1845753669739,89.09633241329655L156.5285942554474,82.01526592996437L156.70060369968414,80.44883184864659L156.87261314392092,76.3134804054655L157.04462258815767,71.28907172872991L157.38864147663116,35.4027370991131L157.56065092086791,31.090545395523282L157.7326603651047,50.32089285176432L158.24868869781494,91.77651198192483L158.42069814205172,50.6333939655566L158.59270758628847,60.54928965403236L159.1087359189987,62.449252550481084L159.2807453632355,63.588267362635115L160.14079258441927,66.86693612450144L160.312802028656,76.95215044116472L160.48481147289274,67.99580515111286L161.00083980560302,63.45743746941638L161.17284924983977,81.78576494314478L161.34485869407652,83.5799318204828L161.68887758255005,96.21234300537516L161.8608870267868,56.438795069827314L162.03289647102355,58.56950004179575L162.2049059152603,49.479506648778724L162.54892480373383,59.85299681033931L162.72093424797058,55.296695870222834L162.89294369220733,44.5243926025012L163.06495313644407,67.47411335474729L163.4089720249176,123.29126309347303L163.58098146915435,91.90819699712128L163.7529909133911,77.18219051168091L163.92500035762788,75.29551680405021L164.26901924610138,104.99492987797015L164.44102869033813,121.71703853496648L164.61303813457488,68.72497284637733L164.78504757881166,95.01331494622104L165.12906646728516,135.25547200990607L165.3010759115219,79.45039530788732L165.47308535575868,51.52611692860987L165.64509479999543,62.23970261622834L166.16112313270568,28.149914668060966L166.33313257694246,46.28788778447762L166.5051420211792,46.144387396654004L166.8491609096527,48.0405773016492L167.02117035388946,65.0209524952889L167.19317979812624,61.168955090170186L167.365189242363,59.34657189055157L167.7092081308365,57.7102065342508L167.88121757507326,97.83646972974397L168.05322701931001,100.03188460729936L168.22523646354676,114.16258806970698L168.56925535202024,86.29568890596221L168.74126479625704,81.2468055508947L168.9132742404938,76.40603915753842L169.08528368473054,114.56660837244424L169.42930257320407,156.7153672645102L169.60131201744082,103.01562386087296L169.77332146167754,78.86082506239099L169.9453309059143,78.29131173027466L170.46135923862457,71.28349386797211L170.63336868286132,40.78989323351917L170.80537812709807,56.191478017922044L171.1493970155716,84.1751305732666L171.32140645980834,80.97316971310495L171.4934159040451,92.6608623681437L171.66542534828184,103.23394346617324L172.00944423675537,57.744489794510145L172.18145368099212,85.39276108030549L172.35346312522887,88.829336632526L172.52547256946562,155.32210971204134L172.86949145793915,110.81431918990722L173.0415009021759,147.03545043729488L173.21351034641265,107.70503367398446L173.38551979064943,120.8214942713793L173.90154812335967,104.58033056821532L174.07355756759642,77.56762135813786L174.5895859003067,44.2913195747686L174.76159534454345,76.12986647699503L174.9336047887802,76.76750515303388L175.10561423301698,104.10289992322672L175.44963312149048,48.414832659756065L175.793652009964,37.11829668418661L175.96566145420076,89.34479580814677L176.30968034267426,79.00206187919738L176.481689786911,79.63223669588206L176.65369923114778,113.30278821107062L176.82570867538453,96.3045061250335L177.16972756385803,116.20339080582244L177.3417370080948,152.966248206923L177.51374645233156,165.64382849795442L177.6857558965683,100.82808293627228L178.0297747850418,83.63314367174571L178.37379367351534,134.92966981027556L178.5458031177521,115.7688461978196L178.88982200622556,125.58392004355876L179.06183145046236,126.88261934964486L179.23384089469909,118.7788535395803L179.7498692274094,50.30239609231349L179.9218786716461,94.83562034397875L180.09388811588286,115.52446837255638L180.2658975601196,90.93279426739036L180.60991644859314,79.53115368808683L180.7819258928299,73.75797695614334L181.1259447813034,116.57449953671403L181.46996366977692,107.92244571476718L181.64197311401367,88.78285932505197L181.81398255825042,122.16372068117194L181.98599200248717,102.66237083812919L182.3300108909607,78.8277439351931L182.50202033519744,88.06112485412925L182.6740297794342,100.90004816343279L182.84603922367094,105.0191783161496L183.19005811214447,77.91769716458336L183.36206755638122,68.98516442844723L183.53407700061797,96.73489025870522L183.70608644485475,101.63139300738712L184.05010533332825,108.63381982832452L184.222114777565,52.384238259634294L184.39412422180175,103.47724805095764L184.56613366603852,115.45020641809214L184.91015255451202,85.70049267147937L185.08216199874877,112.65886083094044L185.4261808872223,114.9948696002426L185.7701997756958,122.25527049375474L186.11421866416933,115.1695225631047L186.28622810840608,85.47118768412278L186.63024699687958,120.4560514234798L186.80225644111636,141.8972556490312L186.9742658853531,110.33356450779175L187.14627532958986,132.59299244681856L187.49029421806335,83.14492519400706L187.66230366230013,72.49489500808671L187.83431310653688,55.846776185927865L188.00632255077363,98.03653092674156L188.3503414392471,113.74808182726856L188.5223508834839,123.2353255693539L188.69436032772066,124.66753407475802L188.86636977195738,144.6250446781361L189.21038866043094,106.01171767520623L189.38239810466766,88.72660214883523L189.5544075489044,58.790577058841386L189.72641699314116,42.053414198173826L190.07043588161469,92.04613627459057L190.24244532585143,58.467281264902766L190.41445477008818,64.55820982579948L190.58646421432493,80.38858995917458L190.93048310279846,87.47469927309393L191.1024925470352,129.29903224241278L191.27450199127196,78.0746492264559L191.4465114355087,80.899512450695L191.79053032398224,145.30647507089307L191.962539768219,108.64303527015582L192.13454921245574,109.12125638934859L192.3065586566925,85.3451970952495L192.65057754516602,42.20788012569239L192.82258698940277,51.62043216520342L192.99459643363951,58.01124287480849L193.1666058778763,35.51835822078484L193.5106247663498,80.0024261173889L193.68263421058654,35.06684187287165L193.8546436548233,26.282755609502598L194.02665309906007,61.986270747764685L194.37067198753357,106.98307036153483L194.54268143177032,69.43618508256183L194.7146908760071,94.90085362944002L194.88670032024385,135.91920990631803L195.23071920871735,93.25544187388923L195.57473809719087,94.48727394767411L195.74674754142762,148.7087579090292L196.09076642990112,125.75122248454014L196.26277587413787,114.19671564749055L196.43478531837465,81.69031026397178L196.9508136510849,70.1375932543195L197.12282309532168,81.58352941320052L197.29483253955843,117.23677751607129L197.46684198379518,120.35661772062655L197.81086087226865,138.6729305314524L198.1548797607422,123.75380504373933L198.32688920497893,100.60193935026095L198.67090809345248,115.46428803128806L198.84291753768923,106.10803818943472L199.01492698192595,55.983462972259055L199.1869364261627,87.2214423782916L199.53095531463623,74.27947422519259L199.70296475887298,42.77691025785595L199.87497420310973,81.44446188451396L200.04698364734648,132.48061430356603L200.39100253582,126.6251223156179L200.56301198005676,104.94275345299438L200.7350214242935,85.14473919386175L201.25104975700378,114.58508638477579L201.42305920124053,64.50819568361281L201.59506864547728,67.85357043028158L201.76707808971403,85.8638239893331L202.11109697818756,69.89794117467402L202.2831064224243,126.79359409772515L202.45511586666106,70.11125200900227L202.62712531089784,81.53818782018348L202.97114419937134,107.45598972523676L203.31516308784484,133.82599563758237L203.48717253208162,121.222473366201L203.83119142055511,102.12917855664756L204.00320086479186,96.11718421340288L204.17521030902864,64.1415250019156L204.3472197532654,95.86473962508872L204.6912386417389,62.29744854319919L205.03525753021242,100.00128399245197L205.20726697444917,128.65923614632197L205.55128586292267,107.27544844606079L205.72329530715942,50.16199218705605L205.8953047513962,64.51759743442108L206.06731419563295,86.72386513101756L206.41133308410645,115.95599526743848L206.58334252834322,82.85027797701676L206.92736141681672,76.86648461841622L207.2713803052902,101.81478973766995L207.443389749527,124.58492147411359L207.61539919376375,133.73019339894526L207.7874086380005,132.9883480551617L208.13142752647403,130.82271346158328L208.30343697071078,110.1270976190885L208.4754464149475,131.36799039694898L208.64745585918425,134.90134016820303L208.99147474765778,106.04407369205235L209.33549363613128,84.63548973570299L209.50750308036802,80.33088183929328L209.85152196884155,96.27606091440887L210.0235314130783,97.34320808038477L210.19554085731505,78.1035176633901L210.3675503015518,63.159729226798234L210.71156919002533,68.63614044681064L210.88357863426208,57.10997686920238L211.05558807849883,22.988610522201014L211.22759752273558,53.7806526373515L211.5716164112091,58.79009961786522L211.74362585544586,109.87673713781267L211.9156352996826,103.02510725631961L212.08764474391938,110.03544183013855L212.43166363239288,91.04205161105337L212.60367307662963,98.19032129487306L212.77568252086638,108.40484647796589L212.94769196510316,64.43968628316617L213.29171085357666,74.02412830309144L213.4637202978134,84.62844795608919L213.63572974205016,84.29328338262731L213.80773918628694,145.80852562651424L214.15175807476044,141.1173291582689L214.3237675189972,162.05983785688332L214.49577696323396,104.24216446400003L214.66778640747071,96.25618481317005L215.0118052959442,83.46565897349723L215.18381474018096,55.91967188742413L215.5278336286545,71.15789746370562L215.871852517128,72.14375124218314L216.04386196136477,107.77670211792669L216.21587140560152,122.81175751460441L216.73189973831177,88.59654641266569L216.90390918254855,48.22184415898223L217.0759186267853,73.32069588836849L217.24792807102205,39.21627429291104L217.59194695949552,42.21652191270627L217.93596584796904,40.697201620944675L218.1079752922058,50.96366976770618L218.45199418067935,53.80835486250003L218.62400362491607,89.94087922280008L218.79601306915282,122.77323524414048L218.96802251338957,82.26378115658346L219.3120414018631,63.59130736428287L219.48405084609985,50.29722940321915L219.6560602903366,25.11368493727928L219.82806973457335,41.44920501107927L220.51610751152037,74.61304552372492L220.68811695575712,91.9129971465893L221.03213584423065,63.10325483575523L221.2041452884674,68.10345933295903L221.37615473270415,32.41361074651908L221.5481641769409,23.435607730277336L221.89218306541443,37.00163133642467L222.06419250965118,35.31203930306095L222.23620195388793,37.533837466027634L222.4082113981247,48.29049506767699L222.92423973083496,106.48579558411826L223.0962491750717,83.78835329621369L223.26825861930848,29.966446820715596L223.61227750778198,57.713764773723774L223.78428695201873,71.12932919549918L223.9562963962555,115.09388007528028L224.12830584049226,119.71793252066453L224.47232472896576,113.75870537951576L224.6443341732025,107.64253031522225L224.8163436174393,103.34478573351538L224.98835306167604,106.38945179454916L225.33237195014954,64.2805953515816L225.50438139438631,80.57476066857892L225.67639083862306,81.35077678715481L225.8484002828598,51.47399315304733L226.3644286155701,56.25973986503201L226.53643805980684,71.10408667271807L227.05246639251706,84.42093199938341L227.22447583675387,71.77870520032776L227.39648528099062,78.98194675047645L227.56849472522734,111.04078037027865L227.9125136137009,100.0796487393568L228.08452305793762,48.679418141935784L228.25653250217437,78.38313322480008L228.42854194641112,72.2798324787479L228.9445702791214,70.5394458307121L229.11657972335814,50.90160299942447L229.2885891675949,40.6334044434466L229.63260805606842,53.57968651834628L229.80461750030517,21.758812739103515L230.14863638877867,21.69542622359977L230.4926552772522,8.47445097223621L230.8366741657257,60.80389575565763L231.00868360996245,16.314293184402143L231.52471194267272,57.992983832893266L231.69672138690947,43.97575840168851L231.86873083114625,78.47291132190118L232.21274971961975,63.06653835186301L232.3847591638565,101.68123412788907L232.55676860809325,128.19457834897153L232.72877805233003,74.58413386034117L233.07279694080353,72.47507126702666L233.24480638504028,44.76625693839959L233.5888252735138,77.27148214436026L233.9328441619873,77.26913942646105L234.10485360622405,75.8030773042921L234.27686305046083,79.1425829296163L234.44887249469758,101.0053946957981L234.79289138317108,95.87155697535628L234.96490082740783,42.78676270431399L235.1369102716446,42.37585316435374L235.30891971588136,71.98940084185695L235.65293860435486,34.58640938932525L235.82494804859164,28.726845955687303L235.9969574928284,51.01735441874249L236.5129858255386,108.54812924119662L236.6849952697754,130.62642460111334L236.85700471401216,142.6401143179163L237.02901415824888,106.65468991851019L237.37303304672244,93.518108184629L237.5450424909592,78.46982566268322L237.7170519351959,84.67437134136433L237.88906137943266,100.89670412413909L238.2330802679062,92.44550664870951L238.40508971214294,140.34814174900538L238.5770991563797,153.85282297533357L238.74910860061644,80.42073218224976L239.09312748908997,73.75480993800686L239.26513693332672,121.69110213086235L239.43714637756347,125.81274023554491L239.60915582180021,93.14360012690511L239.95317471027374,102.04972837621843L240.1251841545105,82.95512510160371L240.29719359874724,106.50091221016815L240.81322193145752,107.17656568886122L240.98523137569427,92.81285082130341L241.15724081993102,99.69423800162413L241.3292502641678,96.49975819832491L241.6732691526413,73.71329256847736L241.84527859687805,54.445926541716865L242.0172880411148,58.55827947478566L242.53331637382507,83.87302185369693L242.70532581806182,123.79042567081159L242.8773352622986,117.18557779653814L243.04934470653535,121.185849005205L243.39336359500885,103.67188094926584L243.5653730392456,128.1156782541376L243.73738248348238,172.77786363271926L244.25341081619263,52.63280012656405L244.42542026042938,40.02343735668449L244.59742970466615,63.26452065213021L244.7694391489029,46.387229454219266L245.1134580373764,37.003719597507605L245.28546748161318,58.16123518623099L245.45747692584993,86.2722298548742L245.62948637008668,59.35981678177485L245.97350525856015,48.28255817245042L246.48953359127046,73.14070681893578L246.833552479744,71.25983146716527L247.00556192398074,85.50764646840531L247.17757136821746,70.16583575198197L247.3495808124542,18.92300910452871L247.69359970092773,3.3385830954180435L247.86560914516448,-4.268726160697502L248.03761858940123,4.283892061242577L248.20962803363798,-2.135784020475382L248.5536469221115,22.16504718252872L248.72565636634826,50.62154166810685L249.06967525482176,114.51503049219374L249.4136941432953,128.02620002014302L249.58570358753204,87.82106499062711L249.7577130317688,137.53740646900863L249.92972247600554,55.17161796967434L250.27374136447906,27.663941298711446L250.44575080871581,59.92353529448684L250.61776025295256,30.649992316783752L250.78976969718934,24.98841065589728L251.13378858566284,21.931802685729032L251.47780747413634,1.603165700921371L251.64981691837312,11.849595459298605L251.99383580684662,9.529970669810606L252.16584525108337,32.386630274307684L252.33785469532012,32.96089993292407L252.5098641395569,64.46652582892607L252.8538830280304,61.282340376427335L253.02589247226715,39.45048581302012L253.19790191650392,37.46243567862667L253.88593969345092,37.43687975371751L254.0579491376877,40.588847654698455L254.22995858192445,48.910734081042285L254.57397747039795,42.57002828420377L254.91799635887148,40.19363333915345L255.09000580310823,49.90588383723271L255.43402469158173,35.6679601358142L255.6060341358185,58.48237246674532L255.77804358005525,36.57836798101704L256.2940719127655,45.93035270598659L256.4660813570023,73.90017124172967L256.8101002454758,102.51212840175462L257.1541191339493,101.16365977689408L257.32612857818606,106.98431813207928L257.4981380224228,93.93264864895313L257.67014746665956,92.83706176166005L258.01416635513306,123.46657968260635L258.18617579936983,135.2329461129107L258.35818524360656,149.9676534370016L258.53019468784333,176.7055351916435L258.87421357631683,180.0888164213721L259.0462230205536,215.56060761888358L259.21823246479033,130.11039535188223L259.3902419090271,52.19278647769894L259.7342607975006,78.40613140618022L259.9062702417374,48.477052133311574L260.0782796859741,49.93673778370923L260.25028913021083,64.55202440875841L260.5943080186844,34.32389080253866L260.76631746292117,14.075331488166693L260.9383269071579,62.66197174385636L261.11033635139466,34.584710397248706L261.45435523986816,34.89030063101325L261.6263646841049,7.655060722010649L261.97038357257844,-1.9403469167799627L262.31440246105194,4.8952610577791305L262.48641190528866,11.27034496785797L262.8304307937622,28.052016568553313L263.1744496822357,30.8115222019317L263.34645912647244,45.625175344167275L263.5184685707092,12.359207377017116L263.690478014946,45.92521948981293L264.0344969034195,56.32528031898697L264.2065063476563,85.90050509798323L264.378515791893,76.04844238483051L264.5505252361298,59.894452966145536L264.89454412460327,103.41314408321395L265.06655356884005,113.64516594608682L265.23856301307677,119.00762135620495L265.41057245731355,123.5757919693298L265.75459134578705,145.47178376319494L265.9266007900238,102.94728421822413L266.09861023426055,90.45222544539506L266.2706196784973,76.51091933577379L266.7866480112076,84.69203071812044L266.9586574554443,55.26647966257426L267.1306668996811,66.26060815548354L267.4746857881546,79.04235226838045L267.8187046766281,80.35122487194262L267.9907141208649,81.06624272945378L268.3347330093384,97.97380442044044L268.50674245357516,118.10018467225909L269.19478023052216,109.49905120440232L269.36678967475893,139.67607873853464L269.53879911899566,102.86751759579914L269.71080856323243,59.01245380300403L270.2268368959427,48.28674004315168L270.39884634017943,35.933627612722724L270.5708557844162,36.2581046246728L270.9148746728897,46.96880176135282L271.08688411712643,56.86476109681138L271.2588935613632,63.67104800471659L271.4309030056,67.255247040058L271.7749218940735,78.54272599769386L271.9469313383102,64.10250855687963L272.118940782547,70.37584671749357L272.29095022678376,79.43589641483823L272.63496911525726,78.53856538832159L272.806978559494,90.3739795601892L272.97898800373076,62.32745759003213L273.15099744796754,60.92941775006433L273.49501633644104,79.98698503914737L273.66702578067776,44.551538076090104L273.83903522491454,64.14421155933134L274.0110446691513,74.54000307365114L274.3550635576248,104.99114483744296L274.5270730018616,116.30438524747294L274.6990824460983,100.6516374023059L274.8710918903351,41.90349949000495L275.2151107788086,80.36691284928301" fill="none"></path></g></g></g></g><g opacity="0.2"><g><g><g><path style="fill: none;" stroke="rgb(255, 112, 67)" stroke-width="2px" d="M34.917917180061345,208.80896855448256L35.26193606853485,177.42202683020068L35.43394551277161,154.3222714477815L35.605954957008365,129.129147931004L35.777964401245114,115.10802857983757L36.12198328971863,93.9040806113503L36.466002178192134,71.19118242250913L36.63801162242889,77.83780130042386L36.982030510902405,67.17349393406046L37.32604939937592,61.410983135053144L37.498058843612675,65.12288316788313L37.84207773208618,73.92501421879243L38.01408717632294,86.28186713888941L38.186096620559695,367.4195411877083L38.35810606479645,367.4195411877083L38.70212495326996,75.03033746423156L38.874134397506715,105.37971809042554L39.04614384174347,105.37971809042554L39.21815328598023,34.39131242511118L39.562172174453735,209.11195382927045L39.90619106292724,329.29333842983476L40.078200507164,110.44025266947587L40.42221939563751,168.070405137991L40.59422883987427,200.1656956944217L40.76623828411102,50.162167987632806L40.938247728347775,77.56322548452411L41.28226661682129,116.12197341579358L41.454276061058046,125.06399019724421L41.6262855052948,33.63208280661481L41.79829494953156,29.549088149351558L42.14231383800506,29.549088149351558L42.314323282241816,275.5340150931454L42.48633272647857,230.52821441915466L42.65834217071533,63.699877869538064L43.00236105918884,63.699877869538064L43.1743705034256,63.699877869538064L43.518389391899106,191.9985050593777L43.86240828037262,160.09248823223282L44.034417724609376,160.09248823223282L44.37843661308289,9.4518689951807L44.72245550155639,74.6207599098212L44.894464945793146,319.20092518477725L45.0664743900299,86.75500613004085L45.23848383426666,36.028095748231706L45.58250272274017,83.94343969720943L45.75451216697693,217.3014480637307L45.92652161121369,265.0873682471354L46.09853105545044,84.48661663193552L46.44254994392395,171.00660864050988L46.786568832397464,-10.35712206655158L46.95857827663422,123.26004684452586L47.47460660934448,131.7349682139111L47.64661605358123,158.80482685244365L47.81862549781799,136.03387875149656L48.162644386291504,-0.19512205892130272L48.678672719001774,383.41345955437936L49.02269160747528,124.29779926655489L49.19470105171204,217.036584302818L49.366710495948794,119.37471907013378L49.53871994018555,133.26677154982264L49.88273882865906,66.17068867644855L50.05474827289581,25.266492388325336L50.226757717132564,-23.053087738386044L50.39876716136932,128.40570361616938L50.742786049842834,147.7201660125232L50.91479549407959,180.79853547646613L51.08680493831635,222.21265967077144L51.258814382553105,5.799329879055481L51.60283327102661,277.5812522050403L51.77484271526337,74.37643910031393L51.946852159500125,110.73911559269929L52.118861603736875,97.9104952100908L52.46288049221039,14.855185098902547L52.634889936447145,13.05957649780818L52.806899380683895,423.04400053657446L52.97890882492065,423.04400053657446L53.322927713394165,158.7401201291344L53.49493715763092,149.9426741896356L53.66694660186768,231.9571583674214L53.838956046104435,60.46455783428615L54.35498437881469,133.65750668753995L54.52699382305145,19.69683697685645L54.699003267288205,55.937114761587935L55.04302215576172,-4.231273841334034L55.55905048847198,-1.6910340238259054L55.903069376945496,152.7057212017078L56.07507882118225,360.16989043908484L56.24708826541901,88.11078444747614L56.763116598129265,283.1284075059515L57.10713548660278,263.89789006464474L57.279144930839536,14.45742227469389L57.62316381931305,88.93563810558206L57.795173263549806,31.819845394488702L57.96718270778656,261.54484242450326L58.13919215202331,72.99534702856849L58.483211040496826,73.876736456905L58.65522048473358,153.4056176682911L58.9992393732071,55.33628770819902L59.34325826168061,4.844882127430143L59.51526770591735,176.05282923720165L59.68727715015411,12.935645580566145L59.859286594390866,132.59144140036472L60.20330548286438,100.21110965689041L60.37531492710114,164.4388264012475L60.54732437133789,155.79782006915158L60.71933381557465,119.81587472491289L61.06335270404816,13.377466907937576L61.40737159252167,53.745198815390914L61.57938103675843,81.40976975712431L61.923399925231934,61.20731886292393L62.09540936946868,138.46743629535493L62.26741881370544,112.68216494537303L62.4394282579422,46.60563353480977L62.78344714641571,97.69701432953568L62.95545659065247,198.31182049824943L63.29947547912598,37.46423388819878L63.815503811836244,11.260612254432168L63.987513256073,152.84356709548285L64.15952270030975,-29.057223457014803L64.50354158878326,66.86532377186003L64.67555103302003,27.646007199601076L64.84756047725678,144.01968204721018L65.01956992149353,90.67750967790086L65.36358880996704,24.35404139544665L65.53559825420379,78.88211658470505L65.70760769844055,145.40157421110356L65.8796171426773,77.12366897618668L66.22363603115082,173.4590785694566L66.39564547538757,15.917386245473518L66.73966436386108,57.1373643834316L67.25569269657136,-4.372488358218053L67.42770214080811,102.05578175413001L67.59971158504486,21.070784057840797L68.11573991775512,5.475975372974127L68.28774936199189,31.93254374593469L68.45975880622863,127.17484181203953L68.80377769470215,15.985793839297694L68.9757871389389,123.28293555650478L69.14779658317566,123.28293555650478L69.31980602741241,232.25797349225323L69.66382491588593,119.30031537525737L69.83583436012269,66.43931963652125L70.00784380435944,58.19472303023782L70.17985324859619,57.32093420448571L70.69588158130645,83.58890940226925L70.86789102554322,97.63579980788994L71.03990046977997,73.38117719448528L71.38391935825348,160.47157722429588L71.55592880249023,127.95871984075328L71.72793824672699,383.8602458548494L71.89994769096374,157.02683069508313L72.24396657943726,216.75697418712795L72.41597602367402,138.62316712299761L72.58798546791077,217.78575106177078L72.75999491214752,163.5341184710324L73.10401380062103,4.090025917339265L73.27602324485778,49.28709062303059L73.44803268909455,116.97597969075537L73.6200421333313,91.71313748577792L73.96406102180481,218.21953973358262L74.13607046604156,177.1122473889986L74.30807991027832,114.80550230393779L74.48008935451507,120.15392073691619L75.1681271314621,48.66039440104242L75.34013657569885,203.8700673090167L75.68415546417236,233.54738097452446L75.85616490840911,54.969339196675776L76.02817435264588,81.83181712082325L76.20018379688263,122.53177271247363L76.54420268535614,67.20889941235765L76.88822157382965,183.29404766441937L77.0602310180664,76.02103263182347L77.40424990653992,151.0150094497296L77.57625935077667,261.43080038117085L77.92027823925018,90.42617616801839L78.2642971277237,217.52078446311972L78.43630657196046,164.37600618573464L78.60831601619721,6.007356232798184L78.78032546043396,101.89331089148833L79.12434434890747,111.10923239735197L79.29635379314423,-17.58307268967997L79.46836323738098,26.660981284135822L79.64037268161775,66.72256173563234L79.98439157009126,92.06394753432681L80.156401014328,76.13905523891808L80.32841045856475,24.80714405670821L80.50041990280151,37.964300168838065L80.84443879127502,39.63762957428726L81.01644823551177,3.3947232916213594L81.36046712398529,36.50184529752588L81.7044860124588,109.71235049835056L81.87649545669555,63.39042121574985L82.04850490093231,-19.462438220716162L82.22051434516906,1.2997115891983413L82.56453323364258,6.415008351452095L82.73654267787934,17.73218875387789L82.90855212211609,43.13044385065257L83.08056156635284,25.33759937868545L83.59658989906312,19.7321610154707L83.76859934329987,63.14237143678589L83.94060878753663,117.74689294275484L84.28462767601012,81.89524421703032L84.4566371202469,176.48932604556632L84.62864656448363,200.97679502413374L84.80065600872041,125.38598259370598L85.14467489719391,117.32339890284143L85.31668434143066,150.15310367223512L85.48869378566741,213.83996795882786L85.66070322990417,-7.54741327897712L86.00472211837769,37.65150002894358L86.3487410068512,69.62148118188492L86.52075045108795,138.71553838300366L86.86476933956146,116.5088831019023L87.03677878379821,95.72551894490742L87.20878822803498,-3.8896002894444224L87.38079767227173,11.065096618147951L87.72481656074524,-12.187166213350713L87.896826004982,47.78348001053537L88.06883544921875,15.542354707020563L88.2408448934555,117.21344023662057L88.58486378192902,-4.551930305727834L88.75687322616578,10.375552541575317L88.92888267040253,12.095998365436149L89.1008921146393,11.043487458538404L89.44491100311278,52.13633889820626L89.78892989158629,13.242448932697007L89.96093933582306,229.41859037455606L90.30495822429657,256.81530908081515L90.47696766853332,101.37519570675637L90.64897711277008,175.2510041970601L90.82098655700683,138.26851907257455L91.16500544548035,154.7695955874901L91.50902433395386,57.57654640461043L92.02505266666412,49.68785976732676L92.19706211090087,262.6590915967598L92.36907155513764,8.534091880946546L92.54108099937439,55.501544089409464L92.8850998878479,304.3955655132777L93.22911877632141,135.70770796934187L93.40112822055818,68.8087109587432L93.74514710903168,136.50182774553747L93.91715655326844,33.93947126350937L94.26117544174195,63.126522136332454L94.60519433021547,84.40581924426166L94.7772037744522,63.87469105145088L94.94921321868895,128.00670891485953L95.12122266292572,88.01989666998293L95.46524155139923,89.28160047701769L95.63725099563598,78.15206390267494L95.80926043987274,137.91299021847922L95.9812698841095,60.41559691322302L96.32528877258301,178.61268370437224L96.49729821681976,60.928249550359574L96.66930766105652,-11.167756375348906L97.18533599376678,-5.0468843879423355L97.35734543800355,10.02027254273039L97.70136432647705,281.1359981214199L98.04538321495056,27.539991936433143L98.21739265918733,37.5674839772656L98.38940210342408,62.16518080273081L98.56141154766084,-15.048518436087761L98.90543043613432,13.22550544227012L99.0774398803711,98.2338326053991L99.24944932460784,56.59892798155933L99.42145876884462,-18.97734278744043L99.76547765731812,54.13492262700833L99.93748710155486,23.53133921781871L100.10949654579161,98.89225207353763L100.28150599002838,-37.004775764083135L100.62552487850189,9.181786832319462L100.79753432273864,111.19660780045585L100.9695437669754,37.78296369864199L101.48557209968567,50.571704354279575L101.65758154392242,121.8969910368863L101.82959098815918,-27.916874579882464L102.34561932086945,212.04974164417817L102.51762876510621,149.3956432332519L102.86164765357971,149.5075287415106L103.20566654205322,172.01050933020377L103.37767598628999,172.01050933020377L103.54968543052674,195.84908422819825L103.7216948747635,188.67859348309798L104.23772320747375,1.7978069925997227L104.4097326517105,216.79560630395102L104.58174209594726,13.027720066131666L104.92576098442078,187.00232446295925L105.09777042865753,154.2891781523847L105.26977987289429,60.14051444828496L105.44178931713104,42.55119833419261L105.78580820560455,37.89416579369491L105.9578176498413,35.44757071551869L106.12982709407807,-3.4190298002315136L106.30183653831482,172.95616850500033L106.64585542678833,142.0932273039615L106.81786487102508,69.57624364477701L106.98987431526184,15.238400046718002L107.1618837594986,111.48574916194819L107.67791209220887,119.19901703887737L107.84992153644562,264.91889735260287L108.02193098068238,244.69637935472798L108.36594986915588,62.04230398249386L108.53795931339265,103.62206511286034L108.70996875762938,18.964346332688763L108.88197820186616,45.011319120250384L109.22599709033967,124.15898372782117L109.39800653457641,84.62664448072304L109.57001597881316,85.53124837167994L109.74202542304992,68.9947631359242L110.08604431152344,65.33091626177091L110.25805375576019,31.38037247368168L110.43006319999695,205.88731315410476L110.6020726442337,74.55033286998842L110.94609153270721,135.4679264200619L111.29011042118073,61.72843741403639L111.46211986541748,123.79110459926713L111.97814819812776,113.98435321269741L112.1501576423645,47.64137421695413L112.32216708660125,25.236443495654118L112.66618597507477,138.7655877964297L112.83819541931153,189.15182437218803L113.01020486354828,98.50079484691834L113.18221430778505,78.50676732209395L113.52623319625853,127.48155364766339L113.69824264049531,86.28186713888941L113.87025208473204,139.23487049431733L114.55828986167907,47.611688507440306L114.73029930591584,28.236941520045814L114.90230875015259,61.18271686380106L115.2463276386261,98.45569802018525L115.41833708286285,32.91287781434203L115.59034652709961,15.413786796804853L115.76235597133636,36.98715260344062L116.10637485980988,32.22520838164869L116.45039374828339,175.16625699752402L116.62240319252014,207.7173004697256L116.96642208099365,233.77681053278172L117.13843152523042,15.43159239835523L117.31044096946717,25.563254397560932L117.48245041370392,60.751101388304505L118.17048819065094,-19.298028427141162L118.3424976348877,136.62459930949726L118.68651652336122,-40.687084652442515L118.85852596759796,72.39566455111331L119.0305354118347,181.9950517146586L119.20254485607147,86.11665407056343L119.54656374454498,134.83710822981854L119.71857318878173,177.267958613285L119.8905826330185,195.24244818187663L120.06259207725525,239.9541796021366L120.40661096572876,23.494331256089616L120.57862040996551,30.379884502705586L120.75062985420227,100.6069207280047L120.92263929843902,242.47566951324455L121.26665818691254,99.25298910167501L121.4386676311493,119.67080779717071L121.61067707538605,350.5247072336202L121.7826865196228,-10.851619933320041L122.12670540809631,52.27102597598957L122.29871485233308,26.87977539884089L122.47072429656983,87.22092082456048L122.64273374080659,81.87411048580977L122.98675262928008,10.99251854912107L123.15876207351685,35.54066782660486L123.33077151775359,139.41834998357612L123.50278096199037,107.72750508531911L123.84679985046387,107.03405037351277L124.36282818317413,106.30623756446114L124.70684707164764,43.01522259274548L124.8788565158844,19.351621164200825L125.05086596012116,159.27993409509205L125.22287540435791,86.58262295218893L125.56689429283142,16.164523453913137L125.73890373706817,93.79695252753314L125.91091318130493,57.476781080084514L126.08292262554168,140.5384961080492L126.4269415140152,68.91955643676508L126.77096040248871,102.20029515100558L126.94296984672546,-20.610246240579972L127.28698873519897,54.378536136473805L127.45899817943574,25.217814002867435L127.80301706790925,39.001097477506946L128.14703595638275,22.180178347865063L128.3190454006195,79.51810225277079L128.49105484485625,101.24970454167884L128.66306428909303,62.690599510792396L129.00708317756653,2.2218413124266783L129.17909262180328,14.661605033671133L129.35110206604006,15.43546345652455L129.8671303987503,0.5562022451072276L130.03913984298705,131.60616473994622L130.21114928722383,121.70864802970719L130.38315873146058,90.00383180362896L130.72717761993408,105.73000313907482L131.07119650840758,47.784797965573304L131.24320595264433,221.8584007317195L131.58722484111786,48.953497595763935L131.7592342853546,125.30265818877493L131.93124372959136,104.35687869073746L132.10325317382814,162.41841298028325L132.44727206230164,93.26911303746996L132.61928150653839,78.23134073701578L132.9633003950119,42.92000146418143L133.3073192834854,35.89734054939253L133.47932872772216,14.754437827190566L133.6513381719589,31.62678837493084L133.8233476161957,123.99885011199179L134.1673665046692,66.25689100128191L134.33937594890594,29.886422200918624L134.51138539314272,48.90423988726124L134.68339483737947,107.8742379007708L135.02741372585297,152.99077712259458L135.19942317008972,76.71053238401562L135.3714326143265,-14.453270235170768L135.54344205856322,80.35267520898536L135.88746094703674,-6.7703672314117425L136.23147983551024,-3.8564239457261698L136.403489279747,57.921376735676L136.74750816822052,256.2837114462512L137.09152705669402,137.52525454526094L137.2635365009308,122.40741142827024L137.6075553894043,9.634587924383174L137.77956483364105,126.30992376445772L137.9515742778778,105.24932056152836L138.12358372211457,-1.1387142813766444L138.46760261058807,93.46336369828995L138.63961205482482,118.45620522151346L138.81162149906157,8.627869369364435L138.98363094329835,47.89983690470609L139.32764983177185,24.200972583324337L139.4996592760086,21.05611437564687L139.67166872024538,107.10457353511967L139.84367816448213,15.076736881093376L140.18769705295563,134.29063406249756L140.53171594142913,379.21329977036805L140.70372538566588,49.17494845497052L141.0477442741394,122.42712765347711L141.21975371837615,176.53558205278978L141.3917631626129,182.3032565021634L141.56377260684965,-19.55358547230004L141.90779149532318,104.65361799336223L142.25181038379668,-19.753586429434275L142.42381982803346,127.11905949487644L142.76783871650696,194.63139124395494L143.28386704921724,100.87079369354497L143.62788593769073,44.29335645343976L143.79989538192748,95.25290651570886L143.97190482616426,142.20911748410145L144.143914270401,23.56043842255977L144.4879331588745,-20.1640322557406L144.65994260311126,67.83751237782013L144.83195204734804,118.00451293493091L145.00396149158476,132.05196799959873L145.51998982429504,31.26595274849805L145.6919992685318,145.77317967817999L145.86400871276854,96.12102953181888L146.20802760124207,260.5973643497775L146.38003704547882,83.21717205433923L146.55204648971556,134.44244764074193L146.72405593395234,85.64488453071458L147.06807482242584,89.58165973468114L147.58410315513612,85.23520048022216L147.92812204360962,94.61270354984168L148.10013148784637,139.46337786535676L148.27214093208312,78.5093299519198L148.4441503763199,105.37738009018986L148.7881692647934,103.21033490227325L148.96017870903015,127.57880395226299L149.13218815326692,125.08339653719385L149.30419759750367,113.24612783766592L149.64821648597717,114.67112630291099L149.82022593021392,186.01028358595232L150.16424481868742,209.95537412519647L150.50826370716095,43.937681857349915L150.6802731513977,63.6843246644209L150.85228259563445,74.12174110403939L151.0242920398712,96.2037657581122L151.36831092834473,171.84642422026644L151.54032037258148,2.182378040037255L151.884339261055,80.97681348653964L152.2283581495285,116.56077260812431L152.40036759376525,133.1111824194843L152.572377038002,57.73268457871953L152.74438648223878,159.6167092601422L153.08840537071228,202.59677305152584L153.26041481494903,134.87279489704332L153.4324242591858,169.13875329710902L153.60443370342256,48.64337246281582L153.94845259189606,121.99696098691027L154.1204620361328,-28.85883438532895L154.46448092460633,7.489233902524574L154.80849981307983,58.95893068190694L154.98050925731658,43.045815123114195L155.15251870155333,26.672298853231368L155.3245281457901,220.63003594480924L155.6685470342636,91.66886652951925L155.84055647850036,68.8247162848871L156.1845753669739,104.14579864311447L156.5285942554474,71.97464071388696L156.70060369968414,78.12895419427251L156.87261314392092,70.31348058507349L157.04462258815767,64.04995190201404L157.38864147663116,-6.2982965947073435L157.56065092086791,24.842693846026933L157.7326603651047,84.65722756953915L158.24868869781494,188.20644376901464L158.42069814205172,4.343069249465105L158.59270758628847,76.74859306419816L159.1087359189987,65.34435001654431L159.2807453632355,65.31290785921526L160.14079258441927,71.92107653315313L160.312802028656,93.45335794373719L160.48481147289274,55.47676609529037L161.00083980560302,56.89359108681609L161.17284924983977,114.21700240564108L161.34485869407652,86.31140873820382L161.68887758255005,117.37101134863197L161.8608870267868,11.315799139165009L162.03289647102355,61.82246109593767L162.2049059152603,36.78651422697683L162.54892480373383,76.87037054939123L162.72093424797058,48.70784262186099L162.89294369220733,29.67135402972874L163.06495313644407,110.05509700952507L163.4089720249176,289.2225579573884L163.58098146915435,54.38491034226353L163.7529909133911,57.4593222072012L163.92500035762788,72.50857912755833L164.26901924610138,164.3809843470427L164.44102869033813,150.84075142785935L164.61303813457488,13.090776626664471L164.78504757881166,145.58248745184312L165.12906646728516,227.27051592581208L165.3010759115219,21.779705651255032L165.47308535575868,17.379114403222147L165.64509479999543,79.8695466684404L166.16112313270568,-11.912877939312418L166.33313257694246,78.32154053013328L166.5051420211792,45.92938978460871L166.8491609096527,50.92983461183427L167.02117035388946,94.66933819726563L167.19317979812624,55.56753623748842L167.365189242363,56.653206651291015L167.7092081308365,55.288130158656394L167.88121757507326,189.43827915665838L168.05322701931001,103.38545435192822L168.22523646354676,138.16664140935376L168.56925535202024,52.20598829286649L168.74126479625704,73.9738179588984L168.9132742404938,69.42145549734889L169.08528368473054,199.37041103399133L169.42930257320407,255.7420325492876L169.60131201744082,46.862978900333296L169.77332146167754,48.57213813784534L169.9453309059143,77.44101143405227L170.46135923862457,61.341123860445556L170.63336868286132,4.120474377196219L170.80537812709807,82.6739743939571L171.1493970155716,139.03794135861608L171.32140645980834,76.29290905443982L171.4934159040451,112.06638037110811L171.66542534828184,120.61029188973576L172.00944423675537,7.8745829613189295L172.18145368099212,139.39269080011107L172.35346312522887,94.13398057484187L172.52547256946562,416.90490218388913L172.86949145793915,61.73673799605079L173.0415009021759,225.49669153586478L173.21351034641265,62.963920364628756L173.38551979064943,142.89057288743166L173.90154812335967,83.0640057983801L174.07355756759642,44.33608725855175L174.5895859003067,4.982602649455439L174.76159534454345,141.42574245127935L174.9336047887802,77.72899222536321L175.10561423301698,157.3039257549072L175.44963312149048,-9.172429927210795L175.793652009964,21.60316490170229L175.96566145420076,234.0289917309799L176.30968034267426,64.69542055364826L176.481689786911,80.58241061046553L176.65369923114778,183.9187788244425L176.82570867538453,73.90642250635393L177.16972756385803,151.97462862790718L177.3417370080948,233.16466406065678L177.51374645233156,186.8871002517024L177.6857558965683,37.04723790578772L178.0297747850418,61.00757271436674L178.37379367351534,274.63510201859856L178.5458031177521,90.90347468392336L178.88982200622556,141.60389525070715L179.06183145046236,128.85165246932215L179.23384089469909,107.37783506007999L179.7498692274094,-15.794666199988757L179.9218786716461,203.24630355709834L180.09388811588286,153.01708749877707L180.2658975601196,60.1869490982717L180.60991644859314,63.88389567781832L180.7819258928299,65.48855333057668L181.1259447813034,218.15685194076207L181.46996366977692,95.80077884241302L181.64197311401367,63.94135621017763L181.81398255825042,191.92168555780646L181.98599200248717,77.41524586498535L182.3300108909607,48.875802346065115L182.50202033519744,103.05285934631884L182.6740297794342,122.44611060806689L182.84603922367094,111.41440220677674L183.19005811214447,44.59652800218957L183.36206755638122,56.497156126275165L183.53407700061797,150.99513096881134L183.70608644485475,109.28430770786261L184.05010533332825,119.78020686970493L184.222114777565,-5.602383623514939L184.39412422180175,242.11842603453536L184.56613366603852,135.3818392696439L184.91015255451202,49.752745171491206L185.08216199874877,164.90486728856368L185.4261808872223,118.5674064376934L185.7701997756958,133.83853809999866L186.11421866416933,105.12262144207081L186.28622810840608,49.57354151953298L186.63024699687958,195.04784918177785L186.80225644111636,181.05603318408728L186.9742658853531,72.63806978435815L187.14627532958986,173.59423705824113L187.49029421806335,30.171164197233548L187.66230366230013,57.79702763859366L187.83431310653688,33.85532332192818L188.00632255077363,197.2185484101832L188.3503414392471,140.84440846826033L188.5223508834839,138.67447058373708L188.69436032772066,126.84139745257175L188.86636977195738,180.52306180312118L189.21038866043094,61.89298269354495L189.38239810466766,65.99692927514496L189.5544075489044,22.661430214447588L189.72641699314116,19.958366486704566L190.07043588161469,225.0823586134922L190.24244532585143,18.87720088677808L190.41445477008818,74.17676062716288L190.58646421432493,107.72122512392103L190.93048310279846,98.7625849706766L191.1024925470352,227.10331006584926L191.27450199127196,23.753895809710208L191.4465114355087,85.23745306637326L191.79053032398224,382.25620455254597L191.962539768219,66.24469196137358L192.13454921245574,109.84141285522084L192.3065586566925,55.45501206050372L192.65057754516602,-5.74796867213352L192.82258698940277,66.92772591987251L192.99459643363951,68.12975589000223L193.1666058778763,6.99355909713712L193.5106247663498,188.21217716604812L193.68263421058654,-14.357156636366355L193.8546436548233,13.988443784472176L194.02665309906007,138.81160794818044L194.37067198753357,217.30504413816197L194.54268143177032,26.25324009847502L194.7146908760071,143.44351262477284L194.88670032024385,230.7394235007166L195.23071920871735,45.69148470203454L195.57473809719087,96.35388980179553L195.74674754142762,304.76857220859466L196.09076642990112,96.72925988793365L196.26277587413787,98.35765701287073L196.43478531837465,43.102457765404246L196.9508136510849,54.300777800682354L197.12282309532168,100.54536014714782L197.29483253955843,193.90447294849326L197.46684198379518,125.15946787079346L197.81086087226865,171.07902811788813L198.1548797607422,103.80017270117558L198.32688920497893,71.37297632995787L198.67090809345248,140.88772600429763L198.84291753768923,93.06953585398998L199.01492698192595,2.493443680913661L199.1869364261627,150.82640482818567L199.53095531463623,56.71918448859238L199.70296475887298,5.139649620551188L199.87497420310973,167.96448301287538L200.04698364734648,270.8260418223291L200.39100253582,118.24316388170982L200.56301198005676,77.29274627719568L200.7350214242935,59.566502366395504L201.25104975700378,173.2762040723633L201.42305920124053,11.05443339065722L201.59506864547728,73.01345143307522L201.76707808971403,117.63157199006196L202.11109697818756,48.7045765945542L202.2831064224243,299.84204803724214L202.45511586666106,11.818554084989815L202.62712531089784,100.46523231785585L202.97114419937134,157.1088178053497L203.31516308784484,184.598166369848L203.48717253208162,104.07881848127919L203.83119142055511,77.33972678174885L204.00320086479186,87.52166441197372L204.17521030902864,26.054746123914033L204.3472197532654,160.83391731875125L204.6912386417389,22.71810240348865L205.03525753021242,183.28014429639947L205.20726697444917,185.27767213309772L205.55128586292267,79.95015028955244L205.72329530715942,-8.434147367349006L205.8953047513962,88.95582919675373L206.06731419563295,127.60442309317168L206.41133308410645,174.0917143852459L206.58334252834322,43.70067449549583L206.92736141681672,68.30940928771827L207.2713803052902,149.1061143617593L207.443389749527,166.75264608166376L207.61539919376375,148.56712379848844L207.7874086380005,131.88230557260297L208.13142752647403,127.63087808640599L208.30343697071078,83.55527695846533L208.4754464149475,170.0805732744641L208.64745585918425,140.35983908433622L208.99147474765778,70.97135138252825L209.33549363613128,57.28317488928968L209.50750308036802,74.09364526702352L209.85152196884155,123.83751363922624L210.0235314130783,98.95806827324712L210.19554085731505,53.149569951008274L210.3675503015518,43.17667250760747L210.71156919002533,77.23830741780453L210.88357863426208,41.30644766094765L211.05558807849883,-17.103298329755724L211.22759752273558,116.14633493653477L211.5716164112091,66.62714729653487L211.74362585544586,248.48473492715885L211.9156352996826,93.29261649362562L212.08764474391938,121.19519114435155L212.43166363239288,66.36504944171024L212.60367307662963,109.58344934147694L212.77568252086638,125.13725199273205L212.94769196510316,15.804056639945363L213.29171085357666,89.63512269489534L213.4637202978134,102.0610997490662L213.63572974205016,83.7919142150134L213.80773918628694,354.5193147977602L214.15175807476044,134.34059760246924L214.3237675189972,200.11126116125905L214.49577696323396,45.15348838497385L214.66778640747071,85.01076508936633L215.0118052959442,66.09154320673387L215.18381474018096,22.15124760125867L215.5278336286545,97.31838298813047L215.871852517128,73.63459049988575L216.04386196136477,184.38080458376203L216.21587140560152,148.57318364077372L216.73189973831177,48.4181782123449L216.90390918254855,2.584071696669128L217.0759186267853,120.97535259718201L217.24792807102205,-0.8600124238913421L217.59194695949552,46.83060428679319L217.93596584796904,38.44624194655185L218.1079752922058,67.78909946664902L218.45199418067935,58.177463931100064L218.62400362491607,168.12043805854788L218.79601306915282,190.92410857608124L218.96802251338957,36.51113458509279L219.3120414018631,39.276581659115585L219.48405084609985,32.305665989201L219.6560602903366,-6.247256065323661L219.82806973457335,69.79256391232616L220.51610751152037,143.7324315373287L220.68811695575712,122.21435663964142L221.03213584423065,28.077414371328167L221.2041452884674,75.92542550435978L221.37615473270415,-9.1100406233254L221.5481641769409,10.888355624253816L221.89218306541443,59.92377087808503L222.06419250965118,32.8122538673212L222.23620195388793,40.9284583452105L222.4082113981247,65.99817998540824L222.92423973083496,288.65010547554806L223.0962491750717,55.04429658165424L223.26825861930848,-26.27527451940237L223.61227750778198,111.96782021644485L223.78428695201873,93.76515515867429L223.9562963962555,221.19998138224304L224.12830584049226,126.9281438552769L224.47232472896576,105.23513319261801L224.6443341732025,98.9051336684033L224.8163436174393,97.11715676501927L224.98835306167604,111.07360072305269L225.33237195014954,17.178706745435818L225.50438139438631,108.83499510989262L225.67639083862306,82.5222587256172L225.8484002828598,15.402478458734672L226.3644286155701,63.73243694345416L226.53643805980684,96.49235995490841L227.05246639251706,106.86934714084911L227.22447583675387,54.58729951769379L227.39648528099062,90.46824282734504L227.56849472522734,176.96329936243976L227.9125136137009,84.98753045705571L228.08452305793762,-5.773189150968199L228.25653250217437,137.78076448763116L228.42854194641112,63.55995611834947L228.9445702791214,67.96556426083457L229.11657972335814,25.501966662270913L229.2885891675949,26.42192647048488L229.63260805606842,75.32773981471267L229.80461750030517,-16.181193833033753L230.14863638877867,21.600395842739577L230.4926552772522,-9.427756415213242L231.00868360996245,-32.74852079064141L231.52471194267272,155.2525145676688L231.69672138690947,25.10536750374603L231.86873083114625,151.57323753021734L232.21274971961975,42.53351809920955L232.3847591638565,188.02115683515325L232.55676860809325,179.32397532857064L232.72877805233003,18.496680219268264L233.07279694080353,69.36520057926982L233.24480638504028,10.834651450195844L233.5888252735138,144.47460135288307L233.9328441619873,77.26562541711756L234.10485360622405,73.63008680800976L234.27686305046083,84.29315555317677L234.44887249469758,141.10952674448987L234.79289138317108,88.48111105920128L234.96490082740783,-12.915604749243677L235.1369102716446,41.76155824251681L235.30891971588136,131.14464170548035L235.65293860435486,-8.469325498626894L235.82494804859164,20.339325100123087L235.9969574928284,92.08922316433205L236.5129858255386,285.9736251244153L236.6849952697754,171.2170177224481L236.85700471401216,162.6470967947285L237.02901415824888,64.86436546258902L237.37303304672244,75.71917651343169L237.5450424909592,58.36221695878326L237.7170519351959,94.48203554523583L237.88906137943266,129.01271392851817L238.2330802679062,80.58714166753995L238.40508971214294,263.375322224092L238.5770991563797,176.65813308208138L238.74910860061644,11.328108080649095L239.09312748908997,64.27252306265024L239.26513693332672,244.8733116260143L239.43714637756347,132.2119947755261L239.60915582180021,54.402788514247504L239.95317471027374,116.46773252777955L240.1251841545105,58.164201596619705L240.29719359874724,150.46514411557214L240.81322193145752,108.19569437667994L240.98523137569427,73.52463326436373L241.15724081993102,110.63632845543663L241.3292502641678,91.83015426384446L241.6732691526413,44.87400522461056L241.84527859687805,29.460919090288723L242.0172880411148,64.94261223689888L242.53331637382507,132.05085879675858L242.70532581806182,214.65112479847977L242.8773352622986,107.78573295440923L243.04934470653535,127.39024704974665L243.39336359500885,80.67860895283685L243.5653730392456,174.1982784181702L243.73738248348238,281.7172617314779L244.25341081619263,-38.48320365745779L244.42542026042938,22.872575159396796L244.59742970466615,106.51940461691154L244.7694391489029,24.12941960161759L245.1134580373764,23.92992122586063L245.28546748161318,96.6886515425734L245.45747692584993,141.46445472859799L245.62948637008668,26.22968032648528L245.97350525856015,33.04374172453387L246.48953359127046,120.21503122090279L246.833552479744,68.4813291066307L247.00556192398074,109.73755225238499L247.17757136821746,49.70935403777307L247.3495808124542,-35.41158619782165L247.86560914516448,-15.012014618081915L248.03761858940123,18.085922942783153L248.20962803363798,-11.285197070476714L248.5536469221115,67.90758011087645L248.72565636634826,106.71251994591198L249.06967525482176,346.01160675507464L249.4136941432953,150.84386094498763L249.58570358753204,42.32811395434798L249.7577130317688,269.2036972767681L250.27374136447906,-6.066038537574786L250.44575080871581,126.4201974863946L250.61776025295256,-4.83214280496583L250.78976969718934,16.87178083099437L251.13378858566284,17.45882370330143L251.47780747413634,-24.563923105611043L251.64981691837312,28.639128107947382L251.99383580684662,6.115402419670931L252.16584525108337,74.75326679075756L252.33785469532012,33.82638129067722L252.5098641395569,128.82191576164078L252.8538830280304,56.62740276094407L253.02589247226715,11.638409645699326L253.19790191650392,34.52814504002103L253.88593969345092,37.398553897789256L254.0579491376877,45.44247404775429L254.22995858192445,62.312830996152556L254.57397747039795,33.5276349537695L254.91799635887148,36.69709091039017L255.09000580310823,65.74330976546997L255.43402469158173,16.53119021187123L255.6060341358185,100.751843614635L255.77804358005525,8.688186909480928L256.2940719127655,61.13085964600796L256.4660813570023,128.7272549629994L256.8101002454758,159.00991766392116L257.1541191339493,99.16306244161437L257.32612857818606,116.15451424246415L257.4981380224228,76.23775593071021L257.67014746665956,91.20830531467027L258.01416635513306,185.38398754633002L258.18617579936983,154.78328249221914L258.35818524360656,175.14202245791049L258.53019468784333,228.3968894697607L259.0462230205536,291.66102160397276L259.21823246479033,54.35966135846592L259.3902419090271,-19.480893336890308L259.7342607975006,128.78921090164934L259.9062702417374,12.35466013526594L260.0782796859741,52.152813146796746L260.25028913021083,89.49392182893742L260.5943080186844,-2.0887846235752905L260.9383269071579,188.87801870953754L261.11033635139466,0.28514144517542517L261.45435523986816,35.34983770634863L261.6263646841049,-25.800969835413447L261.97038357257844,-15.288015723857907L262.31440246105194,15.760196666924287L262.48641190528866,21.362573068459557L262.8304307937622,57.29649368950568L263.1744496822357,35.046766560697534L263.34645912647244,70.9535201785185L263.5184685707092,-26.939880422903492L263.690478014946,116.23083212990808L264.0344969034195,73.39036694391598L264.2065063476563,144.95288528382875L264.378515791893,62.370221310146206L264.5505252361298,38.48026419100872L264.89454412460327,207.7423173451244L265.06655356884005,130.40889622671966L265.23856301307677,127.42250106313627L265.41057245731355,130.69545737255248L265.75459134578705,185.65067500679015L265.9266007900238,55.49900481645385L266.09861023426055,73.44252926755377L266.2706196784973,57.73235878518795L266.7866480112076,97.8509289480292L266.9586574554443,19.635394270335485L267.1306668996811,84.3985691595679L267.4746857881546,100.48100164325689L267.8187046766281,82.33584990537615L267.9907141208649,82.14509752615105L268.3347330093384,127.47399532483276L268.50674245357516,154.36424832233953L269.19478023052216,97.44405981657L269.36678967475893,200.35481754991045L269.53879911899566,60.33969938243092L269.71080856323243,10.466842550112627L270.2268368959427,33.49279279464299L270.39884634017943,19.099565705280902L270.5708557844162,36.74611884482727L270.9148746728897,64.59342774559885L271.08688411712643,73.02857828050091L271.2588935613632,74.48659947547196L271.4309030056,72.79468933001529L271.7749218940735,97.21482503692474L271.9469313383102,44.72231945556624L272.118940782547,80.2981973771622L272.29095022678376,94.12332905190388L272.63496911525726,77.2023958211539L272.806978559494,110.05159037693225L272.97898800373076,28.058519774886392L273.15099744796754,58.85610856495954L273.49501633644104,113.95567711206719L273.66702578067776,3.258201355612605L273.83903522491454,99.2557600584615L274.0110446691513,91.59742173191704L274.3550635576248,166.41861524535568L274.5270730018616,135.02352995977847L274.6990824460983,79.82718947539385L274.8710918903351,-17.830062640687864L275.2151107788086,166.1928798885673" fill="none"></path></g></g></g></g></g></g><g transform="translate(20, 177)" clip-path="url(#clip_1)"><clipPath id="clip_1"><rect width="309" height="22"></rect></clipPath><g><g><line x1="0" y1="0" x2="0" y2="5" style="visibility: inherit;" fill="rgb(0, 0, 0)" stroke="rgb(204, 204, 204)" stroke-width="1px"></line><line x1="34.401888847351074" y1="0" x2="34.401888847351074" y2="5" style="visibility: inherit;" fill="rgb(0, 0, 0)" stroke="rgb(204, 204, 204)" stroke-width="1px"></line><line x1="68.80377769470215" y1="0" x2="68.80377769470215" y2="5" style="visibility: inherit;" fill="rgb(0, 0, 0)" stroke="rgb(204, 204, 204)" stroke-width="1px"></line><line x1="103.20566654205322" y1="0" x2="103.20566654205322" y2="5" style="visibility: inherit;" fill="rgb(0, 0, 0)" stroke="rgb(204, 204, 204)" stroke-width="1px"></line><line x1="137.6075553894043" y1="0" x2="137.6075553894043" y2="5" style="visibility: inherit;" fill="rgb(0, 0, 0)" stroke="rgb(204, 204, 204)" stroke-width="1px"></line><line x1="172.00944423675537" y1="0" x2="172.00944423675537" y2="5" style="visibility: inherit;" fill="rgb(0, 0, 0)" stroke="rgb(204, 204, 204)" stroke-width="1px"></line><line x1="206.41133308410645" y1="0" x2="206.41133308410645" y2="5" style="visibility: inherit;" fill="rgb(0, 0, 0)" stroke="rgb(204, 204, 204)" stroke-width="1px"></line><line x1="240.81322193145752" y1="0" x2="240.81322193145752" y2="5" style="visibility: inherit;" fill="rgb(0, 0, 0)" stroke="rgb(204, 204, 204)" stroke-width="1px"></line><line x1="275.2151107788086" y1="0" x2="275.2151107788086" y2="5" style="visibility: inherit;" fill="rgb(0, 0, 0)" stroke="rgb(204, 204, 204)" stroke-width="1px"></line><line x1="309.61699962615967" y1="0" x2="309.61699962615967" y2="5" style="visibility: inherit;" fill="rgb(0, 0, 0)" stroke="rgb(204, 204, 204)" stroke-width="1px"></line></g><g transform="translate(0, 8)"><text style="text-anchor: middle; visibility: hidden; font-family: Roboto, sans-serif; font-size: 12px; font-weight: 200;" x="0" y="0" dx="0em" dy="0.95em" fill="rgb(50, 49, 63)" stroke="none" stroke-width="1px">-200</text><text style="text-anchor: middle; visibility: inherit; font-family: Roboto, sans-serif; font-size: 12px; font-weight: 200;" x="34.401888847351074" y="0" dx="0em" dy="0.95em" fill="rgb(50, 49, 63)" stroke="none" stroke-width="1px">0</text><text style="text-anchor: middle; visibility: inherit; font-family: Roboto, sans-serif; font-size: 12px; font-weight: 200;" x="68.80377769470215" y="0" dx="0em" dy="0.95em" fill="rgb(50, 49, 63)" stroke="none" stroke-width="1px">200</text><text style="text-anchor: middle; visibility: inherit; font-family: Roboto, sans-serif; font-size: 12px; font-weight: 200;" x="103.20566654205322" y="0" dx="0em" dy="0.95em" fill="rgb(50, 49, 63)" stroke="none" stroke-width="1px">400</text><text style="text-anchor: middle; visibility: inherit; font-family: Roboto, sans-serif; font-size: 12px; font-weight: 200;" x="137.6075553894043" y="0" dx="0em" dy="0.95em" fill="rgb(50, 49, 63)" stroke="none" stroke-width="1px">600</text><text style="text-anchor: middle; visibility: inherit; font-family: Roboto, sans-serif; font-size: 12px; font-weight: 200;" x="172.00944423675537" y="0" dx="0em" dy="0.95em" fill="rgb(50, 49, 63)" stroke="none" stroke-width="1px">800</text><text style="text-anchor: middle; visibility: inherit; font-family: Roboto, sans-serif; font-size: 12px; font-weight: 200;" x="206.41133308410645" y="0" dx="0em" dy="0.95em" fill="rgb(50, 49, 63)" stroke="none" stroke-width="1px">1k</text><text style="text-anchor: middle; visibility: inherit; font-family: Roboto, sans-serif; font-size: 12px; font-weight: 200;" x="240.81322193145752" y="0" dx="0em" dy="0.95em" fill="rgb(50, 49, 63)" stroke="none" stroke-width="1px">1.2k</text><text style="text-anchor: middle; visibility: inherit; font-family: Roboto, sans-serif; font-size: 12px; font-weight: 200;" x="275.2151107788086" y="0" dx="0em" dy="0.95em" fill="rgb(50, 49, 63)" stroke="none" stroke-width="1px">1.4k</text><text style="text-anchor: middle; visibility: hidden; font-family: Roboto, sans-serif; font-size: 12px; font-weight: 200;" x="309.61699962615967" y="0" dx="0em" dy="0.95em" fill="rgb(50, 49, 63)" stroke="none" stroke-width="1px">1.6k</text></g><line x1="0" y1="0" x2="309.61699962615967" y2="0" fill="rgb(0, 0, 0)" stroke="rgb(204, 204, 204)" stroke-width="1px"></line></g></g></g></g></svg>